<?xml version="1.0" encoding="UTF-8" standalone="no"?>
<!-- Created with Inkscape (http://www.inkscape.org/) -->

<svg
   width="200mm"
   height="200mm"
   viewBox="0 0 200 200"
   version="1.1"
   id="svg1"
   inkscape:version="1.4-rc1 (61ec3f24, 2024-09-26)"
   xml:space="preserve"
   sodipodi:docname="lesssimplemandala.svg"
   xmlns:inkscape="http://www.inkscape.org/namespaces/inkscape"
   xmlns:sodipodi="http://sodipodi.sourceforge.net/DTD/sodipodi-0.dtd"
   xmlns="http://www.w3.org/2000/svg"
   xmlns:svg="http://www.w3.org/2000/svg"
   xmlns:inkstitch="http://inkstitch.org/namespace"><sodipodi:namedview
     id="namedview1"
     pagecolor="#ffffff"
     bordercolor="#000000"
     borderopacity="0.25"
     inkscape:showpageshadow="2"
     inkscape:pageopacity="0.0"
     inkscape:pagecheckerboard="0"
     inkscape:deskcolor="#d1d1d1"
     inkscape:document-units="mm"
     inkscape:zoom="1.6373475"
     inkscape:cx="459.89016"
     inkscape:cy="380.49345"
     inkscape:current-layer="g249"
     showguides="true"
     inkscape:lockguides="false"
     showgrid="true"
     inkscape:export-bgcolor="#ffffffff"><sodipodi:guide
       position="99.999999,99.999999"
       orientation="-0.5,0.8660254"
       id="guide1"
       inkscape:locked="false"
       inkscape:label=""
       inkscape:color="rgb(145,65,172)" /><sodipodi:guide
       position="99.999999,99.999999"
       orientation="0,1"
       id="guide2"
       inkscape:locked="false"
       inkscape:label=""
       inkscape:color="rgb(0,134,229)" /><sodipodi:guide
       position="99.999999,99.999999"
       orientation="0,1"
       id="guide3"
       inkscape:label=""
       inkscape:locked="false"
       inkscape:color="rgb(0,134,229)" /><sodipodi:guide
       position="99.999999,99.999999"
       orientation="0.5,0.8660254"
       id="guide17"
       inkscape:label=""
       inkscape:locked="false"
       inkscape:color="rgb(0,134,229)" /><sodipodi:guide
       position="99.999999,99.999999"
       orientation="1,0"
       id="guide234"
       inkscape:label=""
       inkscape:locked="false"
       inkscape:color="rgb(145,65,172)" /><inkscape:grid
       type="axonomgrid"
       id="grid265"
       units="mm"
       originx="0"
       originy="0"
       spacingx="0.99999999"
       spacingy="0.99999999"
       empcolor="#0099e5"
       empopacity="0.30196078"
       color="#0099e5"
       opacity="0.14901961"
       empspacing="5"
       dotted="false"
       gridanglex="30"
       gridanglez="30"
       enabled="false"
       visible="true" /><inkscape:grid
       id="grid266"
       units="mm"
       originx="0"
       originy="0"
       spacingx="0.26458333"
       spacingy="0.26458333"
       empcolor="#0099e5"
       empopacity="0.30196078"
       color="#0099e5"
       opacity="0.14901961"
       empspacing="5"
       enabled="false"
       visible="true" /><inkscape:grid
       type="axonomgrid"
       id="grid267"
       units="mm"
       originx="0"
       originy="0"
       spacingx="0.99999999"
       spacingy="0.99999999"
       empcolor="#0099e5"
       empopacity="0.30196078"
       color="#0099e5"
       opacity="0.14901961"
       empspacing="5"
       dotted="false"
       gridanglex="30"
       gridanglez="30"
       enabled="false"
       visible="true" /><inkscape:grid
       type="modular"
       id="grid268"
       units="mm"
       originx="0"
       originy="0"
       spacingx="40"
       spacingy="40"
       empcolor="#0047cb"
       empopacity="0.30196078"
       color="#0099e5"
       opacity="0.14901961"
       empspacing="0"
       marginx="0"
       marginy="0"
       gapx="9.9999999"
       gapy="9.9999999"
       enabled="false"
       visible="true" /><inkscape:grid
       type="axonomgrid"
       id="grid269"
       units="mm"
       originx="0"
       originy="0"
       spacingx="0.99999999"
       spacingy="0.99999999"
       empcolor="#0099e5"
       empopacity="0.30196078"
       color="#0099e5"
       opacity="0.14901961"
       empspacing="5"
       dotted="false"
       gridanglex="30"
       gridanglez="30"
       enabled="false"
       visible="true" /><inkscape:grid
       id="grid270"
       units="mm"
       originx="0"
       originy="0"
       spacingx="0.26458333"
       spacingy="0.26458333"
       empcolor="#0099e5"
       empopacity="0.30196078"
       color="#0099e5"
       opacity="0.14901961"
       empspacing="5"
       enabled="false"
       visible="true" /></sodipodi:namedview><metadata
     id="metadata1"><inkstitch:min_stitch_len_mm>0.5</inkstitch:min_stitch_len_mm><inkstitch:collapse_len_mm>2</inkstitch:collapse_len_mm><inkstitch:inkstitch_svg_version>3</inkstitch:inkstitch_svg_version></metadata><defs
     id="defs1"><inkscape:path-effect
   effect="copy_rotate"
   starting_point="103.9539,100"
   origin="100,100"
   id="path-effect10"
   is_visible="true"
   lpeversion="1.2"
   lpesatellites=""
   method="normal"
   num_copies="6"
   starting_angle="0"
   rotation_angle="60"
   gap="-0.01"
   copies_to_360="true"
   mirror_copies="false"
   split_items="false"
   link_styles="false" /><inkscape:path-effect
   effect="copy_rotate"
   starting_point="417.3152,99.3141"
   origin="98.275763,99.896057"
   id="path-effect373"
   is_visible="false"
   lpeversion="1.2"
   lpesatellites=""
   method="normal"
   num_copies="6"
   starting_angle="0.1045126"
   rotation_angle="60"
   gap="-0.01"
   copies_to_360="true"
   mirror_copies="false"
   split_items="false"
   link_styles="false" /><inkscape:path-effect
   effect="mirror_symmetry"
   start_point="-57.726627,99.968267"
   end_point="254.71256,99.968267"
   center_point="98.492968,99.968267"
   id="path-effect371"
   is_visible="false"
   lpeversion="1.2"
   lpesatellites=""
   mode="horizontal"
   discard_orig_path="false"
   fuse_paths="false"
   oposite_fuse="false"
   split_items="false"
   split_open="false"
   link_styles="false" /><inkscape:path-effect
   effect="copy_rotate"
   starting_point="417.3152,99.3141"
   origin="98.275763,99.896057"
   id="path-effect369"
   is_visible="true"
   lpeversion="1.2"
   lpesatellites=""
   method="normal"
   num_copies="6"
   starting_angle="0.1045126"
   rotation_angle="60"
   gap="-0.01"
   copies_to_360="true"
   mirror_copies="false"
   split_items="false"
   link_styles="false" /><inkscape:path-effect
   effect="mirror_symmetry"
   start_point="-57.726627,99.968267"
   end_point="254.71256,99.968267"
   center_point="98.492968,99.968267"
   id="path-effect367"
   is_visible="true"
   lpeversion="1.2"
   lpesatellites=""
   mode="horizontal"
   discard_orig_path="false"
   fuse_paths="false"
   oposite_fuse="false"
   split_items="false"
   split_open="false"
   link_styles="false" /><inkscape:path-effect
   effect="copy_rotate"
   starting_point="119.90429,99.801616"
   origin="100.06658,100.04303"
   id="path-effect308"
   is_visible="true"
   lpeversion="1.2"
   lpesatellites=""
   method="normal"
   num_copies="6"
   starting_angle="0.69723511"
   rotation_angle="60"
   gap="-0.01"
   copies_to_360="true"
   mirror_copies="false"
   split_items="false"
   link_styles="false" /><inkscape:path-effect
   effect="mirror_symmetry"
   start_point="100,0"
   end_point="100,200"
   center_point="100,100"
   id="path-effect306"
   is_visible="true"
   lpeversion="1.2"
   lpesatellites=""
   mode="vertical"
   discard_orig_path="false"
   fuse_paths="false"
   oposite_fuse="false"
   split_items="false"
   split_open="false"
   link_styles="false" /><inkscape:path-effect
   effect="copy_rotate"
   starting_point="417.3152,99.3141"
   origin="98.275763,99.896057"
   id="path-effect297"
   is_visible="false"
   lpeversion="1.2"
   lpesatellites=""
   method="normal"
   num_copies="6"
   starting_angle="0.1045126"
   rotation_angle="60"
   gap="-0.01"
   copies_to_360="true"
   mirror_copies="false"
   split_items="false"
   link_styles="false" /><inkscape:path-effect
   effect="mirror_symmetry"
   start_point="-57.726627,99.968267"
   end_point="254.71256,99.968267"
   center_point="98.492968,99.968267"
   id="path-effect295"
   is_visible="false"
   lpeversion="1.2"
   lpesatellites=""
   mode="horizontal"
   discard_orig_path="false"
   fuse_paths="false"
   oposite_fuse="false"
   split_items="false"
   split_open="false"
   link_styles="false" /><inkscape:path-effect
   effect="copy_rotate"
   starting_point="417.3152,99.3141"
   origin="98.275763,99.896057"
   id="path-effect292"
   is_visible="true"
   lpeversion="1.2"
   lpesatellites=""
   method="normal"
   num_copies="6"
   starting_angle="0.1045126"
   rotation_angle="60"
   gap="-0.01"
   copies_to_360="true"
   mirror_copies="false"
   split_items="false"
   link_styles="false" /><inkscape:path-effect
   effect="mirror_symmetry"
   start_point="-57.726627,99.968267"
   end_point="254.71256,99.968267"
   center_point="98.492968,99.968267"
   id="path-effect288"
   is_visible="true"
   lpeversion="1.2"
   lpesatellites=""
   mode="horizontal"
   discard_orig_path="false"
   fuse_paths="false"
   oposite_fuse="false"
   split_items="false"
   split_open="false"
   link_styles="false" /><inkscape:path-effect
   effect="copy_rotate"
   starting_point="417.3152,99.3141"
   origin="98.275763,99.896057"
   id="path-effect262"
   is_visible="false"
   lpeversion="1.2"
   lpesatellites=""
   method="normal"
   num_copies="6"
   starting_angle="0.1045126"
   rotation_angle="60"
   gap="-0.01"
   copies_to_360="true"
   mirror_copies="false"
   split_items="false"
   link_styles="false" /><inkscape:path-effect
   effect="mirror_symmetry"
   start_point="-57.726627,99.968267"
   end_point="254.71256,99.968267"
   center_point="98.492968,99.968267"
   id="path-effect260"
   is_visible="false"
   lpeversion="1.2"
   lpesatellites=""
   mode="horizontal"
   discard_orig_path="false"
   fuse_paths="false"
   oposite_fuse="false"
   split_items="false"
   split_open="false"
   link_styles="false" /><inkscape:path-effect
   effect="copy_rotate"
   starting_point="203.71996,99.96827"
   origin="98.492968,99.96827"
   id="path-effect252"
   is_visible="true"
   lpeversion="1.2"
   lpesatellites=""
   method="normal"
   num_copies="6"
   starting_angle="7.2105061e-08"
   rotation_angle="60"
   gap="-0.01"
   copies_to_360="true"
   mirror_copies="false"
   split_items="false"
   link_styles="false" /><inkscape:path-effect
   effect="mirror_symmetry"
   start_point="-57.726627,99.968267"
   end_point="254.71256,99.968267"
   center_point="98.492968,99.968267"
   id="path-effect250"
   is_visible="true"
   lpeversion="1.2"
   lpesatellites=""
   mode="horizontal"
   discard_orig_path="false"
   fuse_paths="false"
   oposite_fuse="false"
   split_items="false"
   split_open="false"
   link_styles="false" /><inkscape:path-effect
   effect="copy_rotate"
   starting_point="119.90429,99.801616"
   origin="100.06658,100.04303"
   id="path-effect234"
   is_visible="true"
   lpeversion="1.2"
   lpesatellites=""
   method="normal"
   num_copies="6"
   starting_angle="0.69723511"
   rotation_angle="60"
   gap="-0.01"
   copies_to_360="true"
   mirror_copies="false"
   split_items="false"
   link_styles="false" /><inkscape:path-effect
   effect="mirror_symmetry"
   start_point="100,0"
   end_point="100,200"
   center_point="100,100"
   id="path-effect233"
   is_visible="true"
   lpeversion="1.2"
   lpesatellites=""
   mode="vertical"
   discard_orig_path="false"
   fuse_paths="false"
   oposite_fuse="false"
   split_items="false"
   split_open="false"
   link_styles="false" /><inkscape:path-effect
   effect="copy_rotate"
   starting_point="162.36864,164.32046"
   origin="131.83618,164.32046"
   id="path-effect232"
   is_visible="true"
   lpeversion="1.2"
   lpesatellites=""
   method="normal"
   num_copies="5"
   starting_angle="0"
   rotation_angle="72"
   gap="-0.01"
   copies_to_360="true"
   mirror_copies="false"
   split_items="false"
   link_styles="false" /><inkscape:path-effect
   effect="copy_rotate"
   starting_point="162.36864,164.32046"
   origin="131.83618,164.32046"
   id="path-effect175"
   is_visible="true"
   lpeversion="1.2"
   lpesatellites=""
   method="normal"
   num_copies="5"
   starting_angle="0"
   rotation_angle="72"
   gap="-0.01"
   copies_to_360="true"
   mirror_copies="false"
   split_items="false"
   link_styles="false" /><inkscape:path-effect
   effect="copy_rotate"
   starting_point="207.14808,100"
   origin="100,100"
   id="path-effect120"
   is_visible="true"
   lpeversion="1.2"
   lpesatellites=""
   method="normal"
   num_copies="4"
   starting_angle="0"
   rotation_angle="90"
   gap="-0.01"
   copies_to_360="false"
   mirror_copies="false"
   split_items="false"
   link_styles="false" /><inkscape:path-effect
   effect="copy_rotate"
   starting_point="162.36864,164.32046"
   origin="131.83618,164.32046"
   id="path-effect118"
   is_visible="true"
   lpeversion="1.2"
   lpesatellites=""
   method="normal"
   num_copies="5"
   starting_angle="0"
   rotation_angle="72"
   gap="-0.01"
   copies_to_360="true"
   mirror_copies="false"
   split_items="false"
   link_styles="false" /><inkscape:path-effect
   effect="copy_rotate"
   starting_point="153.39992,99.976764"
   origin="102.02363,99.976764"
   id="path-effect115"
   is_visible="true"
   lpeversion="1.2"
   lpesatellites=""
   method="normal"
   num_copies="5"
   starting_angle="0"
   rotation_angle="72"
   gap="-0.01"
   copies_to_360="true"
   mirror_copies="false"
   split_items="false"
   link_styles="false" /><inkscape:path-effect
   effect="mirror_symmetry"
   start_point="3.9987766,100.31863"
   end_point="200.07402,99.669844"
   center_point="102.0364,99.994237"
   id="path-effect111"
   is_visible="true"
   lpeversion="1.2"
   lpesatellites=""
   mode="free"
   discard_orig_path="false"
   fuse_paths="false"
   oposite_fuse="false"
   split_items="false"
   split_open="false"
   link_styles="false" /><inkscape:path-effect
   effect="copy_rotate"
   starting_point="162.36864,164.32046"
   origin="131.83618,164.32046"
   id="path-effect7"
   is_visible="true"
   lpeversion="1.2"
   lpesatellites=""
   method="normal"
   num_copies="5"
   starting_angle="0"
   rotation_angle="72"
   gap="-0.01"
   copies_to_360="true"
   mirror_copies="false"
   split_items="false"
   link_styles="false" /><inkscape:path-effect
   effect="copy_rotate"
   starting_point="153.39992,99.976764"
   origin="102.02363,99.976764"
   id="path-effect2"
   is_visible="true"
   lpeversion="1.2"
   lpesatellites=""
   method="normal"
   num_copies="5"
   starting_angle="0"
   rotation_angle="72"
   gap="-0.01"
   copies_to_360="true"
   mirror_copies="false"
   split_items="false"
   link_styles="false" /><inkscape:path-effect
   effect="mirror_symmetry"
   start_point="3.9987783,100.31863"
   end_point="200.07402,99.669844"
   center_point="102.0364,99.994237"
   id="path-effect1"
   is_visible="true"
   lpeversion="1.2"
   lpesatellites=""
   mode="free"
   discard_orig_path="false"
   fuse_paths="false"
   oposite_fuse="false"
   split_items="false"
   split_open="false"
   link_styles="false" /><inkscape:path-effect
   effect="copy_rotate"
   starting_point="246.48768,77.104101"
   origin="243.73928,77.104101"
   id="path-effect415"
   is_visible="true"
   lpeversion="1.2"
   lpesatellites=""
   method="normal"
   num_copies="6"
   starting_angle="0"
   rotation_angle="60"
   gap="-0.01"
   copies_to_360="true"
   mirror_copies="false"
   split_items="false"
   link_styles="false" /><inkscape:path-effect
   effect="copy_rotate"
   starting_point="116.85204,100"
   origin="100,100"
   id="path-effect355"
   is_visible="true"
   lpeversion="1.2"
   lpesatellites=""
   method="normal"
   num_copies="4"
   starting_angle="0"
   rotation_angle="90"
   gap="-0.01"
   copies_to_360="true"
   mirror_copies="false"
   split_items="false"
   link_styles="false" /><inkscape:path-effect
   effect="copy_rotate"
   starting_point="231.74108,164.2996"
   origin="131.74108,164.2996"
   id="path-effect353"
   is_visible="true"
   lpeversion="1.2"
   lpesatellites=""
   method="normal"
   num_copies="5"
   starting_angle="0"
   rotation_angle="72"
   gap="-0.01"
   copies_to_360="true"
   mirror_copies="false"
   split_items="false"
   link_styles="false" /><inkscape:path-effect
   effect="copy_rotate"
   starting_point="202.1057,99.899729"
   origin="102.1057,99.899729"
   id="path-effect351"
   is_visible="true"
   lpeversion="1.2"
   lpesatellites=""
   method="normal"
   num_copies="5"
   starting_angle="0"
   rotation_angle="72"
   gap="-0.01"
   copies_to_360="true"
   mirror_copies="false"
   split_items="false"
   link_styles="false" /><inkscape:path-effect
   effect="mirror_symmetry"
   start_point="102.03702,99.999993"
   end_point="308.38954,100.04115"
   center_point="205.21328,100.02057"
   id="path-effect349"
   is_visible="true"
   lpeversion="1.2"
   lpesatellites=""
   mode="free"
   discard_orig_path="false"
   fuse_paths="false"
   oposite_fuse="false"
   split_items="false"
   split_open="false"
   link_styles="false" /><inkscape:path-effect
   effect="copy_rotate"
   starting_point="246.41969,77.048086"
   origin="243.67129,77.048086"
   id="path-effect347"
   is_visible="true"
   lpeversion="1.2"
   lpesatellites=""
   method="normal"
   num_copies="6"
   starting_angle="0"
   rotation_angle="60"
   gap="-0.01"
   copies_to_360="true"
   mirror_copies="false"
   split_items="false"
   link_styles="false" /><inkscape:path-effect
   effect="copy_rotate"
   starting_point="116.85204,100"
   origin="100,100"
   id="path-effect293"
   is_visible="true"
   lpeversion="1.2"
   lpesatellites=""
   method="normal"
   num_copies="4"
   starting_angle="0"
   rotation_angle="90"
   gap="-0.01"
   copies_to_360="true"
   mirror_copies="false"
   split_items="false"
   link_styles="false" /><inkscape:path-effect
   effect="copy_rotate"
   starting_point="231.74108,164.2996"
   origin="131.74108,164.2996"
   id="path-effect291"
   is_visible="true"
   lpeversion="1.2"
   lpesatellites=""
   method="normal"
   num_copies="5"
   starting_angle="0"
   rotation_angle="72"
   gap="-0.01"
   copies_to_360="true"
   mirror_copies="false"
   split_items="false"
   link_styles="false" /><inkscape:path-effect
   effect="copy_rotate"
   starting_point="202.1057,99.899729"
   origin="102.1057,99.899729"
   id="path-effect289"
   is_visible="true"
   lpeversion="1.2"
   lpesatellites=""
   method="normal"
   num_copies="5"
   starting_angle="0"
   rotation_angle="72"
   gap="-0.01"
   copies_to_360="true"
   mirror_copies="false"
   split_items="false"
   link_styles="false" /><inkscape:path-effect
   effect="mirror_symmetry"
   start_point="102.03702,99.999993"
   end_point="308.38954,100.04115"
   center_point="205.21328,100.02057"
   id="path-effect287"
   is_visible="true"
   lpeversion="1.2"
   lpesatellites=""
   mode="free"
   discard_orig_path="false"
   fuse_paths="false"
   oposite_fuse="false"
   split_items="false"
   split_open="false"
   link_styles="false" /><inkscape:path-effect
   effect="copy_rotate"
   starting_point="246.41969,77.048086"
   origin="243.67129,77.048086"
   id="path-effect285"
   is_visible="true"
   lpeversion="1.2"
   lpesatellites=""
   method="normal"
   num_copies="6"
   starting_angle="0"
   rotation_angle="60"
   gap="-0.01"
   copies_to_360="true"
   mirror_copies="false"
   split_items="false"
   link_styles="false" /><inkscape:path-effect
   effect="copy_rotate"
   starting_point="116.85204,100"
   origin="100,100"
   id="path-effect231"
   is_visible="true"
   lpeversion="1.2"
   lpesatellites=""
   method="normal"
   num_copies="4"
   starting_angle="0"
   rotation_angle="90"
   gap="-0.01"
   copies_to_360="true"
   mirror_copies="false"
   split_items="false"
   link_styles="false" /><inkscape:path-effect
   effect="copy_rotate"
   starting_point="231.74108,164.2996"
   origin="131.74108,164.2996"
   id="path-effect229"
   is_visible="true"
   lpeversion="1.2"
   lpesatellites=""
   method="normal"
   num_copies="5"
   starting_angle="0"
   rotation_angle="72"
   gap="-0.01"
   copies_to_360="true"
   mirror_copies="false"
   split_items="false"
   link_styles="false" /><inkscape:path-effect
   effect="copy_rotate"
   starting_point="202.1057,99.899729"
   origin="102.1057,99.899729"
   id="path-effect227"
   is_visible="true"
   lpeversion="1.2"
   lpesatellites=""
   method="normal"
   num_copies="5"
   starting_angle="0"
   rotation_angle="72"
   gap="-0.01"
   copies_to_360="true"
   mirror_copies="false"
   split_items="false"
   link_styles="false" /><inkscape:path-effect
   effect="mirror_symmetry"
   start_point="102.03702,99.999993"
   end_point="308.38954,100.04115"
   center_point="205.21328,100.02057"
   id="path-effect225"
   is_visible="true"
   lpeversion="1.2"
   lpesatellites=""
   mode="free"
   discard_orig_path="false"
   fuse_paths="false"
   oposite_fuse="false"
   split_items="false"
   split_open="false"
   link_styles="false" /><inkscape:path-effect
   effect="copy_rotate"
   starting_point="246.41969,77.048086"
   origin="243.67129,77.048086"
   id="path-effect223"
   is_visible="true"
   lpeversion="1.2"
   lpesatellites=""
   method="normal"
   num_copies="6"
   starting_angle="0"
   rotation_angle="60"
   gap="-0.01"
   copies_to_360="true"
   mirror_copies="false"
   split_items="false"
   link_styles="false" /><inkscape:path-effect
   effect="copy_rotate"
   starting_point="116.85204,100"
   origin="100,100"
   id="path-effect116"
   is_visible="true"
   lpeversion="1.2"
   lpesatellites=""
   method="normal"
   num_copies="4"
   starting_angle="0"
   rotation_angle="90"
   gap="-0.01"
   copies_to_360="true"
   mirror_copies="false"
   split_items="false"
   link_styles="false" /><inkscape:path-effect
   effect="copy_rotate"
   starting_point="231.74108,164.2996"
   origin="131.74108,164.2996"
   id="path-effect114"
   is_visible="true"
   lpeversion="1.2"
   lpesatellites=""
   method="normal"
   num_copies="5"
   starting_angle="0"
   rotation_angle="72"
   gap="-0.01"
   copies_to_360="true"
   mirror_copies="false"
   split_items="false"
   link_styles="false" /><inkscape:path-effect
   effect="copy_rotate"
   starting_point="202.1057,99.899729"
   origin="102.1057,99.899729"
   id="path-effect112"
   is_visible="true"
   lpeversion="1.2"
   lpesatellites=""
   method="normal"
   num_copies="5"
   starting_angle="0"
   rotation_angle="72"
   gap="-0.01"
   copies_to_360="true"
   mirror_copies="false"
   split_items="false"
   link_styles="false" /><inkscape:path-effect
   effect="mirror_symmetry"
   start_point="102.03702,99.999993"
   end_point="308.38954,100.04115"
   center_point="205.21328,100.02057"
   id="path-effect110"
   is_visible="true"
   lpeversion="1.2"
   lpesatellites=""
   mode="free"
   discard_orig_path="false"
   fuse_paths="false"
   oposite_fuse="false"
   split_items="false"
   split_open="false"
   link_styles="false" /><inkscape:path-effect
   effect="copy_rotate"
   starting_point="246.41969,77.048086"
   origin="243.67129,77.048086"
   id="path-effect108"
   is_visible="true"
   lpeversion="1.2"
   lpesatellites=""
   method="normal"
   num_copies="6"
   starting_angle="0"
   rotation_angle="60"
   gap="-0.01"
   copies_to_360="true"
   mirror_copies="false"
   split_items="false"
   link_styles="false" /><inkscape:path-effect
   effect="mirror_symmetry"
   start_point="102.00069,24.983211"
   end_point="97.99931,175.01679"
   center_point="100,100"
   id="path-effect6"
   is_visible="false"
   lpeversion="1.2"
   lpesatellites=""
   mode="free"
   discard_orig_path="false"
   fuse_paths="false"
   oposite_fuse="false"
   split_items="false"
   split_open="false"
   link_styles="false" /><inkscape:path-effect
   effect="copy_rotate"
   starting_point="116.85204,100"
   origin="100,100"
   id="path-effect5"
   is_visible="true"
   lpeversion="1.2"
   lpesatellites=""
   method="normal"
   num_copies="4"
   starting_angle="0"
   rotation_angle="90"
   gap="-0.01"
   copies_to_360="true"
   mirror_copies="false"
   split_items="false"
   link_styles="false" /><inkscape:path-effect
   effect="copy_rotate"
   starting_point="246.41969,77.048086"
   origin="243.67129,77.048086"
   id="path-effect52"
   is_visible="true"
   lpeversion="1.2"
   lpesatellites=""
   method="normal"
   num_copies="6"
   starting_angle="0"
   rotation_angle="60"
   gap="-0.01"
   copies_to_360="true"
   mirror_copies="false"
   split_items="false"
   link_styles="false" /><inkscape:path-effect
   effect="copy_rotate"
   starting_point="231.74108,164.2996"
   origin="131.74108,164.2996"
   id="path-effect9"
   is_visible="false"
   lpeversion="1.2"
   lpesatellites=""
   method="normal"
   num_copies="5"
   starting_angle="0"
   rotation_angle="72"
   gap="-0.01"
   copies_to_360="true"
   mirror_copies="false"
   split_items="false"
   link_styles="false" /><inkscape:path-effect
   effect="copy_rotate"
   starting_point="202.1057,99.899729"
   origin="102.1057,99.899729"
   id="path-effect4"
   is_visible="false"
   lpeversion="1.2"
   lpesatellites=""
   method="normal"
   num_copies="5"
   starting_angle="0"
   rotation_angle="72"
   gap="-0.01"
   copies_to_360="true"
   mirror_copies="false"
   split_items="false"
   link_styles="false" /><inkscape:path-effect
   effect="mirror_symmetry"
   start_point="102.03702,99.999993"
   end_point="308.38954,100.04115"
   center_point="205.21328,100.02057"
   id="path-effect3"
   is_visible="true"
   lpeversion="1.2"
   lpesatellites=""
   mode="free"
   discard_orig_path="false"
   fuse_paths="false"
   oposite_fuse="false"
   split_items="false"
   split_open="false"
   link_styles="false" /><symbol
   id="inkstitch_stop"><title
     id="inkstitch_title13328">Stop the machine after sewing this object (for applique, etc)</title><path
     id="inkstitch_circle13330"
     d="m 9.2465269,-2.6e-6 c -1.9e-6,5.106729 -4.1398241,9.24655 -9.246553026709,9.24655 C -5.1067554,9.2465474 -9.2465782,5.1067264 -9.2465801,-2.6e-6 c 10e-8,-2.452338 0.9741879,-4.804235 2.7082531,-6.538301 1.7340653,-1.734065 4.0859624,-2.708252 6.538300873291,-2.708252 C 5.106704,-9.2465556 9.2465267,-5.1067326 9.2465269,-2.6e-6 c 0,0 0,0 0,0"
     style="opacity:1;vector-effect:none;fill:#fafafa;fill-opacity:1;fill-rule:evenodd;stroke:#003399;stroke-width:1.06501;stroke-linecap:round;stroke-linejoin:miter;stroke-miterlimit:4;stroke-dasharray:3.19504, 3.19504;stroke-dashoffset:0;stroke-opacity:1"
     inkscape:connector-curvature="0" /><path
     id="inkstitch_path13332"
     d="m -3.1690251,-4.6497026 c 0,0 2.51587797,0 2.51587797,0 0,0 0,9.14087 0,9.14087 0,0 -2.51587797,0 -2.51587797,0 0,0 0,-9.14087 0,-9.14087"
     style="opacity:1;fill:#000000;fill-opacity:1;fill-rule:nonzero;stroke:none;stroke-width:1.60622;stroke-linecap:round;stroke-linejoin:round;stroke-miterlimit:4;stroke-dasharray:4.81867, 4.81867;stroke-dashoffset:0;stroke-opacity:1;paint-order:fill markers stroke"
     inkscape:connector-curvature="0" /><path
     id="inkstitch_path13333"
     d="m 0.83097287,-4.6497026 c 0,0 2.51588003,0 2.51588003,0 0,0 0,9.14087 0,9.14087 0,0 -2.51588003,0 -2.51588003,0 0,0 0,-9.14087 0,-9.14087"
     style="display:inline;opacity:1;fill:#000000;fill-opacity:1;fill-rule:nonzero;stroke:none;stroke-width:1.60622;stroke-linecap:round;stroke-linejoin:round;stroke-miterlimit:4;stroke-dasharray:4.81867, 4.81867;stroke-dashoffset:0;stroke-opacity:1;paint-order:fill markers stroke"
     inkscape:connector-curvature="0" /></symbol><symbol
   id="inkstitch_trim"><title
     id="inkstitch_title9282">Trim the thread after sewing this object.</title><path
     id="inkstitch_circle13405"
     d="m 9.2465284,-8.6e-6 c 1.8e-6,2.452339 -0.9741847,4.804237 -2.7082493,6.538304 C 4.8042146,8.2723614 2.4523174,9.2465504 -2.1625959e-5,9.2465514 -2.4523623,9.2465534 -4.8042621,8.2723654 -6.5383288,6.5382984 -8.2723956,4.8042314 -9.2465834,2.4523324 -9.2465816,-8.6e-6 c 6e-7,-2.452339 0.9741895,-4.804237 2.708256,-6.538301 1.7340665,-1.734065 4.0859648,-2.708252 6.538303974041,-2.70825 C 5.1067066,-9.2465576 9.2465271,-5.1067366 9.2465284,-8.6e-6 c 0,0 0,0 0,0"
     style="opacity:1;vector-effect:none;fill:#fafafa;fill-opacity:1;fill-rule:evenodd;stroke:#003399;stroke-width:1.065;stroke-linecap:round;stroke-linejoin:miter;stroke-miterlimit:4;stroke-dasharray:3.195, 3.195;stroke-dashoffset:0;stroke-opacity:1"
     inkscape:connector-curvature="0" /><path
     style="color:#000000;font-style:normal;font-variant:normal;font-weight:normal;font-stretch:normal;font-size:medium;line-height:normal;font-family:sans-serif;font-variant-ligatures:normal;font-variant-position:normal;font-variant-caps:normal;font-variant-numeric:normal;font-variant-alternates:normal;font-feature-settings:normal;text-indent:0;text-align:start;text-decoration:none;text-decoration-line:none;text-decoration-style:solid;text-decoration-color:#000000;letter-spacing:normal;word-spacing:normal;text-transform:none;writing-mode:lr-tb;direction:ltr;text-orientation:mixed;dominant-baseline:auto;baseline-shift:baseline;text-anchor:start;white-space:normal;shape-padding:0;clip-rule:nonzero;display:inline;overflow:visible;visibility:visible;opacity:1;isolation:auto;mix-blend-mode:normal;color-interpolation:sRGB;color-interpolation-filters:linearRGB;solid-color:#000000;solid-opacity:1;vector-effect:none;fill:#050505;fill-opacity:1;fill-rule:evenodd;stroke:none;stroke-width:1.41421;stroke-linecap:butt;stroke-linejoin:miter;stroke-miterlimit:4;stroke-dasharray:none;stroke-dashoffset:0;stroke-opacity:1;color-rendering:auto;image-rendering:auto;shape-rendering:auto;text-rendering:auto;enable-background:accumulate"
     d="m -3.0000256,-5.9834096 c -1.30575,0 -2.375,1.06924 -2.375,2.375 0,1.30575 1.06925,2.375 2.375,2.375 0.58687,0 1.11944,-0.22369 1.53516,-0.58007 0,0 0.61717997,1.62109 0.61717997,1.62109 0,0 -2.29881997,6.01758 -2.29881997,6.01758 0.98655,-0.12511 1.23728,-0.26171 1.67382,-0.97461 0,0 1.33007997,-3.18945 1.33007997,-3.18945 0,0 1.23633003,3.25 1.23633003,3.25 0.23227,0.77906 0.84315,0.79218 1.57813,1.07226 0,0 -2.05469003,-6.14258 -2.05469003,-6.14258 0,0 0.73047003,-1.75 0.73047003,-1.75 0.42849,0.41682 1.01136,0.67578 1.65234,0.67578 1.30575,0 2.375,-1.06925 2.375,-2.375 0,-1.30576 -1.06925,-2.375 -2.375,-2.375 -1.06233,0 -1.95701,0.71265 -2.25781003,1.67969 0,0 -0.0117,-0.0156 -0.0117,-0.0156 0,0 -0.80274,2.10156 -0.80274,2.10156 0,0 -0.59179,-1.76562 -0.59179,-1.76562 -0.18242,-1.12808 -1.15864997,-2 -2.33593997,-2 0,0 -2e-5,-3e-5 -2e-5,-3e-5 m 0,1 c 0.76531,0 1.375,0.60968 1.375,1.375 0,0.76531 -0.60969,1.375 -1.375,1.375 -0.76531,0 -1.375,-0.60969 -1.375,-1.375 0,-0.76532 0.60969,-1.375 1.375,-1.375 0,0 0,0 0,0 m 6,0 c 0.76531,0 1.375,0.60968 1.375,1.375 0,0.76531 -0.60969,1.375 -1.375,1.375 -0.76531,0 -1.375,-0.60969 -1.375,-1.375 0,-0.76532 0.60969,-1.375 1.375,-1.375 0,0 0,0 0,0"
     id="inkstitch_path13416"
     inkscape:connector-curvature="0" /></symbol><symbol
   id="inkstitch_ignore_object"><title
     id="title25366">Ignore object when generating stitch plan</title><path
     inkscape:connector-curvature="0"
     style="opacity:1;vector-effect:none;fill:#fafafa;fill-opacity:1;fill-rule:evenodd;stroke:#ff0000;stroke-width:1.06501;stroke-linecap:round;stroke-linejoin:miter;stroke-miterlimit:4;stroke-dasharray:3.19504, 3.19504;stroke-dashoffset:0;stroke-opacity:1"
     d="m 9.2465269,-2.6e-6 c -1.9e-6,5.106729 -4.1398241,9.24655 -9.246553026709,9.24655 C -5.1067554,9.2465474 -9.2465782,5.1067264 -9.2465801,-2.6e-6 c 10e-8,-2.452338 0.9741879,-4.804235 2.7082531,-6.538301 1.7340653,-1.734065 4.0859624,-2.708252 6.538300873291,-2.708252 C 5.106704,-9.2465556 9.2465267,-5.1067326 9.2465269,-2.6e-6 v 0"
     id="inkstitch_path25368"
     sodipodi:nodetypes="csssscc" /><path
     style="color:#000000;font-style:normal;font-variant:normal;font-weight:normal;font-stretch:normal;font-size:medium;line-height:normal;font-family:sans-serif;font-variant-ligatures:normal;font-variant-position:normal;font-variant-caps:normal;font-variant-numeric:normal;font-variant-alternates:normal;font-feature-settings:normal;text-indent:0;text-align:start;text-decoration:none;text-decoration-line:none;text-decoration-style:solid;text-decoration-color:#000000;letter-spacing:normal;word-spacing:normal;text-transform:none;writing-mode:lr-tb;direction:ltr;text-orientation:mixed;dominant-baseline:auto;baseline-shift:baseline;text-anchor:start;white-space:normal;shape-padding:0;clip-rule:nonzero;display:inline;overflow:visible;visibility:visible;opacity:1;isolation:auto;mix-blend-mode:normal;color-interpolation:sRGB;color-interpolation-filters:linearRGB;solid-color:#000000;solid-opacity:1;vector-effect:none;fill:#ff0000;fill-opacity:1;fill-rule:nonzero;stroke:none;stroke-width:2.365;stroke-linecap:butt;stroke-linejoin:round;stroke-miterlimit:4;stroke-dasharray:none;stroke-dashoffset:0;stroke-opacity:1;paint-order:fill markers stroke;color-rendering:auto;image-rendering:auto;shape-rendering:auto;text-rendering:auto;enable-background:accumulate"
     d="M 5.9670459,-7.182445 -7.5106053,5.8067489 c -0.1726626,0.167055 -0.1205449,0.382287 0.051259,0.540886 0.4472376,0.445359 0.9095461,0.890719 1.44712,1.336078 L 7.8945309,-5.7539019 c -0.444712,-0.4981949 -0.762678,-1.0407509 -1.340795,-1.4922541 -0.129647,-0.1296467 -0.384848,-0.1381312 -0.58669,0.063711 z"
     id="inkstitch_path31147"
     inkscape:connector-curvature="0"
     sodipodi:nodetypes="ccccccc" /><path
     style="color:#000000;font-style:normal;font-variant:normal;font-weight:normal;font-stretch:normal;font-size:medium;line-height:normal;font-family:sans-serif;font-variant-ligatures:normal;font-variant-position:normal;font-variant-caps:normal;font-variant-numeric:normal;font-variant-alternates:normal;font-feature-settings:normal;text-indent:0;text-align:start;text-decoration:none;text-decoration-line:none;text-decoration-style:solid;text-decoration-color:#000000;letter-spacing:normal;word-spacing:normal;text-transform:none;writing-mode:lr-tb;direction:ltr;text-orientation:mixed;dominant-baseline:auto;baseline-shift:baseline;text-anchor:start;white-space:normal;shape-padding:0;clip-rule:nonzero;display:inline;overflow:visible;visibility:visible;opacity:1;isolation:auto;mix-blend-mode:normal;color-interpolation:sRGB;color-interpolation-filters:linearRGB;solid-color:#000000;solid-opacity:1;vector-effect:none;fill:#ff0000;fill-opacity:1;fill-rule:nonzero;stroke:none;stroke-width:2.365;stroke-linecap:butt;stroke-linejoin:round;stroke-miterlimit:4;stroke-dasharray:none;stroke-dashoffset:0;stroke-opacity:1;paint-order:fill markers stroke;color-rendering:auto;image-rendering:auto;shape-rendering:auto;text-rendering:auto;enable-background:accumulate"
     d="m -6.3778509,-7.3863915 c -0.4163674,0.3694232 -0.8327348,0.8218035 -1.2491022,1.2906927 L 5.9335939,7.7988319 7.6269529,6.1484419 -5.6213616,-7.4261673 c -0.1943465,-0.1943465 -0.5493765,-0.1905301 -0.7564893,0.039776 z"
     inkstitch_id="path31147-7"
     inkscape:connector-curvature="0"
     sodipodi:nodetypes="cccccc"
     id="path19494" /></symbol><symbol
   id="inkstitch_satin_cut_point"
   style="display:inline"><title
     id="inkstitch_title9427-675">Satin Column cut point</title><path
     id="inkstitch_circle13166-3"
     d="m 9.220113,0.07922893 c -1.9e-6,5.10672897 -4.1398241,9.24654997 -9.24655297,9.24654997 -5.10672933,0 -9.24655213,-4.139821 -9.24655403,-9.24654997 1e-7,-2.45233803 0.9741879,-4.80423503 2.7082531,-6.53830103 1.7340653,-1.734065 4.0859624,-2.708252 6.53830093,-2.708252 5.10673007,0 9.24655277,4.139823 9.24655297,9.24655303 0,0 0,0 0,0"
     style="opacity:1;vector-effect:none;fill:#fafafa;fill-opacity:1;fill-rule:evenodd;stroke:#003399;stroke-width:1.065;stroke-linecap:round;stroke-linejoin:miter;stroke-miterlimit:4;stroke-dasharray:3.195, 3.195;stroke-dashoffset:0;stroke-opacity:1"
     inkscape:connector-curvature="0" /><path
     id="path24356"
     d="m -7.8132269,-1.4510415 c -0.4413094,0.88338563 -0.07931,1.96814513 0.8040823,2.40945763 0.8833854,0.44130937 1.9681488,0.079303 2.4094581,-0.8040818 0.1983467,-0.3970378 0.2270074,-0.8329413 0.1264064,-1.23463743 0,0 1.3053145,0.13034233 1.3053145,0.13034233 0,0 3.29416163,3.58901577 3.29416163,3.58901577 0.2487872,-0.7097192 0.2411124,-0.9255141 -0.09365,-1.4617903 0,0 -1.70824193,-1.97779537 -1.70824193,-1.97779537 0,0 2.61658533,0.2619947 2.61658533,0.2619947 0.60556237,0.1061633 0.82089997,-0.3026842 1.25878787,-0.70526413 0,0 -4.8501007,-0.6859624 -4.8501007,-0.6859624 0,0 -0.9370561,-1.0856429 -0.9370561,-1.0856429 0.4268116,-0.1490142 0.7990019,-0.4558243 1.0156363,-0.8894695 0.4413094,-0.8833854 0.079303,-1.9681487 -0.8040822,-2.4094581 -0.8833921,-0.4413128 -1.9681487,-0.079303 -2.4094581,0.8040822 -0.3590398,0.7187033 -0.1792857,1.5648425 0.373288,2.0951784 0,0 -0.014508,0.00264 -0.014508,0.00264 0,0 1.1504733,1.2533541 1.1504733,1.2533541 0,0 -1.3945129,-0.196367 -1.3945129,-0.196367 -0.8248385,-0.2578481 -1.7446631,0.1079194 -2.1425563,0.9043974 0,0 -2.71e-5,3.4e-6 -2.71e-5,3.4e-6 m 0.6765348,0.337974 c 0.2586549,-0.517759 0.877184,-0.7241797 1.3949495,-0.4655215 0.5177589,0.2586549 0.7241761,0.87719093 0.4655214,1.39494953 -0.2586548,0.5177587 -0.8771906,0.7241758 -1.3949494,0.4655211 -0.5177657,-0.2586579 -0.7241762,-0.8771902 -0.4655215,-1.39494913 0,0 0,0 0,0 m 2.0278432,-4.0592094 c 0.2586548,-0.5177589 0.8771839,-0.7241794 1.3949495,-0.4655213 0.5177588,0.2586548 0.724176,0.8771905 0.4655213,1.3949494 -0.2586548,0.5177588 -0.8771906,0.7241761 -1.3949494,0.4655213 -0.5177656,-0.2586581 -0.7241761,-0.8771906 -0.4655214,-1.3949494 0,0 0,0 0,0"
     style="display:inline;opacity:1;fill:#000000;fill-opacity:1;stroke:none;stroke-width:0.378129;stroke-linejoin:miter;stroke-miterlimit:4;stroke-dasharray:none;stroke-dashoffset:0;stroke-opacity:1;paint-order:fill markers stroke"
     inkscape:connector-curvature="0" /><path
     id="path24362"
     d="m 4.4798843,-4.3110508 c 0.219827,2.414579 -0.180079,4.01786863 -1.429103,5.5454305 0,0 2.023437,1.0507812 2.023437,1.0507812 1.715964,-1.67359867 1.847271,-3.9809016 1.75755,-6.660665 0,0 -2.351884,0.064453 -2.351884,0.064453 m -2.097072,6.2192586 c -2.10168637,1.4056146 -3.14434337,3.5358281 -3.667017,6.0218201 0,0 2.3918915,0.212651 2.3918915,0.212651 0.3238246,-2.741001 2.2229845,-4.191785 3.3298135,-5.1368148 0,0 -2.054688,-1.0976563 -2.054688,-1.0976563"
     style="color:#000000;font-style:normal;font-variant:normal;font-weight:normal;font-stretch:normal;font-size:medium;line-height:normal;font-family:sans-serif;font-variant-ligatures:normal;font-variant-position:normal;font-variant-caps:normal;font-variant-numeric:normal;font-variant-alternates:normal;font-feature-settings:normal;text-indent:0;text-align:start;text-decoration:none;text-decoration-line:none;text-decoration-style:solid;text-decoration-color:#000000;letter-spacing:normal;word-spacing:normal;text-transform:none;writing-mode:lr-tb;direction:ltr;text-orientation:mixed;dominant-baseline:auto;baseline-shift:baseline;text-anchor:start;white-space:normal;shape-padding:0;clip-rule:nonzero;display:inline;overflow:visible;visibility:visible;opacity:1;isolation:auto;mix-blend-mode:normal;color-interpolation:sRGB;color-interpolation-filters:linearRGB;solid-color:#000000;solid-opacity:1;vector-effect:none;fill:#242424;fill-opacity:1;fill-rule:nonzero;stroke:none;stroke-width:2.4;stroke-linecap:butt;stroke-linejoin:miter;stroke-miterlimit:4;stroke-dasharray:none;stroke-dashoffset:0;stroke-opacity:1;paint-order:fill markers stroke;color-rendering:auto;image-rendering:auto;shape-rendering:auto;text-rendering:auto;enable-background:accumulate"
     inkscape:connector-curvature="0" /></symbol><symbol
   id="inkstitch_starting_point">
      <title
   id="inkstitch_title9432">Starting point</title>
      <path
   id="inkstitch_circle13166-6"
   d="m 9.2465269,-2.6e-6 c -1.9e-6,5.106729 -4.1398247,9.24655 -9.246554026709,9.24655 C -5.106756,9.2465474 -9.2465782,5.1067264 -9.2465801,-2.6e-6 c 2e-7,-5.10673 4.1398229,-9.246553 9.246552973291,-9.246553 2.452338526709,0 4.804235626709,0.974187 6.538300926709,2.708252 1.7340652,1.734066 2.708253,4.085963 2.7082531,6.538301 0,0 0,0 0,0"
   style="opacity:1;vector-effect:none;fill:#fafafa;fill-opacity:1;fill-rule:evenodd;stroke:#003399;stroke-width:1.06501234;stroke-linecap:round;stroke-linejoin:miter;stroke-miterlimit:4;stroke-dasharray:3.19503705, 3.19503705;stroke-dashoffset:0;stroke-opacity:1"
   inkscape:connector-curvature="0" />
      <path
   style="opacity:1;vector-effect:none;fill:#000000;fill-opacity:1;fill-rule:evenodd;stroke:none;stroke-width:2.74180555;stroke-linecap:butt;stroke-linejoin:miter;stroke-miterlimit:4;stroke-dasharray:none;stroke-dashoffset:0;stroke-opacity:1"
   d="m 6.5728129,0.0035574 c 0,0 -10.4514,6.03412 -10.4514,6.03412 0,0 0,-12.06823 0,-12.06823 0,0 10.4514,6.03411 10.4514,6.03411"
   id="inkstitch_path4183"
   inkscape:connector-curvature="0" />
    </symbol>
    <symbol
   id="inkstitch_ending_point">
      <title
   id="inkstitch_title9427">Ending point</title>
      <path
   id="inkstitch_circle13166"
   d="m 9.220113,0.0792309 c -1.9e-6,5.106729 -4.1398241,9.24655 -9.246553,9.24655 -5.1067293,0 -9.2465521,-4.139821 -9.246554,-9.24655 1e-7,-2.452338 0.9741879,-4.804235 2.7082531,-6.538301 1.7340653,-1.734065 4.0859624,-2.708252 6.5383009,-2.708252 5.1067301,0 9.2465528,4.139823 9.246553,9.246553 0,0 0,0 0,0"
   style="opacity:1;vector-effect:none;fill:#fafafa;fill-opacity:1;fill-rule:evenodd;stroke:#003399;stroke-width:1.06500006;stroke-linecap:round;stroke-linejoin:miter;stroke-miterlimit:4;stroke-dasharray:3.19500017, 3.19500017;stroke-dashoffset:0;stroke-opacity:1"
   inkscape:connector-curvature="0" />
      <path
   style="opacity:1;fill:#000000;fill-opacity:1;fill-rule:nonzero;stroke:none;stroke-width:2.27154255;stroke-linecap:round;stroke-linejoin:round;stroke-miterlimit:4;stroke-dasharray:4.81866985, 4.81866985;stroke-dashoffset:0;stroke-opacity:1;paint-order:fill markers stroke"
   d="m -4.570439,-4.5704391 c 0,0 9.140878,0 9.140878,0 0,0 0,9.14087 0,9.14087 0,0 -9.140878,0 -9.140878,0 0,0 0,-9.14087 0,-9.14087"
   id="inkstitch_rect5371-2"
   inkscape:connector-curvature="0" />
    </symbol>
    <symbol
   id="inkstitch_target_point"
   style="display:inline">
      <title
   id="inkstitch_title9427-9">Target point</title>
      <path
   id="inkstitch_circle13166-9"
   d="m 9.220113,0.07922893 c -1.9e-6,5.10672897 -4.1398241,9.24654997 -9.24655297,9.24654997 -5.10672933,0 -9.24655213,-4.139821 -9.24655403,-9.24654997 1e-7,-2.45233803 0.9741879,-4.80423503 2.7082531,-6.53830103 1.7340653,-1.734065 4.0859624,-2.708252 6.53830093,-2.708252 5.10673007,0 9.24655277,4.139823 9.24655297,9.24655303 0,0 0,0 0,0"
   style="opacity:1;vector-effect:none;fill:#fafafa;fill-opacity:1;fill-rule:evenodd;stroke:#003399;stroke-width:1.06500006;stroke-linecap:round;stroke-linejoin:miter;stroke-miterlimit:4;stroke-dasharray:3.19500017, 3.19500017;stroke-dashoffset:0;stroke-opacity:1"
   inkscape:connector-curvature="0" />
      <path
   style="opacity:1;fill:none;stroke:#000000;stroke-width:1.5;stroke-linecap:round;stroke-linejoin:round;stroke-miterlimit:4;stroke-opacity:1;"
   d="m -4.1361006,-3.9974292 8.224564,8.224564 m 0,-8.224564 -8.224564,8.224564 m 9.927927,-4.112282 h -11.63129 m 5.81564501,-5.815645 v 11.63129"
   id="inkstitch_rect5371-2-9"
   inkscape:connector-curvature="0" />
    </symbol>
  <symbol
   id="inkstitch_autoroute_start"
   style="display:inline">
      <title
   id="inkstitch_title9427-3">Running stitch starting point</title>
      <path
   style="opacity:1;vector-effect:none;fill:#fafafa;fill-opacity:1;fill-rule:evenodd;stroke:#003399;stroke-width:1.06500006;stroke-linecap:round;stroke-linejoin:miter;stroke-miterlimit:4;stroke-dasharray:3.19500017, 3.19500017;stroke-dashoffset:0;stroke-opacity:1"
   d="M 9.2201108,0.05852023 A 9.2576327,9.2122261 0 0 1 -0.03752532,9.2707454 9.2576327,9.2122261 0 0 1 -9.2951565,0.05852023 9.2576327,9.2122261 0 0 1 -0.03752532,-9.1537082 9.2576327,9.2122261 0 0 1 9.2201108,0.05852023 Z"
   id="inkstitch-autorun_start-circle" />
      <path
   style="fill:#000000;"
   id="inkstitch-autorun_start-path"
   d="M -3.8159516,-5.6184574 c -0.3237427,0.020819 -0.5868063,0.2896236 -0.5907925,0.6167873 -0.00301,0.2444103 0.1384108,0.4575508 0.3447536,0.5613983 l -0.084402,6.772037 c -0.1244867,-0.03501 -0.2442949,-0.092709 -0.3519231,-0.1734001 -0.018852,-0.014824 -0.04551,-0.014824 -0.064361,0 -0.018491,0.013861 -0.025495,0.038228 -0.017164,0.05968 l 0.6437207,1.8106215 c 0.016803,0.044746 0.080472,0.044746 0.097275,0 l 0.6923582,-1.7949729 c 0.01924,-0.049558 -0.04036,-0.092132 -0.081524,-0.058277 -0.1120849,0.077886 -0.2339971,0.131597 -0.3605046,0.1634443 l 0.078701,-6.7706068 c 0.2092494,-0.097934 0.3546084,-0.3086274 0.3576257,-0.5542753 0.00418,-0.34328 -0.2710359,-0.6282831 -0.6165645,-0.632436 -0.016194,-1.924e-4 -0.031281,-0.00102 -0.047198,-3e-7 z m 0.9498575,1.1369602 c -0.042382,0.00503 -0.060846,0.055939 -0.031474,0.086686 l 1.2703061,1.4510604 c 0.035433,0.033525 0.093621,0.00416 0.087254,-0.044058 -0.016443,-0.1368774 -0.00712,-0.2718022 0.025745,-0.3993565 l 5.8279214,3.19201934 c -0.00955,0.23010929 0.1105352,0.45752327 0.3261511,0.57558932 0.3026489,0.1656996 0.6815068,0.0590468 0.8482917,-0.24160502 0.1667849,-0.30067931 0.059461,-0.68276459 -0.2431877,-0.84846414 -0.216862,-0.11872613 -0.4758284,-0.0980447 -0.6666138,0.0341025 l -5.8250435,-3.1905893 c 0.090438,-0.093452 0.1986471,-0.1708699 0.32186037,-0.2274139 0.044292,-0.022937 0.033578,-0.088721 -0.015724,-0.096642 L -2.8489315,-4.4800672 c -0.00556,-0.00146 -0.011405,-0.00189 -0.017162,-0.00146 z m 6.9651605,5.10354566 -1.909736,0.3126702 c -0.047392,0.011523 -0.054063,0.075768 -0.01,0.096642 0.1244589,0.057067 0.2344955,0.1342923 0.3261511,0.2273865 L -3.4211257,4.5999927 C -3.6139873,4.4704034 -3.8733966,4.4493919 -4.0877673,4.5701537 -4.38834,4.7394835 -4.4899335,5.1199736 -4.3194944,5.4186179 c 0.170439,0.2986167 0.5534215,0.4066446 0.8540219,0.2373147 0.2139276,-0.1204863 0.3297497,-0.3481203 0.3175695,-0.5769918 L 2.778711,1.7376949 c 0.03333,0.1260415 0.043323,0.2590963 0.027184,0.3936635 -0.00791,0.053024 0.060763,0.081379 0.092985,0.038365 L 4.1477039,0.70304186 c 0.026048,-0.036523 -0.00388,-0.086439 -0.048637,-0.0809934 Z" />
    </symbol>
    <symbol
   id="inkstitch_autoroute_end"
   style="display:inline">
      <title
   id="inkstitch_title9427-3-1">Running stitch ending point</title>
       <path
   style="opacity:1;vector-effect:none;fill:#fafafa;fill-opacity:1;fill-rule:evenodd;stroke:#003399;stroke-width:1.06500006;stroke-linecap:round;stroke-linejoin:miter;stroke-miterlimit:4;stroke-dasharray:3.19500017, 3.19500017;stroke-dashoffset:0;stroke-opacity:1"
   d="M 9.2201108,0.05852023 A 9.2576327,9.2122261 0 0 1 -0.03752532,9.2707454 9.2576327,9.2122261 0 0 1 -9.2951565,0.05852023 9.2576327,9.2122261 0 0 1 -0.03752532,-9.1537082 9.2576327,9.2122261 0 0 1 9.2201108,0.05852023 Z"
   id="inkstitch-autorun_end-circle" />
       <path
   style="fill:#000000;"
   id="inkstitch-autorun_end-path"
   d="M -1.5977169,-4.8605484 c -0.00319,1.523e-4 -0.00643,6.284e-4 -0.00955,0.00139 l -1.738218,0.6114515 c -0.044131,0.013274 -0.04771,0.07406 -0.00546,0.092381 l 1.7286718,0.6522048 c 0.042543,0.011464 0.077832,-0.033916 0.055977,-0.072004 -0.075631,-0.1076723 -0.1279528,-0.2256474 -0.1583813,-0.3478501 l 5.3580083,0.0693 C 3.7283489,-3.6574881 3.9289854,-3.5209456 4.163113,-3.51807 4.4929661,-3.51396 4.7679522,-3.7755203 4.7721242,-4.1036793 4.7763142,-4.4318766 4.5079699,-4.70559 4.178155,-4.7096844 3.9431472,-4.7126044 3.7385104,-4.5784741 3.6388043,-4.38223 l -5.3566689,-0.065225 c 0.033509,-0.1204507 0.089391,-0.2361787 0.1679695,-0.3396805 0.019712,-0.034678 -0.00793,-0.077126 -0.047786,-0.073375 z m -2.6203001,0.2119742 c -0.3227531,0.0041 -0.5844387,0.2625539 -0.5884958,0.5856093 -0.00295,0.2329983 0.129063,0.4383262 0.3236143,0.5394287 l -0.065546,5.2964025 c -0.1188053,-0.03344 -0.233209,-0.088553 -0.3359005,-0.1657553 -0.018028,-0.014169 -0.043442,-0.014169 -0.061451,0 -0.016535,0.013426 -0.022582,0.035878 -0.015004,0.055721 l 0.6130875,1.7310434 c 0.013338,0.043896 0.074426,0.047476 0.092855,0.00543 l 0.6608737,-1.7201931 c 0.021243,-0.048142 -0.037912,-0.091505 -0.077832,-0.057054 -0.1085476,0.075489 -0.2269701,0.1273635 -0.3495646,0.1576047 l 0.069641,-5.2950505 c 0.1995845,-0.095713 0.3397855,-0.2989653 0.3427327,-0.5326301 0.00412,-0.3281781 -0.2641734,-0.5964641 -0.5939692,-0.6005585 -0.00519,-7.62e-5 -0.00991,-7.62e-5 -0.015023,0 z m 8.4425639,1.3302136 c -0.020458,-1.333e-4 -0.038925,0.012283 -0.046428,0.03125 l -0.6608735,1.714742 c -0.021243,0.04818 0.037931,0.091524 0.077851,0.057054 0.1072273,-0.074556 0.2244441,-0.1271727 0.3454502,-0.1576044 L 3.8750009,3.6234841 C 3.6760287,3.7194257 3.5366315,3.9202022 3.5336461,4.15341 3.529436,4.4816071 3.7964416,4.7512453 4.1262565,4.7553397 4.4560331,4.759449 4.726962,4.4979085 4.731134,4.1697112 4.7341354,3.934523 4.5996979,3.7276145 4.4020654,3.6275594 L 4.4703294,-1.66612 c 0.1197239,0.033383 0.2338597,0.08802 0.3372785,0.1657745 0.039309,0.032355 0.096166,-0.00834 0.077832,-0.055721 L 4.2709744,-3.2871101 c -0.00748,-0.018949 -0.02595,-0.031384 -0.046428,-0.031251 z M 1.5114302,3.6180947 c -0.037451,6.856e-4 -0.060627,0.040868 -0.042351,0.073356 0.075823,0.1079391 0.1280103,0.2267139 0.1584006,0.3492023 L -3.7305473,3.971372 c -0.096108,-0.1988532 -0.2989079,-0.338138 -0.5338966,-0.3410517 -0.3297958,-0.0041 -0.5994042,0.2615256 -0.6035188,0.5896847 -0.00413,0.3281972 0.2627956,0.6019488 0.5926104,0.6060241 0.2345678,0.00292 0.4394534,-0.1304295 0.5393508,-0.3261024 l 5.3580084,0.063873 C 1.5885549,4.684593 1.5314859,4.7996924 1.4526979,4.90348 1.4299049,4.942272 1.4668789,4.9887 1.5100529,4.975503 L 3.2496085,4.3640511 c 0.043002,-0.015959 0.043002,-0.076441 0,-0.0924 L 1.5250561,3.6194659 c -0.00446,-0.00112 -0.00905,-0.00154 -0.013665,-0.00139 Z" />
    </symbol>
    </defs><g
     inkscape:label="Visu couleur"
     inkscape:groupmode="layer"
     id="g249"
     style="display:inline;stroke:#000000"
     inkscape:export-filename="tuto mandala/g249.png"
     inkscape:export-xdpi="96"
     inkscape:export-ydpi="96"><g
       id="g247"
       inkscape:path-effect="#path-effect250;#path-effect252"
       inkscape:label="mirror + rotate 6 times"
       style="display:inline;stroke:#913697;stroke-width:1.5622"
       transform="matrix(0.64012456,0,0,0.64012456,36.952232,36.007857)"
       inkscape:export-filename="tuto mandala/nopatheffect.png"
       inkscape:export-xdpi="96"
       inkscape:export-ydpi="96"><path
         style="display:inline;fill:none;fill-rule:evenodd;stroke:#913697;stroke-width:0.390549"
         d="m 162.82978,62.823392 c -0.64765,1.7676 -1.27694,3.566367 -1.92711,5.374455 -0.65017,1.808087 -1.32123,3.625495 -2.05243,5.430379 -0.7312,1.804881 -1.52255,3.59724 -2.41331,5.355228 -0.89075,1.757988 -1.88091,3.481606 -3.00974,5.149007 -1.12883,1.667401 -2.39632,3.278587 -3.84174,4.811711 -1.44542,1.533124 -3.06876,2.988186 -4.90929,4.343342 -1.84053,1.355158 -3.89825,2.610407 -6.21241,3.743902 -2.31416,1.133496 -4.88477,2.145238 -7.75108,3.013384 m 32.11711,37.06834 c -0.64765,-1.7676 -1.27694,-3.56636 -1.92711,-5.37445 -0.65017,-1.80809 -1.32123,-3.6255 -2.05243,-5.43038 -0.7312,-1.80488 -1.52255,-3.59724 -2.41331,-5.35523 -0.89075,-1.75799 -1.88091,-3.48161 -3.00974,-5.14901 -1.12883,-1.6674 -2.39632,-3.27858 -3.84174,-4.81171 -1.44542,-1.53312 -3.06876,-2.98818 -4.90929,-4.34334 -1.84053,-1.35516 -3.89825,-2.61041 -6.21241,-3.7439 -2.31416,-1.1335 -4.88477,-2.14524 -7.75108,-3.013386 M 98.492966,25.678517 c 1.206962,1.444682 2.450094,2.889046 3.690864,4.356154 1.24076,1.467107 2.47915,2.956966 3.67663,4.492646 1.19747,1.535678 2.35402,3.117187 3.43111,4.767602 1.07708,1.650406 2.0747,3.369719 2.9543,5.181015 0.87959,1.811296 1.64118,3.714567 2.24619,5.7329 0.60501,2.018332 1.05347,4.151717 1.3068,6.423241 0.25334,2.271524 0.31155,4.681187 0.13611,7.252055 -0.17544,2.57087 -0.58456,5.302954 -1.26587,8.219325 m 48.16068,-9.280064 c -1.85462,-0.322918 -3.72703,-0.677317 -5.61797,-1.018298 -1.89094,-0.340982 -3.80039,-0.668532 -5.72906,-0.937734 -1.92867,-0.269202 -3.87658,-0.480053 -5.84442,-0.587627 -1.96784,-0.107583 -3.95562,-0.111889 -5.96405,0.03201 -2.00842,0.143896 -4.03749,0.435984 -6.08793,0.92119 -2.05043,0.48521 -4.12222,1.163534 -6.21609,2.0799 -2.09386,0.916365 -4.2098,2.070778 -6.34851,3.508154 -2.13872,1.437372 -4.30022,3.157715 -6.48521,5.20594 M 34.156154,62.823395 c 1.854612,-0.322918 3.727034,-0.677321 5.61797,-1.018301 1.890934,-0.34098 3.800385,-0.668529 5.729061,-0.937733 1.928673,-0.269203 3.876576,-0.480053 5.844418,-0.587626 1.967838,-0.107582 3.955614,-0.111887 5.964041,0.03201 2.008427,0.143895 4.0375,0.43598 6.087934,0.921189 2.050434,0.485208 4.122225,1.163531 6.21609,2.079899 2.093866,0.916366 4.209803,2.07078 6.348519,3.508153 2.138716,1.437374 4.300215,3.157716 6.485207,5.205941 M 98.492963,25.678521 c -1.206961,1.444682 -2.450088,2.889043 -3.690855,4.356152 -1.240767,1.467108 -2.47916,2.956968 -3.676632,4.492646 -1.197472,1.535678 -2.354026,3.117187 -3.43111,4.767603 -1.077089,1.650407 -2.074708,3.369721 -2.954304,5.181016 -0.879596,1.811296 -1.641173,3.714564 -2.246193,5.7329 -0.605011,2.01833 -1.05346,4.151714 -1.306798,6.42324 -0.253338,2.271525 -0.311556,4.681188 -0.136107,7.252054 0.17544,2.570872 0.584552,5.302955 1.265871,8.219326 M 34.156156,137.11315 c 0.64765,-1.7676 1.27694,-3.56637 1.92711,-5.37446 0.65017,-1.80808 1.32123,-3.62549 2.05243,-5.43038 0.7312,-1.80488 1.52255,-3.59724 2.41331,-5.35522 0.89075,-1.75799 1.88091,-3.48161 3.00974,-5.14901 1.12883,-1.6674 2.39632,-3.27859 3.84174,-4.81171 1.44542,-1.53313 3.06876,-2.98819 4.90929,-4.34334 1.84053,-1.35516 3.89825,-2.61041 6.21241,-3.74391 2.31416,-1.13349 4.88477,-2.14523 7.75108,-3.01338 M 34.156156,62.8234 c 0.64765,1.7676 1.27694,3.56636 1.92711,5.37445 0.65017,1.80809 1.32123,3.6255 2.05243,5.43038 0.7312,1.80488 1.52255,3.59724 2.41331,5.35523 0.89075,1.75799 1.88091,3.48161 3.00974,5.14901 1.12883,1.6674 2.39632,3.27858 3.84174,4.81171 1.44542,1.53312 3.06876,2.98818 4.90929,4.34334 1.84053,1.35516 3.89825,2.61041 6.21241,3.7439 2.31416,1.1335 4.88477,2.14524 7.75108,3.01339 m 32.219704,74.21321 c -1.206962,-1.44468 -2.450094,-2.88904 -3.69086,-4.35615 -1.240764,-1.46711 -2.479155,-2.95697 -3.676631,-4.49265 -1.197473,-1.53568 -2.354026,-3.11718 -3.431108,-4.7676 -1.077088,-1.65041 -2.074704,-3.36972 -2.954301,-5.18101 -0.879597,-1.8113 -1.64118,-3.71457 -2.246194,-5.7329 -0.605014,-2.01834 -1.053465,-4.15172 -1.3068,-6.42324 -0.253336,-2.27153 -0.311553,-4.68119 -0.136109,-7.25206 0.175444,-2.57087 0.584555,-5.30295 1.265873,-8.21932 m -48.160679,9.28006 c 1.854611,0.32292 3.727028,0.67732 5.617965,1.0183 1.890937,0.34098 3.80039,0.66853 5.729062,0.93773 1.928672,0.2692 3.876576,0.48005 5.84442,0.58763 1.967839,0.10758 3.955618,0.11189 5.964044,-0.032 2.008426,-0.14389 4.037493,-0.43598 6.087933,-0.92119 2.050431,-0.48521 4.12222,-1.16353 6.216088,-2.0799 2.093868,-0.91636 4.209806,-2.07078 6.348517,-3.50815 2.13872,-1.43737 4.300218,-3.15772 6.485209,-5.20594 m 80.380381,9.20352 c -1.85461,0.32292 -3.72703,0.67733 -5.61797,1.01831 -1.89093,0.34098 -3.80038,0.66852 -5.72906,0.93773 -1.92867,0.2692 -3.87657,0.48005 -5.84442,0.58763 -1.96783,0.10758 -3.95561,0.11188 -5.96404,-0.032 -2.00842,-0.1439 -4.0375,-0.43598 -6.08793,-0.92119 -2.05044,-0.48521 -4.12223,-1.16353 -6.21609,-2.0799 -2.09387,-0.91637 -4.20981,-2.07078 -6.34852,-3.50815 -2.13872,-1.43738 -4.30022,-3.15772 -6.48521,-5.20594 m -16.043567,46.3484 c 1.206961,-1.44468 2.450087,-2.88904 3.690857,-4.35615 1.24077,-1.46711 2.47916,-2.95697 3.67663,-4.49265 1.19747,-1.53568 2.35403,-3.11719 3.43111,-4.7676 1.07709,-1.65041 2.07471,-3.36972 2.9543,-5.18102 0.8796,-1.81129 1.64118,-3.71456 2.2462,-5.7329 0.60501,-2.01833 1.05346,-4.15171 1.30679,-6.42324 0.25334,-2.27152 0.31156,-4.68119 0.13611,-7.25205 -0.17544,-2.57087 -0.58455,-5.30296 -1.26587,-8.21933"
         id="path241"
         sodipodi:nodetypes="csssssssc"
         inkscape:original-d="m 162.82978,62.823392 c -0.64765,1.7676 -1.27694,3.566367 -1.92711,5.374455 -0.65017,1.808087 -1.32123,3.625495 -2.05243,5.430379 -0.7312,1.804881 -1.52255,3.59724 -2.41331,5.355228 -0.89075,1.757988 -1.88091,3.481606 -3.00974,5.149007 -1.12883,1.667401 -2.39632,3.278587 -3.84174,4.811711 -1.44542,1.533124 -3.06876,2.988186 -4.90929,4.343342 -1.84053,1.355158 -3.89825,2.610407 -6.21241,3.743902 -2.31416,1.133496 -4.88477,2.145238 -7.75108,3.013384" /><path
         style="display:inline;fill:none;fill-rule:evenodd;stroke:#913697;stroke-width:0.390549"
         d="m 126.91122,93.744436 c 1.39948,-0.423941 2.75095,-0.921853 4.05283,-1.492588 1.30187,-0.570736 2.55417,-1.214294 3.75531,-1.929526 1.20114,-0.715232 2.35113,-1.502137 3.44839,-2.359565 1.09727,-0.857429 2.14181,-1.785382 3.13206,-2.782709 0.99025,-0.997328 1.92621,-2.06403 2.8063,-3.198957 0.88009,-1.134927 1.70431,-2.338079 2.47111,-3.608307 0.7668,-1.27023 1.47616,-2.607534 2.12652,-4.010763 0.65037,-1.40323 1.24173,-2.872385 1.77252,-4.406318 M 126.91122,106.1921 c 1.39948,0.42394 2.75095,0.92185 4.05283,1.49259 1.30187,0.57073 2.55417,1.21429 3.75531,1.92952 1.20114,0.71523 2.35113,1.50214 3.44839,2.35957 1.09727,0.85743 2.14181,1.78538 3.13206,2.78271 0.99025,0.99732 1.92621,2.06403 2.8063,3.19895 0.88009,1.13493 1.70431,2.33808 2.47111,3.60831 0.7668,1.27023 1.47616,2.60753 2.12652,4.01076 0.65037,1.40323 1.24173,2.87239 1.77252,4.40632 M 107.3121,72.245425 c 0.33259,-1.423956 0.57712,-2.843319 0.73379,-4.256148 0.15666,-1.41282 0.22548,-2.819123 0.20664,-4.216957 -0.0188,-1.397834 -0.12533,-2.787207 -0.31925,-4.166176 -0.19392,-1.378978 -0.47528,-2.747552 -0.84387,-4.103798 -0.36858,-1.356245 -0.82439,-2.700161 -1.36722,-4.029805 -0.54284,-1.329644 -1.17269,-2.645015 -1.88934,-3.944198 -0.71665,-1.299183 -1.52011,-2.582159 -2.41016,-3.847002 -0.89005,-1.264852 -1.866692,-2.511562 -2.929721,-3.738206 m 19.599121,38.526122 c 1.06688,-1.000015 2.17382,-1.921468 3.31903,-2.763559 1.14521,-0.842087 2.3287,-1.604831 3.54867,-2.287434 1.21998,-0.682603 2.47646,-1.285068 3.76765,-1.806608 1.29119,-0.521549 2.61709,-0.962172 3.97592,-1.321089 1.35883,-0.358921 2.75061,-0.636131 4.17353,-0.830852 1.42292,-0.194715 2.87699,-0.306935 4.36044,-0.335889 1.48345,-0.02895 2.99627,0.02537 4.53668,0.16376 1.54042,0.138378 3.10843,0.360825 4.70224,0.668113 m -71.582406,8.51356 c -1.066884,-1.000015 -2.173823,-1.921466 -3.319034,-2.76356 -1.145207,-0.842084 -2.328695,-1.604829 -3.548674,-2.287431 -1.219979,-0.682602 -2.476454,-1.28507 -3.767638,-1.806611 -1.291191,-0.521549 -2.617091,-0.96217 -3.975927,-1.321089 -1.358836,-0.358917 -2.750607,-0.636131 -4.173528,-0.830848 -1.422921,-0.194717 -2.876991,-0.306936 -4.36044,-0.335891 -1.483452,-0.02895 -2.996271,0.02537 -4.536683,0.163761 -1.540418,0.138378 -3.108424,0.360823 -4.702243,0.668112 m 43.16416,2.289725 c -0.332597,-1.423955 -0.57713,-2.843318 -0.733794,-4.256149 -0.156669,-1.412817 -0.225479,-2.819121 -0.206642,-4.216954 0.01884,-1.397833 0.125326,-2.787208 0.319253,-4.166178 0.193921,-1.378979 0.475279,-2.747552 0.843867,-4.103799 0.36858,-1.356241 0.824398,-2.700161 1.367222,-4.029802 0.542833,-1.329645 1.172682,-2.645015 1.889333,-3.944199 0.716652,-1.299183 1.520108,-2.582157 2.41016,-3.847 0.890048,-1.264852 1.866698,-2.511565 2.929725,-3.738207 M 70.074716,106.1921 c -1.39948,0.42395 -2.75095,0.92186 -4.05283,1.49259 -1.30187,0.57074 -2.55417,1.2143 -3.75531,1.92953 -1.20114,0.71523 -2.35113,1.50214 -3.44839,2.35956 -1.09727,0.85743 -2.14181,1.78539 -3.13206,2.78271 -0.99025,0.99733 -1.92621,2.06403 -2.8063,3.19896 -0.88009,1.13493 -1.70431,2.33808 -2.47111,3.60831 -0.7668,1.27023 -1.47616,2.60753 -2.12652,4.01076 -0.65037,1.40323 -1.24173,2.87238 -1.77252,4.40632 m 23.56504,-36.2364 c -1.39948,-0.42394 -2.75095,-0.92185 -4.05283,-1.49259 -1.30187,-0.57073 -2.55417,-1.21429 -3.75531,-1.92952 -1.20114,-0.71523 -2.35113,-1.50214 -3.44839,-2.35957 -1.09727,-0.85743 -2.14181,-1.78538 -3.13206,-2.78271 -0.99025,-0.99732 -1.92621,-2.06403 -2.8063,-3.19895 -0.88009,-1.13493 -1.70431,-2.33808 -2.47111,-3.60831 -0.7668,-1.27023 -1.47616,-2.60753 -2.12652,-4.01076 -0.65037,-1.40323 -1.24173,-2.87239 -1.77252,-4.40632 m 43.164164,57.73541 c -0.332596,1.42395 -0.577127,2.84331 -0.733796,4.25614 -0.156663,1.41282 -0.225475,2.81913 -0.206636,4.21696 0.01884,1.39783 0.125324,2.78721 0.319248,4.16618 0.193921,1.37897 0.475281,2.74755 0.843867,4.10379 0.368586,1.35625 0.824397,2.70017 1.367228,4.02981 0.542831,1.32964 1.172681,2.64501 1.88933,3.9442 0.716652,1.29918 1.520111,2.58216 2.410163,3.847 0.890048,1.26485 1.866694,2.51156 2.929723,3.7382 m -19.59912,-38.52612 c -1.066883,1.00002 -2.17382,1.92147 -3.319036,2.76356 -1.145201,0.84209 -2.328691,1.60483 -3.548668,2.28744 -1.219977,0.6826 -2.476456,1.28506 -3.767643,1.8066 -1.291191,0.52155 -2.617089,0.96218 -3.975927,1.32109 -1.35883,0.35892 -2.750608,0.63613 -4.173522,0.83085 -1.422923,0.19472 -2.876992,0.30694 -4.360443,0.33589 -1.483452,0.029 -2.996268,-0.0254 -4.53668,-0.16376 -1.540418,-0.13837 -3.108428,-0.36082 -4.702245,-0.66811 m 71.582407,-8.51356 c 1.06689,1.00002 2.17383,1.92147 3.31904,2.76356 1.1452,0.84209 2.32869,1.60483 3.54867,2.28743 1.21998,0.6826 2.47645,1.28507 3.76764,1.80661 1.29119,0.52155 2.61709,0.96217 3.97592,1.32109 1.35884,0.35892 2.75061,0.63613 4.17353,0.83085 1.42292,0.19472 2.87699,0.30694 4.36044,0.33589 1.48345,0.0289 2.99627,-0.0254 4.53669,-0.16376 1.54041,-0.13838 3.10842,-0.36082 4.70224,-0.66811 m -43.16416,-2.28973 c 0.3326,1.42396 0.57713,2.84332 0.73379,4.25615 0.15667,1.41282 0.22548,2.81912 0.20664,4.21696 -0.0188,1.39783 -0.12532,2.7872 -0.31925,4.16617 -0.19392,1.37898 -0.47528,2.74756 -0.84387,4.1038 -0.36857,1.35624 -0.82439,2.70016 -1.36722,4.0298 -0.54283,1.32965 -1.17268,2.64502 -1.88933,3.9442 -0.71665,1.29919 -1.52011,2.58216 -2.41016,3.847 -0.89005,1.26486 -1.866698,2.51157 -2.929725,3.73821"
         id="path247"
         inkscape:original-d="m 126.91122,93.744436 c 1.39948,-0.423941 2.75095,-0.921853 4.05283,-1.492588 1.30187,-0.570736 2.55417,-1.214294 3.75531,-1.929526 1.20114,-0.715232 2.35113,-1.502137 3.44839,-2.359565 1.09727,-0.857429 2.14181,-1.785382 3.13206,-2.782709 0.99025,-0.997328 1.92621,-2.06403 2.8063,-3.198957 0.88009,-1.134927 1.70431,-2.338079 2.47111,-3.608307 0.7668,-1.27023 1.47616,-2.607534 2.12652,-4.010763 0.65037,-1.40323 1.24173,-2.872385 1.77252,-4.406318"
         sodipodi:nodetypes="csssssssc" /><path
         style="display:inline;fill:none;fill-rule:evenodd;stroke:#913697;stroke-width:0.390549"
         d="m 145.23114,92.774778 c 8.19753,1.406022 10.06856,4.709993 14.39373,7.277722 m -14.39373,7.10926 c 8.19753,-1.40603 10.06856,-4.71 14.39373,-7.277726 M 115.63231,55.89508 c 5.31641,-6.396259 9.11325,-6.364633 13.49955,-8.826475 m -1.04006,16.019966 c 2.88111,-7.802285 0.9553,-11.074629 0.89417,-16.104199 m -60.091835,16.1042 C 66.013021,55.286291 67.938829,52.013946 67.999962,46.984375 m 13.353665,8.910706 c -5.316423,-6.396255 -9.11326,-6.364629 -13.499561,-8.826473 m -16.09927,60.093152 c -8.19753,-1.40602 -10.06856,-4.70999 -14.39373,-7.27772 m 14.39373,-7.10926 c -8.19753,1.40603 -10.06856,4.71 -14.39373,7.27773 m 43.992563,43.98895 c -5.316416,6.39626 -9.113254,6.36463 -13.499557,8.82648 m 1.040065,-16.01997 c -2.881107,7.80228 -0.9553,11.07463 -0.894169,16.1042 m 60.091832,-16.1042 c 2.88112,7.80228 0.95531,11.07462 0.89417,16.1042 m -13.35366,-8.91071 c 5.31642,6.39625 9.11326,6.36463 13.49956,8.82647"
         id="path242"
         sodipodi:nodetypes="cc"
         inkscape:original-d="m 145.23114,92.774778 c 8.19753,1.406022 10.06856,4.709993 14.39373,7.277722" /><path
         style="display:inline;fill:none;fill-rule:evenodd;stroke:#913697;stroke-width:0.390549"
         d="m 151.17947,87.06092 c 8.23963,2.381052 15.29294,5.615605 20.51061,12.90735 m -20.51061,12.90734 c 8.23963,-2.38105 15.29294,-5.6156 20.51061,-12.907346 M 113.65813,47.886746 c 6.18186,-5.945203 12.50972,-10.436272 21.43339,-11.309034 m 0.92278,24.216379 c 2.05777,-8.326254 2.78322,-16.051875 -0.92278,-24.216382 M 60.971624,60.794096 C 58.913861,52.467841 58.188411,44.742219 61.894412,36.577712 M 83.327801,47.886751 C 77.145937,41.941547 70.818079,37.450476 61.894407,36.577715 M 45.806466,112.87562 c -8.23963,-2.38105 -15.29294,-5.6156 -20.51061,-12.90735 m 20.51061,-12.90734 c -8.23963,2.38105 -15.29294,5.6156 -20.51061,12.907346 M 83.32781,152.04979 c -6.181867,5.94521 -12.509727,10.43628 -21.433398,11.30904 m -0.922779,-24.21638 c -2.057766,8.32625 -2.783218,16.05187 0.922784,24.21638 m 74.119893,-24.21639 c 2.05777,8.32626 2.78322,16.05188 -0.92279,24.21639 m -21.43339,-11.30904 c 6.18187,5.9452 12.50973,10.43627 21.4334,11.30904"
         id="path243"
         inkscape:original-d="m 151.17947,87.06092 c 8.23963,2.381052 15.29294,5.615605 20.51061,12.90735"
         sodipodi:nodetypes="cc" /><path
         style="display:inline;fill:none;fill-rule:evenodd;stroke:#913697;stroke-width:0.390549"
         d="m 156.38354,79.088551 c 5.28461,0.169347 8.09097,0.733206 11.14216,2.432918 -1.16218,3.390648 -4.63018,7.798178 -7.32926,8.883473 m -3.8129,30.443038 c 5.28461,-0.16934 8.09097,-0.7332 11.14216,-2.43291 -1.16218,-3.39065 -4.63018,-7.79818 -7.32926,-8.88348 M 109.35589,39.393705 c 2.78896,-4.491934 4.68046,-6.640383 7.67805,-8.432935 2.35529,2.701801 4.43833,7.908942 4.02868,10.789062 m 24.45799,18.523587 c 2.49566,-4.661277 3.41052,-7.373586 3.46412,-10.865849 -3.51748,-0.688847 -9.06851,0.110764 -11.35795,1.905586 m -86.161465,8.960268 c -2.495646,-4.661281 -3.41051,-7.373589 -3.464111,-10.865853 3.517477,-0.688847 9.06851,0.110764 11.357943,1.905589 M 87.630041,39.393709 C 84.841084,34.901772 82.949586,32.753323 79.951999,30.96077 77.5967,33.662573 75.513667,38.869714 75.92331,41.749836 M 40.602396,120.84799 c -5.28461,-0.16935 -8.09097,-0.73321 -11.14216,-2.43292 1.16218,-3.39065 4.63018,-7.79818 7.32926,-8.88347 m 3.8129,-30.44304 c -5.28461,0.16934 -8.09097,0.7332 -11.14216,2.43291 1.16218,3.39065 4.63018,7.79818 7.32926,8.88348 m 50.840553,70.13789 c -2.788964,4.49193 -4.68046,6.64038 -7.678049,8.43293 -2.355297,-2.7018 -4.43833,-7.90894 -4.028683,-10.78906 M 51.465323,139.66312 c -2.495653,4.66128 -3.410515,7.37359 -3.464118,10.86585 3.517479,0.68885 9.068512,-0.11076 11.357949,-1.90559 m 86.161466,-8.96026 c 2.49565,4.66128 3.41051,7.37359 3.46411,10.86585 -3.51748,0.68885 -9.06851,-0.11077 -11.35794,-1.90559 m -28.2709,11.91945 c 2.78896,4.49194 4.68046,6.64039 7.67805,8.43294 2.3553,-2.7018 4.43833,-7.90894 4.02869,-10.78907"
         id="path244"
         inkscape:original-d="m 156.38354,79.088551 c 5.28461,0.169347 8.09097,0.733206 11.14216,2.432918 -1.16218,3.390648 -4.63018,7.798178 -7.32926,8.883473"
         sodipodi:nodetypes="ccc" /><path
         style="display:inline;fill:none;fill-rule:evenodd;stroke:#913697;stroke-width:0.390549"
         d="m 159.65376,71.582545 c 6.81961,-0.0086 7.83831,9.812637 14.20482,7.863441 -6.36651,1.949196 -3.86659,10.578976 -7.79993,14.600437 m -6.40489,34.307567 c 6.81961,0.009 7.83831,-9.81264 14.20482,-7.86344 -6.36651,-1.9492 -3.86659,-10.57898 -7.79993,-14.60044 M 104.49061,32.808608 c 3.40235,-5.910256 12.41714,-1.881857 13.91234,-8.370015 -1.4952,6.488158 7.22837,8.638054 8.74439,14.055156 m 26.50878,22.700581 c 3.4176,-5.901455 -4.57884,-11.694495 0.29247,-16.233455 -4.87131,4.53896 -11.09496,-1.940924 -16.54432,-0.545282 M 43.329813,61.194333 C 39.91256,55.292677 47.908651,49.499839 43.037343,44.960877 47.908651,49.499839 54.1323,43.019955 59.581657,44.415596 M 92.495327,32.80861 c -3.402011,-5.910455 -12.417151,-1.881855 -13.912349,-8.370015 1.495198,6.48816 -7.228371,8.638056 -8.744387,14.055158 M 37.332176,128.35399 c -6.81961,0.009 -7.83831,-9.81263 -14.20482,-7.86344 6.36651,-1.94919 3.86659,-10.57897 7.79993,-14.60043 m 6.40489,-34.30757 c -6.81961,-0.009 -7.83831,9.81264 -14.20482,7.86344 6.36651,1.9492 3.86659,10.57898 7.79993,14.60044 m 61.568045,73.0815 c -3.402357,5.91026 -12.417148,1.88186 -13.91235,8.37002 1.495202,-6.48816 -7.228367,-8.63806 -8.744384,-14.05516 m -26.50878,-22.70058 c -3.417599,5.90146 4.578841,11.6945 -0.292471,16.23345 4.871312,-4.53895 11.094961,1.94093 16.544317,0.54529 m 94.074457,-16.77874 c 3.41726,5.90165 -4.57883,11.69449 0.29247,16.23345 -4.8713,-4.53896 -11.09495,1.94093 -16.54431,0.54528 m -32.91367,11.60699 c 3.40201,5.91046 12.41715,1.88186 13.91235,8.37001 -1.4952,-6.48815 7.22837,-8.63805 8.74439,-14.05515"
         id="path245"
         inkscape:original-d="m 159.65376,71.582545 c 6.81961,-0.0086 7.83831,9.812637 14.20482,7.863441 -6.36651,1.949196 -3.86659,10.578976 -7.79993,14.600437"
         sodipodi:nodetypes="ccc" /><path
         style="fill:none;fill-rule:evenodd;stroke:#913697;stroke-width:0.390549"
         d="m 116.1727,89.907241 c 0,0 10.43898,-1.116425 10.74969,3.889439 0.31071,5.005864 -8.63263,6.171589 -8.63263,6.171589 m -2.11706,10.061021 c 0,0 10.43898,1.11643 10.74969,-3.88944 0.31071,-5.00586 -8.63263,-6.171585 -8.63263,-6.171585 M 98.619727,79.626658 c 0,0 4.252633,-9.598634 8.743203,-7.364785 4.49056,2.23385 1.02843,10.561872 1.02843,10.561872 m 7.65457,6.863938 c 0,0 6.18635,-8.482207 2.00649,-11.254225 -4.17984,-2.772012 -9.66106,4.390285 -9.66106,4.390285 m -27.451365,6.863944 c 0,0 -6.186342,-8.482209 -2.006492,-11.254224 4.179851,-2.772014 9.661068,4.390283 9.661068,4.390283 m 9.77163,-3.197083 c 0,0 -4.252633,-9.598637 -8.743199,-7.364785 -4.490557,2.233848 -1.028434,10.56187 -1.028434,10.56187 M 80.813236,110.0293 c 0,0 -10.43898,1.11642 -10.74969,-3.88944 -0.31071,-5.00586 8.63263,-6.171589 8.63263,-6.171589 m 2.11706,-10.061021 c 0,0 -10.43898,-1.11643 -10.74969,3.88944 -0.31071,5.00586 8.63263,6.171585 8.63263,6.171585 m 19.670033,20.341605 c 0,0 -4.252638,9.59864 -8.743198,7.36479 -4.490561,-2.23385 -1.028438,-10.56187 -1.028438,-10.56187 m -7.65457,-6.86394 c 0,0 -6.186347,8.4822 -2.006491,11.25422 4.179847,2.77201 9.661064,-4.39028 9.661064,-4.39028 m 27.451364,-6.86395 c 0,0 6.18634,8.48221 2.00649,11.25423 -4.17985,2.77201 -9.66107,-4.39029 -9.66107,-4.39029 m -9.771625,3.19709 c 0,0 4.252635,9.59863 8.743195,7.36478 4.49056,-2.23385 1.02844,-10.56187 1.02844,-10.56187"
         id="path246"
         inkscape:original-d="m 116.1727,89.907241 c 0,0 10.43898,-1.116425 10.74969,3.889439 0.31071,5.005864 -8.63263,6.171589 -8.63263,6.171589"
         sodipodi:nodetypes="czc" /><g
         id="g8"
         style="stroke:#913697"><path
           style="display:inline;fill:none;fill-rule:evenodd;stroke:#913697;stroke-width:0.25"
           d="m 132.14115,83.608811 7.80883,-3.94584 v 0 m -7.80883,36.728209 7.80883,3.94584 v 0 m -38.07459,-56.36767 0.48722,-8.735565 v 0 m 27.90314,25.12675 7.32161,-4.789726 v 0 m -67.853125,4.789729 -7.321613,-4.789725 v 0 M 98.124599,63.969354 97.637382,55.233789 v 0 m -29.778538,61.157401 -7.80883,3.94584 v 0 m 7.80883,-36.728211 -7.80883,-3.94584 v 0 m 38.074592,56.367671 -0.487218,8.73556 v 0 m -27.903147,-25.12675 -7.321612,4.78973 v 0 m 67.853131,-4.78973 7.32161,4.78973 v 0 m -35.71198,11.60145 0.48722,8.73557 v 0"
           id="path5"
           transform="matrix(1.562196,0,0,1.562196,-57.726627,-56.251329)"
           inkscape:original-d="m 132.14115,83.608811 7.80883,-3.94584 v 0" /><path
           style="fill:none;fill-rule:evenodd;stroke:#913697;stroke-width:0.390549"
           d="m 144.10611,81.981089 12.27743,-2.89254 m -12.27743,38.866901 12.27743,2.89254 m -50.66136,-69.37545 3.63371,-12.078836 m 27.521,30.066016 8.64373,-9.186296 M 60.109041,69.459721 51.465313,60.273425 M 91.263752,51.47254 87.63005,39.393704 m -34.750224,78.561746 -12.27743,2.89254 m 12.27743,-38.8669 -12.27743,-2.89254 m 50.661357,69.37545 -3.633702,12.07884 m -27.521009,-30.06602 -8.643728,9.1863 m 85.411576,-9.1863 8.64373,9.1863 m -39.79844,8.80088 3.63371,12.07884"
           id="path6"
           inkscape:original-d="m 144.10611,81.981089 12.27743,-2.89254" /><path
           style="fill:none;fill-rule:evenodd;stroke:#913697;stroke-width:0.390549"
           d="m 138.16775,87.962754 11.4177,0.981417 m -11.4177,23.029609 11.4177,-0.98142 m -41.65217,-51.386217 6.55878,-9.39731 m 14.23538,21.402823 4.85891,-10.378728 M 68.258495,71.611659 63.399577,61.232932 m 25.653077,-1.626786 -6.558785,-9.397308 m -23.675683,61.764952 -11.4177,-0.98142 m 11.4177,-23.02961 -11.4177,0.98142 m 41.652173,51.38622 -6.558782,9.39731 M 68.2585,128.32488 63.399585,138.70361 m 65.327855,-10.37873 4.85892,10.37873 m -25.65308,1.62678 6.55879,9.39731"
           id="path7"
           inkscape:original-d="m 138.16775,87.962754 11.4177,0.981417" /><path
           style="fill:none;fill-rule:evenodd;stroke:#913697;stroke-width:0.390549"
           d="m 130.96405,92.251848 7.4997,4.779566 m -7.4997,10.653276 7.4997,-4.77957 m -30.41786,-34.915843 7.88908,-4.105148 m 5.47615,11.821569 -0.38937,-8.884716 m -45.44694,8.884717 0.389375,-8.884714 m 12.975858,1.168293 -7.889079,-4.105146 m -15.029078,43.800558 -7.4997,-4.77956 m 7.4997,-10.65328 -7.4997,4.77957 m 30.417858,34.91584 -7.889075,4.10515 m -5.476158,-11.82157 0.389379,8.88472 m 45.44694,-8.88472 -0.38938,8.88471 m -12.97586,-1.16829 7.88908,4.10515"
           id="path8"
           inkscape:original-d="m 130.96405,92.251848 7.4997,4.779566" /><path
           style="display:inline;fill:none;fill-rule:evenodd;stroke:#913697;stroke-width:0.25"
           d="M 118.19594,96.014541 120.78511,100 m -2.58917,3.98545 2.58917,-3.985455 m -15.13865,-17.750874 4.74609,-0.249557 m 2.15692,4.235012 -2.15692,-4.235015 m -22.942033,4.235018 2.156924,-4.235016 m 4.746086,0.249562 -4.746091,-0.24956 m -7.803382,21.985895 -2.58917,-3.985461 m 2.58917,-3.98545 L 79.214884,100 m 15.138649,17.75088 -4.746093,0.24956 m -2.156916,-4.23502 2.15692,4.23502 m 22.942036,-4.23502 -2.15693,4.23502 m -4.74608,-0.24957 4.74609,0.24956"
           id="path1"
           transform="matrix(1.562196,0,0,1.562196,-57.726627,-56.251329)"
           inkscape:original-d="M 118.19594,96.014541 120.78511,100" /><path
           style="display:inline;fill:none;fill-rule:evenodd;stroke:#913697;stroke-width:0.25"
           d="m 123.1894,93.825392 6.3736,1.898094 m -6.3736,10.451114 6.3736,-1.89809 m -23.31567,-27.446427 4.8306,-4.570652 m 5.86413,10.745256 1.54301,-6.468744 m -35.427142,6.468748 -1.543002,-6.468747 m 12.23773,0.294143 -4.830594,-4.570655 m -12.111468,33.915178 -6.3736,-1.8981 m 6.3736,-10.451111 -6.3736,1.89809 m 23.315668,27.446431 -4.830598,4.57065 m -5.86413,-10.74526 -1.543006,6.46875 m 35.427142,-6.46875 1.543,6.46874 m -12.23773,-0.29414 4.83059,4.57066"
           id="path2"
           sodipodi:nodetypes="cc"
           transform="matrix(1.562196,0,0,1.562196,-57.726627,-56.251329)"
           inkscape:original-d="m 123.1894,93.825392 6.3736,1.898094" /><path
           style="display:inline;fill:none;fill-rule:evenodd;stroke:#913697;stroke-width:0.25"
           d="m 127.40171,90.533698 7.76303,-0.670586 m -7.76303,19.603188 7.76303,0.67058 m -29.66194,-38.600611 3.30077,-7.058274 m 13.09534,16.524575 4.46225,-6.387691 m -48.260077,6.387691 -4.46226,-6.387688 m 20.858374,-3.078613 -3.300776,-7.058271 m -18.598137,44.988302 -7.76303,0.67059 m 7.76303,-19.603191 -7.76303,-0.67058 m 29.661944,38.600611 -3.300771,7.05827 m -13.095344,-16.52457 -4.462254,6.38769 m 48.260081,-6.38769 4.46226,6.38769 m -20.85837,3.07861 3.30077,7.05827"
           id="path3"
           sodipodi:nodetypes="cc"
           transform="matrix(1.562196,0,0,1.562196,-57.726627,-56.251329)"
           inkscape:original-d="m 127.40171,90.533698 7.76303,-0.670586" /><path
           style="display:inline;fill:none;fill-rule:evenodd;stroke:#913697;stroke-width:0.25"
           d="m 130.77991,86.176201 7.85626,-3.037108 m -7.85626,30.684697 7.85626,3.03711 m -35.21798,-50.428987 1.29792,-8.322274 m 22.6456,22.146069 6.55834,-5.285166 m -61.28177,5.28517 -6.558343,-5.285167 m 30.501857,-8.538628 -1.297916,-8.322275 m -26.063794,55.714158 -7.85626,3.03711 m 7.85626,-30.684701 -7.85626,-3.03711 m 35.217977,50.428991 -1.297918,8.32227 m -22.645597,-22.14607 -6.558344,5.28517 m 61.281768,-5.28517 6.55835,5.28516 m -30.50186,8.53863 1.29792,8.32228"
           id="path4"
           sodipodi:nodetypes="cc"
           transform="matrix(1.562196,0,0,1.562196,-57.726627,-56.251329)"
           inkscape:original-d="m 130.77991,86.176201 7.85626,-3.037108" /></g><g
         id="g13"
         style="stroke:#913697"><path
           style="display:inline;fill:none;fill-rule:evenodd;stroke:#913697;stroke-width:0.25"
           d="m 125.85722,99.999998 c 1.94727,-0.941274 3.04979,-2.366777 3.70577,-4.276514 m -3.70577,4.276513 c 1.94727,0.941273 3.04979,2.366773 3.70577,4.276513 M 112.92861,77.606987 c 0.15847,-2.157023 -0.5248,-3.824585 -1.85069,-5.347548 m 1.85069,5.347547 c 1.7888,-1.215749 3.57458,-1.457809 5.55645,-1.071034 M 87.071384,77.606988 C 85.282582,76.39124 83.4968,76.149181 81.514929,76.535954 m 5.556454,1.071034 c -0.158469,-2.157021 0.524791,-3.824582 1.850684,-5.347547 M 74.142774,100 c -1.94727,0.94127 -3.04979,2.36678 -3.70577,4.27651 M 74.142774,100 c -1.94727,-0.941271 -3.04979,-2.366771 -3.70577,-4.276511 m 16.634382,26.669521 c -0.158467,2.15702 0.524794,3.82459 1.850685,5.34755 m -1.850684,-5.34755 c -1.788801,1.21575 -3.57458,1.45781 -5.556454,1.07104 m 31.413677,-1.07104 c 1.7888,1.21575 3.57458,1.45781 5.55645,1.07103 m -5.55645,-1.07103 c 0.15847,2.15702 -0.52479,3.82458 -1.85068,5.34755"
           id="path11"
           sodipodi:nodetypes="cc"
           transform="matrix(1.562196,0,0,1.562196,-57.726627,-56.251329)"
           inkscape:original-d="m 125.85722,99.999998 c 1.94727,-0.941274 3.04979,-2.366777 3.70577,-4.276514" /><path
           style="display:inline;fill:none;fill-rule:evenodd;stroke:#913697;stroke-width:0.25"
           d="m 128.80562,99.999998 c 1.94727,-0.941274 4.54897,-1.458851 5.20495,-3.368588 m -5.20495,3.368587 c 1.94727,0.941273 4.54897,1.458853 5.20495,3.368593 M 114.40281,75.053597 c 0.15847,-2.157022 1.01108,-4.668949 -0.31481,-6.191913 m 0.31481,6.191913 c 1.7888,-1.215749 3.53789,-3.210097 5.51976,-2.823323 M 85.597184,75.053599 C 83.808382,73.83785 82.059297,71.8435 80.077426,72.230274 m 5.519757,2.823325 c -0.158469,-2.157022 -1.011081,-4.66895 0.314812,-6.191915 M 71.194374,100 c -1.94727,0.94127 -4.54897,1.45885 -5.20495,3.36859 M 71.194374,100 c -1.94727,-0.941271 -4.54897,-1.458851 -5.20495,-3.368591 M 85.597186,124.9464 c -0.158467,2.15702 -1.011083,4.66895 0.314808,6.19191 m -0.314807,-6.19191 c -1.788801,1.21575 -3.537889,3.2101 -5.519762,2.82332 m 34.325385,-2.82332 c 1.7888,1.21575 3.53789,3.2101 5.51976,2.82333 m -5.51976,-2.82333 c 0.15847,2.15702 1.01108,4.66895 -0.31481,6.19192"
           id="path12"
           sodipodi:nodetypes="cc"
           transform="matrix(1.562196,0,0,1.562196,-57.726627,-56.251329)"
           inkscape:original-d="m 128.80562,99.999998 c 1.94727,-0.941274 4.54897,-1.458851 5.20495,-3.368588" /><path
           style="fill:none;fill-rule:evenodd;stroke:#913697;stroke-width:0.390549"
           d="m 151.05763,99.968267 c 1.81239,-0.323295 3.47873,-1.0117 4.78889,-2.590573 m -4.78889,2.590573 c 1.81239,0.323293 3.47873,1.011703 4.78889,2.590573 M 124.7753,54.445936 c 0.62621,-1.731223 0.8632,-3.518519 0.15094,-5.442587 m -0.15094,5.442587 c 1.18617,-1.407929 2.61552,-2.506817 4.63794,-2.852014 M 72.210634,54.445939 C 71.024458,53.038011 69.595112,51.93912 67.572687,51.593925 m 4.637947,2.852014 C 71.584419,52.714717 71.34743,50.927419 72.059691,49.003352 M 45.928306,99.968273 c -1.81239,0.323297 -3.47873,1.011697 -4.78889,2.590577 m 4.78889,-2.590577 C 44.115916,99.64498 42.449576,98.95657 41.139416,97.3777 m 31.071224,48.1129 c -0.626214,1.73123 -0.863208,3.51852 -0.150943,5.44259 m 0.150943,-5.44259 c -1.186175,1.40793 -2.615526,2.50682 -4.637947,2.85202 M 124.7753,145.4906 c 1.18618,1.40793 2.61552,2.50682 4.63795,2.85202 m -4.63795,-2.85202 c 0.62622,1.73122 0.86321,3.51852 0.15094,5.44259"
           id="path13"
           inkscape:original-d="m 151.05763,99.968267 c 1.81239,-0.323295 3.47873,-1.0117 4.78889,-2.590573"
           sodipodi:nodetypes="cc" /></g></g><g
       id="g248"
       inkscape:label="No path effect"
       transform="matrix(0.64012456,0,0,0.64012456,35.94757,34.389783)"
       style="display:inline;stroke:#ed171f;stroke-width:1.5622"
       inkscape:export-filename="tuto mandala/jusmirror.png"
       inkscape:export-xdpi="96"
       inkscape:export-ydpi="96"><path
         sodipodi:type="star"
         style="display:inline;fill:none;fill-rule:evenodd;stroke:#ed171f;stroke-width:0.25"
         id="path381"
         inkscape:flatsided="false"
         sodipodi:sides="6"
         sodipodi:cx="100"
         sodipodi:cy="100"
         sodipodi:r1="12.767262"
         sodipodi:r2="5.7452679"
         sodipodi:arg1="0.80226412"
         sodipodi:arg2="1.3258629"
         inkscape:rounded="0.25"
         inkscape:randomized="0"
         d="m 108.87428,109.17879 c -1.49257,1.44305 -5.46697,-4.10843 -7.4811,-3.605 -2.014132,0.50344 -2.909098,7.27203 -4.905106,6.70096 -1.996008,-0.57108 0.824526,-6.78875 -0.618529,-8.28132 -1.443055,-1.49258 -7.752313,1.11666 -8.255749,-0.89747 -0.503436,-2.01414 6.291491,-2.68032 6.862569,-4.676327 0.571077,-1.996008 -4.843215,-6.155368 -3.350643,-7.598422 1.492571,-1.443055 5.466966,4.108434 7.481098,3.604997 2.01413,-0.503436 2.9091,-7.272031 4.90511,-6.700953 1.996,0.571077 -0.82453,6.788748 0.61853,8.28132 1.44305,1.492572 7.75231,-1.116663 8.25574,0.897469 0.50344,2.014133 -6.29149,2.680314 -6.86256,4.676326 -0.57108,1.996 4.84321,6.15536 3.35064,7.59842 z"
         transform="matrix(1.562196,0,0,1.562196,-56.157149,-53.723581)" /><circle
         style="display:inline;fill:none;fill-rule:evenodd;stroke:#ed171f;stroke-width:0.390549"
         id="circle247"
         cx="100.06245"
         cy="102.49602"
         r="19.796787" /><circle
         style="display:inline;fill:none;fill-rule:evenodd;stroke:#ed171f;stroke-width:0.390549"
         id="circle252"
         cx="100.06245"
         cy="102.49602"
         r="78.109795" /></g><g
       id="g9"
       inkscape:path-effect="#path-effect10"
       inkscape:label="rotate but do not mirror"
       style="stroke:#66ba49"><path
         style="fill:none;fill-rule:evenodd;stroke:#66ba49;stroke-width:0.25"
         d="m 133.27577,80.788218 7.9078,-4.565565 m -41.183576,-14.646206 4e-6,-9.131138 m -33.275774,28.34292 -7.907796,-4.565573 m 7.907802,42.989124 -7.9078,4.56557 m 41.18358,14.6462 -1e-5,9.13114 m 33.27578,-28.34292 7.90779,4.56557"
         id="path9"
         inkscape:original-d="m 133.27577,80.788218 7.9078,-4.565565" /><path
         style="display:inline;fill:none;fill-rule:evenodd;stroke:#66ba49;stroke-width:0.25"
         id="path14"
         d="m 129.75085,85.586533 c 0,2.700465 -2.18916,4.889624 -4.88963,4.889624 -2.70046,0 -4.88962,-2.189159 -4.88962,-4.889624 0,-2.700466 2.18916,-4.889625 4.88962,-4.889625 2.70047,0 4.88963,2.189159 4.88963,4.889625 z M 102.39299,67.028278 c 2.33868,1.350233 3.13996,4.34068 1.78973,6.679351 -1.35023,2.338672 -4.340679,3.13996 -6.679351,1.789727 -2.338671,-1.350232 -3.139959,-4.34068 -1.789726,-6.679351 1.350232,-2.338672 4.340677,-3.13996 6.679347,-1.789727 z M 72.642148,81.441745 c 2.338671,-1.350232 5.329119,-0.548944 6.679352,1.789727 1.350232,2.338672 0.548944,5.329119 -1.789727,6.679352 -2.338672,1.350232 -5.329119,0.548944 -6.679352,-1.789727 -1.350232,-2.338672 -0.548944,-5.329119 1.789727,-6.679352 z m -2.392994,32.971725 c 0,-2.70047 2.18916,-4.88963 4.889625,-4.88963 2.700465,0 4.889624,2.18916 4.889624,4.88963 0,2.70046 -2.189159,4.88962 -4.889624,4.88962 -2.700465,0 -4.889625,-2.18916 -4.889625,-4.88962 z m 27.357852,18.55825 c -2.338671,-1.35023 -3.139959,-4.34068 -1.789727,-6.67935 1.350233,-2.33867 4.340681,-3.13996 6.679351,-1.78973 2.33867,1.35024 3.13996,4.34068 1.78973,6.67936 -1.35024,2.33867 -4.340683,3.13995 -6.679354,1.78972 z m 29.750844,-14.41347 c -2.33867,1.35024 -5.32912,0.54895 -6.67935,-1.78972 -1.35023,-2.33867 -0.54894,-5.32912 1.78973,-6.67935 2.33867,-1.35024 5.32912,-0.54895 6.67935,1.78972 1.35023,2.33867 0.54894,5.32912 -1.78973,6.67935 z"
         sodipodi:type="arc"
         sodipodi:cx="124.86122"
         sodipodi:cy="85.586533"
         sodipodi:rx="4.8896246"
         sodipodi:ry="4.8896246" /><path
         style="display:inline;fill:none;fill-rule:evenodd;stroke:#66ba49;stroke-width:0.25"
         d="m 112.67241,100 h 26.36963 M 106.33621,89.025371 119.52102,66.188602 M 93.663795,89.025371 80.47898,66.188602 M 87.32759,100 H 60.95796 M 93.663795,110.97463 80.47898,133.8114 m 25.85722,-22.83677 13.18482,22.83677"
         id="path10"
         inkscape:original-d="m 112.67241,100 h 26.36963"
         sodipodi:nodetypes="cc" /><path
         style="display:inline;fill:none;fill-rule:evenodd;stroke:#66ba49;stroke-width:0.25"
         id="circle15"
         d="m 121.24883,90.076363 c 0,2.172877 -1.76146,3.934341 -3.93434,3.934341 -2.17288,0 -3.93434,-1.761464 -3.93434,-3.934341 0,-2.172877 1.76146,-3.934342 3.93434,-3.934342 2.17288,0 3.93434,1.761465 3.93434,3.934342 z M 102.03029,76.636152 c 1.88177,1.086439 2.52651,3.492644 1.44007,5.374411 -1.08644,1.881766 -3.492641,2.526507 -5.374407,1.440069 -1.881767,-1.086439 -2.526508,-3.492644 -1.440069,-5.374411 1.086438,-1.881766 3.492646,-2.526507 5.374406,-1.440069 z M 80.781461,86.55979 c 1.881767,-1.086439 4.287973,-0.441698 5.374411,1.440069 1.086439,1.881766 0.441698,4.287972 -1.440069,5.37441 -1.881766,1.086439 -4.287972,0.441698 -5.374411,-1.440069 -1.086438,-1.881766 -0.441697,-4.287972 1.440069,-5.37441 z m -2.030294,23.36385 c 0,-2.17288 1.761465,-3.93434 3.934342,-3.93434 2.172877,0 3.934341,1.76146 3.934341,3.93434 0,2.17287 -1.761464,3.93434 -3.934341,3.93434 -2.172877,0 -3.934342,-1.76147 -3.934342,-3.93434 z m 19.218539,13.44021 c -1.881767,-1.08644 -2.526508,-3.49265 -1.440069,-5.37441 1.086438,-1.88177 3.492643,-2.52651 5.374413,-1.44007 1.88176,1.08644 2.5265,3.49264 1.44007,5.37441 -1.08644,1.88177 -3.492648,2.52651 -5.374414,1.44007 z m 21.248834,-9.92364 c -1.88177,1.08644 -4.28797,0.4417 -5.37441,-1.44007 -1.08644,-1.88177 -0.4417,-4.28797 1.44007,-5.37441 1.88176,-1.08644 4.28797,-0.4417 5.37441,1.44007 1.08644,1.88177 0.4417,4.28797 -1.44007,5.37441 z"
         sodipodi:type="arc"
         sodipodi:cx="117.31449"
         sodipodi:cy="90.076363"
         sodipodi:rx="3.9343417"
         sodipodi:ry="3.9343417" /></g></g></svg>
