<?xml version="1.0" encoding="UTF-8" standalone="no"?>
<!-- Created with Inkscape (http://www.inkscape.org/) -->

<svg
   width="399.97891mm"
   height="504.14825mm"
   viewBox="0 0 399.97891 504.14822"
   version="1.1"
   id="svg1"
   inkscape:version="1.4.2 (ebf0e940d0, 2025-05-08)"
   sodipodi:docname="alucobond.svg"
   xmlns:inkscape="http://www.inkscape.org/namespaces/inkscape"
   xmlns:sodipodi="http://sodipodi.sourceforge.net/DTD/sodipodi-0.dtd"
   xmlns="http://www.w3.org/2000/svg"
   xmlns:svg="http://www.w3.org/2000/svg"
   xmlns:rdf="http://www.w3.org/1999/02/22-rdf-syntax-ns#"
   xmlns:cc="http://creativecommons.org/ns#">
  <sodipodi:namedview
     id="namedview1"
     pagecolor="#ffffff"
     bordercolor="#000000"
     borderopacity="0.25"
     inkscape:showpageshadow="2"
     inkscape:pageopacity="0.0"
     inkscape:pagecheckerboard="0"
     inkscape:deskcolor="#d1d1d1"
     inkscape:document-units="mm"
     inkscape:zoom="0.30505219"
     inkscape:cx="406.48782"
     inkscape:cy="773.6381"
     inkscape:window-width="1596"
     inkscape:window-height="841"
     inkscape:window-x="0"
     inkscape:window-y="0"
     inkscape:window-maximized="0"
     inkscape:current-layer="layer3"
     showgrid="false" />
  <defs
     id="defs1">
    <rect
       x="386.62573"
       y="512.69934"
       width="1924.7238"
       height="617.76068"
       id="rect1" />
  </defs>
  <g
     inkscape:groupmode="layer"
     id="layer3"
     inkscape:label="Layer 2"
     transform="translate(-257.46346,145.31511)">
    <text
       xml:space="preserve"
       transform="matrix(0.26458333,0,0,0.26458333,155.27793,199.60011)"
       id="text1"
       style="font-style:normal;font-variant:normal;font-weight:normal;font-stretch:normal;font-size:37.3333px;font-family:'Open Sans';-inkscape-font-specification:'Open Sans';text-align:start;writing-mode:lr-tb;direction:ltr;white-space:pre;shape-inside:url(#rect1);display:inline;fill:#000000;fill-opacity:1;stroke:#000000;stroke-width:0.823937;stroke-opacity:1"><tspan
         x="386.625"
         y="545.77836"
         id="tspan3"><tspan
           dx="0 0 0 0 0 0 0 0 0 0 0 0 0 0 0 0 0 0 0 0 0 0 0 0 0 0 0 0 0 0 0 0 0 0 0 0 0 0 0 0 0 0 0 0 0 0 0 0 0 0 0 0 0 0 0 0 0 0 0 0 0 0 0 0 0 0 0 0 0 -0.00010299683 0 0 0 0 0 0 0 0 0 0 -0.00010299683"
           id="tspan2">The design is avialiable under the CERN Open Hardware License - Strongly Reciprocal
</tspan></tspan><tspan
         x="386.625"
         y="592.44498"
         id="tspan5"><tspan
           dx="0 0 0 0 0 0 0 0 0 0 0 0 0 0 0 0 0 0 0 0 0 0 0 0 0 0 0 0 0 0 0 0 0 0 0 0 0 0 0 0 0 0 0 0 0 0 0 0 0 0 0 0 0 0 0 0 0 0 0 0 0 0 0 0 0 -0.00010299683"
           id="tspan4">A copy of this license can be obtained from https://ohwr.org/cern_ohl_s_v2.txt</tspan></tspan></text>
  </g>
  <g
     inkscape:label="Layer 1"
     inkscape:groupmode="layer"
     id="layer1"
     transform="translate(-24.883,64.287654)">
    <path
       id="rect6"
       style="fill:none;stroke:#000000;stroke-width:0.1;stroke-dasharray:none"
       d="m 31.855276,40.302733 h 4.190442 l 1.156519,-3.82509 0.446484,-3.175 c 3e-6,-1.76851 1.411367,-3.20187 3.152262,-3.20187 1.740895,0 3.15226,1.43336 3.152263,3.20187 l 0.446484,3.175 1.156519,3.82509 h 25.714709 v 14.41566 H 385.39597 v -14.41566 h 39.41568 v -74.996967 h -12.67829 l -0.29973,-0.0574 c -1.62687,0 -2.94555,-1.31869 -2.94555,-2.94556 0,-1.62687 1.31868,-2.94607 2.94555,-2.94607 l 0.29973,-0.0568 h 12.67829 l -0.0356,-7.16288 h -39.34437 v -16.37471 h -0.0357 -314.125012 -0.03566 v 16.37471 H 31.890933 Z M 186.06034,-47.033024 c 3.38953,-3.38952 13.74328,4.23334 13.74328,4.23334 h 9.50995 9.50995 9.50995 9.50994 9.50995 9.50995 c 0,0 10.35376,-7.62286 13.74328,-4.23334 3.38953,3.38953 -4.23333,13.74335 -4.23333,13.74335 v 9.510017 9.51001 9.5100105 9.5100195 9.51001 9.51002 c 0,0 7.62286,10.35382 4.23333,13.74334 -3.38952,3.38953 -13.74328,-4.23333 -13.74328,-4.23333 h -9.50995 -9.50995 -9.50994 -9.50995 -9.50995 -9.50995 c 0,0 -10.35376,7.62286 -13.74328,4.23333 -3.38953,-3.38952 4.23333,-13.74334 4.23333,-13.74334 v -9.51002 -9.51001 -9.5100195 -9.5100105 -9.51001 -9.510017 c 0,0 -7.62286,-10.35382 -4.23333,-13.74335 z m -145.259357,6.39032 c 1.626748,8e-5 2.945468,1.3188 2.945557,2.94555 -8.4e-5,1.62675 -1.318805,2.94548 -2.945557,2.94556 -1.626953,2e-4 -2.945989,-1.31861 -2.946073,-2.94556 8.9e-5,-1.62695 1.319124,-2.94575 2.946073,-2.94555 z m 370.070947,12.995587 h 9.92291 v 5.89421 h -9.92291 z m -373.973551,0.0305 h 7.919413 v 5.91954 h -7.919413 z m -2.043286,11.91349 h 12.005986 v 6.0058305 H 34.855093 Z m 374.975557,0 h 12.00547 v 6.0058305 H 409.83065 Z M 34.855093,-3.7028265 H 46.861079 V 2.303013 H 34.855093 Z m 374.975557,0 h 12.00547 V 2.303013 h -12.00547 z"
       sodipodi:nodetypes="ccccscccccccccccscccccccccccczccccccczccccccczccccccczccccccczccccccccccccccccccccccccccccccccccc" />
    <path
       id="path21"
       style="fill:none;stroke:#000000;stroke-width:0.0987851;stroke-dasharray:none"
       d="m 31.27267,105.40805 v 3.8433 3.8268 3.91533 3.80732 l 1.85016,-0.008 h 71.25107 v -3.84331 -3.8273 -3.91482 -3.80732 l -1.85016,0.008 z"
       sodipodi:nodetypes="ccccccccccccc" />
    <path
       id="path4"
       style="fill:none;stroke:#000000;stroke-width:0.0987851;stroke-dasharray:none"
       d="m 31.27267,161.80797 v 3.8433 3.8268 3.91533 3.80732 l 1.85016,-0.008 h 71.25107 v -3.84331 -3.8273 -3.91482 -3.80732 l -1.85016,0.008 z"
       sodipodi:nodetypes="ccccccccccccc" />
    <path
       id="path5"
       style="fill:none;stroke:#000000;stroke-width:0.0987851;stroke-dasharray:none"
       d="m 31.27267,133.60801 v 3.8433 3.8268 3.91533 3.80732 l 1.85016,-0.008 h 71.25107 v -3.84331 -3.8273 -3.91482 -3.80732 l -1.85016,0.008 z"
       sodipodi:nodetypes="ccccccccccccc" />
    <path
       id="path6"
       style="fill:none;stroke:#000000;stroke-width:0.0987851;stroke-dasharray:none"
       d="m 31.27267,77.315294 v 3.843296 3.8268 3.91533 3.807319 l 1.85016,-0.008 h 71.25107 v -3.843309 -3.8273 -3.91482 -3.807316 l -1.85016,0.008 z"
       sodipodi:nodetypes="ccccccccccccc" />
    <g
       id="g15"
       transform="translate(397.18254)">
      <path
         id="path7"
         style="fill:none;stroke:#000000;stroke-width:0.120405"
         d="m -94.09382,75.34253 c -4.28095,0 -8.14376,1.723319 -10.9368,4.51652 -2.79303,2.793381 -4.51704,6.657391 -4.51704,10.93835 v 26.5653 53.12906 26.56479 c 0,4.28095 1.724,8.14427 4.51704,10.93731 2.79304,2.79301 6.65585,4.51652 10.9368,4.51652 h 26.5653 53.12906 26.5653 c 4.28094,0 8.14497,-1.72351 10.93835,-4.51652 2.79312,-1.71382 4.51497,-6.65636 4.51497,-10.93731 V 170.49176 117.3627 90.7974 c 0,-4.280958 -1.72178,-8.144969 -4.51497,-10.93835 -2.79339,-2.793202 -6.65741,-4.51652 -10.93835,-4.51652 h -26.5653 -53.12906 z m -1.96319,9.93376 a 3.5565383,3.5565383 0 0 1 3.55637,3.556889 3.5565383,3.5565383 0 0 1 -3.55637,3.556372 3.5565383,3.5565383 0 0 1 -3.55689,-3.556372 3.5565383,3.5565383 0 0 1 3.55689,-3.556889 z m 110.18604,0 a 3.5565383,3.5565383 0 0 1 3.55637,3.556889 3.5565383,3.5565383 0 0 1 -3.55637,3.556372 3.5565383,3.5565383 0 0 1 -3.55637,-3.556372 3.5565383,3.5565383 0 0 1 3.55637,-3.556889 z m -93.89298,19.84995 H -2.163 v 77.60095 h -77.60095 z m 93.89298,90.33712 a 3.5565383,3.5565383 0 0 1 3.55637,3.55638 3.5565383,3.5565383 0 0 1 -3.55637,3.55637 3.5565383,3.5565383 0 0 1 -3.55637,-3.55637 3.5565383,3.5565383 0 0 1 3.55637,-3.55638 z m -108.35928,1.72961 a 3.5565383,3.5565383 0 0 1 3.55637,3.55638 3.5565383,3.5565383 0 0 1 -3.55637,3.55688 3.5565383,3.5565383 0 0 1 -3.55689,-3.55688 3.5565383,3.5565383 0 0 1 3.55689,-3.55638 z" />
      <path
         id="path46"
         style="display:inline;fill:none;stroke:#000000;stroke-width:0.122353"
         d="m -263.25714,67.52957 c -3.56044,0 -6.77393,1.432643 -9.09712,3.755843 -2.3232,2.3232 -3.75636,5.537197 -3.75636,9.097636 v 63.542891 63.54289 c 0,3.56044 1.43322,6.77358 3.75636,9.09712 2.3231,2.32335 5.53615,3.75739 9.0966,3.75739 h 63.54341 63.54289 c 3.56042,0 6.77359,-1.43404 9.09712,-3.75739 2.32338,-2.32354 3.75688,-5.53668 3.75688,-9.09712 V 143.92594 80.383049 c 0,-3.560436 -1.43357,-6.774438 -3.75688,-9.097636 -2.32345,-2.323198 -5.53667,-3.755843 -9.09712,-3.755843 h -63.54289 z m 8.45013,17.74672 a 3.5565383,3.5565383 0 0 1 3.55637,3.556889 3.5565383,3.5565383 0 0 1 -3.55637,3.556372 3.5565383,3.5565383 0 0 1 -3.55689,-3.556372 3.5565383,3.5565383 0 0 1 3.55689,-3.556889 z m 110.18604,0 a 3.5565383,3.5565383 0 0 1 3.55637,3.556889 3.5565383,3.5565383 0 0 1 -3.55637,3.556372 3.5565383,3.5565383 0 0 1 -3.55637,-3.556372 3.5565383,3.5565383 0 0 1 3.55637,-3.556889 z m -96.17036,5.330424 h 41.07811 41.07708 l 12.24163,12.242146 v 41.07708 41.07811 l -12.24163,12.24112 h -41.07708 -41.07811 l -12.24111,-12.24112 v -41.07811 -41.07708 z m 96.17036,104.856646 a 3.5565383,3.5565383 0 0 1 3.55637,3.55638 3.5565383,3.5565383 0 0 1 -3.55637,3.55637 3.5565383,3.5565383 0 0 1 -3.55637,-3.55637 3.5565383,3.5565383 0 0 1 3.55637,-3.55638 z m -108.35928,1.72961 a 3.5565383,3.5565383 0 0 1 3.55637,3.55638 3.5565383,3.5565383 0 0 1 -3.55637,3.55688 3.5565383,3.5565383 0 0 1 -3.55689,-3.55688 3.5565383,3.5565383 0 0 1 3.55689,-3.55638 z" />
    </g>
    <g
       id="g14"
       style="display:none">
      <circle
         style="fill:none;stroke:#000000;stroke-width:0.886923"
         id="circle11"
         cx="-229.4071"
         cy="88.833038"
         r="3.5565383" />
      <circle
         style="fill:none;stroke:#000000;stroke-width:0.886923"
         id="circle12"
         cx="-119.221"
         cy="88.833038"
         r="3.5565383" />
      <circle
         style="fill:none;stroke:#000000;stroke-width:0.886923"
         id="circle13"
         cx="-119.221"
         cy="199.01971"
         r="3.5565383" />
      <circle
         style="fill:none;stroke:#000000;stroke-width:0.886923"
         id="circle14"
         cx="-227.58046"
         cy="200.74959"
         r="3.5565383" />
    </g>
    <g
       id="g16"
       transform="translate(359.88701,176.08593)">
      <path
         id="path15"
         style="fill:none;stroke:#000000;stroke-width:0.120405"
         d="m -94.09382,75.34253 c -4.28095,0 -8.14376,1.723319 -10.9368,4.51652 -2.79303,2.793381 -4.51704,6.657391 -4.51704,10.93835 v 26.5653 53.12906 26.56479 c 0,4.28095 1.724,8.14427 4.51704,10.93731 2.79304,2.79301 6.65585,4.51652 10.9368,4.51652 h 26.5653 53.12906 26.5653 c 4.28094,0 8.14497,-1.72351 10.93835,-4.51652 2.79312,-1.71382 4.51497,-6.65636 4.51497,-10.93731 V 170.49176 117.3627 90.7974 c 0,-4.280958 -1.72178,-8.144969 -4.51497,-10.93835 -2.79339,-2.793202 -6.65741,-4.51652 -10.93835,-4.51652 h -26.5653 -53.12906 z m -1.96319,9.93376 a 3.5565383,3.5565383 0 0 1 3.55637,3.556889 3.5565383,3.5565383 0 0 1 -3.55637,3.556372 3.5565383,3.5565383 0 0 1 -3.55689,-3.556372 3.5565383,3.5565383 0 0 1 3.55689,-3.556889 z m 110.18604,0 a 3.5565383,3.5565383 0 0 1 3.55637,3.556889 3.5565383,3.5565383 0 0 1 -3.55637,3.556372 3.5565383,3.5565383 0 0 1 -3.55637,-3.556372 3.5565383,3.5565383 0 0 1 3.55637,-3.556889 z m -93.89298,19.84995 H -2.163 v 77.60095 h -77.60095 z m 93.89298,90.33712 a 3.5565383,3.5565383 0 0 1 3.55637,3.55638 3.5565383,3.5565383 0 0 1 -3.55637,3.55637 3.5565383,3.5565383 0 0 1 -3.55637,-3.55637 3.5565383,3.5565383 0 0 1 3.55637,-3.55638 z m -108.35928,1.72961 a 3.5565383,3.5565383 0 0 1 3.55637,3.55638 3.5565383,3.5565383 0 0 1 -3.55637,3.55688 3.5565383,3.5565383 0 0 1 -3.55689,-3.55688 3.5565383,3.5565383 0 0 1 3.55689,-3.55638 z" />
      <path
         id="path16"
         style="display:inline;fill:none;stroke:#000000;stroke-width:0.122353"
         d="m -263.25714,67.52957 c -3.56044,0 -6.77393,1.432643 -9.09712,3.755843 -2.3232,2.3232 -3.75636,5.537197 -3.75636,9.097636 v 63.542891 63.54289 c 0,3.56044 1.43322,6.77358 3.75636,9.09712 2.3231,2.32335 5.53615,3.75739 9.0966,3.75739 h 63.54341 63.54289 c 3.56042,0 6.77359,-1.43404 9.09712,-3.75739 2.32338,-2.32354 3.75688,-5.53668 3.75688,-9.09712 V 143.92594 80.383049 c 0,-3.560436 -1.43357,-6.774438 -3.75688,-9.097636 -2.32345,-2.323198 -5.53667,-3.755843 -9.09712,-3.755843 h -63.54289 z m 8.45013,17.74672 a 3.5565383,3.5565383 0 0 1 3.55637,3.556889 3.5565383,3.5565383 0 0 1 -3.55637,3.556372 3.5565383,3.5565383 0 0 1 -3.55689,-3.556372 3.5565383,3.5565383 0 0 1 3.55689,-3.556889 z m 110.18604,0 a 3.5565383,3.5565383 0 0 1 3.55637,3.556889 3.5565383,3.5565383 0 0 1 -3.55637,3.556372 3.5565383,3.5565383 0 0 1 -3.55637,-3.556372 3.5565383,3.5565383 0 0 1 3.55637,-3.556889 z m -96.17036,5.330424 h 41.07811 41.07708 l 12.24163,12.242146 v 41.07708 41.07811 l -12.24163,12.24112 h -41.07708 -41.07811 l -12.24111,-12.24112 v -41.07811 -41.07708 z m 96.17036,104.856646 a 3.5565383,3.5565383 0 0 1 3.55637,3.55638 3.5565383,3.5565383 0 0 1 -3.55637,3.55637 3.5565383,3.5565383 0 0 1 -3.55637,-3.55637 3.5565383,3.5565383 0 0 1 3.55637,-3.55638 z m -108.35928,1.72961 a 3.5565383,3.5565383 0 0 1 3.55637,3.55638 3.5565383,3.5565383 0 0 1 -3.55637,3.55688 3.5565383,3.5565383 0 0 1 -3.55689,-3.55688 3.5565383,3.5565383 0 0 1 3.55689,-3.55638 z" />
    </g>
  </g>
  <metadata
     id="metadata8">
    <rdf:RDF>
      <cc:Work
         rdf:about="">
        <cc:license
           rdf:resource="https://ohwr.org/cern_ohl_s_v2.txt" />
      </cc:Work>
    </rdf:RDF>
  </metadata>
</svg>
