<?xml version="1.0" encoding="UTF-8" standalone="no"?>
<!-- Created with Inkscape (http://www.inkscape.org/) -->

<svg
   width="657.44214mm"
   height="121.16559mm"
   viewBox="0 0 657.44213 121.16558"
   version="1.1"
   id="svg1"
   inkscape:version="1.4.2 (ebf0e940d0, 2025-05-08)"
   sodipodi:docname="frame-plan8b-simple.svg"
   xmlns:inkscape="http://www.inkscape.org/namespaces/inkscape"
   xmlns:sodipodi="http://sodipodi.sourceforge.net/DTD/sodipodi-0.dtd"
   xmlns="http://www.w3.org/2000/svg"
   xmlns:svg="http://www.w3.org/2000/svg"
   xmlns:rdf="http://www.w3.org/1999/02/22-rdf-syntax-ns#"
   xmlns:cc="http://creativecommons.org/ns#">
  <sodipodi:namedview
     id="namedview1"
     pagecolor="#ffffff"
     bordercolor="#000000"
     borderopacity="0.25"
     inkscape:showpageshadow="2"
     inkscape:pageopacity="0.0"
     inkscape:pagecheckerboard="0"
     inkscape:deskcolor="#d1d1d1"
     inkscape:document-units="mm"
     inkscape:zoom="0.33652092"
     inkscape:cx="1169.3181"
     inkscape:cy="-5.9431669"
     inkscape:window-width="1596"
     inkscape:window-height="841"
     inkscape:window-x="0"
     inkscape:window-y="0"
     inkscape:window-maximized="0"
     inkscape:current-layer="layer3"
     showgrid="false" />
  <defs
     id="defs1">
    <rect
       x="386.62573"
       y="512.69934"
       width="1924.7238"
       height="617.76068"
       id="rect1" />
  </defs>
  <g
     inkscape:groupmode="layer"
     id="layer3"
     inkscape:label="Layer 2">
    <text
       xml:space="preserve"
       transform="matrix(0.26458333,0,0,0.26458333,31.248605,6.1837585)"
       id="text1"
       style="font-style:normal;font-variant:normal;font-weight:normal;font-stretch:normal;font-size:37.3333px;font-family:'Open Sans';-inkscape-font-specification:'Open Sans';text-align:start;writing-mode:lr-tb;direction:ltr;white-space:pre;shape-inside:url(#rect1);display:inline;fill:#000000;fill-opacity:1;stroke:#000000;stroke-width:0.823937;stroke-opacity:1"><tspan
         x="386.625"
         y="545.77836"
         id="tspan6"><tspan
           dx="0 0 0 0 0 0 0 0 0 0 0 0 0 0 0 0 0 0 0 0 0 0 0 0 0 0 0 0 0 0 0 0 0 0 0 0 0 0 0 0 0 0 0 0 0 0 0 0 0 0 0 0 0 0 0 0 0 0 0 0 0 0 0 0 0 0 0 0 0 -0.00010299683 0 0 0 0 0 0 0 0 0 0 -0.00010299683"
           id="tspan1">The design is avialiable under the CERN Open Hardware License - Strongly Reciprocal
</tspan></tspan><tspan
         x="386.625"
         y="592.44498"
         id="tspan8"><tspan
           dx="0 0 0 0 0 0 0 0 0 0 0 0 0 0 0 0 0 0 0 0 0 0 0 0 0 0 0 0 0 0 0 0 0 0 0 0 0 0 0 0 0 0 0 0 0 0 0 0 0 0 0 0 0 0 0 0 0 0 0 0 0 0 0 0 0 -0.00010299683"
           id="tspan7">A copy of this license can be obtained from https://ohwr.org/cern_ohl_s_v2.txt</tspan></tspan></text>
  </g>
  <g
     inkscape:label="Layer 1"
     inkscape:groupmode="layer"
     id="layer1"
     transform="translate(232.58046,-81.027454)">
    <path
       id="rect6"
       style="fill:none;stroke:#000000;stroke-width:0.1;stroke-dasharray:none"
       d="m 31.855276,81.077454 v 14.415657 90.124729 h 4.190442 l 1.156519,-3.82509 0.446484,-3.175 c 3e-6,-1.76851 1.411367,-3.20187 3.152262,-3.20187 1.740895,0 3.15226,1.43336 3.152263,3.20187 l 0.446484,3.175 1.156519,3.82509 H 71.270958 V 200.0335 H 385.39597 v -14.41566 h 39.41568 v -74.99697 h -12.67829 l -0.29973,-0.0574 c -1.62687,0 -2.94555,-1.31869 -2.94555,-2.94556 0,-1.62687 1.31868,-2.94607 2.94555,-2.94607 l 0.29973,-0.0568 h 12.67829 V 95.493111 81.077454 H 424.776 V 97.452165 H 385.43163 V 81.077454 h -0.0357 -314.125012 -0.03566 V 97.452165 H 31.890933 V 81.077454 Z M 190.29367,102.51542 h 76.07959 v 76.08011 H 190.29367 Z M 40.800983,104.6724 a 2.9457103,2.9457119 0 0 1 2.945557,2.94555 2.9457103,2.9457119 0 0 1 -2.945557,2.94556 2.9457103,2.9457119 0 0 1 -2.946073,-2.94556 2.9457103,2.9457119 0 0 1 2.946073,-2.94555 z m 370.070947,12.99559 h 9.92291 v 5.89421 h -9.92291 z m -373.973551,0.0305 h 7.919413 v 5.91954 h -7.919413 z m -2.043286,11.91349 h 12.005986 v 6.00583 H 34.855093 Z m 374.975557,0 h 12.00547 v 6.00583 h -12.00547 z m -374.975557,12.0003 h 12.005986 v 6.00584 H 34.855093 Z m 374.975557,0 h 12.00547 v 6.00584 h -12.00547 z" />
    <path
       id="path4"
       style="fill:none;stroke:#000000;stroke-width:0.0818373;stroke-dasharray:none"
       d="m -186.63771,120.57586 v 20.00832 h -4.00817 v -20.00832 z" />
    <path
       id="path26"
       style="fill:none;stroke:#000000;stroke-width:0.0818373;stroke-dasharray:none"
       d="m -177.59605,120.57586 v 20.00832 h -4.00817 v -20.00832 z" />
    <path
       id="path28"
       style="fill:none;stroke:#000000;stroke-width:0.0818373;stroke-dasharray:none"
       d="m -168.16127,120.57586 v 20.00832 h -4.00817 v -20.00832 z" />
    <path
       id="path27"
       style="fill:none;stroke:#000000;stroke-width:0.0818373;stroke-dasharray:none"
       d="m -159.90584,120.57586 v 20.00832 h -4.00817 v -20.00832 z" />
    <path
       id="path1"
       style="fill:none;stroke:#000000;stroke-width:0.0818373;stroke-dasharray:none"
       d="m -190.06061,151.3275 v 20.00831 h -4.00817 V 151.3275 Z" />
    <path
       id="path3"
       style="fill:none;stroke:#000000;stroke-width:0.0818373;stroke-dasharray:none"
       d="m -181.01895,151.3275 v 20.00831 h -4.00817 V 151.3275 Z" />
    <path
       id="path7"
       style="fill:none;stroke:#000000;stroke-width:0.0818373;stroke-dasharray:none"
       d="m -171.58417,151.3275 v 20.00831 h -4.00817 V 151.3275 Z" />
    <path
       id="path6"
       style="fill:none;stroke:#000000;stroke-width:0.0818373;stroke-dasharray:none"
       d="m -163.32874,151.3275 v 20.00831 h -4.00817 V 151.3275 Z" />
    <path
       id="path13"
       style="fill:none;stroke:#000000;stroke-width:0.102454;stroke-dasharray:none"
       d="m -85.018241,178.48532 h 3.97132 v -1.92598 h 3.95429 v 1.92598 h 4.04575 v -1.92598 h 3.92586 v -74.17119 h -3.97134 v 1.92598 h -3.95479 v -1.92598 h -4.04523 v 1.92598 h -3.92586 z" />
    <path
       id="path19"
       style="fill:none;stroke:#000000;stroke-width:0.102454;stroke-dasharray:none"
       d="m -65.747121,178.59722 h 3.97132 v -1.92599 h 3.95429 v 1.92599 h 4.04575 v -1.92599 h 3.92586 v -74.17118 h -3.97134 v 1.92598 h -3.95479 v -1.92598 h -4.04523 v 1.92598 h -3.92586 z" />
    <path
       id="path20"
       style="fill:none;stroke:#000000;stroke-width:0.102454;stroke-dasharray:none"
       d="m -46.404901,178.09501 h 3.97132 v -1.92599 h 3.95429 v 1.92599 h 4.04575 v -1.92599 h 3.92585 v -74.17118 h -3.97133 v 1.92598 h -3.95479 v -1.92598 h -4.04524 v 1.92598 h -3.92585 z" />
    <path
       id="path21"
       style="fill:none;stroke:#000000;stroke-width:0.102454;stroke-dasharray:none"
       d="m -26.296591,177.48532 h 3.97133 v -1.92599 h 3.95428 v 1.92599 h 4.04575 v -1.92599 h 3.92586 v -74.17118 h -3.97134 v 1.92598 h -3.95479 v -1.92598 h -4.04523 v 1.92598 h -3.92586 z" />
    <path
       id="path8"
       style="fill:none;stroke:#000000;stroke-width:0.102203"
       d="m -219.41181,85.710806 c -3.63379,0 -6.91288,1.462939 -9.28368,3.833875 -2.37079,2.37109 -3.83387,5.650922 -3.83387,9.284704 V 121.3784 c 0,0 8.48269,14.89997 8.48269,22.54849 0,7.64855 -8.48269,22.54901 -8.48269,22.54901 v 22.5485 c 0,3.63377 1.46307,6.91338 3.83387,9.28418 2.3708,2.37078 5.64989,3.83336 9.28368,3.83336 h 22.54901 c 0,0 14.90047,-8.48217 22.54901,-8.48217 7.64852,0 22.54849,8.48217 22.54849,8.48217 h 22.54901 c 3.63378,0 6.91363,-1.46258 9.28471,-3.83336 2.37088,-1.45473 3.83284,-5.65041 3.83284,-9.28418 v -22.5485 c 0,0 -8.48165,-14.90046 -8.48165,-22.54901 0,-7.64852 8.48165,-22.54849 8.48165,-22.54849 V 98.829385 c 0,-3.633781 -1.4619,-6.913614 -3.83284,-9.284704 -2.37109,-2.370937 -5.65093,-3.833875 -9.28471,-3.833875 h -22.54901 c 0,0 -14.89997,8.482687 -22.54849,8.482687 -7.64854,0 -22.54901,-8.482687 -22.54901,-8.482687 z m -3.11454,6.03219 a 3.9708409,3.9708409 0 0 1 3.97081,3.970817 3.9708409,3.9708409 0 0 1 -3.97081,3.970817 3.9708409,3.9708409 0 0 1 -3.97082,-3.970817 3.9708409,3.9708409 0 0 1 3.97082,-3.970817 z m 96.4246,0 a 3.9708409,3.9708409 0 0 1 3.97082,3.970817 3.9708409,3.9708409 0 0 1 -3.97082,3.970817 3.9708409,3.9708409 0 0 1 -3.97081,-3.970817 3.9708409,3.9708409 0 0 1 3.97081,-3.970817 z m -86.25158,14.143844 h 76.07959 v 76.07959 h -76.07959 z m -10.17302,82.28128 a 3.9708409,3.9708409 0 0 1 3.97081,3.97082 3.9708409,3.9708409 0 0 1 -3.97081,3.97081 3.9708409,3.9708409 0 0 1 -3.97082,-3.97081 3.9708409,3.9708409 0 0 1 3.97082,-3.97082 z m 96.4246,0 a 3.9708409,3.9708409 0 0 1 3.97082,3.97082 3.9708409,3.9708409 0 0 1 -3.97082,3.97081 3.9708409,3.9708409 0 0 1 -3.97081,-3.97081 3.9708409,3.9708409 0 0 1 3.97081,-3.97082 z" />
    <path
       id="path46"
       style="display:inline;fill:none;stroke:#000000;stroke-width:0.0929941"
       d="m -95.609031,82.157018 c -2.70612,0 -5.148559,1.088857 -6.914309,2.854606 -1.76574,1.765748 -2.85512,4.208711 -2.85512,6.914823 v 48.295763 48.29576 c 0,2.70611 1.08944,5.14829 2.85512,6.9143 1.76567,1.76587 4.207669,2.85564 6.913789,2.85564 h 48.29628 48.2957601 c 2.70611,0 5.14829,-1.08977 6.9143,-2.85564 1.76588,-1.76601 2.8551299,-4.20819 2.8551299,-6.9143 V 140.22221 91.926447 c 0,-2.70611 -1.0893099,-5.149077 -2.8551299,-6.914823 -1.76594,-1.765748 -4.20817,-2.854606 -6.9143,-2.854606 H -47.313271 Z m 0.08319,5.882328 a 3.9708409,3.9708409 0 0 1 3.97082,3.970817 3.9708409,3.9708409 0 0 1 -3.97082,3.970817 3.9708409,3.9708409 0 0 1 -3.97081,-3.970817 3.9708409,3.9708409 0 0 1 3.97081,-3.970817 z m 96.4251301,0 a 3.9708409,3.9708409 0 0 1 3.97081,3.970817 3.9708409,3.9708409 0 0 1 -3.97081,3.970817 3.9708409,3.9708409 0 0 1 -3.97082,-3.970817 3.9708409,3.9708409 0 0 1 3.97082,-3.970817 z M -85.975511,98.603042 c 2.22863,-0.10828 5.50845,1.093991 7.4414,1.093991 h 31.22135 31.22084 c 2.57728,0 8.0784501,-2.13751 9.7601201,-0.455787 1.68166,1.681714 -0.45578,7.182874 -0.45578,9.760124 v 31.22084 31.22135 c 0,2.57727 2.13751,8.0784 0.45578,9.76013 -1.68173,1.68173 -7.1828501,-0.45631 -9.7601201,-0.45631 h -31.22084 -31.22135 c -2.57727,0 -8.07795,2.13804 -9.75961,0.45631 -1.68166,-1.68173 0.45579,-7.18286 0.45579,-9.76013 v -31.22135 -31.22084 c 0,-2.57725 -1.60836,-8.07841 0.07338,-9.760124 0.42043,-0.420431 1.04617,-0.60211 1.78904,-0.638204 z m -9.55033,85.860908 a 3.9708409,3.9708409 0 0 1 3.97082,3.97082 3.9708409,3.9708409 0 0 1 -3.97082,3.97082 3.9708409,3.9708409 0 0 1 -3.97081,-3.97082 3.9708409,3.9708409 0 0 1 3.97081,-3.97082 z m 96.4251301,0 a 3.9708409,3.9708409 0 0 1 3.97081,3.97082 3.9708409,3.9708409 0 0 1 -3.97081,3.97082 3.9708409,3.9708409 0 0 1 -3.97082,-3.97082 3.9708409,3.9708409 0 0 1 3.97082,-3.97082 z" />
  </g>
  <metadata
     id="metadata8">
    <rdf:RDF>
      <cc:Work
         rdf:about="">
        <cc:license
           rdf:resource="https://ohwr.org/cern_ohl_s_v2.txt" />
      </cc:Work>
    </rdf:RDF>
  </metadata>
</svg>
