<?xml version="1.0" encoding="UTF-8" standalone="no"?>
<!-- Created with Inkscape (http://www.inkscape.org/) -->

<svg
   width="399.97891mm"
   height="504.14825mm"
   viewBox="0 0 399.97891 504.14822"
   version="1.1"
   id="svg1"
   inkscape:version="1.4.2 (ebf0e940d0, 2025-05-08)"
   sodipodi:docname="alucobond2.svg"
   xmlns:inkscape="http://www.inkscape.org/namespaces/inkscape"
   xmlns:sodipodi="http://sodipodi.sourceforge.net/DTD/sodipodi-0.dtd"
   xmlns="http://www.w3.org/2000/svg"
   xmlns:svg="http://www.w3.org/2000/svg"
   xmlns:rdf="http://www.w3.org/1999/02/22-rdf-syntax-ns#"
   xmlns:cc="http://creativecommons.org/ns#">
  <sodipodi:namedview
     id="namedview1"
     pagecolor="#ffffff"
     bordercolor="#000000"
     borderopacity="0.25"
     inkscape:showpageshadow="2"
     inkscape:pageopacity="0.0"
     inkscape:pagecheckerboard="0"
     inkscape:deskcolor="#d1d1d1"
     inkscape:document-units="mm"
     inkscape:zoom="0.33063191"
     inkscape:cx="756.12787"
     inkscape:cy="952.72111"
     inkscape:window-width="1596"
     inkscape:window-height="841"
     inkscape:window-x="0"
     inkscape:window-y="0"
     inkscape:window-maximized="0"
     inkscape:current-layer="layer1"
     showgrid="false" />
  <defs
     id="defs1">
    <rect
       x="386.62573"
       y="512.69934"
       width="1924.7238"
       height="617.76068"
       id="rect1" />
  </defs>
  <g
     inkscape:groupmode="layer"
     id="layer3"
     inkscape:label="Layer 2"
     transform="translate(-257.46346,145.31511)">
    <text
       xml:space="preserve"
       transform="matrix(0.26458333,0,0,0.26458333,155.27793,199.60011)"
       id="text1"
       style="font-style:normal;font-variant:normal;font-weight:normal;font-stretch:normal;font-size:37.3333px;font-family:'Open Sans';-inkscape-font-specification:'Open Sans';text-align:start;writing-mode:lr-tb;direction:ltr;white-space:pre;shape-inside:url(#rect1);display:inline;fill:#000000;fill-opacity:1;stroke:#000000;stroke-width:0.823937;stroke-opacity:1"><tspan
         x="386.625"
         y="545.77836"
         id="tspan2"><tspan
           dx="0 0 0 0 0 0 0 0 0 0 0 0 0 0 0 0 0 0 0 0 0 0 0 0 0 0 0 0 0 0 0 0 0 0 0 0 0 0 0 0 0 0 0 0 0 0 0 0 0 0 0 0 0 0 0 0 0 0 0 0 0 0 0 0 0 0 0 0 0 -0.00010299683 0 0 0 0 0 0 0 0 0 0 -0.00010299683"
           id="tspan1">The design is avialiable under the CERN Open Hardware License - Strongly Reciprocal
</tspan></tspan><tspan
         x="386.625"
         y="592.44498"
         id="tspan4"><tspan
           dx="0 0 0 0 0 0 0 0 0 0 0 0 0 0 0 0 0 0 0 0 0 0 0 0 0 0 0 0 0 0 0 0 0 0 0 0 0 0 0 0 0 0 0 0 0 0 0 0 0 0 0 0 0 0 0 0 0 0 0 0 0 0 0 0 0 -0.00010299683"
           id="tspan3">A copy of this license can be obtained from https://ohwr.org/cern_ohl_s_v2.txt</tspan></tspan></text>
  </g>
  <g
     inkscape:label="Layer 1"
     inkscape:groupmode="layer"
     id="layer1"
     transform="translate(-24.883,64.287654)">
    <path
       id="rect459"
       style="fill:none;stroke:#000000;stroke-width:0.0667937"
       d="m 31.839722,42.607691 4.309561,0.01402 1.052954,-6.144065 0.446484,-3.175 c 3e-6,-1.76851 1.411367,-3.20187 3.152262,-3.20187 1.740895,0 3.15226,1.43336 3.152263,3.20187 l 0.446484,3.175 1.291048,6.175099 25.58018,0.0832 V 54.718393 H 385.39597 l -0.13376,-11.982452 39.53333,-2e-6 0.0161,-77.430173 h -12.67829 l -0.29973,-0.0574 c -1.62687,0 -2.94555,-1.31869 -2.94555,-2.94556 0,-1.62687 1.31868,-2.94607 2.94555,-2.94607 l 0.29973,-0.0568 h 12.67829 l -0.0356,-7.16288 h -39.34437 v -16.37471 h -0.0357 -314.125012 -0.03566 v 16.37471 H 31.890933 Z M 186.06034,-47.033024 c 3.38953,-3.38952 13.74328,4.23334 13.74328,4.23334 h 9.50995 9.50995 9.50995 9.50994 9.50995 9.50995 c 0,0 10.35376,-7.62286 13.74328,-4.23334 3.38953,3.38953 -4.23333,13.74335 -4.23333,13.74335 v 9.510017 9.51001 9.5100105 9.5100195 9.51001 9.51002 c 0,0 7.62286,10.35382 4.23333,13.74334 -3.38952,3.38953 -13.74328,-4.23333 -13.74328,-4.23333 h -9.50995 -9.50995 -9.50994 -9.50995 -9.50995 -9.50995 c 0,0 -10.35376,7.62286 -13.74328,4.23333 -3.38953,-3.38952 4.23333,-13.74334 4.23333,-13.74334 v -9.51002 -9.51001 -9.5100195 -9.5100105 -9.51001 -9.510017 c 0,0 -7.62286,-10.35382 -4.23333,-13.74335 z m -145.259357,6.39032 c 1.626748,8e-5 2.945468,1.3188 2.945557,2.94555 -8.4e-5,1.62675 -1.318805,2.94548 -2.945557,2.94556 -1.626953,2e-4 -2.945989,-1.31861 -2.946073,-2.94556 8.9e-5,-1.62695 1.319124,-2.94575 2.946073,-2.94555 z m 370.070947,12.995587 h 9.92291 v 5.89421 h -9.92291 z m -373.973551,0.0305 h 7.919413 v 5.91954 h -7.919413 z m -2.043286,11.91349 h 12.005986 v 6.0058305 H 34.855093 Z m 374.975557,0 h 12.00547 v 6.0058305 H 409.83065 Z M 34.855093,-3.7028265 H 46.861079 V 2.303013 H 34.855093 Z m 374.975557,0 h 12.00547 V 2.303013 h -12.00547 z"
       sodipodi:nodetypes="ccccscccccccccccsccccccccccccscccccccscccccccscccccccscccccccsccccccccccccccccccccccccccccccccccc" />
    <path
       id="path21"
       style="display:inline;fill:none;stroke:#000000;stroke-width:0.0987851;stroke-dasharray:none"
       d="m 50.934907,115.80105 h -3.8433 -3.8268 -3.91533 -3.80732 l 0.008,1.85016 v 71.25107 h 3.84331 3.8273 3.91482 3.80732 l -0.008,-1.85016 z"
       sodipodi:nodetypes="ccccccccccccc" />
    <path
       id="path6"
       style="display:inline;fill:none;stroke:#000000;stroke-width:0.0987851;stroke-dasharray:none"
       d="m 85.093099,116.3023 h -3.8433 -3.8268 -3.91533 -3.80732 l 0.008,1.85016 v 71.25107 h 3.84331 3.8273 3.91482 3.80732 l -0.008,-1.85016 z"
       sodipodi:nodetypes="ccccccccccccc" />
    <path
       id="path9"
       style="display:inline;fill:none;stroke:#000000;stroke-width:0.122353"
       d="M 120.69627 67.529623 C 117.13583 67.529623 113.92234 68.962266 111.59915 71.285466 C 109.27595 73.608666 107.84279 76.822663 107.84279 80.383102 L 107.84279 143.92599 L 107.84279 207.46888 C 107.84279 211.02932 109.27601 214.24246 111.59915 216.566 C 113.92225 218.88935 117.13531 220.3234 120.69576 220.3234 L 184.23916 220.3234 L 247.78206 220.3234 C 251.34248 220.3234 254.55565 218.88935 256.87918 216.566 C 259.20256 214.24246 260.63605 211.02932 260.63605 207.46888 L 260.63605 143.92599 L 260.63605 80.383102 C 260.63605 76.822666 259.20249 73.608664 256.87918 71.285466 C 254.55573 68.962268 251.34251 67.529623 247.78206 67.529623 L 184.23916 67.529623 L 120.69627 67.529623 z M 184.23916 78.529468 A 4.0172491 4.0172491 0 0 1 188.25649 82.546794 A 4.0172491 4.0172491 0 0 1 184.23916 86.56412 A 4.0172491 4.0172491 0 0 1 180.22184 82.546794 A 4.0172491 4.0172491 0 0 1 184.23916 78.529468 z M 238.78209 85.261357 A 4.0172491 4.0172491 0 0 1 242.79941 89.278683 A 4.0172491 4.0172491 0 0 1 238.78209 93.296009 A 4.0172491 4.0172491 0 0 1 234.76476 89.278683 A 4.0172491 4.0172491 0 0 1 238.78209 85.261357 z M 129.59185 85.366777 A 4.0172491 4.0172491 0 0 1 133.60918 89.384103 A 4.0172491 4.0172491 0 0 1 129.59185 93.401429 A 4.0172491 4.0172491 0 0 1 125.57453 89.384103 A 4.0172491 4.0172491 0 0 1 129.59185 85.366777 z M 143.16209 90.606767 L 184.2402 90.606767 L 225.31728 90.606767 L 237.55891 102.84891 L 237.55891 143.92599 L 237.55891 185.00411 L 225.31728 197.24522 L 184.2402 197.24522 L 143.16209 197.24522 L 130.92097 185.00411 L 130.92097 143.92599 L 130.92097 102.84891 L 143.16209 90.606767 z M 122.85997 139.90867 A 4.0172491 4.0172491 0 0 1 126.87729 143.92599 A 4.0172491 4.0172491 0 0 1 122.85997 147.94332 A 4.0172491 4.0172491 0 0 1 118.84264 143.92599 A 4.0172491 4.0172491 0 0 1 122.85997 139.90867 z M 248.6187 139.90867 A 4.0172491 4.0172491 0 0 1 252.63602 143.92599 A 4.0172491 4.0172491 0 0 1 248.6187 147.94332 A 4.0172491 4.0172491 0 0 1 244.60137 143.92599 A 4.0172491 4.0172491 0 0 1 248.6187 139.90867 z M 238.88699 194.45159 A 4.0172491 4.0172491 0 0 1 242.90432 198.46892 A 4.0172491 4.0172491 0 0 1 238.88699 202.48624 A 4.0172491 4.0172491 0 0 1 234.86967 198.46892 A 4.0172491 4.0172491 0 0 1 238.88699 194.45159 z M 129.69727 194.55701 A 4.0172491 4.0172491 0 0 1 133.71408 198.57434 A 4.0172491 4.0172491 0 0 1 129.69727 202.59115 A 4.0172491 4.0172491 0 0 1 125.67995 198.57434 A 4.0172491 4.0172491 0 0 1 129.69727 194.55701 z M 184.23916 201.2889 A 4.0172491 4.0172491 0 0 1 188.25649 205.30623 A 4.0172491 4.0172491 0 0 1 184.23916 209.32355 A 4.0172491 4.0172491 0 0 1 180.22184 205.30623 A 4.0172491 4.0172491 0 0 1 184.23916 201.2889 z " />
    <path
       id="path8"
       style="display:inline;fill:none;stroke:#000000;stroke-width:0.120405"
       d="m 325.00164,70.456578 -26.56531,4.23333 c -4.22761,0.67369 -8.14376,1.72332 -10.9368,4.51652 -2.79303,2.79338 -4.51703,6.65739 -4.51703,10.93835 l -4.23334,26.565272 v 53.12906 l 4.23334,26.56479 c 0.67371,4.22761 1.72399,8.14427 4.51703,10.93731 2.79304,2.79301 6.65585,4.51652 10.9368,4.51652 l 26.56531,4.23334 h 53.12906 l 26.5653,-4.23334 c 4.2276,-0.67369 8.14497,-1.72351 10.93835,-4.51652 2.79312,-1.71382 4.51497,-6.65636 4.51497,-10.93731 l 4.23334,-26.56479 v -53.12906 l -4.23334,-26.565272 c -0.67369,-4.22762 -1.72178,-8.14497 -4.51497,-10.93835 -2.79339,-2.7932 -6.65741,-4.51652 -10.93835,-4.51652 l -26.5653,-4.23333 z m 25.0641,7.42021 a 4.0172491,4.0172491 0 0 1 4.01733,4.01733 4.0172491,4.0172491 0 0 1 -4.01733,4.01733 4.0172491,4.0172491 0 0 1 -4.01732,-4.01733 4.0172491,4.0172491 0 0 1 4.01732,-4.01733 z m 54.54293,6.73189 a 4.0172491,4.0172491 0 0 1 4.01681,4.01733 4.0172491,4.0172491 0 0 1 -4.01681,4.01732 4.0172491,4.0172491 0 0 1 -4.01733,-4.01732 4.0172491,4.0172491 0 0 1 4.01733,-4.01733 z m -109.19024,0.10542 a 4.0172491,4.0172491 0 0 1 4.01733,4.01733 4.0172491,4.0172491 0 0 1 -4.01733,4.01732 4.0172491,4.0172491 0 0 1 -4.01732,-4.01732 4.0172491,4.0172491 0 0 1 4.01732,-4.01733 z m 17.34778,19.759492 h 77.60095 v 77.60095 h -77.60095 z m -24.07967,34.78237 a 4.0172491,4.0172491 0 0 1 4.01733,4.01733 4.0172491,4.0172491 0 0 1 -4.01733,4.01733 4.0172491,4.0172491 0 0 1 -4.01732,-4.01733 4.0172491,4.0172491 0 0 1 4.01732,-4.01733 z m 125.75874,0 a 4.0172491,4.0172491 0 0 1 4.01732,4.01733 4.0172491,4.0172491 0 0 1 -4.01732,4.01733 4.0172491,4.0172491 0 0 1 -4.01733,-4.01733 4.0172491,4.0172491 0 0 1 4.01733,-4.01733 z m -9.73171,54.54293 a 4.0172491,4.0172491 0 0 1 4.01733,4.01732 4.0172491,4.0172491 0 0 1 -4.01733,4.01733 4.0172491,4.0172491 0 0 1 -4.01732,-4.01733 4.0172491,4.0172491 0 0 1 4.01732,-4.01732 z m -109.18972,0.10542 a 4.0172491,4.0172491 0 0 1 4.01681,4.01681 4.0172491,4.0172491 0 0 1 -4.01681,4.01732 4.0172491,4.0172491 0 0 1 -4.01732,-4.01732 4.0172491,4.0172491 0 0 1 4.01732,-4.01681 z m 54.54189,6.73189 a 4.0172491,4.0172491 0 0 1 4.01733,4.01732 4.0172491,4.0172491 0 0 1 -4.01733,4.01681 4.0172491,4.0172491 0 0 1 -4.01732,-4.01681 4.0172491,4.0172491 0 0 1 4.01732,-4.01732 z" />
    <path
       id="path4"
       style="display:inline;fill:none;stroke:#000000;stroke-width:0.0987851;stroke-dasharray:none"
       d="m 50.910541,281.98176 h -3.8433 -3.8268 -3.91533 -3.80732 l 0.008,1.85016 v 71.25107 h 3.84331 3.8273 3.91482 3.80732 l -0.008,-1.85016 z"
       sodipodi:nodetypes="ccccccccccccc" />
    <path
       id="path5"
       style="display:inline;fill:none;stroke:#000000;stroke-width:0.0987851;stroke-dasharray:none"
       d="m 85.507772,282.60692 h -3.8433 -3.8268 -3.91533 -3.80732 l 0.008,1.85016 v 71.25107 h 3.84331 3.8273 3.91482 3.80732 l -0.008,-1.85016 z"
       sodipodi:nodetypes="ccccccccccccc" />
    <path
       id="path68"
       style="display:inline;fill:none;stroke:#000000;stroke-width:0.122353"
       d="m 120.16701,243.61552 c -3.56044,0 -6.77393,1.43264 -9.09712,3.75584 -2.3232,2.3232 -3.75636,5.5372 -3.75636,9.09764 v 63.54289 63.54289 c 0,3.56044 1.43322,6.77358 3.75636,9.09712 2.3231,2.32335 5.53616,3.7574 9.09661,3.7574 h 63.5434 63.5429 c 3.56042,0 6.77359,-1.43405 9.09712,-3.7574 2.32338,-2.32354 3.75687,-5.53668 3.75687,-9.09712 V 320.01189 256.469 c 0,-3.56044 -1.43356,-6.77444 -3.75687,-9.09764 -2.32345,-2.3232 -5.53667,-3.75584 -9.09712,-3.75584 h -63.5429 z m 63.54289,10.99984 a 4.0172491,4.0172491 0 0 1 4.01733,4.01733 4.0172491,4.0172491 0 0 1 -4.01733,4.01733 4.0172491,4.0172491 0 0 1 -4.01732,-4.01733 4.0172491,4.0172491 0 0 1 4.01732,-4.01733 z m 54.54293,6.73189 a 4.0172491,4.0172491 0 0 1 4.01732,4.01733 4.0172491,4.0172491 0 0 1 -4.01732,4.01733 4.0172491,4.0172491 0 0 1 -4.01733,-4.01733 4.0172491,4.0172491 0 0 1 4.01733,-4.01733 z m -109.19024,0.10542 a 4.0172491,4.0172491 0 0 1 4.01733,4.01733 4.0172491,4.0172491 0 0 1 -4.01733,4.01733 4.0172491,4.0172491 0 0 1 -4.01732,-4.01733 4.0172491,4.0172491 0 0 1 4.01732,-4.01733 z m 13.57024,5.23999 h 41.07811 41.07708 l 12.24163,12.24215 v 41.07708 41.07812 l -12.24163,12.24111 h -41.07708 -41.07811 l -12.24112,-12.24111 v -41.07812 -41.07708 z m -20.30212,49.30191 a 4.0172491,4.0172491 0 0 1 4.01732,4.01732 4.0172491,4.0172491 0 0 1 -4.01732,4.01733 4.0172491,4.0172491 0 0 1 -4.01733,-4.01733 4.0172491,4.0172491 0 0 1 4.01733,-4.01732 z m 125.75873,0 a 4.0172491,4.0172491 0 0 1 4.01732,4.01732 4.0172491,4.0172491 0 0 1 -4.01732,4.01733 4.0172491,4.0172491 0 0 1 -4.01733,-4.01733 4.0172491,4.0172491 0 0 1 4.01733,-4.01732 z m -9.73171,54.54292 a 4.0172491,4.0172491 0 0 1 4.01733,4.01733 4.0172491,4.0172491 0 0 1 -4.01733,4.01732 4.0172491,4.0172491 0 0 1 -4.01732,-4.01732 4.0172491,4.0172491 0 0 1 4.01732,-4.01733 z m -109.18972,0.10542 a 4.0172491,4.0172491 0 0 1 4.01681,4.01733 4.0172491,4.0172491 0 0 1 -4.01681,4.01681 4.0172491,4.0172491 0 0 1 -4.01732,-4.01681 4.0172491,4.0172491 0 0 1 4.01732,-4.01733 z m 54.54189,6.73189 a 4.0172491,4.0172491 0 0 1 4.01733,4.01733 4.0172491,4.0172491 0 0 1 -4.01733,4.01732 4.0172491,4.0172491 0 0 1 -4.01732,-4.01732 4.0172491,4.0172491 0 0 1 4.01732,-4.01733 z" />
    <path
       id="path67"
       style="display:inline;fill:none;stroke:#000000;stroke-width:0.120405"
       d="m 325.42069,247.19514 -26.5653,4.23333 c -4.22761,0.67369 -8.14376,1.72332 -10.9368,4.51652 -2.79303,2.79338 -4.51704,6.65739 -4.51704,10.93835 l -4.23333,26.5653 v 53.12906 l 4.23333,26.56479 c 0.67371,4.22761 1.724,8.14427 4.51704,10.93731 2.79304,2.79301 6.65585,4.51652 10.9368,4.51652 l 26.5653,4.23334 h 53.12906 l 26.5653,-4.23334 c 4.2276,-0.67369 8.14497,-1.72351 10.93835,-4.51652 2.79312,-1.71382 4.51497,-6.65636 4.51497,-10.93731 l 4.23334,-26.56479 v -53.12906 l -4.23334,-26.5653 c -0.67369,-4.22762 -1.72178,-8.14497 -4.51497,-10.93835 -2.79339,-2.7932 -6.65741,-4.51652 -10.93835,-4.51652 l -26.5653,-4.23333 z m 25.0641,7.42021 a 4.0172491,4.0172491 0 0 1 4.01733,4.01733 4.0172491,4.0172491 0 0 1 -4.01733,4.01733 4.0172491,4.0172491 0 0 1 -4.01732,-4.01733 4.0172491,4.0172491 0 0 1 4.01732,-4.01733 z m 54.54293,6.73189 a 4.0172491,4.0172491 0 0 1 4.01681,4.01733 4.0172491,4.0172491 0 0 1 -4.01681,4.01732 4.0172491,4.0172491 0 0 1 -4.01733,-4.01732 4.0172491,4.0172491 0 0 1 4.01733,-4.01733 z m -109.19024,0.10542 a 4.0172491,4.0172491 0 0 1 4.01733,4.01733 4.0172491,4.0172491 0 0 1 -4.01733,4.01732 4.0172491,4.0172491 0 0 1 -4.01732,-4.01732 4.0172491,4.0172491 0 0 1 4.01732,-4.01733 z m 17.34778,19.75952 h 77.60095 v 77.60095 h -77.60095 z m -24.07967,34.78237 a 4.0172491,4.0172491 0 0 1 4.01733,4.01733 4.0172491,4.0172491 0 0 1 -4.01733,4.01733 4.0172491,4.0172491 0 0 1 -4.01732,-4.01733 4.0172491,4.0172491 0 0 1 4.01732,-4.01733 z m 125.75874,0 a 4.0172491,4.0172491 0 0 1 4.01732,4.01733 4.0172491,4.0172491 0 0 1 -4.01732,4.01733 4.0172491,4.0172491 0 0 1 -4.01733,-4.01733 4.0172491,4.0172491 0 0 1 4.01733,-4.01733 z m -9.73171,54.54293 a 4.0172491,4.0172491 0 0 1 4.01733,4.01732 4.0172491,4.0172491 0 0 1 -4.01733,4.01733 4.0172491,4.0172491 0 0 1 -4.01732,-4.01733 4.0172491,4.0172491 0 0 1 4.01732,-4.01732 z M 295.9429,370.6429 a 4.0172491,4.0172491 0 0 1 4.01681,4.01681 4.0172491,4.0172491 0 0 1 -4.01681,4.01732 4.0172491,4.0172491 0 0 1 -4.01732,-4.01732 4.0172491,4.0172491 0 0 1 4.01732,-4.01681 z m 54.54189,6.73189 a 4.0172491,4.0172491 0 0 1 4.01733,4.01732 4.0172491,4.0172491 0 0 1 -4.01733,4.01681 4.0172491,4.0172491 0 0 1 -4.01732,-4.01681 4.0172491,4.0172491 0 0 1 4.01732,-4.01732 z" />
    <g
       id="g17"
       style="display:none">
      <circle
         style="display:inline;fill:none;stroke:#000000;stroke-width:0.0655021;stroke-dasharray:none"
         id="path2"
         cx="184.23904"
         cy="82.546822"
         r="4.0172491" />
      <circle
         style="display:inline;fill:none;stroke:#000000;stroke-width:0.0655021;stroke-dasharray:none"
         id="circle19"
         cx="238.78192"
         cy="89.278793"
         r="4.0172491" />
      <circle
         style="display:inline;fill:none;stroke:#000000;stroke-width:0.0655021;stroke-dasharray:none"
         id="circle2"
         cx="248.61868"
         cy="143.92593"
         r="4.0172491" />
      <circle
         style="display:inline;fill:none;stroke:#000000;stroke-width:0.0655021;stroke-dasharray:none"
         id="circle24"
         cx="198.46887"
         cy="-238.88716"
         r="4.0172491"
         transform="rotate(90)" />
      <circle
         style="display:inline;fill:none;stroke:#000000;stroke-width:0.0655021;stroke-dasharray:none"
         id="circle17"
         cx="122.85992"
         cy="143.92593"
         r="4.0172491" />
      <circle
         style="display:inline;fill:none;stroke:#000000;stroke-width:0.0655021;stroke-dasharray:none"
         id="circle27"
         cx="-129.69707"
         cy="-198.57411"
         r="4.0172491"
         transform="scale(-1)" />
      <circle
         style="display:inline;fill:none;stroke:#000000;stroke-width:0.0655021;stroke-dasharray:none"
         id="circle18"
         cx="184.23904"
         cy="205.30609"
         r="4.0172491" />
      <circle
         style="display:inline;fill:none;stroke:#000000;stroke-width:0.0655021;stroke-dasharray:none"
         id="circle31"
         cx="-89.384033"
         cy="129.59186"
         r="4.0172491"
         transform="rotate(-90)" />
    </g>
  </g>
  <metadata
     id="metadata8">
    <rdf:RDF>
      <cc:Work
         rdf:about="">
        <cc:license
           rdf:resource="https://ohwr.org/cern_ohl_s_v2.txt" />
      </cc:Work>
    </rdf:RDF>
  </metadata>
</svg>
