<?xml version="1.0" encoding="UTF-8" standalone="no"?>
<!-- Created with Inkscape (http://www.inkscape.org/) -->

<svg
   width="399.97891mm"
   height="504.14825mm"
   viewBox="0 0 399.97891 504.14822"
   version="1.1"
   id="svg1"
   inkscape:version="1.4.2 (ebf0e940d0, 2025-05-08)"
   sodipodi:docname="alucobond-steel.svg"
   xmlns:inkscape="http://www.inkscape.org/namespaces/inkscape"
   xmlns:sodipodi="http://sodipodi.sourceforge.net/DTD/sodipodi-0.dtd"
   xmlns="http://www.w3.org/2000/svg"
   xmlns:svg="http://www.w3.org/2000/svg"
   xmlns:rdf="http://www.w3.org/1999/02/22-rdf-syntax-ns#"
   xmlns:cc="http://creativecommons.org/ns#">
  <sodipodi:namedview
     id="namedview1"
     pagecolor="#ffffff"
     bordercolor="#000000"
     borderopacity="0.25"
     inkscape:showpageshadow="2"
     inkscape:pageopacity="0.0"
     inkscape:pagecheckerboard="0"
     inkscape:deskcolor="#d1d1d1"
     inkscape:document-units="mm"
     inkscape:zoom="0.23379207"
     inkscape:cx="754.94436"
     inkscape:cy="1317.41"
     inkscape:window-width="1596"
     inkscape:window-height="841"
     inkscape:window-x="0"
     inkscape:window-y="0"
     inkscape:window-maximized="0"
     inkscape:current-layer="layer1"
     showgrid="false" />
  <defs
     id="defs1">
    <rect
       x="386.62573"
       y="512.69934"
       width="1924.7238"
       height="617.76068"
       id="rect1" />
  </defs>
  <g
     inkscape:groupmode="layer"
     id="layer3"
     inkscape:label="Layer 2"
     transform="translate(-257.46346,145.31511)">
    <text
       xml:space="preserve"
       transform="matrix(0.26458333,0,0,0.26458333,155.27793,199.60011)"
       id="text1"
       style="font-style:normal;font-variant:normal;font-weight:normal;font-stretch:normal;font-size:37.3333px;font-family:'Open Sans';-inkscape-font-specification:'Open Sans';text-align:start;writing-mode:lr-tb;direction:ltr;white-space:pre;shape-inside:url(#rect1);display:inline;fill:#000000;fill-opacity:1;stroke:#000000;stroke-width:0.823937;stroke-opacity:1"><tspan
         x="386.625"
         y="545.77836"
         id="tspan2"><tspan
           dx="0 0 0 0 0 0 0 0 0 0 0 0 0 0 0 0 0 0 0 0 0 0 0 0 0 0 0 0 0 0 0 0 0 0 0 0 0 0 0 0 0 0 0 0 0 0 0 0 0 0 0 0 0 0 0 0 0 0 0 0 0 0 0 0 0 0 0 0 0 -0.00010299683 0 0 0 0 0 0 0 0 0 0 -0.00010299683"
           id="tspan1">The design is avialiable under the CERN Open Hardware License - Strongly Reciprocal
</tspan></tspan><tspan
         x="386.625"
         y="592.44498"
         id="tspan4"><tspan
           dx="0 0 0 0 0 0 0 0 0 0 0 0 0 0 0 0 0 0 0 0 0 0 0 0 0 0 0 0 0 0 0 0 0 0 0 0 0 0 0 0 0 0 0 0 0 0 0 0 0 0 0 0 0 0 0 0 0 0 0 0 0 0 0 0 0 -0.00010299683"
           id="tspan3">A copy of this license can be obtained from https://ohwr.org/cern_ohl_s_v2.txt</tspan></tspan></text>
  </g>
  <g
     inkscape:label="Layer 1"
     inkscape:groupmode="layer"
     id="layer1"
     transform="translate(-24.883,64.287654)">
    <path
       id="circle1"
       style="fill:none;stroke:#000000;stroke-width:0.419725"
       d="m 224.07239,-84.959777 c -21.18606,-1.05e-4 -141.742037,8.170932 -157.055011,22.812044 v 0 h -0.03566 v 16.374711 H 27.637354 l -0.05116,90.470964 4.309298,0.01395 1.053166,-6.144327 0.446484,-3.175 c 3e-6,-1.76851 1.411367,-3.201872 3.152262,-3.201872 1.740895,0 3.15226,1.433362 3.152263,3.201872 l 0.446484,3.175 1.290877,6.175333 25.580351,0.0832 v 11.982215 0 c 15.312974,14.641112 135.868951,22.812149 157.055011,22.812044 21.18589,-2.6e-5 141.75715,-8.171054 157.07,-22.812044 v 0 l -0.13384,-11.982215 h 39.5335 l 0.016,-77.430416 h -12.67829 l -0.29973,-0.05736 c -1.62687,0 -2.94555,-1.318687 -2.94555,-2.945557 0,-1.62687 1.31868,-2.946073 2.94555,-2.946073 l 0.29973,-0.05685 h 12.67829 l -0.0356,-7.16287 h -39.34437 v -16.374711 h -0.0357 0.0357 C 365.8652,-76.788723 245.25828,-84.959751 224.07239,-84.959777 Z m 0,19.94917 c 34.4299,6.4e-5 62.34083,27.910996 62.3409,62.3408973 2.2e-4,34.4301027 -27.9108,62.3413507 -62.3409,62.3414147 -34.4303,2.18e-4 -62.34163,-27.911112 -62.34141,-62.3414147 7e-5,-34.4301003 27.91131,-62.3411153 62.34141,-62.3408973 z M 36.547404,-38.552791 c 1.626748,8e-5 2.945468,1.318807 2.945557,2.945557 -8.4e-5,1.62675 -1.318805,2.945477 -2.945557,2.945557 -1.626953,2e-4 -2.945989,-1.318607 -2.946073,-2.945557 8.9e-5,-1.62695 1.319124,-2.945757 2.946073,-2.945557 z m 370.070956,12.995589 h 9.9229 v 5.894214 h -9.9229 z m -373.97356,0.03049 h 7.919413 v 5.919535 H 32.6448 Z m -2.043286,11.913484 H 42.6075 v 6.0058352 H 30.601514 Z m 374.975566,0 h 12.00546 v 6.0058352 H 405.57708 Z M 30.601514,-1.6129266 H 42.6075 V 4.3929083 H 30.601514 Z m 374.975566,0 h 12.00546 v 6.0058349 h -12.00546 z"
       sodipodi:nodetypes="ccccccccccsccccccccccccccsccccccccccccccccccccccccccccccccccccccccccccccccc" />
    <g
       id="g17"
       style="display:none"
       transform="matrix(0.99382712,0,0,0.99382712,0.79995474,0.55175674)">
      <circle
         style="display:inline;fill:none;stroke:#000000;stroke-width:0.0655021;stroke-dasharray:none"
         id="circle31"
         cx="-89.384033"
         cy="129.59186"
         r="4.0172491"
         transform="rotate(-90)" />
    </g>
    <circle
       style="display:inline;fill:none;stroke:#000000;stroke-width:0.317973;stroke-opacity:1"
       id="circle3"
       cx="224.07222"
       cy="-2.6695387"
       r="62.341015" />
    <path
       id="rect3"
       style="fill:none;stroke:#000000;stroke-width:0.128452"
       d="m 273.39045,101.22576 c -17.37405,0 -31.36139,13.98734 -31.36139,31.36139 v 110.39946 c 0,17.37405 13.98734,31.36088 31.36139,31.36088 h 110.39946 c 17.37406,0 31.36088,-13.98683 31.36088,-31.36088 V 132.58715 c 0,-17.37405 -13.98682,-31.36139 -31.36088,-31.36139 z m 55.19921,3.02359 a 3.9924512,3.9924512 0 0 1 3.99252,3.99252 3.9924512,3.9924512 0 0 1 -3.99252,3.99252 3.9924512,3.9924512 0 0 1 -3.99252,-3.99252 3.9924512,3.9924512 0 0 1 3.99252,-3.99252 z m 29.76304,5.79241 a 3.9924512,3.9924512 0 0 1 1.53066,0.29042 3.9924512,3.9924512 0 0 1 2.20607,5.19761 3.9924512,3.9924512 0 0 1 -5.1971,2.20607 3.9924512,3.9924512 0 0 1 -2.20659,-5.1971 3.9924512,3.9924512 0 0 1 3.66696,-2.497 z m -62.221,1.08624 a 3.9924512,3.9924512 0 0 1 3.75171,2.36729 3.9924512,3.9924512 0 0 1 -2.02365,5.271 3.9924512,3.9924512 0 0 1 -5.271,-2.02365 3.9924512,3.9924512 0 0 1 2.02365,-5.271 3.9924512,3.9924512 0 0 1 1.51929,-0.34364 z m 32.45796,14.31747 a 62.341015,62.341015 0 0 1 62.3409,62.3409 62.341015,62.341015 0 0 1 -62.3409,62.34089 62.341015,62.341015 0 0 1 -62.34089,-62.34089 62.341015,62.341015 0 0 1 62.34089,-62.3409 z m 55.18682,1.12964 a 3.9924512,3.9924512 0 0 1 2.84272,1.11983 3.9924512,3.9924512 0 0 1 0.0987,5.64565 3.9924512,3.9924512 0 0 1 -5.64514,0.0982 3.9924512,3.9924512 0 0 1 -0.0987,-5.64514 3.9924512,3.9924512 0 0 1 2.80242,-1.21853 z m -112.47583,1.96319 a 3.9924512,3.9924512 0 0 1 2.84324,1.11983 3.9924512,3.9924512 0 0 1 0.0982,5.64565 3.9924512,3.9924512 0 0 1 -5.64514,0.0982 3.9924512,3.9924512 0 0 1 -0.0987,-5.64514 3.9924512,3.9924512 0 0 1 2.80241,-1.21853 z m 129.85203,22.90351 a 3.9924512,3.9924512 0 0 1 3.7517,2.3673 3.9924512,3.9924512 0 0 1 -2.02313,5.271 3.9924512,3.9924512 0 0 1 -5.27099,-2.02365 3.9924512,3.9924512 0 0 1 2.02313,-5.271 3.9924512,3.9924512 0 0 1 1.51929,-0.34365 z m -146.35024,2.55437 a 3.9924512,3.9924512 0 0 1 1.53065,0.29042 3.9924512,3.9924512 0 0 1 2.20607,5.19762 3.9924512,3.9924512 0 0 1 -5.1971,2.20606 3.9924512,3.9924512 0 0 1 -2.20658,-5.19709 3.9924512,3.9924512 0 0 1 3.66696,-2.49701 z m -5.75728,29.79766 a 3.9924512,3.9924512 0 0 1 3.99253,3.99253 3.9924512,3.9924512 0 0 1 -3.99253,3.99252 3.9924512,3.9924512 0 0 1 -3.99252,-3.99252 3.9924512,3.9924512 0 0 1 3.99252,-3.99253 z m 159.089,0 a 3.9924512,3.9924512 0 0 1 3.99252,3.99253 3.9924512,3.9924512 0 0 1 -3.99252,3.99252 3.9924512,3.9924512 0 0 1 -3.99252,-3.99252 3.9924512,3.9924512 0 0 1 3.99252,-3.99253 z m -5.82703,29.79819 a 3.9924512,3.9924512 0 0 1 1.53065,0.29042 3.9924512,3.9924512 0 0 1 2.20607,5.19761 3.9924512,3.9924512 0 0 1 -5.1971,2.20607 3.9924512,3.9924512 0 0 1 -2.20658,-5.1971 3.9924512,3.9924512 0 0 1 3.66696,-2.497 z m -146.48925,2.55695 a 3.9924512,3.9924512 0 0 1 3.75171,2.36729 3.9924512,3.9924512 0 0 1 -2.02365,5.271 3.9924512,3.9924512 0 0 1 -5.271,-2.02313 3.9924512,3.9924512 0 0 1 2.02365,-5.27152 3.9924512,3.9924512 0 0 1 1.51929,-0.34364 z m 129.92178,22.90196 a 3.9924512,3.9924512 0 0 1 2.84324,1.11982 3.9924512,3.9924512 0 0 1 0.0982,5.64514 3.9924512,3.9924512 0 0 1 -5.64514,0.0987 3.9924512,3.9924512 0 0 1 -0.0987,-5.64513 3.9924512,3.9924512 0 0 1 2.80241,-1.21853 z m -112.47582,1.96318 a 3.9924512,3.9924512 0 0 1 2.84324,1.11983 3.9924512,3.9924512 0 0 1 0.0982,5.64565 3.9924512,3.9924512 0 0 1 -5.64513,0.0982 3.9924512,3.9924512 0 0 1 -0.0987,-5.64514 3.9924512,3.9924512 0 0 1 2.80241,-1.21853 z m 87.57502,15.44867 a 3.9924512,3.9924512 0 0 1 3.75171,2.3673 3.9924512,3.9924512 0 0 1 -2.02314,5.271 3.9924512,3.9924512 0 0 1 -5.27151,-2.02314 3.9924512,3.9924512 0 0 1 2.02365,-5.27151 3.9924512,3.9924512 0 0 1 1.51929,-0.34365 z m -62.082,1.08366 a 3.9924512,3.9924512 0 0 1 1.53065,0.29042 3.9924512,3.9924512 0 0 1 2.20607,5.19762 3.9924512,3.9924512 0 0 1 -5.1971,2.20606 3.9924512,3.9924512 0 0 1 -2.20658,-5.1971 3.9924512,3.9924512 0 0 1 3.66696,-2.497 z m 29.8328,5.79189 a 3.9924512,3.9924512 0 0 1 3.99252,3.99252 3.9924512,3.9924512 0 0 1 -3.99252,3.99253 3.9924512,3.9924512 0 0 1 -3.99252,-3.99253 3.9924512,3.9924512 0 0 1 3.99252,-3.99252 z" />
    <path
       id="path4"
       style="fill:none;stroke:#000000;stroke-width:0.141296"
       d="m 72.606796,92.569438 c -19.111352,0 -34.497435,15.386172 -34.497435,34.497632 v 121.4391 c 0,19.11145 15.386083,34.49712 34.497435,34.49712 H 194.04574 c 19.11146,0 34.49712,-15.38567 34.49712,-34.49712 v -121.4391 c 0,-19.11146 -15.38566,-34.497632 -34.49712,-34.497632 z m 60.719134,11.679912 a 3.9924512,3.9924512 0 0 1 3.99252,3.99252 3.9924512,3.9924512 0 0 1 -3.99252,3.99252 3.9924512,3.9924512 0 0 1 -3.99252,-3.99252 3.9924512,3.9924512 0 0 1 3.99252,-3.99252 z m 29.76304,5.79241 a 3.9924512,3.9924512 0 0 1 1.53066,0.29042 3.9924512,3.9924512 0 0 1 2.20607,5.19761 3.9924512,3.9924512 0 0 1 -5.1971,2.20607 3.9924512,3.9924512 0 0 1 -2.20659,-5.1971 3.9924512,3.9924512 0 0 1 3.66696,-2.497 z m -62.221,1.08624 a 3.9924512,3.9924512 0 0 1 3.75171,2.36729 3.9924512,3.9924512 0 0 1 -2.02365,5.271 3.9924512,3.9924512 0 0 1 -5.270982,-2.02365 3.9924512,3.9924512 0 0 1 2.023638,-5.271 3.9924512,3.9924512 0 0 1 1.519284,-0.34364 z m 32.45796,4.65449 a 72.003873,72.003873 0 0 1 72.00388,72.00388 72.003873,72.003873 0 0 1 -72.00388,72.00387 72.003873,72.003873 0 0 1 -72.003648,-72.00387 72.003873,72.003873 0 0 1 72.003648,-72.00388 z m 55.18682,10.79262 a 3.9924512,3.9924512 0 0 1 2.84272,1.11983 3.9924512,3.9924512 0 0 1 0.0987,5.64565 3.9924512,3.9924512 0 0 1 -5.64514,0.0982 3.9924512,3.9924512 0 0 1 -0.0987,-5.64514 3.9924512,3.9924512 0 0 1 2.80242,-1.21853 z M 76.037058,128.5383 a 3.9924512,3.9924512 0 0 1 2.843222,1.11983 3.9924512,3.9924512 0 0 1 0.0982,5.64565 3.9924512,3.9924512 0 0 1 -5.645107,0.0982 3.9924512,3.9924512 0 0 1 -0.0987,-5.64514 3.9924512,3.9924512 0 0 1 2.802395,-1.21853 z m 129.851892,22.90351 a 3.9924512,3.9924512 0 0 1 3.7517,2.3673 3.9924512,3.9924512 0 0 1 -2.02313,5.271 3.9924512,3.9924512 0 0 1 -5.27099,-2.02365 3.9924512,3.9924512 0 0 1 2.02313,-5.271 3.9924512,3.9924512 0 0 1 1.51929,-0.34365 z m -146.350009,2.55437 a 3.9924512,3.9924512 0 0 1 1.530641,0.29042 3.9924512,3.9924512 0 0 1 2.206058,5.19762 3.9924512,3.9924512 0 0 1 -5.19707,2.20606 3.9924512,3.9924512 0 0 1 -2.206568,-5.19709 3.9924512,3.9924512 0 0 1 3.666939,-2.49701 z m -5.757247,29.79766 a 3.9924512,3.9924512 0 0 1 3.992506,3.99253 3.9924512,3.9924512 0 0 1 -3.992506,3.99252 3.9924512,3.9924512 0 0 1 -3.992499,-3.99252 3.9924512,3.9924512 0 0 1 3.992499,-3.99253 z m 159.088736,0 a 3.9924512,3.9924512 0 0 1 3.99252,3.99253 3.9924512,3.9924512 0 0 1 -3.99252,3.99252 3.9924512,3.9924512 0 0 1 -3.99252,-3.99252 3.9924512,3.9924512 0 0 1 3.99252,-3.99253 z m -5.82703,29.79819 a 3.9924512,3.9924512 0 0 1 1.53065,0.29042 3.9924512,3.9924512 0 0 1 2.20607,5.19761 3.9924512,3.9924512 0 0 1 -5.1971,2.20607 3.9924512,3.9924512 0 0 1 -2.20658,-5.1971 3.9924512,3.9924512 0 0 1 3.66696,-2.497 z m -146.489025,2.55695 a 3.9924512,3.9924512 0 0 1 3.751689,2.36729 3.9924512,3.9924512 0 0 1 -2.023638,5.271 3.9924512,3.9924512 0 0 1 -5.27097,-2.02313 3.9924512,3.9924512 0 0 1 2.023638,-5.27152 3.9924512,3.9924512 0 0 1 1.519281,-0.34364 z m 129.921555,22.90196 a 3.9924512,3.9924512 0 0 1 2.84324,1.11982 3.9924512,3.9924512 0 0 1 0.0982,5.64514 3.9924512,3.9924512 0 0 1 -5.64514,0.0987 3.9924512,3.9924512 0 0 1 -0.0987,-5.64513 3.9924512,3.9924512 0 0 1 2.80241,-1.21853 z m -112.475694,1.96318 a 3.9924512,3.9924512 0 0 1 2.843225,1.11983 3.9924512,3.9924512 0 0 1 0.0982,5.64565 3.9924512,3.9924512 0 0 1 -5.6451,0.0982 3.9924512,3.9924512 0 0 1 -0.0987,-5.64514 3.9924512,3.9924512 0 0 1 2.802395,-1.21853 z m 87.574894,15.44867 a 3.9924512,3.9924512 0 0 1 3.75171,2.3673 3.9924512,3.9924512 0 0 1 -2.02314,5.271 3.9924512,3.9924512 0 0 1 -5.27151,-2.02314 3.9924512,3.9924512 0 0 1 2.02365,-5.27151 3.9924512,3.9924512 0 0 1 1.51929,-0.34365 z m -62.082,1.08366 a 3.9924512,3.9924512 0 0 1 1.53065,0.29042 3.9924512,3.9924512 0 0 1 2.20607,5.19762 3.9924512,3.9924512 0 0 1 -5.1971,2.20606 3.9924512,3.9924512 0 0 1 -2.206577,-5.1971 3.9924512,3.9924512 0 0 1 3.666957,-2.497 z m 29.8328,5.79189 a 3.9924512,3.9924512 0 0 1 3.99252,3.99252 3.9924512,3.9924512 0 0 1 -3.99252,3.99253 3.9924512,3.9924512 0 0 1 -3.99252,-3.99253 3.9924512,3.9924512 0 0 1 3.99252,-3.99252 z" />
    <g
       id="g53">
      <path
         id="path54"
         style="display:none;fill:none;stroke:#000000;stroke-width:0.0650978"
         transform="rotate(-114)"
         d="m -179.4784,129.05157 a 3.9924512,3.9924512 0 0 1 -3.99246,3.99246 3.9924512,3.9924512 0 0 1 -3.99245,-3.99246 3.9924512,3.9924512 0 0 1 3.99245,-3.99245 3.9924512,3.9924512 0 0 1 3.99246,3.99245 z m -6.08285,-31.293499 a 3.9924512,3.9924512 0 0 1 -2.20613,5.197339 3.9924512,3.9924512 0 0 1 -5.19734,-2.20614 3.9924512,3.9924512 0 0 1 2.20614,-5.197337 3.9924512,3.9924512 0 0 1 5.19733,2.206138 z M -202.9239,71.021932 a 3.9924512,3.9924512 0 0 1 -0.0985,5.645318 3.9924512,3.9924512 0 0 1 -5.64532,-0.09854 3.9924512,3.9924512 0 0 1 0.0985,-5.645318 3.9924512,3.9924512 0 0 1 5.64532,0.09854 z m -26.11392,-18.285161 a 3.9924512,3.9924512 0 0 1 2.02341,5.27116 3.9924512,3.9924512 0 0 1 -5.27116,2.023409 3.9924512,3.9924512 0 0 1 -2.02341,-5.27116 3.9924512,3.9924512 0 0 1 5.27116,-2.023409 z m -33.97753,-7.222157 a 3.9924512,3.9924512 0 0 1 3.99245,3.992451 3.9924512,3.9924512 0 0 1 -3.99245,3.992451 3.9924512,3.9924512 0 0 1 -3.99245,-3.992451 3.9924512,3.9924512 0 0 1 3.99245,-3.992451 z m -31.29349,6.082836 a 3.9924512,3.9924512 0 0 1 5.19733,2.206138 3.9924512,3.9924512 0 0 1 -2.20613,5.197334 3.9924512,3.9924512 0 0 1 -5.19734,-2.206138 3.9924512,3.9924512 0 0 1 2.20614,-5.197334 z m -26.73615,17.362647 a 3.9924512,3.9924512 0 0 1 5.64531,0.09854 3.9924512,3.9924512 0 0 1 -0.0985,5.645324 3.9924512,3.9924512 0 0 1 -5.64532,-0.09855 3.9924512,3.9924512 0 0 1 0.0985,-5.645317 z m -18.28517,26.113923 a 3.9924512,3.9924512 0 0 1 5.27116,-2.023409 3.9924512,3.9924512 0 0 1 2.02341,5.27116 3.9924512,3.9924512 0 0 1 -5.27116,2.023409 3.9924512,3.9924512 0 0 1 -2.02341,-5.27116 z m -7.22214,33.97755 a 3.9924512,3.9924512 0 0 1 3.99246,-3.99245 3.9924512,3.9924512 0 0 1 3.99245,3.99245 3.9924512,3.9924512 0 0 1 -3.99245,3.99246 3.9924512,3.9924512 0 0 1 -3.99246,-3.99246 z m 6.08285,31.2935 a 3.9924512,3.9924512 0 0 1 2.20613,-5.19734 3.9924512,3.9924512 0 0 1 5.19734,2.20614 3.9924512,3.9924512 0 0 1 -2.20614,5.19733 3.9924512,3.9924512 0 0 1 -5.19733,-2.20613 z m 17.36264,26.73615 a 3.9924512,3.9924512 0 0 1 0.0985,-5.64532 3.9924512,3.9924512 0 0 1 5.64532,0.0985 3.9924512,3.9924512 0 0 1 -0.0985,5.64532 3.9924512,3.9924512 0 0 1 -5.64532,-0.0985 z m 26.11393,18.28516 a 3.9924512,3.9924512 0 0 1 -2.02341,-5.27116 3.9924512,3.9924512 0 0 1 5.27116,-2.02341 3.9924512,3.9924512 0 0 1 2.02341,5.27116 3.9924512,3.9924512 0 0 1 -5.27116,2.02341 z m 33.97753,7.22214 a 3.9924512,3.9924512 0 0 1 -3.99245,-3.99245 3.9924512,3.9924512 0 0 1 3.99245,-3.99245 3.9924512,3.9924512 0 0 1 3.99245,3.99245 3.9924512,3.9924512 0 0 1 -3.99245,3.99245 z m 31.2935,-6.08284 a 3.9924512,3.9924512 0 0 1 -5.19734,-2.20614 3.9924512,3.9924512 0 0 1 2.20614,-5.19733 3.9924512,3.9924512 0 0 1 5.19733,2.20614 3.9924512,3.9924512 0 0 1 -2.20613,5.19733 z m 26.73613,-17.36264 a 3.9924512,3.9924512 0 0 1 -5.64532,-0.0985 3.9924512,3.9924512 0 0 1 0.0985,-5.64532 3.9924512,3.9924512 0 0 1 5.64532,0.0985 3.9924512,3.9924512 0 0 1 -0.0985,5.64532 z m 18.28518,-26.11393 a 3.9924512,3.9924512 0 0 1 -5.27116,2.0234 3.9924512,3.9924512 0 0 1 -2.02341,-5.27116 3.9924512,3.9924512 0 0 1 5.27116,-2.0234 3.9924512,3.9924512 0 0 1 2.02341,5.27116 z" />
    </g>
    <rect
       style="fill:none;stroke:#000000;stroke-width:0.0805491;stroke-opacity:1"
       id="rect54"
       width="394.16946"
       height="14.919451"
       x="27.787724"
       y="292.54095"
       ry="0" />
  </g>
  <metadata
     id="metadata8">
    <rdf:RDF>
      <cc:Work
         rdf:about="">
        <cc:license
           rdf:resource="https://ohwr.org/cern_ohl_s_v2.txt" />
      </cc:Work>
    </rdf:RDF>
  </metadata>
</svg>
