<?xml version="1.0" encoding="UTF-8" standalone="no"?>
<svg
   xml:space="preserve"
   width="99.999901mm"
   height="100mm"
   version="1.1"
   style="clip-rule:evenodd;fill-rule:evenodd;image-rendering:optimizeQuality;shape-rendering:geometricPrecision;text-rendering:geometricPrecision"
   viewBox="0 0 15109 15109.485"
   id="svg5"
   sodipodi:docname="auto_route.svg"
   inkscape:version="1.4 (e7c3feb100, 2024-10-09)"
   xmlns:inkscape="http://www.inkscape.org/namespaces/inkscape"
   xmlns:sodipodi="http://sodipodi.sourceforge.net/DTD/sodipodi-0.dtd"
   xmlns="http://www.w3.org/2000/svg"
   xmlns:svg="http://www.w3.org/2000/svg"><defs
   id="defs1" /><sodipodi:namedview
   id="namedview5"
   pagecolor="#ffffff"
   bordercolor="#000000"
   borderopacity="0.25"
   inkscape:showpageshadow="2"
   inkscape:pageopacity="0.0"
   inkscape:pagecheckerboard="0"
   inkscape:deskcolor="#d1d1d1"
   inkscape:document-units="mm"
   inkscape:zoom="2.0194374"
   inkscape:cx="206.24556"
   inkscape:cy="215.90172"
   inkscape:window-width="1920"
   inkscape:window-height="1131"
   inkscape:window-x="0"
   inkscape:window-y="32"
   inkscape:window-maximized="1"
   inkscape:current-layer="Layer_x0020_1"
   showgrid="false" />
 <g
   id="Layer_x0020_1"
   inkscape:label="Layer 1"
   inkscape:groupmode="layer">
  <g
   id="g6"
   transform="matrix(3.72213,0,0,3.72213,-40581.951,-41363.2)"
   style="opacity:1;stroke-width:0.268663"><path
     class="fil1"
     d="M 14667.311,12672.251 C 14670.674,12694.45 14689.847,12711.269 14712.719,12711.269 V 12711.269 C 14737.947,12711.269 14758.801,12690.75 14758.801,12665.186 V 12616.75 C 14758.801,12604.305 14764.856,12593.877 14775.283,12587.15 14786.047,12580.759 14798.492,12580.423 14809.256,12586.478 14837.174,12600.941 14855.674,12628.523 14855.674,12664.514 V 13602.296 C 14855.674,13651.741 14814.974,13692.441 14765.528,13692.441 H 14667.311 V 13841.45 C 14667.311,14399.478 14210.865,14855.923 13652.837,14855.923 H 12236.746 C 11678.719,14855.923 11221.937,14399.478 11221.937,13841.45 V 13706.232 H 11125.737 C 11074.946,13706.232 11033.573,13664.86 11033.573,13614.405 V 12679.986 C 11033.573,12629.532 11074.946,12588.159 11125.737,12588.159 H 11221.937 V 12425.359 C 11221.937,11867.331 11678.719,11410.886 12236.746,11410.886 H 13652.837 C 14210.865,11410.886 14667.311,11867.331 14667.311,12425.359 Z M 11150.292,13239.359 H 11186.282 C 11200.746,13239.359 11213.528,13246.423 11221.937,13256.85 V 13314.032 C 11213.528,13324.796 11200.746,13331.523 11186.282,13331.523 H 11150.292 C 11125.065,13331.523 11104.546,13310.669 11104.546,13285.441 V 13285.441 C 11104.546,13260.214 11125.065,13239.359 11150.292,13239.359 Z M 11168.455,13478.177 C 11193.683,13478.177 11214.201,13498.696 11214.201,13523.923 11214.201,13549.486 11193.683,13570.005 11168.455,13570.005 11142.892,13570.005 11122.374,13549.486 11122.374,13523.923 11122.374,13498.696 11142.892,13478.177 11168.455,13478.177 Z M 14705.319,13239.359 H 14741.311 C 14766.538,13239.359 14787.392,13260.214 14787.392,13285.441 V 13285.441 C 14787.392,13310.669 14766.538,13331.523 14741.311,13331.523 H 14705.319 C 14689.51,13331.523 14675.719,13323.45 14667.311,13311.005 V 13259.877 C 14675.719,13247.769 14689.51,13239.359 14705.319,13239.359 Z M 14723.483,13478.514 C 14748.711,13478.514 14768.892,13498.696 14768.892,13523.923 14768.892,13549.15 14748.711,13569.669 14723.483,13569.669 14698.256,13569.669 14677.738,13549.15 14677.738,13523.923 14677.738,13498.696 14698.256,13478.514 14723.483,13478.514 Z M 12236.746,11583.104 C 11773.91,11583.104 11394.492,11962.523 11394.492,12425.359 V 13841.45 C 11394.492,14304.287 11773.91,14683.706 12236.746,14683.706 H 13652.837 C 14115.674,14683.706 14495.093,14304.287 14495.093,13841.45 V 12425.359 C 14495.093,11962.523 14115.674,11583.104 13652.837,11583.104 Z"
     id="path1"
     style="fill:#003399;stroke:none;stroke-width:10.7404;stroke-dasharray:none"
     sodipodi:nodetypes="cssssccssscsssscsssscsssscssccssssssssssssssssccsssssssssssssss" /></g>
 <path
   style="fill:#000000;stroke-width:737.327"
   id="path3"
   d="M 5134.2128,3330.8279 C 4895.5083,3346.1786 4701.5447,3544.3751 4698.6047,3785.6027 4696.386,3965.8128 4800.6595,4122.9683 4952.8019,4199.5374 L 4890.5691,9192.7496 C 4798.782,9166.9358 4710.4438,9124.3917 4631.0877,9064.8954 4617.1867,9053.9654 4597.5312,9053.9654 4583.632,9064.8954 4569.9984,9075.117 4564.8342,9093.0827 4570.976,9108.9008 L 5045.609,10443.921 C 5057.9995,10476.914 5104.9444,10476.914 5117.3331,10443.921 L 5627.8282,9120.4388 C 5642.0152,9083.8976 5598.0692,9052.5067 5567.7183,9077.469 5485.0755,9134.8969 5395.1863,9174.4995 5301.9089,9197.9799 L 5359.9365,4205.8231 C 5514.2221,4133.614 5621.3988,3978.2641 5623.6249,3797.1411 5626.7068,3544.0303 5423.7814,3333.8896 5169.0143,3330.8279 5157.0738,3330.6859 5145.9504,3330.0754 5134.2128,3330.8279 Z M 5834.5697,4169.1403 C 5803.3204,4172.8493 5789.7053,4210.386 5811.362,4233.0571 L 6747.9942,5302.9639 C 6774.1198,5327.6822 6817.0236,5306.0311 6812.3297,5270.479 6800.2066,5169.5547 6807.0806,5070.0711 6831.312,4976.0227 L 11128.402,7329.5864 C 11121.36,7499.2522 11209.903,7666.9317 11368.882,7753.9843 11592.033,7876.1593 11871.375,7797.5226 11994.35,7575.8435 12117.326,7354.1443 12038.193,7072.4216 11815.042,6950.2466 11655.144,6862.707 11464.2,6877.9563 11323.529,6975.3909 L 7028.5623,4622.8804 C 7095.2438,4553.9764 7175.0296,4496.893 7265.878,4455.2028 7298.5363,4438.2898 7290.6369,4389.7865 7254.2842,4383.9454 L 5847.224,4170.1953 C 5843.1239,4169.1181 5838.8155,4168.8009 5834.5697,4169.1181 Z M 10970.177,7932.1269 9562.0742,8162.6681 C 9527.1307,8171.1634 9522.2136,8218.5343 9554.7022,8233.9237 9646.469,8276.0013 9727.6013,8332.9426 9795.1828,8401.5829 L 5425.3288,10865.177 C 5283.1276,10769.627 5091.8567,10754.134 4933.7957,10843.174 4712.1757,10968.026 4637.2683,11248.572 4762.9365,11468.772 4888.6067,11688.95 5170.9896,11768.602 5392.6317,11643.75 5550.3663,11554.912 5635.7646,11387.072 5626.7843,11218.319 L 9996.6416,8754.7256 C 10021.216,8847.6581 10028.585,8945.7632 10016.685,9044.9839 10010.853,9084.0789 10061.488,9104.987 10085.246,9073.2707 L 11006.039,7991.8459 C 11025.244,7964.9161 11003.179,7928.1117 10970.177,7932.1269 Z" /></g>
</svg>
