<?xml version="1.0" encoding="UTF-8" standalone="no"?>
<svg
   xml:space="preserve"
   width="99.999901mm"
   height="100mm"
   version="1.1"
   style="clip-rule:evenodd;fill-rule:evenodd;image-rendering:optimizeQuality;shape-rendering:geometricPrecision;text-rendering:geometricPrecision"
   viewBox="0 0 15109 15109.485"
   id="svg5"
   sodipodi:docname="break_apart_fill.svg"
   inkscape:version="1.4 (e7c3feb100, 2024-10-09)"
   xmlns:inkscape="http://www.inkscape.org/namespaces/inkscape"
   xmlns:sodipodi="http://sodipodi.sourceforge.net/DTD/sodipodi-0.dtd"
   xmlns="http://www.w3.org/2000/svg"
   xmlns:svg="http://www.w3.org/2000/svg"><defs
   id="defs1" /><sodipodi:namedview
   id="namedview5"
   pagecolor="#ffffff"
   bordercolor="#000000"
   borderopacity="0.25"
   inkscape:showpageshadow="2"
   inkscape:pageopacity="0.0"
   inkscape:pagecheckerboard="0"
   inkscape:deskcolor="#d1d1d1"
   inkscape:document-units="mm"
   inkscape:zoom="1.0097187"
   inkscape:cx="126.27279"
   inkscape:cy="215.90172"
   inkscape:window-width="1920"
   inkscape:window-height="1131"
   inkscape:window-x="0"
   inkscape:window-y="32"
   inkscape:window-maximized="1"
   inkscape:current-layer="Layer_x0020_1"
   showgrid="false" />
 <g
   id="Layer_x0020_1"
   inkscape:label="Layer 1"
   inkscape:groupmode="layer">
  <g
   id="g6"
   transform="matrix(3.72213,0,0,3.72213,-40581.951,-41363.2)"
   style="opacity:1;stroke-width:0.268663"><path
     class="fil1"
     d="M 14667.311,12672.251 C 14670.674,12694.45 14689.847,12711.269 14712.719,12711.269 V 12711.269 C 14737.947,12711.269 14758.801,12690.75 14758.801,12665.186 V 12616.75 C 14758.801,12604.305 14764.856,12593.877 14775.283,12587.15 14786.047,12580.759 14798.492,12580.423 14809.256,12586.478 14837.174,12600.941 14855.674,12628.523 14855.674,12664.514 V 13602.296 C 14855.674,13651.741 14814.974,13692.441 14765.528,13692.441 H 14667.311 V 13841.45 C 14667.311,14399.478 14210.865,14855.923 13652.837,14855.923 H 12236.746 C 11678.719,14855.923 11221.937,14399.478 11221.937,13841.45 V 13706.232 H 11125.737 C 11074.946,13706.232 11033.573,13664.86 11033.573,13614.405 V 12679.986 C 11033.573,12629.532 11074.946,12588.159 11125.737,12588.159 H 11221.937 V 12425.359 C 11221.937,11867.331 11678.719,11410.886 12236.746,11410.886 H 13652.837 C 14210.865,11410.886 14667.311,11867.331 14667.311,12425.359 Z M 11150.292,13239.359 H 11186.282 C 11200.746,13239.359 11213.528,13246.423 11221.937,13256.85 V 13314.032 C 11213.528,13324.796 11200.746,13331.523 11186.282,13331.523 H 11150.292 C 11125.065,13331.523 11104.546,13310.669 11104.546,13285.441 V 13285.441 C 11104.546,13260.214 11125.065,13239.359 11150.292,13239.359 Z M 11168.455,13478.177 C 11193.683,13478.177 11214.201,13498.696 11214.201,13523.923 11214.201,13549.486 11193.683,13570.005 11168.455,13570.005 11142.892,13570.005 11122.374,13549.486 11122.374,13523.923 11122.374,13498.696 11142.892,13478.177 11168.455,13478.177 Z M 14705.319,13239.359 H 14741.311 C 14766.538,13239.359 14787.392,13260.214 14787.392,13285.441 V 13285.441 C 14787.392,13310.669 14766.538,13331.523 14741.311,13331.523 H 14705.319 C 14689.51,13331.523 14675.719,13323.45 14667.311,13311.005 V 13259.877 C 14675.719,13247.769 14689.51,13239.359 14705.319,13239.359 Z M 14723.483,13478.514 C 14748.711,13478.514 14768.892,13498.696 14768.892,13523.923 14768.892,13549.15 14748.711,13569.669 14723.483,13569.669 14698.256,13569.669 14677.738,13549.15 14677.738,13523.923 14677.738,13498.696 14698.256,13478.514 14723.483,13478.514 Z M 12236.746,11583.104 C 11773.91,11583.104 11394.492,11962.523 11394.492,12425.359 V 13841.45 C 11394.492,14304.287 11773.91,14683.706 12236.746,14683.706 H 13652.837 C 14115.674,14683.706 14495.093,14304.287 14495.093,13841.45 V 12425.359 C 14495.093,11962.523 14115.674,11583.104 13652.837,11583.104 Z"
     id="path1"
     style="fill:#003399;stroke:none;stroke-width:10.7404;stroke-dasharray:none"
     sodipodi:nodetypes="cssssccssscsssscsssscsssscssccssssssssssssssssccsssssssssssssss" /></g>
 <g
   id="g7"
   transform="matrix(134.26038,0,0,134.26038,1539.0794,2536.4289)"><path
     sodipodi:type="star"
     style="opacity:1;fill:#b1b1b1;fill-opacity:1;stroke-width:3;stroke-linecap:round"
     id="path6"
     inkscape:flatsided="true"
     sodipodi:sides="5"
     sodipodi:cx="12.634597"
     sodipodi:cy="26.755617"
     sodipodi:r1="31.189751"
     sodipodi:r2="25.233038"
     sodipodi:arg1="0.94445273"
     sodipodi:arg2="1.5727713"
     inkscape:rounded="0"
     inkscape:randomized="0"
     d="M 30.917603,52.024812 -5.7480764,51.9524 -17.009526,17.05889 12.696194,-4.4340727 42.316789,17.176056 Z"
     inkscape:transform-center-x="-0.019034755"
     inkscape:transform-center-y="-2.9602472"
     transform="translate(32.552669,12.78324)" /><path
     id="path5"
     style="opacity:1;stroke-width:3;stroke-linecap:round"
     d="M 16.267981,9.3779512 C 13.924445,13.878471 14.296797,19.312043 17.232363,23.450797 20.361853,27.860794 24.687765,28.471032 29.148826,26.833221 29.24135,27.324669 29.435708,27.805414 29.745074,28.241375 L 47.981721,53.940578 C 48.199652,54.247688 48.457107,54.509081 48.741438,54.724539 45.809369,58.365495 45.014359,62.601271 48.106665,66.959067 51.044057,71.096524 56.049968,73.242035 61.071875,72.515895 L 56.505236,66.080558 C 55.361493,64.468788 55.738236,62.250717 57.350007,61.106973 L 61.59303,58.096042 C 63.2048,56.9523 65.422871,57.329041 66.566614,58.940812 L 71.132654,65.375306 C 73.476018,60.875117 73.103904,55.441978 70.168869,51.303303 67.076471,46.945573 62.816168,46.297143 58.4113,47.862619 58.301803,47.523095 58.140077,47.193772 57.922146,46.886662 L 39.685499,21.187459 C 39.376133,20.751498 38.98652,20.409311 38.553183,20.159709 41.572082,16.489596 42.423963,12.205098 39.294567,7.7950342 36.357074,3.6581033 31.351494,1.5129617 26.329956,2.2390482 L 30.895996,8.6735432 C 32.039739,10.285312 31.662998,12.503382 30.051227,13.647126 L 25.808203,16.658057 C 24.196434,17.8018 21.978362,17.425059 20.834619,15.813288 Z" /></g></g>
</svg>
