<?xml version="1.0" encoding="UTF-8" standalone="no"?>
<svg
   xml:space="preserve"
   width="99.999901mm"
   height="100mm"
   version="1.1"
   style="clip-rule:evenodd;fill-rule:evenodd;image-rendering:optimizeQuality;shape-rendering:geometricPrecision;text-rendering:geometricPrecision"
   viewBox="0 0 15109 15109.485"
   id="svg5"
   sodipodi:docname="commands_scale.svg"
   inkscape:version="1.4 (e7c3feb100, 2024-10-09)"
   xmlns:inkscape="http://www.inkscape.org/namespaces/inkscape"
   xmlns:sodipodi="http://sodipodi.sourceforge.net/DTD/sodipodi-0.dtd"
   xmlns="http://www.w3.org/2000/svg"
   xmlns:svg="http://www.w3.org/2000/svg"><sodipodi:namedview
   id="namedview5"
   pagecolor="#ffffff"
   bordercolor="#000000"
   borderopacity="0.25"
   inkscape:showpageshadow="2"
   inkscape:pageopacity="0.0"
   inkscape:pagecheckerboard="0"
   inkscape:deskcolor="#d1d1d1"
   inkscape:document-units="mm"
   inkscape:zoom="2.0194374"
   inkscape:cx="176.03913"
   inkscape:cy="208.96909"
   inkscape:window-width="1920"
   inkscape:window-height="1131"
   inkscape:window-x="0"
   inkscape:window-y="32"
   inkscape:window-maximized="1"
   inkscape:current-layer="command_group7062" />
 <defs
   id="defs1"><marker
   style="overflow:visible"
   id="marker7"
   refX="0"
   refY="0"
   orient="auto-start-reverse"
   inkscape:stockid="Wide, heavy arrow"
   markerWidth="1"
   markerHeight="1"
   viewBox="0 0 1 1"
   inkscape:isstock="true"
   inkscape:collect="always"
   preserveAspectRatio="xMidYMid"><path
     style="fill:context-stroke;fill-rule:evenodd;stroke:none"
     d="m 1,0 -3,3 h -2 l 3,-3 -3,-3 h 2 z"
     id="path7" /></marker><marker
   style="overflow:visible"
   id="ArrowWideHeavy"
   refX="0"
   refY="0"
   orient="auto-start-reverse"
   inkscape:stockid="Wide, heavy arrow"
   markerWidth="1"
   markerHeight="1"
   viewBox="0 0 1 1"
   inkscape:isstock="true"
   inkscape:collect="always"
   preserveAspectRatio="xMidYMid"><path
     style="fill:context-stroke;fill-rule:evenodd;stroke:none"
     d="m 1,0 -3,3 h -2 l 3,-3 -3,-3 h 2 z"
     id="path6" /></marker><inkscape:path-effect
   effect="offset"
   id="path-effect6"
   is_visible="true"
   lpeversion="1.3"
   linejoin_type="miter"
   unit="mm"
   offset="2"
   miter_limit="4"
   attempt_force_join="false"
   update_on_knot_move="true" />
 </defs>
 <g
   id="Layer_x0020_1"
   inkscape:label="Layer 1"
   inkscape:groupmode="layer">
  <g
   id="g6"
   transform="matrix(3.72213,0,0,3.72213,-40581.951,-41363.2)"
   style="opacity:1;stroke-width:0.268663"><path
     class="fil1"
     d="M 14667.311,12672.251 C 14670.674,12694.45 14689.847,12711.269 14712.719,12711.269 V 12711.269 C 14737.947,12711.269 14758.801,12690.75 14758.801,12665.186 V 12616.75 C 14758.801,12604.305 14764.856,12593.877 14775.283,12587.15 14786.047,12580.759 14798.492,12580.423 14809.256,12586.478 14837.174,12600.941 14855.674,12628.523 14855.674,12664.514 V 13602.296 C 14855.674,13651.741 14814.974,13692.441 14765.528,13692.441 H 14667.311 V 13841.45 C 14667.311,14399.478 14210.865,14855.923 13652.837,14855.923 H 12236.746 C 11678.719,14855.923 11221.937,14399.478 11221.937,13841.45 V 13706.232 H 11125.737 C 11074.946,13706.232 11033.573,13664.86 11033.573,13614.405 V 12679.986 C 11033.573,12629.532 11074.946,12588.159 11125.737,12588.159 H 11221.937 V 12425.359 C 11221.937,11867.331 11678.719,11410.886 12236.746,11410.886 H 13652.837 C 14210.865,11410.886 14667.311,11867.331 14667.311,12425.359 Z M 11150.292,13239.359 H 11186.282 C 11200.746,13239.359 11213.528,13246.423 11221.937,13256.85 V 13314.032 C 11213.528,13324.796 11200.746,13331.523 11186.282,13331.523 H 11150.292 C 11125.065,13331.523 11104.546,13310.669 11104.546,13285.441 V 13285.441 C 11104.546,13260.214 11125.065,13239.359 11150.292,13239.359 Z M 11168.455,13478.177 C 11193.683,13478.177 11214.201,13498.696 11214.201,13523.923 11214.201,13549.486 11193.683,13570.005 11168.455,13570.005 11142.892,13570.005 11122.374,13549.486 11122.374,13523.923 11122.374,13498.696 11142.892,13478.177 11168.455,13478.177 Z M 14705.319,13239.359 H 14741.311 C 14766.538,13239.359 14787.392,13260.214 14787.392,13285.441 V 13285.441 C 14787.392,13310.669 14766.538,13331.523 14741.311,13331.523 H 14705.319 C 14689.51,13331.523 14675.719,13323.45 14667.311,13311.005 V 13259.877 C 14675.719,13247.769 14689.51,13239.359 14705.319,13239.359 Z M 14723.483,13478.514 C 14748.711,13478.514 14768.892,13498.696 14768.892,13523.923 14768.892,13549.15 14748.711,13569.669 14723.483,13569.669 14698.256,13569.669 14677.738,13549.15 14677.738,13523.923 14677.738,13498.696 14698.256,13478.514 14723.483,13478.514 Z M 12236.746,11583.104 C 11773.91,11583.104 11394.492,11962.523 11394.492,12425.359 V 13841.45 C 11394.492,14304.287 11773.91,14683.706 12236.746,14683.706 H 13652.837 C 14115.674,14683.706 14495.093,14304.287 14495.093,13841.45 V 12425.359 C 14495.093,11962.523 14115.674,11583.104 13652.837,11583.104 Z"
     id="path1"
     style="fill:#003399;stroke:none;stroke-width:10.7404;stroke-dasharray:none"
     sodipodi:nodetypes="cssssccssscsssscsssscsssscssccssssssssssssssssccsssssssssssssss" /></g>
 <g
   id="command_group7062"
   inkscape:label="Ink/Stitch Command: Target position"
   transform="matrix(89.854628,0,0,89.854628,-8106.9473,4591.9957)"><path
     id="command_connector5289"
     d="M 145.16131,54.96205 126.81232,91.57315"
     style="fill:none;stroke:#000000;stroke-width:1px;stroke-opacity:0.5"
     inkscape:connection-start="#command_use1559"
     inkscape:connection-end="#rect1"
     inkscape:label="connector"
     inkscape:connector-type="polyline"
     inkscape:connector-curvature="0" /><g
     id="command_use1559"
     transform="matrix(3.2158713,0,0,3.2158713,158.52006,28.091296)"><title
       id="title2">Ripple stitch target point</title><path
       id="path2"
       d="M 9.220113,0.07922893 C 9.2201111,5.1859579 5.0802889,9.3257789 -0.02643997,9.3257789 -5.1331693,9.3257789 -9.2729921,5.1859579 -9.272994,0.07922893 -9.2729939,-2.3731091 -8.2988061,-4.7250061 -6.5647409,-6.4590721 -4.8306756,-8.1931371 -2.4787785,-9.1673241 -0.02643997,-9.1673241 5.0802901,-9.1673241 9.2201128,-5.0275011 9.220113,0.07922893 9.220113,0.07922893 9.220113,0.07922893 9.220113,0.07922893"
       style="opacity:1;vector-effect:none;fill:#fafafa;fill-opacity:1;fill-rule:evenodd;stroke:#003399;stroke-width:1.065;stroke-linecap:round;stroke-linejoin:miter;stroke-miterlimit:4;stroke-dasharray:3.195, 3.195;stroke-dashoffset:0;stroke-opacity:1"
       inkscape:connector-curvature="0" /><path
       style="opacity:1;fill:none;stroke:#000000;stroke-width:1.5;stroke-linecap:round;stroke-linejoin:round;stroke-miterlimit:4;stroke-opacity:1"
       d="M -4.1361006,-3.9974292 4.0884634,4.2271348 M 4.0884634,-3.9974292 -4.1361006,4.2271348 M 5.7918264,0.1148528 H -5.8394636 M -0.02381859,-5.7007922 V 5.9304978"
       id="path3"
       inkscape:connector-curvature="0" /></g><path
     style="fill:#808080;stroke:#000000;stroke-width:3.58001519;marker-start:url(#ArrowWideHeavy);marker-end:url(#marker7);stroke-dasharray:19.6900835,5.37002277;stroke-dashoffset:0"
     d="M 193.32707,72.491203 215.84142,33.495205"
     id="path4" /></g></g>
</svg>
