<?xml version="1.0" encoding="UTF-8" standalone="no"?>
<svg
   xml:space="preserve"
   width="99.999901mm"
   height="100mm"
   version="1.1"
   style="clip-rule:evenodd;fill-rule:evenodd;image-rendering:optimizeQuality;shape-rendering:geometricPrecision;text-rendering:geometricPrecision"
   viewBox="0 0 15109 15109.485"
   id="svg5"
   sodipodi:docname="commands_visibility.svg"
   inkscape:version="1.4 (e7c3feb100, 2024-10-09)"
   xmlns:inkscape="http://www.inkscape.org/namespaces/inkscape"
   xmlns:sodipodi="http://sodipodi.sourceforge.net/DTD/sodipodi-0.dtd"
   xmlns="http://www.w3.org/2000/svg"
   xmlns:svg="http://www.w3.org/2000/svg"><sodipodi:namedview
   id="namedview5"
   pagecolor="#ffffff"
   bordercolor="#000000"
   borderopacity="0.25"
   inkscape:showpageshadow="2"
   inkscape:pageopacity="0.0"
   inkscape:pagecheckerboard="0"
   inkscape:deskcolor="#d1d1d1"
   inkscape:document-units="mm"
   inkscape:zoom="2.0194374"
   inkscape:cx="176.03913"
   inkscape:cy="208.96909"
   inkscape:window-width="1920"
   inkscape:window-height="1131"
   inkscape:window-x="0"
   inkscape:window-y="32"
   inkscape:window-maximized="1"
   inkscape:current-layer="command_group7062"
   showgrid="false" />
 <g
   id="Layer_x0020_1"
   inkscape:label="Layer 1"
   inkscape:groupmode="layer">
  <g
   id="g6"
   transform="matrix(3.72213,0,0,3.72213,-40581.951,-41363.2)"
   style="opacity:1;stroke-width:0.268663"><path
     class="fil1"
     d="M 14667.311,12672.251 C 14670.674,12694.45 14689.847,12711.269 14712.719,12711.269 V 12711.269 C 14737.947,12711.269 14758.801,12690.75 14758.801,12665.186 V 12616.75 C 14758.801,12604.305 14764.856,12593.877 14775.283,12587.15 14786.047,12580.759 14798.492,12580.423 14809.256,12586.478 14837.174,12600.941 14855.674,12628.523 14855.674,12664.514 V 13602.296 C 14855.674,13651.741 14814.974,13692.441 14765.528,13692.441 H 14667.311 V 13841.45 C 14667.311,14399.478 14210.865,14855.923 13652.837,14855.923 H 12236.746 C 11678.719,14855.923 11221.937,14399.478 11221.937,13841.45 V 13706.232 H 11125.737 C 11074.946,13706.232 11033.573,13664.86 11033.573,13614.405 V 12679.986 C 11033.573,12629.532 11074.946,12588.159 11125.737,12588.159 H 11221.937 V 12425.359 C 11221.937,11867.331 11678.719,11410.886 12236.746,11410.886 H 13652.837 C 14210.865,11410.886 14667.311,11867.331 14667.311,12425.359 Z M 11150.292,13239.359 H 11186.282 C 11200.746,13239.359 11213.528,13246.423 11221.937,13256.85 V 13314.032 C 11213.528,13324.796 11200.746,13331.523 11186.282,13331.523 H 11150.292 C 11125.065,13331.523 11104.546,13310.669 11104.546,13285.441 V 13285.441 C 11104.546,13260.214 11125.065,13239.359 11150.292,13239.359 Z M 11168.455,13478.177 C 11193.683,13478.177 11214.201,13498.696 11214.201,13523.923 11214.201,13549.486 11193.683,13570.005 11168.455,13570.005 11142.892,13570.005 11122.374,13549.486 11122.374,13523.923 11122.374,13498.696 11142.892,13478.177 11168.455,13478.177 Z M 14705.319,13239.359 H 14741.311 C 14766.538,13239.359 14787.392,13260.214 14787.392,13285.441 V 13285.441 C 14787.392,13310.669 14766.538,13331.523 14741.311,13331.523 H 14705.319 C 14689.51,13331.523 14675.719,13323.45 14667.311,13311.005 V 13259.877 C 14675.719,13247.769 14689.51,13239.359 14705.319,13239.359 Z M 14723.483,13478.514 C 14748.711,13478.514 14768.892,13498.696 14768.892,13523.923 14768.892,13549.15 14748.711,13569.669 14723.483,13569.669 14698.256,13569.669 14677.738,13549.15 14677.738,13523.923 14677.738,13498.696 14698.256,13478.514 14723.483,13478.514 Z M 12236.746,11583.104 C 11773.91,11583.104 11394.492,11962.523 11394.492,12425.359 V 13841.45 C 11394.492,14304.287 11773.91,14683.706 12236.746,14683.706 H 13652.837 C 14115.674,14683.706 14495.093,14304.287 14495.093,13841.45 V 12425.359 C 14495.093,11962.523 14115.674,11583.104 13652.837,11583.104 Z"
     id="path1"
     style="fill:#003399;stroke:none;stroke-width:10.7404;stroke-dasharray:none"
     sodipodi:nodetypes="cssssccssscsssscsssscsssscssccssssssssssssssssccsssssssssssssss" /></g>
  
  
  
  
  
 <g
   id="command_group7062"
   inkscape:label="Ink/Stitch Command: Target position"
   transform="matrix(89.854628,0,0,89.854628,-8106.9473,4591.9957)"><path
     id="command_connector5289"
     d="M 140.67445,51.380401 126.81232,91.57315"
     style="fill:none;stroke:#000000;stroke-width:1px;stroke-opacity:0.5"
     inkscape:connection-start="#command_use1559"
     inkscape:connection-end="#rect1"
     inkscape:label="connector"
     inkscape:connector-type="polyline"
     inkscape:connector-curvature="0" /><g
     id="command_use1559"
     transform="matrix(1.9530634,0,0,1.9530634,146.58974,34.139812)"><title
       id="title2">Ripple stitch target point</title><path
       id="path2"
       d="M 9.220113,0.07922893 C 9.2201111,5.1859579 5.0802889,9.3257789 -0.02643997,9.3257789 -5.1331693,9.3257789 -9.2729921,5.1859579 -9.272994,0.07922893 -9.2729939,-2.3731091 -8.2988061,-4.7250061 -6.5647409,-6.4590721 -4.8306756,-8.1931371 -2.4787785,-9.1673241 -0.02643997,-9.1673241 5.0802901,-9.1673241 9.2201128,-5.0275011 9.220113,0.07922893 9.220113,0.07922893 9.220113,0.07922893 9.220113,0.07922893"
       style="opacity:1;vector-effect:none;fill:#fafafa;fill-opacity:1;fill-rule:evenodd;stroke:#003399;stroke-width:1.065;stroke-linecap:round;stroke-linejoin:miter;stroke-miterlimit:4;stroke-dasharray:3.195, 3.195;stroke-dashoffset:0;stroke-opacity:1"
       inkscape:connector-curvature="0" /><path
       style="opacity:1;fill:none;stroke:#000000;stroke-width:1.5;stroke-linecap:round;stroke-linejoin:round;stroke-miterlimit:4;stroke-opacity:1"
       d="M -4.1361006,-3.9974292 4.0884634,4.2271348 M 4.0884634,-3.9974292 -4.1361006,4.2271348 M 5.7918264,0.1148528 H -5.8394636 M -0.02381859,-5.7007922 V 5.9304978"
       id="path3"
       inkscape:connector-curvature="0" /></g><g
     transform="matrix(2.7857415,0,0,2.7857415,-285.06936,-2698.2416)"
     inkscape:label="00258"
     id="object-hidden"
     style="opacity:0.3"><path
       inkscape:connector-curvature="0"
       id="rect31330"
       d="M 165,981.36218 H 181 V 997.36218 H 165 Z"
       style="opacity:0;fill:none" /><path
       inkscape:connector-curvature="0"
       id="path31334"
       d="M 165,986.3622 C 165,986.3622 168.5817,992.3622 173,992.3622 177.4183,992.3622 181,986.3622 181,986.3622 H 179 C 179,986.3622 176.866,990.3622 173,990.3622 169.134,990.3622 167,986.3622 167,986.3622 Z"
       style="opacity:1" /><path
       inkscape:connector-curvature="0"
       id="path8543"
       d="M 166.99023,987.85829 A 0.50005,0.50005 0 0 0 166.64648,988.00868 L 165.64648,989.00868 A 0.50005,0.50005 0 1 0 166.35352,989.71572 L 167.35352,988.71572 A 0.50005,0.50005 0 0 0 166.99023,987.85829 Z"
       style="opacity:1;stroke-linecap:round" /><path
       inkscape:connector-curvature="0"
       id="path8545"
       d="M 178.99414,987.85742 A 0.50005,0.50005 0 0 0 178.64648,988.71484 L 179.64648,989.71484 A 0.50005,0.50005 0 1 0 180.35352,989.00781 L 179.35352,988.00781 A 0.50005,0.50005 0 0 0 178.99414,987.85742 Z"
       style="opacity:1;stroke-linecap:round" /><path
       inkscape:connector-curvature="0"
       id="path8547"
       d="M 168.99023,988.85829 A 0.50005,0.50005 0 0 0 168.64648,989.00868 L 166.64648,991.00868 A 0.50005,0.50005 0 1 0 167.35352,991.71572 L 169.35352,989.71572 A 0.50005,0.50005 0 0 0 168.99023,988.85829 Z"
       style="opacity:1;stroke-linecap:round" /><path
       inkscape:connector-curvature="0"
       id="path8572"
       d="M 170.38281,990.29297 A 0.50005,0.50005 0 0 0 169.94141,990.54883 L 168.56641,992.92383 A 0.50098776,0.50098776 0 1 0 169.43359,993.42578 L 170.80859,991.05078 A 0.50005,0.50005 0 0 0 170.38281,990.29297 Z"
       style="opacity:1;stroke-linecap:round" /><path
       inkscape:connector-curvature="0"
       id="path8574"
       d="M 172.44336,990.79297 A 0.50005,0.50005 0 0 0 171.94922,991.1875 L 171.26172,994.1875 A 0.50102871,0.50102871 0 1 0 172.23828,994.41211 L 172.92578,991.41211 A 0.50005,0.50005 0 0 0 172.44336,990.79297 Z"
       style="opacity:1;stroke-linecap:round" /><path
       inkscape:connector-curvature="0"
       id="path8578"
       d="M 177.39453,988.85742 A 0.50005,0.50005 0 0 0 177.04297,989.66992 L 178.60547,991.66992 A 0.50028083,0.50028083 0 1 0 179.39453,991.05469 L 177.83203,989.05469 A 0.50005,0.50005 0 0 0 177.39453,988.85742 Z"
       style="opacity:1;stroke-linecap:round" /><path
       inkscape:connector-curvature="0"
       id="path8580"
       d="M 176.07422,990.29297 A 0.50005,0.50005 0 0 0 175.63672,991.0625 L 176.96875,993.2168 A 0.50005,0.50005 0 1 0 177.81836,992.69141 L 176.48828,990.53711 A 0.50005,0.50005 0 0 0 176.07422,990.29297 Z"
       style="opacity:1;stroke-linecap:round" /><path
       inkscape:connector-curvature="0"
       id="path8582"
       d="M 174,990.79297 A 0.50005,0.50005 0 0 0 173.51953,991.4375 L 174.38477,994.4375 A 0.50005,0.50005 0 1 0 175.3457,994.16211 L 174.48047,991.16211 A 0.50005,0.50005 0 0 0 174,990.79297 Z"
       style="opacity:1;stroke-linecap:round" /></g><g
     transform="matrix(3.1437515,0,0,3.0471661,-347.49282,-2939.8608)"
     inkscape:label="00257"
     id="object-visible"><path
       inkscape:connector-curvature="0"
       id="rect11899"
       d="M 165,961.36218 H 181 V 977.36218 H 165 Z"
       style="opacity:0;fill:none" /><path
       style="opacity:1"
       d="M 173,966.3622 C 171.3431,966.3622 170,967.7053 170,969.3622 170,971.019 171.3431,972.3622 173,972.3622 174.6568,972.3622 176,971.019 176,969.3622 176,967.7053 174.6568,966.3622 173,966.3622 Z M 172.5069,967.1878 C 172.881,967.1878 173.19,967.4986 173.19,967.8857 173.19,968.2729 172.881,968.5985 172.5069,968.5985 172.1328,968.5985 171.8239,968.2729 171.8239,967.8857 171.8239,967.4986 172.1328,967.1878 172.5069,967.1878 Z"
       id="path11920"
       inkscape:connector-curvature="0" /><path
       style="opacity:1"
       d="M 173,963.3622 C 168.5817,963.3622 165,969.3622 165,969.3622 165,969.3622 168.5817,975.3622 173,975.3622 177.4183,975.3622 181,969.3622 181,969.3622 181,969.3622 177.4183,963.3622 173,963.3622 Z M 173,965.3622 C 176.866,965.3622 179,969.3622 179,969.3622 179,969.3622 176.866,973.3622 173,973.3622 169.134,973.3622 167,969.3622 167,969.3622 167,969.3622 169.134,965.3622 173,965.3622 Z"
       id="path11928"
       inkscape:connector-curvature="0" /><path
       inkscape:connector-curvature="0"
       id="path8543-5"
       d="M 165.99414,965.79492 A 0.50005,0.50005 0 0 0 165.64648,966.65234 L 166.64648,967.65234 A 0.50005,0.50005 0 1 0 167.35352,966.94531 L 166.35352,965.94531 A 0.50005,0.50005 0 0 0 165.99414,965.79492 Z"
       style="opacity:1;stroke-linecap:round" /><path
       inkscape:connector-curvature="0"
       id="path8545-3"
       d="M 179.99023,965.79492 A 0.50005,0.50005 0 0 0 179.64648,965.94531 L 178.64648,966.94531 A 0.50005,0.50005 0 1 0 179.35352,967.65234 L 180.35352,966.65234 A 0.50005,0.50005 0 0 0 179.99023,965.79492 Z"
       style="opacity:1;stroke-linecap:round" /><path
       inkscape:connector-curvature="0"
       id="path8547-1"
       d="M 166.99414,963.79492 A 0.50005,0.50005 0 0 0 166.64648,964.65234 L 168.64648,966.65234 A 0.50005,0.50005 0 1 0 169.35352,965.94531 L 167.35352,963.94531 A 0.50005,0.50005 0 0 0 166.99414,963.79492 Z"
       style="opacity:1;stroke-linecap:round" /><path
       inkscape:connector-curvature="0"
       id="path8572-7"
       d="M 168.97656,961.98047 A 0.50005,0.50005 0 0 0 168.56641,962.73828 L 169.94141,965.11328 A 0.50098776,0.50098776 0 1 0 170.80859,964.61133 L 169.43359,962.23633 A 0.50005,0.50005 0 0 0 168.97656,961.98047 Z"
       style="opacity:1;stroke-linecap:round" /><path
       inkscape:connector-curvature="0"
       id="path8574-8"
       d="M 171.72852,960.85547 A 0.50005,0.50005 0 0 0 171.26172,961.47461 L 171.94922,964.47461 A 0.50102871,0.50102871 0 1 0 172.92578,964.25 L 172.23828,961.25 A 0.50005,0.50005 0 0 0 171.72852,960.85547 Z"
       style="opacity:1;stroke-linecap:round" /><path
       inkscape:connector-curvature="0"
       id="path8578-8"
       d="M 178.97852,963.79492 A 0.50005,0.50005 0 0 0 178.60547,963.99219 L 177.04297,965.99219 A 0.50028083,0.50028083 0 1 0 177.83203,966.60742 L 179.39453,964.60742 A 0.50005,0.50005 0 0 0 178.97852,963.79492 Z"
       style="opacity:1;stroke-linecap:round" /><path
       inkscape:connector-curvature="0"
       id="path8580-4"
       d="M 177.36523,962.20312 A 0.50005,0.50005 0 0 0 176.96875,962.44531 L 175.63672,964.59961 A 0.50029718,0.50029718 0 1 0 176.48828,965.125 L 177.81836,962.9707 A 0.50005,0.50005 0 0 0 177.36523,962.20312 Z"
       style="opacity:1;stroke-linecap:round" /><path
       inkscape:connector-curvature="0"
       id="path8582-8"
       d="M 174.84961,960.85547 A 0.50005,0.50005 0 0 0 174.38477,961.22461 L 173.51953,964.22461 A 0.50005,0.50005 0 1 0 174.48047,964.5 L 175.3457,961.5 A 0.50005,0.50005 0 0 0 174.84961,960.85547 Z"
       style="opacity:1;stroke-linecap:round" /></g></g></g>
</svg>
