<?xml version="1.0" encoding="UTF-8" standalone="no"?>
<svg
   xml:space="preserve"
   width="99.999901mm"
   height="100mm"
   version="1.1"
   style="clip-rule:evenodd;fill-rule:evenodd;image-rendering:optimizeQuality;shape-rendering:geometricPrecision;text-rendering:geometricPrecision"
   viewBox="0 0 15109 15109.485"
   id="svg5"
   sodipodi:docname="cut_satin.svg"
   inkscape:version="1.4 (e7c3feb100, 2024-10-09)"
   xmlns:inkscape="http://www.inkscape.org/namespaces/inkscape"
   xmlns:sodipodi="http://sodipodi.sourceforge.net/DTD/sodipodi-0.dtd"
   xmlns="http://www.w3.org/2000/svg"
   xmlns:svg="http://www.w3.org/2000/svg"
   xmlns:inkstitch="http://inkstitch.org/namespace"><sodipodi:namedview
   id="namedview5"
   pagecolor="#ffffff"
   bordercolor="#000000"
   borderopacity="0.25"
   inkscape:showpageshadow="2"
   inkscape:pageopacity="0.0"
   inkscape:pagecheckerboard="0"
   inkscape:deskcolor="#d1d1d1"
   inkscape:document-units="mm"
   inkscape:zoom="1.0097187"
   inkscape:cx="186.68566"
   inkscape:cy="133.7006"
   inkscape:window-width="1920"
   inkscape:window-height="1131"
   inkscape:window-x="0"
   inkscape:window-y="32"
   inkscape:window-maximized="1"
   inkscape:current-layer="Layer_x0020_1"
   showgrid="false" /><defs
   id="defs1"><symbol
   id="inkstitch_trim">
      <title
   id="inkstitch_title9282">Trim the thread after sewing this object.</title>
      <path
   id="inkstitch_circle13405"
   d="m 9.2465284,-8.6e-6 c 1.8e-6,2.452339 -0.9741847,4.804237 -2.7082493,6.538304 C 4.8042146,8.2723614 2.4523174,9.2465504 -2.1625959e-5,9.2465514 -2.4523623,9.2465534 -4.8042621,8.2723654 -6.5383288,6.5382984 -8.2723956,4.8042314 -9.2465834,2.4523324 -9.2465816,-8.6e-6 c 6e-7,-2.452339 0.9741895,-4.804237 2.708256,-6.538301 1.7340665,-1.734065 4.0859648,-2.708252 6.538303974041,-2.70825 C 5.1067066,-9.2465576 9.2465271,-5.1067366 9.2465284,-8.6e-6 c 0,0 0,0 0,0"
   style="opacity:1;vector-effect:none;fill:#fafafa;fill-opacity:1;fill-rule:evenodd;stroke:#003399;stroke-width:1.06500006;stroke-linecap:round;stroke-linejoin:miter;stroke-miterlimit:4;stroke-dasharray:3.19500017, 3.19500017;stroke-dashoffset:0;stroke-opacity:1"
   inkscape:connector-curvature="0" />
      <path
   style="color:#000000;font-style:normal;font-variant:normal;font-weight:normal;font-stretch:normal;font-size:medium;line-height:normal;font-family:sans-serif;font-variant-ligatures:normal;font-variant-position:normal;font-variant-caps:normal;font-variant-numeric:normal;font-variant-alternates:normal;font-feature-settings:normal;text-indent:0;text-align:start;text-decoration:none;text-decoration-line:none;text-decoration-style:solid;text-decoration-color:#000000;letter-spacing:normal;word-spacing:normal;text-transform:none;writing-mode:lr-tb;direction:ltr;text-orientation:mixed;dominant-baseline:auto;baseline-shift:baseline;text-anchor:start;white-space:normal;shape-padding:0;clip-rule:nonzero;display:inline;overflow:visible;visibility:visible;opacity:1;isolation:auto;mix-blend-mode:normal;color-interpolation:sRGB;color-interpolation-filters:linearRGB;solid-color:#000000;solid-opacity:1;vector-effect:none;fill:#050505;fill-opacity:1;fill-rule:evenodd;stroke:none;stroke-width:1.41421342;stroke-linecap:butt;stroke-linejoin:miter;stroke-miterlimit:4;stroke-dasharray:none;stroke-dashoffset:0;stroke-opacity:1;color-rendering:auto;image-rendering:auto;shape-rendering:auto;text-rendering:auto;enable-background:accumulate"
   d="m -3.0000256,-5.9834096 c -1.30575,0 -2.375,1.06924 -2.375,2.375 0,1.30575 1.06925,2.375 2.375,2.375 0.58687,0 1.11944,-0.22369 1.53516,-0.58007 0,0 0.61717997,1.62109 0.61717997,1.62109 0,0 -2.29881997,6.01758 -2.29881997,6.01758 0.98655,-0.12511 1.23728,-0.26171 1.67382,-0.97461 0,0 1.33007997,-3.18945 1.33007997,-3.18945 0,0 1.23633003,3.25 1.23633003,3.25 0.23227,0.77906 0.84315,0.79218 1.57813,1.07226 0,0 -2.05469003,-6.14258 -2.05469003,-6.14258 0,0 0.73047003,-1.75 0.73047003,-1.75 0.42849,0.41682 1.01136,0.67578 1.65234,0.67578 1.30575,0 2.375,-1.06925 2.375,-2.375 0,-1.30576 -1.06925,-2.375 -2.375,-2.375 -1.06233,0 -1.95701,0.71265 -2.25781003,1.67969 0,0 -0.0117,-0.0156 -0.0117,-0.0156 0,0 -0.80274,2.10156 -0.80274,2.10156 0,0 -0.59179,-1.76562 -0.59179,-1.76562 -0.18242,-1.12808 -1.15864997,-2 -2.33593997,-2 0,0 -2e-5,-3e-5 -2e-5,-3e-5 m 0,1 c 0.76531,0 1.375,0.60968 1.375,1.375 0,0.76531 -0.60969,1.375 -1.375,1.375 -0.76531,0 -1.375,-0.60969 -1.375,-1.375 0,-0.76532 0.60969,-1.375 1.375,-1.375 0,0 0,0 0,0 m 6,0 c 0.76531,0 1.375,0.60968 1.375,1.375 0,0.76531 -0.60969,1.375 -1.375,1.375 -0.76531,0 -1.375,-0.60969 -1.375,-1.375 0,-0.76532 0.60969,-1.375 1.375,-1.375 0,0 0,0 0,0"
   id="inkstitch_path13416"
   inkscape:connector-curvature="0" />
    </symbol>
    
      
      
      
    </defs>
 <g
   id="Layer_x0020_1"
   inkscape:label="Layer 1"
   inkscape:groupmode="layer">
  <g
   id="g6"
   transform="matrix(3.72213,0,0,3.72213,-40581.951,-41363.2)"
   style="opacity:1;stroke-width:0.268663"><path
     class="fil1"
     d="M 14667.311,12672.251 C 14670.674,12694.45 14689.847,12711.269 14712.719,12711.269 V 12711.269 C 14737.947,12711.269 14758.801,12690.75 14758.801,12665.186 V 12616.75 C 14758.801,12604.305 14764.856,12593.877 14775.283,12587.15 14786.047,12580.759 14798.492,12580.423 14809.256,12586.478 14837.174,12600.941 14855.674,12628.523 14855.674,12664.514 V 13602.296 C 14855.674,13651.741 14814.974,13692.441 14765.528,13692.441 H 14667.311 V 13841.45 C 14667.311,14399.478 14210.865,14855.923 13652.837,14855.923 H 12236.746 C 11678.719,14855.923 11221.937,14399.478 11221.937,13841.45 V 13706.232 H 11125.737 C 11074.946,13706.232 11033.573,13664.86 11033.573,13614.405 V 12679.986 C 11033.573,12629.532 11074.946,12588.159 11125.737,12588.159 H 11221.937 V 12425.359 C 11221.937,11867.331 11678.719,11410.886 12236.746,11410.886 H 13652.837 C 14210.865,11410.886 14667.311,11867.331 14667.311,12425.359 Z M 11150.292,13239.359 H 11186.282 C 11200.746,13239.359 11213.528,13246.423 11221.937,13256.85 V 13314.032 C 11213.528,13324.796 11200.746,13331.523 11186.282,13331.523 H 11150.292 C 11125.065,13331.523 11104.546,13310.669 11104.546,13285.441 V 13285.441 C 11104.546,13260.214 11125.065,13239.359 11150.292,13239.359 Z M 11168.455,13478.177 C 11193.683,13478.177 11214.201,13498.696 11214.201,13523.923 11214.201,13549.486 11193.683,13570.005 11168.455,13570.005 11142.892,13570.005 11122.374,13549.486 11122.374,13523.923 11122.374,13498.696 11142.892,13478.177 11168.455,13478.177 Z M 14705.319,13239.359 H 14741.311 C 14766.538,13239.359 14787.392,13260.214 14787.392,13285.441 V 13285.441 C 14787.392,13310.669 14766.538,13331.523 14741.311,13331.523 H 14705.319 C 14689.51,13331.523 14675.719,13323.45 14667.311,13311.005 V 13259.877 C 14675.719,13247.769 14689.51,13239.359 14705.319,13239.359 Z M 14723.483,13478.514 C 14748.711,13478.514 14768.892,13498.696 14768.892,13523.923 14768.892,13549.15 14748.711,13569.669 14723.483,13569.669 14698.256,13569.669 14677.738,13549.15 14677.738,13523.923 14677.738,13498.696 14698.256,13478.514 14723.483,13478.514 Z M 12236.746,11583.104 C 11773.91,11583.104 11394.492,11962.523 11394.492,12425.359 V 13841.45 C 11394.492,14304.287 11773.91,14683.706 12236.746,14683.706 H 13652.837 C 14115.674,14683.706 14495.093,14304.287 14495.093,13841.45 V 12425.359 C 14495.093,11962.523 14115.674,11583.104 13652.837,11583.104 Z"
     id="path1"
     style="fill:#003399;stroke:none;stroke-width:10.7404;stroke-dasharray:none"
     sodipodi:nodetypes="cssssccssscsssscsssscsssscssccssssssssssssssssccsssssssssssssss" /></g>
 <g
   id="g4"
   transform="translate(108.44467,709.25954)"><path
     style="color:#000000;font-style:normal;font-variant:normal;font-weight:normal;font-stretch:normal;font-size:medium;line-height:normal;font-family:sans-serif;font-variant-ligatures:normal;font-variant-position:normal;font-variant-caps:normal;font-variant-numeric:normal;font-variant-alternates:normal;font-feature-settings:normal;text-indent:0;text-align:start;text-decoration:none;text-decoration-line:none;text-decoration-style:solid;text-decoration-color:#000000;letter-spacing:normal;word-spacing:normal;text-transform:none;writing-mode:lr-tb;direction:ltr;text-orientation:mixed;dominant-baseline:auto;baseline-shift:baseline;text-anchor:start;white-space:normal;shape-padding:0;clip-rule:nonzero;display:inline;overflow:visible;visibility:visible;isolation:auto;mix-blend-mode:normal;color-interpolation:sRGB;color-interpolation-filters:linearRGB;solid-color:#000000;solid-opacity:1;vector-effect:none;fill:#808080;fill-opacity:1;fill-rule:evenodd;stroke:none;stroke-width:535.426;stroke-linecap:butt;stroke-linejoin:miter;stroke-miterlimit:4;stroke-dasharray:none;stroke-dashoffset:0;stroke-opacity:1;color-rendering:auto;image-rendering:auto;shape-rendering:auto;text-rendering:auto;enable-background:accumulate"
     d="M 6480.2044,3032.6358 C 5985.8424,3032.6358 5581.0201,3437.4542 5581.0201,3931.8201 5581.0201,4426.1821 5985.8424,4831.0043 6480.2044,4831.0043 6702.3958,4831.0043 6904.0288,4746.3144 7061.4219,4611.3876 7061.4219,4611.3876 7295.0888,5225.1386 7295.0888,5225.1386 7295.0888,5225.1386 6424.7465,7503.4181 6424.7465,7503.4181 6798.2582,7456.0513 6893.1855,7404.3333 7058.4613,7134.427 7058.4613,7134.427 7562.0348,5926.889 7562.0348,5926.889 7562.0348,5926.889 8030.1146,7157.3511 8030.1146,7157.3511 8118.0521,7452.3062 8349.3337,7457.273 8627.6001,7563.3134 8627.6001,7563.3134 7849.6865,5237.7082 7849.6865,5237.7082 7849.6865,5237.7082 8126.2459,4575.1515 8126.2459,4575.1515 8288.4736,4732.961 8509.1508,4831.0043 8751.8285,4831.0043 9246.19,4831.0043 9651.0116,4426.1821 9651.0116,3931.8201 9651.0116,3437.4542 9246.19,3032.6358 8751.8285,3032.6358 8349.6251,3032.6358 8010.8957,3302.4479 7897.012,3668.573 7897.012,3668.573 7892.5825,3662.6668 7892.5825,3662.6668 7892.5825,3662.6668 7588.6626,4458.3255 7588.6626,4458.3255 7588.6626,4458.3255 7364.6079,3789.855 7364.6079,3789.855 7295.543,3362.7595 6925.9386,3032.6472 6480.212,3032.6472 6480.212,3032.6472 6480.2044,3032.6358 6480.2044,3032.6358 M 6480.2044,3411.2397 C 6769.9537,3411.2397 7000.7847,3642.067 7000.7847,3931.8201 7000.7847,4221.5695 6769.9537,4452.4005 6480.2044,4452.4005 6190.4551,4452.4005 5959.624,4221.5695 5959.624,3931.8201 5959.624,3642.067 6190.4551,3411.2397 6480.2044,3411.2397 6480.2044,3411.2397 6480.2044,3411.2397 6480.2044,3411.2397 M 8751.8285,3411.2397 C 9041.5775,3411.2397 9272.4084,3642.067 9272.4084,3931.8201 9272.4084,4221.5695 9041.5775,4452.4005 8751.8285,4452.4005 8462.0781,4452.4005 8231.2472,4221.5695 8231.2472,3931.8201 8231.2472,3642.067 8462.0781,3411.2397 8751.8285,3411.2397 8751.8285,3411.2397 8751.8285,3411.2397 8751.8285,3411.2397"
     id="path3"
     inkscape:connector-curvature="0" /><path
     id="object6139-3"
     style="fill:none;stroke:#000000;stroke-width:151.095;stroke-linecap:round;stroke-linejoin:round;stroke-dasharray:none"
     d="M 2297.2022,9493.584 2351.1501,9647.4813 2405.0979,9801.3803 2351.1501,9647.4813 2297.2022,9493.584 2656.8539,10519.57 2663.2439,9369.7604 3022.8956,10395.746 3029.2861,9245.9364 3388.9386,10271.921 3395.3292,9122.111 3754.9809,10148.097 3761.3721,8998.2858 4121.0239,10024.271 4127.4134,8874.4622 4487.0656,9900.4473 4493.4566,8750.6374 4853.109,9776.6223 4859.4993,8626.8126 5219.1512,9652.7993 5225.5417,8502.9882 5585.1939,9528.9753 5591.5842,8379.1636 5951.2361,9405.1497 5957.6266,8255.3389 6317.2783,9281.325 6323.669,8131.5144 6683.321,9157.5007 6689.7114,8007.6898 7049.3636,9033.6767 6986.7688,7907.2015 7346.4208,8933.1881 7292.4728,8779.2899 7238.525,8625.3915 7292.4728,8779.2899 7346.4208,8933.1881"
     inkstitch:stroke_method="manual_stitch" /><path
     id="path4"
     style="fill:none;stroke:#000000;stroke-width:151.095;stroke-linecap:round;stroke-linejoin:round;stroke-dasharray:none"
     d="M 7963.1914,7888.9202 7907.2833,8042.1165 7851.3743,8195.3138 7907.2833,8042.1165 7963.1914,7888.9202 7590.4684,8910.2302 8324.7175,8025.3672 7951.9943,9046.6777 8686.2438,8161.8149 8313.5224,9183.1245 9047.7719,8298.2618 8675.0488,9319.5721 9409.3002,8434.7089 9036.5769,9456.019 9770.8255,8571.156 9398.103,9592.4653 10132.354,8707.6034 9759.6313,9728.9133 10493.881,8844.0508 10121.158,9865.3613 10855.407,8980.498 10482.685,10001.808 11216.934,9116.9452 10844.212,10138.255 11578.462,9253.3928 11205.739,10274.702 11939.989,9389.8396 11567.266,10411.15 12301.515,9526.2863 11928.792,10547.597 12594.908,9637.0193 12222.186,10658.33 12278.094,10505.132 12334.003,10351.935 12278.094,10505.132 12222.186,10658.33"
     inkstitch:stroke_method="manual_stitch" /></g></g>
</svg>
