<?xml version="1.0" encoding="UTF-8" standalone="no"?>
<svg
   xml:space="preserve"
   width="99.999901mm"
   height="100mm"
   version="1.1"
   style="clip-rule:evenodd;fill-rule:evenodd;image-rendering:optimizeQuality;shape-rendering:geometricPrecision;text-rendering:geometricPrecision"
   viewBox="0 0 15109 15109.485"
   id="svg5"
   sodipodi:docname="duplicate_params.svg"
   inkscape:version="1.4 (e7c3feb100, 2024-10-09)"
   xmlns:inkscape="http://www.inkscape.org/namespaces/inkscape"
   xmlns:sodipodi="http://sodipodi.sourceforge.net/DTD/sodipodi-0.dtd"
   xmlns="http://www.w3.org/2000/svg"
   xmlns:svg="http://www.w3.org/2000/svg"><defs
   id="defs1"><marker
     style="overflow:visible"
     id="ArrowTriangleStylized"
     refX="0"
     refY="0"
     orient="auto-start-reverse"
     inkscape:stockid="Stylized triangle arrow"
     markerWidth="1"
     markerHeight="1"
     viewBox="0 0 1 1"
     inkscape:isstock="true"
     inkscape:collect="always"
     preserveAspectRatio="xMidYMid"><path
       transform="scale(0.5)"
       style="fill:context-stroke;fill-rule:evenodd;stroke:context-stroke;stroke-width:1pt"
       d="m 6,0 c -3,1 -7,3 -9,5 0,0 0,-4 2,-5 -2,-1 -2,-5 -2,-5 2,2 6,4 9,5 z"
       id="path4" /></marker></defs><sodipodi:namedview
   id="namedview5"
   pagecolor="#ffffff"
   bordercolor="#000000"
   borderopacity="0.25"
   inkscape:showpageshadow="2"
   inkscape:pageopacity="0.0"
   inkscape:pagecheckerboard="0"
   inkscape:deskcolor="#d1d1d1"
   inkscape:document-units="mm"
   inkscape:zoom="1.0097187"
   inkscape:cx="126.76798"
   inkscape:cy="215.90172"
   inkscape:window-width="1920"
   inkscape:window-height="1131"
   inkscape:window-x="0"
   inkscape:window-y="32"
   inkscape:window-maximized="1"
   inkscape:current-layer="g4"
   showgrid="false" />
 <g
   id="Layer_x0020_1"
   inkscape:label="Layer 1"
   inkscape:groupmode="layer">
  <g
   id="g6"
   transform="matrix(3.72213,0,0,3.72213,-40581.951,-41363.2)"
   style="opacity:1;stroke-width:0.268663"><path
     class="fil1"
     d="M 14667.311,12672.251 C 14670.674,12694.45 14689.847,12711.269 14712.719,12711.269 V 12711.269 C 14737.947,12711.269 14758.801,12690.75 14758.801,12665.186 V 12616.75 C 14758.801,12604.305 14764.856,12593.877 14775.283,12587.15 14786.047,12580.759 14798.492,12580.423 14809.256,12586.478 14837.174,12600.941 14855.674,12628.523 14855.674,12664.514 V 13602.296 C 14855.674,13651.741 14814.974,13692.441 14765.528,13692.441 H 14667.311 V 13841.45 C 14667.311,14399.478 14210.865,14855.923 13652.837,14855.923 H 12236.746 C 11678.719,14855.923 11221.937,14399.478 11221.937,13841.45 V 13706.232 H 11125.737 C 11074.946,13706.232 11033.573,13664.86 11033.573,13614.405 V 12679.986 C 11033.573,12629.532 11074.946,12588.159 11125.737,12588.159 H 11221.937 V 12425.359 C 11221.937,11867.331 11678.719,11410.886 12236.746,11410.886 H 13652.837 C 14210.865,11410.886 14667.311,11867.331 14667.311,12425.359 Z M 11150.292,13239.359 H 11186.282 C 11200.746,13239.359 11213.528,13246.423 11221.937,13256.85 V 13314.032 C 11213.528,13324.796 11200.746,13331.523 11186.282,13331.523 H 11150.292 C 11125.065,13331.523 11104.546,13310.669 11104.546,13285.441 V 13285.441 C 11104.546,13260.214 11125.065,13239.359 11150.292,13239.359 Z M 11168.455,13478.177 C 11193.683,13478.177 11214.201,13498.696 11214.201,13523.923 11214.201,13549.486 11193.683,13570.005 11168.455,13570.005 11142.892,13570.005 11122.374,13549.486 11122.374,13523.923 11122.374,13498.696 11142.892,13478.177 11168.455,13478.177 Z M 14705.319,13239.359 H 14741.311 C 14766.538,13239.359 14787.392,13260.214 14787.392,13285.441 V 13285.441 C 14787.392,13310.669 14766.538,13331.523 14741.311,13331.523 H 14705.319 C 14689.51,13331.523 14675.719,13323.45 14667.311,13311.005 V 13259.877 C 14675.719,13247.769 14689.51,13239.359 14705.319,13239.359 Z M 14723.483,13478.514 C 14748.711,13478.514 14768.892,13498.696 14768.892,13523.923 14768.892,13549.15 14748.711,13569.669 14723.483,13569.669 14698.256,13569.669 14677.738,13549.15 14677.738,13523.923 14677.738,13498.696 14698.256,13478.514 14723.483,13478.514 Z M 12236.746,11583.104 C 11773.91,11583.104 11394.492,11962.523 11394.492,12425.359 V 13841.45 C 11394.492,14304.287 11773.91,14683.706 12236.746,14683.706 H 13652.837 C 14115.674,14683.706 14495.093,14304.287 14495.093,13841.45 V 12425.359 C 14495.093,11962.523 14115.674,11583.104 13652.837,11583.104 Z"
     id="path1"
     style="fill:#003399;stroke:none;stroke-width:10.7404;stroke-dasharray:none"
     sodipodi:nodetypes="cssssccssscsssscsssscsssscssccssssssssssssssssccsssssssssssssss" /></g>
 <g
   id="g2"
   transform="matrix(160.06796,0,0,160.06796,2518.0056,2592.6357)"
   style="clip-rule:evenodd;fill-rule:evenodd;stroke-width:0.249752;image-rendering:optimizeQuality;shape-rendering:geometricPrecision;text-rendering:geometricPrecision"><rect
     style="fill:#000000;fill-rule:evenodd;stroke:none;stroke-width:0.249752;stroke-miterlimit:5.5;stroke-dasharray:none"
     id="rect1-5"
     width="0.61187506"
     height="21"
     x="44.194061"
     y="21" /><circle
     style="fill:#ffffff;fill-rule:evenodd;stroke:#000000;stroke-width:0.943942;stroke-miterlimit:5.5;stroke-dasharray:none"
     id="path1-9"
     cx="44.5"
     cy="22.5"
     r="2.5" /><rect
     style="fill:#000000;fill-rule:evenodd;stroke:none;stroke-width:0.249752;stroke-miterlimit:5.5;stroke-dasharray:none"
     id="rect2-0"
     width="0.61187506"
     height="21"
     x="52.194061"
     y="21" /><circle
     style="fill:#ffffff;fill-rule:evenodd;stroke:#000000;stroke-width:0.943942;stroke-miterlimit:5.5;stroke-dasharray:none"
     id="circle2"
     cx="52.5"
     cy="32.5"
     r="2.5" /><rect
     style="fill:#000000;fill-rule:evenodd;stroke:none;stroke-width:0.249752;stroke-miterlimit:5.5;stroke-dasharray:none"
     id="rect3-9"
     width="0.61187506"
     height="21"
     x="60.194061"
     y="21" /><circle
     style="fill:#ffffff;fill-rule:evenodd;stroke:#000000;stroke-width:0.943942;stroke-miterlimit:5.5;stroke-dasharray:none"
     id="circle3"
     cx="60.5"
     cy="28.5"
     r="2.5" /></g><g
   id="g4"
   transform="translate(-223.07435,527.09296)"><rect
     style="fill:none;stroke:#000000;stroke-width:226.64227333;stroke-dasharray:none;stroke-opacity:1"
     id="rect1"
     width="3682.0925"
     height="4909.4565"
     x="3365.1179"
     y="3919.647" /><path
     id="rect2"
     style="fill:#ffffff;stroke:#000000;stroke-width:226.64227333;stroke-dasharray:none;stroke-opacity:1"
     d="M 4830.0366,5226.1958 H 8512.1292 V 10135.652 H 4830.0366 Z" /><path
     style="fill:none;fill-opacity:1;stroke:#ffffff;stroke-width:438.17506161;stroke-linecap:round;stroke-dasharray:none;stroke-opacity:1;marker-end:url(#ArrowTriangleStylized)"
     d="M 4117.3737,6453.5598 C 4144.7365,6435.3179 4077.7277,7878.9218 6136.5858,7878.8861"
     id="path3"
     sodipodi:nodetypes="cc" /><path
     style="fill:none;fill-opacity:1;stroke:#808080;stroke-width:226.64227333;stroke-linecap:round;stroke-dasharray:none;stroke-opacity:1;marker-end:url(#ArrowTriangleStylized)"
     d="M 4117.3737,6453.5598 C 4144.7365,6435.3179 4077.7277,7878.9218 6136.5858,7878.8861"
     id="path2"
     sodipodi:nodetypes="cc" /></g></g>
</svg>
