<?xml version="1.0" encoding="UTF-8" standalone="no"?>
<svg
   xml:space="preserve"
   width="99.999901mm"
   height="100mm"
   version="1.1"
   style="clip-rule:evenodd;fill-rule:evenodd;image-rendering:optimizeQuality;shape-rendering:geometricPrecision;text-rendering:geometricPrecision"
   viewBox="0 0 15109 15109.485"
   id="svg5"
   sodipodi:docname="fill_knockdown.svg"
   inkscape:version="1.4 (e7c3feb100, 2024-10-09)"
   xmlns:inkscape="http://www.inkscape.org/namespaces/inkscape"
   xmlns:sodipodi="http://sodipodi.sourceforge.net/DTD/sodipodi-0.dtd"
   xmlns="http://www.w3.org/2000/svg"
   xmlns:svg="http://www.w3.org/2000/svg"
   xmlns:inkstitch="http://inkstitch.org/namespace"><sodipodi:namedview
     id="namedview5"
     pagecolor="#ffffff"
     bordercolor="#000000"
     borderopacity="0.25"
     inkscape:showpageshadow="2"
     inkscape:pageopacity="0.0"
     inkscape:pagecheckerboard="0"
     inkscape:deskcolor="#d1d1d1"
     inkscape:document-units="mm"
     inkscape:zoom="1.78"
     inkscape:cx="271.06742"
     inkscape:cy="188.48315"
     inkscape:window-width="1920"
     inkscape:window-height="1131"
     inkscape:window-x="0"
     inkscape:window-y="32"
     inkscape:window-maximized="1"
     inkscape:current-layer="Layer_x0020_1"
     showgrid="false" /><metadata
     id="metadata4" /><defs
     id="defs1" /><g
     id="Layer_x0020_1"
     inkscape:label="Layer 1"
     inkscape:groupmode="layer"><g
       id="g6"
       transform="matrix(3.72213,0,0,3.72213,-40581.951,-41363.2)"
       style="opacity:1;stroke-width:0.268663"><path
         class="fil1"
         d="M 14667.311,12672.251 C 14670.674,12694.45 14689.847,12711.269 14712.719,12711.269 V 12711.269 C 14737.947,12711.269 14758.801,12690.75 14758.801,12665.186 V 12616.75 C 14758.801,12604.305 14764.856,12593.877 14775.283,12587.15 14786.047,12580.759 14798.492,12580.423 14809.256,12586.478 14837.174,12600.941 14855.674,12628.523 14855.674,12664.514 V 13602.296 C 14855.674,13651.741 14814.974,13692.441 14765.528,13692.441 H 14667.311 V 13841.45 C 14667.311,14399.478 14210.865,14855.923 13652.837,14855.923 H 12236.746 C 11678.719,14855.923 11221.937,14399.478 11221.937,13841.45 V 13706.232 H 11125.737 C 11074.946,13706.232 11033.573,13664.86 11033.573,13614.405 V 12679.986 C 11033.573,12629.532 11074.946,12588.159 11125.737,12588.159 H 11221.937 V 12425.359 C 11221.937,11867.331 11678.719,11410.886 12236.746,11410.886 H 13652.837 C 14210.865,11410.886 14667.311,11867.331 14667.311,12425.359 Z M 11150.292,13239.359 H 11186.282 C 11200.746,13239.359 11213.528,13246.423 11221.937,13256.85 V 13314.032 C 11213.528,13324.796 11200.746,13331.523 11186.282,13331.523 H 11150.292 C 11125.065,13331.523 11104.546,13310.669 11104.546,13285.441 V 13285.441 C 11104.546,13260.214 11125.065,13239.359 11150.292,13239.359 Z M 11168.455,13478.177 C 11193.683,13478.177 11214.201,13498.696 11214.201,13523.923 11214.201,13549.486 11193.683,13570.005 11168.455,13570.005 11142.892,13570.005 11122.374,13549.486 11122.374,13523.923 11122.374,13498.696 11142.892,13478.177 11168.455,13478.177 Z M 14705.319,13239.359 H 14741.311 C 14766.538,13239.359 14787.392,13260.214 14787.392,13285.441 V 13285.441 C 14787.392,13310.669 14766.538,13331.523 14741.311,13331.523 H 14705.319 C 14689.51,13331.523 14675.719,13323.45 14667.311,13311.005 V 13259.877 C 14675.719,13247.769 14689.51,13239.359 14705.319,13239.359 Z M 14723.483,13478.514 C 14748.711,13478.514 14768.892,13498.696 14768.892,13523.923 14768.892,13549.15 14748.711,13569.669 14723.483,13569.669 14698.256,13569.669 14677.738,13549.15 14677.738,13523.923 14677.738,13498.696 14698.256,13478.514 14723.483,13478.514 Z M 12236.746,11583.104 C 11773.91,11583.104 11394.492,11962.523 11394.492,12425.359 V 13841.45 C 11394.492,14304.287 11773.91,14683.706 12236.746,14683.706 H 13652.837 C 14115.674,14683.706 14495.093,14304.287 14495.093,13841.45 V 12425.359 C 14495.093,11962.523 14115.674,11583.104 13652.837,11583.104 Z"
         id="path1"
         style="fill:#003399;stroke:none;stroke-width:10.7404;stroke-dasharray:none"
         sodipodi:nodetypes="cssssccssscsssscsssscsssscssccssssssssssssssssccsssssssssssssss" /></g><path
       d="M 4551.8546,2691.8225 4287.7794,2741.7244 3892.0029,2867.5322 3521.5746,3048.2484 3181.9173,3280.2074 2878.5251,3559.7942 2650.9841,3835.3874 2430.1648,4193.4569 2316.4048,4441.39 2202.2329,4788.3617 2127.5629,5200.1122 2112.0471,5465.2383 2137.2734,5876.6524 2221.6034,6279.1968 2363.7971,6666.4819 2562.6059,7031.8657 2777.6452,7323.1807 2963.1662,7523.1918 3240.0122,7761.4144 3462.0505,7912.873 3777.7469,8080.3896 4023.5361,8178.0411 4364.7908,8272.0774 4624.7884,8314.0302 4938.9715,8331.5595 5066.1328,8592.3978 5304.9859,8971.9901 5501.8442,9218.9143 5825.6117,9542.6817 6072.5358,9739.5401 6452.1281,9978.3511 6730.8741,10113.415 7147.7951,10261.679 7636.2627,10363.072 7942.753,10389.975 8444.6304,10374.716 8886.6894,10299.302 9190.1531,10211.908 9613.1694,10036.698 9889.5613,9883.8944 10300.471,9587.4509 10486.904,9418.7573 10783.432,9090.3237 10963.265,8841.2557 11181.352,8457.1655 11384.138,7935.4467 11483.639,7498.1799 11514.62,7243.6892 11526.853,6935.3492 11507.095,6584.9725 11453.036,6244.012 11366.314,5914.6957 11263.955,5635.0249 11092.57,5282.8406 10917.403,5001.6144 10716.888,4739.557 10304.969,4327.5963 9979.6042,4084.3714 9462.8458,3803.8598 9129.8302,3678.1698 8631.3158,3560.2566 8109.1767,3517.6733 7604.8192,3552.0174 7103.4883,3662.0697 6771.9861,3331.5344 6550.3261,3162.6305 6314.3735,3016.973 5994.3894,2865.7666 5539.341,2727.4782 5264.7567,2682.6417 4916.1034,2664.5196 4551.8546,2691.8225"
       inkscape:label="Knockdown 8855"
       inkstitch:row_spacing_mm="2.6"
       inkstitch:fill_underlay_angle="60 -60"
       inkstitch:fill_underlay_max_stitch_length_mm="3"
       inkstitch:fill_underlay_row_spacing_mm="2.6"
       inkstitch:underlay_underpath="False"
       inkstitch:underpath="False"
       inkstitch:staggers="2"
       id="path4"
       style="clip-rule:evenodd;fill-rule:evenodd;image-rendering:optimizeQuality;shape-rendering:geometricPrecision;text-rendering:geometricPrecision;stroke-width:44.2021;stroke:#f80000;fill:none"
       transform="matrix(0.95101391,0,0,0.95101391,1114.35,1312.15)" /><path
       id="object9105"
       style="clip-rule:evenodd;fill-rule:evenodd;image-rendering:optimizeQuality;shape-rendering:geometricPrecision;text-rendering:geometricPrecision;stroke:#f80000;stroke-width:0.4;fill:none;stroke-linejoin:round;stroke-linecap:round;stroke-opacity:1"
       d="M78.33415598140438 159.1244114784814 78.37072767521555 161.95882121979332 78.40729936902673 164.79323096110525 78.37072767521555 161.95882121979332 78.33415598140438 159.1244114784814 78.4525973117652 168.30394968313763 79.71763766822542 177.39521787374446 82.2039178662447 186.22842319403458 85.86421699333795 194.6403195164903 90.60116927811805 202.49301517231413 96.35923162969799 209.62732814709977 103.08670411874392 215.85253285458964 110.51958725614844 221.211447780545 118.66093465648936 225.40892436137398 127.3185382040199 228.39453479177567 136.26092232481056 230.33862169713137 145.3658846449 231.0187912555 149.51263046005008 239.00650144614477 154.3467053810722 246.59724828071248 160.12462469843942 253.49652605293943 166.49078707366948 259.85601428824305 173.63206819054778 265.33075815351606 181.2479098049111 270.12207556344856 189.40916964627897 273.9104263946066 197.88582990791602 276.9248628478171 206.69401906506658 278.75691029380243 215.62027150067823 279.8802852377513 224.61372871738286 279.74884886993885 233.5569787539976 278.80454831710114 242.34983286820687 276.94376252569015 250.82236746919247 273.9577437614699 258.9911708879831 270.2370281651736 266.5647199429 265.4715931148 272.3589688594507 255.44153040056648 278.0282601980334 245.6220297592311 283.69755153661606 235.80252911789574 289.36684287519876 225.98302847656038 295.03613421378145 216.163527835225 300.7054255523641 206.34402719388964 301.8206354046028 204.41242706871085 301.93615258049255 195.2045536435585 301.0715659359502 186.05631013972916 295.0298373324981 196.52089104645032 289.3605459939155 206.34039168778568 283.6912546553328 216.15989232912105 278.0219633167501 225.97939297045642 272.35267197816745 235.79889361179178 266.68338063958475 245.61839425312715 261.01408930100206 255.43789489446254 255.3447979624194 265.2573955357979 250.1642788250296 274.2303178913399 243.41165835964455 276.6379673744726 236.46254937221497 278.3088661480911 238.33062706538806 275.0732606710293 243.99991840397072 265.2537600296939 249.66920974255342 255.43425938835856 255.3385010811361 245.6147587470232 261.0077924197188 235.79525810568782 266.6770837583015 225.97575746435245 272.3463750968841 216.1562568230171 278.0156664354668 206.33675618168172 283.6849577740495 196.51725554034635 289.3542491126322 186.697754899011 295.02354045121484 176.87825425767562 297.7578015074947 172.14237518704195 295.5993884451016 166.4004440097523 292.9163271587 160.8869077191 289.34795223134887 167.0551181102363 283.6786608927662 176.87461875157166 278.00936955418354 186.69411939290703 272.34007821560084 196.5136200342424 266.67078687701814 206.33312067557776 261.00149553843545 216.15262131691313 255.3322041998528 225.9721219582485 249.66291286127012 235.7916225995839 243.99362152268742 245.61112324091926 238.32433018410475 255.43062388225462 232.65503884552206 265.25012452359 226.9857475069394 275.06962516492536 224.278308447375 279.75904717448736 218.63449917642217 279.93064469230507 213.003603445 279.6505955442 215.64086794849072 275.06598965882137 221.3101592870734 265.246489017486 226.97945062565609 255.42698837615063 232.64874196423875 245.60748773481527 238.31803330282145 235.7879870934799 243.98732464140411 225.96848645214453 249.65661597998678 216.14898581080917 255.32590731856948 206.3294851694738 260.9951986571522 196.50998452813843 266.66448999573487 186.69048388680307 272.33378133431756 176.8709832454677 278.0030726729002 167.05148260413233 283.6723640114829 157.23198196279694 287.14109127389247 151.22397010670426 283.9568137857099 147.0623797794011 280.4384998578 143.1933157419 277.9967757916169 147.4088458153576 272.32748445303423 157.22834645669298 266.65819311445154 167.04784709802834 260.9889017758689 176.8673477393637 255.3196104372862 186.68684838069908 249.6503190987035 196.50634902203444 243.98102776012084 206.3258496633698 238.31173642153814 216.14535030470518 232.64244508295548 225.96485094604057 226.97315374437278 235.78435158737594 221.30386240579008 245.60385222871133 215.63457106720742 255.4233528700467 209.96527972862475 265.24285351138207 204.29598839004206 275.06235415271743 202.64783935133644 277.91703202620135 197.6851567063051 276.8535002361923 192.9051829014 275.1536648248 198.62040017017608 265.2392180052781 204.28969150875878 255.4197173639427 209.95898284734145 245.60021672260734 215.62827418592414 235.78071608127198 221.2975655245068 225.9612154399366 226.9668568630895 216.14171479860124 232.63614820167217 206.32221415726588 238.30543954025484 196.5027135159305 243.97473087883753 186.68321287459514 249.64402221742023 176.86371223325975 255.3133135560029 167.04421159192438 260.98260489458556 157.22471095058899 266.65189623316826 147.40521030925362 272.32118757175095 137.58570966791825 273.2400726867623 135.99415396239982 269.3037433562611 132.9949276147369 265.3425313554 130.0337425196 260.9763080133023 137.58207416181432 255.30701667471962 147.40157480314969 249.63772533613692 157.22107544448505 243.96843399755426 167.04057608582042 238.29914265897156 176.86007672715579 232.6298513203889 186.67957736849115 226.96055998180623 196.49907800982652 221.29126864322353 206.31857865116189 215.62197730464084 216.13807929249725 209.95268596605817 225.95757993383262 204.28339462747547 235.777080575168 198.6141032888928 245.59658121650338 192.9448119503101 255.41608185783875 187.27552061172742 265.23558249917414 183.74595954497465 271.3489615952069 179.43705410265343 268.9828207190906 175.2824862165 266.3690776226 175.9306410532788 265.2319469930701 181.59993239186147 255.41244635173473 187.26922373044417 245.59294571039936 192.93851506902683 235.773445069064 198.6078064076095 225.95394442772863 204.2770977461922 216.13444378639326 209.94638908477486 206.3149431450579 215.61568042335756 196.49544250372253 221.28497176194023 186.67594186238716 226.95426310052292 176.8564412210518 232.6235544391056 167.0369405797164 238.29284577768829 157.21743993838103 243.96213711627098 147.39793929704564 249.63142845485365 137.57843865571027 255.30071979343631 127.7589380143749 256.7029233534702 125.33025020584225 252.30503614875028 123.05505193582499 247.67784011728347 121.30860960636925 243.95584023498765 127.755302508271 238.28654889640495 137.57480314960637 232.61725755782228 147.39430379094173 226.9479662192396 157.2138044322771 221.27867488065692 167.03330507361247 215.60938354207423 176.8528057149478 209.94009220349156 186.6723063562832 204.27080086490886 196.49180699761857 198.6015095263262 206.31130763895393 192.9322181877435 216.13080828028933 187.2629268491608 225.9503089216247 181.59363551057814 235.76980956296006 175.92434417199547 245.58931020429543 170.25505283341278 255.4088108456308 167.31026358173685 260.50933544711626 163.63968949610478 257.01159085060476 160.0583074734 253.4302088279 164.57946461354683 245.58567469819144 170.2487559521295 235.76617405685607 175.9180472907122 225.9466734155207 181.58733862929486 216.12717277418534 187.25662996787756 206.30767213284997 192.92592130646022 196.4881714915146 198.59521264504292 186.66867085017924 204.2645039836256 176.84917020884387 209.93379532220828 167.0296695675085 215.60308666079095 157.2101689261731 221.27237799937365 147.39066828483774 226.94166933795634 137.57116764350235 232.610960676539 127.751667002167 237.88153894142994 118.6227576621077 232.71469940748736 117.47614081872831 227.4447032657355 117.04634401557125 221.2660811180903 127.74803149606305 215.59678977950765 137.56753213739842 209.92749844092498 147.38703277873378 204.25820710234228 157.20653342006915 198.58891576375962 167.02603406140452 192.91962442517692 176.84553470273988 187.25033308659425 186.66503534407525 181.58104174801156 196.48453598541062 175.91175040942886 206.304036626746 170.2424590708462 216.1235372680814 164.57316773226353 225.94303790941677 158.90387639368083 235.76253855075214 153.43345387610793 245.23758829005723 150.44544651370626 240.48895990523332 147.62283361074756 235.64833450606412 153.22828817381486 225.93940240331276 158.89757951239753 216.11990176197742 164.56687085098022 206.30040112064202 170.2361621895629 196.48090047930665 175.90545352814559 186.6613998379713 181.57474486672825 176.84189919663595 187.24403620531092 167.02239855530058 192.91332754389362 157.2028979139652 198.5826188824763 147.38339727262982 204.251910221059 137.56389663129443 209.92120155964167 127.74439598995906 215.59049289822434 117.92489534862369 216.2326922442379 116.81257345274071 210.06143887522902 117.23280299121406 203.9929108612 118.371356041 198.576322001193 127.74076048385511 192.9070306626103 137.56026112519046 187.23773932402764 147.37976176652583 181.56844798544495 157.1992624078612 175.89915664686228 167.01876304919656 170.2298653082796 176.83826369053193 164.56057396969692 186.65776433186733 158.89128263111422 196.4772649732027 153.22199129253156 206.29676561453806 147.55269995394886 216.11626625587343 141.8834086153662 225.9357668972088 139.14898407622098 230.6719291284714 133.96323420085275 229.96787105078465 128.87002597023945 228.82206350981676 130.53852905691753 225.93213139110483 136.2078203955002 216.11263074976947 141.8771117340829 206.2931301084341 147.54640307266556 196.47362946709873 153.21569441124825 186.65412882576337 158.88498574983092 176.834628184428 164.55427708841358 167.0151275430926 170.22356842699628 157.19562690175724 175.89285976557898 147.37612626042187 181.56215110416164 137.5566256190865 187.2314424427443 127.73712497775112 192.900733781327 117.91762433641576 193.6058420017973 116.69634107372673 190.040763093851 113.14165993589208 186.1682253724 109.9392823261 181.55585422287837 117.9139888303118 175.8865628842957 127.73348947164716 170.217271545713 137.5529901129825 164.54798020713034 147.37249075431788 158.87868886854764 157.19199139565325 153.20939752996497 167.0114920369886 147.54010619138228 176.83099267832398 141.8708148527996 186.65049331965935 136.20152351421692 196.4699939609947 130.53223217563425 206.2894946023301 124.86294083705155 216.10899524366548 119.33825950511338 225.67802400620968 114.90279107443818 223.53728895440852 110.55822349234136 221.23194916552865 113.51806127860289 216.10535973756149 119.18735261718557 206.28585909622612 124.85664395576825 196.46635845489075 130.52593529435092 186.64685781355539 136.1952266329336 176.82735717222 141.86451797151628 167.00785653088462 147.53380931009895 157.18835588954926 153.20310064868164 147.3688552482139 158.87239198726434 137.54935460687852 164.541683325847 127.72985396554316 170.21097466442967 117.91035332420778 175.88026600301237 108.09085268287241 177.93993883462264 104.52339469155416 173.46570905741643 102.40912715233303 168.90520487282072 100.51846963917657 164.53538644456373 108.08721717676848 158.86609510598103 117.90671781810384 153.19680376739836 127.72621845943921 147.52751242881567 137.5457191007746 141.858221090233 147.36521974210996 136.18892975165033 157.18472038344532 130.51963841306764 167.0042210247807 124.85034707448497 176.82372166611606 119.18105573590229 186.64322230745142 113.51176439731961 196.4627229487868 107.84247305873693 206.28222359012216 102.57250700297212 215.4100725528702 98.73436298500043 212.10739677320262 95.25285508478882 208.43453826179598 96.49759350028825 206.2785880840182 102.16688483887093 196.45908744268283 107.83617617745361 186.63958680134746 113.50546751603628 176.8200861600121 119.17475885461896 167.00058551867673 124.84405019320164 157.18108487734136 130.5133415317843 147.361584236006 136.182632870367 137.54208359467063 141.85192420894967 127.72258295333525 147.52121554753236 117.90308231199988 153.19050688611503 108.0835816706645 158.85979822469773 98.26408102932913 153.9361645665899 96.77252583757895 148.5967090978 96.4036883404 147.51491866624906 98.26044552322516 141.8456273276664 108.07994616456052 136.1763359890837 117.89944680589589 130.50704465050103 127.71894744723126 124.83775331191835 137.53844808856664 119.16846197333567 147.357948729902 113.499170634753 157.17744937123734 107.8298792961703 166.9969500125727 102.16058795758764 176.8164506539081 96.49129661900494 186.63595129524347 90.82200528042226 196.45545193657887 88.77808762931811 199.9956211547781 85.9791702468337 194.85158810857223 83.43839425645851 189.59069806632314 85.1464170605563 186.6323157891395 90.81570839913898 176.81281514780414 96.48499973772167 166.99331450646878 102.15429107630433 157.1738138651334 107.82358241488703 147.35431322379804 113.4928737534697 137.53481258246268 119.16216509205238 127.71531194112731 124.83145643063506 117.89581129979193 130.50074776921775 108.07631065845656 136.17003910780042 98.25681001712118 137.0153821486019 96.79263292062826 130.32200251598485 97.95959260958175 123.83794395074199 99.96308208583388 119.15586821076909 108.07267515235259 113.4865768721864 117.89217579368795 107.81728553360372 127.71167643502332 102.14799419502106 137.5311770763587 96.47870285643836 147.35067771769405 90.8094115178557 157.17017835902945 85.140120179273 166.98967900036482 79.56184258150469 176.65153921842278 78.4309749100883 167.9513110475737 78.33082355911118 159.18135427826869 79.57859511102308 150.50224548682215 81.81094560923046 142.02516717110498 85.08035469764306 133.8960475972945 89.52619232420332 126.349728978044 94.8113074456679 119.36925180666795 101.01666202942975 113.20494216450915 107.912612946 107.8867872229 102.14169731373774 117.888540287584 96.47240597515506 127.70804092891936 90.80311463657237 137.52754157025473 85.1338232979897 147.3470422115901 79.46453195940703 157.16654285292546 78.33415598140438 159.1244114784814 78.45287570062989 168.30848991279694 79.7115876528 177.3663384822 85.02677631617361 186.57778319757992 90.69606765475629 196.39728383891529 96.36535899333897 206.21678448025065 100.78513479180585 213.87206072125858 107.14647985517026 218.9541407762056 114.13399543926823 223.12934613069046 121.51934982478751 226.54456630355975 129.29179233001744 228.9382856515795 137.26799275471114 230.50112069293033 145.3658846449 231.0187912555 149.69522654257392 239.29668846219465 154.77579394384776 247.13546442799813 160.85531711226201 254.22721846676203 167.57194162239412 260.7179561935207 175.09607124241708 266.25179927619206 183.1131882530426 271.0423571372094 191.69588582377455 274.7236193728348 200.6133502833594 277.49472672224573 209.76095395862455 279.36595754239335 219.08161123403468 279.9170504484904 228.41343935289643 279.6333203532621 237.62456998963233 278.1106287015585 246.64108223931206 275.6895927963712 255.26563401752753 272.1173845272917 263.4856120143121 267.69296079895236 271.05527787763026 262.23195991216886 278.0713663954807 256.07591639354314 284.32481832129037 249.14960226030905 289.626134933507 241.47004967102993 294.1372753761965 233.30316000902877 297.5168361764712 224.60835712914331 300.0455134917263 215.62911358116673 301.63296115060905 206.44439231771574 302.0452200082002 197.1387600475533 301.358108914 187.8635808202 300.57948792669816 186.50870858160448 294.91019658811547 176.6892079402691 289.2409052495328 166.86970729893375 283.5716139109501 157.0502066575984 277.90232257236744 147.230706016263 272.23303123378474 137.41120537492768 269.97148733019463 133.49409643036196 264.51335699584337 129.56998206101247 258.60880453623605 126.36481826348555 252.6862776131 123.1989438796 255.21886033675335 127.59534023969623 260.888151675336 137.4148408810316 266.5574430139187 147.23434152236698 272.2267343525014 157.0538421637023 277.89602569108405 166.87334280503768 283.56531702966674 176.69284344637305 289.23460836824944 186.51234408770844 294.90389970683214 196.3318447290438 300.5731910454148 206.15134537037918 301.4778775491931 207.71830835984508 300.1912894339915 214.9884877461819 298.4714142967 222.1524555848 294.8976028255488 215.9744815178185 289.2283114869661 206.15498087648314 283.55902014838347 196.33548023514777 277.8897288098008 186.5159795938124 272.2204374712181 176.69647895247704 266.5511461326354 166.87697831114167 260.88185479405274 157.05747766980627 255.21256345547005 147.2379770284709 249.54327211688735 137.4184763871355 243.87398077830468 127.59897574580016 238.8196702591302 118.84465312936013 232.66445979706538 117.47204350568093 226.3845175311835 116.95988011176436 232.52910121985602 127.60261125190418 238.1983925584387 137.42211189323956 243.86768389702138 147.24161253457493 249.53697523560407 157.0611131759103 255.20626657418674 166.88061381724566 260.8755579127694 176.70011445858103 266.5448492513521 186.5196150999164 272.2141405899348 196.33911574125176 277.88343192851744 206.15861638258713 283.55272326710013 215.9781170239225 289.22201460568283 225.79761766525786 293.9031329693203 233.90555250732172 291.11362783452495 238.8503074511707 288.2432571394 243.7428339081 283.54642638581686 235.6207538126972 277.87713504723416 225.80125317136182 272.2078437086515 215.98175253002645 266.5385523700688 206.16225188869106 260.86926103148613 196.3427512473557 255.19996969290347 186.52325060602035 249.5306783543208 176.70374996468496 243.8613870157381 166.8842493233496 238.1920956771554 157.06474868201423 232.52280433857274 147.24524804067886 226.85351299999007 137.4257473993435 221.18422166140738 127.6062467580081 215.51493032282468 117.78674611667273 209.68207272767836 117.25863580856333 204.456021054 118.2696939175 209.8393421029587 127.60988226411209 215.5086334415414 137.42938290544745 221.17792478012407 147.24888354678282 226.84721611870677 157.0683841881182 232.51650745728944 166.88788482945355 238.18579879587213 176.70738547078892 243.8550901344548 186.5268861121243 249.5243814730375 196.34638675345965 255.19367281162016 206.16588739479505 260.86296415020286 215.98538803613042 266.53225548878555 225.80488867746578 272.20154682736825 235.62438931880115 277.8708381659509 245.44388996013652 281.69318731231203 252.06439288590155 278.2670391294439 255.8591895618961 274.57433156399213 259.3877163451444 272.1952499460849 255.2670261075759 266.5259586075022 245.44752546624053 260.8566672689196 235.62802482490517 255.18737593033688 225.8085241835698 249.5180845917542 215.98902354223443 243.84879325317152 206.16952290089907 238.17950191458885 196.35002225956367 232.51021057600616 186.5305216182283 226.84091923742346 176.71102097689294 221.1716278988408 166.89152033555757 215.50233656025813 157.0720196942222 209.83304522167543 147.2525190528868 204.16375388309274 137.43301841155144 198.49446254451007 127.61351777021605 192.8251712059274 117.79401712888068 190.27258172066422 113.3728024495388 184.72407622388033 108.83884779566762 178.69932646779213 104.97119644376923 172.26931976312414 101.8437813441941 175.81100030889607 107.97815199364935 181.48029164747874 117.79765263498471 187.14958298606143 127.61715327632008 192.8188743246441 137.43665391765546 198.4881656632268 147.25615455899083 204.15745700180946 157.0756552003262 209.82674834039216 166.89515584166156 215.49603967897482 176.71465648299693 221.16533101755752 186.5341571243323 226.8346223561402 196.35365776566766 232.50391369472288 206.17315840700306 238.17320503330558 215.99265904833845 243.84249637188825 225.81215968967382 249.5117877104709 235.6316603310092 255.1810790490536 245.45116097234455 260.8503703876363 255.27066161367992 266.51966172621894 265.09016225501534 262.65959513962196 268.20893354087735 258.3555925586 270.5884087321 255.17478216777027 265.0937977611192 249.50549082918758 255.27429711978385 243.8361994906049 245.4547964784485 238.16690815202224 235.63529583711312 232.49761681343955 225.81579519577775 226.82832547485688 215.9962945544424 221.15903413627422 206.17679391310702 215.48974279769152 196.35729327177162 209.82045145910882 186.53779263043626 204.15116012052616 176.71829198910086 198.4818687819435 166.8987913477655 192.8125774433608 157.07929070643013 187.1432861047781 147.25979006509476 181.47399476619543 137.44028942375937 175.80470342761276 127.620788782424 170.13541208903007 117.80128814108863 164.46612075044737 107.98178749975324 158.7968294118647 98.16228685841787 152.42478668260557 96.60266160377341 146.3771367815 96.288320891 147.45194985341604 98.16592236452189 153.12124119199873 107.98542300585726 158.7905325305814 117.80492364719262 164.4598238691641 127.62442428852799 170.12911520774676 137.44392492986336 175.79840654632943 147.26342557119872 181.46769788491213 157.0829262125341 187.1369892234948 166.90242685386949 192.8062805620775 176.72192749520485 198.47557190066016 186.54142813654022 204.14486323924285 196.36092877787559 209.81415457782555 206.18042941921095 215.48344591640821 215.99993006054632 221.15273725499088 225.81943070188169 226.82202859357358 235.6389313432171 232.49131993215627 245.45843198455248 238.16061127073894 255.27793262588784 243.82990260932164 265.0974332672232 249.3076292375582 274.5851340973019 244.57991800930935 276.3015202472268 239.7540150162526 277.6913321771747 238.15431438945564 274.92056941466257 232.48502305087297 265.1010687733272 226.81573171229027 255.28156813199183 221.1464403737076 245.46206749065647 215.47714903512494 235.6425668493211 209.80785769654224 225.82306620798573 204.13856635795958 216.00356556665037 198.46927501937688 206.184064925315 192.7999836807942 196.36456428397963 187.13069234221155 186.54506364264424 181.46140100362885 176.72556300130887 175.79210966504615 166.90606235997348 170.1228183264635 157.0865617186381 164.45352698788082 147.26706107730274 158.78423564929813 137.44756043596738 153.11494431071543 127.62805979463201 147.44565297213276 117.80855915329661 141.7763616335501 107.98905851196125 136.1070702949674 98.16955787062588 135.42870087858404 96.99458757514904 130.39229414645038 97.94630970691914 125.49201839599897 99.43729196371868 130.43148207510143 107.99269401806522 136.1007734136841 117.81219465940059 141.7700647522668 127.63169530073596 147.43935609084946 137.45119594207134 153.10864742943215 147.2706965834067 158.77793876801482 157.09019722474207 164.4472301065975 166.9096978660774 170.11652144518018 176.7291985074128 175.78581278376288 186.54869914874817 181.45510412234555 196.36819979008357 187.1243954609282 206.18770043141893 192.7936867995109 216.0072010727543 198.4629781380936 225.82670171408967 204.13226947667627 235.64620235542503 209.80156081525894 245.46570299676043 215.47085215384163 255.2852036380958 221.14014349242433 265.1047042794312 226.80943483100702 274.92420492076656 229.45388373376434 279.504524778362 223.90964156832072 279.7702563274457 218.3674880828 279.9387630462 215.4645552725583 274.92784042687043 209.7952639339756 265.10833978553507 204.12597259539294 255.2888391441997 198.45668125681027 245.46933850286433 192.78738991822757 235.64983786152897 187.1180985796449 225.8303372201936 181.4488072410622 216.01083657885823 175.77951590247955 206.19133593752287 170.11022456389685 196.3718352961875 164.44093322531415 186.5523346548521 158.7716418867315 176.73283401351674 153.10235054814882 166.91333337218134 147.43305920956612 157.09383273084597 141.76376787098343 147.2743320895106 136.09447653240076 137.45483144817524 130.4251851938181 127.63533080683987 124.7558938552354 117.81583016550448 119.0866025166527 107.99632952416911 116.25338836175486 103.08905865916272 111.82905838542196 105.24750107500837 107.7491252818 107.9984363481 113.41101429678679 117.81946567160853 119.08030563536946 127.6389663129439 124.74959697395214 137.45846695427926 130.41888831253482 147.27796759561463 136.0881796511175 157.09746823695 141.75747098970018 166.91696887828536 147.42676232828285 176.73646951962075 153.09605366686554 186.55597016095612 158.76534500544824 196.3754708022915 164.4346363440309 206.19497144362686 170.10392768261357 216.01447208496222 175.77321902119627 225.8339727262976 181.44251035977896 235.65347336763298 187.11180169836163 245.47297400896838 192.7810930369443 255.29247465030375 198.450384375527 265.1119752916391 204.1196757141097 274.9314759329745 206.2784937105924 278.67065838717656 199.4948152711201 277.2625488866585 192.9072683553 275.1544064457 187.1055048170783 265.115610797743 181.43621347849563 255.29611015640762 175.76692213991294 245.47660951507225 170.09763080133027 235.6571088737369 164.42833946274757 225.83760823240152 158.7590481241649 216.01810759106615 153.0897567855822 206.1986069497308 147.42046544699954 196.37910630839542 141.75117410841685 186.55960566706003 136.08188276983418 176.74010502572466 130.41259143125149 166.92060438438926 124.7433000926688 157.1011037430539 119.07400875408612 147.28160310171853 113.40471741550344 137.46210246038316 107.73542607692075 127.6426018190478 102.06613473833806 117.8231011777124 99.961328466776 114.17746977527729 96.20128505887742 117.68573775093097 92.92845752487493 121.64972328791647 96.39054651847215 127.64623732515184 102.05983785705482 137.4657379664872 107.7291291956375 147.28523860782258 113.39842053422018 157.10473924915794 119.06771187280286 166.9242398904933 124.73700321138554 176.74374053182868 130.4062945499682 186.56324117316404 136.0755858885509 196.3827418144994 141.7448772271336 206.2022424558348 147.41416856571627 216.02174309717017 153.08345990429893 225.84124373850557 158.75275124288163 235.66074437984093 164.42204258146432 245.4802450211763 170.091333920047 255.29974566251167 175.76062525862966 265.11924630384704 177.16655917891757 267.55439528587016 170.37782802075787 262.9549269125092 164.19723147692295 257.56913283142296 158.44255483966845 251.73477117623855 153.4388259061037 245.24612567669251 149.0766498114916 238.31362829294252 145.3658846449 231.0187912555 141.7385803458503 225.8448792446095 136.0692890072676 216.02537860327413 130.39999766868493 206.20587796193877 124.73070633010225 196.3863773206034 119.06141499151957 186.56687667926803 113.39212365293689 176.74737603793267 107.7228323143542 166.9278753965973 102.05354097577154 157.10837475526193 96.38424963718884 147.28887411392657 90.71495829860616 137.46937347259117 86.82442695191521 130.73077551168308 84.04811191764261 136.1457586003227 81.8814255192 141.8109767524 85.03937007874018 147.2925096200305 90.70866141732286 157.11201026136587 96.37795275590554 166.93151090270123 102.0472440944882 176.7510115440366 107.7165354330709 186.57051218537197 113.38582677165357 196.39001282670733 119.05511811023625 206.2095134680427 124.72440944881893 216.02901410937807 130.3937007874016 225.84851475071343 132.64963736961417 229.7559115297589 125.63625391477723 227.93096372069138 118.83221229917689 225.47697258507216 113.37952989037028 216.03264961548206 107.7102385517876 206.2131489741467 102.04094721320492 196.39364833281132 96.37165587462223 186.57414769147596 90.70236453603955 176.7546470501406 85.03307319745687 166.93514640880522 79.36378185887419 157.11564576746986 78.61459327620803 155.81801307784153 78.3347088491 159.1149643462 78.45206726219712 168.29530513202516 79.71602478042105 177.3875188489627 82.2014767315838 186.2217744109592 85.86120211729116 194.6347785805156 90.59788072287292 202.48856014585562 96.35599978218563 209.62384387672066 103.0837107260888 215.84995707698076 110.51678318309885 221.20995986694945 118.65871166221368 225.40804117072878 127.31700020615709 228.39411098034194 136.2601360640761 230.3384948275739 145.3658846449 231.0187912555 149.15981478077975 238.4457964859511 153.6009158729595 245.50372377607874 158.72182244506178 252.0850632783264 164.61330795906719 257.98520931356717 170.94653294736403 263.40832241323386 177.8937683918251 268.01190088261154 185.18212488109077 272.0448444522343 192.88639352 275.1469830192 204.0944881889764 275.1496062992126 215.43307086614178 275.1496062992126 226.77165354330714 275.1496062992126 238.11023622047247 275.1496062992126 247.94479723952432 275.1496062992126 254.50877782666214 272.43086724651454 260.8431163927286 269.21317692414226 266.7651096405 265.3270255294 255.11811023622053 265.32283464566933 243.77952755905517 265.32283464566933 232.44094488188983 265.32283464566933 221.10236220472447 265.32283464566933 209.7637795275591 265.32283464566933 198.42519685039377 265.32283464566933 187.0866141732284 265.32283464566933 175.74803149606305 265.32283464566933 173.61947370439125 265.32283464566933 167.59035372692102 260.7326350980999 162.1291616376 255.5010629921 170.07874015748033 255.49606299212604 181.4173228346457 255.49606299212604 192.75590551181102 255.49606299212604 204.09448818897638 255.49606299212604 215.43307086614175 255.49606299212604 226.7716535433071 255.49606299212604 238.11023622047247 255.49606299212604 249.44881889763784 255.49606299212604 260.7874015748032 255.49606299212604 272.1259842519686 255.49606299212604 278.5948894843889 255.49606299212604 282.8988737809366 250.72897633085995 286.8481132191 245.6750984541 277.7952755905512 245.66929133858272 266.4566929133859 245.66929133858272 255.1181102362205 245.66929133858272 243.77952755905517 245.66929133858272 232.4409448818898 245.66929133858272 221.10236220472444 245.66929133858272 209.76377952755908 245.66929133858272 198.42519685039372 245.66929133858272 187.08661417322836 245.66929133858272 175.748031496063 245.66929133858272 164.40944881889763 245.66929133858272 153.70509692391684 245.66929133858272 150.63879458018508 240.79623428754746 147.71750084143338 235.8425196850394 158.740157480315 235.8425196850394 170.07874015748035 235.8425196850394 181.4173228346457 235.8425196850394 192.75590551181105 235.8425196850394 204.0944881889764 235.8425196850394 215.43307086614178 235.8425196850394 226.77165354330714 235.8425196850394 238.1102362204725 235.8425196850394 249.44881889763786 235.8425196850394 260.7874015748032 235.8425196850394 272.1259842519686 235.8425196850394 283.464566929134 235.8425196850394 292.82145348087016 235.8425196850394 295.0393160810651 230.98242468808763 296.96980098890435 226.01574803149612 289.13385826771656 226.01574803149612 277.7952755905512 226.01574803149612 266.45669291338584 226.01574803149612 255.1181102362205 226.01574803149612 243.77952755905514 226.01574803149612 232.44094488188978 226.01574803149612 221.10236220472441 226.01574803149612 209.76377952755905 226.01574803149612 198.4251968503937 226.01574803149612 187.08661417322833 226.01574803149612 175.74803149606296 226.01574803149612 164.4094488188976 226.01574803149612 153.07086614173224 226.01574803149612 141.73228346456688 226.01574803149612 130.3937007874015 226.01574803149612 120.18831218520319 226.01574803149612 114.32593411645696 223.23119375100868 108.69631730317548 220.01132826677318 103.47769578208897 216.1889763779528 113.38582677165357 216.1889763779528 124.72440944881893 216.1889763779528 136.0629921259843 216.1889763779528 147.40157480314963 216.1889763779528 158.740157480315 216.1889763779528 170.07874015748035 216.1889763779528 181.41732283464572 216.1889763779528 192.75590551181108 216.1889763779528 204.09448818897644 216.1889763779528 215.4330708661418 216.1889763779528 226.77165354330717 216.1889763779528 238.11023622047253 216.1889763779528 249.4488188976379 216.1889763779528 260.78740157480325 216.1889763779528 272.1259842519686 216.1889763779528 283.464566929134 216.1889763779528 294.80314960629937 216.1889763779528 299.9181153721317 216.1889763779528 301.0254268953772 211.3227936721906 301.6418812188 206.3711194645 300.47244094488195 206.36220472440948 289.1338582677166 206.36220472440948 277.7952755905512 206.36220472440948 266.4566929133859 206.36220472440948 255.11811023622053 206.36220472440948 243.77952755905517 206.36220472440948 232.44094488188983 206.36220472440948 221.10236220472447 206.36220472440948 209.7637795275591 206.36220472440948 198.42519685039375 206.36220472440948 187.08661417322838 206.36220472440948 175.74803149606302 206.36220472440948 164.40944881889766 206.36220472440948 153.0708661417323 206.36220472440948 141.73228346456693 206.36220472440948 130.39370078740157 206.36220472440948 119.05511811023621 206.36220472440948 107.71653543307085 206.36220472440948 96.37795275590548 206.36220472440948 93.4572788241487 206.36220472440948 89.94100526036544 201.59868682846346 86.89536633112004 196.53543307086616 90.70866141732284 196.53543307086616 102.0472440944882 196.53543307086616 113.38582677165356 196.53543307086616 124.7244094488189 196.53543307086616 136.06299212598427 196.53543307086616 147.40157480314963 196.53543307086616 158.74015748031496 196.53543307086616 170.07874015748033 196.53543307086616 181.4173228346457 196.53543307086616 192.75590551181105 196.53543307086616 204.0944881889764 196.53543307086616 215.43307086614178 196.53543307086616 226.77165354330714 196.53543307086616 238.1102362204725 196.53543307086616 249.44881889763786 196.53543307086616 260.7874015748032 196.53543307086616 272.1259842519686 196.53543307086616 283.464566929134 196.53543307086616 294.8031496062993 196.53543307086616 302.01119917088005 196.53543307086616 301.73353817232504 191.61138110748809 301.1763648293 186.7172928955 289.1338582677166 186.70866141732287 277.7952755905512 186.70866141732287 266.4566929133859 186.70866141732287 255.11811023622053 186.70866141732287 243.77952755905517 186.70866141732287 232.44094488188983 186.70866141732287 221.10236220472447 186.70866141732287 209.7637795275591 186.70866141732287 198.42519685039375 186.70866141732287 187.08661417322838 186.70866141732287 175.74803149606302 186.70866141732287 164.40944881889766 186.70866141732287 153.0708661417323 186.70866141732287 141.73228346456693 186.70866141732287 130.39370078740157 186.70866141732287 119.05511811023621 186.70866141732287 107.71653543307085 186.70866141732287 96.37795275590548 186.70866141732287 85.03937007874012 186.70866141732287 82.38023978246093 186.70866141732287 80.65980787512866 181.89261177301918 79.6118313581 176.8901576945 90.70866141732284 176.88188976377955 102.0472440944882 176.88188976377955 113.38582677165356 176.88188976377955 124.7244094488189 176.88188976377955 136.06299212598427 176.88188976377955 147.40157480314963 176.88188976377955 158.74015748031496 176.88188976377955 170.07874015748035 176.88188976377955 181.4173228346457 176.88188976377955 192.75590551181108 176.88188976377955 204.0944881889764 176.88188976377955 215.4330708661418 176.88188976377955 226.77165354330714 176.88188976377955 238.11023622047253 176.88188976377955 249.44881889763786 176.88188976377955 260.78740157480325 176.88188976377955 272.1259842519686 176.88188976377955 283.464566929134 176.88188976377955 294.8031496062993 176.88188976377955 299.14782616177575 176.88188976377955 297.67602995182955 171.918955819537 295.8985432455 167.0624387528 289.13385826771656 167.05511811023624 277.7952755905512 167.05511811023624 266.45669291338584 167.05511811023624 255.1181102362205 167.05511811023624 243.77952755905514 167.05511811023624 232.44094488188978 167.05511811023624 221.10236220472444 167.05511811023624 209.76377952755908 167.05511811023624 198.42519685039372 167.05511811023624 187.08661417322836 167.05511811023624 175.748031496063 167.05511811023624 164.40944881889763 167.05511811023624 153.07086614173227 167.05511811023624 141.7322834645669 167.05511811023624 130.39370078740154 167.05511811023624 119.05511811023618 167.05511811023624 107.71653543307082 167.05511811023624 96.37795275590545 167.05511811023624 85.03937007874009 167.05511811023624 78.37602391573643 167.05511811023624 78.39425075098005 158.09754149288628 79.8051419485942 149.25300477636284 82.2660220398834 140.64217716425688 85.78869872305248 132.41026019728642 90.48801685172317 124.79008280910547 96.09689331375276 117.8121750176539 102.64300084273282 111.70621279933681 109.93067663489562 106.50860957007552 117.8373689423706 102.31630190517606 126.22468004089751 99.2043966083464 134.9123440126544 97.09216274795254 143.81105637521804 96.28325145381189 152.7367465312553 96.61887644470681 161.4912668009 98.2653858447 158.74015748031496 98.26771653543308 147.4015748031496 98.26771653543308 136.06299212598424 98.26771653543308 129.171366383643 98.26771653543308 121.60127459685438 100.6740649899493 114.38745725771246 103.99936708135438 107.6144187503 108.0904302393 119.05511811023624 108.09448818897638 130.3937007874016 108.09448818897638 141.73228346456693 108.09448818897638 153.0708661417323 108.09448818897638 164.40944881889766 108.09448818897638 175.748031496063 108.09448818897638 183.74722002528247 108.09448818897638 190.59919173488737 113.69845988573164 196.8568495834 119.9378668934 204.3681711174406 118.28897876858343 211.96635792693388 117.10308813329767 219.63194577144145 116.58110236324303 227.30188390573954 117.0346963212079 234.9076540557 117.9193469947 226.7716535433071 117.92125984251969 215.43307086614175 117.92125984251969 206.04327268815763 117.92125984251969 196.8568495834 119.9378668934 194.83434377094093 117.92125984251969 192.75590551181105 117.92125984251969 181.4173228346457 117.92125984251969 170.07874015748035 117.92125984251969 158.740157480315 117.92125984251969 147.40157480314963 117.92125984251969 136.06299212598427 117.92125984251969 124.72440944881892 117.92125984251969 113.38582677165357 117.92125984251969 102.0472440944882 117.92125984251969 96.00682844973358 117.92125984251969 92.09325469176625 122.66130483827189 88.66386746776567 127.74803149606299 96.37795275590554 127.74803149606299 107.7165354330709 127.74803149606299 119.05511811023625 127.74803149606299 130.3937007874016 127.74803149606299 141.73228346456696 127.74803149606299 153.07086614173232 127.74803149606299 164.4094488188977 127.74803149606299 175.74803149606305 127.74803149606299 187.0866141732284 127.74803149606299 198.42519685039377 127.74803149606299 209.76377952755914 127.74803149606299 221.1023622047245 127.74803149606299 232.44094488188986 127.74803149606299 243.77952755905523 127.74803149606299 255.1181102362206 127.74803149606299 261.1569598289167 127.74803149606299 268.3058437963392 132.2489525690312 274.8155608383 137.5698028945 272.12598425196853 137.5748031496063 260.7874015748032 137.5748031496063 249.4488188976378 137.5748031496063 238.11023622047247 137.5748031496063 226.7716535433071 137.5748031496063 215.43307086614175 137.5748031496063 204.0944881889764 137.5748031496063 192.75590551181105 137.5748031496063 181.4173228346457 137.5748031496063 170.07874015748033 137.5748031496063 158.74015748031496 137.5748031496063 147.4015748031496 137.5748031496063 136.06299212598424 137.5748031496063 124.72440944881888 137.5748031496063 113.38582677165351 137.5748031496063 102.04724409448815 137.5748031496063 90.70866141732279 137.5748031496063 83.39241840131477 137.5748031496063 81.66886590116347 142.45695137964026 80.1424294707 147.3931098943 85.03937007874018 147.40157480314963 96.37795275590554 147.40157480314963 107.71653543307089 147.40157480314963 119.05511811023624 147.40157480314963 130.3937007874016 147.40157480314963 141.73228346456696 147.40157480314963 153.07086614173232 147.40157480314963 164.40944881889766 147.40157480314963 175.74803149606305 147.40157480314963 187.08661417322838 147.40157480314963 198.42519685039377 147.40157480314963 209.7637795275591 147.40157480314963 221.1023622047245 147.40157480314963 232.44094488188983 147.40157480314963 243.77952755905523 147.40157480314963 255.11811023622056 147.40157480314963 266.45669291338595 147.40157480314963 277.7952755905513 147.40157480314963 284.2163518452685 147.40157480314963 287.80980876770013 152.1651099525009 290.96354666195606 157.22834645669292 283.46456692913387 157.22834645669292 272.12598425196853 157.22834645669292 260.78740157480314 157.22834645669292 249.4488188976378 157.22834645669292 238.11023622047244 157.22834645669292 226.77165354330708 157.22834645669292 215.43307086614172 157.22834645669292 204.09448818897636 157.22834645669292 192.755905511811 157.22834645669292 181.41732283464563 157.22834645669292 170.07874015748027 157.22834645669292 158.7401574803149 157.22834645669292 147.40157480314954 157.22834645669292 136.06299212598418 157.22834645669292 124.72440944881882 157.22834645669292 113.38582677165346 157.22834645669292 102.0472440944881 157.22834645669292 90.70866141732273 157.22834645669292 79.37007874015737 157.22834645669292 78.3352617168 159.1055172139 78.85267022847869 158.16693183529645 79.37007874015737 157.22834645669292 78.85267022847869 158.16693183529645 78.3352617168 159.1055172139"
       transform="scale(39.977599)" /><g
       id="g1"
       transform="matrix(0.951014 0 0 0.951014 1114.35 1312.15)"
       style="stroke-width:1.05151"><circle
         style="fill:#303030;fill-rule:evenodd;stroke:none;stroke-width:51.7943;stroke-linecap:round;stroke-linejoin:round"
         id="path2"
         cx="4945.8931"
         cy="5498.3184"
         r="2039.9556" /><circle
         style="fill:#666666;fill-rule:evenodd;stroke:none;stroke-width:51.7943;stroke-linecap:round;stroke-linejoin:round"
         id="path3"
         cx="8089.0898"
         cy="6955.4297"
         r="2643.616" /></g></g></svg>
