<?xml version="1.0" encoding="UTF-8" standalone="no"?>
<svg
   xml:space="preserve"
   width="99.999901mm"
   height="100mm"
   version="1.1"
   style="clip-rule:evenodd;fill-rule:evenodd;image-rendering:optimizeQuality;shape-rendering:geometricPrecision;text-rendering:geometricPrecision"
   viewBox="0 0 15109 15109.485"
   id="svg5"
   sodipodi:docname="multicolor_satin.svg"
   inkscape:version="1.4 (e7c3feb100, 2024-10-09)"
   xmlns:inkscape="http://www.inkscape.org/namespaces/inkscape"
   xmlns:sodipodi="http://sodipodi.sourceforge.net/DTD/sodipodi-0.dtd"
   xmlns="http://www.w3.org/2000/svg"
   xmlns:svg="http://www.w3.org/2000/svg"
   xmlns:inkstitch="http://inkstitch.org/namespace"><defs
   id="defs1" /><sodipodi:namedview
   id="namedview5"
   pagecolor="#ffffff"
   bordercolor="#000000"
   borderopacity="0.25"
   inkscape:showpageshadow="2"
   inkscape:pageopacity="0.0"
   inkscape:pagecheckerboard="0"
   inkscape:deskcolor="#d1d1d1"
   inkscape:document-units="mm"
   inkscape:zoom="2.0194374"
   inkscape:cx="217.13968"
   inkscape:cy="246.10815"
   inkscape:window-width="1175"
   inkscape:window-height="1121"
   inkscape:window-x="656"
   inkscape:window-y="32"
   inkscape:window-maximized="0"
   inkscape:current-layer="Layer_x0020_1"
   showgrid="false" />
 <g
   id="Layer_x0020_1"
   inkscape:label="Layer 1"
   inkscape:groupmode="layer">
  <g
   id="g6"
   transform="matrix(3.72213,0,0,3.72213,-40581.951,-41363.2)"
   style="opacity:1;stroke-width:0.268663"><path
     class="fil1"
     d="M 14667.311,12672.251 C 14670.674,12694.45 14689.847,12711.269 14712.719,12711.269 V 12711.269 C 14737.947,12711.269 14758.801,12690.75 14758.801,12665.186 V 12616.75 C 14758.801,12604.305 14764.856,12593.877 14775.283,12587.15 14786.047,12580.759 14798.492,12580.423 14809.256,12586.478 14837.174,12600.941 14855.674,12628.523 14855.674,12664.514 V 13602.296 C 14855.674,13651.741 14814.974,13692.441 14765.528,13692.441 H 14667.311 V 13841.45 C 14667.311,14399.478 14210.865,14855.923 13652.837,14855.923 H 12236.746 C 11678.719,14855.923 11221.937,14399.478 11221.937,13841.45 V 13706.232 H 11125.737 C 11074.946,13706.232 11033.573,13664.86 11033.573,13614.405 V 12679.986 C 11033.573,12629.532 11074.946,12588.159 11125.737,12588.159 H 11221.937 V 12425.359 C 11221.937,11867.331 11678.719,11410.886 12236.746,11410.886 H 13652.837 C 14210.865,11410.886 14667.311,11867.331 14667.311,12425.359 Z M 11150.292,13239.359 H 11186.282 C 11200.746,13239.359 11213.528,13246.423 11221.937,13256.85 V 13314.032 C 11213.528,13324.796 11200.746,13331.523 11186.282,13331.523 H 11150.292 C 11125.065,13331.523 11104.546,13310.669 11104.546,13285.441 V 13285.441 C 11104.546,13260.214 11125.065,13239.359 11150.292,13239.359 Z M 11168.455,13478.177 C 11193.683,13478.177 11214.201,13498.696 11214.201,13523.923 11214.201,13549.486 11193.683,13570.005 11168.455,13570.005 11142.892,13570.005 11122.374,13549.486 11122.374,13523.923 11122.374,13498.696 11142.892,13478.177 11168.455,13478.177 Z M 14705.319,13239.359 H 14741.311 C 14766.538,13239.359 14787.392,13260.214 14787.392,13285.441 V 13285.441 C 14787.392,13310.669 14766.538,13331.523 14741.311,13331.523 H 14705.319 C 14689.51,13331.523 14675.719,13323.45 14667.311,13311.005 V 13259.877 C 14675.719,13247.769 14689.51,13239.359 14705.319,13239.359 Z M 14723.483,13478.514 C 14748.711,13478.514 14768.892,13498.696 14768.892,13523.923 14768.892,13549.15 14748.711,13569.669 14723.483,13569.669 14698.256,13569.669 14677.738,13549.15 14677.738,13523.923 14677.738,13498.696 14698.256,13478.514 14723.483,13478.514 Z M 12236.746,11583.104 C 11773.91,11583.104 11394.492,11962.523 11394.492,12425.359 V 13841.45 C 11394.492,14304.287 11773.91,14683.706 12236.746,14683.706 H 13652.837 C 14115.674,14683.706 14495.093,14304.287 14495.093,13841.45 V 12425.359 C 14495.093,11962.523 14115.674,11583.104 13652.837,11583.104 Z"
     id="path1"
     style="fill:#003399;stroke:none;stroke-width:10.7404;stroke-dasharray:none"
     sodipodi:nodetypes="cssssccssscsssscsssscsssscssccssssssssssssssssccsssssssssssssss" /></g>
 <g
   id="g2"
   transform="matrix(147.92465,-30.788839,30.788839,147.92465,-2414.3226,2519.8622)"><path
     id="object944"
     style="fill:none;stroke:#f00000;stroke-width:1.5;stroke-linecap:round;stroke-linejoin:round;stroke-dasharray:none"
     d="M 46.160768,17.652388 45.487182,17.982212 44.813598,18.312036 45.487182,17.982212 46.160768,17.652388 32.905175,24.143058 47.563018,20.305196 34.287405,26.805669 46.141093,24.340861 35.669629,29.46827 50.88658,25.356621 37.051852,32.130869 47.977688,30.120387 38.434076,34.793468 51.049246,31.955797 39.8163,37.456067 53.858249,33.919765 41.198524,40.118667 54.32223,37.031986 42.580745,42.781266 53.379619,40.832953 43.962969,45.443865 57.428117,42.189997 45.345193,48.106464 60.313214,44.116706 46.727417,50.769064 61.261223,46.991922 48.109641,53.431663 58.628038,51.620688 49.491865,56.094262 63.047143,52.796262 50.874089,58.756862 61.921048,56.687071 52.256313,61.419461 62.451053,59.766965 53.638537,64.08206 63.001089,62.837049 55.020758,66.744659 67.346876,64.048524 56.402982,69.407259 65.618098,68.234442 57.785206,72.069858 69.037786,69.899386 59.16743,74.732457 73.228416,71.186833 60.549654,77.395056 70.220456,74.103311 61.147183,78.546085 61.820766,78.216261 62.494349,77.886437 61.820766,78.216261 61.147183,78.546085"
     inkstitch:stroke_method="manual_stitch" /><path
     id="object8041"
     style="fill:none;stroke:#000000;stroke-width:1.5;stroke-linecap:round;stroke-linejoin:round;stroke-dasharray:none"
     d="M 46.160768,17.652388 46.834351,17.322564 47.507934,16.99274 46.834351,17.322564 46.160768,17.652388 54.458286,13.589464 47.563018,20.305196 55.840516,16.252076 46.141093,24.340861 57.22274,18.914675 50.88658,25.356621 58.604963,21.577275 47.977688,30.120387 59.987187,24.239874 51.049246,31.955797 61.369411,26.902473 53.858249,33.919765 62.751635,29.565073 54.32223,37.031986 64.133859,32.227672 53.379619,40.832953 65.51608,34.890271 57.428117,42.189997 66.898304,37.55287 60.313214,44.116706 68.280528,40.21547 61.261223,46.991922 69.662752,42.878069 58.628038,51.620688 71.044976,45.540668 63.047143,52.796262 72.4272,48.203267 61.921048,56.687071 73.809424,50.865867 62.451053,59.766965 75.191648,53.528466 63.001089,62.837049 76.573869,56.191065 67.346876,64.048524 77.956093,58.853665 65.618098,68.234442 79.338317,61.516264 69.037786,69.899386 80.720541,64.178863 73.228416,71.186833 82.102765,66.841465 70.220456,74.103311 82.700294,67.992494 82.026711,68.322318 81.353127,68.652141 82.026711,68.322318 82.700294,67.992494"
     inkstitch:stroke_method="manual_stitch" /></g></g>
</svg>
