<?xml version="1.0" encoding="UTF-8" standalone="no"?>
<svg
   xml:space="preserve"
   width="99.999901mm"
   height="100mm"
   version="1.1"
   style="clip-rule:evenodd;fill-rule:evenodd;image-rendering:optimizeQuality;shape-rendering:geometricPrecision;text-rendering:geometricPrecision"
   viewBox="0 0 15109 15109.485"
   id="svg5"
   sodipodi:docname="outline.svg"
   inkscape:version="1.4 (e7c3feb100, 2024-10-09)"
   xmlns:inkscape="http://www.inkscape.org/namespaces/inkscape"
   xmlns:sodipodi="http://sodipodi.sourceforge.net/DTD/sodipodi-0.dtd"
   xmlns="http://www.w3.org/2000/svg"
   xmlns:svg="http://www.w3.org/2000/svg"
   xmlns:inkstitch="http://inkstitch.org/namespace"><defs
   id="defs1" /><sodipodi:namedview
   id="namedview5"
   pagecolor="#ffffff"
   bordercolor="#000000"
   borderopacity="0.25"
   inkscape:showpageshadow="2"
   inkscape:pageopacity="0.0"
   inkscape:pagecheckerboard="0"
   inkscape:deskcolor="#d1d1d1"
   inkscape:document-units="mm"
   inkscape:zoom="2.0194374"
   inkscape:cx="217.13968"
   inkscape:cy="246.10815"
   inkscape:window-width="1920"
   inkscape:window-height="1131"
   inkscape:window-x="0"
   inkscape:window-y="32"
   inkscape:window-maximized="1"
   inkscape:current-layer="g2"
   showgrid="false" />
 <g
   id="Layer_x0020_1"
   inkscape:label="Layer 1"
   inkscape:groupmode="layer">
  <g
   id="g6"
   transform="matrix(3.72213,0,0,3.72213,-40581.951,-41363.2)"
   style="opacity:1;stroke-width:0.268663"><path
     class="fil1"
     d="M 14667.311,12672.251 C 14670.674,12694.45 14689.847,12711.269 14712.719,12711.269 V 12711.269 C 14737.947,12711.269 14758.801,12690.75 14758.801,12665.186 V 12616.75 C 14758.801,12604.305 14764.856,12593.877 14775.283,12587.15 14786.047,12580.759 14798.492,12580.423 14809.256,12586.478 14837.174,12600.941 14855.674,12628.523 14855.674,12664.514 V 13602.296 C 14855.674,13651.741 14814.974,13692.441 14765.528,13692.441 H 14667.311 V 13841.45 C 14667.311,14399.478 14210.865,14855.923 13652.837,14855.923 H 12236.746 C 11678.719,14855.923 11221.937,14399.478 11221.937,13841.45 V 13706.232 H 11125.737 C 11074.946,13706.232 11033.573,13664.86 11033.573,13614.405 V 12679.986 C 11033.573,12629.532 11074.946,12588.159 11125.737,12588.159 H 11221.937 V 12425.359 C 11221.937,11867.331 11678.719,11410.886 12236.746,11410.886 H 13652.837 C 14210.865,11410.886 14667.311,11867.331 14667.311,12425.359 Z M 11150.292,13239.359 H 11186.282 C 11200.746,13239.359 11213.528,13246.423 11221.937,13256.85 V 13314.032 C 11213.528,13324.796 11200.746,13331.523 11186.282,13331.523 H 11150.292 C 11125.065,13331.523 11104.546,13310.669 11104.546,13285.441 V 13285.441 C 11104.546,13260.214 11125.065,13239.359 11150.292,13239.359 Z M 11168.455,13478.177 C 11193.683,13478.177 11214.201,13498.696 11214.201,13523.923 11214.201,13549.486 11193.683,13570.005 11168.455,13570.005 11142.892,13570.005 11122.374,13549.486 11122.374,13523.923 11122.374,13498.696 11142.892,13478.177 11168.455,13478.177 Z M 14705.319,13239.359 H 14741.311 C 14766.538,13239.359 14787.392,13260.214 14787.392,13285.441 V 13285.441 C 14787.392,13310.669 14766.538,13331.523 14741.311,13331.523 H 14705.319 C 14689.51,13331.523 14675.719,13323.45 14667.311,13311.005 V 13259.877 C 14675.719,13247.769 14689.51,13239.359 14705.319,13239.359 Z M 14723.483,13478.514 C 14748.711,13478.514 14768.892,13498.696 14768.892,13523.923 14768.892,13549.15 14748.711,13569.669 14723.483,13569.669 14698.256,13569.669 14677.738,13549.15 14677.738,13523.923 14677.738,13498.696 14698.256,13478.514 14723.483,13478.514 Z M 12236.746,11583.104 C 11773.91,11583.104 11394.492,11962.523 11394.492,12425.359 V 13841.45 C 11394.492,14304.287 11773.91,14683.706 12236.746,14683.706 H 13652.837 C 14115.674,14683.706 14495.093,14304.287 14495.093,13841.45 V 12425.359 C 14495.093,11962.523 14115.674,11583.104 13652.837,11583.104 Z"
     id="path1"
     style="fill:#003399;stroke:none;stroke-width:10.7404;stroke-dasharray:none"
     sodipodi:nodetypes="cssssccssscsssscsssscsssscssccssssssssssssssssccsssssssssssssss" /></g>
 <g
   id="g2"
   transform="matrix(151.09485,0,0,151.09485,-1179.1957,594.13892)"><path
     id="object8251"
     style="fill:none;stroke:#bcbcbc;stroke-width:7.55906;stroke-linecap:round;stroke-linejoin:round;stroke-dasharray:none;stroke-opacity:1"
     d="M 190.32545,75.590551 187.62605,76.455674 184.92664,77.320798 187.62605,76.455674 190.32545,75.590551 181.52643,78.410523 177.75213,86.813168 180.01529,95.515519 184.80831,103.40654 188.1661,112.00683 189.24514,121.17466 187.64605,130.26505 183.41482,138.4653 177.52629,145.56749 170.72793,151.80304 163.46223,157.48659 156.08405,163.02315 148.96879,168.89375 142.68275,175.64398 136.88172,182.81496 132.02685,190.65698 128.83972,199.31106 128.16405,208.50624 130.50064,217.41943 135.23455,225.31772 140.87495,232.59252 146.92565,239.52899 153.18547,246.2771 159.62065,252.858 166.11248,259.38274 172.73604,265.77371 179.4007,272.12117 187.08661,272.12598 H 198.4252 209.76378 221.10236 232.44094 243.77953 255.11811 257.52442 L 262.78225,267.12998 268.01337,262.10617 273.17624,257.01289 263.62205,257.00787 H 252.28346 240.94488 229.6063 218.26772 206.92913 195.59055 184.25197 172.91339 163.74959 L 158.79616,252.02933 153.88222,247.01181 149.07281,241.89501 158.74016,241.88976 H 170.07874 181.41732 192.75591 204.09449 215.43307 226.77165 238.11024 249.44882 260.7874 272.12598 283.46457 287.86322 L 292.29457,236.98806 296.59113,231.96791 300.6801,226.77755 291.9685,226.77165 H 280.62992 269.29134 257.95276 246.61417 235.27559 223.93701 212.59843 201.25984 189.92126 178.58268 167.24409 155.90551 144.56693 136.2474 L 131.60387,219.60547 128.62519,211.65354 H 130.3937 141.73228 153.07087 164.40945 175.74803 187.08661 198.4252 209.76378 221.10236 232.44094 243.77953 255.11811 266.45669 277.79528 289.13386 300.47244 308.3065 L 308.84429,204.00458 307.33464,196.53543 H 297.6378 286.29921 274.96063 263.62205 252.28346 240.94488 229.6063 218.26772 206.92913 195.59055 184.25197 172.91339 161.5748 150.23622 138.89764 129.59705 L 133.14092,188.62868 137.90062,181.41732 H 147.40157 158.74016 170.07874 181.41732 192.75591 204.09449 215.43307 226.77165 238.11024 249.44882 260.7874 272.12598 283.46457 294.80315 299.03108 L 294.65508,176.1153 290.04012,171.0213 285.05696,166.29921 H 280.62992 269.29134 257.95276 246.61417 235.27559 223.93701 212.59843 201.25984 189.92126 178.58268 167.24409 155.90551 151.87467 L 158.4085,161.25868 165.02227,156.32459 171.47269,151.1811 H 175.74803 187.08661 198.4252 209.76378 221.10236 232.44094 243.77953 255.11811 265.45808 L 260.43598,146.62168 255.86058,141.61602 251.9963,136.06299 H 240.94488 229.6063 218.26772 206.92913 195.59055 184.93371 L 188.14193,128.77681 189.23617,120.94488 H 192.75591 204.09449 215.43307 226.77165 238.11024 247.69357 L 248.45713,113.19133 250.91265,105.82677 H 246.61417 235.27559 223.93701 212.59843 201.25984 189.92126 186.01709 L 181.76294,98.368753 178.01112,90.708661 H 187.08661 198.4252 209.76378 221.10236 232.44094 243.77953 255.11811 258.91861 L 258.32078,83.272268 254.43145,77.819339 246.90605,75.590551 H 240.94488 229.6063 218.26772 206.92913 195.59055 190.32545 192.958 195.59055 192.958 190.32545"
     transform="scale(0.264583)"
     inkstitch:stroke_method="manual_stitch" /><path
     id="path1-3"
     style="clip-rule:evenodd;fill:none;fill-rule:evenodd;stroke:#ff0000;image-rendering:optimizeQuality;shape-rendering:geometricPrecision;text-rendering:geometricPrecision"
     d="M 57.785156,17.353516 C 55.338369,17.357382 52.903503,17.49409 50.902344,17.785156 49.901764,17.930689 49.016157,18.108169 48.222656,18.371094 47.429155,18.634019 46.600853,18.798005 45.904297,20.007812 45.129012,21.354361 44.788487,22.74393 44.964844,23.998047 45.1412,25.252164 45.715771,26.171318 46.195312,26.929687 47.154396,28.446427 47.986328,29.4464 47.986328,32.054687 47.986328,34.300845 46.491124,36.27279 44.298828,38.177734 42.106532,40.082679 39.466044,41.589889 37.6875,43.453125 36.296257,44.910619 34.375379,46.930132 33.078125,49.486328 31.780871,52.042524 31.176963,55.366593 32.726562,58.628906 33.546641,60.355389 35.000305,62.15877 36.779297,64.171875 38.558289,66.18498 40.655721,68.324237 42.667969,70.294922 44.389791,71.981179 47.391712,74.782117 47.391712,74.782117 L 68.394389,74.615055 C 68.394389,74.615055 71.292282,71.906157 72.9375,70.294922 74.949748,68.324237 77.04718,66.18498 78.826172,64.171875 80.605164,62.15877 82.058828,60.355389 82.878906,58.628906 84.428506,55.366593 83.824597,52.042524 82.527344,49.486328 81.23009,46.930132 79.309212,44.910619 77.917969,43.453125 76.139425,41.589889 73.498937,40.082679 71.306641,38.177734 69.114345,36.27279 67.619141,34.300845 67.619141,32.054687 67.619141,29.446184 68.449581,28.446519 69.408203,26.929687 69.887514,26.171272 70.462638,25.252064 70.638672,23.998047 70.814705,22.74403 70.474445,21.354258 69.699219,20.007812 69.011326,18.813053 68.174968,18.626443 67.375,18.359375 66.575032,18.092307 65.68196,17.914252 64.677734,17.769531 62.669283,17.48009 60.231944,17.34965 57.785156,17.353516 Z"
     sodipodi:nodetypes="sssssssssssssccsssssssssssss" /></g></g>
</svg>
