<?xml version="1.0" encoding="UTF-8" standalone="no"?>
<svg
   xml:space="preserve"
   width="99.999901mm"
   height="100mm"
   version="1.1"
   style="clip-rule:evenodd;fill-rule:evenodd;image-rendering:optimizeQuality;shape-rendering:geometricPrecision;text-rendering:geometricPrecision"
   viewBox="0 0 15109 15109.485"
   id="svg5"
   sodipodi:docname="pdf_export.svg"
   inkscape:version="1.4 (e7c3feb100, 2024-10-09)"
   xmlns:inkscape="http://www.inkscape.org/namespaces/inkscape"
   xmlns:sodipodi="http://sodipodi.sourceforge.net/DTD/sodipodi-0.dtd"
   xmlns="http://www.w3.org/2000/svg"
   xmlns:svg="http://www.w3.org/2000/svg"><sodipodi:namedview
   id="namedview5"
   pagecolor="#ffffff"
   bordercolor="#000000"
   borderopacity="0.25"
   inkscape:showpageshadow="2"
   inkscape:pageopacity="0.0"
   inkscape:pagecheckerboard="0"
   inkscape:deskcolor="#d1d1d1"
   inkscape:document-units="mm"
   inkscape:zoom="1.0097187"
   inkscape:cx="186.68566"
   inkscape:cy="133.7006"
   inkscape:window-width="1920"
   inkscape:window-height="1131"
   inkscape:window-x="0"
   inkscape:window-y="32"
   inkscape:window-maximized="1"
   inkscape:current-layer="Layer_x0020_1"
   showgrid="false" /><defs
   id="defs1"><marker
   style="overflow:visible"
   id="ConcaveTriangle"
   refX="0"
   refY="0"
   orient="auto-start-reverse"
   inkscape:stockid="Concave triangle arrow"
   markerWidth="1"
   markerHeight="1"
   viewBox="0 0 1 1"
   inkscape:isstock="true"
   inkscape:collect="always"
   preserveAspectRatio="xMidYMid"
   markerUnits="strokeWidth"><path
     transform="scale(0.7)"
     d="M -2,-4 9,0 -2,4 c 2,-2.33 2,-5.66 0,-8 z"
     style="fill:context-stroke;fill-rule:evenodd;stroke:none"
     id="path7" /></marker><symbol
   id="inkstitch_trim">
      <title
   id="inkstitch_title9282">Trim the thread after sewing this object.</title>
      <path
   id="inkstitch_circle13405"
   d="m 9.2465284,-8.6e-6 c 1.8e-6,2.452339 -0.9741847,4.804237 -2.7082493,6.538304 C 4.8042146,8.2723614 2.4523174,9.2465504 -2.1625959e-5,9.2465514 -2.4523623,9.2465534 -4.8042621,8.2723654 -6.5383288,6.5382984 -8.2723956,4.8042314 -9.2465834,2.4523324 -9.2465816,-8.6e-6 c 6e-7,-2.452339 0.9741895,-4.804237 2.708256,-6.538301 1.7340665,-1.734065 4.0859648,-2.708252 6.538303974041,-2.70825 C 5.1067066,-9.2465576 9.2465271,-5.1067366 9.2465284,-8.6e-6 c 0,0 0,0 0,0"
   style="opacity:1;vector-effect:none;fill:#fafafa;fill-opacity:1;fill-rule:evenodd;stroke:#003399;stroke-width:1.06500006;stroke-linecap:round;stroke-linejoin:miter;stroke-miterlimit:4;stroke-dasharray:3.19500017, 3.19500017;stroke-dashoffset:0;stroke-opacity:1"
   inkscape:connector-curvature="0" />
      <path
   style="color:#000000;font-style:normal;font-variant:normal;font-weight:normal;font-stretch:normal;font-size:medium;line-height:normal;font-family:sans-serif;font-variant-ligatures:normal;font-variant-position:normal;font-variant-caps:normal;font-variant-numeric:normal;font-variant-alternates:normal;font-feature-settings:normal;text-indent:0;text-align:start;text-decoration:none;text-decoration-line:none;text-decoration-style:solid;text-decoration-color:#000000;letter-spacing:normal;word-spacing:normal;text-transform:none;writing-mode:lr-tb;direction:ltr;text-orientation:mixed;dominant-baseline:auto;baseline-shift:baseline;text-anchor:start;white-space:normal;shape-padding:0;clip-rule:nonzero;display:inline;overflow:visible;visibility:visible;opacity:1;isolation:auto;mix-blend-mode:normal;color-interpolation:sRGB;color-interpolation-filters:linearRGB;solid-color:#000000;solid-opacity:1;vector-effect:none;fill:#050505;fill-opacity:1;fill-rule:evenodd;stroke:none;stroke-width:1.41421342;stroke-linecap:butt;stroke-linejoin:miter;stroke-miterlimit:4;stroke-dasharray:none;stroke-dashoffset:0;stroke-opacity:1;color-rendering:auto;image-rendering:auto;shape-rendering:auto;text-rendering:auto;enable-background:accumulate"
   d="m -3.0000256,-5.9834096 c -1.30575,0 -2.375,1.06924 -2.375,2.375 0,1.30575 1.06925,2.375 2.375,2.375 0.58687,0 1.11944,-0.22369 1.53516,-0.58007 0,0 0.61717997,1.62109 0.61717997,1.62109 0,0 -2.29881997,6.01758 -2.29881997,6.01758 0.98655,-0.12511 1.23728,-0.26171 1.67382,-0.97461 0,0 1.33007997,-3.18945 1.33007997,-3.18945 0,0 1.23633003,3.25 1.23633003,3.25 0.23227,0.77906 0.84315,0.79218 1.57813,1.07226 0,0 -2.05469003,-6.14258 -2.05469003,-6.14258 0,0 0.73047003,-1.75 0.73047003,-1.75 0.42849,0.41682 1.01136,0.67578 1.65234,0.67578 1.30575,0 2.375,-1.06925 2.375,-2.375 0,-1.30576 -1.06925,-2.375 -2.375,-2.375 -1.06233,0 -1.95701,0.71265 -2.25781003,1.67969 0,0 -0.0117,-0.0156 -0.0117,-0.0156 0,0 -0.80274,2.10156 -0.80274,2.10156 0,0 -0.59179,-1.76562 -0.59179,-1.76562 -0.18242,-1.12808 -1.15864997,-2 -2.33593997,-2 0,0 -2e-5,-3e-5 -2e-5,-3e-5 m 0,1 c 0.76531,0 1.375,0.60968 1.375,1.375 0,0.76531 -0.60969,1.375 -1.375,1.375 -0.76531,0 -1.375,-0.60969 -1.375,-1.375 0,-0.76532 0.60969,-1.375 1.375,-1.375 0,0 0,0 0,0 m 6,0 c 0.76531,0 1.375,0.60968 1.375,1.375 0,0.76531 -0.60969,1.375 -1.375,1.375 -0.76531,0 -1.375,-0.60969 -1.375,-1.375 0,-0.76532 0.60969,-1.375 1.375,-1.375 0,0 0,0 0,0"
   id="inkstitch_path13416"
   inkscape:connector-curvature="0" />
    </symbol>
    
      
      
      
    </defs>
 <g
   id="Layer_x0020_1"
   inkscape:label="Layer 1"
   inkscape:groupmode="layer">
  <g
   id="g6"
   transform="matrix(3.72213,0,0,3.72213,-40581.951,-41363.2)"
   style="opacity:1;stroke-width:0.268663"><path
     class="fil1"
     d="M 14667.311,12672.251 C 14670.674,12694.45 14689.847,12711.269 14712.719,12711.269 V 12711.269 C 14737.947,12711.269 14758.801,12690.75 14758.801,12665.186 V 12616.75 C 14758.801,12604.305 14764.856,12593.877 14775.283,12587.15 14786.047,12580.759 14798.492,12580.423 14809.256,12586.478 14837.174,12600.941 14855.674,12628.523 14855.674,12664.514 V 13602.296 C 14855.674,13651.741 14814.974,13692.441 14765.528,13692.441 H 14667.311 V 13841.45 C 14667.311,14399.478 14210.865,14855.923 13652.837,14855.923 H 12236.746 C 11678.719,14855.923 11221.937,14399.478 11221.937,13841.45 V 13706.232 H 11125.737 C 11074.946,13706.232 11033.573,13664.86 11033.573,13614.405 V 12679.986 C 11033.573,12629.532 11074.946,12588.159 11125.737,12588.159 H 11221.937 V 12425.359 C 11221.937,11867.331 11678.719,11410.886 12236.746,11410.886 H 13652.837 C 14210.865,11410.886 14667.311,11867.331 14667.311,12425.359 Z M 11150.292,13239.359 H 11186.282 C 11200.746,13239.359 11213.528,13246.423 11221.937,13256.85 V 13314.032 C 11213.528,13324.796 11200.746,13331.523 11186.282,13331.523 H 11150.292 C 11125.065,13331.523 11104.546,13310.669 11104.546,13285.441 V 13285.441 C 11104.546,13260.214 11125.065,13239.359 11150.292,13239.359 Z M 11168.455,13478.177 C 11193.683,13478.177 11214.201,13498.696 11214.201,13523.923 11214.201,13549.486 11193.683,13570.005 11168.455,13570.005 11142.892,13570.005 11122.374,13549.486 11122.374,13523.923 11122.374,13498.696 11142.892,13478.177 11168.455,13478.177 Z M 14705.319,13239.359 H 14741.311 C 14766.538,13239.359 14787.392,13260.214 14787.392,13285.441 V 13285.441 C 14787.392,13310.669 14766.538,13331.523 14741.311,13331.523 H 14705.319 C 14689.51,13331.523 14675.719,13323.45 14667.311,13311.005 V 13259.877 C 14675.719,13247.769 14689.51,13239.359 14705.319,13239.359 Z M 14723.483,13478.514 C 14748.711,13478.514 14768.892,13498.696 14768.892,13523.923 14768.892,13549.15 14748.711,13569.669 14723.483,13569.669 14698.256,13569.669 14677.738,13549.15 14677.738,13523.923 14677.738,13498.696 14698.256,13478.514 14723.483,13478.514 Z M 12236.746,11583.104 C 11773.91,11583.104 11394.492,11962.523 11394.492,12425.359 V 13841.45 C 11394.492,14304.287 11773.91,14683.706 12236.746,14683.706 H 13652.837 C 14115.674,14683.706 14495.093,14304.287 14495.093,13841.45 V 12425.359 C 14495.093,11962.523 14115.674,11583.104 13652.837,11583.104 Z"
     id="path1"
     style="fill:#003399;stroke:none;stroke-width:10.7404;stroke-dasharray:none"
     sodipodi:nodetypes="cssssccssscsssscsssscsssscssccssssssssssssssssccsssssssssssssss" /></g>
 <rect
   style="fill:#bcbcbc;fill-opacity:1;stroke:#000000;stroke-width:302.19;stroke-dasharray:none"
   id="rect2"
   width="4909.457"
   height="6572.3369"
   x="3840.2266"
   y="4394.7559" /><path
   style="fill:none;fill-opacity:1;stroke:#ffffff;stroke-width:604.37939554;stroke-dasharray:none;marker-end:"
   d="M 6453.3248,8037.2555 C 6453.3248,8037.2555 5930.8006,4849.83 10372.972,5028.234"
   id="path2"
   sodipodi:nodetypes="cc" /><path
   style="fill:none;fill-opacity:1;stroke:#000000;stroke-width:302.19;stroke-dasharray:none;marker-end:url(#ConcaveTriangle)"
   d="M 6453.3248,8037.2555 C 6453.3248,8037.2555 5930.8006,4849.83 10372.972,5028.234"
   id="path3"
   sodipodi:nodetypes="cc" /><path
   d="M 5059.149,8774.416 Q 5194.7664,8774.416 5297.5069,8829.8959 5400.2474,8885.3758 5455.7273,8988.1163 5513.262,9088.802 5513.262,9220.3098 5513.262,9349.7629 5453.6725,9448.3937 5396.1378,9547.0246 5289.2877,9602.5045 5184.4924,9655.9296 5046.8201,9655.9296 H 4755.0371 Q 4744.763,9655.9296 4744.763,9666.2036 V 10190.18 Q 4744.763,10200.454 4736.5438,10208.673 4730.3794,10214.838 4720.1053,10214.838 H 4479.6925 Q 4469.4185,10214.838 4461.1992,10208.673 4455.0348,10200.454 4455.0348,10190.18 V 8799.0738 Q 4455.0348,8788.7997 4461.1992,8782.6353 4469.4185,8774.416 4479.6925,8774.416 Z M 5015.998,9423.736 Q 5110.5192,9423.736 5168.0539,9370.311 5225.5886,9314.8311 5225.5886,9226.4743 5225.5886,9136.0626 5168.0539,9080.5827 5110.5192,9025.1029 5015.998,9025.1029 H 4755.0371 Q 4744.763,9025.1029 4744.763,9035.3769 V 9413.462 Q 4744.763,9423.736 4755.0371,9423.736 Z M 5856.7884,10214.838 Q 5846.5143,10214.838 5838.2951,10208.673 5832.1306,10200.454 5832.1306,10190.18 V 8801.1286 Q 5832.1306,8790.8545 5838.2951,8784.6901 5846.5143,8776.4708 5856.7884,8776.4708 H 6370.4909 Q 6524.6016,8776.4708 6639.671,8831.9507 6756.7952,8885.3758 6820.4943,8984.0067 6884.1934,9082.6375 6884.1934,9212.0906 V 9779.2182 Q 6884.1934,9908.6712 6820.4943,10007.302 6756.7952,10105.933 6639.671,10161.413 6524.6016,10214.838 6370.4909,10214.838 Z M 6121.8589,9955.9318 Q 6121.8589,9966.2059 6132.1329,9966.2059 H 6380.7649 Q 6475.2862,9966.2059 6532.8209,9902.5068 6592.4104,9838.8076 6594.4652,9731.9575 V 9259.3512 Q 6594.4652,9152.5011 6534.8757,9088.802 6477.341,9025.1029 6378.7101,9025.1029 H 6132.1329 Q 6121.8589,9025.1029 6121.8589,9035.3769 Z M 8238.6862,9000.4451 Q 8238.6862,9010.7192 8230.4669,9018.9384 8224.3025,9025.1029 8214.0284,9025.1029 H 7542.1056 Q 7531.8315,9025.1029 7531.8315,9035.3769 V 9353.8725 Q 7531.8315,9364.1465 7542.1056,9364.1465 H 7983.8897 Q 7994.1638,9364.1465 8000.3282,9372.3658 8008.5474,9378.5302 8008.5474,9388.8042 V 9588.1208 Q 8008.5474,9598.3949 8000.3282,9606.6141 7994.1638,9612.7785 7983.8897,9612.7785 H 7542.1056 Q 7531.8315,9612.7785 7531.8315,9623.0526 V 10190.18 Q 7531.8315,10200.454 7523.6123,10208.673 7517.4478,10214.838 7507.1738,10214.838 H 7266.761 Q 7256.487,10214.838 7248.2677,10208.673 7242.1033,10200.454 7242.1033,10190.18 V 8801.1286 Q 7242.1033,8790.8545 7248.2677,8784.6901 7256.487,8776.4708 7266.761,8776.4708 H 8214.0284 Q 8224.3025,8776.4708 8230.4669,8784.6901 8238.6862,8790.8545 8238.6862,8801.1286 Z"
   id="text3"
   style="font-weight:bold;font-size:2054.81px;font-family:Barlow;-inkscape-font-specification:'Barlow Bold';text-align:center;letter-spacing:140.1px;text-anchor:middle;fill:#ffffff;stroke-width:604.381"
   aria-label="PDF" /></g>
</svg>
