<?xml version="1.0" encoding="UTF-8" standalone="no"?>
<svg
   xml:space="preserve"
   width="99.999901mm"
   height="100mm"
   version="1.1"
   style="clip-rule:evenodd;fill-rule:evenodd;image-rendering:optimizeQuality;shape-rendering:geometricPrecision;text-rendering:geometricPrecision"
   viewBox="0 0 15109 15109.485"
   id="svg5"
   sodipodi:docname="select_elements.svg"
   inkscape:version="1.4 (e7c3feb100, 2024-10-09)"
   xmlns:inkscape="http://www.inkscape.org/namespaces/inkscape"
   xmlns:sodipodi="http://sodipodi.sourceforge.net/DTD/sodipodi-0.dtd"
   xmlns="http://www.w3.org/2000/svg"
   xmlns:svg="http://www.w3.org/2000/svg"><sodipodi:namedview
   id="namedview5"
   pagecolor="#ffffff"
   bordercolor="#000000"
   borderopacity="0.25"
   inkscape:showpageshadow="2"
   inkscape:pageopacity="0.0"
   inkscape:pagecheckerboard="0"
   inkscape:deskcolor="#d1d1d1"
   inkscape:document-units="mm"
   inkscape:zoom="1.0097187"
   inkscape:cx="176.28672"
   inkscape:cy="249.57446"
   inkscape:window-width="1920"
   inkscape:window-height="1131"
   inkscape:window-x="0"
   inkscape:window-y="32"
   inkscape:window-maximized="1"
   inkscape:current-layer="Layer_x0020_1" />
 <g
   id="Layer_x0020_1"
   inkscape:label="Layer 1"
   inkscape:groupmode="layer">
  <g
   id="g6"
   transform="matrix(3.72213,0,0,3.72213,-40581.951,-41363.2)"
   style="opacity:1;stroke-width:0.268663"><path
     class="fil1"
     d="M 14667.311,12672.251 C 14670.674,12694.45 14689.847,12711.269 14712.719,12711.269 V 12711.269 C 14737.947,12711.269 14758.801,12690.75 14758.801,12665.186 V 12616.75 C 14758.801,12604.305 14764.856,12593.877 14775.283,12587.15 14786.047,12580.759 14798.492,12580.423 14809.256,12586.478 14837.174,12600.941 14855.674,12628.523 14855.674,12664.514 V 13602.296 C 14855.674,13651.741 14814.974,13692.441 14765.528,13692.441 H 14667.311 V 13841.45 C 14667.311,14399.478 14210.865,14855.923 13652.837,14855.923 H 12236.746 C 11678.719,14855.923 11221.937,14399.478 11221.937,13841.45 V 13706.232 H 11125.737 C 11074.946,13706.232 11033.573,13664.86 11033.573,13614.405 V 12679.986 C 11033.573,12629.532 11074.946,12588.159 11125.737,12588.159 H 11221.937 V 12425.359 C 11221.937,11867.331 11678.719,11410.886 12236.746,11410.886 H 13652.837 C 14210.865,11410.886 14667.311,11867.331 14667.311,12425.359 Z M 11150.292,13239.359 H 11186.282 C 11200.746,13239.359 11213.528,13246.423 11221.937,13256.85 V 13314.032 C 11213.528,13324.796 11200.746,13331.523 11186.282,13331.523 H 11150.292 C 11125.065,13331.523 11104.546,13310.669 11104.546,13285.441 V 13285.441 C 11104.546,13260.214 11125.065,13239.359 11150.292,13239.359 Z M 11168.455,13478.177 C 11193.683,13478.177 11214.201,13498.696 11214.201,13523.923 11214.201,13549.486 11193.683,13570.005 11168.455,13570.005 11142.892,13570.005 11122.374,13549.486 11122.374,13523.923 11122.374,13498.696 11142.892,13478.177 11168.455,13478.177 Z M 14705.319,13239.359 H 14741.311 C 14766.538,13239.359 14787.392,13260.214 14787.392,13285.441 V 13285.441 C 14787.392,13310.669 14766.538,13331.523 14741.311,13331.523 H 14705.319 C 14689.51,13331.523 14675.719,13323.45 14667.311,13311.005 V 13259.877 C 14675.719,13247.769 14689.51,13239.359 14705.319,13239.359 Z M 14723.483,13478.514 C 14748.711,13478.514 14768.892,13498.696 14768.892,13523.923 14768.892,13549.15 14748.711,13569.669 14723.483,13569.669 14698.256,13569.669 14677.738,13549.15 14677.738,13523.923 14677.738,13498.696 14698.256,13478.514 14723.483,13478.514 Z M 12236.746,11583.104 C 11773.91,11583.104 11394.492,11962.523 11394.492,12425.359 V 13841.45 C 11394.492,14304.287 11773.91,14683.706 12236.746,14683.706 H 13652.837 C 14115.674,14683.706 14495.093,14304.287 14495.093,13841.45 V 12425.359 C 14495.093,11962.523 14115.674,11583.104 13652.837,11583.104 Z"
     id="path1"
     style="fill:#003399;stroke:none;stroke-width:10.7404;stroke-dasharray:none"
     sodipodi:nodetypes="cssssccssscsssscsssscsssscssccssssssssssssssssccsssssssssssssss" /></g>
 <g
   id="g1"
   transform="matrix(0.85579348,0,0,0.85579348,-457.00036,1968.3172)"
   style="stroke-width:1.16851"><path
     id="rect1"
     transform="matrix(1,0,0,0.74451261,0,632.63599)"
     d="M 5472.6387,3265.5714 V 2476.1926 H 6224.428 M 6725.6208,2476.1926 H 8229.1995 M 8730.3923,2476.1926 H 10233.971 M 10735.164,2476.1926 H 11486.953 V 3265.5714 M 11486.953,3791.8239 V 5370.5814 M 11486.953,5896.8339 V 7475.5914 M 9566.9984,10896.233 H 8730.3923 M 8229.1995,10896.233 H 6725.6208 M 6224.428,10896.233 H 5472.6387 V 10106.854 M 5472.6387,9580.6014 V 8001.8439 M 5472.6387,7475.5914 V 5896.8339 M 5472.6387,5370.5814 V 3791.8239 M 5472.6387,3265.5714 V 2476.1926"
     style="fill:none;fill-opacity:1;stroke:#808080;stroke-width:529.666;stroke-linecap:butt;stroke-dasharray:320118, 320118;stroke-dashoffset:0;stroke-opacity:1"
     sodipodi:nodetypes="ccccccccccccccccccccccccccccc" /><path
     id="path1-5"
     style="fill:#000000;stroke-width:45.7839"
     d="M 12244.31,10574.716 C 12005.288,10266.908 11460.044,9564.0293 11456.744,9564.0772 11453.443,9564.1249 11243.268,9806.4364 10989.687,10102.547 10736.106,10398.658 10527.843,10640.034 10526.88,10638.938 10525.917,10637.843 10507.985,10541.314 10487.032,10424.429 10328.922,9542.4439 10169.879,8652.4208 10160.067,8594.7009 10155.221,8566.1924 10127.28,8409.9138 10097.975,8247.4154 10068.671,8084.917 10040.687,7928.6384 10035.789,7900.1299 10030.891,7871.6214 10016.911,7792.3159 10004.723,7723.8954 9992.5343,7655.475 9975.9615,7562.1744 9967.894,7516.5608 9959.8265,7470.9472 9934.3312,7328.6638 9911.2378,7200.3755 9888.1443,7072.0872 9836.8235,6785.1879 9797.1916,6562.8215 9757.5597,6340.4551 9717.2603,6115.3641 9707.6375,6062.6192 9698.0146,6009.8744 9692.7311,5964.1297 9695.8964,5960.9644 9699.0617,5957.7992 10689.617,6449.1965 11897.13,7052.9585 13104.643,7656.7206 14088.315,8153.1772 14083.067,8156.1958 14077.819,8159.2142 13761.952,8265.3934 13381.14,8392.1497 L 12688.755,8622.6157 12734.014,8676.0421 C 12758.906,8705.4266 13304.964,9397.1086 13523.39,9661.8011 13803.261,10000.953 13917.817,10146.99 13911.348,10156.368 13903.417,10167.866 12687.145,11134.927 12681.128,11134.52 12679.9,11134.437 12483.331,10882.525 12244.31,10574.716 Z M 12987.305,10229.975 C 13094.212,10145.17 13181.681,10073.777 13181.681,10071.324 13181.681,10066.571 12754.26,9516.6154 12506.417,9216.7047 12421.604,9114.0742 12243.13,8897.1503 12109.81,8734.6516 11976.489,8572.1532 11853.283,8424.1085 11836.019,8405.6633 11818.754,8387.2181 11806.642,8370.4911 11809.104,8368.4922 11811.565,8366.4931 12022.494,8295.3637 12277.836,8210.4264 L 12742.094,8055.9955 11563.978,7466.9192 C 10916.014,7142.9272 10384.889,6879.271 10383.7,6881.0165 10382.511,6882.762 10403.562,7005.4809 10430.479,7153.7252 10457.397,7301.9695 10487.198,7467.578 10496.705,7521.7442 10506.212,7575.9104 10520.465,7655.2158 10528.377,7697.9786 10536.29,7740.7414 10564.179,7897.0199 10590.355,8045.2641 10616.53,8193.5083 10644.351,8349.7869 10652.181,8392.5496 10660.01,8435.3124 10673.86,8512.2853 10682.959,8563.6006 10781.682,9120.391 10844.098,9463.6885 10847.028,9466.0103 10849.382,9467.8751 11436.641,8784.3041 11464.3,8747.5055 11476.093,8731.8157 11479.041,8731.4922 11486.953,8745.0185 11495.13,8758.9977 12326.502,9834.5103 12644.327,10240.786 12724.287,10342.999 12772.578,10396.474 12780.561,10391.646 12787.363,10387.532 12880.398,10314.78 12987.305,10229.975 Z"
     sodipodi:nodetypes="ssssssssssssssssscsssssssssssscssssssssssssss"
     inkscape:label="path1" /></g></g>
</svg>
