<?xml version="1.0" encoding="UTF-8" standalone="no"?>
<svg
   xml:space="preserve"
   width="99.999901mm"
   height="100mm"
   version="1.1"
   style="clip-rule:evenodd;fill-rule:evenodd;image-rendering:optimizeQuality;shape-rendering:geometricPrecision;text-rendering:geometricPrecision"
   viewBox="0 0 15109 15109.485"
   id="svg5"
   sodipodi:docname="stacking_order.svg"
   inkscape:version="1.4 (e7c3feb100, 2024-10-09)"
   xmlns:inkscape="http://www.inkscape.org/namespaces/inkscape"
   xmlns:sodipodi="http://sodipodi.sourceforge.net/DTD/sodipodi-0.dtd"
   xmlns:xlink="http://www.w3.org/1999/xlink"
   xmlns="http://www.w3.org/2000/svg"
   xmlns:svg="http://www.w3.org/2000/svg"><sodipodi:namedview
   id="namedview5"
   pagecolor="#ffffff"
   bordercolor="#000000"
   borderopacity="0.25"
   inkscape:showpageshadow="2"
   inkscape:pageopacity="0.0"
   inkscape:pagecheckerboard="0"
   inkscape:deskcolor="#d1d1d1"
   inkscape:document-units="mm"
   inkscape:zoom="2.0194374"
   inkscape:cx="176.03913"
   inkscape:cy="208.96909"
   inkscape:window-width="1920"
   inkscape:window-height="1131"
   inkscape:window-x="0"
   inkscape:window-y="32"
   inkscape:window-maximized="1"
   inkscape:current-layer="Layer_x0020_1" />
 <defs
   id="defs1">
 </defs>
 <g
   id="Layer_x0020_1"
   inkscape:label="Layer 1"
   inkscape:groupmode="layer">
  <g
   id="g6"
   transform="matrix(3.72213,0,0,3.72213,-40581.951,-41363.2)"
   style="opacity:1;stroke-width:0.268663"><path
     class="fil1"
     d="M 14667.311,12672.251 C 14670.674,12694.45 14689.847,12711.269 14712.719,12711.269 V 12711.269 C 14737.947,12711.269 14758.801,12690.75 14758.801,12665.186 V 12616.75 C 14758.801,12604.305 14764.856,12593.877 14775.283,12587.15 14786.047,12580.759 14798.492,12580.423 14809.256,12586.478 14837.174,12600.941 14855.674,12628.523 14855.674,12664.514 V 13602.296 C 14855.674,13651.741 14814.974,13692.441 14765.528,13692.441 H 14667.311 V 13841.45 C 14667.311,14399.478 14210.865,14855.923 13652.837,14855.923 H 12236.746 C 11678.719,14855.923 11221.937,14399.478 11221.937,13841.45 V 13706.232 H 11125.737 C 11074.946,13706.232 11033.573,13664.86 11033.573,13614.405 V 12679.986 C 11033.573,12629.532 11074.946,12588.159 11125.737,12588.159 H 11221.937 V 12425.359 C 11221.937,11867.331 11678.719,11410.886 12236.746,11410.886 H 13652.837 C 14210.865,11410.886 14667.311,11867.331 14667.311,12425.359 Z M 11150.292,13239.359 H 11186.282 C 11200.746,13239.359 11213.528,13246.423 11221.937,13256.85 V 13314.032 C 11213.528,13324.796 11200.746,13331.523 11186.282,13331.523 H 11150.292 C 11125.065,13331.523 11104.546,13310.669 11104.546,13285.441 V 13285.441 C 11104.546,13260.214 11125.065,13239.359 11150.292,13239.359 Z M 11168.455,13478.177 C 11193.683,13478.177 11214.201,13498.696 11214.201,13523.923 11214.201,13549.486 11193.683,13570.005 11168.455,13570.005 11142.892,13570.005 11122.374,13549.486 11122.374,13523.923 11122.374,13498.696 11142.892,13478.177 11168.455,13478.177 Z M 14705.319,13239.359 H 14741.311 C 14766.538,13239.359 14787.392,13260.214 14787.392,13285.441 V 13285.441 C 14787.392,13310.669 14766.538,13331.523 14741.311,13331.523 H 14705.319 C 14689.51,13331.523 14675.719,13323.45 14667.311,13311.005 V 13259.877 C 14675.719,13247.769 14689.51,13239.359 14705.319,13239.359 Z M 14723.483,13478.514 C 14748.711,13478.514 14768.892,13498.696 14768.892,13523.923 14768.892,13549.15 14748.711,13569.669 14723.483,13569.669 14698.256,13569.669 14677.738,13549.15 14677.738,13523.923 14677.738,13498.696 14698.256,13478.514 14723.483,13478.514 Z M 12236.746,11583.104 C 11773.91,11583.104 11394.492,11962.523 11394.492,12425.359 V 13841.45 C 11394.492,14304.287 11773.91,14683.706 12236.746,14683.706 H 13652.837 C 14115.674,14683.706 14495.093,14304.287 14495.093,13841.45 V 12425.359 C 14495.093,11962.523 14115.674,11583.104 13652.837,11583.104 Z"
     id="path1"
     style="fill:#003399;stroke:none;stroke-width:10.7404;stroke-dasharray:none"
     sodipodi:nodetypes="cssssccssscsssscsssscsssscssccssssssssssssssssccsssssssssssssss" /></g>
 <path
   style="fill:#00000f;fill-opacity:1;fill-rule:evenodd;stroke-width:391.063;stroke-miterlimit:1.7"
   d="M 3787.2084,9610.1375 6915.7163,10861.537 10044.224,9610.1375 V 10079.414 L 6915.7163,11330.813 3787.2084,10079.414 Z"
   id="path1-2" /><use
   x="0"
   y="0"
   xlink:href="#path1-2"
   id="use1"
   transform="translate(-7.03515e-4,-1341.8075)" /><use
   x="0"
   y="0"
   xlink:href="#use1"
   id="use2"
   transform="translate(-7.03515e-4,-1421.7619)" /><use
   x="0"
   y="0"
   xlink:href="#use2"
   id="use3"
   transform="translate(-7.03515e-4,-1341.8075)" /><path
   style="fill:#000000;fill-rule:evenodd;stroke-width:391.063;stroke-miterlimit:1.7"
   d="M 3787.2084,5661.1853 6915.7163,4409.7823 10044.224,5661.1853 V 5504.7597 L 6915.7163,4253.3568 3787.2084,5504.7597 Z"
   id="path3"
   sodipodi:nodetypes="ccccccc" /><path
   d="M 10983.492,9632.7479 Q 10994.342,9626.2378 11016.043,9626.2378 H 11278.616 Q 11289.466,9626.2378 11295.976,9634.9179 11304.657,9641.428 11304.657,9652.2781 V 11119.218 Q 11304.657,11130.069 11295.976,11138.749 11289.466,11145.259 11278.616,11145.259 H 11024.723 Q 11013.873,11145.259 11005.192,11138.749 10998.682,11130.069 10998.682,11119.218 V 9930.042 Q 10998.682,9925.7019 10994.342,9921.3619 10990.002,9917.0218 10985.662,9919.1918 L 10770.829,9977.7826 10762.149,9979.9527 Q 10742.619,9979.9527 10742.619,9956.0823 L 10736.109,9769.4598 Q 10736.109,9747.7595 10755.639,9739.0793 Z"
   id="text4"
   style="font-weight:bold;font-size:2170.03px;font-family:Barlow;-inkscape-font-specification:'Barlow Bold';text-align:center;letter-spacing:147.956px;text-anchor:middle;stroke-width:1677.62;stroke-dasharray:1.01391e+06, 1.01391e+06"
   aria-label="1" /><path
   d="M 10981.178,9020.3964 Q 10976.838,9024.7365 10979.008,9029.0765 10981.178,9033.4166 10987.688,9033.4166 H 11575.766 Q 11586.616,9033.4166 11593.127,9042.0967 11601.807,9048.6068 11601.807,9059.457 V 9269.9499 Q 11601.807,9280.8 11593.127,9289.4801 11586.616,9295.9902 11575.766,9295.9902 H 10599.253 Q 10588.403,9295.9902 10579.723,9289.4801 10573.212,9280.8 10573.212,9269.9499 V 9070.3071 Q 10573.212,9050.7768 10586.233,9037.7567 10692.564,8933.5952 10803.236,8812.0735 10913.907,8688.3818 10942.118,8658.0014 11002.878,8586.3904 11065.809,8521.2895 11263.282,8302.1165 11263.282,8195.785 11263.282,8119.834 11209.031,8072.0933 11154.781,8022.1826 11067.979,8022.1826 10981.178,8022.1826 10926.927,8072.0933 10872.677,8119.834 10872.677,8200.1251 V 8254.3758 Q 10872.677,8265.226 10863.996,8273.9061 10857.486,8280.4162 10846.636,8280.4162 H 10590.573 Q 10579.723,8280.4162 10571.042,8273.9061 10564.532,8265.226 10564.532,8254.3758 V 8152.3844 Q 10571.042,8035.2028 10638.313,7946.2316 10705.584,7855.0903 10816.256,7807.3496 10929.097,7759.609 11067.979,7759.609 11222.051,7759.609 11334.893,7818.1998 11449.905,7874.6206 11510.665,7972.2719 11573.596,8069.9233 11573.596,8189.2749 11573.596,8280.4162 11528.026,8375.8975 11482.455,8471.3788 11391.314,8582.0504 11324.043,8666.6815 11245.922,8749.1427 11167.801,8831.6038 11013.729,8987.846 Z"
   id="text5"
   style="font-weight:bold;font-size:2170.03px;font-family:Barlow;-inkscape-font-specification:'Barlow Bold';text-align:center;letter-spacing:147.956px;text-anchor:middle;stroke-width:1677.62;stroke-dasharray:1.01391e+06, 1.01391e+06"
   aria-label="2" /><path
   d="M 11512.568,6687.2105 Q 11555.969,6787.0318 11555.969,6917.2336 11555.969,7034.4153 11516.908,7134.2366 11464.828,7273.1186 11341.136,7351.2396 11219.614,7429.3607 11052.522,7429.3607 10887.6,7429.3607 10761.738,7346.8996 10638.046,7264.4384 10583.795,7123.3865 10553.415,7038.7553 10549.075,6941.104 10549.075,6915.0636 10575.115,6915.0636 H 10831.179 Q 10857.219,6915.0636 10857.219,6941.104 10865.899,7012.715 10881.09,7047.4354 10900.62,7103.8562 10944.02,7136.4067 10989.591,7166.7871 11050.352,7166.7871 11171.874,7166.7871 11217.444,7060.4556 11247.825,6995.3547 11247.825,6908.5535 11247.825,6806.5621 11215.274,6741.4612 11165.363,6639.4698 11048.182,6639.4698 11024.312,6639.4698 10998.271,6654.66 10972.231,6667.6802 10935.34,6693.7205 10926.66,6700.2306 10917.98,6700.2306 10904.96,6700.2306 10898.45,6687.2105 L 10770.418,6507.098 Q 10766.078,6500.5879 10766.078,6491.9078 10766.078,6478.8876 10774.758,6470.2075 L 11119.793,6168.5733 Q 11124.133,6164.2332 11121.963,6159.8932 11121.963,6155.5531 11115.453,6155.5531 H 10605.496 Q 10594.646,6155.5531 10585.965,6149.043 10579.455,6140.3629 10579.455,6129.5127 V 5919.0198 Q 10579.455,5908.1697 10585.965,5901.6596 10594.646,5892.9795 10605.496,5892.9795 H 11510.398 Q 11521.248,5892.9795 11527.758,5901.6596 11536.439,5908.1697 11536.439,5919.0198 V 6157.7231 Q 11536.439,6175.0834 11521.248,6190.2736 L 11236.974,6450.6772 Q 11232.634,6455.0172 11232.634,6459.3573 11234.804,6463.6974 11243.485,6463.6974 11432.277,6500.5879 11512.568,6687.2105 Z"
   id="text6"
   style="font-weight:bold;font-size:2170.03px;font-family:Barlow;-inkscape-font-specification:'Barlow Bold';text-align:center;letter-spacing:147.956px;text-anchor:middle;stroke-width:1677.62;stroke-dasharray:1.01391e+06, 1.01391e+06"
   aria-label="3" /><path
   d="M 11552.184,4900.8723 Q 11563.034,4900.8723 11569.544,4909.5524 11578.224,4916.0625 11578.224,4926.9126 V 5146.0857 Q 11578.224,5156.9358 11569.544,5165.6159 11563.034,5172.126 11552.184,5172.126 H 11458.873 Q 11448.023,5172.126 11448.023,5182.9762 V 5536.6911 Q 11448.023,5547.5412 11439.342,5556.2214 11432.832,5562.7314 11421.982,5562.7314 H 11168.089 Q 11157.239,5562.7314 11148.558,5556.2214 11142.048,5547.5412 11142.048,5536.6911 V 5182.9762 Q 11142.048,5172.126 11131.198,5172.126 H 10464.999 Q 10454.149,5172.126 10445.469,5165.6159 10438.959,5156.9358 10438.959,5146.0857 V 4972.4833 Q 10438.959,4959.4631 10445.469,4939.9328 L 10836.074,4063.2407 Q 10844.754,4043.7104 10866.455,4043.7104 H 11137.708 Q 11152.899,4043.7104 11157.239,4052.3905 11163.749,4058.9006 11157.239,4074.0908 L 10794.844,4887.8521 Q 10792.674,4892.1922 10794.844,4896.5322 10797.014,4900.8723 10801.354,4900.8723 H 11131.198 Q 11142.048,4900.8723 11142.048,4890.0221 V 4620.9384 Q 11142.048,4610.0883 11148.558,4603.5782 11157.239,4594.8981 11168.089,4594.8981 H 11421.982 Q 11432.832,4594.8981 11439.342,4603.5782 11448.023,4610.0883 11448.023,4620.9384 V 4890.0221 Q 11448.023,4900.8723 11458.873,4900.8723 Z"
   id="text7"
   style="font-weight:bold;font-size:2170.03px;font-family:Barlow;-inkscape-font-specification:'Barlow Bold';text-align:center;letter-spacing:147.956px;text-anchor:middle;stroke-width:1677.62;stroke-dasharray:1.01391e+06, 1.01391e+06"
   aria-label="4" /></g>
</svg>
