<?xml version="1.0" encoding="UTF-8" standalone="no"?>
<svg
   xml:space="preserve"
   width="99.999901mm"
   height="100mm"
   version="1.1"
   style="clip-rule:evenodd;fill-rule:evenodd;image-rendering:optimizeQuality;shape-rendering:geometricPrecision;text-rendering:geometricPrecision"
   viewBox="0 0 15109 15109.485"
   id="svg5"
   sodipodi:docname="update_svg.svg"
   inkscape:version="1.4 (e7c3feb100, 2024-10-09)"
   xmlns:inkscape="http://www.inkscape.org/namespaces/inkscape"
   xmlns:sodipodi="http://sodipodi.sourceforge.net/DTD/sodipodi-0.dtd"
   xmlns:xlink="http://www.w3.org/1999/xlink"
   xmlns="http://www.w3.org/2000/svg"
   xmlns:svg="http://www.w3.org/2000/svg"
   xmlns:inkstitch="http://inkstitch.org/namespace"><sodipodi:namedview
   id="namedview5"
   pagecolor="#ffffff"
   bordercolor="#000000"
   borderopacity="0.25"
   inkscape:showpageshadow="2"
   inkscape:pageopacity="0.0"
   inkscape:pagecheckerboard="0"
   inkscape:deskcolor="#d1d1d1"
   inkscape:document-units="mm"
   inkscape:zoom="2.0194374"
   inkscape:cx="202.28406"
   inkscape:cy="229.76696"
   inkscape:window-width="1920"
   inkscape:window-height="1131"
   inkscape:window-x="0"
   inkscape:window-y="32"
   inkscape:window-maximized="1"
   inkscape:current-layer="Layer_x0020_1"
   showgrid="false" /><metadata
   id="metadata3"><inkstitch:min_stitch_len_mm>0.3</inkstitch:min_stitch_len_mm><inkstitch:collapse_len_mm>3.0</inkstitch:collapse_len_mm><inkstitch:inkstitch_svg_version>2</inkstitch:inkstitch_svg_version></metadata><defs
   id="defs1"><symbol
   id="inkstitch_ignore_layer">
      <title
   id="title9694">Ignore entire layer when generating stitch plan</title>
      <path
   inkscape:connector-curvature="0"
   style="opacity:1;vector-effect:none;fill:#fafafa;fill-opacity:1;fill-rule:evenodd;stroke:#ff0000;stroke-width:1.06501234;stroke-linecap:round;stroke-linejoin:miter;stroke-miterlimit:4;stroke-dasharray:3.19503705, 3.19503705;stroke-dashoffset:0;stroke-opacity:1"
   d="M 9.2465269,-4.9265995e-6 C 9.246525,5.1067241 5.1067028,9.2465451 -2.615882e-5,9.2465451 -5.1067554,9.2465451 -9.2465782,5.1067241 -9.2465801,-4.9265995e-6 -9.24658,-2.4523429 -8.2723922,-4.8042399 -6.538327,-6.5383059 c 1.7340653,-1.734065 4.0859624,-2.708252 6.53830084118,-2.708252 5.10673015882,0 9.24655285882,4.139823 9.24655305882,9.2465529734005 0,0 0,0 0,0"
   id="inkstitch_path25368-7" />
      <path
   sodipodi:nodetypes="ccccc"
   inkscape:connector-curvature="0"
   style="color:#000000;fill:#d5d5d5;fill-opacity:1;fill-rule:evenodd;stroke:#5a5a5a;stroke-width:0.63330007;stroke-linecap:square;stroke-linejoin:round;stroke-miterlimit:0;stroke-opacity:1"
   d="M 4,4.452769 1.46667,1.286102 H -5.5 l 2.53333,3.166667 z"
   id="use5800" />
      <path
   sodipodi:nodetypes="ccccc"
   inkscape:connector-curvature="0"
   style="color:#000000;opacity:0.5;fill:#d5d5d5;fill-opacity:1;fill-rule:evenodd;stroke:#858585;stroke-width:0.63339424;stroke-linecap:square;stroke-linejoin:round;stroke-miterlimit:0;stroke-opacity:1"
   d="M 4,2.552769 1.46667,-0.613898 H -5.5 l 2.53333,3.166667 z"
   id="use5864" />
      <g
   id="g5771">
        <path
   sodipodi:nodetypes="ccccccccc"
   inkscape:connector-curvature="0"
   style="fill:#aa0000;fill-rule:evenodd;stroke:#aa0000;stroke-width:1px"
   d="m -1.0666699,-5.0472339 h 4.4333333 l 0.6333333,0.6333333 V 0.01943274 L 3.3666634,0.65276607 H -1.0666699 L -1.7000032,0.01943274 V -4.4139006 Z"
   id="path8011" />
        <path
   inkscape:connector-curvature="0"
   id="path8023"
   d="m -0.43333658,-3.8755672 c 0,0 3.16666668,3.16666661 3.16666668,3.16666661"
   style="fill:none;stroke:#ffffff;stroke-width:1.70000005" />
        <path
   inkscape:connector-curvature="0"
   id="path8025"
   d="m 2.7333301,-3.8755672 c 0,0 -3.16666668,3.16666661 -3.16666668,3.16666661"
   style="fill:none;stroke:#ffffff;stroke-width:1.79999995;stroke-linejoin:round" />
      </g>
    </symbol>
    </defs>
 <g
   id="Layer_x0020_1"
   inkscape:label="Layer 1"
   inkscape:groupmode="layer">
  <g
   id="g6"
   transform="matrix(3.72213,0,0,3.72213,-40581.951,-41363.2)"
   style="opacity:1;stroke-width:0.268663"><path
     class="fil1"
     d="M 14667.311,12672.251 C 14670.674,12694.45 14689.847,12711.269 14712.719,12711.269 V 12711.269 C 14737.947,12711.269 14758.801,12690.75 14758.801,12665.186 V 12616.75 C 14758.801,12604.305 14764.856,12593.877 14775.283,12587.15 14786.047,12580.759 14798.492,12580.423 14809.256,12586.478 14837.174,12600.941 14855.674,12628.523 14855.674,12664.514 V 13602.296 C 14855.674,13651.741 14814.974,13692.441 14765.528,13692.441 H 14667.311 V 13841.45 C 14667.311,14399.478 14210.865,14855.923 13652.837,14855.923 H 12236.746 C 11678.719,14855.923 11221.937,14399.478 11221.937,13841.45 V 13706.232 H 11125.737 C 11074.946,13706.232 11033.573,13664.86 11033.573,13614.405 V 12679.986 C 11033.573,12629.532 11074.946,12588.159 11125.737,12588.159 H 11221.937 V 12425.359 C 11221.937,11867.331 11678.719,11410.886 12236.746,11410.886 H 13652.837 C 14210.865,11410.886 14667.311,11867.331 14667.311,12425.359 Z M 11150.292,13239.359 H 11186.282 C 11200.746,13239.359 11213.528,13246.423 11221.937,13256.85 V 13314.032 C 11213.528,13324.796 11200.746,13331.523 11186.282,13331.523 H 11150.292 C 11125.065,13331.523 11104.546,13310.669 11104.546,13285.441 V 13285.441 C 11104.546,13260.214 11125.065,13239.359 11150.292,13239.359 Z M 11168.455,13478.177 C 11193.683,13478.177 11214.201,13498.696 11214.201,13523.923 11214.201,13549.486 11193.683,13570.005 11168.455,13570.005 11142.892,13570.005 11122.374,13549.486 11122.374,13523.923 11122.374,13498.696 11142.892,13478.177 11168.455,13478.177 Z M 14705.319,13239.359 H 14741.311 C 14766.538,13239.359 14787.392,13260.214 14787.392,13285.441 V 13285.441 C 14787.392,13310.669 14766.538,13331.523 14741.311,13331.523 H 14705.319 C 14689.51,13331.523 14675.719,13323.45 14667.311,13311.005 V 13259.877 C 14675.719,13247.769 14689.51,13239.359 14705.319,13239.359 Z M 14723.483,13478.514 C 14748.711,13478.514 14768.892,13498.696 14768.892,13523.923 14768.892,13549.15 14748.711,13569.669 14723.483,13569.669 14698.256,13569.669 14677.738,13549.15 14677.738,13523.923 14677.738,13498.696 14698.256,13478.514 14723.483,13478.514 Z M 12236.746,11583.104 C 11773.91,11583.104 11394.492,11962.523 11394.492,12425.359 V 13841.45 C 11394.492,14304.287 11773.91,14683.706 12236.746,14683.706 H 13652.837 C 14115.674,14683.706 14495.093,14304.287 14495.093,13841.45 V 12425.359 C 14495.093,11962.523 14115.674,11583.104 13652.837,11583.104 Z"
     id="path1"
     style="fill:#003399;stroke:none;stroke-width:10.7404;stroke-dasharray:none"
     sodipodi:nodetypes="cssssccssscsssscsssscsssscssccssssssssssssssssccsssssssssssssss" /></g>
 <g
   id="g4"
   transform="translate(-499.08124,243.55389)"><path
     sodipodi:type="star"
     style="fill:#ff0000;fill-opacity:1;stroke:#000000;stroke-width:302.19;stroke-opacity:1"
     id="path2"
     inkscape:flatsided="true"
     sodipodi:sides="3"
     sodipodi:cx="4335.1318"
     sodipodi:cy="5701.3047"
     sodipodi:r1="3547.9954"
     sodipodi:r2="1773.9977"
     sodipodi:arg1="1.5707963"
     sodipodi:arg2="2.6179939"
     inkscape:rounded="0"
     inkscape:randomized="0"
     d="M 4335.1319,9249.3 1262.4777,3927.3071 7407.7859,3927.3069 Z"
     inkscape:transform-center-y="886.99883"
     transform="matrix(0.46847705,0,0,1,2927.8022,732.45926)"
     inkscape:transform-center-x="-1.3795924e-06" /><path
     d="M 7871.3338,8186.1477 Q 7835.0066,8186.1477 7805.9449,8164.3515 7784.1486,8135.2897 7784.1486,8098.9626 V 7866.4688 Q 7784.1486,7503.1973 7965.7844,7285.2344 8154.6856,7060.0061 8503.4262,6812.9814 8786.778,6616.8148 8924.8212,6464.2408 9062.8643,6311.6668 9062.8643,6093.7039 9062.8643,5861.2101 8888.494,5723.1669 8714.1237,5577.8583 8430.7719,5577.8583 8125.6238,5577.8583 7936.7227,5730.4323 7755.0869,5883.0064 7755.0869,6122.7656 V 6239.0125 Q 7755.0869,6318.9322 7667.9017,6318.9322 L 6817.8464,6282.605 Q 6781.5193,6282.605 6752.4575,6260.8087 6730.6612,6231.747 6730.6612,6195.4199 V 6122.7656 Q 6730.6612,5686.8398 6948.6241,5352.63 7166.5871,5011.1548 7551.6549,4829.519 7943.9881,4640.6178 8452.5682,4640.6178 8946.6174,4640.6178 9317.1544,4822.2536 9694.9568,4996.6239 9898.3888,5316.3028 10101.821,5635.9818 10101.821,6057.3767 10101.821,6377.0556 9985.574,6609.5494 9876.5925,6834.7777 9716.753,6980.0863 9556.9136,7125.3949 9309.889,7299.7653 9048.3335,7481.401 8924.8212,7612.1788 8801.3088,7742.9565 8801.3088,7931.8577 V 8098.9626 Q 8801.3088,8135.2897 8772.2471,8164.3515 8750.4508,8186.1477 8714.1237,8186.1477 Z M 8263.667,9813.6041 Q 8016.6424,9813.6041 7849.5375,9653.7646 7689.698,9486.6597 7689.698,9239.6351 7689.698,8992.6105 7849.5375,8832.771 8009.377,8672.9316 8263.667,8672.9316 8517.9571,8672.9316 8670.5311,8832.771 8830.3706,8985.3451 8830.3706,9239.6351 8830.3706,9486.6597 8670.5311,9653.7646 8510.6916,9813.6041 8263.667,9813.6041 Z M 11737.863,8055.37 Q 11701.536,8055.37 11672.474,8033.5737 11650.678,8004.512 11650.678,7968.1848 L 11556.227,4800.4573 Q 11556.227,4764.1301 11578.023,4742.3338 11607.085,4713.2721 11643.412,4713.2721 H 12493.468 Q 12529.795,4713.2721 12551.591,4742.3338 12580.653,4764.1301 12580.653,4800.4573 L 12471.671,7968.1848 Q 12471.671,8004.512 12442.61,8033.5737 12420.813,8055.37 12384.486,8055.37 Z M 12021.215,9791.8078 Q 11774.19,9791.8078 11607.085,9631.9683 11447.246,9464.8635 11447.246,9217.8388 11447.246,8963.5488 11607.085,8803.7093 11766.925,8643.8698 12021.215,8643.8698 12275.505,8643.8698 12428.079,8803.7093 12587.918,8963.5488 12587.918,9217.8388 12587.918,9464.8635 12428.079,9631.9683 12268.239,9791.8078 12021.215,9791.8078 Z"
     id="text4"
     style="font-weight:bold;font-size:7265.43px;font-family:Barlow;-inkscape-font-specification:'Barlow Bold';text-align:center;letter-spacing:495.37px;text-anchor:middle;stroke-width:3744.53"
     aria-label="?!" /></g></g>
<g
   id="__inkstitch_density_plan__"
   inkscape:label="Density Plan"
   inkscape:groupmode="layer"><use
     id="use5090"
     inkscape:label="Ink/Stitch Command: Ignore layer (do not stitch any objects in this layer)"
     xlink:href="#inkstitch_ignore_layer"
     height="100%"
     width="100%"
     x="0"
     y="-10"
     transform="scale(39.9776, 39.9776)" /></g></svg>
