<?xml version="1.0" encoding="UTF-8" standalone="no"?>
<svg
   xml:space="preserve"
   width="99.999901mm"
   height="100mm"
   version="1.1"
   style="clip-rule:evenodd;fill-rule:evenodd;image-rendering:optimizeQuality;shape-rendering:geometricPrecision;text-rendering:geometricPrecision"
   viewBox="0 0 15109 15109.485"
   id="svg5"
   sodipodi:docname="undo_stitch_plan.svg"
   inkscape:version="1.4 (e7c3feb100, 2024-10-09)"
   xmlns:inkscape="http://www.inkscape.org/namespaces/inkscape"
   xmlns:sodipodi="http://sodipodi.sourceforge.net/DTD/sodipodi-0.dtd"
   xmlns:xlink="http://www.w3.org/1999/xlink"
   xmlns="http://www.w3.org/2000/svg"
   xmlns:svg="http://www.w3.org/2000/svg"
   xmlns:inkstitch="http://inkstitch.org/namespace"><defs
   id="defs1"><marker
     style="overflow:visible"
     id="marker4"
     refX="0"
     refY="0"
     orient="auto"
     inkscape:stockid="Dot"
     markerWidth="1"
     markerHeight="1"
     viewBox="0 0 1 1"
     inkscape:isstock="true"
     inkscape:collect="always"
     preserveAspectRatio="xMidYMid"
     markerUnits="userSpaceOnUse"><path
       transform="scale(0.5)"
       style="fill:context-stroke;fill-rule:evenodd;stroke:none"
       d="M 5,0 C 5,2.76 2.76,5 0,5 -2.76,5 -5,2.76 -5,0 -5,-2.76 -2.7,-5 0,-5 2.76,-5 5,-2.76 5,0 Z"
       sodipodi:nodetypes="sssss"
       id="path4" /></marker><linearGradient
     inkscape:collect="always"
     xlink:href="#linearGradient3"
     id="linearGradient4"
     x1="14.856709"
     y1="25.894156"
     x2="30.101946"
     y2="26.715513"
     gradientUnits="userSpaceOnUse"
     gradientTransform="matrix(151.09485,0,0,151.09485,4973.262,3297.2705)" /><linearGradient
     id="linearGradient3"
     inkscape:collect="always"><stop
       style="stop-color:#b3b3b3;stop-opacity:1;"
       offset="0"
       id="stop3" /><stop
       style="stop-color:#b3b3b3;stop-opacity:0;"
       offset="1"
       id="stop4" /></linearGradient></defs><sodipodi:namedview
   id="namedview5"
   pagecolor="#ffffff"
   bordercolor="#000000"
   borderopacity="0.25"
   inkscape:showpageshadow="2"
   inkscape:pageopacity="0.0"
   inkscape:pagecheckerboard="0"
   inkscape:deskcolor="#d1d1d1"
   inkscape:document-units="mm"
   inkscape:zoom="1.0097187"
   inkscape:cx="126.27279"
   inkscape:cy="215.90172"
   inkscape:window-width="1920"
   inkscape:window-height="1131"
   inkscape:window-x="0"
   inkscape:window-y="32"
   inkscape:window-maximized="1"
   inkscape:current-layer="g1"
   showgrid="false" />
 <g
   id="Layer_x0020_1"
   inkscape:label="Layer 1"
   inkscape:groupmode="layer">
  <g
   id="g6"
   transform="matrix(3.72213,0,0,3.72213,-40581.951,-41363.2)"
   style="opacity:1;stroke-width:0.268663"><path
     class="fil1"
     d="M 14667.311,12672.251 C 14670.674,12694.45 14689.847,12711.269 14712.719,12711.269 V 12711.269 C 14737.947,12711.269 14758.801,12690.75 14758.801,12665.186 V 12616.75 C 14758.801,12604.305 14764.856,12593.877 14775.283,12587.15 14786.047,12580.759 14798.492,12580.423 14809.256,12586.478 14837.174,12600.941 14855.674,12628.523 14855.674,12664.514 V 13602.296 C 14855.674,13651.741 14814.974,13692.441 14765.528,13692.441 H 14667.311 V 13841.45 C 14667.311,14399.478 14210.865,14855.923 13652.837,14855.923 H 12236.746 C 11678.719,14855.923 11221.937,14399.478 11221.937,13841.45 V 13706.232 H 11125.737 C 11074.946,13706.232 11033.573,13664.86 11033.573,13614.405 V 12679.986 C 11033.573,12629.532 11074.946,12588.159 11125.737,12588.159 H 11221.937 V 12425.359 C 11221.937,11867.331 11678.719,11410.886 12236.746,11410.886 H 13652.837 C 14210.865,11410.886 14667.311,11867.331 14667.311,12425.359 Z M 11150.292,13239.359 H 11186.282 C 11200.746,13239.359 11213.528,13246.423 11221.937,13256.85 V 13314.032 C 11213.528,13324.796 11200.746,13331.523 11186.282,13331.523 H 11150.292 C 11125.065,13331.523 11104.546,13310.669 11104.546,13285.441 V 13285.441 C 11104.546,13260.214 11125.065,13239.359 11150.292,13239.359 Z M 11168.455,13478.177 C 11193.683,13478.177 11214.201,13498.696 11214.201,13523.923 11214.201,13549.486 11193.683,13570.005 11168.455,13570.005 11142.892,13570.005 11122.374,13549.486 11122.374,13523.923 11122.374,13498.696 11142.892,13478.177 11168.455,13478.177 Z M 14705.319,13239.359 H 14741.311 C 14766.538,13239.359 14787.392,13260.214 14787.392,13285.441 V 13285.441 C 14787.392,13310.669 14766.538,13331.523 14741.311,13331.523 H 14705.319 C 14689.51,13331.523 14675.719,13323.45 14667.311,13311.005 V 13259.877 C 14675.719,13247.769 14689.51,13239.359 14705.319,13239.359 Z M 14723.483,13478.514 C 14748.711,13478.514 14768.892,13498.696 14768.892,13523.923 14768.892,13549.15 14748.711,13569.669 14723.483,13569.669 14698.256,13569.669 14677.738,13549.15 14677.738,13523.923 14677.738,13498.696 14698.256,13478.514 14723.483,13478.514 Z M 12236.746,11583.104 C 11773.91,11583.104 11394.492,11962.523 11394.492,12425.359 V 13841.45 C 11394.492,14304.287 11773.91,14683.706 12236.746,14683.706 H 13652.837 C 14115.674,14683.706 14495.093,14304.287 14495.093,13841.45 V 12425.359 C 14495.093,11962.523 14115.674,11583.104 13652.837,11583.104 Z"
     id="path1"
     style="fill:#003399;stroke:none;stroke-width:10.7404;stroke-dasharray:none"
     sodipodi:nodetypes="cssssccssscsssscsssscsssscssccssssssssssssssssccsssssssssssssss" /></g>
 <g
   id="g1"
   transform="translate(-60.581181,105.13571)"><path
     id="object7305"
     style="fill:none;stroke:#b3b3b3;stroke-width:151.095;stroke-linecap:butt;stroke-linejoin:round;stroke-dasharray:none;stroke-opacity:1;marker-mid:url(#marker4)"
     d="M 7613.2404,2926.5576 7898.1114,3131.9186 8199.8274,3348.5091 8501.5424,3565.0997 8803.2584,3781.6902 9104.9744,3998.2807 9406.6894,4214.8713 9708.4054,4431.4618 10010.121,4648.0523 10311.836,4864.6429 10613.552,5081.2332 10915.268,5297.8237 11216.983,5514.4142 11518.699,5731.0051 11820.415,5947.5956 12122.13,6164.1857 12010.717,6513.854 11899.304,6863.522 11787.891,7213.1899 11676.478,7562.8583 11565.065,7912.5263 11453.652,8262.1942 11342.239,8611.8626 11230.826,8961.5305 11119.413,9311.1985 11008,9660.8664 10896.587,10010.534 10785.174,10360.203 10673.761,10709.871 10562.349,11059.539 10450.936,11409.206 10234.117,11409.509 H 9780.8334 9327.5504 8874.2654 8420.9814 7967.6984 7514.4144 7061.1294 L 7401.0924,10956.226 H 7854.3764 8307.6614 8760.9444 9214.2284 9667.5124 10120.797 10574.08 L 10667.432,10729.735 10739.598,10503.245 10460.759,10502.942 H 10007.475 9554.1914 9100.9084 8647.6234 8194.3394 7741.0564 7287.7724 L 7174.4514,10049.658 H 7627.7344 8081.0184 8534.3034 8987.5864 9440.8704 9894.1554 10347.438 10800.722 10884.122 L 10956.287,9823.1672 11028.453,9596.6767 10687.402,9596.3737 H 10234.117 9780.8334 9327.5504 8874.2654 8420.9814 7967.6984 7514.4144 7061.1294 L 7401.0924,9143.0898 H 7854.3764 8307.6614 8760.9444 9214.2284 9667.5124 10120.797 10574.08 11027.364 11172.977 L 11245.142,8916.5994 11317.308,8690.109 10914.043,8689.806 H 10460.759 10007.475 9554.1914 9100.9084 8647.6234 8194.3394 7741.0564 7287.7724 L 7174.4514,8236.5217 H 7627.7344 8081.0184 8534.3034 8987.5864 9440.8704 9894.1554 10347.438 10800.722 11254.006 11461.832 L 11533.998,8010.0313 11606.163,7783.5408 11140.685,7783.2378 H 10687.402 10234.117 9780.8334 9327.5504 8874.2654 8420.9814 7967.6984 7514.4144 7061.1294 L 7401.0924,7329.9539 H 7854.3764 8307.6614 8760.9444 9214.2284 9667.5124 10120.797 10574.08 11027.364 11480.648 11750.687 L 11822.853,7103.4635 11895.018,6876.9731 11820.611,6876.6697 H 11367.327 10914.043 10460.759 10007.475 9554.1914 9100.9084 8647.6234 8194.3394 7741.0564 7287.7724 L 7174.4514,6423.3858 H 7627.7344 8081.0184 8534.3034 8987.5864 9440.8704 9894.1554 10347.438 10800.722 11254.006 11707.29 12039.542 L 12122.13,6164.1857 11851.999,5970.269 11593.969,5970.1019 H 11140.685 10687.402 10234.117 9780.8334 9327.5504 8874.2654 8420.9814 7967.6984 7514.4144 7061.1294 L 7401.0924,5516.818 H 7854.3764 8307.6614 8760.9444 9214.2284 9667.5124 10120.797 10574.08 11027.364 11220.331 L 11009.931,5365.7789 10799.53,5214.7401 10589.129,5063.7009 10460.759,5063.5338 H 10007.475 9554.1914 9100.9084 8647.6234 8194.3394 7741.0564 7287.7724 L 7174.4514,4610.2499 H 7627.7344 8081.0184 8534.3034 8987.5864 9440.8704 9894.1554 9957.4614 L 9747.0604,4459.2109 9536.6604,4308.172 9326.2594,4157.133 8874.2654,4156.966 H 8420.9814 7967.6984 7514.4144 7061.1294 L 7401.0924,3703.682 H 7854.3764 8307.6614 8694.5914 L 8484.1904,3552.643 8273.7894,3401.604 8063.3894,3250.5651 7314.3334,3261.6275"
     inkstitch:stroke_method="manual_stitch"
     sodipodi:nodetypes="cccccccccccccccccccccccccccccccccccccccccccccccccccccccccccccccccccccccccccccccccccccccccccccccccccccccccccccccccccccccccccccccccccccccccccccccccccccccccccccccccccccccccccccccccccccccccccccccccccccccccccccccccccccccc" /><path
     id="path2"
     style="fill:url(#linearGradient4);stroke-width:604.379"
     inkscape:transform-center-x="0.055286406"
     inkscape:transform-center-y="-2.9424559"
     d="M 10430.82,11472.379 7825.2594,11487.242 4859.788,11504.157 3108.0209,6215.6106 7596.4024,2915.3303 12122.141,6164.1918 Z"
     sodipodi:nodetypes="ccccccc" /><path
     style="fill:#9a9c9c;stroke:#ff0000;stroke-width:302.18969777;stroke-opacity:1;stroke-dasharray:none"
     d="M 3584.0689,3656.1416 11601.529,11673.601"
     id="path3" /><path
     style="fill:#9a9c9c;stroke:#ff0000;stroke-width:302.19;stroke-dasharray:none;stroke-opacity:1"
     d="M 3584.0692,11673.601 11601.529,3656.1412"
     id="path5" /></g></g>
</svg>
