<?xml version="1.0" encoding="UTF-8" standalone="no"?>
<svg
   xml:space="preserve"
   width="99.999901mm"
   height="100mm"
   version="1.1"
   style="clip-rule:evenodd;fill-rule:evenodd;image-rendering:optimizeQuality;shape-rendering:geometricPrecision;text-rendering:geometricPrecision"
   viewBox="0 0 15109 15109.485"
   id="svg5"
   sodipodi:docname="unlink_clone.svg"
   inkscape:version="1.4 (e7c3feb100, 2024-10-09)"
   xmlns:inkscape="http://www.inkscape.org/namespaces/inkscape"
   xmlns:sodipodi="http://sodipodi.sourceforge.net/DTD/sodipodi-0.dtd"
   xmlns="http://www.w3.org/2000/svg"
   xmlns:svg="http://www.w3.org/2000/svg"><defs
     id="defs1" /><sodipodi:namedview
     id="namedview5"
     pagecolor="#ffffff"
     bordercolor="#000000"
     borderopacity="0.25"
     inkscape:showpageshadow="2"
     inkscape:pageopacity="0.0"
     inkscape:pagecheckerboard="0"
     inkscape:deskcolor="#d1d1d1"
     inkscape:document-units="mm"
     inkscape:zoom="2.0194374"
     inkscape:cx="209.71187"
     inkscape:cy="250.06965"
     inkscape:window-width="1920"
     inkscape:window-height="1131"
     inkscape:window-x="0"
     inkscape:window-y="32"
     inkscape:window-maximized="1"
     inkscape:current-layer="g8"
     showgrid="false" /><g
     id="Layer_x0020_1"
     inkscape:label="Layer 1"
     inkscape:groupmode="layer">
  <g
   id="g6"
   transform="matrix(3.72213,0,0,3.72213,-40581.951,-41363.2)"
   style="opacity:1;stroke-width:0.268663"><path
     class="fil1"
     d="M 14667.311,12672.251 C 14670.674,12694.45 14689.847,12711.269 14712.719,12711.269 V 12711.269 C 14737.947,12711.269 14758.801,12690.75 14758.801,12665.186 V 12616.75 C 14758.801,12604.305 14764.856,12593.877 14775.283,12587.15 14786.047,12580.759 14798.492,12580.423 14809.256,12586.478 14837.174,12600.941 14855.674,12628.523 14855.674,12664.514 V 13602.296 C 14855.674,13651.741 14814.974,13692.441 14765.528,13692.441 H 14667.311 V 13841.45 C 14667.311,14399.478 14210.865,14855.923 13652.837,14855.923 H 12236.746 C 11678.719,14855.923 11221.937,14399.478 11221.937,13841.45 V 13706.232 H 11125.737 C 11074.946,13706.232 11033.573,13664.86 11033.573,13614.405 V 12679.986 C 11033.573,12629.532 11074.946,12588.159 11125.737,12588.159 H 11221.937 V 12425.359 C 11221.937,11867.331 11678.719,11410.886 12236.746,11410.886 H 13652.837 C 14210.865,11410.886 14667.311,11867.331 14667.311,12425.359 Z M 11150.292,13239.359 H 11186.282 C 11200.746,13239.359 11213.528,13246.423 11221.937,13256.85 V 13314.032 C 11213.528,13324.796 11200.746,13331.523 11186.282,13331.523 H 11150.292 C 11125.065,13331.523 11104.546,13310.669 11104.546,13285.441 V 13285.441 C 11104.546,13260.214 11125.065,13239.359 11150.292,13239.359 Z M 11168.455,13478.177 C 11193.683,13478.177 11214.201,13498.696 11214.201,13523.923 11214.201,13549.486 11193.683,13570.005 11168.455,13570.005 11142.892,13570.005 11122.374,13549.486 11122.374,13523.923 11122.374,13498.696 11142.892,13478.177 11168.455,13478.177 Z M 14705.319,13239.359 H 14741.311 C 14766.538,13239.359 14787.392,13260.214 14787.392,13285.441 V 13285.441 C 14787.392,13310.669 14766.538,13331.523 14741.311,13331.523 H 14705.319 C 14689.51,13331.523 14675.719,13323.45 14667.311,13311.005 V 13259.877 C 14675.719,13247.769 14689.51,13239.359 14705.319,13239.359 Z M 14723.483,13478.514 C 14748.711,13478.514 14768.892,13498.696 14768.892,13523.923 14768.892,13549.15 14748.711,13569.669 14723.483,13569.669 14698.256,13569.669 14677.738,13549.15 14677.738,13523.923 14677.738,13498.696 14698.256,13478.514 14723.483,13478.514 Z M 12236.746,11583.104 C 11773.91,11583.104 11394.492,11962.523 11394.492,12425.359 V 13841.45 C 11394.492,14304.287 11773.91,14683.706 12236.746,14683.706 H 13652.837 C 14115.674,14683.706 14495.093,14304.287 14495.093,13841.45 V 12425.359 C 14495.093,11962.523 14115.674,11583.104 13652.837,11583.104 Z"
     id="path1"
     style="fill:#003399;stroke:none;stroke-width:10.7404;stroke-dasharray:none"
     sodipodi:nodetypes="cssssccssscsssscsssscsssscssccssssssssssssssssccsssssssssssssss" /></g>
 <g
   id="g8"
   transform="matrix(151.09485,0,0,151.09485,3345.6935,2831.4139)"><path
     style="fill:#adadad;stroke:#000000;stroke-width:1.2789;fill-opacity:1"
     d="M 35.681995,36.661512 C 35.359798,38.520367 34.289278,40.319549 32.519242,41.614059 L 18.643835,51.761792 C 15.188094,54.289137 10.70717,53.692572 8.4670005,50.629498 6.2268315,47.566424 7.0162345,43.115422 10.471975,40.588077 L 16.661624,36.061298 14.007326,33.249231 8.2070935,37.491212 C 3.1988952,41.153941 1.828552,48.051829 5.3701365,52.894379 8.9117205,57.736931 15.900518,58.521386 20.908717,54.858657 L 34.784124,44.710924 C 37.491353,42.731001 39.135584,39.80575 39.515574,36.770825"
     id="path4"
     sodipodi:nodetypes="cssssccssssc" /><path
     style="fill:#adadad;stroke:#000000;stroke-width:1.29114;fill-opacity:1"
     d="M 38.995751,29.300289 C 32.828234,28.204795 26.88457,32.208975 25.917874,38.188203 24.951178,44.167432 29.361252,49.648848 35.528769,50.744342 L 49.647686,53.252188 C 55.815206,54.347682 61.758869,50.343501 62.725565,44.364273 63.69226,38.385045 59.282187,32.903629 53.114669,31.808135 Z M 38.377539,33.124072 52.496456,35.631918 C 56.752147,36.387827 59.513249,39.963999 58.901783,43.746059 58.290315,47.528122 54.52159,50.184316 50.265899,49.428406 L 36.146983,46.920559 C 31.891293,46.16465 29.13019,42.588478 29.741656,38.806415 30.353124,35.024356 34.121849,32.368163 38.377539,33.124072 Z"
     id="path3"
     sodipodi:nodetypes="ssssssssssssss" /><path
     style="fill:#adadad;stroke:#000000;stroke-width:1.2789;stroke-linecap:round;fill-opacity:1"
     d="M 39.468049,37.198547 C 39.791014,34.619059 39.248229,31.532622 37.621082,29.307757 34.807416,25.460517 29.79732,24.157592 25.369461,25.638948 L 26.585142,29.277238 C 29.571141,28.278261 32.74448,29.139132 34.524217,31.572639 35.616968,33.066802 35.988841,34.986269 35.681996,36.756561"
     id="path2"
     sodipodi:nodetypes="csccsc" /><path
     style="fill:#adadad;fill-opacity:1;stroke:#000000;stroke-linecap:round"
     d="M -5.3456786,21.450786 A 1.5,1.5 0 0 0 -7.1171626,22.618755 1.5,1.5 0 0 0 -5.9491946,24.390239 L 5.6445558,26.769146 A 1.5,1.5 0 0 0 7.4160408,25.601177 1.5,1.5 0 0 0 6.2480718,23.829692 Z"
     id="path5" /><path
     style="fill:#adadad;fill-opacity:1;stroke:#000000;stroke-linecap:round"
     d="M 4.5354661,5.6377325 A 1.5,1.5 0 0 0 4.1537731,7.7236445 L 10.312416,16.647393 A 1.5,1.5 0 0 0 12.400271,17.028883 1.5,1.5 0 0 0 12.781965,14.94297 L 6.6213799,6.0194245 A 1.5,1.5 0 0 0 4.5354661,5.6377325 Z"
     id="path6" /><path
     style="fill:#adadad;fill-opacity:1;stroke:#000000;stroke-linecap:round"
     d="M 28.431278,5.6560008 A 1.5,1.5 0 0 0 26.362918,6.1306108 L 20.150028,16.050532 A 1.5,1.5 0 0 0 20.624637,18.116939 1.5,1.5 0 0 0 22.691043,17.642329 L 28.905887,7.7243608 A 1.5,1.5 0 0 0 28.431278,5.6560008 Z"
     id="path7" /></g></g></svg>
