<svg xmlns="http://www.w3.org/2000/svg">
<defs>
<font
       id="Barlow-Bold"
       horiz-adv-x="273"
       horiz-origin-x="0"
       horiz-origin-y="0"
       vert-origin-x="512"
       vert-origin-y="768"
       vert-adv-y="1024"><font-face
         font-family="Barlow"
         font-weight="700"
         font-stretch="normal"
         units-per-em="500"
         panose-1="0 0 8 0 0 0 0 0 0 0"
         ascent="400"
         descent="-100"
         x-height="257"
         cap-height="350"
         bbox="-30 -105 461 447"
         underline-thickness="25"
         underline-position="-50"
         unicode-range="U+000D-FB02"
         id="font-face1" /><missing-glyph
         id="missing-glyph1" /><glyph
         glyph-name="A"
         unicode="A"
         horiz-adv-x="335"
         d="M246 5l-14 49q-1 2 -3 2h-123q-2 0 -2 -2l-15 -49q-3 -5 -7 -5h-63q-3 0 -4.5 2t-0.5 5l108 338q2 5 6 5h79q5 0 7 -5l108 -338v-3q0 -4 -6 -4h-63q-5 0 -7 5zM124 110h88q4 0 2 4l-46 148q0 2 -1 2t-1 -2l-44 -148q0 -4 2 -4z"
         id="glyph1" /><glyph
         glyph-name="Aacute"
         unicode="Á"
         horiz-adv-x="335"
         d="M134 383q-1 2 1 5q1 0 27 50q2 4 7 5h51q4 0 4 -2q2 -1 0 -5l-36 -51q-2 -4 -7 -4h-42q-4 0 -5 2zM246 5l-14 49q-1 2 -3 2h-123q-2 0 -2 -2l-15 -49q-3 -5 -7 -5h-63q-3 0 -4.5 2t-0.5 5l108 338q2 5 6 5h79q5 0 7 -5l108 -338v-3q0 -4 -6 -4h-63q-5 0 -7 5zM124 110h88 q4 0 2 4l-46 148q0 2 -1 2t-1 -2l-44 -148q0 -4 2 -4z"
         id="glyph2" /><glyph
         glyph-name="Acircumflex"
         unicode="Â"
         horiz-adv-x="335"
         d="M89 381q-1 1 1 5l36 53q2 4 7 4h67q4 0 6 -4q0 -1 38 -53q2 -2 2 -3q0 -4 -6 -4h-44q-4 0 -8 4q0 1 -20 31q-2 4 -2 0l-20 -31q-2 -4 -8 -4h-44q-4 0 -5 2zM246 5l-14 49q-1 2 -3 2h-123q-2 0 -2 -2l-15 -49q-3 -5 -7 -5h-63q-3 0 -4.5 2t-0.5 5l108 338q2 5 6 5h79 q5 0 7 -5l108 -338v-3q0 -4 -6 -4h-63q-5 0 -7 5zM124 110h88q4 0 2 4l-46 148q0 2 -1 2t-1 -2l-44 -148q0 -4 2 -4z"
         id="glyph3" /><glyph
         glyph-name="Adieresis"
         unicode="Ä"
         horiz-adv-x="335"
         d="M246 5l-14 49q-1 2 -3 2h-123q-2 0 -2 -2l-15 -49q-3 -5 -7 -5h-63q-3 0 -4.5 2t-0.5 5l108 338q2 5 6 5h79q5 0 7 -5l108 -338v-3q0 -4 -6 -4h-63q-5 0 -7 5zM124 110h88q4 0 2 4l-46 148q0 2 -1 2t-1 -2l-44 -148q0 -4 2 -4z"
         id="glyph4" /><glyph
         glyph-name="Agrave"
         unicode="À"
         horiz-adv-x="335"
         d="M194 385q0 -4 -6 -4h-42q-4 0 -6 4q0 1 -36 51q-1 2 -1 3q0 4 5 4h50q5 -1 8 -5l26 -50q2 -2 2 -3zM246 5l-14 49q-1 2 -3 2h-123q-2 0 -2 -2l-15 -49q-3 -5 -7 -5h-63q-3 0 -4.5 2t-0.5 5l108 338q2 5 6 5h79q5 0 7 -5l108 -338v-3q0 -4 -6 -4h-63q-5 0 -7 5zM124 110 h88q4 0 2 4l-46 148q0 2 -1 2t-1 -2l-44 -148q0 -4 2 -4z"
         id="glyph5" /><glyph
         glyph-name="Atilde"
         unicode="Ã"
         horiz-adv-x="335"
         d="M182 382q-6 2 -16 6q-10 5 -16 7q-5 2 -10 2q-16 0 -26 -11q-2 -2 -5 -2q-2 0 -4 2q-1 0 -21 22q-4 4 0 8q8 14 22 22t30 9q10 -1 17 -3t13 -5t8 -3q10 -6 14 -8q5 -2 11 -2q16 0 24 12q3 2 5 3q2 0 4 -2q0 -1 18 -23q4 -4 2 -6q-6 -14 -21 -22q-14 -8 -32 -8 q-10 0 -17 2zM246 5l-14 49q-1 2 -3 2h-123q-2 0 -2 -2l-15 -49q-3 -5 -7 -5h-63q-3 0 -4.5 2t-0.5 5l108 338q2 5 6 5h79q5 0 7 -5l108 -338v-3q0 -4 -6 -4h-63q-5 0 -7 5zM124 110h88q4 0 2 4l-46 148q0 2 -1 2t-1 -2l-44 -148q0 -4 2 -4z"
         id="glyph6" /><glyph
         glyph-name="AE"
         unicode="Æ"
         horiz-adv-x="480"
         d="M459.5 291.5q-1.5 -1.5 -4.5 -1.5h-159q-2 0 -2 -3q0 1 0 -77q0 -2 2 -3h103q2 0 4 -1.5t2 -4.5v-49q0 -2 -1.5 -4t-4.5 -2h-103q-2 0 -2 -2v-81q0 -3 2 -3h159q2 0 4 -1.5q2 -2.5 2 -4.5v-48q0 -2 -1.5 -4t-4.5 -2h-226q-2 0 -4 2t-2 4v48q-1 2 -3 2h-101q-2 0 -3 -2 l-24 -50q-2 -4 -8 -4h-64q-4 0 -5 2t1 5q0 1 171 339q2 4 7 4h261q2 0 4 -2t2 -4v-48q0 -2 -1.5 -4.5zM145.5 111q0.5 -1 2.5 -1h72q2 0 3 3v151q0 2 -1 2t-2 -2l-74 -150q0 -2 -0.5 -3z"
         id="glyph7" /><glyph
         glyph-name="B"
         unicode="B"
         horiz-adv-x="310"
         d="M238 180q48 -24 48 -82q0 -48 -33 -73t-87 -25h-130q-2 0 -4 2t-2 4v338q0 2 2 4t4 2h126q118 0 118 -96q0 -50 -42 -72q-3 0 0 -2zM101 287v-78q1 -3 3 -3h58q24 0 37 11t13 31t-13 31t-37 11h-58q-2 0 -3 -3zM202 72.5q13 11.5 13 32.5q0 20 -13 32q-12 12 -36 12h-62 q-2 -1 -3 -3v-82q1 -2 3 -3h62q23 0 36 11.5z"
         id="glyph8" /><glyph
         glyph-name="C"
         unicode="C"
         horiz-adv-x="304"
         d="M85 11q-29 15 -45 43t-16 64v115q0 36 16 63.5t45 42.5t69 15q38 0 67 -14t45.5 -40.5q16.5 -27.5 16.5 -61.5q0 -4 -6 -5q-1 1 -59 -3v0q-6 0 -6 5q0 26 -16 42.5t-42 16.5q-27 0 -43.5 -16t-16.5 -43v-121q0 -26 16 -42t44 -16q26 0 42 16t16 42q0 6 6 6l59 -2 q2 0 4 -2t2 -4q0 -34 -16.5 -60.5t-45.5 -41t-67 -14.5q-40 0 -69 15z"
         id="glyph9" /><glyph
         glyph-name="Ccedilla"
         unicode="Ç"
         horiz-adv-x="304"
         d="M277 233q-1 1 -59 -3v0q-6 0 -6 5q0 26 -16 42.5t-42 16.5q-27 0 -43.5 -16t-16.5 -43v-121q0 -26 16 -42t44 -16q26 0 42 16t16 42q0 6 6 6l59 -2q2 0 4 -2t2 -4q0 -48 -30.5 -79t-80.5 -36q-4 -1 -2 -3q20 -20 21 -43q1 -6 -1 -12q-4 -17 -17.5 -24.5t-30.5 -7.5 q-16 -1 -30 5q-6 2 -5 8q-1 0 3 24q0 6 8 4q6 -2 10 -1q8 0 12 3.5t4 11.5q0 16 -26 37q-1 1 -2 1h-2q-42 10 -66 41.5q-24 32.5 -24 76.5v115q0 36 16 63.5t45 42.5t69 15q38 0 67 -14t45.5 -40.5q16.5 -27.5 16.5 -61.5v-2q0 -2 -6 -3z"
         id="glyph10" /><glyph
         glyph-name="D"
         unicode="D"
         horiz-adv-x="309"
         d="M32 2q-2 2 -2 4v338q0 2 2 4t4 2h126q38 0 66 -13t43 -37t15 -56v-138q0 -32 -15 -56t-43.5 -37q-27.5 -13 -65.5 -13h-126q-2 0 -4 2zM104 60h60q23 0 37.5 16t14.5 42v114q0 26 -14 42t-38 16h-60q-2 0 -3 -3v-224q1 -3 3 -3z"
         id="glyph11" /><glyph
         glyph-name="E"
         unicode="E"
         horiz-adv-x="292"
         d="M272 291.5q-2 -1.5 -4 -1.5h-164q-2 0 -3 -3q0 1 0 -77q1 -2 3 -3h107q2 0 4 -1.5t2 -4.5v-49q0 -2 -1.5 -4t-4.5 -2q1 0 -107 0q-2 0 -3 -2v-81q1 -3 3 -3h164q2 0 4 -1.5q2 -2.5 2 -4.5v-48q0 -2 -2 -4t-4 -2h-232q-2 0 -4 2t-2 4v338q0 2 2 4t4 2h232q2 0 4 -2t2 -4 v-48q0 -2 -2 -4.5z"
         id="glyph12" /><glyph
         glyph-name="Eacute"
         unicode="É"
         horiz-adv-x="292"
         d="M118 383q-1 2 1 5q1 0 27 50q2 4 7 5h51q4 0 4 -2q2 -1 0 -5l-36 -51q-2 -4 -7 -4h-42q-4 0 -5 2zM272 291.5q-2 -1.5 -4 -1.5h-164q-2 0 -3 -3q0 1 0 -77q1 -2 3 -3h107q2 0 4 -1.5t2 -4.5v-49q0 -2 -1.5 -4t-4.5 -2q1 0 -107 0q-2 0 -3 -2v-81q1 -3 3 -3h164 q2 0 4 -1.5q2 -2.5 2 -4.5v-48q0 -2 -2 -4t-4 -2h-232q-2 0 -4 2t-2 4v338q0 2 2 4t4 2h232q2 0 4 -2t2 -4v-48q0 -2 -2 -4.5z"
         id="glyph13" /><glyph
         glyph-name="Ecircumflex"
         unicode="Ê"
         horiz-adv-x="292"
         d="M72 381q-1 1 1 5q1 0 37 53q2 4 6 4h67q4 0 7 -4q0 -1 38 -53q2 -2 2 -3q0 -4 -6 -4h-45q-4 0 -7 4q0 1 -20 31q-2 4 -3 0l-20 -31q-2 -4 -7 -4h-45q-4 0 -5 2zM272 291.5q-2 -1.5 -4 -1.5h-164q-2 0 -3 -3q0 1 0 -77q1 -2 3 -3h107q2 0 4 -1.5t2 -4.5v-49q0 -2 -1.5 -4 t-4.5 -2q1 0 -107 0q-2 0 -3 -2v-81q1 -3 3 -3h164q2 0 4 -1.5q2 -2.5 2 -4.5v-48q0 -2 -2 -4t-4 -2h-232q-2 0 -4 2t-2 4v338q0 2 2 4t4 2h232q2 0 4 -2t2 -4v-48q0 -2 -2 -4.5z"
         id="glyph14" /><glyph
         glyph-name="Edieresis"
         unicode="Ë"
         horiz-adv-x="292"
         d="M272 291.5q-2 -1.5 -4 -1.5h-164q-2 0 -3 -3q0 1 0 -77q1 -2 3 -3h107q2 0 4 -1.5t2 -4.5v-49q0 -2 -1.5 -4t-4.5 -2q1 0 -107 0q-2 0 -3 -2v-81q1 -3 3 -3h164q2 0 4 -1.5q2 -2.5 2 -4.5v-48q0 -2 -2 -4t-4 -2h-232q-2 0 -4 2t-2 4v338q0 2 2 4t4 2h232q2 0 4 -2t2 -4 v-48q0 -2 -2 -4.5z"
         id="glyph15" /><glyph
         glyph-name="Egrave"
         unicode="È"
         horiz-adv-x="292"
         d="M177 385q0 -4 -5 -4h-42q-4 0 -7 4q1 1 -35 51q-2 2 -2 3q0 4 6 4h50q6 -1 8 -5l26 -50q1 -2 1 -3zM272 291.5q-2 -1.5 -4 -1.5h-164q-2 0 -3 -3q0 1 0 -77q1 -2 3 -3h107q2 0 4 -1.5t2 -4.5v-49q0 -2 -1.5 -4t-4.5 -2q1 0 -107 0q-2 0 -3 -2v-81q1 -3 3 -3h164 q2 0 4 -1.5q2 -2.5 2 -4.5v-48q0 -2 -2 -4t-4 -2h-232q-2 0 -4 2t-2 4v338q0 2 2 4t4 2h232q2 0 4 -2t2 -4v-48q0 -2 -2 -4.5z"
         id="glyph16" /><glyph
         glyph-name="F"
         unicode="F"
         horiz-adv-x="280"
         d="M271.5 291.5q-1.5 -1.5 -4.5 -1.5q1 0 -163 0q-2 0 -3 -3q0 1 0 -77q1 -2 3 -3h107q2 0 4 -1.5t2 -4.5v-49q0 -2 -1.5 -4t-4.5 -2q1 0 -107 0q-2 0 -3 -2v-138q0 -2 -1.5 -4t-4.5 -2h-59q-2 0 -4 2t-2 4v338q0 2 2 4t4 2h231q2 0 4 -2t2 -4v-48q0 -2 -1.5 -4.5z"
         id="glyph17" /><glyph
         glyph-name="G"
         unicode="G"
         horiz-adv-x="306"
         d="M85.5 11.5q-29.5 15.5 -45.5 43t-16 64.5v112q0 36 16 64.5t45.5 43.5q30.5 15 68.5 15t67 -15t45 -41t16 -57q0 1 0 -3q0 -2 -1.5 -4q-2.5 -2 -4.5 -2h-58q-2 0 -4 1.5q-2 2.5 -2 4.5v1q0 23 -16 39t-42 16q-27 0 -43.5 -17t-16.5 -44v-116q0 -27 17.5 -44t44.5 -17 q26 0 41.5 14t15.5 38v23q-1 3 -3 3h-56q-2 0 -4 1.5q-2 2.5 -2 4.5v46q0 2 2 4t4 2h122q2 0 4 -2t2 -4v-66q0 -38 -16 -66t-45 -43t-67 -15t-68.5 15.5z"
         id="glyph18" /><glyph
         glyph-name="H"
         unicode="H"
         horiz-adv-x="314"
         d="M218 348q2 2 4 2h59q2 0 4 -2t2 -4v-338q0 -2 -1.5 -4t-4.5 -2h-59q-2 0 -4 2t-2 4v138q0 2 -2 2h-110q-2 0 -3 -2v-138q0 -2 -1.5 -4t-4.5 -2h-59q-2 0 -4 2t-2 4v338q0 2 2 4t4 2h59q2 0 4 -2t2 -4v-134q1 -2 3 -3h110q2 1 2 3v134q0 2 2 4z"
         id="glyph19" /><glyph
         glyph-name="I"
         unicode="I"
         horiz-adv-x="131"
         d="M32 2q-2 2 -2 4v338q0 2 2 4t4 2h59q2 0 4 -2t2 -4v-338q0 -2 -1.5 -4t-4.5 -2h-59q-2 0 -4 2z"
         id="glyph20" /><glyph
         glyph-name="Iacute"
         unicode="Í"
         horiz-adv-x="131"
         d="M34 383q-1 2 0 5l26 50q2 4 8 5h50q4 0 5 -2q1 -1 -1 -5l-35 -51q-2 -4 -7 -4h-42q-3 0 -4 2zM32 2q-2 2 -2 4v338q0 2 2 4t4 2h59q2 0 4 -2t2 -4v-338q0 -2 -1.5 -4t-4.5 -2h-59q-2 0 -4 2z"
         id="glyph21" /><glyph
         glyph-name="Icircumflex"
         unicode="Î"
         horiz-adv-x="131"
         d="M-13 381q-1 1 1 5l36 53q2 4 8 4h66q4 0 7 -4q0 -1 38 -53q1 -2 1 -3q0 -4 -5 -4h-45q-4 0 -7 4q0 1 -20 31q-2 4 -3 0l-20 -31q-2 -4 -7 -4h-45q-4 0 -5 2zM32 2q-2 2 -2 4v338q0 2 2 4t4 2h59q2 0 4 -2t2 -4v-338q0 -2 -1.5 -4t-4.5 -2h-59q-2 0 -4 2z"
         id="glyph22" /><glyph
         glyph-name="Idieresis"
         unicode="Ï"
         horiz-adv-x="131"
         d="M32 2q-2 2 -2 4v338q0 2 2 4t4 2h59q2 0 4 -2t2 -4v-338q0 -2 -1.5 -4t-4.5 -2h-59q-2 0 -4 2z"
         id="glyph23" /><glyph
         glyph-name="Igrave"
         unicode="Ì"
         horiz-adv-x="131"
         d="M92 385q0 -4 -4 -4h-42q-4 0 -8 4q0 1 -35 51q-1 2 -1 3q0 4 5 4h51q5 -1 7 -5q1 0 27 -50v-3zM32 2q-2 2 -2 4v338q0 2 2 4t4 2h59q2 0 4 -2t2 -4v-338q0 -2 -1.5 -4t-4.5 -2h-59q-2 0 -4 2z"
         id="glyph24" /><glyph
         glyph-name="J"
         unicode="J"
         horiz-adv-x="291"
         d="M68.5 10q-28.5 14 -43.5 40t-15 60v32q0 2 1.5 4q2.5 2 4.5 2h58q2 0 4 -2t2 -4v-32q0 -24 15 -39t40 -15q24 0 40 15t16 39v234q0 2 1.5 4t4.5 2h58q2 0 4 -2t2 -4v-234q0 -34 -16 -60t-44.5 -40t-65.5 -14q-38 0 -66.5 14z"
         id="glyph25" /><glyph
         glyph-name="K"
         unicode="K"
         horiz-adv-x="313"
         d="M32 2q-2 2 -2 4v338q0 2 2 4t4 2h59q2 0 4 -2t2 -4v-140q0 -2 1 -2t2 1q0 -1 116 143q3 4 7 4h66q4 0 5 -2t-1 -6q1 0 -111 -142q-2 -2 -1 -4l118 -189l1 -3q0 -4 -5 -4h-66q-5 0 -7 4l-89 144q0 1 -1.5 1t-1.5 -1l-32 -40l-1 -2v-100q0 -2 -1.5 -4t-4.5 -2h-59 q-2 0 -4 2z"
         id="glyph26" /><glyph
         glyph-name="L"
         unicode="L"
         horiz-adv-x="286"
         d="M32 2q-2 2 -2 4v338q0 2 2 4t4 2h59q2 0 4 -2t2 -4v-281q1 -3 3 -3h163q2 0 4 -1.5q2 -2.5 2 -4.5v-48q0 -2 -1.5 -4t-4.5 -2h-231q-2 0 -4 2z"
         id="glyph27" /><glyph
         glyph-name="M"
         unicode="M"
         horiz-adv-x="357"
         d="M262 350h59q2 0 4 -2t2 -4v-338q0 -2 -1.5 -4t-4.5 -2h-59q-2 0 -4 2t-2 4v220q0 2 -1 2t-1 -1l-54 -83q-2 -4 -6 -4h-30q-4 0 -7 4l-53 83q-1 2 -2 1.5t-1 -2.5v-220q0 -2 -1.5 -4t-4.5 -2h-59q-2 0 -4 2t-2 4v338q0 2 2 4t4 2h59q4 0 7 -4l75 -116q2 -2 3 0l76 116 q2 4 6 4z"
         id="glyph28" /><glyph
         glyph-name="N"
         unicode="N"
         horiz-adv-x="332"
         d="M233.5 348q2.5 2 4.5 2h58q2 0 4 -2t2 -4v-338q0 -2 -2 -4t-4 -2h-56q-6 0 -8 4l-129 214q-1 2 -2 1.5t-1 -2.5l1 -211q0 -2 -1.5 -4t-4.5 -2h-59q-2 0 -4 2t-2 4v338q0 2 2 4t4 2h57q5 0 7 -4l129 -213q1 -2 2 -1.5t1 2.5v210q0 2 1.5 4z"
         id="glyph29" /><glyph
         glyph-name="Ntilde"
         unicode="Ñ"
         horiz-adv-x="332"
         d="M177 382q-7 2 -16 6q-10 5 -15 7q-4 2 -10 2q-16 0 -27 -11q-3 -2 -5 -2t-4 2l-20 22q-4 4 -1 8q8 14 22 22t31 9q10 -1 17 -3t13 -5t8 -3q10 -6 14 -8t10 -2q16 0 24 12q2 2 5 3q2 0 4 -2q1 -1 19 -23q3 -4 1 -6q-6 -14 -20 -22q-15 -8 -33 -8q-10 0 -17 2zM233.5 348 q2.5 2 4.5 2h58q2 0 4 -2t2 -4v-338q0 -2 -2 -4t-4 -2h-56q-6 0 -8 4l-129 214q-1 2 -2 1.5t-1 -2.5l1 -211q0 -2 -1.5 -4t-4.5 -2h-59q-2 0 -4 2t-2 4v338q0 2 2 4t4 2h57q5 0 7 -4l129 -213q1 -2 2 -1.5t1 2.5v210q0 2 1.5 4z"
         id="glyph30" /><glyph
         glyph-name="O"
         unicode="O"
         horiz-adv-x="310"
         d="M86 10q-30 16 -46 45t-16 67v106q0 37 16 65.5t46 44.5t69 16q40 0 69.5 -16t46 -44t16.5 -66v-106q0 -38 -16.5 -67t-46.5 -45t-69 -16t-69 16zM199 72.5q17 17.5 17 46.5v110q0 29 -16.5 47t-44.5 18t-44.5 -18t-16.5 -47v-110q0 -29 17 -46.5t44 -17.5t44 17.5z"
         id="glyph31" /><glyph
         glyph-name="Oacute"
         unicode="Ó"
         horiz-adv-x="310"
         d="M123 383q-1 2 1 5l26 50q2 4 8 5h50q4 0 5 -2q1 -1 -1 -5l-36 -51q-2 -4 -6 -4h-42q-4 0 -5 2zM86 10q-30 16 -46 45t-16 67v106q0 37 16 65.5t46 44.5t69 16q40 0 69.5 -16t46 -44t16.5 -66v-106q0 -38 -16.5 -67t-46.5 -45t-69 -16t-69 16zM199 72.5q17 17.5 17 46.5 v110q0 29 -16.5 47t-44.5 18t-44.5 -18t-16.5 -47v-110q0 -29 17 -46.5t44 -17.5t44 17.5z"
         id="glyph32" /><glyph
         glyph-name="Ocircumflex"
         unicode="Ô"
         horiz-adv-x="310"
         d="M77 381q-1 1 1 5l36 53q2 4 7 4h67q4 0 6 -4q0 -1 38 -53q2 -2 2 -3q0 -4 -6 -4h-44q-4 0 -8 4q0 1 -20 31q-2 4 -2 0l-20 -31q-2 -4 -8 -4h-44q-4 0 -5 2zM86 10q-30 16 -46 45t-16 67v106q0 37 16 65.5t46 44.5t69 16q40 0 69.5 -16t46 -44t16.5 -66v-106 q0 -38 -16.5 -67t-46.5 -45t-69 -16t-69 16zM199 72.5q17 17.5 17 46.5v110q0 29 -16.5 47t-44.5 18t-44.5 -18t-16.5 -47v-110q0 -29 17 -46.5t44 -17.5t44 17.5z"
         id="glyph33" /><glyph
         glyph-name="Odieresis"
         unicode="Ö"
         horiz-adv-x="310"
         d="M86 10q-30 16 -46 45t-16 67v106q0 37 16 65.5t46 44.5t69 16q40 0 69.5 -16t46 -44t16.5 -66v-106q0 -38 -16.5 -67t-46.5 -45t-69 -16t-69 16zM199 72.5q17 17.5 17 46.5v110q0 29 -16.5 47t-44.5 18t-44.5 -18t-16.5 -47v-110q0 -29 17 -46.5t44 -17.5t44 17.5z"
         id="glyph34" /><glyph
         glyph-name="Ograve"
         unicode="Ò"
         horiz-adv-x="310"
         d="M182 385q0 -4 -6 -4h-42q-4 0 -6 4q0 1 -36 51q-1 2 -1 3q0 4 5 4h50q5 -1 8 -5l26 -50q2 -2 2 -3zM86 10q-30 16 -46 45t-16 67v106q0 37 16 65.5t46 44.5t69 16q40 0 69.5 -16t46 -44t16.5 -66v-106q0 -38 -16.5 -67t-46.5 -45t-69 -16t-69 16zM199 72.5 q17 17.5 17 46.5v110q0 29 -16.5 47t-44.5 18t-44.5 -18t-16.5 -47v-110q0 -29 17 -46.5t44 -17.5t44 17.5z"
         id="glyph35" /><glyph
         glyph-name="Oslash"
         unicode="Ø"
         horiz-adv-x="307"
         d="M296 334q0 -2 -1 -4l-25 -38v-4q14 -26 14 -60v-106q0 -38 -17 -67t-46.5 -45q-28.5 -16 -68.5 -16t-70 17q-2 0 -4 -1l-18 -28q-2 -3 -4 -3q-2 -1 -4 1l-42 32q-2 2 -2 4t1 4q1 0 25 37v3q-14 26 -14 62v106q0 37 16.5 65.5t46 44.5t69.5 16t69 -16q1 0 3 1l20 29 q2 3 4 3q2 1 4 -1l42 -32q2 -2 2 -4zM213 229q0 29 -16.5 47t-44.5 18t-45 -18t-17 -47v-110q0 -29 17 -46.5t45 -17.5t44.5 17.5t16.5 46.5v110z"
         id="glyph36" /><glyph
         glyph-name="Otilde"
         unicode="Õ"
         horiz-adv-x="310"
         d="M170 382q-6 2 -16 6q-10 5 -16 7q-5 2 -10 2q-16 0 -26 -11q-2 -2 -5 -2q-2 0 -4 2q-1 0 -21 22q-4 4 0 8q8 14 22 22t30 9q10 -1 17 -3t13 -5t8 -3q10 -6 14 -8q5 -2 11 -2q16 0 24 12q3 2 5 3q2 0 4 -2q0 -1 18 -23q4 -4 2 -6q-6 -14 -21 -22q-14 -8 -32 -8 q-10 0 -17 2zM86 10q-30 16 -46 45t-16 67v106q0 37 16 65.5t46 44.5t69 16q40 0 69.5 -16t46 -44t16.5 -66v-106q0 -38 -16.5 -67t-46.5 -45t-69 -16t-69 16zM199 72.5q17 17.5 17 46.5v110q0 29 -16.5 47t-44.5 18t-44.5 -18t-16.5 -47v-110q0 -29 17 -46.5t44 -17.5 t44 17.5z"
         id="glyph37" /><glyph
         glyph-name="OE"
         unicode="Œ"
         horiz-adv-x="465"
         d="M444.5 291.5q-2.5 -1.5 -4.5 -1.5h-156q-2 0 -2 -3q0 1 0 -77q0 -2 2 -3h100q2 0 4 -1.5t2 -4.5v-49q0 -2 -2 -4t-4 -2h-100q-2 0 -2 -2v-81q0 -3 2 -3h156q2 0 4 -1.5q2 -2.5 2 -4.5v-48q0 -2 -1.5 -4q-2.5 -2 -4.5 -2h-223q-2 0 -4 2t-2 4v10q0 2 -1 2.5t-2 -0.5 q-16 -12 -35 -18t-39 -6q-30 0 -55.5 16t-40 44t-14.5 64v113q0 36 14.5 63.5t40 43.5t55.5 16q20 0 39 -6t35 -18q1 0 2 0.5q1 -0.5 1 1.5v12q0 2 1.5 4t4.5 2q-1 0 223 0q2 0 4 -2t2 -4v-48q0 -2 -1.5 -4.5zM194.5 72.5q16.5 17.5 16.5 43.5v116q0 27 -16.5 44.5 t-42.5 17.5t-42 -17.5t-16 -44.5v-116q0 -27 16 -44t42 -17t42.5 17.5z"
         id="glyph38" /><glyph
         glyph-name="P"
         unicode="P"
         horiz-adv-x="298"
         d="M233 337q25 -13 39 -38t14 -57t-14.5 -56t-40 -37t-59.5 -13h-71q-3 0 -3 -2v-128q0 -2 -1.5 -4q-2.5 -2 -4.5 -2h-58q-2 0 -4 2t-2 4v338q0 2 2 4t4 2h141q33 0 58 -13zM202 205.5q14 12.5 14 34.5t-14 36t-38 14h-63q-3 0 -3 -3v-92q0 -3 3 -3q-1 0 63 0q24 0 38 13.5z "
         id="glyph39" /><glyph
         glyph-name="Q"
         unicode="Q"
         horiz-adv-x="296"
         d="M215 338.5q29 -15.5 45 -44t16 -66.5v-112q0 -44 -24 -75t-66 -41q-2 0 -2 -2v-41q0 -2 -2 -4t-4 -2h-58q-2 0 -4 1.5t-2 4.5v41q0 2 -2 2q-42 10 -67 41t-25 75v112q0 38 16 66t45 44t67 16t67 -15.5zM206 232q0 28 -16 45t-42 17t-41.5 -17t-15.5 -45v-114 q0 -28 15.5 -45t41.5 -17t42 17t16 45v114z"
         id="glyph40" /><glyph
         glyph-name="R"
         unicode="R"
         horiz-adv-x="307"
         d="M216 4l-63 139q-1 2 -3 2h-46q-2 -1 -3 -3v-136q0 -2 -1.5 -4t-4.5 -2h-59q-2 0 -4 2t-2 4v338q0 2 2 4t4 2h144q32 0 56 -13t37 -37t13 -56q0 -34 -17 -58t-47 -34q-2 -2 -2 -4l68 -141q2 -2 2 -3q0 -4 -6 -4h-62q-4 0 -6 4zM101 287q0 1 0 -85q1 -2 3 -3h65 q21 0 34 12.5t13 32.5t-13 33t-34 13q1 0 -65 0q-2 0 -3 -3z"
         id="glyph41" /><glyph
         glyph-name="S"
         unicode="S"
         horiz-adv-x="297"
         d="M80 9q-30 13 -46 36.5q-16 22.5 -16 54.5v12q0 2 2 4t4 2h57q2 0 4 -2t2 -4v-8q0 -20 18.5 -34t50.5 -14q26 0 39 11.5q13 12.5 13 28.5q0 12 -8 20t-22 14t-44 18q-34 12 -57 23.5t-38.5 32t-15.5 51.5q0 30 15.5 52.5t43 34.5t63.5 12q38 0 67.5 -13.5t46.5 -38 t17 -56.5v-7q0 -2 -2 -4t-4 -2h-58q-2 0 -4 1.5t-2 4.5v4q0 21 -17 36t-47 15q-24 0 -37 -10t-13 -28q0 -12 8 -21t23 -15.5q15 -5.5 47 -17.5q36 -13 56 -23.5t36 -30q16 -18.5 16 -50.5q0 -47 -34 -74.5t-94 -27.5q-40 0 -70 13z"
         id="glyph42" /><glyph
         glyph-name="T"
         unicode="T"
         horiz-adv-x="292"
         d="M276 348q2 -2 2 -4v-49q0 -2 -2 -4t-4 -2h-90q-2 -1 -2 -3v-280q0 -2 -2 -4t-4 -2h-58q-2 0 -4 2t-2 4v280q0 2 -3 3h-87q-2 0 -4 1.5t-2 4.5v49q0 2 2 4t4 2h252q2 0 4 -2z"
         id="glyph43" /><glyph
         glyph-name="U"
         unicode="U"
         horiz-adv-x="314"
         d="M89.5 11q-29.5 15 -45.5 42t-16 63v228q0 2 2 4t4 2h58q2 0 4 -2t2 -4v-228q0 -26 16.5 -43q17.5 -17 43.5 -17t42 16.5q16 17.5 16 43.5v228q0 2 2 4t4 2h59q2 0 4 -2t2 -4v-228q0 -36 -16.5 -63t-45.5 -42t-67 -15t-68.5 15z"
         id="glyph44" /><glyph
         glyph-name="Uacute"
         unicode="Ú"
         horiz-adv-x="314"
         d="M125 383q-1 2 1 5l26 50q2 4 8 5h50q4 0 5 -2q1 -1 -1 -5l-36 -51q-2 -4 -6 -4h-42q-4 0 -5 2zM89.5 11q-29.5 15 -45.5 42t-16 63v228q0 2 2 4t4 2h58q2 0 4 -2t2 -4v-228q0 -26 16.5 -43q17.5 -17 43.5 -17t42 16.5q16 17.5 16 43.5v228q0 2 2 4t4 2h59q2 0 4 -2t2 -4 v-228q0 -36 -16.5 -63t-45.5 -42t-67 -15t-68.5 15z"
         id="glyph45" /><glyph
         glyph-name="Ucircumflex"
         unicode="Û"
         horiz-adv-x="314"
         d="M79 381q-1 1 1 5l36 53q2 4 8 4h66q4 0 7 -4q0 -1 38 -53q1 -2 1 -3q0 -4 -5 -4h-45q-4 0 -7 4q0 1 -20 31q-2 4 -3 0l-20 -31q-2 -4 -7 -4h-45q-4 0 -5 2zM89.5 11q-29.5 15 -45.5 42t-16 63v228q0 2 2 4t4 2h58q2 0 4 -2t2 -4v-228q0 -26 16.5 -43q17.5 -17 43.5 -17 t42 16.5q16 17.5 16 43.5v228q0 2 2 4t4 2h59q2 0 4 -2t2 -4v-228q0 -36 -16.5 -63t-45.5 -42t-67 -15t-68.5 15z"
         id="glyph46" /><glyph
         glyph-name="Udieresis"
         unicode="Ü"
         horiz-adv-x="314"
         d="M89.5 11q-29.5 15 -45.5 42t-16 63v228q0 2 2 4t4 2h58q2 0 4 -2t2 -4v-228q0 -26 16.5 -43q17.5 -17 43.5 -17t42 16.5q16 17.5 16 43.5v228q0 2 2 4t4 2h59q2 0 4 -2t2 -4v-228q0 -36 -16.5 -63t-45.5 -42t-67 -15t-68.5 15z"
         id="glyph47" /><glyph
         glyph-name="Ugrave"
         unicode="Ù"
         horiz-adv-x="314"
         d="M184 385q0 -4 -5 -4h-42q-4 0 -7 4q0 1 -36 51v3q0 4 4 4h51q5 -1 7 -5l27 -50q1 -2 1 -3zM89.5 11q-29.5 15 -45.5 42t-16 63v228q0 2 2 4t4 2h58q2 0 4 -2t2 -4v-228q0 -26 16.5 -43q17.5 -17 43.5 -17t42 16.5q16 17.5 16 43.5v228q0 2 2 4t4 2h59q2 0 4 -2t2 -4v-228 q0 -36 -16.5 -63t-45.5 -42t-67 -15t-68.5 15z"
         id="glyph48" /><glyph
         glyph-name="V"
         unicode="V"
         horiz-adv-x="311"
         d="M117 5l-103 338v2q0 5 5 5h63q6 0 7 -5q1 0 67 -244q0 -2 1 -1.5t1 1.5l66 244q2 5 7 5q-1 0 61 0q3 0 4.5 -2t1.5 -5l-105 -338q-3 -5 -7 -5h-62q-4 0 -7 5z"
         id="glyph49" /><glyph
         glyph-name="W"
         unicode="W"
         horiz-adv-x="438"
         d="M101 5q-1 1 -89 339v2q0 4 6 4h62q5 0 6 -5q0 1 48 -203q0 -2 1 -2t1 2l46 202q2 6 7 6h61q6 0 6 -5q0 1 50 -203q0 -2 1.5 -2q2.5 0 2.5 2l46 202q2 6 6 6h59q7 0 5 -6l-82 -339q-2 -5 -6 -5h-60q-4 0 -6 5q0 1 -52 217q0 2 -1 2t-1 -2l-48 -216q0 -6 -6 -6h-56 q-5 0 -7 5z"
         id="glyph50" /><glyph
         glyph-name="X"
         unicode="X"
         horiz-adv-x="315"
         d="M15.5 2q-1.5 2 0.5 5q0 1 97 167q1 2 0 2l-97 167l-1 3q-1 4 5 4h64q6 0 8 -4l64 -114q2 -2 4 0l64 114q2 4 8 4h63q4 0 5.5 -2t-0.5 -5q0 -1 -98 -167v-2l98 -167v-3q0 -4 -5 -4h-63q-6 0 -8 4l-64 114q-2 3 -4 0l-65 -114q-1 -4 -7 -4h-64q-4 0 -4.5 2z"
         id="glyph51" /><glyph
         glyph-name="Y"
         unicode="Y"
         horiz-adv-x="308"
         d="M120.5 2q-1.5 2 -1.5 4v127q-1 2 -1 3l-102 207q-2 2 -2 3q0 4 6 4h63q5 0 7 -4l62 -134q2 -4 4 0l62 134q2 4 7 4h64q4 0 5 -2q2 -2 0 -5l-104 -207q0 -1 -1 -3v-127q0 -2 -1.5 -4t-4.5 -2h-58q-3 0 -4.5 2z"
         id="glyph52" /><glyph
         glyph-name="Yacute"
         unicode="Ý"
         horiz-adv-x="308"
         d="M122 382q-2 2 0 6l27 50q1 4 7 4h51q4 0 5 -2t-1 -5q1 -1 -35 -51q-2 -4 -8 -4h-42q-4 0 -4 2zM120.5 2q-1.5 2 -1.5 4v127q-1 2 -1 3l-102 207q-2 2 -2 3q0 4 6 4h63q5 0 7 -4l62 -134q2 -4 4 0l62 134q2 4 7 4h64q4 0 5 -2q2 -2 0 -5l-104 -207q0 -1 -1 -3v-127 q0 -2 -1.5 -4t-4.5 -2h-58q-3 0 -4.5 2z"
         id="glyph53" /><glyph
         glyph-name="Ydieresis"
         unicode="Ÿ"
         horiz-adv-x="308"
         d="M120.5 2q-1.5 2 -1.5 4v127q-1 2 -1 3l-102 207q-2 2 -2 3q0 4 6 4h63q5 0 7 -4l62 -134q2 -4 4 0l62 134q2 4 7 4h64q4 0 5 -2q2 -2 0 -5l-104 -207q0 -1 -1 -3v-127q0 -2 -1.5 -4t-4.5 -2h-58q-3 0 -4.5 2z"
         id="glyph54" /><glyph
         glyph-name="Z"
         unicode="Z"
         horiz-adv-x="278"
         d="M18 2q-2 2 -2 4v54q0 4 2 8l162 218q1 1 0.5 2.5t-2.5 1.5h-156q-2 0 -4 1.5q-2 2.5 -2 4.5v48q0 2 2 4t4 2h232q2 0 4 -2t2 -4v-54q0 -4 -3 -8q1 0 -161 -218v-2.5t2 -1.5h156q2 0 4 -1.5q2 -2.5 2 -4.5v-48q0 -2 -2 -4t-4 -2h-232q-2 0 -4 2z"
         id="glyph55" /><glyph
         glyph-name="a"
         unicode="a"
         horiz-adv-x="264"
         d="M186.5 249.5q25.5 -11.5 39.5 -30.5t14 -43v-170q0 -2 -1.5 -4q-2.5 -2 -4.5 -2h-58q-2 0 -4 2t-2 4v16q0 2 -1 2.5q-1 1.5 -2 -0.5q-21 -28 -67 -28q-39 0 -63.5 19t-24.5 56q0 38 27 59.5t77 21.5h52q2 0 2 2v12q0 16 -10 25t-30 9q-16 0 -26 -5t-13 -15q-3 -6 -7 -6 l-60 8q-6 1 -6 5q2 21 17 38t39 26.5t54 9.5q32 0 58.5 -11.5zM155 60q15 12 15 30v18q0 2 -2 2h-36q-22 0 -35 -8.5q-13 -7.5 -13 -23.5q0 -14 9 -22t25 -8q22 0 37 12z"
         id="glyph56" /><glyph
         glyph-name="aacute"
         unicode="á"
         horiz-adv-x="264"
         d="M100 290q-2 2 0 5q0 1 27 51q1 4 7 4h51q4 0 5 -2t-1 -6q1 0 -35 -50q-2 -4 -8 -4h-42q-4 0 -4 2zM186.5 249.5q25.5 -11.5 39.5 -30.5t14 -43v-170q0 -2 -1.5 -4q-2.5 -2 -4.5 -2h-58q-2 0 -4 2t-2 4v16q0 2 -1 2.5q-1 1.5 -2 -0.5q-21 -28 -67 -28q-39 0 -63.5 19 t-24.5 56q0 38 27 59.5t77 21.5h52q2 0 2 2v12q0 16 -10 25t-30 9q-16 0 -26 -5t-13 -15q-3 -6 -7 -6l-60 8q-6 1 -6 5q2 21 17 38t39 26.5t54 9.5q32 0 58.5 -11.5zM155 60q15 12 15 30v18q0 2 -2 2h-36q-22 0 -35 -8.5q-13 -7.5 -13 -23.5q0 -14 9 -22t25 -8q22 0 37 12z "
         id="glyph57" /><glyph
         glyph-name="acircumflex"
         unicode="â"
         horiz-adv-x="264"
         d="M54 288q-2 2 0 6l37 52q2 4 7 4h66q4 0 8 -4l38 -52q2 -2 1 -4q1 -4 -5 -4h-46q-4 0 -6 4l-20 30q-2 2 -4 0l-20 -30q-2 -4 -6 -4h-46q-4 0 -4 2zM186.5 249.5q25.5 -11.5 39.5 -30.5t14 -43v-170q0 -2 -1.5 -4q-2.5 -2 -4.5 -2h-58q-2 0 -4 2t-2 4v16q0 2 -1 2.5 q-1 1.5 -2 -0.5q-21 -28 -67 -28q-39 0 -63.5 19t-24.5 56q0 38 27 59.5t77 21.5h52q2 0 2 2v12q0 16 -10 25t-30 9q-16 0 -26 -5t-13 -15q-3 -6 -7 -6l-60 8q-6 1 -6 5q2 21 17 38t39 26.5t54 9.5q32 0 58.5 -11.5zM155 60q15 12 15 30v18q0 2 -2 2h-36q-22 0 -35 -8.5 q-13 -7.5 -13 -23.5q0 -14 9 -22t25 -8q22 0 37 12z"
         id="glyph58" /><glyph
         glyph-name="adieresis"
         unicode="ä"
         horiz-adv-x="264"
         d="M186.5 249.5q25.5 -11.5 39.5 -30.5t14 -43v-170q0 -2 -1.5 -4q-2.5 -2 -4.5 -2h-58q-2 0 -4 2t-2 4v16q0 2 -1 2.5q-1 1.5 -2 -0.5q-21 -28 -67 -28q-39 0 -63.5 19t-24.5 56q0 38 27 59.5t77 21.5h52q2 0 2 2v12q0 16 -10 25t-30 9q-16 0 -26 -5t-13 -15q-3 -6 -7 -6 l-60 8q-6 1 -6 5q2 21 17 38t39 26.5t54 9.5q32 0 58.5 -11.5zM155 60q15 12 15 30v18q0 2 -2 2h-36q-22 0 -35 -8.5q-13 -7.5 -13 -23.5q0 -14 9 -22t25 -8q22 0 37 12z"
         id="glyph59" /><glyph
         glyph-name="agrave"
         unicode="à"
         horiz-adv-x="264"
         d="M158 292q0 -4 -4 -4h-42q-4 0 -8 4l-35 50q-1 2 -1 4q0 4 5 4h51q5 0 7 -4q1 0 27 -51v-3zM186.5 249.5q25.5 -11.5 39.5 -30.5t14 -43v-170q0 -2 -1.5 -4q-2.5 -2 -4.5 -2h-58q-2 0 -4 2t-2 4v16q0 2 -1 2.5q-1 1.5 -2 -0.5q-21 -28 -67 -28q-39 0 -63.5 19t-24.5 56 q0 38 27 59.5t77 21.5h52q2 0 2 2v12q0 16 -10 25t-30 9q-16 0 -26 -5t-13 -15q-3 -6 -7 -6l-60 8q-6 1 -6 5q2 21 17 38t39 26.5t54 9.5q32 0 58.5 -11.5zM155 60q15 12 15 30v18q0 2 -2 2h-36q-22 0 -35 -8.5q-13 -7.5 -13 -23.5q0 -14 9 -22t25 -8q22 0 37 12z"
         id="glyph60" /><glyph
         glyph-name="atilde"
         unicode="ã"
         horiz-adv-x="264"
         d="M146 289q-8 3 -16 7q-10 5 -15 6q-5 2 -10 2q-17 0 -27 -11q-2 -3 -4 -3t-4 2l-20 22q-4 4 -2 9q8 15 22 23t32 8q10 0 16 -2q7 -2 13 -6t8 -4q11 -4 15 -6q5 -2 10 -2q16 0 24 12q2 2 4 2t4 -2l19 -22q3 -4 1 -8q-6 -14 -20 -21q-14 -9 -32 -9q-11 0 -18 3zM186.5 249.5 q25.5 -11.5 39.5 -30.5t14 -43v-170q0 -2 -1.5 -4q-2.5 -2 -4.5 -2h-58q-2 0 -4 2t-2 4v16q0 2 -1 2.5q-1 1.5 -2 -0.5q-21 -28 -67 -28q-39 0 -63.5 19t-24.5 56q0 38 27 59.5t77 21.5h52q2 0 2 2v12q0 16 -10 25t-30 9q-16 0 -26 -5t-13 -15q-3 -6 -7 -6l-60 8q-6 1 -6 5 q2 21 17 38t39 26.5t54 9.5q32 0 58.5 -11.5zM155 60q15 12 15 30v18q0 2 -2 2h-36q-22 0 -35 -8.5q-13 -7.5 -13 -23.5q0 -14 9 -22t25 -8q22 0 37 12z"
         id="glyph61" /><glyph
         glyph-name="ae"
         unicode="æ"
         horiz-adv-x="419"
         d="M39 15q-27 19 -27 56q0 36 27 58t77 22h52q2 1 2 3v10q0 17 -10.5 26.5q-11.5 9.5 -31.5 9.5q-15 0 -25.5 -5.5q-10.5 -4.5 -12.5 -14.5q-2 -6 -8 -6l-58 8q-2 0 -4 2t-2 5q2 20 17 36.5t38.5 26t50.5 9.5q28 0 50.5 -11.5t33.5 -27.5q2 -2 3 0q10 16 31.5 27.5 t45.5 11.5q35 0 65.5 -20.5t40.5 -53.5q7 -21 8 -75q0 -6 -6 -6h-151q-3 0 -3 -2t2 -12q3 -17 18.5 -25.5t37.5 -8.5q35 0 52 22q2 2 4 2q1 0 4 -2l30 -28q4 -4 2 -8q-16 -22 -42 -35t-57 -13q-29 0 -52 11t-33 29q-2 4 -3 1q-12 -18 -37.5 -29.5t-58.5 -11.5q-43 0 -70 19z M244 151h84q2 1 2 3q-1 11 -2 15q-4 14 -15 22.5t-27 8.5t-27 -8.5t-15 -22.5q0 -3 -2 -15q0 -2 2 -3zM155 58.5q15 11.5 15 29.5v16q0 2 -2 2h-37q-22 0 -35 -7.5q-13 -8.5 -13 -22.5q0 -13 10 -21q9 -8 27 -8q20 0 35 11.5z"
         id="glyph62" /><glyph
         glyph-name="b"
         unicode="b"
         horiz-adv-x="283"
         d="M263 130q-1 -34 -9 -61q-12 -34 -37 -53.5t-59 -19.5q-36 0 -58 28q-1 1 -1.5 0.5t-0.5 -2.5v-16q0 -2 -2 -4t-4 -2h-59q-2 0 -4 2t-2 4v338q0 2 1.5 4t4.5 2h59q2 0 4 -2t2 -4v-107q0 -2 1 -2.5t1 1.5q20 25 56 25t61 -18.5t37 -50.5q10 -26 9 -62zM190 128q0 34 -12 53 t-36 19q-22 0 -33 -19t-11 -53t10 -50q12 -22 35 -22q25 0 37 22q10 19 10 50z"
         id="glyph63" /><glyph
         glyph-name="c"
         unicode="c"
         horiz-adv-x="268"
         d="M69.5 16q-29.5 20 -41.5 55q-8 25 -8 59t8 58q12 34 41.5 53.5t69.5 19.5t70.5 -20q30.5 -21 40.5 -51q4 -12 4 -18v0q0 -4 -6 -6l-57 -8h-1q-4 0 -6 4l-2 8q-4 13 -15.5 21.5q-12.5 8.5 -28.5 8.5t-27 -8t-15 -22q-6 -14 -6 -40t6 -42q4 -15 15 -23.5t27 -8.5t28 8.5 q12 9.5 16 23.5v2l1 2q0 6 7 5l58 -9q4 -2 4 -6t-2 -14q-10 -34 -41 -53t-70 -19q-40 0 -69.5 20z"
         id="glyph64" /><glyph
         glyph-name="ccedilla"
         unicode="ç"
         horiz-adv-x="268"
         d="M182 90l1 2q0 6 7 5l58 -9q4 -2 4 -6t-2 -14q-9 -28 -31.5 -46t-54.5 -24q-2 0 -1.5 -1t1.5 -2q22 -21 22 -44q0 -6 -2 -12q-4 -17 -17 -24.5t-30 -7.5q-16 -1 -31 5q-6 2 -4 8l3 24q-1 6 7 5q4 -1 10 -1q12 0 16 10q0 2 1 5q0 8 -6.5 16.5t-18.5 18.5l-3 1 q-30 6 -51.5 24.5t-31.5 47.5q-8 25 -8 59t8 58q12 34 41.5 53.5t69.5 19.5t70.5 -20q30.5 -21 40.5 -51q4 -12 4 -18v0q0 -4 -6 -6l-57 -8h-1q-4 0 -6 4l-2 8q-4 13 -15.5 21.5q-12.5 8.5 -28.5 8.5t-27 -8t-15 -22q-6 -14 -6 -40t6 -42q4 -15 15 -23.5t27 -8.5t28 8.5 q12 9.5 16 23.5v2z"
         id="glyph65" /><glyph
         glyph-name="d"
         unicode="d"
         horiz-adv-x="283"
         d="M187.5 348q2.5 2 4.5 2h58q2 0 4 -2t2 -4v-338q0 -2 -2 -4t-4 -2h-58q-2 0 -4 2t-2 4v16q0 2 -1 2h-3q-21 -28 -57 -28q-35 0 -60 19.5t-37 53.5q-8 27 -8 61q0 36 9 62q12 32 36.5 50.5t60.5 18.5t56 -25q1 -2 2.5 -1t1.5 2v107q0 2 1.5 4zM185 128q0 34 -11 53 q-12 19 -34 19q-24 0 -35 -19q-13 -20 -13 -53q0 -30 11 -50q12 -22 37 -22q22 0 35 22q10 18 10 50z"
         id="glyph66" /><glyph
         glyph-name="eth"
         unicode="ð"
         horiz-adv-x="275"
         d="M252 117q0 -31 -8 -53q-12 -30 -41 -49t-67 -19t-67 18t-41 50q-8 22 -8 53q0 33 8 53q6 18 20 31.5q14 12.5 32 18.5q19 8 48 8q22 0 35 -5q2 -1 2.5 -0.5q0.5 -0.5 -0.5 1.5q-6 16 -21 40q0 1 -1 1.5t-2 0.5l-50 -14h-2q-3 0 -5 5q0 -1 -7 25q-1 0 -1 2q0 4 5 6l34 9 q2 1 1 3q-14 16 -38 40q-2 2 -2 4q0 4 6 4h61q3 0 7 -4l24 -30q2 -2 4 0l42 11q0 1 2 1q4 0 6 -6l6 -25l1 -2q0 -3 -5 -5l-26 -7q-1 0 -1.5 -1.5t1.5 -1.5q16 -24 26 -47.5t15 -49.5q7 -29 7 -66zM180 115q0 23 -4 35q-4 14 -15 21.5t-25 7.5t-25 -7.5t-15 -21.5 q-6 -13 -6 -35t6 -36q4 -14 14.5 -22q11.5 -8 25.5 -8t24.5 8q11.5 8 15.5 22q4 12 4 36z"
         id="glyph67" /><glyph
         glyph-name="e"
         unicode="e"
         d="M256 112q0 -6 -7 -6h-155q-4 0 -2 -2q2 -10 6 -20q13 -28 53 -28q33 0 51 26q2 3 4 3t4 -2q0 1 36 -35q2 -2 2 -5q0 -1 -2 -4q-16 -20 -42 -31.5t-58 -11.5q-43 0 -72.5 19.5t-42.5 54.5q-11 26 -11 66q0 28 8 48q12 36 40.5 57q27.5 21 67.5 21q50 0 80.5 -29 q31.5 -29 37.5 -78q4 -19 2 -43zM96 171q-2 -6 -4 -16q0 -3 2 -3h87q3 0 2 3l-3 14q-4 15 -15 23t-28 8q-31 0 -41 -29z"
         id="glyph68" /><glyph
         glyph-name="eacute"
         unicode="é"
         horiz-adv-x="272"
         d="M104 290q-1 2 0 5q0 1 26 51q2 4 8 4h50q4 0 5 -2t-1 -6l-35 -50q-2 -4 -7 -4h-42q-3 0 -4 2zM256 112q0 -6 -7 -6h-155q-4 0 -2 -2q2 -10 6 -20q13 -28 53 -28q33 0 51 26q2 3 4 3t4 -2q0 1 36 -35q2 -2 2 -5q0 -1 -2 -4q-16 -20 -42 -31.5t-58 -11.5q-43 0 -72.5 19.5 t-42.5 54.5q-11 26 -11 66q0 28 8 48q12 36 40.5 57q27.5 21 67.5 21q50 0 80.5 -29q31.5 -29 37.5 -78q4 -19 2 -43zM96 171q-2 -6 -4 -16q0 -3 2 -3h87q3 0 2 3l-3 14q-4 15 -15 23t-28 8q-31 0 -41 -29z"
         id="glyph69" /><glyph
         glyph-name="ecircumflex"
         unicode="ê"
         horiz-adv-x="272"
         d="M57 288q-1 2 1 6l36 52q2 4 8 4h66q4 0 7 -4l38 -52q1 -2 1 -4q0 -4 -5 -4h-45q-4 0 -7 4l-20 30q-2 2 -3 0l-20 -30q-2 -4 -7 -4h-45q-4 0 -5 2zM256 112q0 -6 -7 -6h-155q-4 0 -2 -2q2 -10 6 -20q13 -28 53 -28q33 0 51 26q2 3 4 3t4 -2q0 1 36 -35q2 -2 2 -5 q0 -1 -2 -4q-16 -20 -42 -31.5t-58 -11.5q-43 0 -72.5 19.5t-42.5 54.5q-11 26 -11 66q0 28 8 48q12 36 40.5 57q27.5 21 67.5 21q50 0 80.5 -29q31.5 -29 37.5 -78q4 -19 2 -43zM96 171q-2 -6 -4 -16q0 -3 2 -3h87q3 0 2 3l-3 14q-4 15 -15 23t-28 8q-31 0 -41 -29z"
         id="glyph70" /><glyph
         glyph-name="edieresis"
         unicode="ë"
         horiz-adv-x="272"
         d="M256 112q0 -6 -7 -6h-155q-4 0 -2 -2q2 -10 6 -20q13 -28 53 -28q33 0 51 26q2 3 4 3t4 -2q0 1 36 -35q2 -2 2 -5q0 -1 -2 -4q-16 -20 -42 -31.5t-58 -11.5q-43 0 -72.5 19.5t-42.5 54.5q-11 26 -11 66q0 28 8 48q12 36 40.5 57q27.5 21 67.5 21q50 0 80.5 -29 q31.5 -29 37.5 -78q4 -19 2 -43zM96 171q-2 -6 -4 -16q0 -3 2 -3h87q3 0 2 3l-3 14q-4 15 -15 23t-28 8q-31 0 -41 -29z"
         id="glyph71" /><glyph
         glyph-name="egrave"
         unicode="è"
         horiz-adv-x="272"
         d="M162 292q0 -4 -5 -4h-42q-4 0 -7 4l-36 50v4q0 4 4 4h51q5 0 7 -4l27 -51q1 -2 1 -3zM256 112q0 -6 -7 -6h-155q-4 0 -2 -2q2 -10 6 -20q13 -28 53 -28q33 0 51 26q2 3 4 3t4 -2q0 1 36 -35q2 -2 2 -5q0 -1 -2 -4q-16 -20 -42 -31.5t-58 -11.5q-43 0 -72.5 19.5 t-42.5 54.5q-11 26 -11 66q0 28 8 48q12 36 40.5 57q27.5 21 67.5 21q50 0 80.5 -29q31.5 -29 37.5 -78q4 -19 2 -43zM96 171q-2 -6 -4 -16q0 -3 2 -3h87q3 0 2 3l-3 14q-4 15 -15 23t-28 8q-31 0 -41 -29z"
         id="glyph72" /><glyph
         glyph-name="f"
         unicode="f"
         horiz-adv-x="193"
         d="M176.5 256q1.5 -2 1.5 -4v-48q0 -2 -1.5 -4q-2.5 -2 -4.5 -2h-48q-2 0 -2 -2v-190q0 -2 -2 -4t-4 -2h-59q-2 0 -4 2t-2 4v190q-1 2 -3 2h-29q-2 0 -4 2t-2 4v48q0 2 1.5 4t4.5 2q-1 0 29 0q2 0 3 2v11q0 31 9.5 48t30.5 24.5t59 6.5h19q2 0 4 -2t2 -4v-40q0 -2 -1.5 -4 t-4.5 -2h-17q-18 0 -24 -7t-6 -25v-6q0 -2 2 -2h48q2 0 4.5 -2z"
         id="glyph73" /><glyph
         glyph-name="g"
         unicode="g"
         horiz-adv-x="278"
         d="M184.5 255.5q1.5 1.5 4.5 1.5h59q2 0 4 -1.5t2 -4.5v-228q0 -66 -38 -93.5t-98 -27.5q-18 0 -38 2q-6 0 -6 6l2 52q0 6 8 6q18 -4 32 -4q32 0 49.5 14t17.5 46q0 2 -1 2t-2 -2q-20 -20 -56 -20q-32 0 -59 16t-39 50q-8 23 -8 60q0 40 10 64q10 30 35 48.5t58 18.5 q38 0 59 -23q1 -1 2 -0.5t1 1.5v12q0 3 1.5 4.5zM183 130q0 16 -1 24.5q-2 7.5 -4 15.5q-4 14 -14.5 22q-9.5 8 -25.5 8q-15 0 -25.5 -8t-16.5 -22q-6 -15 -6 -40q0 -28 6 -40q4 -14 15 -22t27 -8t26.5 8t14.5 22t4 40z"
         id="glyph74" /><glyph
         glyph-name="h"
         unicode="h"
         d="M224.5 236.5q24.5 -24.5 24.5 -66.5v-164q0 -2 -1.5 -4t-4.5 -2h-59q-2 0 -4 2t-2 4v150q0 20 -11 32t-29 12t-30 -12t-12 -32v-150q0 -2 -1.5 -4q-2.5 -2 -4.5 -2h-58q-2 0 -4 2t-2 4v338q0 2 2 4t4 2h58q2 0 4 -2t2 -4v-110q0 -2 1 -2.5t2 0.5q20 29 61 29 q40 0 64.5 -24.5z"
         id="glyph75" /><glyph
         glyph-name="i"
         unicode="i"
         horiz-adv-x="127"
         d="M35.5 297q-11.5 11 -11.5 29t11 28.5t29 10.5t29 -11q11 -10 11 -28q0 -17 -11.5 -28.5t-28.5 -11.5t-28.5 11zM30 2q-2 2 -2 4v246q0 2 2 4t4 2h58q2 0 4 -2t2 -4v-246q0 -2 -1.5 -4q-2.5 -2 -4.5 -2h-58q-2 0 -4 2z"
         id="glyph76" /><glyph
         glyph-name="iacute"
         unicode="í"
         horiz-adv-x="118"
         d="M27 290q-1 2 1 5q0 1 26 51q2 4 8 4h50q4 0 5 -2t-1 -6l-36 -50q-2 -4 -6 -4h-42q-4 0 -5 2zM26 2q-2 2 -2 4v245q0 2 2 4t4 2h58q2 0 5 -2q1 -2 1 -4v-245q0 -2 -1 -4q-3 -2 -5 -2h-58q-2 0 -4 2z"
         id="glyph77" /><glyph
         glyph-name="icircumflex"
         unicode="î"
         horiz-adv-x="118"
         d="M-19 288q-1 2 1 6l36 52q2 4 7 4h67q4 0 6 -4l38 -52q2 -2 2 -4q0 -4 -6 -4h-44q-4 0 -8 4l-20 30q-2 2 -2 0l-20 -30q-2 -4 -8 -4h-44q-4 0 -5 2zM26 2q-2 2 -2 4v245q0 2 2 4t4 2h58q2 0 5 -2q1 -2 1 -4v-245q0 -2 -1 -4q-3 -2 -5 -2h-58q-2 0 -4 2z"
         id="glyph78" /><glyph
         glyph-name="idieresis"
         unicode="ï"
         horiz-adv-x="118"
         d="M26 2q-2 2 -2 4v245q0 2 2 4t4 2h58q2 0 5 -2q1 -2 1 -4v-245q0 -2 -1 -4q-3 -2 -5 -2h-58q-2 0 -4 2z"
         id="glyph79" /><glyph
         glyph-name="igrave"
         unicode="ì"
         horiz-adv-x="118"
         d="M86 292q0 -4 -5 -4h-42q-4 0 -7 4l-36 50v4q0 4 4 4h51q5 0 7 -4l27 -51q1 -2 1 -3zM26 2q-2 2 -2 4v245q0 2 2 4t4 2h58q2 0 5 -2q1 -2 1 -4v-245q0 -2 -1 -4q-3 -2 -5 -2h-58q-2 0 -4 2z"
         id="glyph80" /><glyph
         glyph-name="j"
         unicode="j"
         horiz-adv-x="127"
         d="M35 297q-11 11 -11 29t11 28.5t29 10.5t28.5 -11q10.5 -10 10.5 -28q0 -17 -11.5 -28.5t-27.5 -11.5q-18 0 -29 11zM-30 -96v48q0 6 6 5q30 -1 42 8.5t12 33.5l-2 252q0 2 2 4t4 2h59q2 0 4 -1.5t2 -4.5v-251q0 -40 -11 -62.5t-37.5 -31.5t-74.5 -8q-6 0 -6 6z"
         id="glyph81" /><glyph
         glyph-name="k"
         unicode="k"
         horiz-adv-x="266"
         d="M28 2q-2 2 -2 4v338q0 2 2 4t4 2h58q2 0 4 -2t2 -4v-168q0 -2 1 -2h3l68 80q4 4 7 3h67q4 1 4 -3q0 -2 -1 -4q1 0 -63 -81q-1 -1 -1 -3q1 0 75 -159v-3q0 -4 -5 -4q1 0 -61 0q-6 0 -8 4l-49 118q0 1 -1.5 1t-1.5 -1l-32 -40q-2 -2 -2 -3v-73q0 -2 -1.5 -4 q-2.5 -2 -4.5 -2h-58q-2 0 -4 2z"
         id="glyph82" /><glyph
         glyph-name="l"
         unicode="l"
         horiz-adv-x="122"
         d="M28 2q-2 2 -2 4v338q0 2 2 4t4 2h58q2 0 4 -2t2 -4v-338q0 -2 -1.5 -4q-2.5 -2 -4.5 -2h-58q-2 0 -4 2z"
         id="glyph83" /><glyph
         glyph-name="m"
         unicode="m"
         horiz-adv-x="417"
         d="M372 237.5q22 -23.5 22 -65.5v-166q0 -2 -2 -4t-4 -2h-58q-2 0 -4 2t-2 4v150q0 20 -11 32t-28 12q-18 0 -28.5 -12t-10.5 -32v-150q0 -2 -2 -4t-4 -2h-58q-2 0 -4 2t-2 4v150q0 20 -11 32t-29 12q-16 0 -27 -9t-13 -27v-158q0 -2 -1.5 -4q-2.5 -2 -4.5 -2h-58q-2 0 -4 2 t-2 4v245q0 2 2 4t4 2h58q2 0 4 -1.5t2 -4.5q0 1 0 -19q0 -2 1 -2.5q1 -1.5 3 0.5q20 30 63 31q25 0 44 -10.5t29 -30.5q2 -4 3 0q11 20 30 30.5t42 10.5q39 0 61 -23.5z"
         id="glyph84" /><glyph
         glyph-name="n"
         unicode="n"
         d="M224.5 236.5q24.5 -24.5 24.5 -66.5v-164q0 -2 -1.5 -4t-4.5 -2h-59q-2 0 -4 2t-2 4v150q0 20 -11 32t-29 12t-30 -12t-12 -32v-150q0 -2 -1.5 -4q-2.5 -2 -4.5 -2h-58q-2 0 -4 2t-2 4v245q0 2 2 4t4 2h58q2 0 4 -1.5t2 -4.5q0 1 0 -17q0 -2 1 -2.5t2 0.5q20 29 61 29 q40 0 64.5 -24.5z"
         id="glyph85" /><glyph
         glyph-name="ntilde"
         unicode="ñ"
         d="M154 289q-7 3 -16 7q-10 5 -15 6q-5 2 -11 2q-16 0 -26 -11q-2 -3 -4 -3t-4 2l-21 22q-4 4 -1 9q8 15 22 23t31 8q10 0 17 -2t13 -6q5 -4 7 -4l15 -6t11 -2q16 0 24 12q2 2 4 2t4 -2l18 -22q3 -4 2 -8q-6 -14 -20 -21q-14 -9 -32 -9q-10 0 -18 3zM224.5 236.5 q24.5 -24.5 24.5 -66.5v-164q0 -2 -1.5 -4t-4.5 -2h-59q-2 0 -4 2t-2 4v150q0 20 -11 32t-29 12t-30 -12t-12 -32v-150q0 -2 -1.5 -4q-2.5 -2 -4.5 -2h-58q-2 0 -4 2t-2 4v245q0 2 2 4t4 2h58q2 0 4 -1.5t2 -4.5q0 1 0 -17q0 -2 1 -2.5t2 0.5q20 29 61 29q40 0 64.5 -24.5z "
         id="glyph86" /><glyph
         glyph-name="o"
         unicode="o"
         horiz-adv-x="278"
         d="M68 18q-30 22 -42 60q-6 24 -6 51q0 30 6 53q12 37 42 58t72 21q41 0 70 -20.5t41 -58.5q8 -25 8 -52q0 -26 -7 -50q-11 -39 -40.5 -61.5t-71.5 -22.5t-72 22zM167.5 66q11.5 10 16.5 28q4 16 4 35q0 21 -4 35q-6 17 -17 26.5t-28 9.5t-28 -9t-17 -27q-4 -12 -4 -35 q0 -22 4 -35q5 -18 16.5 -28t29.5 -10q16 0 27.5 10z"
         id="glyph87" /><glyph
         glyph-name="oacute"
         unicode="ó"
         horiz-adv-x="274"
         d="M105 290q-1 2 1 5q0 1 26 51q2 4 8 4h50q4 0 5 -2t-1 -6l-36 -50q-2 -4 -6 -4h-42q-4 0 -5 2zM68 18q-30 22 -42 60q-6 24 -6 51q0 30 6 53q12 37 42 58t72 21q41 0 70 -20.5t41 -58.5q8 -25 8 -52q0 -26 -7 -50q-11 -39 -40.5 -61.5t-71.5 -22.5t-72 22zM167.5 66 q11.5 10 16.5 28q4 16 4 35q0 21 -4 35q-6 17 -17 26.5t-28 9.5t-28 -9t-17 -27q-4 -12 -4 -35q0 -22 4 -35q5 -18 16.5 -28t29.5 -10q16 0 27.5 10z"
         id="glyph88" /><glyph
         glyph-name="ocircumflex"
         unicode="ô"
         horiz-adv-x="274"
         d="M59 288q-1 2 1 6l36 52q2 4 7 4h67q4 0 6 -4l38 -52q2 -2 2 -4q0 -4 -6 -4h-44q-4 0 -8 4l-20 30q-2 2 -2 0l-20 -30q-2 -4 -8 -4h-44q-4 0 -5 2zM68 18q-30 22 -42 60q-6 24 -6 51q0 30 6 53q12 37 42 58t72 21q41 0 70 -20.5t41 -58.5q8 -25 8 -52q0 -26 -7 -50 q-11 -39 -40.5 -61.5t-71.5 -22.5t-72 22zM167.5 66q11.5 10 16.5 28q4 16 4 35q0 21 -4 35q-6 17 -17 26.5t-28 9.5t-28 -9t-17 -27q-4 -12 -4 -35q0 -22 4 -35q5 -18 16.5 -28t29.5 -10q16 0 27.5 10z"
         id="glyph89" /><glyph
         glyph-name="odieresis"
         unicode="ö"
         horiz-adv-x="274"
         d="M68 18q-30 22 -42 60q-6 24 -6 51q0 30 6 53q12 37 42 58t72 21q41 0 70 -20.5t41 -58.5q8 -25 8 -52q0 -26 -7 -50q-11 -39 -40.5 -61.5t-71.5 -22.5t-72 22zM167.5 66q11.5 10 16.5 28q4 16 4 35q0 21 -4 35q-6 17 -17 26.5t-28 9.5t-28 -9t-17 -27q-4 -12 -4 -35 q0 -22 4 -35q5 -18 16.5 -28t29.5 -10q16 0 27.5 10z"
         id="glyph90" /><glyph
         glyph-name="ograve"
         unicode="ò"
         horiz-adv-x="274"
         d="M164 292q0 -4 -5 -4h-42q-4 0 -7 4l-36 50v4q0 4 4 4h51q5 0 7 -4l27 -51q1 -2 1 -3zM68 18q-30 22 -42 60q-6 24 -6 51q0 30 6 53q12 37 42 58t72 21q41 0 70 -20.5t41 -58.5q8 -25 8 -52q0 -26 -7 -50q-11 -39 -40.5 -61.5t-71.5 -22.5t-72 22zM167.5 66 q11.5 10 16.5 28q4 16 4 35q0 21 -4 35q-6 17 -17 26.5t-28 9.5t-28 -9t-17 -27q-4 -12 -4 -35q0 -22 4 -35q5 -18 16.5 -28t29.5 -10q16 0 27.5 10z"
         id="glyph91" /><glyph
         glyph-name="oslash"
         unicode="ø"
         horiz-adv-x="275"
         d="M240 208q6 -10 12 -26q8 -25 8 -52q0 -26 -6 -50q-11 -39 -41 -61.5t-72 -22.5q-25 0 -46 8q-1 0 -3 -2l-19 -26q-3 -2 -5 -3t-4 1l-40 33q-2 3 -2 5t1 4l19 28q1 2 0 2q-8 14 -14 32q-7 24 -7 51q0 30 7 53q12 37 42 58t72 21q27 0 46 -8q2 -1 4 1l20 28q2 2 4 3t4 -1 l40 -33q2 -3 3 -5t-1 -4l-22 -30v-4zM190 129q0 21 -4 35q-6 17 -17.5 26.5q-12.5 9.5 -28.5 9.5q-17 0 -28 -9t-16 -27q-4 -12 -4 -35q0 -22 4 -35q5 -18 16.5 -28t28.5 -10q16 0 27.5 10t17.5 28q4 16 4 35z"
         id="glyph92" /><glyph
         glyph-name="otilde"
         unicode="õ"
         horiz-adv-x="274"
         d="M152 289q-6 3 -16 7q-10 5 -16 6q-5 2 -10 2q-16 0 -26 -11q-2 -3 -5 -3q-2 0 -4 2q-1 0 -21 22q-4 4 0 9q8 15 22 23t30 8q10 0 17 -2t13 -6t8 -4q10 -4 14 -6q5 -2 11 -2q16 0 24 12q3 2 5 2t4 -2l18 -22q4 -4 2 -8q-6 -14 -21 -21q-14 -9 -32 -9q-10 0 -17 3zM68 18 q-30 22 -42 60q-6 24 -6 51q0 30 6 53q12 37 42 58t72 21q41 0 70 -20.5t41 -58.5q8 -25 8 -52q0 -26 -7 -50q-11 -39 -40.5 -61.5t-71.5 -22.5t-72 22zM167.5 66q11.5 10 16.5 28q4 16 4 35q0 21 -4 35q-6 17 -17 26.5t-28 9.5t-28 -9t-17 -27q-4 -12 -4 -35q0 -22 4 -35 q5 -18 16.5 -28t29.5 -10q16 0 27.5 10z"
         id="glyph93" /><glyph
         glyph-name="oe"
         unicode="œ"
         horiz-adv-x="436"
         d="M340.5 61.5q12.5 6.5 20.5 16.5q2 4 5 4q2 0 4 -2l34 -30q4 -4 1 -8q-16 -22 -41.5 -34t-57.5 -12q-26 0 -48 9.5q-22 8.5 -38 26.5q-2 2 -4 0q-16 -17 -36.5 -26.5q-19.5 -9.5 -43.5 -9.5q-38 0 -67 20t-41 54q-8 24 -8 60q0 35 8 58q12 34 40.5 53.5 q29.5 19.5 67.5 19.5q24 0 44.5 -9.5q19.5 -9.5 35.5 -26.5q2 -2 4 0q16 17 37 26.5t44 9.5q40 0 69.5 -20.5t39.5 -53.5q8 -22 9 -77q0 -6 -6 -6h-153q-2 0 -2 -2q0 -6 3 -14q11 -33 55 -33q12 0 24.5 6.5zM180 130q0 26 -5 40q-4 14 -14.5 22t-24.5 8t-25 -8t-15 -22 q-6 -14 -6 -40t6 -42q4 -14 14.5 -23q11.5 -9 25.5 -9t24.5 9t14.5 23q5 16 5 42zM276 192q-10 -8 -15 -23q0 -3 -3 -15q-1 -2 2 -2h84q2 0 3 2q-2 12 -3 15q-4 14 -15 22.5t-27 8.5t-26 -8z"
         id="glyph94" /><glyph
         glyph-name="p"
         unicode="p"
         horiz-adv-x="284"
         d="M264 128q0 -34 -9 -62q-12 -32 -36.5 -51t-60.5 -19t-56 25q-1 2 -2.5 1.5t-1.5 -2.5v-107q0 -2 -1.5 -4q-2.5 -2 -4.5 -2h-58q-2 0 -4 1.5t-2 4.5v338q0 2 2 4t4 2h58q2 0 4 -1.5t2 -4.5v-17q0 -2 1 -2t3 2q22 28 58 27q34 0 59 -19.5t37 -53.5q8 -26 8 -60zM192 129 q0 32 -11 50q-12 21 -37 21q-22 0 -34 -21q-10 -19 -11 -51q0 -34 11 -52q12 -20 34 -20t35 20q13 19 13 53z"
         id="glyph95" /><glyph
         glyph-name="q"
         unicode="q"
         horiz-adv-x="284"
         d="M187.5 255.5q2.5 1.5 4.5 1.5h58q2 0 4 -1.5t2 -4.5v-338q0 -2 -2 -4t-4 -2h-58q-2 0 -4 1.5t-2 4.5v107q0 2 -1 2t-3 -1q-20 -25 -56 -25t-61 19t-36 51q-9 26 -9 62q0 34 8 60q11 34 36.5 53.5t60.5 19.5q35 1 57 -27q1 -1 2.5 -1q1.5 -1 1.5 1v17q0 3 1.5 4.5z M185 128q0 32 -10 51q-12 21 -35 21q-24 0 -37 -21q-11 -20 -11 -50q0 -34 13 -53q11 -20 35 -20q22 0 34 20q11 18 11 52z"
         id="glyph96" /><glyph
         glyph-name="r"
         unicode="r"
         horiz-adv-x="191"
         d="M182 254q4 -2 4 -8l-11 -57q0 -5 -7 -3q-8 2 -18 2q-4 0 -10 -1q-18 -2 -31 -13.5t-13 -31.5v-136q0 -2 -1.5 -4q-2.5 -2 -4.5 -2h-58q-2 0 -4 2t-2 4v245q0 2 2 4t4 2h58q2 0 4 -1.5t2 -4.5v-19q0 -2 1 -2h2q20 30 55 30q18 0 28 -6z"
         id="glyph97" /><glyph
         glyph-name="s"
         unicode="s"
         horiz-adv-x="251"
         d="M70 6q-25 10 -38.5 27t-13.5 38v5q0 2 1.5 4q2.5 2 4.5 2h55q2 0 4 -2t2 -4v0q0 -11 12.5 -19t30.5 -8q17 0 27.5 6.5t10.5 16.5q0 9 -9 13.5t-29 10.5q-24 6 -38 11q-32 11 -51 27t-19 46q0 37 29 58.5t77 21.5q32 0 56 -10t37 -28.5q13 -17.5 13 -41.5q0 -2 -2 -4 t-4 -2h-54q-2 0 -4 1.5q-2 2.5 -2 4.5q0 11 -11 18.5t-29 7.5q-16 0 -27 -6t-11 -17q0 -10 10 -15q10 -4 34 -10q6 -2 13 -4t15 -4q36 -10 56 -27t20 -48q0 -37 -29 -58t-79 -21q-34 0 -58 10z"
         id="glyph98" /><glyph
         glyph-name="germandbls"
         unicode="ß"
         horiz-adv-x="287"
         d="M28.5 2q-1.5 2 -1.5 4v236q0 53 30.5 82.5t85.5 29.5q35 0 62 -12t42 -34t15 -51q1 -45 -36 -65q-2 -2 0 -4q19 -11 30.5 -33.5t11.5 -51.5q0 -49 -33 -76t-94 -27h-17q-2 0 -4 2t-2 4v48q0 2 2 4t4 2h24q22 0 36 13.5q14 12.5 14 36.5q0 23 -13.5 36.5t-33.5 13.5h-22 q-2 0 -4 2t-2 4v44q0 2 1.5 4t4.5 2h21q18 0 30 11t12 27q0 17 -11 28.5t-33 11.5t-36 -12t-14 -34v-242q0 -2 -2 -4t-4 -2h-59q-3 0 -4.5 2z"
         id="glyph99" /><glyph
         glyph-name="t"
         unicode="t"
         horiz-adv-x="190"
         d="M172 202q-2 -2 -4 -2h-48q-2 0 -3 -2v-106q0 -16 6.5 -24t22.5 -8h16q2 0 4 -2t2 -4v-48q0 -6 -6 -6q-21 -2 -30 -2q-42 0 -62 14t-21 52v134q-1 2 -3 2h-28q-2 0 -4 2t-2 4v45q0 2 2 4t4 2h28q2 1 3 3v59q0 2 1.5 4t4.5 2h56q2 0 4 -1.5t2 -4.5q0 1 0 -59q1 -2 3 -3h48 q2 0 4 -1.5t2 -4.5v-45q0 -2 -2 -4z"
         id="glyph100" /><glyph
         glyph-name="u"
         unicode="u"
         horiz-adv-x="272"
         d="M178 255.5q2 1.5 4 1.5h58q2 0 4 -1.5t2 -4.5v-245q0 -2 -1.5 -4q-2.5 -2 -4.5 -2h-58q-2 0 -4 2t-2 4v17q0 2 -1 2q-1 1 -2 -1q-20 -28 -62 -28q-38 0 -62.5 23t-24.5 65v167q0 2 2 4t4 2h58q2 0 4 -1.5t2 -4.5q0 1 0 -149q0 -20 11 -33t29 -13q17 0 28.5 10.5 q11.5 11.5 13.5 27.5v157q0 3 2 4.5z"
         id="glyph101" /><glyph
         glyph-name="uacute"
         unicode="ú"
         d="M104 290q-2 2 0 5q0 1 27 51q1 4 7 4h51q4 0 5 -2t-1 -6q1 0 -35 -50q-2 -4 -8 -4h-42q-4 0 -4 2zM178 255.5q2 1.5 4 1.5h58q2 0 4 -1.5t2 -4.5v-245q0 -2 -1.5 -4q-2.5 -2 -4.5 -2h-58q-2 0 -4 2t-2 4v17q0 2 -1 2q-1 1 -2 -1q-20 -28 -62 -28q-38 0 -62.5 23t-24.5 65 v167q0 2 2 4t4 2h58q2 0 4 -1.5t2 -4.5q0 1 0 -149q0 -20 11 -33t29 -13q17 0 28.5 10.5q11.5 11.5 13.5 27.5v157q0 3 2 4.5z"
         id="glyph102" /><glyph
         glyph-name="ucircumflex"
         unicode="û"
         d="M58 288q-2 2 0 6l37 52q2 4 7 4h66q4 0 8 -4l38 -52q2 -2 1 -4q1 -4 -5 -4h-46q-4 0 -6 4l-20 30q-2 2 -4 0l-20 -30q-2 -4 -6 -4h-46q-4 0 -4 2zM178 255.5q2 1.5 4 1.5h58q2 0 4 -1.5t2 -4.5v-245q0 -2 -1.5 -4q-2.5 -2 -4.5 -2h-58q-2 0 -4 2t-2 4v17q0 2 -1 2 q-1 1 -2 -1q-20 -28 -62 -28q-38 0 -62.5 23t-24.5 65v167q0 2 2 4t4 2h58q2 0 4 -1.5t2 -4.5q0 1 0 -149q0 -20 11 -33t29 -13q17 0 28.5 10.5q11.5 11.5 13.5 27.5v157q0 3 2 4.5z"
         id="glyph103" /><glyph
         glyph-name="udieresis"
         unicode="ü"
         d="M178 255.5q2 1.5 4 1.5h58q2 0 4 -1.5t2 -4.5v-245q0 -2 -1.5 -4q-2.5 -2 -4.5 -2h-58q-2 0 -4 2t-2 4v17q0 2 -1 2q-1 1 -2 -1q-20 -28 -62 -28q-38 0 -62.5 23t-24.5 65v167q0 2 2 4t4 2h58q2 0 4 -1.5t2 -4.5q0 1 0 -149q0 -20 11 -33t29 -13q17 0 28.5 10.5 q11.5 11.5 13.5 27.5v157q0 3 2 4.5z"
         id="glyph104" /><glyph
         glyph-name="ugrave"
         unicode="ù"
         d="M162 292q0 -4 -4 -4h-42q-4 0 -8 4l-35 50q-1 2 -1 4q0 4 5 4h51q5 0 7 -4q1 0 27 -51v-3zM178 255.5q2 1.5 4 1.5h58q2 0 4 -1.5t2 -4.5v-245q0 -2 -1.5 -4q-2.5 -2 -4.5 -2h-58q-2 0 -4 2t-2 4v17q0 2 -1 2q-1 1 -2 -1q-20 -28 -62 -28q-38 0 -62.5 23t-24.5 65v167 q0 2 2 4t4 2h58q2 0 4 -1.5t2 -4.5q0 1 0 -149q0 -20 11 -33t29 -13q17 0 28.5 10.5q11.5 11.5 13.5 27.5v157q0 3 2 4.5z"
         id="glyph105" /><glyph
         glyph-name="v"
         unicode="v"
         horiz-adv-x="260"
         d="M91 5q0 -1 -80 245q-1 1 -1 3q0 5 6 5h64q6 0 8 -6l40 -151q0 -2 1.5 -1.5q2.5 0.5 2.5 1.5q0 -1 40 151q2 6 8 6l64 -2q3 0 4.5 -1.5q1.5 -0.5 0.5 -4.5q1 0 -79 -245q-2 -5 -7 -5q1 0 -65 0q-4 0 -7 5z"
         id="glyph106" /><glyph
         glyph-name="w"
         unicode="w"
         horiz-adv-x="391"
         d="M83 5q0 -1 -72 245q-1 0 -1 2q0 6 6 6h60q6 0 8 -6l36 -150q0 -2 1 -2t1 2l38 150q2 6 7 6h53q6 0 6 -6l40 -151q0 -2 1 -1.5t2 1.5q0 -1 39 151q2 6 7 6l60 -2q3 0 4 -1.5t1 -4.5l-73 -245q-3 -5 -7 -5h-60q-6 0 -7 5q-1 0 -39 134q0 2 -1 1.5t-1 -1.5l-34 -134 q-2 -5 -8 -5h-60q-5 0 -7 5z"
         id="glyph107" /><glyph
         glyph-name="x"
         unicode="x"
         horiz-adv-x="269"
         d="M11 2q-1 2 1 6l80 119v3l-80 120q-1 2 -1 3q0 4 5 4h62q4 0 8 -4q0 -1 44 -69q2 -4 4 0l45 69q2 4 7 4h67q4 0 4.5 -2.5t-1.5 -4.5l-80 -120v-3q0 1 80 -119q2 -2 2 -4q0 -4 -5 -4h-63q-4 0 -7 4l-45 68q-2 2 -3 0l-45 -68q-2 -4 -7 -4h-67q-4 0 -5 2z"
         id="glyph108" /><glyph
         glyph-name="y"
         unicode="y"
         horiz-adv-x="252"
         d="M22 -98q-1 2 -1 4v46q0 2 1.5 4t4.5 2q21 0 33 3.5t19.5 12t11.5 24.5v4l-82 248q-1 1 -1 3q0 5 6 5h62q6 0 8 -6l42 -162q0 -2 1 -1.5q1 -0.5 1 1.5l42 162q2 6 8 6h60q3 0 4.5 -2t0.5 -6q-1 0 -87 -260q-12 -36 -25 -54t-36.5 -27t-66.5 -9h-4q-2 0 -2 2z"
         id="glyph109" /><glyph
         glyph-name="yacute"
         unicode="ý"
         horiz-adv-x="252"
         d="M94 294q-1 2 0 6l26 50q2 4 8 4h50q4 0 5 -2t-1 -5q0 -1 -35 -51q-2 -4 -7 -4h-42q-3 0 -4 2zM22 -98q-1 2 -1 4v46q0 2 1.5 4t4.5 2q21 0 33 3.5t19.5 12t11.5 24.5v4l-82 248q-1 1 -1 3q0 5 6 5h62q6 0 8 -6l42 -162q0 -2 1 -1.5q1 -0.5 1 1.5l42 162q2 6 8 6h60 q3 0 4.5 -2t0.5 -6q-1 0 -87 -260q-12 -36 -25 -54t-36.5 -27t-66.5 -9h-4q-2 0 -2 2z"
         id="glyph110" /><glyph
         glyph-name="ydieresis"
         unicode="ÿ"
         horiz-adv-x="252"
         d="M22 -98q-1 2 -1 4v46q0 2 1.5 4t4.5 2q21 0 33 3.5t19.5 12t11.5 24.5v4l-82 248q-1 1 -1 3q0 5 6 5h62q6 0 8 -6l42 -162q0 -2 1 -1.5q1 -0.5 1 1.5l42 162q2 6 8 6h60q3 0 4.5 -2t0.5 -6q-1 0 -87 -260q-12 -36 -25 -54t-36.5 -27t-66.5 -9h-4q-2 0 -2 2z"
         id="glyph111" /><glyph
         glyph-name="z"
         unicode="z"
         horiz-adv-x="230"
         d="M14 2q-2 2 -2 4v54q0 4 3 7q1 -1 113 123q2 4 -2 4h-105q-2 0 -4 1.5q-2 2.5 -2 4.5v51q0 2 1.5 4t4.5 2h187q2 0 4 -1.5t2 -4.5v-53q0 -4 -3 -8l-116 -123q-2 -3 1 -3h114q2 0 4 -2t2 -4v-52q0 -2 -1.5 -4q-2.5 -2 -4.5 -2h-192q-2 0 -4 2z"
         id="glyph112" /><glyph
         glyph-name="zero"
         unicode="0"
         horiz-adv-x="285"
         d="M55 25q-32 31 -32 84v132q0 52 32 82.5t87 30.5t87.5 -30.5t32.5 -82.5v-132q0 -53 -32.5 -84t-87.5 -31t-87 31zM177.5 68.5q13.5 13.5 13.5 37.5v137q0 23 -13.5 37t-35.5 14t-35 -14t-13 -37q0 1 0 -137q0 -23 13 -37t35 -14t35.5 13.5z"
         id="glyph113" /><glyph
         glyph-name="one"
         unicode="1"
         horiz-adv-x="177"
         d="M82 350h61q2 0 4 -2t2 -4v-338q0 -2 -1.5 -4t-4.5 -2h-59q-2 0 -4 2t-2 4v274q0 1 -1 2h-1l-50 -13q0 -1 -2 -1q-4 0 -4 6l-2 43q0 5 4 7l53 24q2 2 7 2z"
         id="glyph114" /><glyph
         glyph-name="two"
         unicode="2"
         horiz-adv-x="280"
         d="M116 61q0 -1 2 -1h136q2 0 4 -1.5q2 -2.5 2 -4.5v-48q0 -2 -2 -4t-4 -2h-226q-2 0 -4 2t-2 4v46q0 4 4 8q24 24 49.5 52q26.5 28 32.5 35q14 15 28 31q46 50 46 76q0 18 -13 29t-33 11t-32 -11.5q-12 -12.5 -12 -30.5v-12q0 -2 -2 -4t-4 -2h-60q-2 0 -4 2t-2 4v24 q2 27 17.5 47.5t41 31.5t57.5 11q36 0 62 -13t40.5 -36t14.5 -50q0 -21 -10.5 -43t-31.5 -48q-16 -20 -33.5 -38.5t-53.5 -54.5q0 1 -8 -7v-3z"
         id="glyph115" /><glyph
         glyph-name="three"
         unicode="3"
         horiz-adv-x="270"
         d="M248 114q0 -27 -8 -50q-12 -32 -40.5 -50q-29.5 -18 -67.5 -18t-66.5 19q-29.5 19 -41.5 51q-8 20 -8 42q0 6 6 6h60q6 0 6 -6q2 -16 5 -24q4 -13 14.5 -20.5t24.5 -7.5q28 0 38 25q8 15 8 35q0 24 -8 38q-12 24 -38 24q-6 0 -12 -3t-14 -9q-2 -2 -4 -2q-3 0 -5 3 q1 -1 -29 41q-2 2 -2 4q0 3 2 5q0 -1 80 69q1 1 0.5 2.5t-1.5 1.5q1 0 -117 0q-2 0 -4 1.5q-2 2.5 -2 4.5v48q0 2 1.5 4q2.5 2 4.5 2h208q2 0 4 -2t2 -4v-55q0 -3 -4 -7l-65 -60q-1 -1 -1 -2.5t2 -1.5q44 -8 62 -51q10 -23 10 -53z"
         id="glyph116" /><glyph
         glyph-name="four"
         unicode="4"
         horiz-adv-x="302"
         d="M277.5 150.5q1.5 -2.5 1.5 -4.5v-50q0 -2 -1.5 -4t-4.5 -2q1 0 -21 0q-2 0 -3 -2v-82q0 -2 -1.5 -4t-4.5 -2h-59q-2 0 -4 2t-2 4v82q0 2 -2 2h-154q-2 0 -4 2t-2 4v40q0 4 2 8l90 202q2 4 7 4h63q4 0 5 -2t-1 -5q0 1 -84 -187q0 -1 0.5 -2.5t1.5 -1.5h76q2 0 2 3v62 q0 2 2 4t4 2h59q2 0 4 -1.5t2 -4.5v-62q1 -3 3 -3h21q3 0 4.5 -1.5z"
         id="glyph117" /><glyph
         glyph-name="five"
         unicode="5"
         horiz-adv-x="269"
         d="M253 112q0 -26 -8 -46q-12 -32 -40.5 -51t-68.5 -19q-38 0 -66.5 18.5q-28.5 17.5 -40.5 49.5q-5 13 -7 28v1q0 5 6 5h60q4 0 6 -5q0 -3 1.5 -5q2.5 -2 2.5 -4q5 -13 14.5 -19.5t23.5 -6.5t24.5 7t15.5 21q5 10 5 26q-1 14 -5 26q-4 13 -14 20t-24 7t-26 -6.5t-16 -16.5 q-2 -6 -6 -6h-62q-2 0 -4 2t-2 4v202q0 2 2 4t4 2h206q2 0 4 -2t2 -4v-48q0 -2 -1.5 -4q-2.5 -2 -4.5 -2h-139q-3 0 -3 -3v-74q0 -3 3 -1q22 14 52 14q35 0 61 -18t38 -48q8 -24 7 -48z"
         id="glyph118" /><glyph
         glyph-name="six"
         unicode="6"
         horiz-adv-x="268"
         d="M252 112q0 -29 -10 -52q-13 -30 -40.5 -47t-64.5 -17q-38 0 -66.5 18t-40.5 50q-9 22 -9 48v151q0 27 14.5 48t39.5 32t59 11q32 0 57 -11t39 -31.5q14 -21.5 14 -47.5v-14q0 -2 -2 -4t-4 -2h-59q-2 0 -4 2t-2 4v5q0 16 -11 27.5q-10 11.5 -28 11.5t-30 -11.5 q-12 -10.5 -12 -28.5v-48q0 -2 1 -2t1 2q20 18 55 17q30 0 53.5 -13.5t37.5 -39.5q12 -22 12 -58zM182 111q0 20 -8 33q-12 20 -37 20q-27 0 -37 -20q-8 -13 -8 -34q0 -18 6 -30q10 -22 38 -22q26 0 38 22q8 14 8 31z"
         id="glyph119" /><glyph
         glyph-name="seven"
         unicode="7"
         horiz-adv-x="248"
         d="M57 7q1 -1 109 279q2 4 -2 4h-94q-2 0 -2 -3v-23q0 -2 -2 -4t-4 -2h-46q-2 0 -4 2t-2 4v80q0 2 2 4t4 2h219q2 0 4 -2t2 -4v-50q1 -3 -1 -8l-108 -282q-2 -4 -8 -4h-62q-7 0 -5 7z"
         id="glyph120" /><glyph
         glyph-name="eight"
         unicode="8"
         horiz-adv-x="270"
         d="M252 102q0 -30 -13 -51q-13 -26 -40 -40.5t-63 -14.5q-35 0 -63.5 14t-42.5 42q-12 24 -12 51t12 51q8 18 25 29q2 1 0 3q-13 8 -21 24q-12 20 -11 46q0 36 20 60q14 20 38.5 30t54.5 10t53.5 -11q24.5 -11 38.5 -29q20 -26 20 -60q0 -26 -14 -47q-8 -13 -20 -22 q-2 -1 0 -3q16 -10 26 -30q12 -24 12 -52zM93 253q1 -14 7 -26q12 -18 35 -18q25 0 37 18q6 11 6 27q0 10 -5 20t-15 16t-24 6q-12 0 -21.5 -6t-14.5 -16t-5 -21zM180 109q0 18 -6 31q-11 21 -39 21q-26 -1 -37 -21q-8 -12 -8 -32t9 -32q13 -20 37 -20t35 18q9 13 9 35z"
         id="glyph121" /><glyph
         glyph-name="nine"
         unicode="9"
         horiz-adv-x="265"
         d="M244 238v-151q0 -27 -14 -48t-39.5 -32t-58.5 -11q-32 0 -57 11t-39 31.5q-14 21.5 -14 47.5v14q0 2 1.5 4q2.5 2 4.5 2h58q2 0 4 -2t2 -4v-5q0 -16 11 -27.5t29 -11.5t30 11.5q12 10.5 12 28.5v47q0 2 -1 2.5t-3 -1.5q-20 -18 -54 -17q-30 0 -53.5 13.5 q-22.5 13.5 -36.5 39.5q-12 24 -13 58q0 30 10 52q12 30 40 47q27 17 65 17t66.5 -18q29.5 -18 41.5 -50q8 -20 8 -48zM166 206q8 13 8 34q0 16 -7 30q-11 22 -38 22q-26 0 -38 -22q-7 -14 -7 -31q0 -19 8 -33q12 -20 36 -20q26 0 38 20z"
         id="glyph122" /><glyph
         glyph-name="period"
         unicode="."
         horiz-adv-x="135"
         d="M37 9q-11 11 -11 29t10 28q11 11 29 11q19 0 29 -11q10 -10 10 -28q0 -17 -11 -29q-11 -11 -28 -11t-28 11z"
         id="glyph123" /><glyph
         glyph-name="comma"
         unicode=","
         horiz-adv-x="132"
         d="M20 -42l17 116q1 6 7 5h50q6 -1 6 -7l-32 -116q-2 -5 -6 -5h-36q-6 1 -6 7z"
         id="glyph124" /><glyph
         glyph-name="colon"
         unicode=":"
         horiz-adv-x="182"
         d="M61 14q-11 11 -11 28q0 18 11 28q11 12 29 12t28 -12q11 -11 11 -28t-11 -28q-10 -12 -28 -12t-29 12zM61 177q-11 11 -11 29t11 28q11 11 29 11t28 -11q11 -10 11 -28q0 -17 -11 -29q-10 -11 -28 -11t-29 11z"
         id="glyph125" /><glyph
         glyph-name="semicolon"
         unicode=";"
         horiz-adv-x="158"
         d="M47 169q-13 13 -13 31t14 30.5t32 12.5t32 -12.5t14 -30.5t-13.5 -31q-12.5 -13 -32.5 -13t-33 13zM38.5 -46.5q-0.5 1.5 -0.5 4.5l12 114q0 6 6 6h50q7 0 6 -6l-27 -116q-3 -4 -7 -4h-34q-4 0 -5.5 1.5z"
         id="glyph126" /><glyph
         glyph-name="exclam"
         unicode="!"
         horiz-adv-x="172"
         d="M60 122q-2 2 -2 4l-6 218q0 2 1.5 4q2.5 2 4.5 2h58q2 0 4 -2t2 -4l-8 -218q0 -2 -1.5 -4q-2.5 -2 -4.5 -2h-44q-2 0 -4 2zM55 11.5q-11 11.5 -11 28.5q0 18 11 29t29 11t28 -11t10 -29q0 -17 -11 -28.5t-27 -11.5q-18 0 -29 11.5z"
         id="glyph127" /><glyph
         glyph-name="exclamdown"
         unicode="¡"
         horiz-adv-x="172"
         d="M111 343q11 -11 11 -29q0 -17 -10.5 -27.5q-9.5 -10.5 -27.5 -10.5t-29 11t-11 27q0 18 11 29t29 11q16 0 27 -11zM60 232.5q2 1.5 4 1.5h44q2 0 4 -1.5q2 -2.5 2 -4.5l8 -218q0 -2 -2 -4t-4 -2h-58q-2 0 -4 2t-2 4l6 218q0 2 2 4.5z"
         id="glyph128" /><glyph
         glyph-name="question"
         unicode="?"
         horiz-adv-x="260"
         d="M88 112.5q-2 1.5 -2 4.5v16q0 25 13 40t37 33q20 14 29 24t9 25q0 16 -12 25.5t-31 9.5q-21 0 -34 -10t-13 -27v-8q0 -5 -6 -5l-58 2q-2 0 -4 2t-2 4v5q0 30 15 53.5t42 36t61 12.5t60 -12.5t40 -34.5t14 -50q0 -22 -8 -38t-19 -26t-27 -22q-18 -12 -27 -21t-9 -23v-11 q0 -2 -1.5 -4q-2.5 -2 -4.5 -2h-58q-2 0 -4 1.5zM91 10.5q-11 11.5 -11 27.5q0 17 11 28.5t29 11.5t28 -11t10 -29q0 -17 -11 -28t-27 -11q-18 0 -29 11.5z"
         id="glyph129" /><glyph
         glyph-name="questiondown"
         unicode="¿"
         horiz-adv-x="260"
         d="M169 240q11 -10 11 -28q0 -17 -10.5 -28.5q-9.5 -11.5 -27.5 -11.5t-29 11t-11 29t11 28.5t29 10.5q16 0 27 -11zM172.5 137.5q1.5 -1.5 1.5 -4.5v-16q0 -25 -13 -40.5q-13 -16.5 -37 -32.5q-20 -14 -29 -24t-9 -25q0 -16 12 -25.5t32 -9.5q21 0 33.5 10t12.5 27v8 q0 5 6 5l58 -2q2 0 4 -2t2 -4v-5q0 -30 -15 -53.5t-41.5 -36t-61.5 -12.5q-34 0 -60 12.5t-40 34.5t-14 50q0 22 8 38t19 26t28 22q18 12 26.5 21t8.5 23v11q0 2 2 4t4 2h58q2 0 4.5 -1.5z"
         id="glyph130" /><glyph
         glyph-name="asterisk"
         unicode="*"
         horiz-adv-x="199"
         d="M81.5 198q-1.5 2 -1.5 4v46q0 2 -1 2t-2 -1q0 -1 -42 -25h-3q-4 0 -6 3l-14 26v3q0 4 3 6l42 22q2 2 0 3q0 -1 -42 21q-2 1 -3 3.5q-2 2.5 0 5.5l14 26q2 2 4 3q2 2 5 0l42 -24h2t1 2v44q0 2 1.5 4q2.5 2 4.5 2h28q2 0 4 -2t2 -4v-44q0 -2 1 -2.5l1 0.5l42 24h4q4 0 5 -3 l14 -26q1 -1 1 -3q0 -3 -4 -5l-42 -22q-2 -2 0 -3l42 -22q2 -1 3 -3.5t0 -5.5l-14 -26q-2 -2 -4 -3q-3 -2 -5 0l-42 25q-1 1 -1.5 0.5q-0.5 0.5 -0.5 -1.5v-46q0 -2 -2 -4t-4 -2h-28q-2 0 -4.5 2z"
         id="glyph131" /><glyph
         glyph-name="numbersign"
         unicode="#"
         horiz-adv-x="343"
         d="M318 204q-2 -2 -4 -2h-38q-3 0 -3 -2q1 0 -7 -50q0 -2 2 -2h28q2 0 4 -2t2 -4v-48q0 -2 -2 -4t-4 -2h-38q-2 0 -2 -3l-10 -66q0 -5 -7 -5h-59q-6 0 -5 6l10 65q0 3 -2 3h-50q-3 0 -3 -3l-10 -66q0 -5 -6 -5h-59q-5 0 -5 6l10 65q0 3 -2 3h-28q-2 0 -4 1.5q-2 2.5 -2 4.5 v48q0 2 1.5 4q2.5 2 4.5 2h36q4 0 4 2l7 50q0 2 -2 2h-27q-2 0 -4 2t-2 4v48q0 2 2 4t4 2h36q4 0 4 3l10 66q0 5 6 5h58q6 0 6 -6l-10 -65q0 -3 2 -3h50q2 0 2 3l10 66q0 5 7 5h59q6 0 5 -6l-10 -65q0 -3 2 -3h29q2 0 4 -1.5q2 -2.5 2 -4.5v-48q0 -2 -2 -4zM195 150 q-1 0 7 50q0 2 -2 2h-50q-2 0 -2 -2l-8 -50q0 -2 2 -2h50q3 0 3 2z"
         id="glyph132" /><glyph
         glyph-name="slash"
         unicode="/"
         horiz-adv-x="236"
         d="M12 7q0 1 128 339q2 4 8 4h58q8 0 4 -7q0 -1 -128 -339q-2 -4 -7 -4h-58q-7 0 -5 7z"
         id="glyph133" /><glyph
         glyph-name="backslash"
         unicode="\"
         horiz-adv-x="236"
         d="M225 4q1 -4 -5 -4h-58q-6 0 -8 4l-128 339v3q0 4 5 4q-1 0 57 0q6 0 8 -4l128 -339q0 -1 1 -3z"
         id="glyph134" /><glyph
         glyph-name="parenleft"
         unicode="("
         horiz-adv-x="173"
         d="M64 -42q-30 38 -47 90t-17 118t17.5 119q16.5 53 46.5 91q3 4 8 4h56q4 0 5 -2t0 -6q-55 -94 -55 -206t55 -204q1 -2 1 -4q0 -4 -6 -4h-56q-4 0 -8 4z"
         id="glyph135" /><glyph
         glyph-name="parenright"
         unicode=")"
         horiz-adv-x="173"
         d="M110 376q30 -38 47 -90.5q17 -51.5 17 -117.5t-18 -119t-47 -91q-3 -4 -7 -4h-57q-4 0 -5 2q-2 2 0 6q54 92 55 206q-1 112 -55 204v4q0 4 5 4h57q5 0 8 -4z"
         id="glyph136" /><glyph
         glyph-name="braceleft"
         unicode="{"
         horiz-adv-x="188"
         d="M70 -58q-16 16 -16 46v104q0 22 -7.5 32q-6.5 10 -22.5 12q-6 1 -6 7q0 -1 0 43q0 6 6 7q16 2 23 12.5t7 31.5q0 -1 0 101q0 30 16 46t49 16q-1 0 45 0q2 0 4 -2t2 -4v-48q0 -2 -1.5 -4q-2.5 -2 -4.5 -2h-13q-12 0 -19.5 -9t-7.5 -23v-80q0 -24 -7 -39t-22 -23 q-3 -2 0 -2q15 -8 22 -23t7 -39v-83q0 -15 7.5 -23t19.5 -8q-1 0 13 0q2 0 4 -2t2 -4v-50q0 -2 -1.5 -4q-2.5 -2 -4.5 -2h-45q-33 0 -49 16z"
         id="glyph137" /><glyph
         glyph-name="braceright"
         unicode="}"
         horiz-adv-x="188"
         d="M24 -74q-2 0 -4 2t-2 4v50q0 2 1.5 4q2.5 2 4.5 2h13q12 0 19.5 8t7.5 23v83q0 24 7 39t21 23q2 2 0 2q-14 7 -21 22q-7 16 -7 40v80q0 14 -7.5 23t-19.5 9q1 0 -13 0q-2 0 -4 1.5q-2 2.5 -2 4.5v48q0 2 1.5 4q2.5 2 4.5 2h44q32 0 49 -15.5q17 -16.5 17 -46.5v-101 q0 -21 7.5 -31.5q6.5 -10.5 22.5 -12.5q6 -1 6 -7v-43q0 -7 -6 -7q-16 -2 -23 -12t-7 -32v-104q0 -30 -16.5 -46q-17.5 -16 -49.5 -16h-44z"
         id="glyph138" /><glyph
         glyph-name="bracketleft"
         unicode="["
         horiz-adv-x="208"
         d="M19.5 -72q-1.5 2 -1.5 4v462q0 2 1.5 4q2.5 2 4.5 2h118q2 0 4 -2t2 -4v-48q0 -2 -2 -4t-4 -2h-52q-2 0 -2 -3v-347q0 -2 2 -2h52q2 0 4 -2t2 -4v-50q0 -2 -1.5 -4q-2.5 -2 -4.5 -2h-118q-2 0 -4.5 2z"
         id="glyph139" /><glyph
         glyph-name="bracketright"
         unicode="]"
         horiz-adv-x="208"
         d="M189.5 -72q-1.5 -2 -4.5 -2h-119q-2 0 -4 2t-2 4v50q0 2 2 4t4 2h52q2 0 2 2v347q0 3 -2 3h-52q-2 0 -4 1.5q-2 2.5 -2 4.5v48q0 2 2 4t4 2h119q2 0 4 -2t2 -4v-462q0 -2 -1.5 -4z"
         id="glyph140" /><glyph
         glyph-name="hyphen"
         unicode="-"
         horiz-adv-x="204"
         d="M16 119.5q-2 2.5 -2 4.5v48q0 2 2 4t4 2h164q2 0 4 -2t2 -4v-48q0 -2 -2 -4t-4 -2h-164q-2 0 -4 1.5z"
         id="glyph141" /><glyph
         glyph-name="underscore"
         unicode="_"
         horiz-adv-x="261"
         d="M11.5 2q-1.5 2 -1.5 4v42q0 2 1.5 4q2.5 2 4.5 2h230q2 0 4 -2t2 -4v-42q0 -2 -2 -4t-4 -2h-230q-2 0 -4.5 2z"
         id="glyph142" /><glyph
         glyph-name="guillemotleft"
         unicode="«"
         horiz-adv-x="254"
         d="M138 57q0 -3 -5 -3h-51q-4 0 -6 4l-48 78v4v4l48 80q2 4 6 4h51q4 0 5 -2t-1 -6q-1 0 -49 -78v-3t49 -79q1 -4 1 -3zM224 57q0 -3 -5 -3h-51q-4 0 -6 4l-48 78l-1 4l1 4l48 80q2 4 6 4h51q4 0 5 -2t-1 -6q-1 0 -49 -78v-3t49 -79q1 -4 1 -3z"
         id="glyph143" /><glyph
         glyph-name="guillemotright"
         unicode="»"
         horiz-adv-x="254"
         d="M120 55q-1 1 1 5l48 79q1 2 0 3l-48 78q-1 3 -1 4q0 4 5 4h50q5 0 7 -4l48 -80v-4v-4l-48 -78q-2 -4 -7 -4h-50q-4 0 -5 1zM34 55q-1 1 1 5l48 79q1 2 0 3l-48 78q-1 3 -1 4q0 4 5 4h50q5 0 7 -4l48 -80v-4v-4l-48 -78q-2 -4 -7 -4h-50q-4 0 -5 1z"
         id="glyph144" /><glyph
         glyph-name="quotedbl"
         unicode="&quot;"
         horiz-adv-x="179"
         d="M16 237.5q-2 2.5 -2 4.5l-6 101q0 6 5 6h56q5 0 5 -6q0 1 -6 -101q0 -3 -2 -4.5t-4 -1.5h-42q-2 0 -4 1.5zM115 237.5q-2 2.5 -2 4.5q-1 0 -7 101q0 6 6 6h56q6 0 5 -6q-1 1 -7 -101q0 -3 -1.5 -4.5t-4.5 -1.5h-40q-2 0 -5 1.5z"
         id="glyph145" /><glyph
         glyph-name="quotesingle"
         unicode="'"
         horiz-adv-x="84"
         d="M16 238q-2 2 -2 4l-6 102q0 6 5 6q-1 0 59 0q6 0 6 -6l-6 -102q0 -3 -2 -4.5t-5 -1.5h-45q-2 0 -4 2z"
         id="glyph146" /><glyph
         glyph-name="dollar"
         unicode="$"
         horiz-adv-x="286"
         d="M242 32q-24 -26 -67 -34q-3 0 -3 -2l1 -33q0 -2 -1.5 -4t-4.5 -2h-50q-2 0 -4 1.5t-2 4.5q1 0 1 33q0 2 -3 3q-42 8 -66.5 34.5t-24.5 66.5v12q0 2 2 4t4 2h54q2 0 4 -2t2 -4v-8q0 -20 17.5 -34q18.5 -14 48.5 -14q26 0 38 11.5q12 12.5 12 28.5q0 12 -8 20t-21 14 t-41 18q-32 12 -54.5 23.5t-38 32t-15.5 51.5q0 38 23.5 63.5q22.5 25.5 62.5 33.5q2 0 3 2l-1 37q0 2 2 4t4 2h50q2 0 4 -1.5t2 -4.5q0 1 0 -37q0 -2 2 -4q42 -8 66 -36t24 -68v-7q0 -2 -1.5 -4q-2.5 -2 -4.5 -2h-54q-2 0 -4 1.5t-2 4.5v4q0 21 -16.5 36q-17.5 15 -45.5 15 q-22 0 -34.5 -10t-12.5 -28q0 -12 7.5 -21t21.5 -16t45 -17q34 -12 53.5 -22.5t34.5 -30.5q15 -19 15 -51q0 -40 -24 -66z"
         id="glyph147" /><glyph
         glyph-name="plus"
         unicode="+"
         horiz-adv-x="243"
         d="M226.5 178.5q1.5 -2.5 1.5 -4.5v-48q0 -2 -1.5 -4q-2.5 -2 -4.5 -2h-68q-2 0 -2 -2v-68q0 -2 -2 -4t-4 -2h-48q-2 0 -4 2t-2 4v68q0 2 -3 2h-69q-2 0 -4 2t-2 4v48q0 2 2 4t4 2h69q3 0 3 3v69q0 2 1.5 4q2.5 2 4.5 2h48q2 0 4 -2t2 -4v-69q0 -3 2 -3h68q2 0 4.5 -1.5z "
         id="glyph148" /><glyph
         glyph-name="divide"
         unicode="÷"
         horiz-adv-x="243"
         d="M97 218q-10 10 -10 25q0 14 10.5 24t24.5 10t24 -10t10 -24t-10 -24.5t-24 -10.5t-25 10zM16 127.5q-2 2.5 -2 4.5v48q0 2 2 4t4 2h202q2 0 4 -2t2 -4v-48q0 -2 -1.5 -4q-2.5 -2 -4.5 -2h-202q-2 0 -4 1.5zM97 49q-10 11 -10 25t10.5 24t24.5 10t24 -10t10 -24t-10 -24.5 t-24 -10.5t-25 10z"
         id="glyph149" /><glyph
         glyph-name="equal"
         unicode="="
         horiz-adv-x="243"
         d="M16 72q-2 2 -2 4v49q0 2 2 4t4 2h202q2 0 5 -2q1 -2 1 -4v-49q0 -2 -1 -4q-3 -2 -5 -2h-202q-2 0 -4 2zM16 168q-2 2 -2 4v49q0 2 2 4t4 2h202q2 0 5 -2q1 -2 1 -4v-49q0 -2 -1 -4q-3 -2 -5 -2h-202q-2 0 -4 2z"
         id="glyph150" /><glyph
         glyph-name="greater"
         unicode="&gt;"
         horiz-adv-x="243"
         d="M18 14q-4 0 -4 6v54q0 6 5 8q-1 0 133 54q2 2 0 2l-133 55q-5 2 -5 7v54q0 4 2 5t6 0q0 1 202 -89q4 -2 4 -8v-50q0 -4 -4 -8l-202 -89q-2 -1 -4 -1z"
         id="glyph151" /><glyph
         glyph-name="less"
         unicode="&lt;"
         horiz-adv-x="243"
         d="M226 15q-2 -1 -4 0q0 -1 -203 89q-5 2 -5 8v50q0 6 5 8q1 0 203 89l2 1q4 0 4 -6v-54q0 -4 -4 -7q0 -1 -134 -55q-4 -2 0 -2l134 -54q4 -2 4 -8v-54q0 -4 -2 -5z"
         id="glyph152" /><glyph
         glyph-name="asciitilde"
         unicode="~"
         horiz-adv-x="267"
         d="M155 104q-10 4 -21 10q-12 7 -21.5 11q-10.5 4 -20.5 4q-20 0 -32 -18q-4 -3 -8 -1l-33 22q-4 4 -3 8q8 22 29 36t45 14q12 0 21.5 -3t20.5 -10q4 -2 12 -6.5t15 -7t14 -2.5q10 0 16.5 4.5t12.5 13.5q4 5 8 2q0 -1 38 -25q4 -4 3 -8q-10 -22 -30 -35t-43 -13q-13 0 -23 4 z"
         id="glyph153" /><glyph
         glyph-name="asciicircum"
         unicode="^"
         horiz-adv-x="236"
         d="M17.5 150.5q-1.5 1.5 -0.5 5.5l69 189q2 5 7 5h49q6 0 7 -5q1 0 71 -189v-2q0 -4 -6 -5h-47q-5 0 -7 5l-40 122q0 2 -1.5 1.5q-2.5 0.5 -2.5 -1.5l-40 -122q-2 -5 -6 -5h-48q-3 0 -4.5 1.5z"
         id="glyph154" /><glyph
         glyph-name="percent"
         unicode="%"
         horiz-adv-x="412"
         d="M70 207q-18 11 -29 29t-11 40t11 39.5t29 28t40 10.5t40 -10.5t29 -28.5q11 -17 11 -39t-11 -40t-29 -29t-40 -11t-40 11zM87 2q-1 2 0 5q1 0 189 339q2 4 7 4h37q4 0 5 -2t-1 -5l-188 -339q-2 -4 -8 -4h-37q-3 0 -4 2zM137 249q11 11 11 27t-11 26.5t-27 10.5t-27 -11 q-11 -10 -11 -26t11 -27t27 -11t27 11zM266 6.5q-18 10.5 -29 29t-11 39.5q0 22 11 39.5t29 28.5t40 11t40 -11t28.5 -29t10.5 -39q0 -22 -10.5 -40t-29 -28.5q-17.5 -10.5 -39.5 -10.5t-40 10.5zM332 48q11 11 11 27t-11 26.5q-10 10.5 -26 10.5t-27 -10.5t-11 -26.5 t11 -27t27 -11t26 11z"
         id="glyph155" /><glyph
         glyph-name="at"
         unicode="@"
         horiz-adv-x="409"
         d="M314.5 310q36.5 -20 56 -54.5t19.5 -79.5q0 -12 -2 -26q-6 -49 -30 -76.5t-64 -27.5q-35 0 -54 20q-2 2 -4 0q-10 -10 -24 -15t-29 -5q-26 0 -43.5 14t-21.5 36q-2 8 -2 17q0 7 2 25q2 22 10 42q8 24 28 37.5t42 13.5q24 0 38 -15q1 -2 2.5 -1.5q1.5 -0.5 1.5 1.5v8 q0 6 7 6h35q6 0 6 -6l-13 -94q-1 -4 -1 -10q0 -14 6 -22t18 -8q30 0 38 56q2 12 2 28q0 54 -30 82t-82 28q-41 0 -74.5 -18t-55 -51q-22.5 -33 -26.5 -78v-21q0 -53 30 -83.5t84 -30.5q24 0 44 6t32 14q2 1 4 1q4 -1 4 -3l20 -26q2 -2 2 -4t-3 -4q-18 -14 -48 -22.5 t-61 -8.5q-46 0 -82 19.5t-56.5 56.5t-20.5 85q-1 12 1 26q6 56 36 98t75.5 66q46.5 24 98.5 24q48 0 84.5 -20zM208 92q8 6 12 16q6 10 8 31q1 9 1 19q-1 8 -1 12q-1 10 -7.5 15t-16.5 5t-18.5 -5.5q-9.5 -4.5 -13.5 -14.5q-6 -10 -8 -34q-2 -11 -1 -18q0 -4 1 -10 q2 -10 9 -16t17 -6t18 6z"
         id="glyph156" /><glyph
         glyph-name="ampersand"
         unicode="&amp;"
         horiz-adv-x="352"
         d="M329 4q1 -4 -5 -4h-66q-4 0 -8 4l-19 20q-1 2 -3 1q-46 -29 -100 -29q-47 0 -78.5 22t-31.5 66q0 34 18 57t49 41q3 2 1 4q-25 30 -33.5 47t-8.5 35q0 24 13 44t36 31t53 11t55 -11.5t38 -32t13 -47.5q0 -31 -17 -54t-47 -41q-2 -2 0 -4l44 -50q2 -2 4 0q20 21 32 40 q4 6 8 2l43 -24q7 -2 3 -8q-20 -33 -44 -58q-2 -2 0 -4l49 -54q2 -2 2 -4zM124 282q-9 -8 -9 -20q0 -7 5 -15.5t22 -29.5q2 -2 4 -1q18 12 27 22t9 24q0 13 -9.5 20.5t-24.5 7.5t-24 -8zM184 72q2 2 0 4l-15 17q1 1 -11 13q-11 12 -26 28q-2 2 -4 0q-18 -11 -27 -21t-11 -23 v-5q0 -14 11 -22t29 -8q24 0 54 17z"
         id="glyph157" /><glyph
         glyph-name="bar"
         unicode="|"
         horiz-adv-x="101"
         d="M17.5 -38q-1.5 2 -1.5 4v408q0 2 1.5 4q2.5 2 4.5 2h58q2 0 4 -2t2 -4v-408q0 -2 -2 -4t-4 -2h-58q-2 0 -4.5 2z"
         id="glyph158" /><glyph
         glyph-name="grave"
         unicode="`"
         horiz-adv-x="116"
         d="M104 292q0 -4 -5 -4h-42q-4 0 -7 4l-36 50v4q0 4 4 4h51q5 0 7 -4l27 -51q1 -2 1 -3z"
         id="glyph159" /></font>
</defs>
</svg>
