<svg xmlns:inkscape="http://www.inkscape.org/namespaces/inkscape" xmlns:sodipodi="http://sodipodi.sourceforge.net/DTD/sodipodi-0.dtd" xmlns="http://www.w3.org/2000/svg" xmlns:svg="http://www.w3.org/2000/svg" width="52.948029" height="65.483345" viewBox="0 0 52.948029 65.483345" version="1.1" id="svg104" sodipodi:docname="N3-27.svg" inkscape:version="1.2 (1:1.2.1+202207142221+cd75a1ee6d)">
  <defs id="defs108"/>
  <sodipodi:namedview id="namedview106" pagecolor="#ffffff" bordercolor="#666666" borderopacity="1.0" inkscape:showpageshadow="2" inkscape:pageopacity="0.0" inkscape:pagecheckerboard="0" inkscape:deskcolor="#d1d1d1" showgrid="false" inkscape:zoom="8.6609567" inkscape:cx="21.995261" inkscape:cy="25.863194" inkscape:current-layer="svg104"/>
  <style type="text/css" id="style2">
polygon.tile { stroke: #000000; stroke-width:3; stroke-linejoin:round }
polygon.ih1 { fill: #ffff80 }
polygon.ih2 { fill: #8080ff }
polygon.ih3 { fill: #ff8080 }
polygon.ih4 { fill: #80ff80 }
polygon.ih5 { fill: #ff80ff }
polygon.ih6 { fill: #80ffff }
polygon.para {opacity: 0.75; fill: #ff0000; stroke: #ff0000 }
</style>
  <polygon class="para" points="30.685825,39.742972 87.378738,137.93798 125.17401,116.11687 68.4811,17.92186 " style="stroke:none" id="polygon4" transform="matrix(0.4,0,0,0.4,-8.460161,-0.62241)"/>
  <path d="M 30.270862,26.185335 22.711807,21.821113" style="stroke:#000000;stroke-width:0.08px" id="path10"/>
  <path d="m 22.711807,21.821113 v 8.728445" style="stroke:#000000;stroke-width:0.08px" id="path12"/>
  <path d="m 30.270862,34.913781 -7.559055,4.364222" style="stroke:#000000;stroke-width:0.08px" id="path16"/>
  <path d="M 22.711807,39.278003 V 30.549558" style="stroke:#000000;stroke-width:0.08px" id="path18"/>
  <path d="M 30.270862,43.642226 H 15.152752" style="stroke:#000000;stroke-width:0.08px" id="path20"/>
  <path d="m 15.152752,43.642226 7.559055,-4.364223" style="stroke:#000000;stroke-width:0.08px" id="path22"/>
  <path d="m 30.270862,34.913781 v 8.728445" style="stroke:#000000;stroke-width:0.08px" id="path24"/>
  <path d="m 30.270862,43.642226 c -2.519685,1.45474 -5.03937,2.909481 -7.559055,4.364222" style="stroke:#000000;stroke-width:0.08px" id="path26" sodipodi:nodetypes="cc"/>
  <path d="M 22.711807,13.092668 15.152752,26.185335" style="stroke:#000000;stroke-width:0.08px" id="path38"/>
  <path d="m 15.152752,26.185335 7.559055,-4.364222" style="stroke:#000000;stroke-width:0.08px" id="path40"/>
  <path d="M 22.711807,13.092668 15.152752,17.45689" style="stroke:#000000;stroke-width:0.08px" id="path44"/>
  <path d="M 15.152752,17.45689 7.593696,21.821113" style="stroke:#000000;stroke-width:0.08px" id="path46"/>
  <path d="m 7.593696,21.821113 7.559056,4.364222" style="stroke:#000000;stroke-width:0.08px" id="path48"/>
  <path d="M 15.152752,17.45689 7.593696,13.092668" style="stroke:#000000;stroke-width:0.08px" id="path54"/>
  <path d="m 22.711807,48.006448 7.559055,4.364224" style="stroke:#000000;stroke-width:0.08px" id="path62"/>
  <path d="M 15.152752,17.45689 V 8.728445" style="stroke:#000000;stroke-width:0.08px" id="path68"/>
  <path d="M 37.829917,48.006448 V 39.278003" style="stroke:#000000;stroke-width:0.08px" id="path72"/>
  <path d="m 37.829917,39.278003 -7.559055,4.364223" style="stroke:#000000;stroke-width:0.08px" id="path80"/>
  <path d="M 37.829917,48.006448 H 22.711807" style="stroke:#000000;stroke-width:0.08px" id="path82"/>
  <path d="M 22.711807,4.364223 15.152752,17.45689" style="stroke:#000000;stroke-width:0.08px" id="path86"/>
  <path d="M 7.593696,39.278003 H 22.711807" style="stroke:#000000;stroke-width:0.08px" id="path90"/>
  <path d="M 22.711807,39.278003 15.152752,34.913781" style="stroke:#000000;stroke-width:0.08px" id="path92"/>
  <path d="M 15.152752,34.913781 22.711807,21.821113" style="stroke:#000000;stroke-width:0.08px" id="path96"/>
  <path d="M 15.152752,26.185335 7.593696,30.549558" style="stroke:#000000;stroke-width:0.08px" id="path98"/>
  </svg>