<?xml version="1.0" encoding="UTF-8" standalone="no"?>
<svg
   xmlns:dc="http://purl.org/dc/elements/1.1/"
   xmlns:cc="http://creativecommons.org/ns#"
   xmlns:rdf="http://www.w3.org/1999/02/22-rdf-syntax-ns#"
   xmlns:svg="http://www.w3.org/2000/svg"
   xmlns="http://www.w3.org/2000/svg"
   xmlns:sodipodi="http://sodipodi.sourceforge.net/DTD/sodipodi-0.dtd"
   xmlns:inkscape="http://www.inkscape.org/namespaces/inkscape"
   id="svg8"
   version="1.1"
   viewBox="0 0 169.21004 116.81151"
   height="116.81151mm"
   width="169.21004mm"
   inkscape:version="1.0.1 (3bc2e813f5, 2020-09-07)"
   sodipodi:docname="break_apart.svg">
  <defs
     id="defs2" />
  <sodipodi:namedview
     id="base"
     pagecolor="#ffffff"
     bordercolor="#666666"
     borderopacity="1.0"
     inkscape:pageopacity="0.0"
     inkscape:pageshadow="2"
     inkscape:zoom="1.4"
     inkscape:cx="391.17622"
     inkscape:cy="261.74673"
     inkscape:document-units="mm"
     inkscape:current-layer="layer1"
     inkscape:document-rotation="0"
     showgrid="false"
     inkscape:window-width="1920"
     inkscape:window-height="983"
     inkscape:window-x="0"
     inkscape:window-y="27"
     inkscape:window-maximized="1"
     inkscape:snap-global="false"
     fit-margin-top="5"
     fit-margin-left="5"
     fit-margin-right="5"
     fit-margin-bottom="5" />
  <metadata
     id="metadata5">
    <rdf:RDF>
      <cc:Work
         rdf:about="">
        <dc:format>image/svg+xml</dc:format>
        <dc:type
           rdf:resource="http://purl.org/dc/dcmitype/StillImage" />
        <dc:title></dc:title>
      </cc:Work>
    </rdf:RDF>
  </metadata>
  <g
     inkscape:label="Ebene 1"
     inkscape:groupmode="layer"
     id="layer1"
     transform="translate(22.807263,2.5852197)">
    <text
       xml:space="preserve"
       style="font-style:normal;font-weight:normal;font-size:10.5833px;line-height:1.25;font-family:sans-serif;fill:#000000;fill-opacity:1;stroke:none;stroke-width:0.264583"
       x="19.7052"
       y="16.031187"
       id="text844"><tspan
         sodipodi:role="line"
         id="tspan842"
         x="19.7052"
         y="16.031187"
         style="font-style:normal;font-variant:normal;font-weight:bold;font-stretch:normal;font-family:Barlow;-inkscape-font-specification:'Barlow Bold';stroke-width:0.264583">Simple</tspan></text>
    <text
       xml:space="preserve"
       style="font-style:normal;font-weight:normal;font-size:10.5833px;line-height:1.25;font-family:sans-serif;fill:#000000;fill-opacity:1;stroke:none;stroke-width:0.264583"
       x="90.563705"
       y="14.944213"
       id="text848"><tspan
         sodipodi:role="line"
         id="tspan846"
         x="90.563705"
         y="14.944213"
         style="font-style:normal;font-variant:normal;font-weight:bold;font-stretch:normal;font-family:sans-serif;-inkscape-font-specification:'sans-serif Bold';stroke-width:0.264583">Complex</tspan></text>
    <path
       id="circle972"
       style="fill:#000000;fill-rule:evenodd;stroke:#ff0000;stroke-width:0.172769"
       d="m 25.337764,40.108824 a 5.7071757,5.7071757 0 0 1 -5.707176,5.707176 5.7071757,5.7071757 0 0 1 -5.707176,-5.707176 5.7071757,5.7071757 0 0 1 5.707176,-5.707176 5.7071757,5.7071757 0 0 1 5.707176,5.707176 z m 2.72208,0.155895 a 8.7401085,8.7401085 0 0 1 -8.740108,8.740109 8.7401085,8.7401085 0 0 1 -8.740108,-8.740109 8.7401085,8.7401085 0 0 1 8.740108,-8.740108 8.7401085,8.7401085 0 0 1 8.740108,8.740108 z m 3.446526,-0.09558 A 12.082804,11.100518 0 0 1 19.423566,51.26966 12.082804,11.100518 0 0 1 7.3407633,40.169142 12.082804,11.100518 0 0 1 19.423566,29.068624 12.082804,11.100518 0 0 1 31.50637,40.169142 Z" />
    <path
       id="path978"
       style="fill:#000000;fill-rule:evenodd;stroke:#ff0000;stroke-width:0.172769"
       d="m 62.90979,40.108824 c 0,3.151986 -2.55519,5.707176 -5.707176,5.707176 -3.151986,0 -5.707176,-2.55519 -5.707176,-5.707176 0,-3.151986 2.55519,-5.707176 5.707176,-5.707176 3.151986,0 5.707176,2.55519 5.707176,5.707176 z m -6.80292,0.155895 c 0,4.827029 -3.913079,8.740109 -8.740108,8.740109 -4.827029,0 -8.740108,-3.91308 -8.740108,-8.740109 0,-4.827028 3.91308,-8.740108 8.740108,-8.740108 4.827028,0 8.740108,3.91308 8.740108,8.740108 z m 3.446526,-0.09558 c 2e-6,6.130648 -5.409654,11.100521 -12.082804,11.100521 -6.673148,-1e-6 -12.082803,-4.969872 -12.082803,-11.100518 0,-6.130646 5.409655,-11.100517 12.082803,-11.100518 6.673148,0 12.082804,4.969871 12.082804,11.100518 z"
       sodipodi:nodetypes="ssssssssssssssss" />
    <path
       id="path984_2_1"
       style="fill:#000000;fill-rule:evenodd;stroke:#ff0000;stroke-width:0.172769"
       d="m 32.886592,72.511782 -0.234313,-2.175715 -0.685436,-2.072268 -1.110304,-1.910589 -1.508918,-1.690679 -1.840287,-1.386249 -2.079657,-1.02004 -2.255643,-0.629713 -2.368246,-0.215264 -2.435106,0.225523 -2.268066,0.646811 -2.052438,1.02346 -1.788222,1.355473 -1.475418,1.642846 -1.1140261,1.885583 -0.7040469,2.083681 -0.2454796,2.237141 0.2454796,2.237141 0.7040469,2.083681 1.1140261,1.885583 1.475418,1.642846 1.788222,1.355473 2.052438,1.02346 2.268066,0.646811 2.435106,0.225523 2.368246,-0.215264 2.255644,-0.629713 2.079657,-1.020041 1.840287,-1.38625 1.508918,-1.690679 1.110304,-1.910589 0.685436,-2.072268 z m -3.456577,0.09558 -0.177366,-1.759433 -0.508683,-1.638706 -0.804901,-1.482919 -1.066021,-1.292028 -1.292028,-1.066021 -1.482919,-0.804901 -1.638706,-0.508683 -1.759433,-0.177366 -1.759433,0.177366 -1.638706,0.508683 -1.482919,0.804901 -1.292028,1.066021 -1.066021,1.292028 -0.804901,1.482919 -0.508683,1.638706 -0.177366,1.759433 0.177366,1.759433 0.508682,1.638707 0.804902,1.482919 1.066021,1.292028 1.292028,1.06602 1.482918,0.804902 1.638707,0.508683 1.759433,0.177366 1.759433,-0.177366 1.638707,-0.508683 1.482918,-0.804902 1.292028,-1.06602 1.066021,-1.292028 0.804902,-1.482919 0.508682,-1.638707 z" />
    <path
       id="path984_1"
       style="fill:#000000;fill-rule:evenodd;stroke:#ff0000;stroke-width:0.172769"
       d="m 26.717986,72.451465 v 0 l -0.110675,-1.118614 -0.323758,-1.065428 -0.52444,-0.982302 -0.71272,-0.869239 -0.869239,-0.712721 -0.982302,-0.524439 -1.065428,-0.323758 -1.118614,-0.110675 -1.118614,0.110675 -1.065428,0.323758 -0.982302,0.524439 -0.869239,0.712721 -0.71272,0.869239 -0.52444,0.982302 -0.323758,1.065428 -0.110675,1.118614 0.110675,1.118614 0.323758,1.065428 0.52444,0.982302 0.71272,0.869239 0.869239,0.712721 0.982302,0.524439 1.065428,0.323758 1.118614,0.110675 1.118614,-0.110675 1.065428,-0.323758 0.982302,-0.524439 0.869239,-0.712721 0.71272,-0.869239 0.52444,-0.982302 0.323758,-1.065428 z" />
    <path
       id="path986_2_1"
       style="fill:#000000;fill-rule:evenodd;stroke:#ff0000;stroke-width:0.172769"
       d="m 60.933618,72.511789 -0.24548,-2.237141 -0.704047,-2.083681 -1.114026,-1.885582 -1.475419,-1.642847 -1.788222,-1.355472 -2.052438,-1.02346 -2.268066,-0.646811 -2.435106,-0.225523 -2.435106,0.225523 -2.268066,0.646811 -2.052438,1.023461 -1.788222,1.355472 -1.475418,1.642846 -1.114026,1.885583 -0.704047,2.083681 -0.24548,2.237141 0.24548,2.237141 0.704047,2.083681 1.114026,1.885583 1.475418,1.642846 1.788222,1.355472 2.052438,1.023461 2.268066,0.646811 2.435106,0.225523 2.435107,-0.225523 2.268067,-0.646811 2.052438,-1.023461 1.788222,-1.355473 1.475418,-1.642846 1.114026,-1.885583 0.704047,-2.083682 z m -3.456577,0.09558 -0.177366,-1.759433 -0.508683,-1.638706 -0.804901,-1.482919 -1.066021,-1.292028 -1.292028,-1.066021 -1.482919,-0.804901 -1.638706,-0.508683 -1.759433,-0.177366 -1.759433,0.177366 -1.638706,0.508683 -1.482919,0.804901 -1.292028,1.066021 -1.066021,1.292028 -0.804901,1.482919 -0.508683,1.638706 -0.177366,1.759433 0.177366,1.759433 0.508682,1.638707 0.804902,1.482919 1.066021,1.292028 1.292027,1.066021 1.482919,0.804901 1.638707,0.508683 1.759433,0.177366 1.759433,-0.177366 1.638707,-0.508683 1.482919,-0.804901 1.292027,-1.066021 1.066021,-1.292028 0.804902,-1.482919 0.508682,-1.638707 z"
       sodipodi:nodetypes="ssssssssssssssss" />
    <path
       id="path986_1"
       style="fill:#000000;fill-rule:evenodd;stroke:#ff0000;stroke-width:0.172769"
       d="m 64.290012,72.451472 -0.11595,-1.150195 -0.332548,-1.071295 -0.526198,-0.969446 -0.696897,-0.844647 -0.844647,-0.696897 -0.969446,-0.526198 -1.071295,-0.332548 -1.150195,-0.11595 -1.150195,0.11595 -1.071295,0.332548 -0.969446,0.526198 -0.844647,0.696897 -0.696897,0.844647 -0.526198,0.969446 -0.332548,1.071295 -0.11595,1.150195 0.11595,1.150195 0.332548,1.071295 0.526198,0.969446 0.696897,0.844647 0.844647,0.696897 0.969446,0.526198 1.071295,0.332548 1.150195,0.11595 1.150195,-0.11595 1.071295,-0.332548 0.969446,-0.526198 0.844647,-0.696897 0.696897,-0.844647 0.526198,-0.969446 0.332548,-1.071295 z"
       sodipodi:nodetypes="ssssssssssssssss" />
    <path
       id="path980"
       style="fill:#000000;fill-rule:evenodd;stroke:#ff0000;stroke-width:0.172769"
       d="m 102.52238,40.108824 a 5.7071757,5.7071757 0 0 1 -5.707178,5.707176 5.7071757,5.7071757 0 0 1 -5.707176,-5.707176 5.7071757,5.7071757 0 0 1 5.707176,-5.707176 5.7071757,5.7071757 0 0 1 5.707178,5.707176 z m 2.72208,0.155895 a 8.7401085,8.7401085 0 0 1 -8.74011,8.740109 8.7401085,8.7401085 0 0 1 -8.740108,-8.740109 8.7401085,8.7401085 0 0 1 8.740108,-8.740108 8.7401085,8.7401085 0 0 1 8.74011,8.740108 z m 3.44652,-0.09558 A 12.082804,11.100518 0 0 1 96.60818,51.26966 12.082804,11.100518 0 0 1 84.525377,40.169142 12.082804,11.100518 0 0 1 96.60818,29.068624 a 12.082804,11.100518 0 0 1 12.0828,11.100518 z" />
    <path
       id="path982"
       style="fill:#000000;fill-rule:evenodd;stroke:#ff0000;stroke-width:0.172769"
       d="m 140.0944,40.108824 c 0,3.151986 -2.55519,5.707176 -5.70718,5.707176 -3.15198,0 -5.70717,-2.55519 -5.70717,-5.707176 0,-3.151986 2.55519,-5.707176 5.70717,-5.707176 3.15199,0 5.70718,2.55519 5.70718,5.707176 z m -6.80292,0.155895 c 0,4.827029 -3.91308,8.740109 -8.74011,8.740109 -4.82703,0 -8.74011,-3.91308 -8.74011,-8.740109 0,-4.827028 3.91308,-8.740108 8.74011,-8.740108 4.82703,0 8.74011,3.91308 8.74011,8.740108 z m 3.44653,-0.09558 c 0,6.130648 -5.40966,11.100521 -12.08281,11.100521 -6.67315,-1e-6 -12.0828,-4.969872 -12.0828,-11.100518 0,-6.130646 5.40965,-11.100517 12.0828,-11.100518 6.67315,0 12.08281,4.969871 12.08281,11.100518 z"
       sodipodi:nodetypes="ssssssssssssssss" />
    <path
       id="path1009_2_1"
       style="fill:#000000;fill-rule:evenodd;stroke:#ff0000;stroke-width:0.172769"
       d="m 109.91253,72.511782 -0.23431,-2.175716 -0.68544,-2.072268 -1.1103,-1.910589 -1.50892,-1.690678 -1.84028,-1.386249 -2.07966,-1.020041 -2.25565,-0.629712 -2.368242,-0.215264 -2.435106,0.225523 -2.268066,0.646811 -2.052438,1.02346 -1.788222,1.355473 -1.475418,1.642846 -1.114026,1.885583 -0.704047,2.083681 -0.24548,2.237141 0.24548,2.237141 0.704047,2.083681 1.114026,1.885583 1.475418,1.642846 1.788222,1.355473 2.052438,1.02346 2.268066,0.646811 2.435106,0.225523 2.368242,-0.215264 2.25565,-0.629712 2.07966,-1.020041 1.84028,-1.38625 1.50892,-1.690679 1.1103,-1.910589 0.68544,-2.072269 z m -3.45657,0.09558 -0.17737,-1.759433 -0.50868,-1.638706 -0.8049,-1.482919 -1.06603,-1.292028 -1.29202,-1.066021 -1.48292,-0.804901 -1.638709,-0.508683 -1.759433,-0.177366 -1.759433,0.177366 -1.638706,0.508683 -1.482919,0.804901 -1.292028,1.066021 -1.066021,1.292028 -0.804901,1.482919 -0.508683,1.638706 -0.177366,1.759433 0.177366,1.759433 0.508682,1.638707 0.804902,1.482919 1.066021,1.292028 1.292028,1.06602 1.482918,0.804902 1.638707,0.508683 1.759433,0.177366 1.759433,-0.177366 1.638709,-0.508683 1.48292,-0.804902 1.29202,-1.06602 1.06603,-1.292028 0.8049,-1.482919 0.50868,-1.638707 z" />
    <path
       id="path1009_1"
       style="fill:#000000;fill-rule:evenodd;stroke:#ff0000;stroke-width:0.172769"
       d="m 103.74393,72.451465 v 0 l -0.11068,-1.118614 -0.32376,-1.065428 -0.52444,-0.982302 -0.71272,-0.869239 -0.86924,-0.712721 -0.9823,-0.524439 -1.065426,-0.323758 -1.118614,-0.110675 -1.118614,0.110675 -1.065428,0.323758 -0.982302,0.52444 -0.869239,0.71272 -0.712721,0.869239 -0.524439,0.982302 -0.323758,1.065428 -0.110675,1.118614 0.110675,1.118614 0.323758,1.065428 0.52444,0.982302 0.71272,0.869239 0.869239,0.712721 0.982302,0.524439 1.065428,0.323758 1.118614,0.110675 1.118614,-0.110675 1.065426,-0.323758 0.9823,-0.524439 0.86924,-0.712721 0.71272,-0.869239 0.52444,-0.982302 0.32376,-1.065428 z" />
    <path
       id="path1011_3"
       style="fill:#000000;fill-rule:evenodd;stroke:#ff0000;stroke-width:0.172769"
       d="m 133.0107,77.505744 -1.05759,1.281809 -1.29351,1.067246 -1.48463,0.805832 -1.64061,0.509273 -1.76144,0.177568 -1.76144,-0.177568 -1.64061,-0.509273 -1.48463,-0.805832 -1.29351,-1.067246 -1.06725,-1.293512 -0.80583,-1.484633 -0.50927,-1.640608 -0.17757,-1.761437 0.17757,-1.761437 0.50927,-1.640607 0.80583,-1.484633 1.06725,-1.293512 1.29351,-1.067246 1.48463,-0.805832 1.64061,-0.509273 1.76144,-0.177568 1.76144,0.177568 1.64061,0.509273 1.48463,0.805832 1.29351,1.067246 0.87991,1.06646 0.55426,-0.300844 1.0713,-0.332548 1.15019,-0.11595 0.58116,0.05859 -0.29392,-0.497497 -1.47542,-1.642847 -1.78823,-1.355472 -2.05244,-1.02346 -2.26806,-0.646811 -2.43511,-0.225523 -2.43511,0.225523 -2.26806,0.646811 -2.05244,1.023461 -1.78822,1.355472 -1.47542,1.642846 -1.11402,1.885583 -0.70405,2.083681 -0.24548,2.237141 0.24548,2.237141 0.70405,2.083681 1.11402,1.885583 1.47542,1.642846 1.78822,1.355472 2.05244,1.023461 2.26806,0.646811 2.43511,0.225523 2.43511,-0.225523 2.26806,-0.646811 2.05244,-1.023461 1.78823,-1.355473 1.47542,-1.642846 0.36971,-0.625772 -0.65695,0.06623 -1.15019,-0.11595 -1.0713,-0.332548 z"
       sodipodi:nodetypes="ssssssssssssssss" />
    <path
       id="path1011_2"
       style="fill:#000000;fill-rule:evenodd;stroke:#ff0000;stroke-width:0.172769"
       d="m 134.51303,72.607363 -0.17757,-1.761437 -0.50927,-1.640607 -0.80583,-1.484633 -0.18734,-0.227052 -0.41518,0.225354 -0.84465,0.696897 -0.69689,0.844647 -0.5262,0.969446 -0.33255,1.071295 -0.11595,1.150195 0.11595,1.150195 0.33255,1.071295 0.5262,0.969446 0.69689,0.844647 0.84465,0.696897 0.59286,0.321796 0.01,-0.0117 0.80583,-1.484633 0.50927,-1.640608 z"
       sodipodi:nodetypes="ssssssssssssssss" />
    <path
       id="path1011_1"
       style="fill:#000000;fill-rule:evenodd;stroke:#ff0000;stroke-width:0.172769"
       d="m 136.18993,66.802878 0.8201,1.388085 0.70405,2.083681 0.24548,2.237141 -0.24548,2.23714 -0.70405,2.083682 -0.74431,1.259811 0.49325,-0.04972 1.07129,-0.332548 0.96945,-0.526198 0.84465,-0.696897 0.69689,-0.844647 0.5262,-0.969446 0.33255,-1.071295 0.11595,-1.150195 -0.11595,-1.150195 -0.33255,-1.071295 -0.5262,-0.969446 -0.69689,-0.844647 -0.84465,-0.696897 -0.96945,-0.526198 -1.07129,-0.332548 z"
       sodipodi:nodetypes="ssssssssssssssss" />
    <text
       xml:space="preserve"
       style="font-style:normal;font-weight:normal;font-size:4.93889px;line-height:1.25;font-family:sans-serif;text-align:center;text-anchor:middle;white-space:pre;inline-size:62.8877;fill:#000000;fill-opacity:1;stroke:none;stroke-width:0.264583"
       x="37.905514"
       y="101.46328"
       id="text861"
       transform="translate(-2.2946293,-4.5822983)"><tspan
         x="37.905514"
         y="101.46328"><tspan
           style="font-size:4.93889px;text-align:center;text-anchor:middle;stroke-width:0.264583">Handles holes and will split</tspan><tspan
           y="101.46328"> </tspan></tspan><tspan
         x="37.905514"
         y="107.63689"><tspan
           style="font-size:4.93889px;text-align:center;text-anchor:middle;stroke-width:0.264583">up overlapping shapes</tspan></tspan></text>
    <text
       xml:space="preserve"
       style="font-style:normal;font-weight:normal;font-size:4.93889px;line-height:1.25;font-family:sans-serif;text-align:center;text-anchor:middle;fill:#000000;fill-opacity:1;stroke:none;stroke-width:0.264583"
       x="112.86655"
       y="96.880981"
       id="text867"><tspan
         sodipodi:role="line"
         id="tspan865"
         x="112.86655"
         y="96.880981"
         style="font-size:4.93889px;text-align:center;text-anchor:middle;stroke-width:0.264583">Handles holes and</tspan><tspan
         sodipodi:role="line"
         x="112.86655"
         y="103.0546"
         style="font-size:4.93889px;text-align:center;text-anchor:middle;stroke-width:0.264583"
         id="tspan869">overlapping paths</tspan></text>
    <path
       style="fill:none;stroke:#000000;stroke-width:0.264583px;stroke-linecap:butt;stroke-linejoin:miter;stroke-opacity:1"
       d="M 75.469474,2.4147803 V 109.22629"
       id="path892" />
    <text
       xml:space="preserve"
       style="font-style:normal;font-variant:normal;font-weight:bold;font-stretch:normal;font-size:5.64444px;line-height:1.25;font-family:Barlow;-inkscape-font-specification:'Barlow Bold';fill:#000000;fill-opacity:1;stroke:none;stroke-width:0.264583"
       x="-18.072552"
       y="42.98959"
       id="text942"><tspan
         sodipodi:role="line"
         id="tspan940"
         x="-18.072552"
         y="42.98959"
         style="font-style:normal;font-variant:normal;font-weight:bold;font-stretch:normal;font-size:5.64444px;font-family:Barlow;-inkscape-font-specification:'Barlow Bold';stroke-width:0.264583">Original</tspan></text>
    <text
       xml:space="preserve"
       style="font-style:normal;font-variant:normal;font-weight:bold;font-stretch:normal;font-size:5.64444px;line-height:1.25;font-family:Barlow;-inkscape-font-specification:'Barlow Bold';fill:#000000;fill-opacity:1;stroke:none;stroke-width:0.264583"
       x="-17.046253"
       y="76.113289"
       id="text946"><tspan
         sodipodi:role="line"
         id="tspan944"
         x="-17.046253"
         y="76.113289"
         style="font-style:normal;font-variant:normal;font-weight:bold;font-stretch:normal;font-size:5.64444px;font-family:Barlow;-inkscape-font-specification:'Barlow Bold';stroke-width:0.264583">Result</tspan></text>
  </g>
</svg>
