<?xml version="1.0" encoding="UTF-8" standalone="no"?>
<!-- Created with Inkscape (http://www.inkscape.org/) -->

<svg
   width="210mm"
   height="120mm"
   viewBox="0 0 210 119.99999"
   version="1.1"
   id="svg9701"
   sodipodi:docname="circular-ripple.svg"
   inkscape:version="1.2 (dc2aedaf03, 2022-05-15)"
   xmlns:inkscape="http://www.inkscape.org/namespaces/inkscape"
   xmlns:sodipodi="http://sodipodi.sourceforge.net/DTD/sodipodi-0.dtd"
   xmlns:xlink="http://www.w3.org/1999/xlink"
   xmlns="http://www.w3.org/2000/svg"
   xmlns:svg="http://www.w3.org/2000/svg"
   xmlns:inkstitch="http://inkstitch.org/namespace">
  <metadata
     id="metadata11377">
    <inkstitch:collapse_len_mm />
    <inkstitch:min_stitch_len_mm />
  </metadata>
  <sodipodi:namedview
     id="namedview9703"
     pagecolor="#ffffff"
     bordercolor="#999999"
     borderopacity="1"
     inkscape:showpageshadow="0"
     inkscape:pageopacity="0"
     inkscape:pagecheckerboard="0"
     inkscape:deskcolor="#d1d1d1"
     inkscape:document-units="mm"
     showgrid="false"
     inkscape:zoom="0.85670423"
     inkscape:cx="428.38589"
     inkscape:cy="149.40979"
     inkscape:window-width="1920"
     inkscape:window-height="1011"
     inkscape:window-x="0"
     inkscape:window-y="32"
     inkscape:window-maximized="1"
     inkscape:current-layer="layer2" />
  <defs
     id="defs9698">
    <symbol
       id="inkstitch_ripple_target"
       style="display:inline">
      <title
         id="inkstitch_title9427-9">Ripple stitch target point</title>
      <path
         id="inkstitch_circle13166-9"
         d="m 9.220113,0.07922893 c -1.9e-6,5.10672897 -4.1398241,9.24654997 -9.24655297,9.24654997 -5.10672933,0 -9.24655213,-4.139821 -9.24655403,-9.24654997 1e-7,-2.45233803 0.9741879,-4.80423503 2.7082531,-6.53830103 1.7340653,-1.734065 4.0859624,-2.708252 6.53830093,-2.708252 5.10673007,0 9.24655277,4.139823 9.24655297,9.24655303 0,0 0,0 0,0"
         style="opacity:1;vector-effect:none;fill:#fafafa;fill-opacity:1;fill-rule:evenodd;stroke:#003399;stroke-width:1.065;stroke-linecap:round;stroke-linejoin:miter;stroke-miterlimit:4;stroke-dasharray:3.195, 3.195;stroke-dashoffset:0;stroke-opacity:1"
         inkscape:connector-curvature="0" />
      <path
         style="opacity:1;fill:none;stroke:#000000;stroke-width:1.5;stroke-linecap:round;stroke-linejoin:round;stroke-miterlimit:4;stroke-opacity:1"
         d="m -4.1361006,-3.9974292 8.224564,8.224564 m 0,-8.224564 -8.224564,8.224564 m 9.927927,-4.112282 h -11.63129 m 5.81564501,-5.815645 v 11.63129"
         id="inkstitch_rect5371-2-9"
         inkscape:connector-curvature="0" />
    </symbol>
    <marker
       refX="10"
       refY="5"
       orient="auto"
       id="inkstitch-guide-line-marker">
      <g
         id="inkstitch-guide-line-group">
        <path
           style="fill:#fafafa;fill-opacity:0.8;stroke:#ff5500;stroke-width:0.5;stroke-linecap:round;stroke-linejoin:miter;stroke-miterlimit:4;stroke-dasharray:1, 1;stroke-dashoffset:0;stroke-opacity:1"
           d="M 10.12911,5.2916678 A 4.8374424,4.8374426 0 0 1 5.2916656,10.12911 4.8374424,4.8374426 0 0 1 0.45422399,5.2916678 4.8374424,4.8374426 0 0 1 5.2916656,0.45422399 4.8374424,4.8374426 0 0 1 10.12911,5.2916678 Z"
           id="inkstitch-guide-line-marker-circle" />
        <path
           style="fill:none;stroke:#000000;stroke-width:0.4;stroke-linecap:round;stroke-miterlimit:4"
           id="inkstitch-guide-line-marker-spiral"
           d="M 1.7506092,6.2728168 3.4558825,5.2833684 7.1038696,7.400035 8.8193256,6.4046783 M 1.7963222,4.129626 3.4558825,3.1667016 7.1038696,5.2833682 8.8475785,4.2716184 M 1.6318889,5.2833683 3.4558825,4.225035 7.1038696,6.3417016 8.9558408,5.2677331" />
      </g>
    </marker>
    <symbol
       id="inkstitch_ignore_layer">
      <title
         id="title9694">Ignore entire layer when generating stitch plan</title>
      <path
         inkscape:connector-curvature="0"
         style="opacity:1;vector-effect:none;fill:#fafafa;fill-opacity:1;fill-rule:evenodd;stroke:#ff0000;stroke-width:1.06501;stroke-linecap:round;stroke-linejoin:miter;stroke-miterlimit:4;stroke-dasharray:3.19504, 3.19504;stroke-dashoffset:0;stroke-opacity:1"
         d="M 9.2465269,-4.9265995e-6 C 9.246525,5.1067241 5.1067028,9.2465451 -2.615882e-5,9.2465451 -5.1067554,9.2465451 -9.2465782,5.1067241 -9.2465801,-4.9265995e-6 -9.24658,-2.4523429 -8.2723922,-4.8042399 -6.538327,-6.5383059 c 1.7340653,-1.734065 4.0859624,-2.708252 6.53830084118,-2.708252 5.10673015882,0 9.24655285882,4.139823 9.24655305882,9.2465529734005 0,0 0,0 0,0"
         id="inkstitch_path25368-7" />
      <path
         sodipodi:nodetypes="ccccc"
         inkscape:connector-curvature="0"
         style="color:#000000;fill:#d5d5d5;fill-opacity:1;fill-rule:evenodd;stroke:#5a5a5a;stroke-width:0.6333;stroke-linecap:square;stroke-linejoin:round;stroke-miterlimit:0;stroke-opacity:1"
         d="M 4,4.452769 1.46667,1.286102 H -5.5 l 2.53333,3.166667 z"
         id="use5800" />
      <path
         sodipodi:nodetypes="ccccc"
         inkscape:connector-curvature="0"
         style="color:#000000;opacity:0.5;fill:#d5d5d5;fill-opacity:1;fill-rule:evenodd;stroke:#858585;stroke-width:0.633394;stroke-linecap:square;stroke-linejoin:round;stroke-miterlimit:0;stroke-opacity:1"
         d="M 4,2.552769 1.46667,-0.613898 H -5.5 l 2.53333,3.166667 z"
         id="use5864" />
      <g
         id="g5771">
        <path
           sodipodi:nodetypes="ccccccccc"
           inkscape:connector-curvature="0"
           style="fill:#aa0000;fill-rule:evenodd;stroke:#aa0000;stroke-width:1px"
           d="m -1.0666699,-5.0472339 h 4.4333333 l 0.6333333,0.6333333 V 0.01943274 L 3.3666634,0.65276607 H -1.0666699 L -1.7000032,0.01943274 V -4.4139006 Z"
           id="path8011" />
        <path
           inkscape:connector-curvature="0"
           id="path8023"
           d="m -0.43333658,-3.8755672 c 0,0 3.16666668,3.16666661 3.16666668,3.16666661"
           style="fill:none;stroke:#ffffff;stroke-width:1.7" />
        <path
           inkscape:connector-curvature="0"
           id="path8025"
           d="m 2.7333301,-3.8755672 c 0,0 -3.16666668,3.16666661 -3.16666668,3.16666661"
           style="fill:none;stroke:#ffffff;stroke-width:1.8;stroke-linejoin:round" />
      </g>
    </symbol>
  </defs>
  <g
     inkscape:groupmode="layer"
     id="layer2"
     inkscape:label="Text"
     transform="translate(-11.385333,-15.022187)">
    <text
       xml:space="preserve"
       style="font-size:8.46667px;line-height:1;font-family:Barlow;-inkscape-font-specification:Barlow;letter-spacing:0px;stroke-width:0.264583"
       x="10.987399"
       y="4.7218156"
       id="text9876"
       inkscape:label="Circular ripple"><tspan
         sodipodi:role="line"
         style="font-style:normal;font-variant:normal;font-weight:bold;font-stretch:normal;font-size:8.46667px;font-family:Barlow;-inkscape-font-specification:'Barlow Bold';stroke-width:0.264583"
         x="10.987399"
         y="4.7218156"
         id="tspan9878">Circular ripple</tspan></text>
    <use
       id="use1"
       inkscape:label="Ink/Stitch Command: Ignore layer (do not stitch any objects in this layer)"
       xlink:href="#inkstitch_ignore_layer"
       height="100%"
       width="100%"
       x="0"
       y="-10"
       transform="scale(0.264583)"
       style="display:none" />
    <text
       xml:space="preserve"
       style="font-size:3.70417px;line-height:1;font-family:Barlow;-inkscape-font-specification:Barlow;letter-spacing:0px;stroke-width:0.264583"
       x="11.254365"
       y="11.093253"
       id="text11478"
       inkscape:label="short description"><tspan
         sodipodi:role="line"
         id="tspan11476"
         style="font-size:3.70417px;stroke-width:0.264583"
         x="11.254365"
         y="11.093253">A circular ripple is build from a simple closed path</tspan></text>
    <text
       xml:space="preserve"
       style="font-size:3.175px;line-height:1;font-family:Barlow;-inkscape-font-specification:Barlow;letter-spacing:0px;stroke-width:0.264583"
       x="22.623138"
       y="24.255428"
       id="text11482"><tspan
         sodipodi:role="line"
         id="tspan11480"
         style="font-size:3.175px;stroke-width:0.264583"
         x="22.623138"
         y="24.255428">no guiding</tspan></text>
    <text
       xml:space="preserve"
       style="font-size:3.175px;line-height:1;font-family:Barlow;-inkscape-font-specification:Barlow;letter-spacing:0px;stroke-width:0.264583"
       x="60.87207"
       y="24.255428"
       id="text11486"><tspan
         sodipodi:role="line"
         id="tspan11484"
         style="font-size:3.175px;stroke-width:0.264583"
         x="60.87207"
         y="24.255428">target point inside</tspan></text>
    <text
       xml:space="preserve"
       style="font-size:3.175px;line-height:1;font-family:Barlow;-inkscape-font-specification:Barlow;letter-spacing:0px;stroke-width:0.264583"
       x="99.260712"
       y="24.255428"
       id="text11490"><tspan
         sodipodi:role="line"
         id="tspan11488"
         style="font-size:3.175px;stroke-width:0.264583"
         x="99.260712"
         y="24.255428">target point outside</tspan></text>
    <text
       xml:space="preserve"
       style="font-size:3.175px;line-height:1;font-family:Barlow;-inkscape-font-specification:Barlow;letter-spacing:0px;stroke-width:0.264583"
       x="137.50963"
       y="24.255428"
       id="text11494"><tspan
         sodipodi:role="line"
         id="tspan11492"
         style="font-size:3.175px;stroke-width:0.264583"
         x="137.50963"
         y="24.255428">guide line</tspan></text>
    <text
       xml:space="preserve"
       style="font-size:3.175px;line-height:1;font-family:Barlow;-inkscape-font-specification:Barlow;letter-spacing:0px;stroke-width:0.264583"
       x="175.69505"
       y="24.255428"
       id="text11498"><tspan
         sodipodi:role="line"
         style="font-size:3.175px;stroke-width:0.264583"
         x="175.69505"
         y="24.255428"
         id="tspan11500">satin guide</tspan></text>
  </g>
  <g
     inkscape:label="Ripples"
     inkscape:groupmode="layer"
     id="layer1"
     transform="translate(-11.385333,-15.022187)">
    <path
       style="fill:none;stroke:#000000;stroke-width:0.174179px;stroke-linecap:butt;stroke-linejoin:miter;stroke-opacity:1"
       d="m 24.70147,38.012512 c 0.410407,-2.066328 0.663548,-4.630733 2.377351,-5.855899 3.997953,-2.85806 9.990308,-2.161418 14.720221,-0.827229 4.875872,1.37536 13.807041,3.764285 12.492066,8.656789 -1.095185,4.074753 -8.561661,-0.143473 -12.616734,1.022476 -6.1549,1.76971 -11.586931,12.199019 -17.049751,8.856525 -3.370165,-2.062076 -0.692847,-7.977389 0.07685,-11.852662 z"
       id="path9932"
       sodipodi:nodetypes="aaaaaaa"
       inkstitch:stroke_method="1"
       inkscape:label="center target ripple" />
    <path
       style="fill:none;stroke:#d4390b;stroke-width:0.174179px;stroke-linecap:butt;stroke-linejoin:miter;stroke-opacity:1"
       d="m 62.950403,36.187049 c 0.410407,-2.066329 0.663547,-4.630734 2.37735,-5.855899 3.997953,-2.858061 9.990308,-2.161419 14.72022,-0.82723 4.875874,1.375361 13.807042,3.764286 12.492069,8.656789 -1.095189,4.074754 -8.561664,-0.143473 -12.616733,1.022477 -6.154903,1.76971 -11.586934,12.199018 -17.049754,8.856525 -3.370164,-2.062076 -0.692847,-7.977389 0.07685,-11.852662 z"
       id="path9934"
       sodipodi:nodetypes="aaaaaaa"
       inkstitch:stroke_method="1"
       inkscape:label="inside target ripple" />
    <g
       id="command_group1"
       inkscape:label="Ink/Stitch Command: Ripple stitch target position"
       transform="matrix(0.264583,0,0,0.264583,-7.3898028,5.0403765)">
      <path
         id="command_connector1"
         d="m 275.04381,143.75508 43.68912,-17.22256"
         style="fill:none;stroke:#000000;stroke-width:1px;stroke-opacity:0.5"
         inkscape:connection-start="#command_use992"
         inkscape:connection-end="#path9934"
         inkscape:label="connector"
         inkscape:connector-type="polyline"
         inkscape:connector-curvature="0" />
      <use
         id="command_use992"
         xlink:href="#inkstitch_ripple_target"
         height="100%"
         width="100%"
         x="292.33823"
         y="118.11053"
         inkscape:label="command marker"
         transform="translate(-17.2706,25.5297)" />
    </g>
    <path
       style="fill:none;stroke:#67914b;stroke-width:0.174179px;stroke-linecap:butt;stroke-linejoin:miter;stroke-opacity:1"
       d="m 101.19935,35.526205 c 0.4104,-2.066329 0.66354,-4.630734 2.37734,-5.855899 3.99796,-2.858061 9.99031,-2.161419 14.72022,-0.82723 4.87588,1.375361 13.80704,3.764286 12.49207,8.656788 -1.09518,4.074755 -8.56166,-0.143472 -12.61673,1.022478 -6.1549,1.76971 -11.58693,12.199018 -17.04976,8.856525 -3.370164,-2.062077 -0.69284,-7.977389 0.0769,-11.852662 z"
       id="path9936"
       sodipodi:nodetypes="aaaaaaa"
       inkstitch:stroke_method="1"
       inkstitch:line_count="20"
       inkscape:label="outside target ripple" />
    <g
       id="command_group2"
       inkscape:label="Ink/Stitch Command: Ripple stitch target position"
       transform="matrix(0.264583,0,0,0.264583,-18.859303,33.399274)">
      <path
         id="command_connector2"
         d="M 489.18175,115.33368 505.00829,26.08347"
         style="fill:none;stroke:#000000;stroke-width:1px;stroke-opacity:0.5"
         inkscape:connection-start="#command_use3654"
         inkscape:connection-end="#path9936"
         inkscape:label="connector"
         inkscape:connector-type="polyline"
         inkscape:connector-curvature="0" />
      <use
         id="command_use3654"
         xlink:href="#inkstitch_ripple_target"
         height="100%"
         width="100%"
         x="489.20557"
         y="115.21883"
         inkscape:label="command marker" />
    </g>
    <g
       id="g10110"
       transform="translate(10.092597,-10.145229)">
      <path
         style="fill:none;stroke:#0086ba;stroke-width:0.174179px;stroke-linecap:butt;stroke-linejoin:miter;stroke-opacity:1"
         d="m 129.35567,44.143573 c 0.41041,-2.066329 0.66354,-4.630734 2.37735,-5.855899 3.99796,-2.858061 9.9903,-2.161419 14.72022,-0.82723 4.87587,1.375361 13.80704,3.764286 12.49206,8.656789 -1.09518,4.074754 -8.56166,-0.143473 -12.61673,1.022477 -6.1549,1.76971 -11.58693,12.199018 -17.04975,8.856525 -3.37017,-2.062076 -0.69285,-7.977389 0.0769,-11.852662 z"
         id="path9938"
         sodipodi:nodetypes="aaaaaaa"
         inkstitch:stroke_method="1"
         inkstitch:line_count="30"
         inkstitch:rotate_ripples="False"
         inkscape:label="ripple" />
      <path
         style="fill:none;stroke:#000000;stroke-width:0.264583px;stroke-linecap:butt;stroke-linejoin:miter;stroke-opacity:1;marker-start:url(#inkstitch-guide-line-marker)"
         d="m 144.52094,50.839044 c 7.04608,11.08353 -0.90411,11.204293 -3.71635,13.419086 -3.99199,3.14391 -19.04825,7.597745 -1.51424,20.443741"
         id="path10026"
         sodipodi:nodetypes="csc"
         inkscape:label="guide line" />
    </g>
    <g
       id="g10106"
       inkscape:label="Satin ripple group"
       transform="translate(0,3.1608095)">
      <path
         style="fill:none;stroke:#ffc300;stroke-width:0.174179px;stroke-linecap:butt;stroke-linejoin:miter;stroke-opacity:1"
         d="m 177.6972,30.837536 c 0.41041,-2.066329 0.66354,-4.630734 2.37735,-5.855899 3.99796,-2.858061 9.99031,-2.161419 14.72022,-0.82723 4.87587,1.375361 13.80704,3.764286 12.49207,8.656789 -1.09519,4.074754 -8.56167,-0.143473 -12.61674,1.022477 -6.15489,1.76971 -11.58692,12.199018 -17.04975,8.856525 -3.37016,-2.062076 -0.69285,-7.977389 0.0769,-11.852662 z"
         id="path10024"
         sodipodi:nodetypes="aaaaaaa"
         inkstitch:stroke_method="1"
         inkstitch:line_count="30"
         inkstitch:rotate_ripples="True"
         inkscape:label="ripple" />
      <path
         id="path10101"
         style="fill:none;stroke:#000000;stroke-width:0.209238px;stroke-linecap:butt;stroke-linejoin:miter;stroke-opacity:1;marker-start:url(#inkstitch-guide-line-marker)"
         d="m 176.24507,42.565765 c 5.5722,8.765108 4.18301,13.11836 1.95903,14.869869 -3.15696,2.486275 -4.47541,4.344858 9.39089,14.503764 m 20.84983,-38.584797 c 5.5722,8.765108 -4.45583,15.075817 -6.5597,16.969925 -21.19442,19.081292 6.06772,3.087395 -9.79569,20.796816 m -17.56401,-8.743088 24.79765,4.294359 m -21.88555,-16.681079 33.65853,-8.510343 m -37.05986,17.991041 21.7812,0.07434"
         sodipodi:nodetypes="csccsccccccc"
         inkscape:label="satin guide" />
    </g>
  </g>
  <g
     id="__inkstitch_stitch_plan__"
     inkscape:label="Stitch Plan"
     inkscape:groupmode="layer"
     transform="translate(-11.385333,36.973575)">
    <g
       id="__color_block_0__"
       inkscape:label="color block 1"
       transform="translate(10.092597,-10.145229)">
      <path
         id="object7976"
         style="fill:none;stroke:#000000;stroke-width:0.4"
         d="m 55.214645,182.01352 0.512154,-2.54559 0.512154,-2.5456 -0.512154,2.5456 -0.512154,2.54559 1.024308,-5.09119 1.184528,-5.0563 1.676254,-4.91517 2.258932,-3.76341 3.10352,-3.10372 3.964823,-2.33406 4.212916,-1.84894 4.38788,-1.38341 4.379746,-0.85726 4.434354,-0.50315 4.458838,-0.18819 4.461915,0.0902 4.987825,0.45258 4.963616,0.66744 4.91832,0.94486 4.88291,1.11365 4.84108,1.28338 4.6274,1.36887 4.61419,1.41274 4.59655,1.46914 4.54662,1.61697 4.5227,1.68277 4.43688,1.89748 4.58948,2.3361 4.37639,2.71432 4.02455,3.21294 2.09837,2.39821 1.66054,2.71977 0.94851,2.84769 0.22276,2.99343 -0.65811,3.4792 -1.69161,3.11082 -2.37913,1.802 -2.8223,0.97217 -4.40832,0.31951 -4.41075,-0.28344 -5.20476,-0.79901 -5.18608,-0.91241 -5.19788,-0.84262 -5.22522,-0.65178 -3.81369,-0.0926 -3.79469,0.39003 -3.68432,0.98851 -3.47003,1.58571 -3.3399,1.84399 -3.19647,2.08275 -4.31913,3.2968 -4.163384,3.49173 -4.0882,3.5799 -4.080214,3.589 -4.137718,3.52152 -4.30051,3.31909 -4.557888,2.95207 -5.172511,2.14951 -5.535041,0.76922 -5.201377,-1.42653 -3.646773,-2.48755 -2.505957,-3.83407 -0.952905,-4.36217 -0.02041,-4.4565 0.736189,-5.20275 1.171281,-5.1253 1.350079,-5.08178 1.411609,-5.0653 1.325303,-5.08813 1.096177,-5.14182 1.188903,-5.12188 1.39675,-4.07329 2.15453,-3.71994 2.794729,-2.78429 3.57214,-2.09568 3.794842,-1.65864 3.872089,-1.21429 3.981477,-0.78212 4.032364,-0.45445 4.17221,-0.15893 4.173198,0.11471 4.158034,0.38205 4.455744,0.60526 4.41471,0.85452 4.38278,1.00561 4.22935,1.12724 4.19643,1.24409 4.18378,1.28607 4.16755,1.33775 4.05375,1.44935 4.0327,1.5069 3.95565,1.69887 4.11062,2.09926 3.91874,2.43871 2.90705,2.32957 2.5534,2.69777 1.87263,3.63608 0.63383,4.03437 -0.59984,3.116 -1.52388,2.7835 -4.67411,2.4808 -3.95243,0.28458 -3.95443,-0.25478 -4.66002,-0.71546 -4.64333,-0.81677 -4.65386,-0.75447 -4.67832,-0.58384 -5.10851,0.0893 -4.99318,1.05726 -4.59324,2.2371 -4.34887,2.68184 -4.47317,3.45215 -4.307749,3.65735 -4.248932,3.72621 -4.263188,3.70933 -4.432004,3.50356 -4.713308,3.10959 -4.603291,1.90692 -4.924797,0.67561 -4.206122,-1.12823 -3.654979,-2.37688 -2.223491,-3.41942 -0.840866,-3.88823 -0.0093,-3.97055 0.829374,-5.38989 1.274477,-5.30638 1.448905,-5.26232 1.439042,-5.2648 1.209646,-5.32113 1.221934,-5.31927 1.247246,-3.61611 1.920857,-3.30039 4.151876,-3.44032 4.887067,-2.35137 5.207247,-1.42006 5.350174,-0.73817 5.553135,-0.0918 5.538608,0.40862 5.425169,0.82964 5.36683,1.15241 5.30664,1.40384 5.25409,1.59172 5.23061,1.66718 4.59805,1.66858 4.54023,1.81651 4.39873,2.13422 4.18235,2.532 2.56131,2.06099 2.24553,2.3879 1.6391,3.21653 0.5423,3.56379 -1.89774,5.20897 -4.14679,2.18743 -3.49653,0.24965 -3.4981,-0.22613 -5.4822,-0.87193 -5.47354,-0.92545 -5.50138,-0.73786 -4.50594,0.0772 -4.40474,0.92995 -4.04632,1.96689 -3.8315,2.35854 -3.93034,3.02905 -3.785122,3.20943 -3.733334,3.27013 -3.745578,3.25561 -3.893886,3.07463 -4.141414,2.72741 -4.034075,1.66434 -4.314548,0.58201 -3.679557,-1.00385 -3.194496,-2.0923 -1.941026,-3.00476 -0.728825,-3.4143 0.0019,-3.48459 0.738188,-4.72026 1.12656,-4.64643 1.279312,-4.60749 1.271417,-4.60949 1.070809,-4.65923 1.080929,-4.65774 1.097744,-3.15892 1.687183,-2.88084 3.638189,-2.99878 4.277986,-2.04599 4.552688,-1.23074 4.676223,-0.63486 4.846776,-0.0699 4.833268,0.3658 4.722639,0.73085 4.67132,1.01188 4.61854,1.23052 4.57224,1.39497 4.5516,1.4608 5.31272,1.95735 5.17066,2.2971 4.88387,2.85508 2.21558,1.79243 1.93765,2.07801 1.40556,2.79701 0.45078,3.09318 -1.67175,4.51845 -3.61947,1.89407 -5.12453,0.0796 -5.08417,-0.70793 -5.06344,-0.86266 -5.08899,-0.69171 -3.90337,0.0652 -3.8163,0.80262 -3.49938,1.69669 -3.31415,2.03524 -4.04632,3.1508 -3.892435,3.34037 -3.857754,3.38089 -3.967234,3.24916 -4.257239,2.85312 -3.464867,1.42175 -3.704292,0.4884 -3.152963,-0.87948 -2.734041,-1.8077 -1.658561,-2.59011 -0.61678,-2.94037 0.01305,-2.99862 0.825292,-4.85216 1.234359,-4.76873 1.355212,-4.73669 1.187465,-4.78012 1.108725,-4.79978 0.948243,-2.70175 1.453508,-2.46128 3.124499,-2.55724 3.668907,-1.74061 3.898128,-1.04142 4.002274,-0.53155 4.140414,-0.048 4.12793,0.32298 5.01808,0.83136 4.94781,1.18266 4.88002,1.43953 4.84342,1.5597 4.50102,1.67282 4.37963,1.96077 4.13452,2.43417 3.49962,3.29198 1.53126,5.00006 -1.44576,3.82794 -3.09215,1.60069 -4.34676,0.0649 -4.31251,-0.59968 -4.29481,-0.73172 -4.31641,-0.58721 -3.30081,0.0532 -3.22785,0.6753 -2.95245,1.42648 -2.79679,1.71194 -4.227747,3.32414 -4.058881,3.53033 -4.096847,3.4853 -4.428835,3.04264 -2.89567,1.17919 -3.094025,0.39478 -4.899956,-2.27822 -1.376095,-2.17545 -0.480537,-4.9791 0.942068,-5.05145 1.384305,-4.95399 1.369948,-4.95769 1.158568,-5.01119 2.018575,-4.2863 2.610802,-2.11569 3.059836,-1.43523 5.417844,-1.16389 5.548492,-0.11167 4.053975,0.48043 4.00379,0.79261 3.94978,1.03312 5.21416,1.64752 5.13838,1.8682 4.94191,2.33005 3.95149,2.87394 2.11037,3.83457 -0.30808,3.09386 -2.03047,2.32951 -3.52345,0.60219 -5.21971,-0.62912 -5.1951,-0.83686 -5.24052,-0.0715 -3.34872,1.18633 -3.06506,1.81531 -3.768016,2.97509 -3.624156,3.15098 -3.719094,3.03484 -4.148332,2.38926 -3.154264,0.4781 -3.912907,-1.86926 -1.285911,-2.73649 -0.165061,-3.04352 1.146806,-5.37806 1.539029,-5.28658 1.312892,-5.34651 1.635399,-3.40957 4.547869,-2.804 4.318648,-0.90016 4.417476,-0.0626 4.793352,0.68952 4.69696,1.1855 4.08097,1.31578 4.0202,1.48935 3.86329,1.8519 3.06371,2.26435 1.59106,3.00973 -1.90703,4.23022 -4.98427,0.26926 -4.98563,-0.8225 -5.02707,-0.19003 -4.96134,2.30208 -3.453382,2.75471 -3.346082,2.88659 -3.595478,2.55726 -3.630766,0.90159 -2.925859,-1.4603 -1.113475,-2.98227 0.667645,-4.39506 1.565715,-5.25447 1.518183,-5.26121 2.86985,-2.64032 3.169351,-0.97833 3.313226,-0.24439 3.491352,0.3512 3.42681,0.76092 5.09779,1.66083 4.88158,2.20191 3.24769,3.83966 -1.4755,3.03707 -5.39427,-0.10442 -5.42089,-0.44683 -3.87409,1.87188 -3.349894,2.75233 -3.471179,2.58495 -2.451302,0.5654 -1.938811,-1.05134 -0.187246,-5.05329 1.120051,-3.50178 1.092963,-3.50545 1.94658,-1.7026 4.282696,-0.71478 4.445752,0.80318 3.14984,1.10258 3.00351,1.44521 1.8406,2.40524 -1.04398,1.84391 -3.3106,-0.0712 -3.32275,-0.28799 -3.14958,1.72693 -2.884454,2.19074 -2.2236,-0.41316 0.303724,-3.35708 1.378396,-3.20032 3.647274,-0.50295 3.94054,2.19303 -0.62861,1.01623 -3.868629,0.44317 0.607929,-0.81142 -0.607929,0.81142 0.607929,-0.81142 -0.607929,0.81142 0.607929,-0.81142"
         transform="scale(0.264583)"
         inkstitch:manual_stitch="true" />
    </g>
    <g
       id="__color_block_1__"
       inkscape:label="color block 2"
       transform="translate(10.092597,-10.145229)">
      <path
         id="object1058"
         style="fill:none;stroke:#d4380a;stroke-width:0.4"
         d="m 199.77756,175.11413 0.48593,-2.52988 0.48593,-2.52988 -0.48593,2.52988 -0.48593,2.52988 0.97186,-5.05976 1.13211,-5.02633 1.62475,-4.88929 2.20537,-3.73183 3.05283,-3.07711 3.91313,-2.30522 4.16104,-1.8199 4.33508,-1.35402 4.33372,-0.82938 4.38681,-0.47408 4.40951,-0.15842 4.85007,0.1641 4.82922,0.48548 4.80366,0.69401 4.75833,0.95792 4.72318,1.1187 4.64526,1.27416 4.60768,1.40381 4.59322,1.45056 4.57487,1.50744 4.52328,1.65572 4.49823,1.7227 4.51901,2.00112 4.38296,2.28459 4.32148,2.74284 3.96466,3.23723 2.80799,3.72909 1.74255,4.31695 0.11731,3.29561 -0.65536,3.24022 -1.74477,3.14181 -2.43108,1.83107 -2.8746,1.00129 -4.4585,0.34844 -4.46482,-0.25418 -5.25684,-0.77008 -5.23896,-0.88351 -5.25028,-0.81351 -5.27635,-0.62235 -3.86907,-0.0637 -3.84668,0.41956 -3.73331,1.01735 -3.52223,1.61482 -3.39192,1.87305 -3.24863,2.11186 -4.37824,3.33013 -4.22285,3.52543 -4.14791,3.6137 -4.14,3.62279 -4.19754,3.55493 -4.3601,3.35193 -4.61739,2.98394 -3.51094,1.65808 -3.72145,1.09714 -3.18817,0.22017 -3.15682,-0.42438 -3.29716,-1.38191 -2.9939,-1.98988 -2.55808,-3.80499 -0.99951,-4.3279 -0.078,-4.43258 0.50071,-4.33483 0.87698,-4.27584 1.30633,-5.23543 1.39849,-5.2117 1.34432,-5.22544 1.12345,-5.2764 1.14042,-5.27361 1.63133,-5.14011 1.9843,-3.3504 2.74586,-2.76069 3.5179,-2.06535 3.74008,-1.62871 3.89589,-1.20959 3.8921,-0.73733 3.93919,-0.41798 3.95903,-0.13424 4.29039,0.15018 4.2718,0.43247 4.24995,0.61211 4.35134,0.8821 4.31825,1.03194 4.27927,1.18325 5.12395,1.58846 5.1033,1.65343 5.05599,1.79106 5.0104,1.91663 4.03908,1.80082 3.91682,2.05397 3.8597,2.46411 3.53865,2.90637 2.49477,3.3497 1.53646,3.87149 0.0881,2.95604 -0.601,2.90305 -1.57739,2.8151 -4.77836,2.53899 -4.00261,0.3135 -4.00849,-0.22552 -4.71209,-0.68653 -4.69621,-0.78788 -4.70627,-0.72535 -4.72945,-0.5544 -5.18987,0.13318 -5.06818,1.10065 -4.67146,2.28075 -4.42702,2.72547 -3.91083,2.97015 -3.77239,3.14438 -3.70551,3.22331 -3.69844,3.23143 -3.74954,3.17107 -3.89444,2.98985 -4.1242,2.66074 -3.13059,1.47507 -3.31785,0.97462 -4.05242,0.0821 -3.9085,-1.08743 -3.29257,-2.19235 -2.27562,-3.39033 -0.88747,-3.85396 -0.0669,-3.94663 0.75458,-5.34705 1.20617,-5.26788 1.38087,-5.2257 1.3707,-5.22815 1.14079,-5.28201 1.15329,-5.28026 1.29768,-3.88437 1.76322,-2.96898 2.43889,-2.44425 3.12494,-1.82682 3.32169,-1.4383 3.40678,-1.04918 3.50265,-0.66048 5.23504,-0.41573 5.25189,0.0569 3.92993,0.40061 3.9086,0.5724 3.86962,0.79419 4.9399,1.237 4.88576,1.43609 4.85254,1.5462 4.81672,1.65303 4.75954,1.81216 4.67522,2.01713 3.57681,1.89001 3.40266,2.18803 2.51997,2.08527 2.18262,2.42181 1.92081,4.46402 -0.48776,5.18233 -1.41001,2.48841 -4.25104,2.24562 -3.54673,0.27856 -3.55215,-0.19686 -5.55189,-0.83341 -5.54373,-0.88677 -5.56999,-0.69869 -4.5873,0.12111 -4.47974,0.97335 -4.12453,2.01054 -3.90966,2.40217 -3.99935,3.06802 -3.85456,3.24881 -3.80302,3.30957 -3.81547,3.29474 -3.96347,3.11308 -4.2108,2.76479 -2.75022,1.29207 -2.91426,0.85209 -3.55634,0.0671 -3.42834,-0.96027 -2.91728,-1.97258 -1.96212,-2.92934 -0.77545,-3.38002 -0.0557,-3.46068 0.66349,-4.67742 1.0583,-4.60791 1.2113,-4.57086 1.20306,-4.57283 1.0019,-4.62014 1.01218,-4.61873 1.76295,-4.44172 3.04699,-3.66324 3.66623,-1.98988 3.91464,-1.43892 4.07819,-0.87843 4.56214,-0.34758 4.57549,0.065 5.12031,0.61381 5.06655,0.95732 5.13653,1.32973 5.07258,1.55683 5.03561,1.67382 4.96768,1.86451 4.87511,2.09225 3.69743,2.04271 3.44186,2.44088 2.94352,3.00495 1.62921,3.88683 -0.46262,4.50557 -1.24262,2.16171 -3.72373,1.95225 -5.19715,0.12943 -5.16393,-0.66421 -5.14443,-0.82253 -5.16835,-0.65085 -3.98472,0.10906 -3.89131,0.84604 -3.5776,1.74034 -3.3923,2.07887 -4.1292,3.19762 -3.97583,3.38772 -3.94144,3.42818 -4.05107,3.29536 -4.34044,2.8982 -4.88052,1.83863 -4.26889,-0.1573 -4.2195,-2.2838 -1.72673,-2.63131 -0.70149,-3.07285 0.31292,-5.44913 1.18431,-5.26379 1.39521,-5.21277 1.2831,-5.24022 1.12809,-5.27648 1.51058,-3.79073 2.60951,-3.1216 4.77397,-2.38585 5.18808,-1.25382 3.88924,-0.27944 3.89909,0.0731 4.35637,0.54103 4.3092,0.83403 5.43357,1.46011 5.35197,1.73782 5.28863,1.92007 5.17118,2.21466 4.61151,2.7282 3.87204,3.66378 1.3376,3.30963 -0.43747,3.82881 -1.68757,2.28159 -2.58407,1.21231 -4.41942,0.1146 -4.39224,-0.55598 -4.3758,-0.69153 -4.39577,-0.54624 -3.38216,0.097 -3.30287,0.71874 -3.03068,1.47014 -2.87493,1.75556 -4.33138,3.38277 -4.16329,3.58958 -4.2015,3.54388 -4.53313,3.09892 -4.09656,1.5331 -3.57686,-0.14165 -2.91966,-1.51151 -2.03753,-2.55599 -0.58505,-4.86818 0.78966,-4.86542 1.12467,-4.33291 1.14863,-4.32651 0.94006,-4.37587 1.24744,-4.29362 2.61796,-3.31966 2.96497,-1.53825 3.16738,-1.06349 4.44504,-0.5662 4.48067,0.10665 4.44139,0.62061 5.29753,1.30081 5.19472,1.66733 5.12068,1.88174 3.60633,1.56611 3.42043,1.93211 3.08869,2.42359 1.57877,2.48276 0.37905,2.90386 -1.32401,3.1956 -2.66908,1.36551 -4.85286,-0.005 -4.81265,-0.72603 -4.82709,-0.61871 -5.49402,0.67637 -4.13034,2.17676 -3.7445,2.7944 -3.5602,3.03078 -3.57508,3.01278 -3.85181,2.6407 -3.00537,1.14355 -3.19206,-0.042 -3.9842,-3.29017 -0.46194,-3.91435 0.64266,-3.90986 1.22072,-4.60385 1.11989,-4.6277 1.24931,-4.58892 2.08991,-2.6218 4.87696,-2.02627 5.28694,-0.41683 5.27133,0.64185 4.14369,1.06122 4.05902,1.35141 3.99793,1.52204 4.1361,1.98321 3.67455,2.72871 1.40505,4.24884 -1.09803,2.50509 -2.14176,1.07214 -5.25825,-0.18802 -5.23005,-0.73527 -5.21667,0.43916 -3.94416,2.16208 -3.53,2.79962 -3.43416,2.91873 -3.68065,2.58956 -4.72143,0.81166 -3.01122,-2.51285 -0.33886,-2.96052 0.4957,-2.95431 1.38506,-5.15293 1.33398,-5.15909 1.56185,-1.92395 3.62159,-1.45078 3.88662,-0.24559 3.86281,0.53457 4.45843,1.31997 4.32993,1.69949 2.92647,1.48521 2.57936,2.01681 0.85228,3.11107 -2.48648,2.59334 -3.82436,-0.11508 -3.80596,-0.5086 -3.79301,0.32918 -3.64019,2.12086 -3.26208,2.68599 -3.41372,2.47771 -3.24545,0.52178 -2.03822,-1.73554 0.13295,-4.00543 0.94055,-3.3998 0.90761,-3.40378 3.40001,-2.1014 4.9474,0.35492 4.66806,1.75841 3.90222,2.63598 0.29951,1.9733 -1.73317,1.60945 -3.57988,-0.19646 -3.56181,0.0916 -3.67025,2.39976 -3.80097,2.01586 -1.49849,-2.12416 1.17834,-4.30984 1.23973,-0.77624 3.16212,0.67697 2.20366,2.15822 -0.94135,1.19079 -2.9883,0.11289 -2.14883,0.56622 1.07441,-0.28311 1.07442,-0.28311 -1.07442,0.28311 -1.07441,0.28311"
         transform="scale(0.264583)"
         inkstitch:manual_stitch="true" />
    </g>
    <g
       id="__color_block_2__"
       inkscape:label="color block 3"
       transform="translate(10.092597,-10.145229)">
      <path
         id="object3129"
         style="fill:none;stroke:#67914b;stroke-width:0.4"
         d="m 344.34051,172.61645 0.49324,-2.51597 0.49325,-2.51597 -0.49325,2.51597 -0.49324,2.51597 0.98649,-5.03194 1.14715,-4.99775 1.6401,-4.85833 2.23026,-3.71964 3.0771,-3.05635 3.9581,-2.29623 4.20444,-1.80608 4.376,-1.338 4.39864,-0.81696 4.45033,-0.45825 4.47166,-0.14072 4.94695,0.18634 4.9249,0.50939 4.89847,0.72028 4.85228,0.98584 4.81671,1.1474 4.77851,1.31504 4.7401,1.44723 4.72553,1.49426 4.70691,1.55193 4.6545,1.70258 4.62948,1.76957 4.6787,2.06304 4.54066,2.3522 4.49045,2.82514 4.12951,3.33059 3.00016,3.85202 1.92866,4.47184 0.22625,3.40194 -0.58299,3.36753 -1.54978,2.99203 -2.5274,2.19254 -3.58561,1.14499 -3.76971,0.3424 -4.98593,-0.28022 -4.94743,-0.69239 -4.93132,-0.79929 -4.9412,-0.73551 -4.96224,-0.57348 -4.98922,-0.13517 -3.90627,0.48243 -3.78017,1.09648 -3.59282,1.72276 -3.45277,1.98862 -3.30022,2.23267 -3.95782,3.07242 -3.81961,3.24245 -3.7372,3.33717 -3.72362,3.35242 -3.72246,3.35371 -3.81353,3.24943 -3.96434,3.06285 -4.18483,2.75167 -3.63528,1.79761 -3.86269,1.22541 -3.30579,0.29568 -3.28887,-0.35821 -3.43796,-1.35971 -3.12217,-2.02174 -2.67237,-3.91689 -1.04159,-4.47605 -0.0752,-4.58589 0.72161,-5.3923 1.18503,-5.31306 1.37298,-5.26834 1.43665,-5.25162 1.34366,-5.27571 1.10174,-5.33094 1.20246,-5.30987 1.43846,-4.25199 2.23894,-3.88142 3.02054,-2.95431 3.65971,-2.11854 3.96519,-1.69874 4.1255,-1.25985 4.24034,-0.79019 4.22736,-0.4303 4.24725,-0.12863 4.24699,0.13681 4.79195,0.48566 4.76638,0.69298 4.71984,0.96 4.60727,1.10254 4.56686,1.25928 4.52969,1.38704 4.51541,1.433 4.49743,1.48847 4.47228,1.64458 4.44582,1.71433 4.35507,1.93242 4.2289,2.19603 4.25955,2.68578 3.91652,3.16516 2.84355,3.66227 1.82561,4.24917 0.21167,3.23218 -0.55583,3.19891 -1.47315,2.84246 -2.40084,2.08391 -3.40392,1.09027 -3.57943,0.32782 -4.73128,-0.26188 -4.69501,-0.65352 -4.67979,-0.75496 -4.68912,-0.69447 -4.70897,-0.54075 -4.73427,-0.12394 -3.70622,0.4612 -3.58611,1.04345 -3.40816,1.6373 -3.27517,1.88933 -3.13034,2.12067 -4.27269,3.35204 -4.11638,3.54258 -4.0417,3.62796 -4.03374,3.63683 -4.09215,3.56999 -4.25504,3.37263 -4.50736,3.02413 -3.44511,1.7061 -3.66089,1.16416 -3.1321,0.2822 -3.11654,-0.33692 -3.25705,-1.28601 -2.95782,-1.9141 -2.53113,-3.70956 -0.98558,-4.23909 -0.0696,-4.3429 0.68556,-5.10487 1.1243,-5.02963 1.30237,-4.98717 1.36272,-4.97129 1.27473,-4.99413 1.04554,-5.04658 1.14082,-5.02659 1.36371,-4.02341 2.12211,-3.67164 2.86249,-2.79349 3.4668,-2.00147 3.75643,-1.60392 3.90774,-1.18804 4.01597,-0.74298 4.00353,-0.40225 4.022,-0.11655 4.02143,0.1348 4.53691,0.46509 4.51248,0.66138 4.46813,0.91414 5.44155,1.34635 5.38509,1.5568 5.34781,1.68196 5.32435,1.75481 4.23104,1.56156 4.20591,1.62754 4.11979,1.83386 4.00022,2.0829 4.02865,2.54643 3.70353,2.99972 2.68694,3.47253 1.72257,4.02648 0.19708,3.06244 -0.52867,3.03028 -1.39652,2.6929 -2.27429,1.97527 -3.22222,1.03554 -3.38916,0.31326 -5.36519,-0.36611 -5.32532,-0.77634 -5.31897,-0.8199 -5.33902,-0.67082 -5.37103,-0.20981 -3.50616,0.43996 -3.39206,0.99043 -4.77229,2.44683 -4.50924,2.90371 -4.039,3.17202 -3.89116,3.35205 -3.82051,3.43275 -3.81297,3.44115 -3.86814,3.37807 -4.0222,3.1916 -4.26074,2.86256 -3.25492,1.6146 -3.45909,1.1029 -2.95843,0.26873 -2.9442,-0.31563 -3.07614,-1.21231 -2.79347,-1.80647 -2.3899,-3.50224 -0.92956,-4.00211 -0.064,-4.09993 0.64952,-4.81743 1.06357,-4.74621 1.23175,-4.706 1.28881,-4.69095 1.20578,-4.71256 0.98934,-4.76221 1.07919,-4.74332 1.28895,-3.79482 2.00528,-3.46186 2.70446,-2.63267 3.27389,-1.88441 3.54765,-1.50909 3.69,-1.11622 3.79159,-0.69578 3.77971,-0.37421 3.79674,-0.10447 3.79586,0.1328 4.28188,0.44453 4.25859,0.62976 4.21641,0.86829 5.13364,1.27716 5.08009,1.47574 5.04473,1.59393 5.02248,1.66268 3.9898,1.47853 3.966,1.54076 3.8845,1.73529 3.77155,1.96978 3.79775,2.40707 3.49054,2.83428 2.53033,3.28279 1.61953,3.80381 0.18248,2.89268 -0.5015,2.86166 -1.3199,2.54333 -2.14772,1.86664 -3.04054,0.98081 -3.19888,0.2987 -5.06005,-0.34003 -5.02277,-0.7275 -5.01681,-0.7686 -5.0356,-0.62804 -5.06539,-0.19228 -3.30611,0.41873 -3.198,0.93741 -4.49883,2.31172 -4.25055,2.74207 -4.41909,3.51574 -4.25301,3.71578 -4.19468,3.78215 -4.20995,3.76459 -4.37872,3.5647 -4.65493,3.19127 -3.06475,1.52309 -3.25729,1.04164 -5.55661,-0.0391 -2.89523,-1.13861 -2.62912,-1.69885 -2.24866,-3.2949 -0.87355,-3.76514 -0.0584,-3.85696 0.7707,-5.27608 1.2194,-5.19513 1.39312,-5.15216 1.38026,-5.15537 1.15068,-5.21037 1.16572,-5.20799 1.2142,-3.56623 1.88844,-3.25208 2.54643,-2.47186 3.08098,-1.76733 5.07454,-1.93776 5.30381,-1.16949 5.34162,-0.39237 5.35603,0.0846 4.02686,0.42396 4.00468,0.59814 3.9647,0.82244 4.82574,1.20796 4.77509,1.39469 4.74164,1.5059 4.72061,1.57055 4.99149,1.878 4.92024,2.0538 4.75501,2.41106 3.56685,2.26772 3.27755,2.66884 2.37372,3.09305 1.51649,3.58113 -0.30645,5.41596 -3.26443,4.15178 -2.85885,0.92607 -3.0086,0.28414 -4.75491,-0.31396 -4.72023,-0.67865 -4.71466,-0.7173 -4.73218,-0.58526 -4.75974,-0.17474 -3.10606,0.39749 -3.00394,0.88439 -4.22537,2.1766 -3.99187,2.58043 -4.14769,3.30417 -3.99171,3.4918 -3.9369,3.5541 -3.95114,3.53773 -4.10965,3.35025 -4.36894,3.00023 -2.87458,1.43158 -3.05548,0.98038 -5.2106,-0.0313 -2.71431,-1.06491 -2.46477,-1.59121 -2.10744,-3.08757 -0.81753,-3.52818 -0.0528,-3.61397 0.72516,-4.94128 1.14547,-4.86513 1.30833,-4.82474 1.29645,-4.82772 1.08123,-4.87942 1.09517,-4.87723 1.13944,-3.33766 1.77161,-3.04229 2.38838,-2.31104 2.88807,-1.65026 4.75693,-1.80694 4.97053,-1.08647 5.00517,-0.35828 5.01784,0.0887 3.77182,0.40339 3.75079,0.56653 3.71298,0.77658 4.51783,1.13877 4.4701,1.31363 4.43855,1.41788 4.41874,1.47842 4.67022,1.76619 4.60323,1.93068 4.44818,2.26449 3.33595,2.12836 3.06456,2.50341 2.2171,2.90331 1.41345,3.35845 -0.29387,5.07758 -3.06124,3.89358 -5.49549,1.14091 -5.55541,-0.43688 -5.51625,-0.8274 -5.52759,-0.74456 -5.56356,-0.27452 -2.906,0.37625 -2.80989,0.83137 -3.9519,2.04149 -3.7332,2.41879 -3.87629,3.09259 -3.73042,3.26781 -3.6791,3.32606 -3.69234,3.31087 -3.84057,3.1358 -4.08297,2.80918 -2.6844,1.34007 -2.85368,0.91913 -4.86458,-0.0234 -4.83382,-2.47479 -1.9662,-2.88025 -0.76153,-3.2912 -0.0472,-3.371 0.87317,-5.51833 1.35681,-5.42502 1.4937,-5.38997 1.293,-5.43999 1.20704,-5.46063 1.06469,-3.10907 1.65477,-2.83251 2.23035,-2.15021 2.69516,-1.53321 4.43932,-1.6761 4.63724,-1.00347 4.66871,-0.32419 4.67965,0.0927 5.26524,0.65024 5.20971,0.99823 4.20993,1.06957 4.1651,1.23257 4.13546,1.32986 4.11688,1.38629 4.34895,1.65438 4.2862,1.80757 4.14136,2.11791 3.10505,1.98901 2.85158,2.33796 2.06047,2.71357 1.31042,3.13578 -0.0872,3.65032 -1.38227,3.37206 -3.66946,2.12068 -5.28153,0.21635 -5.25728,-0.62429 -5.23909,-0.78665 -5.26222,-0.60771 -4.08147,0.18603 -3.96807,0.95594 -3.67844,1.90638 -3.47451,2.25715 -3.85396,3.09447 -3.70731,3.26965 -3.66281,3.32 -3.70312,3.2741 -3.87343,3.06955 -2.4909,1.61481 -2.65413,1.32947 -5.08557,1.02633 -3.42285,-0.73897 -2.9965,-1.8157 -1.84245,-2.74859 -0.74591,-3.22914 0.207,-4.51685 0.83024,-4.44716 1.25485,-4.7772 1.32458,-4.75856 1.11991,-4.8096 1.07529,-4.82044 0.98994,-2.88049 1.53793,-2.62272 2.07233,-1.98939 2.50224,-1.41614 4.12171,-1.54528 4.30395,-0.92045 4.33226,-0.2901 4.34145,0.0967 4.88327,0.61385 4.83104,0.93658 5.1929,1.37041 5.1258,1.60426 5.09081,1.71322 4.02768,1.54255 3.96919,1.68446 3.83453,1.97134 2.87415,1.84965 2.63859,2.17253 1.90384,2.52383 1.2074,2.91309 -0.0872,3.38994 -1.28602,3.13072 -3.4058,1.974 -4.89264,0.20891 -4.87144,-0.57015 -4.85479,-0.72114 -4.87593,-0.55542 -3.78018,0.18001 -3.67386,0.89228 -3.40497,1.77127 -3.21584,2.09551 -3.56409,2.86743 -3.42834,3.02928 -3.38709,3.07586 -3.42433,3.03355 -3.58201,2.84454 -4.75398,2.72849 -4.69731,0.95517 -3.15959,-0.67675 -2.76624,-1.67344 -1.69981,-2.53532 -0.6868,-2.97907 0.19483,-4.1651 0.76996,-4.10023 1.16142,-4.40154 1.2259,-4.38423 1.03705,-4.43156 0.99571,-4.44163 2.33629,-5.06485 4.22362,-3.12765 3.8041,-1.41445 3.97066,-0.83743 3.99581,-0.25601 4.00326,0.10076 4.50128,0.57748 4.45238,0.87492 4.78305,1.27525 4.72058,1.49086 4.68802,1.59137 3.70641,1.43074 3.65218,1.56134 3.5277,1.82477 2.64325,1.7103 2.4256,2.00709 1.7472,2.33409 1.10439,2.69041 -0.0872,3.12956 -1.18976,2.88937 -3.14215,1.82732 -4.50374,0.20145 -4.4856,-0.51599 -4.47048,-0.65565 -4.48966,-0.50311 -3.47888,0.17399 -3.37965,0.82862 -3.13151,1.63615 -2.95715,1.93387 -4.07138,3.32652 -3.90862,3.51787 -3.90167,3.52549 -4.08943,3.30368 -4.08624,2.37322 -4.58575,1.02349 -2.89631,-0.61453 -2.53598,-1.53118 -2.18486,-5.05104 0.18265,-3.81336 0.70967,-3.7533 1.41365,-5.2609 1.4089,-5.26193 1.16972,-5.31994 2.21797,-4.93584 3.87267,-2.84976 3.4865,-1.28362 3.63737,-0.75442 5.20652,-0.22187 5.19043,0.47739 5.12049,0.98172 4.72613,1.28339 4.65986,1.50766 4.61723,1.63269 4.54093,1.83352 4.37082,2.20516 2.41235,1.57094 2.21261,1.84165 2.59193,4.61209 -0.0871,2.86916 -1.09351,2.64804 -2.87849,1.68063 -5.4857,0.0906 -5.45143,-0.76306 -5.46704,-0.63636 -3.17758,0.16797 -3.08544,0.76496 -2.85805,1.50103 -2.69847,1.77224 -3.71091,3.04038 -3.56234,3.21458 -3.55585,3.2217 -3.72724,3.01979 -3.71795,2.16833 -4.17472,0.94143 -4.93877,-1.94123 -1.98311,-4.5877 0.17048,-3.46161 0.64938,-3.40637 1.28964,-4.76896 1.28557,-4.76984 1.06816,-4.82293 2.02074,-4.47168 3.52173,-2.57188 3.1689,-1.15278 3.30408,-0.67142 4.7271,-0.18202 4.71007,0.45134 4.64497,0.90801 5.34157,1.51001 5.25922,1.77917 5.17713,2.00371 4.97408,2.45763 4.18107,3.1078 2.33228,4.19967 -1.08439,5.01547 -2.61483,1.53395 -4.96769,0.0968 -4.93867,-0.67791 -4.95249,-0.56322 -2.87628,0.16195 -2.79124,0.7013 -2.58458,1.36591 -2.4398,1.6106 -3.35044,2.75425 -3.21608,2.91129 -3.21001,2.91791 -3.36504,2.7359 -3.34968,1.96343 -3.76368,0.85937 -4.44525,-1.73674 -1.78136,-4.12435 0.15831,-3.10987 0.5891,-3.05943 1.16562,-4.27704 1.16222,-4.27776 0.96662,-4.32592 1.82352,-4.0075 3.17078,-2.29399 2.8513,-1.02195 2.97078,-0.58841 4.24768,-0.14218 4.22971,0.42528 4.16946,0.83432 4.78691,1.37616 4.71171,1.61801 4.63709,1.81927 4.45332,2.22517 3.73718,2.80301 2.07263,3.78725 -0.98813,4.51374 -2.35117,1.38726 -4.44968,0.10304 -4.42591,-0.59276 -4.43795,-0.49006 -5.07201,0.79356 -4.44958,2.64995 -3.97092,3.3357 -3.82129,3.50898 -3.97725,3.32738 -2.98142,1.75852 -3.35263,0.77733 -3.95173,-1.53227 -1.5796,-3.661 0.62673,-5.25295 1.41116,-5.11742 1.25594,-5.15611 1.95296,-4.88717 3.69629,-2.36045 4.29473,-1.05216 5.64853,0.0427 5.56302,1.01481 4.23227,1.24228 4.16421,1.45682 4.09704,1.63485 3.93255,1.99275 3.29329,2.49821 1.81298,3.37483 -0.89187,4.01202 -2.08751,1.24058 -5.44299,-0.0686 -5.42611,-0.66698 -5.37564,0.64423 -3.91537,2.35151 -3.49506,2.94981 -3.36222,3.10291 -3.49947,2.94393 -2.61317,1.55359 -2.94157,0.6953 -3.45821,-1.32779 -1.37785,-3.19766 0.5583,-4.57523 1.24334,-4.45486 1.10874,-4.48884 1.71782,-4.25084 3.23776,-2.03354 3.75142,-0.88734 4.92848,0.0771 4.84778,0.92048 4.88709,1.52938 4.78669,1.82166 4.58932,2.26375 2.76753,2.12243 1.63519,3.0334 -0.7956,3.51029 -1.82385,1.0939 -4.72608,-0.0321 -4.71422,-0.55362 -4.66362,0.58914 -4.41241,2.87817 -3.92441,3.5356 -3.98839,3.46053 -4.77544,1.96193 -2.96467,-1.1233 -1.17611,-2.73431 0.82799,-5.16728 1.41314,-5.06162 1.76849,-4.897 2.77926,-1.70659 3.20807,-0.72256 4.20838,0.11151 4.13259,0.82617 4.14955,1.34324 4.06115,1.59249 3.88943,1.96716 2.3418,1.83231 1.35738,2.60631 -0.69934,3.00856 -1.56019,0.94721 -4.00919,0.004 -4.00236,-0.4402 -3.95155,0.53409 -3.71588,2.45558 -3.30479,3.00315 -3.35763,2.94171 -3.99613,1.67498 -2.47115,-0.91882 -0.97435,-2.27097 0.70666,-4.26804 1.19468,-4.17701 1.48968,-4.03697 4.98549,-1.93743 3.48822,0.14588 3.41746,0.7319 5.09035,1.81327 4.84681,2.37771 2.99564,3.72141 -1.89962,3.30736 -4.93563,-0.1436 -4.88664,0.33666 -3.9109,2.81508 -3.53274,3.30205 -4.20457,2.19749 -1.97763,-0.71434 -0.7726,-1.80762 1.09209,-5.00982 1.68034,-4.82833 3.11912,-1.36543 5.39316,0.46581 4.02059,1.40815 3.85371,1.81657 2.99351,2.92259 -0.84151,3.01658 -4.11711,0.23114 -4.12229,0.30686 -4.34663,3.50725 -4.57536,3.04656 -2.05496,-1.85414 0.76216,-3.39138 1.04304,-3.32968 2.68674,-1.39295 3.98874,0.4978 2.9194,1.1417 2.78213,1.44492 2.10253,2.23339 -0.6802,2.27232 -2.97673,0.26282 -2.97769,0.31817 -3.02283,2.54131 -3.17294,2.25168 -1.35968,-1.1863 1.29729,-4.26817 4.37935,-0.2265 2.68731,1.38078 2.053,2.11193 -0.51889,1.52807 -3.38019,0.48126 -4.05069,3.17995 0.41687,-2.33879 3.74126,2.28437 -2.22349,3.56638 1.11175,-1.78319 1.11174,-1.78319 -1.11174,1.78319 -1.11175,1.78319"
         transform="scale(0.264583)"
         inkstitch:manual_stitch="true" />
    </g>
    <g
       id="__color_block_3__"
       inkscape:label="color block 4"
       transform="translate(10.092597,-10.145229)">
      <path
         id="object5533"
         style="fill:none;stroke:#0085ba;stroke-width:0.4"
         d="m 488.90338,166.84187 0.51643,-2.51587 0.51644,-2.51586 -0.51644,2.51586 -0.51643,2.51587 1.03287,-5.03173 1.19368,-4.99602 1.68538,-4.85229 2.28371,-3.72363 3.12216,-3.05546 4.0154,-2.30051 4.25977,-1.8084 4.42966,-1.33959 4.46145,-0.81968 4.51274,-0.46006 4.53391,-0.14202 5.01922,0.18565 4.99736,0.51035 4.97113,0.72217 4.92538,0.98854 4.89013,1.1506 4.86276,1.32167 4.82467,1.45446 4.81025,1.50158 4.79177,1.55955 4.73973,1.71115 4.71497,1.77829 4.77184,2.07497 4.63364,2.36842 4.58751,2.84505 4.22795,3.35619 3.12065,3.87691 2.05731,4.51807 0.30777,3.42218 -0.52071,3.40445 -1.63217,3.3037 -2.32952,1.93873 -2.8217,1.10411 -4.45405,0.41965 -4.46908,-0.20341 -5.31744,-0.74238 -5.29955,-0.86084 -5.31096,-0.78742 -5.33665,-0.58859 -3.91692,-0.01 -3.88533,0.49618 -3.75498,1.11486 -3.57608,1.75251 -3.43198,2.02019 -3.2756,2.26498 -4.03347,3.18574 -3.88597,3.36406 -3.79955,3.46138 -3.78837,3.47362 -3.78779,3.47426 -3.89345,3.3554 -4.05987,3.15197 -3.62568,2.3744 -3.86809,1.95469 -3.63287,1.14488 -3.79147,0.36279 -2.80989,-0.38821 -2.69739,-0.87741 -3.87536,-2.52201 -2.6694,-3.96123 -1.10072,-4.90185 0.0795,-4.49048 0.58685,-4.45224 0.95916,-4.38884 1.24471,-4.77361 1.34033,-4.74766 1.34701,-4.74575 1.21462,-4.78128 0.99341,-4.83214 1.14892,-4.79743 1.61905,-4.65998 2.20628,-3.59432 3.01638,-2.94809 3.88009,-2.21852 4.11587,-1.74264 4.2796,-1.2894 4.31075,-0.78696 4.35993,-0.43931 4.38003,-0.13193 4.7724,0.17758 4.75176,0.48416 4.72796,0.67942 4.84392,0.97385 4.80843,1.13609 4.76687,1.29941 4.72873,1.43202 4.62428,1.45034 4.60643,1.50603 4.55601,1.65229 4.53246,1.71588 4.44679,1.92702 4.64168,2.37916 4.42955,2.75403 4.08167,3.24741 3.01139,3.75405 1.98267,4.3721 0.29413,3.31159 -0.50593,3.29375 -1.57994,3.1966 -2.25326,1.87746 -2.72938,1.07167 -4.30555,0.41002 -4.3207,-0.19181 -5.13946,-0.71249 -5.12229,-0.82694 -5.13324,-0.75599 -5.15788,-0.56389 -3.7866,-0.005 -3.75547,0.4841 -3.62895,1.08147 -3.45657,1.69758 -3.31717,1.95602 -3.16596,2.19236 -3.89759,3.08142 -3.75507,3.25356 -3.67156,3.34753 -3.66075,3.35936 -3.66017,3.35999 -3.76225,3.24525 -3.9231,3.04884 -3.50294,2.29722 -3.73732,1.89208 -3.50939,1.10966 -3.66331,0.35463 -5.3209,-1.21392 -3.74352,-2.43127 -2.57885,-3.82098 -1.06397,-4.72913 0.0757,-4.33153 0.56561,-4.29467 0.92514,-4.23348 1.41595,-5.36674 1.51089,-5.34093 1.45333,-5.35635 1.22031,-5.41316 1.23929,-5.40982 1.74671,-5.26504 2.12673,-3.46422 2.90866,-2.84012 3.74274,-2.13584 3.96995,-1.67619 4.12753,-1.23854 4.15807,-0.75355 4.20509,-0.41788 4.22408,-0.12115 4.60313,0.17816 4.58284,0.47331 4.55961,0.66174 4.6716,0.94618 4.63711,1.10276 4.59678,1.26032 4.55972,1.38844 4.45882,1.40595 4.44151,1.45969 4.39264,1.60079 4.36979,1.66213 4.28679,1.86579 4.47529,2.3024 4.26998,2.66393 3.93358,3.13946 2.89934,3.63254 1.90475,4.22686 0.27828,3.20191 -0.49299,3.18351 -1.52974,3.09019 -2.17909,1.81693 -2.63903,1.03985 -4.15903,0.4011 -4.1744,-0.17953 -4.9635,-0.68192 -4.94707,-0.79234 -4.95756,-0.72389 -4.9811,-0.5385 -5.47234,0.23677 -5.31855,1.28583 -4.94131,2.5895 -4.6605,3.0668 -4.36836,3.50138 -4.20367,3.69799 -4.13111,3.77939 -4.12395,3.78722 -4.20567,3.69541 -4.39393,3.46889 -3.38226,2.22075 -3.60855,1.83013 -3.38791,1.07512 -3.5372,0.34719 -5.13858,-1.16086 -3.6137,-2.33984 -2.49032,-3.68004 -1.02925,-4.55573 0.0697,-4.17169 0.54227,-4.13646 0.88929,-4.07758 1.36146,-5.16787 1.45304,-5.14302 1.3976,-5.15784 1.17125,-5.21286 1.18818,-5.21001 1.67763,-5.07083 2.04448,-3.33362 2.79854,-2.73194 3.60278,-2.05278 3.82148,-1.6094 3.97299,-1.18733 4.00284,-0.71979 4.04771,-0.3961 4.06556,-0.11003 4.43135,0.17915 4.41136,0.4628 4.38869,0.64438 4.49677,0.91887 4.46328,1.06977 4.42411,1.2216 4.3881,1.3452 5.35941,1.71531 5.31894,1.83505 5.26675,1.98146 5.17531,2.20708 4.30647,2.22609 4.10786,2.5742 3.78281,3.03177 2.78377,3.51189 1.8227,4.0818 0.25967,3.09289 -0.48239,3.07333 -1.48208,2.98412 -4.65869,2.76515 -4.01505,0.39251 -4.03065,-0.16688 -4.7901,-0.651 -4.77442,-0.7574 -4.78442,-0.69143 -4.80685,-0.51275 -5.28402,0.23741 -5.1344,1.24797 -4.77116,2.50398 -4.5004,2.96371 -4.21594,3.37981 -4.05727,3.56918 -3.98736,3.64764 -3.98046,3.65517 -4.05917,3.56675 -4.24053,3.34853 -3.26417,2.14466 -3.48229,1.76852 -3.269,1.04094 -3.41362,0.34008 -4.96135,-1.10708 -3.48644,-2.24807 -2.40433,-3.53874 -0.99708,-4.38198 0.061,-4.01125 0.51629,-3.97795 0.85114,-3.92152 1.30398,-4.9685 1.39218,-4.94464 1.33887,-4.95885 1.11764,-5.01227 1.13138,-5.0102 1.60301,-4.87712 1.95702,-3.20274 2.68392,-2.62416 3.45771,-1.96968 3.66819,-1.54271 3.81377,-1.13625 3.8427,-0.68608 3.88548,-0.37437 3.90223,-0.099 4.25471,0.18011 4.23504,0.45221 4.21287,0.62693 4.31715,0.89151 4.28459,1.03672 4.24656,1.1828 4.21158,1.30191 5.1436,1.65976 5.10436,1.77494 5.05378,1.91575 4.9652,2.13272 4.13299,2.14983 3.94091,2.48447 3.62695,2.92383 2.66141,3.39178 1.73285,3.93602 0.23576,2.98437 -0.47621,2.96253 -1.31615,2.63178 -2.17416,1.95136 -3.08559,1.03042 -3.25656,0.32252 -5.1737,-0.32823 -5.13644,-0.73003 -5.13046,-0.77206 -5.14941,-0.62716 -5.17857,-0.1741 -3.38626,0.45045 -3.271,0.98525 -4.60815,2.41828 -4.34776,2.86063 -3.91384,3.12365 -3.7682,3.29821 -3.69886,3.37618 -3.69144,3.38428 -3.74594,3.32298 -3.8975,3.14241 -4.12958,2.82796 -3.15865,1.60333 -3.3612,1.10959 -2.87171,0.28832 -2.86373,-0.27481 -2.9915,-1.15234 -2.71622,-1.7411 -2.32321,-3.39751 -0.89669,-3.89112 -0.0475,-3.98469 0.8218,-5.46943 1.28657,-5.38362 1.46693,-5.33824 1.45276,-5.34185 1.19934,-5.40293 1.20281,-5.40354 1.25817,-3.70669 1.9603,-3.38006 2.652,-2.57399 3.21046,-1.83711 3.48399,-1.47043 3.62281,-1.08379 3.72136,-0.67026 5.58453,-0.40114 5.5988,0.0973 5.61616,0.66021 5.56466,0.99888 5.50463,1.29636 5.33653,1.54123 5.29441,1.68141 5.27048,1.7549 5.25852,1.98226 5.18365,2.16675 5.01029,2.54126 3.30186,2.09716 3.07303,2.41491 2.68884,2.82368 1.86898,3.59555 0.69142,3.98715 -0.51439,3.06363 -1.40565,2.77024 -4.37725,2.57617 -3.74601,0.37251 -3.76164,-0.14448 -4.46197,-0.59202 -4.44782,-0.69037 -4.45685,-0.62936 -4.47708,-0.46411 -4.9346,0.23428 -4.79496,1.16808 -4.45817,2.32821 -4.20902,2.7537 -4.39275,3.5295 -4.22659,3.72773 -4.16848,3.79324 -4.1841,3.77544 -4.35282,3.57747 -4.62723,3.21059 -3.05421,1.5434 -3.24835,1.06822 -5.54873,0.0193 -2.89309,-1.10029 -2.62849,-1.67171 -2.25107,-3.25901 -0.8792,-3.73073 -0.068,-3.82452 0.75983,-5.24652 1.20909,-5.16595 1.38254,-5.12316 1.36859,-5.12666 1.11812,-5.18548 1.1164,-5.18734 1.18047,-3.55957 1.85217,-3.25315 2.51447,-2.47461 3.05572,-1.76917 5.03782,-1.9392 5.26914,-1.1699 5.31592,-0.39199 5.33036,0.0864 4.01878,0.42681 3.99633,0.60179 3.95589,0.82685 4.82672,1.21701 4.77543,1.40477 4.74161,1.51642 4.72038,1.58125 5.00574,1.89578 4.93354,2.07276 4.76678,2.43119 3.58435,2.29141 3.29204,2.6946 2.3808,3.1316 1.51394,3.62 -0.32599,5.47862 -3.32114,4.22071 -2.89751,0.94685 -3.05111,0.29629 -4.82839,-0.30416 -4.79425,-0.67525 -4.78877,-0.71405 -4.80614,-0.58018 -4.8329,-0.16192 -3.16905,0.41291 -3.06471,0.90622 -4.31808,2.22372 -4.08162,2.63318 -4.24974,3.37662 -4.09146,3.56758 -4.0361,3.6307 -4.05109,3.61343 -4.21193,3.42254 -4.47489,3.06668 -2.95736,1.47512 -3.14208,1.01653 -5.37618,0.006 -2.80194,-1.05866 -2.54766,-1.61057 -2.18601,-3.12985 -0.86825,-3.57913 -0.096,-3.67425 0.39745,-3.60093 0.71773,-3.55209 1.3207,-5.27354 1.402,-5.25275 1.23502,-5.29302 1.05218,-5.33313 1.52765,-5.2118 1.65532,-2.84088 2.30954,-2.34024 4.56928,-2.44268 4.89298,-1.70857 5.00639,-0.7921 5.06218,-0.27309 5.52436,0.33524 5.48722,0.73756 4.93117,1.06266 4.88059,1.27405 4.82753,1.4635 4.79704,1.56168 4.75476,1.68425 4.70719,1.81454 4.78711,2.24708 4.56168,2.67057 4.17531,3.23839 2.24341,2.98102 1.40952,3.44389 -0.36346,5.21874 -1.3458,2.52457 -4.1297,2.32796 -3.49597,0.32316 -3.50753,-0.15194 -5.53002,-0.78011 -5.52238,-0.83333 -5.54704,-0.64415 -4.60617,0.1861 -4.48538,1.04441 -4.16847,2.10681 -3.94519,2.50049 -4.0984,3.21286 -3.94813,3.39661 -3.89556,3.45736 -3.9099,3.44062 -4.06274,3.25675 -4.3142,2.91138 -2.85458,1.39903 -3.02935,0.95625 -3.71018,0.17388 -3.61458,-0.8634 -3.05793,-1.95357 -2.08856,-2.9716 -0.85189,-3.43643 -0.11716,-3.53146 0.6231,-4.83292 1.04292,-4.76425 1.20268,-4.72727 1.18957,-4.73036 0.96946,-4.77917 0.97756,-4.77861 1.13958,-3.56271 1.57021,-2.72545 2.19788,-2.25002 3.82195,-2.11825 4.08959,-1.53731 4.26632,-0.94675 4.81526,-0.3926 4.83167,0.0456 5.45646,0.6329 5.4005,0.99961 4.64162,1.16124 4.59072,1.34861 4.55993,1.45081 4.52576,1.55281 4.47322,1.69922 4.39451,1.8911 3.40241,1.79043 3.23891,2.07159 2.41705,1.98522 2.10383,2.30158 1.90545,4.26837 -0.37586,4.96641 -1.30035,2.40195 -3.97468,2.2032 -4.54665,0.24339 -4.5365,-0.42675 -4.50914,-0.68527 -4.511,-0.6742 -4.5317,-0.51479 -4.41881,0.16158 -4.30686,0.98202 -4.00065,1.99592 -3.78937,2.37309 -3.93073,3.05403 -3.78799,3.23013 -3.73803,3.28838 -3.7517,3.27228 -3.89698,3.09594 -4.137,2.76299 -2.73893,1.32596 -2.90444,0.90049 -3.56302,0.15026 -3.4674,-0.84285 -2.93166,-1.87657 -2.00599,-2.84866 -0.82417,-3.29109 -0.12456,-3.38376 0.75195,-5.54128 1.24688,-5.45694 1.38371,-5.42489 1.1783,-5.47152 1.08953,-5.49086 1.68635,-4.45867 2.98041,-3.70129 3.63844,-2.02556 3.8948,-1.47171 4.06436,-0.90838 4.58505,-0.37956 4.60119,0.0386 5.19604,0.59891 5.14287,0.94884 5.29552,1.34768 5.23051,1.58224 5.19373,1.70045 5.12444,1.89778 5.03168,2.1291 3.23744,1.70413 3.08143,1.97229 2.2977,1.88953 1.99802,2.19154 1.8009,4.06299 -0.37482,4.72812 -1.24817,2.28635 -3.8062,2.09248 -5.43308,0.17444 -5.40256,-0.67211 -5.38333,-0.83507 -5.40768,-0.654 -4.22246,0.14773 -4.11715,0.93001 -3.82334,1.8959 -3.62286,2.25588 -3.75441,2.90446 -3.61875,3.07255 -3.57125,3.12817 -3.58425,3.11281 -3.72237,2.94441 -3.95105,2.62568 -2.61614,1.25911 -2.77321,0.85255 -4.75782,-0.0525 -4.73295,-2.38098 -1.94047,-2.7524 -0.88009,-4.61015 0.22975,-4.70428 1.08626,-5.31082 1.29967,-5.26348 1.26078,-5.27264 1.01691,-5.32466 1.44581,-5.21882 2.46383,-3.5477 3.51932,-2.50267 4.13231,-1.64148 4.33104,-1.00355 4.36233,-0.35411 4.37705,0.044 4.94292,0.5774 4.89179,0.91044 5.26921,1.35559 5.2015,1.59686 5.16615,1.70901 4.10026,1.5496 4.04027,1.69679 3.90158,1.99457 2.93219,1.88406 2.6883,2.21825 1.9109,2.57484 1.18357,2.97086 -0.36454,4.50639 -1.19137,2.17903 -3.62849,1.99832 -5.17205,0.17258 -5.14397,-0.63334 -5.12583,-0.78884 -5.14878,-0.61657 -4.02041,0.14647 -3.91929,0.89027 -3.63971,1.80861 -3.44882,2.15078 -4.26766,3.343 -4.10868,3.53791 -4.07418,3.57811 -4.19027,3.43884 -4.48404,3.04081 -5.1261,2.01344 -4.52514,-0.0436 -4.50084,-2.25646 -1.84535,-2.61236 -0.83807,-4.37525 0.2163,-4.46521 1.02894,-5.03524 1.23152,-4.99034 1.19501,-4.99892 0.97144,-5.04681 1.37964,-4.9453 2.34658,-3.3533 3.345,-2.3572 3.92974,-1.54108 4.11587,-0.93409 4.14677,-0.31776 4.15905,0.0603 4.69678,0.56686 4.64702,0.88293 5.00547,1.30728 4.94025,1.53646 4.90626,1.64296 3.8936,1.4875 3.83616,1.62704 3.70392,1.9085 2.7838,1.80041 2.55149,2.11687 1.81453,2.46196 1.12304,2.8361 -0.34541,4.29923 -1.13014,2.07899 -3.44192,1.91873 -4.90307,0.18304 -4.8791,-0.58386 -4.8623,-0.73231 -4.88356,-0.56877 -3.8128,0.15626 -3.7137,0.86132 -3.44998,1.73255 -3.26759,2.0563 -4.04325,3.18688 -3.89197,3.37122 -3.8591,3.40929 -3.96941,3.27775 -4.2484,2.90238 -4.85399,1.92978 -4.28361,-0.0202 -4.25988,-2.11738 -1.74579,-2.46504 -0.78982,-4.13007 0.2099,-4.21456 0.98102,-4.75798 1.17311,-4.71503 1.13802,-4.72335 0.91266,-4.77165 1.29785,-4.67645 2.21494,-3.17554 3.16191,-2.23313 3.71409,-1.45907 3.89062,-0.8843 3.91874,-0.3004 3.93035,0.0576 4.43848,0.53722 4.39125,0.83646 4.72818,1.2379 4.66629,1.45488 4.63401,1.55573 3.67623,1.40808 3.62173,1.54013 3.4964,1.80619 2.62745,1.70385 2.4072,2.00303 1.70665,2.33018 1.05085,2.68219 -0.34172,4.0667 -1.07662,1.96628 -3.2708,1.81377 -4.64795,0.17202 -4.62518,-0.55303 -4.60926,-0.69372 -4.62937,-0.53901 -3.61488,0.14679 -3.52159,0.81358 -3.27089,1.63695 -3.09888,1.94332 -3.8307,3.01074 -3.68795,3.18518 -3.65693,3.22123 -3.761,3.09676 -4.02463,2.74099 -4.59732,1.82074 -4.05751,-0.0222 -4.03436,-2.00366 -1.65397,-2.33041 -0.75243,-3.9028 0.19121,-3.98406 0.91894,-4.49325 1.10034,-4.453 1.06737,-4.46076 0.85711,-4.50555 1.22119,-4.41591 2.88734,-3.81298 4.50019,-2.2966 3.60367,-0.96417 3.70249,-0.47639 3.87443,-0.0142 3.85953,0.33937 4.89947,0.87246 4.82258,1.23144 4.75178,1.48381 4.71082,1.60948 4.63888,1.80711 3.47849,1.66226 3.31111,1.97128 3.02391,2.3863 2.58222,4.73393 -0.33483,3.839 -1.59991,2.30317 -2.51809,1.26644 -4.39001,0.16509 -4.36898,-0.51865 -4.35404,-0.65171 -4.37288,-0.50581 -3.41493,0.14098 -3.32672,0.76943 -3.08958,1.54507 -2.92761,1.83385 -3.61568,2.83843 -3.48133,3.00282 -3.45208,3.03682 -3.55003,2.91955 -3.79839,2.58398 -4.33746,1.71655 -3.82823,-0.0193 -3.80565,-1.88512 -1.56053,-2.19336 -0.7128,-3.67213 0.17506,-3.74971 1.10089,-5.2757 1.31723,-5.227 1.05368,-5.28497 1.36691,-5.20712 2.7122,-3.57896 4.229,-2.15151 3.38624,-0.90004 3.47842,-0.44088 3.63968,-0.006 3.62502,0.32607 4.60059,0.82885 4.52759,1.16622 4.46045,1.40359 4.42163,1.52179 4.35354,1.70756 4.85333,2.43613 4.35064,3.23968 2.41045,4.4611 -0.32562,3.61504 -3.88508,3.36479 -5.50477,0.0501 -5.46621,-0.78597 -5.48209,-0.66137 -3.2135,0.13803 -3.12982,0.72803 -2.90667,1.45608 -2.75444,1.72711 -4.22969,3.3601 -4.06469,3.55981 -4.10401,3.51355 -4.4261,3.08981 -3.70223,1.50328 -3.96965,0.10008 -2.94106,-1.36694 -2.09948,-2.45033 -0.67152,-3.43883 0.16076,-3.51238 1.02716,-4.93647 1.23004,-4.89091 0.98545,-4.94467 1.28134,-4.87103 2.54087,-3.33915 3.9616,-2.00064 3.17196,-0.83165 3.25688,-0.40095 3.40795,0.007 3.39319,0.31692 4.20344,0.76827 4.13765,1.06974 4.0758,1.28754 4.04305,1.38813 3.83781,1.51234 3.72758,1.76023 3.51197,2.15737 3.00067,2.94526 1.29645,4.50753 -1.28659,3.46052 -2.73938,1.52667 -5.15414,0.0622 -5.12008,-0.72241 -5.13463,-0.6058 -3.00966,0.13947 -2.92965,0.69093 -2.72113,1.37153 -2.57821,1.62461 -3.5367,2.8025 -3.40189,2.96601 -3.39661,2.97197 -3.55227,2.78222 -3.58058,2.01077 -3.99395,0.85777 -4.78453,-1.81682 -1.97737,-4.27897 0.0534,-3.22883 0.51046,-3.19016 1.07329,-4.46844 1.06872,-4.46932 0.87378,-4.51127 1.75976,-4.21258 3.22435,-2.45473 3.84239,-1.38041 4.19929,-0.5325 4.23253,0.11003 4.19488,0.59302 4.94018,1.21256 4.84568,1.54974 4.78237,1.73477 4.66957,2.01655 3.12922,1.83218 2.84986,2.23766 1.68031,2.53429 0.10379,4.58257 -2.01901,2.45216 -5.28223,0.67897 -5.34306,-0.6898 -5.35431,-0.59164 -5.29613,0.79566 -4.28711,2.37996 -3.88049,3.00437 -3.69278,3.23688 -3.71257,3.21365 -4.00077,2.83892 -3.21238,1.32711 -3.45236,0.11597 -4.37462,-3.27428 -0.58211,-2.96265 0.13994,-3.02673 0.88983,-4.24606 1.06568,-4.20629 0.85923,-4.25223 1.12038,-4.18619 3.87435,-3.80024 2.67549,-1.00102 2.79587,-0.584 5.6366,-0.0701 5.57672,0.92073 5.44266,1.53199 5.34078,1.86282 4.00513,1.63935 3.83345,2.00213 3.43293,2.6232 1.92833,3.68325 -0.27582,2.97026 -3.15308,2.79097 -4.44119,0.0971 -4.4176,-0.58607 -4.4293,-0.48537 -5.11514,0.77365 -3.9601,2.23084 -3.58383,2.80193 -3.40966,3.01555 -3.42784,2.99442 -3.69503,2.65052 -2.95881,1.2443 -3.18735,0.13168 -4.0304,-2.993 -0.3966,-5.49869 1.15789,-5.18144 1.22595,-5.16604 1.29268,-5.14208 2.05436,-2.59929 3.18696,-1.52759 5.16267,-0.87699 3.72266,0.14076 3.6837,0.56839 5.02283,1.34006 4.91548,1.69608 4.82413,1.93978 3.61707,1.89862 3.23416,2.48821 1.78738,3.43516 -0.24604,2.76279 -2.88934,2.61089 -4.07276,0.1209 -4.05531,-0.51232 -4.06551,-0.41953 -4.68598,0.75404 -4.12951,2.43579 -3.69479,3.06508 -3.55993,3.22337 -3.70103,3.0569 -4.43284,2.20663 -5.23515,-1.17284 -1.5579,-4.90184 0.96753,-5.26811 1.31575,-5.20082 1.32683,-5.18919 1.91236,-2.34819 4.53029,-1.78708 3.19548,-0.33001 3.21082,0.13472 3.61803,0.58335 3.54601,0.92668 5.08092,1.74214 4.97689,2.01944 3.33,1.76995 2.97797,2.30701 1.72535,4.37925 -1.80694,3.35063 -5.42573,0.51906 -5.49808,-0.62525 -5.43896,0.64136 -4.61296,2.97471 -4.11178,3.65605 -4.11759,3.64857 -4.76906,2.66496 -4.70621,-1.00978 -1.36381,-2.98289 0.68382,-5.2557 1.36702,-5.14497 1.38464,-5.13185 1.87429,-2.15136 2.63288,-1.163 2.91258,-0.56084 2.9687,-0.0459 3.24845,0.38572 3.19491,0.70513 5.30159,1.72625 5.17685,2.07241 4.83543,2.757 2.89968,4.09216 -1.50888,4.16706 -4.40854,0.56167 -4.48446,-0.50071 -4.48596,0.13877 -4.32366,2.35663 -3.72457,3.2632 -3.6096,3.39367 -4.03423,2.84825 -4.08772,0.29094 -2.05507,-1.92226 -0.16597,-4.02133 1.33411,-4.96238 1.29163,-4.97434 3.38953,-3.85907 5.30842,-1.00262 2.88756,0.18514 2.85192,0.49646 5.35296,1.60834 5.20688,2.03738 4.87696,2.71107 2.67517,3.70365 -1.27423,3.766 -3.87702,0.53097 -3.95347,-0.42502 -3.9509,0.15054 -3.78685,2.1427 -3.24974,2.93092 -3.14616,3.04499 -3.52675,2.57074 -3.54469,0.28787 -1.78017,-1.69697 -0.0724,-3.55526 1.27428,-4.38301 1.23084,-4.39598 3.09997,-3.40271 4.95465,-0.85741 5.01457,0.62714 4.3565,1.28651 4.24802,1.61305 4.07793,1.99546 3.3393,3.26626 -0.77607,4.18326 -5.07867,0.30722 -5.14669,-0.0344 -4.22753,2.73537 -3.6139,3.56259 -3.94551,3.16063 -3.02012,0.26683 -1.5145,-1.48066 0.69733,-5.4308 1.65698,-5.31596 2.78133,-2.94717 4.39479,-0.71794 4.43761,0.57678 3.83981,1.14413 3.74459,1.42875 3.59603,1.7619 2.94957,2.86449 -0.61448,3.65948 -4.33635,0.29247 -4.39839,-0.005 -3.57872,2.38953 -3.04745,3.08593 -3.33269,2.74972 -2.52463,0.24497 -1.26337,-1.26476 0.69949,-4.6375 1.51299,-4.5236 2.45226,-2.49196 3.29393,-0.57681 3.34166,0.30974 4.97225,1.44062 4.77372,2.01099 3.49488,2.99881 -0.46594,3.13526 -3.60588,0.27729 -3.66174,0.0238 -4.20309,3.33184 -3.96162,3.65881 -3.05702,-0.82626 0.68733,-3.84207 1.35605,-3.73127 2.1104,-2.03121 2.79402,-0.43875 2.8226,0.29648 4.17307,1.24534 4.00473,1.71771 2.92571,2.51829 -0.33339,2.61798 -2.8896,0.26833 -2.93966,0.0589 -3.11101,2.53876 -2.8114,2.91099 -2.53289,0.21587 -0.14595,-2.2589 1.20699,-2.94419 1.64723,-2.62204 4.47077,-0.38173 3.42346,0.93722 3.27992,1.36746 2.706,1.94346 0.29355,2.22647 -4.64898,0.64709 -2.28089,2.01926 -2.04377,2.29049 -1.78865,0.21867 0.62939,-3.03128 1.74543,-2.66403 3.47443,-0.15452 4.6258,1.65069 2.50365,1.7274 0.27409,1.68471 -3.14814,0.61827 -3.7883,3.40221 2.02947,-3.55725 4.31332,0.72452 3.29747,2.78502 -3.17668,3.10952 1.48914,-1.38628 1.86835,0.37343 2.52517,1.98242 1.55181,2.33229 -0.77591,-1.16614 -0.7759,-1.16615 0.7759,1.16615 0.77591,1.16614"
         transform="scale(0.264583)"
         inkstitch:manual_stitch="true" />
    </g>
    <g
       id="__color_block_4__"
       inkscape:label="color block 5"
       transform="translate(10.092597,-10.145229)">
      <path
         id="object9531"
         style="fill:none;stroke:#ffc300;stroke-width:0.4"
         d="m 642.38414,189.17032 0.49983,-2.53161 0.49983,-2.53161 -0.49983,2.53161 -0.49983,2.53161 0.99966,-5.06322 1.16171,-5.02851 1.65592,-4.8881 2.25414,-3.76214 3.10453,-3.09795 3.99916,-2.34129 4.24914,-1.84926 4.42405,-1.37959 4.46302,-0.8583 4.51761,-0.49641 4.5414,-0.17615 4.5436,0.10563 5.14387,0.47923 5.11835,0.70112 5.07113,0.9863 5.03461,1.15836 4.99166,1.33139 4.85191,1.44111 4.83791,1.48748 4.81928,1.54676 4.76708,1.70085 4.74255,1.76808 4.65386,1.98985 4.87104,2.47057 4.64997,2.86503 4.28707,3.38405 3.17796,3.9042 2.10379,4.55967 0.3227,3.45908 -0.52101,3.44331 -1.6478,3.32987 -2.35588,1.95363 -2.85602,1.09911 -4.52043,0.40178 -4.53217,-0.23428 -5.40962,-0.78746 -5.39047,-0.90933 -5.40243,-0.83534 -5.42975,-0.63397 -3.99799,-0.0414 -3.9698,0.47523 -3.84204,1.10668 -3.66947,1.76063 -3.52489,2.03471 -3.36782,2.28535 -4.16473,3.23646 -4.01527,3.42014 -3.92815,3.51983 -3.91782,3.53135 -3.91797,3.53118 -4.02632,3.4071 -4.19538,3.19663 -3.76599,2.41545 -4.01147,1.98111 -3.77569,1.15394 -3.9326,0.34741 -2.92689,-0.41955 -2.80891,-0.92324 -4.01669,-2.62506 -2.76952,-4.10453 -1.14907,-5.06977 0.0373,-4.42451 0.52096,-4.39391 1.07872,-5.00076 1.27757,-4.95371 1.37673,-4.92708 1.38315,-4.92524 1.24637,-4.96152 1.0237,-5.0123 1.18566,-4.9763 1.67108,-4.83518 2.27539,-3.74413 3.12142,-3.0746 4.00639,-2.31028 4.25269,-1.81757 4.38617,-1.33466 4.50669,-0.84061 4.51744,-0.46439 4.53897,-0.14371 4.53915,0.13832 5.13067,0.51505 5.1036,0.73642 5.05437,1.02103 4.98543,1.18536 4.94176,1.35587 4.90193,1.49348 4.81675,1.52032 4.79769,1.57941 4.74436,1.73307 4.71936,1.80004 4.8068,2.1128 4.66497,2.41074 4.61829,2.89471 4.25179,3.41033 3.13709,3.92428 2.05821,4.56944 0.29113,3.45875 -0.54975,3.43565 -1.67432,3.31544 -2.37203,1.93693 -2.86516,1.0804 -4.52098,0.37351 -4.52883,-0.26133 -5.39886,-0.81902 -5.37901,-0.94057 -5.39137,-0.86695 -5.41983,-0.66628 -3.99364,-0.0656 -3.96871,0.44984 -3.84528,1.08057 -3.67631,1.73345 -3.53401,2.00772 -3.37908,2.25878 -4.17787,3.20014 -4.03019,3.38425 -3.94407,3.48423 -3.9339,3.49572 -3.9341,3.49547 -4.04129,3.37099 -4.20845,3.15981 -3.77327,2.38235 -4.01494,1.94759 -3.77368,1.12428 -3.92444,0.31925 -2.91623,-0.43847 -2.79522,-0.93966 -3.98675,-2.64364 -2.73348,-4.10916 -1.11193,-5.05951 0.0659,-4.40765 0.54773,-4.374 1.1068,-4.97132 1.30462,-4.92312 1.40336,-4.89589 1.41006,-4.89394 1.2743,-4.93093 1.05223,-4.98314 1.21324,-4.94624 1.69632,-4.80226 2.28907,-3.70781 3.12674,-3.03507 4.00181,-2.26743 4.24326,-1.77499 4.37196,-1.29306 4.48807,-0.80022 4.49509,-0.42557 4.51394,-0.10622 4.51183,0.1745 5.09633,0.55335 5.06761,0.77343 5.01629,1.05627 4.94487,1.21887 4.90002,1.38815 4.8592,1.5249 4.77218,1.55026 4.75274,1.60889 4.69839,1.7613 4.67294,1.82775 4.7559,2.13896 4.6126,2.43348 4.56198,2.91422 4.19321,3.42367 3.07714,3.92941 1.99769,4.56009 0.25428,3.44353 -0.57946,3.41238 -1.54994,3.00128 -2.53143,2.19858 -2.85916,1.05242 -4.50262,0.34218 -4.50635,-0.28845 -5.07513,-0.80249 -5.05687,-0.91009 -5.06643,-0.85542 -5.09095,-0.69139 -5.12747,-0.24081 -3.95285,0.42157 -3.83431,1.04944 -3.66724,1.69744 -3.52793,1.97067 -3.37595,2.22104 -4.0933,3.0879 -3.95367,3.26462 -3.87107,3.36221 -3.85856,3.37665 -3.8582,3.37706 -3.95161,3.26693 -4.10419,3.07225 -4.3243,2.75148 -3.76526,1.79184 -3.99026,1.19988 -3.40572,0.25111 -3.37797,-0.42033 -3.51886,-1.45945 -3.17998,-2.14019 -2.68257,-4.09263 -0.98802,-4.64654 0.0148,-4.74099 0.862,-5.59163 1.34269,-5.49957 1.53767,-5.44903 1.60386,-5.43022 1.50795,-5.45716 1.2562,-5.51997 1.36227,-5.49553 1.59244,-4.41507 2.41838,-4.01308 3.21682,-3.03739 3.8685,-2.15433 4.18505,-1.71326 4.34525,-1.25188 4.4574,-0.76005 4.44642,-0.38502 4.46254,-0.0689 4.45818,0.20892 5.03249,0.58765 5.00231,0.80509 4.94927,1.0845 4.84627,1.23681 4.80111,1.40175 4.76008,1.5353 4.74425,1.58371 4.7243,1.64225 4.71497,1.81368 4.68568,1.88753 4.58654,2.11619 4.44837,2.39426 4.47989,2.91513 4.11107,3.41564 2.99885,3.90985 1.92477,4.52261 0.21506,3.40809 -0.60654,3.3689 -1.5637,2.95869 -2.52809,2.15505 -2.84385,1.02193 -4.46203,0.30935 -4.46171,-0.31354 -5.01752,-0.82478 -4.99886,-0.93077 -5.00865,-0.87673 -5.03387,-0.71469 -5.07272,-0.26903 -3.91457,0.39234 -3.80153,1.01324 -3.63909,1.65355 -3.50342,1.92438 -3.35504,2.17278 -4.06495,3.02143 -3.92841,3.19678 -3.8475,3.29377 -3.83511,3.30829 -3.83465,3.30883 -3.92587,3.19971 -4.07503,3.00666 -4.29024,2.68831 -3.72953,1.74376 -3.94755,1.15828 -3.36396,0.2262 -3.33241,-0.4358 -3.46386,-1.46058 -3.1254,-2.13044 -2.62225,-4.05135 -0.94762,-4.58558 0.0408,-4.673 0.87986,-5.50106 1.3531,-5.40762 1.54483,-5.35676 1.6099,-5.33785 1.51558,-5.36494 1.26813,-5.42818 1.37197,-5.40363 1.59116,-4.33333 2.40186,-3.93283 3.18167,-2.96597 3.81755,-2.09239 4.12554,-1.65584 4.28004,-1.20073 4.38702,-0.71579 4.37259,-0.34678 4.38618,-0.0357 4.37989,0.23751 4.94127,0.61315 4.91007,0.82663 4.85592,1.101 4.75114,1.24926 4.70563,1.41089 4.66434,1.54186 4.64849,1.58917 4.62854,1.64638 4.61539,1.81363 4.58617,1.88577 4.48718,2.10967 4.34972,2.38141 4.3765,2.8931 4.0105,3.38228 2.90895,3.86361 1.84734,4.45639 0.17951,3.35282 -0.62519,3.3071 -1.56423,2.90158 -2.50719,2.10305 -3.52355,1.03565 -3.68667,0.23633 -4.88305,-0.4135 -4.83337,-0.81987 -4.81434,-0.92525 -4.82587,-0.86295 -4.85123,-0.70402 -4.89026,-0.27285 -3.85319,0.36794 -3.74512,0.97823 -3.58703,1.60701 -3.45522,1.87369 -3.31076,2.11853 -4.00727,2.94531 -3.87421,3.11809 -3.79518,3.21388 -3.78285,3.22848 -3.7822,3.22924 -3.87084,3.12209 -4.01603,2.93221 -4.22561,2.61883 -3.66783,1.69344 -3.87882,1.11858 -3.30108,0.20735 -3.26741,-0.44106 -3.39051,-1.44512 -3.05584,-2.10103 -2.55375,-3.97989 -0.91009,-4.4946 0.0581,-4.57633 0.88228,-5.37874 1.34519,-5.28543 1.53246,-5.23492 1.5959,-5.21623 1.50343,-5.24316 1.25962,-5.30645 1.36012,-5.28234 1.56963,-4.23014 2.36097,-3.83578 3.11949,-2.88511 3.73811,-2.0278 4.0365,-1.59915 4.1855,-1.15354 4.28792,-0.67881 4.27095,-0.31807 4.28276,-0.014 4.27532,0.25283 4.82152,0.62168 4.79008,0.82988 4.73591,1.09758 4.63056,1.24106 4.58547,1.39839 4.5446,1.52595 4.529,1.57176 4.50939,1.62719 4.49327,1.78919 4.46458,1.85914 4.36703,2.07712 4.23189,2.34133 4.25531,2.84065 3.89577,3.31662 2.81232,3.78374 1.77125,4.3562 0.15185,3.2756 -0.63133,3.22578 -1.54816,2.83029 -2.46635,2.04337 -3.45582,1.00033 -3.6119,0.22038 -4.77606,-0.41653 -4.72665,-0.81276 -4.70791,-0.91522 -4.71937,-0.854 -4.74453,-0.69847 -4.78357,-0.27685 -3.7699,0.35107 -3.66585,0.94729 -3.51101,1.56075 -3.38302,1.82163 -3.24255,2.06132 -4.46337,3.29442 -4.30938,3.49382 -4.23606,3.58281 -4.22835,3.5919 -4.28665,3.52109 -4.44719,3.31437 -4.69347,2.95214 -3.58146,1.64539 -3.78603,1.08496 -3.22035,0.19783 -3.18682,-0.43358 -3.30441,-1.41101 -2.9775,-2.05052 -2.4856,-3.87897 -0.88347,-4.37691 0.0587,-4.4559 0.86124,-5.23394 1.31179,-5.14288 1.49363,-5.09375 1.55485,-5.07568 1.46405,-5.10216 1.22349,-5.16455 1.3226,-5.14082 1.52814,-4.11677 2.29849,-3.7327 3.03455,-2.80295 3.6366,-1.96692 3.92348,-1.54668 4.06796,-1.11182 4.16678,-0.64844 4.14623,-0.29583 4.15679,0.001 4.14851,0.26208 4.6748,0.62327 4.64308,0.82706 4.58884,1.08848 4.48121,1.22788 4.43611,1.38183 4.39508,1.50721 4.37908,1.55322 4.35909,1.60849 4.33741,1.76561 4.3084,1.83481 4.21131,2.04705 4.07785,2.30257 4.09521,2.78858 3.74113,3.24823 2.67796,3.70514 1.65784,4.24798 0.10381,3.18936 -0.65205,3.13148 -1.54042,2.74562 -2.42576,1.97184 -5.46922,1.07405 -5.6092,-0.26481 -4.68215,-0.827 -4.66354,-0.92586 -4.67303,-0.87681 -4.69818,-0.72753 -4.73971,-0.3125 -3.66633,0.31383 -3.5705,0.89017 -5.07438,2.34948 -4.82086,2.83408 -4.35636,3.14166 -4.21107,3.33424 -4.14247,3.41952 -4.13649,3.42677 -4.19313,3.35616 -4.347,3.15271 -4.58273,2.79581 -3.48923,1.54433 -3.68005,0.99769 -3.12474,0.14822 -3.08355,-0.46458 -3.18546,-1.40883 -2.8622,-2.02189 -2.36531,-3.78058 -0.8117,-4.24059 0.0975,-4.3079 0.87871,-5.03934 1.3151,-4.94667 1.49196,-4.89692 1.55302,-4.87817 1.46833,-4.90391 1.24036,-4.96591 1.3354,-4.94192 1.5184,-3.94204 2.25492,-3.56348 2.95051,-2.65698 3.51979,-1.84458 3.78826,-1.4354 3.92164,-1.01514 4.01068,-0.56783 3.98381,-0.22847 3.98994,0.0574 3.97843,0.3084 4.47717,0.6622 4.44385,0.85775 4.38805,1.10843 5.33779,1.58524 5.27123,1.79413 5.22758,1.91902 5.19992,1.99268 4.12887,1.75369 4.09997,1.81979 4.00358,2.02231 3.8719,2.26527 3.88013,2.73156 3.53322,3.16754 2.49873,3.59398 1.50898,4.09705 0.0396,3.06326 -0.68164,2.99418 -1.53038,2.61614 -2.36903,1.85664 -5.28317,0.95804 -5.39907,-0.32715 -4.49073,-0.85352 -4.47166,-0.94806 -4.48134,-0.90128 -4.5073,-0.75858 -4.55239,-0.36111 -3.52809,0.2526 -3.44408,0.80603 -4.90579,2.18242 -4.67011,2.65003 -4.21872,2.94647 -4.0826,3.1327 -4.0182,3.2153 -4.01262,3.22227 -4.06573,3.15396 -4.21009,2.95693 -4.43117,2.6108 -3.36325,1.42721 -3.53793,0.9009 -2.99507,0.0968 -2.94675,-0.48973 -3.03082,-1.39279 -2.71368,-1.97398 -2.21493,-3.64732 -0.7237,-4.0646 0.14508,-4.11778 0.89862,-4.79873 1.31461,-4.70492 1.483,-4.65524 1.54137,-4.63651 1.4613,-4.66195 1.24531,-4.72371 1.33483,-4.69988 1.49461,-3.73639 2.19173,-3.36661 2.84273,-2.49187 3.37503,-1.70988 3.62464,-1.31608 3.74613,-0.91397 3.82498,-0.48651 3.7938,-0.16362 3.79577,0.10864 3.7814,0.34735 4.25118,0.69018 4.21688,0.87561 4.16044,1.11334 5.05523,1.57857 4.98925,1.77605 4.94622,1.89389 4.91917,1.96303 3.90152,1.72046 3.87336,1.78257 3.77914,1.97379 3.65098,2.20278 3.65237,2.64611 3.31664,3.05641 2.32141,3.44987 1.37155,3.91419 -0.01,2.91561 -0.693,2.8392 -1.49752,2.47256 -2.28648,1.73604 -5.05499,0.84899 -5.14961,-0.37369 -5.33655,-1.0966 -5.31991,-1.17504 -5.34805,-1.03524 -5.41028,-0.57874 -3.36643,0.20248 -3.29252,0.73027 -4.69876,2.02381 -4.47956,2.47192 -4.04631,2.75653 -3.91861,2.93557 -3.85783,3.01539 -3.85217,3.02263 -3.90142,2.95781 -4.03617,2.76958 -4.24255,2.4386 -3.21224,1.3234 -3.37289,0.82201 -2.84821,0.0636 -2.79691,-0.49255 -2.86727,-1.34992 -2.56061,-1.89962 -2.07101,-3.48255 -0.65105,-3.86342 0.17332,-3.90627 1.09781,-5.28611 1.5508,-5.17597 1.72531,-5.12139 1.71432,-5.12482 1.48409,-5.19502 1.49737,-5.19226 1.44475,-3.52796 2.10221,-3.1723 2.71151,-2.33598 3.20976,-1.58998 5.21866,-1.6319 5.40203,-0.84123 5.38715,-0.0524 5.37083,0.43124 4.0172,0.69115 3.98312,0.86621 3.92759,1.09066 4.76881,1.53812 4.70473,1.72411 4.66312,1.83488 4.63715,1.89953 4.89233,2.23115 4.80769,2.40494 4.61525,2.7556 3.43195,2.53351 3.11062,2.91908 2.16061,3.28376 1.256,3.71406 -0.72579,5.44181 -3.63237,3.95465 -2.97933,0.72505 -3.08242,0.0669 -4.81743,-0.66772 -4.7558,-1.03453 -4.74722,-1.07395 -4.77443,-0.9421 -4.83215,-0.53112 -3.19599,0.16915 -3.1296,0.66982 -4.47121,1.88544 -4.26659,2.31197 -4.47734,3.03903 -4.33432,3.24065 -4.28429,3.30717 -4.29845,3.28815 -4.44522,3.08454 -4.68275,2.70558 -3.0505,1.23443 -3.19949,0.7594 -5.34474,-0.4352 -2.70805,-1.29058 -2.41502,-1.80995 -1.94346,-3.30326 -0.59835,-3.65485 0.18039,-3.69174 1.05929,-4.98811 1.48669,-4.88216 1.65067,-4.83008 1.63949,-4.83364 1.42087,-4.90125 1.43231,-4.89895 1.3759,-3.32477 1.99508,-2.98682 2.5666,-2.19269 3.03438,-1.48562 4.9288,-1.51503 5.09826,-0.76747 5.0799,-0.0228 5.06208,0.43363 3.78523,0.67191 3.75223,0.83681 3.69872,1.04828 4.4891,1.47408 4.42781,1.64903 4.3881,1.75305 4.36346,1.8135 4.60177,2.12679 4.52124,2.29002 4.33824,2.61961 3.224,2.40518 2.91888,2.76755 2.01679,3.1085 1.15964,3.50921 -0.72104,5.13381 -3.46003,3.71923 -2.82423,0.67305 -2.91866,0.0519 -4.55568,-0.64723 -4.49641,-0.99294 -4.4883,-1.02968 -4.51447,-0.90474 -4.57026,-0.51609 -3.02497,0.15028 -2.96385,0.62351 -4.23634,1.76756 -4.04444,2.1715 -4.24197,2.8568 -4.1073,3.04808 -4.05992,3.11156 -4.07276,3.09417 -4.21029,2.90208 -4.43323,2.54399 -2.88627,1.15912 -3.0257,0.71072 -5.05154,-0.41931 -2.55705,-1.22075 -2.27943,-1.7118 -1.83167,-3.11846 -0.56168,-3.4466 0.17179,-3.48089 1.00095,-4.70012 1.40403,-4.59997 1.55808,-4.55093 1.54676,-4.55455 1.34003,-4.61856 1.35091,-4.61636 1.29776,-3.13338 1.88102,-2.81486 2.41895,-2.06437 2.85984,-1.39686 4.64448,-1.4217 4.80344,-0.71625 4.78561,-0.0137 4.76806,0.4169 5.33334,1.03755 5.25101,1.39261 4.22874,1.3982 4.17054,1.5632 4.13285,1.6613 4.10947,1.71834 4.33474,2.01494 4.25837,2.16888 4.08504,2.47941 3.03575,2.27581 2.74696,2.61713 1.89398,2.93882 1.08354,3.3146 -0.6956,4.84655 -3.2792,3.50722 -5.43003,0.67698 -5.36899,-0.84524 -5.30207,-1.2184 -5.31919,-1.13929 -5.38894,-0.69125 -2.86099,0.13773 -2.80402,0.58467 -4.01011,1.66344 -3.82973,2.04526 -4.0177,2.69276 -3.89093,2.87371 -3.84634,2.93373 -3.85849,2.91719 -3.98802,2.7354 -4.19793,2.39652 -2.73378,1.09148 -2.86473,0.66755 -4.78247,-0.40203 -4.57566,-2.77624 -1.73107,-2.94828 -0.53014,-3.25592 0.16188,-3.28824 1.19114,-5.31372 1.66073,-5.19163 1.7916,-5.14897 1.59736,-5.21083 1.51263,-5.23703 1.22838,-2.95876 1.77923,-2.6573 2.28694,-1.94651 2.70304,-1.31448 4.38965,-1.33366 4.53863,-0.66554 4.52188,-3.4e-4 4.50406,0.40763 5.03878,0.99737 4.95954,1.33388 5.31362,1.82123 5.22472,2.06336 5.17905,2.17647 4.09447,1.92562 4.02115,2.07173 3.85555,2.36518 2.86477,2.16935 2.58962,2.4914 1.78147,2.79765 1.01178,3.14963 -0.67897,4.59798 -3.12129,3.32055 -5.14798,0.63164 -5.08501,-0.81386 -5.02032,-1.16908 -5.03654,-1.09519 -5.10393,-0.67079 -5.37588,0.66664 -3.81258,1.56302 -3.64359,1.92478 -4.57524,3.07081 -4.42882,3.27995 -4.39771,3.32212 -4.50613,3.17055 -4.77458,2.74408 -5.33048,1.64203 -4.54603,-0.40365 -4.33683,-2.65545 -1.63115,-2.80478 -0.48941,-3.08938 0.16635,-3.11724 1.15274,-5.03336 1.59977,-4.91484 1.7248,-4.87337 1.54154,-4.93282 1.46203,-4.95788 1.18163,-2.80018 1.7025,-2.51119 2.18006,-1.83267 2.57153,-1.22976 4.17175,-1.23604 4.30887,-0.59995 4.28966,0.0325 4.26969,0.42058 4.77455,0.986 4.69639,1.3059 5.03084,1.77381 4.94383,2.00436 4.89896,2.11264 3.87335,1.86711 3.80192,2.00607 3.64158,2.2838 2.70327,2.09001 2.43841,2.39375 1.6679,2.68212 0.93212,3.00928 -0.68877,4.37528 -3.00057,3.13952 -3.88911,0.55773 -3.93926,-0.3765 -5.41021,-1.26852 -5.40894,-1.27319 -5.49058,-0.80719 -5.12656,0.58779 -3.64821,1.45349 -3.49127,1.79852 -4.39322,2.88051 -4.2567,3.0801 -4.22842,3.11937 -4.33085,2.97262 -4.58232,2.56262 -5.10585,1.50859 -4.33805,-0.43188 -4.1145,-2.57546 -1.52893,-2.68909 -0.4374,-2.94726 0.18672,-2.96773 1.14598,-4.78371 1.5729,-4.66586 1.69271,-4.62471 1.5191,-4.68308 1.44387,-4.70771 1.15593,-2.65685 1.64903,-2.37614 4.55988,-2.86602 5.38593,-1.41519 4.07759,-0.24024 4.08128,0.18245 4.40381,0.70999 4.34133,1.03208 5.20605,1.72324 5.09355,2.03103 5.01959,2.20987 4.93633,2.38851 4.80576,2.63985 3.98604,2.83266 3.56477,3.342 1.99886,3.57643 0.35584,3.07113 -0.68492,3.01682 -2.91719,2.96319 -3.7263,0.48088 -3.76161,-0.41494 -5.15499,-1.29144 -5.15335,-1.2974 -5.23807,-0.85434 -4.91671,0.48259 -3.51779,1.33213 -3.3739,1.66361 -4.73947,3.00579 -4.59564,3.22327 -4.59338,3.22633 -4.7651,2.9641 -5.00526,2.10565 -4.77001,0.38841 -3.07987,-1.02393 -2.58889,-1.95875 -1.43087,-2.66603 -0.39462,-3.0041 0.56576,-4.06826 1.13325,-3.94999 1.82641,-4.92085 1.85585,-4.90971 1.6175,-4.99245 1.97586,-4.85598 3.50517,-3.61773 3.72352,-1.46092 3.90621,-0.86575 3.9115,-0.14907 3.90655,0.25743 4.20611,0.77161 4.13921,1.0804 4.95697,1.76474 4.8415,2.0598 4.76569,2.23177 4.68077,2.40337 4.54873,2.64332 3.76121,2.81319 3.34415,3.29306 1.8362,3.48838 0.27033,2.9649 -0.72791,2.88873 -2.87122,2.7895 -3.58966,0.38501 -3.60496,-0.47882 -4.92272,-1.35402 -4.92054,-1.36143 -5.01159,-0.93891 -4.73847,0.35022 -3.41604,1.1972 -3.28632,1.5179 -4.16595,2.47626 -4.05039,2.66245 -4.02819,2.69644 -4.11826,2.55386 -4.33346,2.16319 -4.78419,1.17289 -3.99955,-0.58246 -3.70346,-2.54847 -1.30505,-2.54232 -0.18495,-3.98039 0.76696,-3.92461 1.57195,-4.34056 1.75189,-4.27186 1.72594,-4.28219 1.52961,-4.3558 1.88408,-4.20937 2.54896,-2.68415 3.3069,-1.66231 3.72711,-0.85671 3.81298,-0.28731 3.76419,0.27133 3.72411,0.61448 4.12394,1.14126 4.03583,1.4198 3.9335,1.68511 3.85551,1.85711 4.96972,2.56521 4.84109,2.80036 3.63329,2.51288 3.36473,2.86062 2.97376,3.91693 0.79373,5.41295 -2.01143,3.74044 -3.3179,1.26878 -4.38411,-0.51192 -4.25271,-1.20703 -4.2146,-1.34433 -4.25548,-1.20686 -3.4151,-0.40636 -3.42782,0.23498 -3.3329,1.04959 -3.21817,1.36181 -4.5637,2.52879 -4.4447,2.73444 -4.44506,2.73362 -4.59114,2.4776 -4.49504,1.5878 -4.73885,0.16822 -2.8091,-1.12465 -2.2995,-1.96755 -1.37745,-5.36302 0.75174,-3.73903 1.27473,-3.5964 1.97689,-4.45528 2.00738,-4.44154 1.80444,-4.52709 2.1344,-4.37544 3.48044,-3.12982 4.76076,-1.39179 3.66251,-0.27316 3.66886,0.21572 3.75776,0.69595 3.67827,1.03682 4.60344,1.75441 4.46004,2.09406 4.34176,2.33099 4.27461,2.45215 4.16436,2.63558 3.42312,2.57024 3.15058,2.89611 2.73649,3.90703 0.57978,5.28122 -1.3129,2.61245 -2.29763,1.75802 -3.35354,0.14716 -3.31636,-0.66311 -4.48166,-1.56263 -4.47849,-1.57139 -4.58964,-1.18376 -4.42346,0.0315 -3.25441,0.90036 -3.15434,1.20547 -4.49893,2.28419 -4.39156,2.48633 -4.39228,2.4848 -4.52472,2.23159 -4.39714,1.3754 -4.58259,-0.004 -2.66859,-1.18317 -2.14419,-1.98149 -1.1224,-5.22362 1.18405,-4.54198 1.94396,-4.27936 2.12561,-4.19303 2.03935,-4.2346 1.9374,-4.28271 2.96107,-3.9776 3.14426,-1.59256 3.46197,-0.76872 3.56597,-0.10971 3.55151,0.36399 4.9143,1.21056 4.73867,1.78564 4.78883,2.35217 4.61811,2.67218 4.52739,2.82417 4.41933,3.06958 4.12439,3.45185 2.50697,2.79824 1.96737,3.18769 0.37645,5.17252 -2.13251,3.38256 -3.1687,0.97664 -5.34075,-1.19922 -5.10116,-2.03601 -5.14187,-1.92943 -3.14522,-0.61256 -3.2012,-0.0149 -3.18001,0.75253 -3.09429,1.05129 -4.97823,2.30494 -4.86869,2.53079 -4.90294,2.46232 -5.12165,1.95421 -4.41986,0.57901 -3.52894,-0.91991 -3.05216,-2.66104 -0.8971,-2.41451 0.26962,-3.58457 1.12344,-3.42834 2.40422,-4.64816 2.60425,-4.5404 2.40301,-4.64901 2.70311,-4.47438 2.66727,-2.13317 3.22755,-1.11735 3.54164,-0.34478 3.55321,0.18371 3.46315,0.69 3.38729,0.99958 4.93577,2.08532 4.71127,2.55336 4.52733,2.8673 3.92452,2.66555 3.80861,2.82806 3.61548,3.06669 3.24659,3.45405 2.40872,4.02878 0.29607,5.20338 -2.16705,3.29599 -3.0836,0.85973 -5.15687,-1.42266 -4.87633,-2.24679 -4.92116,-2.1456 -3.04657,-0.75035 -3.13058,-0.15709 -3.16596,0.61087 -3.09281,0.91223 -5.06703,2.08806 -4.96781,2.31715 -5.00112,2.24269 -5.19846,1.72242 -4.44958,0.37888 -3.47921,-1.08923 -2.90932,-2.83102 -0.75967,-2.48263 0.49672,-3.61047 1.3562,-3.39737 2.76296,-4.60921 2.96035,-4.48639 2.75508,-4.614 3.03013,-4.43172 3.87202,-2.59416 4.90384,-0.78292 3.69837,0.15799 3.651,0.62476 3.71485,1.09844 3.60157,1.42598 4.40904,2.19504 4.24778,2.49419 4.12107,2.69964 4.06026,2.7909 3.88343,2.91495 3.69013,3.15125 3.33412,3.52518 2.6358,4.22673 0.50822,5.37685 -2.15682,3.35979 -3.07548,0.76219 -5.29107,-1.74732 -4.96971,-2.56684 -5.03191,-2.44104 -3.13978,-0.90714 -3.25409,-0.26269 -3.32297,0.57807 -3.24706,0.91349 -4.35203,1.73034 -4.2644,1.93829 -4.24531,1.98051 -4.31074,1.82992 -4.45532,1.43584 -4.78175,0.42675 -3.73594,-1.16864 -3.13338,-3.08273 -0.81234,-2.72289 0.5793,-3.98782 1.52192,-3.74789 2.44947,-4.1299 2.61206,-4.0299 2.57681,-4.0522 2.40237,-4.1577 2.73522,-3.94087 4.29462,-2.89478 5.445,-0.87745 4.09944,0.17521 4.04613,0.69747 4.10332,1.22514 3.97643,1.58882 4.83793,2.43455 4.65543,2.76907 4.50961,3.00208 4.43685,3.10936 4.209,3.23054 3.99054,3.49154 3.59243,3.89923 2.79262,4.66445 0.65396,2.93048 -0.24842,2.98684 -2.45593,3.67504 -3.43926,0.82962 -4.4034,-1.28613 -4.13631,-2.00297 -4.076,-2.12985 -4.14641,-1.988 -3.42773,-1.00275 -3.55414,-0.30981 -3.62336,0.5931 -3.54612,0.9525 -4.71875,1.80392 -4.62993,2.0232 -4.61239,2.06362 -4.68183,1.89643 -4.83329,1.45991 -5.14117,0.3512 -3.98232,-1.34878 -3.29238,-3.3878 -0.81395,-2.94179 0.70187,-4.2678 1.7089,-3.99116 2.68659,-4.33721 2.86188,-4.22451 2.83298,-4.24366 2.64905,-4.36041 3.00237,-4.11855 3.42168,-2.34699 4.00727,-1.07696 3.81892,-0.14321 3.80051,0.38216 3.7319,0.83136 4.8261,1.70747 4.61334,2.21871 4.43059,2.56562 4.59348,3.11871 4.43646,3.33893 4.34444,3.45765 4.19597,3.63703 3.1352,3.1541 2.83627,3.4229 2.37291,3.75716 1.19006,4.14241 -0.54137,4.0167 -1.84573,2.72788 -2.82362,1.62517 -4.63526,-0.63621 -4.88976,-2.29844 -4.72715,-2.62935 -4.79803,-2.49638 -3.50034,-1.14143 -3.64981,-0.45492 -3.73472,0.44006 -3.6752,0.79764 -5.3805,1.76011 -5.29692,2.00068 -5.29961,1.99299 -5.40578,1.67871 -5.40892,0.76252 -4.71441,-0.87897 -2.68633,-1.83568 -1.94255,-2.6127 -0.62474,-3.01947 0.4887,-3.04947 1.77199,-3.84116 2.29268,-3.55769 3.27486,-4.31477 3.31014,-4.28773 3.12316,-4.42494 3.44217,-4.17411 4.60817,-2.4947 5.57138,-0.32068 4.52495,0.71062 4.37275,1.36882 4.19496,1.85107 4.02553,2.32685 3.85887,2.59267 4.01237,3.11237 3.86211,3.29739 3.78445,3.38681 3.22222,3.1499 3.0845,3.28343 2.9144,3.87345 2.36904,4.22496 0.85528,3.99749 -0.78685,3.77352 -1.94524,2.48148 -2.80455,1.36519 -4.41094,-0.88201 -4.53909,-2.45799 -4.36839,-2.76075 -4.44373,-2.63664 -3.26628,-1.27188 -3.44465,-0.62929 -3.55865,0.21466 -3.52156,0.55681 -5.15149,1.37017 -5.08487,1.60314 -5.08597,1.5992 -5.16906,1.2999 -5.0941,0.43444 -4.34794,-1.0667 -2.39754,-1.85747 -1.66477,-2.5379 -0.41637,-2.85201 0.62341,-2.81884 1.86625,-3.48577 2.3333,-3.19472 3.27157,-3.82941 3.30202,-3.80313 3.16486,-3.91766 3.44612,-3.66515 4.4295,-2.04494 5.21114,-0.005 4.17891,0.87715 4.01239,1.46496 3.83323,1.891 4.19974,2.66942 3.97482,2.9927 3.7919,3.22278 3.66314,3.36976 4.03206,3.94988 3.80387,4.16787 3.25084,4.60929 1.82709,4.40675 0.0597,3.54949 -1.69894,3.29642 -3.17024,1.64624 -3.15482,-0.65759 -2.92821,-1.40276 -3.23133,-2.1103 -3.21243,-2.13907 -3.28692,-2.02191 -2.8955,-1.19174 -3.06924,-0.6024 -3.16162,0.17581 -3.12766,0.49556 -4.55966,1.23889 -4.49256,1.4669 -4.4871,1.48346 -4.56072,1.23396 -4.1604,0.45933 -4.07293,-0.84551 -3.50149,-3.78489 0.21768,-4.99503 2.52166,-4.28943 3.14992,-3.86496 3.27695,-3.75919 3.08595,-3.91608 3.31689,-3.71585 3.90293,-1.89165 4.63789,-0.0993 3.73242,0.70092 3.59617,1.2247 3.44567,1.60581 4.28866,2.60607 4.03575,2.98312 3.83881,3.23306 3.74173,3.34569 3.58605,3.51338 3.25807,3.81545 2.57283,4.30155 0.71056,3.04829 -0.5671,3.06114 -3.70895,3.00532 -2.7822,-0.49926 -2.60208,-1.15721 -4.29555,-2.66782 -4.35492,-2.5685 -5.23546,-1.41056 -5.44366,0.74593 -5.19796,1.63711 -5.11828,1.87735 -5.19599,1.64148 -3.55668,0.49886 -3.51245,-0.63052 -3.05521,-3.1772 0.11167,-4.30303 2.33095,-4.02469 2.90702,-3.64485 2.97925,-3.58706 2.80859,-3.72158 3.4271,-3.11026 3.81777,-0.83366 3.92362,0.28127 4.77362,1.45385 4.47992,2.204 3.58583,2.30534 3.40308,2.56889 3.27437,2.73196 3.18552,2.83442 3.73708,3.84442 2.97974,4.44467 0.24122,5.18647 -3.08102,2.63868 -4.28409,-1.11574 -3.89873,-2.21074 -3.93606,-2.14395 -4.33806,-0.99726 -4.48933,0.77379 -4.30318,1.51634 -4.22636,1.72391 -4.29724,1.53219 -2.91981,0.51947 -2.91617,-0.41896 -2.57119,-2.54022 0.0164,-3.55859 2.42156,-4.14436 2.9884,-3.77489 2.86987,-3.86397 3.34917,-3.40116 3.14288,-0.74997 3.24825,0.16352 4.81198,1.43576 4.47127,2.29832 3.82251,2.61366 3.64303,2.86021 3.50799,3.02386 2.78014,2.99533 2.02852,3.52418 -0.076,3.16899 -2.43344,2.23788 -4.56902,-1.27209 -4.27618,-2.21044 -4.61854,-1.1472 -4.67382,1.2083 -4.42342,1.96906 -4.4488,1.90751 -4.55439,0.31464 -2.0571,-1.8873 0.42643,-3.93519 3.16248,-4.60935 3.23299,-4.56694 2.99405,-2.22484 5.11283,0.10288 3.77567,1.28918 3.52415,1.87791 4.368,3.02662 4.12022,3.35469 1.93643,2.16806 1.19193,2.62233 -1.92692,3.39955 -5.14156,-1.45893 -5.18499,-1.31581 -3.63709,1.28643 -3.38102,1.88406 -3.46577,1.71129 -2.85883,-0.0178 -1.28236,-1.93539 0.43649,-1.87337 2.38555,-3.77621 2.40807,-3.76219 2.31616,-1.11594 4.64793,0.46232 4.30741,1.88586 3.20829,1.95066 3.01253,2.23531 1.80313,3.10356 -1.73199,2.05277 -3.42193,-0.82212 -3.45758,-0.42843 -4.15779,2.4599 -4.23013,2.17269 -1.34534,-1.95866 1.93361,-4.15685 -0.9668,2.07843 -0.96681,2.07842 0.96681,-2.07842 0.9668,-2.07843"
         transform="scale(0.264583)"
         inkstitch:manual_stitch="true" />
    </g>
  </g>
</svg>
