<?xml version="1.0" encoding="UTF-8" standalone="no"?>
<!-- Created with Inkscape (http://www.inkscape.org/) -->

<svg
   sodipodi:docname="rippleways_fr.svg"
   inkscape:version="1.2 (dc2aeda, 2022-05-15)"
   id="svg3544"
   version="1.1"
   viewBox="0 0 86.215109 104.09128"
   height="104.09129mm"
   width="86.215111mm"
   xmlns:inkscape="http://www.inkscape.org/namespaces/inkscape"
   xmlns:sodipodi="http://sodipodi.sourceforge.net/DTD/sodipodi-0.dtd"
   xmlns:xlink="http://www.w3.org/1999/xlink"
   xmlns="http://www.w3.org/2000/svg"
   xmlns:svg="http://www.w3.org/2000/svg"
   xmlns:inkstitch="http://inkstitch.org/namespace">
  <metadata
     id="metadata7216">
    <inkstitch:collapse_len_mm />
  </metadata>
  <sodipodi:namedview
     id="namedview3546"
     pagecolor="#ffffff"
     bordercolor="#666666"
     borderopacity="1.0"
     inkscape:showpageshadow="2"
     inkscape:pageopacity="0.0"
     inkscape:pagecheckerboard="0"
     inkscape:deskcolor="#d1d1d1"
     inkscape:document-units="mm"
     showgrid="false"
     inkscape:zoom="0.81537165"
     inkscape:cx="104.86016"
     inkscape:cy="194.38988"
     inkscape:window-width="1438"
     inkscape:window-height="787"
     inkscape:window-x="2"
     inkscape:window-y="26"
     inkscape:window-maximized="0"
     inkscape:current-layer="layer2" />
  <defs
     id="defs3541">
    <symbol
       id="inkstitch_ripple_target"
       style="display:inline">
      <title
         id="inkstitch_title9427-9">Ripple stitch target point</title>
      <path
         id="inkstitch_circle13166-9"
         d="m 9.220113,0.07922893 c -1.9e-6,5.10672897 -4.1398241,9.24654997 -9.24655297,9.24654997 -5.10672933,0 -9.24655213,-4.139821 -9.24655403,-9.24654997 1e-7,-2.45233803 0.9741879,-4.80423503 2.7082531,-6.53830103 1.7340653,-1.734065 4.0859624,-2.708252 6.53830093,-2.708252 5.10673007,0 9.24655277,4.139823 9.24655297,9.24655303 0,0 0,0 0,0"
         style="opacity:1;vector-effect:none;fill:#fafafa;fill-opacity:1;fill-rule:evenodd;stroke:#003399;stroke-width:1.065;stroke-linecap:round;stroke-linejoin:miter;stroke-miterlimit:4;stroke-dasharray:3.195, 3.195;stroke-dashoffset:0;stroke-opacity:1"
         inkscape:connector-curvature="0" />
      <path
         style="opacity:1;fill:none;stroke:#000000;stroke-width:1.5;stroke-linecap:round;stroke-linejoin:round;stroke-miterlimit:4;stroke-opacity:1"
         d="m -4.1361006,-3.9974292 8.224564,8.224564 m 0,-8.224564 -8.224564,8.224564 m 9.927927,-4.112282 h -11.63129 m 5.81564501,-5.815645 v 11.63129"
         id="inkstitch_rect5371-2-9"
         inkscape:connector-curvature="0" />
    </symbol>
    <marker
       refX="10"
       refY="5"
       orient="auto"
       id="inkstitch-guide-line-marker">
      <g
         id="inkstitch-guide-line-group">
        <path
           style="fill:#fafafa;fill-opacity:0.8;stroke:#ff5500;stroke-width:0.5;stroke-linecap:round;stroke-linejoin:miter;stroke-miterlimit:4;stroke-dasharray:1, 1;stroke-dashoffset:0;stroke-opacity:1"
           d="M 10.12911,5.2916678 A 4.8374424,4.8374426 0 0 1 5.2916656,10.12911 4.8374424,4.8374426 0 0 1 0.45422399,5.2916678 4.8374424,4.8374426 0 0 1 5.2916656,0.45422399 4.8374424,4.8374426 0 0 1 10.12911,5.2916678 Z"
           id="inkstitch-guide-line-marker-circle" />
        <path
           style="fill:none;stroke:#000000;stroke-width:0.4;stroke-linecap:round;stroke-miterlimit:4"
           id="inkstitch-guide-line-marker-spiral"
           d="M 1.7506092,6.2728168 3.4558825,5.2833684 7.1038696,7.400035 8.8193256,6.4046783 M 1.7963222,4.129626 3.4558825,3.1667016 7.1038696,5.2833682 8.8475785,4.2716184 M 1.6318889,5.2833683 3.4558825,4.225035 7.1038696,6.3417016 8.9558408,5.2677331" />
      </g>
    </marker>
    <symbol
       id="inkstitch_trim">
      <title
         id="inkstitch_title9282">Trim the thread after sewing this object.</title>
      <path
         id="inkstitch_circle13405"
         d="m 9.2465284,-8.6e-6 c 1.8e-6,2.452339 -0.9741847,4.804237 -2.7082493,6.538304 C 4.8042146,8.2723614 2.4523174,9.2465504 -2.1625959e-5,9.2465514 -2.4523623,9.2465534 -4.8042621,8.2723654 -6.5383288,6.5382984 -8.2723956,4.8042314 -9.2465834,2.4523324 -9.2465816,-8.6e-6 c 6e-7,-2.452339 0.9741895,-4.804237 2.708256,-6.538301 1.7340665,-1.734065 4.0859648,-2.708252 6.538303974041,-2.70825 C 5.1067066,-9.2465576 9.2465271,-5.1067366 9.2465284,-8.6e-6 c 0,0 0,0 0,0"
         style="opacity:1;vector-effect:none;fill:#fafafa;fill-opacity:1;fill-rule:evenodd;stroke:#003399;stroke-width:1.065;stroke-linecap:round;stroke-linejoin:miter;stroke-miterlimit:4;stroke-dasharray:3.195, 3.195;stroke-dashoffset:0;stroke-opacity:1"
         inkscape:connector-curvature="0" />
      <path
         style="color:#000000;font-style:normal;font-variant:normal;font-weight:normal;font-stretch:normal;font-size:medium;line-height:normal;font-family:sans-serif;font-variant-ligatures:normal;font-variant-position:normal;font-variant-caps:normal;font-variant-numeric:normal;font-variant-alternates:normal;font-feature-settings:normal;text-indent:0;text-align:start;text-decoration:none;text-decoration-line:none;text-decoration-style:solid;text-decoration-color:#000000;letter-spacing:normal;word-spacing:normal;text-transform:none;writing-mode:lr-tb;direction:ltr;text-orientation:mixed;dominant-baseline:auto;baseline-shift:baseline;text-anchor:start;white-space:normal;shape-padding:0;clip-rule:nonzero;display:inline;overflow:visible;visibility:visible;opacity:1;isolation:auto;mix-blend-mode:normal;color-interpolation:sRGB;color-interpolation-filters:linearRGB;solid-color:#000000;solid-opacity:1;vector-effect:none;fill:#050505;fill-opacity:1;fill-rule:evenodd;stroke:none;stroke-width:1.41421;stroke-linecap:butt;stroke-linejoin:miter;stroke-miterlimit:4;stroke-dasharray:none;stroke-dashoffset:0;stroke-opacity:1;color-rendering:auto;image-rendering:auto;shape-rendering:auto;text-rendering:auto;enable-background:accumulate"
         d="m -3.0000256,-5.9834096 c -1.30575,0 -2.375,1.06924 -2.375,2.375 0,1.30575 1.06925,2.375 2.375,2.375 0.58687,0 1.11944,-0.22369 1.53516,-0.58007 0,0 0.61717997,1.62109 0.61717997,1.62109 0,0 -2.29881997,6.01758 -2.29881997,6.01758 0.98655,-0.12511 1.23728,-0.26171 1.67382,-0.97461 0,0 1.33007997,-3.18945 1.33007997,-3.18945 0,0 1.23633003,3.25 1.23633003,3.25 0.23227,0.77906 0.84315,0.79218 1.57813,1.07226 0,0 -2.05469003,-6.14258 -2.05469003,-6.14258 0,0 0.73047003,-1.75 0.73047003,-1.75 0.42849,0.41682 1.01136,0.67578 1.65234,0.67578 1.30575,0 2.375,-1.06925 2.375,-2.375 0,-1.30576 -1.06925,-2.375 -2.375,-2.375 -1.06233,0 -1.95701,0.71265 -2.25781003,1.67969 0,0 -0.0117,-0.0156 -0.0117,-0.0156 0,0 -0.80274,2.10156 -0.80274,2.10156 0,0 -0.59179,-1.76562 -0.59179,-1.76562 -0.18242,-1.12808 -1.15864997,-2 -2.33593997,-2 0,0 -2e-5,-3e-5 -2e-5,-3e-5 m 0,1 c 0.76531,0 1.375,0.60968 1.375,1.375 0,0.76531 -0.60969,1.375 -1.375,1.375 -0.76531,0 -1.375,-0.60969 -1.375,-1.375 0,-0.76532 0.60969,-1.375 1.375,-1.375 0,0 0,0 0,0 m 6,0 c 0.76531,0 1.375,0.60968 1.375,1.375 0,0.76531 -0.60969,1.375 -1.375,1.375 -0.76531,0 -1.375,-0.60969 -1.375,-1.375 0,-0.76532 0.60969,-1.375 1.375,-1.375 0,0 0,0 0,0"
         id="inkstitch_path13416"
         inkscape:connector-curvature="0" />
    </symbol>
  </defs>
  <g
     inkscape:label="Calque 1"
     inkscape:groupmode="layer"
     id="layer1"
     transform="matrix(0.57125444,0,0,0.57125444,18.44712,-20.755394)">
    <g
       id="g6886"
       inkscape:label="ripple without additional guiding information">
      <path
         style="fill:none;stroke:#770176;stroke-width:0.5;stroke-linecap:butt;stroke-linejoin:miter;stroke-opacity:1"
         d="m 18.504328,38.325658 c 0,0 -2.390671,1.915703 -3.141143,3.211489 -1.024657,1.769205 -2.187059,3.924284 -1.669019,5.902071 0.66076,2.522664 3.345672,4.118099 5.54594,5.517832 2.061645,1.311546 5.157409,0.787953 6.885181,2.515767 1.678354,1.678391 2.799447,4.341544 2.443654,6.688305 -0.38677,2.551085 -2.117534,5.985633 -4.692106,6.156523 -3.334404,0.221327 -10.197731,-4.191722 -7.077434,-7.100355 4.650448,-4.334988 7.475774,1.451543 7.475774,1.451543"
         id="path4391"
         sodipodi:nodetypes="caaaaaasc"
         inkscape:label="ripple "
         inkstitch:stroke_method="1"
         inkstitch:line_count="15" />
      <g
         id="command_group5"
         inkscape:label="Commande Ink/Stitch: Trim thread after sewing this object"
         transform="scale(0.264583)"
         style="display:none">
        <path
           id="command_connector5"
           d="m 75.605272,115.45242 4.143526,86.19814"
           style="fill:none;stroke:#000000;stroke-width:1px;stroke-opacity:0.5"
           inkscape:connection-start="#command_use9350"
           inkscape:connection-end="#path4391"
           inkscape:label="connecteur"
           inkscape:connector-type="polyline"
           inkscape:connector-curvature="0" />
        <use
           id="command_use9350"
           xlink:href="#inkstitch_trim"
           height="100%"
           width="100%"
           x="75.602692"
           y="115.41657"
           inkscape:label="marqueur de commande" />
      </g>
    </g>
    <g
       id="g6780"
       inkscape:label="ripple with target"
       transform="translate(-2.22469,2.72525)">
      <path
         style="fill:none;stroke:#770176;stroke-width:0.5;stroke-linecap:butt;stroke-linejoin:miter;stroke-opacity:1"
         d="m 20.729018,73.030818 c 0,0 -2.390671,1.915703 -3.141143,3.211489 -1.024657,1.769205 -2.187059,3.924284 -1.669019,5.902071 0.66076,2.522664 3.345672,4.118099 5.54594,5.517832 2.061645,1.311546 5.157409,0.787953 6.885181,2.515767 1.678354,1.678391 2.799447,4.341544 2.443654,6.688305 -0.38677,2.551085 -2.117534,5.985638 -4.692106,6.156528 -3.334404,0.22132 -10.197731,-4.191727 -7.077434,-7.10036 4.650448,-4.334988 7.475774,1.451543 7.475774,1.451543"
         id="path6777"
         sodipodi:nodetypes="caaaaaasc"
         inkscape:label="ripple"
         inkstitch:stroke_method="1"
         inkstitch:line_count="15" />
      <g
         id="command_group8"
         inkscape:label="Commande Ink/Stitch: Trim thread after sewing this object"
         transform="matrix(0.264583,0,0,0.264583,2.22469,-2.72525)"
         style="display:none">
        <path
           id="command_connector8"
           d="m 64.169336,256.94152 5.370163,29.7053"
           style="fill:none;stroke:#000000;stroke-width:1px;stroke-opacity:0.5"
           inkscape:connection-start="#command_use2443"
           inkscape:connection-end="#path6777"
           inkscape:label="connecteur"
           inkscape:connector-type="polyline"
           inkscape:connector-curvature="0" />
        <use
           id="command_use2443"
           xlink:href="#inkstitch_trim"
           height="100%"
           width="100%"
           x="64.166756"
           y="256.90567"
           inkscape:label="marqueur de commande" />
      </g>
      <g
         id="command_group1"
         inkscape:label="Commande Ink/Stitch: Ripple stitch target position"
         transform="scale(0.264583)"
         style="display:inline">
        <path
           id="command_connector1"
           d="M 234.94852,324.66093 88.157086,332.81984"
           style="fill:none;stroke:#000000;stroke-width:1px;stroke-opacity:0.5"
           inkscape:connection-start="#command_use3587"
           inkscape:connection-end="#path6777"
           inkscape:label="connecteur"
           inkscape:connector-type="polyline"
           inkscape:connector-curvature="0" />
        <use
           id="command_use3587"
           xlink:href="#inkstitch_ripple_target"
           height="100%"
           width="100%"
           x="70.170341"
           y="247.18988"
           inkscape:label="marqueur de commande"
           transform="translate(164.802,77.3562)" />
      </g>
    </g>
    <g
       id="g6818"
       inkscape:label="ripple with target"
       transform="translate(-2.22469,40.1557)">
      <path
         style="fill:none;stroke:#770176;stroke-width:0.5;stroke-linecap:butt;stroke-linejoin:miter;stroke-opacity:1"
         d="m 20.729018,73.030818 c 0,0 -2.390671,1.915703 -3.141143,3.211489 -1.024657,1.769205 -2.187059,3.924284 -1.669019,5.902071 0.66076,2.522664 3.345672,4.118099 5.54594,5.517832 2.061645,1.311546 5.157409,0.787953 6.885181,2.515767 1.678354,1.678391 2.799447,4.341544 2.443654,6.688305 -0.38677,2.551085 -2.117534,5.985638 -4.692106,6.156528 -3.334404,0.22132 -10.197731,-4.191727 -7.077434,-7.10036 4.650448,-4.334988 7.475774,1.451543 7.475774,1.451543"
         id="path6810"
         sodipodi:nodetypes="caaaaaasc"
         inkscape:label="ripple"
         inkstitch:stroke_method="1"
         inkstitch:line_count="15" />
      <g
         id="command_group9"
         inkscape:label="Commande Ink/Stitch: Trim thread after sewing this object"
         transform="matrix(0.264583,0,0,0.264583,2.22469,-40.1557)"
         style="display:none">
        <path
           id="command_connector9"
           d="M 66.178712,398.07448 79.748798,484.5896"
           style="fill:none;stroke:#000000;stroke-width:1px;stroke-opacity:0.5"
           inkscape:connection-start="#command_use9993"
           inkscape:connection-end="#path6810"
           inkscape:label="connecteur"
           inkscape:connector-type="polyline"
           inkscape:connector-curvature="0" />
        <use
           id="command_use9993"
           xlink:href="#inkstitch_trim"
           height="100%"
           width="100%"
           x="66.176132"
           y="398.03864"
           inkscape:label="marqueur de commande" />
      </g>
      <path
         style="fill:none;stroke:#000000;stroke-width:0.264583px;stroke-linecap:butt;stroke-linejoin:miter;stroke-opacity:1;marker-start:url(#inkstitch-guide-line-marker)"
         d="m 28.03109,128.14213 c 0,0 3.559506,-6.22913 8.008885,-4.44938 4.449379,1.77975 4.449378,3.5595 8.898757,8.89876 4.449379,5.33926 5.784192,10.67851 12.9032,8.45382 7.119008,-2.22469 12.458264,-10.23357 12.458264,-10.23357"
         id="path6820"
         sodipodi:nodetypes="czzzc"
         transform="translate(-0.444938,-43.6039)"
         inkscape:label="guide line" />
    </g>
    <g
       id="g6883"
       inkscape:label="satin ripple"
       transform="translate(-2.22469,77.5861)">
      <path
         style="fill:none;stroke:#770176;stroke-width:0.5;stroke-linecap:butt;stroke-linejoin:miter;stroke-opacity:1"
         d="m 20.729018,73.030818 c 0,0 -2.390671,1.915703 -3.141143,3.211489 -1.024657,1.769205 -2.187059,3.924284 -1.669019,5.902071 0.66076,2.522664 3.345672,4.118099 5.54594,5.517832 2.061645,1.311546 5.157409,0.787953 6.885181,2.515767 1.678354,1.678391 2.799447,4.341544 2.443654,6.688305 -0.38677,2.551085 -2.117534,5.985638 -4.692106,6.156528 -3.334404,0.22132 -10.197731,-4.191727 -7.077434,-7.10036 4.650448,-4.334988 7.475774,1.451543 7.475774,1.451543 M 56.952058,77.641674 c -3.381575,3.371603 3.493064,12.516121 -12.013325,11.345918 -15.337386,-1.15745 4.426812,10.968958 5.116787,11.123448"
         id="path6879"
         sodipodi:nodetypes="caaaaaasccsc"
         inkscape:label="ripple"
         inkstitch:stroke_method="1"
         inkstitch:line_count="15" />
      <g
         id="command_group3"
         inkscape:label="Commande Ink/Stitch: Trim thread after sewing this object"
         transform="matrix(0.264583,0,0,0.264583,2.22469,-77.5861)"
         style="display:none">
        <path
           id="command_connector3"
           d="m 73.728357,539.53682 55.188403,86.52219"
           style="fill:none;stroke:#000000;stroke-width:1px;stroke-opacity:0.5"
           inkscape:connection-start="#command_use2560"
           inkscape:connection-end="#path6879"
           inkscape:label="connecteur"
           inkscape:connector-type="polyline"
           inkscape:connector-curvature="0" />
        <use
           id="command_use2560"
           xlink:href="#inkstitch_trim"
           height="100%"
           width="100%"
           x="73.725777"
           y="539.50098"
           inkscape:label="marqueur de commande" />
      </g>
    </g>
    <g
       id="g7023"
       inkscape:label="satin ripple with rungs "
       transform="translate(-2.22469,115.016)">
      <path
         id="path7025"
         style="fill:none;stroke:#770176;stroke-width:0.264583px;stroke-linecap:butt;stroke-linejoin:miter;stroke-opacity:1"
         transform="translate(2.22469,-115.016)"
         d="m 25.258134,207.79912 22.572695,4.43628 M 59.224974,192.47767 22.02251,205.42063 m -3.518182,-17.37332 c 0,0 -2.390671,1.9157 -3.141143,3.21149 -1.024657,1.7692 -2.187059,3.92428 -1.669019,5.90207 0.66076,2.52266 3.345672,4.1181 5.54594,5.51783 2.061645,1.31155 5.157409,0.78795 6.885181,2.51577 1.678354,1.67839 2.799447,4.34154 2.443654,6.6883 -0.38677,2.55109 -2.117534,5.98564 -4.692106,6.15653 -3.334404,0.22132 -10.197731,-4.19173 -7.077434,-7.10036 4.650448,-4.33499 7.475774,1.45154 7.475774,1.45154 m 30.452193,-19.73232 c -3.381575,3.37161 3.493064,12.51612 -12.013325,11.34592 -15.337386,-1.15745 4.426812,10.96896 5.116787,11.12345"
         inkscape:label="riddle"
         inkstitch:stroke_method="1"
         inkstitch:line_count="15"
         sodipodi:nodetypes="cccccsssssssccsc" />
    </g>
  </g>
  <g
     inkscape:groupmode="layer"
     id="layer2"
     inkscape:label="Texte"
     transform="translate(26.053077)"
     inkscape:highlight-color="#2d7f35">
    <g
       id="g8341"
       inkscape:label="French"
       style="display:inline">
      <text
         xml:space="preserve"
         style="font-size:4.23333px;line-height:1.25;font-family:'Times New Roman';-inkscape-font-specification:'Times New Roman, ';text-align:center;text-anchor:middle;stroke-width:0.264583"
         x="-16.148781"
         y="29.360914"
         id="text8260"><tspan
           sodipodi:role="line"
           style="font-size:4.23333px;text-align:center;text-anchor:middle;stroke-width:0.264583"
           x="-16.148781"
           y="29.360914"
           id="tspan8262">Ondulation </tspan><tspan
           sodipodi:role="line"
           style="font-size:4.23333px;text-align:center;text-anchor:middle;stroke-width:0.264583"
           x="-16.148781"
           y="34.652576"
           id="tspan8381">avec cible</tspan></text>
      <text
         xml:space="preserve"
         style="font-size:4.23333px;line-height:1.25;font-family:'Times New Roman';-inkscape-font-specification:'Times New Roman, ';stroke-width:0.264583"
         x="-15.54082"
         y="51.308132"
         id="text8266"><tspan
           sodipodi:role="line"
           style="font-size:4.23333px;text-align:center;text-anchor:middle;stroke-width:0.264583"
           x="-15.54082"
           y="51.308132"
           id="tspan8268">Ondulation</tspan><tspan
           sodipodi:role="line"
           style="font-size:4.23333px;text-align:center;text-anchor:middle;stroke-width:0.264583"
           x="-15.54082"
           y="56.599792"
           id="tspan8387">guidée</tspan></text>
      <text
         xml:space="preserve"
         style="font-size:4.23333px;line-height:1.25;font-family:'Times New Roman';-inkscape-font-specification:'Times New Roman, ';text-align:center;text-anchor:middle;stroke-width:0.264583"
         x="-15.552189"
         y="73.251221"
         id="text8272"><tspan
           sodipodi:role="line"
           style="font-size:4.23333px;text-align:center;text-anchor:middle;stroke-width:0.264583"
           x="-15.552189"
           y="73.251221"
           id="tspan8274">Ondulation</tspan><tspan
           sodipodi:role="line"
           style="font-size:4.23333px;text-align:center;text-anchor:middle;stroke-width:0.264583"
           x="-15.552189"
           y="78.542885"
           id="tspan8391">satin</tspan></text>
      <text
         xml:space="preserve"
         style="font-size:4.26265px;line-height:1.25;font-family:'Times New Roman';-inkscape-font-specification:'Times New Roman, ';text-align:center;text-anchor:middle;stroke-width:0.266416"
         x="-16.613014"
         y="92.514702"
         id="text8280"><tspan
           sodipodi:role="line"
           style="font-size:4.26265px;text-align:center;text-anchor:middle;stroke-width:0.266416"
           x="-16.613014"
           y="92.514702"
           id="tspan8282">Ondulation</tspan><tspan
           sodipodi:role="line"
           style="font-size:4.26265px;text-align:center;text-anchor:middle;stroke-width:0.266416"
           x="-16.613014"
           y="97.843018"
           id="tspan8398">satin avec</tspan><tspan
           sodipodi:role="line"
           style="font-size:4.26265px;text-align:center;text-anchor:middle;stroke-width:0.266416"
           x="-16.613014"
           y="103.17133"
           id="tspan8400">traverses</tspan></text>
      <text
         xml:space="preserve"
         style="font-size:4.23333px;line-height:1.25;font-family:'Times New Roman';-inkscape-font-specification:'Times New Roman, ';stroke-width:0.264583"
         x="-15.588365"
         y="10.067796"
         id="text8206"><tspan
           sodipodi:role="line"
           id="tspan8204"
           style="font-size:4.23333px;text-align:center;text-anchor:middle;stroke-width:0.264583"
           x="-15.588365"
           y="10.067796">Ondulation </tspan><tspan
           sodipodi:role="line"
           style="font-size:4.23333px;text-align:center;text-anchor:middle;stroke-width:0.264583"
           x="-15.588365"
           y="15.359458"
           id="tspan8375">seule</tspan></text>
    </g>
    <g
       id="g8373"
       inkscape:label="english"
       style="display:none">
      <text
         xml:space="preserve"
         style="font-size:4.23333px;line-height:1.25;font-family:'Times New Roman';-inkscape-font-specification:'Times New Roman, ';stroke-width:0.264583"
         x="-25.006903"
         y="29.360914"
         id="text8347"><tspan
           sodipodi:role="line"
           id="tspan8343"
           style="font-size:4.23333px;stroke-width:0.264583"
           x="-25.006903"
           y="29.360914">Ripple with</tspan><tspan
           sodipodi:role="line"
           style="font-size:4.23333px;stroke-width:0.264583"
           x="-25.006903"
           y="34.652576"
           id="tspan8345">target</tspan></text>
      <text
         xml:space="preserve"
         style="font-size:4.23333px;line-height:1.25;font-family:'Times New Roman';-inkscape-font-specification:'Times New Roman, ';stroke-width:0.264583"
         x="-24.992432"
         y="51.308132"
         id="text8353"><tspan
           sodipodi:role="line"
           id="tspan8349"
           style="font-size:4.23333px;stroke-width:0.264583"
           x="-24.992432"
           y="51.308132">Guided</tspan><tspan
           sodipodi:role="line"
           style="font-size:4.23333px;stroke-width:0.264583"
           x="-24.992432"
           y="56.599792"
           id="tspan8351">ripple</tspan></text>
      <text
         xml:space="preserve"
         style="font-size:4.23333px;line-height:1.25;font-family:'Times New Roman';-inkscape-font-specification:'Times New Roman, ';stroke-width:0.264583"
         x="-24.992432"
         y="73.251221"
         id="text8359"><tspan
           sodipodi:role="line"
           id="tspan8355"
           style="font-size:4.23333px;stroke-width:0.264583"
           x="-24.992432"
           y="73.251221">Satin</tspan><tspan
           sodipodi:role="line"
           style="font-size:4.23333px;stroke-width:0.264583"
           x="-24.992432"
           y="78.542885"
           id="tspan8357">ripple</tspan></text>
      <text
         xml:space="preserve"
         style="font-size:4.26265px;line-height:1.25;font-family:'Times New Roman';-inkscape-font-specification:'Times New Roman, ';stroke-width:0.266416"
         x="-24.992619"
         y="92.514702"
         id="text8367"><tspan
           sodipodi:role="line"
           id="tspan8361"
           style="font-size:4.26265px;stroke-width:0.266416"
           x="-24.992619"
           y="92.514702">Satin</tspan><tspan
           sodipodi:role="line"
           style="font-size:4.26265px;stroke-width:0.266416"
           x="-24.992619"
           y="97.843018"
           id="tspan8363">ripple</tspan><tspan
           sodipodi:role="line"
           style="font-size:4.26265px;stroke-width:0.266416"
           x="-24.992619"
           y="103.17133"
           id="tspan8365">with rungs</tspan></text>
      <text
         xml:space="preserve"
         style="font-size:4.23333px;line-height:1.25;font-family:'Times New Roman';-inkscape-font-specification:'Times New Roman, ';stroke-width:0.264583"
         x="-25.037909"
         y="10.067796"
         id="text8371"><tspan
           sodipodi:role="line"
           id="tspan8369"
           style="font-size:4.23333px;stroke-width:0.264583"
           x="-25.037909"
           y="10.067796">Ripple alone</tspan></text>
    </g>
  </g>
  <g
     id="__inkstitch_stitch_plan__"
     inkscape:label="Plan de broderie"
     inkscape:groupmode="layer"
     style="display:inline"
     transform="matrix(0.57125444,0,0,0.57125444,18.44712,-20.755394)">
    <g
       id="__color_block_0__"
       inkscape:label="color block 1"
       transform="translate(50.96822,-1.8877119)">
      <path
         id="object2570"
         style="fill:none;stroke:#770075;stroke-width:0.4"
         d="m 77.436111,208.52326 0.511164,1.01198 0.511164,1.01198 -0.511164,-1.01198 -0.511164,-1.01198 1.022328,2.02396 -1.173213,-0.82436 -1.028416,1.07167 2.343792,1.22126 0.790482,-2.80787 -3.78916,-2.77218 1.298581,-2.46036 -0.535606,-4.54788 -2.109545,2.48474 -0.408248,2.68558 2.915064,2.72964 3.717533,1.35835 1.319409,3.61123 -1.371925,2.78968 -1.911694,0.46842 -3.437984,-2.48934 1.671748,-2.07519 1.900771,0.50578 1.853067,3.09873 -3.519639,-2.47307 -2.534981,1.29747 -0.612237,1.6688 2.677512,2.96216 4.415833,0.95037 2.88333,-4.01515 -0.511884,-4.40848 -1.87241,-2.25589 -3.716675,-1.05221 -3.349931,-1.91301 -2.428465,-3.09543 0.731427,-3.65396 3.164318,-3.72711 -0.535606,-4.54788 -2.416351,2.23216 -1.80274,2.73732 -0.816495,5.37117 2.486849,3.15432 3.343278,2.30496 3.802037,1.17979 3.63303,1.5369 2.143135,3.34058 0.495682,3.88189 -1.647472,4.28796 -2.908894,2.28544 -2.804181,-0.26506 -2.595269,-1.15294 -3.48739,-3.61789 1.651928,-3.31056 3.842925,-0.80737 2.670613,2.12025 1.663379,3.03238 -2.691522,-3.17398 -3.174543,-0.94781 -4.224969,2.16245 -1.020394,2.78133 1.744512,2.88147 2.718007,2.05547 4.235724,1.701 3.123999,-0.11706 3.025707,-2.66824 1.779842,-4.02366 0.286147,-3.75226 -1.139288,-3.59522 -3.120682,-3.75981 -3.574035,-1.17576 -3.662322,-0.91864 -4.54132,-2.84764 -2.449296,-2.25995 -1.598145,-2.8991 0.06379,-3.14141 1.155256,-2.94851 2.253425,-3.42166 3.020439,-2.79019 -0.535606,-4.54789 -3.624526,3.34824 -2.704111,4.10598 -1.627839,4.8656 0.403097,3.19116 3.318405,4.40213 2.644785,1.99048 2.782,1.79631 3.742169,1.36612 3.907817,0.8659 3.502615,1.84301 1.865886,2.33916 1.348816,2.67171 0.742023,2.8658 0.0015,2.95703 -0.901234,3.34452 -1.569974,3.08743 -1.871861,2.12215 -2.49148,1.30601 -4.206272,-0.3976 -3.892903,-1.72941 -3.071899,-2.29414 -2.159185,-3.13268 0.08739,-2.45395 2.390504,-2.51189 2.747573,-1.29694 3.016816,0.0859 3.122239,2.09764 2.867584,4.61934 -1.655206,-2.41827 -2.112924,-2.02531 -4.444362,-1.32694 -3.190635,1.03708 -2.724321,1.99036 -1.428552,3.89386 2.38449,3.98151 3.863037,2.9302 2.874268,1.41875 3.055746,0.96266 4.373598,-0.16388 2.391991,-1.54979 1.843999,-2.18575 1.44883,-2.72638 1.042948,-2.90675 0.39942,-5.27061 -1.593816,-5.01585 -1.863485,-2.90707 -2.50547,-2.35668 -5.003649,-1.64606 -5.127251,-1.2861 -3.246241,-1.88029 -3.111607,-2.1064 -2.177019,-1.84051 -1.909747,-2.11368 -1.579651,-3.26848 0.05718,-4.28997 1.649476,-4.23592 1.92334,-3.32033 2.590121,-2.82686 2.869949,-2.5494 -0.535607,-4.54788 -2.597042,2.25281 -2.443194,2.41876 -1.880511,2.51259 -1.517435,2.7548 -1.376574,3.14868 -0.793878,3.33878 0.537463,4.25488 1.864559,3.18956 2.559981,2.67994 3.52638,2.65397 3.709334,2.39509 3.730779,1.53155 3.957769,0.84467 3.910038,1.03225 3.271547,2.02491 2.487848,3.11887 1.798423,3.56228 0.989364,3.82107 0.002,3.94271 -1.201645,4.45936 -2.093298,4.11657 -2.495815,2.82954 -3.321974,1.74134 -2.868374,0.0618 -2.814833,-0.61154 -5.115693,-2.28627 -4.4149,-3.3488 -2.559879,-3.88697 0.116516,-3.27193 3.187339,-3.34919 4.923474,-1.95226 3.978092,0.84698 2.947272,2.28737 1.959797,2.60186 1.522873,2.88261 -2.128123,-3.1092 -2.716617,-2.60397 -2.710374,-1.34977 -3.003805,-0.35629 -4.102246,1.33339 -3.502698,2.55903 -1.836709,5.00639 1.184017,2.76032 1.881755,2.35877 2.376621,2.02377 2.590142,1.74363 3.695486,1.82411 3.928817,1.23769 2.833073,0.28777 2.790124,-0.49847 3.075417,-1.99258 2.370857,-2.81025 1.86278,-3.50534 1.340934,-3.73726 0.574076,-3.36511 -0.06054,-3.41139 -0.785577,-3.30003 -1.263614,-3.14892 -2.39591,-3.73766 -3.221318,-3.03001 -4.218052,-1.6279 -4.440622,-0.92816 -4.366769,-1.21386 -4.173738,-2.41751 -4.000637,-2.70824 -2.799026,-2.36637 -2.455389,-2.71758 -2.03098,-4.20234 -0.24748,-3.66346 0.606591,-2.81263 0.987062,-2.70482 1.66542,-3.26472 1.895076,-3.13382 3.240269,-3.43537 3.540296,-3.12837 -0.535606,-4.54788 -3.246303,2.81602 -3.053992,3.02344 -2.350639,3.14075 -1.896794,3.44349 -1.720717,3.93585 -0.992348,4.17348 0.671829,5.3186 2.330699,3.98694 3.199976,3.34994 4.407975,3.31746 4.636667,2.99386 4.663474,1.91444 4.947211,1.05583 4.887548,1.29032 4.089434,2.53113 3.10981,3.89859 2.248028,4.45285 1.236705,4.77633 0.0025,4.9284 -0.901162,3.74362 -1.372958,3.59657 -1.844559,3.37972 -3.783791,4.07753 -3.488445,1.63607 -3.585468,0.0772 -3.518541,-0.76442 -3.268547,-1.26909 -3.126068,-1.58874 -2.877935,-1.93737 -2.64069,-2.24864 -1.853945,-2.26528 -1.345904,-2.59343 0.145645,-4.08991 1.726193,-2.33278 2.25798,-1.85371 2.930517,-1.59829 3.223826,-0.84203 4.972614,1.05872 3.684091,2.85922 2.296379,3.01396 1.801376,3.33564 -2.601039,-3.80013 -3.32031,-3.18263 -3.312679,-1.64973 -3.671317,-0.43546 -4.376003,1.24658 -2.577231,1.58839 -2.341698,1.92244 -1.857436,2.53209 -0.387431,3.58682 1.447132,3.37373 2.299923,2.88293 2.90476,2.4735 3.165728,2.1311 4.516706,2.22947 4.801886,1.51274 3.462646,0.35172 3.410152,-0.60924 3.758842,-2.43538 2.897714,-3.43475 2.276732,-4.28431 1.638924,-4.56775 0.70164,-4.11292 -0.074,-4.16948 -0.96014,-4.03337 -1.544423,-3.84868 -2.928334,-4.56825 -3.937168,-3.70335 -5.155396,-1.98965 -5.427427,-1.13442 -5.337162,-1.4836 -3.446937,-1.88751 -3.308596,-2.13447 -3.23537,-2.24283 -3.421031,-2.89223 -3.001031,-3.32149 -1.479918,-2.45326 -1.002391,-2.68293 -0.302476,-4.47756 0.741389,-3.43766 1.206409,-3.30589 2.035513,-3.99021 2.316205,-3.83023 2.597928,-2.83819 2.775025,-2.66779 2.914404,-2.51636 -0.535606,-4.54789 -3.895564,3.37923 -3.66479,3.62813 -2.820768,3.76889 -2.276151,4.13219 -2.064861,4.72302 -1.190818,5.00818 0.06747,3.23329 0.738723,3.14903 2.796839,4.78433 3.839971,4.01992 3.486976,2.70635 3.656277,2.47361 3.710317,2.39362 4.151582,1.83272 4.402948,1.14477 4.460274,0.91451 4.383076,1.22071 2.617792,1.25573 2.289529,1.78163 2.57347,3.05092 2.150661,3.36141 1.70528,3.60941 0.91699,2.86581 0.58398,2.95162 0.1983,2.91472 -0.21223,2.91351 -0.70224,3.30554 -1.02855,3.21954 -1.86044,4.01223 -2.367671,3.73459 -2.212695,2.40662 -2.636349,1.92817 -4.392581,1.33796 -3.53615,-0.24861 -3.457234,-0.80044 -3.922256,-1.52291 -3.751282,-1.90649 -3.453521,-2.32483 -3.168829,-2.69837 -2.224734,-2.71834 -1.615085,-3.11211 0.174774,-4.9079 2.071432,-2.79934 2.709577,-2.22444 3.51662,-1.91796 3.868591,-1.01043 3.062171,0.26253 2.904966,1.00794 4.420908,3.43106 2.632961,3.42606 2.07988,3.78867 -3.073956,-4.49107 -3.924002,-3.76129 -3.76495,-1.91586 -4.488863,-0.54845 -5.17164,1.47323 -3.045818,1.87719 -2.767462,2.27197 -2.195151,2.99247 -0.457873,4.23897 1.710246,3.98714 2.718092,3.4071 3.432897,2.92323 3.741315,2.51857 3.525175,1.82457 3.67648,1.49352 3.811227,1.10452 4.092218,0.41567 4.030179,-0.72002 4.303612,-2.74037 3.563231,-4.19705 1.92248,-3.31029 1.53491,-3.50674 1.1702,-3.6445 0.82922,-4.86072 -0.0874,-4.92756 -1.13473,-4.76672 -1.82522,-4.54843 -1.62014,-2.831 -1.900277,-2.65096 -2.105364,-2.35582 -2.487994,-1.93775 -4.52382,-1.88144 -4.76867,-1.17553 -4.811006,-1.00284 -4.711032,-1.38563 -4.073653,-2.23069 -3.910158,-2.52255 -3.82362,-2.65062 -4.043037,-3.41809 -3.546673,-3.9254 -1.748993,-2.8993 -1.184644,-3.17074 -0.357471,-5.29166 0.876186,-4.06269 1.425756,-3.90696 2.405607,-4.71571 2.737332,-4.52663 3.07028,-3.35422 3.279574,-3.15285 3.444296,-2.97388 -0.535606,-4.54788 -3.043097,2.61286 -2.938924,2.72774 -2.838392,2.83465 -3.290896,4.39704 -2.65551,4.82089 -1.667752,3.64651 -1.321329,3.78324 -0.809211,3.92331 0.07872,3.77217 0.861843,3.67386 2.60371,4.78965 2.411604,2.88891 2.727631,2.59308 4.068139,3.1574 4.265656,2.88588 4.328703,2.79256 4.843513,2.13817 5.136772,1.33556 5.203653,1.06693 5.113588,1.42417 3.054092,1.46501 2.671117,2.07858 3.002387,3.5594 2.5091,3.92165 1.98949,4.21097 1.06983,3.34345 0.6813,3.44355 0.23136,3.40051 -0.24761,3.3991 -0.81928,3.85646 -1.19997,3.75613 -2.17051,4.68094 -2.76229,4.35702 -2.581477,2.80771 -3.075739,2.24954 -5.124679,1.56095 -4.125509,-0.29004 -4.033438,-0.93384 -4.095722,-1.56208 -3.930212,-1.9405 -3.737899,-2.29057 -3.642491,-2.91199 -3.225922,-3.36431 -1.714447,-2.72956 -1.100823,-3.02539 0.493094,-4.56505 2.364009,-3.22266 2.980344,-2.44673 3.280112,-2.0216 2.713828,-1.04767 2.855629,-0.53888 4.834161,0.59064 4.054562,2.06324 2.955009,2.56325 2.509109,3.00459 2.072144,3.31931 -1.036072,-1.65966 -1.036072,-1.65965 1.036072,1.65965 1.036072,1.65966"
         transform="scale(0.264583)"
         inkstitch:manual_stitch="true" />
      <g
         id="command_group2"
         inkscape:label="Commande Ink/Stitch: Trim thread after sewing this object"
         transform="scale(0.264583)"
         style="display:none">
        <path
           id="command_connector2"
           d="M 68.825357,114.91555 79.79868,201.4335"
           style="fill:none;stroke:#000000;stroke-width:1px;stroke-opacity:0.5"
           inkscape:connection-start="#command_use5270"
           inkscape:connection-end="#object2570"
           inkscape:label="connecteur"
           inkscape:connector-type="polyline"
           inkscape:connector-curvature="0" />
        <use
           id="command_use5270"
           xlink:href="#inkstitch_trim"
           height="100%"
           width="100%"
           x="68.822777"
           y="114.8797"
           inkscape:label="marqueur de commande" />
      </g>
      <path
         id="object2674"
         style="fill:none;stroke:#770075;stroke-width:0.4"
         d="m 226.56379,334.84587 -2.40741,0.77646 -2.40741,0.77647 2.40741,-0.77647 2.40741,-0.77646 -4.81482,1.55293 -4.81483,1.55293 -1.57103,-0.71104 -0.63059,0.95835 1.5113,1.19026 1.26149,-0.27715 0.58917,-1.78317 -3.92567,-3.2447 1.2074,-2.70439 -3.72919,-1.15533 -3.7292,-1.15532 -3.72919,-1.15533 -2.10955,2.48474 -0.40825,2.68559 3.10123,2.83505 3.85612,1.61632 0.70619,4.33536 -1.74555,2.12377 -2.94389,-0.63358 -1.7996,-2.3043 2.11274,-1.64799 2.34643,1.64872 -4.81483,1.55292 -4.81482,1.55293 -2.02786,-2.15545 -2.68524,0.0224 -1.89179,2.87505 1.89001,2.23636 2.64392,1.3344 3.78446,-0.83143 1.40926,-2.50517 0.35823,-2.84436 -2.25747,-4.20161 -5.30142,-1.7957 -2.35531,-1.60705 -1.86278,-2.12971 0.17516,-3.79243 3.44702,-4.32076 -3.72919,-1.15532 -3.7292,-1.15533 -3.72919,-1.15532 -2.41635,2.23215 -1.80274,2.73733 -0.8165,5.37117 2.48685,3.15432 3.34328,2.30496 3.80204,1.17978 3.63303,1.53691 2.14313,3.34057 0.49569,3.88189 -1.9863,4.75731 -3.08055,1.89091 -4.88897,-1.49282 -3.48739,-3.61788 1.65193,-3.31056 3.84292,-0.80738 3.31167,3.12868 -4.81483,1.55293 -4.81482,1.55293 -1.71879,-2.33885 -2.42079,-1.572 -4.80366,1.00922 -2.13118,2.49361 0.42623,2.47152 2.99522,3.05536 4.20137,2.06899 4.16241,0.15503 3.02571,-2.66824 1.30831,-2.57286 0.75103,-2.7871 -0.6196,-4.85236 -3.13706,-4.57876 -4.38249,-1.57708 -4.45321,-1.41575 -3.92551,-2.67842 -3.10464,-3.54952 -0.59512,-3.18026 0.88706,-3.14045 2.35895,-4.00353 3.38609,-3.19773 -3.7292,-1.15533 -3.72919,-1.15532 -3.7292,-1.15533 -3.62452,3.34823 -2.70411,4.10599 -1.62784,4.8656 0.4031,3.19116 3.3184,4.40213 2.64479,1.99047 2.782,1.79632 3.74216,1.36612 3.90782,0.8659 3.50262,1.84301 1.86588,2.33915 1.34882,2.67172 0.74202,2.8658 0.001,2.95703 -1.07514,3.74231 -1.90431,3.39365 -4.62081,2.83637 -3.80643,-0.6352 -3.52703,-1.60403 -3.0719,-2.29414 -2.15919,-3.13269 0.0874,-2.45395 2.3905,-2.51189 3.69261,-1.46419 2.98357,0.63523 2.33139,1.86371 1.72432,2.44721 -4.81483,1.55293 -4.81482,1.55293 -2.4063,-3.2744 -3.38911,-2.20079 -3.76488,-0.0568 -2.96024,1.46968 -2.98365,3.49106 0.59671,3.46012 1.86548,2.36112 2.32783,1.91639 2.83463,1.66474 3.04729,1.23184 4.9728,0.48104 4.49762,-3.17819 1.83889,-3.08363 1.24584,-3.37085 0.51084,-3.48738 -0.44893,-3.49518 -1.88536,-4.40309 -3.04458,-3.68872 -3.71376,-1.66904 -4.00619,-0.86166 -3.89773,-1.23329 -3.48651,-2.18988 -3.31991,-2.43241 -2.84674,-2.96259 -1.80462,-4.6837 0.70875,-4.30936 1.49091,-3.28791 1.84161,-3.10487 2.52021,-2.67196 2.75356,-2.43317 -3.72919,-1.15532 -3.7292,-1.15533 -3.72919,-1.15532 -3.14693,2.78076 -2.88024,3.05367 -1.68451,2.78562 -1.48038,2.90197 -1.41658,4.9044 0.94947,5.20873 1.7849,2.635 2.22764,2.28065 3.52638,2.65397 3.70933,2.39509 3.73078,1.53155 3.95777,0.84467 3.91003,1.03225 3.27155,2.0249 2.48785,3.11887 1.79842,3.56229 0.80248,2.87309 0.33141,2.96351 -1.03865,5.47047 -2.39882,5.03265 -3.02703,3.26202 -3.81171,1.45848 -5.07524,-0.84693 -4.70271,-2.13871 -4.4149,-3.3488 -2.55987,-3.88697 0.11651,-3.27193 3.18734,-3.34919 4.92347,-1.95226 3.9781,0.84698 3.10852,2.48494 2.29909,3.26295 -4.81483,1.55293 -4.81482,1.55293 -1.68185,-2.56239 -2.05648,-2.27414 -3.71291,-2.20301 -4.84055,-0.073 -3.80604,1.88959 -2.29889,1.94065 -1.53723,2.54785 0.76721,4.44873 2.39847,3.03572 2.99292,2.46394 3.64452,2.14038 3.91795,1.58379 3.16668,0.68798 3.22693,-0.0695 3.2322,-1.54787 2.55044,-2.53837 2.36429,-3.96467 1.60179,-4.33394 0.65681,-4.48378 -0.5772,-4.4938 -1.15412,-3.20627 -1.59009,-3.01431 -3.59428,-4.18317 -4.77485,-2.14591 -5.15081,-1.10786 -5.01136,-1.58566 -4.67433,-2.93922 -4.43309,-3.28863 -2.13221,-2.11654 -1.82098,-2.38809 -1.67083,-5.0414 0.38552,-3.7726 1.2499,-3.58875 1.66542,-3.26473 1.89508,-3.13382 3.24027,-3.43537 3.54029,-3.12836 -3.72919,-1.15533 -3.7292,-1.15532 -3.72919,-1.15533 -3.93366,3.47596 -3.6003,3.81708 -2.10564,3.48202 -1.85047,3.62747 -1.09673,3.00536 -0.67399,3.12514 0.15817,3.33575 1.02866,3.17516 2.23113,3.29376 2.78454,2.85081 4.40798,3.31746 4.63666,2.99386 4.66348,1.91444 4.94721,1.05583 4.88755,1.29032 4.08943,2.53113 3.10981,3.89859 2.24803,4.45285 1.00309,3.59136 0.41426,3.70439 -0.50751,3.98366 -1.11296,3.86288 -1.18797,2.71732 -1.48839,2.56504 -3.78379,4.07753 -4.76463,1.8231 -2.9468,-0.20718 -2.88102,-0.66703 -4.35327,-1.75977 -4.04947,-2.3782 -2.60178,-2.07999 -2.30423,-2.40308 -2.01091,-4.11068 1.32891,-4.8151 2.44177,-2.16772 2.74187,-1.77149 2.81574,-0.92751 2.95655,-0.15774 4.55498,1.84762 3.01846,2.8933 2.36458,3.45467 -4.81482,1.55293 -4.81483,1.55293 -2.05559,-3.13182 -2.51347,-2.7795 -4.53801,-2.69256 -2.95164,-0.44142 -2.96459,0.3522 -4.65182,2.3095 -2.809753,2.37191 -1.878838,3.11404 0.937696,5.43734 2.931465,3.71032 3.65802,3.01148 4.45441,2.61602 4.7886,1.93574 3.87039,0.84087 3.94402,-0.085 3.95048,-1.89183 3.1172,-3.10247 2.88968,-4.8457 1.95775,-5.29704 0.81086,-5.58971 -0.71357,-5.38288 -1.41058,-3.91878 -1.94345,-3.68416 -2.02574,-2.70501 -2.36727,-2.40775 -4.29753,-2.14712 -4.67749,-1.19113 -4.72551,-1 -4.55582,-1.5766 -3.82225,-2.37256 -3.742899,-2.497 -3.566142,-2.74227 -2.606035,-2.58688 -2.22564,-2.91878 -1.378605,-2.96286 -0.663521,-3.19884 0.47118,-4.61096 1.527663,-4.38625 2.035513,-3.99022 2.316205,-3.83022 2.597928,-2.83819 2.775023,-2.6678 2.91441,-2.51636 -3.729198,-1.15532 -3.729195,-1.15533 -3.729194,-1.15532 -3.17935,2.74512 -3.0273,2.91032 -2.834104,3.0962 -2.526768,4.17843 -2.22056,4.35296 -1.316083,3.60643 -0.808787,3.75018 0.189812,4.00289 1.23439,3.81019 2.677353,3.95251 3.34145,3.42098 3.486976,2.70634 3.656276,2.47361 3.710318,2.39363 4.151582,1.83271 4.402952,1.14477 4.46027,0.91451 4.38308,1.22071 2.61779,1.25573 2.28953,1.78163 2.57347,3.05092 2.15066,3.36141 1.70527,3.60941 1.20371,4.30963 0.49712,4.44526 -0.60901,4.78039 -1.33556,4.63547 -1.42556,3.26078 -1.78607,3.07804 -2.06034,2.6429 -2.48021,2.25014 -2.7041,1.50267 -3.01346,0.68505 -3.53615,-0.24862 -3.45723,-0.80044 -5.223926,-2.11172 -4.859361,-2.85384 -3.122135,-2.49599 -2.765076,-2.88369 -2.413089,-4.93282 0.130017,-3.07056 1.464676,-2.70756 2.930121,-2.60126 3.290236,-2.12579 3.378896,-1.11302 3.547863,-0.18928 2.852858,0.81 2.61311,1.40715 3.62216,3.47195 2.83749,4.1456 -4.81482,1.55293 -4.81483,1.55293 -2.429333,-3.70123 -2.970468,-3.28487 -2.536867,-1.83699 -2.826237,-1.34512 -3.488298,-0.52168 -3.503609,0.41624 -2.856991,1.14337 -2.64061,1.58604 -3.320617,2.80316 -2.220446,3.68023 -0.06807,3.31108 1.176256,3.11486 3.464462,4.38493 4.323107,3.55902 3.470907,2.12696 3.649483,1.8019 3.803169,1.4505 4.574104,0.99375 4.661108,-0.1004 4.53498,-2.1269 3.81773,-3.77546 2.39381,-3.75106 1.91358,-4.01672 1.42139,-4.21909 0.6848,-3.27403 0.27349,-3.332 -0.22143,-3.20723 -0.62187,-3.15435 -1.66706,-4.63129 -2.2968,-4.354 -2.39405,-3.19683 -2.79769,-2.84553 -4.12511,-2.24259 -4.356446,-1.23563 -4.436223,-0.92234 -4.412972,-1.02109 -4.244938,-1.56863 -4.5172,-2.80393 -4.423425,-2.951 -4.214532,-3.24086 -3.079859,-3.05722 -2.630302,-3.44947 -1.62926,-3.50157 -0.784161,-3.78044 0.556848,-5.44932 1.80542,-5.18375 2.405607,-4.71571 2.737333,-4.52663 3.070279,-3.35423 3.279575,-3.15284 3.444295,-2.97388 -3.729194,-1.15533 -3.729195,-1.15532 -3.729194,-1.15533 -3.043097,2.61287 -2.938924,2.72774 -2.838392,2.83464 -3.290896,4.39704 -2.65551,4.82089 -1.667752,3.64651 -1.321329,3.78324 -0.809211,3.92332 0.07872,3.77217 0.861843,3.67386 2.60371,4.78964 2.411604,2.88892 2.727631,2.59307 4.068139,3.1574 4.265656,2.88588 4.328703,2.79257 4.843513,2.13816 5.136772,1.33557 5.203653,1.06692 5.113588,1.42417 3.054092,1.46501 2.671117,2.07858 3.002384,3.5594 2.5091,3.92165 1.98949,4.21097 1.06983,3.34345 0.6813,3.44355 0.23136,3.40051 -0.24761,3.3991 -0.81928,3.85647 -1.19997,3.75613 -2.17051,4.68094 -2.76229,4.35702 -2.581473,2.80772 -3.07574,2.24954 -5.124679,1.56095 -4.125509,-0.29005 -4.033438,-0.93384 -4.095721,-1.56208 -3.930213,-1.9405 -3.737899,-2.29058 -3.642491,-2.91199 -3.225922,-3.3643 -1.714447,-2.72957 -1.100823,-3.02539 0.493094,-4.56505 2.364009,-3.22266 2.980344,-2.44673 3.280112,-2.02159 2.713828,-1.04768 2.855629,-0.53887 4.834161,0.59063 4.054562,2.06324 2.955009,2.56326 2.509109,3.00458 2.072144,3.31931 -1.036072,-1.65965 -1.036072,-1.65966 1.036072,1.65966 1.036072,1.65965"
         transform="scale(0.264583)"
         inkstitch:manual_stitch="true" />
      <g
         id="command_group4"
         inkscape:label="Commande Ink/Stitch: Trim thread after sewing this object"
         transform="scale(0.264583)"
         style="display:none">
        <path
           id="command_connector4"
           d="m 114.29187,268.69143 11.57803,34.95908"
           style="fill:none;stroke:#000000;stroke-width:1px;stroke-opacity:0.5"
           inkscape:connection-start="#command_use7394"
           inkscape:connection-end="#object2674"
           inkscape:label="connecteur"
           inkscape:connector-type="polyline"
           inkscape:connector-curvature="0" />
        <use
           id="command_use7394"
           xlink:href="#inkstitch_trim"
           height="100%"
           width="100%"
           x="114.28929"
           y="268.65558"
           inkscape:label="marqueur de commande" />
      </g>
      <path
         id="object5994"
         style="fill:none;stroke:#770075;stroke-width:0.4"
         d="m 73.07577,424.76485 -1.491032,1.28023 -1.491032,1.28024 1.491032,-1.28024 1.491032,-1.28023 -2.982064,2.56047 -2.880834,2.67384 -2.781107,2.77744 -3.227844,4.31412 -2.599633,4.71945 -1.633536,3.5717 -1.295187,3.70781 -0.793603,3.84649 0.07721,3.69702 0.844539,3.60009 2.551635,4.69386 2.363484,2.83124 2.672967,2.54111 3.987362,3.09465 4.180533,2.82826 4.241353,2.73621 4.757139,2.09814 5.032222,1.3079 5.09342,1.04451 5.008794,1.39498 2.99181,1.43514 2.6189,2.03758 2.94203,3.48786 2.45922,3.84357 1.62961,3.44924 1.25432,3.59719 0.78188,3.73158 0.0864,5.25911 -0.90521,5.18385 -1.51021,4.40181 -2.00536,4.20169 -2.49454,3.93471 -2.52869,2.7503 -3.015386,2.20581 -5.022185,1.52973 -4.045118,-0.28473 -3.950651,-0.91468 -4.013831,-1.53085 -3.851905,-1.90188 -3.66282,-2.24457 -3.568727,-2.85301 -3.162318,-3.29776 -1.679143,-2.67335 -1.079821,-2.9665 0.483232,-4.47375 2.316729,-3.1582 4.132964,-3.14492 4.661834,-2.26077 3.753812,-0.41138 3.782182,0.46211 3.695066,1.8803 3.174314,2.65366 2.458465,2.94394 2.031163,3.25348 3.109147,-4.0926 3.109147,-4.09261 3.10915,-4.0926 -1.8041,-3.1411 -2.215556,-2.86555 -2.864882,-2.56769 -3.388646,-1.83847 -3.504104,-0.4722 -3.483078,0.3679 -2.873879,1.19859 -2.654957,1.63934 -2.820353,2.33811 -2.185514,2.94308 -0.567127,4.28325 0.920315,2.84437 1.492553,2.59009 2.855574,3.20098 3.256862,2.79159 3.352205,2.20213 3.542775,1.88023 3.708138,1.52847 3.65991,0.93285 3.762704,0.32715 4.70971,-1.41322 2.86314,-2.10472 2.40231,-2.61886 2.6152,-4.11013 2.07521,-4.40759 1.53758,-5.13202 0.77701,-5.29492 -0.39892,-4.88376 -1.14374,-4.76599 -1.68364,-3.95425 -2.17207,-3.70817 -2.64787,-3.38485 -2.369,-1.95808 -2.74206,-1.38803 -4.59651,-1.35094 -4.680858,-1.02088 -4.61836,-1.27411 -4.339288,-2.02988 -3.818604,-2.62769 -3.758759,-2.71261 -3.567164,-2.96004 -2.689393,-2.83897 -2.205287,-3.21427 -1.709621,-3.52065 -0.625828,-3.42632 0.09211,-3.48212 1.60195,-5.39555 2.371136,-5.11038 2.650331,-4.45247 3.219474,-4.06001 2.734335,-2.61641 2.825904,-2.51723 2.925136,-2.4012 5.309544,0.67492 5.309545,0.67492 5.309547,0.67492 -4.01448,3.07584 -3.858732,3.26921 -2.727474,3.1284 -2.323599,3.43468 -2.067452,3.59673 -1.7532,4.51021 -0.643043,4.7764 0.795318,3.60012 1.618669,3.33688 1.857695,2.37703 2.134515,2.13197 3.230639,2.60518 3.400499,2.37922 3.451485,2.30464 3.96705,1.77849 4.20695,1.09866 4.25905,0.87534 4.18503,1.17948 4.52024,2.94137 2.23703,2.97454 1.78083,3.26828 1.54745,4.52644 0.70211,4.73178 -0.0768,2.90277 -0.46526,2.86648 -0.97946,3.29714 -1.27296,3.19538 -2.13366,4.05117 -2.5737,3.78694 -2.304,2.4227 -2.70579,1.96316 -4.34063,1.32624 -3.38837,-0.2842 -3.29349,-0.84481 -4.86701,-2.24293 -4.530416,-2.86328 -2.832731,-2.50603 -2.459527,-2.87317 -1.961738,-4.89124 0.71427,-3.86507 2.146676,-2.67109 2.694051,-2.11499 3.63474,-1.98957 4.002455,-1.05058 3.81641,0.47465 3.40616,1.76084 3.22012,3.45557 2.3989,4.07441 5.04583,0.52692 5.04582,0.52691 5.04582,0.52692 -1.44809,-2.49691 -1.81478,-2.26675 -2.17326,-1.92594 -3.22518,-1.58412 -3.57482,-0.44665 -3.68704,0.90342 -3.36763,1.76134 -2.46025,1.86364 -1.95996,2.38587 -0.60039,3.44663 1.90536,4.36405 2.34084,2.5629 2.6732,2.21414 4.2688,2.49554 4.55302,1.92826 3.09458,0.71634 3.16878,0.22289 4.06499,-1.18544 2.51293,-1.70499 2.16775,-2.12657 3.118,-4.58827 2.36696,-5.01507 1.21636,-5.39936 -0.37664,-5.06521 -0.85265,-2.85134 -1.20005,-2.72752 -1.80416,-2.91812 -2.19214,-2.63931 -4.3311,-2.68068 -5.24679,-1.39487 -5.28245,-1.25583 -5.04096,-1.98695 -3.24913,-2.09768 -3.20213,-2.16872 -3.05207,-2.37524 -3.28915,-3.47947 -2.35404,-4.16261 -0.47266,-5.4741 1.34164,-4.24605 1.98222,-3.99289 2.21748,-3.47115 2.6818,-3.12645 3.46568,-2.95339 3.61081,-2.77395 3.59739,4.26483 3.59738,4.26483 3.59739,4.26482 -3.07436,2.54713 -2.94175,2.6993 -2.24926,2.85907 -1.81417,3.15316 -1.59628,3.64033 -1.00798,3.84053 0.65355,4.99044 2.27643,3.82754 3.07985,3.22331 4.28628,3.23079 4.45895,2.99162 4.51488,1.89935 4.74221,1.26169 4.71016,1.37483 3.90476,2.48514 2.02469,2.40256 1.6998,2.64229 1.5636,3.52415 0.91551,3.7441 0.0143,3.47945 -0.68771,3.41245 -1.05464,2.7564 -1.36984,2.61766 -1.72221,2.40273 -2.0756,2.09626 -2.70743,1.51448 -3.03402,0.75346 -3.87672,-0.54233 -3.7208,-1.2168 -3.53893,-1.68594 -2.62205,-1.63104 -2.41241,-1.92861 -3.33232,-4.09528 -0.3047,-4.9811 1.68971,-2.05112 2.98745,-2.00034 3.31342,-1.37501 5.32514,0.24269 2.57111,1.34788 2.22051,1.8608 3.04231,4.17126 3.63252,3.68325 3.64633,3.67229 3.64632,3.67229 -3.04077,-4.07753 -4.50499,-3.0634 -3.27953,-0.43251 -3.19373,0.84693 -2.93116,1.9682 -2.26645,2.68204 0.57643,4.7502 3.25791,3.8948 3.48441,2.58805 3.80497,2.09386 3.78927,1.37313 3.9749,0.64557 5.02427,-2.15363 2.54496,-3.36221 1.78945,-3.83148 1.02408,-4.72955 -0.0805,-3.27268 -0.64445,-3.21152 -1.44846,-3.51229 -1.93416,-3.27055 -2.38231,-2.96244 -3.65909,-2.37469 -4.31156,-1.26466 -4.34517,-1.14647 -4.13078,-1.7475 -4.13554,-2.79394 -3.97652,-3.01289 -2.90319,-3.03921 -2.17151,-3.59419 -0.76037,-4.74866 0.77887,-3.67479 1.32852,-3.51757 1.53974,-3.03887 1.95656,-2.78864 2.58699,-2.64375 2.72057,-2.50597 3.38675,4.45355 3.38676,4.45355 3.38675,4.45355 -2.36977,2.4588 -2.23546,2.58161 -1.6669,2.71583 -1.27409,2.92105 -1.07082,3.3957 -0.56273,3.51272 0.85364,4.51279 2.05694,3.36693 2.71955,2.86244 3.65959,2.80348 3.80519,2.60539 3.7425,1.60363 3.94542,1.03884 3.90963,1.16324 3.4035,2.27522 2.72169,3.5134 2.18299,3.87198 1.09139,3.11166 0.66061,3.22963 -0.024,3.3644 -0.5035,3.3295 -0.87152,2.74407 -1.24535,2.59539 -2.79401,2.86738 -2.75,0.77986 -4.64845,-0.95471 -3.59281,-1.67064 -3.38804,-2.05509 -2.23949,-1.81382 -2.01894,-2.05657 -1.94502,-3.47764 1.09642,-4.61097 3.20383,-2.59843 2.99957,-0.88107 5.11938,1.75133 3.19199,3.24285 2.81802,3.56245 3.20572,3.24498 3.20573,3.24499 3.20572,3.24498 -2.18066,-2.78241 -2.57244,-2.42146 -4.63572,-1.6139 -2.89079,1.15692 -2.23222,2.21505 -0.51874,4.32154 1.72503,2.79125 2.3147,2.33311 4.13967,2.90738 4.5618,2.18949 4.14873,0.74543 3.64322,-1.76112 1.47092,-3.13298 0.74885,-3.39417 0.10227,-3.17858 -0.31449,-3.16259 -0.90198,-3.08367 -1.21981,-2.97432 -2.19565,-3.72612 -2.66542,-3.40488 -3.1614,-2.15923 -5.29721,-1.46132 -5.12113,-1.95276 -3.48413,-2.40326 -3.35242,-2.58138 -2.54648,-2.67553 -1.956,-3.13094 -0.95854,-4.27776 0.33899,-3.35631 0.80262,-3.27903 1.00736,-2.81751 1.37913,-2.65506 1.88979,-2.53728 2.02527,-2.43043 3.41631,4.42594 3.41631,4.42595 3.41631,4.42594 -2.96479,4.52421 -1.64317,5.13829 -0.37716,2.92743 0.0246,2.94963 1.20667,3.75579 2.81209,3.68187 3.57932,2.95326 3.18606,2.02764 3.37281,1.68236 4.26687,1.06111 4.13014,1.46726 2.62456,2.14717 2.30984,2.4919 2.44511,3.50062 0.94536,2.98849 0.51052,3.10302 -1.2559,4.12823 -2.85066,1.34116 -4.78106,-0.61353 -4.53889,-1.67028 -2.55499,-1.46532 -2.3018,-1.82852 -1.16854,-2.55528 2.11612,-2.069 2.67575,-1.19129 5.30436,1.58468 2.68096,2.23022 4.9969,-1.05342 4.9969,-1.05342 4.9969,-1.05343 -2.71797,-1.58418 -2.97185,-1.02156 -4.39357,0.98185 -0.65621,2.78637 2.33301,1.69831 2.69064,1.08713 3.92767,0.8312 4.00669,0.0999 2.99449,-1.84289 0.45685,-3.00234 -2.03489,-3.32914 -2.56953,-2.10749 -2.82045,-1.762 -5.22839,-1.52328 -5.30527,-1.28149 -3.59769,-1.68139 -3.44239,-1.9743 -2.96949,-2.62288 -1.59917,-3.35339 -0.32126,-3.71805 0.63789,-3.84471 1.69007,-3.52627 5.43801,1.01257 5.43801,1.01257 5.43801,1.01257 -1.39693,3.50654 0.15766,2.8756 0.94429,2.70473 2.73686,2.1262 3.19116,1.39499 5.21925,1.42758 5.37396,0.67848 4.33905,2.08585 2.15853,3.27981 -2.86405,2.97999 -3.74908,0.0561 -3.68207,-0.7409 -2.89561,-2.16366 3.01312,-1.99256 2.97891,0.28704 2.77015,1.16252 3.99162,-3.24135 3.99162,-3.24135 3.99162,-3.24136 -5.42463,-0.4188 -1.00645,1.69016 4.79957,1.19574 3.69718,-0.59527 1.2674,-2.23076 -4.08442,-2.73909 -3.22084,-0.37829 -3.2363,-0.28141 -3.29521,-0.88213 -3.06847,-1.46089 -1.57032,-2.93124 0.85101,-2.85994 5.14436,-2.18059 5.14436,-2.18059 5.14437,-2.18059 -0.72469,1.77299 0.97986,1.81642 5.137,1.51749 5.30848,0.68799 0.97596,0.98645 -0.92054,1.46052 -3.78969,0.46464 -2.13808,-0.93539 1.58205,-0.97446 2.98442,0.35168 3.12629,-4.0896 3.12629,-4.08959 3.12629,-4.0896 -2.38231,0.18901 2.13139,0.59705 1.52945,-0.89707 -2.73502,-0.83051 -2.99262,-0.70584 -0.56212,-1.71363 4.28561,-3.29568 4.35899,-3.21398 4.35899,-3.21399 -2.1795,1.60699 -2.17949,1.607 2.17949,-1.607 2.1795,-1.60699"
         transform="scale(0.264583)"
         inkstitch:manual_stitch="true" />
      <g
         id="command_group6"
         inkscape:label="Commande Ink/Stitch: Trim thread after sewing this object"
         transform="scale(0.264583)"
         style="display:none">
        <path
           id="command_connector6"
           d="m 124.85066,395.09609 30.35531,86.67774"
           style="fill:none;stroke:#000000;stroke-width:1px;stroke-opacity:0.5"
           inkscape:connection-start="#command_use7670"
           inkscape:connection-end="#object5994"
           inkscape:label="connecteur"
           inkscape:connector-type="polyline"
           inkscape:connector-curvature="0" />
        <use
           id="command_use7670"
           xlink:href="#inkstitch_trim"
           height="100%"
           width="100%"
           x="124.84808"
           y="395.06024"
           inkscape:label="marqueur de commande" />
      </g>
      <path
         id="object8978"
         style="fill:none;stroke:#770075;stroke-width:0.4"
         d="m 69.937626,569.26086 -1.648069,1.41845 -1.648069,1.41845 1.648069,-1.41845 1.648069,-1.41845 -3.296138,2.8369 -3.164186,2.98138 -3.01731,3.13134 -1.834623,2.45236 -1.597113,2.61913 -2.074679,4.29393 -2.07468,4.29392 -0.70348,5.01985 -0.703481,5.01984 1.84808,3.61853 1.84808,3.61853 1.84808,3.61852 3.609714,2.8839 3.609715,2.88389 3.609714,2.8839 3.790209,1.93894 3.790208,1.93894 3.790209,1.93894 5.131169,1.10837 5.131169,1.10838 4.038403,1.78759 4.038403,1.78759 2.709021,3.15784 2.70903,3.15784 1.81508,3.77415 1.81509,3.77415 0.79053,4.233 0.79053,4.233 -0.68887,4.47397 -0.68887,4.47396 -1.97318,4.46703 -1.97317,4.46704 -3.744417,3.90782 -3.744413,3.90783 -4.871557,-0.045 -4.871557,-0.045 -4.871557,-0.045 -3.757254,-2.27359 -3.757253,-2.27359 -3.757254,-2.27359 -3.757254,-2.27358 -1.470373,-4.39127 -1.470374,-4.39126 -1.470374,-4.39126 3.603935,-3.29968 3.603935,-3.29968 4.248002,-1.13989 4.248003,-1.13989 3.847573,1.50359 3.847572,1.50359 3.724716,4.08892 3.308325,4.39952 3.179616,0.36946 3.179616,0.36945 -1.336899,-2.14197 -2.723973,-2.93879 -2.723973,-2.9388 -3.665421,-1.45415 -3.665421,-1.45415 -4.042922,0.99607 -4.042922,0.99606 -3.455297,2.99496 -3.455298,2.99497 1.258574,4.00473 1.258574,4.00473 1.258575,4.00474 4.52739,2.72496 4.527391,2.72496 4.527391,2.72496 4.42016,-0.0386 4.42016,-0.0386 4.42016,-0.0386 3.367265,-3.71959 3.36726,-3.71959 1.73626,-4.23196 1.73626,-4.23195 0.55509,-4.23721 0.55509,-4.23721 -0.81303,-4.01086 -0.81303,-4.01087 -1.75464,-3.58913 -1.75464,-3.58912 -2.57488,-3.02315 -2.57487,-3.02314 -3.792602,-1.76683 -3.792599,-1.76683 -4.745117,-1.16026 -4.745118,-1.16026 -3.428807,-1.86119 -3.428808,-1.86118 -3.428808,-1.86119 -3.234152,-2.70247 -3.234152,-2.70247 -3.234151,-2.70247 -2.413051,-5.04859 -2.41305,-5.04859 0.786586,-4.66006 0.786586,-4.66005 2.050601,-3.98068 2.0506,-3.98069 3.74958,-4.08867 4.296593,-3.54397 3.630777,-4.21331 3.609397,-4.23373 4.8895,0.62239 4.8895,0.62239 -2.462185,3.28845 -2.071167,3.55969 -2.44064,3.30968 -3.570172,2.67232 -3.820569,2.31151 -3.298592,2.99659 -2.026521,3.66745 -2.026521,3.66744 -0.869692,4.30026 -0.869692,4.30026 2.053981,4.66939 2.053981,4.66939 2.858589,2.52105 2.858589,2.52105 2.858589,2.52104 4.601111,2.67515 4.60111,2.67515 4.359066,1.21215 4.359065,1.21214 3.546795,1.74608 3.54679,1.74607 2.44073,2.88844 2.44072,2.88844 1.6942,3.4041 1.69419,3.40411 0.83554,3.78873 0.83554,3.78874 -0.42131,4.00045 -0.42131,4.00045 -1.49935,3.99687 -1.49935,3.99688 -2.99011,3.53135 -2.99011,3.53135 -3.968762,0.12222 -3.968764,0.12222 -3.968763,0.12222 -4.04511,-2.41847 -4.04511,-2.41847 -4.04511,-2.41847 -1.570162,-5.42731 -1.570162,-5.42731 3.306661,-2.69024 3.30666,-2.69024 3.837841,-0.85224 3.83784,-0.85224 3.48327,1.4047 3.483269,1.40471 3.439762,3.64068 3.09689,3.91 3.17962,0.36946 3.17961,0.36945 -2.99102,-3.6649 -3.29743,-3.4169 -3.30112,-1.35526 -3.30112,-1.35527 -3.632759,0.70842 -3.63276,0.70841 -3.158024,2.38553 -3.158023,2.38552 1.252462,4.84752 1.252463,4.84751 3.562829,2.11198 3.56283,2.11198 3.562829,2.11198 5.276053,-0.30873 5.27605,-0.30872 2.61295,-3.34312 2.61296,-3.34311 1.26244,-3.7618 1.26244,-3.76179 0.28752,-3.7637 0.28753,-3.76369 -0.85804,-3.5666 -0.85804,-3.5666 -1.63375,-3.21909 -1.63375,-3.21908 -2.30658,-2.75374 -2.30657,-2.75374 -4.66399,-2.4377 -4.869095,-1.94547 -5.014921,-1.59552 -4.05901,-2.55852 -4.059009,-2.55851 -3.72454,-3.50944 -3.724539,-3.50943 -1.694912,-4.2902 -1.694911,-4.29019 0.952797,-3.94047 0.952798,-3.94047 2.002442,-3.3542 2.002441,-3.35419 4.132694,-2.84871 4.535339,-2.18147 4.141848,-2.83944 2.641711,-3.97444 1.995277,-4.35164 2.593434,-4.00111 4.889496,0.62238 4.8895,0.62239 -2.72534,4.71686 -1.91502,5.13122 -2.84649,4.64848 -4.729529,3.0344 -5.237098,2.08109 -4.9638,2.64333 -1.978362,3.04095 -1.978363,3.04096 -1.035903,3.58068 -1.035903,3.58067 1.335842,3.911 1.335842,3.91099 3.161195,3.2373 3.161196,3.2373 3.516908,2.44188 3.516909,2.44189 4.580956,1.68058 4.44217,1.98297 4.26117,2.37739 2.90293,3.49973 2.49538,3.76991 2.09315,4.03657 0.88054,3.34447 0.88055,3.34447 -0.15375,3.52693 -0.15375,3.52694 -1.02552,3.52671 -1.02552,3.52672 -2.23581,3.15488 -2.23581,3.15488 -4.59895,0.43412 -4.59896,0.43412 -4.62082,-2.70824 -4.620823,-2.70823 -0.934763,-4.26772 -0.934763,-4.26772 3.009386,-2.08081 3.009387,-2.0808 3.427676,-0.56459 3.42768,-0.56459 3.11897,1.30582 3.11896,1.30582 3.15526,3.19339 2.885,3.41953 3.17962,0.36946 3.17962,0.36945 -2.7788,-3.17384 -3.01327,-2.97021 -2.93681,-1.25637 -2.93682,-1.25637 -3.2226,0.42076 -3.22259,0.42077 -2.86075,1.77608 -2.860752,1.77608 0.617062,3.68793 0.61707,3.68793 3.8974,2.2485 3.8974,2.2485 3.92186,-0.55952 3.92186,-0.55952 1.85865,-2.96664 1.85866,-2.96664 0.78861,-3.29164 0.78861,-3.29164 0.02,-3.29017 0.02,-3.29018 -0.90305,-3.12234 -0.90305,-3.12233 -2.0133,-3.79148 -2.36606,-3.55649 -2.72291,-3.3188 -3.8634,-2.31551 -4.01533,-2.01779 -4.14185,-1.76989 -2.974804,-2.32526 -2.974808,-2.32525 -2.597851,-2.96516 -2.597851,-2.96516 -0.976773,-3.5318 -0.976772,-3.5318 1.119009,-3.22088 1.119008,-3.22088 1.954283,-2.72772 1.954284,-2.72771 4.268792,-1.96535 4.520993,-1.27965 4.37073,-1.72674 3.89046,-2.67627 2.5544,-3.86865 1.46228,-4.39681 1.30323,-4.44891 2.42337,-3.95156 4.8895,0.62239 4.8895,0.62238 -2.57424,4.45266 -1.22186,5.01224 -1.39892,4.96574 -2.80469,4.40467 -4.3643,2.90766 -4.88293,1.72803 -5.04932,1.15293 -4.87497,1.74858 -1.930208,2.41447 -1.930204,2.41447 -1.202114,2.86109 -1.202114,2.8611 0.617703,3.1526 0.617703,3.1526 2.034507,2.69302 2.034507,2.69302 2.43271,2.20862 2.4327,2.20863 3.69549,1.86385 3.5891,2.04908 3.47228,2.25251 2.54299,3.13799 2.2367,3.34311 1.93339,3.54623 0.92555,2.9002 0.92555,2.9002 0.15301,4.10481 -0.29914,4.07281 -0.72963,4.04234 -1.4815,2.7784 -1.48151,2.77841 -3.24476,0.68491 -3.24476,0.68492 -3.17399,-1.78877 -3.17398,-1.78876 -0.29936,-3.10813 -0.29937,-3.10814 2.71212,-1.47136 2.71211,-1.47137 3.01752,-0.27694 3.01751,-0.27694 2.75466,1.20693 2.75467,1.20693 2.87151,2.7474 2.67236,2.92777 3.17962,0.36946 3.17961,0.36945 -2.56561,-2.68125 -2.73007,-2.52504 -5.14502,-2.31497 -5.62487,0.26623 -5.12695,2.33329 -0.0367,5.05668 4.90112,2.65806 5.13534,-1.62063 2.2087,-5.18033 0.6283,-5.63157 -0.49392,-5.64471 -0.94806,-2.67807 -0.94805,-2.67808 -1.85342,-3.3008 -2.10727,-3.12976 -2.3632,-2.95732 -3.08994,-2.18938 -3.16436,-2.07593 -3.23886,-1.96238 -3.78121,-4.18399 -2.94232,-4.84177 -0.51727,-5.5468 2.58711,-5.02098 3.79558,-4.18408 4.10066,-1.14324 4.16198,-0.87816 4.13818,-0.96415 4.05312,-1.30178 2.41906,-1.56954 2.41907,-1.56953 1.50929,-2.44278 1.5093,-2.44278 0.90649,-3.70229 0.83672,-3.71799 0.76596,-3.73389 2.72838,-4.96494 4.8895,0.62239 4.8895,0.62238 -1.44126,2.73862 -1.44126,2.73861 -0.71777,4.12594 -0.79948,4.11007 -0.88031,4.09435 -1.61625,2.68323 -1.61624,2.68323 -2.65599,1.68523 -2.65598,1.68523 -4.44975,1.31108 -4.53639,0.9203 -4.57465,0.76041 -4.53986,0.95334 -3.72449,3.53835 -2.77625,4.32064 -0.20087,4.78841 1.81563,4.29749 2.69701,3.95072 4.15066,3.09794 4.07878,3.19202 3.27468,4.1657 2.66002,4.58273 1.94112,4.91188 0.75978,5.13966 -0.15276,5.19295 -1.45441,4.80386 -3.78114,1.87142 -3.45428,-1.73858 0.67207,-3.89711 4.82968,-1.72385 5.2147,0.0214 4.78072,2.21609 2.58904,2.3032 2.45845,2.43421 3.17961,0.36946 3.17962,0.36945 -2.35074,-2.18654 -2.44855,-2.08199 -4.41642,-2.1172 -4.73115,-0.30435 -4.6058,1.10969 -1.30746,2.73752 2.00743,0.81911 2.42696,-2.12222 0.6923,-4.54262 -0.31029,-4.58741 -1.03031,-4.68628 -1.99531,-4.48285 -2.53298,-4.20268 -2.92156,-3.78512 -3.57679,-3.16954 -3.47073,-3.28863 -1.6128,-3.71745 -0.68895,-3.75323 0.91901,-4.03001 2.90286,-3.56343 3.71593,-2.94949 4.9716,-0.75308 4.98599,-0.6482 4.93858,-0.87884 4.85119,-1.3228 2.8929,-1.80094 2.89291,-1.80093 1.72319,-2.92368 1.7232,-2.92368 0.85406,-4.4866 0.76222,-4.50214 0.66966,-4.5178 1.51834,-2.99476 1.51833,-2.99475 4.8895,0.62239 4.8895,0.62239 -1.5954,3.25089 -1.59541,3.2509 -0.62163,4.90951 -0.72496,4.89422 -0.82774,4.879 -1.83015,3.16413 -1.83015,3.16413 -3.12981,1.91663 -3.12982,1.91663 -5.25667,1.33622 -5.34419,0.83885 -5.39688,0.54009 -5.39634,0.54556 -3.60127,2.28089 -3.13557,2.88596 -1.54324,3.08395 -0.53165,3.39662 0.5286,3.48419 2.71798,3.43113 3.08011,3.11054 2.63897,3.49447 2.41081,3.83124 2.0416,4.03998 1.28283,4.16392 0.80696,4.28134 0.0542,4.05091 -1.63336,2.47337 1.94286,-1.57793 4.31915,-0.49356 4.31037,0.58531 4.59885,2.45912 4.00435,3.35884 3.17962,0.36946 3.17961,0.36945 -3.79049,-2.94309 -4.20021,-2.30711 -5.21881,-0.91712 -5.28153,0.34663 -0.88625,-1.01984 -0.7476,-4.74241 -1.36752,-4.6031 -1.80599,-4.4543 -2.84137,-4.73599 -3.1603,-4.52947 -3.51071,-4.26217 -1.7692,-3.35828 0.5556,-3.25093 1.68559,-2.79397 2.23413,-2.38392 3.29284,-2.15124 3.56205,-1.66954 5.08106,-0.29101 5.07633,-0.35985 5.07321,-0.40548 3.90509,-0.93109 3.9051,-0.9311 3.36674,-2.03233 3.36673,-2.03233 1.9371,-3.40457 1.9371,-3.40458 0.80137,-5.27151 0.68769,-5.28629 0.57366,-5.30112 1.67248,-3.50704 1.67247,-3.50704 4.8895,0.62239 4.8895,0.62239 -1.74955,3.76318 -1.74954,3.76318 -0.39431,4.26948 -0.39438,4.26947 -0.58121,4.24808 -0.5812,4.24808 -2.04406,3.64502 -2.04405,3.64503 -3.60365,2.14803 -3.60366,2.14803 -4.19214,0.9425 -4.19214,0.9425 -5.42988,0.34132 -5.4337,0.24775 -5.43963,0.10225 -3.57146,1.07003 -3.33633,1.37777 -3.13859,1.78173 -2.69311,2.12406 -1.63781,3.01401 0.9971,3.46205 2.91842,4.11592 2.91321,4.11958 2.84495,4.1669 2.32983,4.20601 2.16274,4.29335 2.27842,4.2311 2.33309,1.93931 5.26127,1.14277 5.16704,1.4844 3.8042,2.1571 3.57401,2.52534 3.17961,0.36945 3.17962,0.36946 -4.07448,-2.54894 -4.2284,-2.27491 -4.43003,-1.8601 -4.32884,-2.08482 -3.84016,-2.88853 -3.46211,-3.72087 -3.15097,-3.99131 -3.0837,-4.0432 -3.14323,-3.99663 -2.93577,-4.15088 -1.68589,-3.03539 -0.22499,-3.56582 2.724,-2.78441 3.72073,-1.53605 3.88864,-1.0365 4.83909,-0.84515 4.89623,-0.24316 4.91374,0.0749 4.90914,-0.20585 4.90865,-0.23573 4.47918,-0.9539 4.47919,-0.95391 3.84057,-2.26373 3.84057,-2.26373 2.151,-3.88547 2.15101,-3.88548 0.56136,-4.54257 0.56129,-4.54258 0.35842,-4.56307 0.35842,-4.56307 1.82661,-4.01933 1.82662,-4.01932 4.8895,0.62239 4.8895,0.62239 -1.90369,4.27546 -1.90369,4.27547 -0.32255,4.85662 -0.32255,4.85662 -0.54129,4.83713 -0.54148,4.83711 -2.25796,4.12593 -2.25795,4.12592 -4.07749,2.37943 -4.07749,2.37943 -4.76623,0.96531 -4.76623,0.96531 -5.02915,0.17605 -5.02911,0.1678 -5.02701,-0.22921 -5.02643,-0.2409 -5.02959,-0.12511 -5.02593,0.23326 -4.94449,1.03185 -3.80821,2.55115 -0.54711,3.6696 1.19428,2.99387 2.38981,3.43359 2.80785,3.10167 2.98118,2.94151 3.69338,3.18558 3.79885,3.05865 3.8841,2.94954 3.95308,2.85753 4.00712,2.73465 4.08565,2.61533 4.10416,2.58668 4.24051,2.35077 -2.12025,-1.17539 -2.12026,-1.17538 2.12026,1.17538 2.12025,1.17539"
         transform="scale(0.264583)"
         inkstitch:manual_stitch="true" />
      <g
         id="command_group7"
         inkscape:label="Commande Ink/Stitch: Trim thread after sewing this object"
         transform="scale(0.264583)"
         style="display:none">
        <path
           id="command_connector7"
           d="m 118.22536,545.20028 4.21873,30.74415"
           style="fill:none;stroke:#000000;stroke-width:1px;stroke-opacity:0.5"
           inkscape:connection-start="#command_use1998"
           inkscape:connection-end="#object8978"
           inkscape:label="connecteur"
           inkscape:connector-type="polyline"
           inkscape:connector-curvature="0" />
        <use
           id="command_use1998"
           xlink:href="#inkstitch_trim"
           height="100%"
           width="100%"
           x="118.22278"
           y="545.16443"
           inkscape:label="marqueur de commande" />
      </g>
      <path
         id="object2026"
         style="fill:none;stroke:#770075;stroke-width:0.4"
         d="m 69.937626,710.73007 -1.942536,1.78159 -1.942537,1.7816 1.942537,-1.7816 1.942536,-1.78159 -3.885073,3.56319 -3.885072,3.56318 -3.02983,4.28286 -3.029829,4.28287 -2.046447,4.84588 -2.046446,4.84588 0.09685,5.23998 0.09685,5.23998 3.040354,4.46028 3.040353,4.46028 4.382083,3.43036 4.382084,3.43036 4.824742,2.75595 4.824743,2.75596 4.5961,1.10217 4.596101,1.10217 4.538532,1.30735 4.498613,1.44962 2.92112,1.90884 2.676156,2.78392 2.31652,3.09236 1.94999,3.33529 1.74835,4.54153 1.29073,4.70473 -0.16609,4.93419 -0.16608,4.93418 -1.79869,4.91162 -1.79868,4.91161 -3.51727,4.32696 -3.517271,4.32696 -4.228625,0.61723 -4.228625,0.61722 -4.228625,0.61723 -4.402312,-1.97476 -4.402312,-1.97475 -4.402312,-1.97475 -3.227274,-3.47949 -3.227273,-3.47948 -3.227273,-3.47949 1.483542,-5.21593 1.483541,-5.21593 4.356222,-2.50371 4.356221,-2.5037 4.592763,0.5074 4.592763,0.5074 3.465674,3.03812 3.465674,3.03811 2.655809,4.03447 3.179616,0.36945 3.179616,0.36946 -2.536542,-3.78011 -3.283612,-2.85775 -3.283612,-2.85776 -4.330173,-0.51027 -4.330174,-0.51028 -4.114241,2.28098 -4.114241,2.28097 -1.457998,4.79234 -1.457998,4.79233 2.931097,3.18929 2.931096,3.18929 2.931097,3.18929 4.022924,1.78997 4.022924,1.78997 4.022923,1.78998 3.867566,-0.61363 3.867566,-0.61363 3.867559,-0.61364 3.19233,-4.07091 3.19233,-4.07091 1.60176,-4.61077 1.60176,-4.61077 0.0894,-4.62919 0.0894,-4.62918 -1.59495,-5.11768 -2.48711,-4.72436 -0.7243,-4.14345 -0.80997,-4.1532 -1.30049,-2.68835 -1.87803,-2.33758 -4.119831,-1.55151 -4.181953,-1.35122 -4.274682,-1.05227 -4.274683,-1.05227 -4.469965,-2.58854 -4.469965,-2.58855 -4.056092,-3.21362 -4.056092,-3.21363 -2.81013,-4.1692 -2.810131,-4.1692 -0.07389,-4.89074 -0.07389,-4.89074 1.91627,-4.5245 1.91627,-4.52449 2.832707,-3.99922 2.832708,-3.99923 3.626861,-3.33095 3.626861,-3.33094 4.8895,0.62238 4.8895,0.62239 -3.36865,3.09871 -3.368651,3.09872 -2.635585,3.71558 -2.635585,3.71558 -1.786093,4.20311 -1.786093,4.20311 0.05092,4.5415 0.05092,4.54151 2.579908,3.87811 2.579907,3.87812 3.730101,2.99689 3.7301,2.99689 4.115188,2.42114 4.115187,2.42113 5.276963,1.33829 5.21523,1.51736 4.98077,2.19758 2.09504,4.65426 -0.53178,3.94541 -2.32996,4.45015 1.49303,4.39281 2.3874,4.0482 1.57311,4.47175 -0.0127,4.32417 -0.0127,4.32418 -1.40484,4.30993 -1.40483,4.30992 -2.86739,3.81487 -2.86738,3.81487 -5.25976,0.91505 -5.259762,0.91505 -3.643536,-1.60519 -3.643535,-1.60519 -3.643535,-1.60519 -2.63492,-2.89909 -2.634921,-2.8991 -2.63492,-2.89909 1.432455,-4.36874 1.432455,-4.36873 3.87226,-2.05825 3.87226,-2.05824 4.067584,0.51315 4.067584,0.51315 3.146339,2.71605 3.123682,2.73633 2.35036,3.42815 3.17962,0.36945 3.17961,0.36946 -2.23816,-3.1862 -2.93977,-2.54838 -2.95905,-2.53086 -3.805003,-0.51603 -3.804993,-0.51602 -3.63028,1.83551 -3.63028,1.83551 -1.406912,3.94514 -1.406912,3.94514 3.508117,3.91335 3.508116,3.91334 4.89622,2.13062 4.896227,2.13061 4.71817,-0.90966 4.71817,-0.90966 2.54244,-3.55882 2.54243,-3.55883 1.20792,-4.00908 1.20791,-4.00908 -0.0639,-4.01917 -0.0639,-4.01917 -1.10884,-2.80665 -1.10885,-2.80666 -2.11747,-2.60656 -1.83288,-2.81374 -0.0705,-2.97466 2.5403,-2.17269 2.6711,-2.0195 2.13035,-4.5331 -0.62022,-3.07493 -1.06179,-2.95204 -2.72526,-1.41524 -2.72527,-1.41525 -4.32211,-1.13434 -4.32212,-1.13435 -3.76041,-2.25373 -3.76041,-2.25373 -3.404109,-2.78016 -3.404109,-2.78015 -2.349684,-3.58704 -2.349685,-3.58703 -0.02795,-4.19227 -0.02796,-4.19226 1.655916,-3.88172 1.655916,-3.88172 2.438463,-3.43195 2.438463,-3.43194 3.110439,-2.86648 3.110439,-2.86647 4.889501,0.62238 4.8895,0.62239 -2.85222,2.63424 -2.85223,2.63425 -2.24134,3.1483 -2.241348,3.1483 -1.52574,3.56033 -1.525739,3.56033 0.005,3.84303 0.005,3.84303 2.119462,3.29595 2.119465,3.29596 3.07811,2.56342 3.07812,2.56341 3.40564,2.08633 3.40563,2.08632 3.91711,1.06986 3.91711,1.06985 2.44117,1.50272 2.44117,1.50271 0.91587,3.65178 0.3531,3.7479 -1.31613,3.14121 -2.41279,1.97958 -4.12599,1.81889 -3.96686,2.11534 -0.1874,3.47439 2.22776,3.26236 2.60022,2.97441 1.19153,2.69631 1.19152,2.69632 0.1406,3.71416 0.14061,3.71416 -1.011,3.70824 -1.01099,3.70824 -2.21749,3.30278 -2.21749,3.30278 -4.17659,0.90426 -4.17658,0.90427 -4.32713,-1.85344 -4.327143,-1.85345 -3.063852,-3.47805 -3.063852,-3.47805 1.381368,-3.52154 1.381369,-3.52155 3.388299,-1.61278 3.388301,-1.61278 3.5424,0.51891 3.54241,0.5189 4.15779,3.5187 3.4958,4.13165 3.17962,0.36946 3.17962,0.36945 -3.293,-3.7939 -3.87721,-3.24136 -3.27981,-0.52178 -3.27982,-0.52178 -3.14632,1.39005 -3.14632,1.39005 -1.35582,3.09794 -1.35583,3.09795 2.61959,3.04276 2.61959,3.04276 3.75805,1.57627 3.75806,1.57627 3.63499,-0.89887 3.63499,-0.89888 1.89255,-3.04673 1.89255,-3.04674 0.81407,-3.40739 0.81407,-3.4074 -0.21728,-3.40915 -0.21727,-3.40916 -1.2742,-2.58597 -1.27421,-2.58597 -3.08199,-3.34152 -2.62363,-3.71172 0.44536,-3.97413 3.52792,-1.59156 3.76629,-0.88631 3.68008,-1.19839 3.34917,-2.10166 1.97832,-3.60682 -0.0862,-4.41933 -0.76976,-4.35306 -4.31415,-3.18038 -3.51211,-1.00536 -3.51211,-1.00535 -3.05085,-1.91892 -3.05086,-1.91892 -2.75213,-2.34668 -2.75212,-2.34669 -1.88924,-3.00486 -1.88924,-3.00487 0.018,-3.4938 0.018,-3.49379 1.39556,-3.23894 1.39556,-3.23895 2.73186,-3.82827 3.09379,-3.50967 3.45082,-3.1954 4.8895,0.62239 4.8895,0.62239 -3.10746,2.88658 -2.79003,3.16594 -2.46831,3.44907 -1.26539,2.91755 -1.26538,2.91756 -0.041,3.14455 -0.0409,3.14456 1.65901,2.71379 1.65902,2.71378 2.42613,2.12995 2.42614,2.12995 2.69608,1.75151 2.69607,1.75151 3.10711,0.94086 3.10711,0.94087 3.74595,3.35532 0.62761,5.08983 -0.18471,5.05527 -2.64051,4.07244 -4.28554,2.22373 -4.64148,1.10874 -4.7193,0.7071 -4.49496,1.60246 -0.70331,4.47386 3.13648,4.28258 3.60814,3.88155 2.5524,4.65684 0.29394,3.10415 0.29395,3.10415 -0.61715,3.10655 -0.61714,3.10654 -1.5676,2.7907 -1.56761,2.79069 -3.0934,0.89348 -3.09341,0.89348 -3.18897,-1.2991 -3.18897,-1.2991 -2.17532,-2.60747 -2.17533,-2.60746 1.33029,-2.67435 1.33028,-2.67435 2.90434,-1.16731 2.90433,-1.16732 3.01723,0.52465 3.01722,0.52465 3.59689,2.96433 3.08993,3.45585 3.17962,0.36946 3.17961,0.36945 -2.88653,-3.11741 -3.31689,-2.68768 -5.50927,-1.05505 -5.32472,1.88917 -2.60948,4.50149 3.46212,4.34435 5.23978,2.04386 5.10363,-1.77618 2.48532,-5.06929 0.42022,-2.80571 0.42022,-2.8057 -0.74123,-5.59829 -2.21203,-3.63449 -2.76032,-3.20529 -2.84129,-3.15351 -2.52637,-3.42346 0.96125,-4.97359 4.09796,-1.20401 4.20266,-0.6607 4.23468,-0.52949 4.20189,-0.76614 2.61096,-1.17291 2.61096,-1.1729 3.3027,-4.53804 0.30162,-3.83993 -0.0137,-3.83926 -0.31774,-3.83862 -3.17776,-3.53028 -2.70211,-0.87637 -2.7021,-0.87637 -4.6826,-3.1682 -2.10015,-1.91322 -2.10014,-1.91321 -2.85759,-4.84541 0.12783,-5.59063 2.2684,-5.18774 3.30196,-4.59936 2.0776,-1.93754 2.07759,-1.93754 4.8895,0.62239 4.8895,0.62239 -3.6311,3.40342 -2.91337,4.03466 -2.01006,4.54956 -0.17376,4.89217 2.40382,4.26963 3.54163,3.38657 3.97012,2.83131 4.59713,1.62582 2.60957,3.70523 0.16572,3.24819 0.16572,3.24819 -0.35731,3.19707 -0.35731,3.19707 -1.98245,2.50182 -1.98244,2.50183 -3.07915,1.23394 -3.07915,1.23394 -4.92269,0.70201 -4.94988,0.42925 -4.92114,0.56868 -4.82492,1.20245 -1.2192,5.47332 2.71852,3.62357 3.03762,3.34418 3.09229,3.29025 2.53457,3.75454 0.89457,4.98827 -0.44142,4.95162 -1.8406,4.61531 -4.02046,1.76538 -4.10161,-1.48951 -2.57359,-3.47376 2.55839,-3.6543 4.84076,-1.44371 4.98409,1.06081 3.03736,2.41152 2.68268,2.77849 3.17961,0.36945 3.17962,0.36946 -2.4782,-2.43891 -2.75845,-2.13601 -4.45891,-1.06656 -4.35679,0.99824 -2.50731,2.80711 1.68506,2.60317 2.96345,0.93517 2.93728,-1.7546 1.18669,-4.14165 0.0516,-4.3115 -1.04792,-4.37826 -2.88113,-3.84995 -3.40089,-3.39044 -3.2331,-3.54041 -2.91087,-3.82752 0.73857,-2.98653 0.73858,-2.98652 4.44139,-0.9588 4.47868,-0.6514 4.54182,-0.13097 4.5233,-0.39234 4.51489,-0.51092 3.54733,-1.29498 3.54734,-1.29498 2.31354,-2.73463 2.31354,-2.73463 0.6563,-4.73243 0.26156,-4.75463 -0.12165,-4.77617 -2.04137,-3.88017 -3.80065,-1.50735 -3.24705,-2.48599 -2.90063,-2.96769 -1.93238,-3.67287 0.21969,-4.19369 1.74865,-3.90443 2.51252,-3.46255 3.12234,-2.94614 4.8895,0.62239 4.8895,0.62238 -2.60098,2.47697 -2.12216,2.89762 -1.47224,3.2265 -0.28273,3.53272 1.46473,3.07474 2.25585,2.55019 2.52551,2.13968 3.00263,1.38985 1.47318,4.05512 0.0234,5.24512 -0.39924,5.21228 -0.83343,5.17854 -2.64464,2.96743 -2.64463,2.96744 -4.01553,1.35602 -4.01552,1.35602 -4.3001,0.38903 -4.3001,0.38903 -4.31753,0.0306 -4.31756,0.03 -4.07312,0.77393 -4.07311,0.77392 -0.86755,3.2364 -0.86755,3.23639 3.10397,4.03508 3.42881,3.74136 3.68579,3.50958 3.25041,3.91809 1.20126,3.76825 0.33002,3.68274 -0.52458,3.65662 -1.8541,1.74382 -1.82528,-0.38082 -0.79653,-1.73259 2.45622,-1.95991 3.87283,-0.55278 3.93373,1.07231 2.48046,1.86136 2.2728,2.09847 3.17962,0.36945 3.17961,0.36946 -4.26986,-3.34475 -3.40856,-1.07806 -3.38887,0.10732 -2.49713,1.97472 1.45804,-1.90655 -0.11424,-3.02094 -0.76423,-3.27295 -1.32532,-3.08994 -3.64876,-3.94834 -3.93945,-3.65902 -3.62554,-3.94642 -3.29822,-4.24611 0.99653,-3.48626 0.99652,-3.48626 4.52944,-0.76707 4.52943,-0.76707 4.80718,0.0503 4.80717,0.05 4.79487,-0.34735 4.79488,-0.34735 4.48372,-1.41706 4.48371,-1.41706 2.97573,-3.20024 2.97573,-3.20024 0.75784,-4.21844 0.75212,-4.219 0.0562,-4.2856 0.0562,-4.28561 -0.90499,-4.23007 -3.13498,-2.19943 -2.46596,-2.95883 -0.70424,-5.31349 2.09325,-3.78778 2.94822,-3.17629 4.8895,0.62239 4.8895,0.62238 -2.9018,3.31109 -1.32614,4.07672 1.42326,3.46579 2.56149,2.72979 0.33234,4.56408 -0.12821,4.57522 -0.12821,4.57521 -0.88722,4.53593 -0.88723,4.53593 -3.30683,3.43304 -3.30682,3.43305 -4.9519,1.4781 -4.9519,1.4781 -5.28963,0.30562 -5.28962,0.30561 -5.29683,-0.13052 -5.29684,-0.13059 -4.98575,0.76021 -4.98575,0.76021 -1.1255,3.73613 -1.1255,3.73612 2.65018,3.38338 2.65018,3.38338 3.4572,3.16847 3.446,3.18028 3.3514,3.28017 2.52357,4.89021 1.6406,5.21993 3.12341,-0.23312 3.11608,0.31433 3.54037,1.53196 3.12948,2.28151 3.17961,0.36946 3.17962,0.36945 -3.82926,-2.35768 -4.19497,-1.61129 -4.23002,-1.47962 -2.77689,-2.73886 -2.31565,-3.16357 -2.49005,-3.02748 -3.6671,-3.2268 -3.62276,-3.27646 -3.62016,-3.27938 -2.84396,-3.60441 -2.84397,-3.60441 1.25447,-3.98599 1.25448,-3.98599 5.44207,-0.75335 5.44206,-0.75336 4.62922,0.16866 4.62921,0.16865 4.62835,-0.021 4.62747,-0.21107 4.62748,-0.21107 5.42009,-1.53914 5.42009,-1.53914 3.63792,-3.66585 3.63792,-3.66585 1.01971,-4.87065 1.0197,-4.87064 0.1987,-4.86492 0.19869,-4.86492 0.24295,-4.8629 -1.35275,-4.71613 1.11171,-2.73548 1.99114,-2.27933 4.8895,0.62238 4.8895,0.62239 -2.01599,2.72235 -1.24101,3.15615 -0.81839,5.11682 -0.26911,5.17707 -0.26911,5.17708 -1.15219,5.20536 -1.15218,5.20536 -3.96902,3.89866 -3.96901,3.89865 -3.92552,1.06679 -3.92552,1.06678 -3.92552,1.06679 -5.02323,0.17762 -5.02324,0.17763 -5.0221,-0.028 -5.02098,-0.23281 -5.02098,-0.2328 -3.93226,0.49766 -3.93226,0.49766 -3.93226,0.49767 -1.38344,4.23585 -1.38345,4.23586 3.03775,3.82544 3.03775,3.82543 3.76441,3.3753 3.76441,3.37531 4.21199,3.31413 4.33106,3.15714 4.40285,3.05565 4.48795,2.92898 4.52549,2.87155 4.67745,2.61049 -2.33872,-1.30525 -2.33873,-1.30524 2.33873,1.30524 2.33872,1.30525"
         transform="scale(0.264583)"
         inkstitch:manual_stitch="true" />
    </g>
  </g>
</svg>
