<?xml version="1.0" encoding="UTF-8" standalone="no"?>
<!-- Created with Inkscape (http://www.inkscape.org/) -->

<svg
   width="100mm"
   height="100mm"
   viewBox="0 0 354.33069 354.33071"
   id="svg19399"
   version="1.1"
   inkscape:version="1.4.1 (93de688d07, 2025-03-30)"
   sodipodi:docname="batch_lettering_template_example.svg"
   xmlns:inkscape="http://www.inkscape.org/namespaces/inkscape"
   xmlns:sodipodi="http://sodipodi.sourceforge.net/DTD/sodipodi-0.dtd"
   xmlns="http://www.w3.org/2000/svg"
   xmlns:svg="http://www.w3.org/2000/svg"
   xmlns:rdf="http://www.w3.org/1999/02/22-rdf-syntax-ns#"
   xmlns:cc="http://creativecommons.org/ns#"
   xmlns:dc="http://purl.org/dc/elements/1.1/"
   xmlns:inkstitch="http://inkstitch.org/namespace">
  <sodipodi:namedview
     id="base"
     pagecolor="#ffffff"
     bordercolor="#666666"
     borderopacity="1.0"
     inkscape:pageopacity="0.0"
     inkscape:pageshadow="2"
     inkscape:zoom="1.9817"
     inkscape:cx="269.71792"
     inkscape:cy="159.45905"
     inkscape:document-units="mm"
     inkscape:current-layer="layer2"
     showgrid="false"
     fit-margin-top="0"
     fit-margin-left="0"
     fit-margin-right="0"
     fit-margin-bottom="0"
     inkscape:window-width="1920"
     inkscape:window-height="1131"
     inkscape:window-x="0"
     inkscape:window-y="0"
     inkscape:window-maximized="1"
     inkscape:showpageshadow="2"
     inkscape:pagecheckerboard="0"
     inkscape:deskcolor="#d1d1d1"
     showguides="false">
    <sodipodi:guide
       position="575.46925,1089.7431"
       orientation="1,0"
       id="guide20843"
       inkscape:locked="false" />
  </sodipodi:namedview>
  <defs
     id="defs19401">
    <symbol
       id="inkstitch_ignore_layer"
       transform="scale(0.25, 0.25)"
       style="opacity:0.7">
      <title
         id="title9694">Ignore entire layer when generating stitch plan</title>
      <path
         inkscape:connector-curvature="0"
         style="opacity:1;vector-effect:none;fill:#fafafa;fill-opacity:1;fill-rule:evenodd;stroke:#ff0000;stroke-width:1.06501234;stroke-linecap:round;stroke-linejoin:miter;stroke-miterlimit:4;stroke-dasharray:3.19503705, 3.19503705;stroke-dashoffset:0;stroke-opacity:1"
         d="M 9.2465269,-4.9265995e-6 C 9.246525,5.1067241 5.1067028,9.2465451 -2.615882e-5,9.2465451 -5.1067554,9.2465451 -9.2465782,5.1067241 -9.2465801,-4.9265995e-6 -9.24658,-2.4523429 -8.2723922,-4.8042399 -6.538327,-6.5383059 c 1.7340653,-1.734065 4.0859624,-2.708252 6.53830084118,-2.708252 5.10673015882,0 9.24655285882,4.139823 9.24655305882,9.2465529734005 0,0 0,0 0,0"
         id="inkstitch_path25368-7" />
      <path
         sodipodi:nodetypes="ccccc"
         inkscape:connector-curvature="0"
         style="color:#000000;fill:#d5d5d5;fill-opacity:1;fill-rule:evenodd;stroke:#5a5a5a;stroke-width:0.63330007;stroke-linecap:square;stroke-linejoin:round;stroke-miterlimit:0;stroke-opacity:1"
         d="M 4,4.452769 1.46667,1.286102 H -5.5 l 2.53333,3.166667 z"
         id="use5800" />
      <path
         sodipodi:nodetypes="ccccc"
         inkscape:connector-curvature="0"
         style="color:#000000;opacity:0.5;fill:#d5d5d5;fill-opacity:1;fill-rule:evenodd;stroke:#858585;stroke-width:0.63339424;stroke-linecap:square;stroke-linejoin:round;stroke-miterlimit:0;stroke-opacity:1"
         d="M 4,2.552769 1.46667,-0.613898 H -5.5 l 2.53333,3.166667 z"
         id="use5864" />
      <g
         id="g5771">
        <path
           sodipodi:nodetypes="ccccccccc"
           inkscape:connector-curvature="0"
           style="fill:#aa0000;fill-rule:evenodd;stroke:#aa0000;stroke-width:1px"
           d="m -1.0666699,-5.0472339 h 4.4333333 l 0.6333333,0.6333333 V 0.01943274 L 3.3666634,0.65276607 H -1.0666699 L -1.7000032,0.01943274 V -4.4139006 Z"
           id="path8011" />
        <path
           inkscape:connector-curvature="0"
           id="path8023"
           d="m -0.43333658,-3.8755672 c 0,0 3.16666668,3.16666661 3.16666668,3.16666661"
           style="fill:none;stroke:#ffffff;stroke-width:1.70000005" />
        <path
           inkscape:connector-curvature="0"
           id="path8025"
           d="m 2.7333301,-3.8755672 c 0,0 -3.16666668,3.16666661 -3.16666668,3.16666661"
           style="fill:none;stroke:#ffffff;stroke-width:1.79999995;stroke-linejoin:round" />
      </g>
    </symbol>
  </defs>
  <metadata
     id="metadata19404">
    <rdf:RDF>
      <cc:Work
         rdf:about="">
        <dc:format>image/svg+xml</dc:format>
        <dc:type
           rdf:resource="http://purl.org/dc/dcmitype/StillImage" />
        <dc:creator>
          <cc:Agent>
            <dc:title>j4p4n</dc:title>
          </cc:Agent>
        </dc:creator>
        <cc:license
           rdf:resource="http://creativecommons.org/publicdomain/zero/1.0/" />
      </cc:Work>
      <cc:License
         rdf:about="http://creativecommons.org/publicdomain/zero/1.0/">
        <cc:permits
           rdf:resource="http://creativecommons.org/ns#Reproduction" />
        <cc:permits
           rdf:resource="http://creativecommons.org/ns#Distribution" />
        <cc:permits
           rdf:resource="http://creativecommons.org/ns#DerivativeWorks" />
      </cc:License>
    </rdf:RDF>
    <inkstitch:min_stitch_len_mm>0.3</inkstitch:min_stitch_len_mm>
    <inkstitch:collapse_len_mm>3.0</inkstitch:collapse_len_mm>
    <inkstitch:inkstitch_svg_version>3</inkstitch:inkstitch_svg_version>
  </metadata>
  <g
     inkscape:groupmode="layer"
     id="layer2"
     inkscape:label="center motif"
     style="display:inline">
    <g
       id="g30"
       inkscape:label="dragonfly"
       transform="matrix(0.555306 0 0 0.555306 -19.3137 -16.2785)"
       style="stroke-width:1.80081">
      <g
         id="g22"
         transform="matrix(0.999705 0.0242904 -0.0242904 0.999705 2007.39 333.616)"
         inkscape:transform-center-x="82.815748"
         inkscape:transform-center-y="37.924266"
         style="stroke-width:1.80081">
        <path
           style="vector-effect:non-scaling-stroke;fill:none;stroke:#c70200;stroke-width:1.68826;stroke-linejoin:round;stroke-dasharray:none;-inkscape-stroke:hairline"
           d="M -1664.1611,42.024849 C -1664.0158,46.03642 -1667.0095,49.242226 -1668.0472,52.954656 -1669.7228,55.858735 -1669.934,59.677391 -1672.9256,61.685468 -1675.1337,63.95412 -1679.0965,65.497361 -1681.9071,63.471172 -1683.1213,60.86915 -1680.878,57.475566 -1681.3002,54.956656 -1682.6844,57.008074 -1694.8161,59.225922 -1686.9707,49.464729 -1694.4205,55.265601 -1686.2398,59.071894 -1681.7492,56.277624 -1681.7492,56.277624 -1683.649,63.468683 -1680.4619,64.873471 -1677.2217,65.071912 -1673.8695,63.372174 -1671.6977,60.990597 -1671.3435,59.824362 -1673.4349,63.783496 -1673.9929,64.628698 -1676.1061,67.555513 -1676.4128,71.350478 -1678.6988,74.186711 -1680.5711,77.675436 -1683.2129,80.689204 -1685.1363,84.134368 -1686.4788,86.276193 -1689.2105,90.741631 -1691.4199,87.260094 -1694.7607,85.504525 -1698.6335,85.235447 -1702.1288,83.947505 -1705.0283,82.730848 -1706.9226,80.000686 -1709.0776,77.817355 -1711.427,75.212002 -1713.1338,71.987132 -1713.2153,68.412369 -1713.856,64.855089 -1713.582,61.208549 -1713.8009,57.61621 -1713.6301,55.857991 -1713.6538,53.946855 -1713.9007,56.81027 -1713.8627,56.969991 -1714.8219,60.722673 -1714.7186,63.079334 -1714.6153,65.435995 -1713.9857,68.297262 -1713.0299,70.726447 -1712.0668,73.174233 -1710.6669,75.470987 -1709.0245,77.525683 -1707.231,79.769465 -1703.8401,82.028974 -1702.7456,83.42798 -1699.0436,85.534772 -1701.8746,84.087626 -1693.909,86.969418 -1691.3038,87.455818 -1688.1251,88.529024 -1691.7133,90.738823 -1693.4709,93.370565 -1695.2191,92.186143 -1697.2703,90.645996 -1699.011,89.975716 -1701.3827,88.673197 -1701.8863,88.904702 -1704.3029,87.794447 -1703.7444,92.418632 -1704.4228,93.726327 -1707.1779,101.75301 -1720.9604,94.484443 -1718.1464,87.646932 -1726.8123,96.229903 -1757.653,100.73254 -1760.4159,99.961179 -1760.4159,99.961179 -1728.3263,97.526664 -1718.1783,87.748647 -1719.3463,93.315869 -1714.9397,94.705096 -1713.148,96.269409 -1707.248,99.589742 -1703.83,94.061486 -1703.8351,90.96212 -1704.4412,89.603174 -1702.3147,87.270322 -1701.7459,88.61578 -1704.032,87.774234 -1705.4932,88.129794 -1707.6971,85.712674 -1709.7217,83.751755 -1711.976,80.637643 -1715.1111,82.658396 -1716.0711,84.145213 -1716.8051,88.007141 -1719.8661,87.262991 -1725.8135,86.670804 -1729.939,79.767532 -1728.7681,76.852534 -1728.5112,75.200653 -1726.8978,74.16178 -1729.3284,75.409744 -1736.6928,89.968018 -1791.9948,94.771503 -1747.9928,72.861876 -1746.8204,74.802564 -1766.9406,84.222596 -1763.9255,85.72141 -1757.8218,88.755568 -1727.6357,82.167332 -1729.2412,75.255894 -1728.343,74.925681 -1729.0373,75.111684 -1728.1176,75.374163 -1732.466,78.820213 -1722.61,88.586115 -1719.9271,87.428589 -1716.3626,88.400044 -1716.3136,84.252197 -1715.1064,82.727513 -1714.0292,81.619287 -1709.6276,82.919463 -1712.6884,80.941865 -1712.8568,79.456814 -1717.102,75.666002 -1717.1478,75.64368 -1719.0347,74.195749 -1718.6533,73.369128 -1720.0796,72.783405 -1722.6341,73.721994 -1725.4265,74.531716 -1728.1602,74.5217 -1729.7162,74.331747 -1734.045,72.873113 -1733.4607,69.865009 -1730.5502,67.360908 -1736.3794,65.696217 -1733.5625,63.127363 -1730.8613,60.660126 -1726.6842,60.094845 -1723.355,61.480204 -1719.934,62.896027 -1726.0941,60.675059 -1727.3655,61.098797 -1730.2457,60.724568 -1736.6471,63.468797 -1732.8757,66.743205 -1731.6945,68.549766 -1735.5514,71.863756 -1732.3427,73.251033 -1729.9456,74.100386 -1727.3343,75.103137 -1724.7712,74.143007 -1718.4352,73.295159 -1719.7191,72.775403 -1719.2747,70.468699 -1719.3801,69.224371 -1719.393,67.157148 -1719.393,67.157148 L -1719.9218,60.792645 C -1719.9218,60.792645 -1718.7636,54.769937 -1719.0686,54.917194 -1719.3583,58.135855 -1720.1489,61.261422 -1719.8336,64.486487 -1718.8529,67.131046 -1719.8557,69.829613 -1719.6238,72.41538 -1718.193,75.170387 -1715.7282,76.940193 -1713.6569,79.398059 -1705.8926,88.034923 -1706.9204,86.789881 -1698.9967,89.890998 -1697.5713,91.023816 -1691.8091,92.333964 -1695.9165,93.826957 -1698.1473,95.957839 -1701.0682,97.318744 -1703.8435,98.669969 -1709.4372,101.73118 -1715.1793,104.52363 -1721.0142,107.08925 -1727.2146,109.76711 -1733.8114,111.74549 -1740.6224,111.74481 -1746.0119,112.24055 -1751.5882,112.16869 -1756.7071,110.20731 -1761.1468,109.44453 -1765.4672,107.21555 -1770.0715,108.13759 -1771.5699,106.99555 -1769.6054,102.92927 -1772.023,101.27795 -1775.602,99.270476 -1771.2827,96.255373 -1772.794,93.308227 -1774.3413,90.797495 -1777.7076,90.105093 -1777.5225,86.612508 -1778.01,85.112615 -1782.88,82.535798 -1779.3516,84.718066 -1776.6204,86.646363 -1777.4343,90.783694 -1774.0171,92.009173 -1770.3777,94.889924 -1775.486,98.836487 -1772.0303,101.5626 -1770.7223,104.07028 -1769.0941,109.71618 -1773.8529,108.16184 -1777.8306,108.52708 -1781.8229,108.23411 -1785.8014,108.4924 -1783.3351,106.9897 -1777.0046,103.30371 -1782.3865,97.399686 -1779.478,90.313466 -1792.5812,92.06622 -1788.9345,93.209755 -1786.3171,91.681739 -1780.9979,92.187943 -1782.3972,97.323112 -1779.0442,99.155214 -1779.5136,104.89187 -1782.0774,105.48613 -1783.4993,106.12387 -1785.0146,106.68376 -1785.0146,106.68376 -1785.0146,106.68376 -1784.2099,100.999 -1785.594,98.729139 -1786.6944,96.9245 -1791.0053,95.423598 -1791.0053,95.423598 -1791.0053,95.423598 -1786.8248,97.014346 -1785.7423,98.794283 -1784.3694,101.05155 -1785.0167,106.68688 -1785.0167,106.68688 -1787.4924,108.17782 -1787.1112,107.84746 -1789.4414,108.35456 -1792.1413,109.12521 -1794.654,108.43301 -1795.7952,110.32558 -1797.0595,113.32749 -1798.0501,116.89773 -1800.9594,118.88281 -1814.5584,128.79541 -1830.7602,120.5868 -1831.0395,110.08904 -1833.3109,85.163962 -1810.4787,95.60406 -1808.6504,103.77552 -1811.8444,121.70108 -1831.3964,100.35419 -1816.6331,102.82114 -1821.6035,100.35639 -1824.5671,107.51406 -1818.503,109.79336 -1789.301,112.66272 -1833.65,73.779452 -1830.8629,109.73869 -1827.7389,125.87279 -1809.6325,126.26691 -1798.9458,116.58707 -1797.0054,113.6611 -1796.4452,111.95007 -1795.7975,110.17056 -1798.7002,103.79119 -1792.0788,96.340178 -1791.4074,95.528408"
           id="path21"
           inkstitch:running_stitch_tolerance_mm="0.5"
           inkstitch:min_stitch_length_mm="0.5"
           inkstitch:satin_column="False"
           sodipodi:nodetypes="cccccccccccccccccczssccccccccccccccccccsccccccccccccccccccccccccccccccccccccccccccacacccccccccccc"
           inkstitch:enable_random_stitch_length="False"
           inkstitch:running_stitch_length_mm="2" />
        <path
           style="vector-effect:non-scaling-stroke;fill:none;stroke:#c70200;stroke-width:1.68826;stroke-linejoin:round;stroke-dasharray:none;-inkscape-stroke:hairline"
           d="M -1791.2477,95.48144 C -1790.2233,92.023811 -1788.4514,88.798217 -1786.0736,86.103611 -1783.3029,83.846075 -1780.6867,81.382554 -1777.8182,79.220654 -1775.7201,77.31137 -1773.4121,75.63305 -1771.2996,73.750477 -1769.4133,72.46975 -1767.8509,71.357562 -1765.6915,70.039216 -1761.6928,67.550059 -1757.4828,65.460313 -1753.2066,63.484774 -1749.0546,61.812963 -1744.9649,59.980581 -1740.6838,58.664157 -1734.7933,57.141853 -1728.8732,55.751563 -1722.9115,54.561429 -1718.1157,53.667734 -1713.2537,53.09761 -1708.5122,51.900362 -1703.1443,51.075591 -1697.753,50.332682 -1692.3428,49.802226 -1688.488,48.935466 -1684.4532,49.168553 -1680.6597,47.938328 -1675.2993,46.641862 -1669.4428,46.052902 -1664.9298,42.616193 -1662.7218,40.235307 -1665.0026,44.653181 -1665.3438,45.572935 -1666.5202,48.220837 -1666.893,51.148254 -1668.4188,53.674407 -1669.5173,56.209504 -1671.1879,58.430187 -1672.2406,60.994306 -1673.7882,63.965808 -1675.6204,66.76936 -1677.1651,69.747126 -1679.0621,72.917866 -1680.8492,76.156751 -1682.3345,79.533848 -1683.3672,81.468604 -1684.4647,83.491186 -1686.2183,85.075002 -1688.645,87.55378 -1690.9154,90.242832 -1693.907,92.095475 -1698.5073,95.285929 -1703.2789,98.188589 -1707.9407,101.28605 -1711.3121,103.21559 -1715.0325,104.43743 -1718.4075,106.37203 -1721.6889,107.76981 -1725.1424,108.68619 -1728.4997,109.84912 -1731.7943,110.80678 -1735.1812,111.4189 -1738.5811,111.7908 -1740.9796,111.87951 -1743.3873,111.85012 -1745.7705,111.70873 -1747.5223,111.96722 -1748.8698,111.34465 -1750.8843,110.98127 -1753.7475,110.59544 -1756.5475,110.10805 -1759.3621,109.42316 -1762.1154,108.69113 -1764.7992,107.34879 -1767.7332,107.70632 -1771.1086,107.63044 -1774.4561,108.51155 -1777.8442,108.28062 -1780.2759,108.50938 -1782.7318,107.99472 -1784.9755,108.17836 -1788.3486,108.24283 -1792.1638,108.7633 -1795.3931,109.74458 -1797.6392,111.22145 -1796.1945,105.67142 -1796.5054,104.46538 -1796.4042,100.95797 -1793.2129,98.483434 -1791.4303,95.591908 -1789.2496,91.260193 -1786.4568,87.264343 -1782.921,83.89245 -1780.3668,81.396253 -1777.2998,79.458968 -1774.7878,76.891891 -1772.0098,74.172751 -1768.7666,71.986053 -1765.3024,70.243173 -1762.3993,68.798905 -1759.8916,66.714959 -1757.1562,65.008593 -1753.2613,63.104286 -1749.0666,61.957079 -1745.0322,60.393524 -1740.576,58.909233 -1735.8709,58.346192 -1731.4332,56.812769 -1728.1306,55.976772 -1724.8931,54.803193 -1721.4852,54.392897 -1718.51,53.687151 -1715.8792,53.504185 -1713.0838,52.788002 -1708.434,52.137435 -1703.9091,50.822442 -1699.2404,50.270281 -1694.1,49.261974 -1688.8148,49.469905 -1683.6929,48.371029 -1677.5135,47.358545 -1671.2266,45.993465 -1665.736,42.870892 -1665.05,42.690567 -1663.2692,40.747501 -1663.274,41.078687"
           id="path22"
           inkstitch:running_stitch_tolerance_mm="0.5"
           inkstitch:min_stitch_length_mm="0.5"
           inkstitch:satin_column="False"
           sodipodi:nodetypes="cccccccccccccccccccccccccccccccccccccccccccc"
           inkstitch:enable_random_stitch_length="False"
           inkstitch:running_stitch_length_mm="2" />
      </g>
      <g
         id="g23">
        <path
           style="vector-effect:non-scaling-stroke;fill:none;stroke:#c70200;stroke-width:1.68826;stroke-linejoin:round;stroke-dasharray:none;-inkscape-stroke:hairline"
           d="M -1663.688,41.078686 C -1662.8471,39.627358 -1660.6495,34.98635 -1662.6977,32.516424 -1664.5307,29.743064 -1668.3431,27.991388 -1671.5347,27.735999 -1672.3185,28.210326 -1673.2493,28.789239 -1674.277,29.419513 -1675.7969,30.351668 -1689.6687,37.040165 -1691.4502,38.024824 -1693.7948,38.941837 -1698.3,37.446178 -1700.158,34.032599 -1699.7391,32.254047 -1686.761,27.882553 -1686.761,27.882553 -1686.761,27.882553 -1698.7827,34.988556 -1699.9012,34.398937 -1708.7009,29.76006 -1698.525,27.289068 -1688.3512,24.147213 -1690.6797,25.551929 -1701.1644,28.128259 -1702.3132,27.587789 -1705.8781,25.910612 -1705.0074,19.989208 -1703.2159,18.412926 -1701.9991,17.342264 -1690.7728,18.977071 -1687.9064,20.471553 -1687.9064,20.471553 -1704.4605,18.649593 -1702.7823,16.242394 -1702.3235,14.333934 -1697.1585,11.183708 -1697.1585,11.183708 -1700.287,11.770302 -1707.479,21.479786 -1704.1277,25.210935 -1703.1153,26.941903 -1701.5614,27.980186 -1702.6595,30.233895 -1703.6215,34.275761 -1692.9522,37.742177 -1692.3338,38.362519 -1695.5568,38.862841 -1693.7576,39.527178 -1696.5951,39.849605 -1698.5303,40.390279 -1699.0385,40.725159 -1701.7411,41.468833 -1705.0017,42.840687 -1713.4268,44.797596 -1715.4409,44.081939 -1714.8212,41.242341 -1716.4993,39.922412 -1718.2269,38.242218 -1716.4934,34.341376 -1722.4711,32.281128 -1720.2209,28.660373 -1718.9675,26.035799 -1722.169,22.298332 -1718.3877,20.972845 -1719.1329,17.305145 -1716.5346,14.76361 -1717.0456,11.227305 -1715.4032,8.4629253 -1715.1403,5.4138159 -1713.4204,2.581912 -1713.0885,0.91961565 -1714.706,4.9296977 -1715.2509,5.5120449 -1714.7507,9.088013 -1717.954,11.224293 -1716.7848,14.943423 -1719.63,17.199973 -1716.8736,21.412138 -1720.0036,23.184329 -1719.3986,26.139265 -1720.4977,29.08728 -1720.5165,31.853654 -1717.3474,34.137403 -1719.4116,38.444141 -1716.0814,40.664744 -1714.633,42.100238 -1715.6762,46.251927 -1717.5239,44.253946 -1717.3293,40.867857 -1721.0557,39.233838 -1720.9896,35.756553 -1723.8754,32.092713 -1721.6292,27.643598 -1722.3312,23.47431 -1722.9274,19.653787 -1719.7694,16.532218 -1720.2649,12.630564 -1719.6693,9.0622444 -1718.0437,5.6116321 -1715.9632,2.6410468 -1713.1574,-1.0589986 -1717.4901,4.7261994 -1717.7944,6.172948 -1720.8458,10.126304 -1720.0281,15.346737 -1721.7165,19.788678 -1722.5679,23.646605 -1722.2752,27.655231 -1722.2187,31.571882 -1721.5367,34.641573 -1720.1669,37.535386 -1719.2135,40.432013 -1715.8923,42.907303 -1717.7959,46.491197 -1721.3866,44.771543 -1724.1881,42.209256 -1725.2038,38.375429 -1725.3656,34.632991 -1726.0991,29.763891 -1726.9655,25.037108 -1725.3089,19.131836 -1724.5255,14.225161 -1723.441,9.3281663 -1721.6362,4.689876 -1720.8023,3.2475678 -1717.8861,-0.12165573 -1718.092,-0.19742512 -1718.5371,3.6314812 -1718.1516,1.6273621 -1721.5559,4.4781584 -1723.3467,7.7849001 -1723.3676,11.655087 -1724.5969,15.118496 -1725.1564,18.802964 -1726.5421,34.101913 -1725.4501,37.766064 -1725.7705,40.968946 -1721.2387,44.272095 -1721.2338,45.532939 -1722.5743,45.793269 -1727.6901,46.798887 -1727.6901,46.798887 L -1732.7326,46.412127 C -1732.7326,46.412127 -1732.5985,41.625529 -1730.9092,40.151547 -1729.2669,38.645612 -1728.9715,37.843809 -1731.3468,38.816324 -1749.8208,37.826862 -1761.8902,30.077933 -1761.8902,30.077933 -1761.8902,30.077933 -1739.3652,41.307347 -1730.0365,38.500313 -1733.0095,33.288863 -1740.5378,23.795845 -1731.4087,18.623547 -1731.4087,18.623547 -1729.6217,16.366843 -1730.3689,15.677782 -1736.5032,10.020484 -1756.5505,12.361043 -1756.5505,12.361043 -1748.6711,11.184848 -1740.899,9.7548283 -1729.9815,15.759523 -1731.6065,15.855111 -1737.7877,-2.2973162 -1729.8599,-3.5681105 -1735.6378,-2.644022 -1733.913,11.19185 -1730.3646,14.313292 -1728.8704,15.627753 -1729.0818,14.916117 -1730.1642,15.888623 -1730.9804,19.581797 -1732.4618,19.08053 -1732.4618,19.08053 -1738.7488,24.470397 -1735.0684,31.28417 -1729.5642,38.358485 -1729.5642,38.358485 -1732.3337,44.409942 -1733.0418,46.100856 -1736.8568,47.393685 -1740.3595,45.35444 -1744.3481,45.60888 -1751.4626,45.086341 -1758.698,45.58859 -1765.6784,43.845034 -1769.5481,43.013162 -1773.7038,42.795408 -1777.3451,41.374362 -1775.2121,39.764416 -1770.6075,37.396162 -1770.3081,33.568564 -1770.0891,30.961663 -1775.1756,29.026276 -1779.8437,26.460366 -1769.7554,19.067121 -1765.9705,17.70836 -1768.7706,12.753103 L -1772.2554,8.0752298 C -1772.2554,8.0752298 -1765.5782,7.4403744 -1762.7387,6.2447686 -1758.0859,4.2085643 -1754.9787,-0.73224787 -1755.347,-5.8152341 -1755.3517,-7.8020815 -1755.6691,-8.631441 -1755.4144,-6.1746152 -1755.5298,-2.9124791 -1755.7317,0.94775028 -1758.7029,2.9989591 -1761.9337,5.9904908 -1768.7397,6.2655979 -1772.6865,8.0336172 -1771.971,9.6440591 -1767.1888,15.373099 -1768.2456,18.464036 -1768.941,21.542119 -1778.2134,24.02299 -1780.3529,25.506585 -1777.7487,27.777024 -1769.1847,32.219607 -1770.9899,35.503459 -1772.2115,37.827221 -1776.5033,40.821255 -1777.7591,41.078687 -1786.6552,38.78721 -1794.8972,32.846325 -1802.8356,27.928872 -1804.996,25.965084 -1809.1276,24.826383 -1806.3809,21.38483 -1804.6747,17.084616 -1801.8123,12.875484 -1802.3,8.0223165 -1802.1642,4.5793746 -1803.4904,1.2770417 -1805.6892,-1.3281703 -1808.9602,-5.7272757 -1814.8568,-8.6715637 -1820.3232,-6.8813912 -1824.177,-6.0900704 -1826.8366,-2.8891914 -1827.8628,0.76282049 -1829.2192,4.2338383 -1829.8301,8.7703206 -1826.7227,11.511272 -1824.7785,14.76263 -1820.6153,15.70026 -1817.3495,13.88565 -1813.8917,13.048011 -1810.5155,7.8928578 -1815.3097,6.1300019 -1817.1036,5.4069922 -1821.2022,5.6205277 -1817.0921,5.8107582 -1814.3866,6.468607 -1809.8515,8.8095656 -1813.8617,11.562158 -1817.7076,14.907922 -1824.3834,15.033412 -1827.5673,10.706481 -1830.0257,7.077157 -1828.6129,1.928402 -1826.6044,-1.6166611 -1823.7498,-4.9490169 -1819.53,-8.0358973 -1814.8957,-6.8796611 -1811.5517,-5.8936409 -1808.4841,-3.7942108 -1805.9281,-1.395801 -1801.9257,3.441597 -1801.4679,10.520535 -1803.9061,16.190123 -1804.9912,18.818018 -1806.6269,23.256007 -1807.7996,24.580069 -1809.6277,26.494349 -1813.2406,26.838096 -1816.0193,27.063732 -1819.768,28.008407 -1823.5561,27.106571 -1826.9592,25.467092 -1826.338,29.997526 -1826.2878,35.135643 -1829.0431,39.051888 -1831.2811,42.061467 -1835.1189,42.912093 -1838.6679,42.320519 -1842.7313,42.89991 -1845.5869,38.878225 -1845.1092,35.120623 -1844.3871,31.483221 -1840.7427,27.145044 -1836.7494,29.266462 -1833.3616,31.277467 -1833.9857,37.939687 -1838.459,37.87623 -1841.814,37.702395 -1838.2684,31.398979 -1839.8328,35.894502 -1838.3699,40.874845 -1832.4473,34.017271 -1835.5338,31.144036 -1836.8289,27.095924 -1842.7222,28.746673 -1843.7737,32.192307 -1845.5637,35.039889 -1845.7392,39.477128 -1842.5078,41.421961 -1839.5097,43.394595 -1835.2119,42.439089 -1832.0124,41.228735 -1828.5882,38.582715 -1826.9733,33.755513 -1826.841,29.48826 -1825.8066,25.682134 -1828.934,23.377576 -1831.2799,20.967049 -1834.0241,18.75239 -1836.0063,15.799052 -1837.5444,12.693968 -1839.3245,14.507143 -1843.0347,17.158286 -1846.2385,17.912363 -1850.1235,18.948025 -1854.8019,18.780016 -1857.914,15.914984 -1861.0562,13.634515 -1862.2355,8.4367803 -1858.5964,6.0708671 -1855.4449,2.937964 -1849.3331,5.5302328 -1849.5187,9.9133287 -1848.9583,14.553232 -1856.9354,14.801375 -1855.9043,10.345715 -1853.2159,8.2839237 -1858.2345,12.220874 -1854.8017,13.052937 -1851.1152,15.785324 -1848.1727,9.9513203 -1850.8497,7.490103 -1852.9685,4.4646987 -1858.269,3.4111582 -1860.004,7.3526116 -1862.9459,10.466163 -1860.4532,14.831127 -1857.1771,16.478597 -1853.6106,19.697666 -1847.9655,19.338212 -1843.9707,17.036687 -1839.9766,15.590458 -1836.2669,13.047057 -1838.3876,8.3863948 -1839.0587,4.1307706 -1839.0841,-0.24853449 -1838.7271,-4.5142678 -1838.9212,-6.9159525 -1844.097,-4.3650124 -1846.2427,-4.4402636 -1850.0842,-3.5862485 -1855.0038,-4.8314598 -1856.2919,-8.9973035 -1857.9044,-12.567935 -1855.1947,-16.670499 -1851.1886,-16.182995 -1846.9328,-17.290953 -1847.0754,-10.864076 -1849.1348,-11.314774 -1845.3388,-14.46947 -1851.8311,-18.414561 -1854.2991,-15.170481 -1858.0895,-12.54964 -1856.1547,-7.3226709 -1852.9786,-5.1056162 -1849.5271,-3.122141 -1845.2939,-4.3975011 -1841.6092,-4.9952677 -1838.8292,-5.3495181 -1836.7148,-6.1876288 -1834.4694,-8.3580319 -1834.5999,-11.45025 -1831.6711,-13.477009 -1830.7272,-16.205934 -1827.0364,-16.186656 -1826.22,-21.671166 -1822.3043,-19.581296 -1819.1332,-18.188576 -1817.3933,-23.439246 -1815.014,-21.959043 -1811.4117,-20.729684 -1807.7862,-19.146357 -1803.905,-20.00324 -1801.4749,-17.501281 -1798.271,-16.705936 -1794.849,-16.755178 -1792.4787,-14.092539 -1789.1824,-15.110069 -1786.2153,-15.749886 -1783.3678,-13.570463 -1780.0487,-13.606414 -1776.6947,-13.54154 -1774.2362,-11.671221 -1770.8022,-13.756277 -1768.9027,-10.71709 -1765.4476,-11.783062 -1763.2161,-8.4276188 -1760.0186,-8.2988971 -1758.1815,-8.2739523 -1755.1841,-9.2653432 -1752.6859,-8.3580319 -1749.7012,-7.9915936 -1747.2168,-7.5079185 -1744.8396,-5.666048 -1740.6021,-6.5119008 -1737.4949,-1.5026858 -1732.9959,-4.1247861 -1730.0056,-4.1975886 -1735.8558,-3.6028688 -1736.7195,-3.3315712 -1739.9961,-4.05638 -1742.4501,-7.2539652 -1746.1219,-5.7560993 -1748.3551,-8.8267483 -1752.3231,-7.4326346 -1755.4357,-8.5536741 -1758.6187,-8.3626235 -1762.1749,-7.2086649 -1764.7681,-9.9586667 -1767.3863,-11.335397 -1770.3648,-11.240324 -1773.0158,-12.442608 -1776.2418,-12.812514 -1778.8995,-14.534606 -1782.2893,-13.781331 -1785.825,-16.305157 -1789.7287,-14.371854 -1793.4965,-15.779401 -1796.5153,-17.664185 -1800.6967,-16.292291 -1803.0068,-19.40641 -1806.4678,-20.126719 -1810.1257,-19.764164 -1813.3649,-21.489269 -1816.9169,-24.515174 -1819.6521,-18.939117 -1823.352,-20.244133 -1826.508,-20.705493 -1827.9194,-16.646182 -1830.9213,-16.16383 -1832.8806,-13.513988 -1834.5198,-10.619997 -1835.3123,-7.3939754 -1836.7212,-6.4719674 -1840.0774,-4.5023997 -1837.8992,-7.5301443 -1835.6648,-11.435812 -1833.0153,-15.029621 -1830.2708,-18.588358 -1833.3963,-18.169855 -1837.1343,-18.831258 -1840.0226,-20.397546 -1842.8412,-22.090042 -1844.5366,-25.727371 -1844.0072,-28.926463 -1843.572,-32.786351 -1836.9355,-34.656023 -1836.2434,-29.942246 -1834.7919,-27.238541 -1841.4408,-26.278925 -1837.2674,-27.874011 -1834.2089,-31.249134 -1840.1196,-34.969695 -1842.4534,-31.134013 -1845.5981,-28.502154 -1843.7593,-23.368529 -1841.0333,-21.131156 -1838.0117,-19.260909 -1834.0147,-18.143325 -1830.5758,-18.491558 -1828.1134,-20.222715 -1824.5784,-21.799896 -1822.6424,-23.437414 -1824.9679,-26.041953 -1828.9674,-27.291345 -1830.095,-30.972668 -1832.1543,-34.768608 -1829.8698,-40.675432 -1824.9457,-39.817615 -1822.4081,-38.849128 -1823.0436,-35.535507 -1824.9487,-34.318223 -1821.0375,-36.906949 -1825.673,-42.480106 -1828.887,-38.789451 -1832.4063,-36.125968 -1830.9691,-30.809666 -1828.3785,-27.990796 -1826.3543,-25.910457 -1823.7146,-22.827177 -1820.84,-24.0766 -1815.3714,-24.950247 -1809.776,-25.389084 -1804.2515,-24.97492 -1805.4127,-28.397723 -1808.3029,-30.856641 -1809.942,-34.018841 -1812.9139,-38.504569 -1806.6162,-39.945247 -1804.6654,-36.387942 -1807.071,-40.471457 -1812.8787,-36.158702 -1809.1597,-32.839852 -1805.8142,-30.474608 -1806.1432,-25.05903 -1802.0496,-24.042717 -1798.2722,-22.18953 -1794.1665,-20.906521 -1790,-20.303268 -1791.1286,-23.056562 -1792.9035,-26.231738 -1792.0959,-29.418743 -1792.0376,-31.900912 -1786.2528,-29.677662 -1790.429,-30.474609 -1794.8044,-28.420046 -1790.1966,-23.627865 -1790.1741,-20.359683 -1788.0479,-19.447432 -1784.924,-18.295767 -1782.8447,-17.169122 -1780.8323,-17.565795 -1775.8503,-15.806317 -1775.7153,-16.880879 -1776.4437,-19.132603 -1777.0561,-21.348087 -1776.7538,-23.733088 -1776.7944,-20.876655 -1776.6441,-15.531563 -1772.9449,-15.353412 -1770.4667,-15.679596 -1761.9984,-12.981743 -1749.4815,-10.835636 -1745.6208,-10.714499 -1742.0078,-9.1564024 -1738.3161,-8.2397623 -1735.5817,-7.3660072 -1733.3608,-6.8163661 -1730.471,-6.104351 -1725.8161,-5.0332124 -1721.1876,-3.7224328 -1716.7274,-2.0084151 -1713.5247,-0.24220485 -1710.0637,0.90023983 -1706.9568,2.77829 -1702.1082,4.4400948 -1697.9547,7.5868937 -1693.2491,9.5814914 -1690.1105,11.240105 -1687.3236,13.400993 -1684.4169,15.402952 -1680.0325,18.517515 -1675.7005,21.689494 -1671.3164,24.816609 -1671.3273,24.603494 -1671.269,25.037127 -1671.4346,24.875744"
           id="path3"
           transform="translate(2006.67, 293.861)"
           inkstitch:running_stitch_tolerance_mm="0.5"
           inkstitch:min_stitch_length_mm="0.5"
           inkstitch:satin_column="False"
           sodipodi:nodetypes="cccscccscssccccccccccccccccccccccccccccccccccccccccccccscccscccccccccccccccccccccccccccccccccccccccccccccccccccccccccccccccccccccccccccccccccccccccccccccccccccccccccccccccccccccccccccccccccccccc"
           inkstitch:enable_random_stitch_length="False"
           inkstitch:running_stitch_length_mm="2" />
        <path
           style="display:inline;vector-effect:non-scaling-stroke;fill:none;stroke:#c70200;stroke-width:1.68826;stroke-linejoin:round;stroke-dasharray:none;-inkscape-stroke:hairline"
           d="M -1672.026,24.816605 C -1673.0782,23.962093 -1675.8154,21.772381 -1677.6664,20.495471 -1680.5832,17.543299 -1685.3865,17.806493 -1686.6735,22.12455 -1688.2767,25.16858 -1685.1694,28.023401 -1682.3952,28.649541 -1679.7272,29.83517 -1676.1785,28.880447 -1675.0419,26.117574 -1672.7044,22.318605 -1676.025,27.504593 -1677.471,28.264112 -1679.6188,30.335701 -1682.6609,28.576836 -1684.9174,27.655083 -1688.1762,26.134072 -1687.7201,21.318559 -1684.9139,19.407818 -1683.6315,18.489231 -1680.8964,18.589836 -1683.6164,17.483893 -1685.7154,14.922586 -1689.0491,13.87751 -1691.7118,12.000944 -1696.3512,8.6521035 -1701.929,7.0532706 -1706.9033,4.3023365 -1710.4583,2.8571157 -1713.6069,0.56944781 -1717.3233,-0.49309298 -1721.6115,-1.9068478 -1725.9576,-3.2170253 -1730.1477,-4.9368831 -1733.6065,-5.8918118 -1737.4537,-5.3722359 -1740.5608,-7.4757263 -1743.3565,-8.463976 -1745.8906,-8.4945405 -1748.7217,-9.0760882 -1751.6937,-9.4278655 -1754.516,-11.059697 -1757.535,-10.66429 -1761.1065,-10.203804 -1764.1945,-12.021932 -1767.4745,-12.996096 -1771.0578,-12.765314 -1773.7489,-15.896758 -1777.3594,-15.524941 -1781.6863,-16.3217 -1786.183,-16.445995 -1790.3301,-18.057986 -1793.6912,-17.756699 -1796.7209,-18.899824 -1799.308,-21.00277 -1802.288,-22.479653 -1805.6266,-22.339318 -1808.8328,-22.436365 -1812.0708,-23.098155 -1815.5753,-24.708843 -1818.7676,-23.082975 -1820.2394,-22.791814 -1823.7305,-21.200201 -1820.4544,-22.432122 -1817.1202,-24.159391 -1813.2041,-23.597374 -1809.8248,-22.315438 -1806.4312,-21.649174 -1802.652,-22.536164 -1799.5258,-20.904925 -1796.7602,-19.408004 -1794.2496,-17.318843 -1790.8889,-17.593237 -1787.5075,-18.015429 -1784.5026,-16.369918 -1781.3496,-15.527302 -1777.7198,-14.940864 -1773.8355,-15.469597 -1770.4385,-13.73055 -1767.4555,-12.249179 -1764.0921,-11.944469 -1760.9648,-10.841695 -1757.7857,-10.135325 -1754.4475,-10.402807 -1751.2607,-9.5873184 -1748.4539,-8.5819274 -1745.5974,-8.6996549 -1742.708,-7.8756252 -1739.0512,-7.1308828 -1735.6683,-5.2774733 -1731.8704,-5.1056162 -1728.3047,-4.590729 -1724.9216,-3.3039168 -1721.5029,-2.2313102 -1717.0187,-0.3578458 -1712.5454,1.4985889 -1708.1866,3.6169231 -1704.7163,4.6244641 -1701.7821,6.7376264 -1698.4593,8.0814513 -1695.651,9.7751334 -1692.7206,11.415608 -1689.8899,13.169614 -1685.4398,15.905887 -1681.1429,18.915346 -1676.6593,21.581691 -1674.0661,23.575411 -1671.884,25.23022 -1669.065,26.788105 -1667.9204,27.920633 -1671.3625,27.414845 -1671.8184,28.13946 -1673.6718,29.006098 -1678.8522,31.930518 -1681.5467,33.627699 -1685.8929,36.165221 -1690.9547,37.030021 -1695.4618,39.218306 -1701.6593,41.761101 -1708.2577,43.119362 -1714.7805,44.508508 -1718.1361,45.081164 -1721.5176,45.412537 -1724.8334,46.164283 -1727.8366,46.929395 -1730.8276,45.646171 -1733.9993,46.519092 -1736.8503,46.744969 -1739.7077,46.634845 -1742.5417,46.301083 -1746.9099,46.284081 -1751.2974,46.405274 -1755.6292,45.712013 -1759.5017,45.095866 -1763.4117,44.74264 -1767.2999,44.332512 -1771.3698,43.364029 -1775.4401,42.290202 -1779.3906,40.916476 -1782.9081,39.255386 -1786.564,37.85471 -1790,36.052227 -1794.4585,33.616221 -1798.6071,30.619691 -1802.8322,27.77335 -1805.1285,25.93844 -1807.47,23.174419 -1810.185,25.795895 -1813.4109,27.468163 -1817.0353,27.800895 -1820.602,27.375832 -1824.1432,27.022911 -1827.7689,25.812058 -1830.0343,22.924294 -1832.7752,19.853528 -1835.8677,16.857338 -1837.5204,13.056266 -1838.4532,9.7714671 -1838.3336,6.4832116 -1838.3723,3.1141255 -1839.123,-0.31256541 -1838.0447,-3.6852513 -1837.5444,-7.0570656 -1835.8633,-11.436991 -1832.9036,-15.134744 -1829.8569,-18.647493 -1827.6883,-20.285042 -1825.6632,-22.194742 -1822.4871,-23.250183 -1819.1047,-24.662709 -1815.4939,-25.089014 -1811.8613,-25.267964 -1808.3127,-25.463592 -1804.6639,-25.275243 -1801.3553,-23.851847 -1795.7716,-21.748948 -1789.8988,-20.619998 -1784.3961,-18.299597 -1777.5513,-15.912979 -1770.3293,-15.146485 -1763.271,-13.680167 -1759.8485,-13.31416 -1756.8456,-11.472553 -1753.3938,-11.223159 -1750.4833,-10.872081 -1746.9891,-10.120346 -1743.8348,-9.6013893 -1737.3473,-7.8141928 -1730.6563,-6.7904355 -1724.3012,-4.5142678 -1718.8453,-2.9853175 -1713.4235,-1.1402723 -1708.5847,1.8512123 -1704.2178,4.2969717 -1699.4352,5.798851 -1695.0561,8.2201497 -1692.2229,9.4771452 -1690.7084,11.761914 -1688.0491,12.893252 -1684.8933,14.683085 -1681.7809,16.687846 -1678.8233,18.812984 -1676.6382,20.798261 -1673.3578,22.387559 -1672.026,24.816605 -1669.4505,25.750472 -1667.2409,28.561886 -1664.722,30.100047 -1664.0462,30.752605 -1663.2076,31.164402 -1662.5644,31.853654"
           id="path4"
           transform="translate(2006.67, 293.861)"
           inkstitch:running_stitch_tolerance_mm="0.5"
           inkstitch:min_stitch_length_mm="0.5"
           inkstitch:satin_column="False"
           sodipodi:nodetypes="cccccccccccccccccccccccccccccccccccccccccccccccccccccccccccccccccccccccc"
           inkstitch:enable_random_stitch_length="False"
           inkstitch:running_stitch_length_mm="2" />
      </g>
      <path
         style="vector-effect:non-scaling-stroke;fill:none;stroke:#c70200;stroke-width:1.68826;stroke-linejoin:round;stroke-dasharray:none;-inkscape-stroke:hairline"
         d="M 344.75607,325.24158 C 344.69501,323.89938 345.49918,322.70587 345.60096,321.3787 345.83701,320.14702 347.17952,317.96264 347.17952,317.96264 L 349.54599,317.25837 C 349.54599,317.25837 351.96321,316.70724 353.14225,316.32688 354.32982,316.27802 356.67915,316.32907 356.67915,316.32907 L 360.90316,317.03754 C 360.90316,317.03754 362.70469,316.43922 363.61853,316.22857 364.90619,315.6123 365.94678,314.59348 367.22975,313.96522 368.43305,313.20558 369.62533,312.23768 369.9701,310.78684 370.35858,309.41701 371.39558,308.06495 370.86332,306.58525 370.11404,305.48357 369.24595,304.33681 368.07661,303.62363 366.78827,303.07133 365.38294,302.57429 363.95944,302.81465 362.53464,302.94693 361.05266,303.01847 359.71257,303.54221 358.62848,304.12006 357.03019,304.22592 356.13484,303.27502 355.97626,302.28885 356.12701,301.22867 356.25474,300.2351 356.80761,298.51873 358.2234,297.24627 359.60416,296.17061 360.71828,295.34946 362.2761,295.40239 363.47659,295.98897 364.06547,296.07876 364.07196,297.56117 364.24409,297.35719 363.68132,296.02714 361.99151,295.51899 360.65185,295.78008 359.60714,296.02924 358.60287,296.5955 357.87399,297.38654 356.86263,298.81938 356.21169,300.51831 356.12957,302.27435 356.07509,302.69395 356.28738,303.80166 355.63688,303.00688 353.85752,302.32303 351.79451,302.65293 350.1394,303.52165 349.67559,303.72809 348.81461,304.8033 349.16647,303.68902 349.57604,302.72325 349.17503,301.68751 348.82963,300.76372 348.19534,299.80307 347.83535,298.70537 347.19758,297.74444 346.56904,296.8707 346.2051,295.72097 345.1342,295.24979 344.23178,294.60083 343.15065,295.26601 342.68052,296.1017 342.31006,296.56997 342.68643,298.29473 342.38355,296.91667 342.19469,295.59044 343.63041,295.09925 344.70175,295.27866 346.07194,295.2817 346.77001,296.67112 347.2149,297.76999 347.62999,298.72808 347.67228,299.81992 348.23908,300.70629 348.63888,301.88066 349.09282,303.14507 348.84317,304.40055 348.56897,305.1082 347.91407,303.66901 347.28395,303.67539 346.06947,303.13898 344.70618,303.09704 343.41644,302.85989 342.0269,302.90959 340.57953,303.16682 339.33709,303.80182 337.81694,304.98503 336.41616,306.44072 335.60882,308.21292 334.88683,309.7947 335.38951,311.61817 336.18214,313.06931 336.85122,314.09979 337.82843,314.88349 338.69662,315.74036 339.40558,316.36465 340.21702,317.00532 341.2181,316.95086 342.13827,316.99255 343.08177,316.8436 343.98047,317.10836 345.12165,316.98339 346.30315,317.18696 347.36045,317.61514 348.66961,317.27973 350.06251,317.36882 351.36757,316.9684 353.97059,316.48051 356.63075,316.47418 359.26948,316.50324 360.01623,317.00691 361.56696,316.57927 361.61162,317.74717 362.02691,319.32715 362.78072,320.79052 363.48595,322.25544 363.93976,322.99445 364.15994,323.90291 364.15229,324.7685"
         id="path8"
         inkstitch:satin_column="False"
         inkstitch:running_stitch_tolerance_mm="0.5"
         inkstitch:min_stitch_length_mm="0.5"
         sodipodi:nodetypes="cccccccccccccccccccccccccccccccccccccccccccccccc"
         inkstitch:enable_random_stitch_length="False"
         inkstitch:running_stitch_length_mm="2" />
      <g
         id="g25"
         transform="matrix(-1 0 0 1 709.123 -1.70385)">
        <path
           style="vector-effect:non-scaling-stroke;fill:none;stroke:#c70200;stroke-width:1.68826;stroke-linejoin:round;stroke-dasharray:none;-inkscape-stroke:hairline"
           d="M -1663.688,41.078686 C -1662.8471,39.627358 -1660.6495,34.98635 -1662.6977,32.516424 -1664.5307,29.743064 -1668.3431,27.991388 -1671.5347,27.735999 -1672.3185,28.210326 -1673.2493,28.789239 -1674.277,29.419513 -1675.7969,30.351668 -1689.6687,37.040165 -1691.4502,38.024824 -1693.7948,38.941837 -1698.3,37.446178 -1700.158,34.032599 -1699.7391,32.254047 -1686.761,27.882553 -1686.761,27.882553 -1686.761,27.882553 -1698.7827,34.988556 -1699.9012,34.398937 -1708.7009,29.76006 -1698.525,27.289068 -1688.3512,24.147213 -1690.6797,25.551929 -1701.1644,28.128259 -1702.3132,27.587789 -1705.8781,25.910612 -1705.0074,19.989208 -1703.2159,18.412926 -1701.9991,17.342264 -1690.7728,18.977071 -1687.9064,20.471553 -1687.9064,20.471553 -1704.4605,18.649593 -1702.7823,16.242394 -1702.3235,14.333934 -1697.1585,11.183708 -1697.1585,11.183708 -1700.287,11.770302 -1707.479,21.479786 -1704.1277,25.210935 -1703.1153,26.941903 -1701.5614,27.980186 -1702.6595,30.233895 -1703.6215,34.275761 -1692.9522,37.742177 -1692.3338,38.362519 -1695.5568,38.862841 -1693.7576,39.527178 -1696.5951,39.849605 -1698.5303,40.390279 -1699.0385,40.725159 -1701.7411,41.468833 -1705.0017,42.840687 -1713.4268,44.797596 -1715.4409,44.081939 -1714.8212,41.242341 -1716.4993,39.922412 -1718.2269,38.242218 -1716.4934,34.341376 -1722.4711,32.281128 -1720.2209,28.660373 -1718.9675,26.035799 -1722.169,22.298332 -1718.3877,20.972845 -1719.1329,17.305145 -1716.5346,14.76361 -1717.0456,11.227305 -1715.4032,8.4629253 -1715.1403,5.4138159 -1713.4204,2.581912 -1713.0885,0.91961565 -1714.706,4.9296977 -1715.2509,5.5120449 -1714.7507,9.088013 -1717.954,11.224293 -1716.7848,14.943423 -1719.63,17.199973 -1716.8736,21.412138 -1720.0036,23.184329 -1719.3986,26.139265 -1720.4977,29.08728 -1720.5165,31.853654 -1717.3474,34.137403 -1719.4116,38.444141 -1716.0814,40.664744 -1714.633,42.100238 -1715.6762,46.251927 -1717.5239,44.253946 -1717.3293,40.867857 -1721.0557,39.233838 -1720.9896,35.756553 -1723.8754,32.092713 -1721.6292,27.643598 -1722.3312,23.47431 -1722.9274,19.653787 -1719.7694,16.532218 -1720.2649,12.630564 -1719.6693,9.0622444 -1718.0437,5.6116321 -1715.9632,2.6410468 -1713.1574,-1.0589986 -1717.4901,4.7261994 -1717.7944,6.172948 -1720.8458,10.126304 -1720.0281,15.346737 -1721.7165,19.788678 -1722.5679,23.646605 -1722.2752,27.655231 -1722.2187,31.571882 -1721.5367,34.641573 -1720.1669,37.535386 -1719.2135,40.432013 -1715.8923,42.907303 -1717.7959,46.491197 -1721.3866,44.771543 -1724.1881,42.209256 -1725.2038,38.375429 -1725.3656,34.632991 -1726.0991,29.763891 -1726.9655,25.037108 -1725.3089,19.131836 -1724.5255,14.225161 -1723.441,9.3281663 -1721.6362,4.689876 -1720.8023,3.2475678 -1717.8861,-0.12165573 -1718.092,-0.19742512 -1718.5371,3.6314812 -1718.1516,1.6273621 -1721.5559,4.4781584 -1723.3467,7.7849001 -1723.3676,11.655087 -1724.5969,15.118496 -1725.1564,18.802964 -1726.5421,34.101913 -1725.4501,37.766064 -1725.7705,40.968946 -1721.2387,44.272095 -1721.2338,45.532939 -1722.5743,45.793269 -1727.6901,46.798887 -1727.6901,46.798887 L -1732.7326,46.412127 C -1732.7326,46.412127 -1732.5985,41.625529 -1730.9092,40.151547 -1729.2669,38.645612 -1728.9715,37.843809 -1731.3468,38.816324 -1749.8208,37.826862 -1761.8902,30.077933 -1761.8902,30.077933 -1761.8902,30.077933 -1739.3652,41.307347 -1730.0365,38.500313 -1733.0095,33.288863 -1740.5378,23.795845 -1731.4087,18.623547 -1731.4087,18.623547 -1729.6217,16.366843 -1730.3689,15.677782 -1736.5032,10.020484 -1756.5505,12.361043 -1756.5505,12.361043 -1748.6711,11.184848 -1740.899,9.7548283 -1729.9815,15.759523 -1731.6065,15.855111 -1737.7877,-2.2973162 -1729.8599,-3.5681105 -1735.6378,-2.644022 -1733.913,11.19185 -1730.3646,14.313292 -1728.8704,15.627753 -1729.0818,14.916117 -1730.1642,15.888623 -1730.9804,19.581797 -1732.4618,19.08053 -1732.4618,19.08053 -1738.7488,24.470397 -1735.0684,31.28417 -1729.5642,38.358485 -1729.5642,38.358485 -1732.3337,44.409942 -1733.0418,46.100856 -1736.8568,47.393685 -1740.3595,45.35444 -1744.3481,45.60888 -1751.4626,45.086341 -1758.698,45.58859 -1765.6784,43.845034 -1769.5481,43.013162 -1773.7038,42.795408 -1777.3451,41.374362 -1775.2121,39.764416 -1770.6075,37.396162 -1770.3081,33.568564 -1770.0891,30.961663 -1775.1756,29.026276 -1779.8437,26.460366 -1769.7554,19.067121 -1765.9705,17.70836 -1768.7706,12.753103 L -1772.2554,8.0752298 C -1772.2554,8.0752298 -1765.5782,7.4403744 -1762.7387,6.2447686 -1758.0859,4.2085643 -1754.9787,-0.73224787 -1755.347,-5.8152341 -1755.3517,-7.8020815 -1755.6691,-8.631441 -1755.4144,-6.1746152 -1755.5298,-2.9124791 -1755.7317,0.94775028 -1758.7029,2.9989591 -1761.9337,5.9904908 -1768.7397,6.2655979 -1772.6865,8.0336172 -1771.971,9.6440591 -1767.1888,15.373099 -1768.2456,18.464036 -1768.941,21.542119 -1778.2134,24.02299 -1780.3529,25.506585 -1777.7487,27.777024 -1769.1847,32.219607 -1770.9899,35.503459 -1772.2115,37.827221 -1776.5033,40.821255 -1777.7591,41.078687 -1786.6552,38.78721 -1794.8972,32.846325 -1802.8356,27.928872 -1804.996,25.965084 -1809.1276,24.826383 -1806.3809,21.38483 -1804.6747,17.084616 -1801.8123,12.875484 -1802.3,8.0223165 -1802.1642,4.5793746 -1803.4904,1.2770417 -1805.6892,-1.3281703 -1808.9602,-5.7272757 -1814.8568,-8.6715637 -1820.3232,-6.8813912 -1824.177,-6.0900704 -1826.8366,-2.8891914 -1827.8628,0.76282049 -1829.2192,4.2338383 -1829.8301,8.7703206 -1826.7227,11.511272 -1824.7785,14.76263 -1820.6153,15.70026 -1817.3495,13.88565 -1813.8917,13.048011 -1810.5155,7.8928578 -1815.3097,6.1300019 -1817.1036,5.4069922 -1821.2022,5.6205277 -1817.0921,5.8107582 -1814.3866,6.468607 -1809.8515,8.8095656 -1813.8617,11.562158 -1817.7076,14.907922 -1824.3834,15.033412 -1827.5673,10.706481 -1830.0257,7.077157 -1828.6129,1.928402 -1826.6044,-1.6166611 -1823.7498,-4.9490169 -1819.53,-8.0358973 -1814.8957,-6.8796611 -1811.5517,-5.8936409 -1808.4841,-3.7942108 -1805.9281,-1.395801 -1801.9257,3.441597 -1801.4679,10.520535 -1803.9061,16.190123 -1804.9912,18.818018 -1806.6269,23.256007 -1807.7996,24.580069 -1809.6277,26.494349 -1813.2406,26.838096 -1816.0193,27.063732 -1819.768,28.008407 -1823.5561,27.106571 -1826.9592,25.467092 -1826.338,29.997526 -1826.2878,35.135643 -1829.0431,39.051888 -1831.2811,42.061467 -1835.1189,42.912093 -1838.6679,42.320519 -1842.7313,42.89991 -1845.5869,38.878225 -1845.1092,35.120623 -1844.3871,31.483221 -1840.7427,27.145044 -1836.7494,29.266462 -1833.3616,31.277467 -1833.9857,37.939687 -1838.459,37.87623 -1841.814,37.702395 -1838.2684,31.398979 -1839.8328,35.894502 -1838.3699,40.874845 -1832.4473,34.017271 -1835.5338,31.144036 -1836.8289,27.095924 -1842.7222,28.746673 -1843.7737,32.192307 -1845.5637,35.039889 -1845.7392,39.477128 -1842.5078,41.421961 -1839.5097,43.394595 -1835.2119,42.439089 -1832.0124,41.228735 -1828.5882,38.582715 -1826.9733,33.755513 -1826.841,29.48826 -1825.8066,25.682134 -1828.934,23.377576 -1831.2799,20.967049 -1834.0241,18.75239 -1836.0063,15.799052 -1837.5444,12.693968 -1839.3245,14.507143 -1843.0347,17.158286 -1846.2385,17.912363 -1850.1235,18.948025 -1854.8019,18.780016 -1857.914,15.914984 -1861.0562,13.634515 -1862.2355,8.4367803 -1858.5964,6.0708671 -1855.4449,2.937964 -1849.3331,5.5302328 -1849.5187,9.9133287 -1848.9583,14.553232 -1856.9354,14.801375 -1855.9043,10.345715 -1853.2159,8.2839237 -1858.2345,12.220874 -1854.8017,13.052937 -1851.1152,15.785324 -1848.1727,9.9513203 -1850.8497,7.490103 -1852.9685,4.4646987 -1858.269,3.4111582 -1860.004,7.3526116 -1862.9459,10.466163 -1860.4532,14.831127 -1857.1771,16.478597 -1853.6106,19.697666 -1847.9655,19.338212 -1843.9707,17.036687 -1839.9766,15.590458 -1836.2669,13.047057 -1838.3876,8.3863948 -1839.0587,4.1307706 -1839.0841,-0.24853449 -1838.7271,-4.5142678 -1838.9212,-6.9159525 -1844.097,-4.3650124 -1846.2427,-4.4402636 -1850.0842,-3.5862485 -1855.0038,-4.8314598 -1856.2919,-8.9973035 -1857.9044,-12.567935 -1855.1947,-16.670499 -1851.1886,-16.182995 -1846.9328,-17.290953 -1847.0754,-10.864076 -1849.1348,-11.314774 -1845.3388,-14.46947 -1851.8311,-18.414561 -1854.2991,-15.170481 -1858.0895,-12.54964 -1856.1547,-7.3226709 -1852.9786,-5.1056162 -1849.5271,-3.122141 -1845.2939,-4.3975011 -1841.6092,-4.9952677 -1838.8292,-5.3495181 -1836.7148,-6.1876288 -1834.4694,-8.3580319 -1834.5999,-11.45025 -1831.6711,-13.477009 -1830.7272,-16.205934 -1827.0364,-16.186656 -1826.22,-21.671166 -1822.3043,-19.581296 -1819.1332,-18.188576 -1817.3933,-23.439246 -1815.014,-21.959043 -1811.4117,-20.729684 -1807.7862,-19.146357 -1803.905,-20.00324 -1801.4749,-17.501281 -1798.271,-16.705936 -1794.849,-16.755178 -1792.4787,-14.092539 -1789.1824,-15.110069 -1786.2153,-15.749886 -1783.3678,-13.570463 -1780.0487,-13.606414 -1776.6947,-13.54154 -1774.2362,-11.671221 -1770.8022,-13.756277 -1768.9027,-10.71709 -1765.4476,-11.783062 -1763.2161,-8.4276188 -1760.0186,-8.2988971 -1758.1815,-8.2739523 -1755.1841,-9.2653432 -1752.6859,-8.3580319 -1749.7012,-7.9915936 -1747.2168,-7.5079185 -1744.8396,-5.666048 -1740.6021,-6.5119008 -1737.4949,-1.5026858 -1732.9959,-4.1247861 -1730.0056,-4.1975886 -1735.8558,-3.6028688 -1736.7195,-3.3315712 -1739.9961,-4.05638 -1742.4501,-7.2539652 -1746.1219,-5.7560993 -1748.3551,-8.8267483 -1752.3231,-7.4326346 -1755.4357,-8.5536741 -1758.6187,-8.3626235 -1762.1749,-7.2086649 -1764.7681,-9.9586667 -1767.3863,-11.335397 -1770.3648,-11.240324 -1773.0158,-12.442608 -1776.2418,-12.812514 -1778.8995,-14.534606 -1782.2893,-13.781331 -1785.825,-16.305157 -1789.7287,-14.371854 -1793.4965,-15.779401 -1796.5153,-17.664185 -1800.6967,-16.292291 -1803.0068,-19.40641 -1806.4678,-20.126719 -1810.1257,-19.764164 -1813.3649,-21.489269 -1816.9169,-24.515174 -1819.6521,-18.939117 -1823.352,-20.244133 -1826.508,-20.705493 -1827.9194,-16.646182 -1830.9213,-16.16383 -1832.8806,-13.513988 -1834.5198,-10.619997 -1835.3123,-7.3939754 -1836.7212,-6.4719674 -1840.0774,-4.5023997 -1837.8992,-7.5301443 -1835.6648,-11.435812 -1833.0153,-15.029621 -1830.2708,-18.588358 -1833.3963,-18.169855 -1837.1343,-18.831258 -1840.0226,-20.397546 -1842.8412,-22.090042 -1844.5366,-25.727371 -1844.0072,-28.926463 -1843.572,-32.786351 -1836.9355,-34.656023 -1836.2434,-29.942246 -1834.7919,-27.238541 -1841.4408,-26.278925 -1837.2674,-27.874011 -1834.2089,-31.249134 -1840.1196,-34.969695 -1842.4534,-31.134013 -1845.5981,-28.502154 -1843.7593,-23.368529 -1841.0333,-21.131156 -1838.0117,-19.260909 -1834.0147,-18.143325 -1830.5758,-18.491558 -1828.1134,-20.222715 -1824.5784,-21.799896 -1822.6424,-23.437414 -1824.9679,-26.041953 -1828.9674,-27.291345 -1830.095,-30.972668 -1832.1543,-34.768608 -1829.8698,-40.675432 -1824.9457,-39.817615 -1822.4081,-38.849128 -1823.0436,-35.535507 -1824.9487,-34.318223 -1821.0375,-36.906949 -1825.673,-42.480106 -1828.887,-38.789451 -1832.4063,-36.125968 -1830.9691,-30.809666 -1828.3785,-27.990796 -1826.3543,-25.910457 -1823.7146,-22.827177 -1820.84,-24.0766 -1815.3714,-24.950247 -1809.776,-25.389084 -1804.2515,-24.97492 -1805.4127,-28.397723 -1808.3029,-30.856641 -1809.942,-34.018841 -1812.9139,-38.504569 -1806.6162,-39.945247 -1804.6654,-36.387942 -1807.071,-40.471457 -1812.8787,-36.158702 -1809.1597,-32.839852 -1805.8142,-30.474608 -1806.1432,-25.05903 -1802.0496,-24.042717 -1798.2722,-22.18953 -1794.1665,-20.906521 -1790,-20.303268 -1791.1286,-23.056562 -1792.9035,-26.231738 -1792.0959,-29.418743 -1792.0376,-31.900912 -1786.2528,-29.677662 -1790.429,-30.474609 -1794.8044,-28.420046 -1790.1966,-23.627865 -1790.1741,-20.359683 -1788.0479,-19.447432 -1784.924,-18.295767 -1782.8447,-17.169122 -1780.8323,-17.565795 -1775.8503,-15.806317 -1775.7153,-16.880879 -1776.4437,-19.132603 -1777.0561,-21.348087 -1776.7538,-23.733088 -1776.7944,-20.876655 -1776.6441,-15.531563 -1772.9449,-15.353412 -1770.4667,-15.679596 -1761.9984,-12.981743 -1749.4815,-10.835636 -1745.6208,-10.714499 -1742.0078,-9.1564024 -1738.3161,-8.2397623 -1735.5817,-7.3660072 -1733.3608,-6.8163661 -1730.471,-6.104351 -1725.8161,-5.0332124 -1721.1876,-3.7224328 -1716.7274,-2.0084151 -1713.5247,-0.24220485 -1710.0637,0.90023983 -1706.9568,2.77829 -1702.1082,4.4400948 -1697.9547,7.5868937 -1693.2491,9.5814914 -1690.1105,11.240105 -1687.3236,13.400993 -1684.4169,15.402952 -1680.0325,18.517515 -1675.7005,21.689494 -1671.3164,24.816609 -1671.3273,24.603494 -1671.269,25.037127 -1671.4346,24.875744"
           id="path24"
           transform="translate(2006.67, 293.861)"
           inkstitch:running_stitch_tolerance_mm="0.5"
           inkstitch:min_stitch_length_mm="0.5"
           inkstitch:satin_column="False"
           sodipodi:nodetypes="cccscccscssccccccccccccccccccccccccccccccccccccccccccccscccscccccccccccccccccccccccccccccccccccccccccccccccccccccccccccccccccccccccccccccccccccccccccccccccccccccccccccccccccccccccccccccccccccccc"
           inkstitch:enable_random_stitch_length="False"
           inkstitch:running_stitch_length_mm="2" />
        <path
           style="display:inline;vector-effect:non-scaling-stroke;fill:none;stroke:#c70200;stroke-width:1.68826;stroke-linejoin:round;stroke-dasharray:none;-inkscape-stroke:hairline"
           d="M -1672.026,24.816605 C -1673.0782,23.962093 -1675.8154,21.772381 -1677.6664,20.495471 -1680.5832,17.543299 -1685.3865,17.806493 -1686.6735,22.12455 -1688.2767,25.16858 -1685.1694,28.023401 -1682.3952,28.649541 -1679.7272,29.83517 -1676.1785,28.880447 -1675.0419,26.117574 -1672.7044,22.318605 -1676.025,27.504593 -1677.471,28.264112 -1679.6188,30.335701 -1682.6609,28.576836 -1684.9174,27.655083 -1688.1762,26.134072 -1687.7201,21.318559 -1684.9139,19.407818 -1683.6315,18.489231 -1680.8964,18.589836 -1683.6164,17.483893 -1685.7154,14.922586 -1689.0491,13.87751 -1691.7118,12.000944 -1696.3512,8.6521035 -1701.929,7.0532706 -1706.9033,4.3023365 -1710.4583,2.8571157 -1713.6069,0.56944781 -1717.3233,-0.49309298 -1721.6115,-1.9068478 -1725.9576,-3.2170253 -1730.1477,-4.9368831 -1733.6065,-5.8918118 -1737.4537,-5.3722359 -1740.5608,-7.4757263 -1743.3565,-8.463976 -1745.8906,-8.4945405 -1748.7217,-9.0760882 -1751.6937,-9.4278655 -1754.516,-11.059697 -1757.535,-10.66429 -1761.1065,-10.203804 -1764.1945,-12.021932 -1767.4745,-12.996096 -1771.0578,-12.765314 -1773.7489,-15.896758 -1777.3594,-15.524941 -1781.6863,-16.3217 -1786.183,-16.445995 -1790.3301,-18.057986 -1793.6912,-17.756699 -1796.7209,-18.899824 -1799.308,-21.00277 -1802.288,-22.479653 -1805.6266,-22.339318 -1808.8328,-22.436365 -1812.0708,-23.098155 -1815.5753,-24.708843 -1818.7676,-23.082975 -1820.2394,-22.791814 -1823.7305,-21.200201 -1820.4544,-22.432122 -1817.1202,-24.159391 -1813.2041,-23.597374 -1809.8248,-22.315438 -1806.4312,-21.649174 -1802.652,-22.536164 -1799.5258,-20.904925 -1796.7602,-19.408004 -1794.2496,-17.318843 -1790.8889,-17.593237 -1787.5075,-18.015429 -1784.5026,-16.369918 -1781.3496,-15.527302 -1777.7198,-14.940864 -1773.8355,-15.469597 -1770.4385,-13.73055 -1767.4555,-12.249179 -1764.0921,-11.944469 -1760.9648,-10.841695 -1757.7857,-10.135325 -1754.4475,-10.402807 -1751.2607,-9.5873184 -1748.4539,-8.5819274 -1745.5974,-8.6996549 -1742.708,-7.8756252 -1739.0512,-7.1308828 -1735.6683,-5.2774733 -1731.8704,-5.1056162 -1728.3047,-4.590729 -1724.9216,-3.3039168 -1721.5029,-2.2313102 -1717.0187,-0.3578458 -1712.5454,1.4985889 -1708.1866,3.6169231 -1704.7163,4.6244641 -1701.7821,6.7376264 -1698.4593,8.0814513 -1695.651,9.7751334 -1692.7206,11.415608 -1689.8899,13.169614 -1685.4398,15.905887 -1681.1429,18.915346 -1676.6593,21.581691 -1674.0661,23.575411 -1671.884,25.23022 -1669.065,26.788105 -1667.9204,27.920633 -1671.3625,27.414845 -1671.8184,28.13946 -1673.6718,29.006098 -1678.8522,31.930518 -1681.5467,33.627699 -1685.8929,36.165221 -1690.9547,37.030021 -1695.4618,39.218306 -1701.6593,41.761101 -1708.2577,43.119362 -1714.7805,44.508508 -1718.1361,45.081164 -1721.5176,45.412537 -1724.8334,46.164283 -1727.8366,46.929395 -1730.8276,45.646171 -1733.9993,46.519092 -1736.8503,46.744969 -1739.7077,46.634845 -1742.5417,46.301083 -1746.9099,46.284081 -1751.2974,46.405274 -1755.6292,45.712013 -1759.5017,45.095866 -1763.4117,44.74264 -1767.2999,44.332512 -1771.3698,43.364029 -1775.4401,42.290202 -1779.3906,40.916476 -1782.9081,39.255386 -1786.564,37.85471 -1790,36.052227 -1794.4585,33.616221 -1798.6071,30.619691 -1802.8322,27.77335 -1805.1285,25.93844 -1807.47,23.174419 -1810.185,25.795895 -1813.4109,27.468163 -1817.0353,27.800895 -1820.602,27.375832 -1824.1432,27.022911 -1827.7689,25.812058 -1830.0343,22.924294 -1832.7752,19.853528 -1835.8677,16.857338 -1837.5204,13.056266 -1838.4532,9.7714671 -1838.3336,6.4832116 -1838.3723,3.1141255 -1839.123,-0.31256541 -1838.0447,-3.6852513 -1837.5444,-7.0570656 -1835.8633,-11.436991 -1832.9036,-15.134744 -1829.8569,-18.647493 -1827.6883,-20.285042 -1825.6632,-22.194742 -1822.4871,-23.250183 -1819.1047,-24.662709 -1815.4939,-25.089014 -1811.8613,-25.267964 -1808.3127,-25.463592 -1804.6639,-25.275243 -1801.3553,-23.851847 -1795.7716,-21.748948 -1789.8988,-20.619998 -1784.3961,-18.299597 -1777.5513,-15.912979 -1770.3293,-15.146485 -1763.271,-13.680167 -1759.8485,-13.31416 -1756.8456,-11.472553 -1753.3938,-11.223159 -1750.4833,-10.872081 -1746.9891,-10.120346 -1743.8348,-9.6013893 -1737.3473,-7.8141928 -1730.6563,-6.7904355 -1724.3012,-4.5142678 -1718.8453,-2.9853175 -1713.4235,-1.1402723 -1708.5847,1.8512123 -1704.2178,4.2969717 -1699.4352,5.798851 -1695.0561,8.2201497 -1692.2229,9.4771452 -1690.7084,11.761914 -1688.0491,12.893252 -1684.8933,14.683085 -1681.7809,16.687846 -1678.8233,18.812984 -1676.6382,20.798261 -1673.3578,22.387559 -1672.026,24.816605 -1669.4505,25.750472 -1667.2409,28.561886 -1664.722,30.100047 -1664.0462,30.752605 -1663.2076,31.164402 -1662.5644,31.853654"
           id="path25"
           transform="translate(2006.67, 293.861)"
           inkstitch:running_stitch_tolerance_mm="0.5"
           inkstitch:min_stitch_length_mm="0.5"
           inkstitch:satin_column="False"
           sodipodi:nodetypes="cccccccccccccccccccccccccccccccccccccccccccccccccccccccccccccccccccccccc"
           inkstitch:enable_random_stitch_length="False"
           inkstitch:running_stitch_length_mm="2" />
      </g>
      <g
         id="g27"
         transform="matrix(-0.999705 0.0242904 0.0242904 0.999705 -1297.87 333.616)"
         inkscape:transform-center-x="-82.815753"
         inkscape:transform-center-y="37.924266"
         style="stroke-width:1.80081">
        <path
           style="vector-effect:non-scaling-stroke;fill:none;stroke:#c70200;stroke-width:1.68826;stroke-linejoin:round;stroke-dasharray:none;-inkscape-stroke:hairline"
           d="M -1664.1611,42.024849 C -1664.0158,46.03642 -1667.0095,49.242226 -1668.0472,52.954656 -1669.7228,55.858735 -1669.934,59.677391 -1672.9256,61.685468 -1675.1337,63.95412 -1679.0965,65.497361 -1681.9071,63.471172 -1683.1213,60.86915 -1680.878,57.475566 -1681.3002,54.956656 -1682.6844,57.008074 -1694.8161,59.225922 -1686.9707,49.464729 -1694.4205,55.265601 -1686.2398,59.071894 -1681.7492,56.277624 -1681.7492,56.277624 -1683.649,63.468683 -1680.4619,64.873471 -1677.2217,65.071912 -1673.8695,63.372174 -1671.6977,60.990597 -1671.3435,59.824362 -1673.4349,63.783496 -1673.9929,64.628698 -1676.1061,67.555513 -1676.4128,71.350478 -1678.6988,74.186711 -1680.5711,77.675436 -1683.2129,80.689204 -1685.1363,84.134368 -1686.4788,86.276193 -1689.2105,90.741631 -1691.4199,87.260094 -1694.7607,85.504525 -1698.6335,85.235447 -1702.1288,83.947505 -1705.0283,82.730848 -1706.9226,80.000686 -1709.0776,77.817355 -1711.427,75.212002 -1713.1338,71.987132 -1713.2153,68.412369 -1713.856,64.855089 -1713.582,61.208549 -1713.8009,57.61621 -1713.6301,55.857991 -1713.6538,53.946855 -1713.9007,56.81027 -1713.8627,56.969991 -1714.8219,60.722673 -1714.7186,63.079334 -1714.6153,65.435995 -1713.9857,68.297262 -1713.0299,70.726447 -1712.0668,73.174233 -1710.6669,75.470987 -1709.0245,77.525683 -1707.231,79.769465 -1703.8401,82.028974 -1702.7456,83.42798 -1699.0436,85.534772 -1701.8746,84.087626 -1693.909,86.969418 -1691.3038,87.455818 -1688.1251,88.529024 -1691.7133,90.738823 -1693.4709,93.370565 -1695.2191,92.186143 -1697.2703,90.645996 -1699.011,89.975716 -1701.3827,88.673197 -1701.8863,88.904702 -1704.3029,87.794447 -1703.7444,92.418632 -1704.4228,93.726327 -1707.1779,101.75301 -1720.9604,94.484443 -1718.1464,87.646932 -1726.8123,96.229903 -1757.653,100.73254 -1760.4159,99.961179 -1760.4159,99.961179 -1728.3263,97.526664 -1718.1783,87.748647 -1719.3463,93.315869 -1714.9397,94.705096 -1713.148,96.269409 -1707.248,99.589742 -1703.83,94.061486 -1703.8351,90.96212 -1704.4412,89.603174 -1702.3147,87.270322 -1701.7459,88.61578 -1704.032,87.774234 -1705.4932,88.129794 -1707.6971,85.712674 -1709.7217,83.751755 -1711.976,80.637643 -1715.1111,82.658396 -1716.0711,84.145213 -1716.8051,88.007141 -1719.8661,87.262991 -1725.8135,86.670804 -1729.939,79.767532 -1728.7681,76.852534 -1728.5112,75.200653 -1726.8978,74.16178 -1729.3284,75.409744 -1736.6928,89.968018 -1791.9948,94.771503 -1747.9928,72.861876 -1746.8204,74.802564 -1766.9406,84.222596 -1763.9255,85.72141 -1757.8218,88.755568 -1727.6357,82.167332 -1729.2412,75.255894 -1728.343,74.925681 -1729.0373,75.111684 -1728.1176,75.374163 -1732.466,78.820213 -1722.61,88.586115 -1719.9271,87.428589 -1716.3626,88.400044 -1716.3136,84.252197 -1715.1064,82.727513 -1714.0292,81.619287 -1709.6276,82.919463 -1712.6884,80.941865 -1712.8568,79.456814 -1717.102,75.666002 -1717.1478,75.64368 -1719.0347,74.195749 -1718.6533,73.369128 -1720.0796,72.783405 -1722.6341,73.721994 -1725.4265,74.531716 -1728.1602,74.5217 -1729.7162,74.331747 -1734.045,72.873113 -1733.4607,69.865009 -1730.5502,67.360908 -1736.3794,65.696217 -1733.5625,63.127363 -1730.8613,60.660126 -1726.6842,60.094845 -1723.355,61.480204 -1719.934,62.896027 -1726.0941,60.675059 -1727.3655,61.098797 -1730.2457,60.724568 -1736.6471,63.468797 -1732.8757,66.743205 -1731.6945,68.549766 -1735.5514,71.863756 -1732.3427,73.251033 -1729.9456,74.100386 -1727.3343,75.103137 -1724.7712,74.143007 -1718.4352,73.295159 -1719.7191,72.775403 -1719.2747,70.468699 -1719.3801,69.224371 -1719.393,67.157148 -1719.393,67.157148 L -1719.9218,60.792645 C -1719.9218,60.792645 -1718.7636,54.769937 -1719.0686,54.917194 -1719.3583,58.135855 -1720.1489,61.261422 -1719.8336,64.486487 -1718.8529,67.131046 -1719.8557,69.829613 -1719.6238,72.41538 -1718.193,75.170387 -1715.7282,76.940193 -1713.6569,79.398059 -1705.8926,88.034923 -1706.9204,86.789881 -1698.9967,89.890998 -1697.5713,91.023816 -1691.8091,92.333964 -1695.9165,93.826957 -1698.1473,95.957839 -1701.0682,97.318744 -1703.8435,98.669969 -1709.4372,101.73118 -1715.1793,104.52363 -1721.0142,107.08925 -1727.2146,109.76711 -1733.8114,111.74549 -1740.6224,111.74481 -1746.0119,112.24055 -1751.5882,112.16869 -1756.7071,110.20731 -1761.1468,109.44453 -1765.4672,107.21555 -1770.0715,108.13759 -1771.5699,106.99555 -1769.6054,102.92927 -1772.023,101.27795 -1775.602,99.270476 -1771.2827,96.255373 -1772.794,93.308227 -1774.3413,90.797495 -1777.7076,90.105093 -1777.5225,86.612508 -1778.01,85.112615 -1782.88,82.535798 -1779.3516,84.718066 -1776.6204,86.646363 -1777.4343,90.783694 -1774.0171,92.009173 -1770.3777,94.889924 -1775.486,98.836487 -1772.0303,101.5626 -1770.7223,104.07028 -1769.0941,109.71618 -1773.8529,108.16184 -1777.8306,108.52708 -1781.8229,108.23411 -1785.8014,108.4924 -1783.3351,106.9897 -1777.0046,103.30371 -1782.3865,97.399686 -1779.478,90.313466 -1792.5812,92.06622 -1788.9345,93.209755 -1786.3171,91.681739 -1780.9979,92.187943 -1782.3972,97.323112 -1779.0442,99.155214 -1779.5136,104.89187 -1782.0774,105.48613 -1783.4993,106.12387 -1785.0146,106.68376 -1785.0146,106.68376 -1785.0146,106.68376 -1784.2099,100.999 -1785.594,98.729139 -1786.6944,96.9245 -1791.0053,95.423598 -1791.0053,95.423598 -1791.0053,95.423598 -1786.8248,97.014346 -1785.7423,98.794283 -1784.3694,101.05155 -1785.0167,106.68688 -1785.0167,106.68688 -1787.4924,108.17782 -1787.1112,107.84746 -1789.4414,108.35456 -1792.1413,109.12521 -1794.654,108.43301 -1795.7952,110.32558 -1797.0595,113.32749 -1798.0501,116.89773 -1800.9594,118.88281 -1814.5584,128.79541 -1830.7602,120.5868 -1831.0395,110.08904 -1833.3109,85.163962 -1810.4787,95.60406 -1808.6504,103.77552 -1811.8444,121.70108 -1831.3964,100.35419 -1816.6331,102.82114 -1821.6035,100.35639 -1824.5671,107.51406 -1818.503,109.79336 -1789.301,112.66272 -1833.65,73.779452 -1830.8629,109.73869 -1827.7389,125.87279 -1809.6325,126.26691 -1798.9458,116.58707 -1797.0054,113.6611 -1796.4452,111.95007 -1795.7975,110.17056 -1798.7002,103.79119 -1792.0788,96.340178 -1791.4074,95.528408"
           id="path26"
           inkstitch:running_stitch_tolerance_mm="0.5"
           inkstitch:min_stitch_length_mm="0.5"
           inkstitch:satin_column="False"
           sodipodi:nodetypes="cccccccccccccccccczssccccccccccccccccccsccccccccccccccccccccccccccccccccccccccccccacacccccccccccc"
           inkstitch:enable_random_stitch_length="False"
           inkstitch:running_stitch_length_mm="2" />
        <path
           style="vector-effect:non-scaling-stroke;fill:none;stroke:#c70200;stroke-width:1.68826;stroke-linejoin:round;stroke-dasharray:none;-inkscape-stroke:hairline"
           d="M -1791.2477,95.48144 C -1790.2233,92.023811 -1788.4514,88.798217 -1786.0736,86.103611 -1783.3029,83.846075 -1780.6867,81.382554 -1777.8182,79.220654 -1775.7201,77.31137 -1773.4121,75.63305 -1771.2996,73.750477 -1769.4133,72.46975 -1767.8509,71.357562 -1765.6915,70.039216 -1761.6928,67.550059 -1757.4828,65.460313 -1753.2066,63.484774 -1749.0546,61.812963 -1744.9649,59.980581 -1740.6838,58.664157 -1734.7933,57.141853 -1728.8732,55.751563 -1722.9115,54.561429 -1718.1157,53.667734 -1713.2537,53.09761 -1708.5122,51.900362 -1703.1443,51.075591 -1697.753,50.332682 -1692.3428,49.802226 -1688.488,48.935466 -1684.4532,49.168553 -1680.6597,47.938328 -1675.2993,46.641862 -1669.4428,46.052902 -1664.9298,42.616193 -1662.7218,40.235307 -1665.0026,44.653181 -1665.3438,45.572935 -1666.5202,48.220837 -1666.893,51.148254 -1668.4188,53.674407 -1669.5173,56.209504 -1671.1879,58.430187 -1672.2406,60.994306 -1673.7882,63.965808 -1675.6204,66.76936 -1677.1651,69.747126 -1679.0621,72.917866 -1680.8492,76.156751 -1682.3345,79.533848 -1683.3672,81.468604 -1684.4647,83.491186 -1686.2183,85.075002 -1688.645,87.55378 -1690.9154,90.242832 -1693.907,92.095475 -1698.5073,95.285929 -1703.2789,98.188589 -1707.9407,101.28605 -1711.3121,103.21559 -1715.0325,104.43743 -1718.4075,106.37203 -1721.6889,107.76981 -1725.1424,108.68619 -1728.4997,109.84912 -1731.7943,110.80678 -1735.1812,111.4189 -1738.5811,111.7908 -1740.9796,111.87951 -1743.3873,111.85012 -1745.7705,111.70873 -1747.5223,111.96722 -1748.8698,111.34465 -1750.8843,110.98127 -1753.7475,110.59544 -1756.5475,110.10805 -1759.3621,109.42316 -1762.1154,108.69113 -1764.7992,107.34879 -1767.7332,107.70632 -1771.1086,107.63044 -1774.4561,108.51155 -1777.8442,108.28062 -1780.2759,108.50938 -1782.7318,107.99472 -1784.9755,108.17836 -1788.3486,108.24283 -1792.1638,108.7633 -1795.3931,109.74458 -1797.6392,111.22145 -1796.1945,105.67142 -1796.5054,104.46538 -1796.4042,100.95797 -1793.2129,98.483434 -1791.4303,95.591908 -1789.2496,91.260193 -1786.4568,87.264343 -1782.921,83.89245 -1780.3668,81.396253 -1777.2998,79.458968 -1774.7878,76.891891 -1772.0098,74.172751 -1768.7666,71.986053 -1765.3024,70.243173 -1762.3993,68.798905 -1759.8916,66.714959 -1757.1562,65.008593 -1753.2613,63.104286 -1749.0666,61.957079 -1745.0322,60.393524 -1740.576,58.909233 -1735.8709,58.346192 -1731.4332,56.812769 -1728.1306,55.976772 -1724.8931,54.803193 -1721.4852,54.392897 -1718.51,53.687151 -1715.8792,53.504185 -1713.0838,52.788002 -1708.434,52.137435 -1703.9091,50.822442 -1699.2404,50.270281 -1694.1,49.261974 -1688.8148,49.469905 -1683.6929,48.371029 -1677.5135,47.358545 -1671.2266,45.993465 -1665.736,42.870892 -1665.05,42.690567 -1663.2692,40.747501 -1663.274,41.078687"
           id="path27"
           inkstitch:running_stitch_tolerance_mm="0.5"
           inkstitch:min_stitch_length_mm="0.5"
           inkstitch:satin_column="False"
           sodipodi:nodetypes="cccccccccccccccccccccccccccccccccccccccccccc"
           inkstitch:enable_random_stitch_length="False"
           inkstitch:running_stitch_length_mm="2" />
      </g>
      <path
         style="vector-effect:non-scaling-stroke;fill:none;stroke:#c70200;stroke-width:1.68826;stroke-linejoin:round;stroke-dasharray:none;-inkscape-stroke:hairline"
         d="M 364.27056,335.0344 C 364.76737,335.91683 363.3631,334.35239 363.88449,335.89713 363.09037,338.04291 361.10919,339.77881 360.17039,341.98113 358.56114,343.94878 359.5716,347.16381 356.91477,348.04406 355.9127,349.35798 349.25602,348.56932 348.82674,348.69524 350.93626,349.14002 357.95183,347.49414 358.8147,347.2185 358.17103,350.29907 359.52957,353.62072 358.27101,356.56502 358.02595,356.82344 348.58097,356.90268 348.97043,357.1693 352.05486,356.74791 358.44096,356.84332 358.44096,356.84332 358.44096,356.84332 358.00969,363.83162 357.64639,368.42795 L 350.13915,368.74979 357.4651,368.3906 357.38219,381.43805 350.28976,381.85128 357.40127,381.47087 358.35697,389.21716 350.97533,389.79325 C 350.97533,389.79325 357.00076,389.50958 358.25966,389.50737 L 358.28712,399.88975 350.21742,400.51021 358.47326,399.92803 C 358.47326,399.92803 358.6802,404.57728 359.03067,406.94035 359.46239,408.90548 359.3584,411.68492 359.3584,411.68492 L 349.14828,412.16815 359.46999,411.64639 359.76301,422.77687 349.04514,424.05564 359.7226,422.9201 360.18879,430.08 348.73448,430.70664 360.28569,430.05157 C 360.28569,430.05157 360.71259,434.83436 361.32964,436.38525 361.52598,439.45407 364.25195,448.65535 363.18401,448.70619 L 361.64507,439.29404 C 361.64507,439.29404 359.62749,442.09688 358.16813,442.30498 355.88748,443.86031 351.84049,442.40819 350.01781,440.92718 348.71851,440.62633 346.81013,437.78669 346.59264,438.1174 346.37802,441.54865 344.6875,449.39894 344.6875,449.39894 345.7988,444.98464 346.75979,437.73239 348.31447,432.58812 348.60608,424.25221 348.43271,419.37417 348.78041,412.82055 348.59103,410.39827 348.95039,407.98908 349.0909,405.58334 349.3816,402.36428 349.27722,399.17627 349.14395,395.94123 348.8058,393.87846 349.69392,391.76285 349.58014,389.67322 349.51743,386.79521 349.79659,383.9077 349.68663,381.0413 349.1929,378.44195 350.08779,375.2947 349.65129,372.52588 349.88407,370.25518 349.29219,368.04379 349.38884,365.75475 348.95229,362.5156 348.74414,359.24995 348.81573,355.97921 348.21062,353.75341 348.29111,350.53246 348.23205,348.78064 348.96426,343.69151 348.50424,342.13451 347.11063,338.4498 346.10583,335.57441 343.96898,332.89473 344.46655,329.65794 344.76723,327.26974 345.40042,324.89214 345.04103,322.47453 344.95268,320.69341 346.69744,318.9851 347.16753,317.91347 345.22386,316.81596 342.80492,317.26472 340.60844,316.79577 338.12845,316.57603 336.70681,314.52427 335.89902,312.41371 334.91912,310.21163 335.77062,307.42529 337.03566,305.58692 338.41263,303.89896 340.84093,303.50656 342.95228,303.4614 345.76763,302.28083 347.872,306.86618 350.10883,303.88753 351.71023,302.95846 354.24489,302.20716 355.71529,303.68559 357.80242,305.11645 360.43898,303.17436 362.72186,303.01063 365.48906,302.81773 368.30575,303.83824 370.22602,305.82702 371.0299,308.37643 369.27522,311.21317 367.55191,313.04765 365.91411,314.75696 364.00581,316.34171 362.02344,317.64876 362.43667,319.72091 362.82284,321.74882 363.1328,323.87353 363.44367,326.4882 364.35502,328.94512 364.88933,331.52597 365.11026,333.64314 364.60618,335.66356 363.32441,337.28152 362.32581,339.9375 361.09757,341.59073 360.19986,344.29075 358.8159,346.25416 359.12241,348.75819 358.96928,351.11835 357.78005,356.81559 358.14702,362.61814 357.50671,368.36256 357.61057,371.28342 357.58221,374.20827 357.27953,377.11812 357.18026,379.49143 357.41378,381.94646 357.79025,384.23458 358.63941,387.15588 357.58198,390.22286 358.3105,393.20993 358.7587,397.97499 358.07307,402.79401 359.04102,407.51592 359.39185,409.99475 359.49564,412.49309 359.56429,414.98469 360.54677,419.4266 359.2722,424.02432 360.17872,428.46743 360.58755,431.09904 360.66376,433.79065 361.12576,436.41979 361.5943,438.35452 362.08625,440.2721 359.68743,441.17475 357.96423,442.73159 353.86134,443.71184 351.78376,442.20869 349.7574,441.32123 347.71064,440.12188 346.73295,438.05607 347.3742,435.64268 348.44181,433.34234 348.40278,430.7795 348.48343,430.27841 347.77058,418.78955 348.04361,415.93945 348.22732,412.57109 347.79449,409.1853 348.47847,405.85319 348.97156,402.97367 348.77054,399.87955 349.15978,396.98496 349.0346,394.05949 348.99761,391.29284 349.10706,388.37402 349.6645,386.07526 349.37019,383.70687 349.68663,381.39611 349.49918,379.09633 350.09511,376.77928 349.70824,374.48723 349.72164,371.95226 349.59234,369.45047 349.60717,366.92285 349.36527,364.8711 349.57845,362.77957 349.38318,360.70763 349.28368,358.00569 348.4552,355.39229 348.23944,352.71951 348.60667,350.95426 348.27952,347.66085 348.86734,347.33185 348.16377,344.86211 349.43413,342.25686 347.71308,340.26078 346.79503,337.88282 346.51052,335.35466 345.46569,333.02381 345.00434,333.08878 344.42485,331.73105 344.75607,332.669"
         id="path13"
         inkstitch:satin_column="False"
         inkstitch:running_stitch_tolerance_mm="0.5"
         inkstitch:min_stitch_length_mm="0.5"
         sodipodi:nodetypes="cccccccccccccccccccccccccccccccccccccccccccccccccccccccccccccccccccccccccccccccccccccccccccc"
         inkstitch:enable_random_stitch_length="False"
         inkstitch:running_stitch_length_mm="2" />
    </g>
    <g
       id="g35"
       inkscape:label="decoration"
       transform="matrix(0.509919 0 0 0.509919 -3.2547 -0.566406)"
       style="stroke-width:1.9611">
      <path
         style="font-variation-settings:normal;opacity:1;vector-effect:non-scaling-stroke;fill:none;fill-opacity:1;stroke:#c70200;stroke-width:1.83853;stroke-linecap:butt;stroke-linejoin:round;stroke-miterlimit:4;stroke-dasharray:none;stroke-dashoffset:0;stroke-opacity:1;-inkscape-stroke:hairline;stop-color:#000000;stop-opacity:1"
         d="M 244.94263,505.21851 C 237.79315,518.40257 222.31566,508.32082 219.71964,497.66667 214.51252,482.57087 236.96256,470.75617 247.40249,481.88689 280.37711,535.20959 357.67438,587.86877 446.09683,498.49223 455.24794,490.06493 470.16723,486.63331 481.52515,492.4244 495.18281,498.59318 491.01413,516.9784 480.58696,524.02136 471.25151,534.30263 450.74819,522.63257 459.53626,509.96009 471.80062,500.94946 455.93396,507.86484 455.99244,515.12908 454.15876,531.37942 477.60278,534.74817 485.94424,523.37253 498.72799,512.82863 494.77678,485.55816 475.81755,486.23564 466.7456,488.48509 441.21696,506.05719 450.84664,490.81558 460.2111,480.63732 478.95684,456.69394 493.30712,455.32997 507.6736,452.95493 520.86957,471.74353 507.6529,481.99466 491.70845,489.88748 517.35209,479.52906 512.82647,469.79981 513.63942,455.16669 496.79119,447.76128 484.74207,453.63577 470.17064,456.39315 461.6012,488.1808 448.95067,493.94183 444.47688,485.65967 440.63797,459.82422 427.03603,458.98556 414.31723,452.43088 403.21172,467.67416 409.25372,479.09439 405.75076,478.72093 405.47763,455.80131 419.17857,458.0785 439.38651,458.77123 449.81006,484.9788 440.74752,501.56181 391.59009,579.51729 276.76344,538.14143 258.72056,500.594 255.52191,485.52232 269.76498,472.7045 282.9051,468.60269 298.51732,464.35894 302.42378,485.57717 296.55711,496.05009 299.51141,495.52477 300.76793,474.51057 290.29726,470.76308 275.62585,465.39203 259.78984,480.19522 258.48779,494.60553 250.86591,491.37162 247.14875,468.70915 254.42493,459.1476 254.09142,452.601 278.61418,441.45669 265.75522,449.30096 252.6267,453.82085 245.31505,468.72888 250.93815,481.65738 253.80555,492.35811 254.23752,483.82413 249.19785,480.3662 237.54876,469.36951 214.323,482.62672 221.55184,498.28161 223.55739,510.98186 242.28177,512.36684 244.94263,505.21851 Z"
         id="path29"
         sodipodi:nodetypes="ccccccccccccccccccccccccccccccc" />
      <path
         style="font-variation-settings:normal;opacity:1;vector-effect:non-scaling-stroke;fill:none;fill-opacity:1;stroke:#c70200;stroke-width:1.83853;stroke-linecap:butt;stroke-linejoin:round;stroke-miterlimit:4;stroke-dasharray:none;stroke-dashoffset:0;stroke-opacity:1;-inkscape-stroke:hairline;stop-color:#000000;stop-opacity:1"
         d="M 474.12943,191.88008 C 476.79029,184.73175 495.51467,186.11673 497.52022,198.81698 504.74906,214.47187 481.5233,227.72908 469.87421,216.73239 464.83454,213.27446 465.26651,204.74048 468.13391,215.44121 473.75701,228.36971 466.44536,243.27774 453.31684,247.79763 440.45788,255.6419 464.98064,244.49759 464.64713,237.95099 471.92331,228.38944 468.20615,205.72697 460.58427,202.49306 459.28222,216.90337 443.44621,231.70656 428.7748,226.33551 418.30413,222.58802 419.56065,201.57382 422.51495,201.0485 416.64828,211.52142 420.55474,232.73965 436.16696,228.4959 449.30708,224.39409 463.55015,211.57627 460.3515,196.50459 442.30862,158.95716 327.48197,117.5813 278.32454,195.53678 269.262,212.11979 279.68555,238.32736 299.89349,239.02009 313.59443,241.29728 313.3213,218.37766 309.81834,218.0042 315.86034,229.42443 304.75483,244.66771 292.03603,238.11303 278.43409,237.27437 274.59518,211.43892 270.12139,203.15676 257.47086,208.91779 248.90142,240.70544 234.32999,243.46282 222.28087,249.33731 205.43264,241.9319 206.24559,227.29878 201.71997,217.56953 227.36361,207.21111 211.41916,215.10393 198.20249,225.35506 211.39846,244.14366 225.76494,241.76862 240.11522,240.40465 258.86096,216.46127 268.22542,206.28301 277.8551,191.0414 252.32646,208.6135 243.25451,210.86295 224.29528,211.54043 220.34407,184.26996 233.12782,173.72606 241.46928,162.35042 264.9133,165.71917 263.07962,181.96951 263.1381,189.23375 247.27144,196.14913 259.5358,187.1385 268.32387,174.46602 247.82055,162.79596 238.4851,173.07723 228.05793,180.12019 223.88925,198.50541 237.54691,204.67419 248.90483,210.46528 263.82412,207.03366 272.97523,198.60636 361.39768,109.22982 438.69495,161.889 471.66957,215.2117 482.1095,226.34242 504.55954,214.52772 499.35242,199.43192 496.7564,188.77777 481.27891,178.69602 474.12943,191.88008 Z"
         id="path30"
         sodipodi:nodetypes="ccccccccccccccccccccccccccccccc" />
    </g>
  </g>
  <g
     inkscape:groupmode="layer"
     id="layer1"
     inkscape:label="Satin borders and lettering position"
     inkscape:highlight-color="#3e3be3">
    <path
       id="path113"
       style="display:inline;fill:none;stroke:#c70200;stroke-width:0.9375px"
       d="M 174.81808,53.021834 172.47058,53.065896 167.80933,53.329334 163.18558,53.764334 158.6012,54.369021 154.06276,55.140584 149.57214,56.076209 145.13402,57.174021 140.7512,58.430271 136.42839,59.844021 132.16933,61.411521 127.9787,63.130896 123.85839,64.998396 119.81402,67.013083 115.84839,69.170271 111.9662,71.469958 108.17027,73.907458 104.4662,76.480895 100.85589,79.188395 97.344957,82.026208 93.936207,84.99152 90.634332,88.083395 87.442145,91.297145 84.364333,94.63277 81.403708,98.085582 78.565895,101.65277 75.85277,105.33339 73.269958,109.12464 70.820271,113.02277 68.507458,117.02589 66.336208,121.1312 64.309333,125.33777 62.431521,129.64089 60.715896,134.01245 59.175583,138.4187 57.807771,142.85777 56.612458,147.32402 55.587771,151.81276 54.733709,156.31933 54.049334,160.83995 53.533709,165.36995 53.184959,169.90464 53.004021,174.43933 52.988084,178.96933 53.137146,183.48995 53.450271,187.99745 53.926521,192.48714 54.564959,196.95433 55.364646,201.39339 56.324646,205.80058 57.444021,210.1712 58.721833,214.50151 60.158083,218.78589 61.749958,223.01964 63.498396,227.19901 65.401521,231.31839 67.458396,235.37495 69.669021,239.36214 72.030583,243.27714 74.544958,247.11432 77.208395,250.86901 80.021833,254.53745 82.984333,258.11495 86.094958,261.59682 89.351832,264.97932 92.733395,268.2362 96.21527,271.34682 99.793703,274.30839 103.46214,277.12276 107.21683,279.7862 111.05402,282.29964 114.96808,284.66214 118.9562,286.87276 123.01183,288.92964 127.13214,290.83276 131.31152,292.5812 135.54527,294.17307 139.82964,295.60932 144.15902,296.88714 148.53058,298.00651 152.93776,298.96651 157.37683,299.7662 161.84401,300.40464 166.33276,300.88089 170.84026,301.19401 175.36183,301.34307 179.56089,301.32807 179.89183,301.32714 184.42651,301.14526 188.9612,300.79745 193.49026,300.28089 198.01089,299.59651 202.51839,298.74339 207.00714,297.7187 211.47339,296.52339 215.91151,295.15557 220.3187,293.61432 224.69026,291.89964 228.99339,290.02182 233.19901,287.99495 237.30526,285.82276 241.30839,283.51089 245.20651,281.0612 248.99776,278.47745 252.67745,275.76526 256.24557,272.92651 259.69839,269.96682 263.03307,266.88901 266.24776,263.69682 269.33964,260.39495 272.30495,256.9862 275.14276,253.47432 277.85026,249.86495 280.4237,246.15995 282.8612,242.36495 285.15995,238.48276 287.31807,234.51714 289.33276,230.47276 291.20026,226.35245 292.91964,222.16089 294.48714,217.90276 295.89995,213.57995 297.15714,209.19714 298.25495,204.75901 299.19057,200.26839 299.96214,195.72901 300.56682,191.14558 301.00182,186.52183 301.26432,181.85964 301.35245,177.17589 301.19964,171.00714 300.74495,164.89089 299.9912,158.8262 298.94401,152.82433 297.60714,146.89464 295.98432,141.04745 294.08026,135.29308 291.89964,129.64089 289.44526,124.10214 286.72276,118.68714 283.73495,113.40527 280.48745,108.26683 276.98401,103.28214 273.22839,98.46152 269.22526,93.814332 264.97839,89.351832 260.51589,85.104958 255.86964,81.101833 251.04901,77.347145 246.06432,73.843708 240.92589,70.596208 235.64401,67.608396 230.22807,64.885896 224.68933,62.431521 219.03808,60.250896 213.2837,58.346833 207.43558,56.724021 201.50589,55.387146 195.50401,54.339959 189.44026,53.586209 183.32401,53.131521 177.15526,52.978709 Z M 174.68495,45.937146 172.27089,45.982146 172.13776,45.986834 167.34433,46.257771 167.21214,46.267146 162.45526,46.715271 162.32401,46.730271 157.60933,47.351834 157.47901,47.371521 152.81026,48.164646 152.68089,48.189021 148.06183,49.151834 147.93433,49.180896 143.3687,50.309646 143.24308,50.343396 138.73464,51.636209 138.61089,51.674646 134.16433,53.128709 134.04152,53.170896 129.66152,54.783396 129.54058,54.830271 125.22902,56.598396 125.11089,56.649958 120.87339,58.570896 120.75714,58.626208 116.59745,60.698083 116.48308,60.757146 112.40402,62.977146 112.29245,63.039958 108.29964,65.405271 108.19089,65.471833 104.28714,67.979646 104.18027,68.050896 100.37027,70.697458 100.2662,70.773396 96.553707,73.556833 96.45152,73.635583 92.84027,76.554958 92.741832,76.637458 89.235582,79.688083 89.139957,79.774333 85.743395,82.954333 85.65152,83.044333 82.367458,86.349958 82.278395,86.443708 79.112458,89.87402 79.026208,89.970582 75.981208,93.521832 75.898708,93.622145 72.979333,97.292457 72.899645,97.39652 70.109646,101.18214 70.033708,101.28902 67.376833,105.18808 67.304646,105.29777 64.784646,109.30745 64.717146,109.42089 62.338708,113.53839 62.274021,113.6537 60.040896,117.87714 59.980896,117.99527 57.896833,122.32089 57.840583,122.44183 55.909334,126.86777 55.858709,126.99058 54.095271,131.48589 54.048396,131.61058 52.464021,136.14245 52.422771,136.26902 51.015584,140.83464 50.979021,140.9612 49.749959,145.55495 49.718084,145.68339 48.664334,150.30058 48.637146,150.42901 47.758709,155.06495 47.737146,155.19433 47.033084,159.84433 47.016209,159.9737 46.485584,164.63308 46.472459,164.76245 46.114334,169.42651 46.106834,169.55589 45.920271,174.21995 45.917459,174.34933 45.900584,179.0087 45.903396,179.13808 46.056209,183.78808 46.062771,183.91745 46.385271,188.55339 46.396521,188.68089 46.885896,193.29901 46.901834,193.42651 47.558084,198.02026 47.578709,198.14683 48.400896,202.71245 48.426209,202.83901 49.413396,207.37183 49.443396,207.49651 50.594646,211.99183 50.629334,212.11651 51.943709,216.56964 51.982146,216.69245 53.458709,221.0987 53.501834,221.21964 55.139646,225.57433 55.187459,225.69526 56.985583,229.9937 57.038083,230.11182 58.995583,234.34932 59.051833,234.46651 61.167771,238.63839 61.228708,238.7537 63.502146,242.85526 63.567771,242.96776 65.997771,246.99432 66.067146,247.10495 68.652771,251.05182 68.726833,251.16057 71.467146,255.02307 71.544958,255.12995 74.43902,258.90245 74.52152,259.00651 77.568395,262.6862 77.654645,262.78651 80.853395,266.36776 80.944333,266.46526 84.29402,269.94339 84.38777,270.03714 87.865895,273.38682 87.963395,273.47682 91.544645,276.67557 91.644957,276.76276 95.324645,279.80964 95.42777,279.89214 99.201203,282.78526 99.307143,282.86401 103.16964,285.60432 103.27839,285.67839 107.22527,288.26401 107.33683,288.33339 111.36339,290.76339 111.47589,290.82901 115.57745,293.10245 115.69277,293.16339 119.86464,295.27932 119.98089,295.33557 124.21933,297.29307 124.33745,297.34557 128.63589,299.1437 128.75589,299.19151 133.11058,300.82932 133.23245,300.87245 137.6387,302.34901 137.76152,302.38745 142.21464,303.70182 142.33839,303.73651 146.83464,304.88776 146.95933,304.91682 151.49214,305.90495 151.61776,305.92932 156.18433,306.75245 156.31089,306.77213 160.90464,307.42932 161.03214,307.44526 165.64933,307.93463 165.77776,307.94588 170.4137,308.26838 170.54214,308.27495 175.19308,308.42776 175.32151,308.42963 179.58526,308.41463 179.98089,308.4137 180.11026,308.41088 184.77526,308.22432 184.90464,308.21682 189.5687,307.85776 189.69808,307.84557 194.35745,307.31495 194.48683,307.29807 199.13683,306.59401 199.2662,306.57151 203.90214,305.69307 204.03058,305.66682 208.64776,304.61307 208.77526,304.5812 213.36901,303.35214 213.49651,303.31557 218.06214,301.90839 218.18776,301.86714 222.72058,300.28182 222.84526,300.23589 227.34058,298.47245 227.46339,298.42089 231.88932,296.48964 232.01026,296.43432 236.33589,294.35026 236.45401,294.29026 240.67651,292.05714 240.79276,291.99245 244.91026,289.61401 245.0237,289.54557 249.03339,287.02557 249.14307,286.95432 253.04214,284.29745 253.14901,284.22151 256.93464,281.43151 257.0387,281.35182 260.70807,278.43245 260.80839,278.34901 264.36057,275.30495 264.45714,275.2187 267.88745,272.05276 267.9812,271.96276 271.28682,268.67964 271.37682,268.58682 274.55682,265.19026 274.64307,265.09464 277.6937,261.58932 277.7762,261.48995 280.69464,257.8787 280.77339,257.77745 283.55776,254.06495 283.6337,253.96089 286.28026,250.15089 286.35151,250.04401 288.85839,246.14026 288.92589,246.03151 291.29026,242.03776 291.35401,241.9262 293.57307,237.84807 293.63307,237.7337 295.70495,233.57401 295.76026,233.45776 297.6812,229.22026 297.73276,229.1012 299.50089,224.79058 299.54776,224.66964 301.15932,220.28964 301.20245,220.16683 302.65651,215.72026 302.69401,215.59558 303.98682,211.08808 304.02057,210.96245 305.15026,206.39683 305.17932,206.26839 306.1412,201.64933 306.16557,201.52089 306.95963,196.8512 306.97932,196.72089 307.60088,192.00714 307.61588,191.87495 308.06307,187.11901 308.07338,186.98683 308.34338,182.19245 308.34901,182.06026 308.43901,177.23214 V 177.07745 L 308.28151,170.7437 308.27307,170.56839 307.80526,164.27776 307.78838,164.10433 307.01307,157.8662 306.98776,157.69464 305.91057,151.5212 305.87589,151.35058 304.50057,145.2512 304.45839,145.08339 302.78964,139.06933 302.73995,138.90339 300.78151,132.98495 300.72245,132.82183 298.47901,127.00933 298.41339,126.84902 295.88964,121.15277 295.81557,120.9962 293.01526,115.42652 292.9337,115.2737 289.86057,109.84089 289.77151,109.69183 286.4312,104.40714 286.33557,104.26277 282.73182,99.135583 282.62776,98.995893 278.76526,94.037457 278.65464,93.902457 274.53714,89.123082 274.41995,88.99277 270.05214,84.40277 269.92745,84.27902 265.33839,79.911208 265.20807,79.79402 260.4287,75.67652 260.2937,75.565895 255.33526,71.702458 255.19557,71.599333 250.06839,67.995583 249.92401,67.899021 244.63839,64.558708 244.49026,64.469646 239.05745,61.397458 238.90464,61.315896 233.33495,58.515583 233.17839,58.441521 227.4812,55.917771 227.32183,55.851209 221.50839,53.607771 221.3462,53.549646 215.42683,51.591209 215.26183,51.540584 209.24776,49.871834 209.07901,49.829646 202.98058,48.454334 202.80995,48.420584 196.63651,47.343396 196.46401,47.318084 190.22683,46.542771 190.05339,46.525896 183.76183,46.057146 183.58745,46.048709 177.2537,45.892146 177.09901,45.891209 Z M 149.99964,48.024021 151.73495,56.349021 M 122.48308,57.062458 125.99495,64.808083 M 94.32527,74.443708 99.670893,81.05777 M 73.911208,94.982457 80.56652,100.27652 M 58.469646,119.49902 66.130896,123.19089 M 49.764959,142.75745 57.979333,144.95589 M 45.573396,167.22245 54.052146,167.87401 M 47.242146,200.27401 55.611209,198.76651 M 55.405896,228.05308 63.250896,224.77183 M 69.440271,253.39182 76.375895,248.47089 M 85.631833,272.2187 91.530582,266.09401 M 105.05402,287.68839 109.71339,280.57464 M 130.90183,300.75526 133.89527,292.79589 M 163.10214,308.37713 163.99933,299.92089 M 179.55901,300.61932 179.58808,309.12338 M 192.06058,308.28995 191.09776,299.84026 M 216.35214,303.17682 213.84808,295.04964 M 242.9162,291.5837 238.66276,284.22057 M 263.1812,277.24932 257.6462,270.79276 M 285.37276,252.69901 278.38932,247.84651 M 299.24401,227.28339 291.37557,224.05745 M 307.23807,199.44339 298.85401,198.01839 M 309.08776,174.65683 300.58651,174.86683 M 308.6762,166.43401 300.19557,167.06495 M 307.07776,154.08714 298.70026,155.5487 M 304.32432,141.94839 296.12964,144.22183 M 300.4412,130.1237 292.50714,133.18558 M 295.46214,118.71714 287.86464,122.53745 M 291.58839,111.45527 284.18589,115.64214 M 284.88526,100.96745 277.92807,105.85745 M 277.22307,91.154645 270.78057,96.705582 M 268.6712,82.104958 262.80901,88.26527 M 262.56526,76.581208 257.01526,83.024645 M 252.70464,68.981833 247.8137,75.93902 M 242.1737,62.346208 237.98682,69.747771 M 231.0662,56.730583 227.62183,64.506208 M 219.48058,52.185584 216.8087,60.259333 M 211.60558,49.791209 209.33214,57.984958 M 199.44995,47.114646 197.98745,55.492146 M 187.0937,45.594959 186.46276,54.075584"
       inkstitch:satin_column="True"
       inkstitch:center_walk_underlay="True" />
    <path
       id="path7"
       style="display:none;fill:none;stroke:#c70200;stroke-width:1.41732;stroke-linejoin:round"
       inkscape:label="batch lettering"
       d="M 177.16535,310.10046 C 103.74732,310.10046 44.230241,250.58338 44.230241,177.16535 44.230245,103.74732 103.74732,44.230245 177.16535,44.230241 250.58338,44.230241 310.10046,103.74732 310.10046,177.16535 310.10046,250.58339 250.58339,310.10046 177.16535,310.10046"
       sodipodi:nodetypes="csssc" />
    <path
       id="path7928"
       style="display:inline;fill:none;stroke:#c70200;stroke-width:0.937503px"
       d="M 173.73311,7.1212639 170.52327,7.1817939 164.14852,7.5412939 157.82422,8.1364939 151.55586,8.9637134 145.34803,10.018373 139.20622,11.298643 133.13596,12.799933 127.14181,14.518573 121.2302,16.451813 115.40571,18.595073 109.67385,20.946503 104.0392,23.500623 98.507273,26.255583 93.084473,29.206803 87.774483,32.351533 82.583713,35.685183 77.517663,39.205003 72.580933,42.906403 67.779003,46.787563 63.117403,50.843883 58.600693,55.071703 54.235313,59.468273 50.025833,64.028993 45.976853,68.751133 42.095693,73.631003 38.385113,78.664953 34.852453,83.849303 31.502303,89.180393 28.339233,94.655463 25.369673,100.27085 22.597283,106.02288 20.029413,111.9079 17.683473,117.88554 15.576903,123.9127 13.706023,129.98389 12.070843,136.09176 10.670433,142.23081 9.5020534,148.39462 8.5666139,154.57769 7.8604439,160.77269 7.3844739,166.9741 7.1359339,173.17551 7.1139239,179.37142 7.3184439,185.55449 7.7458039,191.71922 8.3978639,197.85919 9.2709434,203.96798 10.364123,210.03916 11.677403,216.06633 13.208043,222.04397 14.956023,227.96567 16.919533,233.825 19.097643,239.61556 21.488513,245.33182 24.091233,250.96647 26.904893,256.51308 29.927643,261.96706 33.158573,267.32107 36.595863,272.5687 40.239483,277.70445 44.087633,282.72189 48.138443,287.6146 52.391943,292.37617 56.846293,297.0011 61.472123,301.45636 66.233693,305.70894 71.126413,309.76067 76.143853,313.60881 81.279603,317.25244 86.527233,320.68972 91.881243,323.92066 97.334303,326.94341 102.88183,329.75707 108.51647,332.35979 114.23183,334.75066 120.02238,336.92877 125.88171,338.89227 131.80341,340.63934 137.78105,342.1709 143.80914,343.48418 149.88032,344.57736 155.98911,345.45044 162.12907,346.10158 168.29289,346.52986 174.47688,346.73346 180.19865,346.7142 180.67187,346.71236 186.8742,346.46383 193.07561,345.98786 199.27061,345.28169 205.45368,344.34534 211.61749,343.17787 217.75654,341.77746 223.86441,340.14228 229.93468,338.2714 235.96184,336.16391 241.93948,333.81889 247.82541,331.2501 253.57745,328.47863 259.19284,325.50907 264.66791,322.346 269.999,318.99584 275.18335,315.46227 280.2173,311.75261 285.09717,307.87145 289.81839,303.82247 294.38003,299.61299 298.77568,295.24761 303.00442,290.7309 307.05982,286.06929 310.94098,281.26737 314.6433,276.33064 318.16312,271.26367 321.49677,266.07382 324.6415,260.76382 327.59272,255.34103 330.34676,249.80909 332.90179,244.17445 335.25232,238.44259 337.39649,232.6181 339.32973,226.70557 341.04837,220.71234 342.54966,214.64207 343.82993,208.50027 344.88459,202.29244 345.71181,196.02408 346.30609,189.69977 346.66559,183.32503 346.78665,176.91452 346.57755,168.48181 345.95484,160.11696 344.92494,151.82365 343.49244,143.61471 341.66374,135.50482 339.44437,127.50773 336.84073,119.63811 333.85741,111.9079 330.50175,104.33359 326.77742,96.927113 322.69267,89.703133 318.25116,82.675423 313.45933,75.858633 308.32267,69.265623 302.84851,62.910133 297.04053,56.807773 290.93725,50.999793 284.58268,45.524723 277.98967,40.388973 271.17288,35.597143 264.14516,31.155633 256.92119,27.069963 249.51471,23.346553 241.93948,19.989973 234.21018,17.007573 226.33965,14.403013 218.34256,12.183643 210.23359,10.354943 202.02465,8.9233634 193.73134,7.8925439 185.36649,7.2707539 176.93378,7.0616539 Z M 173.6038,0.1907539 170.32793,0.2522039 170.1977,0.2567839 163.69364,0.6236239 163.56433,0.6337139 157.11072,1.2408339 156.98232,1.2555039 150.58557,2.0992339 150.45718,2.1184939 144.12278,3.1951639 143.99622,3.2190139 137.72878,4.5249639 137.60405,4.5533939 131.40998,6.0849439 131.28617,6.1179539 125.17005,7.8723639 125.04807,7.9099639 119.01541,9.8826434 118.89527,9.9239134 112.95156,12.111193 112.83325,12.157043 106.984,14.556173 106.86845,14.606613 101.11917,17.213003 101.00453,17.267113 95.360713,20.078013 95.248823,20.136713 89.715063,23.147543 89.605923,23.209903 84.187713,26.417913 84.081333,26.483943 78.785093,29.886373 78.680543,29.956073 73.510863,33.547423 73.409073,33.620793 68.371453,37.398313 68.272403,37.475353 63.372353,41.435383 63.276063,41.517003 58.519073,45.655863 58.425533,45.740233 53.817113,50.054263 53.726323,50.142303 49.271063,54.628743 49.183943,54.719533 44.888253,59.373803 44.803883,59.469183 40.672353,64.287613 40.591653,64.385743 36.630713,69.365583 36.552753,69.466463 32.766973,74.603123 32.692693,74.707673 29.087583,79.998413 29.016963,80.105713 25.598023,85.546853 25.531993,85.656903 22.303813,91.243863 22.241453,91.357583 19.211363,97.086693 19.152663,97.203163 16.324333,103.07166 16.270223,103.18997 13.649163,109.19512 13.599643,109.31526 11.206933,115.41488 11.161073,115.53685 9.0114034,121.68599 8.9701334,121.8098 7.0616539,128.00388 7.0258839,128.1286 5.3576839,134.3612 5.3265039,134.48684 3.8967539,140.75153 3.8710739,140.87717 2.6788439,147.16755 2.6577539,147.29319 1.7021339,153.60282 1.6856239,153.72938 0.9657039,160.05093 0.9537839,160.17841 0.4668039,166.50638 0.4594639,166.63294 0.2063539,172.96183 0.2035939,173.08839 0.1815839,179.41086 0.1834239,179.5365 0.3916039,185.84613 0.3980239,185.97177 0.8345639,192.26214 0.8455639,192.38779 1.5104639,198.65248 1.5260539,198.77721 2.4165539,205.01072 2.4367339,205.13453 3.5528339,211.32952 3.5776039,211.45333 4.9165639,217.60338 4.9459139,217.72627 6.5086439,223.82497 6.5416539,223.94695 8.3254139,229.98878 8.3630139,230.10892 10.366873,236.08748 10.409053,236.2067 12.631183,242.11556 12.677953,242.23295 15.117433,248.06569 15.168793,248.18125 17.824713,253.93053 17.879733,254.04517 20.751163,259.70549 20.810773,259.8183 23.894973,265.38324 23.959173,265.49421 27.256143,270.95736 27.324003,271.0665 30.831903,276.42143 30.904353,276.52781 34.623183,281.76811 34.699303,281.87174 38.626313,286.99189 38.707013,287.09277 42.840373,292.08545 42.925663,292.1845 47.265373,297.04328 47.353413,297.13866 51.898543,301.85713 51.990253,301.94975 56.709643,306.49397 56.805023,306.58293 61.663803,310.92264 61.762843,311.00701 66.754613,315.14128 66.856403,315.22199 71.975643,319.149 72.080193,319.22512 77.320493,322.94303 77.426873,323.01548 82.781803,326.5243 82.890943,326.59216 88.354093,329.88913 88.464143,329.95332 94.030003,333.03752 94.141893,333.09713 99.803133,335.96857 99.916853,336.02359 105.66705,338.67951 105.78261,338.73086 111.61535,341.17034 111.73273,341.21712 117.64159,343.43924 117.7599,343.48143 123.73937,345.48529 123.8586,345.52289 129.90135,347.30664 130.02241,347.33966 136.12202,348.90239 136.24492,348.93082 142.39497,350.2707 142.51786,350.29546 148.71286,351.41157 148.83758,351.43175 155.07018,352.32225 155.1949,352.33784 161.46051,353.00182 161.58524,353.01282 167.87561,353.45028 168.00217,353.4567 174.31088,353.66488 174.43744,353.66671 180.22249,353.64654 180.75991,353.6447 180.88647,353.64195 187.21444,353.38792 187.34192,353.38058 193.66989,352.89452 193.79645,352.8826 200.11892,352.16267 200.24548,352.14525 206.55419,351.19055 206.68075,351.16854 212.97112,349.97723 213.09677,349.95064 219.36146,348.5218 219.4871,348.49062 225.7197,346.8215 225.8435,346.78573 232.0385,344.87725 232.16139,344.8369 238.31144,342.68631 238.43342,342.64137 244.53303,340.24866 244.65317,340.19822 250.65741,337.57807 250.77572,337.52396 256.64514,334.69564 256.76069,334.63694 262.49072,331.60685 262.60444,331.54357 268.1914,328.31631 268.30145,328.24936 273.74167,324.83042 273.84989,324.76072 279.13971,321.15561 279.24426,321.08132 284.38184,317.29555 284.48272,317.21759 289.46256,313.25665 289.56069,313.17503 294.37912,309.04442 294.47358,308.96005 299.12785,304.66436 299.21956,304.57632 303.706,300.12198 303.79404,300.03119 308.10806,295.42277 308.19244,295.32923 312.3313,290.57224 312.412,290.47595 316.37203,285.5759 316.44998,285.47685 320.22751,280.43923 320.30088,280.33743 323.89223,275.16776 323.96193,275.06321 327.36344,269.76697 327.42947,269.65967 330.6384,264.24237 330.69984,264.13324 333.71159,258.59947 333.77029,258.48759 336.58027,252.84285 336.63438,252.72913 339.24169,246.97985 339.29121,246.86338 341.69034,241.01413 341.73619,240.89674 343.92439,234.95303 343.96566,234.83289 345.93834,228.80023 345.97594,228.67825 347.72943,222.56213 347.76244,222.43832 349.29491,216.24424 349.32334,216.1186 350.62929,209.85116 350.65313,209.72551 351.72981,203.39021 351.74906,203.26273 352.59279,196.86597 352.60747,196.73758 353.21459,190.28397 353.22467,190.15465 353.59151,183.64968 353.5961,183.52037 353.71899,176.96954 V 176.81822 L 353.50531,168.2241 353.49705,168.05352 352.86242,159.5181 352.845,159.34752 351.794,150.88454 351.76924,150.7158 350.30739,142.33994 350.27437,142.17303 348.40808,133.89714 348.36681,133.73298 346.1025,125.57265 346.05297,125.41124 343.39614,117.38022 343.33836,117.22064 340.29452,109.33361 340.23032,109.1777 336.80496,101.44749 336.73343,101.29525 332.93298,93.737453 332.85319,93.587963 328.68498,86.216333 328.59786,86.071433 324.06556,78.899733 323.9711,78.758493 319.08205,71.802313 318.98026,71.665663 313.73904,64.937833 313.63083,64.805773 308.04478,58.320983 307.92923,58.193503 302.00295,51.966413 301.88189,51.844433 295.65388,45.918153 295.52732,45.803513 289.04253,40.216563 288.91046,40.108343 282.18264,34.868043 282.04599,34.766253 275.08889,29.877203 274.94765,29.782743 267.77687,25.250443 267.63105,25.163323 260.26034,20.994193 260.11085,20.914403 252.55305,17.114873 252.3999,17.042423 244.6706,13.617983 244.51469,13.552863 236.62765,10.509023 236.46808,10.452163 228.43706,7.7953339 228.27473,7.7458039 220.11531,5.4814939 219.95024,5.4402239 211.67527,3.5739339 211.50835,3.5409139 203.1325,2.0790639 202.96376,2.0543039 194.50078,1.0023839 194.3302,0.9858839 185.79478,0.3512539 185.62328,0.3420739 177.03007,0.1293139 H 176.87875 Z M 140.41312,3.2575339 142.10975,11.401353 M 103.41466,15.411823 106.84919,22.987963 M 65.555043,38.780383 70.784333,45.249593 M 38.104483,66.397853 44.614963,71.576703 M 17.344153,99.359253 24.837753,102.97078 M 5.6374039,130.63411 13.673923,132.78562 M 3.8983356e-6,163.53682 8.2942339,164.1742 M 2.2441439,207.97386 10.431073,206.49917 M 13.221793,245.32907 20.896063,242.11923 M 32.091993,279.39924 38.876683,274.5854 M 53.864803,304.71664 59.635183,298.72432 M 79.981903,325.51824 84.540793,318.56022 M 114.73806,343.08799 117.66636,335.30184 M 158.03148,353.33564 158.90915,345.06342 M 180.19681,346.02087 180.22524,354.33986 M 196.97144,353.21825 196.02958,344.95337 M 229.64029,346.34186 227.19072,338.39154 M 265.35206,330.75762 261.19028,323.55382 M 292.60453,311.4784 287.18999,305.16326 M 322.44046,278.47206 315.609,273.72516 M 341.09423,244.2955 333.39703,241.13885 M 351.84261,206.86234 343.64192,205.46835 M 354.33069,173.5396 346.01445,173.74595 M 353.77677,162.4629 345.4807,163.0801 M 351.62617,145.86802 343.43191,147.29777 M 347.92569,129.55102 339.90934,131.7759 M 342.70648,113.65589 334.94509,116.65113 M 336.01442,98.322933 328.58227,102.06011 M 330.79522,88.539343 323.55382,92.635103 M 321.78474,74.441723 314.97804,79.225303 M 311.48573,61.252943 305.18344,66.683073 M 299.99175,49.088563 294.25714,55.115723 M 291.7663,41.648143 286.33617,47.951363 M 278.5115,31.434433 273.72791,38.240213 M 264.3561,22.514743 260.26126,29.756143 M 249.42575,14.967033 246.05633,22.572523 M 233.8516,8.8564134 231.23879,16.754453 M 223.24353,5.6300639 221.01865,13.646413 M 206.90269,2.0332039 205.47294,10.228393 M 190.29497,-0.0091661 189.67777,8.2868939"
       inkstitch:satin_column="True"
       inkstitch:center_walk_underlay="True" />
  </g>
</svg>
