<?xml version="1.0" encoding="UTF-8" standalone="no"?>
<!-- Created with Inkscape (http://www.inkscape.org/) -->

<svg
   width="103.28856mm"
   height="100.00031mm"
   viewBox="0 0 103.28856 100.00031"
   version="1.1"
   id="svg8"
   inkscape:version="1.4 (e7c3feb100, 2024-10-09)"
   sodipodi:docname="bean-stitch.svg"
   xmlns:inkscape="http://www.inkscape.org/namespaces/inkscape"
   xmlns:sodipodi="http://sodipodi.sourceforge.net/DTD/sodipodi-0.dtd"
   xmlns="http://www.w3.org/2000/svg"
   xmlns:svg="http://www.w3.org/2000/svg"
   xmlns:rdf="http://www.w3.org/1999/02/22-rdf-syntax-ns#"
   xmlns:cc="http://creativecommons.org/ns#"
   xmlns:dc="http://purl.org/dc/elements/1.1/"
   xmlns:inkstitch="http://inkstitch.org/namespace">
  <sodipodi:namedview
     id="base"
     pagecolor="#ffffff"
     bordercolor="#666666"
     borderopacity="1.0"
     inkscape:pageopacity="0.0"
     inkscape:pageshadow="2"
     inkscape:zoom="2.8"
     inkscape:cx="151.78571"
     inkscape:cy="88.392857"
     inkscape:document-units="mm"
     inkscape:current-layer="layer1"
     showgrid="false"
     inkscape:snap-global="false"
     inkscape:window-width="1920"
     inkscape:window-height="1131"
     inkscape:window-x="0"
     inkscape:window-y="32"
     inkscape:window-maximized="1"
     showguides="true"
     inkscape:guide-bbox="true"
     fit-margin-top="5"
     fit-margin-left="5"
     fit-margin-bottom="5"
     fit-margin-right="5"
     inkscape:showpageshadow="2"
     inkscape:pagecheckerboard="0"
     inkscape:deskcolor="#d1d1d1" />
  <defs
     id="defs2" />
  <metadata
     id="metadata5">
    <rdf:RDF>
      <cc:Work
         rdf:about="">
        <dc:format>image/svg+xml</dc:format>
        <dc:type
           rdf:resource="http://purl.org/dc/dcmitype/StillImage" />
        <cc:license
           rdf:resource="http://creativecommons.org/publicdomain/zero/1.0/" />
      </cc:Work>
      <cc:License
         rdf:about="http://creativecommons.org/publicdomain/zero/1.0/">
        <cc:permits
           rdf:resource="http://creativecommons.org/ns#Reproduction" />
        <cc:permits
           rdf:resource="http://creativecommons.org/ns#Distribution" />
        <cc:permits
           rdf:resource="http://creativecommons.org/ns#DerivativeWorks" />
      </cc:License>
    </rdf:RDF>
    <inkstitch:min_stitch_len_mm>0.3</inkstitch:min_stitch_len_mm>
    <inkstitch:collapse_len_mm>3.0</inkstitch:collapse_len_mm>
    <inkstitch:inkstitch_svg_version>3</inkstitch:inkstitch_svg_version>
  </metadata>
  <g
     id="layer1"
     inkscape:groupmode="layer"
     inkscape:label="Bean Stitch Example"
     transform="translate(-5.4309, -43.1875)">
    <g
       inkscape:label="dog"
       id="g4867">
      <path
         style="fill:none;fill-rule:evenodd;stroke:#000000;stroke-width:0.12;stroke-linecap:butt;stroke-linejoin:miter;stroke-miterlimit:4;stroke-dasharray:0.12, 0.12;stroke-dashoffset:0;stroke-opacity:1"
         d="m 29.04061,54.485613 c -0.09952,-0.01748 -0.02555,-0.142769 0.02905,-0.165392 0.147964,-0.06127 0.283467,0.08817 0.301754,0.223482 0.03272,0.242034 -0.191199,0.430111 -0.41792,0.438118 -0.332723,0.01175 -0.579544,-0.295063 -0.574476,-0.612358 0.0068,-0.422906 0.46889,-0.596894 0.876539,-0.577653 0.512984,0.02421 0.881155,0.503326 0.847196,1.001238 -0.04113,0.603037 -0.561053,1.121336 -1.149181,1.072345 -0.693093,-0.05773 -1.083398,-0.519422 -1.019177,-1.197742 0.07414,-0.783145 0.816065,-1.335854 1.584556,-1.256274 0.873207,0.09042 1.487666,0.92035 1.392633,1.778999 -0.106612,0.963271 -0.966848,1.533854 -1.915643,1.423303 -1.296101,-0.380849 -1.13999,-1.95082 -1.13999,-1.95082"
         id="path4839"
         inkscape:connector-curvature="0"
         sodipodi:nodetypes="ccccccssccccc"
         inkstitch:bean_stitch_repeats="1"
         inkstitch:fill_underlay="False"
         inkstitch:running_stitch_length_mm="2.5" />
      <path
         style="opacity:1;fill:none;fill-opacity:1;stroke:#000000;stroke-width:0.12;stroke-linecap:round;stroke-linejoin:round;stroke-miterlimit:4;stroke-dasharray:0.12, 0.12;stroke-dashoffset:0;stroke-opacity:1"
         d="M 19.493245,64.824239 C 14.267426,64.105591 10.211466,58.237484 10.505993,57.96524 10.452426,57.872238 11.598606,50.775107 13.683183,51.556299 13.082381,51.231303 11.489002,53.078955 12.666556,54.11338 13.378811,54.739062 15.014453,55.67998 15.755625,55.066895 16.416298,54.5204 16.551348,53.504453 15.991291,52.837013 15.498398,52.249615 13.613407,51.156888 13.019762,51.663984 12.50558,52.103201 12.403987,52.908557 12.858213,53.428318 13.243653,53.869374 14.918459,54.928736 15.364197,54.527239 15.732225,54.195734 15.800606,53.599946 15.451627,53.228455 15.174306,52.933239 13.708038,51.906833 13.411193,52.203651 13.188533,52.426348 13.152627,52.815511 13.397933,53.036889 13.565079,53.187739 14.092585,53.525499 14.276803,53.68307 14.846365,54.170217 15.211283,54.056943 14.912015,53.61989 12.59542,49.900743 17.980802,53.94109 18.100827,54.058775 L 21.706663,55.106715 C 21.706663,55.106715 29.517826,44.389444 39.064106,49.745404 41.909453,51.341792 43.378231,52.441258 43.944172,53.371102 40.115704,54.965398 40.553975,56.615717 39.108316,61.393413 36.750911,69.184302 28.074772,73.578132 32.500565,75.603087 37.005709,77.664348 40.672459,75.058556 44.496221,72.357547 45.410504,71.702692 46.236055,70.933556 46.958597,70.076421"
         id="path4816"
         inkstitch:bean_stitch_repeats="1"
         inkstitch:running_stitch_length_mm="2.5" />
      <path
         style="opacity:1;fill:none;fill-opacity:1;stroke:#000000;stroke-width:0.12;stroke-linecap:round;stroke-linejoin:round;stroke-miterlimit:4;stroke-dasharray:0.12, 0.12;stroke-dashoffset:0;stroke-opacity:1"
         d="M 46.958597,70.076421 C 49.072175,67.569131 50.304325,64.308856 50.297692,60.953471 49.300954,56.802132 45.826156,52.040371 44.178461,53.358527"
         id="path5"
         inkstitch:repeats="2"
         inkstitch:running_stitch_length_mm="2.5" />
      <path
         style="opacity:1;fill:none;fill-opacity:1;stroke:#000000;stroke-width:0.12;stroke-linecap:round;stroke-linejoin:round;stroke-miterlimit:4;stroke-dasharray:0.12, 0.12;stroke-dashoffset:0;stroke-opacity:1"
         d="M 47.083402,69.820485 C 47.083402,69.820485 44.62994,79.09891 53.734853,81.559701 62.839763,84.020492 76.267522,96.049809 81.788312,107.53638 85.002022,114.22284 83.474165,123.33205 83.394835,129.73433 83.315505,136.13662 95.002366,118.95017 97.32802,111.72539 100.25011,102.64774 99.193198,87.865275 96.30872,83.134428 93.387188,78.342798 96.35883,79.842543 100.1312,85.295223 104.09568,91.025587 104.73919,105.80253 101.96005,114.27788 99.180923,122.75324 89.572904,135.37939 85.760612,136.50741 83.205319,137.2635 44.45827,137.6534 44.45827,136.8879 44.45827,136.8879 43.658516,132.21243 48.087931,131.47418 52.517349,130.73595 64.908286,129.67762 64.908286,129.67762"
         id="path4810"
         inkstitch:bean_stitch_repeats="1"
         inkstitch:running_stitch_length_mm="2.5" />
      <path
         style="opacity:1;fill:none;fill-opacity:1;stroke:#000000;stroke-width:0.12;stroke-linecap:round;stroke-linejoin:round;stroke-miterlimit:4;stroke-dasharray:0.12, 0.12;stroke-dashoffset:0;stroke-opacity:1"
         d="M 64.908286,129.67762 C 64.908286,129.67762 63.587736,129.3108 61.966341,128.52051 53.080372,124.12035 53.177161,115.24683 55.616754,110.67454"
         id="path1"
         inkstitch:repeats="2"
         inkstitch:running_stitch_length_mm="2.5" />
      <path
         style="opacity:1;fill:none;fill-opacity:1;stroke:#000000;stroke-width:0.12;stroke-linecap:round;stroke-linejoin:round;stroke-miterlimit:4;stroke-dasharray:0.12, 0.12;stroke-dashoffset:0;stroke-opacity:1"
         d="M 61.987129,129.85626 C 60.021529,130.03315 56.804729,129.79977 53.162236,128.73076"
         id="path3"
         sodipodi:nodetypes="cc"
         inkstitch:bean_stitch_repeats="1"
         inkstitch:running_stitch_length_mm="2.5" />
      <path
         style="opacity:1;fill:none;fill-opacity:1;stroke:#000000;stroke-width:0.12;stroke-linecap:round;stroke-linejoin:round;stroke-miterlimit:4;stroke-dasharray:0.12, 0.12;stroke-dashoffset:0;stroke-opacity:1"
         d="m 53.360426,128.63188 -7.364163,0.72953 c -0.324689,-0.19482 -2.073073,0.41444 -2.835277,2.41539 -0.668237,1.75427 0.04769,3.03364 1.206965,3.05977"
         id="path4812"
         inkscape:connector-curvature="0"
         sodipodi:nodetypes="ccsc"
         inkstitch:bean_stitch_repeats=""
         inkstitch:fill_underlay="False"
         inkstitch:running_stitch_length_mm="2.5"
         inkstitch:repeats="2" />
      <path
         style="opacity:1;fill:none;fill-opacity:1;stroke:#000000;stroke-width:0.12;stroke-linecap:round;stroke-linejoin:round;stroke-miterlimit:4;stroke-dasharray:0.12, 0.12;stroke-dashoffset:0;stroke-opacity:1"
         d="M 53.162236,128.73076 C 49.571596,127.67697 45.567297,125.81118 41.940089,122.72594 41.236013,122.12706 40.500639,121.43235 39.775819,120.67404"
         id="path4903"
         inkscape:connector-curvature="0"
         sodipodi:nodetypes="ccc"
         inkstitch:bean_stitch_repeats="1"
         inkstitch:fill_underlay="False"
         inkstitch:running_stitch_length_mm="2.5" />
      <path
         style="opacity:1;fill:none;fill-opacity:1;stroke:#000000;stroke-width:0.12;stroke-linecap:round;stroke-linejoin:round;stroke-miterlimit:4;stroke-dasharray:0.12, 0.12;stroke-dashoffset:0;stroke-opacity:1"
         d="M 39.6841,120.84988 34.147074,134.99102 C 31.33734,135.59096 32.386895,135.36259 29.577161,135.16504"
         id="path4837"
         inkscape:connector-curvature="0"
         sodipodi:nodetypes="ccc"
         inkstitch:bean_stitch_repeats=""
         inkstitch:fill_underlay="False"
         inkstitch:running_stitch_length_mm="2.5"
         inkstitch:repeats="2" />
      <path
         style="opacity:1;fill:none;fill-opacity:1;stroke:#000000;stroke-width:0.12;stroke-linecap:round;stroke-linejoin:round;stroke-miterlimit:4;stroke-dasharray:0.12, 0.12;stroke-dashoffset:0;stroke-opacity:1"
         d="M 39.775819,120.67404 C 38.583233,119.42634 37.41922,118.00648 36.470207,116.55808 36.328039,116.3411 37.219156,114.60535 37.080988,114.3813 L 28.530019,137.65518 C 26.008076,138.25534 22.477776,138.29007 20.027286,137.85246 20.027286,137.85246 19.734444,134.08483 20.765521,134.13383 21.91452,134.18853 23.360565,132.45851 23.360565,132.45851 L 25.269838,105.82779 C 22.946231,101.361 22.59009,92.900039 23.441478,88.521683 24.060608,85.33774 25.639846,77.303284 21.753874,72.732125 21.753874,72.732125 20.601124,69.986629 17.760476,68.793399 15.154885,67.69891 11.249196,62.600104 10.576451,59.332773 10.515761,59.038018 10.501361,58.735797 10.68852,58.571663"
         id="path4847"
         inkscape:connector-curvature="0"
         sodipodi:nodetypes="csccccccsccsc"
         inkstitch:bean_stitch_repeats="1"
         inkstitch:fill_underlay="False"
         inkstitch:running_stitch_length_mm="2.5" />
    </g>
  </g>
</svg>
