<?xml version="1.0" encoding="UTF-8" standalone="no"?>
<!-- Created with Inkscape (http://www.inkscape.org/) -->

<svg
   width="210mm"
   height="120mm"
   viewBox="0 0 210 120"
   version="1.1"
   id="svg871"
   sodipodi:docname="clone-fill-angle.svg"
   inkscape:version="1.2.2 (b0a8486541, 2022-12-01)"
   xmlns:inkscape="http://www.inkscape.org/namespaces/inkscape"
   xmlns:sodipodi="http://sodipodi.sourceforge.net/DTD/sodipodi-0.dtd"
   xmlns:xlink="http://www.w3.org/1999/xlink"
   xmlns="http://www.w3.org/2000/svg"
   xmlns:svg="http://www.w3.org/2000/svg"
   xmlns:inkstitch="http://inkstitch.org/namespace">
  <metadata
     id="metadata1878">
    <inkstitch:min_stitch_len_mm>0.1</inkstitch:min_stitch_len_mm>
    <inkstitch:collapse_len_mm>5.0</inkstitch:collapse_len_mm>
    <inkstitch:inkstitch_svg_version>3</inkstitch:inkstitch_svg_version>
  </metadata>
  <sodipodi:namedview
     id="namedview873"
     pagecolor="#ffffff"
     bordercolor="#000000"
     borderopacity="0.25"
     inkscape:showpageshadow="2"
     inkscape:pageopacity="0.0"
     inkscape:pagecheckerboard="0"
     inkscape:deskcolor="#d1d1d1"
     inkscape:document-units="mm"
     showgrid="false"
     inkscape:zoom="1.4142136"
     inkscape:cx="408.00061"
     inkscape:cy="210.71782"
     inkscape:window-width="1920"
     inkscape:window-height="915"
     inkscape:window-x="0"
     inkscape:window-y="0"
     inkscape:window-maximized="1"
     inkscape:current-layer="layer1"
     showguides="false" />
  <defs
     id="defs868" />
  <g
     inkscape:label="Layer 1"
     inkscape:groupmode="layer"
     id="layer1">
    <path
       style="stroke:none;stroke-width:1"
       d="M 28.515787,54.234259 V 32.723677 l 15.140693,-15.140692 12.409724,0.0019 -0.03817,36.678703 z"
       id="path1308"
       sodipodi:nodetypes="cccccc"
       inkstitch:fill_underlay="False"
       inkstitch:underpath="False"
       inkstitch:row_spacing_mm="1"
       inkstitch:angle="45" />
    <use
       x="0"
       y="0"
       xlink:href="#path1308"
       id="use1310"
       transform="rotate(45,85.945233,123.08384)"
       style="fill:#aa0000" />
    <use
       x="0"
       y="0"
       xlink:href="#path1308"
       id="use1887"
       transform="matrix(-1,0,0,1,209.26327,6.2118885e-8)"
       style="fill:#000080" />
    <path
       id="path2114"
       style="fill:#000000;stroke-width:1"
       d="m 85.760266,51.766462 v 5.003312 H 67.75258 l 0.0016,3.203939 -0.0016,3.203422 h 18.007686 v 5.003311 l 8.207251,-8.206733 z" />
    <path
       style="fill:#000000;stroke:#000000;stroke-width:0.921926;stroke-opacity:1"
       d="M 24.991743,59.973453 H 185.00826"
       id="path2178"
       sodipodi:nodetypes="cc" />
    <switch
       id="switch1">
        <text
           systemLanguage="de"
           xml:space="preserve"
           style="font-size:4.23333px;fill:#000000;stroke:none;stroke-width:1;stroke-opacity:1"
           x="27.220348"
           y="9.4642372"
           id="text2340"><tspan
             sodipodi:role="line"
             id="tspan2338"
             style="font-size:4.23333px;stroke-width:1"
             x="27.220348"
             y="9.4642372">Ursprungsobjekt</tspan></text>
        <text
           systemLanguage="fr"
           xml:space="preserve"
           style="font-size:4.23333px;fill:#000000;stroke:none;stroke-width:1;stroke-opacity:1"
           x="27.220348"
           y="9.4642372"
           id="text2340"><tspan
             sodipodi:role="line"
             id="tspan2338"
             style="font-size:4.23333px;stroke-width:1"
             x="27.220348"
             y="9.4642372">Objet originel</tspan></text>
        <text
           xml:space="preserve"
           style="font-size:4.23333px;fill:#000000;stroke:none;stroke-width:1;stroke-opacity:1"
           x="27.220348"
           y="9.4642372"
           id="text2340"><tspan
             sodipodi:role="line"
             id="tspan2338"
             style="font-size:4.23333px;stroke-width:1"
             x="27.220348"
             y="9.4642372">Original Object</tspan></text>
    </switch>
    <path
       id="object8433"
       style="stroke:#800000;fill:none;stroke-width:0.4;stroke-linecap:round;stroke-linejoin:round"
       d="m 290.17068,18.897638 -2.0044,2.004397 -2.0044,2.004397 2.0044,-2.004397 2.0044,-2.004397 -6.10283,6.102825 -6.10283,6.102826 -6.10282,6.102825 -6.10283,6.102826 -6.10282,6.102825 -6.10283,6.102825 -6.10282,6.102825 -6.10283,6.102824 -6.10282,6.102823 6.12076,6.133798 6.12076,6.133799 6.12075,6.133798 6.12076,6.133798 6.12076,6.133795 6.12075,6.1338 6.12076,6.1338 6.12076,6.1338 6.12075,6.13379 6.12076,6.1338 6.12075,6.1338 6.12076,6.13379 -3.7985,-3.80658 h 6.91519 0.69783 l 3.7874,-3.77953 h -7.31987 -7.85204 l -3.77149,-3.77953 h 8.78888 11.33858 2.60334 l 3.7874,-3.77953 h -9.22538 -11.33858 -9.72573 l -3.7665,-3.77452 10.65758,-0.005 h 11.33858 11.33859 4.50884 l 3.7824,-3.77454 -11.12589,-0.005 H 308.97638 297.6378 286.29921 l -4.02733,-3.77452 1.19269,-0.005 h 11.33858 11.33858 11.33858 11.33859 6.41436 l 3.7874,-3.77953 h -1.69783 -11.33858 -11.33858 -11.33858 -11.33859 -11.33858 -2.13453 l -3.7665,-3.77452 3.06639,-0.005 h 11.33858 11.33858 11.33858 11.33859 11.33858 8.31987 l 3.7824,-3.77454 -3.59833,-0.005 h -11.33859 -11.33858 -11.33858 -11.33858 -11.33859 -11.33858 -4.00822 l -3.77149,-3.77953 h 4.94506 11.33859 11.33858 11.33858 11.33858 11.33859 11.33858 10.22539 l 3.78239,-3.77453 -5.50384,-0.005 h -11.33859 -11.33858 -11.33858 -11.33858 -11.33859 -11.33858 -11.33858 -5.88192 l -3.77149,-3.779523 h 6.81876 11.33859 11.33858 11.33858 11.33858 11.33859 11.33858 11.33858 11.33858 0.79232 l 3.7824,-3.774533 -7.40936,-0.005 h -11.33858 -11.33859 -11.33858 -11.33858 -11.33858 -11.33859 -11.33858 -11.33858 -7.75561 l -3.77149,-3.779528 h 8.69245 11.33858 11.33859 11.33858 11.33858 11.33858 11.33859 11.33858 11.33858 11.33859 2.69783 l 3.78239,-3.774532 -9.31487,-0.005 h -11.33858 -11.33859 -11.33858 -11.33858 -11.33858 -11.33859 -11.33858 -11.33858 -11.33858 -9.6293 l -3.77149,-3.779528 h 10.56614 11.33858 11.33859 11.33858 11.33858 11.33858 11.33859 11.33858 11.33858 11.33858 11.33859 4.60334 l 3.7874,-3.779527 H 365.66929 354.33071 342.99213 331.65354 320.31496 308.97638 297.6378 286.29921 274.96063 263.62205 252.28346 240.94488 l -3.9359,-3.779528 h 1.10126 11.33858 11.33858 11.33858 11.33859 11.33858 11.33858 11.33858 11.33859 11.33858 11.33858 11.33859 11.33858 6.50885 l 3.7824,-3.774533 -1.78731,-0.005 H 371.33858 360 348.66142 337.32283 325.98425 314.64567 303.30709 291.9685 280.62992 269.29134 257.95276 246.61417 237.25729 l 3.77953,-3.779528 h 2.74271 11.33858 11.33858 11.33859 11.33858 11.33858 11.33858 11.33859 11.33858 11.33858 11.33858 11.33859 11.33858 8.41437 l 3.7824,-3.774533 -3.69283,-0.005 h -11.33859 -11.33858 -11.33858 -11.33858 -11.33859 -11.33858 -11.33858 -11.33858 -11.33859 -11.33858 -11.33858 -11.33859 -7.46711 l 3.77952,-3.779528 h 0.85295 11.33858 11.33858 11.33859 11.33858 11.33858 11.33858 11.33859 11.33858 11.33858 11.33859 11.33858 11.33858 10.31988 l 3.7824,-3.774533 -5.59834,-0.005 H 382.67717 371.33858 360 348.66142 337.32283 325.98425 314.64567 303.30709 291.9685 280.62992 269.29134 257.95276 252.3754 l 3.77453,-3.774527 10.30676,-0.005 h 11.33859 11.33858 11.33858 11.33858 11.33859 11.33858 11.33858 11.33858 11.33859 11.33858 11.33858 11.33859 0.88681 l 3.4148,-3.407702 -0.37172,-0.371826 h -6.76454 -11.33858 -11.33859 -11.33858 -11.33858 -11.33858 -11.33859 -11.33858 -11.33858 -11.33858 -11.33859 -11.33858 -11.33858 -3.68759 l 3.77952,-3.779527 h 8.412 11.33859 11.33858 11.33858 11.33858 11.33859 11.33858 11.33858 11.33859 11.33858 11.33858 11.33858 5.82079 l -3.7734,-3.774527 -4.88203,-0.005 H 382.67717 371.33858 360 348.66142 337.32283 325.98425 314.64567 303.30709 291.9685 280.62992 269.29134 267.49351 l 3.77953,-3.779527 h 6.52224 11.33858 11.33858 11.33858 11.33859 11.33858 11.33858 11.33858 11.33859 11.33858 11.33858 3.93328 l -3.7784,-3.779528 h -2.98952 -11.33859 -11.33858 -11.33858 -11.33858 -11.33859 -11.33858 -11.33858 -11.33858 -11.33859 -11.24664 l 3.77452,-3.774528 4.63748,-0.005 h 11.33858 11.33858 11.33858 11.33859 11.33858 11.33858 11.33859 11.33858 11.33858 2.04577 l -3.7734,-3.774526 -1.10701,-0.005 H 371.33858 360 348.66142 337.32283 325.98425 314.64567 303.30709 291.9685 282.61162 l 3.77953,-3.779528 h 2.74271 11.33858 11.33858 11.33859 11.33858 11.33858 11.33858 11.33859 11.33858 l -3.61514,-3.774526 -10.55809,-0.005 h -11.33858 -11.33858 -11.33859 -11.33858 -11.33858 -11.33858 -7.46712 2.83464 2.83465 -2.83465 -2.83464"
       transform="matrix(0.264583,0,0,0.264583,31.778538,62.358725)"
       inkstitch:stroke_method="manual_stitch" />
    <path
       id="object4143"
       style="fill:none;stroke:#000080;stroke-width:0.105833;stroke-linecap:round;stroke-linejoin:round"
       d="m 121.71043,40.004682 -0.0302,-0.749391 -0.0302,-0.749389 0.0302,0.749389 0.0302,0.749391 -0.0988,-2.44967 -0.003,-2.444922 -0.003,-2.444922 -0.003,-2.444918 -0.003,-2.444922 -0.003,-2.444921 -0.003,-2.444921 -0.003,-2.444921 -0.003,-2.44492 -0.003,-2.444921 -0.003,-2.44492 -0.003,-2.444921 -0.003,-2.4449205 -0.003,-2.4449202 -0.003,-2.4449197 2.30694,-3.439e-4 2.30693,-3.44e-4 2.30694,-3.439e-4 2.30694,-3.44e-4 2.30694,-3.44e-4 0.21377,0.2111264 2.12132,2.1213178 2.12132,2.1213175 2.12132,2.1213177 2.12132,2.1213178 2.12131,2.121317 2.12132,2.121318 2.12132,2.121318 0.95269,0.952695 v 1.411565 l -1.12947,-1.126825 -2.12132,-2.121317 -2.12131,-2.121318 -2.12132,-2.121318 -2.12132,-2.121317 -2.12132,-2.1213182 -2.12131,-2.1213177 -2.12132,-2.1213175 -1.44835,-1.4483514 -1.414,2.109e-4 0.56425,0.5642581 2.12132,2.1213175 2.12132,2.1213178 2.12132,2.1213175 2.12131,2.121318 2.12132,2.121317 2.12132,2.121318 2.12132,2.121318 2.12132,2.121317 1.30624,1.306248 v 1.411566 l -1.48302,-1.480378 -2.12132,-2.121318 -2.12132,-2.121317 -2.12131,-2.121318 -2.12132,-2.121318 -2.12132,-2.121318 -2.12132,-2.1213172 -2.12132,-2.1213177 -2.12131,-2.1213178 -1.80149,-1.8014826 -1.414,2.108e-4 0.91739,0.9173895 2.12132,2.1213177 2.12132,2.1213178 2.12132,2.1213175 2.12131,2.121318 2.12132,2.121317 2.12132,2.121318 2.12132,2.121318 2.12131,2.121317 2.12132,2.121318 1.6598,1.659801 v 1.411565 l -1.83657,-1.833931 -2.12132,-2.121317 -2.12132,-2.121318 -2.12132,-2.121318 -2.12131,-2.121317 -2.12132,-2.121318 -2.12132,-2.121318 -2.12132,-2.1213172 -2.12132,-2.1213177 -2.12131,-2.1213178 -2.12132,-2.1213177 -1.44465,-0.033086 1.26787,1.2705212 2.12132,2.1213177 2.12132,2.1213178 2.12132,2.1213177 2.12131,2.121318 2.12132,2.121317 2.12132,2.121318 2.12132,2.121318 2.12131,2.121317 2.12132,2.121318 2.12132,2.121318 2.01335,2.013352 v 1.411567 l -2.19013,-2.187483 -2.12131,-2.121319 -2.12132,-2.121317 -2.12132,-2.121318 -2.12132,-2.121318 -2.12132,-2.121317 -2.12131,-2.121318 -2.12132,-2.121318 -2.12132,-2.121317 -2.12132,-2.1213181 -2.12131,-2.1213177 -2.12132,-2.1213178 -0.38643,-0.3864277 -1.414,2.109e-4 1.62365,1.6236522 2.12132,2.1213177 2.12132,2.1213175 2.12131,2.121318 2.12132,2.121318 2.12132,2.121317 2.12132,2.121318 2.12132,2.121318 2.12131,2.121317 2.12132,2.121318 2.12132,2.121318 2.12132,2.121317 2.12131,2.121318 0.24559,0.245589 v 1.411566 l -0.42236,-0.419719 -2.12132,-2.121318 -2.12132,-2.121318 -2.12132,-2.121318 -2.12131,-2.121317 -2.12132,-2.121318 -2.12132,-2.121318 -2.12132,-2.121317 -2.12131,-2.121318 -2.12132,-2.121318 -2.12132,-2.121317 -2.12132,-2.1213184 -2.12132,-2.1213174 -1.67096,-1.6709695 0.002,1.415685 1.49272,1.4927196 2.12132,2.1213177 2.12132,2.121318 2.12132,2.121318 2.12131,2.121317 2.12132,2.121318 2.12132,2.121318 2.12132,2.121317 2.12131,2.121318 2.12132,2.121318 2.12132,2.121318 2.12132,2.121318 2.12132,2.121316 0.59914,0.599143 v 1.411566 l -0.77592,-0.773273 -2.12132,-2.121318 -2.12132,-2.121318 -2.12131,-2.121316 -2.12132,-2.121319 -2.12132,-2.121317 -2.12132,-2.121318 -2.12132,-2.121318 -2.12131,-2.121317 -2.12132,-2.121318 -2.12132,-2.121318 -2.12132,-2.121317 -2.12131,-2.1213184 -1.31447,-1.3144697 0.002,1.4156849 1.13622,1.1362202 2.12132,2.121318 2.12132,2.121317 2.12132,2.121318 2.12131,2.121318 2.12132,2.121317 2.12132,2.121318 2.12132,2.121318 2.12132,2.121317 2.12131,2.121318 2.12132,2.121318 2.12132,2.121318 2.12131,2.121318 0.9527,0.952695 v 1.411566 l -1.12947,-1.126825 -2.12132,-2.121318 -2.12132,-2.121318 -2.12132,-2.121318 -2.12131,-2.121318 -2.12132,-2.121318 -2.12132,-2.121317 -2.12131,-2.121318 -2.12132,-2.121318 -2.12132,-2.121317 -2.12132,-2.121318 -2.12132,-2.121318 -2.12131,-2.121317 -0.95797,-0.957971 0.002,1.413042 0.77973,0.782364 2.12131,2.121317 2.12132,2.121318 2.12132,2.121318 2.12132,2.121317 2.12132,2.121318 2.12131,2.121318 2.12132,2.121318 2.12132,2.121318 2.12132,2.121318 2.12131,2.121316 2.12132,2.121318 2.12132,2.121318 1.30625,1.306249 v 0.83909 l -0.57451,5.29e-4 -0.90852,-0.908514 -2.12131,-2.121318 -2.12132,-2.121318 -2.12132,-2.121318 -2.12132,-2.121318 -2.12132,-2.121316 -2.12131,-2.121319 -2.12132,-2.121317 -2.12132,-2.121318 -2.12132,-2.121318 -2.12131,-2.121317 -2.12132,-2.121318 -2.12132,-2.121318 -0.60147,-0.601471 0.002,1.415685 0.42322,0.423221 2.12132,2.121318 2.12131,2.121318 2.12132,2.121317 2.12132,2.121318 2.12132,2.121318 2.12131,2.121317 2.12132,2.121318 2.12132,2.121318 2.12132,2.121318 2.12132,2.121318 2.12131,2.121318 1.7939,1.793902 -1.4127,0.0016 -0.55797,-0.557971 -2.12132,-2.121318 -2.12132,-2.121315 -2.12132,-2.121318 -2.12131,-2.121318 -2.12132,-2.121318 -2.12132,-2.121318 -2.12132,-2.121318 -2.12132,-2.121318 -2.12131,-2.121317 -2.12132,-2.121318 -2.12132,-2.121318 -0.24497,-0.244971 0.002,1.415685 2.18804,2.188039 2.12131,2.121318 2.12132,2.121318 2.12132,2.121317 2.12132,2.121319 2.12132,2.121318 2.12131,2.121318 2.12132,2.121315 2.12132,2.121318 2.12132,2.121318 1.44335,1.443356 -1.41007,0.0016 -0.21006,-0.20742 -2.12132,-2.121318 -2.12132,-2.121318 -2.12131,-2.121318 -2.12132,-2.121318 -2.12132,-2.121318 -2.12132,-2.121316 -2.12131,-2.121319 -2.12132,-2.121317 -2.12132,-2.121318 -2.00979,-2.00979 0.002,1.413042 1.83154,1.834183 2.12132,2.121318 2.12131,2.121318 2.12132,2.121317 2.12132,2.121318 2.12132,2.121318 2.12132,2.121318 2.12131,2.121318 2.12132,2.121318 1.09281,1.09281 -1.41006,0.0016 -1.98084,-1.978194 -2.12132,-2.121316 -2.12132,-2.121318 -2.12132,-2.121318 -2.12131,-2.121318 -2.12132,-2.121318 -2.12132,-2.121317 -2.12132,-2.121318 -1.65329,-1.65329 0.002,1.413041 1.47504,1.477684 2.12132,2.121318 2.12132,2.121319 2.12132,2.121318 2.12131,2.121315 2.12132,2.121318 2.12132,2.121318 2.12132,2.121318 0.74226,0.742264 -1.41271,0.0016 -1.62765,-1.627648 -2.12132,-2.121318 -2.12131,-2.121318 -2.12132,-2.121318 -2.12132,-2.121318 -2.12132,-2.121316 -2.12131,-2.121319 -1.29679,-1.296791 0.002,1.413042 1.11855,1.121184 2.12132,2.121318 2.12132,2.121318 2.12131,2.121318 2.12132,2.121318 2.12132,2.121318 2.12132,2.121318 0.39171,0.391715 -1.41271,0.0016 -1.2771,-1.277106 -2.12132,-2.121315 -2.12131,-2.121318 -2.12132,-2.121318 -2.12132,-2.121318 -2.12132,-2.121318 -0.94029,-0.940291 0.002,1.413043 0.76204,0.764684 2.12132,2.121318 2.12132,2.121316 2.12132,2.121318 2.12131,2.121318 2.12132,2.121318 -1.36889,0.04267 -0.9292,-0.926554 -2.12132,-2.121318 -2.12132,-2.121318 -2.12132,-2.121318 -2.12131,-2.121318 -0.5838,-0.583792 0.002,1.415686 0.40554,0.405542 2.12132,2.121318 2.12132,2.121318 2.12132,2.121318 1.81194,1.811941 -1.41271,0.0016 -0.57601,-0.576014 -2.12132,-2.121318 -2.12132,-2.121315 -2.12131,-2.121318 -0.22729,-0.227293 0.002,1.415684 2.17036,2.170361 2.12132,2.121318 1.4614,1.461397 -1.41271,0.0016 -0.22546,-0.225465 -2.12132,-2.121318 -1.99211,-1.992111 0.002,1.415686 1.81387,1.813862 1.11085,1.110849 -1.41007,0.0016 -1.51317,-1.510525 0.002,1.41304 0.0964,0.09899 -0.0484,-0.748434 -0.0484,-0.748436 0.0484,0.748436 0.0484,0.748434"
       inkstitch:stroke_method="manual_stitch"
       transform="translate(31.620894,62.358725)" />
    <path
       id="object3534"
       style="stroke:#000000;fill:none;stroke-width:0.4;stroke-linecap:round;stroke-linejoin:round"
       d="m 34.473795,72.427388 v 2.834646 2.834645 -2.834645 -2.834646 8.740149 8.740148 8.740148 8.740147 8.74015 8.74015 8.74014 8.74015 8.74014 l 8.665276,0.009 8.665276,0.009 8.665277,0.009 8.665276,0.009 8.665276,0.009 8.665276,0.009 8.665276,0.009 8.665272,0.009 8.66528,0.009 8.66527,0.009 8.66528,0.009 8.66527,0.009 0.001,-1.01436 -1.02325,1.01327 -5.32939,-0.006 3.52536,-3.53536 2.83286,-2.83286 0.006,-5.34064 -7.51534,7.50537 -4.1978,4.19779 -5.32939,-0.006 4.85026,-4.86026 8.01759,-8.01758 4.18026,-4.18027 0.006,-5.34063 -0.84516,0.83517 -8.01759,8.01759 -8.01758,8.01759 -5.5227,5.5227 -5.32939,-0.006 6.17516,-6.18516 8.01759,-8.01759 8.01759,-8.01759 5.52766,-5.52766 0.006,-5.35063 -2.19257,2.19257 -8.01759,8.01759 -8.01759,8.01759 -8.01759,8.01759 -6.8476,6.84759 -5.32938,-0.006 7.50006,-7.51006 8.01758,-8.01758 8.01759,-8.01759 8.01759,-8.01759 6.87506,-6.87506 0.006,-5.34064 -3.53996,3.52998 -8.01759,8.01759 -8.01758,8.01758 -8.01759,8.01759 -8.01759,8.01759 -8.01759,8.01759 -5.484297,0.14924 0.80737,-0.81737 8.017589,-8.01759 8.017588,-8.01759 8.01759,-8.01759 8.01759,-8.01759 8.01759,-8.01759 8.01759,-8.01758 0.21043,-5.545517 -4.88736,4.877377 -8.01759,8.01759 -8.01759,8.01759 -8.01759,8.01759 -8.01759,8.01759 -8.017585,8.01759 -8.017589,8.01759 -1.479809,1.4798 -5.339377,-0.006 2.142259,-2.14226 8.017589,-8.01759 8.017589,-8.01758 8.017593,-8.01759 8.01758,-8.01759 8.01759,-8.01759 8.01759,-8.01759 8.01759,-8.017588 1.55228,-1.552276 0.006,-5.340638 -6.23476,6.224782 -8.01759,8.01759 -8.01758,8.01759 -8.01759,8.01759 -8.01759,8.01758 -8.01759,8.01759 -8.017589,8.01759 -8.017588,8.01759 -2.80471,2.80471 -5.339376,-0.006 3.467159,-3.46716 8.017589,-8.01759 8.017588,-8.01759 8.017589,-8.01759 8.017588,-8.01759 8.01759,-8.01758 8.01759,-8.017594 8.01759,-8.017588 8.01759,-8.017589 2.89967,-2.899678 0.006,-5.340637 -7.58216,7.572183 -8.01759,8.017588 -8.01759,8.017589 -8.01759,8.017586 -8.017586,8.01759 -8.017589,8.01759 -8.017588,8.01759 -8.017589,8.01759 -8.017589,8.01759 -4.129609,4.12961 -5.339377,-0.006 4.792059,-4.79206 8.017589,-8.01758 8.017589,-8.01759 8.017589,-8.01759 8.017588,-8.01759 8.017593,-8.01759 8.01758,-8.017588 8.01759,-8.017589 8.01759,-8.017589 8.01759,-8.017589 4.24708,-4.247078 0.006,-5.340638 -0.91198,0.901995 -8.01759,8.017589 -8.01758,8.017589 -8.01759,8.017588 -8.01759,8.017589 -8.017591,8.017591 -8.017589,8.01759 -8.017588,8.01759 -8.017589,8.01758 -8.017589,8.01759 -8.017588,8.01759 -5.45451,5.45451 -5.329388,-0.006 6.106971,-6.11697 8.017589,-8.01759 8.017588,-8.01759 8.017589,-8.01759 8.017589,-8.01759 8.017588,-8.01758 8.017588,-8.017593 8.01759,-8.017589 8.01759,-8.017589 8.01759,-8.017588 8.01759,-8.017589 5.59448,-5.59448 0.006,-5.350627 -2.25938,2.259386 -8.01759,8.017589 -8.01759,8.017588 -8.01759,8.017589 -8.01759,8.017589 -8.017586,8.017588 -8.017588,8.017586 -8.017589,8.01759 -8.017589,8.01759 -8.017588,8.01759 -8.017589,8.01759 -8.017589,8.01759 -6.77941,6.77941 -5.339377,-0.006 7.44186,-7.44186 8.017589,-8.01758 8.017589,-8.01759 8.017589,-8.01759 8.017588,-8.01759 8.017589,-8.01759 8.017589,-8.017588 8.017588,-8.017589 8.017594,-8.017588 8.01758,-8.017589 8.01759,-8.017589 8.01759,-8.017588 6.94188,-6.941882 0.006,-5.340637 -3.60678,3.596797 -8.01759,8.017589 -8.01758,8.017589 -8.01759,8.017589 -8.01759,8.017588 -8.01759,8.017589 -8.017589,8.017589 -8.017589,8.01759 -8.017588,8.01759 -8.017589,8.01759 -8.017589,8.01758 -8.017589,8.01759 -8.017588,8.01759 -4.277884,4.27789 v -5.33506 l 7.618546,-7.62855 8.017588,-8.01759 8.017589,-8.01759 8.017589,-8.01759 8.017588,-8.01758 8.017589,-8.017593 8.017589,-8.017588 8.017589,-8.017589 8.017588,-8.017589 8.01759,-8.017589 8.01759,-8.017588 8.01759,-8.017589 8.01759,-8.017589 0.27169,-0.271693 0.006,-5.340638 -4.95418,4.944199 -8.01759,8.017589 -8.01759,8.017588 -8.01759,8.017589 -8.01759,8.017589 -8.017585,8.017588 -8.017589,8.017589 -8.017589,8.017589 -8.017588,8.017585 -8.017589,8.01759 -8.017589,8.01759 -8.017588,8.01759 -8.017589,8.01759 -2.941619,2.94162 v -5.33506 l 6.282281,-6.29228 8.017589,-8.01759 8.017588,-8.01759 8.017589,-8.01759 8.017589,-8.017588 8.017588,-8.017588 8.017589,-8.017589 8.017589,-8.017589 8.017593,-8.017588 8.01758,-8.017589 8.01759,-8.017589 8.01759,-8.017588 8.01759,-8.017589 1.61909,-1.619095 0.006,-5.340637 -6.30158,6.291599 -8.01759,8.017589 -8.01758,8.017589 -8.01759,8.017589 -8.01759,8.017588 -8.01759,8.017589 -8.017589,8.017589 -8.017588,8.017588 -8.017589,8.017589 -8.017589,8.01759 -8.017588,8.01759 -8.017589,8.01759 -8.017589,8.01758 -1.605354,1.60536 v -5.33506 l 4.946016,-4.95602 8.017589,-8.01758 8.017589,-8.017594 8.017588,-8.017588 8.017589,-8.017589 8.017589,-8.017589 8.017588,-8.017588 8.017589,-8.017589 8.017588,-8.017589 8.01759,-8.017589 8.01759,-8.017588 8.01759,-8.017589 8.01759,-8.017589 2.96649,-2.966495 0.004,-3.838155 -1.51068,-2.26e-4 -6.13674,6.136744 -8.01759,8.017589 -8.01759,8.017588 -8.01759,8.017589 -8.017586,8.017589 -8.017589,8.017588 -8.017588,8.017589 -8.017589,8.017589 -8.017589,8.017589 -8.017589,8.017588 -8.017588,8.017589 -8.017589,8.017586 -8.017589,8.01759 -0.269089,0.26909 v -5.33506 l 3.609751,-3.61975 8.017589,-8.017588 8.017589,-8.017589 8.017588,-8.017589 8.017589,-8.017589 8.017589,-8.017588 8.017589,-8.017589 8.017588,-8.017589 8.017593,-8.017588 8.01758,-8.017589 8.01759,-8.017589 8.01759,-8.017588 5.46941,-5.469408 -5.34426,-7.97e-4 -4.80207,4.802072 -8.01759,8.017589 -8.01759,8.017589 -8.017591,8.017588 -8.017589,8.017589 -8.017588,8.017589 -8.017589,8.017588 -8.017589,8.017589 -8.017588,8.017589 -8.017589,8.017588 -8.017589,8.017589 -6.950413,6.950411 v -5.335056 l 2.273487,-2.283487 8.017588,-8.017589 8.017589,-8.017589 8.017589,-8.017588 8.017588,-8.017589 8.017589,-8.017589 8.017589,-8.017588 8.017588,-8.017589 8.017588,-8.017589 8.01759,-8.017589 8.01759,-8.017588 4.13474,-4.134737 -5.34427,-7.96e-4 -3.4674,3.4674 -8.01759,8.017589 -8.017586,8.017589 -8.017588,8.017589 -8.017589,8.017588 -8.017589,8.017589 -8.017588,8.017589 -8.017589,8.017588 -8.017589,8.017589 -8.017588,8.017589 -5.614149,5.614149 v -5.335059 l 0.937222,-0.947223 8.017588,-8.017588 8.017589,-8.017589 8.017589,-8.017589 8.017589,-8.017588 8.017588,-8.017589 8.017589,-8.017589 8.017589,-8.017589 8.017588,-8.017588 8.017594,-8.017589 2.80006,-2.800065 -5.34426,-7.97e-4 -2.13273,2.13273 -8.01759,8.017588 -8.017589,8.017589 -8.017589,8.017589 -8.017588,8.017588 -8.017589,8.017589 -8.017589,8.017589 -8.017589,8.017589 -8.017588,8.017588 -4.277884,4.277884 v -5.335059 l 7.618546,-7.628546 8.017588,-8.017589 8.017589,-8.017588 8.017589,-8.017589 8.017588,-8.017589 8.017589,-8.017588 8.017589,-8.017589 8.017589,-8.017589 1.465393,-1.465394 -5.334264,-7.95e-4 -0.808056,0.798057 -8.017589,8.017589 -8.017589,8.017588 -8.017588,8.017589 -8.017589,8.017589 -8.017589,8.017588 -8.017588,8.017589 -8.017589,8.017589 -2.941619,2.941619 1.470809,-1.47081 1.47081,-1.470809 -1.47081,1.470809 -1.470809,1.47081"
       transform="matrix(0.264583,0,0,0.264583,19.394597,62.358725)"
       inkstitch:stroke_method="manual_stitch" />
    <switch
       id="switch2">
    <text
       systemLanguage="de"
       xml:space="preserve"
       style="font-size:4.23333px;fill:#000000;stroke:none;stroke-width:1;stroke-opacity:1"
       x="136.05438"
       y="9.9510698"
       id="text2349"><tspan
         sodipodi:role="line"
         id="tspan2347"
         style="font-size:4.23333px;stroke-width:1"
         x="136.05438"
         y="9.9510698">Klone</tspan></text>
    <text
       xml:space="preserve"
       style="font-size:4.23333px;fill:#000000;stroke:none;stroke-width:1;stroke-opacity:1"
       x="136.05438"
       y="9.9510698"
       id="text2349"><tspan
         sodipodi:role="line"
         id="tspan2347"
         style="font-size:4.23333px;stroke-width:1"
         x="136.05438"
         y="9.9510698">Clones</tspan></text>
    </switch>
  </g>
</svg>
