<?xml version="1.0" encoding="UTF-8" standalone="no"?>
<!-- Created with Inkscape (http://www.inkscape.org/) -->

<svg
   width="100mm"
   height="100mm"
   viewBox="0 0 100 100"
   version="1.1"
   id="svg1"
   inkscape:version="1.4 (e7c3feb100, 2024-10-09)"
   sodipodi:docname="fill_to_satin_playground.svg"
   xmlns:inkscape="http://www.inkscape.org/namespaces/inkscape"
   xmlns:sodipodi="http://sodipodi.sourceforge.net/DTD/sodipodi-0.dtd"
   xmlns="http://www.w3.org/2000/svg"
   xmlns:svg="http://www.w3.org/2000/svg"
   xmlns:inkstitch="http://inkstitch.org/namespace">
  <sodipodi:namedview
     id="namedview1"
     pagecolor="#ffffff"
     bordercolor="#000000"
     borderopacity="0.25"
     inkscape:showpageshadow="2"
     inkscape:pageopacity="0.0"
     inkscape:pagecheckerboard="0"
     inkscape:deskcolor="#d1d1d1"
     inkscape:document-units="mm"
     showgrid="true"
     inkscape:zoom="4"
     inkscape:cx="263.25"
     inkscape:cy="87.375"
     inkscape:window-width="1920"
     inkscape:window-height="1131"
     inkscape:window-x="0"
     inkscape:window-y="32"
     inkscape:window-maximized="1"
     inkscape:current-layer="svg1"
     showguides="true">
    <inkscape:grid
       id="grid3"
       units="mm"
       originx="0"
       originy="0"
       spacingx="1"
       spacingy="0.99999986"
       empcolor="#0099e5"
       empopacity="0.30196078"
       color="#00d9e5"
       opacity="0.14901961"
       empspacing="5"
       enabled="true"
       visible="true" />
  </sodipodi:namedview>
  <metadata
     id="metadata5">
    <inkstitch:min_stitch_len_mm>0.3</inkstitch:min_stitch_len_mm>
    <inkstitch:collapse_len_mm>3.0</inkstitch:collapse_len_mm>
    <inkstitch:inkstitch_svg_version>3</inkstitch:inkstitch_svg_version>
  </metadata>
  <defs
     id="defs1" />
  <g
     inkscape:label="Layer 1"
     inkscape:groupmode="layer"
     id="layer1">
    <g
       id="g8"
       transform="matrix(0.559783 0 0 0.559783 70.4362 77.58)"
       inkscape:label="Simple"
       style="stroke-width:1.78641">
      <path
         style="opacity:0.5;fill:#f75900;stroke:none;stroke-width:0.472653;stroke-linejoin:bevel"
         d="M 5.7970504,4.6079118 17.242509,-15.756086 H 42.065776 C 42.808987,-15.756086 43.849485,-4.7565542 43.849485,-4.7565542 43.849485,-4.7565542 28.687969,-4.3106273 27.350188,-3.2701312 26.012406,-2.2296348 15.756086,5.9456928 14.566947,7.5807582 13.377809,9.2158239 -7.5807582,30.02575 -7.5807582,30.02575 L -10.850889,12.18867 5.7970504,4.6079118"
         id="path8"
         sodipodi:nodetypes="ccscssccc" />
      <path
         style="opacity:1;fill:none;stroke:#0b646f;stroke-width:0.472653;stroke-linejoin:bevel"
         d="M -8.6137496,8.6479811 -4.3908066,30.288802 M 2.6755615,3.5674158 9.810393,17.688436 M 11.891385,-10.25632 20.661282,4.1619851 M 39.33812,-18.139809 41.034893,-2.2528125"
         id="path9"
         sodipodi:nodetypes="cccccccc" />
    </g>
    <g
       id="g23"
       inkscape:label="Donut"
       transform="translate(-6.4154033,8.5959856)">
      <path
         id="path23"
         style="opacity:0.5;fill:#0b646f;stroke-width:0.264583;stroke-linejoin:bevel"
         d="M 30.768961,6.5402622 C 27.403153,6.5402623 24.674626,10.200481 24.674626,14.71559 24.674626,19.230698 27.403153,22.890917 30.768961,22.890917 34.134769,22.890917 36.863296,19.230698 36.863296,14.71559 36.863296,10.200481 34.134769,6.5402623 30.768961,6.5402622 Z M 46.079121,14.789911 C 46.079121,23.204432 39.124705,30.025749 30.545998,30.025749 21.967291,30.025749 15.012875,23.204432 15.012875,14.789911 15.012875,6.3753902 21.967291,-0.44592667 30.545998,-0.44592667 39.124705,-0.44592667 46.079121,6.3753902 46.079121,14.789911 Z"
         sodipodi:nodetypes="ssssssssss" />
      <path
         style="opacity:1;fill:none;stroke:#fe3905;stroke-width:0.264583;stroke-linejoin:bevel"
         d="M 30.91562,-2.1136938 V 9.1236658 M 30.91562,31.598385 V 20.361025 M 12.897695,15.014361 H 26.028757 M 34.930943,15.014361 H 47.630943"
         id="path24"
         sodipodi:nodetypes="cccccccc" />
    </g>
    <g
       id="g31"
       inkscape:label="Crazy"
       transform="matrix(0.672986 0 0 0.672986 1.4824 116.714)"
       style="stroke-width:1.48591">
      <path
         id="path30"
         style="opacity:0.5;fill:#1e73be;stroke:none;stroke-width:0.393148;stroke-linejoin:bevel"
         d="M 56.781366,-67.483613 67.081767,-64.366387 70.781077,-62.246529 71.931551,-63.413402 63.767556,-70.010532 Z M 36.343047,-61.909528 41.173923,-53.213952 50.835673,-54.849016 51.578885,-64.659409 Z M 19.240367,-58.488224 27.564835,-41.986121 29.515267,-41.306209 36.417369,-48.903323 33.89045,-56.632723 31.36353,-62.875701 25.77304,-64.866769 19.395196,-60.053203 Z M 46.376404,-70.159175 C 49.051966,-70.456459 61.983847,-72.091525 64.510766,-72.240168 67.037687,-72.388811 76.996723,-62.281133 77.145363,-61.686564 77.294006,-61.091995 75.510299,-58.119147 73.875232,-58.862359 72.240168,-59.605571 65.253978,-62.578416 63.470271,-62.429776 61.686564,-62.281133 55.740871,-59.308285 55.740871,-58.119147 55.740871,-56.930009 56.038154,-53.213952 54.849016,-51.876171 53.659878,-50.53839 47.714185,-47.268259 45.781835,-46.970973 43.849485,-46.673687 36.714652,-45.633192 34.633662,-42.065776 32.552669,-38.498361 29.431181,-35.376873 28.24204,-35.674157 27.052902,-35.971443 24.97191,-40.727995 24.97191,-40.727995 L 20.363998,-48.011468 13.972378,-60.646066 C 13.972378,-60.646066 20.661283,-66.740402 21.255852,-67.186328 21.850421,-67.632256 31.066245,-70.753744 31.9581,-70.605101 32.849952,-70.456459 43.700842,-69.861889 46.376404,-70.159175"
         sodipodi:nodetypes="cccccccccccccccccccccssssssssscccssc" />
      <path
         style="opacity:1;fill:none;stroke:#db902e;stroke-width:0.393148;stroke-linejoin:bevel"
         d="M 27.350187,-71.273994 30.397355,-61.166315 M 35.153909,-50.018141 38.275398,-41.694171 M 41.768493,-54.031484 44.369734,-45.112945 M 51.395702,-64.403171 56.040579,-57.573723 M 57.15335,-67.47252 60.743143,-60.342724 M 57.128387,-67.461035 56.484082,-72.834738 M 51.334134,-64.47595 49.349251,-72.017205 M 37.263715,-61.485142 33.29588,-72.017205 M 27.490174,-67.074049 36.546455,-67.921705 M 35.557132,-45.375921 43.89197,-49.441457 M 48.841112,-69.198818 57.730055,-70.377576 M 60.124249,-64.177893 53.121778,-59.610782 M 62.863324,-68.456045 65.320501,-73.960122 M 70.578859,-63.197686 77.213239,-58.52905 M 48.513409,-55.383863 51.756883,-47.914044 M 31.214889,-62.682111 C 32.53356,-63.3947 35.089848,-62.499591 36.718966,-61.797527 M 36.055528,-48.971061 C 39.088316,-48.19089 40.5194,-51.362713 41.313887,-53.590554 M 33.72121,-55.580868 39.176143,-57.69404 M 13.179209,-60.88837 20.059305,-59.020915 M 28.757712,-42.459541 28.217133,-34.694862 M 20.157592,-47.42304 24.531367,-49.585355 M 21.042176,-68.161615 24.383937,-62.41182 M 43.205914,-62.166103 41.535033,-71.405089 M 65.467939,-61.183232 65.517082,-65.409576 M 49.987723,-58.431193 55.737517,-51.993389"
         id="path31"
         sodipodi:nodetypes="cccccccccccccccccccccccccccccccccccccccccccccccccc" />
      <g
         inkscape:label="Satin Group"
         id="g33" />
    </g>
    <g
       id="g93"
       inkscape:label="Text"
       transform="matrix(1.3383051,0,0,1.3383051,-19.934809,-4.4691375)"
       style="stroke-width:0.747214">
      <g
         id="g92"
         inkscape:label="A"
         transform="translate(49.646536,154.43937)"
         style="stroke-width:0.747214">
        <path
           d="M -18.498439,-108.26494 -16.500993,-114.51621 C -16.47671,-114.59716 -16.424095,-114.63763 -16.34315,-114.63763 H -14.436887 C -14.355942,-114.63763 -14.303327,-114.59716 -14.279044,-114.51621 L -11.656415,-106.30835 C -11.64832,-106.29216 -11.644273,-106.27193 -11.644273,-106.24764 -11.644273,-106.17479 -11.688793,-106.13837 -11.777833,-106.13837 H -13.319842 C -13.400787,-106.13837 -13.453402,-106.17884 -13.477685,-106.25978 L -13.841939,-107.44968 C -13.858128,-107.48206 -13.878365,-107.49825 -13.902648,-107.49825 H -16.889531 C -16.913814,-107.49825 -16.934051,-107.48206 -16.95024,-107.44968 L -17.302352,-106.25978 C -17.326636,-106.17884 -17.379251,-106.13837 -17.460196,-106.13837 H -19.002204 C -19.050771,-106.13837 -19.087197,-106.15051 -19.11148,-106.17479 -19.135764,-106.20717 -19.139811,-106.25169 -19.123622,-106.30835 L -18.498439,-108.26494 M -16.513135,-108.89456 C -16.52123,-108.84599 -16.505041,-108.8217 -16.464568,-108.8217 H -14.327611 C -14.279044,-108.8217 -14.262855,-108.84599 -14.279044,-108.89456 L -15.371806,-112.50067 C -15.379901,-112.53305 -15.392042,-112.54519 -15.408231,-112.5371 -15.42442,-112.5371 -15.436562,-112.52496 -15.444657,-112.50067 Z"
           id="path34"
           style="font-weight:bold;font-size:12.1418px;font-family:Barlow;-inkscape-font-specification:&quot;Barlow Bold&quot;;text-align:center;letter-spacing:0.569147px;text-anchor:middle;opacity:0.5;fill:#db902e;stroke-width:0.197699;stroke-linejoin:bevel"
           sodipodi:nodetypes="ccssccsssccssccssccccssccccc" />
        <path
           style="opacity:1;fill:none;stroke:#cc4209;stroke-width:0.1977;stroke-linejoin:bevel"
           d="M -19.348399,-106.43812 H -17.100184 M -19.044798,-107.24506 H -16.889484 M -18.56171,-109.19637 H -16.109112 M -17.673758,-111.66179 H -15.499864 M -15.219302,-111.65556 -12.878185,-111.74846 M -14.622688,-109.19637 H -12.281572 M -13.953798,-107.24506 H -11.798484 M -13.767809,-106.43812 H -11.482434 M -16.341252,-108.88653 C -17.835947,-108.67129 -17.464874,-107.71335 -16.711272,-107.32677 M -14.545777,-108.89778 C -12.858747,-108.89225 -13.09403,-107.75022 -13.993661,-107.38693 M -15.425333,-108.96283 -15.413639,-107.38411 M -17.579944,-109.51357 -18.25932,-106.90839 M -12.696816,-107.02423 -13.191511,-109.61771"
           id="path69"
           sodipodi:nodetypes="cccccccccccccccccccccccccc" />
      </g>
      <g
         id="g91"
         inkscape:label="B"
         transform="translate(49.798092,154.439)"
         style="stroke-width:0.747214">
        <path
           d="M -4.9678062,-110.57012 Q -5.040657,-110.5337 -4.9678062,-110.49727 -3.8143352,-109.90232 -3.8143352,-108.51816 -3.8143352,-107.3404 -4.615694,-106.73331 -5.4170528,-106.13837 -6.7162254,-106.13837 H -9.8609516 Q -9.9216606,-106.13837 -9.9702278,-106.17479 -10.006653,-106.22336 -10.006653,-106.28407 V -114.49193 Q -10.006653,-114.55263 -9.9702278,-114.58906 -9.9216606,-114.63763 -9.8609516,-114.63763 H -6.8133598 Q -3.9357532,-114.63763 -3.9357532,-112.3064 -3.9357532,-111.09222 -4.9678062,-110.57012 Z M -8.2339504,-113.16847 Q -8.2946594,-113.16847 -8.2946594,-113.10776 V -111.21364 Q -8.2946594,-111.15293 -8.2339504,-111.15293 H -6.8133598 Q -6.2426952,-111.15293 -5.9270084,-111.42005 -5.6113216,-111.68717 -5.6113216,-112.14856 -5.6113216,-112.62209 -5.9270084,-112.88921 -6.2426952,-113.16847 -6.8133598,-113.16847 Z M -6.7162254,-107.61967 Q -6.1577026,-107.61967 -5.8420158,-107.89893 -5.526329,-108.19033 -5.526329,-108.68814 -5.526329,-109.18596 -5.8420158,-109.46522 -6.1577026,-109.75662 -6.7283672,-109.75662 H -8.2339504 Q -8.2946594,-109.75662 -8.2946594,-109.69591 V -107.68038 Q -8.2946594,-107.61967 -8.2339504,-107.61967 Z"
           id="path50"
           style="font-weight:bold;font-size:12.1418px;font-family:Barlow;-inkscape-font-specification:&quot;Barlow Bold&quot;;text-align:center;letter-spacing:0.569147px;text-anchor:middle;opacity:0.5;fill:#db902e;stroke-width:0.197699;stroke-linejoin:bevel" />
        <path
           style="opacity:1;fill:none;stroke:#cc4209;stroke-width:0.1977;stroke-linejoin:bevel"
           d="M -10.248145,-105.98198 -8.1097393,-107.82774 M -5.958582,-109.33437 -4.7797532,-110.47078 M -8.1219765,-111.35218 -8.1324223,-109.38217 M -6.9769177,-111.41634 -6.9647369,-109.32452 M -6.0943352,-111.66754 -4.8002606,-110.52058 M -5.889952,-112.29927 -3.9576018,-113.71138 M -7.0047694,-112.96816 -6.8561271,-115.03058 M -7.9211493,-112.79945 -10.153014,-114.7764 M -10.312061,-109.14062 -8.0824263,-109.15921 M -5.9642732,-108.21161 -4.1805653,-106.74377 M -9.0205097,-108.51384 -8.9923848,-112.3889 M -4.9815673,-109.64251 -7.2956079,-110.39807 M -10.189989,-111.73252 -8.1141362,-111.69545"
           id="path77"
           sodipodi:nodetypes="cccccccccccccccccccccccccc" />
      </g>
      <g
         id="g90"
         inkscape:label="C"
         transform="translate(49.56729,154.439)"
         style="stroke-width:0.747214">
        <path
           d="M 1.0651677,-106.04123 Q 0.11810726,-106.04123 -0.59825893,-106.40549 -1.3146251,-106.78188 -1.7031627,-107.44968 -2.0917003,-108.11748 -2.0917003,-108.99169 V -111.79645 Q -2.0917003,-112.67066 -1.7031627,-113.33845 -1.3146251,-114.00625 -0.59825893,-114.37051 0.11810726,-114.73476 1.0651677,-114.73476 2.0000863,-114.73476 2.7043106,-114.38265 3.4206768,-114.04268 3.8092144,-113.39916 4.2098938,-112.76779 4.2098938,-111.93001 4.2098938,-111.82073 4.0641922,-111.79645 L 2.6436016,-111.71145 H 2.619318 Q 2.4979,-111.71145 2.4979,-111.84501 2.4979,-112.48853 2.0972207,-112.87707 1.7086831,-113.2656 1.0651677,-113.2656 0.40951046,-113.2656 0.00883106,-112.87707 -0.37970653,-112.48853 -0.37970653,-111.84501 V -108.91884 Q -0.37970653,-108.28747 0.00883106,-107.89893 0.40951046,-107.51039 1.0651677,-107.51039 1.7086831,-107.51039 2.0972207,-107.89893 2.4979,-108.28747 2.4979,-108.91884 2.4979,-109.0524 2.6436016,-109.0524 L 4.0641922,-108.99169 Q 4.1249012,-108.99169 4.1613266,-108.95526 4.2098938,-108.91884 4.2098938,-108.87027 4.2098938,-108.03249 3.8092144,-107.38897 3.4206768,-106.74546 2.7043106,-106.39334 2.0000863,-106.04123 1.0651677,-106.04123 Z"
           id="path51"
           style="font-weight:bold;font-size:12.1418px;font-family:Barlow;-inkscape-font-specification:&quot;Barlow Bold&quot;;text-align:center;letter-spacing:0.569147px;text-anchor:middle;opacity:0.5;fill:#db902e;stroke-width:0.197699;stroke-linejoin:bevel" />
        <path
           style="opacity:1;fill:none;stroke:#cc4209;stroke-width:0.1977;stroke-linejoin:bevel"
           d="M 2.2710688,-112.14635 4.323076,-112.34034 M -0.13006203,-110.34834 H -2.4711786 M 2.1367334,-108.6018 4.4510943,-108.49886"
           id="path81"
           sodipodi:nodetypes="cccccc" />
      </g>
      <g
         id="g89"
         inkscape:label="D"
         transform="translate(49.471927,154.439)"
         style="stroke-width:0.747214">
        <path
           d="M 6.1753453,-106.13837 Q 6.1146363,-106.13837 6.0660691,-106.17479 6.0296437,-106.22336 6.0296437,-106.28407 V -114.49193 Q 6.0296437,-114.55263 6.0660691,-114.58906 6.1146363,-114.63763 6.1753453,-114.63763 H 9.2107953 Q 10.12143,-114.63763 10.801371,-114.3098 11.493454,-113.99411 11.869849,-113.4113 12.246245,-112.8285 12.246245,-112.06357 V -108.71243 Q 12.246245,-107.94749 11.869849,-107.36469 11.493454,-106.78188 10.801371,-106.45405 10.12143,-106.13837 9.2107953,-106.13837 Z M 7.7416375,-107.66823 Q 7.7416375,-107.60752 7.8023465,-107.60752 H 9.2715043 Q 9.830027,-107.60752 10.169997,-107.98392 10.52211,-108.36032 10.534251,-108.99169 V -111.7843 Q 10.534251,-112.41568 10.182139,-112.79207 9.8421688,-113.16847 9.2593625,-113.16847 H 7.8023465 Q 7.7416375,-113.16847 7.7416375,-113.10776 Z"
           id="path52"
           style="font-weight:bold;font-size:12.1418px;font-family:Barlow;-inkscape-font-specification:&quot;Barlow Bold&quot;;text-align:center;letter-spacing:0.569147px;text-anchor:middle;opacity:0.5;fill:#db902e;stroke-width:0.197699;stroke-linejoin:bevel" />
        <path
           style="opacity:1;fill:none;stroke:#cc4209;stroke-width:0.1977;stroke-linejoin:bevel"
           d="M 9.0114408,-112.76378 9.0486014,-114.86335 M 10.200579,-111.74187 12.393054,-111.79761 M 10.014776,-109.43791 12.448794,-109.36359 M 8.9252282,-107.77181 8.8986585,-105.66388 M 8.1424406,-110.20193 5.7102806,-110.27012 M 7.9113377,-113.028 5.7285252,-114.86354 M 7.9444106,-107.80248 5.7285252,-105.90078"
           id="path82"
           sodipodi:nodetypes="cccccccccccccc" />
      </g>
      <g
         id="g88"
         inkscape:label="E"
         transform="translate(49.885865,154.439)"
         style="stroke-width:0.747214">
        <path
           d="M 20.003339,-113.31417 Q 20.003339,-113.25346 19.954772,-113.20489 19.918346,-113.16847 19.857637,-113.16847 H 15.875127 Q 15.814418,-113.16847 15.814418,-113.10776 V -111.22578 Q 15.814418,-111.16507 15.875127,-111.16507 H 18.485614 Q 18.546323,-111.16507 18.582748,-111.1165 18.631316,-111.08008 18.631316,-111.01937 V -109.84162 Q 18.631316,-109.78091 18.582748,-109.73234 18.546323,-109.69591 18.485614,-109.69591 H 15.875127 Q 15.814418,-109.69591 15.814418,-109.63521 V -107.66823 Q 15.814418,-107.60752 15.875127,-107.60752 H 19.857637 Q 19.918346,-107.60752 19.954772,-107.55896 20.003339,-107.52253 20.003339,-107.46182 V -106.28407 Q 20.003339,-106.22336 19.954772,-106.17479 19.918346,-106.13837 19.857637,-106.13837 H 14.248126 Q 14.187417,-106.13837 14.13885,-106.17479 14.102424,-106.22336 14.102424,-106.28407 V -114.49193 Q 14.102424,-114.55263 14.13885,-114.58906 14.187417,-114.63763 14.248126,-114.63763 H 19.857637 Q 19.918346,-114.63763 19.954772,-114.58906 20.003339,-114.55263 20.003339,-114.49193 Z"
           id="path53"
           style="font-weight:bold;font-size:12.1418px;font-family:Barlow;-inkscape-font-specification:&quot;Barlow Bold&quot;;text-align:center;letter-spacing:0.569147px;text-anchor:middle;opacity:0.5;fill:#db902e;stroke-width:0.197699;stroke-linejoin:bevel" />
        <path
           style="font-variation-settings:normal;opacity:1;vector-effect:none;fill:none;fill-opacity:1;stroke:#cc4209;stroke-width:0.1977;stroke-linecap:butt;stroke-linejoin:bevel;stroke-miterlimit:4;stroke-dasharray:none;stroke-dashoffset:0;stroke-opacity:1;-inkscape-stroke:none;stop-color:#000000;stop-opacity:1"
           d="M 19.565045,-114.87152 19.620786,-112.90201 M 13.990959,-112.33643 H 15.923309 M 18.3133,-111.46316 18.29472,-109.45649 M 15.923235,-111.43494 15.921963,-109.52634 M 13.749415,-108.9734 H 15.97905 M 13.823736,-106.00056 16.276334,-107.91433 M 19.633607,-105.74898 V -107.96003 M 14.771723,-112.72079 14.883477,-108.32196 M 15.559197,-111.17649 15.596266,-109.66903 M 15.312071,-110.37334 16.102873,-110.39805"
           id="path83"
           sodipodi:nodetypes="cccccccccccccccc" />
      </g>
      <g
         id="g87"
         inkscape:label="F"
         transform="translate(50.206535,154.439)"
         style="stroke-width:0.747214">
        <path
           d="M 27.651151,-113.31417 Q 27.651151,-113.25346 27.602584,-113.20489 27.566159,-113.16847 27.50545,-113.16847 H 23.535081 Q 23.474372,-113.16847 23.474372,-113.10776 V -111.22578 Q 23.474372,-111.16507 23.535081,-111.16507 H 26.145568 Q 26.206277,-111.16507 26.242703,-111.1165 26.29127,-111.08008 26.29127,-111.01937 V -109.84162 Q 26.29127,-109.78091 26.242703,-109.73234 26.206277,-109.69591 26.145568,-109.69591 H 23.535081 Q 23.474372,-109.69591 23.474372,-109.63521 V -106.28407 Q 23.474372,-106.22336 23.425805,-106.17479 23.38938,-106.13837 23.328671,-106.13837 H 21.90808 Q 21.847371,-106.13837 21.798804,-106.17479 21.762378,-106.22336 21.762378,-106.28407 V -114.49193 Q 21.762378,-114.55263 21.798804,-114.58906 21.847371,-114.63763 21.90808,-114.63763 H 27.50545 Q 27.566159,-114.63763 27.602584,-114.58906 27.651151,-114.55263 27.651151,-114.49193 Z"
           id="path54"
           style="font-weight:bold;font-size:12.1418px;font-family:Barlow;-inkscape-font-specification:&quot;Barlow Bold&quot;;text-align:center;letter-spacing:0.569147px;text-anchor:middle;opacity:0.5;fill:#db902e;stroke-width:0.197699;stroke-linejoin:bevel;stroke:none" />
        <path
           style="opacity:1;fill:none;stroke:#cc4209;stroke-width:0.1977;stroke-linejoin:bevel"
           d="M 21.348753,-106.49368 H 23.801351 M 21.497396,-109.38217 23.67129,-109.40075 M 23.819932,-111.46316 V -109.49365 M 25.942358,-111.31052 25.973295,-109.56333 M 21.526381,-111.89905 23.741523,-111.89479 M 27.325662,-114.87784 27.399891,-113.09349 M 23.681324,-112.97857 21.646038,-114.75187 M 22.451708,-112.48384 22.487914,-108.80167 M 24.691073,-111.33712 24.752854,-109.48368 M 23.109471,-111.09 23.121827,-109.69374 M 22.788207,-110.37334 24.023834,-110.36098"
           id="path84"
           sodipodi:nodetypes="cccccccccccccccccccccc" />
      </g>
      <g
         id="g86"
         inkscape:label="H"
         transform="translate(42.238167,154.57129)"
         style="stroke-width:0.747214">
        <path
           d="M 41.635463,-114.49193 C 41.635463,-114.5324 41.647605,-114.56477 41.671888,-114.58906 41.704266,-114.62144 41.740691,-114.63763 41.781164,-114.63763 H 43.201755 C 43.242228,-114.63763 43.274606,-114.62144 43.298889,-114.58906 43.331267,-114.56477 43.347456,-114.5324 43.347456,-114.49193 V -106.28407 C 43.347456,-106.2436 43.331267,-106.20717 43.298889,-106.17479 43.274606,-106.15051 43.242228,-106.13837 43.201755,-106.13837 H 41.781164 C 41.740691,-106.13837 41.704266,-106.15051 41.671888,-106.17479 41.647605,-106.20717 41.635463,-106.2436 41.635463,-106.28407 V -109.63521 C 41.635463,-109.67568 41.615227,-109.69591 41.574754,-109.69591 H 38.891416 C 38.850943,-109.69591 38.830707,-109.67568 38.830707,-109.63521 V -106.28407 C 38.830707,-106.2436 38.814518,-106.20717 38.78214,-106.17479 38.757856,-106.15051 38.725478,-106.13837 38.685005,-106.13837 H 37.264415 C 37.223942,-106.13837 37.187517,-106.15051 37.155138,-106.17479 37.130855,-106.20717 37.118713,-106.2436 37.118713,-106.28407 V -114.49193 C 37.118713,-114.5324 37.130855,-114.56477 37.155138,-114.58906 37.187517,-114.62144 37.223942,-114.63763 37.264415,-114.63763 H 38.685005 C 38.725478,-114.63763 38.757856,-114.62144 38.78214,-114.58906 38.814518,-114.56477 38.830707,-114.5324 38.830707,-114.49193 V -111.22578 C 38.830707,-111.18531 38.850943,-111.16507 38.891416,-111.16507 H 41.574754 C 41.615227,-111.16507 41.635463,-111.18531 41.635463,-111.22578 Z"
           id="path56"
           style="font-weight:bold;font-size:12.1418px;font-family:Barlow;-inkscape-font-specification:&quot;Barlow Bold&quot;;text-align:center;letter-spacing:0.569147px;text-anchor:middle;opacity:0.5;fill:#db902e;stroke-width:0.197699;stroke-linejoin:bevel"
           sodipodi:nodetypes="sssscssssscssssssssscssssscssssss" />
        <path
           style="opacity:1;fill:none;stroke:#cc4209;stroke-width:0.1977;stroke-linejoin:bevel"
           d="M 36.956198,-106.59513 H 38.944288 M 36.807555,-109.15921 H 39.241573 M 36.807555,-111.6118 H 39.334474 M 36.919037,-114.24649 H 38.925708 M 39.101086,-111.31415 39.153055,-109.49368 M 41.310987,-111.32395 41.32854,-109.55647 M 41.378306,-106.59513 H 43.49646 M 41.434047,-109.15921 H 43.459299 M 41.526949,-111.6118 H 43.366397 M 41.303985,-114.24649 H 43.51504 M 42.440916,-112.1332 42.525363,-108.65868 M 37.775805,-112.173 37.797017,-108.5303 M 40.091289,-111.42396 V -109.57188 M 38.689301,-111.1605 38.701657,-109.69011 M 38.454531,-110.59212 39.282401,-110.61683 M 41.70423,-111.16051 41.716587,-109.69011 M 41.123485,-110.38206 H 41.864862"
           id="path85"
           sodipodi:nodetypes="cccccccccccccccccccccccccccccccc" />
      </g>
      <g
         id="g1"
         inkscape:label="X">
        <path
           style="font-weight:bold;font-size:17.9287px;font-family:Barlow;-inkscape-font-specification:'Barlow Bold';text-align:center;letter-spacing:0.840406px;text-anchor:middle;opacity:0.5;fill:#db902e;fill-rule:evenodd;stroke-width:0.264582;stroke-linejoin:bevel"
           d="M 57.855892,76.464577 Q 57.730391,76.464577 57.676605,76.392862 57.622819,76.321147 57.694534,76.213575 L 61.172701,70.243318 Q 61.208559,70.189532 61.172701,70.135746 L 57.694534,64.165489 57.658676,64.057917 Q 57.658676,63.914487 57.855892,63.914487 H 60.132837 Q 60.312124,63.914487 60.401767,64.057917 L 62.732498,68.163589 Q 62.786284,68.271161 62.84007,68.163589 L 65.170801,64.057917 Q 65.260445,63.914487 65.439732,63.914487 H 67.698748 Q 67.824249,63.914487 67.878035,63.986202 67.931821,64.057917 67.860106,64.165489 L 64.381939,70.135746 Q 64.36401,70.189532 64.381939,70.243318 L 67.860106,76.213575 67.895964,76.321147 Q 67.895964,76.464577 67.698748,76.464577 H 65.439732 Q 65.260445,76.464577 65.170801,76.321147 L 62.84007,72.233404 Q 62.786284,72.125831 62.732498,72.233404 L 60.383839,76.321147 Q 60.294195,76.464577 60.114908,76.464577 Z"
           id="text1"
           aria-label="X"
           transform="matrix(0.74721378,0,0,0.74721378,14.895564,3.3394011)" />
        <path
           id="path18"
           style="font-variation-settings:normal;opacity:1;vector-effect:none;fill:none;fill-opacity:1;fill-rule:evenodd;stroke:#cc4209;stroke-width:0.1977;stroke-linecap:butt;stroke-linejoin:bevel;stroke-miterlimit:4;stroke-dasharray:none;stroke-dashoffset:0;stroke-opacity:1;-inkscape-stroke:none;stop-color:#000000;stop-opacity:1"
           d="M 60.823817,54.296657 62.899671,57.496931 M 62.99852,60.240024 H 65.865175 M 57.672968,60.215311 H 60.539623 M 62.986164,51.775979 H 65.852819 M 63.183864,51.430003 H 66.050519 M 57.845956,51.726553 H 60.712611 M 57.623543,51.380577 H 60.490198 M 63.082772,55.844017 C 62.405275,55.573305 61.934816,55.083008 61.800283,54.236425 M 60.558117,55.7335 C 61.097566,56.133358 61.617556,56.555453 61.817528,57.343285 M 60.11951,55.149241 61.732003,54.037176 M 61.867922,57.577247 63.505128,56.465182 M 57.870669,59.844621 H 60.613761 M 63.146796,59.894046 65.469774,59.894046" />
      </g>
    </g>
    <g
       id="g14"
       transform="translate(46.6737, -4.01334)"
       inkscape:label="Something">
      <path
         style="opacity:0.5;fill:#0b646f;stroke:none;stroke-width:0.264583;stroke-linejoin:bevel"
         d="M 24.030759,13.591047 33.593163,9.8847139 46.227761,20.884247 41.173923,26.384011 C 41.846289,21.025847 40.221208,17.046152 32.998594,16.424976 L 27.944756,18.654611 32.998594,31.586492 C 32.998594,31.586492 23.953916,34.119432 23.039559,34.262054 23.05794,32.29357 22.910741,25.86496 22.781108,23.112052 22.756948,22.598984 21.478258,21.475991 21.478258,21.475991 L 16.945223,22.370668 17.093866,34.410696 13.972378,33.96477 14.864233,16.722261 22.990262,13.999813"
         id="path4"
         sodipodi:nodetypes="ccccccccscccccc" />
      <path
         id="path5"
         style="font-variation-settings:normal;opacity:0.5;vector-effect:none;fill:none;fill-opacity:1;stroke:#0b646f;stroke-width:0.264583;stroke-linecap:butt;stroke-linejoin:bevel;stroke-miterlimit:4;stroke-dasharray:none;stroke-dashoffset:0;stroke-opacity:1;-inkscape-stroke:none;stop-color:#000000;stop-opacity:1"
         transform="translate(-46.6737,4.01334)"
         d="M 60.051509,27.238708 64.956705,27.573153 M 68.226836,27.424511 80.266864,24.451665 M 60.060417,15.213542 65.88125,19.976042 M 65.31901,10.31875 68.2625,18.653125 M 72.330469,7.4744791 75.40625,15.478125 M 84.402083,15.478125 90.355208,11.1125 M 79.639583,13.626042 80.433333,4.6302083 M 68.196355,17.793229 74.810937,14.750521 M 64.922135,13.427604 74.910156,9.8888017 M 67.667187,16.007292 73.686458,13.295312 M 70.313021,13.989844 71.338281,16.801042"
         sodipodi:nodetypes="cccccccccccccccccc" />
    </g>
    <g
       id="g15"
       inkscape:label="bridged twice"
       transform="translate(5.0270833,7.540625)">
      <path
         style="font-variation-settings:normal;opacity:0.5;vector-effect:none;fill:#cc4209;fill-opacity:1;stroke:none;stroke-width:0.264583;stroke-linecap:butt;stroke-linejoin:bevel;stroke-miterlimit:4;stroke-dasharray:none;stroke-dashoffset:0;stroke-opacity:1;-inkscape-stroke:none"
         d="M 38.795645,0.14864232 C 38.795645,0.14864232 44.741337,8.1753275 45.781835,10.850889 46.82233,13.526451 49.497892,19.620786 50.53839,20.958567 51.578885,22.296348 55.443585,27.647471 56.781366,29.282538 58.119147,30.917602 60.051497,34.485019 60.051497,34.485019 L 53.659878,35.8228 48.011468,22.593634 47.862828,35.8228 40.950959,35.079588 C 40.950959,35.079588 44.88998,28.390683 45.484549,25.269194 46.079118,22.147706 42.065776,11.891386 40.876638,9.9590353 39.6875,8.0266854 35.079588,1.0404962 35.079588,1.0404962 Z"
         id="path15"
         sodipodi:nodetypes="cssscccccsscc" />
      <path
         style="font-variation-settings:normal;opacity:1;vector-effect:none;fill:none;fill-opacity:1;stroke:#00663d;stroke-width:0.264583;stroke-linecap:butt;stroke-linejoin:bevel;stroke-miterlimit:4;stroke-dasharray:none;stroke-dashoffset:0;stroke-opacity:1;-inkscape-stroke:none"
         d="M 40.727995,31.660814 48.75468,32.998595 M 43.203361,23.44767 48.071397,23.559151 M 51.430243,33.444522 58.86236,30.620318 M 48.204282,23.553272 52.800953,21.399605 M 42.808989,20.215356 51.281601,17.539794 M 36.417369,6.2429775 42.660346,3.4187734 M 45.080243,18.789133 46.526533,24.617398 M 50.452734,24.358204 47.244661,17.776693"
         id="path16"
         sodipodi:nodetypes="cccccccccccccccc" />
    </g>
    <g
       id="g25"
       inkscape:label="something2">
      <path
         style="opacity:0.5;fill:#87a841;stroke:none;stroke-width:0.065;stroke-linejoin:bevel;stroke-dasharray:none"
         d="M 2.6755619,34.631956 C 2.6755619,34.631956 2.5739409,48.347558 5.7122909,54.566614 6.7672189,55.100472 7.7555972,56.100177 9.1898359,53.97886 10.610241,53.684983 11.051057,55.399266 10.904119,57.505384 10.75718,59.611503 4.9286189,59.072728 4.9286189,59.072728 4.9286189,59.072728 15.058871,61.986863 13.597991,56.525794 12.471463,52.803352 13.059217,51.480905 16.6837,45.456427 20.308183,39.431948 10.267385,42.370718 8.9939179,43.693164 7.7204509,45.015611 9.7286099,46.582955 9.4837129,48.933971 9.2388149,51.284987 7.3775939,52.656413 7.3775939,52.656413 5.9138018,49.031224 2.6755619,34.631956 2.6755619,34.631956 Z"
         id="path164"
         sodipodi:nodetypes="ccccccccccc" />
      <path
         id="path25"
         style="fill:none;stroke:#00663d;stroke-width:0.264583;stroke-linejoin:bevel;-inkscape-stroke:none"
         d="M 10.702247,51.876171 14.269663,51.578885 M 8.5469334,49.497893 15.012875,49.423572 M 10.087465,57.633561 14.58036,58.310039 M 10.033357,54.923338 13.823736,54.403088 M 10.497473,54.704628 C 11.98249,53.348467 12.119331,51.27992 9.2825151,49.662067 M 3.0725784,48.114144 6.1940672,46.925006 M 2.2305198,36.882759 3.5947781,36.82304 M 8.4726124,45.781835 17.985721,44.369733"
         sodipodi:nodetypes="cccccccccccccccc" />
    </g>
    <g
       id="g35"
       inkscape:label="one rung satin"
       transform="matrix(0.42307691,0,0,0.42307691,28.132332,108.88113)"
       style="stroke-width:2.36364">
      <path
         style="opacity:0.5;fill:#eadd20;fill-rule:evenodd;stroke:none;stroke-width:0.625378;stroke-linejoin:bevel;-inkscape-stroke:none"
         d="M 23.680208,-47.360416 60.854166,-47.095833 60.986458,-37.967708 22.621875,-39.422916 Z"
         id="path12"
         sodipodi:nodetypes="ccccc" />
      <path
         style="opacity:1;fill:none;fill-rule:evenodd;stroke:#6ab98a;stroke-width:0.625378;stroke-linejoin:bevel;-inkscape-stroke:none"
         d="M 43.127083,-50.667708 42.597916,-36.909375"
         id="path20"
         sodipodi:nodetypes="cc" />
    </g>
  </g>
</svg>
