<?xml version="1.0" encoding="UTF-8" standalone="no"?>
<!-- Created with Inkscape (http://www.inkscape.org/) -->

<svg
   width="26.230371mm"
   height="100.1248mm"
   viewBox="0 0 26.230371 100.1248"
   version="1.1"
   id="svg7857"
   sodipodi:docname="flatorpoint.svg"
   inkscape:version="1.2 (dc2aeda, 2022-05-15)"
   xmlns:inkscape="http://www.inkscape.org/namespaces/inkscape"
   xmlns:sodipodi="http://sodipodi.sourceforge.net/DTD/sodipodi-0.dtd"
   xmlns="http://www.w3.org/2000/svg"
   xmlns:svg="http://www.w3.org/2000/svg"
   xmlns:inkstitch="http://inkstitch.org/namespace">
  <metadata
     id="metadata8040">
    <inkstitch:collapse_len_mm />
    <inkstitch:min_stitch_len_mm />
  </metadata>
  <sodipodi:namedview
     id="namedview7859"
     pagecolor="#ffffff"
     bordercolor="#666666"
     borderopacity="1.0"
     inkscape:showpageshadow="2"
     inkscape:pageopacity="0.0"
     inkscape:pagecheckerboard="0"
     inkscape:deskcolor="#d1d1d1"
     inkscape:document-units="mm"
     showgrid="false"
     inkscape:zoom="0.2102413"
     inkscape:cx="54.699052"
     inkscape:cy="461.37462"
     inkscape:window-width="1309"
     inkscape:window-height="674"
     inkscape:window-x="0"
     inkscape:window-y="25"
     inkscape:window-maximized="0"
     inkscape:current-layer="layer1" />
  <defs
     id="defs7854">
    <marker
       orient="auto"
       id="inkstitch-needle-point">
      <circle
         cx="0"
         cy="0"
         r="1.5"
         style="opacity:0.8;fill:context-stroke"
         id="circle8043" />
    </marker>
  </defs>
  <g
     inkscape:label="Layer 1"
     inkscape:groupmode="layer"
     id="layer1"
     transform="matrix(0.45021958,0,0,0.45021958,-4.8367825,-12.393491)">
    <path
       style="fill:none;stroke:#000000;stroke-width:0.264583px;stroke-linecap:butt;stroke-linejoin:miter;stroke-opacity:1"
       d="m 44.04661,27.686442 c 0,0 -37.5652982,29.124721 -32.720339,47.822031 4.235256,16.34439 42.600534,5.986353 45.305084,22.652543 2.755818,16.982114 -36.495762,36.495764 -36.495762,36.495764"
       id="path7978"
       sodipodi:nodetypes="caac"
       inkstitch:stroke_method="1" />
    <path
       style="fill:none;stroke:#5f265c;stroke-width:0.264583px;stroke-linecap:butt;stroke-linejoin:miter;stroke-opacity:1"
       d="m 56.148649,142.82991 c 0,0 -37.565298,29.12472 -32.720339,47.82203 4.235256,16.34439 42.600534,5.98635 45.305084,22.65254 2.755818,16.98212 -36.495762,36.49577 -36.495762,36.49577"
       id="path7978-9"
       sodipodi:nodetypes="caac"
       inkstitch:stroke_method="1"
       inkstitch:join_style="1" />
  </g>
  <g
     id="__inkstitch_stitch_plan__"
     inkscape:label="Stitch Plan"
     inkscape:groupmode="layer"
     transform="matrix(0.45021958,0,0,0.45021958,-4.8367825,-12.393491)">
    <g
       id="__color_block_0__"
       inkscape:label="color block 1">
      <path
         id="object9289"
         style="fill:none;stroke:#000000;stroke-width:0.4;marker-start:url(#inkstitch-needle-point);marker-mid:url(#inkstitch-needle-point);marker-end:url(#inkstitch-needle-point)"
         d="m 166.4754,104.64168 -2.0766,1.66676 -2.07661,1.66676 2.07661,-1.66676 2.0766,-1.66676 -4.15321,3.33352 -4.1211,3.37312 -4.09344,3.40664 -4.04399,3.46519 -4.03518,3.47545 -3.99128,3.52578 -3.96635,3.5538 -3.96635,3.5538 -4.02768,3.77811 -4.02769,3.7781 -4.01512,3.79146 -3.92451,3.88517 -3.92451,3.88518 -3.92451,3.88517 -3.64719,3.78256 -3.62791,3.80106 -3.579974,3.84624 -3.539079,3.8839 -3.504568,3.91507 -3.438518,3.97321 -3.419526,3.98957 -3.529088,4.32258 -3.491553,4.35297 -3.412218,4.41542 -3.324807,4.48162 -3.278036,4.51594 -2.992202,4.43088 -2.941072,4.46498 -2.819373,4.54281 -2.692592,4.61908 -2.61701,4.66232 -2.188103,4.4048 -2.116629,4.43959 -1.928467,4.5245 -1.741156,4.59983 -1.620063,4.64386 -1.246189,4.47959 -1.017108,4.5371 -0.761917,4.58685 -0.479091,4.62496 -0.102908,4.63916 0.245021,4.63382 0.616693,4.59914 0.912076,3.90915 1.269355,3.80815 1.634846,3.66614 2.905666,4.67257 3.556891,4.19813 3.504911,3.19189 3.817749,2.81021 4.010928,2.52685 3.665056,1.85902 3.737857,1.70792 3.797359,1.57119 5.185426,1.77057 5.254415,1.55393 5.303437,1.37735 5.338956,1.23253 5.365215,1.11265 5.42291,0.93807 5.4229,0.93806 5.42968,0.89805 5.44246,0.81698 5.44247,0.81698 5.44165,0.82239 5.44113,0.82581 5.44113,0.82581 5.42836,0.90601 5.4163,0.97544 5.40042,1.05989 5.37862,1.16549 4.76359,1.20978 4.72813,1.34171 4.68103,1.49778 4.6167,1.68567 3.6023,1.60781 3.53537,1.75008 3.45242,1.90852 3.74069,2.56608 3.48654,2.90197 3.15297,3.26133 3.1282,4.31455 2.4191,4.74857 1.25012,3.6484 0.88744,3.75314 0.53429,3.81944 0.12326,4.06926 -0.2384,4.06413 -0.57749,4.02996 -1.00074,4.16366 -1.2945,4.08189 -1.55616,3.98948 -1.88233,3.94304 -2.07425,3.84554 -2.25799,3.74062 -2.35634,3.67946 -2.99208,4.07014 -3.10892,3.98162 -3.21275,3.89831 -3.26118,3.59186 -3.31592,3.54138 -3.40792,3.45293 -3.49479,3.36499 -3.53146,3.32648 -3.77296,3.33224 -3.8051,3.29548 -3.86599,3.22384 -3.92016,3.15775 -3.94617,3.12519 -3.9611,2.99392 -3.98,2.96874 -4.02108,2.91286 -4.05512,2.8653 -4.07383,2.83863 -4.19352,2.77439 -4.19353,2.7744 -4.19352,2.77439 -4.26008,2.67107 -4.26885,2.65703 -4.26885,2.65704 -4.80572,2.83746 -4.80572,2.83746 -4.844658,2.77045 -4.86138,2.74101 -4.896897,2.67704 -4.921122,2.63223 -4.954555,2.56876 1.397925,-5.39199 1.397926,-5.39199 1.397926,-5.392 1.397925,-5.39199 4.40405,-2.28334 4.37433,-2.33976 4.352797,-2.37959 4.321227,-2.43645 4.306366,-2.46262 4.27175,-2.52219 4.27175,-2.52219 4.55344,-2.83417 4.55032,-2.83916 4.50859,-2.90425 4.47309,-2.95935 4.4731,-2.95936 4.52231,-3.15995 4.49056,-3.20481 4.44049,-3.27376 4.40542,-3.32099 4.37885,-3.47966 4.33165,-3.53799 4.25496,-3.6298 4.19932,-3.69433 3.91569,-3.70464 3.84449,-3.77796 3.72525,-3.89556 3.63569,-3.97973 2.85579,-3.46517 2.76348,-3.53921 2.65963,-3.61791 2.76357,-4.37895 2.56723,-4.49552 2.28778,-4.64434 1.38326,-3.5462 1.15066,-3.62835 0.88955,-3.70103 0.61929,-5.38847 -0.004,-5.4234 -0.86932,-5.06312 -1.50566,-4.91108 -2.15031,-4.22096 -2.78062,-3.83515 -2.80264,-2.89896 -3.09915,-2.57953 -3.32505,-2.28096 -4.64008,-2.47431 -4.77334,-2.20694 -4.10373,-1.49838 -4.16092,-1.33135 -4.20278,-1.19263 -4.23431,-1.07536 -5.21738,-1.12165 -5.23934,-1.01412 -5.2551,-0.92905 -5.26799,-0.85263 -5.27625,-0.80078 -5.2765,-0.79913 -5.27721,-0.79441 -5.27754,-0.79222 -5.26824,-0.85118 -5.25967,-0.90318 -5.25858,-0.90963 -4.769078,-0.98903 -4.745738,-1.09558 -4.714167,-1.22432 -4.670591,-1.38126 -4.609267,-1.57384 -5.036715,-2.15566 -4.919082,-2.41157 -3.565269,-2.24609 -3.393555,-2.49796 -3.115477,-2.83724 -3.16168,-3.73167 -2.582815,-4.15339 -2.017389,-4.9513 -1.374857,-5.16732 -0.548172,-4.08812 -0.217796,-4.11896 0.09147,-4.12369 0.651605,-5.47015 1.054231,-5.40678 1.409101,-5.32619 1.826958,-5.15007 2.017888,-5.07743 2.268175,-4.97061 2.415351,-4.90195 2.326231,-4.14429 2.393416,-4.10585 2.506109,-4.03805 2.614286,-3.96887 2.659735,-3.93856 2.91381,-4.01417 2.955384,-3.98366 3.033082,-3.92482 3.103603,-3.8693 3.136967,-3.84231 3.548989,-4.1349 3.585441,-4.10314 3.649706,-4.04622 3.69439,-4.00543 3.74808,-3.95523 3.77942,-3.92539 3.48845,-3.45349 3.48845,-3.45349 3.48845,-3.45348 3.569,-3.37019 3.58016,-3.35831 3.58017,-3.35832 4.0293,-3.61021 4.03564,-3.60309 4.07136,-3.56258 4.10371,-3.5254 4.13957,-3.48302 4.1795,-3.43517 4.21505,-3.39146 -0.88994,4.67079 -0.88993,4.67079 -0.88994,4.6708 -0.88993,4.67079 -0.88993,4.67079 -4.29871,3.46725 -4.25939,3.51543 -4.20659,3.57835 -4.17325,3.61722 -4.12618,3.6709 -4.11325,3.68542 -3.62943,3.40453 -3.62634,3.40783 -3.58459,3.45125 -3.53646,3.50101 -3.53646,3.50102 -3.46882,3.56777 -3.31456,3.48588 -3.26601,3.5314 -3.22558,3.56838 -3.17188,3.61605 -3.134706,3.64852 -3.050722,3.71889 -3.201965,4.01493 -3.115347,4.08239 -3.039819,4.1391 -2.928372,4.21793 -2.834304,4.28248 -2.835132,4.63511 -2.700454,4.71506 -2.489113,4.82856 -2.146118,4.62584 -1.90269,4.73092 -1.711361,4.80424 -1.364815,5.24858 -0.988138,5.33201 -0.412557,5.39764 0.150473,5.41184 0.779045,4.86029 1.397341,4.71934 1.577116,3.34274 1.954224,3.1426 2.510754,2.9634 2.834886,2.65066 3.114779,2.31859 4.326466,2.57767 4.551791,2.16262 4.566854,1.77297 4.667734,1.49109 4.726627,1.29382 4.767273,1.13626 4.79599,1.00923 5.06138,0.87553 5.06348,0.86307 5.07367,0.80035 5.07963,0.76251 5.079,0.76673 5.07839,0.77075 5.07441,0.79571 5.06085,0.87801 5.04533,0.96295 5.02343,1.07137 4.93083,1.28878 4.87883,1.47232 4.80436,1.69941 4.17668,1.93107 4.06006,2.16503 4.26532,3.12435 3.80816,3.66516 2.43305,3.35576 1.88152,3.69333 1.31745,4.2972 0.76066,4.43024 0.003,4.74547 -0.54188,4.71491 -1.28176,4.8258 -1.71378,4.69033 -2.0018,4.0638 -2.24633,3.93358 -2.41813,3.83158 -2.32717,3.16567 -2.41805,3.09681 -2.49881,3.03202 -3.18123,3.48227 -3.25959,3.40861 -3.36393,3.30572 -3.42624,3.24156 -4.17411,3.66532 -4.23879,3.59004 -4.32443,3.48658 -4.39135,3.40155 -4.45204,3.32218 -4.51356,3.23807 -4.55133,3.18489 -3.91396,2.58943 -3.91395,2.58944 -3.94502,2.54121 -3.98153,2.48427 -3.98426,2.4799 -4.36075,2.57474 -4.37084,2.55736 -4.40258,2.50247 -4.429672,2.45404 -4.459182,2.40013 -4.491467,2.33914 1.397926,-5.392 1.397926,-5.39199 1.397925,-5.39199 1.397926,-5.39199 4.544558,-2.37658 4.51005,-2.4415 4.47162,-2.51113 4.43867,-2.56886 4.41622,-2.60749 4.35889,-2.70203 4.34854,-2.71885 4.27986,-2.82563 4.2772,-2.82975 4.54925,-3.18785 4.49624,-3.26192 4.43812,-3.34077 4.34284,-3.46376 4.26354,-3.56044 4.17768,-3.66123 3.80989,-3.61917 3.69778,-3.73282 3.55979,-3.86533 3.32639,-4.0669 3.15617,-4.20092 2.07268,-3.28421 1.92542,-3.37164 1.71584,-3.48326 1.46894,-4.02028 1.09866,-4.1364 0.46447,-4.04135 -0.003,-4.06755 -0.65199,-3.79735 -1.12925,-3.68331 -1.61273,-3.16571 -2.08547,-2.87637 -3.26414,-3.14156 -3.65599,-2.67802 -3.48005,-1.85574 -3.58001,-1.6552 -4.11802,-1.45664 -4.18185,-1.26199 -4.22643,-1.10466 -5.38588,-1.1303 -5.41102,-1.00358 -5.43261,-0.87928 -5.44113,-0.82581 -5.44192,-0.82059 -5.44247,-0.81698 -5.42742,-0.91138 -5.4229,-0.93807 -4.46664,-0.94719 -4.43729,-1.07538 -4.395026,-1.23607 -4.332683,-1.43938 -3.777536,-1.61675 -3.689312,-1.80867 -3.946568,-2.62126 -3.609158,-3.06471 -2.37126,-2.79875 -1.937111,-3.11505 -1.513041,-3.71347 -1.031143,-3.87549 -0.492813,-4.6107 -0.01306,-4.63738 0.488704,-4.10261 0.790673,-4.05509 1.056826,-3.99463 1.853869,-5.14029 2.142948,-5.02508 2.399462,-4.90968 2.193434,-3.87807 2.286092,-3.8238 2.410325,-3.74677 2.484982,-3.69808 2.73949,-3.75756 2.799811,-3.71262 2.883182,-3.64829 2.934651,-3.60722 3.196622,-3.71923 3.24451,-3.67732 3.30399,-3.62411 3.36048,-3.57175 3.39891,-3.53533 3.98698,-3.94701 3.98986,-3.94404 4.08383,-3.84672 4.09722,-3.83233 4.1784,-3.74379 4.20692,-3.71156 4.25584,-3.65551 4.31473,-3.58564 4.36282,-3.52705 -0.88993,4.67079 -0.88993,4.67079 -0.88994,4.6708 -0.88993,4.67079 -0.88994,4.67079 -3.68103,2.97633 -3.63927,3.02718 -3.59074,3.08473 -3.54714,3.13466 -3.52565,3.15894 -3.53675,3.31759 -3.52053,3.3346 -3.44616,3.41161 -3.42978,3.42777 -3.35518,3.5011 -3.52443,3.82197 -3.45115,3.8881 -3.36966,3.95883 -3.267133,4.04416 -2.761261,3.61976 -2.688345,3.6744 -2.540158,3.7782 -2.436866,3.84542 -2.440705,4.24942 -2.210188,4.3724 -1.961412,4.48914 -1.667592,4.60773 -1.256627,5.00588 -0.689493,5.11415 0.07824,5.1586 0.55646,3.47163 0.998101,3.37096 2.522386,4.63238 2.792722,3.07605 3.250434,2.59013 3.090332,1.84119 3.25128,1.54473 4.090294,1.54922 4.187801,1.2664 4.24662,1.05476 4.27848,0.91774 5.16467,0.8934 5.17309,0.84233 5.18324,0.77851 5.18228,0.78485 5.17797,0.81195 5.15873,0.92586 5.13115,1.06809 4.22768,1.12081 4.16919,1.31979 4.05108,1.64268 3.87402,2.02858 3.04665,2.23168 2.72012,2.61798 1.73789,2.39697 1.34394,2.63809 0.94104,3.06943 0.54333,3.16445 0.002,3.38963 -0.38705,3.36779 -0.91555,3.447 -1.22412,3.35024 -2.19811,4.32699 -2.56351,4.12226 -3.3039,4.36366 -3.57006,4.14727 -3.789,3.94985 -3.96205,3.77684 -4.18126,3.65714 -4.29512,3.5225 -4.39148,3.40135 -4.47496,3.29113 -4.54691,3.19118 -4.58272,3.03188 -4.61725,2.97826 -4.66471,2.90415 -4.72832,2.79926 -4.76738,2.7321 -4.81376,2.64946 -4.863864,2.55641 1.397926,-5.39199 1.397928,-5.39199 1.39793,-5.39199 1.39792,-5.392 4.5364,-2.39203 4.48108,-2.49411 4.43119,-2.58173 4.378,-2.67052 4.32653,-2.75307 4.2772,-2.82975 4.53727,-3.20471 4.45181,-3.32231 4.3248,-3.48594 4.1979,-3.63769 3.16964,-3.02146 3.0312,-3.15989 2.85605,-3.31781 2.64313,-3.49093 2.33973,-3.83347 1.9119,-4.05994 1.26939,-4.30378 0.30784,-5.40594 -1.18749,-4.9871 -2.46547,-4.02805 -2.17609,-2.09438 -2.43733,-1.78535 -4.16426,-2.09851 -4.39188,-1.56647 -4.50144,-1.2245 -4.79068,-0.98906 -4.81985,-0.8362 -4.83656,-0.73406 -4.83738,-0.72861 -4.83207,-0.76223 -4.82036,-0.83383 -3.96645,-0.85971 -3.92647,-1.02496 -3.8615,-1.24735 -3.599076,-1.58424 -3.387332,-1.9886 -3.028643,-2.50142 -2.872247,-3.94253 -1.696124,-5.05931 -0.328541,-3.0738 -0.0087,-3.09159 0.551559,-4.09413 1.005909,-4.00742 1.922423,-5.11375 2.341763,-4.93628 1.960917,-3.44077 2.087675,-3.36481 2.201297,-3.29224 2.83396,-3.86326 2.95761,-3.76919 3.06409,-3.683 3.16043,-3.60092 3.24276,-3.5271 3.31558,-3.45881 3.98698,-3.94702 4.05347,-3.87816 4.12428,-3.80282 4.19741,-3.7223 4.27113,-3.63744 4.35113,-3.54136 -0.88993,4.67079 -0.88993,4.67079 -0.88994,4.67079 -0.88993,4.6708 -0.88994,4.67079 -3.91019,3.19434 -3.8217,3.29969 -3.74853,3.38244 -3.6696,3.46804 -3.58828,3.55232 -3.70978,3.91028 -3.57929,4.02984 -3.41959,4.16595 -3.22216,4.32064 -2.81714,4.31776 -2.49372,4.51062 -2.034581,4.73428 -1.413666,5.27087 -0.24718,5.44453 0.766562,3.60705 1.679605,3.27793 3.35474,3.2001 4.07612,2.23117 4.96685,1.68937 5.11507,1.1835 5.42516,0.92472 5.44219,0.81879 5.43687,0.85254 5.39845,1.06694 5.03813,1.46436 4.75505,2.20276 3.11831,2.55628 2.19086,3.37455 0.89386,3.84752 -0.23412,3.94725 -1.61627,4.77481 -2.5245,4.37309 -2.6769,3.46441 -2.95185,3.23287 -3.14626,3.04529 -4.22061,3.61084 -4.39048,3.40226 -4.52274,3.22489 -3.84949,2.54677 -3.90952,2.45336 -3.96508,2.3624 -4.02141,2.26534 -4.07731,2.16304 1.39793,-5.392 1.39793,-5.39199 1.39792,-5.39199 1.39793,-5.39199 4.50874,-2.44307 4.40459,-2.62613 4.30187,-2.79141 4.49454,-3.26351 4.26135,-3.56181 3.10042,-3.09068 2.74958,-3.40437 1.683,-2.9154 1.07752,-3.1832 -0.43983,-5.19651 -3.53944,-3.95389 -3.17004,-1.46851 -3.35875,-0.97623 -5.10094,-0.95751 -5.1328,-0.77525 -5.1132,-0.89143 -4.99872,-1.38382 -2.6669,-1.25391 -2.34063,-1.78322 -2.28418,-4.50092 -0.11507,-3.59969 0.72518,-3.53378 1.40053,-3.53163 1.7919,-3.35079 2.06461,-3.1915 2.89578,-3.81623 3.11226,-3.64196 3.27917,-3.49295 4.02022,-3.91259 4.16085,-3.76256 4.31113,-3.58941 -0.88993,4.6708 -0.88993,4.67079 -0.88994,4.67079 -0.88993,4.6708 -0.88994,4.67079 -3.63587,3.11305 -3.41293,3.35594 -3.10727,3.63914 -2.54165,4.01867 -1.22131,4.55891 0.84262,2.80982 2.06184,1.62074 4.73575,1.31337 4.87068,0.77059 4.66794,1.50671 1.76972,1.97695 0.21992,2.59825 -1.67932,3.45611 -2.62594,2.84072 -3.44583,2.75795 -3.68803,2.42697 -3.85169,2.15804 1.39793,-5.39199 1.39792,-5.39199 1.39793,-5.39199 1.39792,-5.392 -0.69896,2.696 -0.69896,2.696 0.69896,-2.696 0.69896,-2.696"
         transform="scale(0.264583)"
         inkstitch:manual_stitch="true" />
    </g>
    <g
       id="__color_block_1__"
       inkscape:label="color block 2">
      <path
         id="object4322"
         style="fill:none;stroke:#5f265b;stroke-width:0.4;marker-start:url(#inkstitch-needle-point);marker-mid:url(#inkstitch-needle-point);marker-end:url(#inkstitch-needle-point)"
         d="m 212.21539,539.82964 -2.08072,1.73983 -2.08073,1.73983 2.08073,-1.73983 2.08072,-1.73983 -4.16145,3.47966 -4.12879,3.51836 -4.10055,3.55121 -4.05036,3.60836 -4.04085,3.619 -3.99637,3.66807 -3.9706,3.69595 -3.97028,3.69629 -3.99058,3.88083 -3.99048,3.88094 -3.97776,3.89398 -3.8867,3.98486 -3.88601,3.98554 -3.8859,3.98565 -3.57631,3.84725 -3.55696,3.86515 -3.50908,3.90866 -3.468,3.94516 -3.43325,3.97543 -3.36711,4.03161 -3.34758,4.04783 -3.42637,4.34002 -3.38907,4.36922 -3.31034,4.42914 -3.22342,4.49281 -3.17662,4.52602 -2.8756,4.41216 -2.82511,4.44466 -2.70518,4.51865 -2.57995,4.5913 -2.50497,4.63264 -2.071653,4.35299 -2.001554,4.38567 -1.817363,4.46513 -1.633681,4.53556 -1.514644,4.5767 -1.144358,4.39531 -0.921373,4.44739 -0.673086,4.49168 -0.398055,4.52435 -0.03255,4.52382 0.303861,4.51372 0.662878,4.4751 0.946619,3.79844 1.289987,3.69595 1.640725,3.55418 2.860834,4.5154 3.484313,4.05373 3.42553,3.07636 3.72358,2.70795 3.55565,2.21455 3.72647,1.90971 3.81412,1.73147 4.50126,1.78297 4.59251,1.53591 4.64731,1.36233 5.08968,1.30995 5.12325,1.17185 5.14811,1.05725 5.13953,0.87927 5.13953,0.87926 5.14577,0.84201 5.15756,0.76634 5.15784,0.7646 5.1571,0.76958 5.15661,0.77284 5.15659,0.77294 5.14491,0.84712 5.13351,0.91372 5.11852,0.99426 5.09784,1.09534 4.45053,1.12319 4.41739,1.24714 4.37325,1.39407 4.31267,1.57147 4.97097,2.30078 4.82983,2.58333 3.44883,2.37956 3.20988,2.69318 2.89553,3.0286 2.86272,4.00436 2.19643,4.40517 1.4801,5.09943 0.8093,5.2484 -0.10007,5.61013 -0.75186,5.56101 -0.9983,3.81144 -1.26957,3.72986 -1.51073,3.63886 -2.46948,4.74831 -2.75717,4.58681 -2.95919,4.46064 -2.81928,3.6773 -2.92545,3.59341 -3.01985,3.51445 -3.82252,4.00527 -3.91324,3.91619 -4.03409,3.79162 -4.10646,3.71368 -3.48928,2.94753 -3.518,2.9132 -3.57223,2.84642 -3.62062,2.78463 -3.64402,2.75392 -4.54168,3.26067 -4.57654,3.21136 -4.6264,3.13915 -4.65815,3.092 -4.5666,2.8661 -4.56674,2.86588 -4.60135,2.80918 -4.64283,2.74088 -4.64607,2.7354 -4.31445,2.41773 -4.31454,2.41756 -4.34811,2.35666 -4.3628,2.32935 -4.39346,2.27098 -4.41462,2.22959 -4.44358,2.17127 4.81439,-2.64308 4.77963,-2.70545 4.75117,-2.75503 4.71806,-2.81144 4.69221,-2.85421 4.66662,-2.89608 4.62929,-2.95455 4.59147,-3.01381 4.5832,-3.02635 4.44337,-3.09386 4.44322,-3.09408 4.40685,-3.14499 4.35374,-3.21873 4.31514,-3.27024 4.40841,-3.46154 4.35911,-3.52292 4.29522,-3.60098 4.23425,-3.67235 4.0512,-3.68463 3.97734,-3.76332 3.8744,-3.87005 3.77814,-3.96379 2.91981,-3.26524 2.86461,-3.31355 2.71142,-3.44021 2.62206,-3.50884 3.0217,-4.39944 2.71805,-4.59463 2.48783,-4.72238 1.55684,-3.46201 1.30274,-3.56526 1.06939,-3.64215 0.93241,-4.74723 0.39318,-4.82144 -0.12803,-4.83631 -0.95103,-5.00427 -1.56891,-4.84568 -2.15805,-4.1421 -2.76795,-3.76198 -2.78011,-2.84138 -3.06579,-2.53044 -3.2842,-2.23972 -4.56631,-2.42717 -4.69507,-2.16825 -3.99753,-1.46231 -4.05263,-1.30184 -4.09317,-1.16813 -4.12384,-1.05474 -5.5042,-1.1848 -5.52821,-1.06716 -5.54529,-0.97471 -5.56022,-0.88544 -5.56493,-0.85618 -5.56557,-0.85205 -5.56631,-0.84722 -5.55995,-0.88702 -5.54845,-0.95699 -5.546,-0.97131 -4.50118,-0.94397 -4.47887,-1.04468 -4.44867,-1.16658 -4.40693,-1.31552 -4.34802,-1.49874 -4.70042,-2.03893 -4.5878,-2.2806 -3.31288,-2.11502 -3.14948,-2.35139 -2.88464,-2.66965 -2.91801,-3.50305 -2.36945,-3.89509 -1.79947,-4.62435 -1.19249,-4.81728 -0.44707,-3.80344 -0.13721,-3.82716 0.15261,-3.82658 0.69705,-5.05556 1.07189,-4.98936 1.40194,-4.90765 1.77633,-4.71847 1.95232,-4.64759 2.18314,-4.54369 2.31927,-4.47682 2.77202,-4.69056 2.88488,-4.62154 3.03645,-4.52343 3.12789,-4.4612 3.4138,-4.49654 3.48668,-4.43998 3.58768,-4.35884 3.65028,-4.30679 3.27735,-3.65405 3.30982,-3.62447 3.36776,-3.57083 3.40794,-3.53247 3.45625,-3.4852 3.48478,-3.45679 3.81323,-3.6099 3.81343,-3.60971 3.85594,-3.56369 3.90749,-3.50766 3.9117,-3.50296 4.22466,-3.60196 4.23761,-3.58665 4.28474,-3.53013 4.31825,-3.48903 4.37173,-3.42187 4.41137,-3.37061 -3.8031,3.21893 -3.77025,3.25734 -3.73359,3.29916 -3.69996,3.337 -3.67035,3.36941 -3.63702,3.40547 -3.63079,3.41213 -3.82211,3.7502 -3.81792,3.75445 -3.76611,3.80592 -3.72134,3.8502 -3.72116,3.85039 -3.41625,3.71483 -3.3854,3.74287 -3.33473,3.7881 -3.29261,3.82479 -3.22835,3.87913 -3.44003,4.2428 -3.35133,4.31345 -3.28201,4.36623 -3.18255,4.43931 -3.00144,4.36806 -2.85641,4.46469 -2.75398,4.52814 -2.60365,4.61637 -2.4236,4.64158 -2.19464,4.75519 -2.00682,4.83666 -1.63397,4.68631 -1.39817,4.75958 -1.05249,4.84914 -0.61983,4.76203 -0.20969,4.7954 0.251,4.7948 0.86249,4.82843 1.47767,4.67678 1.61824,3.29864 1.97538,3.10288 2.51646,2.91659 2.83463,2.60409 3.10621,2.27659 4.29707,2.52315 4.51619,2.11365 4.47888,1.71702 4.57441,1.44679 4.63115,1.2548 4.67038,1.10108 4.69814,0.97685 5.4066,0.92223 5.40982,0.90293 5.42238,0.82355 5.42561,0.80282 5.42476,0.80859 5.42449,0.81035 5.40949,0.90445 5.39237,1.00114 5.36819,1.12342 4.65513,1.20729 4.60585,1.38226 4.53497,1.59933 3.89697,1.80422 3.78581,2.02662 3.95717,2.9225 3.52104,3.43296 2.23708,3.14145 1.7126,3.45546 1.14134,3.99445 0.61369,4.10918 -0.10089,4.38989 -0.61251,4.34857 -1.30346,4.43548 -1.70487,4.29768 -1.9547,3.70336 -2.17955,3.57532 -2.3374,3.47535 -3.37261,4.26189 -3.52922,4.13325 -3.00445,3.1099 -3.07504,3.03971 -3.16909,2.94155 -3.22548,2.88008 -3.87131,3.2106 -3.92837,3.14025 -4.00388,3.04356 -4.0638,2.96271 -4.11851,2.88665 -4.17351,2.80652 -4.20723,2.7558 -4.51176,2.78849 -4.51349,2.78563 -4.58371,2.66853 -4.59262,2.65309 -4.64387,2.56244 -4.66575,2.52212 -4.69893,2.45983 -4.73829,2.3832 -4.77306,2.3127 4.81013,-2.69717 4.77178,-2.76449 4.72912,-2.83682 4.69233,-2.89718 4.66761,-2.93708 4.59443,-3.05009 4.58309,-3.06727 4.49159,-3.17259 4.48616,-3.1801 4.40428,-3.29267 4.3533,-3.35957 4.29493,-3.4341 4.20758,-3.54034 4.14064,-3.61841 4.15517,-3.84417 4.02498,-3.97941 3.89845,-4.10376 2.97822,-3.4006 2.85428,-3.50384 2.70578,-3.62091 2.31523,-3.4167 2.0772,-3.56753 1.89889,-3.66488 1.68105,-4.06451 1.30136,-4.2021 0.91227,-5.53242 -0.0534,-5.60718 -0.75542,-3.86503 -1.23015,-3.74072 -1.67422,-3.19237 -2.14232,-2.89908 -3.33356,-3.16434 -3.7205,-2.70133 -3.52229,-1.87044 -3.62107,-1.67169 -4.1129,-1.45958 -4.17603,-1.2679 -4.22035,-1.11256 -5.2692,-1.11929 -5.29383,-0.99672 -5.31481,-0.87801 -5.32384,-0.82248 -5.32457,-0.81768 -5.32514,-0.81396 -5.31052,-0.90418 -5.30562,-0.93276 -4.28097,-0.92069 -4.25232,-1.04413 -4.211,-1.19924 -4.14989,-1.39603 -3.56716,-1.55389 -3.481,-1.73801 -3.70381,-2.50412 -3.37647,-2.92616 -2.20665,-2.66342 -1.7883,-2.96057 -1.34557,-3.51032 -0.88314,-3.65462 -0.36793,-4.33382 0.088,-4.34893 0.55041,-3.82481 0.83469,-3.77283 1.08491,-3.70924 1.84545,-4.73644 2.11362,-4.6215 2.35311,-4.50612 2.83411,-4.6935 3.0085,-4.58289 3.16618,-4.47632 3.46538,-4.48507 3.58024,-4.39349 3.68568,-4.30589 3.72385,-4.08045 3.80444,-4.00519 3.87827,-3.93379 3.94598,-3.86605 4.06114,-3.78709 4.08211,-3.76405 4.16072,-3.67739 4.20744,-3.6232 4.26473,-3.55621 4.31989,-3.4889 4.3747,-3.41976 4.43645,-3.33947 -3.91015,3.37854 -3.86686,3.42796 -3.81075,3.49036 -3.76739,3.53697 -3.73828,3.56786 -3.66958,3.63834 -3.65452,3.6536 -3.56923,3.73687 -3.56396,3.742 -3.37836,3.7376 -3.32755,3.78277 -3.26408,3.83775 -3.18722,3.90176 -3.1108,3.96272 -3.02278,4.03039 -2.91961,4.10571 -2.92294,4.38402 -2.76585,4.48517 -2.58205,4.59337 -1.77974,3.46653 -1.60752,3.55047 -1.46765,3.60995 -1.74931,5.24757 -1.21047,5.39548 -0.57263,5.31506 0.21387,5.34027 0.66218,3.57865 1.11834,3.46324 2.68556,4.73386 2.91038,3.12893 3.37138,2.62851 3.18455,1.86033 3.34573,1.55754 4.14298,1.54321 4.23733,1.2651 4.29596,1.05125 4.32755,0.91326 5.09204,0.86416 5.0998,0.81623 5.10999,0.75085 5.10906,0.7571 5.1052,0.78191 5.08667,0.89406 5.05934,1.03738 5.38112,1.44776 5.25044,1.85935 4.97126,2.51233 2.86039,2.1191 2.54178,2.49049 2.84022,4.78428 0.80258,2.8895 0.41808,2.96993 -0.10171,3.16967 -0.47317,3.13613 -0.97385,3.19458 -1.26419,3.09157 -2.20949,3.95997 -2.54798,3.75233 -3.20442,3.93128 -3.44789,3.71798 -3.65068,3.52082 -3.80789,3.35075 -3.92329,3.1679 -4.02286,3.04019 -4.10861,2.92301 -4.18385,2.81467 -4.24771,2.71753 -4.84246,2.91 -4.89396,2.82165 -4.94442,2.73265 -4.99384,2.64149 -5.04699,2.53842 -5.10612,2.41727 4.80791,-2.78418 4.74921,-2.88315 4.69481,-2.97087 4.63765,-3.05874 4.58136,-3.14326 4.45336,-3.22692 4.40068,-3.29766 4.31185,-3.41332 4.21992,-3.52615 4.11182,-3.65181 3.91505,-3.74164 3.73482,-3.92141 3.53821,-4.09947 3.2467,-4.33324 2.63945,-4.23167 2.19715,-4.47757 1.55432,-4.73631 0.5996,-3.91455 -0.0794,-3.95967 -1.4512,-5.36155 -2.70707,-4.27883 -2.35431,-2.22187 -2.62372,-1.89792 -4.39831,-2.20938 -4.63139,-1.665 -4.74703,-1.30753 -4.87463,-1.02415 -4.90422,-0.87218 -4.92167,-0.7683 -4.92279,-0.76113 -4.91752,-0.7936 -4.90509,-0.86792 -3.91733,-0.86652 -3.87691,-1.03044 -3.81045,-1.25372 -3.46857,-1.5661 -3.25716,-1.96011 -2.89595,-2.46256 -2.36892,-3.28999 -1.46888,-3.77446 -0.53334,-3.77151 0.0751,-3.81047 0.66632,-3.88069 1.10284,-3.78048 1.84466,-4.43884 2.20351,-4.27197 2.50423,-4.1032 2.731,-3.95633 3.19804,-4.17389 3.37237,-4.03471 3.52384,-3.90308 3.65821,-3.77785 3.76441,-3.67214 3.84628,-3.54155 3.90829,-3.47289 3.98577,-3.38398 4.07229,-3.27959 4.14242,-3.19036 4.22385,-3.08175 -3.89223,3.49115 -3.8171,3.57309 -3.74802,3.64551 -3.68248,3.71149 -3.61697,3.77528 -3.55093,3.83789 -3.08542,3.5332 -3.00761,3.59959 -2.9187,3.67199 -2.81163,3.75455 -2.68418,3.84656 -2.4343,3.81163 -2.2497,3.92338 -2.01867,4.04622 -1.70829,4.1871 -1.09487,3.4496 -0.74006,3.54147 -0.3247,3.47454 0.1857,3.4839 1.01006,4.01569 1.98832,3.62906 3.79105,3.493 4.56247,2.42356 3.57445,1.27452 3.66683,0.98332 3.71339,0.79126 4.52665,0.7548 4.53879,0.67738 4.54089,0.66388 4.53178,0.72178 4.50239,0.88605 5.00746,1.43246 4.71945,2.18671 2.99988,2.51505 2.05701,3.32033 0.68393,3.72318 -0.43399,3.76518 -1.82395,4.47882 -2.6871,4.03089 -2.71693,3.12089 -2.97413,2.87614 -3.15482,2.67826 -4.06247,3.04258 -4.21267,2.83086 -4.33088,2.64707 -4.38206,2.44455 -4.45506,2.30887 -4.51106,2.19731 -4.58593,2.0362 4.80005,-2.98891 4.70237,-3.1405 4.59097,-3.30089 4.35123,-3.37008 4.21678,-3.53655 4.04879,-3.72732 2.97122,-3.05663 2.7751,-3.23541 2.50635,-3.44678 2.11255,-3.83248 1.39555,-4.14292 0.24312,-3.92379 -0.97839,-3.8024 -1.88601,-2.75342 -2.61359,-2.0867 -3.83974,-1.77806 -4.06108,-1.20357 -4.55521,-0.91842 -4.58751,-0.74338 -4.58771,-0.74198 -4.55819,-0.90107 -4.4509,-1.32592 -2.73798,-1.34892 -2.37692,-1.90643 -1.96449,-3.79562 -0.11388,-4.08435 1.05816,-3.95668 2.27036,-4.47625 2.8802,-4.1138 2.88135,-3.39522 3.11191,-3.1855 3.29608,-2.9952 3.9135,-3.22469 4.067,-3.02848 4.22597,-2.80233 -3.99399,3.99294 -3.8327,4.14809 -3.67005,4.2923 -3.42305,4.49151 -2.35279,3.46417 -2.10688,3.61809 -1.54585,3.36044 -1.09395,3.5323 -0.32607,2.84729 0.31978,2.84358 2.62351,3.93948 4.98336,2.2029 4.69178,0.90224 4.73322,0.66842 4.66301,1.02504 3.80824,3.1672 -0.34387,3.29297 -3.1422,3.76459 -2.69784,1.86443 -2.9055,1.52268 -3.65956,1.41809 -3.77054,1.08956 3.7874,-3.142 3.43413,-3.52359 2.1503,-2.81025 1.54374,-3.17194 -0.79564,-4.28198 -3.50137,-1.5609 -3.77791,-0.87206 -0.61846,-1.28467 2.13363,-0.95148 0.67671,2.1877 -0.33835,-1.09385 -0.33836,-1.09385 0.33836,1.09385 0.33835,1.09385"
         transform="scale(0.264583)"
         inkstitch:manual_stitch="true" />
    </g>
  </g>
</svg>
