<?xml version="1.0" encoding="UTF-8" standalone="no"?>
<!-- Created with Inkscape (http://www.inkscape.org/) -->

<svg
   sodipodi:docname="guided-fill-group.svg"
   id="svg5"
   version="1.1"
   viewBox="0 0 210 297"
   height="297mm"
   width="210mm"
   inkscape:version="1.2 (dc2aeda, 2022-05-15)"
   xmlns:inkscape="http://www.inkscape.org/namespaces/inkscape"
   xmlns:sodipodi="http://sodipodi.sourceforge.net/DTD/sodipodi-0.dtd"
   xmlns:xlink="http://www.w3.org/1999/xlink"
   xmlns="http://www.w3.org/2000/svg"
   xmlns:svg="http://www.w3.org/2000/svg"
   xmlns:inkstitch="http://inkstitch.org/namespace">
  <metadata
     id="metadata3407">
    <inkstitch:collapse_len_mm />
  </metadata>
  <sodipodi:namedview
     id="namedview7"
     pagecolor="#ffffff"
     bordercolor="#666666"
     borderopacity="1.0"
     inkscape:showpageshadow="2"
     inkscape:pageopacity="0.0"
     inkscape:pagecheckerboard="0"
     inkscape:deskcolor="#d1d1d1"
     inkscape:document-units="mm"
     showgrid="false"
     inkscape:zoom="0.58234292"
     inkscape:cx="235.25657"
     inkscape:cy="528.89799"
     inkscape:window-width="1332"
     inkscape:window-height="675"
     inkscape:window-x="0"
     inkscape:window-y="25"
     inkscape:window-maximized="0"
     inkscape:current-layer="g7404" />
  <defs
     id="defs2">
    <marker
       markerWidth="25.28585692"
       markerHeight="25.28585692"
       refX="0.5"
       refY="24.8"
       orient="auto"
       id="Pencil"
       viewBox="0 0 25.28585667 25.28585667"
       preserveAspectRatio="xMidYMid"
       inkscape:isstock="true"
       inkscape:collect="always">
      <g
         id="g129150"
         transform="rotate(-45,9.8960744,24.301623)">
        <path
           style="fill:#ffeadb;fill-opacity:1;stroke:none;stroke-width:0.9;stroke-linejoin:round;stroke-miterlimit:4;stroke-dasharray:none"
           d="M 11.395811,16.291204 2.8389018,18 11.281989,13.379712 Z"
           id="path129102"
           sodipodi:nodetypes="cccc" />
        <path
           id="path129104"
           style="fill:context-stroke;fill-opacity:1;stroke:none"
           d="m 11.8654,20 h 14.2415 v 3 H 11.8654 c -0.96644,-0.984185 -0.960953,-2.091292 0,-3 z"
           sodipodi:nodetypes="ccccc" />
        <path
           id="path129106"
           style="fill:context-stroke;stroke:#000000;stroke-width:0"
           d="M 11.80696,16 H 26.1069 v 4 H 11.80696 c -1.211769,-1.198221 -1.221718,-2.780057 0,-4 z"
           sodipodi:nodetypes="ccccc" />
        <path
           style="fill:#ffdbc2;fill-opacity:1;stroke:none;stroke-width:0.9;stroke-linejoin:round;stroke-miterlimit:4;stroke-dasharray:none"
           d="M 10.8389,18 H 2.8389018 L 11.8389,15.8 Z"
           id="path129108"
           sodipodi:nodetypes="cccc" />
        <path
           style="fill:#f5ad7a;fill-opacity:1;stroke:none;stroke-width:0.9;stroke-linejoin:round;stroke-miterlimit:4;stroke-dasharray:none"
           d="M 11.079475,22.569659 2.8389018,18 11.585758,19.873429 Z"
           id="path129110"
           sodipodi:nodetypes="cccc" />
        <path
           style="fill:#fcc39c;fill-opacity:1;stroke:none;stroke-width:0.9;stroke-linejoin:round;stroke-miterlimit:4;stroke-dasharray:none"
           d="M 11.8389,20.2 2.8389018,18 10.8389,17.8 Z"
           id="path129112"
           sodipodi:nodetypes="cccc" />
        <path
           id="path129114"
           style="fill:context-stroke;fill-opacity:1;stroke:#000000;stroke-width:0"
           d="M 11.85202,13 H 26.1069 v 3 H 11.85202 c -1.047549,-0.941426 -0.993936,-2.069912 0,-3 z"
           sodipodi:nodetypes="ccccc" />
        <path
           style="fill:none;fill-opacity:1;stroke:#000000;stroke-width:0.9;stroke-linejoin:round;stroke-miterlimit:4;stroke-dasharray:none"
           d="M 11.8389,23 2.8389018,18 11.8389,13"
           id="path129116"
           sodipodi:nodetypes="ccc" />
        <path
           id="path129118"
           style="fill:none;stroke:#000000;stroke-width:0.9;stroke-linejoin:round;stroke-miterlimit:4;stroke-dasharray:none"
           d="M 11.80696,16 H 26.1069 v 4 H 11.80696 c -1.211769,-1.198221 -1.221718,-2.780057 0,-4 z"
           sodipodi:nodetypes="ccccc" />
        <path
           style="fill:#000000;fill-opacity:1;stroke:none;stroke-width:0.9;stroke-linejoin:round;stroke-miterlimit:4;stroke-dasharray:none"
           d="m 5.8389018,19.66663 -3,-1.66663 3,-1.66663 z"
           id="path129120"
           sodipodi:nodetypes="cccc" />
        <path
           id="path129122"
           style="opacity:0.480349;fill:#ffffff;fill-opacity:1;stroke:none;stroke-width:0.9;stroke-linejoin:round;stroke-miterlimit:4;stroke-dasharray:none"
           d="M 11.801044,13 H 25.1069 v 3 H 11.801044 c -0.977808,-0.941426 -0.927764,-2.069912 0,-3 z"
           sodipodi:nodetypes="ccccc" />
        <path
           id="path129124"
           style="opacity:0.349345;fill:#000000;fill-opacity:1;stroke:none;stroke-width:0.899999;stroke-linejoin:round;stroke-miterlimit:4;stroke-dasharray:none"
           d="m 11.8171,20 h 13.2898 v 3 H 11.8171 c -0.901857,-0.984185 -0.896736,-2.091292 0,-3 z"
           sodipodi:nodetypes="ccccc" />
        <path
           id="path129126"
           style="fill:none;fill-opacity:1;stroke:#000000;stroke-width:0.899999;stroke-linejoin:round;stroke-miterlimit:4;stroke-dasharray:none"
           d="m 11.8654,20 h 14.2415 v 3 H 11.8654 c -0.96644,-0.984185 -0.960953,-2.091292 0,-3 z"
           sodipodi:nodetypes="ccccc" />
        <rect
           style="fill:#ff5555;fill-opacity:1;stroke:none;stroke-width:0.9;stroke-linejoin:round;stroke-miterlimit:4;stroke-dasharray:none"
           id="rect129128"
           width="7"
           height="10"
           x="26.5"
           y="13"
           ry="2"
           rx="2" />
        <path
           id="path129130"
           style="fill:#ffffff;fill-opacity:0.18;stroke-width:0.9;stroke-linejoin:round"
           d="m 29,13 h 3.768096 l 0.695712,3 H 29 Z"
           sodipodi:nodetypes="ccccc" />
        <path
           id="path129132"
           style="fill-opacity:0.157303;stroke-width:0.9;stroke-linejoin:round"
           d="m 29,20 h 4.521784 l -0.927616,3 H 29 Z"
           sodipodi:nodetypes="ccccc" />
        <rect
           style="fill:none;fill-opacity:1;stroke:#000000;stroke-width:0.9;stroke-linejoin:round;stroke-miterlimit:4;stroke-dasharray:none"
           id="rect129134"
           width="7"
           height="10"
           x="26.5"
           y="13"
           ry="2"
           rx="2" />
        <path
           id="path129136"
           style="fill:none;fill-opacity:1;stroke:#000000;stroke-width:0.899999;stroke-linejoin:round;stroke-miterlimit:4;stroke-dasharray:none"
           d="m 11.8654,13 h 14.2415 v 3 H 11.8654 c -0.96644,-0.984185 -0.960953,-2.091292 0,-3 z"
           sodipodi:nodetypes="ccccc" />
        <g
           id="g129148"
           transform="translate(-2,-10)">
          <rect
             style="fill:#b3b3b3;fill-opacity:1;stroke:none;stroke-width:0.9;stroke-linejoin:round;stroke-miterlimit:4;stroke-dasharray:none"
             id="rect129138"
             width="5"
             height="3"
             x="26"
             y="30" />
          <rect
             style="fill:#cccccc;fill-opacity:1;stroke:none;stroke-width:0.899999;stroke-linejoin:round;stroke-miterlimit:4;stroke-dasharray:none"
             id="rect129140"
             width="5"
             height="2.5"
             x="26"
             y="28" />
          <rect
             style="fill:#e6e6e6;fill-opacity:1;stroke:none;stroke-width:0.9;stroke-linejoin:round;stroke-miterlimit:4;stroke-dasharray:none"
             id="rect129142"
             width="5"
             height="3"
             x="26"
             y="25" />
          <rect
             style="fill:#f9f9f9;fill-opacity:1;stroke:none;stroke-width:0.899999;stroke-linejoin:round;stroke-miterlimit:4;stroke-dasharray:none"
             id="rect129144"
             width="5"
             height="2.5"
             x="26"
             y="23" />
          <rect
             style="fill:none;fill-opacity:1;stroke:#000000;stroke-width:0.9;stroke-linejoin:round;stroke-miterlimit:4;stroke-dasharray:none"
             id="rect129146"
             width="5"
             height="10"
             x="26"
             y="22.999996" />
        </g>
      </g>
    </marker>
    <marker
       style="overflow:visible"
       id="marker9077"
       refX="0"
       refY="0"
       orient="auto-start-reverse"
       inkscape:stockid="Arrow1"
       markerWidth="4.06066017"
       markerHeight="6.70710678"
       viewBox="0 0 4.06066017 6.70710678"
       inkscape:isstock="true"
       inkscape:collect="always"
       preserveAspectRatio="xMidYMid">
      <path
         style="fill:none;stroke:context-stroke;stroke-width:1;stroke-linecap:butt"
         d="M 3,-3 0,0 3,3"
         id="path9075"
         transform="rotate(180,0.125,0)"
         sodipodi:nodetypes="ccc" />
    </marker>
    <marker
       style="overflow:visible"
       id="Arrow3"
       refX="0"
       refY="0"
       orient="auto-start-reverse"
       inkscape:stockid="Arrow3"
       markerWidth="4.20710678"
       markerHeight="7"
       viewBox="0 0 4.20710678 7"
       inkscape:isstock="true"
       inkscape:collect="always"
       preserveAspectRatio="xMidYMid">
      <path
         style="fill:none;stroke:context-stroke;stroke-width:1;stroke-linecap:round"
         d="M 3,-3 0,0 3,3"
         id="arrow3"
         transform="rotate(180,0.125,0)"
         sodipodi:nodetypes="ccc" />
    </marker>
    <marker
       refX="10"
       refY="5"
       orient="auto"
       id="inkstitch-guide-line-marker">
      <g
         id="inkstitch-guide-line-group">
        <path
           style="fill:#fafafa;fill-opacity:0.8;stroke:#ff5500;stroke-width:0.5;stroke-linecap:round;stroke-linejoin:miter;stroke-miterlimit:4;stroke-dasharray:1, 1;stroke-dashoffset:0;stroke-opacity:1"
           d="M 10.12911,5.2916678 A 4.8374424,4.8374426 0 0 1 5.2916656,10.12911 4.8374424,4.8374426 0 0 1 0.45422399,5.2916678 4.8374424,4.8374426 0 0 1 5.2916656,0.45422399 4.8374424,4.8374426 0 0 1 10.12911,5.2916678 Z"
           id="inkstitch-guide-line-marker-circle" />
        <path
           style="fill:none;stroke:#000000;stroke-width:0.4;stroke-linecap:round;stroke-miterlimit:4"
           id="inkstitch-guide-line-marker-spiral"
           d="M 1.7506092,6.2728168 3.4558825,5.2833684 7.1038696,7.400035 8.8193256,6.4046783 M 1.7963222,4.129626 3.4558825,3.1667016 7.1038696,5.2833682 8.8475785,4.2716184 M 1.6318889,5.2833683 3.4558825,4.225035 7.1038696,6.3417016 8.9558408,5.2677331" />
      </g>
    </marker>
    <symbol
       id="inkstitch_ignore_layer"
       transform="scale(2.23601, 2.23601)">
      <title
         id="title9694">Ignore entire layer when generating stitch plan</title>
      <path
         inkscape:connector-curvature="0"
         style="opacity:1;vector-effect:none;fill:#fafafa;fill-opacity:1;fill-rule:evenodd;stroke:#ff0000;stroke-width:1.06501234;stroke-linecap:round;stroke-linejoin:miter;stroke-miterlimit:4;stroke-dasharray:3.19503705, 3.19503705;stroke-dashoffset:0;stroke-opacity:1"
         d="M 9.2465269,-4.9265995e-6 C 9.246525,5.1067241 5.1067028,9.2465451 -2.615882e-5,9.2465451 -5.1067554,9.2465451 -9.2465782,5.1067241 -9.2465801,-4.9265995e-6 -9.24658,-2.4523429 -8.2723922,-4.8042399 -6.538327,-6.5383059 c 1.7340653,-1.734065 4.0859624,-2.708252 6.53830084118,-2.708252 5.10673015882,0 9.24655285882,4.139823 9.24655305882,9.2465529734005 0,0 0,0 0,0"
         id="inkstitch_path25368-7" />
      <path
         sodipodi:nodetypes="ccccc"
         inkscape:connector-curvature="0"
         style="color:#000000;fill:#d5d5d5;fill-opacity:1;fill-rule:evenodd;stroke:#5a5a5a;stroke-width:0.63330007;stroke-linecap:square;stroke-linejoin:round;stroke-miterlimit:0;stroke-opacity:1"
         d="M 4,4.452769 1.46667,1.286102 H -5.5 l 2.53333,3.166667 z"
         id="use5800" />
      <path
         sodipodi:nodetypes="ccccc"
         inkscape:connector-curvature="0"
         style="color:#000000;opacity:0.5;fill:#d5d5d5;fill-opacity:1;fill-rule:evenodd;stroke:#858585;stroke-width:0.63339424;stroke-linecap:square;stroke-linejoin:round;stroke-miterlimit:0;stroke-opacity:1"
         d="M 4,2.552769 1.46667,-0.613898 H -5.5 l 2.53333,3.166667 z"
         id="use5864" />
      <g
         id="g5771">
        <path
           sodipodi:nodetypes="ccccccccc"
           inkscape:connector-curvature="0"
           style="fill:#aa0000;fill-rule:evenodd;stroke:#aa0000;stroke-width:1px"
           d="m -1.0666699,-5.0472339 h 4.4333333 l 0.6333333,0.6333333 V 0.01943274 L 3.3666634,0.65276607 H -1.0666699 L -1.7000032,0.01943274 V -4.4139006 Z"
           id="path8011" />
        <path
           inkscape:connector-curvature="0"
           id="path8023"
           d="m -0.43333658,-3.8755672 c 0,0 3.16666668,3.16666661 3.16666668,3.16666661"
           style="fill:none;stroke:#ffffff;stroke-width:1.70000005" />
        <path
           inkscape:connector-curvature="0"
           id="path8025"
           d="m 2.7333301,-3.8755672 c 0,0 -3.16666668,3.16666661 -3.16666668,3.16666661"
           style="fill:none;stroke:#ffffff;stroke-width:1.79999995;stroke-linejoin:round" />
      </g>
    </symbol>
    <symbol
       id="inkstitch_trim">
      <title
         id="inkstitch_title9282">Trim the thread after sewing this object.</title>
      <path
         id="inkstitch_circle13405"
         d="m 9.2465284,-8.6e-6 c 1.8e-6,2.452339 -0.9741847,4.804237 -2.7082493,6.538304 C 4.8042146,8.2723614 2.4523174,9.2465504 -2.1625959e-5,9.2465514 -2.4523623,9.2465534 -4.8042621,8.2723654 -6.5383288,6.5382984 -8.2723956,4.8042314 -9.2465834,2.4523324 -9.2465816,-8.6e-6 c 6e-7,-2.452339 0.9741895,-4.804237 2.708256,-6.538301 1.7340665,-1.734065 4.0859648,-2.708252 6.538303974041,-2.70825 C 5.1067066,-9.2465576 9.2465271,-5.1067366 9.2465284,-8.6e-6 c 0,0 0,0 0,0"
         style="opacity:1;vector-effect:none;fill:#fafafa;fill-opacity:1;fill-rule:evenodd;stroke:#003399;stroke-width:1.06500006;stroke-linecap:round;stroke-linejoin:miter;stroke-miterlimit:4;stroke-dasharray:3.19500017, 3.19500017;stroke-dashoffset:0;stroke-opacity:1"
         inkscape:connector-curvature="0" />
      <path
         style="color:#000000;font-style:normal;font-variant:normal;font-weight:normal;font-stretch:normal;font-size:medium;line-height:normal;font-family:sans-serif;font-variant-ligatures:normal;font-variant-position:normal;font-variant-caps:normal;font-variant-numeric:normal;font-variant-alternates:normal;font-feature-settings:normal;text-indent:0;text-align:start;text-decoration:none;text-decoration-line:none;text-decoration-style:solid;text-decoration-color:#000000;letter-spacing:normal;word-spacing:normal;text-transform:none;writing-mode:lr-tb;direction:ltr;text-orientation:mixed;dominant-baseline:auto;baseline-shift:baseline;text-anchor:start;white-space:normal;shape-padding:0;clip-rule:nonzero;display:inline;overflow:visible;visibility:visible;opacity:1;isolation:auto;mix-blend-mode:normal;color-interpolation:sRGB;color-interpolation-filters:linearRGB;solid-color:#000000;solid-opacity:1;vector-effect:none;fill:#050505;fill-opacity:1;fill-rule:evenodd;stroke:none;stroke-width:1.41421342;stroke-linecap:butt;stroke-linejoin:miter;stroke-miterlimit:4;stroke-dasharray:none;stroke-dashoffset:0;stroke-opacity:1;color-rendering:auto;image-rendering:auto;shape-rendering:auto;text-rendering:auto;enable-background:accumulate"
         d="m -3.0000256,-5.9834096 c -1.30575,0 -2.375,1.06924 -2.375,2.375 0,1.30575 1.06925,2.375 2.375,2.375 0.58687,0 1.11944,-0.22369 1.53516,-0.58007 0,0 0.61717997,1.62109 0.61717997,1.62109 0,0 -2.29881997,6.01758 -2.29881997,6.01758 0.98655,-0.12511 1.23728,-0.26171 1.67382,-0.97461 0,0 1.33007997,-3.18945 1.33007997,-3.18945 0,0 1.23633003,3.25 1.23633003,3.25 0.23227,0.77906 0.84315,0.79218 1.57813,1.07226 0,0 -2.05469003,-6.14258 -2.05469003,-6.14258 0,0 0.73047003,-1.75 0.73047003,-1.75 0.42849,0.41682 1.01136,0.67578 1.65234,0.67578 1.30575,0 2.375,-1.06925 2.375,-2.375 0,-1.30576 -1.06925,-2.375 -2.375,-2.375 -1.06233,0 -1.95701,0.71265 -2.25781003,1.67969 0,0 -0.0117,-0.0156 -0.0117,-0.0156 0,0 -0.80274,2.10156 -0.80274,2.10156 0,0 -0.59179,-1.76562 -0.59179,-1.76562 -0.18242,-1.12808 -1.15864997,-2 -2.33593997,-2 0,0 -2e-5,-3e-5 -2e-5,-3e-5 m 0,1 c 0.76531,0 1.375,0.60968 1.375,1.375 0,0.76531 -0.60969,1.375 -1.375,1.375 -0.76531,0 -1.375,-0.60969 -1.375,-1.375 0,-0.76532 0.60969,-1.375 1.375,-1.375 0,0 0,0 0,0 m 6,0 c 0.76531,0 1.375,0.60968 1.375,1.375 0,0.76531 -0.60969,1.375 -1.375,1.375 -0.76531,0 -1.375,-0.60969 -1.375,-1.375 0,-0.76532 0.60969,-1.375 1.375,-1.375 0,0 0,0 0,0"
         id="inkstitch_path13416"
         inkscape:connector-curvature="0" />
    </symbol>
    <symbol
       id="inkstitch_ignore_object">
      <title
         id="title25366">Ignore object when generating stitch plan</title>
      <path
         inkscape:connector-curvature="0"
         style="opacity:1;vector-effect:none;fill:#fafafa;fill-opacity:1;fill-rule:evenodd;stroke:#ff0000;stroke-width:1.06501234;stroke-linecap:round;stroke-linejoin:miter;stroke-miterlimit:4;stroke-dasharray:3.19503705, 3.19503705;stroke-dashoffset:0;stroke-opacity:1"
         d="m 9.2465269,-2.6e-6 c -1.9e-6,5.106729 -4.1398241,9.24655 -9.246553026709,9.24655 C -5.1067554,9.2465474 -9.2465782,5.1067264 -9.2465801,-2.6e-6 c 10e-8,-2.452338 0.9741879,-4.804235 2.7082531,-6.538301 1.7340653,-1.734065 4.0859624,-2.708252 6.538300873291,-2.708252 C 5.106704,-9.2465556 9.2465267,-5.1067326 9.2465269,-2.6e-6 v 0"
         id="inkstitch_path25368"
         sodipodi:nodetypes="csssscc" />
      <path
         style="color:#000000;font-style:normal;font-variant:normal;font-weight:normal;font-stretch:normal;font-size:medium;line-height:normal;font-family:sans-serif;font-variant-ligatures:normal;font-variant-position:normal;font-variant-caps:normal;font-variant-numeric:normal;font-variant-alternates:normal;font-feature-settings:normal;text-indent:0;text-align:start;text-decoration:none;text-decoration-line:none;text-decoration-style:solid;text-decoration-color:#000000;letter-spacing:normal;word-spacing:normal;text-transform:none;writing-mode:lr-tb;direction:ltr;text-orientation:mixed;dominant-baseline:auto;baseline-shift:baseline;text-anchor:start;white-space:normal;shape-padding:0;clip-rule:nonzero;display:inline;overflow:visible;visibility:visible;opacity:1;isolation:auto;mix-blend-mode:normal;color-interpolation:sRGB;color-interpolation-filters:linearRGB;solid-color:#000000;solid-opacity:1;vector-effect:none;fill:#ff0000;fill-opacity:1;fill-rule:nonzero;stroke:none;stroke-width:2.36500001;stroke-linecap:butt;stroke-linejoin:round;stroke-miterlimit:4;stroke-dasharray:none;stroke-dashoffset:0;stroke-opacity:1;paint-order:fill markers stroke;color-rendering:auto;image-rendering:auto;shape-rendering:auto;text-rendering:auto;enable-background:accumulate"
         d="M 5.9670459,-7.182445 -7.5106053,5.8067489 c -0.1726626,0.167055 -0.1205449,0.382287 0.051259,0.540886 0.4472376,0.445359 0.9095461,0.890719 1.44712,1.336078 L 7.8945309,-5.7539019 c -0.444712,-0.4981949 -0.762678,-1.0407509 -1.340795,-1.4922541 -0.129647,-0.1296467 -0.384848,-0.1381312 -0.58669,0.063711 z"
         id="inkstitch_path31147"
         inkscape:connector-curvature="0"
         sodipodi:nodetypes="ccccccc" />
      <path
         style="color:#000000;font-style:normal;font-variant:normal;font-weight:normal;font-stretch:normal;font-size:medium;line-height:normal;font-family:sans-serif;font-variant-ligatures:normal;font-variant-position:normal;font-variant-caps:normal;font-variant-numeric:normal;font-variant-alternates:normal;font-feature-settings:normal;text-indent:0;text-align:start;text-decoration:none;text-decoration-line:none;text-decoration-style:solid;text-decoration-color:#000000;letter-spacing:normal;word-spacing:normal;text-transform:none;writing-mode:lr-tb;direction:ltr;text-orientation:mixed;dominant-baseline:auto;baseline-shift:baseline;text-anchor:start;white-space:normal;shape-padding:0;clip-rule:nonzero;display:inline;overflow:visible;visibility:visible;opacity:1;isolation:auto;mix-blend-mode:normal;color-interpolation:sRGB;color-interpolation-filters:linearRGB;solid-color:#000000;solid-opacity:1;vector-effect:none;fill:#ff0000;fill-opacity:1;fill-rule:nonzero;stroke:none;stroke-width:2.36500001;stroke-linecap:butt;stroke-linejoin:round;stroke-miterlimit:4;stroke-dasharray:none;stroke-dashoffset:0;stroke-opacity:1;paint-order:fill markers stroke;color-rendering:auto;image-rendering:auto;shape-rendering:auto;text-rendering:auto;enable-background:accumulate"
         d="m -6.3778509,-7.3863915 c -0.4163674,0.3694232 -0.8327348,0.8218035 -1.2491022,1.2906927 L 5.9335939,7.7988319 7.6269529,6.1484419 -5.6213616,-7.4261673 c -0.1943465,-0.1943465 -0.5493765,-0.1905301 -0.7564893,0.039776 z"
         inkstitch_id="path31147-7"
         inkscape:connector-curvature="0"
         sodipodi:nodetypes="cccccc"
         id="path19494" />
    </symbol>
  </defs>
  <g
     inkscape:label="Calque 1"
     inkscape:groupmode="layer"
     id="layer1"
     style="display:inline"
     transform="matrix(0.419514 0 0 0.419514 10.0729 9.92293)"
     inkscape:highlight-color="#ee0000">
    <g
       id="g3351"
       style="display:inline;opacity:1">
      <ellipse
         style="fill:#ed171f;stroke:none;stroke-width:4;stroke-linecap:square;stroke-dasharray:0.79375, 0.79375"
         id="path3271"
         cx="48.451271"
         cy="56.631355"
         rx="18.247881"
         ry="16.360168"
         inkstitch:fill_method="2"
         inkstitch:fill_underlay="False"
         inkstitch:row_spacing_mm="1" />
      <g
         id="command_group1"
         inkscape:label="Commande Ink/Stitch: Trim thread after sewing this object"
         transform="matrix(0.63069,0,0,0.63069,-24.0109,-23.6534)"
         style="display:none">
        <path
           id="command_connector1"
           d="m 97.38994,73.968724 9.33581,28.443366"
           style="fill:none;stroke:#000000;stroke-width:1px;stroke-opacity:0.5"
           inkscape:connection-start="#command_use7739"
           inkscape:connection-end="#path3271"
           inkscape:label="connecteur"
           inkscape:connector-type="polyline"
           inkscape:connector-curvature="0" />
        <use
           id="command_use7739"
           xlink:href="#inkstitch_trim"
           height="100%"
           width="100%"
           x="97.38736"
           y="73.932877"
           inkscape:label="marqueur de commande" />
      </g>
      <ellipse
         style="fill:#ed171f;stroke:none;stroke-width:4;stroke-linecap:square;stroke-dasharray:0.79375, 0.79375"
         id="path3275"
         cx="130.25212"
         cy="73.620766"
         rx="27.057201"
         ry="18.247881"
         inkstitch:fill_method="2"
         inkstitch:fill_underlay="False"
         inkstitch:row_spacing_mm="1" />
      <g
         id="command_group2"
         inkscape:label="Commande Ink/Stitch: Trim thread after sewing this object"
         transform="matrix(0.63069,0,0,0.63069,-24.0109,-23.6534)"
         style="display:none">
        <path
           id="command_connector2"
           d="m 243.83832,95.383328 0.38421,29.919522"
           style="fill:none;stroke:#000000;stroke-width:1px;stroke-opacity:0.5"
           inkscape:connection-start="#command_use9744"
           inkscape:connection-end="#path3275"
           inkscape:label="connecteur"
           inkscape:connector-type="polyline"
           inkscape:connector-curvature="0" />
        <use
           id="command_use9744"
           xlink:href="#inkstitch_trim"
           height="100%"
           width="100%"
           x="243.83574"
           y="95.347481"
           inkscape:label="marqueur de commande" />
      </g>
      <ellipse
         style="fill:#ed171f;stroke:none;stroke-width:4;stroke-linecap:square;stroke-dasharray:0.79375, 0.79375"
         id="path3277"
         cx="141.57838"
         cy="173.66948"
         rx="20.76483"
         ry="28.944914"
         inkstitch:fill_method="2"
         inkstitch:fill_underlay="False"
         inkstitch:row_spacing_mm="1" />
      <g
         id="command_group3"
         inkscape:label="Commande Ink/Stitch: Trim thread after sewing this object"
         transform="matrix(0.63069,0,0,0.63069,-24.0109,-23.6534)"
         style="display:none">
        <path
           id="command_connector3"
           d="m 245.11546,239.93125 7.0281,29.39756"
           style="fill:none;stroke:#000000;stroke-width:1px;stroke-opacity:0.5"
           inkscape:connection-start="#command_use7496"
           inkscape:connection-end="#path3277"
           inkscape:label="connecteur"
           inkscape:connector-type="polyline"
           inkscape:connector-curvature="0" />
        <use
           id="command_use7496"
           xlink:href="#inkstitch_trim"
           height="100%"
           width="100%"
           x="245.11288"
           y="239.8954"
           inkscape:label="marqueur de commande" />
      </g>
      <ellipse
         style="fill:#ed171f;stroke:none;stroke-width:4;stroke-linecap:square;stroke-dasharray:0.79375, 0.79375"
         id="path3277-2"
         cx="78.024597"
         cy="226.52013"
         rx="20.76483"
         ry="28.944914"
         inkstitch:fill_method="2"
         inkstitch:fill_underlay="False"
         inkstitch:row_spacing_mm="1" />
      <g
         id="command_group4"
         inkscape:label="Commande Ink/Stitch: Trim thread after sewing this object"
         transform="matrix(0.63069,0,0,0.63069,-24.0109,-23.6534)"
         style="display:none">
        <path
           id="command_connector4"
           d="m 154.70708,321.29592 2.80418,29.86536"
           style="fill:none;stroke:#000000;stroke-width:1px;stroke-opacity:0.5"
           inkscape:connection-start="#command_use9919"
           inkscape:connection-end="#path3277-2"
           inkscape:label="connecteur"
           inkscape:connector-type="polyline"
           inkscape:connector-curvature="0" />
        <use
           id="command_use9919"
           xlink:href="#inkstitch_trim"
           height="100%"
           width="100%"
           x="154.7045"
           y="321.26007"
           inkscape:label="marqueur de commande" />
      </g>
      <path
         style="display:inline;fill:none;stroke:#000000;stroke-width:2;stroke-linecap:butt;stroke-linejoin:miter;stroke-opacity:1;marker-start:url(#inkstitch-guide-line-marker)"
         d="m 17.35258,48.943175 c 7.18527,5.906931 26.512206,-0.144703 31.168468,7.504266 3.765871,6.186298 8.028392,34.120955 18.220038,36.500042 6.980355,1.629459 43.257784,-24.432112 56.079154,-26.884915 14.04354,-2.68661 -6.4787,23.586959 5.34018,18.41805 4.41518,-1.930953 15.14159,0.512815 19.48362,-3.503032 20.18116,-18.665089 32.08248,-60.19934 37.15882,-63.883397 -16.63226,43.221867 -5.31794,100.840461 -72.16939,118.191831 13.63591,18.30427 -10.56183,36.89821 15.73761,44.72491 4.34962,1.29444 9.56659,-21.49057 18.95622,-20.16126 6.57008,0.93014 15.18311,13.66674 26.97143,54.72025 l -30.20339,39.64194 C 84.872904,224.71354 8.0244342,261.00249 -7.5360467,169.70045"
         id="path3837"
         sodipodi:nodetypes="csssssccssccc"
         inkscape:label="guide" />
      <path
         style="display:inline;fill:none;stroke:#000000;stroke-width:2.38371;stroke-linecap:butt;stroke-linejoin:miter;stroke-opacity:1"
         d="M 11.987193,97.840096 100.48245,111.33937 89.233058,160.83672"
         id="path6378"
         sodipodi:nodetypes="ccc" />
      <ellipse
         style="fill:#ed171f;stroke:none;stroke-width:4;stroke-linecap:square;stroke-dasharray:0.79375, 0.79375"
         id="ellipse5234"
         cx="39.641945"
         cy="140.94914"
         rx="20.76483"
         ry="28.944914"
         inkstitch:fill_method="2"
         inkstitch:fill_underlay="False"
         inkstitch:row_spacing_mm="1" />
      <g
         id="command_group5"
         inkscape:label="Commande Ink/Stitch: Trim thread after sewing this object"
         transform="matrix(0.63069,0,0,0.63069,-24.0109,-23.6534)"
         style="display:none">
        <path
           id="command_connector5"
           d="m 96.41514,185.34923 1.783219,29.90313"
           style="fill:none;stroke:#000000;stroke-width:1px;stroke-opacity:0.5"
           inkscape:connection-start="#command_use5155"
           inkscape:connection-end="#ellipse5234"
           inkscape:label="connecteur"
           inkscape:connector-type="polyline"
           inkscape:connector-curvature="0" />
        <use
           id="command_use5155"
           xlink:href="#inkstitch_trim"
           height="100%"
           width="100%"
           x="96.41256"
           y="185.31339"
           inkscape:label="marqueur de commande" />
      </g>
      <ellipse
         style="fill:#ed171f;stroke:none;stroke-width:4;stroke-linecap:square;stroke-dasharray:0.79375, 0.79375"
         id="ellipse7080"
         cx="14.89327"
         cy="200.19597"
         rx="20.76483"
         ry="28.944914"
         inkstitch:fill_method="2"
         inkstitch:fill_underlay="False"
         inkstitch:row_spacing_mm="1" />
      <path
         style="display:inline;fill:none;stroke:#000000;stroke-width:2;stroke-linecap:butt;stroke-linejoin:miter;stroke-opacity:1;marker-start:url(#inkstitch-guide-line-marker)"
         d="m 17.35258,48.943175 c 7.18527,5.906931 26.512206,-0.144703 31.168468,7.504266 3.765871,6.186298 8.028392,34.120955 18.220038,36.500042 6.980355,1.629459 43.257784,-24.432112 56.079154,-26.884915 14.04354,-2.68661 -6.4787,23.586959 5.34018,18.41805 4.41518,-1.930953 15.14159,0.512815 19.48362,-3.503032 20.18116,-18.665089 32.08248,-60.19934 37.15882,-63.883397 -16.63226,43.221867 -5.31794,100.840461 -72.16939,118.191831 13.63591,18.30427 -10.56183,36.89821 15.73761,44.72491 4.34962,1.29444 9.56659,-21.49057 18.95622,-20.16126 6.57008,0.93014 15.18311,13.66674 26.97143,54.72025 l -30.20339,39.64194 C 84.872904,224.71354 8.0244342,261.00249 -7.5360467,169.70045"
         id="path9491"
         sodipodi:nodetypes="csssssccssccc"
         inkscape:label="guide" />
    </g>
  </g>
  <g
     inkscape:label="Calque 2"
     inkscape:groupmode="layer"
     id="g7404"
     style="display:inline"
     transform="matrix(0.419514 0 0 0.419514 10.0729 9.92293)">
    <g
       id="g7394"
       style="display:inline;opacity:1"
       transform="translate(5.99968, 260.986)">
      <ellipse
         style="fill:#0a55a3;stroke:none;stroke-width:4;stroke-linecap:square;stroke-dasharray:0.79375, 0.79375"
         id="ellipse7352"
         cx="48.451271"
         cy="56.631355"
         rx="18.247881"
         ry="16.360168"
         inkstitch:fill_method="2"
         inkstitch:fill_underlay="False"
         inkstitch:row_spacing_mm="1" />
      <ellipse
         style="fill:#0a55a3;stroke:none;stroke-width:4;stroke-linecap:square;stroke-dasharray:0.79375, 0.79375"
         id="ellipse7360"
         cx="130.25212"
         cy="73.620766"
         rx="27.057201"
         ry="18.247881"
         inkstitch:fill_method="2"
         inkstitch:fill_underlay="False"
         inkstitch:row_spacing_mm="1" />
      <ellipse
         style="fill:#0a55a3;stroke:none;stroke-width:4;stroke-linecap:square;stroke-dasharray:0.79375, 0.79375"
         id="ellipse7368"
         cx="141.57838"
         cy="173.66948"
         rx="20.76483"
         ry="28.944914"
         inkstitch:fill_method="2"
         inkstitch:fill_underlay="False"
         inkstitch:row_spacing_mm="1" />
      <ellipse
         style="fill:#0a55a3;stroke:none;stroke-width:4;stroke-linecap:square;stroke-dasharray:0.79375, 0.79375"
         id="ellipse7376"
         cx="78.024597"
         cy="226.52013"
         rx="20.76483"
         ry="28.944914"
         inkstitch:fill_method="2"
         inkstitch:fill_underlay="False"
         inkstitch:row_spacing_mm="1" />
      <path
         style="display:inline;fill:none;stroke:#000000;stroke-width:2.38371;stroke-linecap:butt;stroke-linejoin:miter;stroke-dasharray:none;stroke-dashoffset:0;stroke-opacity:1;marker-start:url(#inkstitch-guide-line-marker)"
         d="m -12.011519,131.58829 c 0,0 71.696493,-11.16257 88.495251,13.49927 9.525338,13.98391 -93.74497,69.74627 -93.74497,69.74627"
         id="path7378"
         sodipodi:nodetypes="csc" />
      <path
         style="display:inline;fill:none;stroke:#000000;stroke-width:2;stroke-linecap:butt;stroke-linejoin:miter;stroke-opacity:1;marker-start:url(#inkstitch-guide-line-marker)"
         d="m 17.35258,48.943175 c 7.18527,5.906931 26.512206,-0.144703 31.168468,7.504266 3.765871,6.186298 8.028392,34.120955 18.220038,36.500042 6.980355,1.629459 43.257784,-24.432112 56.079154,-26.884915 14.04354,-2.68661 -6.4787,23.586959 5.34018,18.41805 4.41518,-1.930953 15.14159,0.512815 19.48362,-3.503032 20.18116,-18.665089 32.08248,-60.19934 37.15882,-63.883397 -16.63226,43.221867 -5.31794,100.840461 -72.16939,118.191831 13.63591,18.30427 -10.56183,36.89821 15.73761,44.72491 4.34962,1.29444 9.56659,-21.49057 18.95622,-20.16126 6.57008,0.93014 15.18311,13.66674 26.97143,54.72025 l -30.20339,39.64194 C 84.872904,224.71354 8.0244342,261.00249 -7.5360467,169.70045"
         id="path7386"
         sodipodi:nodetypes="csssssccssccc"
         inkscape:label="guide" />
      <path
         style="display:inline;fill:none;stroke:#000000;stroke-width:2.38371;stroke-linecap:butt;stroke-linejoin:miter;stroke-opacity:1"
         d="M 11.987193,97.840096 100.48245,111.33937 89.233058,160.83672"
         id="path7388"
         sodipodi:nodetypes="ccc" />
      <ellipse
         style="fill:#0a55a3;stroke:none;stroke-width:4;stroke-linecap:square;stroke-dasharray:0.79375, 0.79375"
         id="ellipse7390"
         cx="39.641945"
         cy="140.94914"
         rx="20.76483"
         ry="28.944914"
         inkstitch:fill_method="2"
         inkstitch:fill_underlay="False"
         inkstitch:row_spacing_mm="1" />
      <ellipse
         style="fill:#0a55a3;stroke:none;stroke-width:4;stroke-linecap:square;stroke-dasharray:0.79375, 0.79375"
         id="ellipse7392"
         cx="14.89327"
         cy="200.19597"
         rx="20.76483"
         ry="28.944914"
         inkstitch:fill_method="2"
         inkstitch:fill_underlay="False"
         inkstitch:row_spacing_mm="1" />
    </g>
  </g>
  <g
     id="__inkstitch_stitch_plan__"
     inkscape:label="Plan de broderie"
     inkscape:groupmode="layer"
     style="display:inline">
    <g
       id="__color_block_0__"
       inkscape:label="color block 1"
       transform="translate(112.56928,1.3348161)">
      <path
         id="object3245"
         style="fill:none;stroke:#ed161e;stroke-width:0.4"
         d="m 132.53799,106.77173 0.72879,0.48915 -0.72879,-0.48915 0.72879,0.48915 -0.72879,-0.48915 0.72879,0.48915 -3.50342,3.50342 -3.50343,3.50343 -3.50342,3.50342 -3.50342,3.50342 -3.50343,3.50343 -3.50342,3.50342 v 5.34506 l -3.34066,3.34066 -3.34066,3.34066 -3.34066,3.34066 -3.340666,3.34067 -0.03188,1.82377 -1.86616,-5.83344 -5.358426,-0.2633 -2.625937,-3.87664 10.807524,0.62677 1.901365,5.78051 1.78297,5.81808 4.35826,1.32816 -2.49129,-8.14437 -2.72988,-8.0655 -7.64208,-0.87004 -7.701482,-0.30858 -0.980001,-3.81104 5.963026,0.20196 5.959383,0.29283 7.207544,1.51736 3.50835,9.84407 3.07646,9.99788 4.00933,0.10473 -2.38649,-7.66183 -2.43303,-7.64699 -3.06573,-7.37239 -6.67719,-2.22934 -7.736383,-0.55856 -7.75452,-0.28028 0.290251,-3.77236 7.884196,0.28919 7.864966,0.58 8.73476,3.22365 2.99093,5.71955 3.12119,9.65133 3.02016,9.68346 3.70939,-0.81557 -3.09918,-9.92003 -3.19704,-9.88889 -3.93936,-7.17756 -7.58785,-3.62919 -9.256396,-1.0948 -9.326002,-0.37318 1.601506,-3.73216 8.867563,0.37757 8.796309,1.10526 9.32817,4.44608 3.86632,5.75863 2.69538,7.56294 2.41333,7.66066 2.40763,7.66256 3.42522,-1.68745 -2.36756,-7.56626 -2.38985,-7.55911 -2.66905,-7.4622 -4.95813,-7.2702 -4.94086,-3.16534 -5.54412,-1.96362 -8.224642,-1.21586 -8.31145,-0.3915 3.500916,-3.62811 8.696296,0.65015 8.5054,1.87003 9.59678,5.74293 5.19739,7.98898 2.58656,7.19194 2.31749,7.28571 2.26614,7.30206 3.06594,-2.79162 -3.16194,-10.24901 -3.5544,-10.11601 -5.96146,-9.1987 -4.82552,-3.79442 -5.53455,-2.67071 -6.99038,-1.83248 -7.173922,-0.91662 3.890222,-1.6686 3.39619,-1.22903 6.40857,1.52455 6.08741,2.51168 8.72419,6.80706 5.501,9.09537 3.19264,8.99879 2.84628,9.11723 2.49674,-4.7547 -2.36753,-7.41259 -2.64462,-7.31609 -3.63279,-6.89434 -7.07165,-7.59551 -8.65134,-4.95479 3.90793,0.64195 3.8118,1.07293 2.80393,3.816 3.51957,3.51957 3.51957,3.51958 3.51958,3.51957 v 5.34506 l 2.51296,2.51296 2.31098,2.59171 -2.36963,-6.75669 -2.97144,-6.50995 -5.91642,-8.00266 1.68515,2.27936 1.68515,2.27936 -1.68515,-2.27936 -1.68515,-2.27936"
         transform="scale(0.264583)"
         inkstitch:manual_stitch="true" />
      <g
         id="command_group6"
         inkscape:label="Commande Ink/Stitch: Trim thread after sewing this object"
         transform="scale(0.264583)"
         style="display:none">
        <path
           id="command_connector6"
           d="m 99.873292,73.290036 8.139648,29.325914"
           style="fill:none;stroke:#000000;stroke-width:1px;stroke-opacity:0.5"
           inkscape:connection-start="#command_use4756"
           inkscape:connection-end="#object3245"
           inkscape:label="connecteur"
           inkscape:connector-type="polyline"
           inkscape:connector-curvature="0" />
        <use
           id="command_use4756"
           xlink:href="#inkstitch_trim"
           height="100%"
           width="100%"
           x="99.870712"
           y="73.254189"
           inkscape:label="marqueur de commande" />
      </g>
      <path
         id="object5537"
         style="fill:none;stroke:#ed161e;stroke-width:0.4"
         d="m 203.83405,145.20713 1.7874,1.70304 1.7874,1.70303 -1.7874,-1.70303 -1.7874,-1.70304 3.5748,3.40607 3.60278,3.60278 3.60277,3.60277 3.60278,3.60278 3.60277,3.60277 v 5.34506 5.34506 l -3.41613,3.41614 -1.15231,-0.61945 -0.95755,-6.47049 -4.77105,2.6001 -2.94201,-2.70102 6.17288,-3.36407 6.20893,-3.29519 -0.81086,8.42681 2.23438,7.26758 3.5653,1.29814 3.44973,-3.44973 3.44973,-3.44974 3.44973,-3.44973 3.44974,-3.44973 3.44973,-3.44974 3.63714,3.63714 3.63714,3.63714 3.63713,3.63714 3.63714,3.63714 2.98543,3.4618 -7.28683,0.33016 -7.27686,0.43787 -3.92475,1.31832 -3.31322,-2.98416 -3.21122,-3.21121 -3.21122,-3.21122 -2.67253,2.67253 -2.67253,2.67253 v 1.6099 l 2.18048,0.59244 -3.83224,-4.42823 -1.60461,-5.54026 0.63997,-6.79655 2.58799,-8.34184 -7.12635,3.37467 -6.97493,3.67819 -6.92486,3.77389 -2.01096,-3.20843 8.53078,-4.64907 8.63357,-4.45264 5.7502,-2.57733 5.95103,-2.05292 -2.38251,7.72551 -2.38732,7.7234 -0.46682,6.01395 3.55502,6.48226 6.1529,2.07748 8.12145,-1.99645 8.2983,-0.49692 8.30667,-0.42531 7.86068,-1.55613 6.74901,-3.69348 4.56636,-4.44608 4.27241,-4.7311 1.38041,-4.11465 0.49986,-4.30738 -4.61818,5.81155 -4.98648,5.50053 -7.40325,5.76956 -8.71261,2.00801 -8.41831,0.41894 -8.40755,0.52722 -7.34331,1.95579 -4.8581,-2.11771 -1.33767,-4.21602 2.28764,-9.57614 2.94917,-9.43155 0.29928,-4.99449 -3.37385,0.009 -8.50246,2.83213 -7.60364,3.55759 -7.43919,3.88998 -7.37234,4.01775 -0.81305,-3.86125 8.714,-4.74893 8.87158,-4.44306 9.15997,-3.80676 6.15732,-1.41577 4.05806,0.63569 1.86717,2.42585 0.20077,3.74252 -2.81888,10.49335 -2.8676,10.46889 0.66439,2.26009 2.49444,0.42021 5.99362,-1.83236 8.43455,-0.55493 8.44884,-0.39452 7.93728,-1.80709 4.71828,-3.59452 4.14507,-4.29713 4.52608,-5.39185 4.19596,-5.65217 -1.66166,-4.14656 -4.72755,6.49207 -5.14143,6.16816 -7.61869,6.9722 -9.41009,1.65376 -9.59666,0.3481 -9.37549,1.81058 3.22801,-10.16199 2.28945,-10.38152 -0.98594,-5.05851 -3.53389,-3.49089 -5.50177,-0.90677 -7.47163,1.66566 -8.69155,3.58826 -8.44715,4.13706 -8.26025,4.50147 1.17125,-4.94265 7.50825,-3.9974 7.66588,-3.68469 7.88081,-3.19502 7.64344,-1.78071 5.62772,0.316 5.9939,3.4858 2.97908,6.38126 -0.52705,8.42634 -2.98332,9.83893 7.81513,-0.45822 7.82419,-0.36344 6.78658,-1.95097 5.7065,-5.89076 5.18606,-6.35424 4.78915,-6.66114 -0.83088,-1.07416 -3.39918,3.39918 -3.39917,3.39918 -3.34067,-3.34067 -3.34066,-3.34066 -3.34066,-3.34066 -3.34066,-3.34066 2.16667,-2.16667 2.16667,-2.16667 1.50266,0.60635 -2.97302,4.23168 -3.91686,-6.6655 -3.19095,-0.76113 -3.22467,-0.59882 6.06337,7.79119 2.73061,8.47771 4.09063,-5.32477 3.85357,-5.49889 3.2578,1.92223 -3.94849,5.65319 -4.18645,5.47956 -6.65185,6.1696 -0.19387,-8.12918 -2.35382,-7.10261 -4.95778,-6.43041 -5.72533,-3.75118 -0.54407,2.91926 -2.67253,2.67253 -2.67253,2.67253 -2.67253,-2.67253 -2.67253,2.67253 -2.67253,-2.67253 -2.67253,2.67253 -2.67253,-2.67253 -2.67253,2.67253 -2.03324,-2.03325 -2.18372,-1.18016 9.07164,-2.87015 6.87108,-0.69379 5.9357,0.90137 5.57458,2.67439 4.56799,4.50095 2.6968,5.33979 1.06323,6.58853 -0.92849,7.98821 7.45058,-0.70313 5.4484,-5.75225 4.91727,-6.2127 4.55708,-6.48348 2.84611,2.55962 -4.75669,6.71242 -5.15096,6.41241 -5.69775,5.93173 -8.49564,1.28123 -6.10299,0.19423 2.04006,-9.29755 -0.80839,-8.12673 -3.38125,-5.73564 -6.25632,-4.03531 -5.48164,-0.95875 -6.17723,0.62251 -5.66526,1.61574 -5.50078,2.11676 -6.26052,2.86631 -6.15127,3.09429 -2.66681,4.26305 1.33341,-2.13152 1.3334,-2.13153 -1.3334,2.13153 -1.33341,2.13152"
         transform="scale(0.264583)"
         inkstitch:manual_stitch="true" />
      <g
         id="command_group7"
         inkscape:label="Commande Ink/Stitch: Trim thread after sewing this object"
         transform="scale(0.264583)"
         style="display:none">
        <path
           id="command_connector7"
           d="m 237.04308,96.351872 4.11107,31.246848"
           style="fill:none;stroke:#000000;stroke-width:1px;stroke-opacity:0.5"
           inkscape:connection-start="#command_use7421"
           inkscape:connection-end="#object5537"
           inkscape:label="connecteur"
           inkscape:connector-type="polyline"
           inkscape:connector-curvature="0" />
        <use
           id="command_use7421"
           xlink:href="#inkstitch_trim"
           height="100%"
           width="100%"
           x="237.0405"
           y="96.316025"
           inkscape:label="marqueur de commande" />
      </g>
      <path
         id="object8170"
         style="fill:none;stroke:#ed161e;stroke-width:0.4"
         d="m 252.89846,268.98929 1.50489,1.47707 1.5049,1.47706 -1.5049,-1.47706 -1.50489,-1.47707 3.00979,2.95413 2.99982,2.99983 2.99983,2.99982 v 5.34506 5.34506 5.34506 5.34506 5.34506 5.34506 5.34506 5.34506 5.34506 5.34506 l 2.67253,2.67253 v 5.34505 5.34506 5.34506 5.34506 l -2.67253,2.67253 2.21589,0.56468 0.79576,-0.0648 3.76818,-0.68266 -1.95308,-5.50412 -4.81226,3.14501 -5.207,2.43528 -2.89028,-0.89939 -2.75641,-1.25283 9.50086,-3.84793 7.82536,-6.00206 1.96368,5.33279 1.90054,5.35604 3.39008,-1.74822 -2.87642,-8.07012 -3.09251,-7.98946 -4.991,5.43321 -5.93511,4.37282 -5.92222,2.69794 -6.32674,1.51966 -3.85451,-3.50906 7.45159,-1.09077 7.89683,-3.58605 7.31433,-6.46618 5.13577,-7.25504 3.01702,7.14808 2.78594,7.24176 2.61038,7.30695 3.04308,-2.72614 -3.36604,-9.18631 -3.64807,-9.07781 -4.11845,-8.87283 -3.28887,5.74641 -3.64742,5.52028 -6.87032,6.75692 -7.80995,3.79068 -9.7497,0.83921 -2.76233,-4.35371 10.14746,0.22926 9.03501,-4.37122 6.70984,-7.56751 4.23178,-7.14901 4.02677,-7.26788 3.8689,7.15866 3.42519,7.38392 3.46338,8.53038 3.20636,8.6303 2.65975,-3.80642 -4.00074,-10.36047 -4.4319,-10.18302 -3.80006,-7.31197 -4.49897,-6.89578 -5.68628,9.48777 -5.5371,9.58308 -5.89776,6.73918 -9.58594,4.03157 -9.65954,-1.56711 -1.76657,-4.6839 10.66049,2.52175 7.9435,-3.2154 5.22591,-6.01676 4.45699,-7.66528 4.33563,-7.73551 5.35292,-7.00833 5.26197,6.15041 4.12984,7.00013 3.60711,7.4576 3.27572,7.60931 3.0213,7.71429 1.18967,-2.69364 0.9247,-2.36515 -3.30322,-8.11286 -3.66424,-7.95539 -4.11649,-7.73003 -6.14764,-8.42786 -4.21542,-2.82285 -5.07912,4.1002 -4.32223,6.59094 -3.82966,6.89518 -3.96459,6.81785 -5.20569,5.77074 -6.78445,1.87402 -10.02482,-3.36 -0.91122,-4.67611 5.2712,2.38616 5.49167,1.81783 4.70772,-1.07881 4.36882,-4.91481 3.97846,-6.89192 3.87435,-6.95125 4.38798,-6.6328 4.67952,-4.49846 3.94955,-0.99846 4.43481,2.18523 6.2131,7.13897 4.53471,7.60461 3.90715,7.94667 3.51581,8.12861 0.69034,-3.34267 0.5647,-3.40876 -3.58898,-7.66639 -4.00108,-7.4588 -4.91307,-7.21131 -6.70817,-6.1842 -5.43834,-1.56958 -5.13759,1.60883 -5.66492,5.37273 -4.45373,6.67467 -3.91916,7.00724 -3.9922,6.96605 -3.53195,4.0589 -5.65928,-0.84642 -8.10261,-3.97516 -0.18416,-4.89436 5.81178,3.71625 6.45423,2.48552 5.57815,-8.75799 5.12547,-9.0631 6.19223,-8.34996 5.77399,-4.38431 5.95065,-1.39074 6.81375,1.92495 5.60878,4.46443 4.93636,6.1653 4.0109,6.58915 3.56882,6.83983 -0.17233,-4.70577 -0.49325,-4.68324 -3.01731,-4.95556 -3.36422,-4.7267 -5.62845,-5.81415 -6.24316,-3.71018 -6.94753,-1.14401 -6.62201,1.72207 -7.02797,5.32994 -3.68879,4.54264 -3.23338,4.88059 -4.18474,7.42581 -4.24712,7.38911 -6.8517,-3.35955 -3.85014,-4.05277 0.22661,-2.26201 2.38476,2.38476 2.67253,-2.67253 2.67253,-2.67253 v -5.34506 l -2.45779,-2.45779 -2.02292,-2.54771 -0.79839,6.18848 0.13574,6.21306 2.10563,3.27942 4.19693,2.5574 5.49715,-9.81172 6.18796,-9.38077 6.62924,-6.58565 6.15525,-3.3423 7.53005,-1.21062 7.32611,1.58162 7.0016,4.26738 6.69317,7.14459 -1.48719,-3.7285 -1.81617,-3.6962 -2.13078,-3.52405 -6.64596,-3.88048 -6.47974,-1.76021 -7.34289,0.18936 -6.53354,2.16048 -5.56236,3.59002 -6.32287,6.47763 -5.39278,7.95213 -4.705,8.38327 -1.23359,-1.58796 -0.1419,-3.97788 1.15171,-8.82501 1.14589,-8.82643 1.93033,-2.65312 2.15062,-2.47776 -0.53675,7.44414 -1.00082,7.39968 3.54796,-5.01452 4.08056,-4.59057 4.38163,-3.7467 4.93033,-2.98171 10.72083,-2.83472 10.59643,1.41355 -4.30995,-3.0369 -5.0285,-2.20108 -6.20436,0.70358 -5.9529,1.88946 -6.11864,3.40026 -5.40185,4.45838 0.15127,-5.83492 3.23197,-2.18652 3.48107,-1.76091 -3.03955,1.4953 2.75109,-1.38797 -1.37554,0.69398 -1.37555,0.69399 1.37555,-0.69399 1.37554,-0.69398"
         transform="scale(0.264583)"
         inkstitch:manual_stitch="true" />
      <g
         id="command_group8"
         inkscape:label="Commande Ink/Stitch: Trim thread after sewing this object"
         transform="scale(0.264583)"
         style="display:none">
        <path
           id="command_connector8"
           d="m 244.71279,240.17905 7.14248,29.33656"
           style="fill:none;stroke:#000000;stroke-width:1px;stroke-opacity:0.5"
           inkscape:connection-start="#command_use2704"
           inkscape:connection-end="#object8170"
           inkscape:label="connecteur"
           inkscape:connector-type="polyline"
           inkscape:connector-curvature="0" />
        <use
           id="command_use2704"
           xlink:href="#inkstitch_trim"
           height="100%"
           width="100%"
           x="244.71021"
           y="240.1432"
           inkscape:label="marqueur de commande" />
      </g>
      <path
         id="object6955"
         style="fill:none;stroke:#ed161e;stroke-width:0.4"
         d="m 178.33534,357.03803 -1.67249,1.23876 -1.67249,1.23876 1.67249,-1.23876 1.67249,-1.23876 -3.34498,2.47752 -3.3105,3.3105 -3.3105,3.3105 -3.34066,-3.34066 -3.34066,-3.34066 -3.34066,-3.34067 -3.34067,-3.34066 v -0.99847 l 2.22104,-0.54662 7.314,0.90466 7.32071,0.84909 1.85196,0.94485 v 1.51902 l -3.56337,3.56338 -3.56337,3.56337 -3.56338,3.56337 v 5.34506 5.34506 5.34506 5.34506 5.34506 5.34506 5.34505 l -2.67253,2.67253 v 5.34506 5.34506 5.34506 l -3.34066,3.34066 -3.34066,3.34067 -3.34066,3.34066 -3.34066,3.34066 -0.1572,1.911 8.24499,1.01319 8.25183,0.95659 8.25167,0.9579 2.78818,-1.44395 2.65015,-1.68569 -8.8187,-1.06837 -8.82419,-1.02286 -8.82103,-1.04899 -8.8097,-1.13943 -3.49114,-4.30768 10.65139,1.43149 10.67047,1.28307 10.67598,1.23742 10.6668,1.31356 3.02199,-3.43144 -9.6568,-1.20615 -9.66552,-1.13369 -9.66711,-1.1204 -9.6571,-1.20352 -9.63666,-1.35703 -2.03755,-4.16078 10.53346,1.54421 10.56117,1.34447 10.5757,1.22616 10.57296,1.24895 10.56446,1.31951 2.02695,-3.55572 -9.40499,-1.1747 -9.40933,-1.1387 -9.41506,-1.09103 -9.41018,-1.13154 -9.39532,-1.24761 -9.36921,-1.42865 -1.2197,-4.02773 9.8495,1.53659 9.88018,1.32677 9.89722,1.19441 9.90288,1.14747 9.89633,1.20192 9.89227,1.23556 1.39454,-3.63389 -10.27272,-1.28358 -10.27661,-1.25127 -10.28379,-1.19168 -10.2775,-1.24387 -10.2587,-1.38935 -10.22442,-1.62167 -0.6039,-3.95593 10.50021,1.71503 10.54224,1.43735 10.56244,1.28151 10.56926,1.22485 10.56173,1.28745 10.5579,1.31921 0.85309,-3.70232 -10.76074,-1.34456 -10.76458,-1.31263 -10.7723,-1.24847 -10.76503,-1.30881 -10.74377,-1.47253 -10.69424,-1.79368 -0.116,-3.87169 10.81273,1.84237 10.86585,1.50212 10.88889,1.32622 10.89651,1.26295 10.88876,1.32731 10.88481,1.36006 0.39529,-3.75953 -10.93276,-1.36605 -10.93687,-1.33181 -10.94449,-1.26861 -10.9366,-1.33406 -10.91175,-1.5222 -10.85753,-1.86629 0.33753,-3.78414 10.82893,1.87146 10.88349,1.52729 10.90934,1.33251 10.91741,1.26556 10.91009,1.32631 10.90572,1.36267 -0.0768,-3.81851 -10.7957,-1.34893 -10.80041,-1.3097 -10.80727,-1.25288 -10.7991,-1.32058 -10.77311,-1.51591 -10.7191,-1.85596 0.8115,-3.69265 10.53764,1.8219 10.59038,1.48959 10.61568,1.29939 10.62385,1.2317 10.61761,1.2834 10.61249,1.32603 -0.52269,-3.87423 -10.34995,-1.29323 -10.35558,-1.24649 -10.36103,-1.20131 -10.35295,-1.26826 -10.32917,-1.4475 -10.27852,-1.76804 1.29807,-3.59873 9.9353,1.69291 9.98298,1.38852 10.00435,1.22642 10.01224,1.16096 10.00776,1.19806 10.00155,1.2497 -1.08125,-3.94402 -9.55808,-1.19429 -9.565,-1.13682 -9.56828,-1.10955 -9.56067,-1.1728 -9.54207,-1.31501 -9.49954,-1.59045 1.88336,-3.48575 10.75503,1.7 10.79445,1.43161 10.81344,1.28209 10.81678,1.25442 10.80532,1.34954 -1.83865,-4.03866 -9.97488,-1.23252 -9.98387,-1.15791 -9.98076,-1.18371 -9.96442,-1.31274 -9.93249,-1.53387 2.75619,-3.38072 11.14932,1.65542 11.18527,1.3956 11.19712,1.29871 11.19114,1.34827 -3.04457,-4.18921 -9.56022,-1.12789 -9.56248,-1.10911 -9.5539,-1.18029 -9.53031,-1.35583 4.58928,-3.14663 9.77857,1.2987 9.7952,1.16826 9.79902,1.13654 -0.68435,-0.57953 0.68435,0.57953 -0.68435,-0.57953 0.68435,0.57953 -0.68435,-0.57953"
         transform="scale(0.264583)"
         inkstitch:manual_stitch="true" />
    </g>
    <g
       id="__color_block_1__"
       inkscape:label="color block 2"
       transform="translate(112.5693,1.3348138)">
      <path
         id="object7672"
         style="fill:none;stroke:#000000;stroke-width:0.4"
         d="m 56.792308,194.50397 0.65815,-1.81123 0.658151,-1.81123 -0.658151,1.81123 -0.65815,1.81123 1.316301,-3.62246 0.176411,3.85016 1.316301,-3.62246 0.176412,3.85016 1.316301,-3.62245 0.176411,3.85015 1.316301,-3.62245 0.176412,3.85016 1.316301,-3.62246 0.176411,3.85016 1.316301,-3.62246 0.176412,3.85016 1.316301,-3.62246 0.176411,3.85016 1.316301,-3.62245 0.176412,3.85015 1.316301,-3.62245 0.176411,3.85015 1.316301,-3.62245 0.176412,3.85016 1.316301,-3.62246 0.176411,3.85016 1.316301,-3.62246 0.176412,3.85016 1.316301,-3.62246 0.176411,3.85016 1.316301,-3.62245 0.176412,3.85015 1.316301,-3.62245 0.176411,3.85016 1.316301,-3.62246 0.176412,3.85016 1.316301,-3.62246 0.176411,3.85016 1.316301,-3.62246 0.176412,3.85016 1.316301,-3.62245 0.176411,3.85015 1.316301,-3.62245 0.176412,3.85016 1.316301,-3.62246 0.176411,3.85016 1.316301,-3.62246 0.176411,3.85016 1.316302,-3.62246 0.176411,3.85016 1.316301,-3.62245 0.176411,3.85015 1.316302,-3.62245 0.176411,3.85015 1.316301,-3.62245 0.176411,3.85016 1.316302,-3.62246 0.176411,3.85016 1.316301,-3.62246 0.176411,3.85016 1.316302,-3.62246 0.176411,3.85016 1.3163,-3.62245 0.17641,3.85015 1.3163,-3.62245 0.17641,3.85016 1.31631,-3.62246 0.17641,3.85016 1.3163,-3.62246 0.17641,3.85016 1.3163,-3.62246 0.17641,3.85016 1.3163,-3.62245 0.17641,3.85015 1.31631,-3.62245 0.17641,3.85016 1.3163,-3.62246 0.17641,3.85016 1.3163,-3.62246 0.17641,3.85016 1.3163,-3.62246 0.17641,3.85016 1.31631,-3.62245 0.17641,3.85015 1.3163,-3.62245 0.17641,3.85015 1.3163,-3.62245 0.17641,3.85016 1.3163,-3.62246 0.17641,3.85016 1.31631,-3.62246 0.17641,3.85016 1.3163,-3.62246 0.17641,3.85016 1.3163,-3.62245 0.17641,3.85015 1.3163,-3.62245 0.17641,3.85016 1.31631,-3.62246 0.17641,3.85016 1.3163,-3.62246 0.17641,3.85016 1.3163,-3.62246 0.17641,3.85016 1.3163,-3.62245 0.17641,3.85015 1.31631,-3.62245 0.17641,3.85015 1.3163,-3.62245 0.17641,3.85016 1.3163,-3.62246 0.17641,3.85016 1.3163,-3.62246 0.17641,3.85016 1.31631,-3.62246 0.17641,3.85016 1.3163,-3.62245 0.17641,3.85015 1.3163,-3.62245 0.17641,3.85016 1.3163,-3.62246 0.17641,3.85016 1.31631,-3.62246 0.17641,3.85016 1.3163,-3.62246 0.17641,3.85016 1.3163,-3.62245 0.17641,3.85015 1.3163,-3.62245 0.17641,3.85016 1.31631,-3.62246 0.17641,3.85016 1.3163,-3.62246 0.17641,3.85016 1.3163,-3.62246 0.17641,3.85016 1.3163,-3.62245 0.17641,3.85015 1.31631,-3.62245 0.17641,3.85015 1.3163,-3.62245 0.17641,3.85016 1.3163,-3.62246 0.17641,3.85016 1.3163,-3.62246 0.17641,3.85016 1.31631,-3.62246 0.17641,3.85016 1.3163,-3.62245 0.17641,3.85015 1.3163,-3.62245 0.17641,3.85016 1.3163,-3.62246 0.17641,3.85016 1.31631,-3.62246 0.17641,3.85016 1.3163,-3.62246 0.17641,3.85016 1.3163,-3.62245 0.17641,3.85015 1.3163,-3.62245 0.17641,3.85016 1.31631,-3.62246 0.17641,3.85016 1.3163,-3.62246 0.17641,3.85016 1.3163,-3.62246 0.17641,3.85016 1.3163,-3.62245 0.17641,3.85015 1.31631,-3.62245 0.17641,3.85015 1.3163,-3.62245 0.17641,3.85016 1.3163,-3.62246 0.17641,3.85016 1.3163,-3.62246 0.17641,3.85016 1.31631,-3.62246 0.17641,3.85016 1.3163,-3.62245 0.17641,3.85015 1.3163,-3.62245 0.17641,3.85016 1.3163,-3.62246 0.17641,3.85016 1.31631,-3.62246 0.17641,3.85016 1.3163,-3.62246 0.17641,3.85016 1.3163,-3.62245 0.17403,3.84979 2.13012,-1.44898 -3.85223,-0.10415 3.51884,1.57109 -3.85224,-0.10415 3.51884,1.57109 -3.85223,-0.10415 3.51884,1.57109 -3.85224,-0.10415 3.51884,1.57109 -3.85223,-0.10415 3.51884,1.57109 -3.85224,-0.10415 3.51884,1.57109 -3.85223,-0.10415 3.51884,1.57109 -3.85224,-0.10416 3.51884,1.5711 -3.85224,-0.10416 3.51885,1.5711 -3.85224,-0.10416 3.51884,1.5711 -3.85224,-0.10416 3.51885,1.5711 -3.85224,-0.10416 3.51884,1.57109 -3.85224,-0.10415 3.51885,1.57109 -3.85224,-0.10415 3.51884,1.57109 -3.85224,-0.10415 3.51885,1.57109 -3.85224,-0.10415 3.51884,1.57109 -3.85224,-0.10415 3.51885,1.57109 -3.85224,-0.10415 3.51884,1.57109 -3.85224,-0.10415 3.51885,1.57109 -3.85224,-0.10415 3.51884,1.57109 -3.85224,-0.10415 3.51885,1.57109 -3.85224,-0.10415 3.51884,1.57109 -3.85224,-0.10415 3.51885,1.57109 -3.85224,-0.10415 3.51884,1.57109 -3.85224,-0.10415 3.51885,1.57109 -3.85224,-0.10416 3.51884,1.5711 -3.85224,-0.10416 3.51885,1.5711 -3.85224,-0.10416 3.51884,1.5711 -3.85224,-0.10416 3.51885,1.5711 -3.85224,-0.10416 3.51884,1.5711 -3.85224,-0.10416 3.51884,1.57109 -3.85223,-0.10415 3.51884,1.57109 -3.85224,-0.10415 3.51884,1.57109 -3.85223,-0.10415 3.51884,1.57109 -3.85224,-0.10415 3.51884,1.57109 -3.85223,-0.10415 3.51884,1.57109 -3.85224,-0.10415 3.51884,1.57109 -3.85223,-0.10415 3.51884,1.57109 -3.85224,-0.10415 3.51884,1.57109 -3.85224,-0.10415 3.51885,1.57109 -3.85224,-0.10415 3.51884,1.57109 -3.85224,-0.10415 3.51885,1.57109 -3.85224,-0.10415 3.51884,1.57109 -3.85224,-0.10415 3.51885,1.57109 -3.85224,-0.10416 3.51884,1.5711 -3.85224,-0.10416 3.51885,1.5711 -3.85224,-0.10416 3.51884,1.5711 -3.85224,-0.10416 3.51885,1.5711 -3.85224,-0.10416 3.51884,1.57109 -3.85224,-0.10415 3.51885,1.57109 -3.85224,-0.10415 3.51884,1.57109 -3.85224,-0.10415 3.51885,1.57109 -3.85224,-0.10415 3.51884,1.57109 -2.00947,0.31466 1.00474,-0.15733 1.00473,-0.15733 -1.00473,0.15733 -1.00474,0.15733"
         transform="scale(0.264583)"
         inkstitch:manual_stitch="true" />
    </g>
    <g
       id="__color_block_2__"
       inkscape:label="color block 3"
       transform="translate(112.56928,1.3348161)">
      <path
         id="object6735"
         style="fill:none;stroke:#ed161e;stroke-width:0.4"
         d="m 100.92568,215.09396 -2.063787,0.19452 -2.063791,0.19453 2.063791,-0.19453 2.063787,-0.19452 -4.127578,0.38905 -4.004992,1.05997 -3.796665,1.66776 -3.310965,2.12968 -3.051382,2.48808 -2.90392,3.0794 -2.591421,3.3471 -2.68882,4.48885 -2.197107,4.7476 -1.744942,4.93366 -1.316334,5.43851 -0.830065,5.53244 -0.352976,5.58465 0.138948,4.99133 0.486863,4.96945 0.904671,4.80748 1.251724,4.7289 1.819234,4.87478 2.275485,4.67706 2.759473,4.41028 2.936177,3.59352 3.333941,3.22402 3.746182,2.73679 3.32719,1.71616 3.514133,1.28972 3.543679,0.67605 3.602097,0.19629 4.12946,-0.51478 3.9846,-1.18998 3.76278,-1.77921 3.78598,-2.62244 3.38826,-3.11698 2.99128,-3.50361 2.47178,-3.72964 2.13853,-3.93054 1.82848,-4.36998 1.48426,-4.49874 1.23056,-5.47051 0.73865,-5.55713 0.26674,-5.601 -0.15794,-4.44677 -0.46728,-4.42475 -0.78065,-4.38025 -1.10032,-4.31112 -1.86671,-5.19962 -2.37347,-4.98681 -2.89684,-4.70266 -2.36722,-2.98844 -2.64731,-2.74288 -2.71668,-2.26577 -2.9501,-1.95149 -2.992,-1.49372 -3.15432,-1.10977 -3.19627,-0.66484 -3.25688,-0.22515 1.62844,0.11258 1.62844,0.11257 -1.62844,-0.11257 -1.62844,-0.11258"
         transform="scale(0.264583)"
         inkstitch:manual_stitch="true" />
      <g
         id="command_group10"
         inkscape:label="Commande Ink/Stitch: Trim thread after sewing this object"
         transform="scale(0.264583)"
         style="display:none">
        <path
           id="command_connector10"
           d="m 96.799882,185.3857 1.6355,29.94298"
           style="fill:none;stroke:#000000;stroke-width:1px;stroke-opacity:0.5"
           inkscape:connection-start="#command_use125"
           inkscape:connection-end="#object6735"
           inkscape:label="connecteur"
           inkscape:connector-type="polyline"
           inkscape:connector-curvature="0" />
        <use
           id="command_use125"
           xlink:href="#inkstitch_trim"
           height="100%"
           width="100%"
           x="96.797302"
           y="185.34985"
           inkscape:label="marqueur de commande" />
      </g>
      <path
         id="object2299"
         style="fill:none;stroke:#ed161e;stroke-width:0.4"
         d="m 68.320385,309.96606 1.918957,0.73959 1.918956,0.7396 -1.918956,-0.7396 -1.918957,-0.73959 3.837913,1.47919 -2.672529,3.91324 3.563372,3.56337 3.563373,3.56337 3.563373,3.56338 2.148121,-2.14812 2.067112,-2.15288 3.357105,8.03775 4.343682,7.54565 1.014699,4.12507 0.806922,4.07809 -4.674841,-5.67629 -3.822202,-6.28704 -3.983522,-8.88402 -3.037046,-9.25248 -2.315572,-1.73328 -2.466198,-1.51306 2.241655,7.92081 2.780455,7.74722 3.436468,7.4785 5.764126,8.99265 6.637573,6.88443 0.102829,4.89657 -8.1368,-7.52894 -4.169636,-5.52888 -3.541852,-5.95215 -3.126248,-6.65981 -2.610956,-6.8792 -2.016639,-6.58795 -1.722547,-6.67108 -3.897103,3.84356 -3.887292,3.88729 v 5.34506 5.34506 5.34506 5.34505 5.34506 5.34506 l -3.515735,3.51574 -3.515734,3.51573 -3.515735,3.51574 -3.515735,3.51573 -3.515735,3.51574 -3.515734,3.51573 -3.515735,3.51574 -3.515735,3.51573 0.439149,1.05791 5.095186,6.6502 5.542247,6.28132 6.014821,5.83157 4.445608,1.74902 4.703301,0.91369 -8.488832,-7.19379 -7.700373,-8.03373 -5.017867,-6.34025 -4.597003,-6.65118 -4.105352,-6.96624 -0.570087,-5.029 -0.319904,-5.12655 2.728194,5.59679 2.984991,5.4645 4.188623,6.61261 4.587292,6.34236 4.622735,5.45158 4.948828,5.1573 6.20235,5.4864 6.616067,4.97744 4.789522,-1.32366 -5.92341,-4.1548 -5.628314,-4.54778 -6.607974,-6.36476 -5.993836,-6.9463 -4.442247,-6.1323 -4.056182,-6.3944 -4.59689,-8.68064 -3.929709,-9.00169 0.597088,-3.58553 0.756364,-3.55518 3.663313,9.42903 4.352879,9.13151 4.919284,8.43187 5.655094,7.95643 5.817943,6.74818 6.419545,6.17838 6.312704,5.05012 6.710402,4.50691 3.400013,-2.35028 -8.85331,-5.94679 -8.13306,-6.89959 -6.043975,-6.39148 -5.423265,-6.92649 -5.231097,-8.14498 -4.508437,-8.56705 -3.882411,-9.06992 -3.251273,-9.31437 1.140202,-2.69309 1.199558,-2.63724 2.328508,7.51125 2.752624,7.36616 3.127291,7.21485 4.353825,8.2746 5.051118,7.86741 6.556195,8.15357 7.433747,7.36153 6.941511,5.45049 7.437203,4.75116 2.57184,-2.88241 -7.486846,-4.7199 -6.976384,-5.4464 -7.119023,-7.05087 -6.278335,-7.80956 -4.166553,-6.41732 -3.679,-6.70777 -3.243312,-6.93035 -3.837759,-10.12621 -3.114406,-10.37244 2.929529,-3.88366 2.094272,7.76204 2.5048,7.63892 2.900532,7.49775 4.844608,9.95131 5.847196,9.39535 6.000476,7.46553 6.804299,6.74022 6.866562,5.34229 7.375935,4.61378 1.986134,-3.21797 -8.556197,-5.45013 -7.77972,-6.51019 -6.324253,-6.89049 -5.511046,-7.55771 -5.436663,-9.66772 -4.443033,-10.1647 -3.380387,-9.99416 -2.703624,-10.1987 3.283841,-2.63423 2.787289,10.85132 3.544469,10.62751 4.283084,9.80497 5.241506,9.32582 5.250548,7.20305 6.025762,6.56714 7.343086,6.14845 8.071389,5.15559 1.458994,-3.52 -7.458331,-4.80781 -6.797644,-5.70413 -5.727272,-6.2438 -4.99005,-6.84838 -5.04635,-8.98391 -4.123134,-9.44525 -2.51496,-7.29526 -2.153061,-7.4101 -1.777837,-7.50937 3.539937,-1.51528 1.770212,7.56564 2.140908,7.46865 2.526389,7.34746 3.963184,9.08552 4.851194,8.64201 4.729552,6.49371 5.428781,5.92046 6.146355,5.17946 6.720514,4.40826 0.999773,-3.7831 -6.99724,-4.82137 -6.267103,-5.73776 -5.03808,-6.05066 -4.335412,-6.57376 -4.535481,-8.96337 -3.652137,-9.3601 -2.660339,-8.81507 -2.129877,-8.9579 3.784124,-0.3808 2.636115,10.62217 3.419252,10.39577 2.931635,6.90433 3.471169,6.6484 4.093914,6.21172 4.758055,5.71753 5.351889,4.94543 5.929212,4.23506 0.499359,-4.17535 -4.72414,-3.55934 -4.313381,-4.04755 -4.47803,-5.38439 -3.852418,-5.84968 -3.325922,-6.37483 -2.809754,-6.61959 -3.183225,-9.61353 -2.48628,-9.81752 3.153891,0.67096 -1.576945,-0.33548 -1.576946,-0.33548 1.576946,0.33548 1.576945,0.33548"
         transform="scale(0.264583)"
         inkstitch:manual_stitch="true" />
    </g>
    <g
       id="__color_block_3__"
       inkscape:label="color block 4"
       transform="translate(112.5693,1.3348138)">
      <path
         id="object5010"
         style="fill:none;stroke:#0954a3;stroke-width:0.4"
         d="m 124.40632,515.16682 -2.13999,0.14374 -2.14,0.14375 2.14,-0.14375 2.13999,-0.14374 -4.27999,0.28749 -4.20387,0.85148 -3.87583,1.35102 -3.66111,1.8544 -3.36978,2.34248 -2.91139,2.72706 -2.472966,3.12624 -1.95585,3.47308 -1.559942,4.57062 -0.636479,4.78689 0.218331,3.78871 0.826329,3.70394 1.400309,3.52749 2.646418,4.22407 3.37696,3.66756 3.28325,2.53349 3.61406,2.03955 3.8846,1.52986 4.05378,0.99874 4.14944,0.46284 4.25588,-0.0881 4.20703,-0.64863 4.08308,-1.20466 3.81398,-1.72613 3.53794,-2.23692 2.99419,-2.56943 2.59492,-2.97108 2.11931,-3.32713 1.53462,-3.54341 0.94568,-3.74355 0.3203,-3.84789 -0.56088,-5.08309 -1.64152,-4.84376 -2.70879,-4.52538 -3.56314,-3.89019 -4.42926,-3.25154 -4.95735,-2.37157 -5.44843,-1.47784 -5.62383,-0.49673 2.81192,0.24836 2.81191,0.24837 -2.81191,-0.24837 -2.81192,-0.24836 129.70056,23.94472 -2.10872,0.0784 -2.10873,0.0784 2.10873,-0.0784 2.10872,-0.0784 -4.21745,0.15687 -4.19876,0.42265 -4.16332,0.69087 -4.73006,1.20838 -4.61062,1.60086 -4.44092,2.02671 -4.52724,2.75139 -4.11035,3.34016 -3.22178,3.60023 -2.53944,4.10772 -1.50775,4.08474 -0.62438,4.30759 0.58566,5.31983 1.8856,5.01173 2.19461,3.40897 2.66872,3.05028 3.02257,2.7041 4.66415,3.13274 5.03223,2.50157 4.17947,1.53886 4.28145,1.2275 4.02721,0.80023 4.06951,0.54393 4.0957,0.29145 4.69844,-0.0309 4.68613,-0.34104 4.64057,-0.73495 4.57753,-1.05849 4.25882,-1.40176 4.13813,-1.72524 3.60539,-1.954 3.42206,-2.25921 2.86266,-2.41348 2.60255,-2.69135 2.03146,-2.78846 1.67871,-3.01342 1.10358,-3.09022 0.65881,-3.21416 -0.0886,-5.03918 -0.63056,-2.83417 -1.01391,-2.72093 -2.3733,-4.03039 -2.98016,-3.60698 -2.57224,-2.33256 -2.7853,-2.07414 -3.23423,-1.96568 -3.3896,-1.68376 -3.51007,-1.41638 -3.86087,-1.22464 -3.93846,-0.94591 -3.99368,-0.67689 -4.19496,-0.42039 -4.21368,-0.14069 2.10684,0.0703 2.10684,0.0703 -2.10684,-0.0703 -2.10684,-0.0703 17.95852,141.67289 -2.06379,0.19452 -2.06379,0.19452 2.06379,-0.19452 2.06379,-0.19452 -4.12758,0.38904 -4.00499,1.05997 -3.79667,1.66776 -3.31096,2.12968 -3.05139,2.48809 -2.90392,3.0794 -2.59142,3.34709 -2.68882,4.48885 -2.1971,4.74761 -1.74495,4.93366 -1.31633,5.4385 -0.83006,5.53245 -0.35298,5.58465 0.13895,4.99133 0.48686,4.96944 0.90467,4.80749 1.25173,4.7289 1.81923,4.87477 2.27548,4.67707 2.75948,4.41028 2.93617,3.59351 3.33395,3.22402 3.74618,2.73679 3.32719,1.71616 3.51413,1.28973 3.54368,0.67604 3.60209,0.1963 4.12947,-0.51478 3.9846,-1.18998 3.76277,-1.77922 3.78598,-2.62243 3.38827,-3.11698 2.99127,-3.50362 2.47179,-3.72963 2.13852,-3.93054 1.82848,-4.36998 1.48427,-4.49874 1.23056,-5.47052 0.73865,-5.55712 0.26674,-5.601 -0.15794,-4.44677 -0.46728,-4.42475 -0.78065,-4.38025 -1.10032,-4.31112 -1.86671,-5.19962 -2.37347,-4.98681 -2.89685,-4.70267 -2.36721,-2.98844 -2.64732,-2.74287 -2.71667,-2.26578 -2.95011,-1.95149 -2.99199,-1.49371 -3.15432,-1.10977 -3.19627,-0.66484 -3.25688,-0.22515 1.62844,0.11257 1.62844,0.11258 -1.62844,-0.11258 -1.62844,-0.11257 -100.76865,83.79813 -2.06379,0.19453 -2.06379,0.19452 2.06379,-0.19452 2.06379,-0.19453 -4.12758,0.38905 -4.00499,1.05997 -3.79667,1.66776 -3.31096,2.12968 -3.05138,2.48809 -2.90392,3.07939 -2.59142,3.3471 -2.68882,4.48885 -2.19711,4.7476 -1.74494,4.93367 -1.31634,5.4385 -0.83006,5.53244 -0.35298,5.58465 0.13895,4.99133 0.48686,4.96945 0.90467,4.80748 1.25173,4.72891 1.81923,4.87477 2.27549,4.67706 2.75947,4.41028 2.93618,3.59352 3.33394,3.22402 3.74618,2.73679 3.32719,1.71616 3.51413,1.28972 3.54368,0.67605 3.6021,0.1963 4.12946,-0.51479 3.9846,-1.18998 3.76278,-1.77921 3.78598,-2.62244 3.38826,-3.11697 2.99128,-3.50362 2.47178,-3.72964 2.13853,-3.93053 1.82848,-4.36999 1.48426,-4.49874 1.23056,-5.47051 0.73865,-5.55713 0.26674,-5.601 -0.16392,-4.52489 -0.48062,-4.50186 -0.80511,-4.45513 -1.13768,-4.38215 -1.85767,-5.09308 -2.34834,-4.88447 -2.84987,-4.6104 -3.06214,-3.71684 -3.49269,-3.31175 -3.91045,-2.80688 -3.00529,-1.53327 -3.17488,-1.14091 -3.28521,-0.6966 -3.35012,-0.23581 1.67506,0.11791 1.67506,0.1179 -1.67506,-0.1179 -1.67506,-0.11791"
         transform="scale(0.264583)"
         inkstitch:manual_stitch="true" />
    </g>
    <g
       id="__color_block_4__"
       inkscape:label="color block 5"
       transform="translate(112.5693,1.3348138)">
      <path
         id="object9079"
         style="fill:none;stroke:#000000;stroke-width:0.4"
         d="m 66.30519,608.31421 0.65815,-1.81123 0.658151,-1.81122 -0.658151,1.81122 -0.65815,1.81123 1.316301,-3.62245 0.176411,3.85015 1.316301,-3.62245 0.176412,3.85016 1.316301,-3.62246 0.176411,3.85016 1.316301,-3.62246 0.176412,3.85016 1.316301,-3.62246 0.176411,3.85016 1.316301,-3.62245 0.176412,3.85015 1.316301,-3.62245 0.176411,3.85015 1.316301,-3.62245 0.176412,3.85016 1.316301,-3.62246 0.176411,3.85016 1.316301,-3.62246 0.176412,3.85016 1.316301,-3.62246 0.176411,3.85016 1.316301,-3.62245 0.176412,3.85015 1.316301,-3.62245 0.176411,3.85016 1.316301,-3.62246 0.176412,3.85016 1.316301,-3.62246 0.176411,3.85016 1.316301,-3.62246 0.176412,3.85016 1.316301,-3.62245 0.176411,3.85015 1.316301,-3.62245 0.176412,3.85015 1.316301,-3.62245 0.176411,3.85016 1.316301,-3.62246 0.176412,3.85016 1.316301,-3.62246 0.176411,3.85016 1.316301,-3.62246 0.176412,3.85016 1.316305,-3.62245 0.17641,3.85015 1.3163,-3.62245 0.17641,3.85016 1.3163,-3.62246 0.17641,3.85016 1.3163,-3.62246 0.17641,3.85016 1.31631,-3.62246 0.17641,3.85016 1.3163,-3.62245 0.17641,3.85015 1.3163,-3.62245 0.17641,3.85016 1.3163,-3.62246 0.17641,3.85016 1.31631,-3.62246 0.17641,3.85016 1.3163,-3.62246 0.17641,3.85016 1.3163,-3.62245 0.17641,3.85015 1.3163,-3.62245 0.17641,3.85015 1.31631,-3.62245 0.17641,3.85016 1.3163,-3.62246 0.17641,3.85016 1.3163,-3.62246 0.17641,3.85016 1.3163,-3.62246 0.17641,3.85016 1.31631,-3.62245 0.17641,3.85015 1.3163,-3.62245 0.17641,3.85016 1.3163,-3.62246 0.17641,3.85016 1.3163,-3.62246 0.17641,3.85016 1.31631,-3.62246 0.17641,3.85016 1.3163,-3.62245 0.17641,3.85015 1.3163,-3.62245 0.17641,3.85016 1.3163,-3.62246 0.17641,3.85016 1.31631,-3.62246 0.17641,3.85016 1.3163,-3.62246 0.17641,3.85016 1.3163,-3.62245 0.17641,3.85015 1.3163,-3.62245 0.17641,3.85015 1.31631,-3.62245 0.17641,3.85016 1.3163,-3.62246 0.17641,3.85016 1.3163,-3.62246 0.17641,3.85016 1.3163,-3.62246 0.17641,3.85016 1.31631,-3.62245 0.17641,3.85015 1.3163,-3.62245 0.17641,3.85016 1.3163,-3.62246 0.17641,3.85016 1.3163,-3.62246 0.17641,3.85016 1.31631,-3.62246 0.17641,3.85016 1.3163,-3.62245 0.17641,3.85015 1.3163,-3.62245 0.17641,3.85016 1.3163,-3.62246 0.17641,3.85016 1.31631,-3.62246 0.17641,3.85016 1.3163,-3.62246 0.17641,3.85016 1.3163,-3.62245 0.17641,3.85015 1.3163,-3.62245 0.17641,3.85015 1.31631,-3.62245 0.17641,3.85016 1.3163,-3.62246 0.17641,3.85016 1.3163,-3.62246 0.17641,3.85016 1.3163,-3.62246 0.17641,3.85016 1.31631,-3.62245 0.17641,3.85015 1.3163,-3.62245 0.17641,3.85016 1.3163,-3.62246 0.17641,3.85016 1.3163,-3.62246 0.17641,3.85016 1.31631,-3.62246 0.17641,3.85016 1.3163,-3.62245 0.17641,3.85015 1.3163,-3.62245 0.17641,3.85015 1.3163,-3.62245 0.17641,3.85016 1.31631,-3.62246 0.17641,3.85016 1.3163,-3.62246 0.17641,3.85016 1.3163,-3.62246 0.17641,3.85016 1.3163,-3.62245 0.17641,3.85015 1.31631,-3.62245 0.17641,3.85016 1.3163,-3.62246 0.17641,3.85016 1.3163,-3.62246 0.17641,3.85016 1.3163,-3.62246 0.17641,3.85016 1.31631,-3.62245 0.17641,3.85015 1.3163,-3.62245 0.17641,3.85016 1.3163,-3.62246 0.17641,3.85016 1.3163,-3.62246 0.17641,3.85016 1.31631,-3.62246 0.17641,3.85016 1.3163,-3.62245 0.17641,3.85015 1.3163,-3.62245 0.17641,3.85015 1.3163,-3.62245 0.17403,3.84979 2.13013,-1.44898 -3.85224,-0.10415 3.51884,1.57109 -3.85224,-0.10415 3.51885,1.57109 -3.85224,-0.10415 3.51884,1.57109 -3.85224,-0.10415 3.51885,1.57109 -3.85224,-0.10415 3.51884,1.57109 -3.85224,-0.10415 3.51885,1.57109 -3.85224,-0.10415 3.51884,1.57109 -3.85224,-0.10415 3.51885,1.57109 -3.85224,-0.10415 3.51884,1.57109 -3.85224,-0.10415 3.51885,1.57109 -3.85224,-0.10415 3.51884,1.57109 -3.85224,-0.10415 3.51884,1.57109 -3.85223,-0.10415 3.51884,1.57109 -3.85224,-0.10416 3.51884,1.5711 -3.85223,-0.10416 3.51884,1.5711 -3.85224,-0.10416 3.51884,1.5711 -3.85223,-0.10416 3.51884,1.5711 -3.85224,-0.10416 3.51884,1.57109 -3.85223,-0.10415 3.51884,1.57109 -3.85224,-0.10415 3.51884,1.57109 -3.85223,-0.10415 3.51884,1.57109 -3.85224,-0.10415 3.51884,1.57109 -3.85224,-0.10415 3.51885,1.57109 -3.85224,-0.10415 3.51884,1.57109 -3.85224,-0.10415 3.51885,1.57109 -3.85224,-0.10415 3.51884,1.57109 -3.85224,-0.10415 3.51885,1.57109 -3.85224,-0.10415 3.51884,1.57109 -3.85224,-0.10415 3.51885,1.57109 -3.85224,-0.10415 3.51884,1.57109 -3.85224,-0.10415 3.51885,1.57109 -3.85224,-0.10415 3.51884,1.57109 -3.85224,-0.10416 3.51885,1.5711 -3.85224,-0.10416 3.51884,1.5711 -3.85224,-0.10416 3.51885,1.5711 -3.85224,-0.10416 3.51884,1.5711 -3.85224,-0.10416 3.51885,1.57109 -3.85224,-0.10415 3.51884,1.57109 -3.85224,-0.10415 3.51885,1.57109 -3.85224,-0.10415 3.51884,1.57109 -3.85224,-0.10415 3.51885,1.57109 -3.85224,-0.10415 3.51884,1.57109 -3.85224,-0.10415 3.51884,1.57109 -3.85223,-0.10415 3.51884,1.57109 -3.85224,-0.10415 3.51884,1.57109 -3.85223,-0.10415 3.51884,1.57109 -3.85224,-0.10415 3.51884,1.57109 -3.85223,-0.10415 3.51884,1.57109 -3.85224,-0.10415 3.51884,1.57109 -3.85223,-0.10415 3.51884,1.57109 -3.85224,-0.10416 3.51884,1.5711 -3.85223,-0.10416 3.51884,1.5711 -3.85224,-0.10416 3.51884,1.5711 -2.00946,0.31465 1.00473,-0.15732 1.00473,-0.15733 -1.00473,0.15733 -1.00473,0.15732"
         transform="scale(0.264583)"
         inkstitch:manual_stitch="true" />
    </g>
    <g
       id="__color_block_5__"
       inkscape:label="color block 6"
       transform="translate(112.5693,1.3348138)">
      <path
         id="object193"
         style="fill:none;stroke:#0954a3;stroke-width:0.4"
         d="m 141.10926,691.48291 -1.85693,-1.77321 -1.85693,-1.77321 1.85693,1.77321 1.85693,1.77321 -3.71386,-3.54642 -3.76892,-3.76892 -3.56337,3.56337 -3.56338,3.56337 -3.56337,3.56338 -3.56337,3.56337 -3.56338,3.56337 -3.56337,3.56338 v 5.34505 5.34506 l 3.78589,3.78589 2.13689,-0.62189 6.95712,-4.8786 6.84334,-5.03726 3.25765,-4.57895 2.69784,-4.86254 -6.87543,5.40772 -7.02765,5.20888 -7.14597,5.04491 -7.21553,4.9459 -0.0867,-1.74153 2.67253,-2.67253 -3.56337,-3.56337 -3.56337,-3.56337 -3.56338,-3.56337 -3.563369,-3.56338 -3.563373,-3.56337 -3.563373,-3.56337 -3.702637,3.70263 -3.552962,2.80486 1.968116,3.51194 5.30967,-3.45658 5.236625,-3.56591 -7.11779,-0.24943 -7.121537,-0.0141 -1.398446,-3.7751 8.910033,0.021 8.905397,0.31208 8.882926,0.69058 -6.44956,4.43651 -6.456976,4.42594 -6.55081,4.2855 2.430336,2.9277 9.078827,-6.02972 8.990213,-6.16235 8.82454,-6.39619 -9.02364,-1.2037 -9.075075,-0.73332 -9.780687,-0.34275 -9.786028,-0.007 -0.812543,-3.77696 8.573666,-0.0273 8.569107,0.25906 8.5594,0.47424 10.89643,1.2332 10.76661,2.06622 -8.03995,6.14683 -8.22429,5.89795 -8.34823,5.7223 -8.426702,5.60484 3.190689,2.43272 7.772713,-5.19415 7.71145,-5.28583 7.61432,-5.42409 7.45221,-5.64466 7.26088,-5.88797 -7.88261,-2.23687 -8.04243,-1.57924 -8.12139,-1.11601 -10.59644,-0.86718 -10.626333,-0.37239 -10.632591,0.0206 -0.344909,-3.77845 9.482142,-0.0302 9.477109,0.28589 9.462292,0.58483 9.42251,1.05317 7.20168,1.22563 7.12617,1.60542 5.66757,1.75986 5.5085,2.20489 -6.2976,5.49058 -6.51724,5.22879 -6.66999,5.0333 -7.17457,5.12807 -7.27428,4.98616 -7.310757,4.93155 4.397117,1.64733 7.51611,-5.15145 7.49027,-5.18826 7.35573,-5.37731 7.21648,-5.56247 6.99112,-5.84173 1.37458,-5.42435 -3.61409,-3.61409 -3.6141,-3.61409 -3.61409,-3.6141 -3.61409,-3.61409 -3.61409,-3.61409 -3.61409,-3.61409 -3.61409,-3.61409 -3.6141,-3.61409 -3.61409,-3.6141 v -5.34506 -5.34505 -5.34506 -5.34506 l -3.98291,-3.98292 -2.52069,0.66233 9.51015,0.74643 9.47661,1.0925 3.60208,2.22403 3.26173,2.70583 -10.91245,-1.62532 -10.97941,-1.08841 -11.019085,-0.56242 -2.276474,1.72434 -2.131044,1.90107 7.693586,0.27096 7.684307,0.45058 7.66663,0.69403 9.23041,1.23822 9.16515,1.65079 3.05576,4.58179 -10.89918,-2.1999 -11.0169,-1.52005 -8.62397,-0.75505 -8.645071,-0.44246 -8.652792,-0.26773 -2.634289,3.78445 9.413029,0.19915 9.405413,0.43724 9.38135,0.80709 8.23206,1.08801 8.17726,1.43972 8.09377,1.85215 1.74833,4.44082 -8.75807,-2.22957 -8.89243,-1.61992 -8.95801,-1.20859 -9.97499,-0.84762 -10.001409,-0.43193 -10.008914,-0.14247 -1.69271,3.78244 10.454406,0.0974 10.446917,0.42795 10.41882,0.8768 9.5305,1.30545 9.44497,1.81591 9.28916,2.49251 0.94244,4.29404 -6.01622,-1.85111 -6.11201,-1.50926 -8.68599,-1.59661 -8.75151,-1.18846 -10.75495,-0.90024 -10.784581,-0.42132 -10.791881,-0.0614 -1.083266,3.78299 9.72671,-0.015 9.721044,0.34066 9.702584,0.66449 9.66435,1.09352 8.38457,1.43352 8.29423,1.88427 8.10497,2.57556 0.32412,4.12774 -8.37449,-2.74785 -8.57632,-2.03229 -8.68756,-1.49831 -8.63133,-0.99159 -8.66216,-0.67314 -10.902921,-0.38208 -10.909046,0.003 -0.561888,3.78133 11.091943,-0.0155 11.085512,0.38847 8.49482,0.66016 8.4646,0.97224 7.87589,1.34336 7.79305,1.75931 10.56875,3.57755 -0.20698,4.02568 -5.59498,-2.18748 -5.7443,-1.76366 -7.57076,-1.70801 -7.65115,-1.30411 -8.29787,-0.95289 -8.327473,-0.64718 -11.148234,-0.39067 -11.154826,0.0233 -0.0988,3.77987 9.645742,-0.0307 9.640621,0.29091 9.62536,0.5979 9.585,1.07213 7.42641,1.26487 7.34846,1.65671 6.02094,1.87385 5.84962,2.35129 -0.67922,3.76073 -0.88708,3.71753 0.44354,-1.85877 0.44354,-1.85876 -0.44354,1.85876 -0.44354,1.85877 -48.968607,41.84096 -1.138584,-1.18683 1.138584,1.18683 -1.138584,-1.18683 1.138584,1.18683 -1.138584,-1.18683 -3.455547,3.45555 -3.455546,3.45555 -3.455546,3.45554 -3.455547,3.45555 -3.455546,3.45554 -3.455546,3.45555 -3.455547,3.45555 -3.976995,-3.977 -3.976995,-3.97699 -3.976995,-3.977 -3.976995,-3.97699 -3.856596,-2.84518 8.158954,-4.83541 8.112524,-4.91308 8.079903,-4.96609 2.951632,0.23287 2.904499,0.56253 -8.380038,5.22449 -8.447015,5.11566 -8.472954,5.07226 -8.505728,5.01744 -1.176005,2.78984 -1.016887,2.85162 8.16486,-4.77615 8.147404,-4.80607 8.091742,-4.89918 8.072975,-4.92971 8.020062,-5.01569 3.71825,2.13242 -9.038289,5.65248 -9.093856,5.56219 -9.127944,5.50634 -9.1818,5.41624 -9.21787,5.35443 -0.88849,4.87645 8.379646,-4.83576 8.338092,-4.90699 8.316203,-4.94381 8.275551,-5.01181 8.2328,-5.08129 8.202826,-5.12998 2.782694,2.71751 -8.742394,5.46743 -8.774827,5.41472 -8.819901,5.34149 -8.869775,5.25805 -8.896564,5.2126 -8.930843,5.15385 1.850459,2.742 2.491914,2.49192 2.67253,-2.67253 2.672529,2.67253 2.67253,-2.67253 2.672529,2.67253 2.67253,-2.67253 2.672529,2.67253 2.67253,-2.67253 3.719318,3.71931 3.719318,3.71932 3.719318,3.71932 3.719318,3.71932 3.719317,3.71932 3.719318,3.71931 3.719318,3.71932 3.719318,3.71932 3.719318,3.71932 -1.211943,1.69433 -7.04211,4.15469 -7.047775,4.14499 -7.081806,4.08667 -3.322079,-0.0321 -3.281747,-0.52274 8.077035,-4.65886 8.057228,-4.69284 8.030858,-4.73804 7.992972,-4.80141 1.336253,-2.95539 1.216008,-3.00829 -7.847186,4.75191 -7.886579,4.68603 -7.901208,4.66154 -7.944615,4.58716 -7.965093,4.55126 -3.905338,-2.13966 9.089562,-5.17033 9.054885,-5.23108 9.006741,-5.3136 8.974989,-5.36672 8.945082,-5.41675 1.05117,-5.09687 -8.160541,4.98351 -8.179299,4.95302 -8.23423,4.86112 -8.249495,4.83502 -8.282105,4.77914 -8.323175,4.70704 -2.827294,-2.74597 8.901157,-5.02651 8.854041,-5.10921 8.816943,-5.17278 8.793339,-5.21279 8.744153,-5.29507 8.703236,-5.36156 0.21357,-4.59073 -9.132526,5.66443 -9.192681,5.56668 -9.236046,5.49414 -9.266719,5.44238 -9.308121,5.37143 -9.3591,5.28195 -2.170301,-3.11551 9.708088,-5.47887 9.655103,-5.57187 9.609554,-5.64993 9.573154,-5.71116 9.535448,-5.77425 9.458987,-5.89849 -0.39893,-4.20798 -8.313417,5.19853 -8.37034,5.10603 -8.390072,5.07383 -8.445113,4.98173 -8.466105,4.94576 -8.492239,4.90097 -8.54543,4.80763 -1.611087,-3.4301 8.684356,-4.89144 8.632647,-4.98219 8.602706,-5.0335 8.581642,-5.06947 8.525822,-5.16286 8.498739,-5.20687 8.450831,-5.28471 -0.90164,-3.89317 -8.520574,5.32817 -8.560272,5.26367 -8.596036,5.20556 -8.646752,5.1207 -8.66971,5.08173 -8.70388,5.02315 -8.752323,4.93815 -1.144198,-3.69262 8.751539,-4.94849 8.707791,-5.02527 8.669229,-5.09137 8.645173,-5.132 8.599759,-5.20799 8.556755,-5.27786 8.524219,-5.33072 -1.375364,-3.5976 -8.462437,5.29234 -8.488722,5.24963 -8.537463,5.17044 -8.577382,5.10365 -8.601744,5.0627 -8.644852,4.98881 -8.682496,4.92274 -0.662591,-3.96381 8.540894,-4.85857 8.510341,-4.91217 8.463469,-4.99251 8.439017,-5.03342 8.405049,-5.09024 8.351906,-5.17659 8.331186,-5.21026 -1.867146,-3.29008 -9.483411,5.93084 -9.523552,5.86563 -9.56749,5.79424 -9.633268,5.68419 -9.66605,5.62804 -9.70885,5.55382 -0.151856,-4.25113 9.368325,-5.38227 9.330209,-5.44801 9.299873,-5.49975 9.241763,-5.59698 9.196349,-5.67076 9.160547,-5.72893 -1.749181,-2.21603 0.874591,1.10801 0.87459,1.10802 -0.87459,-1.10802 -0.874591,-1.10801"
         transform="scale(0.264583)"
         inkstitch:manual_stitch="true" />
    </g>
  </g>
</svg>
