<?xml version="1.0" encoding="UTF-8" standalone="no"?>
<!-- Created with Inkscape (http://www.inkscape.org/) -->

<svg
   width="70mm"
   height="49mm"
   viewBox="0 0 70 48.999997"
   version="1.1"
   id="svg1"
   inkscape:version="1.3.2 (091e20ef0f, 2023-11-25, custom)"
   sodipodi:docname="linear-gradient.svg"
   xmlns:inkscape="http://www.inkscape.org/namespaces/inkscape"
   xmlns:sodipodi="http://sodipodi.sourceforge.net/DTD/sodipodi-0.dtd"
   xmlns:xlink="http://www.w3.org/1999/xlink"
   xmlns="http://www.w3.org/2000/svg"
   xmlns:svg="http://www.w3.org/2000/svg"
   xmlns:rdf="http://www.w3.org/1999/02/22-rdf-syntax-ns#"
   xmlns:cc="http://creativecommons.org/ns#"
   xmlns:inkstitch="http://inkstitch.org/namespace">
  <sodipodi:namedview
     id="namedview1"
     pagecolor="#ffffff"
     bordercolor="#000000"
     borderopacity="0.25"
     inkscape:showpageshadow="2"
     inkscape:pageopacity="0.0"
     inkscape:pagecheckerboard="0"
     inkscape:deskcolor="#d1d1d1"
     inkscape:document-units="mm"
     showgrid="false"
     inkscape:zoom="1.9227939"
     inkscape:cx="149.522"
     inkscape:cy="36.665396"
     inkscape:window-width="1920"
     inkscape:window-height="1011"
     inkscape:window-x="0"
     inkscape:window-y="32"
     inkscape:window-maximized="1"
     inkscape:current-layer="layer1"
     showguides="true" />
  <defs
     id="defs1">
    <linearGradient
       id="linearGradient1"
       inkscape:collect="always">
      <stop
         style="stop-color:#223ce7;stop-opacity:1"
         offset="0"
         id="stop1" />
      <stop
         style="stop-color:#6894ef;stop-opacity:1"
         offset="0.24347062"
         id="stop3" />
      <stop
         style="stop-color:#79aaf1;stop-opacity:1"
         offset="0.5"
         id="stop5" />
      <stop
         style="stop-color:#8bc0f3;stop-opacity:1"
         offset="0.75"
         id="stop4" />
      <stop
         style="stop-color:#aeedf7;stop-opacity:1"
         offset="1"
         id="stop2" />
    </linearGradient>
    <linearGradient
       inkscape:collect="always"
       xlink:href="#linearGradient1"
       id="linearGradient2"
       x1="48.187287999999995"
       y1="76.6343081"
       x2="48.187287999999995"
       y2="32.2283511"
       gradientUnits="userSpaceOnUse" />
  </defs>
  <g
     inkscape:label="Layer1"
     inkscape:groupmode="layer"
     id="layer1"
     transform="translate(-17.3598, -27.6495)">
    <path
       id="text1"
       style="font-size:52.9167px;line-height:1.1;font-family:Lemon;-inkscape-font-specification:Lemon;text-align:center;letter-spacing:0.264583px;word-spacing:0px;text-anchor:middle;display:inline;fill:url(#linearGradient2);fill-rule:nonzero;stroke-width:0.264583;stroke-linecap:round;stroke-linejoin:round"
       d="M 78.280656,31.064283 C 74.955753,31.064283 72.195505,31.965358 69.998991,33.76541 69.326508,32.764703 68.24644,32.261109 66.754228,32.261109 64.245615,32.261109 61.529075,33.020438 58.607955,34.526087 57.928953,33.716379 56.919407,33.310141 55.577133,33.310141 52.296304,33.310141 48.662889,34.59768 44.676506,37.172954 L 47.480986,42.835141 C 46.599043,47.597634 46.087307,50.419864 45.946196,51.301807 H 34.093173 C 35.574837,43.611262 36.315776,39.271773 36.315776,38.283997 36.315776,34.967892 34.957476,33.310141 32.241089,33.310141 28.960262,33.310141 25.326329,34.59768 21.339946,37.172954 L 24.144943,42.835141 C 21.922446,55.111789 20.810779,62.572958 20.810779,65.218787 20.810779,67.82934 21.305082,69.805004 22.292859,71.145557 23.280635,72.450833 24.920953,73.10306 27.214006,73.10306 29.507059,73.10306 31.711925,72.309308 33.828589,70.72181 32.770257,69.028479 32.241089,66.470834 32.241089,63.048894 32.241089,62.061117 32.470292,60.24441 32.928903,57.598581 H 44.887863 C 44.393974,60.985242 44.147339,63.419314 44.147339,64.900977 44.147339,67.723196 44.641126,69.805004 45.628903,71.145557 46.616679,72.450833 48.256998,73.10306 50.550049,73.10306 52.843102,73.10306 55.047969,72.309308 57.164633,70.72181 59.501883,71.761213 60.176233,71.871989 61.727145,72.054546 63.38327,72.054546 64.992708,71.634122 66.556824,70.806043 66.566717,70.808516 66.815035,71.28129 67.326803,71.810116 68.420412,72.868448 69.831527,73.397616 71.560136,73.397616 73.288746,73.397616 74.806003,72.727441 76.11128,71.386886 77.416555,70.046334 78.068783,68.547023 78.068783,66.88897 78.068783,65.195637 77.522183,63.819905 76.428573,62.761573 75.370241,61.667964 73.976558,61.121363 72.24795,61.121363 70.51934,61.121363 69.0026,61.791539 67.697323,63.132093 67.370054,63.468207 66.838461,64.173373 66.838461,64.173373 66.839972,64.173751 66.754228,62.810724 66.754228,62.000379 66.754228,60.659825 66.900191,60.023062 68.240745,53.002794 L 69.39076,52.813343 C 69.39076,55.81195 70.625486,57.31126 73.094926,57.31126 73.906315,57.31126 74.823642,57.134871 75.846696,56.782093 76.905028,56.429315 77.786974,55.935528 78.49253,55.30053 78.598363,55.018307 78.897811,54.224555 79.3917,52.91928 79.920865,51.578726 80.326976,50.520389 80.609196,49.74428 80.926696,48.932891 81.314339,47.821225 81.77295,46.410116 82.266837,44.999008 82.761141,43.411503 83.25503,41.647616 83.748917,39.88373 83.995553,38.173166 83.995553,36.515113 83.995553,32.881507 82.090653,31.064283 78.280656,31.064283 Z"
       sodipodi:nodetypes="scscsccccssccscscsccscsccccssscsscsccscccccsss"
       inkstitch:fill_method="linear_gradient_fill"
       inkstitch:fill_underlay_angle="0"
       inkstitch:fill_underlay_inset_mm="0.2"
       inkstitch:fill_underlay="False"
       inkscape:label="gradient" />
    <g
       id="g5"
       inkscape:label="SatinOutline">
      <path
         id="path12"
         style="fill:none;stroke:#000000;stroke-width:0.264583px"
         d="M 66.013325,63.132314 66.011476,63.088321 65.986684,61.845601 65.987703,61.776323 66.019109,61.140504 66.023308,61.085899 66.117579,60.18383 66.122492,60.144412 66.499523,57.541577 66.503555,57.516068 68.515439,50.585621 M 68.010638,63.026414 67.986977,61.840371 68.015321,61.266532 68.104679,60.411466 68.477011,57.841072 69.823818,51.842646 M 69.09228,55.434213 66.726749,55.028938 M 68.510663,59.003858 66.135457,58.6598 M 68.508631,61.297405 65.336609,61.245283"
         inkstitch:satin_column="True"
         inkstitch:center_walk_underlay="False"
         inkstitch:contour_underlay="False"
         inkstitch:zigzag_underlay="False"
         sodipodi:nodetypes="ccccccccccccccccccccccc" />
      <path
         style="fill:none;fill-rule:nonzero;stroke:#000000;stroke-width:0.264583;stroke-linecap:round;stroke-linejoin:round;stroke-dasharray:none;stroke-opacity:1"
         d="M 69.32588,51.801144 C 69.32588,51.801144 69.954633,43.632102 70.185043,42.330696 70.415453,41.02929 70.644743,37.743691 70.475741,37.152866 70.306738,36.562041 69.633334,34.333908 69.633334,34.333908"
         id="path21" />
      <path
         id="path3"
         style="fill:none;stroke:#000000;stroke-width:0.265;stroke-dasharray:none"
         d="M 68.379711,34.065061 70.282984,34.633274 C 71.209098,36.003042 71.286637,37.716883 71.191644,39.313956 71.019757,42.894857 70.630437,46.461486 70.374543,50.03704 70.311019,51.68005 69.960362,53.413082 70.621502,54.981085 70.994974,55.944511 72.100931,56.269314 73.046614,56.215966 74.625746,56.108296 76.228539,55.594884 77.477789,54.60347 78.40797,52.07154 79.447911,49.579608 80.307705,47.022286 81.183555,44.339864 82.165655,41.669928 82.632506,38.87794 82.82239,37.142368 83.088047,35.224596 82.168581,33.640559 81.279207,32.236271 79.464011,31.948852 77.929263,31.985087 75.303017,31.996845 72.613952,32.710359 70.548913,34.385921 69.903294,34.645403 69.157958,34.677634 68.473239,34.848007 M 67.7185,34.661653 C 67.860628,34.895063 68.056708,35.088344 68.230925,35.296975 69.246538,36.272342 69.265739,37.745614 69.197582,39.049321 69.052286,42.514564 68.661172,45.964298 68.417343,49.423474 68.327469,51.019193 68.088728,52.633382 68.338949,54.22365 68.532786,55.740579 69.393744,57.262783 70.8693,57.846199 72.862663,58.61994 75.080802,58.066269 76.970187,57.252993 77.784393,56.846975 78.649021,56.396977 79.208956,55.664448 80.398897,52.484274 81.697589,49.341938 82.72298,46.10246 83.545053,43.533733 84.456877,40.955842 84.716796,38.255212 84.93772,36.170599 84.898625,33.842536 83.538327,32.118942 82.174063,30.394289 79.835303,29.898459 77.740457,29.991105 74.780765,30.024823 71.768654,30.870171 69.427346,32.728044 68.783367,33.275598 68.013565,33.787871 67.747313,34.630015 M 69.491087,32.432737 C 69.965661,33.076732 70.440233,33.720727 70.914808,34.364722 M 71.940067,30.998433 72.918759,33.189974 M 74.630347,30.136951 75.147342,32.480627 M 77.406881,29.804185 77.502131,32.202286 M 79.874382,29.919966 79.457135,32.283513 M 83.467948,31.737149 81.706355,33.36698 M 84.852511,34.633803 82.496664,35.091267 M 84.995121,37.115592 82.596941,37.027221 M 84.692968,39.852438 82.330506,39.429635 M 83.845773,43.203911 C 83.078395,42.97778 82.311014,42.751652 81.543636,42.525521 M 82.94672,46.061937 80.667337,45.31105 M 81.469288,50.306377 79.22827,49.447276 M 79.888934,54.446572 77.643683,53.598584 M 77.152617,57.385825 76.08767,55.235029 M 73.960687,58.342821 C 73.843125,57.551454 73.72556,56.760086 73.607998,55.968718 M 71.11298,58.147295 71.885298,55.875056 M 68.415821,55.363881 70.663454,54.522507 M 68.107847,50.955929 C 68.90671,50.998704 69.705576,51.041476 70.50444,51.084251 M 68.281413,48.62019 C 69.078779,48.684306 69.876142,48.748425 70.673508,48.812542 M 68.7656,42.696441 C 69.562876,42.7625 70.360155,42.828555 71.15743,42.894614 M 68.933081,40.424996 71.329409,40.55861 M 68.79735,36.58722 71.089697,35.876021"
         inkstitch:satin_column="true"
         sodipodi:nodetypes="ccccccccccccccccccccccccccccccccccccccccccccccccccccccccccccccccccccccc" />
      <path
         id="path5"
         style="fill:none;stroke:#000000;stroke-width:0.265;stroke-dasharray:none"
         d="M 68.506447,33.361733 68.09846,33.224943 67.767996,33.150331 67.397315,33.1035 66.990916,33.08736 65.833895,33.143452 64.641948,33.311991 63.408727,33.595624 62.133966,33.995674 60.81793,34.513992 59.460884,35.151901 58.281373,35.792457 M 70.163002,32.062895 70.008221,31.943568 69.673788,31.729785 69.566102,31.669989 69.200184,31.4951 69.092499,31.451179 68.694566,31.315183 68.591643,31.286079 68.16196,31.188713 68.06671,31.172044 67.605013,31.113836 67.519288,31.106692 67.025841,31.087113 66.937999,31.087642 65.691284,31.147967 65.599474,31.156698 64.319686,31.337673 64.235549,31.353283 62.922688,31.655173 62.847282,31.675545 61.501083,32.098084 61.434144,32.121897 60.054873,32.665086 59.996135,32.690486 58.583791,33.354325 58.532197,33.380518 57.324112,34.03642 M 57.29977,33.821843 58.444885,35.931098 M 60.235583,32.379072 61.115057,34.611888 M 63.371421,31.346669 63.909053,33.685847 M 66.153246,30.925453 66.269398,33.322575"
         inkstitch:satin_column="True"
         inkstitch:center_walk_underlay="False"
         inkstitch:contour_underlay="False"
         inkstitch:zigzag_underlay="False"
         sodipodi:nodetypes="cccccccccccccccccccccccccccccccccccccccccccccccccc" />
      <path
         id="path8"
         style="fill:none;stroke:#000000;stroke-width:0.264583px"
         d="M 57.06259,34.207531 C 56.206394,33.867795 55.268566,33.983098 54.374641,34.044791 53.678772,34.127301 52.990427,34.250409 52.311663,34.42523 51.472425,34.641971 50.649736,34.922751 49.849031,35.255367 48.939746,35.626098 48.056708,36.061583 47.199859,36.541359 46.79964,36.736095 46.431314,37.000778 46.040509,37.202793 45.387659,37.279151 44.734808,37.35551 44.081957,37.431869 M 59.084882,33.153831 C 58.052501,32.198359 56.582028,31.889249 55.212427,31.989656 54.415757,32.001258 53.626935,32.118434 52.843025,32.250937 52.075835,32.418045 51.31195,32.598009 50.569527,32.85644 49.859746,33.078044 49.171405,33.36699 48.487876,33.657912 47.652833,34.034475 46.835184,34.445576 46.037781,34.896526 45.238092,35.3397 44.468085,35.836343 43.680939,36.30153 M 45.971905,34.704714 C 46.353614,35.407777 46.73532,36.11084 47.117029,36.813903 M 48.907512,33.261713 C 49.200704,34.006048 49.493899,34.750386 49.787092,35.494722 M 52.043543,32.22949 C 52.222756,33.009158 52.401971,33.788825 52.581184,34.568493 M 54.825355,31.808162 C 54.864048,32.607224 54.902743,33.406289 54.941436,34.20535"
         inkstitch:satin_column="true" />
      <path
         id="path7"
         style="fill:none;stroke:#000000;stroke-width:0.264583px"
         d="M 44.430027,35.980567 C 44.953039,36.377 45.54971,36.710237 46.028405,37.144693 46.855245,38.863564 47.764154,40.55021 48.540189,42.289062 48.56434,43.116601 48.26961,43.930236 48.169328,44.751785 47.758629,46.942911 47.399714,49.146797 46.957006,51.330038 46.715127,52.008873 45.917229,52.002867 45.323275,51.960894 41.542659,51.948144 37.758925,51.986344 33.980247,51.941881 33.294376,51.827584 33.01566,51.026482 33.257214,50.428964 33.979181,46.524023 34.786491,42.629742 35.31562,38.693136 35.458357,37.460891 35.392454,36.108663 34.73146,35.025134 34.021843,33.928041 32.574866,33.902911 31.41214,34.014467 28.555436,34.236717 25.86735,35.393667 23.399805,36.793184 22.496764,36.990679 21.593723,37.188177 20.690682,37.385673 M 43.37591,36.233477 C 44.423682,38.369498 45.471455,40.505516 46.519227,42.641537 46.077016,45.081323 45.634803,47.521109 45.192592,49.960895 41.922143,49.960895 38.651693,49.960895 35.381243,49.960895 36.064081,46.266007 36.824558,42.579892 37.309673,38.852923 37.494819,37.363604 37.338267,35.791385 36.696142,34.423317 35.95511,32.840094 34.208859,31.954334 32.503107,31.975577 28.734478,31.940351 25.146233,33.434988 21.952251,35.323484 21.301237,35.705404 20.650224,36.087327 19.999211,36.469247 M 22.879892,34.572129 C 23.261599,35.275192 23.643306,35.978258 24.025013,36.681321 M 25.668133,33.223568 C 25.961326,33.967903 26.254519,34.712241 26.547713,35.456577 M 28.639377,32.245105 C 28.818594,33.024773 28.997811,33.804438 29.177028,34.584106 M 36.006529,33.125894 C 35.420263,33.670221 34.833997,34.214545 34.24773,34.758871 M 37.553305,37.11389 C 36.754496,37.157509 35.955687,37.201126 35.156878,37.244745 M 36.515751,44.98253 C 35.728251,44.841666 34.940751,44.700805 34.153251,44.559941 M 35.865317,48.478114 C 35.079261,48.329402 34.293206,48.180688 33.507151,48.031977 M 37.326548,49.760897 C 37.326548,50.560895 37.326548,51.360894 37.326548,52.160892 M 43.232627,49.760897 C 43.232627,50.560895 43.232627,51.360894 43.232627,52.160892 M 45.401716,47.685685 C 46.18889,47.828361 46.976064,47.971035 47.763238,48.113711 M 45.823043,45.361128 C 46.610217,45.503801 47.397389,45.646478 48.184563,45.789151 M 45.2552,40.540216 C 45.972077,40.18513 46.688955,39.830044 47.405832,39.474957"
         inkstitch:satin_column="true"
         inkstitch:center_walk_underlay="False" />
      <path
         id="path6"
         style="fill:none;stroke:#000000;stroke-width:0.264583px"
         d="M 21.338389,35.896869 C 22.644895,36.55523 23.053389,37.94881 23.684454,39.150684 24.214846,40.199453 24.750582,41.246934 25.211245,42.328821 24.749665,45.750754 24.027139,49.137171 23.49598,52.551021 22.861481,56.72125 22.042225,60.888397 21.900846,65.112935 21.939232,67.078548 22.18344,69.353847 23.717917,70.755003 25.558433,72.103787 28.109689,71.923736 30.17663,71.271745 31.482476,70.844382 32.540683,69.952756 33.728074,69.29524 M 20.018406,36.390343 C 21.073719,38.474977 22.129033,40.55961 23.184346,42.644244 21.988236,49.703787 20.569105,56.744442 19.934989,63.883322 19.800839,66.733015 20.072469,70.016301 22.22965,72.118328 24.686509,74.211381 28.32091,74.07701 31.201334,73.034158 32.644275,72.520539 33.893534,71.666603 34.974556,70.597599 M 33.334016,72.205523 C 32.922427,71.519525 32.510837,70.833528 32.099248,70.14753 M 30.46424,73.48884 C 30.224964,72.725463 29.985689,71.962085 29.746413,71.198708 M 27.807337,73.941402 C 27.772594,73.142158 27.73785,72.342913 27.703107,71.543669 M 25.124307,73.743859 C 25.293483,72.961953 25.462658,72.180046 25.631834,71.39814 M 20.463759,69.747888 C 21.208864,69.456654 21.95397,69.165422 22.699074,68.874187 M 19.834859,67.158676 C 20.627192,67.048192 21.419525,66.937707 22.211858,66.827223 M 19.725321,64.078822 C 20.52459,64.112994 21.323859,64.147165 22.123128,64.181337 M 20.055853,60.653086 C 20.849887,60.750592 21.643922,60.848097 22.437957,60.945603 M 20.377083,58.261282 C 21.169163,58.373568 21.961242,58.485857 22.753322,58.598144 M 20.88968,54.931462 C 21.679594,55.058089 22.469508,55.184716 23.259422,55.311343 M 22.648134,44.541166 C 23.436073,44.679551 24.224013,44.817933 25.011952,44.956318 M 22.044135,40.792888 C 22.761012,40.437802 23.477888,40.082715 24.194765,39.727629"
         inkstitch:satin_column="true"
         inkstitch:center_walk_underlay="False" />
      <path
         id="path9"
         style="fill:none;stroke:#000000;stroke-width:0.264583px"
         d="M 34.534093,70.884817 C 33.891585,70.640928 33.249078,70.397039 32.60657,70.15315 31.034133,66.377294 31.094643,62.135403 31.857401,58.178707 31.538625,56.564816 33.531321,55.791976 34.817132,56.259912 38.256099,56.262325 41.695149,56.241813 45.134043,56.272798 46.525767,56.830719 45.725825,58.50003 45.645838,59.580719 45.283726,62.870138 44.7649,66.361911 46.083988,69.517429 46.916317,71.301136 49.064726,71.869491 50.881077,71.762775 52.719996,71.719544 54.463548,70.974744 56.034089,70.097741 56.671701,70.08714 57.309312,70.076539 57.946924,70.065938 M 35.275994,70.314315 C 33.635648,68.60437 33.488882,66.081259 33.347625,63.843426 33.302824,61.998196 33.475085,60.145105 33.893859,58.346478 34.997794,58.149209 36.138874,58.301473 37.26116,58.257969 39.448331,58.257969 41.635503,58.257969 43.822674,58.257969 43.308177,62.253408 42.623979,66.520484 44.268374,70.353876 45.236513,72.481073 47.558186,73.673403 49.827913,73.740696 52.917593,73.977416 55.964438,72.726104 58.357316,70.834925 M 55.012585,73.05263 C 54.710983,72.311661 54.409382,71.570692 54.10778,70.829723 M 52.228674,73.838027 C 52.124204,73.044878 52.019733,72.25173 51.915263,71.458581 M 49.343315,73.885662 C 49.438231,73.091314 49.533145,72.296967 49.628062,71.502619 M 44.525959,71.183076 C 45.197887,70.748896 45.869816,70.314718 46.541743,69.880537 M 43.554419,68.959349 C 44.324914,68.744092 45.095411,68.528838 45.865906,68.313581 M 43.090993,66.16858 C 43.888881,66.110502 44.686769,66.05242 45.484657,65.994342 M 43.049097,63.964382 C 43.848581,63.993081 44.648066,64.021781 45.44755,64.05048 M 43.191519,61.83583 C 43.988688,61.90306 44.785858,61.970294 45.583027,62.037524 M 42.418712,58.457968 C 42.418712,57.657969 42.418712,56.857971 42.418712,56.057972 M 35.671827,58.457968 C 35.671827,57.657969 35.671827,56.857971 35.671827,56.057972 M 33.810963,59.939513 C 33.020303,59.817633 32.229642,59.695753 31.438982,59.573873 M 33.538807,62.391655 C 32.739727,62.353322 31.940647,62.314992 31.141567,62.27666 M 33.573876,64.331782 C 32.775514,64.382932 31.977151,64.434082 31.178789,64.485232 M 33.776105,66.266389 C 32.98791,66.403308 32.199714,66.540227 31.411519,66.677146 M 34.206763,68.118882 C 33.446112,68.366691 32.685461,68.614497 31.92481,68.862305"
         inkstitch:satin_column="true"
         inkstitch:center_walk_underlay="False" />
      <path
         style="fill:none;fill-rule:nonzero;stroke:#000000;stroke-width:0.264583;stroke-linecap:round;stroke-linejoin:round;stroke-dasharray:none;stroke-opacity:1"
         d="M 57.924029,70.656625 C 57.924029,70.656625 59.988348,72.080586 60.697344,71.99027 61.406343,71.899955 64.390202,71.819818 64.989476,71.598652 65.588746,71.377485 66.125155,71.149969 66.125155,71.149969"
         id="path23" />
      <path
         id="path2"
         style="fill:none;stroke:#000000;stroke-width:0.264583px"
         d="M 65.362191,70.950863 C 66.417022,73.044369 68.743371,74.262929 71.040554,74.30174 73.328387,74.446965 75.557222,73.334187 77.013312,71.601791 78.363665,70.094052 79.091904,68.030812 78.853663,66.007884 78.694596,64.021737 77.565841,62.162961 75.887629,61.091707 74.063261,59.918032 71.673248,59.736303 69.646368,60.46249 67.330011,61.344809 65.46986,63.379178 64.801546,65.766479 64.358433,67.483088 64.530677,69.3765 65.362191,70.950863 Z M 67.128452,70.006888 C 68.013659,71.780648 70.162876,72.524041 72.039175,72.261198 74.13168,72.007614 75.873793,70.353949 76.611761,68.434431 77.275647,66.554766 76.770064,64.228955 75.129388,63.010232 73.786963,61.941187 71.860103,61.790888 70.279844,62.361391 68.027063,63.269327 66.308195,65.663135 66.58895,68.142959 66.636573,68.792712 66.821425,69.432239 67.128452,70.006888 Z M 70.994447,59.918677 C 71.11492,60.709516 71.235394,61.500354 71.355867,62.291193 M 68.186427,60.966426 C 68.618227,61.639878 69.050026,62.31333 69.481826,62.986782 M 65.905987,63.096584 C 66.544778,63.578213 67.18357,64.059842 67.822361,64.541471 M 64.600005,65.764374 C 65.374616,65.963958 66.149226,66.163541 66.923837,66.363125 M 64.419295,68.522387 C 65.212779,68.420875 66.006264,68.319364 66.799748,68.217852 M 65.353008,71.337815 C 66.047097,70.940147 66.741187,70.542478 67.435276,70.14481 M 67.146352,73.261863 C 67.609108,72.609225 68.071863,71.956586 68.534619,71.303948 M 69.715453,74.345859 C 69.884433,73.563928 70.053414,72.781997 70.222394,72.000066 M 71.762531,74.493496 C 71.723196,73.694455 71.683862,72.895415 71.644527,72.096374 M 72.46103,74.426292 C 72.340557,73.635454 72.220083,72.844615 72.09961,72.053777 M 75.264816,73.381719 C 74.833017,72.708267 74.401217,72.034815 73.969418,71.361363 M 77.542876,71.260557 C 76.905143,70.777517 76.267409,70.294476 75.629676,69.811436 M 78.85706,68.604673 C 78.083155,68.40209 77.309249,68.199508 76.535344,67.996925 M 79.033801,65.844543 C 78.240493,65.947818 77.447185,66.051094 76.653877,66.154369 M 78.068603,63.026205 C 77.382098,63.436926 76.695593,63.847647 76.009088,64.258368 M 75.717253,60.752114 C 75.309178,61.440206 74.901103,62.128298 74.493028,62.81639 M 73.063221,59.895659 C 72.961709,60.689231 72.860198,61.482804 72.758686,62.276376"
         inkstitch:satin_column="true" />
      <path
         id="path4"
         style="fill:none;stroke:#000000;stroke-width:0.264583px"
         d="M 65.117799,70.421021 C 62.933093,71.356378 60.935085,71.372476 59.237558,70.392473 57.776113,69.548763 56.900939,67.714612 56.684798,66.020695 56.320604,63.109137 56.913127,60.19478 57.272765,57.311984 58.04662,52.085272 58.98025,46.88413 59.887916,41.679691 59.826705,40.895937 59.252697,40.254382 58.976567,39.532824 L 57.300599,36.14925 55.696379,35.473079 M 66.054402,71.934517 C 63.524379,73.07945 61.046643,73.289698 58.439694,72.227414 56.404702,71.412634 55.25339,69.316083 54.866703,67.252497 54.163433,63.866442 54.863638,60.414621 55.291259,57.040493 56.051242,51.932442 56.946839,46.846153 57.848595,41.761521 L 54.676407,35.786618 M 64.410664,70.315985 65.128491,72.606118 M 62.367358,70.660946 62.471588,73.058679 M 60.296083,70.515417 59.788558,72.861136 M 57.363324,67.991465 55.12801,68.865166 M 56.876107,65.9445 54.499109,66.275954 M 56.787377,63.298615 54.389572,63.196099 M 57.102207,60.062881 54.720102,59.770363 M 57.417571,57.715421 55.041333,57.378559 M 57.923673,54.42862 55.55393,54.04874 M 59.676202,44.073596 57.312383,43.658444 M 58.859014,38.844906 56.708385,39.910165"
         inkstitch:satin_column="true"
         sodipodi:nodetypes="cacccccccccccccccccccccccccccccccccc" />
      <path
         id="path22"
         style="fill:none;stroke:#000000;stroke-width:0.265001;stroke-dasharray:none"
         d="M 54.804006,36.093245 57.340158,36.165466 58.281373,35.792457 M 54.465533,35.61738 57.041801,34.191201 57.086781,34.165271 57.324112,34.03642 M 57.206637,33.986413 58.259412,35.918134"
         inkstitch:satin_column="True"
         inkstitch:center_walk_underlay="False"
         inkstitch:contour_underlay="False"
         inkstitch:zigzag_underlay="False"
         sodipodi:nodetypes="ccccccccc" />
    </g>
  </g>
  <metadata
     id="metadata4">
    <rdf:RDF>
      <cc:Work
         rdf:about="" />
    </rdf:RDF>
    <inkstitch:min_stitch_len_mm>0.5</inkstitch:min_stitch_len_mm>
    <inkstitch:collapse_len_mm>12.0</inkstitch:collapse_len_mm>
    <inkstitch:inkstitch_svg_version>1</inkstitch:inkstitch_svg_version>
  </metadata>
</svg>
