<?xml version="1.0" encoding="UTF-8" standalone="no"?>
<!-- Created with Inkscape (http://www.inkscape.org/) -->

<svg
   width="42.120754mm"
   height="50.15876mm"
   viewBox="0 0 42.120754 50.15876"
   version="1.1"
   id="svg5"
   sodipodi:docname="pattern.svg"
   inkscape:version="1.1.1 (3bf5ae0d25, 2021-09-20)"
   xmlns:inkscape="http://www.inkscape.org/namespaces/inkscape"
   xmlns:sodipodi="http://sodipodi.sourceforge.net/DTD/sodipodi-0.dtd"
   xmlns="http://www.w3.org/2000/svg"
   xmlns:svg="http://www.w3.org/2000/svg"
   xmlns:inkstitch="http://inkstitch.org/namespace">
  <metadata
     id="metadata5110">
    <inkstitch:collapse_len_mm />
  </metadata>
  <sodipodi:namedview
     id="namedview7"
     pagecolor="#ffffff"
     bordercolor="#999999"
     borderopacity="1"
     inkscape:pageshadow="0"
     inkscape:pageopacity="0"
     inkscape:pagecheckerboard="0"
     inkscape:document-units="mm"
     showgrid="false"
     inkscape:zoom="1.9903"
     inkscape:cx="154.49932"
     inkscape:cy="110.5361"
     inkscape:window-width="1920"
     inkscape:window-height="979"
     inkscape:window-x="0"
     inkscape:window-y="0"
     inkscape:window-maximized="1"
     inkscape:current-layer="g863"
     fit-margin-top="5"
     fit-margin-left="5"
     fit-margin-right="5"
     fit-margin-bottom="5" />
  <defs
     id="defs2">
    <marker
       refX="10"
       refY="5"
       orient="auto"
       id="inkstitch-pattern-marker">
      <g
         id="inkstitch-pattern-group">
        <path
           style="fill:#fafafa;fill-opacity:0.8;stroke:#ff5500;stroke-width:0.5;stroke-linecap:round;stroke-linejoin:miter;stroke-miterlimit:4;stroke-dasharray:1, 1;stroke-dashoffset:0;stroke-opacity:1"
           d="M 10.12911,5.2916678 A 4.8374424,4.8374426 0 0 1 5.2916656,10.12911 4.8374424,4.8374426 0 0 1 0.45422399,5.2916678 4.8374424,4.8374426 0 0 1 5.2916656,0.45422399 4.8374424,4.8374426 0 0 1 10.12911,5.2916678 Z"
           id="inkstitch-pattern-marker-circle" />
        <path
           style="fill:none;stroke:#000000;stroke-width:0.4;stroke-linecap:round;stroke-miterlimit:4"
           id="inkstitch-pattern-marker-spiral"
           d="M 4.9673651,5.7245662 C 4.7549848,5.7646159 4.6247356,5.522384 4.6430021,5.3419847 4.6765851,5.0103151 5.036231,4.835347 5.3381858,4.8987426 5.7863901,4.9928495 6.0126802,5.4853625 5.9002872,5.9065088 5.7495249,6.4714237 5.1195537,6.7504036 4.5799191,6.5874894 3.898118,6.3816539 3.5659013,5.6122905 3.7800789,4.9545192 4.0402258,4.1556558 4.9498996,3.7699484 5.7256318,4.035839 6.6416744,4.3498087 7.0810483,5.4003986 6.7631909,6.2939744 6.395633,7.3272552 5.2038143,7.8204128 4.1924535,7.4503931 3.0418762,7.0294421 2.4948761,5.6961604 2.9171752,4.567073 3.3914021,3.2991406 4.8663228,2.6982592 6.1130974,3.1729158 7.4983851,3.7003207 8.1531869,5.3169977 7.6260947,6.6814205 7.0456093,8.1841025 5.2870784,8.8928844 3.8050073,8.3132966 2.1849115,7.6797506 1.4221671,5.7793073 2.0542715,4.1796074 2.7408201,2.4420977 4.7832541,1.6253548 6.5005435,2.310012 8.3554869,3.0495434 9.2262638,5.2339874 8.4890181,7.0688861 8.4256397,7.2266036 8.3515789,7.379984 8.2675333,7.5277183" />
      </g>
    </marker>
    <marker
       refX="10"
       refY="5"
       orient="auto"
       id="marker7235">
      <g
         id="g7233">
        <path
           style="fill:#fafafa;fill-opacity:0.8;stroke:#ff5500;stroke-width:0.5;stroke-linecap:round;stroke-linejoin:miter;stroke-miterlimit:4;stroke-dasharray:1, 1;stroke-dashoffset:0;stroke-opacity:1"
           d="M 10.12911,5.2916678 A 4.8374424,4.8374426 0 0 1 5.2916656,10.12911 4.8374424,4.8374426 0 0 1 0.45422399,5.2916678 4.8374424,4.8374426 0 0 1 5.2916656,0.45422399 4.8374424,4.8374426 0 0 1 10.12911,5.2916678 Z"
           id="path7229" />
        <path
           style="fill:none;stroke:#000000;stroke-width:0.4;stroke-linecap:round;stroke-miterlimit:4"
           id="path7231"
           d="M 4.9673651,5.7245662 C 4.7549848,5.7646159 4.6247356,5.522384 4.6430021,5.3419847 4.6765851,5.0103151 5.036231,4.835347 5.3381858,4.8987426 5.7863901,4.9928495 6.0126802,5.4853625 5.9002872,5.9065088 5.7495249,6.4714237 5.1195537,6.7504036 4.5799191,6.5874894 3.898118,6.3816539 3.5659013,5.6122905 3.7800789,4.9545192 4.0402258,4.1556558 4.9498996,3.7699484 5.7256318,4.035839 6.6416744,4.3498087 7.0810483,5.4003986 6.7631909,6.2939744 6.395633,7.3272552 5.2038143,7.8204128 4.1924535,7.4503931 3.0418762,7.0294421 2.4948761,5.6961604 2.9171752,4.567073 3.3914021,3.2991406 4.8663228,2.6982592 6.1130974,3.1729158 7.4983851,3.7003207 8.1531869,5.3169977 7.6260947,6.6814205 7.0456093,8.1841025 5.2870784,8.8928844 3.8050073,8.3132966 2.1849115,7.6797506 1.4221671,5.7793073 2.0542715,4.1796074 2.7408201,2.4420977 4.7832541,1.6253548 6.5005435,2.310012 8.3554869,3.0495434 9.2262638,5.2339874 8.4890181,7.0688861 8.4256397,7.2266036 8.3515789,7.379984 8.2675333,7.5277183" />
      </g>
    </marker>
  </defs>
  <g
     inkscape:label="Layer1"
     inkscape:groupmode="layer"
     id="layer1"
     transform="translate(-7.2664085,-14.624886)">
    <g
       id="g863"
       transform="translate(-9.2267,0.748759)"
       inkscape:label="pattern_group">
      <path
         id="path6296"
         style="opacity:0.543274;fill:#0d1975;fill-rule:evenodd;stroke-width:10;stroke-linecap:round;stroke-linejoin:round"
         d="M 26.137303,25.832438 H 50.71519 V 55.899682 H 26.137303 Z"
         inkstitch:max_stitch_length_mm="999"
         inkstitch:fill_underlay="False"
         inkstitch:underpath="False"
         inkscape:label="embroidery_element" />
      <path
         id="path7154"
         style="fill:none;stroke:#000000;stroke-width:0.264583px;stroke-linecap:butt;stroke-linejoin:miter;stroke-opacity:1;marker-start:url(#inkstitch-pattern-marker)"
         d="m 48.083749,21.46676 c 0,2.732649 5.291667,6.261355 5.291667,6.261355 0,0 -5.291667,3.528706 -5.291667,6.261354 0,2.732648 5.291667,6.261354 5.291667,6.261354 0,0 -5.291667,3.528707 -5.291667,6.261355 0,2.732648 5.291667,6.261354 5.291667,6.261354 0,0 -5.291667,3.528706 -5.291667,6.261355 M 45.437914,21.46676 c 0,2.849691 5.820834,6.261355 5.820834,6.261355 0,0 -5.820834,3.411663 -5.820834,6.261354 0,2.849691 5.820834,6.261354 5.820834,6.261354 0,0 -5.820834,3.411664 -5.820834,6.261355 0,2.849691 5.820834,6.261354 5.820834,6.261354 0,0 -5.820834,3.411664 -5.820834,6.261355 M 42.79208,21.46676 c 0,2.972599 6.35,6.261355 6.35,6.261355 0,0 -6.35,3.288756 -6.35,6.261354 0,2.972598 6.35,6.261354 6.35,6.261354 0,0 -6.35,3.288757 -6.35,6.261355 0,2.972598 6.35,6.261354 6.35,6.261354 0,0 -6.35,3.288756 -6.35,6.261355 M 48.189904,21.46676 c 0,2.732649 -5.291667,6.261355 -5.291667,6.261355 0,0 5.291667,3.528706 5.291667,6.261354 0,2.732648 -5.291667,6.261354 -5.291667,6.261354 0,0 5.291667,3.528707 5.291667,6.261355 0,2.732648 -5.291667,6.261354 -5.291667,6.261354 0,0 5.291667,3.528706 5.291667,6.261355 M 50.835739,21.46676 c 0,2.849691 -5.820834,6.261355 -5.820834,6.261355 0,0 5.820834,3.411663 5.820834,6.261354 0,2.849691 -5.820834,6.261354 -5.820834,6.261354 0,0 5.820834,3.411664 5.820834,6.261355 0,2.849691 -5.820834,6.261354 -5.820834,6.261354 0,0 5.820834,3.411664 5.820834,6.261355 M 53.481573,21.46676 c 0,2.972599 -6.35,6.261355 -6.35,6.261355 0,0 6.35,3.288756 6.35,6.261354 0,2.972598 -6.35,6.261354 -6.35,6.261354 0,0 6.35,3.288757 6.35,6.261355 0,2.972598 -6.35,6.261354 -6.35,6.261354 0,0 6.35,3.288756 6.35,6.261355 M 37.500409,21.46676 c 0,2.732649 5.291667,6.261355 5.291667,6.261355 0,0 -5.291667,3.528706 -5.291667,6.261354 0,2.732648 5.291667,6.261354 5.291667,6.261354 0,0 -5.291667,3.528707 -5.291667,6.261355 0,2.732648 5.291667,6.261354 5.291667,6.261354 0,0 -5.291667,3.528706 -5.291667,6.261355 M 34.854574,21.46676 c 0,2.849691 5.820834,6.261355 5.820834,6.261355 0,0 -5.820834,3.411663 -5.820834,6.261354 0,2.849691 5.820834,6.261354 5.820834,6.261354 0,0 -5.820834,3.411664 -5.820834,6.261355 0,2.849691 5.820834,6.261354 5.820834,6.261354 0,0 -5.820834,3.411664 -5.820834,6.261355 M 32.20874,21.46676 c 0,2.972599 6.35,6.261355 6.35,6.261355 0,0 -6.35,3.288756 -6.35,6.261354 0,2.972598 6.35,6.261354 6.35,6.261354 0,0 -6.35,3.288757 -6.35,6.261355 0,2.972598 6.35,6.261354 6.35,6.261354 0,0 -6.35,3.288756 -6.35,6.261355 M 37.606564,21.46676 c 0,2.732649 -5.291667,6.261355 -5.291667,6.261355 0,0 5.291667,3.528706 5.291667,6.261354 0,2.732648 -5.291667,6.261354 -5.291667,6.261354 0,0 5.291667,3.528707 5.291667,6.261355 0,2.732648 -5.291667,6.261354 -5.291667,6.261354 0,0 5.291667,3.528706 5.291667,6.261355 M 40.252399,21.46676 c 0,2.849691 -5.820834,6.261355 -5.820834,6.261355 0,0 5.820834,3.411663 5.820834,6.261354 0,2.849691 -5.820834,6.261354 -5.820834,6.261354 0,0 5.820834,3.411664 5.820834,6.261355 0,2.849691 -5.820834,6.261354 -5.820834,6.261354 0,0 5.820834,3.411664 5.820834,6.261355 M 42.898233,21.46676 c 0,2.972599 -6.35,6.261355 -6.35,6.261355 0,0 6.35,3.288756 6.35,6.261354 0,2.972598 -6.35,6.261354 -6.35,6.261354 0,0 6.35,3.288757 6.35,6.261355 0,2.972598 -6.35,6.261354 -6.35,6.261354 0,0 6.35,3.288756 6.35,6.261355 M 26.917069,21.46676 c 0,2.732649 5.291667,6.261355 5.291667,6.261355 0,0 -5.291667,3.528706 -5.291667,6.261354 0,2.732648 5.291667,6.261354 5.291667,6.261354 0,0 -5.291667,3.528707 -5.291667,6.261355 0,2.732648 5.291667,6.261354 5.291667,6.261354 0,0 -5.291667,3.528706 -5.291667,6.261355 M 24.271234,21.46676 c 0,2.849691 5.820834,6.261355 5.820834,6.261355 0,0 -5.820834,3.411663 -5.820834,6.261354 0,2.849691 5.820834,6.261354 5.820834,6.261354 0,0 -5.820834,3.411664 -5.820834,6.261355 0,2.849691 5.820834,6.261354 5.820834,6.261354 0,0 -5.820834,3.411664 -5.820834,6.261355 M 21.6254,21.46676 c 0,2.972599 6.35,6.261355 6.35,6.261355 0,0 -6.35,3.288756 -6.35,6.261354 0,2.972598 6.35,6.261354 6.35,6.261354 0,0 -6.35,3.288757 -6.35,6.261355 0,2.972598 6.35,6.261354 6.35,6.261354 0,0 -6.35,3.288756 -6.35,6.261355 M 27.023224,21.46676 c 0,2.732649 -5.291667,6.261355 -5.291667,6.261355 0,0 5.291667,3.528706 5.291667,6.261354 0,2.732648 -5.291667,6.261354 -5.291667,6.261354 0,0 5.291667,3.528707 5.291667,6.261355 0,2.732648 -5.291667,6.261354 -5.291667,6.261354 0,0 5.291667,3.528706 5.291667,6.261355 M 29.669059,21.46676 c 0,2.849691 -5.820834,6.261355 -5.820834,6.261355 0,0 5.820834,3.411663 5.820834,6.261354 0,2.849691 -5.820834,6.261354 -5.820834,6.261354 0,0 5.820834,3.411664 5.820834,6.261355 0,2.849691 -5.820834,6.261354 -5.820834,6.261354 0,0 5.820834,3.411664 5.820834,6.261355 M 32.314893,21.46676 c 0,2.972599 -6.35,6.261355 -6.35,6.261355 0,0 6.35,3.288756 6.35,6.261354 0,2.972598 -6.35,6.261354 -6.35,6.261354 0,0 6.35,3.288757 6.35,6.261355 0,2.972598 -6.35,6.261354 -6.35,6.261354 0,0 6.35,3.288756 6.35,6.261355"
         sodipodi:nodetypes="ccscsccccscsccccscsccccscsccccscsccccscsccccscsccccscsccccscsccccscsccccscsccccscsccccscsccccscsccccscsccccscsccccscsccccscscc"
         inkscape:label="pattern" />
    </g>
  </g>
</svg>
