<?xml version="1.0" encoding="UTF-8" standalone="no"?>
<!-- Created with Inkscape (http://www.inkscape.org/) -->

<svg
   width="100mm"
   height="55mm"
   viewBox="0 0 100 55"
   version="1.1"
   id="svg1"
   inkscape:version="1.4 (e7c3feb100, 2024-10-09)"
   sodipodi:docname="ripple_satin_guide.svg"
   xmlns:inkscape="http://www.inkscape.org/namespaces/inkscape"
   xmlns:sodipodi="http://sodipodi.sourceforge.net/DTD/sodipodi-0.dtd"
   xmlns="http://www.w3.org/2000/svg"
   xmlns:svg="http://www.w3.org/2000/svg"
   xmlns:inkstitch="http://inkstitch.org/namespace">
  <sodipodi:namedview
     id="namedview1"
     pagecolor="#ffffff"
     bordercolor="#000000"
     borderopacity="0.25"
     inkscape:showpageshadow="2"
     inkscape:pageopacity="0.0"
     inkscape:pagecheckerboard="0"
     inkscape:deskcolor="#d1d1d1"
     inkscape:document-units="mm"
     showgrid="false"
     inkscape:zoom="0.89"
     inkscape:cx="216.29213"
     inkscape:cy="93.258427"
     inkscape:window-width="1920"
     inkscape:window-height="1131"
     inkscape:window-x="0"
     inkscape:window-y="0"
     inkscape:window-maximized="1"
     inkscape:current-layer="layer1"
     showguides="true">
    <inkscape:grid
       id="grid3"
       units="mm"
       originx="0"
       originy="0"
       spacingx="1"
       spacingy="0.99999986"
       empcolor="#0099e5"
       empopacity="0.30196078"
       color="#00d9e5"
       opacity="0.14901961"
       empspacing="5"
       enabled="true"
       visible="false" />
  </sodipodi:namedview>
  <metadata
     id="metadata2">
    <inkstitch:min_stitch_len_mm>0.3</inkstitch:min_stitch_len_mm>
    <inkstitch:collapse_len_mm>3.0</inkstitch:collapse_len_mm>
    <inkstitch:inkstitch_svg_version>3</inkstitch:inkstitch_svg_version>
  </metadata>
  <defs
     id="defs1">
    <marker
       refX="10"
       refY="5"
       orient="auto"
       id="inkstitch-guide-line-marker"
       markerUnits="userSpaceOnUse"
       markerWidth="0.1"
       viewBox="0 0 1 1">
      <g
         id="inkstitch-guide-line-group">
        <path
           style="fill:#fafafa;fill-opacity:0.8;stroke:#ff5500;stroke-width:0.5;stroke-linecap:round;stroke-linejoin:miter;stroke-miterlimit:4;stroke-dasharray:1, 1;stroke-dashoffset:0;stroke-opacity:1"
           d="M 10.12911,5.2916678 A 4.8374424,4.8374426 0 0 1 5.2916656,10.12911 4.8374424,4.8374426 0 0 1 0.45422399,5.2916678 4.8374424,4.8374426 0 0 1 5.2916656,0.45422399 4.8374424,4.8374426 0 0 1 10.12911,5.2916678 Z"
           id="inkstitch-guide-line-marker-circle" />
        <path
           style="fill:none;stroke:#000000;stroke-width:0.4;stroke-linecap:round;stroke-miterlimit:4"
           id="inkstitch-guide-line-marker-spiral"
           d="M 1.7506092,6.2728168 3.4558825,5.2833684 7.1038696,7.400035 8.8193256,6.4046783 M 1.7963222,4.129626 3.4558825,3.1667016 7.1038696,5.2833682 8.8475785,4.2716184 M 1.6318889,5.2833683 3.4558825,4.225035 7.1038696,6.3417016 8.9558408,5.2677331" />
      </g>
    </marker>
    <marker
       refX="10"
       refY="5"
       orient="auto"
       id="inkstitch-anchor-line-marker"
       markerUnits="userSpaceOnUse"
       markerWidth="0.1"
       viewBox="0 0 1 1">
      <g
         id="inkstitch-anchor-group">
        <path
           style="fill:#fafafa;fill-opacity:0.8;stroke:#ff5500;stroke-width:0.5;stroke-linecap:round;stroke-linejoin:miter;stroke-miterlimit:4;stroke-dasharray:1, 1;stroke-dashoffset:0;stroke-opacity:1"
           d="M 10.12911,5.2916678 A 4.8374424,4.8374426 0 0 1 5.2916656,10.12911 4.8374424,4.8374426 0 0 1 0.45422399,5.2916678 4.8374424,4.8374426 0 0 1 5.2916656,0.45422399 4.8374424,4.8374426 0 0 1 10.12911,5.2916678 Z"
           id="inkstitch-anchor-marker-circle" />
        <path
           id="inkstitch-anchor-marker-anchor"
           d="M 5.2906995,1.4202597 C 4.8679006,1.4083964 4.4823552,1.8090635 4.5397442,2.2343062 4.568792,2.5148029 4.7793023,2.7587002 5.0437779,2.8466079 5.0437779,2.9192332 5.0437779,2.9918586 5.0437779,3.0644837 4.757712,3.0652868 4.4715658,3.0628316 4.1855481,3.0656999 3.983847,3.0756357 3.8853404,3.3543656 4.0348752,3.489474 4.1478426,3.6002592 4.31397,3.5512227 4.4554139,3.5621911 4.6515344,3.5621911 4.8476573,3.5621911 5.0437779,3.5621911 5.0437779,5.0224311 5.0437779,6.4826482 5.0437779,7.9428881 5.0096543,8.024302 4.9683829,8.1027557 4.9314507,8.1830222 4.5485281,8.0564269 4.1615026,7.9023189 3.8538855,7.6348557 3.7475473,7.5519503 3.6239924,7.3164515 3.6794837,7.2402006 3.7811339,7.2804256 3.8827819,7.3206736 3.9844344,7.3609216 3.7194356,6.8548158 3.4544369,6.34871 3.1894404,5.8425813 3.018173,6.3946946 2.9111692,6.9738617 2.9541363,7.5536254 3.0251487,7.4780859 3.0961587,7.4025463 3.1671686,7.3270297 3.210932,7.7306569 3.5076174,8.0547518 3.8487157,8.2481441 4.2154106,8.4697145 4.6368556,8.6024135 4.9665311,8.8827497 5.0675274,8.9663434 5.0899483,9.1360779 5.2401555,9.1568903 5.3638962,9.1876385 5.4871069,9.1042742 5.5285504,8.9923876 5.6758342,8.77302 5.9336002,8.6689352 6.1579449,8.546149 6.558449,8.3439683 7.0105734,8.1629441 7.2590462,7.7657878 7.3472866,7.6408676 7.3925713,7.4561491 7.4223649,7.3336154 7.4913096,7.406952 7.5602521,7.4802887 7.6291968,7.5536254 7.6721663,6.9738617 7.5651626,6.3946946 7.3938953,5.8425813 7.1288988,6.34871 6.8639,6.8548158 6.5989012,7.3609216 6.7089682,7.3173464 6.8190352,7.2737711 6.9290999,7.2301959 6.9168144,7.4798528 6.728156,7.6694589 6.5254544,7.7910518 6.2545561,7.9625073 5.9565673,8.0857983 5.6518827,8.1830222 5.6172818,8.0962619 5.5584541,8.0156053 5.5395578,7.9247834 5.5395578,6.4705783 5.5395578,5.0163962 5.5395578,3.5621911 5.8256237,3.561365 6.1117698,3.5638203 6.3977852,3.560952 6.5994887,3.5510392 6.6979976,3.2723093 6.5484582,3.1372009 6.4354885,3.0263929 6.2693634,3.0754521 6.1279195,3.0644837 5.9318012,3.0644837 5.7356784,3.0644837 5.5395578,3.0644837 5.5395578,2.9918586 5.5395578,2.9192332 5.5395578,2.8466079 5.8943848,2.7361898 6.1301614,2.3326085 6.023401,1.9714093 5.9391303,1.6494025 5.6214856,1.4158999 5.2906995,1.4202597 Z M 5.2906995,1.9179901 C 5.457747,1.9056908 5.6057444,2.0890325 5.5308427,2.247202 5.4408929,2.4597086 5.0701226,2.4287081 5.036871,2.1916259 5.0098769,2.043025 5.1461509,1.9119093 5.2906995,1.9179901 Z" />
      </g>
    </marker>
    <marker
       orient="auto"
       id="inkstitch-needle-point-marker"
       markerWidth="0.1">
      <circle
         cx="0"
         cy="0"
         r="1.5"
         style="opacity:0.8;fill:context-stroke"
         id="circle5" />
    </marker>
  </defs>
  <g
     inkscape:label="Layer 1"
     inkscape:groupmode="layer"
     id="layer1"
     style="display:inline;opacity:0.4">
    <g
       id="g5"
       inkscape:label="tree">
      <path
         id="path3"
         style="opacity:1;fill:none;stroke:#910429;stroke-width:0.264583;stroke-linejoin:round;marker-start:url(#inkstitch-guide-line-marker)"
         d="M 5.2024811,41.554464 C 5.2024811,41.554464 13.393901,35.946231 18.134363,35.460128 22.139225,35.049456 25.899746,38.907368 29.877107,38.284333 33.831205,37.664942 36.131959,31.958884 40.133426,32.041353 44.420016,32.129699 46.639748,38.294786 50.835673,39.176187 54.478821,39.941471 58.112549,37.240043 61.835206,37.243837 66.364392,37.248453 70.71673,40.167078 75.213013,39.622114 79.947547,39.048273 83.57935,34.547233 88.293539,33.825062 90.462356,33.492818 94.833801,34.568274 94.833801,34.568274 M 5.2024811,47.05423 H 18.283006 30.025749 40.133427 50.761353 62.132491 75.435978 88.665145 95.279727"
         sodipodi:nodetypes="caaaaaaacccccccccc"
         inkstitch:satin_column="True"
         inkscape:label="satin guide" />
      <path
         style="opacity:1;fill:none;stroke:#069050;stroke-width:0.264583;stroke-linejoin:round"
         d="M 3.1586488,39.390215 3.0843278,37.309222 H 0.40876581 L 3.2701308,34.754062 0.96617481,34.791222 3.1586488,32.255384 H 1.9695108 L 4.0876638,29.616983 6.2058168,32.255384 H 5.0166788 L 7.2091528,34.791222 4.9051968,34.754062 7.7665618,37.309222 H 5.0909998 L 5.0166788,39.390215"
         id="path4"
         sodipodi:nodetypes="ccccccccccccccc"
         inkstitch:stroke_method="ripple_stitch"
         inkstitch:flip_copies="False"
         inkstitch:skip_end="1"
         inkstitch:satin_guide_pattern_position="default"
         inkstitch:min_line_dist_mm=""
         inkscape:label="pattern" />
      <path
         style="opacity:1;fill:none;stroke:#cc4209;stroke-width:0.264583;stroke-linejoin:round;marker-start:url(#inkstitch-anchor-line-marker)"
         d="M 4.0876638,29.616983 4.1619848,39.39915"
         id="path5"
         inkscape:label="anchor line" />
    </g>
    <g
       id="g6"
       style="display:inline;opacity:1"
       inkscape:label="the wave">
      <path
         id="path2"
         style="display:inline;opacity:0.5;fill:none;stroke:#910429;stroke-width:0.264583;stroke-linejoin:round;marker-start:url(#inkstitch-guide-line-marker)"
         d="M 5.2024811,14.566947 C 5.2024811,14.566947 13.393901,8.9587151 18.134363,8.4726123 22.139225,8.0619404 25.899746,11.919851 29.877107,11.296816 33.831205,10.677425 36.131959,4.9713696 40.133426,5.053839 44.420016,5.1421847 46.639748,11.307269 50.835673,12.18867 54.478821,12.953954 58.112549,10.252526 61.835206,10.25632 66.364392,10.260936 70.71673,13.179561 75.213013,12.634597 79.947547,12.060756 83.57935,7.5597179 88.293539,6.8375468 90.462356,6.5053036 94.833801,7.5807582 94.833801,7.5807582 M 5.2024811,20.066713 H 95.279727"
         sodipodi:nodetypes="caaaaaaaccc"
         inkstitch:satin_column="True"
         inkscape:label="satin guide" />
      <path
         style="opacity:0.5;fill:none;stroke:#0169b8;stroke-width:0.264583;stroke-linejoin:round"
         d="M 0.96617474,11.222495 3.6417367,14.864232 1.0404957,16.870904 2.3039557,19.992393"
         id="path7"
         inkstitch:stroke_method="ripple_stitch"
         inkstitch:min_line_dist_mm="0.4"
         inkstitch:manual_pattern_placement="True"
         sodipodi:nodetypes="cccc"
         inkstitch:running_stitch_length_mm="4"
         inkscape:label="pattern" />
    </g>
  </g>
  <g
     id="__inkstitch_stitch_plan__"
     inkscape:label="Stitchplan"
     inkscape:groupmode="layer"
     inkstitch:invisible_layers=""
     inkstitch:layer_visibility="lower_opacity"
     sodipodi:insensitive="true">
    <g
       id="__color_block_0__"
       inkscape:label="color block 1">
      <path
         id="object8154"
         style="fill:none;stroke:#069050;stroke-width:0.4;stroke-linecap:round;stroke-linejoin:round;marker-start:url(#inkstitch-needle-point-marker);marker-mid:url(#inkstitch-needle-point-marker);marker-end:url(#inkstitch-needle-point-marker)"
         d="M 17.531158,177.8076 17.468996,175.59613 17.406834,173.38467 17.468996,175.59613 17.531158,177.8076 17.406834,173.38467 11.721753,173.34147 17.842881,167.95842 12.946795,168.00018 17.64634,162.64738 15.119638,162.62819 19.66292,157.05626 24.121016,162.69658 21.594314,162.67738 26.211984,168.10097 21.317098,167.98481 27.355727,173.46025 21.670646,173.41706 21.479133,177.83759 29.640013,177.85373 37.800892,177.86987 45.961771,177.88601 54.122648,177.90215 53.611308,169.20879 48.018118,169.33775 42.424929,169.46672 48.283376,163.98731 54.141821,158.5079 49.327255,158.69663 44.51269,158.88536 48.973769,153.47858 53.434848,148.07181 48.463127,148.18644 52.763897,142.56884 57.064666,136.95124 61.619779,142.36465 66.17489,147.77806 61.20317,147.89269 65.908705,153.08812 70.614239,158.28354 65.79609,158.31691 60.977943,158.35028 67.082708,163.55385 73.187472,168.75742 67.594282,168.88639 62.001094,169.01535 61.89097,177.72303 69.256943,177.75651 76.622916,177.78999 83.988889,177.82347 91.354859,177.85695 90.977233,170.05598 85.960052,170.11955 80.942872,170.18313 86.247755,165.32373 91.552636,160.46434 82.913703,160.71319 86.964749,155.90593 91.015793,151.09866 86.55608,151.15517 90.465323,146.15734 94.374565,141.15952 98.409191,146.05668 102.44382,150.95385 97.984103,151.01036 102.15566,155.71344 106.32721,160.41651 97.684747,160.38664 103.11106,165.11005 108.53737,169.83347 103.52019,169.89704 98.503006,169.96062 98.323168,177.76865 105.48116,177.78044 112.63915,177.79222 119.79713,177.80401 126.95512,177.8158 126.77026,173.04605 126.5854,168.27631 120.4522,168.29495 114.31901,168.31358 120.86032,162.43646 127.40163,156.55933 122.12053,156.66056 116.83943,156.76179 121.84757,150.93361 126.85572,145.10544 121.40399,145.12201 126.24106,139.05924 131.07812,132.99648 135.95194,139.02973 140.82577,145.06298 135.37404,145.07955 140.41752,150.87718 145.46099,156.67481 140.17937,156.60568 134.89776,156.53655 141.47466,162.37381 148.05157,168.21107 141.91838,168.22971 135.78519,168.24835 135.62932,173.01913 135.47345,177.78991 144.3681,177.74262 153.26276,177.69534 162.15741,177.64805 162.13077,172.51964 162.10414,167.39123 155.51765,167.19025 148.93116,166.98926 156.16698,160.91411 163.40281,154.83896 157.72832,154.75736 152.05383,154.67577 157.64158,148.59794 163.22933,142.5201 157.37467,142.34145 162.78717,136.00555 168.19967,129.66966 173.21578,136.32378 178.23189,142.9779 172.37724,142.79925 177.58401,149.20648 182.79078,155.6137 177.12187,155.34915 171.45297,155.0846 178.30491,161.58964 185.15686,168.09468 178.57037,167.89369 171.98388,167.69271 171.6446,172.80995 171.30532,177.9272 179.13861,177.89266 186.97189,177.85812 194.80518,177.82359 202.63846,177.78905 202.4612,171.31667 194.14205,171.24747 198.62353,167.31208 203.10501,163.37669 195.94033,163.43264 199.38166,159.51864 202.823,155.60464 199.1256,155.57389 202.45272,151.49947 205.77983,147.42506 209.03871,151.55426 212.29759,155.68345 208.60019,155.6527 211.97594,159.62341 215.35169,163.59411 208.18893,163.41898 212.60433,167.42838 217.01972,171.43777 208.70057,171.36857 208.41566,177.8371 216.42595,177.84721 224.43624,177.85731 232.44653,177.86742 240.45682,177.87752 240.04229,170.20718 235.10814,170.29744 230.17399,170.3877 235.36459,165.57906 240.5552,160.77042 232.06,161.06293 236.01771,156.31248 239.97543,151.56204 235.58952,151.64227 239.40672,146.70519 243.22391,141.76811 247.21913,146.56228 251.21434,151.35645 246.82842,151.43668 250.95723,156.0392 255.08604,160.64171 246.58583,160.6601 251.94883,165.27569 257.31183,169.89127 252.37768,169.98153 247.44353,170.07179 247.30981,177.75216 255.21366,177.78674 263.11751,177.82132 271.02136,177.85591 278.92521,177.89049 278.56182,171.96936 270.94198,172.16444 274.92332,168.42166 278.90467,164.67887 272.34585,164.95269 275.37542,161.2618 278.40499,157.57091 275.0184,157.65762 277.9384,153.82339 280.8584,149.98917 283.97078,153.66895 287.08315,157.34874 283.69655,157.43544 286.91102,160.96647 290.12548,164.4975 283.56124,164.55966 287.72889,168.09381 291.89654,171.62797 284.2767,171.82305 284.21677,177.75502 292.06859,177.80059 299.92041,177.84616 307.77222,177.89173 315.62404,177.93731 315.31529,173.21977 315.00655,168.50223 308.93471,168.68233 302.86287,168.86244 309.18437,162.87122 315.50586,156.88001 310.27983,157.11943 305.0538,157.35885 309.85864,151.45651 314.66347,145.55417 309.26628,145.71426 313.89555,139.58417 318.52482,133.45408 323.5093,139.299 328.49377,145.14392 323.09659,145.30402 328.24282,150.91119 333.38906,156.51835 328.15802,156.58911 322.927,156.65988 329.59249,162.26587 336.25799,167.87185 330.18615,168.05196 324.11431,168.23207 324.08573,172.95961 324.05715,177.68716 331.41904,177.74802 338.78093,177.80888 346.14282,177.86974 353.50471,177.93061 353.1878,172.87424 352.87089,167.81787 346.3636,167.99292 339.8563,168.16797 346.64832,161.76631 353.44034,155.36464 347.83926,155.60575 342.23819,155.84687 347.40465,149.53596 352.5711,143.22505 346.78685,143.38065 351.76583,136.82515 356.74482,130.26965 362.06905,136.54799 367.39327,142.82632 361.60902,142.98192 367.10729,149.00594 372.60556,155.02997 366.99963,155.09033 361.3937,155.15069 368.52006,161.17794 375.64642,167.20519 369.13913,167.38025 362.63183,167.5553 362.58723,172.62139 362.54262,177.68748 362.56492,175.15443 362.58723,172.62139 362.56492,175.15443 362.54262,177.68748"
         transform="scale(0.264583)"
         inkstitch:stroke_method="manual_stitch" />
    </g>
    <g
       id="__color_block_1__"
       inkscape:label="color block 2">
      <path
         id="object4917"
         style="fill:none;stroke:#0068b8;stroke-width:0.4;stroke-linecap:round;stroke-linejoin:round;marker-start:url(#inkstitch-needle-point-marker);marker-mid:url(#inkstitch-needle-point-marker);marker-end:url(#inkstitch-needle-point-marker)"
         d="M 19.66292,75.8427 19.007775,73.084802 18.35263,70.326904 19.007775,73.084802 19.66292,75.8427 17.839285,68.165927 24.573604,64.436957 19.66292,55.05618 21.046091,54.153243 26.231015,63.909614 19.228385,67.844303 21.181096,75.8427 H 22.699301 L 20.617513,67.522673 27.888457,63.38226 22.429289,53.250289 23.812558,52.347287 29.545986,62.854879 22.006712,67.201026 24.217586,75.8427 H 25.735987 L 23.399577,66.882821 31.204878,62.335178 25.202944,51.455269 26.609778,50.58891 32.866796,61.83341 24.800855,66.572662 27.254526,75.8427 H 28.773197 L 26.202254,66.262476 34.528858,61.331599 28.016735,49.722476 29.423823,48.855961 36.191075,60.82974 27.603785,65.95226 30.292009,75.8427 H 31.810971 L 29.009289,65.645965 37.854586,60.336425 30.838477,48.001822 32.270288,47.176168 39.520846,59.862759 30.423717,65.348697 33.330073,75.8427 H 34.849286 L 31.838248,65.051407 41.187228,59.389059 33.702203,46.350454 35.134223,45.524679 42.853732,58.915324 33.252883,64.754095 36.36861,75.8427 H 37.888044 L 34.66762,64.456762 44.520356,58.441555 36.566346,44.698845 38.011978,43.897286 46.188706,57.984272 36.089544,64.167219 39.407586,75.8427 H 40.92721 L 37.520929,63.888004 47.859275,57.548842 39.475442,43.127911 40.93895,42.358513 49.529894,57.113398 38.952357,63.608781 42.44688,75.8427 H 43.966595 L 40.383827,63.32955 51.200562,56.677942 42.402501,41.589092 43.866094,40.819649 52.871277,56.242474 41.815338,63.05031 45.486353,75.8427 H 47.006153 L 43.248263,62.772703 54.542234,55.810355 45.332253,40.055224 46.818905,39.345761 56.208835,55.414605 44.689921,62.513087 48.520154,75.8427 H 50.034256 L 46.131676,62.253454 57.875547,55.018829 48.305656,38.636251 49.794523,37.947136 59.535883,54.636168 47.572203,62.000639 51.542336,75.8427 H 53.036549 L 49.007677,61.760666 61.181415,54.278 51.284295,37.296303 52.774446,36.645304 62.827365,53.919742 50.443516,61.520632 54.531142,75.8427 H 56.012933 L 51.876152,61.295276 64.45884,53.589034 54.267459,36.037769 55.761642,35.45734 66.080713,53.275485 53.306231,61.079081 57.486216,75.8427 H 58.960072 L 54.736867,60.862803 67.703217,52.961814 57.256406,34.876686 58.696148,34.395528 69.2366,52.708284 56.106404,60.68121 60.35543,75.8427 H 61.750788 L 57.47733,60.501749 70.769733,52.45875 60.138152,33.920678 61.585882,33.465439 72.301376,52.221329 58.852091,60.329027 63.146146,75.8427 H 64.541504 L 60.242419,60.183665 73.826965,52.033076 63.056852,33.089802 64.527823,32.714164 75.352554,51.844824 61.632746,60.038303 65.936862,75.8427 H 67.332221 L 63.037596,59.92397 76.867324,51.709392 66.017123,32.4269 67.516151,32.18654 78.37635,51.601996 64.450154,59.826107 68.727579,75.8427 H 70.122937 L 65.869872,59.748999 79.874913,51.527533 69.020893,32.00374 70.537921,31.944705 81.350979,51.523884 67.304986,59.716523 71.518295,75.8427 H 72.913653 L 68.746575,59.713893 82.807177,51.564003 72.053374,31.966114 73.566929,32.084478 84.239428,51.656874 70.195969,59.747237 74.309011,75.8427 H 75.70437 L 71.648969,59.814644 85.644225,51.796137 75.068985,32.292342 76.563306,32.560414 87.030555,51.96661 73.104394,59.904965 77.099728,75.8427 H 78.495086 L 74.56034,60.029191 88.385685,52.18038 78.03832,32.915707 79.50617,33.30336 89.72924,52.410215 76.01648,60.165997 79.890444,75.8427 H 81.370255 L 77.557808,60.35475 91.109367,52.706324 81.02873,33.824602 82.551374,34.368126 92.487048,53.013228 79.104996,60.552262 82.856208,75.8427 H 84.341738 L 80.651743,60.749719 93.864338,53.320045 84.073584,34.911495 85.593676,35.475221 95.2379,53.636357 82.20263,60.955315 85.832241,75.8427 H 87.350443 L 83.778512,61.192299 96.606254,53.989754 87.115422,36.117749 88.637168,36.760276 97.974607,54.343152 85.354393,61.429283 88.868646,75.8427 H 90.386849 L 86.930274,61.666268 99.342961,54.696549 90.158914,37.402804 91.681016,38.039581 100.71208,55.047287 88.504685,61.900944 91.903311,75.8427 H 93.418192 L 90.077679,62.134011 102.08135,55.396147 93.202939,38.672333 94.724805,39.305062 103.45055,55.744994 91.650614,62.367069 94.933015,75.8427 H 96.44778 L 93.223487,62.600119 104.81971,56.093828 96.246611,39.937765 97.767955,40.49532 106.19484,56.407349 94.773492,62.803215 97.93701,75.8427 H 99.422196 L 96.319843,62.999902 107.57244,56.713146 99.290154,41.036686 100.74067,41.484864 108.89219,56.972095 97.774891,63.160582 100.81755,75.8427 H 102.21291 L 99.230304,63.309769 110.22319,57.216878 102.19912,41.903807 103.67718,42.250488 111.58203,57.426643 100.68662,63.430547 103.60827,75.8427 H 105.00363 L 102.14194,63.530185 112.95948,57.608783 105.16557,42.542378 106.66845,42.757323 114.36306,57.752127 103.59587,63.600134 106.39899,75.8427 H 107.79435 L 105.04474,63.635434 115.79281,57.84698 108.17948,42.880385 109.69674,42.933284 117.24256,57.904803 106.48976,63.644277 109.1897,75.8427 H 110.58506 L 107.92142,63.602995 118.72254,57.886795 111.21028,42.849581 112.72243,42.714412 120.21391,57.840217 109.34806,63.542829 111.98042,75.8427 H 113.37578 L 110.7466,63.415344 121.73307,57.682251 114.20356,42.389595 115.67878,42.032228 123.25668,57.505028 112.1401,63.276357 114.77114,75.8427 H 116.28986 L 113.61035,63.047855 124.92891,57.170992 117.2124,41.417048 118.71849,40.74379 126.59975,56.798585 115.06534,62.800319 117.80858,75.8427 H 119.32727 L 116.48765,62.512075 128.2676,56.344114 120.16567,39.94632 121.56314,39.068308 129.92715,55.833728 117.88448,62.198438 120.84586,75.8427 H 122.36432 L 119.26389,61.867507 131.581,55.285256 122.92669,38.13544 124.23151,37.123254 133.22131,54.679419 120.61458,61.512424 123.88267,75.8427 H 125.4009 L 121.95868,61.151949 134.85839,54.060686 125.52291,36.093304 126.76317,35.002329 136.48181,53.396402 123.27851,60.773418 126.91909,75.8427 H 128.43727 L 124.59491,60.392542 138.10311,52.725928 127.99606,33.903251 129.19779,32.769843 139.71544,52.029239 125.89683,60.001727 129.95553,75.8427 H 131.47394 L 127.19889,59.610874 141.32794,51.33248 130.39963,31.636324 131.60165,30.502645 142.94066,50.635624 128.50112,59.219966 132.99257,75.8427 H 134.51146 L 129.80749,58.831601 144.55614,49.945612 132.81229,29.377837 134.03259,28.26295 146.17471,49.263253 131.11849,58.446079 136.03065,75.8427 H 137.55016 L 132.42976,58.060474 147.79363,48.580748 135.25315,27.147826 136.47399,26.032445 149.41292,47.898087 133.74134,57.674781 139.07003,75.8427 H 140.59026 L 135.07807,57.307016 151.04703,47.26135 137.74782,24.978107 139.03655,23.94088 152.68541,46.637449 136.42201,56.944291 142.11081,75.8427 H 143.63165 L 137.79933,56.609026 154.34007,46.079318 140.39368,22.994191 141.77597,22.087152 155.99925,45.548843 139.18954,56.286214 145.15267,75.8427 H 146.67384 L 140.6102,55.993153 157.66888,45.084402 143.21796,21.274817 144.69768,20.582883 159.32307,44.698974 142.04459,55.73975 148.17794,75.8427 H 149.65105 L 143.46795,55.514254 160.94524,44.36752 146.18056,19.974621 147.65014,19.59858 162.47017,44.178719 144.85773,55.368864 151.04641,75.8427 H 152.44177 L 146.25615,55.241825 163.98876,44.021208 149.13071,19.274836 150.64539,19.171846 165.47392,43.992885 147.68654,55.193321 153.83713,75.8427 H 155.23249 L 149.12366,55.175909 166.93836,44.010133 152.15837,19.152639 153.66762,19.317008 168.35738,44.12723 150.5755,55.226621 156.62784,75.8427 H 158.0232 L 152.02874,55.31236 169.74525,44.289865 155.15913,19.572006 156.70169,20.012601 171.153,44.547709 153.56701,55.469104 159.49768,75.8427 H 161.01776 L 155.14674,55.681553 172.54878,44.871982 158.24531,20.593442 159.75004,21.279806 173.89829,45.24497 156.72137,55.936384 162.53784,75.8427 H 164.058 L 158.2807,56.249908 175.17331,45.677607 161.17969,22.107238 162.58878,22.973697 176.42791,46.126755 159.83597,56.579665 165.57835,75.8427 H 167.09895 L 161.37027,56.964864 177.60388,46.625956 163.90996,23.969334 165.22021,24.979487 178.77062,47.130439 162.90209,57.356422 168.61999,75.8427 H 170.14156 L 164.41781,57.782595 179.88437,47.663009 166.46731,26.068243 167.69879,27.17501 180.98563,48.201595 165.92981,58.216855 171.66386,75.8427 H 173.18707 L 167.42815,58.677072 182.04502,48.759275 168.87806,28.339442 170.05825,29.504793 183.10525,49.317395 168.92767,59.137652 174.71148,75.8427 H 176.23729 L 170.42858,59.598656 184.16646,49.876029 171.23953,30.671216 172.41562,31.845317 185.22373,50.437262 171.92926,60.063094 177.76473,75.8427 H 179.29409 L 173.42803,60.534255 186.27176,51.00338 173.57969,33.034315 174.74551,34.22509 187.32136,51.570345 174.92903,61.006121 180.82573,75.8427 H 182.36002 L 176.43264,61.478803 188.37277,52.138291 175.91334,35.417926 177.09846,36.598011 189.43807,52.702599 177.94344,61.945529 183.89738,75.8427 H 185.43817 L 179.46448,62.402 190.52502,53.260354 178.3107,37.755956 179.55007,38.890125 191.63416,53.81059 180.99581,62.847638 186.9827,75.8427 H 188.53128 L 182.53953,63.279304 192.77101,54.351018 180.82336,39.993558 182.14095,41.049518 193.94532,54.874848 184.09815,63.689927 190.08416,75.8427 H 191.64139 L 185.66999,64.083189 195.15149,55.385084 183.49619,42.066373 184.91855,42.992996 196.41782,55.860614 187.26153,64.437629 193.20309,75.8427 H 194.7688 L 188.86362,64.775967 197.71156,56.321962 186.3715,43.882334 187.91529,44.610315 199.09507,56.715291 190.48762,65.047094 196.3385,75.8427 H 197.91092 L 192.11796,65.298191 200.50468,57.086731 189.48328,45.28916 191.12741,45.771728 202.00356,57.367883 193.76074,65.470334 199.4858,75.8427 H 201.06153 L 195.40393,65.608838 203.53432,57.606134 192.79171,46.167798 194.43784,46.419351 205.06885,57.771475 196.99922,65.691598 202.59205,75.8427 H 204.07169 L 198.53444,65.719373 206.59255,57.85876 196.04302,46.524378 197.55953,46.571551 208.04325,57.913267 199.97868,65.726165 205.46705,75.8427 H 206.86241 L 201.41278,65.6901 209.52141,57.904134 199.07615,46.5027 200.58801,46.377887 211.01018,57.863172 202.84021,65.633783 208.25776,75.8427 H 209.65312 L 204.26016,65.554699 212.51089,57.786426 202.09453,46.190158 203.58379,45.901079 214.02606,57.649989 205.66483,65.4397 211.04848,75.8427 H 212.44384 L 207.0646,65.313155 215.54589,57.494365 205.0675,45.57942 206.55121,45.25776 217.06572,57.33874 208.46437,65.18661 213.8392,75.8427 H 215.23455 L 209.85876,65.049822 218.58838,57.165127 208.02737,44.90657 209.48342,44.476708 220.11859,56.943596 211.23882,64.885743 216.62991,75.8427 H 218.02527 L 212.61888,64.721664 221.6488,56.722065 210.93947,44.046847 212.39552,43.616986 223.17901,56.500534 213.99894,64.557585 219.42063,75.8427 H 220.81599 L 215.37418,64.385325 224.71083,56.264151 213.84421,43.163223 215.28999,42.699992 226.24329,56.021884 216.74752,64.209823 222.21135,75.8427 H 223.6067 L 218.12086,64.034322 227.77575,55.779616 216.73577,42.236761 218.18295,41.778108 229.3079,55.540192 219.49512,63.860388 225.00206,75.8427 H 226.39742 L 220.87584,63.697471 230.83786,55.320753 219.63999,41.35163 221.09704,40.925153 232.36782,55.101314 222.25657,63.534555 227.79278,75.8427 H 229.18814 L 223.63729,63.371639 233.89777,54.881875 222.55408,40.498676 224.02641,40.132784 235.42181,54.699291 225.02898,63.229756 230.58349,75.8427 H 231.97885 L 226.4297,63.105224 236.94096,54.547109 225.51135,39.816867 226.9963,39.50095 238.4601,54.394927 227.83043,62.980692 233.37421,75.8427 H 234.76957 L 229.23162,62.857266 239.9788,54.244578 228.48176,39.188152 229.98901,39.006325 241.47851,54.171241 230.65235,62.780298 236.16493,75.8427 H 237.56029 L 232.07697,62.71528 242.97189,54.116641 231.49894,38.85749 233.01576,38.793327 244.44906,54.110129 233.51155,62.680928 238.95564,75.8427 H 240.351 L 234.95209,62.671479 245.91034,54.140653 234.53267,38.79662 236.04967,38.856525 247.35828,54.202259 236.39763,62.682932 241.74636,75.8427 H 243.14172 L 237.84591,62.711535 248.79359,54.288101 237.56326,38.962063 239.07241,39.12739 250.21233,54.4057 239.2978,62.76261 244.53708,75.8427 H 245.93243 L 240.75071,62.824396 251.62229,54.537781 240.57765,39.320793 242.0746,39.573789 253.01362,54.700602 242.20578,62.908919 247.32779,75.8427 H 248.79831 L 243.73951,63.004805 254.47386,54.881062 243.64877,39.858043 245.23171,40.202549 255.93299,55.092302 245.2934,63.123789 250.28725,75.8427 H 251.78076 L 246.85201,63.250209 257.38991,55.313083 246.81511,40.566211 248.40846,40.993962 258.84744,55.565996 248.4343,63.401424 253.29707,75.8427 H 254.81307 L 250.01627,63.552609 260.30468,55.818857 250.0015,41.421627 251.5942,41.849204 261.76162,56.071666 251.59791,63.703763 256.32876,75.8427 H 257.84811 L 253.18316,63.860158 263.21722,56.331045 253.18724,42.290183 254.78512,42.767559 264.67293,56.60837 254.78185,64.030747 259.38086,75.8427 H 260.91362 L 256.38055,64.201336 266.12865,56.885698 256.38301,43.244937 257.98091,43.722318 267.58438,57.163026 257.97925,64.371926 262.44639,75.8427 H 263.97775 L 259.57663,64.539351 269.04178,57.436443 259.57955,44.19164 261.17518,44.644055 270.49837,57.701525 261.167,64.700181 265.50211,75.8427 H 267.02629 L 262.75719,64.860994 271.95479,57.966576 262.77063,45.096418 264.36588,45.548726 273.41103,58.231596 264.34718,65.021786 268.55029,75.8427 H 270.06176 L 265.92432,65.167051 274.86891,58.476695 265.9572,45.96103 267.53801,46.313183 276.32488,58.691722 267.47782,65.289011 271.55029,75.8427 H 273.03802 L 269.03049,65.410906 277.78006,58.906633 269.11795,46.665145 270.69703,47.016913 279.23444,59.121426 270.5823,65.532733 274.52493,75.8427 H 275.99763 L 272.11838,65.635317 280.69078,59.310497 272.26973,47.318436 273.77132,47.542255 282.09155,59.458404 273.57261,65.708657 277.39299,75.8427 H 278.78835 L 275.02539,65.769676 283.50207,59.589397 275.2767,47.733613 276.7894,47.86239 284.93139,59.68778 276.47538,65.80694 280.18371,75.8427 H 281.57906 L 277.92337,65.833543 286.36821,59.770822 278.30347,47.962622 279.82156,47.978352 287.8272,59.808449 279.36544,65.828584 282.97442,75.8427 H 284.36978 L 280.80538,65.815812 289.29085,59.834215 281.33897,47.972762 282.85289,47.859142 290.7781,59.79988 282.23456,65.763449 285.76514,75.8427 H 287.1605 L 283.66249,65.707736 292.26693,59.760143 284.36565,47.736176 285.86152,47.476874 293.7787,59.641606 285.07222,65.603154 288.55585,75.8427 H 289.95121 L 286.48194,65.498572 295.29046,59.52307 287.35739,47.217571 288.82669,46.838874 296.81586,59.332744 287.87139,65.352226 291.34657,75.8427 H 292.74193 L 289.25732,65.198652 298.34362,59.129997 290.2914,46.439515 291.73174,45.963267 299.87617,58.879301 290.62751,65.01882 294.13729,75.8427 H 295.53265 L 291.9893,64.824986 301.41128,58.603037 293.15908,45.446015 294.56942,44.886363 302.94707,58.29949 293.34109,64.616983 296.928,75.8427 H 298.40764 L 294.76135,64.377744 304.57652,57.941646 296.04252,44.237018 297.51272,43.557871 306.21562,57.564565 296.18378,64.128569 299.89657,75.8427 H 301.40831 L 297.61398,63.858075 307.87857,57.146444 298.98017,42.814931 300.44482,42.054592 309.54646,56.716878 299.04493,63.581861 302.92529,75.8427 H 304.44755 L 300.46854,63.290687 311.21776,56.256566 301.89151,41.248225 303.33321,40.433119 312.8884,55.790265 301.88957,62.996729 305.96986,75.8427 H 307.49224 L 303.29867,62.690111 314.55586,55.296714 304.75195,39.578265 306.1708,38.72334 316.22346,54.803122 304.70789,62.383468 309.01474,75.8427 H 310.53737 L 306.11722,62.076801 317.89119,54.309491 307.58976,37.868347 309.00884,37.013288 319.55905,53.815822 307.52666,61.77011 312.06011,75.8427 H 313.58297 L 308.93467,61.461832 321.22657,53.318696 310.42502,36.153221 311.8413,35.293056 322.8942,52.82151 310.34278,61.153521 315.10594,75.8427 H 316.62903 L 311.75099,60.845187 324.56197,52.324287 313.25769,34.432827 314.67418,33.572535 326.22985,51.827028 313.1593,60.53683 318.15223,75.8427 H 319.67554 L 314.58374,60.24545 327.90211,51.366251 316.12149,32.765508 317.57637,31.971572 329.57545,50.914442 316.01214,59.958243 321.19887,75.8427 H 322.72221 L 317.44055,59.671034 331.2488,50.46263 319.03127,31.177632 320.48617,30.383688 332.92216,50.010815 318.86897,59.383824 324.24557,75.8427 H 325.74576 L 320.29324,59.121873 334.57263,49.608751 321.95126,29.666059 323.41893,28.989226 336.20823,49.233163 321.71276,58.87347 327.23123,75.8427 H 328.70059 L 323.12953,58.644972 337.82588,48.89526 324.89262,28.371547 326.30868,27.824167 339.36192,48.599799 324.48451,58.440999 330.09595,75.8427 H 331.4913 L 325.84826,58.250903 340.89598,48.330094 327.73877,27.317689 329.19281,26.88111 342.42668,48.104405 327.22699,58.084519 332.88666,75.8427 H 334.28202 L 328.60959,57.92557 343.95528,47.891737 330.65225,26.465944 332.1398,26.162537 345.4729,47.747035 330.01238,57.805429 335.67738,75.8427 H 337.07274 L 331.41516,57.685288 346.99052,47.602332 333.62735,25.85913 335.14034,25.74212 348.47807,47.565918 332.8437,57.631755 338.4681,75.8427 H 339.86345 L 334.27371,57.582035 349.9639,47.535704 336.65479,25.635782 338.17105,25.642835 351.42393,47.568136 335.71434,57.574033 341.25881,75.8427 H 342.65417 L 337.15972,57.58473 352.8724,47.628649 339.68812,25.700715 341.20437,25.770195 354.31768,47.695333 338.60582,57.599785 344.04953,75.8427 H 345.44489 L 340.05733,57.647872 355.73874,47.808802 342.71436,25.927634 344.22435,26.085074 357.1598,47.922272 341.50884,57.69596 346.84024,75.8427 H 348.2356 L 342.96142,57.754072 358.57281,48.049413 345.731,26.268864 347.23265,26.492297 359.97371,48.197122 344.41564,57.827265 349.63096,75.8427 H 351.02632 L 345.86985,57.900457 361.3746,48.344831 348.73429,26.71573 350.22822,26.984531 362.76054,48.51561 347.32519,57.991082 352.42168,75.8427 H 353.81704 L 348.78096,58.088189 364.14092,48.69497 351.71928,27.270203 353.21033,27.555876 365.5213,48.874329 350.23672,58.185297 355.21239,75.8427 H 356.60775 L 351.69248,58.282404 366.90168,49.053688 354.70139,27.841549 356.18907,28.143348 368.2764,49.241099 353.14842,58.385763 358.00311,75.8427 H 359.39847 L 354.60471,58.502491 369.63901,49.445726 357.66953,28.479631 370.33619,49.550423 355.34982,58.562215 360.1124,75.8427 359.35924,73.109942 358.60608,70.377185 359.35924,73.109942 360.1124,75.8427"
         transform="scale(0.264583)"
         inkstitch:stroke_method="manual_stitch" />
    </g>
  </g>
</svg>
