<?xml version="1.0" encoding="UTF-8" standalone="no"?>
<!-- Created with Inkscape (http://www.inkscape.org/) -->

<svg
   xmlns:dc="http://purl.org/dc/elements/1.1/"
   xmlns:cc="http://creativecommons.org/ns#"
   xmlns:rdf="http://www.w3.org/1999/02/22-rdf-syntax-ns#"
   xmlns:svg="http://www.w3.org/2000/svg"
   xmlns="http://www.w3.org/2000/svg"
   xmlns:sodipodi="http://sodipodi.sourceforge.net/DTD/sodipodi-0.dtd"
   xmlns:inkscape="http://www.inkscape.org/namespaces/inkscape"
   sodipodi:docname="running-stitch.svg"
   inkscape:version="0.92.3 (unknown)"
   id="svg8"
   version="1.1"
   viewBox="0 0 100 100"
   height="100mm"
   width="100mm">
  <sodipodi:namedview
     inkscape:window-maximized="1"
     inkscape:window-y="0"
     inkscape:window-x="0"
     inkscape:window-height="1035"
     inkscape:window-width="1920"
     inkscape:snap-intersection-paths="true"
     inkscape:snap-global="true"
     showgrid="false"
     inkscape:current-layer="layer1"
     inkscape:document-units="mm"
     inkscape:cy="200.38681"
     inkscape:cx="81.607966"
     inkscape:zoom="1.4"
     inkscape:pageshadow="2"
     inkscape:pageopacity="0.0"
     borderopacity="1.0"
     bordercolor="#666666"
     pagecolor="#ffffff"
     id="base" />
  <defs
     id="defs2">
    <inkscape:path-effect
       effect="interpolate"
       id="path-effect938"
       is_visible="true"
       trajectory="m -37.353838,80.558646 0.07429,31.996244"
       equidistant_spacing="true"
       steps="10"
       trajectory-nodetypes="cc" />
    <inkscape:path-effect
       trajectory-nodetypes="cc"
       steps="10"
       equidistant_spacing="true"
       trajectory="m -12.785386,87.362217 0.07429,31.996243"
       is_visible="true"
       id="path-effect934"
       effect="interpolate" />
  </defs>
  <metadata
     id="metadata5">
    <rdf:RDF>
      <cc:Work
         rdf:about="">
        <dc:format>image/svg+xml</dc:format>
        <dc:type
           rdf:resource="http://purl.org/dc/dcmitype/StillImage" />
        <dc:title />
      </cc:Work>
    </rdf:RDF>
  </metadata>
  <g
     transform="translate(0,-197)"
     id="layer1"
     inkscape:groupmode="layer"
     inkscape:label="Ebene 1">
    <path
       style="display:inline;opacity:1;fill:none;fill-opacity:0.98431373;stroke:#000000;stroke-width:0.117;stroke-linecap:round;stroke-linejoin:round;stroke-miterlimit:4;stroke-dasharray:0.234,0.234;stroke-dashoffset:0;stroke-opacity:1"
       d="m 49.009729,235.57173 c -0.48386,0.28941 -0.168924,4.25037 0.494534,4.94398 0.119945,0 0.25874,-0.45616 0.384314,-1.10722 0.259627,-1.20175 0.387397,-2.49411 0.189176,-3.44898 -0.0498,-0.17193 -0.126194,-0.31846 -0.239926,-0.42517 0.211544,-0.22962 0.199125,-0.54945 -0.01883,-0.73807 -0.186704,-0.13268 -0.39923,-0.15189 -0.582557,-0.0363 h -8e-6 c -0.265004,0.21613 -0.297989,0.32272 -0.2267,0.70694 -0.393997,0.35265 -0.559528,0.57275 -0.66967,0.95792 -0.355288,2.38581 -0.0097,4.70242 0.413149,6.95473 0.251427,1.30174 0.527688,2.15085 0.768435,2.13586 0.239891,0 0.517483,-0.91231 0.76863,-2.21444 0.26378,-2.10757 0.816313,-5.09681 0.378341,-6.89795 -0.09959,-0.34386 -0.252388,-0.63694 -0.479853,-0.85034 0.423089,-0.45925 0.398249,-1.09891 -0.03765,-1.47615 -0.373408,-0.26537 -0.79846,-0.30377 -1.165113,-0.0726 h 5e-6 c -0.530008,0.43227 -0.595977,0.92306 -0.294358,1.52721 -0.511473,0.44682 -0.75977,0.77034 -0.924982,1.34808 -0.595944,3.4084 -0.0083,7.12097 0.619723,10.4321 0.377142,1.95262 0.791532,3.22626 1.152653,3.20378 0.359836,0 0.776225,-1.36847 1.152946,-3.32166 0.482494,-2.84898 0.877792,-5.98958 0.804509,-8.71428 -0.0257,-0.58799 -0.0956,-1.14445 -0.236994,-1.63263 -0.149387,-0.5158 -0.378583,-0.95541 -0.719779,-1.27552 0.634634,-0.68887 0.597373,-1.64836 -0.05647,-2.21421 -0.560112,-0.39806 -1.19769,-0.45569 -1.747668,-0.10894 h -3e-6 c -0.795014,0.64842 -0.893967,1.50701 -0.362016,2.33106 -0.62895,0.54097 -0.960012,0.98434 -1.180296,1.75468 -0.486926,5.11921 -0.04259,9.38748 0.8263,13.90946 0.502854,2.60348 1.055376,4.3017 1.536867,4.27171 0.479783,0 1.034968,-1.82462 1.537263,-4.42887 0.151822,-0.78715 0.298813,-1.64554 0.437428,-2.54628 0.293529,-3.37181 1.019857,-8.35806 0.319259,-11.24961 -0.199183,-0.68774 -0.504777,-1.27388 -0.959706,-1.7007 0.846179,-0.91849 0.796499,-2.19781 -0.07531,-2.95229 -0.746818,-0.53074 -1.59692,-0.60756 -2.330226,-0.14518 -1.060019,0.86455 -1.191956,2.06155 -0.429674,3.10552 -0.746426,0.63516 -1.160254,1.22774 -1.435608,2.19066 -0.657829,5.13976 -0.210373,9.49983 0.479245,14.12183 0.17591,1.17417 0.36188,2.27224 0.553628,3.265 0.628569,3.25435 1.319221,5.37711 1.921086,5.33964 0.599728,0 1.293709,-2.28079 1.921578,-5.5361 0.65408,-5.18454 1.930835,-12.4677 0.945859,-17.24486 -0.24898,-0.85968 -0.630971,-1.59235 -1.199632,-2.12588 1.057722,-1.14809 0.995622,-2.74726 -0.09413,-3.69035 -0.93352,-0.66343 -1.99615,-0.75946 -2.912782,-0.18147 -1.325023,1.08068 -1.489945,2.6161 -0.497332,3.87999 -0.863901,0.72932 -1.360495,1.47111 -1.690919,2.62661 -1.016198,7.19017 -0.0661,14.00136 1.239448,20.8642 0.754281,3.90523 1.583062,6.45255 2.305302,6.40757 0.719674,0 1.552451,-2.73694 2.305894,-6.6433 0.958976,-6.58998 2.823764,-14.71861 1.135031,-20.69385 -0.298777,-1.03161 -0.757167,-1.91082 -1.43956,-2.55104 1.269267,-1.37774 1.194746,-3.29673 -0.11296,-4.42844 -1.120225,-0.7961 -2.395379,-0.91135 -3.495338,-0.21776 -1.590028,1.29681 -1.787933,3.17065 -0.56499,4.65445 -0.981378,0.8235 -1.560737,1.71451 -1.946233,3.06259 -1.037516,5.49645 -0.568801,9.98884 0.05653,15.20247 0.386644,3.13846 0.825462,6.20373 1.389488,9.1391 0.879995,4.5561 1.846906,7.52796 2.689519,7.4755 0.839621,0 1.811194,-3.1931 2.690209,-7.75053 1.327003,-7.90976 3.20731,-17.04234 1.324203,-24.14282 -0.348572,-1.20355 -0.88336,-2.22929 -1.679485,-2.97621 1.480812,-1.60735 1.393871,-3.84618 -0.131781,-5.16652 -1.30693,-0.92878 -2.79461,-1.06323 -4.077896,-0.25406 h 10e-7 c -1.855031,1.51296 -2.085922,3.72522 -0.632647,5.42893 -1.098854,0.91765 -1.760979,1.95789 -2.201546,3.49856 -1.596691,8.77531 0.01792,19.11084 1.652598,27.81894 1.00571,5.20696 2.110752,8.60337 3.073737,8.54342 0.959566,0 2.069935,-3.64924 3.074525,-8.85775 1.42192,-8.63611 3.522101,-19.79745 1.513374,-27.59179 -0.398367,-1.37548 -1.009554,-2.54776 -1.91941,-3.40139 1.692355,-1.83696 1.592994,-4.39563 -0.150608,-5.90458 -1.493634,-1.06147 -3.19384,-1.21512 -4.660453,-0.29035 -2.364269,1.52643 -2.492026,4.91208 -0.851219,6.2736 -0.01688,-0.009 -1.957085,1.99243 -2.247622,3.80895 0,0 -1.926352,-8.33813 -16.105479,-17.86478 -14.179189,-9.52668 -25.5611847,-4.4533 -25.5611847,-4.4533 0,0 -3.54479955,1.7724 0,5.98185 3.5173764,4.15459 9.2803437,10.26237 11.0932477,17.79519 2.021572,8.39989 8.130638,11.50184 8.261764,11.60213 8.260776,6.3181 17.784938,1.69056 21.835785,-1.24055 0,0 -12.800531,9.26366 -21.796618,1.24055 -1.304444,0.0759 -8.980124,2.67079 -7.255764,5.65505 2.215499,3.32325 0.886197,4.78549 0.443099,8.10873 -0.443099,3.32325 4.431005,3.76634 4.874103,7.5327 0.443099,3.76635 3.495208,3.54089 4.874103,5.45013 2.880142,3.98791 7.311116,2.21551 10.19125,3.1017 2.880135,0.8862 6.319413,-2.16036 10.966882,-11.45536 -0.408174,-1.9378 -0.645708,-3.89213 -1.02712,-6.16344 0,0 -6.178399,10.62544 -14.637966,11.1033 9.287754,-0.86923 14.745049,-10.95338 14.637966,-11.1033 -0.354218,-1.59668 -0.651664,-3.25536 -0.808827,-5.30806 0,0 -5.212914,9.04048 -20.095495,9.51834 15.373156,-0.22991 20.169426,-9.24724 20.095495,-9.51834 -0.199008,-1.89267 -0.181792,-3.28538 -0.365331,-4.99295 0,0 -2.341046,6.67044 -24.899933,6.52165 22.902221,0.4863 24.927042,-6.37254 24.899933,-6.52165 0.06763,-0.36031 -0.01952,-2.06701 -0.09578,-3.16905 -0.158289,-2.28816 -0.220466,-5.20042 -0.24315,-7.3216 -1.385799,-3.24731 -4.156295,-7.55753 -7.348147,-10.38235 -4.406384,-3.89969 -10.312781,-8.9394 -13.453204,-11.42918 -3.350153,-2.65605 -12.402738,-5.6555 -15.1555013,-1.39413 -0.998427,1.54559 1.869274,3.17184 2.7209353,4.80291 2.243735,4.29714 4.1316,7.10146 7.414523,6.62629 2.815679,-0.40755 6.805678,-4.26127 5.571761,-6.46553 -2.483054,-4.43571 -8.240934,-7.03452 -11.842457,-4.3738 -1.143534,0.84481 1.430788,2.47331 2.341551,3.56505 1.04784,1.25606 1.953784,3.03811 3.55217,3.38572 2.294769,0.49904 2.880877,-2.27319 2.163484,-3.43625 -0.546032,-0.89352 -5.014486,-2.11677 -3.129222,0.27671 -1.130434,-2.85463 2.58319,-1.17023 3.129222,-0.27671 0.705799,1.15495 -0.820303,3.26919 -2.163484,3.43625 -1.623238,0.20189 -2.056958,-2.72239 -3.55217,-3.38572 -1.930473,-0.85642 -3.719163,-2.67045 -2.341551,-3.56505 2.610499,-1.6952 9.351925,-0.0577 11.842457,4.3738 1.239012,2.20462 -1.333324,6.38041 -5.571761,6.46553 -3.313994,0.0665 -5.334265,-4.04569 -7.414523,-6.62629 -1.1547943,-1.43255 -4.0756943,-3.55778 -2.7209353,-4.80291 5.4525563,-5.01131 10.7869503,-1.18517 15.1555013,1.39413 4.560607,2.6927 7.063335,5.30468 10.872187,8.87226 0,0 -7.008113,-3.00701 -6.955525,-0.44825 0.09693,4.71713 -8.882568,5.43778 -8.302955,8.92959 0.230878,1.39091 -0.468322,2.89993 5e-6,4.22981 1.107263,3.14425 3.426886,6.04749 6.266375,7.7938 2.410009,1.4822 5.549125,2.4117 8.302921,1.76244 3.183019,-0.75048 7.238831,-2.86882 7.67627,-6.10972 0.74474,-5.51763 -4.347488,-13.08465 -9.556177,-13.94271 -1.893113,-0.31186 -2.164663,3.1347 -4.229779,3.91649 -1.840983,0.69694 -4.47658,0.50152 -5.483085,2.19323 -1.745849,2.9344 0.567245,7.01966 3.28985,8.61628 3.348239,1.96352 9.523111,2.18709 11.592752,-1.09662 2.098207,-3.32902 -0.15855,-10.37587 -4.229784,-10.4962 -1.433276,-0.0423 -1.273553,2.65577 -2.349884,3.60318 -1.349903,1.18822 -4.690151,0.55923 -4.856423,2.34989 -0.252026,2.71428 3.916505,5.43808 6.579671,4.85646 2.44998,-0.53509 3.980346,-5.11423 1.879908,-5.95307 -1.258079,-0.50244 -5.483051,2.81987 -1.879908,3.60317 v 0 c -3.730402,-0.94692 0.397072,-4.42025 1.879908,-3.60317 1.822564,1.00427 0.09893,5.30926 -1.879908,5.95307 -2.592202,0.84334 -6.831697,-2.14218 -6.579671,-4.85646 0.166272,-1.79066 2.923347,-1.62821 4.856423,-2.34989 1.343338,-0.50151 0.922781,-3.74262 2.349884,-3.60318 3.754235,0.36689 6.190809,7.27388 4.229784,10.4962 -2.017884,3.31577 -8.295643,3.14485 -11.592752,1.09662 -2.611453,-1.62228 -4.523135,-5.80017 -3.28985,-8.61628 0.789671,-1.80315 3.819189,-1.14138 5.483085,-2.19323 1.624188,-1.02675 2.3202,-4.13029 4.229779,-3.91649 5.599407,0.6269 10.418936,8.37472 9.556177,13.94271 -0.495719,3.19922 -4.661188,4.82044 -7.67627,6.10972 -2.56235,1.09568 -5.744021,-0.46731 -8.14626,-1.87993 -2.92022,-1.7172 -5.728286,-4.37886 -6.423036,-7.67631 -0.481304,-1.32524 0.149567,-2.82783 -5e-6,-4.22981 -0.357974,-3.35542 8.841053,-3.94097 8.302955,-8.92959 -0.05257,-2.55876 6.955525,0.44825 6.955525,0.44825 0.824594,0.4227 1.722626,1.05814 2.522269,1.94986 2.910946,3.24618 5.946849,7.68054 7.406895,10.98941 0.147345,-1.60395 0.357039,-3.27328 0.719017,-4.49896 0,0 -1.926352,-7.7178 -16.105479,-17.24445 -14.179188,-9.52665 -25.5611842,-4.45327 -25.5611842,-4.45327 0,0 -3.9467738,2.14674 0,5.98185 4.4517839,4.32583 10.9620852,15.31864 11.0932472,17.79519 0.387386,7.31433 8.300932,10.98179 8.300932,10.98179 -0.695184,-0.48912 -8.980125,3.29112 -7.255765,6.27539 2.2155,3.32324 0.886197,4.78547 0.443099,8.10873 -0.443099,3.32325 4.431005,3.76634 4.874103,7.5327 0.443099,3.76635 3.495208,3.5409 4.874104,5.45013 2.880141,3.9879 7.311115,2.21551 10.19125,3.1017 2.880134,0.8862 6.319412,-2.93579 10.966881,-12.0757 1.187887,6.19983 2.401239,10.1002 3.484598,10.03275 1.079511,0 2.368608,-4.5152 3.498772,-10.37476 0.341601,-1.77109 0.672329,-3.70244 0.970662,-5.82143 0,0 6.178435,10.62544 14.638048,11.1033 -9.287804,-0.86923 -14.745131,-10.95338 -14.638048,-11.1033 0.354218,-1.59668 0.65167,-3.25536 0.808834,-5.30806 0,0 5.212942,9.04048 20.095596,9.51834 -15.373231,-0.22991 -20.169532,-9.24724 -20.095596,-9.51834 0.19901,-1.89267 0.18179,-3.28538 0.365334,-4.99295 0,0 2.341056,6.67044 24.90003,6.52165 -22.90231,0.4863 -24.927139,-6.37254 -24.90003,-6.52165 -0.06763,-0.36031 0.01954,-2.06701 0.09577,-3.16905 0.158292,-2.28816 0.220466,-5.20042 0.24315,-7.3216 1.385808,-3.24731 4.21507,-8.16459 7.40694,-10.98941 4.406411,-3.89969 10.254088,-8.33234 13.394512,-10.82212 3.350153,-2.65605 12.402738,-5.6555 15.155501,-1.39413 0.998427,1.54559 -1.869274,3.17184 -2.720936,4.80291 -2.243734,4.29714 -4.131601,7.10146 -7.414523,6.62629 -2.81568,-0.40755 -6.805679,-4.26127 -5.57176,-6.46553 2.483052,-4.43571 8.240933,-7.03452 11.842456,-4.3738 1.143533,0.84481 -1.430788,2.47331 -2.34155,3.56505 -1.04784,1.25606 -1.953785,3.03811 -3.55217,3.38572 -2.294771,0.49904 -2.880877,-2.27319 -2.163485,-3.43625 0.546032,-0.89352 5.014486,-2.11677 3.129223,0.27671 1.130433,-2.85463 -2.583191,-1.17023 -3.129223,-0.27671 -0.705799,1.15495 0.820302,3.26919 2.163485,3.43625 1.623237,0.20189 2.056958,-2.72239 3.55217,-3.38572 1.930473,-0.85642 3.719162,-2.67045 2.34155,-3.56505 -2.610499,-1.6952 -9.351924,-0.0577 -11.842456,4.3738 -1.239012,2.20462 1.333323,6.38041 5.57176,6.46553 3.313994,0.0665 5.334265,-4.04569 7.414523,-6.62629 1.154794,-1.43255 4.075693,-3.55778 2.720936,-4.80291 -5.452556,-5.01131 -10.786951,-1.18517 -15.155501,1.39413 -4.560614,2.6927 -7.110603,5.06844 -10.919476,8.63602 0,0 7.055387,-2.77077 7.002809,-0.21201 -0.09693,4.71713 8.882573,5.43778 8.30296,8.92959 -0.230878,1.39091 0.46832,2.89993 -6e-6,4.22981 -1.107264,3.14425 -3.426886,6.04749 -6.266376,7.7938 -2.410013,1.4822 -5.549146,2.4117 -8.302958,1.76244 -3.183038,-0.75048 -7.238872,-2.86882 -7.676315,-6.10972 -0.744742,-5.51763 4.347515,-13.08465 9.556232,-13.94271 1.893125,-0.31186 2.164675,3.1347 4.229804,3.91649 1.840986,0.69694 4.476584,0.50152 5.483088,2.19323 1.745848,2.9344 -0.567245,7.01966 -3.289851,8.61628 -3.348248,1.96352 -9.523155,2.18709 -11.592809,-1.09662 -2.098217,-3.32902 0.158553,-10.37587 4.22981,-10.4962 1.433284,-0.0423 1.273559,2.65577 2.349897,3.60318 1.349911,1.18822 4.69017,0.55923 4.856443,2.34989 0.252026,2.71428 -3.916519,5.43808 -6.579701,4.85646 -2.449994,-0.53509 -3.980369,-5.11423 -1.879918,-5.95307 1.258085,-0.50244 5.483082,2.81987 1.879918,3.60317 v 0 c 3.730423,-0.94692 -0.397074,-4.42025 -1.879918,-3.60317 -1.822575,1.00427 -0.09893,5.30926 1.879918,5.95307 2.592217,0.84334 6.831727,-2.14218 6.579701,-4.85646 -0.166273,-1.79066 -2.923355,-1.62821 -4.856443,-2.34989 -1.343346,-0.50151 -0.922785,-3.74262 -2.349897,-3.60318 -3.754257,0.36689 -6.190845,7.27388 -4.22981,10.4962 2.017897,3.31577 8.29569,3.14485 11.592809,1.09662 2.611455,-1.62228 4.523136,-5.80017 3.289851,-8.61628 -0.78967,-1.80315 -3.819189,-1.14138 -5.483088,-2.19323 -1.624199,-1.02675 -2.320215,-4.13029 -4.229804,-3.91649 -5.599438,0.6269 -10.418995,8.37472 -9.556232,13.94271 0.495724,3.19922 4.661216,4.82044 7.676315,6.10972 2.562364,1.09568 5.744053,-0.46731 8.146299,-1.87993 2.92022,-1.7172 5.728286,-4.37886 6.423035,-7.67631 0.481304,-1.32524 -0.149567,-2.82783 6e-6,-4.22981 0.357972,-3.35542 -8.709147,-3.99142 -8.171047,-8.98004 0.05257,-2.55876 -7.002809,0.21202 -7.002809,0.21202 -0.824599,0.4227 -1.807303,1.34482 -2.606949,2.23654 -2.910965,3.24618 -5.946885,7.68054 -7.40694,10.98941 -0.147342,-1.60395 -0.357041,-3.27328 -0.719018,-4.49896 0,0 1.926362,-7.7178 16.105568,-17.24445 14.1792,-9.52665 25.561198,-4.45327 25.561198,-4.45327 0,0 3.946781,2.14674 0,5.98185 -4.451786,4.32583 -10.962087,15.31864 -11.09325,17.79519 -0.387385,7.31433 -8.30093,10.98179 -8.30093,10.98179 0.695183,-0.48912 8.980124,3.29112 7.255764,6.27539 -2.215499,3.32324 -0.886198,4.78547 -0.443099,8.10873 0.443099,3.32325 -4.431004,3.76634 -4.874103,7.5327 -0.443099,3.76635 -3.495208,3.5409 -4.874104,5.45013 -2.880151,3.9879 -7.31115,2.21551 -10.1913,3.1017 -2.880151,0.8862 -6.25793,-3.11259 -10.910481,-12.41771 4.652551,9.30512 8.03033,12.68357 10.910481,11.79737 2.88015,-0.88619 7.311149,0.88621 10.1913,-3.1017 1.378896,-1.90924 4.431005,-1.68378 4.874104,-5.45013 0.443099,-3.76636 5.317202,-4.20945 4.874103,-7.5327 -0.443099,-3.32324 -1.7724,-4.78548 0.443099,-8.10873 1.72436,-2.98426 -5.951321,-5.57922 -7.255764,-5.65505 -8.996115,8.02311 -21.796718,-1.24055 -21.796718,-1.24055 4.05087,2.93111 13.575087,7.55865 21.835884,1.24055 0.131128,-0.10027 6.240192,-3.20224 8.261764,-11.60213 1.812904,-7.53282 7.575873,-13.6406 11.09325,-17.79519 3.544801,-4.20945 0,-5.98185 0,-5.98185 0,0 -11.381998,-5.07338 -25.561198,4.45326 -14.179184,9.52666 -16.105545,17.8648 -16.105545,17.8648 -0.510356,-1.7863 -1.197941,-2.79494 -2.221529,-3.75528 1.66984,-1.13035 1.579261,-4.83364 -0.382293,-6.53121 2.361989,-6.39424 2.526965,-10.22856 6.046008,-13.66469 1.322654,-1.29149 3.317078,-2.34688 5.144887,-2.07035 2.290791,0.34657 3.408211,2.62377 3.420579,4.70854 0.01167,1.97226 -1.98332,3.46292 -4.11381,2.92483 -1.595836,-0.3173 -2.789943,-1.88407 -2.429121,-3.51903 0.234693,-1.6114 1.569453,-2.38166 2.924287,-1.93337 0.98222,0.32499 1.758087,1.29247 1.437663,2.32951 -0.21834,0.70665 -1.00096,1.25109 -1.734764,0.94194 -0.410222,-0.17284 -0.765263,-0.72676 -0.446211,-1.14001 0.117734,-0.15248 0.575022,-0.27853 0.545246,0.0495 0.02977,-0.32805 -0.427507,-0.20201 -0.545241,-0.0495 -0.319051,0.41325 0.03599,0.96717 0.446212,1.14001 0.733805,0.30915 1.516424,-0.23529 1.734764,-0.94194 0.320424,-1.03704 -0.434829,-2.07516 -1.437663,-2.32951 -1.336623,-0.33902 -2.637562,0.63414 -2.924288,1.93337 -0.234547,1.55078 1.134256,3.00109 2.429122,3.51903 1.93277,0.3843 3.842037,-1.26439 4.11381,-2.92483 0.313355,-1.91447 -1.556164,-4.17247 -3.420579,-4.70854 -1.776627,-0.51082 -3.869478,0.63712 -5.192134,1.92861 -3.519048,3.43613 -3.636778,7.41219 -5.998767,13.80643 -1.234603,-1.56562 -3.352105,-1.50188 -5.052747,-0.45537 -3.000808,-6.74071 -3.609317,-8.83203 -7.169887,-14.44842 -1.35965,-2.14469 -3.862737,-3.62667 -5.593531,-3.06733 -1.893961,0.61207 -3.795156,2.50558 -3.420558,4.70855 -0.06873,1.9849 1.942444,3.36215 4.113787,2.92483 1.595038,-0.32125 2.789927,-1.88408 2.429108,-3.51903 -0.286729,-1.29923 -1.58766,-2.2724 -2.924271,-1.93338 -0.973959,0.28328 -1.752983,1.29757 -1.437658,2.32951 0.216136,0.70733 1.000953,1.25109 1.734755,0.94193 0.410232,-0.17283 0.765261,-0.72675 0.446209,-1.13999 -0.117735,-0.1525 -0.575035,-0.27854 -0.545242,0.0495 -0.02979,-0.32805 0.427507,-0.20201 0.545242,-0.0495 0.319052,0.41324 -0.03598,0.96716 -0.446209,1.13999 -1.020452,0.40471 -1.662852,-0.18646 -1.734755,-0.94193 -0.320423,-1.03705 0.434829,-2.07516 1.437658,-2.32951 1.330146,-0.37135 2.512893,0.0114 2.924271,1.93338 0.346495,1.62063 -1.080929,2.95408 -2.429108,3.51903 -1.93276,0.3843 -3.766931,-1.03229 -4.113787,-2.92483 -0.408757,-2.2303 1.23122,-4.33278 3.420558,-4.70855 1.792716,-0.30768 4.483125,0.89494 5.842775,3.03964 3.56057,5.61638 3.919835,7.7354 6.920642,14.47611 -2.362445,1.96251 -3.136742,4.84913 -1.104533,7.00087 -1.195044,1.11833 -1.481812,2.61102 -1.848139,4.1508 0,0 -1.926352,-8.33813 -16.105479,-17.86478 -14.179189,-9.52668 -25.5611844,-4.4533 -25.5611844,-4.4533 0,0 -3.54479955,1.7724 0,5.98185 3.5173764,4.15459 9.2803434,10.26237 11.0932474,17.79519 2.021572,8.39989 8.130638,11.50184 8.261764,11.60213 8.260776,6.3181 17.784938,1.69056 21.835785,-1.24055 0,0 -12.800531,9.26366 -21.796618,1.24055 -1.304444,0.0759 -8.980124,2.67079 -7.255764,5.65505 2.215499,3.32325 0.886197,4.78549 0.443099,8.10873 -0.443099,3.32325 4.431005,3.76634 4.874103,7.5327 0.443099,3.76635 3.495208,3.54089 4.874103,5.45013 2.880142,3.98791 7.311116,2.21551 10.19125,3.1017 2.880135,0.8862 6.319413,-2.16036 10.966882,-11.45536 -0.408174,-1.9378 -0.645708,-3.89213 -1.013523,-5.82612 -0.367815,-1.934 -0.665261,-3.59268 -0.843346,-5.56536 -0.178086,-1.97269 -0.16087,-3.3654 -0.218824,-4.39934 -0.05795,-1.03394 -0.145105,-2.74064 -0.221365,-3.84268 -0.158289,-2.28816 -0.220466,-5.20042 -0.158135,-7.06298 0.06233,-1.86257 0.272024,-3.5319 0.634002,-4.75758 0,0 -1.926352,-7.7178 -16.105479,-17.24445 -14.179188,-9.52665 -25.5611839,-4.45327 -25.5611839,-4.45327 0,0 -3.9467738,2.14674 0,5.98185 4.4517839,4.32583 10.9620849,15.31864 11.0932469,17.79519 0.387386,7.31433 8.300932,10.98179 8.300932,10.98179 -0.695184,-0.48912 -8.980125,3.29112 -7.255765,6.27539 2.2155,3.32324 0.886197,4.78547 0.443099,8.10873 -0.443099,3.32325 4.431005,3.76634 4.874103,7.5327 0.443099,3.76635 3.495208,3.5409 4.874104,5.45013 2.880141,3.9879 7.311115,2.21551 10.19125,3.1017 2.880134,0.8862 6.319412,-2.93579 10.966881,-12.0757 1.187887,6.19983 2.441171,9.69041 3.52453,9.62296 1.079511,0 2.328676,-4.10541 3.45884,-9.96497 0.341601,-1.77109 0.672329,-3.70244 0.998605,-5.56027 0.326275,-1.85784 0.623727,-3.51652 0.801814,-5.4892 0.178087,-1.97269 0.160867,-3.3654 0.218824,-4.39934 0.05796,-1.03394 0.145127,-2.74064 0.221357,-3.84268 0.158292,-2.28816 0.220466,-5.20042 0.158137,-7.06298 -0.06233,-1.86257 -0.272028,-3.5319 -0.634005,-4.75758 0,0 1.926362,-7.7178 16.105568,-17.24445 14.1792,-9.52665 25.561198,-4.45327 25.561198,-4.45327 0,0 3.946783,2.14674 0,5.98185 -4.451786,4.32583 -10.962087,15.31864 -11.09325,17.79519 -0.387385,7.31433 -8.30093,10.98179 -8.30093,10.98179 0.695183,-0.48912 8.980124,3.29112 7.255764,6.27539 -2.215499,3.32324 -0.886198,4.78547 -0.443099,8.10873 0.443099,3.32325 -4.431004,3.76634 -4.874103,7.5327 -0.443099,3.76635 -3.495208,3.5409 -4.874104,5.45013 -2.880151,3.9879 -7.31115,2.21551 -10.1913,3.1017 -2.880151,0.8862 -6.25793,-3.11259 -10.910481,-12.41771 4.652551,9.30512 8.03033,12.68357 10.910481,11.79737 2.88015,-0.88619 7.311149,0.88621 10.1913,-3.1017 1.378896,-1.90924 4.431005,-1.68378 4.874104,-5.45013 0.443099,-3.76636 5.317202,-4.20945 4.874103,-7.5327 -0.443099,-3.32324 -1.7724,-4.78548 0.443099,-8.10873 1.72436,-2.98426 -5.951321,-5.57922 -7.255764,-5.65505 -8.996115,8.02311 -21.796718,-1.24055 -21.796718,-1.24055 4.05087,2.93111 13.575087,7.55865 21.835884,1.24055 0.131128,-0.10027 6.240192,-3.20224 8.261764,-11.60213 1.812904,-7.53282 7.575873,-13.6406 11.09325,-17.79519 3.544803,-4.20945 0,-5.98185 0,-5.98185 0,0 -11.381998,-5.07338 -25.561198,4.45326 -14.179184,9.52666 -16.105568,17.8648 -16.105568,17.8648 -0.510356,-1.7863 -1.284846,-2.90891 -2.308434,-3.86925 2.203428,-3.20248 0.892199,-5.34178 -0.255433,-6.82703 0,0 2.500142,-10.36045 5.833552,-13.8617 1.27468,-1.33886 3.317078,-2.34688 5.144887,-2.07035 2.290791,0.34657 3.408209,2.62377 3.420579,4.70854 0.01167,1.97226 -1.98332,3.46292 -4.11381,2.92483 -1.595836,-0.3173 -2.789943,-1.88407 -2.429121,-3.51903 0.234693,-1.6114 1.569453,-2.38166 2.924287,-1.93337 0.98222,0.32499 1.758087,1.29247 1.437663,2.32951 -0.21834,0.70665 -1.00096,1.25109 -1.734764,0.94194 -0.410221,-0.17284 -0.765263,-0.72676 -0.446211,-1.14001 0.117734,-0.15248 0.575026,-0.27853 0.545246,0.0495 0.02977,-0.32805 -0.427507,-0.20201 -0.545241,-0.0495 -0.319051,0.41325 0.03599,0.96717 0.446212,1.14001 0.733805,0.30915 1.516424,-0.23529 1.734764,-0.94194 0.320424,-1.03704 -0.434829,-2.07516 -1.437663,-2.32951 -1.336623,-0.33902 -2.637562,0.63414 -2.924288,1.93337 -0.234547,1.55078 1.134256,3.00109 2.429122,3.51903 1.93277,0.3843 3.842037,-1.26439 4.11381,-2.92483 0.313355,-1.91447 -1.556164,-4.17247 -3.420579,-4.70854 -1.776627,-0.51082 -3.742271,0.60371 -5.064927,1.8952 -3.519048,3.43613 -3.4216,7.70758 -5.913518,14.03685 -1.53333,-1.27612 -3.496957,-1.42381 -5.052747,-0.45537 -0.647123,-2.45472 -4.876928,-10.66234 -7.382343,-14.64543 -1.35965,-2.14469 -3.862737,-3.62667 -5.593531,-3.06733 -1.893961,0.61207 -3.795156,2.50558 -3.420558,4.70855 -0.06873,1.9849 1.942444,3.36215 4.113787,2.92483 1.595038,-0.32125 2.789927,-1.88408 2.429108,-3.51903 -0.286729,-1.29923 -1.58766,-2.2724 -2.924271,-1.93338 -0.973959,0.28328 -1.752983,1.29757 -1.437658,2.32951 0.216136,0.70733 1.000953,1.25109 1.734755,0.94193 0.410232,-0.17283 0.765261,-0.72675 0.446209,-1.13999 -0.117735,-0.1525 -0.575035,-0.27854 -0.545242,0.0495 -0.02979,-0.32805 0.427507,-0.20201 0.545242,-0.0495 0.319052,0.41324 -0.03598,0.96716 -0.446209,1.13999 -1.020452,0.40471 -1.662852,-0.18646 -1.734755,-0.94193 -0.320423,-1.03705 0.434829,-2.07516 1.437658,-2.32951 1.330146,-0.37135 2.512893,0.0114 2.924271,1.93338 0.346495,1.62063 -1.080929,2.95408 -2.429108,3.51903 -1.93276,0.3843 -3.766931,-1.03229 -4.113787,-2.92483 -0.408757,-2.2303 1.23122,-4.33278 3.420558,-4.70855 1.792716,-0.30768 4.483125,0.89494 5.842775,3.03964 3.56057,5.61638 4.167849,7.8431 7.133098,14.67312 -1.902868,1.30023 -3.306628,4.23694 -1.121237,6.88394 l -0.594513,1.0086 c 0,0 -1.003999,1.77176 -1.122116,2.26785 -0.793894,5.08043 -2.090252,20.49014 2.78044,37.01709 2.84387,9.64966 3.545787,2.94581 3.875408,2.13816 0,0 4.610399,-17.20548 3.942225,-19.74454 -0.668174,-2.53906 1.469982,-12.96257 0.400904,-16.70434 -1.069078,-3.74178 -2.72607,-5.88018 -2.72607,-5.88018 0,0 1.579109,-2.09697 1.356314,-3.47425 -0.367496,-2.2718 -1.782514,-3.75716 -3.674956,-4.2095 -1.445664,-0.34555 -2.431317,-0.0352 -3.411045,0.73262 -1.278115,1.00161 -2.718972,3.84361 -1.641078,5.50907 0.886303,1.36944 1.009671,1.4089 1.009671,1.4089"
       id="path931"
       inkscape:connector-curvature="0"
       sodipodi:nodetypes="cccccccccccccccccccccccccccccccccsccccccccscccccccccccccccccccccccccccccccccccccscccccccccccccccccccccccccccccccccccccccccccccccccccccccccccccccccccccccccccccccccccccccccccccccccccccccccccccccccccccccccccccccccccccccccccccccccccccccccccccccccccccccccccccccccccccccccccscccsscccscccccccsccsssccsscsscscccccccccssscccscccccccccccccccccccccccccccccccccccccccccccccccccccccccccccscccscccccscccccscccccscccscsscscccccccccsccccccscsscssssc"
       embroider_repeats="1" />
  </g>
</svg>
