<?xml version="1.0" encoding="UTF-8" standalone="no"?>
<!-- Created with Inkscape (http://www.inkscape.org/) -->

<svg
   xmlns:dc="http://purl.org/dc/elements/1.1/"
   xmlns:cc="http://creativecommons.org/ns#"
   xmlns:rdf="http://www.w3.org/1999/02/22-rdf-syntax-ns#"
   xmlns:svg="http://www.w3.org/2000/svg"
   xmlns="http://www.w3.org/2000/svg"
   xmlns:sodipodi="http://sodipodi.sourceforge.net/DTD/sodipodi-0.dtd"
   xmlns:inkscape="http://www.inkscape.org/namespaces/inkscape"
   sodipodi:docname="satin-column-rungs.svg"
   inkscape:version="0.92.3 (2405546, 2018-03-11)"
   id="svg5282"
   version="1.1"
   viewBox="0 0 100 100"
   height="100mm"
   width="100mm">
  <sodipodi:namedview
     inkscape:window-maximized="1"
     inkscape:window-y="0"
     inkscape:window-x="0"
     inkscape:window-height="1033"
     inkscape:window-width="1920"
     showgrid="false"
     inkscape:current-layer="svg5282"
     inkscape:document-units="mm"
     inkscape:cy="199.7339"
     inkscape:cx="151.58767"
     inkscape:zoom="1.979899"
     inkscape:pageshadow="2"
     inkscape:pageopacity="0.0"
     borderopacity="1.0"
     bordercolor="#666666"
     pagecolor="#ffffff"
     id="base" />
  <defs
     id="defs5276">
    <filter
       inkscape:collect="always"
       style="color-interpolation-filters:sRGB"
       id="filter5255">
      <feBlend
         inkscape:collect="always"
         mode="darken"
         in2="BackgroundImage"
         id="feBlend5257" />
    </filter>
  </defs>
  <metadata
     id="metadata5279">
    <rdf:RDF>
      <cc:Work
         rdf:about="">
        <dc:format>image/svg+xml</dc:format>
        <dc:type
           rdf:resource="http://purl.org/dc/dcmitype/StillImage" />
        <dc:title></dc:title>
      </cc:Work>
    </rdf:RDF>
  </metadata>
  <g
     transform="translate(0,-197)"
     id="layer1"
     inkscape:groupmode="layer"
     inkscape:label="Satin Rungs">
    <g
       transform="matrix(1.3428944,0,0,1.3428944,-12.603435,-82.425017)"
       style="opacity:1;fill:none;stroke:#150a0a;stroke-width:1.329;stroke-miterlimit:4;stroke-dasharray:none;stroke-opacity:1"
       inkscape:label="chefs hat"
       id="g4877">
      <path
         transform="rotate(-2.110377,48.566377,226.34504)"
         inkscape:label="Running Stitch 1"
         inkscape:connector-curvature="0"
         id="autosatinrun1"
         d="m 51.850115,231.38523 c 0.04788,-0.31468 0.112444,-0.62742 0.204705,-0.93211 0.07294,-0.19715 0.142278,-0.39674 0.232964,-0.58638 0.09668,-0.1778 0.191442,-0.35792 0.304781,-0.5255 0.08582,-0.11267 0.17221,-0.22485 0.27623,-0.32161 0.09128,-0.0999 0.20395,-0.17739 0.310991,-0.2589 0.121666,-0.0671 0.238843,-0.14381 0.373265,-0.18336 0.138512,-0.0604 0.289059,-0.0812 0.435999,-0.11157 0.04429,-0.007 0.08857,-0.0137 0.132856,-0.0205"
         style="fill:none;stroke:#150a0a;stroke-width:0.221726px;stroke-dasharray:0.110863, 0.110863;stroke-opacity:1;filter:url(#filter5255)" />
      <path
         transform="rotate(-2.110377,48.566377,226.34504)"
         embroider_center_walk_underlay="False"
         style="fill:none;stroke:#150a0a;stroke-width:0.22207563;stroke-miterlimit:4;stroke-dasharray:none;stroke-opacity:1;filter:url(#filter5255)"
         id="autosatin1"
         embroider_satin_column="True"
         d="m 54.058244,228.03372 c 0,0 -0.355844,0.055 -0.355844,0.055 0,0 -0.03659,0.007 -0.03659,0.007 0,0 -0.03579,0.0106 -0.03579,0.0106 0,0 -0.317283,0.10966 -0.317283,0.10966 0,0 -0.03386,0.0134 -0.03386,0.0134 0,0 -0.03256,0.0163 -0.03256,0.0163 0,0 -0.280873,0.15625 -0.280873,0.15625 0,0 -0.02859,0.0174 -0.02859,0.0174 0,0 -0.0271,0.0197 -0.0271,0.0197 0,0 -0.246615,0.19481 -0.246615,0.19481 0,0 -0.0435,0.0397 -0.0435,0.0397 0,0 -0.214513,0.22534 -0.214513,0.22534 0,0 -0.03238,0.0384 -0.03238,0.0384 0,0 -0.184563,0.24786 -0.184563,0.24786 0,0 -0.03211,0.0503 -0.03211,0.0503 0,0 -0.287889,0.53114 -0.287889,0.53114 0,0 -0.02451,0.0541 -0.02451,0.0541 0,0 -0.193926,0.52488 -0.193926,0.52488 0,0 -0.01262,0.0403 -0.01262,0.0403 0,0 -0.117189,0.45441 -0.117189,0.45441 0,0 -0.0076,0.0358 -0.0076,0.0358 0,0 -0.07308,0.44057 -0.07308,0.44057 m 2.746273,-2.46024 c 0,0 -0.318853,0.0493 -0.318853,0.0493 0,0 -0.24739,0.0855 -0.24739,0.0855 0,0 -0.219624,0.12217 -0.219624,0.12217 0,0 -0.197115,0.15571 -0.197115,0.15571 0,0 -0.176817,0.18574 -0.176817,0.18574 0,0 -0.151674,0.20369 -0.151674,0.20369 0,0 -0.259444,0.47867 -0.259444,0.47867 0,0 -0.176275,0.4771 -0.176275,0.4771 0,0 -0.107328,0.41616 -0.107328,0.41616 0,0 -0.07008,0.42249 -0.07008,0.42249 m 0.245003,-0.20454 c 0,0 -1.232511,-0.20444 -1.232511,-0.20444 m 1.856029,-1.37977 c 0,0 -1.002056,-0.74616 -1.002056,-0.74616"
         inkscape:connector-curvature="0"
         inkscape:label="Satin 2" />
      <path
         transform="rotate(-2.110377,48.566377,226.34504)"
         inkscape:label="Running Stitch 3"
         style="opacity:1;fill:none;fill-opacity:1;stroke:#150a0a;stroke-width:0.22207563;stroke-linecap:butt;stroke-linejoin:round;stroke-miterlimit:4;stroke-dasharray:0.11103781, 0.11103781;stroke-dashoffset:0;stroke-opacity:1;filter:url(#filter5255)"
         d="m 51.808408,231.83551 c 0,0 -1.771833,-1.08064 -3.266507,-1.20932"
         id="path5134"
         inkscape:connector-curvature="0"
         sodipodi:nodetypes="cc" />
      <path
         transform="rotate(-2.110377,48.566377,226.34504)"
         inkscape:label="Running Stitch 4"
         inkscape:connector-curvature="0"
         id="autosatinrun2"
         d="m 48.647194,229.55816 c 0.01444,-0.26169 0.08286,-0.51636 0.13121,-0.77314 0.07478,-0.27997 0.173647,-0.55303 0.298292,-0.81472 0.114527,-0.24624 0.256006,-0.47936 0.419744,-0.69602 0.139796,-0.19169 0.288876,-0.37746 0.462931,-0.53932 0.233341,-0.22872 0.485554,-0.43867 0.759956,-0.61656 0.108603,-0.0723 0.21951,-0.14115 0.329009,-0.21208"
         style="fill:none;stroke:#150a0a;stroke-width:0.221726px;stroke-dasharray:0.110863, 0.110863;stroke-opacity:1;filter:url(#filter5255)" />
      <path
         transform="rotate(-2.110377,48.566377,226.34504)"
         embroider_center_walk_underlay="False"
         style="fill:none;stroke:#150a0a;stroke-width:0.221726px;stroke-opacity:1;filter:url(#filter5255)"
         id="autosatin3"
         embroider_satin_column="True"
         d="m 50.823523,225.55564 -0.48948,0.31379 -0.0356,0.0256 -0.419599,0.33611 -0.0331,0.0295 -0.354999,0.35255 -0.02948,0.0325 -0.295685,0.36312 -0.02512,0.0343 -0.241659,0.36782 -0.02049,0.0348 -0.192915,0.36664 -0.01601,0.0341 -0.149459,0.35959 -0.01197,0.0326 -0.111286,0.34668 -0.01146,0.0438 -0.129197,0.63111 -0.0072,0.051 -0.02765,0.79585 m 3.051892,-3.85011 -0.471008,0.30195 -0.385134,0.3085 -0.32364,0.32141 -0.268368,0.32958 -0.218884,0.33315 -0.174733,0.33209 -0.135566,0.32617 -0.09906,0.30859 -0.119481,0.58366 -0.02612,0.77635 m 0.485099,-1.70465 -1.153674,-0.47949 m 2.010508,-0.80968 -0.880361,-0.88648 m -0.418344,3.41831 -0.912888,-0.0785"
         inkscape:connector-curvature="0"
         inkscape:label="Satin 5"
         sodipodi:nodetypes="ccccccccccccccccccccccccccccccccccccc" />
      <path
         transform="rotate(-2.110377,48.566377,226.34504)"
         inkscape:label="Running Stitch 6"
         style="opacity:1;fill:none;fill-opacity:1;stroke:#150a0a;stroke-width:0.22207561;stroke-linecap:butt;stroke-linejoin:round;stroke-miterlimit:4;stroke-dasharray:0.11103781, 0.11103781;stroke-dashoffset:0;stroke-opacity:1;filter:url(#filter5255)"
         d="m 48.493948,230.64328 c 0,0 -3.835617,-0.9379 -5.431455,-0.86791"
         id="path5136"
         inkscape:connector-curvature="0"
         sodipodi:nodetypes="cc" />
      <path
         transform="rotate(-2.110377,48.566377,226.34504)"
         inkscape:label="Running Stitch 7"
         inkscape:connector-curvature="0"
         id="autosatinrun3"
         d="m 42.896617,228.97982 c -0.0076,-0.76841 0.08489,-1.53625 0.24042,-2.28792 0.201719,-0.91159 0.523672,-1.79838 0.980457,-2.61371 0.30894,-0.55018 0.675135,-1.06892 1.105246,-1.53126 0.307481,-0.34197 0.651946,-0.65083 1.016459,-0.93077 0.177603,-0.129 0.355203,-0.258 0.532803,-0.387"
         style="fill:none;stroke:#150a0a;stroke-width:0.221726px;stroke-dasharray:0.110863, 0.110863;stroke-opacity:1;filter:url(#filter5255)" />
      <path
         transform="rotate(-2.110377,48.566377,226.34504)"
         embroider_center_walk_underlay="False"
         style="fill:none;stroke:#150a0a;stroke-width:0.221726px;stroke-opacity:1;filter:url(#filter5255)"
         id="autosatin4"
         embroider_satin_column="True"
         d="m 46.527369,220.89208 c 0,0 -0.726214,0.52749 -0.726214,0.52749 0,0 -0.03551,0.0289 -0.03551,0.0289 0,0 -0.629704,0.5729 -0.629704,0.5729 0,0 -0.03096,0.0313 -0.03096,0.0313 0,0 -0.540051,0.60736 -0.540051,0.60736 0,0 -0.02598,0.0323 -0.02598,0.0323 0,0 -0.457247,0.63085 -0.457247,0.63085 0,0 -0.02106,0.0321 -0.02106,0.0321 0,0 -0.381296,0.64337 -0.381296,0.64337 0,0 -0.01659,0.0309 -0.01659,0.0309 0,0 -0.312192,0.64494 -0.312192,0.64494 0,0 -0.01271,0.029 -0.01271,0.029 0,0 -0.249945,0.63555 -0.249945,0.63555 0,0 -0.0095,0.0268 -0.0095,0.0268 0,0 -0.194547,0.61518 -0.194547,0.61518 0,0 -0.0069,0.0246 -0.0069,0.0246 0,0 -0.146,0.58386 -0.146,0.58386 0,0 -0.0049,0.0223 -0.0049,0.0223 0,0 -0.104305,0.54159 -0.104305,0.54159 0,0 -0.0045,0.0285 -0.0045,0.0285 0,0 -0.110927,0.91247 -0.110927,0.91247 0,0 -0.0027,0.0323 -0.0027,0.0323 0,0 -0.02636,0.61179 -0.02636,0.61179 0,0 -4.43e-4,0.0242 -4.43e-4,0.0242 0,0 0.0034,0.22342 0.0034,0.22342 m 4.536539,-7.42017 c 0,0 -0.707659,0.51402 -0.707659,0.51402 0,0 -0.596438,0.54264 -0.596438,0.54264 0,0 -0.511604,0.57536 -0.511604,0.57536 0,0 -0.433792,0.59849 -0.433792,0.59849 0,0 -0.362557,0.61176 -0.362557,0.61176 0,0 -0.297645,0.61488 -0.297645,0.61488 0,0 -0.238925,0.60753 -0.238925,0.60753 0,0 -0.186403,0.58944 -0.186403,0.58944 0,0 -0.140138,0.56042 -0.140138,0.56042 0,0 -0.09942,0.51621 -0.09942,0.51621 0,0 -0.107223,0.88203 -0.107223,0.88203 0,0 -0.02514,0.58346 -0.02514,0.58346 0,0 0.0032,0.21128 0.0032,0.21128 m 0.214238,-0.41863 c 0,0 -1.248193,-0.0538 -1.248193,-0.0538 m 1.538413,-1.96512 c 0,0 -1.212032,-0.30308 -1.212032,-0.30308 m 1.8061,-1.36067 c 0,0 -1.124528,-0.54435 -1.124528,-0.54435 m 2.31617,-1.26865 c 0,0 -0.933644,-0.83018 -0.933644,-0.83018 m 2.103903,-0.2289 c 0,0 -0.73423,-1.01083 -0.73423,-1.01083"
         inkscape:connector-curvature="0"
         inkscape:label="Satin 8" />
      <path
         transform="rotate(-2.110377,48.566377,226.34504)"
         inkscape:label="Running Stitch 9"
         style="opacity:1;fill:none;fill-opacity:1;stroke:#150a0a;stroke-width:0.22207561;stroke-linecap:butt;stroke-linejoin:round;stroke-miterlimit:4;stroke-dasharray:0.11103781, 0.11103781;stroke-dashoffset:0;stroke-opacity:1;filter:url(#filter5255)"
         d="m 43.020495,229.82189 c 0,0 -3.261671,-0.056 -3.9756,0.20998"
         id="path5138"
         inkscape:connector-curvature="0" />
      <path
         transform="rotate(-2.110377,48.566377,226.34504)"
         inkscape:label="Running Stitch 10"
         inkscape:connector-curvature="0"
         id="autosatinrun4"
         d="m 38.887594,228.84618 c -0.161829,-0.38669 -0.313622,-0.77938 -0.410574,-1.18798 -0.04545,-0.17873 -0.09303,-0.3571 -0.112035,-0.54103 -0.0424,-0.28276 -0.07941,-0.5685 -0.061,-0.85492 0.0037,-0.14334 0.02433,-0.28649 0.05011,-0.42722 0.0316,-0.13404 0.06174,-0.26856 0.120843,-0.39377 0.04433,-0.13145 0.126353,-0.24509 0.197009,-0.363 0.07188,-0.0804 0.14376,-0.16076 0.21564,-0.24114"
         style="fill:none;stroke:#150a0a;stroke-width:0.221726px;stroke-dasharray:0.110863, 0.110863;stroke-opacity:1;filter:url(#filter5255)" />
      <path
         transform="rotate(-2.110377,48.566377,226.34504)"
         embroider_center_walk_underlay="False"
         style="fill:none;stroke:#150a0a;stroke-width:0.221726px;stroke-opacity:1;filter:url(#filter5255)"
         id="autosatin5"
         embroider_satin_column="True"
         d="m 38.578907,224.55764 -0.220225,0.24322 -0.02618,0.032 -0.02288,0.0344 -0.163456,0.27435 -0.01747,0.0325 -0.01452,0.0339 -0.112559,0.29901 -0.0099,0.0297 -0.0076,0.0303 -0.06754,0.31722 -0.0076,0.0509 -0.02839,0.32896 -0.0016,0.0419 0.0049,0.33424 0.0035,0.0479 0.08613,0.65851 0.0086,0.0459 0.148774,0.60214 0.0092,0.0316 0.164434,0.49408 0.01,0.0268 0.355907,0.84924 m 0.525915,-4.27977 -0.192392,0.21248 -0.123284,0.20693 -0.08847,0.23504 -0.05564,0.26133 -0.02436,0.28236 0.0042,0.2892 0.07998,0.61148 0.139215,0.56345 0.154718,0.46489 0.462459,1.04599 m -0.200582,-0.9566 -1.155573,0.4749 m 0.750955,-2.04236 -1.238799,0.16203 m 1.556235,-1.57673 -0.926128,-0.83855"
         inkscape:connector-curvature="0"
         inkscape:label="Satin 11"
         sodipodi:nodetypes="cccccccccccccccccccccccccccccccccccccccc" />
      <path
         transform="rotate(-2.110377,48.566377,226.34504)"
         inkscape:label="Running Stitch 12"
         inkscape:connector-curvature="0"
         id="autosatinrun5"
         d="m 38.833371,230.14645 c -0.606397,0.0469 -1.209219,0.12872 -1.812314,0.20579 -0.564762,0.0958 -1.130862,0.18447 -1.694758,0.28493 -0.193923,0.0402 -0.387682,0.0812 -0.581411,0.12227"
         style="fill:none;stroke:#150a0a;stroke-width:0.221726px;stroke-dasharray:0.110863, 0.110863;stroke-opacity:1;filter:url(#filter5255)"
         sodipodi:nodetypes="cccc" />
      <path
         transform="rotate(-2.110377,48.566377,226.34504)"
         inkscape:label="Satin 13"
         style="fill:none;stroke:#150a0a;stroke-width:0.221726px;stroke-opacity:1;filter:url(#filter5255)"
         d="m 55.324939,234.88978 c 0.254807,-0.31926 0.509614,-0.63851 0.764421,-0.95777 m -21.624183,-1.83268 c 8.395515,-1.27189 17.912844,-1.75608 21.975576,3.88505 m -21.811199,-6.21259 c 8.769074,-1.45005 16.359975,-1.29544 22.10689,5.49001 m -20.0271,-3.10592 c -0.09148,-0.5493 -0.252338,-2.4343 -0.343821,-2.9836 m 2.68467,2.57429 c -0.0493,-0.55468 -0.134118,-2.32942 -0.183421,-2.8841 m 2.999169,2.67212 -0.0281,-2.80938 m 3.498374,2.92682 c 0.06183,-0.55342 0.101466,-2.17242 0.1633,-2.72584 m 1.719332,2.7301 0.34223,-2.41038 m 1.284766,2.56647 0.519806,-2.1148 m 1.122266,2.5626 0.642941,-1.93785 m 0.875217,2.51189 c 0.274268,-0.48464 0.548537,-1.20683 0.822805,-1.69147 m 0.580519,2.36201 c 0.337593,-0.44286 0.675185,-0.88573 1.012778,-1.32859"
         id="autosatin7"
         inkscape:connector-curvature="0"
         sodipodi:nodetypes="cccccccccccccccccccccccc"
         embroider_satin_column="True"
         embroider_center_walk_underlay="True" />
      <path
         transform="rotate(-2.110377,48.566377,226.34504)"
         inkscape:label="Running Stitch 14"
         sodipodi:nodetypes="ccc"
         inkscape:connector-curvature="0"
         id="path5243"
         d="m 56.945731,235.68972 -2.098484,5.54316 c -0.679094,-1.98365 -3.06997,-3.50316 -4.55331,-3.52387"
         style="opacity:1;fill:none;fill-opacity:1;stroke:#150a0a;stroke-width:0.22207561;stroke-linecap:butt;stroke-linejoin:round;stroke-miterlimit:4;stroke-dasharray:0.11103781, 0.11103781;stroke-dashoffset:0;stroke-opacity:1;filter:url(#filter5255)" />
      <path
         transform="rotate(-2.110377,48.566377,226.34504)"
         embroider_center_walk_underlay="True"
         sodipodi:nodetypes="ccccccccccccccccccccccccccccccccccccccccccccc"
         style="fill:none;stroke:#150a0a;stroke-width:0.221726px;stroke-opacity:1;filter:url(#filter5255)"
         id="autosatin8"
         embroider_satin_column="True"
         d="m 37.533598,239.58087 0.361294,-1.19597 m 1.894826,1.60697 0.108344,-1.24464 m 2.137106,1.27719 -0.04538,-1.24853 m 2.122887,1.08386 -0.144432,-1.24098 m 2.183711,0.94305 -0.196394,-1.23382 m 3.170371,0.6306 -0.296024,-1.21377 m 0.971994,-0.0228 -1.545134,0.37684 -1.654022,0.3369 -2.008842,0.31975 -1.074119,0.12501 -1.095009,0.0879 -1.089885,0.0396 -1.060873,-0.0191 -1.007441,-0.0877 -0.928983,-0.16511 -0.834086,-0.25197 c -0.242569,-0.10424 -0.7024,-0.345 -0.928517,-0.4831 m 13.938984,0.37181 -2.067602,0.53711 -0.01557,0.003 -1.670626,0.34028 -0.01765,0.003 -2.026339,0.32254 -0.01732,0.002 -1.090212,0.12688 -0.01483,0.002 -1.111521,0.0892 -0.01818,0.001 -1.110291,0.0403 -0.02262,2.1e-4 -1.086524,-0.0196 -0.02862,-0.002 -1.040215,-0.0906 -0.03676,-0.005 -0.971366,-0.17265 -0.04756,-0.0114 c -0.308178,-0.0931 -0.617896,-0.18244 -0.923982,-0.28194 -0.48617,-0.20687 -1.085661,-0.58061 -1.532304,-0.92095"
         inkscape:connector-curvature="0"
         inkscape:label="Satin 15" />
      <path
         transform="rotate(-2.110377,48.566377,226.34504)"
         inkscape:label="Running Stitch 16"
         sodipodi:nodetypes="cc"
         inkscape:connector-curvature="0"
         id="autosatinrun10"
         d="m 36.102949,237.76182 c -1.38186,0.52916 -2.555466,0.38064 -3.929208,0.93021"
         style="fill:none;stroke:#150a0a;stroke-width:0.221726px;stroke-dasharray:0.110863, 0.110863;stroke-opacity:1;filter:url(#filter5255)" />
      <path
         transform="rotate(-2.110377,48.566377,226.34504)"
         inkscape:label="Satin 17"
         style="fill:none;stroke:#150a0a;stroke-width:0.221726px;stroke-opacity:1;filter:url(#filter5255)"
         d="m 32.76094,237.65572 c -0.47775,-0.2861 -2.581085,-0.80636 -3.058835,-1.09246 m 4.513634,-2.60304 c -0.538034,-0.14358 -2.451087,-0.48512 -2.989121,-0.6287 m 3.597968,-1.41933 c -0.543788,-0.11996 -2.25783,-0.31912 -2.801618,-0.43908 m 3.668533,-2.4103 c -0.550498,-0.084 -2.317636,-0.32289 -2.868134,-0.40685 m 0.427608,-5.05262 -2.172247,1.05033 m 1.151653,-2.85864 c -0.523584,0.18962 -1.551116,0.65922 -2.0747,0.84884 m 1.282278,-3.88876 c -0.550717,0.0825 -1.101434,0.16501 -1.652151,0.24752 m 1.590301,-2.50556 c -0.553151,-0.0642 -1.106302,-0.12839 -1.659453,-0.19258 m 2.095224,-1.5817 c -0.513227,-0.21609 -1.026454,-0.43217 -1.539681,-0.64826 m 2.506404,-0.83233 c -0.408615,-0.37833 -0.81723,-0.75665 -1.225845,-1.13498 m 3.325298,-0.2194 c -0.201453,-0.51915 -0.402906,-1.03829 -0.604359,-1.55744 m 2.322968,1.17784 c -0.0067,-0.55682 -0.01344,-1.11365 -0.02016,-1.67047 m 2.082091,2.14555 c 0.220405,-0.51139 0.440809,-1.02277 0.661214,-1.53416 m 1.194846,2.77066 1.078582,-1.27575 m 0.500242,2.97399 1.067329,-0.84516 m -11.15403,24.17379 c 0.986739,-1.29417 1.384902,-2.95217 1.923274,-4.52254 0.586327,-2.22707 1.404064,-4.50244 1.628283,-6.79422 -1.576581,-1.49369 -3.23497,-3.95638 -3.892936,-5.92187 -0.659439,-2.17959 -0.98821,-4.67225 0.06903,-6.78262 0.864705,-1.68586 2.687368,-2.74456 4.530258,-2.97894 2.054736,-0.17217 3.894053,1.10867 5.238175,2.54128 0.638932,0.69701 1.268109,1.36445 1.805523,2.15658 m -13.837117,21.6381 c 1.615538,-3.23539 3.396884,-6.74882 4.064708,-10.11139 -1.153259,-0.91959 -1.762374,-2.43979 -2.402073,-3.74065 -1.128973,-2.48227 -1.511897,-5.26802 -1.056726,-8.00701 0.316451,-2.06291 1.678194,-3.9228 3.57202,-4.81013 1.466337,-0.78898 3.246857,-1.06556 4.838838,-0.49443 2.410437,0.8207 3.745255,3.10128 5.106491,5.18135"
         id="autosatin12"
         inkscape:connector-curvature="0"
         sodipodi:nodetypes="ccccccccccccccccccccccccccccccccccccccccccccc"
         embroider_satin_column="True"
         embroider_center_walk_underlay="True" />
      <path
         transform="rotate(-2.110377,48.566377,226.34504)"
         inkscape:label="Satin 18"
         embroider_center_walk_underlay="True"
         embroider_satin_column="True"
         style="fill:none;stroke:#150a0a;stroke-width:0.221726px;stroke-opacity:1;filter:url(#filter5255)"
         d="m 46.064374,214.85856 c -0.457582,-0.31736 -1.587096,-1.13866 -2.044678,-1.45602 m 3.369483,-0.0561 c -0.362761,-0.42249 -1.285465,-1.43293 -1.648226,-1.85542 m 2.80475,1.09323 -1.090851,-2.25971 m 2.53578,1.4029 c -0.148168,-0.53679 -0.46432,-1.63351 -0.612488,-2.1703 m 2.180874,1.78334 c -0.04297,-0.5552 -0.113947,-1.55837 -0.156915,-2.11357 m 1.82379,1.84508 0.09037,-2.16542 m 1.581282,2.26918 0.410065,-1.8921 m 1.179101,2.18838 c 0.253913,-0.4956 0.507827,-0.99121 0.76174,-1.48681 m 0.516176,2.5286 c 0.475536,-0.28976 0.951071,-0.57953 1.426607,-0.86929 m -1.304567,2.48729 c 0.53575,0.15188 1.0715,0.30377 1.60725,0.45565 m -2.201559,1.56758 c 0.437649,0.34432 0.483336,0.43668 0.920985,0.781 m -13.633409,-0.30807 c 2.220073,-4.77059 8.206809,-7.19693 12.655885,-5.04304 0.665432,0.44197 1.17615,1.22468 1.032405,2.04882 -0.122319,1.13576 -0.389906,2.40513 -1.131609,3.232 m -14.095509,-0.8729 c 0.63372,-1.60026 1.835927,-3.47241 3.179866,-4.54668 1.110333,-0.85452 2.40483,-1.48339 3.784845,-1.75125 2.101448,-0.43124 3.93435,-0.56433 5.966375,0.0729 1.234611,0.40214 2.516721,1.06553 3.123821,2.274 0.424446,0.82994 0.365161,1.81585 0.07121,2.67667 -0.347926,0.98561 -0.956136,1.85415 -1.658198,2.61982"
         id="autosatin11"
         inkscape:connector-curvature="0"
         sodipodi:nodetypes="ccccccccccccccccccccccccccccccccc" />
      <path
         transform="rotate(-2.110377,48.566377,226.34504)"
         inkscape:label="Satin 19"
         embroider_center_walk_underlay="True"
         embroider_satin_column="True"
         sodipodi:nodetypes="ccccccccccccccccccccccccccscccccscc"
         inkscape:connector-curvature="0"
         id="autosatin10"
         d="m 58.930086,218.0593 -1.585897,-1.75505 m 3.301598,0.55295 c -0.297527,-0.47072 -0.903028,-1.72535 -1.200555,-2.19607 m 2.933507,1.26101 -0.823357,-2.35376 m 2.741192,1.88139 c -0.0089,-0.55679 -0.01774,-1.92551 -0.02661,-2.4823 m 1.46567,2.66942 c 0.129388,-0.54162 0.48275,-1.92317 0.612138,-2.46479 m 0.06816,2.89857 c 0.480339,-0.28173 1.7726,-1.0674 2.252939,-1.34913 m -2.158952,4.03546 c 0.520039,0.19914 1.320053,0.42627 1.840092,0.62541 m -2.558388,1.61775 c 0.497093,0.25099 0.99419,0.50197 1.491283,0.75296 m -3.231967,1.97478 1.258288,1.0989 m -2.528543,0.16882 1.130964,1.22955 m -2.643338,0.41133 c 0.340505,0.44063 0.787788,0.84997 1.128293,1.2906 m -3.817655,0.88256 c 0.30337,0.46697 0.630847,0.81022 0.934217,1.27719 M 58.33782,218.27488 c 2.59437,-2.27817 5.670885,-3.87802 8.018232,-2.71488 1.64424,1.43736 -0.297089,6.12512 -1.104489,7.26318 -2.235074,3.15042 -4.814015,5.55 -7.971628,7.26674 m -0.216362,-13.12363 c 1.894166,-1.89498 4.312442,-3.48982 7.045327,-3.7118 1.365454,-0.0664 2.893264,0.12788 3.93505,1.09454 0.967634,0.97234 0.8469,2.48574 0.481302,3.69616 -0.580872,1.83207 -1.365309,3.61243 -2.381803,5.23913 -1.394625,2.23183 -3.507502,4.13661 -5.618302,5.65336 -0.949007,0.66369 -1.822348,1.38107 -3.00908,1.83849"
         style="fill:none;stroke:#150a0a;stroke-width:0.221726px;stroke-opacity:1;filter:url(#filter5255)" />
      <path
         transform="rotate(-2.110377,48.566377,226.34504)"
         embroider_center_walk_underlay="True"
         style="fill:none;stroke:#150a0a;stroke-width:0.221726px;stroke-opacity:1;filter:url(#filter5255)"
         id="autosatin9"
         embroider_satin_column="True"
         d="m 56.138442,235.48978 2.312405,0.53433 m -0.311902,-5.48836 -3.474491,10.08939 m 5.958011,-9.78392 -5.380929,10.53851"
         inkscape:connector-curvature="0"
         inkscape:label="Satin 20"
         sodipodi:nodetypes="cccccc" />
      <path
         transform="rotate(-2.110377,48.566377,226.34504)"
         inkscape:label="Running Stitch 21"
         inkscape:connector-curvature="0"
         id="autosatinrun11"
         d="m 54.665079,240.78476 c 0.262341,0.41448 -0.173539,0.81314 -0.517538,0.99873 -2.030065,0.86548 -5.754872,1.35616 -9.571456,1.2477 -4.414224,-0.12546 -9.03631,-1.02403 -12.66984,-2.61497"
         style="fill:none;stroke:#150a0a;stroke-width:0.221726px;stroke-dasharray:0.110863, 0.110863;stroke-opacity:1;filter:url(#filter5255)"
         sodipodi:nodetypes="ccsc" />
      <path
         transform="rotate(-2.110377,48.566377,226.34504)"
         inkscape:label="Satin 22"
         embroider_satin_column="True"
         sodipodi:nodetypes="cccccccccccccccccccccccccc"
         inkscape:connector-curvature="0"
         id="autosatin14"
         d="m 31.617114,241.1867 c 2.843548,1.15531 5.897567,1.69217 8.933128,2.0897 2.315821,0.26648 4.709575,0.37422 7.04036,0.29255 2.071471,-0.11523 4.082708,-0.22023 6.17474,-0.98375 0.727452,-0.19601 1.607181,-0.67556 1.560958,-1.54693 -9.11e-4,-0.10576 -0.04124,-0.20553 -0.06469,-0.30731 m -23.150326,-0.83121 c 2.790556,1.13383 5.762539,1.76394 8.742476,2.14498 2.231077,0.24985 4.482966,0.3818 6.727621,0.29746 1.361265,-0.10023 5.606927,-0.24796 5.611609,-1.48398 m -20.17702,1.06562 0.623615,-1.74901 m 2.485244,2.64638 0.448721,-1.81975 m 1.662584,2.22124 0.335513,-1.81002 m 2.242484,2.12271 c 0.06337,-0.55325 0.210725,-1.19048 0.274091,-1.74373 m 2.978002,1.99186 0.08572,-1.75238 m 3.10674,1.71781 c -0.01655,-0.55662 -0.03309,-1.11324 -0.04964,-1.66986 m 2.190738,1.50348 c -0.05913,-0.55372 -0.118266,-1.10743 -0.177399,-1.66115 m 2.967194,-0.73266 2.463753,1.51185"
         style="fill:none;stroke:#150a0a;stroke-width:0.221726px;stroke-opacity:1;filter:url(#filter5255)" />
      <path
         transform="rotate(-2.110377,48.566377,226.34504)"
         embroider_center_walk_underlay="True"
         inkscape:label="Satin 23"
         embroider_satin_column="True"
         sodipodi:nodetypes="cccccccccccccccccccsccccccc"
         inkscape:connector-curvature="0"
         id="autosatin13"
         d="m 31.294569,240.16591 c -0.241112,-0.50196 -0.482227,-1.00391 -0.723339,-1.50587 m 3.529896,0.28238 -0.606824,-1.55648 m 2.995096,0.86444 -0.478077,-1.60072 m 2.917553,1.2232 -0.338205,-1.636 m 2.833343,1.22739 -0.189303,-1.65982 m 2.190576,1.53025 -0.03444,-1.67023 m 2.516712,1.78976 c 0.06686,-0.55283 0.250517,-1.46394 0.317379,-2.01677 m 2.568515,2.63187 0.860952,-2.08959 m 1.413997,3.0359 1.378156,-2.17919 m 2.815029,3.89546 c -0.359625,-1.29841 -0.836068,-2.11714 -1.845276,-2.81264 -6.481751,-4.46688 -18.715734,-1.37086 -25.062448,2.18505 m 24.839136,0.75316 c -0.09671,-0.94296 -0.514028,-1.10977 -1.237394,-1.64364 -3.789295,-2.38942 -8.56211,-2.55771 -12.840011,-1.66785 -3.608731,0.74314 -6.995776,1.4977 -10.421994,3.08892 m 23.775951,-0.45404 2.560115,-0.95757"
         style="fill:none;stroke:#150a0a;stroke-width:0.221726px;stroke-opacity:1;filter:url(#filter5255)" />
    </g>
    <g
       style="fill:none;stroke:#150a0a;stroke-opacity:1"
       inkscape:label="fork and spoon"
       id="g14064">
      <path
         style="fill:none;stroke:#150a0a;stroke-width:0.30129272px;stroke-opacity:1"
         d="m 49.274564,269.91918 c 4.106274,2.06795 8.212552,4.13589 12.318826,6.20383 0.703687,3.33902 2.314972,6.70818 5.233722,8.6425 1.663231,1.06444 3.59373,1.60452 5.34353,2.50696 3.303066,1.50291 6.645853,3.3176 10.355433,3.43416 0.507477,0.0342 1.011309,-0.0169 1.517534,-0.0464 M 50.20817,268.83386 c 4.171067,2.06256 8.359982,4.09368 12.519901,6.17587 0.492395,0.50205 0.342157,1.31546 0.624175,1.93419 0.806814,2.89689 2.482476,5.81169 5.309224,7.11931 2.315506,0.98383 4.598905,2.04087 6.880092,3.10222 2.634921,1.1853 5.459445,2.30673 8.408202,1.98425 M 59.895818,275.70924 c 0.334096,-0.67895 0.668194,-1.35789 1.00229,-2.03685 m 0.78507,4.29886 c 0.7257,-0.21436 1.451396,-0.42872 2.177096,-0.64307 m -1.171228,3.15262 c 0.678658,-0.33468 1.357312,-0.66938 2.03597,-1.00406 m -0.554085,3.33645 c 0.586527,-0.4781 1.173054,-0.95619 1.759581,-1.43429 m 0.99415,3.89653 c 0.405465,-0.6389 0.810929,-1.27779 1.216394,-1.91668 m 1.604916,3.2392 c 0.294323,-0.69711 0.588645,-1.39423 0.882967,-2.09134 m 1.750739,3.27873 c 0.320325,-0.68555 0.640648,-1.37111 0.960974,-2.05665 m 3.715231,4.11872 c 0.26733,-0.7079 0.53466,-1.41581 0.801989,-2.1237 m 1.712674,2.94072 c 0.182397,-0.73438 0.364792,-1.46876 0.54719,-2.20315 m 2.595325,2.62848 c 0.01932,-0.75645 0.03861,-1.5129 0.05792,-2.26935"
         id="path7"
         inkscape:connector-curvature="0"
         embroider_satin_column="True"
         embroider_center_walk_underlay="True"
         embroider_contour_underlay="False"
         embroider_zigzag_underlay="False"
         inkscape:label="Satin 1" />
      <path
         embroider_zigzag_underlay="False"
         embroider_contour_underlay="False"
         embroider_center_walk_underlay="True"
         embroider_satin_column="True"
         inkscape:connector-curvature="0"
         id="path6"
         d="m 86.545043,284.07627 c -0.05828,0.75445 -0.116554,1.5089 -0.17483,2.26334 m -2.636239,-2.6623 c -0.180621,0.73483 -0.361243,1.46966 -0.541864,2.20448 m -1.739039,-3.01894 c -0.320734,0.68536 -0.641463,1.37072 -0.962197,2.05608 m -1.751024,-3.59441 c -0.378299,0.65535 -0.756598,1.31069 -1.134898,1.96604 m -1.915444,-3.43032 c -0.275923,0.7046 -0.551853,1.40919 -0.827776,2.11379 m -1.774085,-2.98459 c -0.216644,0.72501 -0.433288,1.45004 -0.649932,2.17505 m -1.761906,-2.8545 c -0.187847,0.733 -0.375699,1.46601 -0.563548,2.19901 m 16.592416,3.95912 c -2.308784,-0.0981 -4.619286,-0.67235 -6.601157,-1.88741 -1.509093,-0.91461 -3.021512,-1.84914 -4.699843,-2.42699 -2.060666,-0.74731 -4.175839,-1.3499 -6.311765,-1.84066 m 17.49621,7.6639 c -2.467192,-0.10854 -4.93463,-0.71986 -7.068871,-1.98714 -1.447975,-0.84611 -2.856765,-1.78362 -4.449736,-2.34474 -2.059012,-0.762 -4.177542,-1.36361 -6.316192,-1.85696"
         style="fill:none;stroke:#150a0a;stroke-width:0.30129272px;stroke-opacity:1" />
      <path
         embroider_zigzag_underlay="False"
         embroider_contour_underlay="False"
         embroider_center_walk_underlay="True"
         embroider_satin_column="True"
         sodipodi:nodetypes="ccsccccsscccccccccccccc"
         inkscape:connector-curvature="0"
         id="path5"
         d="m 71.288778,275.57675 c 1.430518,-0.009 2.810298,0.46785 4.165954,0.87663 1.0165,0.3795 1.973361,0.89861 2.891038,1.52333 1.795341,1.2222 3.756041,2.24015 5.861066,2.85 1.843052,0.57681 3.797761,0.73113 5.719299,0.62987 m -18.69109,-7.39236 c 1.353897,-0.0569 2.669426,0.37354 3.961774,0.7195 1.396285,0.44775 2.775097,1.02102 3.982508,1.89179 1.120111,0.80782 2.39068,1.42395 3.647649,2.01267 1.988401,0.93132 4.194657,1.34819 6.386766,1.28043 0.221989,-0.004 0.443912,-0.0126 0.665625,-0.0246 m -17.583745,-3.92115 c 0.102378,-0.74974 0.204767,-1.49948 0.307149,-2.24922 m 2.385347,2.92885 0.706855,-2.15723 m 1.32323,2.96313 1.074244,-1.99982 m 1.587122,3.64782 1.143383,-1.9611 m 2.615657,3.76788 c 0.26144,-0.7101 0.522873,-1.42019 0.784311,-2.13029 m 1.935827,2.82742 c 0.115291,-0.74786 0.23059,-1.49572 0.345882,-2.24358"
         style="fill:none;stroke:#150a0a;stroke-width:0.30129272px;stroke-opacity:1" />
      <path
         inkscape:label="Satin 4"
         style="fill:none;stroke:#150a0a;stroke-width:0.30129272px;stroke-opacity:1"
         d="m 88.436136,274.50423 c -0.165997,0.73826 -0.331993,1.47652 -0.497991,2.2148 m -2.353774,-3.1504 c -0.283667,0.70151 -0.56733,1.40303 -0.850996,2.10454 m -3.044903,-3.92443 c -0.335757,0.67812 -0.671513,1.35625 -1.00727,2.03438 m -1.178579,-3.09641 c -0.31331,0.68879 -0.626622,1.37757 -0.93993,2.06635 m -2.577736,-3.43715 c -0.191872,0.73196 -0.383746,1.46392 -0.575619,2.19589 m -2.840416,-2.62507 c -0.01989,0.75644 -0.03965,1.51287 -0.05955,2.2693 m -2.900959,-2.08601 c 0.09828,0.75029 0.19657,1.50057 0.294849,2.25086 m -2.779473,-1.77612 c 0.18858,0.73283 0.377158,1.46564 0.565739,2.19847 m -3.367776,-2.4179 c -0.377813,0.65562 -0.755628,1.31125 -1.133442,1.96687 m 28.183584,3.91657 c -0.874257,-0.004 -1.744347,-0.0811 -2.603876,-0.24212 -4.321024,-0.91619 -7.975537,-3.57466 -12.085478,-5.06512 -3.660432,-1.13723 -7.631052,-0.63995 -11.221609,0.51658 -3.552775,-2.04734 -7.105551,-4.09467 -10.658326,-6.14201 M 91.33,276.72124 c -0.608149,-0.008 -1.212427,-0.0358 -1.816514,-0.10818 -4.243315,-0.53381 -7.884784,-2.94559 -11.726911,-4.62897 -3.258848,-1.6409 -7.098134,-1.40827 -10.537048,-0.51864 -0.722144,0.0909 -1.393815,0.60265 -2.125453,0.49028 -3.757829,-2.15279 -7.488819,-4.3587 -11.236342,-6.53188"
         id="path4"
         inkscape:connector-curvature="0"
         embroider_satin_column="True"
         embroider_center_walk_underlay="True"
         embroider_contour_underlay="False"
         embroider_zigzag_underlay="False" />
      <path
         id="path6626"
         style="opacity:1;fill:none;fill-opacity:1;stroke:#150a0a;stroke-width:0.30176756;stroke-linecap:butt;stroke-linejoin:round;stroke-miterlimit:4;stroke-dasharray:none;stroke-dashoffset:0;stroke-opacity:1"
         d="m 66.259664,241.70229 2.443811,2.34633 m 3.156514,2.96924 2.235084,1.85928 m 0.902616,-7.96217 -1.804041,2.1282 m -4.869574,-2.81992 1.088104,3.13533 m -12.755445,7.49991 c 0.517339,0.55223 1.332909,1.56499 1.850247,2.11721 m 9.068613,2.15954 -2.228563,-2.49989 m -8.46507,9.1879 c 5.449863,-4.79007 10.913525,-9.56478 16.067735,-14.65247 0.961924,-0.94951 1.177807,-3.09318 0.787295,-4.50898 -1.083548,-0.79089 -3.151305,-0.55302 -4.263123,-0.16566 -6.389403,5.38521 -12.865242,11.50511 -19.042458,17.56262 m 7.548497,2.90323 c 5.398603,-5.11799 11.009202,-9.49736 16.160964,-14.85419 1.349259,-1.40297 1.927368,-4.4284 0.810565,-6.3577 -1.34762,-1.62711 -4.321559,-1.36948 -5.952523,-0.7035 -6.626377,5.40527 -13.314409,11.67786 -19.6506,17.89997 m 26.335609,-12.20051 -2.516276,-0.94831"
         inkscape:connector-curvature="0"
         embroider_satin_column="True"
         embroider_center_walk_underlay="True"
         embroider_contour_underlay="False"
         embroider_zigzag_underlay="False"
         inkscape:label="Satin 5" />
      <path
         inkscape:label="Running Stitch 6"
         style="opacity:1;fill:none;fill-opacity:1;stroke:#150a0a;stroke-width:0.30176756;stroke-linecap:butt;stroke-linejoin:round;stroke-miterlimit:4;stroke-dasharray:0.15088378, 0.15088378;stroke-dashoffset:0;stroke-opacity:1"
         d="m 49.892517,259.58278 -1.466869,1.57841"
         id="path7429"
         inkscape:connector-curvature="0" />
      <path
         style="fill:none;stroke:#150a0a;stroke-width:0.30129272px;stroke-opacity:1"
         d="m 23.922767,243.84728 c -0.410354,0.63576 -0.820708,1.27153 -1.231062,1.90729 m -8.411373,-5.33642 c 0.280411,0.70283 0.560823,1.40565 0.841234,2.10848 m -3.910035,2.8371 c 0.756655,0.008 1.51331,0.0156 2.269965,0.0235 m -1.296175,2.92533 c 0.606562,-0.4524 1.213123,-0.90481 1.819683,-1.35722 m 4.531051,5.57409 c 0.382782,-0.65275 0.765564,-1.30548 1.148345,-1.95822 m 28.839027,9.78743 c -9.203968,-6.0003 -18.407939,-12.00059 -27.611906,-18.00089 -1.437805,-1.04863 -3.072437,-2.08991 -4.932574,-1.95982 -2.377197,0.0854 -4.298686,2.25624 -4.38041,4.58055 -0.182793,2.36135 1.5645,4.48062 3.722186,5.24064 9.169222,5.43169 18.31388,10.91187 27.473657,16.36221 m 4.908344,-4.95106 c -8.826314,-5.7541 -17.652628,-11.50816 -26.478944,-17.26222 -1.537602,-0.87101 -2.867195,-2.30542 -4.717438,-2.45607 -1.759927,-0.19138 -3.296689,1.35702 -3.39385,3.06406 -0.183972,1.82759 1.278199,3.3707 2.927838,3.90418 9.180013,5.45276 18.345274,10.93243 27.519615,16.39554"
         id="path3"
         inkscape:connector-curvature="0"
         embroider_satin_column="True"
         embroider_center_walk_underlay="True"
         embroider_contour_underlay="False"
         embroider_zigzag_underlay="False"
         inkscape:label="Satin 7" />
      <path
         inkscape:label="Running Stitch 8"
         style="opacity:1;fill:none;fill-opacity:1;stroke:#150a0a;stroke-width:0.30176756;stroke-linecap:butt;stroke-linejoin:round;stroke-miterlimit:4;stroke-dasharray:0.15088378, 0.15088378;stroke-dashoffset:0;stroke-opacity:1"
         d="m 43.299737,266.07698 6.478658,-6.49572"
         id="path7431"
         inkscape:connector-curvature="0" />
      <path
         inkscape:label="Satin 9"
         id="path7146"
         style="opacity:1;fill:none;fill-opacity:1;stroke:#150a0a;stroke-width:0.30176756;stroke-linecap:butt;stroke-linejoin:round;stroke-miterlimit:4;stroke-dasharray:none;stroke-dashoffset:0;stroke-opacity:1"
         d="m 50.431409,260.05876 c -5.367284,5.26328 -10.509119,10.47947 -15.172915,15.12574 -0.988278,0.18958 -2.04711,-0.30386 -3.068854,-0.0172 -3.86864,0.64797 -7.543198,2.53945 -10.40962,5.20164 -2.260949,2.69019 -4.270703,5.94486 -4.43587,9.54619 -0.113523,2.14703 1.576261,3.99785 3.663455,4.30118 4.206435,0.79179 8.533152,-0.40089 12.416407,-1.98723 3.150073,-1.5538 5.385741,-4.85403 6.07557,-8.24923 m -1.230933,6.74925 c -0.579731,-0.48631 -1.159461,-0.97263 -1.739194,-1.45893 m -5.888053,5.96325 c -0.215788,-0.72528 -0.43158,-1.45055 -0.647367,-2.17582 m -11.57236,-11.40015 c 0.642914,0.39906 1.285827,0.79812 1.928741,1.19718 m 4.646468,-7.11477 c 0.354518,0.66851 0.709031,1.33702 1.063549,2.00553 m 23.287879,-18.79886 c -5.218026,5.12407 -10.197436,10.2139 -14.707286,14.75689 -3.736189,-0.51699 -7.395836,1.14447 -10.536695,3.01009 -3.751761,2.0264 -6.191904,5.80164 -7.635304,9.70884 -1.059796,2.74588 -0.965702,6.4958 1.751514,8.25297 3.353349,2.03161 7.530435,1.35277 11.154292,0.52553 3.169898,-0.80603 6.481812,-1.96611 8.553401,-4.65659 1.493043,-1.82703 2.683872,-4.01976 3.073988,-6.36492 M 40.13755,267.64492 c 0.533868,0.53627 1.067733,1.07253 1.6016,1.60878"
         inkscape:connector-curvature="0"
         embroider_satin_column="True"
         embroider_center_walk_underlay="True"
         embroider_contour_underlay="False"
         embroider_zigzag_underlay="False" />
      <path
         inkscape:label="Running Stitch 10"
         sodipodi:nodetypes="ccc"
         inkscape:connector-curvature="0"
         id="path7564"
         d="m 40.30915,283.98195 c 0,0 0.522954,-2.89861 -0.306933,-5.22339 2.741496,-3.39543 16.891215,-15.80908 16.891215,-15.80908"
         style="opacity:1;fill:none;fill-opacity:1;stroke:#150a0a;stroke-width:0.30176756;stroke-linecap:butt;stroke-linejoin:round;stroke-miterlimit:4;stroke-dasharray:0.15088378, 0.15088378;stroke-dashoffset:0;stroke-opacity:1" />
      <path
         inkscape:label="Satin 11"
         id="path7144"
         style="opacity:1;fill:none;fill-opacity:1;stroke:#150a0a;stroke-width:0.30176756;stroke-linecap:butt;stroke-linejoin:round;stroke-miterlimit:4;stroke-dasharray:none;stroke-dashoffset:0;stroke-opacity:1"
         d="m 45.929229,271.05588 1.76649,1.86143 m 9.186241,-11.09406 c -5.261507,4.62452 -10.510151,9.26335 -15.455048,14.21196 -0.763381,0.98277 -2.111984,1.73628 -2.32148,3.02718 0.757754,1.48613 0.57351,3.53813 0.388335,4.91695 m 18.486139,-21.01735 c -5.558113,5.34507 -11.962037,10.37631 -17.226814,16.01445 0.5262,1.6406 0.305867,3.53731 0.249413,5.23116 m 0.47714,-1.49015 -2.436629,0.11966 m 18.429152,-18.16897 -2.705415,-2.54723"
         inkscape:connector-curvature="0"
         embroider_satin_column="True"
         embroider_center_walk_underlay="True"
         embroider_contour_underlay="False"
         embroider_zigzag_underlay="False"
         sodipodi:nodetypes="ccccccccccccc" />
      <path
         inkscape:label="Satin 12"
         embroider_center_walk_underlay="True"
         embroider_satin_column="True"
         style="fill:none;stroke:#150a0a;stroke-width:0.30129272px;stroke-opacity:1"
         d="m 34.675306,281.21336 c 0.459741,2.25554 -0.348008,4.73113 -2.10159,6.23602 -1.19838,1.0799 -2.708248,1.73212 -4.234133,2.20133 l -0.06843,0.0231 -0.06848,0.023 m 7.958949,-8.76836 c 0.526161,2.6246 -0.322668,5.5029 -2.269955,7.3575 -1.401587,1.39807 -3.245563,2.24763 -5.118414,2.81487 l -0.08537,0.0295 m 5.702924,-9.18314 c 0.753279,-0.0718 1.506559,-0.14365 2.259839,-0.21547 m -2.440456,2.37936 c 0.731285,0.19445 1.46257,0.3889 2.193854,0.58334 m -3.106707,1.37785 c 0.61578,0.43977 1.231567,0.87953 1.847347,1.31931 m -3.983908,0.62739 c 0.399129,0.64288 0.798267,1.28574 1.197396,1.92862 m -3.41897,-0.89944 c 0.242567,0.71676 0.485132,1.43353 0.727696,2.15029"
         id="path2"
         inkscape:connector-curvature="0"
         embroider_contour_underlay="False"
         embroider_zigzag_underlay="False" />
    </g>
  </g>
</svg>
