<?xml version="1.0" encoding="UTF-8" standalone="no"?>
<!-- Created with Inkscape (http://www.inkscape.org/) -->

<svg
   width="276.87601mm"
   height="250mm"
   viewBox="0 0 276.876 250.00001"
   version="1.1"
   id="svg9806"
   inkscape:version="1.4-rc1 (61ec3f24, 2024-09-26)"
   sodipodi:docname="satin_methods.svg"
   xmlns:inkscape="http://www.inkscape.org/namespaces/inkscape"
   xmlns:sodipodi="http://sodipodi.sourceforge.net/DTD/sodipodi-0.dtd"
   xmlns="http://www.w3.org/2000/svg"
   xmlns:svg="http://www.w3.org/2000/svg"
   xmlns:inkstitch="http://inkstitch.org/namespace">
  <sodipodi:namedview
     id="namedview9808"
     pagecolor="#ffffff"
     bordercolor="#000000"
     borderopacity="0.25"
     inkscape:showpageshadow="2"
     inkscape:pageopacity="0.0"
     inkscape:pagecheckerboard="0"
     inkscape:deskcolor="#d1d1d1"
     inkscape:document-units="mm"
     showgrid="false"
     inkscape:zoom="0.39731472"
     inkscape:cx="658.16842"
     inkscape:cy="669.49445"
     inkscape:window-width="1920"
     inkscape:window-height="1131"
     inkscape:window-x="0"
     inkscape:window-y="32"
     inkscape:window-maximized="1"
     inkscape:current-layer="layer1" />
  <metadata
     id="metadata14314">
    <inkstitch:min_stitch_len_mm
       id="min_stitch_len_mm4086">0.3</inkstitch:min_stitch_len_mm>
    <inkstitch:collapse_len_mm
       id="collapse_len_mm539">3</inkstitch:collapse_len_mm>
    <inkstitch:inkstitch_svg_version>3</inkstitch:inkstitch_svg_version>
  </metadata>
  <defs
     id="defs9803">
    <marker
       style="overflow:visible"
       id="Arrow5"
       refX="0"
       refY="0"
       orient="auto-start-reverse"
       inkscape:stockid="Arrow5"
       markerWidth="5.8874264"
       markerHeight="6.6094756"
       viewBox="0 0 5.8874262 6.6094758"
       inkscape:isstock="true"
       inkscape:collect="always"
       preserveAspectRatio="xMidYMid">
      <path
         transform="scale(0.5)"
         style="fill:context-stroke;fill-rule:evenodd;stroke:context-stroke;stroke-width:1pt"
         d="m 6,0 c -3,1 -7,3 -9,5 0,0 0,-4 2,-5 -2,-1 -2,-5 -2,-5 2,2 6,4 9,5 z"
         id="path8893"
         inkstitch:running_stitch_length_mm="1.5"
         inkstitch:stroke_method="zigzag_stitch" />
    </marker>
    <inkscape:path-effect
       id="path-effect14415"
       effect="skeletal"
       is_visible="true"
       lpeversion="1"
       pattern="M 0,0 C 0,1.1 1.125,2 2.5,2 3.875,2 5,1.1 5,0 M 0,-2 C 0,-3.1 1.125,-4 2.5,-4 3.875,-4 5,-3.1 5,-2"
       copytype="repeated_stretched"
       prop_scale="1"
       scale_y_rel="false"
       spacing="0"
       normal_offset="0"
       tang_offset="0"
       prop_units="false"
       vertical_pattern="false"
       hide_knot="false"
       fuse_tolerance="0.02"
       pattern-nodetypes="csc" />
    <inkscape:path-effect
       id="path-effect14296"
       effect="skeletal"
       is_visible="true"
       lpeversion="1"
       pattern="M 0,0 C 0,1.1 1.125,2 2.5,2 3.875,2 5,1.1 5,0 M 0,-2 C 0,-3.1 1.125,-4 2.5,-4 3.875,-4 5,-3.1 5,-2"
       copytype="repeated_stretched"
       prop_scale="1"
       scale_y_rel="false"
       spacing="0"
       normal_offset="0"
       tang_offset="0"
       prop_units="false"
       vertical_pattern="false"
       hide_knot="false"
       fuse_tolerance="0.02"
       pattern-nodetypes="csc" />
    <inkscape:path-effect
       id="inkstitch-effect-pearl"
       effect="skeletal"
       is_visible="true"
       lpeversion="1"
       pattern="M 0,0 C 0,1.1 1.125,2 2.5,2 3.875,2 5,1.1 5,0 M 0,-2 C 0,-3.1 1.125,-4 2.5,-4 3.875,-4 5,-3.1 5,-2"
       copytype="repeated_stretched"
       prop_scale="1"
       scale_y_rel="false"
       spacing="0"
       normal_offset="0"
       tang_offset="0"
       prop_units="false"
       vertical_pattern="false"
       hide_knot="false"
       fuse_tolerance="0.02"
       pattern-nodetypes="csc" />
    <symbol
       id="inkstitch_trim">
      <title
         id="inkstitch_title9282">Trim the thread after sewing this object.</title>
      <path
         id="inkstitch_circle13405"
         d="m 9.2465284,-8.6e-6 c 1.8e-6,2.452339 -0.9741847,4.804237 -2.7082493,6.538304 C 4.8042146,8.2723614 2.4523174,9.2465504 -2.1625959e-5,9.2465514 -2.4523623,9.2465534 -4.8042621,8.2723654 -6.5383288,6.5382984 -8.2723956,4.8042314 -9.2465834,2.4523324 -9.2465816,-8.6e-6 c 6e-7,-2.452339 0.9741895,-4.804237 2.708256,-6.538301 1.7340665,-1.734065 4.0859648,-2.708252 6.538303974041,-2.70825 C 5.1067066,-9.2465576 9.2465271,-5.1067366 9.2465284,-8.6e-6 c 0,0 0,0 0,0"
         style="opacity:1;vector-effect:none;fill:#fafafa;fill-opacity:1;fill-rule:evenodd;stroke:#003399;stroke-width:1.065;stroke-linecap:round;stroke-linejoin:miter;stroke-miterlimit:4;stroke-dasharray:3.195, 3.195;stroke-dashoffset:0;stroke-opacity:1"
         inkscape:connector-curvature="0"
         inkstitch:running_stitch_length_mm="1.5" />
      <path
         style="color:#000000;font-style:normal;font-variant:normal;font-weight:normal;font-stretch:normal;font-size:medium;line-height:normal;font-family:sans-serif;font-variant-ligatures:normal;font-variant-position:normal;font-variant-caps:normal;font-variant-numeric:normal;font-variant-alternates:normal;font-feature-settings:normal;text-indent:0;text-align:start;text-decoration-line:none;text-decoration-style:solid;text-decoration-color:#000000;letter-spacing:normal;word-spacing:normal;text-transform:none;writing-mode:lr-tb;direction:ltr;text-orientation:mixed;dominant-baseline:auto;baseline-shift:baseline;text-anchor:start;white-space:normal;shape-padding:0;clip-rule:nonzero;display:inline;overflow:visible;visibility:visible;opacity:1;isolation:auto;mix-blend-mode:normal;color-interpolation:sRGB;color-interpolation-filters:linearRGB;solid-color:#000000;solid-opacity:1;vector-effect:none;fill:#050505;fill-opacity:1;fill-rule:evenodd;stroke:none;stroke-width:1.41421;stroke-linecap:butt;stroke-linejoin:miter;stroke-miterlimit:4;stroke-dasharray:none;stroke-dashoffset:0;stroke-opacity:1;color-rendering:auto;image-rendering:auto;shape-rendering:auto;text-rendering:auto;enable-background:accumulate"
         d="m -3.0000256,-5.9834096 c -1.30575,0 -2.375,1.06924 -2.375,2.375 0,1.30575 1.06925,2.375 2.375,2.375 0.58687,0 1.11944,-0.22369 1.53516,-0.58007 0,0 0.61717997,1.62109 0.61717997,1.62109 0,0 -2.29881997,6.01758 -2.29881997,6.01758 0.98655,-0.12511 1.23728,-0.26171 1.67382,-0.97461 0,0 1.33007997,-3.18945 1.33007997,-3.18945 0,0 1.23633003,3.25 1.23633003,3.25 0.23227,0.77906 0.84315,0.79218 1.57813,1.07226 0,0 -2.05469003,-6.14258 -2.05469003,-6.14258 0,0 0.73047003,-1.75 0.73047003,-1.75 0.42849,0.41682 1.01136,0.67578 1.65234,0.67578 1.30575,0 2.375,-1.06925 2.375,-2.375 0,-1.30576 -1.06925,-2.375 -2.375,-2.375 -1.06233,0 -1.95701,0.71265 -2.25781003,1.67969 0,0 -0.0117,-0.0156 -0.0117,-0.0156 0,0 -0.80274,2.10156 -0.80274,2.10156 0,0 -0.59179,-1.76562 -0.59179,-1.76562 -0.18242,-1.12808 -1.15864997,-2 -2.33593997,-2 0,0 -2e-5,-3e-5 -2e-5,-3e-5 m 0,1 c 0.76531,0 1.375,0.60968 1.375,1.375 0,0.76531 -0.60969,1.375 -1.375,1.375 -0.76531,0 -1.375,-0.60969 -1.375,-1.375 0,-0.76532 0.60969,-1.375 1.375,-1.375 0,0 0,0 0,0 m 6,0 c 0.76531,0 1.375,0.60968 1.375,1.375 0,0.76531 -0.60969,1.375 -1.375,1.375 -0.76531,0 -1.375,-0.60969 -1.375,-1.375 0,-0.76532 0.60969,-1.375 1.375,-1.375 0,0 0,0 0,0"
         id="inkstitch_path13416"
         inkscape:connector-curvature="0"
         inkstitch:running_stitch_length_mm="1.5" />
    </symbol>
    <marker
       style="overflow:visible"
       id="Arrow5-0"
       refX="0"
       refY="0"
       orient="auto-start-reverse"
       inkscape:stockid="Arrow5"
       markerWidth="5.8874264"
       markerHeight="6.6094756"
       viewBox="0 0 5.8874262 6.6094758"
       inkscape:isstock="true"
       inkscape:collect="always"
       preserveAspectRatio="xMidYMid">
      <path
         transform="scale(0.5)"
         style="fill:context-stroke;fill-rule:evenodd;stroke:context-stroke;stroke-width:1pt"
         d="m 6,0 c -3,1 -7,3 -9,5 0,0 0,-4 2,-5 -2,-1 -2,-5 -2,-5 2,2 6,4 9,5 z"
         id="path8893-8"
         inkstitch:running_stitch_length_mm="1.5"
         inkstitch:stroke_method="zigzag_stitch" />
    </marker>
  </defs>
  <g
     inkscape:label="Layer 1"
     inkscape:groupmode="layer"
     id="layer1"
     transform="translate(-41.3345, 27.689)">
    <path
       style="fill:none;fill-rule:evenodd;stroke:#000000;stroke-width:0.264583;stroke-linecap:square;stroke-linejoin:bevel"
       d="m 76.83449,37.732435 c 0,0 10.53772,5.29167 16.22709,5.29167 11.37873,0 21.07544,-10.58334 32.45417,-10.58334 5.68937,0 16.2271,5.29167 16.2271,5.29167"
       id="path9927"
       sodipodi:nodetypes="caac"
       inkstitch:running_stitch_length_mm="1.5"
       inkstitch:stroke_method="zigzag_stitch" />
    <path
       style="fill:none;fill-rule:evenodd;stroke:#000000;stroke-width:0.200025;stroke-linecap:square;stroke-linejoin:bevel"
       id="path9931"
       sodipodi:nodetypes="caac"
       inkscape:path-effect="#inkstitch-effect-pearl"
       inkscape:original-d="m 97.234568,92.0912 c 0,0 10.537712,5.29167 16.227082,5.29167 11.37873,0 21.07544,-10.58334 32.45417,-10.58334 5.68937,0 16.22709,5.29167 16.22709,5.29167"
       inkstitch:satin_column="true"
       class="UnoptimicedTransforms"
       d="m 96.789112,92.986504 c -0.05094,0.102366 -0.08769,0.205451 -0.113608,0.314684 -10e-7,10e-7 -10e-7,10e-7 -10e-7,10e-7 -0.02483,0.105053 -0.03807,0.212356 -0.04074,0.321413 l 0,0 0,0 0,0 c -0.0045,0.222269 0.03689,0.450037 0.118173,0.675119 l 0,10e-7 0,0 0,0 c 0.170328,0.471599 0.52145,0.928336 1.006672,1.284876 l 0,0 c 0,0 0,0 0,0 0.191909,0.141074 0.405076,0.266463 0.636511,0.370836 1.372004,0.618744 2.859656,0.256323 3.280216,-0.760096 -0.27434,0.663031 -0.0405,1.444701 0.55921,2.062706 0.31818,0.328869 0.73917,0.609325 1.23633,0.794875 1.45149,0.541735 2.91282,0.05929 3.24675,-0.990614 -0.24638,0.774642 0.18434,1.656489 1.05925,2.223684 0,0 0,0 0,0 0.30107,0.20214 0.66012,0.365326 1.06671,0.466698 1.63725,0.408203 3.10615,-0.347694 3.222,-1.445787 -0.0758,0.71818 0.4189,1.430018 1.39506,1.79558 0.45634,0.17099 0.99413,0.24842 1.55779,0.20189 1.71369,-0.1415 2.78207,-1.2936 2.57185,-2.352472 0.21179,1.066749 1.69392,1.692298 3.22174,1.240498 1.52781,-0.451801 2.39158,-1.764634 1.98981,-2.793039 0.40177,1.028405 1.93424,1.414638 3.33834,0.78441 1.41544,-0.635315 2.09697,-2.005919 1.61061,-2.997539 0.49153,1.002169 1.98609,1.264532 3.28323,0.587928 0,0 3e-5,-1.4e-5 3e-5,-1.4e-5 1.30734,-0.631526 1.96769,-1.966459 1.47935,-2.962127 0.48959,0.998213 1.95578,1.287263 3.22091,0.708732 1.24921,-0.571253 1.96847,-1.843653 1.56988,-2.8639 0.40387,1.033775 1.78881,1.431948 3.00289,1.046787 1.19582,-0.379367 2.07289,-1.473612 1.86324,-2.529601 0.21178,1.06675 1.39255,1.714276 2.61316,1.644432 0.41188,-0.02357 0.79489,-0.129092 1.13134,-0.299298 0.57168,-0.353612 1.1098,-0.935078 1.18571,-1.654635 -0.11213,1.062849 0.78172,2.111476 1.98309,2.407658 0.33307,0.08212 0.67378,0.107108 1.00362,0.07992 0,0 0,0 0,0 0.90483,-0.07115 1.7184,-0.548423 1.96456,-1.322376 -0.33204,1.04397 0.47662,2.249076 1.75408,2.726046 0.45233,0.168889 0.91625,0.231596 1.34853,0.199392 0.80548,-0.06012 1.50713,-0.453858 1.78113,-1.116048 -0.42057,1.01642 0.29614,2.283362 1.57833,2.861524 0.21621,0.09749 0.43609,0.169644 0.65478,0.217664 0,0 0,0 0,0 l 0,0 c 0.55077,0.120982 1.09281,0.0873 1.54593,-0.08192 l 1e-5,0 c 0,0 0,0 0,0 0.21603,-0.08066 0.41167,-0.193756 0.57789,-0.335509 h 0 l 0,0 c 0.0805,-0.07017 0.15457,-0.148182 0.22058,-0.232234 l 0,0 0,-2e-6 c 0.42829,-0.806954 0.60418,-1.130054 0.62702,-1.171945 0,0 0,0 0,0 0.002,-0.0033 0.003,-0.0049 0.003,-0.0049 M 97.68015,91.195959 c 0.05088,-0.10225 0.110224,-0.194266 0.179694,-0.281697 0,0 0,0 0,0 0.06676,-0.08388 0.141884,-0.161092 0.224096,-0.230623 l 0,0 0,0 0,0 c 0.166225,-0.141781 0.361877,-0.254895 0.577927,-0.335572 l 0,0 10e-7,0 0,0 c 0.453128,-0.169241 0.995174,-0.202938 1.545952,-0.08196 l 0,0 c 0,0 0,0 0,0 0.21871,0.04802 0.43861,0.120176 0.65484,0.217677 1.28219,0.578161 1.9989,1.845103 1.57833,2.861523 0.27399,-0.662172 0.97561,-1.055906 1.78106,-1.116044 0.4323,-0.03222 0.89624,0.03049 1.3486,0.199386 1.27746,0.476969 2.08612,1.682074 1.75408,2.726044 0.24615,-0.773935 1.05969,-1.251206 1.9645,-1.322374 0,0 0,0 0,0 0.32986,-0.0272 0.67059,-0.0022 1.00368,0.07991 1.20137,0.296179 2.09522,1.344801 1.98309,2.40765 0.0759,-0.719537 0.61399,-1.300993 1.18565,-1.654611 0.33646,-0.170224 0.71949,-0.275761 1.13139,-0.299331 1.22062,-0.06985 2.40139,0.577674 2.61318,1.644423 -0.20966,-1.055989 0.6674,-2.150237 1.86323,-2.529607 1.21408,-0.385164 2.59902,0.01301 3.00289,1.046781 -0.39859,-1.020247 0.32066,-2.292648 1.56988,-2.863902 1.26512,-0.578533 2.73132,-0.289483 3.22091,0.708729 -0.48834,-0.99566 0.172,-2.33058 1.47932,-2.962112 0,0 3e-5,-1.5e-5 3e-5,-1.5e-5 1.29715,-0.676624 2.79172,-0.414264 3.28326,0.587914 -0.48636,-0.991621 0.19517,-2.362224 1.61061,-2.997538 1.4041,-0.630227 2.93657,-0.243992 3.33834,0.784414 -0.40177,-1.028406 0.46201,-2.341238 1.98982,-2.793035 1.52782,-0.451797 3.00995,0.173755 3.22174,1.240505 -0.21022,-1.058873 0.85816,-2.210974 2.57185,-2.35246 0.56364,-0.04653 1.1014,0.03089 1.55772,0.201864 0.97621,0.365554 1.4709,1.077415 1.39513,1.795614 0.11585,-1.098092 1.58476,-1.853979 3.222,-1.445777 0.40656,0.101367 0.76559,0.264538 1.06665,0.46666 0,0 0,0 0,0 0.87495,0.567195 1.30569,1.449065 1.0593,2.223725 0.33394,-1.049903 1.79527,-1.532347 3.24676,-0.990611 0.49712,0.185541 0.9181,0.465978 1.23627,0.794825 0.59975,0.618013 0.83361,1.399708 0.55926,2.062757 0.42057,-1.01642 1.90821,-1.378839 3.28022,-0.760095 0.23141,0.104364 0.44456,0.229741 0.63646,0.3708 0,0 0,0 0,0 l 0,0 c 0.48522,0.356524 0.83635,0.813246 1.00669,1.284834 l 0,0 c 0,0 0,0 0,0 0.0813,0.22506 0.12272,0.452806 0.11821,0.675057 l 0,0 0,0 c -0.001,0.109899 -0.013,0.217577 -0.0372,0.323023 l 0,0 0,2e-6 c -0.38806,0.826974 -0.54113,1.16152 -0.56094,1.204933 0,0 0,0 0,0 -0.002,0.0034 -0.002,0.005 -0.002,0.005"
       transform="translate(57.958659,-54.358762)"
       inkstitch:zigzag_spacing_mm="0.8"
       inkstitch:trim_after="True"
       inkstitch:reverse_rails="none"
       inkstitch:start_at_nearest_point="False"
       inkstitch:end_at_nearest_point="False" />
    <path
       id="path1"
       style="fill:none;stroke:#000000;stroke-width:0.264583px"
       d="m 154.33306,2.171727 1.73541,0.826821 0.0451,0.0208 1.8988,0.847492 0.0499,0.02146 2.34581,0.971515 0.0682,0.02678 2.61249,0.971514 0.0684,0.02404 1.34991,0.447 0.0595,0.01867 1.34897,0.400491 0.0744,0.02053 1.32549,0.33848 0.0951,0.02184 1.27947,0.260966 0.12494,0.02138 1.21091,0.167948 0.16877,0.01615 1.11982,0.05943 0.16314,0.002 1.06193,-0.03036 0.11039,-0.0062 1.05269,-0.08849 0.10339,-0.01141 1.04407,-0.142755 0.0956,-0.01544 1.03606,-0.19314 0.0873,-0.01829 1.02867,-0.239649 0.0787,-0.02004 1.02189,-0.282282 0.10133,-0.0309 2.02592,-0.676961 0.10773,-0.03947 2.00621,-0.800984 0.0775,-0.03285 1.99143,-0.894001 0.0499,-0.02326 1.98157,-0.956013 0.0244,-0.01199 1.94415,-0.970794 0.0325,-0.01623 1.96447,-0.980938 1.9445,-0.93812702 1.92787,-0.865473 1.91381,-0.76409098 1.92123,-0.641979 0.93166,-0.257356 0.94566,-0.220312 0.94462,-0.176094 0.94454,-0.129148 0.94573,-0.0795 0.92504,-0.02645 0.95356,0.0506 1.06406,0.147581 1.16949,0.238536 1.2408,0.316853 1.28209,0.380639 1.2859,0.425803 2.54417,0.94611298 2.28688,0.947113 1.85135,0.82630702 1.71299,0.816144 m -63.18779,-3.611087 1.713,0.81614198 1.85133,0.826305 2.28688,0.94711202 2.54418,0.946111 1.28589,0.425802 1.2821,0.380638 1.24079,0.316853 1.1695,0.238535 1.06406,0.147581 0.95355,0.0506 0.92504,-0.02645 0.94574,-0.0795 0.94453,-0.129148 0.94462,-0.176094 0.94567,-0.220312 0.93165,-0.257356 1.92124,-0.641979 1.9138,-0.764091 1.92788,-0.86547302 1.94449,-0.938127 1.96447,-0.98093798 0.0325,-0.01622 1.94417,-0.970804 0.0244,-0.01199 1.98157,-0.956013 0.05,-0.02326 1.99142,-0.894001 0.0775,-0.03286 2.00621,-0.800984 0.10774,-0.03947 2.02592,-0.676961 0.10132,-0.0309 1.02189,-0.282282 0.0787,-0.02004 1.02866,-0.239649 0.0873,-0.01829 1.03606,-0.19314 0.0956,-0.01543 1.04407,-0.142756 0.1034,-0.01141 1.05269,-0.08849 0.11038,-0.0062 1.06193,-0.03036 0.16315,0.002 1.11981,0.05943 0.16878,0.01615 1.21091,0.167948 0.12493,0.02138 1.27947,0.260966 0.0951,0.02184 1.32548,0.33848 0.0744,0.02053 1.34896,0.400493 0.0595,0.01867 1.34991,0.447001 0.0684,0.02404 2.61249,0.971517 0.0682,0.02678 2.34581,0.971516 0.0499,0.02146 1.89881,0.847493 0.0451,0.0208 1.73541,0.826822 m -64.4977,5.710242 2.44544,-5.479026 m 0.15902,6.595566 2.2958,-5.54339402 m 0.37247,6.57825102 2.09131,-5.62372902 m -0.0418,6.34533202 1.88608,-5.695841 m 4.9301,7.17061 0.31796,-5.991562 m 3.67688,5.794547 -0.81282,-5.944682 m 3.11388,5.5075 -1.36137,-5.84351 m 4.26959,4.987864 -1.90154,-5.690698 m 3.99776,4.913505 -2.22475,-5.57228902 m 4.86814,4.43358502 -2.45729,-5.47372202 m 6.28309,3.61838802 -2.68045,-5.367971 m 7.51437,3.00355798 -2.45729,-5.47372198 m 4.86815,4.43358498 -2.22475,-5.57228898 m 3.99776,4.91350598 -1.90155,-5.69069798 m 4.26959,4.987865 -1.36136,-5.84351 m 3.11387,5.507501 -0.81282,-5.944682 m 2.54656,5.783044 -0.17146,-5.997542 m 5.32372,6.81168 1.70765,-5.751854 m 1.36272,6.77776498 2.09132,-5.62372798 m 0.37246,6.57825098 2.2958,-5.54339298 m -0.46936,6.315103 2.44545,-5.479024"
       inkstitch:satin_column="true"
       inkstitch:zigzag_spacing_mm="0.8"
       inkstitch:trim_after="True"
       inkstitch:reverse_rails="none"
       inkstitch:start_at_nearest_point="False"
       inkstitch:end_at_nearest_point="False" />
    <path
       style="fill:none;fill-rule:evenodd;stroke:#000000;stroke-width:4;stroke-linecap:square;stroke-linejoin:bevel"
       d="m 76.83449,0.35905198 c 0,0 10.53772,5.29166702 16.227084,5.29166702 11.378736,0 21.075436,-10.583334 32.454176,-10.583334 5.68937,0 16.2271,5.29166698 16.2271,5.29166698"
       id="path9937"
       sodipodi:nodetypes="caac"
       inkstitch:running_stitch_length_mm="1.5"
       inkstitch:stroke_method="zigzag_stitch" />
    <path
       style="opacity:1;fill:none;fill-rule:evenodd;stroke:#000000;stroke-width:0.264583;stroke-linecap:square;stroke-linejoin:bevel"
       d="m 74.288785,75.605525 1.672058,-3.16851 4.530202,2.30065 -1.499086,3.42232 5.180903,2.21877 1.737953,-3.56969 3.772421,1.1053 -0.733068,3.93812 4.003051,0.44212 -0.148257,-3.88081 5.205609,-0.69593 1.013121,3.61882 4.423128,-1.32636 -1.44143,-3.6925 5.46919,-2.66909 1.93563,3.21765 5.31269,-2.52172 -1.5485,-3.42232 5.37035,-2.06321 1.31787,3.90537 3.90421,-1.01523 -0.41184,-3.83169 4.15956,0.25381 -0.61776,3.62701 3.99481,1.00704 1.33436,-3.70069 4.21721,1.4901 -1.47438,3.74163 3.97011,1.37548 1.44966,-3.57789 3.96187,2.26791 -1.58969,2.99657"
       id="path10565"
       inkstitch:running_stitch_length_mm="1.5"
       inkstitch:stroke_method="zigzag_stitch" />
    <path
       style="opacity:1;fill:none;fill-rule:evenodd;stroke:#000000;stroke-width:0.264583;stroke-linecap:square;stroke-linejoin:bevel"
       d="m 158.93886,74.466065 -1.73981,3.9719 m 5.16994,2.21371 2.00059,-4.10915 m 3.696,1.0801 -0.84286,4.52798 m 4.06941,0.44697 -0.17117,-4.48037 m 5.13618,-0.68504 1.17488,4.1966 m 4.45135,-1.33579 -1.65963,-4.25142 m 5.42365,-2.6467 2.24492,3.73179 m 5.28171,-2.50547 -1.79585,-3.96896 m 5.39811,-2.07414 1.50971,4.47387 m 3.84035,-1.0012 -0.47596,-4.42825 m 4.24199,0.25635 -0.7185,4.21849 m 3.94342,0.99351 1.53788,-4.26512 m 4.22543,1.49321 -1.69435,4.29985 m 3.96744,1.37441 1.67497,-4.13398 m -66.21247,3.74907 c 0.9407,0.511 3.7393,2.089 4.7033,2.555 1.015,0.49 4.124,1.827 5.181,2.219 0.937,0.347 3.8,1.26 4.777,1.473 0.787,0.172 3.199,0.484 4.003,0.443 1.228,-0.063 4.87,-0.697 6.071,-0.958 0.902,-0.197 3.574,-0.962 4.423,-1.327 1.238,-0.533 4.758,-2.538 5.963,-3.144 1.051,-0.528 4.218,-2.092 5.313,-2.521 1.001,-0.393 4.106,-1.284 5.14,-1.581 0.775,-0.222 3.104,-0.905 3.904,-1.015 0.62,-0.085 2.51,-0.042 3.13,0.049 0.815,0.121 3.209,0.76 3.995,1.007 0.83,0.262 3.258,1.235 4.077,1.531 0.79,0.286 3.188,1.069 3.97,1.376 0.777,0.305 3.057,1.349 3.822,1.686 m -66.8002,-4.961 c 0.906,0.46 3.6002,1.892 4.5302,2.301 1.062,0.466 4.323,1.692 5.42,2.071 0.743,0.257 3.006,0.927 3.772,1.105 0.616,0.144 2.49,0.515 3.122,0.5 1.05,-0.025 4.181,-0.463 5.206,-0.696 0.825,-0.188 3.217,-1.066 3.994,-1.4 1.119,-0.481 4.374,-2.14 5.47,-2.669 1.137,-0.55 4.54,-2.225 5.699,-2.727 1.056,-0.457 4.267,-1.737 5.371,-2.063 0.94,-0.277 3.833,-0.867 4.81,-0.942 0.831,-0.063 3.333,0.144 4.16,0.254 0.952,0.128 3.784,0.682 4.711,0.934 0.863,0.234 3.378,1.179 4.217,1.49 0.794,0.294 3.182,1.172 3.946,1.539 0.822,0.396 3.169,1.814 3.961,2.268"
       id="path10567"
       inkstitch:satin_column="True"
       inkstitch:zigzag_spacing_mm="0.8"
       inkstitch:trim_after="True"
       inkstitch:reverse_rails="none"
       inkstitch:start_at_nearest_point="False"
       inkstitch:end_at_nearest_point="False" />
    <path
       id="object9871"
       style="fill:none;stroke:#000000;stroke-width:0.105833"
       d="m 233.08108,38.631995 0.33414,-0.67145 0.33414,-0.67146 -0.33414,0.67146 -0.33414,0.67145 0.89104,-1.79054 -0.77232,3.43824 2.09169,-4.38233 -1.51347,5.1002 2.38651,-5.13666 -1.69001,5.61359 2.46038,-5.41826 -1.69792,5.73535 2.40673,-5.38762 -1.55577,5.49065 2.17493,-4.94264 -1.19554,4.75071 1.68502,-3.92085 -0.83671,4.08276 1.47584,-3.63442 -0.95949,4.5479 1.93193,-4.87571 -1.2615,5.46402 2.09641,-5.46272 -1.33327,5.82199 2.08767,-5.60952 -1.26179,5.78378 1.95695,-5.39467 -1.05147,5.33767 1.65758,-4.73174 -0.55887,4.12041 0.98153,-3.00764 -0.3782,3.97418 1.30626,-4.46272 -0.62881,5.12506 1.49664,-5.36153 -0.7164,5.76756 1.48567,-5.7639 -0.64899,5.96932 1.36755,-5.78888 -0.47242,5.78458 1.13801,-5.40395 -0.16435,5.08839 0.76602,-4.44984 0.25971,3.98192 0.27636,-3.33054 0.61566,4.22117 0.0894,-5.05434 0.83317,5.37213 -0.15359,-5.73231 1.08812,5.78978 -0.40663,-5.92989 1.27067,5.77029 -0.52508,-5.73409 1.36695,5.35692 -0.60978,-5.12356 1.39258,4.26369 -0.59369,-3.6573 1.58184,3.74179 -1.01957,-4.16865 2.00768,4.48065 -1.42887,-5.20189 2.32458,5.19516 -1.66431,-5.64417 2.48043,5.41837 -1.75915,-5.65979 2.51301,5.25376 -1.73645,-5.31858 2.40924,4.63256 -1.5535,-4.45586 2.04824,3.26706 -1.06908,-2.68746 2.25398,3.32738 -1.94823,-4.56402 2.86929,4.59057 -2.3181,-5.26218 3.13481,5.04912 -2.47701,-5.49578 3.21403,5.11139 -2.47118,-5.39452 3.1058,4.81857 -2.28727,-4.91209 2.78139,4.01508 -1.81993,-3.80316 2.51276,3.33223 -1.77844,-3.59315 2.80105,3.82398 -2.38197,-4.77469 3.22933,4.64679 -2.62732,-5.24568 3.38222,4.93209 -2.68402,-5.34754 3.35449,4.87955 -2.57174,-5.14039 3.12429,4.45351 -2.23543,-4.48881 2.51756,3.27565 -1.36596,-2.7743 2.40891,3.15007 -2.01613,-4.25772 2.91878,4.34377 -2.3668,-5.10916 3.16768,4.95126 -2.48986,-5.46318 3.20606,5.12894 -2.44431,-5.46248 3.07039,4.93798 -2.21451,-5.07547 2.72181,4.29324 -1.74271,-4.15181 2.21881,3.40879 -1.22557,-3.27493 2.18856,3.77238 -1.6372,-4.82712 2.46224,4.90797 -1.75611,-5.48141 2.52383,5.35339 -1.74493,-5.70527 2.43932,5.38496 -1.59289,-5.52767 2.22306,5.00958 -1.30956,-4.93576 1.83296,4.04241 -0.80009,-3.51508 1.48173,3.74982 -0.61778,-4.31379 1.39921,4.74805 -0.58142,-5.38449 1.34178,5.54956 -0.49021,-5.85041 1.20832,5.8111 -0.32246,-5.90201 0.99416,5.7141 -0.0646,-5.57404 0.75223,5.09668 0.16092,-4.66024 0.52224,3.85289 0.35484,-2.90166 0.15994,3.98663 0.91519,-4.86235 -0.28391,5.40214 1.23265,-5.59164 -0.54425,5.89377 1.41916,-5.82055 -0.68129,5.94655 1.50568,-5.67613 -0.70164,5.59666 1.45246,-5.11126 -0.53612,4.72441 1.16824,-3.88534 -0.47754,4.13232 1.31387,-3.90004 -0.79579,4.73722 1.79258,-5.04188 -1.15323,5.55173 2.01869,-5.51415 -1.30044,5.83209 2.10248,-5.59078 -1.32563,5.73263 2.06304,-5.30082 -1.18954,5.22941 1.81624,-4.5554 -0.68091,3.83423 1.03397,-2.50901 -0.72253,3.75772 1.90551,-4.39584 -1.35526,5.10213 2.28261,-5.15834 -1.62844,5.62528 2.4399,-5.43489 -1.71043,5.72852 2.45283,-5.35515 -1.64411,5.4755 2.30465,-4.91745 -1.36634,4.75318 1.88366,-3.89354 -0.49155,2.16584"
       inkstitch:stroke_method="manual_stitch"
       inkstitch:running_stitch_length_mm="1.5" />
    <path
       id="object7911"
       style="fill:none;stroke:#000000;stroke-width:0.105833"
       d="m 232.69186,2.17113 0.32259,-0.677079 0.32259,-0.67707802 -0.32259,0.67707802 -0.32259,0.677079 1.72047,-3.611083 -0.98001,3.963869 1.69423,-3.623587 -0.95377,3.976373 1.66798,-3.63609002 -0.92218,3.97730102 1.64135,-3.64774702 -0.89457,3.98105402 1.61346,-3.66019102 -0.86422,3.99390002 1.58449,-3.67314402 -0.82673,3.98707002 1.5552,-3.68537402 -0.79536,4.00006202 1.5242,-3.69821502 -0.75419,4.01711502 1.48428,-3.714745 -0.70452,4.008878 1.44408,-3.730599 -0.66291,4.021096 1.40359,-3.745659 -0.62739,4.034306 1.35381,-3.76417 -0.56828,4.042298 1.30045,-3.782961 -0.50262,4.047148 1.23148,-3.805799 -0.39715,4.062844 1.09903,-3.846266 -0.2619,4.094382 0.96613,-3.885306 -0.12043,4.10239 0.83097,-3.916152 0.018,4.119206 0.6945,-3.940692 0.16101,4.115186 0.55879,-3.968375 0.30321,4.105323 0.42026,-3.979993 0.44558,4.091212 0.2821,-3.990649 0.59591,4.037244 0.1257,-3.998949 0.77335,3.998109 -0.0523,-4.000129 0.95067,3.958131 -0.23032,-3.994738 1.12653,3.91723 -0.40787,-3.980887 1.29441,3.860222 -0.57655,-3.958377 1.43668,3.809281 -0.71895,-3.934875 1.57392,3.75868 -0.8605,-3.906638 1.69844,3.707635 -0.97824,-3.87957 1.8071,3.650612 -1.08381,-3.850411 1.90255,3.58817 -1.18905,-3.820075 2.00727,3.546665 -1.28883,-3.78673 2.08953,3.511931 -1.37353,-3.758626 2.15985,3.444689 -1.45635,-3.72556 2.23923,3.412992 -1.51453,-3.702334 2.28228,3.378442 -1.56051,-3.684017 2.32084,3.342685 -1.60564,-3.66375502 2.35906,3.32552802 -1.64622,-3.64554302 2.38739,3.29438502 -1.67564,-3.63276302 2.41437,3.27636202 -1.70453,-3.61882902 2.44319,3.26228702 -1.73359,-3.60526402 2.46741,3.23886902 -1.76229,-3.59096302 2.49986,3.22266502 -1.78373,-3.580257 2.49387,3.225655 -1.76217,-3.591023 2.47231,3.236423 -1.74061,-3.601791 2.45074,3.24719 -1.71904,-3.612557 2.43164,3.26296798 -1.69705,-3.62243698 2.41195,3.27753298 -1.67534,-3.63290898 2.39024,3.28800598 -1.65364,-3.64338198 2.37472,3.31479598 -1.62371,-3.65563998 2.33577,3.33597798 -1.57878,-3.67581398 2.29214,3.35921298 -1.53333,-3.69482598 2.25821,3.40541598 -1.48758,-3.71309198 2.19647,3.430068 -1.40795,-3.744886 2.12705,3.478125 -1.32291,-3.775347 2.04275,3.534811 -1.23107,-3.806031 1.94626,3.56705 -1.12669,-3.840912 1.8507,3.630852 -1.01991,-3.868064 1.75034,3.681393 -0.91305,-3.894394 1.63457,3.732115 -0.77186,-3.925013 1.50014,3.789248 -0.62761,-3.951902 1.34759,3.848913 -0.47496,-3.972266 1.19819,3.894824 -0.30688,-3.988302 1.03251,3.937681 -0.13831,-3.997671 0.86324,3.976946 0.0276,-4.000485 0.69902,4.037982 0.19358,-3.995346 0.52906,4.075027 0.35977,-3.988383 0.35943,4.097129 0.52554,-3.97273 0.18739,4.118142 0.68871,-3.941872 0.0198,4.106422 0.85197,-3.910791 -0.14699,4.090816 1.01289,-3.869694 -0.31166,4.071818 1.15085,-3.83088 -0.40282,4.053687 1.21178,-3.812328 -0.47082,4.057681 1.27222,-3.792307 -0.53402,4.045486 1.33261,-3.772052 -0.60104,4.044106 1.39231,-3.749856 -0.66217,4.02137498 1.43285,-3.73477698 -0.70128,4.00683098 1.47285,-3.71990598 -0.74977,4.01359698 1.51213,-3.70321098 -0.78458,4.00452898 1.55167,-3.68684198 -0.83055,3.98549498 1.59063,-3.67070498 -0.87496,3.98203298 1.62904,-3.65324598 -0.9049,3.976448 1.65082,-3.64352 -0.92669,3.968554 1.67209,-3.63413 -0.95552,3.975537 1.69308,-3.624133 -0.9765,3.965541 1.71406,-3.614136 -1.4952,3.718409 1.72046,-3.611083 -0.32259,0.67707898 -0.32258,0.677079 0.32258,-0.677079 0.32259,-0.67707898"
       inkstitch:stroke_method="manual_stitch"
       inkstitch:running_stitch_length_mm="1.5" />
    <path
       id="object8731"
       style="fill:none;stroke:#000000;stroke-width:0.105833"
       d="m 231.07312,75.614865 0.35009,-0.66328 0.35009,-0.66328 -0.35009,0.66328 -0.35009,0.66328 1.6721,-3.168 -0.94259,3.57102 1.64499,-3.20688 -0.91547,3.60991 1.61786,-3.24577 -0.88836,3.6488 1.59075,-3.28466 -0.85678,3.67949 1.56387,-3.32459 -0.82871,3.71722 1.53707,-3.36482 -0.80192,3.75745 1.51027,-3.40504 -0.77689,3.75913 1.51911,-3.43481 -0.79397,3.75763 1.55368,-3.45673 -0.82854,3.77956 1.58825,-3.47868 -0.86283,3.80083 1.62278,-3.50055 -0.88878,3.80267 1.65556,-3.52028 -0.92155,3.8224 1.68832,-3.54001 -0.95432,3.84213 1.7211,-3.55974 -0.92661,3.85357 1.65149,-3.60568 -0.7976,3.88872 1.47308,-3.67927 -0.61918,3.96232 1.29466,-3.75287 -0.43555,4.01941 1.11543,-3.825 -0.25323,4.08146 0.93495,-3.89332 -0.0652,4.12305 0.74692,-3.93491 0.14141,4.07634 0.5506,-3.9347 0.33889,4.06907 0.35368,-3.93117 0.53974,4.03408 0.15646,-3.91672 0.7403,3.98172 -0.04,-3.89497 0.92066,3.87014 -0.20277,-3.86539 1.07089,3.77203 -0.32681,-3.82991 1.19033,3.70101 -0.44934,-3.7898 1.31258,3.65883 -0.57177,-3.74943 1.431,3.59446 -0.69259,-3.70274 1.55147,3.54567 -0.81327,-3.65549 1.67215,3.49843 -0.93785,-3.63165 1.77448,3.45113 -1.04144,-3.61771 1.85901,3.39769 -1.11634,-3.62252 1.93392,3.40249 -1.19959,-3.65371 2.01137,3.41363 -1.28312,-3.68166 2.09076,3.42785 -1.3656,-3.70441 2.16179,3.41644 -1.43663,-3.693 2.20192,3.32401 -1.50785,-3.65235 2.26452,3.27271 -1.57548,-3.60334 2.32216,3.2042 -1.63311,-3.53483 2.37979,3.13569 -1.69075,-3.46632 2.4362,3.06489 -1.75136,-3.40414 2.49676,3.00262 -1.81212,-3.34226 2.55753,2.94074 -1.87288,-3.28038 2.61827,2.87885 -1.93362,-3.21849 2.62946,2.87557 -1.88342,-3.23849 2.58389,2.89419 -1.82983,-3.26084 2.53031,2.91654 -1.77625,-3.28318 2.47774,2.94099 -1.72278,-3.30576 2.42842,2.97215 -1.66983,-3.32932 2.37575,2.99635 -1.61715,-3.35351 2.33223,3.04066 -1.57363,-3.39783 2.29364,3.11221 -1.53364,-3.44847 2.27181,3.19486 -1.49776,-3.50843 2.24335,3.27759 -1.4693,-3.59117 2.21519,3.36127 -1.44113,-3.67484 2.19026,3.45572 -1.40954,-3.75228 2.15873,3.53338 -1.37786,-3.82956 2.12706,3.61067 -1.33689,-3.88107 2.05553,3.67453 -1.23463,-3.91408 1.93477,3.71604 -1.07445,-3.92025 1.77458,3.72221 -0.90953,-3.90598 1.61274,3.71928 -0.74416,-3.88523 1.44968,3.70783 -0.57889,-3.86141 1.29135,3.71375 -0.41502,-3.83258 1.1021,3.7887 -0.18767,-3.79264 0.87558,3.79225 0.0384,-3.74303 0.64926,3.76036 0.26287,-3.68654 0.42375,3.7251 0.48762,-3.64096 0.21804,3.73844 0.67093,-3.62526 0.0535,3.77963 0.79666,-3.62847 -0.0772,3.80513 0.92736,-3.65396 -0.2115,3.84439 1.05739,-3.67159 -0.34348,3.86951 1.18701,-3.68488 -0.4731,3.88279 1.31664,-3.69817 -0.57503,3.96267 1.36196,-3.7237 -0.61718,3.99817 1.38836,-3.73391 -0.64399,4.00951 1.41224,-3.73666 -0.67089,4.02026 1.43586,-3.73829 -0.69451,4.0219 1.45947,-3.73994 -0.71173,4.01435 1.47351,-3.732 -0.70998,3.99321 1.4719,-3.70825 -0.70836,3.96947 1.47028,-3.68451 -0.70839,3.95045 1.46393,-3.64911 -0.70252,3.91644 1.45618,-3.6103 -0.70316,3.88471 1.45584,-3.56253 -0.75193,3.86791 1.49088,-3.47164 -0.78698,3.77701 1.51371,-3.35874 -0.81151,3.668 1.53663,-3.24695 -0.83652,3.56092 1.55968,-3.1365 -0.85957,3.45048 1.58272,-3.02606 -1.15379,2.66212 1.1123,-2.09719 -0.35142,0.66257 -0.35141,0.66258 0.35141,-0.66258 0.35142,-0.66257"
       inkstitch:stroke_method="manual_stitch"
       inkstitch:running_stitch_length_mm="1.5" />
    <path
       id="path14495"
       style="fill:none;fill-rule:evenodd;stroke:#000000;stroke-width:0.264583;stroke-linecap:square;stroke-linejoin:bevel"
       d="m 76.205119,167.89272 c 0,0 10.92383,7.35188 16.227084,5.2917 9.942087,-3.86226 19.414467,-20.09422 32.454177,-10.5834 10.27119,7.49152 16.94544,5.94733 16.2271,5.2917 m -64.908361,-5.2917 c 0,0 9.99754,3.37865 15.437227,1.71172 7.701458,-2.36003 19.800894,-8.32832 33.244034,-7.00342 5.66194,0.55802 16.2271,5.2917 16.2271,5.2917 m -55.132347,-1.41904 5.150081,14.41864 m 22.405626,-12.73327 7.17267,-8.40953 m 14.28082,1.9591 -1.96682,14.11426"
       inkstitch:satin_column="True"
       inkstitch:zigzag_spacing_mm="0.8"
       inkstitch:reverse_rails="none"
       inkstitch:start_at_nearest_point="False"
       inkstitch:end_at_nearest_point="False" />
    <path
       id="object6474"
       style="fill:none;stroke:#000000;stroke-width:0.105833"
       d="m 232.92265,167.5855 v -0.75 -0.74999 0.74999 0.75 -5.29169 l 0.79251,5.79569 -0.13591,-5.59563 0.93625,6.08725 -0.27965,-5.88718 1.09295,6.35681 -0.43302,-6.16842 1.25055,6.63088 -0.58718,-6.45455 1.41044,6.90648 -0.74707,-6.73016 1.57993,7.1644 -0.91161,-7.00826 1.7565,7.41859 -1.08674,-7.26838 1.93891,7.66308 -1.26914,-7.51286 2.12793,7.89324 -1.4559,-7.7541 2.32961,8.09884 -1.65475,-7.97345 2.53644,8.29638 -1.85934,-8.18418 2.74959,8.48364 -2.07122,-8.37895 2.97828,8.62256 -2.29731,-8.53701 3.20016,8.73939 -2.52803,-8.66052 3.44008,8.8195 -2.76551,-8.76637 3.68928,8.83114 -3.01435,-8.78165 3.86184,8.78311 -3.10846,-8.7671 3.88143,8.6642 -3.03982,-8.66812 3.79262,8.46616 -2.95145,-8.50478 3.67357,8.20973 -2.83804,-8.31261 3.54568,7.98409 -2.71929,-8.13954 3.41424,7.78456 -2.60003,-7.99695 3.28049,7.6146 -2.48192,-7.88168 3.14856,7.4759 -2.34999,-7.74298 3.005,7.3189 -2.20643,-7.58598 2.85016,7.1446 -2.0538,-7.41806 2.69753,6.97667 -1.90497,-7.26109 2.53802,6.80481 -1.74546,-7.08923 2.3702,6.62134 -1.57764,-6.90576 2.20237,6.43787 -1.40981,-6.72229 2.02941,6.24769 -1.23427,-6.52481 1.85018,6.04536 -1.05503,-6.32246 1.67094,5.84302 -0.87579,-6.12011 1.4917,5.64066 -0.69655,-5.91776 1.31246,5.43832 -0.51607,-5.71172 1.14242,5.22415 -0.32778,-5.48806 0.95924,5.00721 -0.1446,-5.27113 0.78142,4.79731 0.0373,-5.04813 0.59951,4.57431 0.22073,-4.82025 0.41439,4.36686 0.39322,-4.60507 0.25202,4.16588 0.56082,-4.38574 0.0844,3.94656 0.72843,-4.16641 -0.0745,3.74072 0.89068,-3.94719 -0.22599,3.53805 1.04549,-3.73161 -0.36596,3.34765 1.18546,-3.54122 -0.49704,3.17384 1.32184,-3.34292 -0.62409,2.99325 1.45023,-3.15616 -0.7358,2.84183 1.56218,-3.00335 -0.83672,2.71631 1.66901,-2.84416 -0.93331,2.58439 1.7656,-2.71224 -1.01683,2.4919 1.85032,-2.61042 -1.08962,2.43708 1.92702,-2.52543 -1.15901,2.38999 1.99641,-2.47833 -1.22197,2.38227 2.06073,-2.45347 -1.2534,2.42146 2.05866,-2.46403 -1.19984,2.48784 1.94202,-2.52708 -1.07392,2.61089 1.8278,-2.63919 -0.96684,2.78131 1.72148,-2.77806 -0.8744,2.98971 1.62904,-2.98645 -0.80114,3.26193 1.55578,-3.25868 -0.74444,3.57896 1.49815,-3.54134 -0.70423,3.90469 1.45739,-3.85876 -0.68347,4.29041 1.44698,-4.22771 -0.68964,4.68696 1.45012,-4.59638 -0.71524,5.09193 1.47275,-4.97912 -0.74211,5.48087 1.49394,-5.33381 -0.76477,5.83774 1.51223,-5.67066 -0.79028,6.16144 1.5239,-5.98453 -0.78041,6.44232 1.50843,-6.24376 -0.76495,6.70155 1.49171,-6.49842 -0.73067,6.92588 1.44989,-6.69738 -0.6825,7.11386 1.40173,-6.88536 -0.6227,7.27887 1.34192,-7.05036 -0.56421,7.41722 1.26995,-7.18454 -0.48267,7.52949 1.18243,-7.27907 -0.38468,7.60004 1.08443,-7.34962 -0.2719,7.64235 0.98143,-7.38844 -0.16586,7.66095 0.87549,-7.39483 -0.0457,7.62009 0.75257,-7.34644 0.0834,7.54585 0.62338,-7.27219 0.22061,7.43625 0.48479,-7.15901 0.368,7.26927 0.33344,-6.98208 0.5376,7.0389 0.17462,-6.74728 0.69792,6.73259 0.0113,-6.43376 0.86208,6.29176 -0.14442,-5.98298 0.61567,5.5566 v -5.29169 0.75 0.75 -0.75 -0.75"
       inkstitch:stroke_method="manual_stitch"
       inkstitch:running_stitch_length_mm="1.5" />
    <text
       xml:space="preserve"
       style="font-style:normal;font-variant:normal;font-weight:bold;font-stretch:normal;font-size:9.525px;line-height:1;font-family:Barlow;-inkscape-font-specification:'Barlow Bold';letter-spacing:0px;fill:#ff0000;fill-opacity:1;stroke-width:0.264583"
       x="57.615334"
       y="3.6737525"
       id="text14653"><tspan
         sodipodi:role="line"
         id="tspan14651"
         style="font-style:normal;font-variant:normal;font-weight:bold;font-stretch:normal;font-size:9.525px;font-family:Barlow;-inkscape-font-specification:'Barlow Bold';fill:#ff0000;fill-opacity:1;stroke-width:0.264583"
         x="57.615334"
         y="3.6737525">1.</tspan></text>
    <text
       xml:space="preserve"
       style="font-style:normal;font-variant:normal;font-weight:bold;font-stretch:normal;font-size:9.525px;line-height:1;font-family:Barlow;-inkscape-font-specification:'Barlow Bold';letter-spacing:0px;fill:#ff0000;fill-opacity:1;stroke-width:0.264583"
       x="57.615334"
       y="41.085236"
       id="text14707"><tspan
         sodipodi:role="line"
         id="tspan14705"
         style="font-style:normal;font-variant:normal;font-weight:bold;font-stretch:normal;font-size:9.525px;font-family:Barlow;-inkscape-font-specification:'Barlow Bold';fill:#ff0000;fill-opacity:1;stroke-width:0.264583"
         x="57.615334"
         y="41.085236">2.</tspan></text>
    <text
       xml:space="preserve"
       style="font-style:normal;font-variant:normal;font-weight:bold;font-stretch:normal;font-size:9.525px;line-height:1;font-family:Barlow;-inkscape-font-specification:'Barlow Bold';letter-spacing:0px;fill:#ff0000;fill-opacity:1;stroke-width:0.264583"
       x="57.615334"
       y="78.401474"
       id="text14711"><tspan
         sodipodi:role="line"
         id="tspan14709"
         style="font-style:normal;font-variant:normal;font-weight:bold;font-stretch:normal;font-size:9.525px;font-family:Barlow;-inkscape-font-specification:'Barlow Bold';fill:#ff0000;fill-opacity:1;stroke-width:0.264583"
         x="57.615334"
         y="78.401474">3.</tspan></text>
    <text
       xml:space="preserve"
       style="font-style:normal;font-variant:normal;font-weight:bold;font-stretch:normal;font-size:9.525px;line-height:1;font-family:Barlow;-inkscape-font-specification:'Barlow Bold';letter-spacing:0px;fill:#ff0000;fill-opacity:1;stroke-width:0.264583"
       x="57.929951"
       y="117.72881"
       id="text2"><tspan
         sodipodi:role="line"
         id="tspan2"
         style="font-style:normal;font-variant:normal;font-weight:bold;font-stretch:normal;font-size:9.525px;font-family:Barlow;-inkscape-font-specification:'Barlow Bold';fill:#ff0000;fill-opacity:1;stroke-width:0.264583"
         x="57.929951"
         y="117.72881">4.</tspan></text>
    <text
       xml:space="preserve"
       style="font-style:normal;font-variant:normal;font-weight:bold;font-stretch:normal;font-size:9.525px;line-height:1;font-family:Barlow;-inkscape-font-specification:'Barlow Bold';letter-spacing:0px;fill:#ff0000;fill-opacity:1;stroke-width:0.264583"
       x="56.986095"
       y="168.33521"
       id="text14715"><tspan
         sodipodi:role="line"
         id="tspan14713"
         style="font-style:normal;font-variant:normal;font-weight:bold;font-stretch:normal;font-size:9.525px;font-family:Barlow;-inkscape-font-specification:'Barlow Bold';fill:#ff0000;fill-opacity:1;stroke-width:0.264583"
         x="56.986095"
         y="168.33521">5.</tspan></text>
    <path
       style="opacity:0.407055;fill:none;fill-opacity:1;fill-rule:evenodd;stroke:#ff0000;stroke-width:0.665;stroke-linecap:square;stroke-linejoin:bevel;stroke-opacity:1;marker-end:url(#Arrow5)"
       d="m 130.17151,12.889015 c 11.77129,8.42737 21.11202,6.9912 29.08388,0"
       id="path14864"
       sodipodi:nodetypes="cc"
       inkstitch:running_stitch_length_mm="1.5"
       inkstitch:stroke_method="zigzag_stitch" />
    <path
       style="opacity:0.407055;fill:none;fill-opacity:1;fill-rule:evenodd;stroke:#ff0000;stroke-width:0.665;stroke-linecap:square;stroke-linejoin:bevel;stroke-opacity:1;marker-end:url(#Arrow5)"
       d="m 213.19569,12.889016 c 11.77129,8.427369 21.11202,6.991199 29.08388,0"
       id="path15085"
       sodipodi:nodetypes="cc"
       inkstitch:running_stitch_length_mm="1.5"
       inkstitch:stroke_method="zigzag_stitch" />
    <path
       style="opacity:0.407055;fill:none;fill-opacity:1;fill-rule:evenodd;stroke:#ff0000;stroke-width:0.665;stroke-linecap:square;stroke-linejoin:bevel;stroke-opacity:1;marker-end:url(#Arrow5)"
       d="m 128.68921,48.845045 c 11.77129,8.42737 21.11202,6.9912 29.08388,0"
       id="path15089"
       sodipodi:nodetypes="cc"
       inkstitch:running_stitch_length_mm="1.5"
       inkstitch:stroke_method="zigzag_stitch" />
    <path
       style="opacity:0.407055;fill:none;fill-opacity:1;fill-rule:evenodd;stroke:#ff0000;stroke-width:0.665;stroke-linecap:square;stroke-linejoin:bevel;stroke-opacity:1;marker-end:url(#Arrow5)"
       d="m 211.6636,48.845045 c 11.77129,8.42737 21.11202,6.9912 29.08388,0"
       id="path15093"
       sodipodi:nodetypes="cc"
       inkstitch:running_stitch_length_mm="1.5"
       inkstitch:stroke_method="zigzag_stitch" />
    <path
       style="opacity:0.407055;fill:none;fill-opacity:1;fill-rule:evenodd;stroke:#ff0000;stroke-width:0.665;stroke-linecap:square;stroke-linejoin:bevel;stroke-opacity:1;marker-end:url(#Arrow5)"
       d="m 128.68921,87.538965 c 11.77129,8.42737 21.11202,6.9912 29.08388,0"
       id="path15099"
       sodipodi:nodetypes="cc"
       inkstitch:running_stitch_length_mm="1.5"
       inkstitch:stroke_method="zigzag_stitch" />
    <path
       style="opacity:0.407055;fill:none;fill-opacity:1;fill-rule:evenodd;stroke:#ff0000;stroke-width:0.665;stroke-linecap:square;stroke-linejoin:bevel;stroke-opacity:1;marker-end:url(#Arrow5)"
       d="m 211.6636,87.538965 c 11.77129,8.42737 21.11202,6.9912 29.08388,0"
       id="path15103"
       sodipodi:nodetypes="cc"
       inkstitch:running_stitch_length_mm="1.5"
       inkstitch:stroke_method="zigzag_stitch" />
    <path
       style="opacity:0.407055;fill:none;fill-opacity:1;fill-rule:evenodd;stroke:#ff0000;stroke-width:0.665;stroke-linecap:square;stroke-linejoin:bevel;stroke-opacity:1;marker-end:url(#Arrow5)"
       d="m 108.23899,133.4733 c 11.77129,8.42737 21.11202,6.9912 29.08388,0"
       id="path3"
       sodipodi:nodetypes="cc"
       inkstitch:running_stitch_length_mm="1.5"
       inkstitch:stroke_method="zigzag_stitch" />
    <path
       style="opacity:0.407055;fill:none;fill-opacity:1;fill-rule:evenodd;stroke:#ff0000;stroke-width:0.665;stroke-linecap:square;stroke-linejoin:bevel;stroke-opacity:1;marker-end:url(#Arrow5)"
       d="m 236.05161,137.46887 c 11.77129,8.42737 21.11202,6.9912 29.08388,0"
       id="path4"
       sodipodi:nodetypes="cc"
       inkstitch:running_stitch_length_mm="1.5"
       inkstitch:stroke_method="zigzag_stitch" />
    <path
       style="opacity:0.407055;fill:none;fill-opacity:1;fill-rule:evenodd;stroke:#ff0000;stroke-width:0.665;stroke-linecap:square;stroke-linejoin:bevel;stroke-opacity:1;marker-end:url(#Arrow5-0)"
       d="m 175.09837,133.4733 c 11.77129,8.42737 21.11202,6.9912 29.08388,0"
       id="path4-4"
       sodipodi:nodetypes="cc"
       inkstitch:running_stitch_length_mm="1.5"
       inkstitch:stroke_method="zigzag_stitch" />
    <path
       style="opacity:0.407055;fill:none;fill-opacity:1;fill-rule:evenodd;stroke:#ff0000;stroke-width:0.665;stroke-linecap:square;stroke-linejoin:bevel;stroke-opacity:1;marker-end:url(#Arrow5)"
       d="m 165.14451,165.02051 h 43.37138"
       id="path15109"
       sodipodi:nodetypes="cc"
       inkstitch:running_stitch_length_mm="1.5"
       inkstitch:stroke_method="zigzag_stitch" />
    <path
       style="fill:#000000;fill-rule:evenodd;stroke:none;stroke-width:0.999998"
       d="m 66.750642,118.28043 11.708823,-9.12526 c 0,0 1.994115,2.50936 14.6235,2.82398 12.629385,0.31462 24.150935,-3.56011 24.150935,-3.56011 l 4.8745,-9.753174 3.76665,7.236234 c 0,0 -6.20391,8.18008 -12.18624,14.15783 -5.98234,5.97776 -9.19551,0.0947 -16.507249,-0.53457 -4.355531,-0.37483 -2.89401,15.06792 0.842937,22.98674 -4.43886,4.01803 -10.461093,3.0919 -10.461093,3.0919 L 86.37782,119.53459 Z"
       id="path2"
       sodipodi:nodetypes="ccscccsscccc" />
    <path
       style="fill:#000000;fill-rule:evenodd;stroke:none;stroke-width:0.999998"
       d="m 133.62363,115.45481 11.70882,-9.12526 c 0,0 1.99411,2.50936 14.6235,2.82398 12.62938,0.31462 24.15093,-3.56011 24.15093,-3.56011 l 4.8745,-9.753173 3.76665,7.236233 c 0,0 -6.20391,8.18008 -12.18624,14.15783 -5.98234,5.97776 -9.19551,0.0947 -16.50724,-0.53457 -4.35554,-0.37483 -2.89401,15.06792 0.84293,22.98674 -4.43886,4.01803 -10.46109,3.0919 -10.46109,3.0919 l -1.18559,-26.06941 z"
       id="path9"
       sodipodi:nodetypes="ccscccsscccc" />
    <path
       id="path15"
       style="fill:none;fill-rule:evenodd;stroke:#913697;stroke-width:1"
       d="m 183.24337,99.239593 12.87226,0.941867 m -30.45389,19.77934 5.02332,-18.5235 m -25.43057,16.95371 12.24435,-14.75601 m -21.66308,5.33728 1.88375,13.18622 m 12.5583,16.95372 17.58163,-3.13958 M 151.69062,117.7631 c 5.51124,-1.23746 8.7178,-1.31911 12.55831,0.78488 m -17.73861,-7.53497 25.58755,2.51166" />
    <g
       inkscape:label="Groupe de Satins"
       id="g18">
      <path
         d="m 218.73962,143.17296 -2.14,-0.081 -0.199,-4.373 -0.953,-20.973 m 9,24.032 2.613,-1.778 -1.179,-2.974 -0.109,-0.302 -0.55,-1.818 -0.483,-1.891 -0.407,-1.931 -0.329,-1.936 -0.244,-1.907 -0.155,-1.844 -0.06,-1.747 0.041,-1.616 0.145,-1.45 0.256,-1.25 0.171,-0.54 0.201,-0.477 0.181,-0.322 m -12.098,21.431 17.581,-3.139"
         style="fill:none;stroke:#000000;stroke-width:0.264583"
         inkstitch:satin_column="True"
         inkstitch:pull_compensation_mm="0.2"
         inkscape:label="Colonne satin 1"
         id="path17" />
      <path
         d="m 251.62362,97.074258 1.588,3.050102 1.7,3.2656 -1.063,1.372 -2.787,3.465 -1.852,2.215 -2.056,2.372 -2.187,2.41 -2.241,2.324 -0.553,0.526 -0.538,0.46 -0.525,0.397 -0.511,0.336 -0.501,0.28 -0.491,0.226 -0.482,0.174 -0.474,0.128 -0.469,0.083 -0.463,0.042 -0.917,-0.028 -0.913,-0.155 -0.918,-0.258 -0.934,-0.336 -0.96,-0.388 -2.036,-0.832 -1.097,-0.394 -1.163,-0.347 -0.182,-0.04 -19.453,-0.8 -10.192,-0.651 -3.167,-0.202 m 55.358,-19.615002 -1.841,3.6846 -3.033,6.068402 -1.998,0.601 -2.314,0.609 -3.028,0.688 -1.743,0.345 -1.877,0.329 -1.994,0.302 -2.096,0.263 -0.359,0.035 -1.824,0.177 -2.254,0.149 -2.312,0.074 -2.352,-0.012 -2.246,-0.083 -2.009,-0.128 -1.785,-0.166 -0.619,-0.077 -0.954,-0.12 -1.375,-0.22 -1.189,-0.238 -1.016,-0.247 -0.855,-0.251 -0.707,-0.247 -0.572,-0.236 -0.788,-0.414 -0.398,-0.288 -0.111,-0.109 -8.885,6.925 -2.131,1.661 m 48.927,-15.675602 12.872,0.941602 m -30.453,19.779 5.023,-18.523 m -25.431,16.954 12.245,-14.756 m -21.663,5.337 1.883,13.186"
         style="fill:none;stroke:#000000;stroke-width:0.264583"
         inkstitch:satin_column="True"
         inkstitch:pull_compensation_mm="0.2"
         inkscape:label="Colonne satin 0"
         id="path18" />
    </g>
    <path
       id="object4496"
       style="fill:none;stroke:#000000;stroke-width:0.4;stroke-linecap:round;stroke-linejoin:round"
       d="m 669.77315,645.95685 2.7536,-0.67297 2.7536,-0.67296 -2.7536,0.67296 -2.7536,0.67297 23.04212,-5.63136 -27.46247,5.47117 31.02978,-7.90693 -34.64699,7.77349 37.56626,-9.76401 -37.68522,8.28174 38.909,-9.09328 -38.98166,7.56519 40.20491,-8.37702 -40.27631,6.85333 41.10608,-7.79 -41.17498,6.27885 40.63163,-7.64895 -40.70053,6.13778 40.15719,-7.50786 -40.22609,5.99666 39.68275,-7.36672 -39.75166,5.8555 39.20833,-7.22553 -39.27724,5.71428 38.7339,-7.08428 -38.80281,5.57301 38.25949,-6.94299 -38.3284,5.43169 37.78507,-6.80164 -37.85459,5.27732 37.30887,-6.65709 -37.37792,5.1444 36.9148,-6.46209 -36.98383,4.94953 36.57901,-6.28668 -36.64803,4.77407 36.2432,-6.11118 -36.31223,4.59853 35.9074,-5.93558 -35.97643,4.42287 35.57161,-5.75988 -35.64063,4.24713 35.23789,-5.58466 -35.3069,4.072 34.96096,-5.42548 -35.02996,3.91278 34.68401,-5.26622 -34.75301,3.75347 34.40707,-5.10686 -34.47606,3.59407 34.13011,-4.94742 -34.19911,3.43458 33.85316,-4.78788 -33.92214,3.27509 33.62028,-4.63871 -33.68925,3.12591 33.40098,-4.49269 -33.46995,2.97985 33.18168,-4.34659 -33.25064,2.83371 32.96237,-4.20041 -33.03133,2.68749 32.74305,-4.05415 -32.812,2.54123 32.54724,-3.91237 -32.61618,2.39946 32.38204,-3.77644 -32.45098,2.2635 32.21684,-3.64045 -32.28576,2.12748 32.0516,-3.50439 -32.12052,1.99139 31.88637,-3.36828 -31.95529,1.85525 31.72856,-3.23321 -31.79746,1.72021 31.62012,-3.10556 -31.68901,1.59254 31.51168,-2.97787 -31.58056,1.46483 31.40321,-2.85014 -31.47209,1.33707 31.29473,-2.72235 -31.36359,1.20926 31.18623,-2.59452 -31.25509,1.08144 31.13438,-2.47272 -31.20322,0.95963 31.08622,-2.35129 -31.15506,0.83819 31.03806,-2.22984 -31.10688,0.71673 30.98986,-2.10837 -31.05868,0.59525 30.94165,-1.98687 -31.01045,0.47374 30.95848,-1.86921 -31.02727,0.35607 30.97941,-1.75177 -31.0482,0.23864 31.00032,-1.63435 -31.06909,0.12122 31.0212,-1.51694 -31.08996,0.004 31.0604,-1.39958 -31.12915,-0.11363 31.16477,-1.28238 -31.23351,-0.2308 31.26912,-1.16524 -31.33785,-0.34792 31.37344,-1.04813 -31.44215,-0.46501 31.47774,-0.93106 -31.54645,-0.58226 31.67059,-0.80809 -31.73929,-0.70523 31.87861,-0.68418 -31.94729,-0.82909 32.08659,-0.56036 -32.15527,-0.95287 32.29457,-0.43662 -32.36323,-1.07709 32.63242,-0.29218 -32.70107,-1.22149 32.98187,-0.14605 -33.0505,-1.36755 33.33128,-6e-5 -33.3999,-1.51387 33.74752,0.16397 -33.81611,-1.67823 34.23855,0.34812 -34.30711,-1.86318 34.84345,0.57581 -34.91197,-2.09155 35.5327,0.84536 -35.56375,-1.53308 17.93735,0.49124 17.93735,0.49124 -17.93735,-0.49124 17.18173,0.47055 -2.83358,-0.0776 -2.83359,-0.0776 2.83359,0.0776 2.83358,0.0776"
       transform="matrix(0.264583,0,0,0.264583,97.758563,-29.595218)"
       inkstitch:stroke_method="manual_stitch"
       inkstitch:trim_after="true" />
    <path
       id="object8985"
       style="fill:none;stroke:#000000;stroke-width:0.4;stroke-linecap:round;stroke-linejoin:round"
       d="m 692.58441,532.88217 -2.83442,-0.0357 -2.83442,-0.0357 2.83442,0.0357 2.83442,0.0357 -7.93777,-0.0999 6.71898,0.0892 9.16244,-0.009 9.16152,-0.1314 9.1137,0.96192 8.99764,1.73996 9.10188,1.0747 9.05944,-1.40565 8.25894,-3.98232 7.6552,-5.04652 7.50527,-5.26698 7.37479,-5.44821 6.70732,-6.25751 5.17637,-7.57297 5.12847,-7.6055 0.47008,-5.34795 -0.70332,-9.37381 0.35285,-9.39353 1.25419,2.40967 -2.50838,-4.81934 3.42799,6.05193 -4.46231,-4.2308 5.1334,5.23756 -5.89734,-3.77241 6.52933,4.80233 -7.25417,-3.36032 7.86484,4.41119 -8.56837,-2.99014 9.16751,4.05693 -9.8595,-2.6518 10.4522,3.73021 -11.13775,-2.33669 11.72673,3.42354 -12.40856,-2.03848 12.99529,3.13157 -13.67488,-1.75273 14.29483,2.9156 -15.01312,-1.46024 15.64359,2.6519 -16.34825,-1.22791 17.16735,2.83021 -17.63978,-1.90501 18.47594,3.53729 -18.9581,-2.58853 19.81048,4.24939 -20.30195,-3.27888 21.1696,4.96675 -21.66988,-3.9762 22.55185,5.68951 -23.06043,-4.68049 23.95577,6.41766 -24.47212,-5.39164 25.37993,7.15115 -25.90354,-6.10944 25.50561,7.60288 -25.98018,-6.66058 24.96702,7.97882 -25.40224,-7.11551 24.39793,8.42202 -24.82861,-7.56715 23.83267,8.86249 -24.25897,-8.01568 23.25124,9.29355 -23.67522,-8.45056 22.66571,9.71493 -19.62349,-7.5459 18.66934,8.74057 -22.52913,-9.28162 21.57435,10.47666 -18.67497,-8.23348 17.71953,9.42886 -21.41065,-10.09196 20.45452,11.28766 -17.72196,-8.92339 16.76509,10.11937 -20.2866,-10.90482 19.32897,12.10104 -16.76397,-9.61521 15.80554,10.81164 -19.15643,-11.71962 18.19719,12.9162 -15.80058,-10.3084 14.84049,11.50508 -18.01971,-12.53565 17.04413,13.72033 -14.81905,-10.992 13.83502,12.17048 -16.8393,-13.32169 15.85434,14.50012 -13.80619,-11.65479 12.82031,12.8331 -15.64401,-14.10111 14.65545,15.28106 -13.13858,-12.74099 12.15011,13.91945 -15.31413,-15.92657 14.32609,17.10341 -12.89617,-14.33141 11.89955,15.49911 -15.02166,-17.78381 14.01405,18.94046 -12.6317,-15.89056 11.62464,17.04598 -14.70108,-19.60327 13.69459,20.75754 -12.3611,-17.43306 11.35518,18.5863 -14.38502,-21.41362 13.37965,22.56594 -12.09557,-18.97282 11.09062,20.12438 -14.08309,-23.25202 13.07875,24.40277 -11.84672,-20.55422 10.77231,21.75122 -13.76799,-25.14455 12.67903,26.33661 -11.55019,-22.18589 10.45365,23.38624 -13.40879,-27.06339 12.30447,28.27229 -13.22896,-28.03184 12.11669,29.24951 -13.04889,-29.00664 11.92854,30.23325 -12.86856,-29.98798 11.74005,31.22368 -12.68793,-30.97602 11.54803,32.21811 -12.50938,-31.99127 11.34333,33.19323 -12.30072,-32.97742 11.12653,34.1879 -12.09151,-33.97011 10.90914,35.18918 -11.8817,-34.96945 10.6911,36.19715 -11.67126,-35.97548 10.47245,37.21182 -11.46018,-36.98826 10.25314,38.23325 -11.2484,-38.00781 10.03316,39.26143 -11.03593,-39.03414 9.7906,40.22211 -10.77875,-39.99803 9.51406,41.16683 -10.50313,-40.94241 9.21417,42.03908 -10.1855,-41.81859 8.87049,42.85394 -9.83186,-42.639 8.4951,43.62651 -9.45445,-43.43686 8.0917,44.32878 -9.03097,-44.14299 7.64326,44.95367 -7.28463,-38.05468 5.93904,38.76081 -8.10075,-45.30279 6.71812,45.93651 -6.45495,-38.89846 5.02512,39.41778 -7.03981,-46.10853 5.58242,46.54206 -5.48918,-39.41303 4.00646,39.74915 -5.85374,-46.54822 4.35053,46.77946 -4.44493,-39.63113 2.92864,39.75031 -4.5918,-46.58931 3.07068,46.54408 -3.35711,-39.43082 1.83586,39.38548 -3.30702,-46.18885 1.80275,45.97627 -2.27953,-38.94794 0.77914,38.69542 -2.06038,-45.4133 0.57739,45.08383 -1.23802,-38.18915 -0.22702,37.78036 -0.87386,-44.38333 -0.5878,43.96329 -0.25045,-37.25404 -1.27524,36.70884 0.29067,-43.13912 -1.80932,42.59641 0.87383,-42.453 -2.38406,41.86224 1.44331,-41.71786 -2.94602,41.11445 2.00721,-40.97017 -3.50244,40.36752 2.56843,-40.22373 -4.05631,39.6196 2.65757,-33.55479 -4.06825,32.98193 3.65349,-38.78675 -5.06452,38.21369 3.55358,-32.38514 -4.96499,31.81184 4.70863,-37.4131 -6.12043,36.83956 4.45175,-31.21672 -5.88546,30.69826 5.78865,-36.09278 -7.22485,35.57949 5.3914,-30.14514 -6.82797,29.63153 6.89774,-34.83632 -8.36063,34.4008 6.35759,-29.14265 -7.82088,28.70707 8.06197,-33.73442 -9.52534,33.29851 7.34557,-28.22618 -8.84987,28.02465 9.11247,-32.90107 -10.63091,32.83672 9.44597,-32.71873 -10.96442,32.65427 9.77948,-32.53618 -11.29795,32.47163 10.11304,-32.35345 -11.63152,32.2888 10.44661,-32.17052 -11.96509,32.10577 10.78019,-31.98738 -12.29844,31.92261 11.11115,-31.83059 -12.62929,31.76577 11.44105,-31.68402 -12.95917,31.61911 11.77092,-31.53727 -13.28903,31.47228 12.10076,-31.39036 -13.7037,31.32164 12.44898,-31.23504 -14.05816,31.16596 12.7985,-31.07894 -14.41423,31.00949 13.14939,-30.92201 -14.77162,30.85231 13.49936,-30.79888 -15.12833,30.72885 13.85008,-30.68434 -15.48604,30.61393 14.2022,-30.56916 -15.84544,30.49836 14.55579,-30.45331 -16.20657,30.38212 14.91089,-30.3368 -16.5695,30.26519 15.26756,-30.21957 -16.93426,30.14755 15.62576,-30.10446 -17.30037,30.03226 15.9841,-30.03539 -17.66682,29.96279 16.34402,-29.9659 -18.03508,29.89289 16.70558,-29.89596 -18.40523,29.82254 17.06881,-29.82559 -18.77731,29.75173 17.43378,-29.75475 -19.15138,29.68046 17.80054,-29.68346 -19.5273,29.60884 18.16915,-29.63074 -19.90501,29.55584 18.53963,-29.60275 -20.28468,29.52743 18.91188,-29.57458 -20.66633,29.49883 19.28597,-29.54622 -21.05003,29.47004 19.66193,-29.51768 -21.43581,29.44106 20.03979,-29.48895 -21.82359,29.41195 20.41999,-29.47202 -22.21358,29.39477 20.80295,-29.48127 -22.60631,29.40359 21.18782,-29.49057 -23.00111,29.41246 21.57462,-29.49993 -23.398,29.42139 21.96339,-29.50935 -23.79704,29.43038 22.3542,-29.51912 -24.19788,29.44 22.74957,-29.57163 -24.60298,29.49211 23.14684,-29.62446 -25.0101,29.54454 23.54606,-29.67763 -25.41927,29.5973 23.94724,-29.73112 -25.83034,29.65051 24.35211,-29.80396 -26.24474,29.72315 24.76141,-29.90501 -25.84325,29.85022 24.10247,-30.07529 -21.52364,25.48765 19.75136,-25.71868 -24.11886,30.20973 22.39901,-30.48003 -20.03048,25.8265 18.33863,-26.10452 -22.43292,30.66472 20.75866,-30.93964 -18.60297,26.21321 16.97122,-26.52547 -20.79272,31.16152 19.18767,-31.48876 -17.24489,26.67873 15.65273,-27.00305 -19.18428,31.72615 17.69932,-32.08218 -15.92059,27.17911 14.43735,-27.54389 -17.7539,32.36194 16.27477,-32.74276 -14.70653,27.72996 13.24111,-28.16298 -16.34609,33.08972 14.88078,-33.52308 -13.51791,28.38187 12.07555,-28.88702 -14.97463,33.94084 13.53634,-34.4563 -12.37072,29.16286 10.95809,-29.7452 -13.66033,34.9496 12.28294,-35.60618 -11.2969,30.12063 9.9441,-30.8286 -12.46839,36.22322 11.15769,-36.9975 -10.37713,31.25797 9.0863,-32.24325 -11.8987,37.85719 10.06527,-36.7849 -11.36916,36.7026 9.37214,-35.15111 -10.66425,35.06962 8.68396,-33.53163 -9.96344,33.45101 8.00105,-31.92748 -9.26693,31.84778 7.32369,-30.33974 -8.57493,30.26104 6.6522,-28.76966 -7.88761,28.69203 5.9869,-27.21855 -7.20521,27.14206 5.32811,-25.68785 -6.52789,25.61258 4.67617,-24.17913 -5.85582,24.10516 4.03138,-22.69411 -5.18916,22.62151 3.39402,-21.2346 -4.52799,21.16344 2.76432,-19.80259 -3.87233,19.73291 2.14243,-18.40011 -3.22213,18.33192 1.52834,-17.0293 -2.57713,16.96255 0.92184,-15.69225 -1.93695,15.62678 0.32247,-14.39091 -1.30091,14.32636 -0.27068,-13.12684 -0.79689,11.27747 -0.73016,-10.11575 -0.037,11.83586 -1.44462,-10.71258 -0.11217,10.61786 -0.98187,-9.74841 -0.56805,9.65519 -0.40597,-8.86691 -1.15566,8.77124 0.19334,-7.98051 -1.77125,7.87943 0.82522,-7.08328 -2.42545,6.97063 1.50173,-6.16292 -3.1302,6.02666 2.23473,-5.19534 -3.99315,5.00218 3.07197,-4.07109 -4.61259,3.84304 3.81173,-2.97018 -1.90586,1.48509 -1.90587,1.48509 1.90587,-1.48509 1.90586,-1.48509"
       transform="matrix(0.264583,0,0,0.264583,97.758563,-29.595218)"
       inkstitch:stroke_method="manual_stitch" />
  </g>
</svg>
