<?xml version="1.0" encoding="UTF-8" standalone="no"?>
<!-- Created with Inkscape (http://www.inkscape.org/) -->

<svg
   width="276.87601mm"
   height="300mm"
   viewBox="0 0 276.876 300.00001"
   version="1.1"
   id="svg9806"
   inkscape:version="1.4.4rc (c5dfcf2, 2026-04-23)"
   sodipodi:docname="satin_methods.svg"
   xmlns:inkscape="http://www.inkscape.org/namespaces/inkscape"
   xmlns:sodipodi="http://sodipodi.sourceforge.net/DTD/sodipodi-0.dtd"
   xmlns="http://www.w3.org/2000/svg"
   xmlns:svg="http://www.w3.org/2000/svg"
   xmlns:inkstitch="http://inkstitch.org/namespace">
  <sodipodi:namedview
     id="namedview9808"
     pagecolor="#ffffff"
     bordercolor="#000000"
     borderopacity="0.25"
     inkscape:showpageshadow="2"
     inkscape:pageopacity="0.0"
     inkscape:pagecheckerboard="0"
     inkscape:deskcolor="#d1d1d1"
     inkscape:document-units="mm"
     showgrid="false"
     inkscape:zoom="0.16386902"
     inkscape:cx="265.45592"
     inkscape:cy="-18.307305"
     inkscape:window-width="1920"
     inkscape:window-height="1131"
     inkscape:window-x="0"
     inkscape:window-y="32"
     inkscape:window-maximized="1"
     inkscape:current-layer="layer1" />
  <metadata
     id="metadata14314">
    <inkstitch:min_stitch_len_mm
       id="min_stitch_len_mm4086">0.3</inkstitch:min_stitch_len_mm>
    <inkstitch:collapse_len_mm
       id="collapse_len_mm539">3</inkstitch:collapse_len_mm>
    <inkstitch:inkstitch_svg_version>3</inkstitch:inkstitch_svg_version>
  </metadata>
  <defs
     id="defs9803">
    <marker
       style="overflow:visible"
       id="Arrow5"
       refX="0"
       refY="0"
       orient="auto-start-reverse"
       inkscape:stockid="Arrow5"
       markerWidth="5.8874264"
       markerHeight="6.6094756"
       viewBox="0 0 5.8874262 6.6094758"
       inkscape:isstock="true"
       inkscape:collect="always"
       preserveAspectRatio="xMidYMid">
      <path
         transform="scale(0.5)"
         style="fill:context-stroke;fill-rule:evenodd;stroke:context-stroke;stroke-width:1pt"
         d="m 6,0 c -3,1 -7,3 -9,5 0,0 0,-4 2,-5 -2,-1 -2,-5 -2,-5 2,2 6,4 9,5 z"
         id="path8893"
         inkstitch:running_stitch_length_mm="1.5"
         inkstitch:stroke_method="zigzag_stitch" />
    </marker>
    <inkscape:path-effect
       id="path-effect14415"
       effect="skeletal"
       is_visible="true"
       lpeversion="1"
       pattern="M 0,0 C 0,1.1 1.125,2 2.5,2 3.875,2 5,1.1 5,0 M 0,-2 C 0,-3.1 1.125,-4 2.5,-4 3.875,-4 5,-3.1 5,-2"
       copytype="repeated_stretched"
       prop_scale="1"
       scale_y_rel="false"
       spacing="0"
       normal_offset="0"
       tang_offset="0"
       prop_units="false"
       vertical_pattern="false"
       hide_knot="false"
       fuse_tolerance="0.02"
       pattern-nodetypes="csc" />
    <inkscape:path-effect
       id="path-effect14296"
       effect="skeletal"
       is_visible="true"
       lpeversion="1"
       pattern="M 0,0 C 0,1.1 1.125,2 2.5,2 3.875,2 5,1.1 5,0 M 0,-2 C 0,-3.1 1.125,-4 2.5,-4 3.875,-4 5,-3.1 5,-2"
       copytype="repeated_stretched"
       prop_scale="1"
       scale_y_rel="false"
       spacing="0"
       normal_offset="0"
       tang_offset="0"
       prop_units="false"
       vertical_pattern="false"
       hide_knot="false"
       fuse_tolerance="0.02"
       pattern-nodetypes="csc" />
    <inkscape:path-effect
       id="inkstitch-effect-pearl"
       effect="skeletal"
       is_visible="true"
       lpeversion="1"
       pattern="M 0,0 C 0,1.1 1.125,2 2.5,2 3.875,2 5,1.1 5,0 M 0,-2 C 0,-3.1 1.125,-4 2.5,-4 3.875,-4 5,-3.1 5,-2"
       copytype="repeated_stretched"
       prop_scale="1"
       scale_y_rel="false"
       spacing="0"
       normal_offset="0"
       tang_offset="0"
       prop_units="false"
       vertical_pattern="false"
       hide_knot="false"
       fuse_tolerance="0.02"
       pattern-nodetypes="csc" />
    <symbol
       id="inkstitch_trim">
      <title
         id="inkstitch_title9282">Trim the thread after sewing this object.</title>
      <path
         id="inkstitch_circle13405"
         d="m 9.2465284,-8.6e-6 c 1.8e-6,2.452339 -0.9741847,4.804237 -2.7082493,6.538304 C 4.8042146,8.2723614 2.4523174,9.2465504 -2.1625959e-5,9.2465514 -2.4523623,9.2465534 -4.8042621,8.2723654 -6.5383288,6.5382984 -8.2723956,4.8042314 -9.2465834,2.4523324 -9.2465816,-8.6e-6 c 6e-7,-2.452339 0.9741895,-4.804237 2.708256,-6.538301 1.7340665,-1.734065 4.0859648,-2.708252 6.538303974041,-2.70825 C 5.1067066,-9.2465576 9.2465271,-5.1067366 9.2465284,-8.6e-6 c 0,0 0,0 0,0"
         style="opacity:1;vector-effect:none;fill:#fafafa;fill-opacity:1;fill-rule:evenodd;stroke:#003399;stroke-width:1.065;stroke-linecap:round;stroke-linejoin:miter;stroke-miterlimit:4;stroke-dasharray:3.195, 3.195;stroke-dashoffset:0;stroke-opacity:1"
         inkscape:connector-curvature="0"
         inkstitch:running_stitch_length_mm="1.5" />
      <path
         style="color:#000000;font-style:normal;font-variant:normal;font-weight:normal;font-stretch:normal;font-size:medium;line-height:normal;font-family:sans-serif;font-variant-ligatures:normal;font-variant-position:normal;font-variant-caps:normal;font-variant-numeric:normal;font-variant-alternates:normal;font-feature-settings:normal;text-indent:0;text-align:start;text-decoration-line:none;text-decoration-style:solid;text-decoration-color:#000000;letter-spacing:normal;word-spacing:normal;text-transform:none;writing-mode:lr-tb;direction:ltr;text-orientation:mixed;dominant-baseline:auto;baseline-shift:baseline;text-anchor:start;white-space:normal;shape-padding:0;clip-rule:nonzero;display:inline;overflow:visible;visibility:visible;opacity:1;isolation:auto;mix-blend-mode:normal;color-interpolation:sRGB;color-interpolation-filters:linearRGB;solid-color:#000000;solid-opacity:1;vector-effect:none;fill:#050505;fill-opacity:1;fill-rule:evenodd;stroke:none;stroke-width:1.41421;stroke-linecap:butt;stroke-linejoin:miter;stroke-miterlimit:4;stroke-dasharray:none;stroke-dashoffset:0;stroke-opacity:1;color-rendering:auto;image-rendering:auto;shape-rendering:auto;text-rendering:auto;enable-background:accumulate"
         d="m -3.0000256,-5.9834096 c -1.30575,0 -2.375,1.06924 -2.375,2.375 0,1.30575 1.06925,2.375 2.375,2.375 0.58687,0 1.11944,-0.22369 1.53516,-0.58007 0,0 0.61717997,1.62109 0.61717997,1.62109 0,0 -2.29881997,6.01758 -2.29881997,6.01758 0.98655,-0.12511 1.23728,-0.26171 1.67382,-0.97461 0,0 1.33007997,-3.18945 1.33007997,-3.18945 0,0 1.23633003,3.25 1.23633003,3.25 0.23227,0.77906 0.84315,0.79218 1.57813,1.07226 0,0 -2.05469003,-6.14258 -2.05469003,-6.14258 0,0 0.73047003,-1.75 0.73047003,-1.75 0.42849,0.41682 1.01136,0.67578 1.65234,0.67578 1.30575,0 2.375,-1.06925 2.375,-2.375 0,-1.30576 -1.06925,-2.375 -2.375,-2.375 -1.06233,0 -1.95701,0.71265 -2.25781003,1.67969 0,0 -0.0117,-0.0156 -0.0117,-0.0156 0,0 -0.80274,2.10156 -0.80274,2.10156 0,0 -0.59179,-1.76562 -0.59179,-1.76562 -0.18242,-1.12808 -1.15864997,-2 -2.33593997,-2 0,0 -2e-5,-3e-5 -2e-5,-3e-5 m 0,1 c 0.76531,0 1.375,0.60968 1.375,1.375 0,0.76531 -0.60969,1.375 -1.375,1.375 -0.76531,0 -1.375,-0.60969 -1.375,-1.375 0,-0.76532 0.60969,-1.375 1.375,-1.375 0,0 0,0 0,0 m 6,0 c 0.76531,0 1.375,0.60968 1.375,1.375 0,0.76531 -0.60969,1.375 -1.375,1.375 -0.76531,0 -1.375,-0.60969 -1.375,-1.375 0,-0.76532 0.60969,-1.375 1.375,-1.375 0,0 0,0 0,0"
         id="inkstitch_path13416"
         inkscape:connector-curvature="0"
         inkstitch:running_stitch_length_mm="1.5" />
    </symbol>
    <marker
       style="overflow:visible"
       id="Arrow5-0"
       refX="0"
       refY="0"
       orient="auto-start-reverse"
       inkscape:stockid="Arrow5"
       markerWidth="5.8874264"
       markerHeight="6.6094756"
       viewBox="0 0 5.8874262 6.6094758"
       inkscape:isstock="true"
       inkscape:collect="always"
       preserveAspectRatio="xMidYMid">
      <path
         transform="scale(0.5)"
         style="fill:context-stroke;fill-rule:evenodd;stroke:context-stroke;stroke-width:1pt"
         d="m 6,0 c -3,1 -7,3 -9,5 0,0 0,-4 2,-5 -2,-1 -2,-5 -2,-5 2,2 6,4 9,5 z"
         id="path8893-8"
         inkstitch:running_stitch_length_mm="1.5"
         inkstitch:stroke_method="zigzag_stitch" />
    </marker>
  </defs>
  <g
     inkscape:label="Layer 1"
     inkscape:groupmode="layer"
     id="layer1"
     transform="translate(-41.3345,27.689)">
    <path
       style="fill:none;fill-rule:evenodd;stroke:#000000;stroke-width:0.264583;stroke-linecap:square;stroke-linejoin:bevel"
       d="m 76.83449,82.842248 c 0,0 10.53772,5.29167 16.22709,5.29167 11.37873,0 21.07544,-10.58334 32.45417,-10.58334 5.68937,0 16.2271,5.29167 16.2271,5.29167"
       id="path9927"
       sodipodi:nodetypes="caac"
       inkstitch:running_stitch_length_mm="1.5"
       inkstitch:stroke_method="zigzag_stitch" />
    <path
       style="fill:none;fill-rule:evenodd;stroke:#000000;stroke-width:0.200025;stroke-linecap:square;stroke-linejoin:bevel"
       id="path9931"
       sodipodi:nodetypes="caac"
       inkscape:path-effect="#inkstitch-effect-pearl"
       inkscape:original-d="m 97.234568,92.0912 c 0,0 10.537712,5.29167 16.227082,5.29167 11.37873,0 21.07544,-10.58334 32.45417,-10.58334 5.68937,0 16.22709,5.29167 16.22709,5.29167"
       inkstitch:satin_column="true"
       class="UnoptimicedTransforms"
       d="m 96.789112,92.986504 c -0.05094,0.102366 -0.08769,0.205451 -0.113608,0.314684 0,0 0,0 0,0 -0.02483,0.105053 -0.03807,0.212356 -0.04074,0.321413 l 0,0 0,0 0,0 c -0.0045,0.222269 0.0369,0.450036 0.118174,0.675119 l 0,0 0,0 0,0 c 0.170328,0.471599 0.52145,0.928336 1.006672,1.284876 l 0,0 c 0,0 0,0 0,0 0.191911,0.141076 0.405081,0.266468 0.63652,0.370842 1.372008,0.618746 2.859666,0.256327 3.280226,-0.760093 -0.27434,0.663025 -0.0405,1.444685 0.5592,2.062688 0.31818,0.328878 0.73918,0.609342 1.23635,0.794897 1.4515,0.541736 2.91283,0.05929 3.24676,-0.990613 -0.24638,0.77463 0.18433,1.65646 1.05921,2.223657 0,0 0,0 0,0 0.30109,0.202154 0.66015,0.365349 1.06677,0.466726 1.63726,0.4082 3.10616,-0.3477 3.222,-1.445794 -0.0758,0.718161 0.41889,1.429977 1.395,1.795544 0.45636,0.17101 0.99417,0.24845 1.55787,0.20191 1.7137,-0.1415 2.78208,-1.293606 2.57185,-2.352478 0.21179,1.066748 1.69393,1.692292 3.22175,1.240486 1.52782,-0.451806 2.39159,-1.764644 1.98981,-2.793048 0.40178,1.028404 1.93426,1.414632 3.33836,0.784399 1.41544,-0.63532 2.09697,-2.005926 1.61061,-2.997545 0.49152,1.002139 1.986,1.264513 3.28312,0.587982 0,0 1.4e-4,-7.1e-5 1.4e-4,-7.1e-5 1.30735,-0.631529 1.9677,-1.966463 1.47936,-2.962131 0.48959,0.998214 1.95579,1.287262 3.22092,0.708733 1.24922,-0.571252 1.96848,-1.843649 1.5699,-2.863897 0.40386,1.033775 1.7888,1.431952 3.00289,1.046798 1.19582,-0.37936 2.07289,-1.473598 1.86325,-2.529588 0.21178,1.066751 1.39254,1.714286 2.61316,1.644456 0.41182,-0.02356 0.79477,-0.129048 1.13118,-0.299201 0.57175,-0.353593 1.10996,-0.935087 1.18589,-1.654703 -0.11214,1.062848 0.7817,2.111491 1.98309,2.407683 0.33301,0.0821 0.67364,0.107102 1.00342,0.07994 0,0 0,0 0,0 0.89488,-0.07461 1.70941,-0.553042 1.9596,-1.324592 -0.3378,1.041746 0.45852,2.241141 1.71758,2.710501 0.44719,0.166706 0.90802,0.228139 1.34012,0.195934 0.81331,-0.02545 1.52154,-0.404705 1.80372,-1.063008 -0.43316,1.010521 0.27934,2.30912 1.58332,2.885776 1.29468,0.572541 2.73385,0.2396 3.21374,-0.738356 0,0 0,-10e-7 0,-10e-7 0,0 0,0 0,0 0,0 0,0 0,0 0,0 0,-10e-7 0,-10e-7 0,0 0,0 0,0 0,-5e-6 1e-5,-2.2e-5 1e-5,-2.2e-5 0,0 2e-5,-3.9e-5 2e-5,-3.9e-5 0,0 1e-5,-3.9e-5 1e-5,-3.9e-5 0,0 2e-5,-3.3e-5 2e-5,-3.3e-5 0,0 1e-5,-1.7e-5 1e-5,-1.7e-5 0,0 1e-5,-1.7e-5 1e-5,-1.7e-5 0,0 1e-5,-3.3e-5 1e-5,-3.3e-5 0,0 2e-5,-3.9e-5 2e-5,-3.9e-5 0,0 2e-5,-3.9e-5 2e-5,-3.9e-5 0,-6e-6 0,-1.1e-5 10e-6,-1.7e-5 0,0 0,-1.7e-5 0,-1.7e-5 0,0 2e-5,-3.9e-5 2e-5,-3.9e-5 0,0 2e-5,-3.9e-5 2e-5,-3.9e-5 1e-5,-1.1e-5 1e-5,-2.2e-5 2e-5,-3.3e-5 0,0 1e-5,-3.4e-5 1e-5,-3.4e-5 0,0 1e-5,-1.6e-5 1e-5,-1.6e-5 0,0 10e-6,-1.7e-5 10e-6,-1.7e-5 0.18846,-0.399491 0.74585,-1.580564 0.55739,-1.181073 M 97.68015,91.195959 c 0.05088,-0.10225 0.110224,-0.194266 0.179694,-0.281696 0,0 0,0 0,0 0.06676,-0.08388 0.141883,-0.161092 0.224095,-0.230623 l 10e-7,0 0,0 0,0 c 0.166225,-0.14178 0.361877,-0.254895 0.577926,-0.335571 l 0,0 10e-7,0 0,0 c 0.453128,-0.169241 0.995174,-0.202938 1.545953,-0.08196 l 0,0 c 0,0 0,0 0,0 0.21871,0.04802 0.43862,0.120176 0.65485,0.217679 1.28219,0.578163 1.9989,1.845107 1.57834,2.861526 0.27398,-0.662164 0.9756,-1.055896 1.78104,-1.116041 0.4323,-0.03222 0.89626,0.03048 1.34862,0.199386 1.27747,0.47697 2.08614,1.682076 1.75409,2.726046 0.24616,-0.773923 1.05967,-1.251191 1.96447,-1.322371 0,0 0,0 0,0 0.32987,-0.02721 0.67061,-0.0022 1.00373,0.07991 1.20136,0.296177 2.09522,1.344796 1.9831,2.407645 0.0759,-0.719517 0.61395,-1.300963 1.18559,-1.654588 0.33648,-0.170242 0.71952,-0.27579 1.13145,-0.299364 1.22062,-0.06985 2.4014,0.577663 2.61319,1.644412 -0.20966,-1.055988 0.66741,-2.15024 1.86323,-2.529616 1.21409,-0.38517 2.59904,0.013 3.00291,1.046769 -0.39859,-1.020246 0.32066,-2.292651 1.56988,-2.86391 1.26514,-0.578537 2.73134,-0.289491 3.22093,0.70872 -0.48833,-0.995629 0.17196,-2.330503 1.47921,-2.962059 0,0 1.5e-4,-7.5e-5 1.5e-4,-7.5e-5 1.29715,-0.676627 2.79173,-0.414267 3.28326,0.587911 -0.48635,-0.991622 0.19519,-2.362227 1.61063,-2.99754 1.40411,-0.630226 2.93659,-0.243987 3.33836,0.784419 -0.40177,-1.028406 0.46202,-2.341237 1.98984,-2.793028 1.52783,-0.45179 3.00996,0.173771 3.22174,1.240522 -0.21021,-1.058873 0.85818,-2.210969 2.57189,-2.352442 0.56354,-0.04652 1.10122,0.03087 1.5575,0.201794 0.97636,0.365537 1.47113,1.077467 1.39534,1.795725 0.11587,-1.098092 1.58478,-1.853958 3.22201,-1.445744 0.40648,0.101348 0.76543,0.264472 1.06645,0.466535 0,0 0,0 0,0 0.8837,0.570871 1.31532,1.453155 1.06469,2.226074 0.33907,-1.045654 1.84156,-1.513885 3.28326,-0.975038 0.50207,0.187656 0.926,0.469314 1.24426,0.798123 0.5687,0.638265 0.78769,1.424654 0.50497,2.08422 0.43316,-1.010521 1.89866,-1.345722 3.25667,-0.74489 1.34832,0.596545 2.07504,1.887527 1.62593,2.879096 0,0 0,0 0,0 0,0 0,0 0,10e-7 0,0 0,0 0,0 0,0 0,0 0,0 0,0 0,0 0,0 -1e-5,6e-6 -1e-5,2.3e-5 -1e-5,2.3e-5 0,0 -2e-5,3.8e-5 -2e-5,3.8e-5 0,0 -2e-5,3.9e-5 -2e-5,3.9e-5 0,0 -2e-5,3.4e-5 -2e-5,3.4e-5 0,0 0,1.7e-5 0,1.7e-5 0,0 -1e-5,1.6e-5 -1e-5,1.6e-5 0,0 -2e-5,3.4e-5 -2e-5,3.4e-5 0,0 -2e-5,3.9e-5 -2e-5,3.9e-5 0,0 -1e-5,3.9e-5 -1e-5,3.9e-5 -1e-5,5e-6 -1e-5,1.1e-5 -1e-5,1.7e-5 0,0 -1e-5,1.6e-5 -1e-5,1.6e-5 0,0 -2e-5,3.9e-5 -2e-5,3.9e-5 0,0 -2e-5,3.9e-5 -2e-5,3.9e-5 0,0 -1e-5,3.4e-5 -1e-5,3.4e-5 0,0 -2e-5,3.3e-5 -2e-5,3.3e-5 0,0 -1e-5,1.7e-5 -1e-5,1.7e-5 0,0 0,1.7e-5 0,1.7e-5 -0.18836,0.399545 -0.74563,1.580676 -0.55728,1.181131"
       transform="translate(57.958659,-9.2489491)"
       inkstitch:zigzag_spacing_mm="0.8"
       inkstitch:trim_after="True"
       inkstitch:reverse_rails="none"
       inkstitch:start_at_nearest_point="False"
       inkstitch:end_at_nearest_point="False" />
    <path
       style="fill:none;fill-rule:evenodd;stroke:#000000;stroke-width:4;stroke-linecap:square;stroke-linejoin:bevel"
       d="m 76.050049,12.130134 c 0,0 10.53772,5.291667 16.227084,5.291667 11.378737,0 21.075437,-10.5833341 32.454177,-10.5833341 5.68937,0 16.2271,5.2916671 16.2271,5.2916671"
       id="path9937"
       sodipodi:nodetypes="caac"
       inkstitch:running_stitch_length_mm="1.5"
       inkstitch:stroke_method="zigzag_stitch" />
    <path
       style="opacity:1;fill:none;fill-rule:evenodd;stroke:#000000;stroke-width:0.264583;stroke-linecap:square;stroke-linejoin:bevel"
       d="m 74.288785,120.71534 1.672058,-3.16851 4.530202,2.30065 -1.499086,3.42232 5.180903,2.21877 1.737953,-3.56969 3.772421,1.1053 -0.733068,3.93812 4.003051,0.44212 -0.148257,-3.88081 5.205609,-0.69593 1.013121,3.61882 4.423128,-1.32636 -1.44143,-3.6925 5.46919,-2.66909 1.93563,3.21765 5.31269,-2.52172 -1.5485,-3.42232 5.37035,-2.06321 1.31787,3.90537 3.90421,-1.01523 -0.41184,-3.83169 4.15956,0.25381 -0.61776,3.62701 3.99481,1.00704 1.33436,-3.70069 4.21721,1.4901 -1.47438,3.74163 3.97011,1.37548 1.44966,-3.57789 3.96187,2.26791 -1.58969,2.99657"
       id="path10565"
       inkstitch:running_stitch_length_mm="1.5"
       inkstitch:stroke_method="zigzag_stitch" />
    <path
       style="opacity:1;fill:none;fill-rule:evenodd;stroke:#000000;stroke-width:0.264583;stroke-linecap:square;stroke-linejoin:bevel"
       d="m 158.93886,119.57588 -1.73981,3.9719 m 5.16994,2.21371 2.00059,-4.10915 m 3.696,1.0801 -0.84286,4.52798 m 4.06941,0.44697 -0.17117,-4.48037 m 5.13618,-0.68504 1.17488,4.1966 m 4.45135,-1.33579 -1.65963,-4.25142 m 5.42365,-2.6467 2.24492,3.73179 m 5.28171,-2.50547 -1.79585,-3.96896 m 5.39811,-2.07414 1.50971,4.47387 m 3.84035,-1.0012 -0.47596,-4.42825 m 4.24199,0.25635 -0.7185,4.21849 m 3.94342,0.99351 1.53788,-4.26512 m 4.22543,1.49321 -1.69435,4.29985 m 3.96744,1.37441 1.67497,-4.13398 m -66.21247,3.74907 c 0.9407,0.511 3.7393,2.089 4.7033,2.555 1.015,0.49 4.124,1.827 5.181,2.219 0.937,0.347 3.8,1.26 4.777,1.473 0.787,0.172 3.199,0.484 4.003,0.443 1.228,-0.063 4.87,-0.697 6.071,-0.958 0.902,-0.197 3.574,-0.962 4.423,-1.327 1.238,-0.533 4.758,-2.538 5.963,-3.144 1.051,-0.528 4.218,-2.092 5.313,-2.521 1.001,-0.393 4.106,-1.284 5.14,-1.581 0.775,-0.222 3.104,-0.905 3.904,-1.015 0.62,-0.085 2.51,-0.042 3.13,0.049 0.815,0.121 3.209,0.76 3.995,1.007 0.83,0.262 3.258,1.235 4.077,1.531 0.79,0.286 3.188,1.069 3.97,1.376 0.777,0.305 3.057,1.349 3.822,1.686 m -66.8002,-4.961 c 0.906,0.46 3.6002,1.892 4.5302,2.301 1.062,0.466 4.323,1.692 5.42,2.071 0.743,0.257 3.006,0.927 3.772,1.105 0.616,0.144 2.49,0.515 3.122,0.5 1.05,-0.025 4.181,-0.463 5.206,-0.696 0.825,-0.188 3.217,-1.066 3.994,-1.4 1.119,-0.481 4.374,-2.14 5.47,-2.669 1.137,-0.55 4.54,-2.225 5.699,-2.727 1.056,-0.457 4.267,-1.737 5.371,-2.063 0.94,-0.277 3.833,-0.867 4.81,-0.942 0.831,-0.063 3.333,0.144 4.16,0.254 0.952,0.128 3.784,0.682 4.711,0.934 0.863,0.234 3.378,1.179 4.217,1.49 0.794,0.294 3.182,1.172 3.946,1.539 0.822,0.396 3.169,1.814 3.961,2.268"
       id="path10567"
       inkstitch:satin_column="True"
       inkstitch:zigzag_spacing_mm="0.8"
       inkstitch:trim_after="True"
       inkstitch:reverse_rails="none"
       inkstitch:start_at_nearest_point="False"
       inkstitch:end_at_nearest_point="False" />
    <path
       id="object9871"
       style="fill:none;stroke:#000000;stroke-width:0.105833"
       d="m 233.08108,83.741808 0.33414,-0.67145 0.33414,-0.67146 -0.33414,0.67146 -0.33414,0.67145 0.89104,-1.79054 -0.77232,3.43824 2.09169,-4.38233 -1.51347,5.1002 2.38651,-5.13666 -1.69001,5.61359 2.46038,-5.41826 -1.69792,5.73535 2.40673,-5.38762 -1.55577,5.49065 2.17493,-4.94264 -1.19554,4.75071 1.68502,-3.92085 -0.83671,4.08276 1.47584,-3.63442 -0.95949,4.5479 1.93193,-4.87571 -1.2615,5.46402 2.09641,-5.46272 -1.33327,5.82199 2.08767,-5.60952 -1.26179,5.78378 1.95695,-5.39467 -1.05147,5.33767 1.65758,-4.73174 -0.55887,4.12041 0.98153,-3.00764 -0.3782,3.97418 1.30626,-4.46272 -0.62881,5.12506 1.49664,-5.36153 -0.7164,5.76756 1.48567,-5.7639 -0.64899,5.96932 1.36755,-5.78888 -0.47242,5.78458 1.13801,-5.40395 -0.16435,5.08839 0.76602,-4.44984 0.25971,3.98192 0.27636,-3.33054 0.61566,4.22117 0.0894,-5.05434 0.83317,5.37213 -0.15359,-5.73231 1.08812,5.78978 -0.40663,-5.92989 1.27067,5.77029 -0.52508,-5.73409 1.36695,5.35692 -0.60978,-5.12356 1.39258,4.26369 -0.59369,-3.6573 1.58184,3.74179 -1.01957,-4.16865 2.00768,4.48065 -1.42887,-5.20189 2.32458,5.19516 -1.66431,-5.64417 2.48043,5.41837 -1.75915,-5.65979 2.51301,5.25376 -1.73645,-5.31858 2.40924,4.63256 -1.5535,-4.45586 2.04824,3.26706 -1.06908,-2.68746 2.25398,3.32738 -1.94823,-4.56402 2.86929,4.59057 -2.3181,-5.26218 3.13481,5.04912 -2.47701,-5.49578 3.21403,5.11139 -2.47118,-5.39452 3.1058,4.81857 -2.28727,-4.91209 2.78139,4.01508 -1.81993,-3.80316 2.51276,3.33223 -1.77844,-3.59315 2.80105,3.82398 -2.38197,-4.77469 3.22933,4.64679 -2.62732,-5.24568 3.38222,4.93209 -2.68402,-5.34754 3.35449,4.87955 -2.57174,-5.14039 3.12429,4.45351 -2.23543,-4.48881 2.51756,3.27565 -1.36596,-2.7743 2.40891,3.15007 -2.01613,-4.25772 2.91878,4.34377 -2.3668,-5.10916 3.16768,4.95126 -2.48986,-5.46318 3.20606,5.12894 -2.44431,-5.46248 3.07039,4.93798 -2.21451,-5.07547 2.72181,4.29324 -1.74271,-4.15181 2.21881,3.40879 -1.22557,-3.27493 2.18856,3.77238 -1.6372,-4.82712 2.46224,4.90797 -1.75611,-5.48141 2.52383,5.35339 -1.74493,-5.70527 2.43932,5.38496 -1.59289,-5.52767 2.22306,5.00958 -1.30956,-4.93576 1.83296,4.04241 -0.80009,-3.51508 1.48173,3.74982 -0.61778,-4.31379 1.39921,4.74805 -0.58142,-5.38449 1.34178,5.54956 -0.49021,-5.85041 1.20832,5.8111 -0.32246,-5.90201 0.99416,5.7141 -0.0646,-5.57404 0.75223,5.09668 0.16092,-4.66024 0.52224,3.85289 0.35484,-2.90166 0.15994,3.98663 0.91519,-4.86235 -0.28391,5.40214 1.23265,-5.59164 -0.54425,5.89377 1.41916,-5.82055 -0.68129,5.94655 1.50568,-5.67613 -0.70164,5.59666 1.45246,-5.11126 -0.53612,4.72441 1.16824,-3.88534 -0.47754,4.13232 1.31387,-3.90004 -0.79579,4.73722 1.79258,-5.04188 -1.15323,5.55173 2.01869,-5.51415 -1.30044,5.83209 2.10248,-5.59078 -1.32563,5.73263 2.06304,-5.30082 -1.18954,5.22941 1.81624,-4.5554 -0.68091,3.83423 1.03397,-2.50901 -0.72253,3.75772 1.90551,-4.39584 -1.35526,5.10213 2.28261,-5.15834 -1.62844,5.62528 2.4399,-5.43489 -1.71043,5.72852 2.45283,-5.35515 -1.64411,5.4755 2.30465,-4.91745 -1.36634,4.75318 1.88366,-3.89354 -0.49155,2.16584"
       inkstitch:stroke_method="manual_stitch"
       inkstitch:running_stitch_length_mm="1.5" />
    <path
       id="object7911"
       style="fill:none;stroke:#000000;stroke-width:0.105833"
       d="m 231.90742,13.942212 0.32259,-0.677079 0.32259,-0.677078 -0.32259,0.677078 -0.32259,0.677079 1.72047,-3.611083 -0.98001,3.963869 1.69423,-3.623587 -0.95377,3.976373 1.66798,-3.63609 -0.92218,3.977301 1.64135,-3.647747 -0.89457,3.981054 1.61346,-3.660191 -0.86422,3.9939 1.58449,-3.673144 -0.82673,3.98707 1.5552,-3.685374 -0.79536,4.000062 1.5242,-3.698215 -0.75419,4.017115 1.48428,-3.714745 -0.70452,4.008878 1.44408,-3.730599 -0.66291,4.021096 1.40359,-3.745659 -0.62739,4.034306 1.35381,-3.76417 -0.56828,4.042298 1.30045,-3.782961 -0.50262,4.047148 1.23148,-3.805799 -0.39715,4.062844 1.09903,-3.846266 -0.2619,4.094382 0.96613,-3.885306 -0.12043,4.10239 0.83097,-3.916152 0.018,4.119206 0.6945,-3.940692 0.16101,4.115186 0.55879,-3.968375 0.30321,4.105323 0.42026,-3.979993 0.44558,4.091212 0.2821,-3.990649 0.59591,4.037244 0.1257,-3.998949 0.77335,3.998109 -0.0523,-4.000129 0.95067,3.958131 -0.23032,-3.994738 1.12653,3.91723 -0.40787,-3.980887 1.29441,3.860222 -0.57655,-3.958377 1.43668,3.809281 -0.71895,-3.934875 1.57392,3.75868 -0.8605,-3.906638 1.69844,3.707635 -0.97824,-3.87957 1.8071,3.650612 -1.08381,-3.850411 1.90255,3.58817 -1.18905,-3.820075 2.00727,3.546665 -1.28883,-3.78673 2.08953,3.511931 -1.37353,-3.758626 2.15985,3.444689 -1.45635,-3.72556 2.23923,3.412992 -1.51453,-3.702334 2.28228,3.378442 -1.56051,-3.684017 2.32084,3.342685 -1.60564,-3.663755 2.35906,3.325528 -1.64622,-3.645543 2.38739,3.294385 -1.67564,-3.632763 2.41437,3.276362 -1.70453,-3.618829 2.44319,3.262287 -1.73359,-3.605264 2.46741,3.238869 -1.76229,-3.590963 2.49986,3.222665 -1.78373,-3.580257 2.49387,3.225655 -1.76217,-3.591023 2.47231,3.236423 -1.74061,-3.6017911 2.45074,3.2471901 -1.71904,-3.6125571 2.43164,3.2629681 -1.69705,-3.6224371 2.41195,3.2775331 -1.67534,-3.6329091 2.39024,3.2880061 -1.65364,-3.6433821 2.37472,3.3147961 -1.62371,-3.6556401 2.33577,3.3359781 -1.57878,-3.6758141 2.29214,3.3592131 -1.53333,-3.6948261 2.25821,3.4054161 -1.48758,-3.7130921 2.19647,3.4300681 -1.40795,-3.7448861 2.12705,3.4781251 -1.32291,-3.7753471 2.04275,3.5348111 -1.23107,-3.8060311 1.94626,3.56705 -1.12669,-3.840912 1.8507,3.630852 -1.01991,-3.868064 1.75034,3.681393 -0.91305,-3.894394 1.63457,3.732115 -0.77186,-3.925013 1.50014,3.789248 -0.62761,-3.951902 1.34759,3.848913 -0.47496,-3.972266 1.19819,3.894824 -0.30688,-3.988302 1.03251,3.937681 -0.13831,-3.997671 0.86324,3.976946 0.0276,-4.000485 0.69902,4.037982 0.19358,-3.995346 0.52906,4.075027 0.35977,-3.988383 0.35943,4.097129 0.52554,-3.97273 0.18739,4.118142 0.68871,-3.941872 0.0198,4.106422 0.85197,-3.910791 -0.14699,4.090816 1.01289,-3.869694 -0.31166,4.071818 1.15085,-3.83088 -0.40282,4.053687 1.21178,-3.812328 -0.47082,4.0576811 1.27222,-3.7923071 -0.53402,4.0454861 1.33261,-3.7720521 -0.60104,4.0441061 1.39231,-3.7498561 -0.66217,4.0213751 1.43285,-3.7347771 -0.70128,4.0068311 1.47285,-3.7199061 -0.74977,4.0135971 1.51213,-3.7032111 -0.78458,4.0045291 1.55167,-3.6868421 -0.83055,3.9854951 1.59063,-3.6707051 -0.87496,3.9820331 1.62904,-3.6532461 -0.9049,3.9764481 1.65082,-3.6435201 -0.92669,3.9685541 1.67209,-3.6341301 -0.95552,3.9755371 1.69308,-3.6241331 -0.9765,3.9655411 1.71406,-3.614136 -1.4952,3.718409 1.72046,-3.611083 -0.32259,0.677079 -0.32258,0.677079 0.32258,-0.677079 0.32259,-0.677079"
       inkstitch:stroke_method="manual_stitch"
       inkstitch:running_stitch_length_mm="1.5" />
    <path
       id="object8731"
       style="fill:none;stroke:#000000;stroke-width:0.105833"
       d="m 231.07312,120.72468 0.35009,-0.66328 0.35009,-0.66328 -0.35009,0.66328 -0.35009,0.66328 1.6721,-3.168 -0.94259,3.57102 1.64499,-3.20688 -0.91547,3.60991 1.61786,-3.24577 -0.88836,3.6488 1.59075,-3.28466 -0.85678,3.67949 1.56387,-3.32459 -0.82871,3.71722 1.53707,-3.36482 -0.80192,3.75745 1.51027,-3.40504 -0.77689,3.75913 1.51911,-3.43481 -0.79397,3.75763 1.55368,-3.45673 -0.82854,3.77956 1.58825,-3.47868 -0.86283,3.80083 1.62278,-3.50055 -0.88878,3.80267 1.65556,-3.52028 -0.92155,3.8224 1.68832,-3.54001 -0.95432,3.84213 1.7211,-3.55974 -0.92661,3.85357 1.65149,-3.60568 -0.7976,3.88872 1.47308,-3.67927 -0.61918,3.96232 1.29466,-3.75287 -0.43555,4.01941 1.11543,-3.825 -0.25323,4.08146 0.93495,-3.89332 -0.0652,4.12305 0.74692,-3.93491 0.14141,4.07634 0.5506,-3.9347 0.33889,4.06907 0.35368,-3.93117 0.53974,4.03408 0.15646,-3.91672 0.7403,3.98172 -0.04,-3.89497 0.92066,3.87014 -0.20277,-3.86539 1.07089,3.77203 -0.32681,-3.82991 1.19033,3.70101 -0.44934,-3.7898 1.31258,3.65883 -0.57177,-3.74943 1.431,3.59446 -0.69259,-3.70274 1.55147,3.54567 -0.81327,-3.65549 1.67215,3.49843 -0.93785,-3.63165 1.77448,3.45113 -1.04144,-3.61771 1.85901,3.39769 -1.11634,-3.62252 1.93392,3.40249 -1.19959,-3.65371 2.01137,3.41363 -1.28312,-3.68166 2.09076,3.42785 -1.3656,-3.70441 2.16179,3.41644 -1.43663,-3.693 2.20192,3.32401 -1.50785,-3.65235 2.26452,3.27271 -1.57548,-3.60334 2.32216,3.2042 -1.63311,-3.53483 2.37979,3.13569 -1.69075,-3.46632 2.4362,3.06489 -1.75136,-3.40414 2.49676,3.00262 -1.81212,-3.34226 2.55753,2.94074 -1.87288,-3.28038 2.61827,2.87885 -1.93362,-3.21849 2.62946,2.87557 -1.88342,-3.23849 2.58389,2.89419 -1.82983,-3.26084 2.53031,2.91654 -1.77625,-3.28318 2.47774,2.94099 -1.72278,-3.30576 2.42842,2.97215 -1.66983,-3.32932 2.37575,2.99635 -1.61715,-3.35351 2.33223,3.04066 -1.57363,-3.39783 2.29364,3.11221 -1.53364,-3.44847 2.27181,3.19486 -1.49776,-3.50843 2.24335,3.27759 -1.4693,-3.59117 2.21519,3.36127 -1.44113,-3.67484 2.19026,3.45572 -1.40954,-3.75228 2.15873,3.53338 -1.37786,-3.82956 2.12706,3.61067 -1.33689,-3.88107 2.05553,3.67453 -1.23463,-3.91408 1.93477,3.71604 -1.07445,-3.92025 1.77458,3.72221 -0.90953,-3.90598 1.61274,3.71928 -0.74416,-3.88523 1.44968,3.70783 -0.57889,-3.86141 1.29135,3.71375 -0.41502,-3.83258 1.1021,3.7887 -0.18767,-3.79264 0.87558,3.79225 0.0384,-3.74303 0.64926,3.76036 0.26287,-3.68654 0.42375,3.7251 0.48762,-3.64096 0.21804,3.73844 0.67093,-3.62526 0.0535,3.77963 0.79666,-3.62847 -0.0772,3.80513 0.92736,-3.65396 -0.2115,3.84439 1.05739,-3.67159 -0.34348,3.86951 1.18701,-3.68488 -0.4731,3.88279 1.31664,-3.69817 -0.57503,3.96267 1.36196,-3.7237 -0.61718,3.99817 1.38836,-3.73391 -0.64399,4.00951 1.41224,-3.73666 -0.67089,4.02026 1.43586,-3.73829 -0.69451,4.0219 1.45947,-3.73994 -0.71173,4.01435 1.47351,-3.732 -0.70998,3.99321 1.4719,-3.70825 -0.70836,3.96947 1.47028,-3.68451 -0.70839,3.95045 1.46393,-3.64911 -0.70252,3.91644 1.45618,-3.6103 -0.70316,3.88471 1.45584,-3.56253 -0.75193,3.86791 1.49088,-3.47164 -0.78698,3.77701 1.51371,-3.35874 -0.81151,3.668 1.53663,-3.24695 -0.83652,3.56092 1.55968,-3.1365 -0.85957,3.45048 1.58272,-3.02606 -1.15379,2.66212 1.1123,-2.09719 -0.35142,0.66257 -0.35141,0.66258 0.35141,-0.66258 0.35142,-0.66257"
       inkstitch:stroke_method="manual_stitch"
       inkstitch:running_stitch_length_mm="1.5" />
    <path
       id="path14495"
       style="fill:none;fill-rule:evenodd;stroke:#000000;stroke-width:0.264583;stroke-linecap:square;stroke-linejoin:bevel"
       d="m 76.205119,213.00253 c 0,0 10.92383,7.35188 16.227084,5.2917 9.942087,-3.86226 19.414467,-20.09422 32.454177,-10.5834 10.27119,7.49152 16.94544,5.94733 16.2271,5.2917 m -64.908361,-5.2917 c 0,0 9.99754,3.37865 15.437227,1.71172 7.701458,-2.36003 19.800894,-8.32832 33.244034,-7.00342 5.66194,0.55802 16.2271,5.2917 16.2271,5.2917 m -55.132347,-1.41904 5.150081,14.41864 m 22.405626,-12.73327 7.17267,-8.40953 m 14.28082,1.9591 -1.96682,14.11426"
       inkstitch:satin_column="True"
       inkstitch:zigzag_spacing_mm="0.8"
       inkstitch:reverse_rails="none"
       inkstitch:start_at_nearest_point="False"
       inkstitch:end_at_nearest_point="False" />
    <path
       id="object6474"
       style="fill:none;stroke:#000000;stroke-width:0.105833"
       d="m 232.92265,212.69531 v -0.75 -0.74999 0.74999 0.75 -5.29169 l 0.79251,5.79569 -0.13591,-5.59563 0.93625,6.08725 -0.27965,-5.88718 1.09295,6.35681 -0.43302,-6.16842 1.25055,6.63088 -0.58718,-6.45455 1.41044,6.90648 -0.74707,-6.73016 1.57993,7.1644 -0.91161,-7.00826 1.7565,7.41859 -1.08674,-7.26838 1.93891,7.66308 -1.26914,-7.51286 2.12793,7.89324 -1.4559,-7.7541 2.32961,8.09884 -1.65475,-7.97345 2.53644,8.29638 -1.85934,-8.18418 2.74959,8.48364 -2.07122,-8.37895 2.97828,8.62256 -2.29731,-8.53701 3.20016,8.73939 -2.52803,-8.66052 3.44008,8.8195 -2.76551,-8.76637 3.68928,8.83114 -3.01435,-8.78165 3.86184,8.78311 -3.10846,-8.7671 3.88143,8.6642 -3.03982,-8.66812 3.79262,8.46616 -2.95145,-8.50478 3.67357,8.20973 -2.83804,-8.31261 3.54568,7.98409 -2.71929,-8.13954 3.41424,7.78456 -2.60003,-7.99695 3.28049,7.6146 -2.48192,-7.88168 3.14856,7.4759 -2.34999,-7.74298 3.005,7.3189 -2.20643,-7.58598 2.85016,7.1446 -2.0538,-7.41806 2.69753,6.97667 -1.90497,-7.26109 2.53802,6.80481 -1.74546,-7.08923 2.3702,6.62134 -1.57764,-6.90576 2.20237,6.43787 -1.40981,-6.72229 2.02941,6.24769 -1.23427,-6.52481 1.85018,6.04536 -1.05503,-6.32246 1.67094,5.84302 -0.87579,-6.12011 1.4917,5.64066 -0.69655,-5.91776 1.31246,5.43832 -0.51607,-5.71172 1.14242,5.22415 -0.32778,-5.48806 0.95924,5.00721 -0.1446,-5.27113 0.78142,4.79731 0.0373,-5.04813 0.59951,4.57431 0.22073,-4.82025 0.41439,4.36686 0.39322,-4.60507 0.25202,4.16588 0.56082,-4.38574 0.0844,3.94656 0.72843,-4.16641 -0.0745,3.74072 0.89068,-3.94719 -0.22599,3.53805 1.04549,-3.73161 -0.36596,3.34765 1.18546,-3.54122 -0.49704,3.17384 1.32184,-3.34292 -0.62409,2.99325 1.45023,-3.15616 -0.7358,2.84183 1.56218,-3.00335 -0.83672,2.71631 1.66901,-2.84416 -0.93331,2.58439 1.7656,-2.71224 -1.01683,2.4919 1.85032,-2.61042 -1.08962,2.43708 1.92702,-2.52543 -1.15901,2.38999 1.99641,-2.47833 -1.22197,2.38227 2.06073,-2.45347 -1.2534,2.42146 2.05866,-2.46403 -1.19984,2.48784 1.94202,-2.52708 -1.07392,2.61089 1.8278,-2.63919 -0.96684,2.78131 1.72148,-2.77806 -0.8744,2.98971 1.62904,-2.98645 -0.80114,3.26193 1.55578,-3.25868 -0.74444,3.57896 1.49815,-3.54134 -0.70423,3.90469 1.45739,-3.85876 -0.68347,4.29041 1.44698,-4.22771 -0.68964,4.68696 1.45012,-4.59638 -0.71524,5.09193 1.47275,-4.97912 -0.74211,5.48087 1.49394,-5.33381 -0.76477,5.83774 1.51223,-5.67066 -0.79028,6.16144 1.5239,-5.98453 -0.78041,6.44232 1.50843,-6.24376 -0.76495,6.70155 1.49171,-6.49842 -0.73067,6.92588 1.44989,-6.69738 -0.6825,7.11386 1.40173,-6.88536 -0.6227,7.27887 1.34192,-7.05036 -0.56421,7.41722 1.26995,-7.18454 -0.48267,7.52949 1.18243,-7.27907 -0.38468,7.60004 1.08443,-7.34962 -0.2719,7.64235 0.98143,-7.38844 -0.16586,7.66095 0.87549,-7.39483 -0.0457,7.62009 0.75257,-7.34644 0.0834,7.54585 0.62338,-7.27219 0.22061,7.43625 0.48479,-7.15901 0.368,7.26927 0.33344,-6.98208 0.5376,7.0389 0.17462,-6.74728 0.69792,6.73259 0.0113,-6.43376 0.86208,6.29176 -0.14442,-5.98298 0.61567,5.5566 v -5.29169 0.75 0.75 -0.75 -0.75"
       inkstitch:stroke_method="manual_stitch"
       inkstitch:running_stitch_length_mm="1.5" />
    <text
       xml:space="preserve"
       style="font-style:normal;font-variant:normal;font-weight:bold;font-stretch:normal;font-size:9.525px;line-height:1;font-family:Barlow;-inkscape-font-specification:'Barlow Bold';letter-spacing:0px;fill:#ff0000;fill-opacity:1;stroke-width:0.264583"
       x="56.830894"
       y="15.444835"
       id="text14653"><tspan
         sodipodi:role="line"
         id="tspan14651"
         style="font-style:normal;font-variant:normal;font-weight:bold;font-stretch:normal;font-size:9.525px;font-family:Barlow;-inkscape-font-specification:'Barlow Bold';fill:#ff0000;fill-opacity:1;stroke-width:0.264583"
         x="56.830894"
         y="15.444835">1.</tspan></text>
    <text
       xml:space="preserve"
       style="font-style:normal;font-variant:normal;font-weight:bold;font-stretch:normal;font-size:9.525px;line-height:1;font-family:Barlow;-inkscape-font-specification:'Barlow Bold';letter-spacing:0px;fill:#ff0000;fill-opacity:1;stroke-width:0.264583"
       x="57.615334"
       y="86.195045"
       id="text14707"><tspan
         sodipodi:role="line"
         id="tspan14705"
         style="font-style:normal;font-variant:normal;font-weight:bold;font-stretch:normal;font-size:9.525px;font-family:Barlow;-inkscape-font-specification:'Barlow Bold';fill:#ff0000;fill-opacity:1;stroke-width:0.264583"
         x="57.615334"
         y="86.195045">3.</tspan></text>
    <text
       xml:space="preserve"
       style="font-style:normal;font-variant:normal;font-weight:bold;font-stretch:normal;font-size:9.525px;line-height:1;font-family:Barlow;-inkscape-font-specification:'Barlow Bold';letter-spacing:0px;fill:#ff0000;fill-opacity:1;stroke-width:0.264583"
       x="57.615334"
       y="123.51128"
       id="text14711"><tspan
         sodipodi:role="line"
         id="tspan14709"
         style="font-style:normal;font-variant:normal;font-weight:bold;font-stretch:normal;font-size:9.525px;font-family:Barlow;-inkscape-font-specification:'Barlow Bold';fill:#ff0000;fill-opacity:1;stroke-width:0.264583"
         x="57.615334"
         y="123.51128">4.</tspan></text>
    <text
       xml:space="preserve"
       style="font-style:normal;font-variant:normal;font-weight:bold;font-stretch:normal;font-size:9.525px;line-height:1;font-family:Barlow;-inkscape-font-specification:'Barlow Bold';letter-spacing:0px;fill:#ff0000;fill-opacity:1;stroke-width:0.264583"
       x="57.929951"
       y="162.83862"
       id="text2"><tspan
         sodipodi:role="line"
         id="tspan2"
         style="font-style:normal;font-variant:normal;font-weight:bold;font-stretch:normal;font-size:9.525px;font-family:Barlow;-inkscape-font-specification:'Barlow Bold';fill:#ff0000;fill-opacity:1;stroke-width:0.264583"
         x="57.929951"
         y="162.83862">5.</tspan></text>
    <text
       xml:space="preserve"
       style="font-style:normal;font-variant:normal;font-weight:bold;font-stretch:normal;font-size:9.525px;line-height:1;font-family:Barlow;-inkscape-font-specification:'Barlow Bold';letter-spacing:0px;fill:#ff0000;fill-opacity:1;stroke-width:0.264583"
       x="56.986095"
       y="213.44502"
       id="text14715"><tspan
         sodipodi:role="line"
         id="tspan14713"
         style="font-style:normal;font-variant:normal;font-weight:bold;font-stretch:normal;font-size:9.525px;font-family:Barlow;-inkscape-font-specification:'Barlow Bold';fill:#ff0000;fill-opacity:1;stroke-width:0.264583"
         x="56.986095"
         y="213.44502">6.</tspan></text>
    <path
       style="opacity:0.407055;fill:none;fill-opacity:1;fill-rule:evenodd;stroke:#ff0000;stroke-width:0.665;stroke-linecap:square;stroke-linejoin:bevel;stroke-opacity:1;marker-end:url(#Arrow5)"
       d="m 176.06129,15.246808 c 11.77129,8.42737 21.11202,6.9912 29.08388,0"
       id="path14864"
       sodipodi:nodetypes="cc"
       inkstitch:running_stitch_length_mm="1.5"
       inkstitch:stroke_method="zigzag_stitch" />
    <path
       style="opacity:0.407055;fill:none;fill-opacity:1;fill-rule:evenodd;stroke:#ff0000;stroke-width:0.665;stroke-linecap:square;stroke-linejoin:bevel;stroke-opacity:1;marker-end:url(#Arrow5)"
       d="m 128.68921,93.954858 c 11.77129,8.427372 21.11202,6.991202 29.08388,0"
       id="path15089"
       sodipodi:nodetypes="cc"
       inkstitch:running_stitch_length_mm="1.5"
       inkstitch:stroke_method="zigzag_stitch" />
    <path
       style="opacity:0.407055;fill:none;fill-opacity:1;fill-rule:evenodd;stroke:#ff0000;stroke-width:0.665;stroke-linecap:square;stroke-linejoin:bevel;stroke-opacity:1;marker-end:url(#Arrow5)"
       d="m 211.6636,93.954858 c 11.77129,8.427372 21.11202,6.991202 29.08388,0"
       id="path15093"
       sodipodi:nodetypes="cc"
       inkstitch:running_stitch_length_mm="1.5"
       inkstitch:stroke_method="zigzag_stitch" />
    <path
       style="opacity:0.407055;fill:none;fill-opacity:1;fill-rule:evenodd;stroke:#ff0000;stroke-width:0.665;stroke-linecap:square;stroke-linejoin:bevel;stroke-opacity:1;marker-end:url(#Arrow5)"
       d="m 128.68921,132.64878 c 11.77129,8.42737 21.11202,6.9912 29.08388,0"
       id="path15099"
       sodipodi:nodetypes="cc"
       inkstitch:running_stitch_length_mm="1.5"
       inkstitch:stroke_method="zigzag_stitch" />
    <path
       style="opacity:0.407055;fill:none;fill-opacity:1;fill-rule:evenodd;stroke:#ff0000;stroke-width:0.665;stroke-linecap:square;stroke-linejoin:bevel;stroke-opacity:1;marker-end:url(#Arrow5)"
       d="m 211.6636,132.64878 c 11.77129,8.42737 21.11202,6.9912 29.08388,0"
       id="path15103"
       sodipodi:nodetypes="cc"
       inkstitch:running_stitch_length_mm="1.5"
       inkstitch:stroke_method="zigzag_stitch" />
    <path
       style="opacity:0.407055;fill:none;fill-opacity:1;fill-rule:evenodd;stroke:#ff0000;stroke-width:0.665;stroke-linecap:square;stroke-linejoin:bevel;stroke-opacity:1;marker-end:url(#Arrow5)"
       d="m 108.23899,178.58311 c 11.77129,8.42737 21.11202,6.9912 29.08388,0"
       id="path3"
       sodipodi:nodetypes="cc"
       inkstitch:running_stitch_length_mm="1.5"
       inkstitch:stroke_method="zigzag_stitch" />
    <path
       style="opacity:0.407055;fill:none;fill-opacity:1;fill-rule:evenodd;stroke:#ff0000;stroke-width:0.665;stroke-linecap:square;stroke-linejoin:bevel;stroke-opacity:1;marker-end:url(#Arrow5)"
       d="m 236.05161,182.57868 c 11.77129,8.42737 21.11202,6.9912 29.08388,0"
       id="path4"
       sodipodi:nodetypes="cc"
       inkstitch:running_stitch_length_mm="1.5"
       inkstitch:stroke_method="zigzag_stitch" />
    <path
       style="opacity:0.407055;fill:none;fill-opacity:1;fill-rule:evenodd;stroke:#ff0000;stroke-width:0.665;stroke-linecap:square;stroke-linejoin:bevel;stroke-opacity:1;marker-end:url(#Arrow5-0)"
       d="m 175.09837,178.58311 c 11.77129,8.42737 21.11202,6.9912 29.08388,0"
       id="path4-4"
       sodipodi:nodetypes="cc"
       inkstitch:running_stitch_length_mm="1.5"
       inkstitch:stroke_method="zigzag_stitch" />
    <path
       style="opacity:0.407055;fill:none;fill-opacity:1;fill-rule:evenodd;stroke:#ff0000;stroke-width:0.665;stroke-linecap:square;stroke-linejoin:bevel;stroke-opacity:1;marker-end:url(#Arrow5)"
       d="m 165.14451,210.13032 h 43.37138"
       id="path15109"
       sodipodi:nodetypes="cc"
       inkstitch:running_stitch_length_mm="1.5"
       inkstitch:stroke_method="zigzag_stitch" />
    <path
       style="fill:#000000;fill-rule:evenodd;stroke:none;stroke-width:0.999998"
       d="m 66.750642,163.39024 11.708823,-9.12526 c 0,0 1.994115,2.50936 14.6235,2.82398 12.629385,0.31462 24.150935,-3.56011 24.150935,-3.56011 l 4.8745,-9.75317 3.76665,7.23623 c 0,0 -6.20391,8.18008 -12.18624,14.15783 -5.98234,5.97776 -9.19551,0.0947 -16.507249,-0.53457 -4.355531,-0.37483 -2.89401,15.06792 0.842937,22.98674 -4.43886,4.01803 -10.461093,3.0919 -10.461093,3.0919 L 86.37782,164.6444 Z"
       id="path2"
       sodipodi:nodetypes="ccscccsscccc" />
    <path
       style="fill:#000000;fill-rule:evenodd;stroke:none;stroke-width:0.999998"
       d="m 133.62363,160.56462 11.70882,-9.12526 c 0,0 1.99411,2.50936 14.6235,2.82398 12.62938,0.31462 24.15093,-3.56011 24.15093,-3.56011 l 4.8745,-9.75317 3.76665,7.23623 c 0,0 -6.20391,8.18008 -12.18624,14.15783 -5.98234,5.97776 -9.19551,0.0947 -16.50724,-0.53457 -4.35554,-0.37483 -2.89401,15.06792 0.84293,22.98674 -4.43886,4.01803 -10.46109,3.0919 -10.46109,3.0919 l -1.18559,-26.06941 z"
       id="path9"
       sodipodi:nodetypes="ccscccsscccc" />
    <path
       id="path15"
       style="fill:none;fill-rule:evenodd;stroke:#913697;stroke-width:1"
       d="m 183.24337,144.34941 12.87226,0.94186 m -30.45389,19.77934 5.02332,-18.5235 m -25.43057,16.95371 12.24435,-14.75601 m -21.66308,5.33728 1.88375,13.18622 m 12.5583,16.95372 17.58163,-3.13958 m -16.16882,-18.20954 c 5.51124,-1.23746 8.7178,-1.31911 12.55831,0.78488 m -17.73861,-7.53497 25.58755,2.51166" />
    <g
       inkscape:label="Groupe de Satins"
       id="g18"
       transform="translate(0,45.109813)">
      <path
         d="m 218.73962,143.17296 -2.14,-0.081 -0.199,-4.373 -0.953,-20.973 m 9,24.032 2.613,-1.778 -1.179,-2.974 -0.109,-0.302 -0.55,-1.818 -0.483,-1.891 -0.407,-1.931 -0.329,-1.936 -0.244,-1.907 -0.155,-1.844 -0.06,-1.747 0.041,-1.616 0.145,-1.45 0.256,-1.25 0.171,-0.54 0.201,-0.477 0.181,-0.322 m -12.098,21.431 17.581,-3.139"
         style="fill:none;stroke:#000000;stroke-width:0.264583"
         inkstitch:satin_column="True"
         inkstitch:pull_compensation_mm="0.2"
         inkscape:label="Colonne satin 1"
         id="path17" />
      <path
         d="m 251.62362,97.074258 1.588,3.050102 1.7,3.2656 -1.063,1.372 -2.787,3.465 -1.852,2.215 -2.056,2.372 -2.187,2.41 -2.241,2.324 -0.553,0.526 -0.538,0.46 -0.525,0.397 -0.511,0.336 -0.501,0.28 -0.491,0.226 -0.482,0.174 -0.474,0.128 -0.469,0.083 -0.463,0.042 -0.917,-0.028 -0.913,-0.155 -0.918,-0.258 -0.934,-0.336 -0.96,-0.388 -2.036,-0.832 -1.097,-0.394 -1.163,-0.347 -0.182,-0.04 -19.453,-0.8 -10.192,-0.651 -3.167,-0.202 m 55.358,-19.615002 -1.841,3.6846 -3.033,6.068402 -1.998,0.601 -2.314,0.609 -3.028,0.688 -1.743,0.345 -1.877,0.329 -1.994,0.302 -2.096,0.263 -0.359,0.035 -1.824,0.177 -2.254,0.149 -2.312,0.074 -2.352,-0.012 -2.246,-0.083 -2.009,-0.128 -1.785,-0.166 -0.619,-0.077 -0.954,-0.12 -1.375,-0.22 -1.189,-0.238 -1.016,-0.247 -0.855,-0.251 -0.707,-0.247 -0.572,-0.236 -0.788,-0.414 -0.398,-0.288 -0.111,-0.109 -8.885,6.925 -2.131,1.661 m 48.927,-15.675602 12.872,0.941602 m -30.453,19.779 5.023,-18.523 m -25.431,16.954 12.245,-14.756 m -21.663,5.337 1.883,13.186"
         style="fill:none;stroke:#000000;stroke-width:0.264583"
         inkstitch:satin_column="True"
         inkstitch:pull_compensation_mm="0.2"
         inkscape:label="Colonne satin 0"
         id="path18" />
    </g>
    <path
       id="object4496"
       style="fill:none;stroke:#000000;stroke-width:0.105833;stroke-linecap:round;stroke-linejoin:round"
       d="m 274.96915,186.4238 0.72856,-0.17806 0.72855,-0.17805 -0.72855,0.17805 -0.72856,0.17806 6.09656,-1.48997 -7.26611,1.44758 8.20996,-2.09204 -9.16701,2.05674 9.93939,-2.58339 -9.97086,2.1912 10.29466,-2.40592 -10.31389,2.00162 10.63754,-2.21642 -10.65643,1.81327 10.87597,-2.0611 -10.8942,1.66128 10.75044,-2.02378 -10.76867,1.62395 10.62491,-1.98645 -10.64314,1.58661 10.49938,-1.94911 -10.51761,1.54927 10.37386,-1.91175 -10.39209,1.5119 10.24833,-1.87438 -10.26657,1.47452 10.12281,-1.837 -10.14104,1.43714 9.99729,-1.7996 -10.01568,1.39629 9.87129,-1.76136 -9.88956,1.36113 9.76703,-1.70976 -9.7853,1.30956 9.67819,-1.66335 -9.69645,1.26314 9.58934,-1.61692 -9.6076,1.2167 9.50049,-1.57046 -9.51876,1.17022 9.41165,-1.52397 -9.42991,1.12372 9.32335,-1.47761 -9.34161,1.07739 9.25008,-1.43549 -9.26833,1.03525 9.1768,-1.39335 -9.19506,0.9931 9.10353,-1.35118 -9.12178,0.95093 9.03024,-1.30901 -9.0485,0.90873 8.95697,-1.26679 -8.97522,0.86653 8.89535,-1.22732 -8.9136,0.82706 8.83733,-1.18869 -8.85558,0.78842 8.77931,-1.15003 -8.79755,0.74975 8.72128,-1.11136 -8.73953,0.71107 8.66326,-1.07266 -8.6815,0.67236 8.61145,-1.03514 -8.62969,0.63485 8.56774,-0.99918 -8.58598,0.59889 8.52403,-0.96321 -8.54227,0.5629 8.48031,-0.9272 -8.49854,0.52689 8.43659,-0.89119 -8.45483,0.49086 8.39484,-0.85545 -8.41307,0.45514 8.36615,-0.82168 -8.38437,0.42136 8.33745,-0.78789 -8.35568,0.38757 8.30876,-0.7541 -8.32698,0.35376 8.28005,-0.72029 -8.29827,0.31995 8.25134,-0.68646 -8.26956,0.28613 8.23763,-0.65424 -8.25584,0.2539 8.22488,-0.62211 -8.2431,0.22177 8.21214,-0.58998 -8.23035,0.18964 8.19939,-0.55784 -8.2176,0.15749 8.18664,-0.52569 -8.20484,0.12534 8.19109,-0.49456 -8.20929,0.0942 8.19663,-0.46349 -8.21483,0.0631 8.20216,-0.43242 -8.22036,0.0321 8.20769,-0.40136 -8.22588,0.001 8.21806,-0.37031 -8.23625,-0.0301 8.24567,-0.3393 -8.26386,-0.0611 8.27328,-0.30831 -8.29146,-0.0921 8.30088,-0.27732 -8.31906,-0.12303 8.32847,-0.24634 -8.34665,-0.15406 8.3795,-0.21381 -8.39768,-0.18659 8.43454,-0.18102 -8.45271,-0.21936 8.48957,-0.14827 -8.50774,-0.25211 8.54459,-0.11552 -8.56276,-0.28498 8.63399,-0.0773 -8.65215,-0.32318 8.72644,-0.0386 -8.7446,-0.36183 8.81889,-10e-6 -8.83704,-0.40055 8.92902,0.0434 -8.94717,-0.44403 9.05894,0.0921 -9.07708,-0.49296 9.21898,0.15235 -9.23711,-0.55339 9.40135,0.22367 -9.40957,-0.40563 4.74592,0.12997 4.74592,0.12998 -4.74592,-0.12998 4.546,0.1245 -0.74972,-0.0205 -0.74972,-0.0205 0.74972,0.0205 0.74972,0.0205"
       inkstitch:stroke_method="manual_stitch"
       inkstitch:trim_after="true" />
    <path
       id="object8985"
       style="fill:none;stroke:#000000;stroke-width:0.105833;stroke-linecap:round;stroke-linejoin:round"
       d="m 281.00462,156.50616 -0.74994,-0.009 -0.74993,-0.009 0.74993,0.009 0.74994,0.009 -2.1002,-0.0264 1.77773,0.0236 2.42423,-0.002 2.42398,-0.0348 2.41133,0.25451 2.38062,0.46036 2.40821,0.28435 2.39697,-0.37191 2.18518,-1.05366 2.02543,-1.33522 1.98577,-1.39355 1.95124,-1.44151 1.77465,-1.65563 1.36957,-2.00368 1.35691,-2.01228 0.12438,-1.41498 -0.18609,-2.48015 0.0934,-2.48537 0.33183,0.63756 -0.66367,-1.27512 0.90699,1.60124 -1.18065,-1.1194 1.35821,1.38577 -1.56034,-0.99811 1.72755,1.27061 -1.91933,-0.88908 2.0809,1.16712 -2.26704,-0.79114 2.42557,1.0734 -2.60866,-0.70162 2.76547,0.98695 -2.94686,-0.61825 3.1027,0.90581 -3.2831,-0.53935 3.43834,0.82856 -3.61814,-0.46374 3.78217,0.77142 -3.97222,-0.38636 4.13903,0.70165 -4.32547,-0.32488 4.54219,0.74882 -4.66719,-0.50403 4.88842,0.93591 -5.01599,-0.68488 5.24152,1.12431 -5.37156,-0.86753 5.60112,1.31411 -5.73348,-1.05203 5.96684,1.50535 -6.1014,-1.23838 6.33829,1.698 -6.47491,-1.42653 6.7151,1.89207 -6.85364,-1.61646 6.74835,2.0116 -6.87391,-1.76228 6.60585,2.11106 -6.721,-1.88264 6.45527,2.22832 -6.56922,-2.00214 6.30572,2.34487 -6.41852,-2.12082 6.15189,2.45892 -6.26406,-2.23588 5.99696,2.57041 -5.19204,-1.99652 4.93959,2.31261 -5.96083,-2.45576 5.70821,2.77195 -4.94108,-2.17844 4.68828,2.49471 -5.66489,-2.67016 5.41192,2.98653 -4.68893,-2.36098 4.43576,2.67741 -5.36749,-2.88523 5.11411,3.20173 -4.43546,-2.54402 4.18188,2.86058 -5.06847,-3.10082 4.81467,3.41741 -4.18056,-2.72743 3.92654,3.04405 -4.76771,-3.31672 4.50959,3.63017 -3.92087,-2.9083 3.66051,3.2201 -4.45539,-3.52469 4.19479,3.83649 -3.65289,-3.08366 3.39204,3.39542 -4.13914,-3.73092 3.87758,4.04311 -3.47624,-3.37105 3.21471,3.68285 -4.05186,-4.2139 3.79044,4.52527 -3.41211,-3.79184 3.14842,4.1008 -3.97447,-4.7053 3.70788,5.01133 -3.34214,-4.20437 3.07568,4.51007 -3.88965,-5.18669 3.62335,5.49209 -3.27053,-4.61249 3.00439,4.91762 -3.80604,-5.66568 3.54003,5.97056 -3.20028,-5.01988 2.93439,5.32457 -3.72615,-6.15209 3.46042,6.45656 -3.13444,-5.4383 2.85017,5.755 -3.64278,-6.65282 3.35466,6.96822 -3.05599,-5.87001 2.76586,6.1876 -3.54774,-7.16051 3.25556,7.48037 -3.50016,-7.41675 3.20587,7.73892 -3.45252,-7.67466 3.15609,7.9992 -3.4048,-7.93431 3.10622,8.26126 -3.35701,-8.19573 3.05541,8.52436 -3.30977,-8.46434 3.00125,8.78236 -3.25456,-8.72526 2.94389,9.04553 -3.19921,-8.98791 2.88638,9.31046 -3.1437,-9.25232 2.82869,9.57715 -3.08802,-9.5185 2.77083,9.84561 -3.03217,-9.78646 2.71281,10.11587 -2.97614,-10.05622 2.65461,10.3879 -2.91992,-10.32777 2.59042,10.64209 -2.85187,-10.5828 2.51726,10.89204 -2.77895,-10.83266 2.43791,11.12282 -2.69491,-11.06448 2.34698,11.33842 -2.60134,-11.28155 2.24766,11.54283 -2.50149,-11.49266 2.14093,11.72865 -2.38944,-11.67949 2.02227,11.89398 -1.92739,-10.06862 1.57137,10.25545 -2.14332,-11.98635 1.7775,12.15402 -1.70787,-10.29187 1.32956,10.42927 -1.86261,-12.19953 1.47701,12.31424 -1.45234,-10.42802 1.06004,10.51695 -1.5488,-12.31587 1.15108,12.37705 -1.17606,-10.48572 0.77487,10.51725 -1.21491,-12.32674 0.81245,12.31478 -0.88823,-10.43273 0.48573,10.42073 -0.87498,-12.22078 0.47698,12.16454 -0.60313,-10.30497 0.20615,10.23815 -0.54514,-12.01558 0.15277,11.92841 -0.32756,-10.1042 -0.0601,9.99604 -0.23121,-11.74307 -0.15552,11.63194 -0.0663,-9.85679 -0.33741,9.71254 0.0769,-11.41388 -0.47872,11.27028 0.2312,-11.23234 -0.63078,11.07604 0.38188,-11.03784 -0.77947,10.87819 0.53107,-10.84001 -0.92668,10.68056 0.67956,-10.64252 -1.07323,10.48267 0.70315,-8.87802 -1.07639,8.72645 0.96665,-10.26231 -1.33999,10.11069 0.94022,-8.56856 -1.31365,8.41688 1.24582,-9.89887 -1.61936,9.74712 1.17786,-8.25942 -1.5572,8.12224 1.53158,-9.54953 -1.91157,9.41372 1.42647,-7.97589 -1.80656,7.84 1.82502,-9.2171 -2.21208,9.10187 1.68211,-7.71065 -2.06927,7.5954 2.13306,-8.92555 -2.52024,8.81022 1.94351,-7.46817 -2.34153,7.41485 2.41101,-8.70507 -2.81276,8.68804 2.49924,-8.65682 -2.901,8.63977 2.58749,-8.60852 -2.98925,8.59144 2.67574,-8.56017 -3.0775,8.54306 2.76399,-8.51177 -3.16575,8.49464 2.85225,-8.46332 -3.25396,8.44618 2.93982,-8.42183 -3.34149,8.40468 3.02711,-8.38305 -3.42878,8.36588 3.11438,-8.34423 -3.51605,8.32703 3.20166,-8.30535 -3.62577,8.28717 3.29379,-8.26426 -3.71955,8.24598 3.38627,-8.22295 -3.81376,8.20458 3.4791,-8.18144 -3.90832,8.163 3.5717,-8.14886 -4.0027,8.13033 3.6645,-8.11856 -4.09734,8.09993 3.75766,-8.08808 -4.19244,8.06935 3.85122,-8.05743 -4.28798,8.03859 3.94516,-8.0266 -4.384,8.00766 4.03953,-7.99559 -4.48052,7.97653 4.13432,-7.96513 -4.57739,7.94603 4.22912,-7.94686 -4.67434,7.92765 4.32435,-7.92847 -4.77177,7.90915 4.42001,-7.90996 -4.86971,7.89054 4.51612,-7.89135 -4.96816,7.8718 4.61268,-7.8726 -5.06713,7.85295 4.70972,-7.85374 -5.16659,7.83399 4.80725,-7.83979 -5.26653,7.81998 4.90527,-7.83239 -5.36698,7.81246 5.00376,-7.82493 -5.46796,7.80489 5.10274,-7.81743 -5.56948,7.79727 5.20221,-7.80988 -5.67155,7.78961 5.30219,-7.80228 -5.77415,7.78191 5.40278,-7.7978 -5.87733,7.77736 5.5041,-7.80025 -5.98124,7.77969 5.60593,-7.8027 -6.0857,7.78204 5.70828,-7.80518 -6.19071,7.7844 5.81114,-7.80768 -6.2963,7.78678 5.91455,-7.81026 -6.40235,7.78933 6.01915,-7.82415 -6.50953,7.80311 6.12426,-7.83813 -6.61725,7.81698 6.22989,-7.85219 -6.72551,7.83094 6.33603,-7.86635 -6.83427,7.84502 6.44316,-7.88562 -6.94391,7.86424 6.55144,-7.91236 -6.83768,7.89786 6.3771,-7.95741 -5.69479,6.7436 5.22588,-6.80472 -6.38144,7.99298 5.9264,-8.0645 -5.29973,6.83325 4.85209,-6.90681 -5.93537,8.11336 5.49239,-8.1861 -4.92203,6.93557 4.4903,-7.01819 -5.5014,8.24481 5.07673,-8.33139 -4.56271,7.05874 4.14145,-7.14455 -5.07583,8.3942 4.68293,-8.4884 -4.21231,7.19113 3.81987,-7.28764 -4.69738,8.56242 4.30603,-8.66318 -3.8911,7.33687 3.50338,-7.45144 -4.3249,8.75498 3.9372,-8.86964 -3.57661,7.50936 3.19499,-7.64301 -3.96204,8.98016 3.58149,-9.11655 -3.27308,7.716 2.89932,-7.87007 -3.61429,9.24707 3.24986,-9.42079 -2.98897,7.9694 2.63104,-8.15672 -3.29892,9.58405 2.95213,-9.78891 -2.74561,8.27033 2.40408,-8.53102 -3.14819,10.01637 2.66309,-9.73266 -3.00808,9.71088 2.47971,-9.30038 -2.82158,9.27882 2.29763,-8.8719 -2.63616,8.85057 2.11694,-8.44747 -2.45187,8.42638 1.93772,-8.02738 -2.26878,8.00656 1.76006,-7.61196 -2.08693,7.59142 1.58404,-7.20156 -1.90638,7.18132 1.40973,-6.79656 -1.72717,6.77665 1.23723,-6.39739 -1.54935,6.37782 1.06664,-6.00448 -1.37297,5.98527 0.898,-5.61832 -1.19803,5.59949 0.7314,-5.23943 -1.02456,5.221 0.56685,-4.86836 -0.85252,4.85031 0.40438,-4.50566 -0.68187,4.488 0.2439,-4.1519 -0.51248,4.13458 0.0853,-3.80759 -0.3442,3.79051 -0.0716,-3.47314 -0.21084,2.98383 -0.19319,-2.67646 -0.01,3.13157 -0.38222,-2.83437 -0.0297,2.80931 -0.25978,-2.57926 -0.1503,2.5546 -0.10741,-2.34604 -0.30577,2.32072 0.0512,-2.1115 -0.46864,2.08476 0.21834,-1.87412 -0.64173,1.84431 0.39733,-1.6306 -0.8282,1.59455 0.59127,-1.3746 -1.05651,1.32349 0.81279,-1.07714 -1.22042,1.01681 1.00852,-0.78586 -0.50426,0.39293 -0.50426,0.39293 0.50426,-0.39293 0.50426,-0.39293"
       inkstitch:stroke_method="manual_stitch" />
    <path
       id="path10"
       style="fill:none;stroke:#000000;stroke-width:0.264583px"
       d="m 154.72528,51.595963 1.73541,0.826821 0.0451,0.0208 1.8988,0.847492 0.0499,0.02146 2.34581,0.971515 0.0682,0.02678 2.61249,0.971514 0.0684,0.02404 1.34991,0.447 0.0595,0.01867 1.34897,0.400491 0.0744,0.02053 1.32549,0.33848 0.0951,0.02184 1.27947,0.260966 0.12494,0.02138 1.21091,0.167948 0.16877,0.01615 1.11982,0.05943 0.16314,0.002 1.06193,-0.03036 0.11039,-0.0062 1.05269,-0.08849 0.10339,-0.01141 1.04407,-0.142755 0.0956,-0.01544 1.03606,-0.19314 0.0873,-0.01829 1.02867,-0.239649 0.0787,-0.02004 1.02189,-0.282282 0.10133,-0.0309 2.02592,-0.676961 0.10773,-0.03947 2.00621,-0.800984 0.0775,-0.03285 1.99143,-0.894001 0.0499,-0.02326 1.98157,-0.956013 0.0244,-0.01199 1.94415,-0.970794 0.0325,-0.01623 1.96447,-0.980938 1.9445,-0.938127 1.92787,-0.865473 1.91381,-0.764091 1.92123,-0.641979 0.93166,-0.257356 0.94566,-0.220312 0.94462,-0.176094 0.94454,-0.129148 0.94573,-0.0795 0.92504,-0.02645 0.95356,0.0506 1.06406,0.147581 1.16949,0.238536 1.2408,0.316853 1.28209,0.380639 1.2859,0.425803 2.54417,0.946113 2.28688,0.947113 1.85135,0.826307 1.71299,0.816144 m -63.18779,-3.611087 1.713,0.816142 1.85133,0.826305 2.28688,0.947112 2.54418,0.946111 1.28589,0.425802 1.2821,0.380638 1.24079,0.316853 1.1695,0.238535 1.06406,0.147581 0.95355,0.0506 0.92504,-0.02645 0.94574,-0.0795 0.94453,-0.129148 0.94462,-0.176094 0.94567,-0.220312 0.93165,-0.257356 1.92124,-0.641979 1.9138,-0.764091 1.92788,-0.865473 1.94449,-0.938127 1.96447,-0.980938 0.0325,-0.01622 1.94417,-0.970804 0.0244,-0.01199 1.98157,-0.956013 0.05,-0.02326 1.99142,-0.894001 0.0775,-0.03286 2.00621,-0.800984 0.10774,-0.03947 2.02592,-0.676961 0.10132,-0.0309 1.02189,-0.282282 0.0787,-0.02004 1.02866,-0.239649 0.0873,-0.01829 1.03606,-0.19314 0.0956,-0.01543 1.04407,-0.142756 0.1034,-0.01141 1.05269,-0.08849 0.11038,-0.0062 1.06193,-0.03036 0.16315,0.002 1.11981,0.05943 0.16878,0.01615 1.21091,0.167948 0.12493,0.02138 1.27947,0.260966 0.0951,0.02184 1.32548,0.33848 0.0744,0.02053 1.34896,0.400493 0.0595,0.01867 1.34991,0.447001 0.0684,0.02404 2.61249,0.971517 0.0682,0.02678 2.34581,0.971516 0.0499,0.02146 1.89881,0.847493 0.0451,0.0208 1.73541,0.826822 m -64.4977,5.710242 2.44544,-5.479026 m 0.15902,6.595566 2.2958,-5.543394 m 0.37247,6.578251 2.09131,-5.623729 m -0.0418,6.345332 1.88608,-5.695841 m 4.9301,7.17061 0.31796,-5.991562 m 3.67688,5.794547 -0.81282,-5.944682 m 3.11388,5.5075 -1.36137,-5.84351 m 4.26959,4.987864 -1.90154,-5.690698 m 3.99776,4.913505 -2.22475,-5.572289 m 4.86814,4.433585 -2.45729,-5.473722 m 6.28309,3.618388 -2.68045,-5.367971 m 7.51437,3.003558 -2.45729,-5.473722 m 4.86815,4.433585 -2.22475,-5.572289 m 3.99776,4.913506 -1.90155,-5.690698 m 4.26959,4.987865 -1.36136,-5.84351 m 3.11387,5.507501 -0.81282,-5.944682 m 2.54656,5.783044 -0.17146,-5.997542 m 5.32372,6.81168 1.70765,-5.751854 m 1.36272,6.777765 2.09132,-5.623728 m 0.37246,6.578251 2.2958,-5.543393 m -0.46936,6.315103 2.44545,-5.479024"
       inkstitch:satin_column="true"
       inkstitch:zigzag_spacing_mm="0.8"
       inkstitch:trim_after="True"
       inkstitch:reverse_rails="none"
       inkstitch:start_at_nearest_point="False"
       inkstitch:end_at_nearest_point="False" />
    <path
       style="fill:none;fill-rule:evenodd;stroke:#000000;stroke-width:4;stroke-linecap:square;stroke-linejoin:bevel"
       d="m 77.22671,49.783288 c 0,0 10.53772,5.291667 16.227084,5.291667 11.378736,0 21.075436,-10.583334 32.454176,-10.583334 5.68937,0 16.2271,5.291667 16.2271,5.291667"
       id="path11"
       sodipodi:nodetypes="caac"
       inkstitch:running_stitch_length_mm="1.5"
       inkstitch:stroke_method="zigzag_stitch" />
    <path
       id="path12"
       style="fill:none;stroke:#000000;stroke-width:0.105833"
       d="m 233.08408,51.595366 0.32259,-0.677079 0.32259,-0.677078 -0.32259,0.677078 -0.32259,0.677079 1.72047,-3.611083 -0.98001,3.963869 1.69423,-3.623587 -0.95377,3.976373 1.66798,-3.63609 -0.92218,3.977301 1.64135,-3.647747 -0.89457,3.981054 1.61346,-3.660191 -0.86422,3.9939 1.58449,-3.673144 -0.82673,3.98707 1.5552,-3.685374 -0.79536,4.000062 1.5242,-3.698215 -0.75419,4.017115 1.48428,-3.714745 -0.70452,4.008878 1.44408,-3.730599 -0.66291,4.021096 1.40359,-3.745659 -0.62739,4.034306 1.35381,-3.76417 -0.56828,4.042298 1.30045,-3.782961 -0.50262,4.047148 1.23148,-3.805799 -0.39715,4.062844 1.09903,-3.846266 -0.2619,4.094382 0.96613,-3.885306 -0.12043,4.10239 0.83097,-3.916152 0.018,4.119206 0.6945,-3.940692 0.16101,4.115186 0.55879,-3.968375 0.30321,4.105323 0.42026,-3.979993 0.44558,4.091212 0.2821,-3.990649 0.59591,4.037244 0.1257,-3.998949 0.77335,3.998109 -0.0523,-4.000129 0.95067,3.958131 -0.23032,-3.994738 1.12653,3.91723 -0.40787,-3.980887 1.29441,3.860222 -0.57655,-3.958377 1.43668,3.809281 -0.71895,-3.934875 1.57392,3.75868 -0.8605,-3.906638 1.69844,3.707635 -0.97824,-3.87957 1.8071,3.650612 -1.08381,-3.850411 1.90255,3.58817 -1.18905,-3.820075 2.00727,3.546665 -1.28883,-3.78673 2.08953,3.511931 -1.37353,-3.758626 2.15985,3.444689 -1.45635,-3.72556 2.23923,3.412992 -1.51453,-3.702334 2.28228,3.378442 -1.56051,-3.684017 2.32084,3.342685 -1.60564,-3.663755 2.35906,3.325528 -1.64622,-3.645543 2.38739,3.294385 -1.67564,-3.632763 2.41437,3.276362 -1.70453,-3.618829 2.44319,3.262287 -1.73359,-3.605264 2.46741,3.238869 -1.76229,-3.590963 2.49986,3.222665 -1.78373,-3.580257 2.49387,3.225655 -1.76217,-3.591023 2.47231,3.236423 -1.74061,-3.601791 2.45074,3.24719 -1.71904,-3.612557 2.43164,3.262968 -1.69705,-3.622437 2.41195,3.277533 -1.67534,-3.632909 2.39024,3.288006 -1.65364,-3.643382 2.37472,3.314796 -1.62371,-3.65564 2.33577,3.335978 -1.57878,-3.675814 2.29214,3.359213 -1.53333,-3.694826 2.25821,3.405416 -1.48758,-3.713092 2.19647,3.430068 -1.40795,-3.744886 2.12705,3.478125 -1.32291,-3.775347 2.04275,3.534811 -1.23107,-3.806031 1.94626,3.56705 -1.12669,-3.840912 1.8507,3.630852 -1.01991,-3.868064 1.75034,3.681393 -0.91305,-3.894394 1.63457,3.732115 -0.77186,-3.925013 1.50014,3.789248 -0.62761,-3.951902 1.34759,3.848913 -0.47496,-3.972266 1.19819,3.894824 -0.30688,-3.988302 1.03251,3.937681 -0.13831,-3.997671 0.86324,3.976946 0.0276,-4.000485 0.69902,4.037982 0.19358,-3.995346 0.52906,4.075027 0.35977,-3.988383 0.35943,4.097129 0.52554,-3.97273 0.18739,4.118142 0.68871,-3.941872 0.0198,4.106422 0.85197,-3.910791 -0.14699,4.090816 1.01289,-3.869694 -0.31166,4.071818 1.15085,-3.83088 -0.40282,4.053687 1.21178,-3.812328 -0.47082,4.057681 1.27222,-3.792307 -0.53402,4.045486 1.33261,-3.772052 -0.60104,4.044106 1.39231,-3.749856 -0.66217,4.021375 1.43285,-3.734777 -0.70128,4.006831 1.47285,-3.719906 -0.74977,4.013597 1.51213,-3.703211 -0.78458,4.004529 1.55167,-3.686842 -0.83055,3.985495 1.59063,-3.670705 -0.87496,3.982033 1.62904,-3.653246 -0.9049,3.976448 1.65082,-3.64352 -0.92669,3.968554 1.67209,-3.63413 -0.95552,3.975537 1.69308,-3.624133 -0.9765,3.965541 1.71406,-3.614136 -1.4952,3.718409 1.72046,-3.611083 -0.32259,0.677079 -0.32258,0.677079 0.32258,-0.677079 0.32259,-0.677079"
       inkstitch:stroke_method="manual_stitch"
       inkstitch:running_stitch_length_mm="1.5" />
    <text
       xml:space="preserve"
       style="font-style:normal;font-variant:normal;font-weight:bold;font-stretch:normal;font-size:9.525px;line-height:1;font-family:Barlow;-inkscape-font-specification:'Barlow Bold';letter-spacing:0px;fill:#ff0000;fill-opacity:1;stroke-width:0.264583"
       x="58.007557"
       y="53.097988"
       id="text12"><tspan
         sodipodi:role="line"
         id="tspan12"
         style="font-style:normal;font-variant:normal;font-weight:bold;font-stretch:normal;font-size:9.525px;font-family:Barlow;-inkscape-font-specification:'Barlow Bold';fill:#ff0000;fill-opacity:1;stroke-width:0.264583"
         x="58.007557"
         y="53.097988">2.</tspan></text>
    <path
       style="opacity:0.407055;fill:none;fill-opacity:1;fill-rule:evenodd;stroke:#ff0000;stroke-width:0.665;stroke-linecap:square;stroke-linejoin:bevel;stroke-opacity:1;marker-end:url(#Arrow5)"
       d="m 130.56373,62.313251 c 11.77129,8.42737 21.11202,6.9912 29.08388,0"
       id="path13"
       sodipodi:nodetypes="cc"
       inkstitch:running_stitch_length_mm="1.5"
       inkstitch:stroke_method="zigzag_stitch" />
    <path
       style="opacity:0.407055;fill:none;fill-opacity:1;fill-rule:evenodd;stroke:#ff0000;stroke-width:0.665;stroke-linecap:square;stroke-linejoin:bevel;stroke-opacity:1;marker-end:url(#Arrow5)"
       d="m 213.58791,62.313252 c 11.77129,8.427369 21.11202,6.991199 29.08388,0"
       id="path14"
       sodipodi:nodetypes="cc"
       inkstitch:running_stitch_length_mm="1.5"
       inkstitch:stroke_method="zigzag_stitch" />
  </g>
</svg>
