<?xml version="1.0" encoding="UTF-8" standalone="no"?>
<!-- Created with Inkscape (http://www.inkscape.org/) -->

<svg
   width="276.87601mm"
   height="160.03632mm"
   viewBox="0 0 276.876 160.03632"
   version="1.1"
   id="svg9806"
   inkscape:version="1.2.2 (b0a8486541, 2022-12-01)"
   sodipodi:docname="satin_methods.svg"
   xmlns:inkscape="http://www.inkscape.org/namespaces/inkscape"
   xmlns:sodipodi="http://sodipodi.sourceforge.net/DTD/sodipodi-0.dtd"
   xmlns="http://www.w3.org/2000/svg"
   xmlns:svg="http://www.w3.org/2000/svg"
   xmlns:inkstitch="http://inkstitch.org/namespace">
  <metadata
     id="metadata14314">
    <inkstitch:min_stitch_len_mm
       id="min_stitch_len_mm4086">0.3</inkstitch:min_stitch_len_mm>
    <inkstitch:collapse_len_mm
       id="collapse_len_mm539">3</inkstitch:collapse_len_mm>
  </metadata>
  <sodipodi:namedview
     id="namedview9808"
     pagecolor="#ffffff"
     bordercolor="#000000"
     borderopacity="0.25"
     inkscape:showpageshadow="2"
     inkscape:pageopacity="0.0"
     inkscape:pagecheckerboard="0"
     inkscape:deskcolor="#d1d1d1"
     inkscape:document-units="mm"
     showgrid="false"
     inkscape:zoom="0.84096521"
     inkscape:cx="509.53357"
     inkscape:cy="249.71307"
     inkscape:window-width="1920"
     inkscape:window-height="1011"
     inkscape:window-x="0"
     inkscape:window-y="32"
     inkscape:window-maximized="1"
     inkscape:current-layer="layer1" />
  <defs
     id="defs9803">
    <marker
       style="overflow:visible"
       id="Arrow5"
       refX="0"
       refY="0"
       orient="auto-start-reverse"
       inkscape:stockid="Arrow5"
       markerWidth="5.8874264"
       markerHeight="6.6094756"
       viewBox="0 0 5.8874262 6.6094758"
       inkscape:isstock="true"
       inkscape:collect="always"
       preserveAspectRatio="xMidYMid">
      <path
         transform="scale(0.5)"
         style="fill:context-stroke;fill-rule:evenodd;stroke:context-stroke;stroke-width:1pt"
         d="M 6,0 C 3,1 -1,3 -3,5 -3,5 -3,1 -1,0 -3,-1 -3,-5 -3,-5 -1,-3 3,-1 6,0 Z"
         id="path8893" />
    </marker>
    <inkscape:path-effect
       id="path-effect14415"
       effect="skeletal"
       is_visible="true"
       lpeversion="1"
       pattern="M 0,0 C 0,1.1 1.125,2 2.5,2 3.875,2 5,1.1 5,0 M 0,-2 C 0,-3.1 1.125,-4 2.5,-4 3.875,-4 5,-3.1 5,-2"
       copytype="repeated_stretched"
       prop_scale="1"
       scale_y_rel="false"
       spacing="0"
       normal_offset="0"
       tang_offset="0"
       prop_units="false"
       vertical_pattern="false"
       hide_knot="false"
       fuse_tolerance="0.02"
       pattern-nodetypes="csc" />
    <inkscape:path-effect
       id="path-effect14296"
       effect="skeletal"
       is_visible="true"
       lpeversion="1"
       pattern="M 0,0 C 0,1.1 1.125,2 2.5,2 3.875,2 5,1.1 5,0 M 0,-2 C 0,-3.1 1.125,-4 2.5,-4 3.875,-4 5,-3.1 5,-2"
       copytype="repeated_stretched"
       prop_scale="1"
       scale_y_rel="false"
       spacing="0"
       normal_offset="0"
       tang_offset="0"
       prop_units="false"
       vertical_pattern="false"
       hide_knot="false"
       fuse_tolerance="0.02"
       pattern-nodetypes="csc" />
    <inkscape:path-effect
       id="inkstitch-effect-pearl"
       effect="skeletal"
       is_visible="true"
       lpeversion="1"
       pattern="M 0,0 C 0,1.1 1.125,2 2.5,2 3.875,2 5,1.1 5,0 M 0,-2 C 0,-3.1 1.125,-4 2.5,-4 3.875,-4 5,-3.1 5,-2"
       copytype="repeated_stretched"
       prop_scale="1"
       scale_y_rel="false"
       spacing="0"
       normal_offset="0"
       tang_offset="0"
       prop_units="false"
       vertical_pattern="false"
       hide_knot="false"
       fuse_tolerance="0.02"
       pattern-nodetypes="csc" />
    <symbol
       id="inkstitch_trim">
      <title
         id="inkstitch_title9282">Trim the thread after sewing this object.</title>
      <path
         id="inkstitch_circle13405"
         d="M 9.2465284,-8.6e-6 C 9.2465302,2.4523304 8.2723437,4.8042284 6.5382791,6.5382954 4.8042146,8.2723614 2.4523174,9.2465504 -2.1625959e-5,9.2465514 -2.4523623,9.2465534 -4.8042621,8.2723654 -6.5383288,6.5382984 -8.2723956,4.8042314 -9.2465834,2.4523324 -9.2465816,-8.6e-6 -9.246581,-2.4523476 -8.2723921,-4.8042456 -6.5383256,-6.5383096 -4.8042591,-8.2723746 -2.4523608,-9.2465616 -2.1625959e-5,-9.2465596 5.1067066,-9.2465576 9.2465271,-5.1067366 9.2465284,-8.6e-6 9.2465284,-8.6e-6 9.2465284,-8.6e-6 9.2465284,-8.6e-6"
         style="opacity:1;vector-effect:none;fill:#fafafa;fill-opacity:1;fill-rule:evenodd;stroke:#003399;stroke-width:1.065;stroke-linecap:round;stroke-linejoin:miter;stroke-miterlimit:4;stroke-dasharray:3.195, 3.195;stroke-dashoffset:0;stroke-opacity:1"
         inkscape:connector-curvature="0" />
      <path
         style="color:#000000;font-style:normal;font-variant:normal;font-weight:normal;font-stretch:normal;font-size:medium;line-height:normal;font-family:sans-serif;font-variant-ligatures:normal;font-variant-position:normal;font-variant-caps:normal;font-variant-numeric:normal;font-variant-alternates:normal;font-feature-settings:normal;text-indent:0;text-align:start;text-decoration:none;text-decoration-line:none;text-decoration-style:solid;text-decoration-color:#000000;letter-spacing:normal;word-spacing:normal;text-transform:none;writing-mode:lr-tb;direction:ltr;text-orientation:mixed;dominant-baseline:auto;baseline-shift:baseline;text-anchor:start;white-space:normal;shape-padding:0;clip-rule:nonzero;display:inline;overflow:visible;visibility:visible;opacity:1;isolation:auto;mix-blend-mode:normal;color-interpolation:sRGB;color-interpolation-filters:linearRGB;solid-color:#000000;solid-opacity:1;vector-effect:none;fill:#050505;fill-opacity:1;fill-rule:evenodd;stroke:none;stroke-width:1.41421;stroke-linecap:butt;stroke-linejoin:miter;stroke-miterlimit:4;stroke-dasharray:none;stroke-dashoffset:0;stroke-opacity:1;color-rendering:auto;image-rendering:auto;shape-rendering:auto;text-rendering:auto;enable-background:accumulate"
         d="M -3.0000256,-5.9834096 C -4.3057756,-5.9834096 -5.3750256,-4.9141696 -5.3750256,-3.6084096 -5.3750256,-2.3026596 -4.3057756,-1.2334096 -3.0000256,-1.2334096 -2.4131556,-1.2334096 -1.8805856,-1.4570996 -1.4648656,-1.8134796 -1.4648656,-1.8134796 -0.84768563,-0.1923896 -0.84768563,-0.1923896 -0.84768563,-0.1923896 -3.1465056,5.8251904 -3.1465056,5.8251904 -2.1599556,5.7000804 -1.9092256,5.5634804 -1.4726856,4.8505804 -1.4726856,4.8505804 -0.14260563,1.6611304 -0.14260563,1.6611304 -0.14260563,1.6611304 1.0937244,4.9111304 1.0937244,4.9111304 1.3259944,5.6901904 1.9368744,5.7033104 2.6718544,5.9833904 2.6718544,5.9833904 0.61716437,-0.1591896 0.61716437,-0.1591896 0.61716437,-0.1591896 1.3476344,-1.9091896 1.3476344,-1.9091896 1.7761244,-1.4923696 2.3589944,-1.2334096 2.9999744,-1.2334096 4.3057244,-1.2334096 5.3749744,-2.3026596 5.3749744,-3.6084096 5.3749744,-4.9141696 4.3057244,-5.9834096 2.9999744,-5.9834096 1.9376444,-5.9834096 1.0429644,-5.2707596 0.74216437,-4.3037196 0.74216437,-4.3037196 0.73046437,-4.3193196 0.73046437,-4.3193196 0.73046437,-4.3193196 -0.07227563,-2.2177596 -0.07227563,-2.2177596 -0.07227563,-2.2177596 -0.66406563,-3.9833796 -0.66406563,-3.9833796 -0.84648563,-5.1114596 -1.8227156,-5.9833796 -3.0000056,-5.9833796 -3.0000056,-5.9833796 -3.0000256,-5.9834096 -3.0000256,-5.9834096 M -3.0000256,-4.9834096 C -2.2347156,-4.9834096 -1.6250256,-4.3737296 -1.6250256,-3.6084096 -1.6250256,-2.8430996 -2.2347156,-2.2334096 -3.0000256,-2.2334096 -3.7653356,-2.2334096 -4.3750256,-2.8430996 -4.3750256,-3.6084096 -4.3750256,-4.3737296 -3.7653356,-4.9834096 -3.0000256,-4.9834096 -3.0000256,-4.9834096 -3.0000256,-4.9834096 -3.0000256,-4.9834096 M 2.9999744,-4.9834096 C 3.7652844,-4.9834096 4.3749744,-4.3737296 4.3749744,-3.6084096 4.3749744,-2.8430996 3.7652844,-2.2334096 2.9999744,-2.2334096 2.2346644,-2.2334096 1.6249744,-2.8430996 1.6249744,-3.6084096 1.6249744,-4.3737296 2.2346644,-4.9834096 2.9999744,-4.9834096 2.9999744,-4.9834096 2.9999744,-4.9834096 2.9999744,-4.9834096"
         id="inkstitch_path13416"
         inkscape:connector-curvature="0" />
    </symbol>
  </defs>
  <g
     inkscape:label="Layer 1"
     inkscape:groupmode="layer"
     id="layer1"
     transform="translate(-41.334466,-62.274677)">
    <path
       style="fill:none;fill-rule:evenodd;stroke:#000000;stroke-width:0.264583;stroke-linecap:square;stroke-linejoin:bevel"
       d="M 77.149109,122.36485 C 77.149109,122.36485 87.686829,127.65652 93.376199,127.65652 104.75493,127.65652 114.45164,117.07318 125.83037,117.07318 131.51974,117.07318 142.05747,122.36485 142.05747,122.36485"
       id="path9927"
       sodipodi:nodetypes="caac" />
    <path
       style="fill:none;fill-rule:evenodd;stroke:#000000;stroke-width:0.200025;stroke-linecap:square;stroke-linejoin:bevel"
       id="path9931"
       sodipodi:nodetypes="caac"
       inkscape:path-effect="#inkstitch-effect-pearl"
       inkscape:original-d="M 97.234568,92.0912 C 97.234568,92.0912 107.77228,97.38287 113.46165,97.38287 124.84038,97.38287 134.53709,86.79953 145.91582,86.79953 151.60519,86.79953 162.14291,92.0912 162.14291,92.0912"
       inkstitch:satin_column="true"
       class="UnoptimicedTransforms"
       d="M 96.789112,92.986504 C 96.738171,93.08887 96.70142,93.191955 96.675504,93.301188 96.675504,93.301188 96.675503,93.301189 96.675503,93.301189 96.650669,93.406242 96.637438,93.513545 96.634768,93.622602 L 96.634768,93.622602 96.634768,93.622602 96.634768,93.622602 C 96.630231,93.844871 96.671662,94.072639 96.752941,94.297721 L 96.752941,94.297722 96.752941,94.297722 96.752941,94.297722 C 96.923269,94.769321 97.274391,95.226058 97.759613,95.582598 L 97.759613,95.582598 C 97.759613,95.582598 97.759613,95.582598 97.759613,95.582598 97.951522,95.723672 98.164689,95.849061 98.396124,95.953434 99.768128,96.572178 101.25578,96.209757 101.67634,95.193338 101.402,95.856369 101.63584,96.638039 102.23555,97.256044 102.55373,97.584913 102.97472,97.865369 103.47188,98.050919 104.92337,98.592654 106.3847,98.110208 106.71863,97.060305 106.47225,97.834947 106.90297,98.716794 107.77788,99.283989 107.77788,99.283989 107.77788,99.283989 107.77788,99.283989 108.07895,99.486129 108.438,99.649315 108.84459,99.750687 110.48184,100.15889 111.95074,99.402993 112.06659,98.3049 111.99082,99.02308 112.48549,99.734918 113.46165,100.10048 113.91799,100.27147 114.45578,100.3489 115.01944,100.30237 116.73313,100.16087 117.80151,99.00877 117.59129,97.949898 117.80308,99.016647 119.28521,99.642196 120.81303,99.190396 122.34084,98.738595 123.20461,97.425762 122.80284,96.397357 123.20461,97.425762 124.73708,97.811995 126.14118,97.181767 127.55662,96.546452 128.23815,95.175848 127.75179,94.184228 128.24332,95.186397 129.73788,95.44876 131.03502,94.772156 131.03502,94.772156 131.03505,94.772142 131.03505,94.772142 132.34239,94.140616 133.00274,92.805683 132.5144,91.810015 133.00399,92.808228 134.47018,93.097278 135.73531,92.518747 136.98452,91.947494 137.70378,90.675094 137.30519,89.654847 137.70906,90.688622 139.094,91.086795 140.30808,90.701634 141.5039,90.322267 142.38097,89.228022 142.17132,88.172033 142.3831,89.238783 143.56387,89.886309 144.78448,89.816465 145.19636,89.792897 145.57937,89.687373 145.91582,89.517167 146.4875,89.163555 147.02562,88.582089 147.10153,87.862532 146.9894,88.925381 147.88325,89.974008 149.08462,90.27019 149.41769,90.352305 149.7584,90.377298 150.08824,90.350107 150.08824,90.350107 150.08824,90.350107 150.08824,90.350107 150.99307,90.278958 151.80664,89.801684 152.0528,89.027731 151.72076,90.071701 152.52942,91.276807 153.80688,91.753777 154.25921,91.922666 154.72313,91.985373 155.15541,91.953169 155.96089,91.893048 156.66254,91.499311 156.93654,90.837121 156.51597,91.853541 157.23268,93.120483 158.51487,93.698645 158.73108,93.796138 158.95096,93.868289 159.16965,93.916309 159.16965,93.916309 159.16965,93.916309 159.16965,93.916309 L 159.16965,93.916309 C 159.72042,94.037291 160.26246,94.003608 160.71558,93.834387 L 160.71559,93.834387 C 160.71559,93.834387 160.71559,93.834387 160.71559,93.834387 160.93162,93.753725 161.12726,93.640631 161.29348,93.498878 H 161.29348 L 161.29348,93.498878 C 161.37402,93.428708 161.44805,93.350696 161.51406,93.266644 L 161.51406,93.266644 161.51406,93.266642 C 161.94235,92.459688 162.11824,92.136588 162.14108,92.094697 162.14108,92.094697 162.14108,92.094697 162.14108,92.094697 162.14287,92.091414 162.14361,92.089771 162.14361,92.089782 M 97.68015,91.195959 C 97.731034,91.093709 97.790374,91.001693 97.859844,90.914262 97.859844,90.914262 97.859844,90.914262 97.859844,90.914262 97.926605,90.830384 98.001728,90.75317 98.08394,90.683639 L 98.08394,90.683639 98.08394,90.683639 98.08394,90.683639 C 98.250165,90.541858 98.445817,90.428744 98.661867,90.348067 L 98.661867,90.348067 98.661868,90.348067 98.661868,90.348067 C 99.114996,90.178826 99.657042,90.145129 100.20782,90.266102 L 100.20782,90.266102 C 100.20782,90.266102 100.20782,90.266102 100.20782,90.266102 100.42653,90.314123 100.64643,90.386278 100.86266,90.483779 102.14485,91.06194 102.86156,92.328882 102.44099,93.345302 102.71498,92.68313 103.4166,92.289396 104.22205,92.229258 104.65435,92.197042 105.11829,92.259747 105.57065,92.428644 106.84811,92.905613 107.65677,94.110718 107.32473,95.154688 107.57088,94.380753 108.38442,93.903482 109.28923,93.832314 109.28923,93.832314 109.28923,93.832314 109.28923,93.832314 109.61909,93.805114 109.95982,93.830104 110.29291,93.912224 111.49428,94.208403 112.38813,95.257025 112.276,96.319874 112.35191,95.600337 112.88999,95.018881 113.46165,94.665263 113.79811,94.495039 114.18114,94.389502 114.59304,94.365932 115.81366,94.296083 116.99443,94.943606 117.20622,96.010355 116.99656,94.954366 117.87362,93.860118 119.06945,93.480748 120.28353,93.095584 121.66847,93.493755 122.07234,94.527529 121.67375,93.507282 122.393,92.234881 123.64222,91.663627 124.90734,91.085094 126.37354,91.374144 126.86313,92.372356 126.37479,91.376696 127.03513,90.041776 128.34245,89.410244 128.34245,89.410244 128.34248,89.410229 128.34248,89.410229 129.63963,88.733605 131.1342,88.995965 131.62574,89.998143 131.13938,89.006522 131.82091,87.635919 133.23635,87.000605 134.64045,86.370378 136.17292,86.756613 136.57469,87.785019 136.17292,86.756613 137.0367,85.443781 138.56451,84.991984 140.09233,84.540187 141.57446,85.165739 141.78625,86.232489 141.57603,85.173616 142.64441,84.021515 144.3581,83.880029 144.92174,83.833494 145.4595,83.91092 145.91582,84.081893 146.89203,84.447447 147.38672,85.159308 147.31095,85.877507 147.4268,84.779415 148.89571,84.023528 150.53295,84.43173 150.93951,84.533097 151.29854,84.696268 151.5996,84.89839 151.5996,84.89839 151.5996,84.89839 151.5996,84.89839 152.47455,85.465585 152.90529,86.347455 152.6589,87.122115 152.99284,86.072212 154.45417,85.589768 155.90566,86.131504 156.40278,86.317045 156.82376,86.597482 157.14193,86.926329 157.74168,87.544342 157.97554,88.326037 157.70119,88.989086 158.12176,87.972666 159.6094,87.610247 160.98141,88.228991 161.21282,88.333355 161.42597,88.458732 161.61787,88.599791 161.61787,88.599791 161.61787,88.599791 161.61787,88.599791 L 161.61787,88.599791 C 162.10309,88.956315 162.45422,89.413037 162.62456,89.884625 L 162.62456,89.884625 C 162.62456,89.884625 162.62456,89.884625 162.62456,89.884625 162.70584,90.109685 162.74728,90.337431 162.74277,90.559682 L 162.74277,90.559682 162.74277,90.559682 C 162.74165,90.669581 162.72973,90.777259 162.70555,90.882705 L 162.70555,90.882705 162.70555,90.882707 C 162.31749,91.709681 162.16442,92.044227 162.14461,92.08764 162.14461,92.08764 162.14461,92.08764 162.14461,92.08764 162.14306,92.091042 162.14219,92.092619 162.14219,92.092607"
       transform="translate(58.273278,30.273653)"
       inkstitch:zigzag_spacing_mm="0.8"
       inkstitch:trim_after="True" />
    <path
       id="path1"
       style="fill:none;stroke:#000000;stroke-width:0.264583px"
       d="M 154.64768,86.804142 156.38309,87.630963 156.42818,87.651761 158.32698,88.499253 158.37686,88.520709 160.72267,89.492224 160.79083,89.519002 163.40332,90.490516 163.47173,90.514554 164.82164,90.961554 164.88111,90.980225 166.23008,91.380716 166.30445,91.401244 167.62994,91.739724 167.72508,91.761562 169.00455,92.022528 169.12949,92.043911 170.3404,92.211859 170.50917,92.228012 171.62899,92.28744 171.79213,92.289433 172.85406,92.259073 172.96445,92.25286 174.01714,92.164365 174.12053,92.152957 175.1646,92.010202 175.26018,91.994767 176.29624,91.801627 176.38351,91.783337 177.41218,91.543688 177.49091,91.52365 178.5128,91.241368 178.61413,91.210469 180.64005,90.533508 180.74778,90.494039 182.75399,89.693055 182.8315,89.6602 184.82293,88.766199 184.87288,88.742942 186.85445,87.786929 186.87888,87.774936 188.82303,86.804142 188.85552,86.787917 190.81999,85.806979 192.76449,84.868852 194.69236,84.003379 196.60617,83.239288 198.5274,82.597309 199.45906,82.339953 200.40472,82.119641 201.34934,81.943547 202.29388,81.814399 203.23961,81.734895 204.16465,81.708449 205.11821,81.759053 206.18227,81.906634 207.35176,82.14517 208.59256,82.462023 209.87465,82.842662 211.16055,83.268465 213.70472,84.214578 215.9916,85.161691 217.84295,85.987998 219.55594,86.804142 M 156.36815,83.193055 158.08115,84.009197 159.93248,84.835502 162.21936,85.782614 164.76354,86.728725 166.04943,87.154527 167.33153,87.535165 168.57232,87.852018 169.74182,88.090553 170.80588,88.238134 171.75943,88.288738 172.68447,88.262292 173.63021,88.182788 174.57474,88.05364 175.51936,87.877546 176.46503,87.657234 177.39668,87.399878 179.31792,86.757899 181.23172,85.993808 183.1596,85.128335 185.10409,84.190208 187.06856,83.20927 187.10103,83.193055 189.0452,82.222251 189.06963,82.210258 191.0512,81.254245 191.10116,81.230989 193.09258,80.336988 193.17009,80.304132 195.1763,79.503148 195.28404,79.463679 197.30996,78.786718 197.41128,78.755819 198.43317,78.473537 198.51191,78.453499 199.54057,78.21385 199.62784,78.19556 200.6639,78.00242 200.75948,77.986986 201.80355,77.84423 201.90695,77.832822 202.95964,77.744327 203.07002,77.738114 204.13195,77.707754 204.2951,77.709747 205.41491,77.769175 205.58369,77.785328 206.7946,77.953276 206.91953,77.97466 208.199,78.235626 208.29415,78.257464 209.61963,78.595944 209.69401,78.616472 211.04297,79.016965 211.10245,79.035636 212.45236,79.482637 212.52077,79.506674 215.13326,80.478191 215.20142,80.504969 217.54723,81.476485 217.59711,81.497942 219.49592,82.345435 219.541,82.366233 221.27641,83.193055 M 156.77871,88.903297 159.22415,83.424271 M 159.38317,90.019837 161.67897,84.476443 M 162.05144,91.054694 164.14275,85.430965 M 164.10092,91.776297 165.987,86.080456 M 170.9171,93.251066 171.23506,87.259504 M 174.91194,93.054051 174.09912,87.109369 M 177.213,92.616869 175.85163,86.773359 M 180.12122,91.761223 178.21968,86.070525 M 182.21744,90.98403 179.99269,85.411741 M 184.86083,89.845326 182.40354,84.371604 M 188.68663,87.989992 186.00618,82.622021 M 193.52055,85.625579 191.06326,80.151857 M 195.93141,84.585442 193.70666,79.013153 M 197.70442,83.926659 195.80287,78.235961 M 200.07246,83.223826 198.7111,77.380316 M 201.82497,82.887817 201.01215,76.943135 M 203.55871,82.726179 203.38725,76.728637 M 208.71097,83.540317 210.41862,77.788463 M 211.78134,84.566228 213.87266,78.9425 M 214.24512,85.520751 216.54092,79.977358 M 216.07156,86.292461 218.51701,80.813437"
       inkstitch:satin_column="true"
       inkstitch:zigzag_spacing_mm="0.8"
       inkstitch:trim_after="True" />
    <path
       style="fill:none;fill-rule:evenodd;stroke:#000000;stroke-width:4;stroke-linecap:square;stroke-linejoin:bevel"
       d="M 77.149109,84.991467 C 77.149109,84.991467 87.686829,90.283134 93.376193,90.283134 104.75493,90.283134 114.45163,79.6998 125.83037,79.6998 131.51974,79.6998 142.05747,84.991467 142.05747,84.991467"
       id="path9937"
       sodipodi:nodetypes="caac" />
    <path
       style="opacity:1;fill:none;fill-rule:evenodd;stroke:#000000;stroke-width:0.264583;stroke-linecap:square;stroke-linejoin:bevel"
       d="M 74.603404,160.23794 76.275462,157.06943 80.805664,159.37008 79.306578,162.7924 84.487481,165.01117 86.225434,161.44148 89.997855,162.54678 89.264787,166.4849 93.267838,166.92702 93.119581,163.04621 98.32519,162.35028 99.338311,165.9691 103.76144,164.64274 102.32001,160.95024 107.7892,158.28115 109.72483,161.4988 115.03752,158.97708 113.48902,155.55476 118.85937,153.49155 120.17724,157.39692 124.08145,156.38169 123.66961,152.55 127.82917,152.80381 127.21141,156.43082 131.20622,157.43786 132.54058,153.73717 136.75779,155.22727 135.28341,158.9689 139.25352,160.34438 140.70318,156.76649 144.66505,159.0344 143.07536,162.03097"
       id="path10565" />
    <path
       style="opacity:1;fill:none;fill-rule:evenodd;stroke:#000000;stroke-width:0.264583;stroke-linecap:square;stroke-linejoin:bevel"
       d="M 159.25348,159.09848 157.51367,163.07038 M 162.68361,165.28409 164.6842,161.17494 M 168.3802,162.25504 167.53734,166.78302 M 171.60675,167.22999 171.43558,162.74962 M 176.57176,162.06458 177.74664,166.26118 M 182.19799,164.92539 180.53836,160.67397 M 185.96201,158.02727 188.20693,161.75906 M 193.48864,159.25359 191.69279,155.28463 M 197.0909,153.21049 198.60061,157.68436 M 202.44096,156.68316 201.965,152.25491 M 206.20699,152.51126 205.48849,156.72975 M 209.43191,157.72326 210.96979,153.45814 M 215.19522,154.95135 213.50087,159.2512 M 217.46831,160.62561 219.14328,156.49163 M 152.93081,160.2407 C 153.87151,160.7517 156.67011,162.3297 157.63411,162.7957 158.64911,163.2857 161.75811,164.6227 162.81511,165.0147 163.75211,165.3617 166.61511,166.2747 167.59211,166.4877 168.37911,166.6597 170.79111,166.9717 171.59511,166.9307 172.82311,166.8677 176.46511,166.2337 177.66611,165.9727 178.56811,165.7757 181.24011,165.0107 182.08911,164.6457 183.32711,164.1127 186.84711,162.1077 188.05211,161.5017 189.10311,160.9737 192.27011,159.4097 193.36511,158.9807 194.36611,158.5877 197.47111,157.6967 198.50511,157.3997 199.28011,157.1777 201.60911,156.4947 202.40911,156.3847 203.02911,156.2997 204.91911,156.3427 205.53911,156.4337 206.35411,156.5547 208.74811,157.1937 209.53411,157.4407 210.36411,157.7027 212.79211,158.6757 213.61111,158.9717 214.40111,159.2577 216.79911,160.0407 217.58111,160.3477 218.35811,160.6527 220.63811,161.6967 221.40311,162.0337 M 154.60291,157.0727 C 155.50891,157.5327 158.20311,158.9647 159.13311,159.3737 160.19511,159.8397 163.45611,161.0657 164.55311,161.4447 165.29611,161.7017 167.55911,162.3717 168.32511,162.5497 168.94111,162.6937 170.81511,163.0647 171.44711,163.0497 172.49711,163.0247 175.62811,162.5867 176.65311,162.3537 177.47811,162.1657 179.87011,161.2877 180.64711,160.9537 181.76611,160.4727 185.02111,158.8137 186.11711,158.2847 187.25411,157.7347 190.65711,156.0597 191.81611,155.5577 192.87211,155.1007 196.08311,153.8207 197.18711,153.4947 198.12711,153.2177 201.02011,152.6277 201.99711,152.5527 202.82811,152.4897 205.33011,152.6967 206.15711,152.8067 207.10911,152.9347 209.94111,153.4887 210.86811,153.7407 211.73111,153.9747 214.24611,154.9197 215.08511,155.2307 215.87911,155.5247 218.26711,156.4027 219.03111,156.7697 219.85311,157.1657 222.20011,158.5837 222.99211,159.0377"
       id="path10567"
       inkstitch:satin_column="True"
       inkstitch:zigzag_spacing_mm="0.8"
       inkstitch:trim_after="True" />
    <path
       id="object9871"
       style="fill:none;stroke:#000000;stroke-width:0.105833"
       d="M 233.3957,123.26441 233.72984,122.59296 234.06398,121.9215 233.72984,122.59296 233.3957,123.26441 234.28674,121.47387 233.51442,124.91211 235.60611,120.52978 234.09264,125.62998 236.47915,120.49332 234.78914,126.10691 237.24952,120.68865 235.5516,126.424 237.95833,121.03638 236.40256,126.52703 238.57749,121.58439 237.38195,126.3351 239.06697,122.41425 238.23026,126.49701 239.7061,122.86259 238.74661,127.41049 240.67854,122.53478 239.41704,127.9988 241.51345,122.53608 240.18018,128.35807 242.26785,122.74855 241.00606,128.53233 242.96301,123.13766 241.91154,128.47533 243.56912,123.74359 243.01025,127.864 243.99178,124.85636 243.61358,128.83054 244.91984,124.36782 244.29103,129.49288 245.78767,124.13135 245.07127,129.89891 246.55694,124.13501 245.90795,130.10433 247.2755,124.31545 246.80308,130.10003 247.94109,124.69608 247.77674,129.78447 248.54276,125.33463 248.80247,129.31655 249.07883,125.98601 249.69449,130.20718 249.78385,125.15284 250.61702,130.52497 250.46343,124.79266 251.55155,130.58244 251.14492,124.65255 252.41559,130.42284 251.89051,124.68875 253.25746,130.04567 252.64768,124.92211 254.04026,129.1858 253.44657,125.5285 255.02841,129.27029 254.00884,125.10164 256.01652,129.58229 254.58765,124.3804 256.91223,129.57556 255.24792,123.93139 257.72835,129.34976 255.9692,123.68997 258.48221,128.94373 256.74576,123.62515 259.155,128.25771 257.6015,123.80185 259.64974,127.06891 258.58066,124.38145 260.83464,127.70883 258.88641,123.14481 261.7557,127.73538 259.4376,122.4732 262.57241,127.52232 260.0954,122.02654 263.30943,127.13793 260.83825,121.74341 263.94405,126.56198 261.65678,121.64989 264.43817,125.66497 262.61824,121.86181 265.131,125.19404 263.35256,121.60089 266.15361,125.42487 263.77164,120.65018 267.00097,125.29697 264.37365,120.05129 267.75587,124.98338 265.07185,119.63584 268.42634,124.51539 265.8546,119.375 268.97889,123.82851 266.74346,119.3397 269.26102,122.61535 267.89506,119.84105 270.30397,122.99112 268.28784,118.7334 271.20662,123.07717 268.83982,117.96801 272.0075,122.91927 269.51764,117.45609 272.7237,122.58503 270.27939,117.12255 273.34978,122.06053 271.13527,116.98506 273.85708,121.2783 272.11437,117.12649 274.33318,120.53528 273.10761,117.26035 275.29617,121.03273 273.65897,116.20561 276.12121,121.11358 274.3651,115.63217 276.88893,120.98556 275.144,115.28029 277.58332,120.66525 275.99043,115.13758 278.21349,120.14716 276.90393,115.2114 278.73689,119.25381 277.9368,115.73873 279.41853,119.48855 278.80075,115.17476 280.19996,119.92281 279.61854,114.53832 280.96032,120.08788 280.47011,114.23747 281.67843,120.04857 281.35597,114.14656 282.35013,119.86066 282.2855,114.28662 283.03773,119.3833 283.19865,114.72306 283.72089,118.57595 284.07573,115.67429 284.23567,119.66092 285.15086,114.79857 284.86695,120.20071 286.0996,114.60907 285.55535,120.50284 286.97451,114.68229 286.29322,120.62884 287.7989,114.95271 287.09726,120.54937 288.54972,115.43811 288.0136,120.16252 289.18184,116.27718 288.7043,120.4095 290.01817,116.50946 289.22238,121.24668 291.01496,116.2048 289.86173,121.75653 291.88042,116.24238 290.57998,122.07447 292.68246,116.48369 291.35683,122.21632 293.41987,116.9155 292.23033,122.14491 294.04657,117.58951 293.36566,121.42374 294.39963,118.91473 293.6771,122.67245 295.58261,118.27661 294.22735,123.37874 296.50996,118.2204 294.88152,123.84568 297.32142,118.41079 295.61099,124.13931 298.06382,118.78416 296.41971,124.25966 298.72436,119.34221 297.35802,124.09539 299.24168,120.20185 298.75013,122.36769"
       inkstitch:stroke_method="manual_stitch" />
    <path
       id="object7911"
       style="fill:none;stroke:#000000;stroke-width:0.105833"
       d="M 233.00648,86.803545 233.32907,86.126466 233.65166,85.449388 233.32907,86.126466 233.00648,86.803545 234.72695,83.192462 233.74694,87.156331 235.44117,83.532744 234.4874,87.509117 236.15538,83.873027 235.2332,87.850328 236.87455,84.202581 235.97998,88.183635 237.59344,84.523444 236.72922,88.517344 238.31371,84.8442 237.48698,88.83127 239.04218,85.145896 238.24682,89.145958 239.77102,85.447743 239.01683,89.464858 240.50111,85.750113 239.79659,89.758991 241.24067,86.028392 240.57776,90.049488 241.98135,86.303829 241.35396,90.338135 242.70777,86.573965 242.13949,90.616263 243.43994,86.833302 242.93732,90.88045 244.1688,87.074651 243.77165,91.137495 244.87068,87.291229 244.60878,91.385611 245.57491,87.500305 245.45448,91.602695 246.28545,87.686543 246.30346,91.805749 246.99796,87.865057 247.15897,91.980243 247.71776,88.011868 248.02097,92.117191 248.44123,88.137198 248.88681,92.22841 249.16891,88.237761 249.76482,92.275005 249.89052,88.276056 250.66387,92.274165 250.61154,88.274036 251.56221,92.232167 251.33189,88.237429 252.45842,92.154659 252.05055,88.173772 253.34496,92.033994 252.76841,88.075617 254.20509,91.884898 253.48614,87.950023 255.06006,91.708703 254.19956,87.802065 255.898,91.5097 254.91976,87.63013 256.72686,91.280742 255.64305,87.430331 257.5456,91.018501 256.35655,87.198426 258.36382,90.745091 257.07499,86.958361 259.16452,90.470292 257.79099,86.711666 259.95084,90.156355 258.49449,86.430795 260.73372,89.843787 259.21919,86.141453 261.50147,89.519895 259.94096,85.835878 262.2618,89.178563 260.65616,85.514808 263.01522,88.840336 261.369,85.194793 263.75639,88.489178 262.08075,84.856415 264.49512,88.132777 262.79059,84.513948 265.23378,87.776235 263.50019,84.170971 265.9676,87.40984 264.20531,83.818877 266.70517,87.041542 264.92144,83.461285 267.41531,86.68694 265.65314,83.095917 268.12545,86.33234 266.38484,82.730549 268.83558,85.977739 267.11654,82.365182 269.54818,85.62815 267.85113,82.005713 270.26308,85.283246 268.58774,81.650337 270.97798,84.938343 269.32434,81.294961 271.69906,84.609757 270.07535,80.954117 272.41112,84.290095 270.83234,80.614281 273.12448,83.973494 271.59115,80.278668 273.84936,83.684084 272.36178,79.970992 274.55825,83.40106 273.1503,79.656174 275.27735,83.134299 273.95444,79.358952 275.99719,82.893763 274.76612,79.087732 276.71238,82.654782 275.58569,78.81387 277.43639,82.444722 276.41648,78.576658 278.16682,82.258051 277.25377,78.363657 278.88834,82.095772 278.11648,78.170759 279.61662,81.960007 278.98901,78.008105 280.3366,81.857018 279.86164,77.884752 281.05983,81.779576 280.75295,77.791274 281.78546,81.728955 281.64715,77.731284 282.51039,81.70823 282.53797,77.707745 283.23699,81.745727 283.43057,77.750381 283.95963,81.825408 284.3194,77.837025 284.67883,81.934154 285.20437,77.961424 285.39176,82.079566 286.08047,78.137694 286.10029,82.244116 286.95226,78.333325 286.80527,82.424141 287.81816,78.554447 287.5065,82.626265 288.65735,78.795385 288.25453,82.849072 289.46631,79.036744 288.99549,83.094425 290.26771,79.302118 289.73369,83.347604 291.0663,79.575552 290.46526,83.619658 291.85757,79.869802 291.1954,83.891177 292.62825,80.1564 291.92697,84.163231 293.39982,80.443325 292.65005,84.456922 294.16218,80.753711 293.3776,84.75824 294.92927,81.071398 294.09872,85.056893 295.68935,81.386188 294.81439,85.368221 296.44343,81.714975 295.53853,85.691423 297.18935,82.047903 296.26266,86.016457 297.93475,82.382327 296.97923,86.357864 298.67231,82.733731 297.69581,86.699272 299.40987,83.085136 297.91467,86.803545 299.63513,83.192462 299.31254,83.869541 298.98996,84.54662 299.31254,83.869541 299.63513,83.192462"
       inkstitch:stroke_method="manual_stitch" />
    <path
       id="object8731"
       style="fill:none;stroke:#000000;stroke-width:0.105833"
       d="M 231.38774,160.24728 231.73783,159.584 232.08792,158.92072 231.73783,159.584 231.38774,160.24728 233.05984,157.07928 232.11725,160.6503 233.76224,157.44342 232.84677,161.05333 234.46463,157.80756 233.57627,161.45636 235.16702,158.1717 234.31024,161.85119 235.87411,158.5266 235.0454,162.24382 236.58247,158.879 235.78055,162.63645 237.29082,159.23141 236.51393,162.99054 238.03304,159.55573 237.23907,163.31336 238.79275,159.85663 237.96421,163.63619 239.55246,160.15751 238.68963,163.95834 240.31241,160.45779 239.42363,164.26046 241.07919,160.74018 240.15764,164.56258 241.84596,161.02257 240.89164,164.8647 242.61274,161.30496 241.68613,165.15853 243.33762,161.55285 242.54002,165.44157 244.0131,161.7623 243.39392,165.72462 244.68858,161.97175 244.25303,165.99116 245.36846,162.16616 245.11523,166.24762 246.05018,162.3543 245.98498,166.47735 246.7319,162.54244 246.87331,166.61878 247.42391,162.68408 247.7628,166.75315 248.11648,162.82198 248.65622,166.85606 248.81268,162.93934 249.55298,166.92106 249.51301,163.02609 250.43367,166.89623 250.2309,163.03084 251.30179,166.80287 250.97498,162.97296 252.16531,166.67397 251.71597,162.88417 253.02855,166.543 252.45678,162.79357 253.88778,166.38803 253.19519,162.68529 254.74666,166.23096 253.93339,162.57547 255.60554,166.0739 254.66769,162.44225 256.44217,165.89338 255.40073,162.27567 257.25974,165.67336 256.1434,162.05084 258.07732,165.45333 256.87773,161.79962 258.8891,165.21325 257.60598,161.53159 259.69674,164.95944 258.33114,161.25503 260.49293,164.67147 259.0563,160.97847 261.25822,164.30248 259.75037,160.65013 262.01489,163.92284 260.43941,160.3195 262.76157,163.5237 261.12846,159.98887 263.50825,163.12456 261.8175,159.65824 264.2537,162.72313 262.50234,159.31899 264.9991,162.32161 263.18698,158.97935 265.74451,161.92009 263.87163,158.63971 266.4899,161.51856 264.55628,158.30007 267.18574,161.17564 265.30232,157.93715 267.88621,160.83134 266.05638,157.5705 268.58669,160.48704 266.81044,157.20386 269.28818,160.14485 267.5654,156.83909 269.99382,159.81124 268.32399,156.48192 270.69974,159.47827 269.08259,156.12476 271.41482,159.16542 269.84119,155.76759 272.13483,158.8798 270.60119,155.43133 272.873,158.62619 271.37524,155.11776 273.61859,158.39535 272.14929,154.80418 274.36448,158.16545 272.92335,154.49061 275.11361,157.94633 273.70407,154.19405 275.8628,157.72743 274.48494,153.89787 276.612,157.50854 275.27511,153.62747 277.33064,157.302 276.09601,153.38792 278.03078,157.10396 276.95633,153.18371 278.73091,156.90592 277.82138,152.99994 279.43412,156.71922 278.68996,152.83399 280.13964,156.54182 279.56075,152.68041 280.8521,156.39416 280.43708,152.56158 281.53918,156.35028 281.35151,152.55764 282.22709,156.34989 282.26544,152.60686 282.9147,156.36722 283.17757,152.68068 283.60132,156.40578 284.08894,152.76482 284.30698,156.50326 284.97791,152.878 285.03143,156.65763 285.82809,153.02916 285.75089,156.83429 286.67825,153.18033 286.46675,157.02472 287.52414,153.35313 287.18066,157.22264 288.36767,153.53776 287.89457,157.42055 289.21121,153.72238 288.63618,157.68505 289.99814,153.96135 289.38096,157.95952 290.76932,154.22561 290.12533,158.23512 291.53757,154.49846 290.86668,158.51872 292.30254,154.78043 291.60803,158.80233 293.0675,155.06239 292.35577,159.07674 293.82928,155.34474 293.1193,159.33795 294.5912,155.6297 293.88284,159.59917 295.35312,155.91466 294.64473,159.86511 296.10866,156.216 295.40614,160.13244 296.86232,156.52214 296.15916,160.40685 297.615,156.84432 296.86307,160.71223 298.35395,157.24059 297.56697,161.0176 299.08068,157.65886 298.26917,161.32686 299.8058,158.07991 298.96928,161.64083 300.52896,158.50433 299.66939,161.95481 301.25211,158.92875 300.09832,161.59087 301.21062,159.49368 300.8592,160.15625 300.50779,160.81883 300.8592,160.15625 301.21062,159.49368"
       inkstitch:stroke_method="manual_stitch" />
    <path
       id="path14495"
       style="fill:none;fill-rule:evenodd;stroke:#000000;stroke-width:0.264583;stroke-linecap:square;stroke-linejoin:bevel"
       d="M 77.148975,199.98383 C 77.148975,199.98383 88.072805,207.33571 93.376059,205.27553 103.31815,201.41327 112.79053,185.18131 125.83024,194.69213 136.10143,202.18365 142.77568,200.63946 142.05734,199.98383 M 77.148975,194.69213 C 77.148975,194.69213 87.146515,198.07078 92.586202,196.40385 100.28766,194.04382 112.3871,188.07553 125.83024,189.40043 131.49218,189.95845 142.05734,194.69213 142.05734,194.69213 M 86.924989,193.27309 92.07507,207.69173 M 114.4807,194.95846 121.65337,186.54893 M 135.93419,188.50803 133.96737,202.62229"
       inkstitch:satin_column="True"
       inkstitch:zigzag_spacing_mm="0.8" />
    <path
       id="object6474"
       style="fill:none;stroke:#000000;stroke-width:0.105833"
       d="M 233.86651,199.67661 V 198.92661 198.17662 198.92661 199.67661 194.38492 L 234.65902,200.18061 234.52311,194.58498 235.45936,200.67223 235.17971,194.78505 236.27266,201.14186 235.83964,194.97344 237.09019,201.60432 236.50301,195.14977 237.91345,202.05625 237.16638,195.32609 238.74631,202.49049 237.8347,195.48223 239.5912,202.90082 238.50446,195.63244 240.44337,203.29552 239.17423,195.78266 241.30216,203.6759 239.84626,195.9218 242.17587,204.02064 240.52112,196.04719 243.05756,204.34357 241.19822,196.15939 243.94781,204.64303 241.87659,196.26408 244.85487,204.88664 242.55756,196.34963 245.75772,205.08902 243.22969,196.4285 246.66977,205.248 243.90426,196.48163 247.59354,205.31277 244.57919,196.53112 248.44103,205.31423 245.33257,196.54713 249.214,205.21133 246.17418,196.54321 249.9668,205.00937 247.01535,196.50459 250.68892,204.71432 247.85088,196.40171 251.39656,204.3858 248.67727,196.24626 252.09151,204.03082 249.49148,196.03387 252.77197,203.64847 250.29005,195.76679 253.43861,203.24269 251.08862,195.49971 254.09362,202.81861 251.88719,195.23263 254.73735,202.37723 252.68355,194.95917 255.38108,201.93584 253.47611,194.67475 256.01413,201.47956 254.26867,194.39033 256.63887,201.01167 255.06123,194.10591 257.2636,200.54378 255.85379,193.82149 257.8832,200.06918 256.64893,193.54437 258.49911,199.58973 257.44408,193.26727 259.11502,199.11029 258.23923,192.99018 259.73093,198.63084 259.03438,192.71308 260.34684,198.1514 259.83077,192.43968 260.97319,197.66383 260.64541,192.17577 261.60465,197.18298 261.46005,191.91185 262.24147,196.70916 262.27877,191.66103 262.87828,196.23534 263.09901,191.41509 263.5134,195.78195 263.90662,191.17688 264.15864,195.34276 264.71946,190.95702 264.80387,194.90358 265.5323,190.73717 265.45785,194.47789 266.34853,190.5307 266.12254,194.06875 267.16803,190.33714 266.80207,193.68479 267.98753,190.14357 267.49049,193.31741 268.81233,189.97449 268.18824,192.96774 269.63847,189.81158 268.90267,192.65341 270.46485,189.65006 269.62813,192.36637 271.29714,189.52221 270.36383,192.1066 272.12943,189.39436 271.1126,191.88626 272.96292,189.27584 271.8733,191.71292 273.80032,189.18749 272.64131,191.57748 274.63772,189.09915 273.41575,191.48142 275.47648,189.02795 274.22308,191.44941 276.28174,188.98538 275.0819,191.47322 277.02392,188.94614 275.95,191.55703 277.7778,188.91784 276.81096,191.69915 278.53244,188.92109 277.65804,191.9108 279.28708,188.92435 278.48594,192.18628 280.04172,188.9276 279.29728,192.50656 280.79543,188.96522 280.0912,192.86991 281.54859,189.01115 280.86512,193.30156 282.3121,189.07385 281.62246,193.76081 283.07258,189.16443 282.35734,194.25636 283.83009,189.27724 283.08798,194.75811 284.58192,189.4243 283.81715,195.26204 285.32938,189.59138 284.5391,195.75282 286.063,189.76829 285.28259,196.21061 286.79102,189.96685 286.02607,196.6684 287.51778,190.16998 286.78711,197.09586 288.237,190.39848 287.5545,197.51234 288.95623,190.62698 288.33353,197.90585 289.67545,190.85549 289.11124,198.27271 290.38119,191.08817 289.89852,198.61766 291.08095,191.33859 290.69627,198.93863 291.7807,191.58901 291.5088,199.23136 292.49023,191.84292 292.32437,199.50387 293.19986,192.10904 293.15412,199.72913 293.90669,192.38269 293.99013,199.92854 294.61351,192.65635 294.83412,200.0926 295.31891,192.93359 295.68691,200.20286 296.02035,193.22078 296.55795,200.25968 296.73257,193.5124 297.43049,200.24499 297.44177,193.81123 298.30385,200.10299 298.15943,194.12001 298.7751,199.67661 V 194.38492 195.13492 195.88492 195.13492 194.38492"
       inkstitch:stroke_method="manual_stitch" />
    <text
       xml:space="preserve"
       style="font-style:normal;font-variant:normal;font-weight:bold;font-stretch:normal;font-size:9.525px;line-height:1;font-family:Barlow;-inkscape-font-specification:'Barlow Bold';letter-spacing:0px;fill:#ff0000;fill-opacity:1;stroke-width:0.264583"
       x="57.929951"
       y="88.306168"
       id="text14653"><tspan
         sodipodi:role="line"
         id="tspan14651"
         style="font-style:normal;font-variant:normal;font-weight:bold;font-stretch:normal;font-size:9.525px;font-family:Barlow;-inkscape-font-specification:'Barlow Bold';fill:#ff0000;fill-opacity:1;stroke-width:0.264583"
         x="57.929951"
         y="88.306168">1.</tspan></text>
    <text
       xml:space="preserve"
       style="font-style:normal;font-variant:normal;font-weight:bold;font-stretch:normal;font-size:9.525px;line-height:1;font-family:Barlow;-inkscape-font-specification:'Barlow Bold';letter-spacing:0px;fill:#ff0000;fill-opacity:1;stroke-width:0.264583"
       x="57.929951"
       y="125.71765"
       id="text14707"><tspan
         sodipodi:role="line"
         id="tspan14705"
         style="font-style:normal;font-variant:normal;font-weight:bold;font-stretch:normal;font-size:9.525px;font-family:Barlow;-inkscape-font-specification:'Barlow Bold';fill:#ff0000;fill-opacity:1;stroke-width:0.264583"
         x="57.929951"
         y="125.71765">2.</tspan></text>
    <text
       xml:space="preserve"
       style="font-style:normal;font-variant:normal;font-weight:bold;font-stretch:normal;font-size:9.525px;line-height:1;font-family:Barlow;-inkscape-font-specification:'Barlow Bold';letter-spacing:0px;fill:#ff0000;fill-opacity:1;stroke-width:0.264583"
       x="57.929951"
       y="163.03389"
       id="text14711"><tspan
         sodipodi:role="line"
         id="tspan14709"
         style="font-style:normal;font-variant:normal;font-weight:bold;font-stretch:normal;font-size:9.525px;font-family:Barlow;-inkscape-font-specification:'Barlow Bold';fill:#ff0000;fill-opacity:1;stroke-width:0.264583"
         x="57.929951"
         y="163.03389">3.</tspan></text>
    <text
       xml:space="preserve"
       style="font-style:normal;font-variant:normal;font-weight:bold;font-stretch:normal;font-size:9.525px;line-height:1;font-family:Barlow;-inkscape-font-specification:'Barlow Bold';letter-spacing:0px;fill:#ff0000;fill-opacity:1;stroke-width:0.264583"
       x="57.929951"
       y="200.42632"
       id="text14715"><tspan
         sodipodi:role="line"
         id="tspan14713"
         style="font-style:normal;font-variant:normal;font-weight:bold;font-stretch:normal;font-size:9.525px;font-family:Barlow;-inkscape-font-specification:'Barlow Bold';fill:#ff0000;fill-opacity:1;stroke-width:0.264583"
         x="57.929951"
         y="200.42632">4.</tspan></text>
    <path
       style="opacity:0.40705531;fill:none;fill-opacity:1;fill-rule:evenodd;stroke:#ff0000;stroke-width:0.665;stroke-linecap:square;stroke-linejoin:bevel;stroke-opacity:1;marker-end:url(#Arrow5)"
       d="M 130.48613,97.52143 C 142.25742,105.9488 151.59815,104.51263 159.57001,97.52143"
       id="path14864"
       sodipodi:nodetypes="cc" />
    <path
       style="opacity:0.40705531;fill:none;fill-opacity:1;fill-rule:evenodd;stroke:#ff0000;stroke-width:0.665;stroke-linecap:square;stroke-linejoin:bevel;stroke-opacity:1;marker-end:url(#Arrow5)"
       d="M 213.51031,97.521431 C 225.2816,105.9488 234.62233,104.51263 242.59419,97.521431"
       id="path15085"
       sodipodi:nodetypes="cc" />
    <path
       style="opacity:0.40705531;fill:none;fill-opacity:1;fill-rule:evenodd;stroke:#ff0000;stroke-width:0.665;stroke-linecap:square;stroke-linejoin:bevel;stroke-opacity:1;marker-end:url(#Arrow5)"
       d="M 129.00383,133.47746 C 140.77512,141.90483 150.11585,140.46866 158.08771,133.47746"
       id="path15089"
       sodipodi:nodetypes="cc" />
    <path
       style="opacity:0.40705531;fill:none;fill-opacity:1;fill-rule:evenodd;stroke:#ff0000;stroke-width:0.665;stroke-linecap:square;stroke-linejoin:bevel;stroke-opacity:1;marker-end:url(#Arrow5)"
       d="M 211.97822,133.47746 C 223.74951,141.90483 233.09024,140.46866 241.0621,133.47746"
       id="path15093"
       sodipodi:nodetypes="cc" />
    <path
       style="opacity:0.40705531;fill:none;fill-opacity:1;fill-rule:evenodd;stroke:#ff0000;stroke-width:0.665;stroke-linecap:square;stroke-linejoin:bevel;stroke-opacity:1;marker-end:url(#Arrow5)"
       d="M 129.00383,172.17138 C 140.77512,180.59875 150.11585,179.16258 158.08771,172.17138"
       id="path15099"
       sodipodi:nodetypes="cc" />
    <path
       style="opacity:0.40705531;fill:none;fill-opacity:1;fill-rule:evenodd;stroke:#ff0000;stroke-width:0.665;stroke-linecap:square;stroke-linejoin:bevel;stroke-opacity:1;marker-end:url(#Arrow5)"
       d="M 211.97822,172.17138 C 223.74951,180.59875 233.09024,179.16258 241.0621,172.17138"
       id="path15103"
       sodipodi:nodetypes="cc" />
    <path
       style="opacity:0.40705531;fill:none;fill-opacity:1;fill-rule:evenodd;stroke:#ff0000;stroke-width:0.665;stroke-linecap:square;stroke-linejoin:bevel;stroke-opacity:1;marker-end:url(#Arrow5)"
       d="M 166.08837,197.11162 H 209.45975"
       id="path15109"
       sodipodi:nodetypes="cc" />
  </g>
</svg>
