<?xml version="1.0" encoding="UTF-8" standalone="no"?>
<!-- Created with Inkscape (http://www.inkscape.org/) -->

<svg
   width="75.291794mm"
   height="84.942696mm"
   viewBox="0 0 75.291794 84.942692"
   version="1.1"
   id="svg1"
   inkscape:version="1.3.2 (091e20ef0f, 2023-11-25, custom)"
   sodipodi:docname="tartan-fill.svg"
   xmlns:inkscape="http://www.inkscape.org/namespaces/inkscape"
   xmlns:sodipodi="http://sodipodi.sourceforge.net/DTD/sodipodi-0.dtd"
   xmlns="http://www.w3.org/2000/svg"
   xmlns:svg="http://www.w3.org/2000/svg"
   xmlns:rdf="http://www.w3.org/1999/02/22-rdf-syntax-ns#"
   xmlns:cc="http://creativecommons.org/ns#"
   xmlns:inkstitch="http://inkstitch.org/namespace">
  <sodipodi:namedview
     id="namedview1"
     pagecolor="#ffffff"
     bordercolor="#000000"
     borderopacity="0.25"
     inkscape:showpageshadow="2"
     inkscape:pageopacity="0.0"
     inkscape:pagecheckerboard="0"
     inkscape:deskcolor="#d1d1d1"
     inkscape:document-units="mm"
     showgrid="true"
     inkscape:zoom="0.84537529"
     inkscape:cx="308.14717"
     inkscape:cy="114.15049"
     inkscape:window-width="1920"
     inkscape:window-height="1011"
     inkscape:window-x="0"
     inkscape:window-y="32"
     inkscape:window-maximized="1"
     inkscape:current-layer="g2"
     showguides="true">
    <inkscape:grid
       id="grid2"
       units="mm"
       originx="-45.499886"
       originy="83.419197"
       spacingx="1"
       spacingy="1"
       empcolor="#0099e5"
       empopacity="0.30196078"
       color="#0099e5"
       opacity="0.14901961"
       empspacing="5"
       dotted="false"
       gridanglex="30"
       gridanglez="30"
       visible="true" />
  </sodipodi:namedview>
  <defs
     id="defs1" />
  <g
     inkscape:label="Ebene 1"
     inkscape:groupmode="layer"
     id="layer1"
     transform="translate(-45.499886,83.419205)">
    <g
       inkscape:label="Ink/Stitch Lettering"
       transform="matrix(0.264583,0,0,0.264583,0.377215,-0.164724)"
       inkstitch:lettering="{&quot;text&quot;: &quot;INK&quot;, &quot;back_and_forth&quot;: false, &quot;font&quot;: &quot;namskout_AGS&quot;, &quot;scale&quot;: 100, &quot;trim_option&quot;: 0, &quot;use_trim_symbols&quot;: false}"
       id="g2">
      <path
         id="path1607-1-1-1"
         style="display:inline;fill:#40abbf;fill-opacity:1;stroke:none;stroke-width:1px;stroke-linecap:butt;stroke-linejoin:miter;stroke-miterlimit:4;stroke-dasharray:3, 1;stroke-dashoffset:0;stroke-opacity:1"
         d="M 180.951,-11.778 182.7188,-239.709 273.229,-239.355 304.694,-188.444 C 306.935,-346.418 433.026,-306.891 443.287,-269.408 422.865,-260.475 409.278,-241.668 405.81,-208.243 L 405.458,-5.657 323.432,-5.303 303.281,-36.77 C 296.692,-23.166 290.922,-9.05 269.6925,-4.596 L 180.8625,-3.889 Z"
         inkstitch:fill_method="tartan_fill"
         inkstitch:tartan="{&quot;symmetry&quot;: false, &quot;equal_warp_weft&quot;: true, &quot;rotate&quot;: 56.0, &quot;scale&quot;: 100, &quot;offset_x&quot;: 12.0, &quot;offset_y&quot;: 0, &quot;pallet&quot;: &quot;...(#21AB8A)2.5 (#CB443C)2.0 (#21AB8A)2.5 (#40ABBF)8.0 (#1A5FB4)1.0 (#40ABBF)1.1 (#1A5FB4)1.0 (#40ABBF)8.0...&quot;, &quot;output&quot;: &quot;embroidery&quot;, &quot;stitch_type&quot;: &quot;legacy_fill&quot;, &quot;row_spacing&quot;: 1, &quot;angle_warp&quot;: 0, &quot;angle_weft&quot;: 90, &quot;min_stripe_width&quot;: 1, &quot;bean_stitch_repeats&quot;: 0}"
         inkstitch:bean_stitch_repeats="0"
         inkstitch:rows_per_thread="4"
         sodipodi:nodetypes="cccccccccccc"
         inkstitch:fill_underlay_angle="90 -56"
         inkstitch:fill_underlay_row_spacing_mm="1" />
      <path
         id="autosatin105-1-1-1-1-1"
         style="display:inline;fill:none;stroke:#000000;stroke-width:1px"
         d="M 300.806,-32.527 305,-27 C 299,-12 284,0 266.9995,0 H 170.9995 M 297,-40 C 297,-24 283,-10 266.9995,-10 H 186.9995 L 178.2023,-4.438 M 198.2495,-11 197.9995,1.75 M 267.2495,-11.5 V 2.25 M 291.75,-27.25 303.5,-20"
         sodipodi:nodetypes="ccsccscc"
         inkstitch:satin_column="True"
         inkstitch:zigzag_spacing_mm="0.3"
         inkstitch:ties="3"
         inkstitch:pull_compensation_mm="0.5"
         inkstitch:zigzag_underlay="True"
         inkstitch:zigzag_underlay_inset_mm="0.1"
         inkscape:label="Auto-remplissage satin 3"
         inkstitch:max_stitch_length_mm="5"
         inkstitch:reverse_rails="none" />
      <path
         id="autosatin106-1-1-1-1-1"
         style="display:inline;fill:none;stroke:#000000;stroke-width:1px"
         d="M 170.9995,0 C 174.9995,-9 175.9995,-18 175.9995,-28 V -217 C 175.9995,-227 175.9995,-237 170.9995,-245 M 170.698,-217.789 H 189.7899 M 172.8193,-24.749 H 189.7899 M 178.2023,-4.438 186.9995,-10 V -234 L 179.5882,-238.916"
         sodipodi:nodetypes="cssccccccccc"
         inkstitch:satin_column="True"
         inkstitch:zigzag_spacing_mm="0.3"
         inkstitch:ties="3"
         inkstitch:pull_compensation_mm="0.5"
         inkstitch:zigzag_underlay="True"
         inkstitch:zigzag_underlay_inset_mm="0.1"
         inkscape:label="Auto-remplissage satin 4"
         inkstitch:max_stitch_length_mm="5"
         inkstitch:reverse_rails="none" />
      <path
         id="autosatin107-1-1-1-1-1"
         style="display:inline;fill:none;stroke:#000000;stroke-width:1px"
         d="M 170.9995,-245 H 276 M 196.8609,-248.194 V -231.931 M 261.2075,-247.487 V -231.931 M 179.5882,-238.916 186.9995,-234 H 269.9995 L 273.872,-240.576"
         sodipodi:nodetypes="cccccccccc"
         inkstitch:satin_column="True"
         inkstitch:zigzag_spacing_mm="0.3"
         inkstitch:ties="3"
         inkstitch:pull_compensation_mm="0.5"
         inkstitch:zigzag_underlay="True"
         inkstitch:zigzag_underlay_inset_mm="0.1"
         inkscape:label="Auto-remplissage satin 5"
         inkstitch:max_stitch_length_mm="5"
         inkstitch:reverse_rails="none" />
      <path
         id="autosatin108-1-1-1-1-1"
         style="display:inline;fill:none;stroke:#000000;stroke-width:1px"
         d="M 276,-245 306.769,-193.718 M 273.872,-240.576 269.9995,-234 298.103,-187.408 M 274.643,-213.546 294.442,-226.981"
         sodipodi:nodetypes="ccccccc"
         inkstitch:satin_column="True"
         inkstitch:zigzag_spacing_mm="0.3"
         inkstitch:ties="3"
         inkstitch:pull_compensation_mm="0.5"
         inkstitch:zigzag_underlay="True"
         inkstitch:zigzag_underlay_inset_mm="0.1"
         inkscape:label="Auto-remplissage satin 6"
         inkstitch:max_stitch_length_mm="5"
         inkstitch:reverse_rails="none" />
      <path
         id="autosatin109-1-1-1-1-1"
         style="display:inline;fill:none;stroke:#000000;stroke-width:1px"
         d="M 346,-108 298.103,-187.408 M 354,-115 306.769,-193.718 M 307.253,-193.948 297.721,-187.007"
         sodipodi:nodetypes="ccccccc"
         inkstitch:satin_column="True"
         inkstitch:zigzag_spacing_mm="0.3"
         inkstitch:ties="3"
         inkstitch:pull_compensation_mm="0.5"
         inkstitch:zigzag_underlay="True"
         inkstitch:zigzag_underlay_inset_mm="0.1"
         inkscape:label="Auto-remplissage satin 8"
         inkstitch:max_stitch_length_mm="5"
         inkstitch:reverse_rails="none" />
      <path
         id="autosatin110-1-1-1-1-1"
         style="display:inline;fill:none;stroke:#000000;stroke-width:1px"
         d="M 301,-203 V -212 C 301,-265 337,-308 381,-308 402,-308 426.999,-300 439.999,-283 444.999,-277 448.833,-268.833 454.833,-264.833 M 295.855,-231.931 H 315.655 M 380.002,-314.663 V -292.035 M 427.377,-273.65 445.055,-287.793 M 311,-186 V -212 C 311,-260 343,-298 381,-298 403,-298 427.999,-288 435.999,-270 L 445.369,-267.368"
         sodipodi:nodetypes="csscccccccccsscc"
         inkstitch:satin_column="True"
         inkstitch:zigzag_spacing_mm="0.3"
         inkstitch:ties="3"
         inkstitch:pull_compensation_mm="0.5"
         inkstitch:zigzag_underlay="True"
         inkstitch:zigzag_underlay_inset_mm="0.1"
         inkscape:label="Auto-remplissage satin 9"
         inkstitch:max_stitch_length_mm="5"
         inkstitch:reverse_rails="none" />
      <path
         id="autosatin111-1-1-1-1-1"
         style="display:inline;fill:none;stroke:#000000;stroke-width:1px"
         d="M 454.833,-264.833 C 434.883,-265.523 422.206,-246.238 417.723,-235.62 L 415.956,-231.316 414.454,-226.878 413.218,-222.344 412.252,-217.75 411.559,-213.137 411.139,-208.541 411,-204 V -28 L 411.077,-20.531 411.264,-16.855 411.625,-13.25 411.69,-12.862 M 445.369,-267.368 435.999,-270 431.64,-267.721 427.561,-265.031 423.766,-261.967 420.25,-258.562 417.016,-254.853 414.062,-250.875 411.391,-246.662 409,-242.25 406.891,-237.674 405.062,-232.969 403.516,-228.17 402.25,-223.312 401.266,-218.432 400.562,-213.562 400.141,-208.74 400,-204 V -13.628 M 392.729,-211.425 H 418.185 M 394.144,-38.184 H 415.004"
         sodipodi:nodetypes="ccccccccccccccccccccccccccccccccccccc"
         inkstitch:satin_column="True"
         inkstitch:zigzag_spacing_mm="0.3"
         inkstitch:ties="3"
         inkstitch:pull_compensation_mm="0.5"
         inkstitch:zigzag_underlay="True"
         inkstitch:zigzag_underlay_inset_mm="0.1"
         inkscape:label="Auto-remplissage satin 10"
         inkstitch:max_stitch_length_mm="5"
         inkstitch:reverse_rails="none" />
      <path
         id="autosatin112-1-1-1-1-1"
         style="display:inline;fill:none;stroke:#000000;stroke-width:1px"
         d="M 241.9995,-151 327,-10 324.014,-4.349 M 233.9995,-145 321,0 M 310.705,-12.374 322.726,-20.86"
         sodipodi:nodetypes="ccccccc"
         inkstitch:satin_column="True"
         inkstitch:zigzag_spacing_mm="0.3"
         inkstitch:ties="3"
         inkstitch:pull_compensation_mm="0.5"
         inkstitch:zigzag_underlay="True"
         inkstitch:zigzag_underlay_inset_mm="0.1"
         inkscape:label="Auto-remplissage satin 14"
         inkstitch:max_stitch_length_mm="5"
         inkstitch:reverse_rails="none" />
      <path
         id="autosatin113-1-1-1-1-1-1-1-1-1"
         style="display:inline;fill:none;stroke:#000000;stroke-width:1px"
         d="M 324.014,-4.349 327,-10 H 400 L 408.012,-4.7 M 321,0 H 416 M 340.404,-14.849 339.697,6.364 M 388.486,-13.435 387.78,5.657"
         sodipodi:nodetypes="cccccccccc"
         inkstitch:satin_column="True"
         inkstitch:zigzag_spacing_mm="0.3"
         inkstitch:ties="3"
         inkstitch:pull_compensation_mm="0.5"
         inkstitch:zigzag_underlay="True"
         inkstitch:zigzag_underlay_inset_mm="0.1"
         inkscape:label="Auto-remplissage satin 15"
         inkstitch:max_stitch_length_mm="5"
         inkstitch:reverse_rails="none" />
      <path
         id="autosatin114-1-1-1-1-1-1-1-1-1"
         style="display:inline;fill:none;stroke:#000000;stroke-width:1px"
         d="M 408.012,-4.7 400,-10 V -13.628 M 416,0 414.35,-3.09 413.108,-6.344 412.221,-9.738 411.69,-12.862 M 412.293,-12.726 399.415,-13.566"
         sodipodi:nodetypes="ccsscccccccscc"
         inkstitch:satin_column="True"
         inkstitch:zigzag_spacing_mm="0.3"
         inkstitch:ties="2"
         inkstitch:force_lock_stitches="True"
         inkstitch:pull_compensation_mm="0.5"
         inkstitch:zigzag_underlay="True"
         inkstitch:zigzag_underlay_inset_mm="0.1"
         inkscape:label="Auto-remplissage satin 16"
         inkstitch:max_stitch_length_mm="5"
         inkstitch:reverse_rails="none" />
    </g>
  </g>
  <metadata
     id="metadata4">
    <rdf:RDF>
      <cc:Work
         rdf:about="">
        <cc:license
           rdf:resource="http://creativecommons.org/publicdomain/zero/1.0/" />
      </cc:Work>
      <cc:License
         rdf:about="http://creativecommons.org/publicdomain/zero/1.0/">
        <cc:permits
           rdf:resource="http://creativecommons.org/ns#Reproduction" />
        <cc:permits
           rdf:resource="http://creativecommons.org/ns#Distribution" />
        <cc:permits
           rdf:resource="http://creativecommons.org/ns#DerivativeWorks" />
      </cc:License>
    </rdf:RDF>
    <inkstitch:min_stitch_len_mm>0.5</inkstitch:min_stitch_len_mm>
    <inkstitch:collapse_len_mm>12</inkstitch:collapse_len_mm>
    <inkstitch:inkstitch_svg_version>1</inkstitch:inkstitch_svg_version>
  </metadata>
</svg>
