<?xml version="1.0" encoding="UTF-8" standalone="no"?>
<!-- Created with Inkscape (http://www.inkscape.org/) -->

<svg
   width="75.291794mm"
   height="84.942696mm"
   viewBox="0 0 75.291794 84.942692"
   version="1.1"
   id="svg1"
   inkscape:version="1.3.2 (091e20ef0f, 2023-11-25, custom)"
   sodipodi:docname="tartan-fill.svg"
   xmlns:inkscape="http://www.inkscape.org/namespaces/inkscape"
   xmlns:sodipodi="http://sodipodi.sourceforge.net/DTD/sodipodi-0.dtd"
   xmlns="http://www.w3.org/2000/svg"
   xmlns:svg="http://www.w3.org/2000/svg"
   xmlns:rdf="http://www.w3.org/1999/02/22-rdf-syntax-ns#"
   xmlns:cc="http://creativecommons.org/ns#"
   xmlns:inkstitch="http://inkstitch.org/namespace">
  <sodipodi:namedview
     id="namedview1"
     pagecolor="#ffffff"
     bordercolor="#000000"
     borderopacity="0.25"
     inkscape:showpageshadow="2"
     inkscape:pageopacity="0.0"
     inkscape:pagecheckerboard="0"
     inkscape:deskcolor="#d1d1d1"
     inkscape:document-units="mm"
     showgrid="true"
     inkscape:zoom="1.5519126"
     inkscape:cx="153.03697"
     inkscape:cy="144.66021"
     inkscape:window-width="1920"
     inkscape:window-height="1011"
     inkscape:window-x="0"
     inkscape:window-y="32"
     inkscape:window-maximized="1"
     inkscape:current-layer="layer1"
     showguides="true">
  </sodipodi:namedview>
  <defs
     id="defs1" />
  <g
     inkscape:label="Layer1"
     inkscape:groupmode="layer"
     id="layer1"
     transform="translate(-45.4999, 83.4192)">
    <path
       id="path1607-1-1-1"
       style="display:inline;fill:#40abbf;fill-opacity:1;stroke:none;stroke-width:0.264583px;stroke-linecap:butt;stroke-linejoin:miter;stroke-miterlimit:4;stroke-dasharray:0.793749, 0.264583;stroke-dashoffset:0;stroke-opacity:1"
       d="M 48.253773,-3.2809826 48.721503,-63.58765 72.668964,-63.493988 80.994068,-50.023803 C 81.586998,-91.821038 114.94853,-81.362865 117.66342,-71.445501 112.26011,-69.081981 108.66522,-64.105968 107.74764,-55.262282 L 107.65451,-1.66147 85.951824,-1.5678076 80.620212,-9.8934409 C 78.876874,-6.2940538 77.350231,-2.5592002 71.733266,-1.3807475 L 48.230358,-1.1936873 Z"
       inkstitch:fill_method="tartan_fill"
       inkstitch:tartan="{&quot;symmetry&quot;: false, &quot;equal_warp_weft&quot;: true, &quot;rotate&quot;: 56.0, &quot;scale&quot;: 100, &quot;offset_x&quot;: 12.0, &quot;offset_y&quot;: 0, &quot;palette&quot;: &quot;...(#21AB8A)2.5 (#CB443C)2.0 (#21AB8A)2.5 (#40ABBF)8.0 (#1A5FB4)1.0 (#40ABBF)1.1 (#1A5FB4)1.0 (#40ABBF)8.0...&quot;, &quot;output&quot;: &quot;embroidery&quot;, &quot;stitch_type&quot;: &quot;legacy_fill&quot;, &quot;row_spacing&quot;: 1, &quot;angle_warp&quot;: 0, &quot;angle_weft&quot;: 90, &quot;min_stripe_width&quot;: 1, &quot;bean_stitch_repeats&quot;: 0}"
       inkstitch:bean_stitch_repeats="0"
       inkstitch:rows_per_thread="4"
       sodipodi:nodetypes="cccccccccccc"
       inkstitch:fill_underlay_angle="90 -56"
       inkstitch:fill_underlay_row_spacing_mm="1"
       inkscape:label="Tartan fill" />
    <g
       id="g1"
       inkscape:label="Satin border">
      <path
         id="autosatin105-1-1-1-1-1"
         style="display:inline;fill:none;stroke:#000000;stroke-width:0.264583px"
         d="M 79.965369,-8.7708152 81.07503,-7.308465 C 79.487532,-3.33972 75.518787,-0.164724 71.020744,-0.164724 H 45.620776 M 78.958366,-10.748044 C 78.958366,-6.514716 75.254204,-2.810554 71.020744,-2.810554 H 49.854104 L 47.526514,-1.3389434 M 52.830662,-3.075137 52.764517,0.29829625 M 71.086889,-3.2074285 V 0.43058775 M 77.569305,-7.3746108 80.678156,-5.456384"
         sodipodi:nodetypes="ccsccscc"
         inkstitch:satin_column="True"
         inkstitch:zigzag_spacing_mm="0.3"
         inkstitch:ties="3"
         inkstitch:pull_compensation_mm="0.5"
         inkstitch:zigzag_underlay="True"
         inkstitch:zigzag_underlay_inset_mm="0.1"
         inkscape:label="Auto-remplissage satin 3"
         inkstitch:max_stitch_length_mm="5"
         inkstitch:reverse_rails="none" />
      <path
         id="autosatin106-1-1-1-1-1"
         style="display:inline;fill:none;stroke:#000000;stroke-width:0.264583px"
         d="M 45.620776,-0.164724 C 46.679108,-2.545971 46.943691,-4.927218 46.943691,-7.573048 V -57.579235 C 46.943691,-60.225065 46.943691,-62.870895 45.620776,-64.987559 M 45.541004,-57.787991 H 50.592396 M 46.102264,-6.7128887 H 50.592396 M 47.526514,-1.3389434 49.854104,-2.810554 V -62.077146 L 47.8932,-63.377836"
         sodipodi:nodetypes="cssccccccccc"
         inkstitch:satin_column="True"
         inkstitch:zigzag_spacing_mm="0.3"
         inkstitch:ties="3"
         inkstitch:pull_compensation_mm="0.5"
         inkstitch:zigzag_underlay="True"
         inkstitch:zigzag_underlay_inset_mm="0.1"
         inkscape:label="Auto-remplissage satin 4"
         inkstitch:max_stitch_length_mm="5"
         inkstitch:reverse_rails="none" />
      <path
         id="autosatin107-1-1-1-1-1"
         style="display:inline;fill:none;stroke:#000000;stroke-width:0.264583px"
         d="M 45.620776,-64.987559 H 73.402123 M 52.463263,-65.832637 V -61.529724 M 69.488279,-65.645577 V -61.529724 M 47.8932,-63.377836 49.854104,-62.077146 H 71.814493 L 72.83909,-63.817044"
         sodipodi:nodetypes="cccccccccc"
         inkstitch:satin_column="True"
         inkstitch:zigzag_spacing_mm="0.3"
         inkstitch:ties="3"
         inkstitch:pull_compensation_mm="0.5"
         inkstitch:zigzag_underlay="True"
         inkstitch:zigzag_underlay_inset_mm="0.1"
         inkscape:label="Auto-remplissage satin 5"
         inkstitch:max_stitch_length_mm="5"
         inkstitch:reverse_rails="none" />
      <path
         id="autosatin108-1-1-1-1-1"
         style="display:inline;fill:none;stroke:#000000;stroke-width:0.264583px"
         d="M 73.402123,-64.987559 81.543077,-51.419214 M 72.83909,-63.817044 71.814493,-62.077146 79.250201,-49.749695 M 73.043084,-56.665365 78.281563,-60.220038"
         sodipodi:nodetypes="ccccccc"
         inkstitch:satin_column="True"
         inkstitch:zigzag_spacing_mm="0.3"
         inkstitch:ties="3"
         inkstitch:pull_compensation_mm="0.5"
         inkstitch:zigzag_underlay="True"
         inkstitch:zigzag_underlay_inset_mm="0.1"
         inkscape:label="Auto-remplissage satin 6"
         inkstitch:max_stitch_length_mm="5"
         inkstitch:reverse_rails="none" />
      <path
         d="M 80.514969,-50.583536 C 84.732157,-43.574203 88.948816,-36.564606 93.16574,-29.555008"
         style="display:inline;fill:none;stroke:#000000;stroke-width:0.132291px;stroke-dasharray:0.793749, 0.264583"
         inkstitch:running_stitch_length_mm="2"
         id="autosatinrun61-1"
         inkscape:label="Points droits pour auto-remplissage satin 7"
         inkstitch:ties="3"
         sodipodi:nodetypes="cc" />
      <path
         id="autosatin109-1-1-1-1-1"
         style="display:inline;fill:none;stroke:#000000;stroke-width:0.264583px"
         d="M 91.922933,-28.739688 79.250201,-49.749695 M 94.039597,-30.591769 81.543077,-51.419214 M 81.671135,-51.480068 79.14913,-49.643597"
         sodipodi:nodetypes="ccccccc"
         inkstitch:satin_column="True"
         inkstitch:zigzag_spacing_mm="0.3"
         inkstitch:ties="3"
         inkstitch:pull_compensation_mm="0.5"
         inkstitch:zigzag_underlay="True"
         inkstitch:zigzag_underlay_inset_mm="0.1"
         inkscape:label="Auto-remplissage satin 8"
         inkstitch:max_stitch_length_mm="5"
         inkstitch:reverse_rails="none" />
      <path
         id="autosatin110-1-1-1-1-1"
         style="display:inline;fill:none;stroke:#000000;stroke-width:0.264583px"
         d="M 80.016698,-53.875073 V -56.25632 C 80.016698,-70.279219 89.541686,-81.656288 101.18334,-81.656288 106.73958,-81.656288 113.35389,-79.539624 116.79347,-75.041713 118.11639,-73.454215 119.1308,-71.293366 120.71829,-70.235034 M 78.655418,-61.529724 H 83.894162 M 100.91928,-83.419205 V -77.43222 M 113.4539,-72.567862 118.1312,-76.309859 M 82.662528,-49.377162 V -56.25632 C 82.662528,-68.956304 91.129184,-79.010458 101.18334,-79.010458 107.00416,-79.010458 113.61847,-76.364628 115.73514,-71.602134 L 118.21428,-70.905752"
         sodipodi:nodetypes="csscccccccccsscc"
         inkstitch:satin_column="True"
         inkstitch:zigzag_spacing_mm="0.3"
         inkstitch:ties="3"
         inkstitch:pull_compensation_mm="0.5"
         inkstitch:zigzag_underlay="True"
         inkstitch:zigzag_underlay_inset_mm="0.1"
         inkscape:label="Auto-remplissage satin 9"
         inkstitch:max_stitch_length_mm="5"
         inkstitch:reverse_rails="none" />
      <path
         id="autosatin111-1-1-1-1-1"
         style="display:inline;fill:none;stroke:#000000;stroke-width:0.264583px"
         d="M 120.71829,-70.235034 C 115.43986,-70.417596 112.08575,-65.315113 110.89962,-62.50577 L 110.4321,-61.367005 110.0347,-60.192786 109.70767,-58.993167 109.45209,-57.777672 109.26873,-56.557151 109.15761,-55.341127 109.12083,-54.139656 V -7.573048 L 109.1412,-5.5968776 109.19068,-4.6242705 109.28619,-3.6704488 109.30339,-3.5677905 M 118.21428,-70.905752 115.73514,-71.602134 114.58182,-70.999149 113.50259,-70.287421 112.49849,-69.476739 111.56822,-68.575834 110.71256,-67.594495 109.93098,-66.541984 109.22428,-65.427296 108.59166,-64.259956 108.03366,-63.049224 107.54973,-61.804361 107.14069,-60.534627 106.80573,-59.249283 106.54538,-57.958118 106.35911,-56.669599 106.24772,-55.393779 106.21042,-54.139656 V -3.7704611 M 104.28663,-56.104185 H 111.02186 M 104.66102,-10.267561 H 110.18022"
         sodipodi:nodetypes="ccccccccccccccccccccccccccccccccccccc"
         inkstitch:satin_column="True"
         inkstitch:zigzag_spacing_mm="0.3"
         inkstitch:ties="3"
         inkstitch:pull_compensation_mm="0.5"
         inkstitch:zigzag_underlay="True"
         inkstitch:zigzag_underlay_inset_mm="0.1"
         inkscape:label="Auto-remplissage satin 10"
         inkstitch:max_stitch_length_mm="5"
         inkstitch:reverse_rails="none" />
      <path
         d="M 108.1388,-3.4510549 C 107.98905,-2.2310626 107.59271,-1.5343769 104.87861,-1.4991874 104.99,-1.3758917 87.342845,-1.5047436 87.342845,-1.5047436 86.928773,-1.2660898 85.660626,-2.2270939 85.031713,-3.2131948 77.940888,-15.002749 70.850196,-26.792574 63.759636,-38.582393"
         style="display:inline;fill:none;stroke:#000000;stroke-width:0.132291px;stroke-dasharray:0.793749, 0.264583"
         inkstitch:running_stitch_length_mm="2"
         id="autosatinrun62-1"
         inkscape:label="Points droits pour auto-remplissage satin 11"
         inkstitch:ties="3"
         sodipodi:nodetypes="ccccc" />
      <path
         id="autosatin112-1-1-1-1-1"
         style="display:inline;fill:none;stroke:#000000;stroke-width:0.264583px"
         d="M 64.406169,-40.116757 86.895856,-2.810554 86.105811,-1.3153955 M 62.289505,-38.529259 85.308358,-0.164724 M 82.584476,-3.438674 85.765028,-5.6839254"
         sodipodi:nodetypes="ccccccc"
         inkstitch:satin_column="True"
         inkstitch:zigzag_spacing_mm="0.3"
         inkstitch:ties="3"
         inkstitch:pull_compensation_mm="0.5"
         inkstitch:zigzag_underlay="True"
         inkstitch:zigzag_underlay_inset_mm="0.1"
         inkscape:label="Auto-remplissage satin 14"
         inkstitch:max_stitch_length_mm="5"
         inkstitch:reverse_rails="none" />
      <path
         id="autosatin113-1-1-1-1-1-1-1-1-1"
         style="display:inline;fill:none;stroke:#000000;stroke-width:0.264583px"
         d="M 86.105811,-1.3153955 86.895856,-2.810554 H 106.21042 L 108.33025,-1.4082641 M 85.308358,-0.164724 H 110.44374 M 90.442327,-4.093517 90.255266,1.5190822 M 103.16401,-3.7193966 102.97721,1.332022"
         sodipodi:nodetypes="cccccccccc"
         inkstitch:satin_column="True"
         inkstitch:zigzag_spacing_mm="0.3"
         inkstitch:ties="3"
         inkstitch:pull_compensation_mm="0.5"
         inkstitch:zigzag_underlay="True"
         inkstitch:zigzag_underlay_inset_mm="0.1"
         inkscape:label="Auto-remplissage satin 15"
         inkstitch:max_stitch_length_mm="5"
         inkstitch:reverse_rails="none" />
      <path
         id="autosatin114-1-1-1-1-1-1-1-1-1"
         style="display:inline;fill:none;stroke:#000000;stroke-width:0.264583px"
         d="M 108.33025,-1.4082641 106.21042,-2.810554 V -3.7704611 M 110.44374,-0.164724 110.00718,-0.98228547 109.67857,-1.8432386 109.44388,-2.7412333 109.30339,-3.5677905 M 109.46293,-3.5318073 106.05563,-3.754057"
         sodipodi:nodetypes="ccsscccccccscc"
         inkstitch:satin_column="True"
         inkstitch:zigzag_spacing_mm="0.3"
         inkstitch:ties="2"
         inkstitch:force_lock_stitches="True"
         inkstitch:pull_compensation_mm="0.5"
         inkstitch:zigzag_underlay="True"
         inkstitch:zigzag_underlay_inset_mm="0.1"
         inkscape:label="Auto-remplissage satin 16"
         inkstitch:max_stitch_length_mm="5"
         inkstitch:reverse_rails="none" />
    </g>
  </g>
  <metadata
     id="metadata4">
    <rdf:RDF>
      <cc:Work
         rdf:about="">
        <cc:license
           rdf:resource="http://creativecommons.org/publicdomain/zero/1.0/" />
      </cc:Work>
      <cc:License
         rdf:about="http://creativecommons.org/publicdomain/zero/1.0/">
        <cc:permits
           rdf:resource="http://creativecommons.org/ns#Reproduction" />
        <cc:permits
           rdf:resource="http://creativecommons.org/ns#Distribution" />
        <cc:permits
           rdf:resource="http://creativecommons.org/ns#DerivativeWorks" />
      </cc:License>
    </rdf:RDF>
    <inkstitch:min_stitch_len_mm>0.5</inkstitch:min_stitch_len_mm>
    <inkstitch:collapse_len_mm>12</inkstitch:collapse_len_mm>
    <inkstitch:inkstitch_svg_version>1</inkstitch:inkstitch_svg_version>
  </metadata>
</svg>
