<?xml version="1.0" encoding="UTF-8" standalone="no"?>
<!-- Created with Inkscape (http://www.inkscape.org/) -->

<svg
   width="300mm"
   height="200mm"
   viewBox="0 0 300 200"
   version="1.1"
   id="svg1"
   inkscape:version="1.3.2 (091e20e, 2023-11-25)"
   xml:space="preserve"
   sodipodi:docname="zigzagmeander_grumpycat.svg"
   xmlns:inkscape="http://www.inkscape.org/namespaces/inkscape"
   xmlns:sodipodi="http://sodipodi.sourceforge.net/DTD/sodipodi-0.dtd"
   xmlns="http://www.w3.org/2000/svg"
   xmlns:svg="http://www.w3.org/2000/svg"
   xmlns:inkstitch="http://inkstitch.org/namespace"><sodipodi:namedview
     id="namedview1"
     pagecolor="#ffffff"
     bordercolor="#000000"
     borderopacity="0.25"
     inkscape:showpageshadow="2"
     inkscape:pageopacity="0.0"
     inkscape:pagecheckerboard="0"
     inkscape:deskcolor="#d1d1d1"
     inkscape:document-units="mm"
     inkscape:zoom="1.0571244"
     inkscape:cx="327.303"
     inkscape:cy="249.2611"
     inkscape:current-layer="g40" /><metadata
     id="metadata1"><inkstitch:min_stitch_len_mm>0.5</inkstitch:min_stitch_len_mm><inkstitch:collapse_len_mm>2</inkstitch:collapse_len_mm><inkstitch:inkstitch_svg_version>1</inkstitch:inkstitch_svg_version></metadata><defs
     id="defs1"><symbol
       id="inkstitch_fill_start"><title
         id="inkstitch_title9432">Fill stitch starting point</title><path
         id="inkstitch_circle13166-6"
         d="m 9.2465269,-2.6e-6 c -1.9e-6,5.106729 -4.1398247,9.24655 -9.246554026709,9.24655 C -5.106756,9.2465474 -9.2465782,5.1067264 -9.2465801,-2.6e-6 c 2e-7,-5.10673 4.1398229,-9.246553 9.246552973291,-9.246553 2.452338526709,0 4.804235626709,0.974187 6.538300926709,2.708252 1.7340652,1.734066 2.708253,4.085963 2.7082531,6.538301 0,0 0,0 0,0"
         style="opacity:1;vector-effect:none;fill:#fafafa;fill-opacity:1;fill-rule:evenodd;stroke:#003399;stroke-width:1.06501;stroke-linecap:round;stroke-linejoin:miter;stroke-miterlimit:4;stroke-dasharray:3.19504, 3.19504;stroke-dashoffset:0;stroke-opacity:1"
         inkscape:connector-curvature="0" /><path
         style="opacity:1;vector-effect:none;fill:#000000;fill-opacity:1;fill-rule:evenodd;stroke:none;stroke-width:2.74181;stroke-linecap:butt;stroke-linejoin:miter;stroke-miterlimit:4;stroke-dasharray:none;stroke-dashoffset:0;stroke-opacity:1"
         d="m 6.5728129,0.0035574 c 0,0 -10.4514,6.03412 -10.4514,6.03412 0,0 0,-12.06823 0,-12.06823 0,0 10.4514,6.03411 10.4514,6.03411"
         id="inkstitch_path4183"
         inkscape:connector-curvature="0" /></symbol><symbol
       id="inkstitch_fill_end"><title
         id="inkstitch_title9427">Fill stitch ending point</title><path
         id="inkstitch_circle13166"
         d="m 9.220113,0.0792309 c -1.9e-6,5.106729 -4.1398241,9.24655 -9.246553,9.24655 -5.1067293,0 -9.2465521,-4.139821 -9.246554,-9.24655 1e-7,-2.452338 0.9741879,-4.804235 2.7082531,-6.538301 1.7340653,-1.734065 4.0859624,-2.708252 6.5383009,-2.708252 5.1067301,0 9.2465528,4.139823 9.246553,9.246553 0,0 0,0 0,0"
         style="opacity:1;vector-effect:none;fill:#fafafa;fill-opacity:1;fill-rule:evenodd;stroke:#003399;stroke-width:1.065;stroke-linecap:round;stroke-linejoin:miter;stroke-miterlimit:4;stroke-dasharray:3.195, 3.195;stroke-dashoffset:0;stroke-opacity:1"
         inkscape:connector-curvature="0" /><path
         style="opacity:1;fill:#000000;fill-opacity:1;fill-rule:nonzero;stroke:none;stroke-width:2.27154;stroke-linecap:round;stroke-linejoin:round;stroke-miterlimit:4;stroke-dasharray:4.81867, 4.81867;stroke-dashoffset:0;stroke-opacity:1;paint-order:fill markers stroke"
         d="m -4.570439,-4.5704391 c 0,0 9.140878,0 9.140878,0 0,0 0,9.14087 0,9.14087 0,0 -9.140878,0 -9.140878,0 0,0 0,-9.14087 0,-9.14087"
         id="inkstitch_rect5371-2"
         inkscape:connector-curvature="0" /></symbol><symbol
       id="inkstitch_ripple_target"
       style="display:inline"><title
         id="inkstitch_title9427-9">Ripple stitch target point</title><path
         id="inkstitch_circle13166-9"
         d="m 9.220113,0.07922893 c -1.9e-6,5.10672897 -4.1398241,9.24654997 -9.24655297,9.24654997 -5.10672933,0 -9.24655213,-4.139821 -9.24655403,-9.24654997 1e-7,-2.45233803 0.9741879,-4.80423503 2.7082531,-6.53830103 1.7340653,-1.734065 4.0859624,-2.708252 6.53830093,-2.708252 5.10673007,0 9.24655277,4.139823 9.24655297,9.24655303 0,0 0,0 0,0"
         style="opacity:1;vector-effect:none;fill:#fafafa;fill-opacity:1;fill-rule:evenodd;stroke:#003399;stroke-width:1.065;stroke-linecap:round;stroke-linejoin:miter;stroke-miterlimit:4;stroke-dasharray:3.195, 3.195;stroke-dashoffset:0;stroke-opacity:1"
         inkscape:connector-curvature="0" /><path
         style="opacity:1;fill:none;stroke:#000000;stroke-width:1.5;stroke-linecap:round;stroke-linejoin:round;stroke-miterlimit:4;stroke-opacity:1"
         d="m -4.1361006,-3.9974292 8.224564,8.224564 m 0,-8.224564 -8.224564,8.224564 m 9.927927,-4.112282 h -11.63129 m 5.81564501,-5.815645 v 11.63129"
         id="inkstitch_rect5371-2-9"
         inkscape:connector-curvature="0" /></symbol><symbol
       id="inkstitch_run_start"
       style="display:inline"><title
         id="inkstitch_title9427-3">Running stitch starting point</title><path
         style="opacity:1;vector-effect:none;fill:#fafafa;fill-opacity:1;fill-rule:evenodd;stroke:#003399;stroke-width:1.065;stroke-linecap:round;stroke-linejoin:miter;stroke-miterlimit:4;stroke-dasharray:3.195, 3.195;stroke-dashoffset:0;stroke-opacity:1"
         d="M 9.2201108,0.05852023 A 9.2576327,9.2122261 0 0 1 -0.03752532,9.2707454 9.2576327,9.2122261 0 0 1 -9.2951565,0.05852023 9.2576327,9.2122261 0 0 1 -0.03752532,-9.1537082 9.2576327,9.2122261 0 0 1 9.2201108,0.05852023 Z"
         id="inkstitch-autorun_start-circle" /><path
         style="fill:#000000"
         id="inkstitch-autorun_start-path"
         d="m -3.8159516,-5.6184574 c -0.3237427,0.020819 -0.5868063,0.2896236 -0.5907925,0.6167873 -0.00301,0.2444103 0.1384108,0.4575508 0.3447536,0.5613983 l -0.084402,6.772037 c -0.1244867,-0.03501 -0.2442949,-0.092709 -0.3519231,-0.1734001 -0.018852,-0.014824 -0.04551,-0.014824 -0.064361,0 -0.018491,0.013861 -0.025495,0.038228 -0.017164,0.05968 l 0.6437207,1.8106215 c 0.016803,0.044746 0.080472,0.044746 0.097275,0 l 0.6923582,-1.7949729 c 0.01924,-0.049558 -0.04036,-0.092132 -0.081524,-0.058277 -0.1120849,0.077886 -0.2339971,0.131597 -0.3605046,0.1634443 l 0.078701,-6.7706068 c 0.2092494,-0.097934 0.3546084,-0.3086274 0.3576257,-0.5542753 0.00418,-0.34328 -0.2710359,-0.6282831 -0.6165645,-0.632436 -0.016194,-1.924e-4 -0.031281,-0.00102 -0.047198,-3e-7 z m 0.9498575,1.1369602 c -0.042382,0.00503 -0.060846,0.055939 -0.031474,0.086686 l 1.2703061,1.4510604 c 0.035433,0.033525 0.093621,0.00416 0.087254,-0.044058 -0.016443,-0.1368774 -0.00712,-0.2718022 0.025745,-0.3993565 l 5.8279214,3.19201934 c -0.00955,0.23010929 0.1105352,0.45752327 0.3261511,0.57558932 0.3026489,0.1656996 0.6815068,0.0590468 0.8482917,-0.24160502 0.1667849,-0.30067931 0.059461,-0.68276459 -0.2431877,-0.84846414 -0.216862,-0.11872613 -0.4758284,-0.0980447 -0.6666138,0.0341025 l -5.8250435,-3.1905893 c 0.090438,-0.093452 0.1986471,-0.1708699 0.32186037,-0.2274139 0.044292,-0.022937 0.033578,-0.088721 -0.015724,-0.096642 L -2.8489315,-4.4800672 c -0.00556,-0.00146 -0.011405,-0.00189 -0.017162,-0.00146 z m 6.9651605,5.10354566 -1.909736,0.3126702 c -0.047392,0.011523 -0.054063,0.075768 -0.01,0.096642 0.1244589,0.057067 0.2344955,0.1342923 0.3261511,0.2273865 L -3.4211257,4.5999927 C -3.6139873,4.4704034 -3.8733966,4.4493919 -4.0877673,4.5701537 -4.38834,4.7394835 -4.4899335,5.1199736 -4.3194944,5.4186179 c 0.170439,0.2986167 0.5534215,0.4066446 0.8540219,0.2373147 0.2139276,-0.1204863 0.3297497,-0.3481203 0.3175695,-0.5769918 L 2.778711,1.7376949 c 0.03333,0.1260415 0.043323,0.2590963 0.027184,0.3936635 -0.00791,0.053024 0.060763,0.081379 0.092985,0.038365 L 4.1477039,0.70304186 c 0.026048,-0.036523 -0.00388,-0.086439 -0.048637,-0.0809934 z" /></symbol><symbol
       id="inkstitch_run_end"
       style="display:inline"><title
         id="title1">Running stitch ending point</title><path
         style="opacity:1;vector-effect:none;fill:#fafafa;fill-opacity:1;fill-rule:evenodd;stroke:#003399;stroke-width:1.065;stroke-linecap:round;stroke-linejoin:miter;stroke-miterlimit:4;stroke-dasharray:3.195, 3.195;stroke-dashoffset:0;stroke-opacity:1"
         d="M 9.2201108,0.05852023 A 9.2576327,9.2122261 0 0 1 -0.03752532,9.2707454 9.2576327,9.2122261 0 0 1 -9.2951565,0.05852023 9.2576327,9.2122261 0 0 1 -0.03752532,-9.1537082 9.2576327,9.2122261 0 0 1 9.2201108,0.05852023 Z"
         id="inkstitch-autorun_end-circle" /><path
         style="fill:#000000"
         id="inkstitch-autorun_end-path"
         d="m -1.5977169,-4.8605484 c -0.00319,1.523e-4 -0.00643,6.284e-4 -0.00955,0.00139 l -1.738218,0.6114515 c -0.044131,0.013274 -0.04771,0.07406 -0.00546,0.092381 l 1.7286718,0.6522048 c 0.042543,0.011464 0.077832,-0.033916 0.055977,-0.072004 -0.075631,-0.1076723 -0.1279528,-0.2256474 -0.1583813,-0.3478501 l 5.3580083,0.0693 C 3.7283489,-3.6574881 3.9289854,-3.5209456 4.163113,-3.51807 4.4929661,-3.51396 4.7679522,-3.7755203 4.7721242,-4.1036793 4.7763142,-4.4318766 4.5079699,-4.70559 4.178155,-4.7096844 3.9431472,-4.7126044 3.7385104,-4.5784741 3.6388043,-4.38223 l -5.3566689,-0.065225 c 0.033509,-0.1204507 0.089391,-0.2361787 0.1679695,-0.3396805 0.019712,-0.034678 -0.00793,-0.077126 -0.047786,-0.073375 z m -2.6203001,0.2119742 c -0.3227531,0.0041 -0.5844387,0.2625539 -0.5884958,0.5856093 -0.00295,0.2329983 0.129063,0.4383262 0.3236143,0.5394287 l -0.065546,5.2964025 c -0.1188053,-0.03344 -0.233209,-0.088553 -0.3359005,-0.1657553 -0.018028,-0.014169 -0.043442,-0.014169 -0.061451,0 -0.016535,0.013426 -0.022582,0.035878 -0.015004,0.055721 l 0.6130875,1.7310434 c 0.013338,0.043896 0.074426,0.047476 0.092855,0.00543 l 0.6608737,-1.7201931 c 0.021243,-0.048142 -0.037912,-0.091505 -0.077832,-0.057054 -0.1085476,0.075489 -0.2269701,0.1273635 -0.3495646,0.1576047 l 0.069641,-5.2950505 c 0.1995845,-0.095713 0.3397855,-0.2989653 0.3427327,-0.5326301 0.00412,-0.3281781 -0.2641734,-0.5964641 -0.5939692,-0.6005585 -0.00519,-7.62e-5 -0.00991,-7.62e-5 -0.015023,0 z m 8.4425639,1.3302136 c -0.020458,-1.333e-4 -0.038925,0.012283 -0.046428,0.03125 l -0.6608735,1.714742 c -0.021243,0.04818 0.037931,0.091524 0.077851,0.057054 0.1072273,-0.074556 0.2244441,-0.1271727 0.3454502,-0.1576044 L 3.8750009,3.6234841 C 3.6760287,3.7194257 3.5366315,3.9202022 3.5336461,4.15341 3.529436,4.4816071 3.7964416,4.7512453 4.1262565,4.7553397 4.4560331,4.759449 4.726962,4.4979085 4.731134,4.1697112 4.7341354,3.934523 4.5996979,3.7276145 4.4020654,3.6275594 L 4.4703294,-1.66612 c 0.1197239,0.033383 0.2338597,0.08802 0.3372785,0.1657745 0.039309,0.032355 0.096166,-0.00834 0.077832,-0.055721 L 4.2709744,-3.2871101 c -0.00748,-0.018949 -0.02595,-0.031384 -0.046428,-0.031251 z M 1.5114302,3.6180947 c -0.037451,6.856e-4 -0.060627,0.040868 -0.042351,0.073356 0.075823,0.1079391 0.1280103,0.2267139 0.1584006,0.3492023 L -3.7305473,3.971372 c -0.096108,-0.1988532 -0.2989079,-0.338138 -0.5338966,-0.3410517 -0.3297958,-0.0041 -0.5994042,0.2615256 -0.6035188,0.5896847 -0.00413,0.3281972 0.2627956,0.6019488 0.5926104,0.6060241 0.2345678,0.00292 0.4394534,-0.1304295 0.5393508,-0.3261024 l 5.3580084,0.063873 C 1.5885549,4.684593 1.5314859,4.7996924 1.4526979,4.90348 1.4299049,4.942272 1.4668789,4.9887 1.5100529,4.975503 L 3.2496085,4.3640511 c 0.043002,-0.015959 0.043002,-0.076441 0,-0.0924 L 1.5250561,3.6194659 c -0.00446,-0.00112 -0.00905,-0.00154 -0.013665,-0.00139 z" /></symbol><symbol
       style="display:inline"
       id="inkstitch_satin_start"><title
         id="inkstitch_title9432-1">Satin column starting point</title><path
         inkscape:connector-curvature="0"
         id="inkstitch_circle13166-6-2"
         d="M 9.2465269,-4.9265995e-6 C 9.246525,5.1067241 5.1067022,9.2465451 -2.715882e-5,9.2465451 -5.106756,9.2465451 -9.2465782,5.1067241 -9.2465801,-4.9265995e-6 -9.2465799,-5.1067349 -5.1067572,-9.2465579 -2.715882e-5,-9.2465579 c 2.45233855882,0 4.80423565882,0.974187 6.53830095882,2.708252 1.7340652,1.734066 2.708253,4.085963 2.7082531,6.5383009734005 0,0 0,0 0,0"
         style="opacity:1;vector-effect:none;fill:#fafafa;fill-opacity:1;fill-rule:evenodd;stroke:#003399;stroke-width:1.06501;stroke-linecap:round;stroke-linejoin:miter;stroke-miterlimit:4;stroke-dasharray:3.19504, 3.19504;stroke-dashoffset:0;stroke-opacity:1" /><path
         inkscape:connector-curvature="0"
         style="opacity:1;vector-effect:none;fill:#000000;fill-opacity:1;fill-rule:evenodd;stroke:none;stroke-width:2.74181;stroke-linecap:butt;stroke-linejoin:miter;stroke-miterlimit:4;stroke-dasharray:none;stroke-dashoffset:0;stroke-opacity:1"
         d="m 6.5728129,0.00355507 c 0,0 -10.4514,6.03412003 -10.4514,6.03412003 0,0 0,-12.06823 0,-12.06823 0,0 10.4514,6.03410997 10.4514,6.03410997"
         id="inkstitch_path4183-7" /><path
         inkscape:connector-curvature="0"
         style="display:inline;opacity:1;fill:none;fill-opacity:1;stroke:#ffffff;stroke-width:0.2;stroke-linejoin:miter;stroke-miterlimit:4;stroke-dasharray:none;stroke-dashoffset:0;stroke-opacity:1;paint-order:fill markers stroke"
         d="m -3.0312502,1.577739 c 0,0 0.25,-3.6875002 0.25,-3.6875002 0,0 1.0312501,3.8437502 1.0312501,3.8437502 0,0 0.34375,-3.6250002 0.34375,-3.6250002 0,0 0.96874997,3.5625002 0.96874997,3.5625002 0,0 0.28125,-3.3125002 0.28125,-3.3125002 0,0 0.9375001,3.3125002 0.9375001,3.3125002 0,0 0.21875,-3.0937502 0.21875,-3.0937502 0,0 1.03125013,2.9687502 1.03125013,2.9687502 0,0 0.0625,-2.7187501 0.0625,-2.7187501 0,0 0.96875,2.4687501 0.96875,2.4687501 0,0 0.15625,-2.18750023 0.15625,-2.18750023"
         id="path31975" /></symbol><symbol
       id="inkstitch_satin_end"
       style="display:inline"><title
         id="title2">Satin column ending point</title><path
         id="inkstitch_circle13166-60"
         d="m 9.220113,0.0792309 c -1.9e-6,5.106729 -4.1398241,9.24655 -9.246553,9.24655 -5.1067293,0 -9.2465521,-4.139821 -9.246554,-9.24655 1e-7,-2.452338 0.9741879,-4.804235 2.7082531,-6.538301 1.7340653,-1.734065 4.0859624,-2.708252 6.5383009,-2.708252 5.1067301,0 9.2465528,4.139823 9.246553,9.246553 0,0 0,0 0,0"
         style="opacity:1;vector-effect:none;fill:#fafafa;fill-opacity:1;fill-rule:evenodd;stroke:#003399;stroke-width:1.065;stroke-linecap:round;stroke-linejoin:miter;stroke-miterlimit:4;stroke-dasharray:3.195, 3.195;stroke-dashoffset:0;stroke-opacity:1"
         inkscape:connector-curvature="0" /><path
         style="opacity:1;fill:#000000;fill-opacity:1;fill-rule:nonzero;stroke:none;stroke-width:2.27154;stroke-linecap:round;stroke-linejoin:round;stroke-miterlimit:4;stroke-dasharray:4.81867, 4.81867;stroke-dashoffset:0;stroke-opacity:1;paint-order:fill markers stroke"
         d="m -4.570439,-4.5704391 c 0,0 9.140878,0 9.140878,0 0,0 0,9.14087 0,9.14087 0,0 -9.140878,0 -9.140878,0 0,0 0,-9.14087 0,-9.14087"
         id="inkstitch_rect5371-2-6"
         inkscape:connector-curvature="0" /><path
         style="display:inline;opacity:1;fill:none;fill-opacity:1;stroke:#ffffff;stroke-width:0.2;stroke-linejoin:miter;stroke-miterlimit:4;stroke-dasharray:none;stroke-dashoffset:0;stroke-opacity:1;paint-order:fill markers stroke"
         d="m -3.2964153,1.5777408 0.25,-3.6875001 1.0312501,3.8437501 0.34375,-3.6250001 0.9687501,3.5625001 0.28125,-3.3125001 0.9375,3.3125001 0.21875,-3.0937501 1.0312499,2.9687501 0.0625,-2.7187501 0.96875,2.4687501 0.15625,-2.1875"
         id="path31975-0-2"
         inkscape:connector-curvature="0" /></symbol><symbol
       id="inkstitch_stop"><title
         id="inkstitch_title13328">Stop the machine after sewing this object (for applique, etc)</title><path
         id="inkstitch_circle13330"
         d="m 9.2465269,-2.6e-6 c -1.9e-6,5.106729 -4.1398241,9.24655 -9.246553026709,9.24655 C -5.1067554,9.2465474 -9.2465782,5.1067264 -9.2465801,-2.6e-6 c 10e-8,-2.452338 0.9741879,-4.804235 2.7082531,-6.538301 1.7340653,-1.734065 4.0859624,-2.708252 6.538300873291,-2.708252 C 5.106704,-9.2465556 9.2465267,-5.1067326 9.2465269,-2.6e-6 c 0,0 0,0 0,0"
         style="opacity:1;vector-effect:none;fill:#fafafa;fill-opacity:1;fill-rule:evenodd;stroke:#003399;stroke-width:1.06501;stroke-linecap:round;stroke-linejoin:miter;stroke-miterlimit:4;stroke-dasharray:3.19504, 3.19504;stroke-dashoffset:0;stroke-opacity:1"
         inkscape:connector-curvature="0" /><path
         id="inkstitch_path13332"
         d="m -3.1690251,-4.6497026 c 0,0 2.51587797,0 2.51587797,0 0,0 0,9.14087 0,9.14087 0,0 -2.51587797,0 -2.51587797,0 0,0 0,-9.14087 0,-9.14087"
         style="opacity:1;fill:#000000;fill-opacity:1;fill-rule:nonzero;stroke:none;stroke-width:1.60622;stroke-linecap:round;stroke-linejoin:round;stroke-miterlimit:4;stroke-dasharray:4.81867, 4.81867;stroke-dashoffset:0;stroke-opacity:1;paint-order:fill markers stroke"
         inkscape:connector-curvature="0" /><path
         id="inkstitch_path13333"
         d="m 0.83097287,-4.6497026 c 0,0 2.51588003,0 2.51588003,0 0,0 0,9.14087 0,9.14087 0,0 -2.51588003,0 -2.51588003,0 0,0 0,-9.14087 0,-9.14087"
         style="display:inline;opacity:1;fill:#000000;fill-opacity:1;fill-rule:nonzero;stroke:none;stroke-width:1.60622;stroke-linecap:round;stroke-linejoin:round;stroke-miterlimit:4;stroke-dasharray:4.81867, 4.81867;stroke-dashoffset:0;stroke-opacity:1;paint-order:fill markers stroke"
         inkscape:connector-curvature="0" /></symbol><symbol
       id="inkstitch_trim"><title
         id="inkstitch_title9282">Trim the thread after sewing this object.</title><path
         id="inkstitch_circle13405"
         d="m 9.2465284,-8.6e-6 c 1.8e-6,2.452339 -0.9741847,4.804237 -2.7082493,6.538304 C 4.8042146,8.2723614 2.4523174,9.2465504 -2.1625959e-5,9.2465514 -2.4523623,9.2465534 -4.8042621,8.2723654 -6.5383288,6.5382984 -8.2723956,4.8042314 -9.2465834,2.4523324 -9.2465816,-8.6e-6 c 6e-7,-2.452339 0.9741895,-4.804237 2.708256,-6.538301 1.7340665,-1.734065 4.0859648,-2.708252 6.538303974041,-2.70825 C 5.1067066,-9.2465576 9.2465271,-5.1067366 9.2465284,-8.6e-6 c 0,0 0,0 0,0"
         style="opacity:1;vector-effect:none;fill:#fafafa;fill-opacity:1;fill-rule:evenodd;stroke:#003399;stroke-width:1.065;stroke-linecap:round;stroke-linejoin:miter;stroke-miterlimit:4;stroke-dasharray:3.195, 3.195;stroke-dashoffset:0;stroke-opacity:1"
         inkscape:connector-curvature="0" /><path
         style="color:#000000;font-style:normal;font-variant:normal;font-weight:normal;font-stretch:normal;font-size:medium;line-height:normal;font-family:sans-serif;font-variant-ligatures:normal;font-variant-position:normal;font-variant-caps:normal;font-variant-numeric:normal;font-variant-alternates:normal;font-feature-settings:normal;text-indent:0;text-align:start;text-decoration:none;text-decoration-line:none;text-decoration-style:solid;text-decoration-color:#000000;letter-spacing:normal;word-spacing:normal;text-transform:none;writing-mode:lr-tb;direction:ltr;text-orientation:mixed;dominant-baseline:auto;baseline-shift:baseline;text-anchor:start;white-space:normal;shape-padding:0;clip-rule:nonzero;display:inline;overflow:visible;visibility:visible;opacity:1;isolation:auto;mix-blend-mode:normal;color-interpolation:sRGB;color-interpolation-filters:linearRGB;solid-color:#000000;solid-opacity:1;vector-effect:none;fill:#050505;fill-opacity:1;fill-rule:evenodd;stroke:none;stroke-width:1.41421;stroke-linecap:butt;stroke-linejoin:miter;stroke-miterlimit:4;stroke-dasharray:none;stroke-dashoffset:0;stroke-opacity:1;color-rendering:auto;image-rendering:auto;shape-rendering:auto;text-rendering:auto;enable-background:accumulate"
         d="m -3.0000256,-5.9834096 c -1.30575,0 -2.375,1.06924 -2.375,2.375 0,1.30575 1.06925,2.375 2.375,2.375 0.58687,0 1.11944,-0.22369 1.53516,-0.58007 0,0 0.61717997,1.62109 0.61717997,1.62109 0,0 -2.29881997,6.01758 -2.29881997,6.01758 0.98655,-0.12511 1.23728,-0.26171 1.67382,-0.97461 0,0 1.33007997,-3.18945 1.33007997,-3.18945 0,0 1.23633003,3.25 1.23633003,3.25 0.23227,0.77906 0.84315,0.79218 1.57813,1.07226 0,0 -2.05469003,-6.14258 -2.05469003,-6.14258 0,0 0.73047003,-1.75 0.73047003,-1.75 0.42849,0.41682 1.01136,0.67578 1.65234,0.67578 1.30575,0 2.375,-1.06925 2.375,-2.375 0,-1.30576 -1.06925,-2.375 -2.375,-2.375 -1.06233,0 -1.95701,0.71265 -2.25781003,1.67969 0,0 -0.0117,-0.0156 -0.0117,-0.0156 0,0 -0.80274,2.10156 -0.80274,2.10156 0,0 -0.59179,-1.76562 -0.59179,-1.76562 -0.18242,-1.12808 -1.15864997,-2 -2.33593997,-2 0,0 -2e-5,-3e-5 -2e-5,-3e-5 m 0,1 c 0.76531,0 1.375,0.60968 1.375,1.375 0,0.76531 -0.60969,1.375 -1.375,1.375 -0.76531,0 -1.375,-0.60969 -1.375,-1.375 0,-0.76532 0.60969,-1.375 1.375,-1.375 0,0 0,0 0,0 m 6,0 c 0.76531,0 1.375,0.60968 1.375,1.375 0,0.76531 -0.60969,1.375 -1.375,1.375 -0.76531,0 -1.375,-0.60969 -1.375,-1.375 0,-0.76532 0.60969,-1.375 1.375,-1.375 0,0 0,0 0,0"
         id="inkstitch_path13416"
         inkscape:connector-curvature="0" /></symbol><symbol
       id="inkstitch_ignore_object"><title
         id="title25366">Ignore object when generating stitch plan</title><path
         inkscape:connector-curvature="0"
         style="opacity:1;vector-effect:none;fill:#fafafa;fill-opacity:1;fill-rule:evenodd;stroke:#ff0000;stroke-width:1.06501;stroke-linecap:round;stroke-linejoin:miter;stroke-miterlimit:4;stroke-dasharray:3.19504, 3.19504;stroke-dashoffset:0;stroke-opacity:1"
         d="m 9.2465269,-2.6e-6 c -1.9e-6,5.106729 -4.1398241,9.24655 -9.246553026709,9.24655 C -5.1067554,9.2465474 -9.2465782,5.1067264 -9.2465801,-2.6e-6 c 10e-8,-2.452338 0.9741879,-4.804235 2.7082531,-6.538301 1.7340653,-1.734065 4.0859624,-2.708252 6.538300873291,-2.708252 C 5.106704,-9.2465556 9.2465267,-5.1067326 9.2465269,-2.6e-6 v 0"
         id="inkstitch_path25368"
         sodipodi:nodetypes="csssscc" /><path
         style="color:#000000;font-style:normal;font-variant:normal;font-weight:normal;font-stretch:normal;font-size:medium;line-height:normal;font-family:sans-serif;font-variant-ligatures:normal;font-variant-position:normal;font-variant-caps:normal;font-variant-numeric:normal;font-variant-alternates:normal;font-feature-settings:normal;text-indent:0;text-align:start;text-decoration:none;text-decoration-line:none;text-decoration-style:solid;text-decoration-color:#000000;letter-spacing:normal;word-spacing:normal;text-transform:none;writing-mode:lr-tb;direction:ltr;text-orientation:mixed;dominant-baseline:auto;baseline-shift:baseline;text-anchor:start;white-space:normal;shape-padding:0;clip-rule:nonzero;display:inline;overflow:visible;visibility:visible;opacity:1;isolation:auto;mix-blend-mode:normal;color-interpolation:sRGB;color-interpolation-filters:linearRGB;solid-color:#000000;solid-opacity:1;vector-effect:none;fill:#ff0000;fill-opacity:1;fill-rule:nonzero;stroke:none;stroke-width:2.365;stroke-linecap:butt;stroke-linejoin:round;stroke-miterlimit:4;stroke-dasharray:none;stroke-dashoffset:0;stroke-opacity:1;paint-order:fill markers stroke;color-rendering:auto;image-rendering:auto;shape-rendering:auto;text-rendering:auto;enable-background:accumulate"
         d="M 5.9670459,-7.182445 -7.5106053,5.8067489 c -0.1726626,0.167055 -0.1205449,0.382287 0.051259,0.540886 0.4472376,0.445359 0.9095461,0.890719 1.44712,1.336078 L 7.8945309,-5.7539019 c -0.444712,-0.4981949 -0.762678,-1.0407509 -1.340795,-1.4922541 -0.129647,-0.1296467 -0.384848,-0.1381312 -0.58669,0.063711 z"
         id="inkstitch_path31147"
         inkscape:connector-curvature="0"
         sodipodi:nodetypes="ccccccc" /><path
         style="color:#000000;font-style:normal;font-variant:normal;font-weight:normal;font-stretch:normal;font-size:medium;line-height:normal;font-family:sans-serif;font-variant-ligatures:normal;font-variant-position:normal;font-variant-caps:normal;font-variant-numeric:normal;font-variant-alternates:normal;font-feature-settings:normal;text-indent:0;text-align:start;text-decoration:none;text-decoration-line:none;text-decoration-style:solid;text-decoration-color:#000000;letter-spacing:normal;word-spacing:normal;text-transform:none;writing-mode:lr-tb;direction:ltr;text-orientation:mixed;dominant-baseline:auto;baseline-shift:baseline;text-anchor:start;white-space:normal;shape-padding:0;clip-rule:nonzero;display:inline;overflow:visible;visibility:visible;opacity:1;isolation:auto;mix-blend-mode:normal;color-interpolation:sRGB;color-interpolation-filters:linearRGB;solid-color:#000000;solid-opacity:1;vector-effect:none;fill:#ff0000;fill-opacity:1;fill-rule:nonzero;stroke:none;stroke-width:2.365;stroke-linecap:butt;stroke-linejoin:round;stroke-miterlimit:4;stroke-dasharray:none;stroke-dashoffset:0;stroke-opacity:1;paint-order:fill markers stroke;color-rendering:auto;image-rendering:auto;shape-rendering:auto;text-rendering:auto;enable-background:accumulate"
         d="m -6.3778509,-7.3863915 c -0.4163674,0.3694232 -0.8327348,0.8218035 -1.2491022,1.2906927 L 5.9335939,7.7988319 7.6269529,6.1484419 -5.6213616,-7.4261673 c -0.1943465,-0.1943465 -0.5493765,-0.1905301 -0.7564893,0.039776 z"
         inkstitch_id="path31147-7"
         inkscape:connector-curvature="0"
         sodipodi:nodetypes="cccccc"
         id="path19494" /></symbol><symbol
       id="inkstitch_satin_cut_point"
       style="display:inline"><title
         id="inkstitch_title9427-675">Satin Column cut point</title><path
         id="inkstitch_circle13166-3"
         d="m 9.220113,0.07922893 c -1.9e-6,5.10672897 -4.1398241,9.24654997 -9.24655297,9.24654997 -5.10672933,0 -9.24655213,-4.139821 -9.24655403,-9.24654997 1e-7,-2.45233803 0.9741879,-4.80423503 2.7082531,-6.53830103 1.7340653,-1.734065 4.0859624,-2.708252 6.53830093,-2.708252 5.10673007,0 9.24655277,4.139823 9.24655297,9.24655303 0,0 0,0 0,0"
         style="opacity:1;vector-effect:none;fill:#fafafa;fill-opacity:1;fill-rule:evenodd;stroke:#003399;stroke-width:1.065;stroke-linecap:round;stroke-linejoin:miter;stroke-miterlimit:4;stroke-dasharray:3.195, 3.195;stroke-dashoffset:0;stroke-opacity:1"
         inkscape:connector-curvature="0" /><path
         id="path24356"
         d="m -7.8132269,-1.4510415 c -0.4413094,0.88338563 -0.07931,1.96814513 0.8040823,2.40945763 0.8833854,0.44130937 1.9681488,0.079303 2.4094581,-0.8040818 0.1983467,-0.3970378 0.2270074,-0.8329413 0.1264064,-1.23463743 0,0 1.3053145,0.13034233 1.3053145,0.13034233 0,0 3.29416163,3.58901577 3.29416163,3.58901577 0.2487872,-0.7097192 0.2411124,-0.9255141 -0.09365,-1.4617903 0,0 -1.70824193,-1.97779537 -1.70824193,-1.97779537 0,0 2.61658533,0.2619947 2.61658533,0.2619947 0.60556237,0.1061633 0.82089997,-0.3026842 1.25878787,-0.70526413 0,0 -4.8501007,-0.6859624 -4.8501007,-0.6859624 0,0 -0.9370561,-1.0856429 -0.9370561,-1.0856429 0.4268116,-0.1490142 0.7990019,-0.4558243 1.0156363,-0.8894695 0.4413094,-0.8833854 0.079303,-1.9681487 -0.8040822,-2.4094581 -0.8833921,-0.4413128 -1.9681487,-0.079303 -2.4094581,0.8040822 -0.3590398,0.7187033 -0.1792857,1.5648425 0.373288,2.0951784 0,0 -0.014508,0.00264 -0.014508,0.00264 0,0 1.1504733,1.2533541 1.1504733,1.2533541 0,0 -1.3945129,-0.196367 -1.3945129,-0.196367 -0.8248385,-0.2578481 -1.7446631,0.1079194 -2.1425563,0.9043974 0,0 -2.71e-5,3.4e-6 -2.71e-5,3.4e-6 m 0.6765348,0.337974 c 0.2586549,-0.517759 0.877184,-0.7241797 1.3949495,-0.4655215 0.5177589,0.2586549 0.7241761,0.87719093 0.4655214,1.39494953 -0.2586548,0.5177587 -0.8771906,0.7241758 -1.3949494,0.4655211 -0.5177657,-0.2586579 -0.7241762,-0.8771902 -0.4655215,-1.39494913 0,0 0,0 0,0 m 2.0278432,-4.0592094 c 0.2586548,-0.5177589 0.8771839,-0.7241794 1.3949495,-0.4655213 0.5177588,0.2586548 0.724176,0.8771905 0.4655213,1.3949494 -0.2586548,0.5177588 -0.8771906,0.7241761 -1.3949494,0.4655213 -0.5177656,-0.2586581 -0.7241761,-0.8771906 -0.4655214,-1.3949494 0,0 0,0 0,0"
         style="display:inline;opacity:1;fill:#000000;fill-opacity:1;stroke:none;stroke-width:0.378129;stroke-linejoin:miter;stroke-miterlimit:4;stroke-dasharray:none;stroke-dashoffset:0;stroke-opacity:1;paint-order:fill markers stroke"
         inkscape:connector-curvature="0" /><path
         id="path24362"
         d="m 4.4798843,-4.3110508 c 0.219827,2.414579 -0.180079,4.01786863 -1.429103,5.5454305 0,0 2.023437,1.0507812 2.023437,1.0507812 1.715964,-1.67359867 1.847271,-3.9809016 1.75755,-6.660665 0,0 -2.351884,0.064453 -2.351884,0.064453 m -2.097072,6.2192586 c -2.10168637,1.4056146 -3.14434337,3.5358281 -3.667017,6.0218201 0,0 2.3918915,0.212651 2.3918915,0.212651 0.3238246,-2.741001 2.2229845,-4.191785 3.3298135,-5.1368148 0,0 -2.054688,-1.0976563 -2.054688,-1.0976563"
         style="color:#000000;font-style:normal;font-variant:normal;font-weight:normal;font-stretch:normal;font-size:medium;line-height:normal;font-family:sans-serif;font-variant-ligatures:normal;font-variant-position:normal;font-variant-caps:normal;font-variant-numeric:normal;font-variant-alternates:normal;font-feature-settings:normal;text-indent:0;text-align:start;text-decoration:none;text-decoration-line:none;text-decoration-style:solid;text-decoration-color:#000000;letter-spacing:normal;word-spacing:normal;text-transform:none;writing-mode:lr-tb;direction:ltr;text-orientation:mixed;dominant-baseline:auto;baseline-shift:baseline;text-anchor:start;white-space:normal;shape-padding:0;clip-rule:nonzero;display:inline;overflow:visible;visibility:visible;opacity:1;isolation:auto;mix-blend-mode:normal;color-interpolation:sRGB;color-interpolation-filters:linearRGB;solid-color:#000000;solid-opacity:1;vector-effect:none;fill:#242424;fill-opacity:1;fill-rule:nonzero;stroke:none;stroke-width:2.4;stroke-linecap:butt;stroke-linejoin:miter;stroke-miterlimit:4;stroke-dasharray:none;stroke-dashoffset:0;stroke-opacity:1;paint-order:fill markers stroke;color-rendering:auto;image-rendering:auto;shape-rendering:auto;text-rendering:auto;enable-background:accumulate"
         inkscape:connector-curvature="0" /></symbol></defs><g
     inkscape:label="Calque 1"
     inkscape:groupmode="layer"
     id="g40"><path
       id="path47"
       style="display:inline;fill:#000000;stroke-width:0.289922"
       d="m 107.92365,30.733008 c -2.02401,-0.05138 -6.64637,3.747694 -7.940089,5.216736 -0.418448,-6.889776 -4.474479,0.955944 -5.756754,4.588867 -3.086562,-5.354042 -3.048773,3.191354 -3.062863,5.515425 -4.715275,-0.523218 -10.643634,2.034445 -15.870349,2.270146 -4.386905,1.289537 -6.44231,-10.361673 -8.370031,-4.310331 -1.353293,1.070193 -5.190123,-5.061961 -5.166093,0.719853 -4.420444,-2.78804 -5.690274,-11.506554 -14.531413,-8.469251 -0.765654,9.026919 4.594962,17.68778 16.346806,19.558496 5.298839,3.147632 -1.093842,3.947106 -4.19716,4.340304 5.373724,2.056521 -0.271615,4.925237 -2.708362,7.162353 7.121932,-0.404848 -0.275668,3.112661 -0.620634,6.284888 7.033062,-2.534741 -0.248636,3.520255 0.66766,7.254338 3.435322,-3.935897 2.019256,2.007106 2.925919,4.597135 0.227,4.281571 1.767925,1.686759 2.32544,-0.994771 1.021223,-2.147036 5.192229,-11.282105 5.583121,-7.011975 1.364884,2.595717 4.950498,-6.728065 8.631515,-4.523755 l 1.781287,-0.04496 c 0.287105,1.55829 -0.497846,-8.438659 5.212601,3.925342 1.590111,-2.947908 5.388209,0.40065 8.023283,-0.885734 l 2.738851,2.868559 c -0.344317,-2.725063 -1.518089,-6.866502 1.702222,-3.883484 l 1.154968,-0.344682 c 3.319045,-0.720526 6.187115,10.428235 6.716905,2.844788 0.18092,0.610061 0.32157,1.223787 0.45527,1.83813 1.078,-1.71172 5.12994,5.535406 6.05027,7.470345 0.55752,2.681531 2.0542,4.87814 2.2812,0.59657 0.19875,-3.076722 -1.35005,-8.931235 2.08527,-4.995339 0.9163,-3.734082 -5.48051,-8.992674 1.55255,-6.457932 -0.34496,-3.172227 -7.74256,-6.689737 -0.62063,-6.284888 -2.43675,-2.237117 -8.08157,-5.105833 -2.70785,-7.162354 -3.10331,-0.393197 -6.13342,-0.529123 -3.622,-4.251936 l 0.68937,-1.167888 c 0,0 4.26211,2.962068 5.4839,5.152657 2.47729,4.441622 2.67898,9.877605 3.04624,14.950089 0.20493,2.830423 0.5683,5.862971 -0.48038,8.499933 -1.14145,2.87024 -2.91005,6.690184 -5.9737,7.084174 -1.35688,0.174497 -2.77945,-1.059105 -3.3535,-2.366043 -1.37607,-2.544422 -2.89135,-6.119553 -3.84312,-3.996593 0.78322,6.691504 -0.83706,9.173842 -1.96275,15.77019 -1.2009,-1.92894 -9.500544,-8.878875 -6.258536,-1.52601 -2.638819,-1.374877 -10.90936,2.1569 -8.719364,4.00338 7.357974,1.2983 -1.378401,3.54288 -2.106848,6.90087 -2.60559,3.52811 -0.121612,3.44602 3.029272,2.8422 1.340783,3.12415 -0.06222,8.86455 1.535307,12.84263 -8.023193,0.13311 -16.046246,0.30657 -24.069332,0.44855 -5.619277,0.0757 -13.341393,0.46973 -15.875516,-5.79448 -3.241187,-7.31096 3.8613,-16.82094 11.813232,-14.88953 6.182792,0.92292 2.165049,11.18002 -2.182296,6.1712 0.25732,-7.39526 -8.521949,-2.21308 -4.51497,2.42621 3.916272,6.43598 14.297424,2.45334 16.935401,-2.54093 2.637977,-4.99427 -3.820443,-8.70208 -1.934766,-9.83919 5.179514,1.18278 2.060151,-1.70575 -1.106392,-2.30581 -2.247459,-2.083337 -9.229363,2.08494 -8.11475,-1.172535 3.414176,-4.696012 -1.274261,-2.265566 -4.422986,-1.651579 -3.148724,0.613982 -8.495466,10.540304 -8.478036,3.918624 -2.559079,-1.953656 -4.276182,5.96482 -4.096907,8.44548 0.51627,5.46533 -2.048112,0.90613 -3.651974,-0.58549 0.502632,5.80615 1.647985,11.77277 4.35529,17.01653 2.727426,6.01724 9.256348,9.19153 15.667261,9.08782 25.074678,-0.0807 50.14992,-0.33842 75.22487,-0.47801 5.76279,1.12976 9.60776,-3.82484 13.6772,-7.06624 4.60846,-2.82181 5.7334,-10.37011 7.05383,-13.17904 2.71599,2.7501 3.61173,1.07955 1.76372,-1.58388 -3.21793,-2.99289 -1.70957,-3.67976 2.0438,-2.03088 1.5341,-2.54968 -5.63397,-6.77485 -7.08329,-8.90954 5.04145,-2.782396 -0.12742,-4.983612 -3.62872,-3.741371 -3.44821,2.794761 -11.93279,-2.925967 -6.982,-4.904094 4.45094,-1.516859 0.43736,-2.43134 -1.16996,-3.912422 6.1239,-1.766386 -1.15565,-4.515479 -3.28455,-7.729761 -5.27204,-7.762635 -10.23429,-16.304425 -11.44736,-25.762769 -1.22459,-6.721367 10.78129,-12.769105 9.2878,-19.724377 -4.16781,0.885438 -10.24199,-0.869884 -11.2913,5.809981 -1.73803,-2.092053 -9.33,-1.255706 -6.73654,-4.349605 -0.84693,-1.853704 -7.2874,0.77879 -2.9471,-3.38429 -0.19711,-3.459926 -10.6216,3.234193 -6.03736,-3.482475 -0.11752,-0.49795 -0.44605,-0.714713 -0.91312,-0.72657 z M 72.906661,59.211373 c 2.546841,0.198299 2.948409,1.929908 5.703011,2.817399 4.32304,0.901011 5.742734,3.394066 1.286743,3.693315 -3.524566,-0.818446 -7.388299,-2.79334 -8.225854,-6.494694 0.46452,-0.04118 0.872265,-0.04435 1.2361,-0.01602 z m 27.739909,1.074353 c 0.65495,-0.0947 1.09792,0.216168 1.25935,0.742073 0.56952,1.855369 -2.33071,4.320647 -5.253422,5.316989 -2.922712,0.996346 -4.710109,1.194343 -5.2033,-0.05788 -0.314289,-0.797991 0.342736,-1.410245 2.913518,-2.827218 2.790058,-0.628026 1.757044,-0.657457 3.753259,-1.48208 1.009019,-1.096907 1.87564,-1.597183 2.530595,-1.691886 z m -15.474508,7.945251 c 0.238454,-3.5e-4 0.512955,0.02427 0.82734,0.07803 5.030162,0.860138 3.081663,1.633552 0.649573,3.927409 -0.494856,1.659907 -5.053719,-4.000185 -1.476913,-4.005441 z"
       inkstitch:fill_method="meander_fill"
       inkstitch:fill_underlay_angle="45 135"
       inkstitch:meander_scale_percent="80"
       inkstitch:meander_pattern="N4-16a"
       inkstitch:expand_mm="1"
       inkstitch:zigzag_width_mm="4"
       inkstitch:zigzag_spacing_mm="1"
       inkstitch:lock_start="half_stitch"
       inkstitch:fill_underlay_row_spacing_mm=".8"
       inkstitch:smoothness_mm=""
       inkstitch:clip="False"
       sodipodi:nodetypes="cccccccccccccccccccccccccccccccccsssacccccccccccccscccscccccccccccccccccccccccscccsssssccsssscss"
       inkscape:label="cat" /><g
       id="g51"
       inkscape:label="eyes"><g
         id="g24"
         transform="matrix(0.631498 0.309167 -0.123685 0.252637 41.8409 40.3124)"
         style="stroke:#ffff00"
         inkscape:label="left"><path
           style="fill:none;stroke:#ffff00;stroke-width:0.25;stroke-linecap:round;stroke-linejoin:round"
           d="m 41.172097,33.884185 c -3.740814,2e-5 -6.773362,3.881599 -6.773456,8.669842 0.0016,3.534839 0.952949,7.963444 3.514253,9.28508 m 3.259203,-17.954922 c 3.876735,-0.118189 3.146006,2.88719 4.418734,5.477177 L 39.13826,49.1029"
           transform="rotate(-30.1923)"
           id="path21"
           sodipodi:nodetypes="cccccc"
           inkstitch:satin_column="True"
           inkstitch:zigzag_underlay="True"
           inkstitch:pull_compensation_mm="1" /><path
           d="m 287.91449,238.77001 21.47597,-2.20029"
           style="fill:none;stroke:#ffff00;stroke-width:1px;stroke-dasharray:3, 1"
           transform="matrix(0.337971 -0.413595 0.165462 0.8448 -78.6564 -63.3099)"
           inkstitch:running_stitch_length_mm="2.5"
           inkstitch:running_stitch_tolerance_mm="0.5"
           id="path23" /><path
           style="fill:none;stroke:#ffff00;stroke-width:0.25;stroke-linecap:round;stroke-linejoin:round"
           d="m 51.911172,40.132551 c 1.848598,3.252135 -0.0273,7.806696 -4.189968,10.173006 -3.073668,1.745275 -7.393592,3.10685 -9.80831,1.53355 M 51.911172,40.132551 c -1.020465,-1.787672 -4.766596,-0.971908 -7.191793,-1.069255 l -6.049488,9.767091"
           transform="rotate(-30.1923)"
           id="path24"
           sodipodi:nodetypes="cccccc"
           inkstitch:satin_column="True"
           inkstitch:zigzag_underlay="True"
           inkstitch:pull_compensation_mm="1" /></g><g
         id="g27"
         transform="matrix(-0.631498 0.309167 0.123685 0.252637 132.016 41.8477)"
         style="fill:none;stroke:#ffff00"
         inkscape:label="right"><path
           style="fill:none;stroke:#ffff00;stroke-width:0.25;stroke-linecap:round;stroke-linejoin:round"
           d="m 41.172097,33.884185 c -3.740814,2e-5 -6.773362,3.881599 -6.773456,8.669842 0.0016,3.534839 0.952949,7.963444 3.514253,9.28508 m 3.259203,-17.954922 c 3.876735,-0.118189 3.146006,2.88719 4.418734,5.477177 L 39.13826,49.1029"
           transform="rotate(-30.1923)"
           id="path25"
           sodipodi:nodetypes="cccccc"
           inkstitch:satin_column="True"
           inkstitch:zigzag_underlay="True"
           inkstitch:pull_compensation_mm="1" /><path
           d="m 369.18253,244.57272 -21.47597,-2.20029"
           style="fill:none;stroke:#ffff00;stroke-width:1px;stroke-dasharray:3, 1"
           transform="matrix(-0.337971 0.413595 0.165462 0.8448 142.463 -339.984)"
           inkstitch:running_stitch_length_mm="2.5"
           inkstitch:running_stitch_tolerance_mm="0.5"
           id="path26" /><path
           style="fill:none;stroke:#ffff00;stroke-width:0.25;stroke-linecap:round;stroke-linejoin:round"
           d="m 51.911172,40.132551 c 1.848598,3.252135 -0.0273,7.806696 -4.189968,10.173006 -3.073668,1.745275 -7.393592,3.10685 -9.80831,1.53355 M 51.911172,40.132551 c -1.020465,-1.787672 -4.766596,-0.971908 -7.191793,-1.069255 l -6.049488,9.767091"
           transform="rotate(-30.1923)"
           id="path27"
           sodipodi:nodetypes="cccccc"
           inkstitch:satin_column="True"
           inkstitch:zigzag_underlay="True"
           inkstitch:pull_compensation_mm="1" /></g><g
         id="g36"
         inkscape:label="pupils"><path
           id="path35"
           style="fill:none;stroke:#2584bb;stroke-width:0.25;stroke-linecap:round;stroke-linejoin:round"
           d="m 74.688951,63.219185 c 0,1.147207 0.950213,2.077202 2.122359,2.077202 1.172146,0 2.122358,-0.929995 2.122358,-2.077202 m -4.244717,0 c 0,-1.147207 0.950213,-2.077202 2.122359,-2.077202 1.172146,0 2.122358,0.884838 2.122358,2.032045"
           sodipodi:nodetypes="csccsc"
           inkstitch:satin_column="True"
           inkstitch:pull_compensation_mm=""
           inkstitch:reverse_rails="none"
           inkstitch:pull_compensation_percent="25"
           inkstitch:zigzag_underlay="True" /><path
           id="path36"
           style="fill:none;stroke:#2584bb;stroke-width:0.25;stroke-linecap:round;stroke-linejoin:round"
           d="m 95.326464,64.542987 c 0,1.147207 0.950213,2.077202 2.122359,2.077202 1.172146,0 2.122358,-0.929995 2.122358,-2.077202 m -4.244717,0 c 0,-1.147207 0.950213,-2.077202 2.122359,-2.077202 1.172146,0 2.122358,0.884838 2.122358,2.032045"
           sodipodi:nodetypes="csccsc"
           inkstitch:satin_column="True"
           inkstitch:pull_compensation_mm=""
           inkstitch:reverse_rails="none"
           inkstitch:pull_compensation_percent="25"
           inkstitch:zigzag_underlay="True" /></g></g><g
       id="g34"
       style="fill:none;stroke:#fee3c5"
       inkscape:label="whiskers"><path
         style="fill:none;stroke:#fee3c5;stroke-width:0.25;stroke-linecap:round;stroke-linejoin:round"
         d="m 85.842622,70.128141 c 0,0 -7.495987,1.44501 -11.243982,0.180624 -3.747995,-1.264382 -0.722505,-2.34814 -3.747995,-1.264382 -3.025489,1.083757 -10.616391,2.039339 -10.616391,2.039339"
         id="path28"
         sodipodi:nodetypes="cssc"
         inkstitch:repeats="4"
         inkstitch:running_stitch_length_mm="5" /><path
         style="fill:none;stroke:#fee3c5;stroke-width:0.25;stroke-linecap:round;stroke-linejoin:round"
         d="m 85.571684,70.760333 c 0,0 -3.24436,3.27036 -5.37363,3.793151 -1.651838,0.405569 -3.357231,-0.722202 -5.057537,-0.677349 -3.702421,0.09767 -10.91972,2.053494 -10.91972,2.053494"
         id="path29"
         sodipodi:nodetypes="caac"
         inkstitch:running_stitch_length_mm="5"
         inkstitch:repeats="4" /><path
         style="fill:none;stroke:#fee3c5;stroke-width:0.25;stroke-linecap:round;stroke-linejoin:round"
         d="m 85.797467,70.715175 c -1.896576,0.993444 -5.475023,1.752663 -8.308807,1.806264 -2.231795,0.04221 -4.368549,-1.361527 -6.592858,-1.174073 -2.658362,0.224034 -7.533415,2.702101 -7.533415,2.702101"
         id="path30"
         sodipodi:nodetypes="casc"
         inkstitch:running_stitch_length_mm="5"
         inkstitch:repeats="4" /><path
         d="m 324.27393,267.26998 7.85085,-5.46145"
         style="fill:none;stroke:#fee3c5;stroke-width:1px;stroke-dasharray:3, 1"
         transform="scale(0.264583, 0.264583)"
         inkstitch:running_stitch_length_mm="2.5"
         inkstitch:running_stitch_tolerance_mm="0.5"
         id="path31" /><path
         style="fill:none;stroke:#fee3c5;stroke-width:0.25;stroke-linecap:round;stroke-linejoin:round"
         d="m 87.87467,69.270165 c 0,0 4.335028,1.445011 7.044422,0.993444 2.709395,-0.451564 5.238158,-2.528766 6.863798,-1.445009 1.62564,1.083758 4.87694,0.06021 4.87694,0.06021"
         id="path32"
         inkstitch:running_stitch_length_mm="5"
         inkstitch:repeats="4"
         sodipodi:nodetypes="cssc" /><path
         style="fill:none;stroke:#fee3c5;stroke-width:0.25;stroke-linecap:round;stroke-linejoin:round"
         d="m 86.700597,70.353922 3.070648,0.812818 c 0,0 7.983156,0.603013 10.15067,2.048024 2.167515,1.445009 7.368515,-0.241761 7.368515,-0.241761"
         id="path33"
         inkstitch:running_stitch_length_mm="5"
         inkstitch:repeats="4"
         sodipodi:nodetypes="ccsc" /><path
         style="fill:none;stroke:#fee3c5;stroke-width:0.25;stroke-linecap:round;stroke-linejoin:round"
         d="m 87.603728,71.979559 c 0,0 0.270942,1.264383 3.070646,1.625637 2.799707,0.361251 3.760241,0.09969 5.599414,0.451564 4.283072,0.81944 12.507192,3.836089 12.507192,3.836089"
         id="path34"
         inkstitch:running_stitch_length_mm="5"
         inkstitch:repeats="4"
         sodipodi:nodetypes="cssc" /></g><g
       id="g39"
       transform="matrix(0.382415 0 0 0.382415 63.9213 63.3915)"
       inkscape:label="nose"><path
         style="fill:none;stroke:#f993bc;stroke-width:0.25;stroke-linecap:round;stroke-linejoin:round"
         d="m 41.172097,33.884185 c -3.740814,2e-5 -5.565301,4.857721 -5.565395,9.645964 0.0016,3.534839 -0.449969,7.557025 2.111335,8.878661 m 3.45406,-18.524625 c 3.876735,-0.118189 1.967593,5.616938 3.240321,8.206925 L 39.13826,49.1029"
         transform="rotate(-30.1923)"
         id="path37"
         sodipodi:nodetypes="cccccc"
         inkstitch:satin_column="True"
         inkstitch:zigzag_underlay="True"
         inkstitch:pull_compensation_mm="1" /><path
         d="m 325.79188,268.65871 9.82302,-16.66487"
         style="fill:none;stroke:#f993bc;stroke-width:1px;stroke-dasharray:3, 1"
         transform="matrix(0.691875 0 0 0.691875 -167.152 -165.766)"
         inkstitch:running_stitch_length_mm="2.5"
         inkstitch:running_stitch_tolerance_mm="0.5"
         id="path38" /><path
         style="fill:none;stroke:#f993bc;stroke-width:0.25;stroke-linecap:round;stroke-linejoin:round"
         d="m 51.911172,40.132551 c 1.848598,3.252135 -0.767717,6.966047 -4.93039,9.332357 -3.073668,1.745275 -6.877093,4.271928 -9.291811,2.698628 M 51.911172,40.132551 c -1.020465,-1.787672 -5.572,0.881945 -7.997197,0.784598 l -5.244084,7.913238"
         transform="rotate(-30.1923)"
         id="path39"
         sodipodi:nodetypes="cccccc"
         inkstitch:satin_column="True"
         inkstitch:zigzag_underlay="True"
         inkstitch:pull_compensation_mm="1" /></g></g></svg>
