<?xml version="1.0" encoding="UTF-8" standalone="no"?>
<!-- Created with Inkscape (http://www.inkscape.org/) -->

<svg
   width="8.5in"
   height="11in"
   viewBox="0 0 215.9 279.4"
   version="1.1"
   id="svg8"
   inkscape:version="1.2 (dc2aeda, 2022-05-15)"
   sodipodi:docname="guided-fill.svg"
   inkscape:export-filename="../PNGs/guided-fill.png"
   inkscape:export-xdpi="96"
   inkscape:export-ydpi="96"
   xmlns:inkscape="http://www.inkscape.org/namespaces/inkscape"
   xmlns:sodipodi="http://sodipodi.sourceforge.net/DTD/sodipodi-0.dtd"
   xmlns:xlink="http://www.w3.org/1999/xlink"
   xmlns="http://www.w3.org/2000/svg"
   xmlns:svg="http://www.w3.org/2000/svg"
   xmlns:rdf="http://www.w3.org/1999/02/22-rdf-syntax-ns#"
   xmlns:cc="http://creativecommons.org/ns#"
   xmlns:dc="http://purl.org/dc/elements/1.1/"
   xmlns:inkstitch="http://inkstitch.org/namespace">
  <sodipodi:namedview
     id="base"
     pagecolor="#ffffff"
     bordercolor="#666666"
     borderopacity="1.0"
     inkscape:pageopacity="0.0"
     inkscape:pageshadow="2"
     inkscape:zoom="0.7"
     inkscape:cx="383.57143"
     inkscape:cy="292.14286"
     inkscape:document-units="mm"
     inkscape:current-layer="__inkstitch_stitch_plan__"
     showgrid="false"
     inkscape:window-width="1440"
     inkscape:window-height="709"
     inkscape:window-x="0"
     inkscape:window-y="25"
     inkscape:window-maximized="0"
     inkscape:snap-global="false"
     fit-margin-top="10"
     fit-margin-left="10"
     fit-margin-right="10"
     fit-margin-bottom="10"
     inkscape:showpageshadow="2"
     inkscape:pagecheckerboard="0"
     inkscape:deskcolor="#d1d1d1" />
  <defs
     id="defs2">
    <symbol
       id="inkstitch_ignore_layer">
      <title
         id="title9694">Ignore entire layer when generating stitch plan</title>
      <path
         inkscape:connector-curvature="0"
         style="opacity:1;vector-effect:none;fill:#fafafa;fill-opacity:1;fill-rule:evenodd;stroke:#ff0000;stroke-width:1.06501;stroke-linecap:round;stroke-linejoin:miter;stroke-miterlimit:4;stroke-dasharray:3.19504, 3.19504;stroke-dashoffset:0;stroke-opacity:1"
         d="M 9.2465269,-4.9265995e-6 C 9.246525,5.1067241 5.1067028,9.2465451 -2.615882e-5,9.2465451 -5.1067554,9.2465451 -9.2465782,5.1067241 -9.2465801,-4.9265995e-6 -9.24658,-2.4523429 -8.2723922,-4.8042399 -6.538327,-6.5383059 c 1.7340653,-1.734065 4.0859624,-2.708252 6.53830084118,-2.708252 5.10673015882,0 9.24655285882,4.139823 9.24655305882,9.2465529734005 0,0 0,0 0,0"
         id="inkstitch_path25368-7" />
      <path
         sodipodi:nodetypes="ccccc"
         inkscape:connector-curvature="0"
         style="color:#000000;fill:#d5d5d5;fill-opacity:1;fill-rule:evenodd;stroke:#5a5a5a;stroke-width:0.6333;stroke-linecap:square;stroke-linejoin:round;stroke-miterlimit:0;stroke-opacity:1"
         d="M 4,4.452769 1.46667,1.286102 H -5.5 l 2.53333,3.166667 z"
         id="use5800" />
      <path
         sodipodi:nodetypes="ccccc"
         inkscape:connector-curvature="0"
         style="color:#000000;opacity:0.5;fill:#d5d5d5;fill-opacity:1;fill-rule:evenodd;stroke:#858585;stroke-width:0.633394;stroke-linecap:square;stroke-linejoin:round;stroke-miterlimit:0;stroke-opacity:1"
         d="M 4,2.552769 1.46667,-0.613898 H -5.5 l 2.53333,3.166667 z"
         id="use5864" />
      <g
         id="g5771">
        <path
           sodipodi:nodetypes="ccccccccc"
           inkscape:connector-curvature="0"
           style="fill:#aa0000;fill-rule:evenodd;stroke:#aa0000;stroke-width:1px"
           d="m -1.0666699,-5.0472339 h 4.4333333 l 0.6333333,0.6333333 V 0.01943274 L 3.3666634,0.65276607 H -1.0666699 L -1.7000032,0.01943274 V -4.4139006 Z"
           id="path8011" />
        <path
           inkscape:connector-curvature="0"
           id="path8023"
           d="m -0.43333658,-3.8755672 c 0,0 3.16666668,3.16666661 3.16666668,3.16666661"
           style="fill:none;stroke:#ffffff;stroke-width:1.7" />
        <path
           inkscape:connector-curvature="0"
           id="path8025"
           d="m 2.7333301,-3.8755672 c 0,0 -3.16666668,3.16666661 -3.16666668,3.16666661"
           style="fill:none;stroke:#ffffff;stroke-width:1.8;stroke-linejoin:round" />
      </g>
    </symbol>
    <symbol
       id="inkstitch_trim">
      <title
         id="inkstitch_title9282">Trim the thread after sewing this object.</title>
      <path
         id="inkstitch_circle13405"
         d="m 9.2465284,-8.6e-6 c 1.8e-6,2.452339 -0.9741847,4.804237 -2.7082493,6.538304 C 4.8042146,8.2723614 2.4523174,9.2465504 -2.1625959e-5,9.2465514 -2.4523623,9.2465534 -4.8042621,8.2723654 -6.5383288,6.5382984 -8.2723956,4.8042314 -9.2465834,2.4523324 -9.2465816,-8.6e-6 c 6e-7,-2.452339 0.9741895,-4.804237 2.708256,-6.538301 1.7340665,-1.734065 4.0859648,-2.708252 6.538303974041,-2.70825 C 5.1067066,-9.2465576 9.2465271,-5.1067366 9.2465284,-8.6e-6 c 0,0 0,0 0,0"
         style="opacity:1;vector-effect:none;fill:#fafafa;fill-opacity:1;fill-rule:evenodd;stroke:#003399;stroke-width:1.065;stroke-linecap:round;stroke-linejoin:miter;stroke-miterlimit:4;stroke-dasharray:3.195, 3.195;stroke-dashoffset:0;stroke-opacity:1"
         inkscape:connector-curvature="0" />
      <path
         style="color:#000000;font-style:normal;font-variant:normal;font-weight:normal;font-stretch:normal;font-size:medium;line-height:normal;font-family:sans-serif;font-variant-ligatures:normal;font-variant-position:normal;font-variant-caps:normal;font-variant-numeric:normal;font-variant-alternates:normal;font-feature-settings:normal;text-indent:0;text-align:start;text-decoration:none;text-decoration-line:none;text-decoration-style:solid;text-decoration-color:#000000;letter-spacing:normal;word-spacing:normal;text-transform:none;writing-mode:lr-tb;direction:ltr;text-orientation:mixed;dominant-baseline:auto;baseline-shift:baseline;text-anchor:start;white-space:normal;shape-padding:0;clip-rule:nonzero;display:inline;overflow:visible;visibility:visible;opacity:1;isolation:auto;mix-blend-mode:normal;color-interpolation:sRGB;color-interpolation-filters:linearRGB;solid-color:#000000;solid-opacity:1;vector-effect:none;fill:#050505;fill-opacity:1;fill-rule:evenodd;stroke:none;stroke-width:1.41421;stroke-linecap:butt;stroke-linejoin:miter;stroke-miterlimit:4;stroke-dasharray:none;stroke-dashoffset:0;stroke-opacity:1;color-rendering:auto;image-rendering:auto;shape-rendering:auto;text-rendering:auto;enable-background:accumulate"
         d="m -3.0000256,-5.9834096 c -1.30575,0 -2.375,1.06924 -2.375,2.375 0,1.30575 1.06925,2.375 2.375,2.375 0.58687,0 1.11944,-0.22369 1.53516,-0.58007 0,0 0.61717997,1.62109 0.61717997,1.62109 0,0 -2.29881997,6.01758 -2.29881997,6.01758 0.98655,-0.12511 1.23728,-0.26171 1.67382,-0.97461 0,0 1.33007997,-3.18945 1.33007997,-3.18945 0,0 1.23633003,3.25 1.23633003,3.25 0.23227,0.77906 0.84315,0.79218 1.57813,1.07226 0,0 -2.05469003,-6.14258 -2.05469003,-6.14258 0,0 0.73047003,-1.75 0.73047003,-1.75 0.42849,0.41682 1.01136,0.67578 1.65234,0.67578 1.30575,0 2.375,-1.06925 2.375,-2.375 0,-1.30576 -1.06925,-2.375 -2.375,-2.375 -1.06233,0 -1.95701,0.71265 -2.25781003,1.67969 0,0 -0.0117,-0.0156 -0.0117,-0.0156 0,0 -0.80274,2.10156 -0.80274,2.10156 0,0 -0.59179,-1.76562 -0.59179,-1.76562 -0.18242,-1.12808 -1.15864997,-2 -2.33593997,-2 0,0 -2e-5,-3e-5 -2e-5,-3e-5 m 0,1 c 0.76531,0 1.375,0.60968 1.375,1.375 0,0.76531 -0.60969,1.375 -1.375,1.375 -0.76531,0 -1.375,-0.60969 -1.375,-1.375 0,-0.76532 0.60969,-1.375 1.375,-1.375 0,0 0,0 0,0 m 6,0 c 0.76531,0 1.375,0.60968 1.375,1.375 0,0.76531 -0.60969,1.375 -1.375,1.375 -0.76531,0 -1.375,-0.60969 -1.375,-1.375 0,-0.76532 0.60969,-1.375 1.375,-1.375 0,0 0,0 0,0"
         id="inkstitch_path13416"
         inkscape:connector-curvature="0" />
    </symbol>
    <marker
       refX="10"
       refY="5"
       orient="auto"
       id="inkstitch-guide-line-marker">
      <g
         id="inkstitch-guide-line-group">
        <path
           style="fill:#fafafa;fill-opacity:0.8;stroke:#ff5500;stroke-width:0.5;stroke-linecap:round;stroke-linejoin:miter;stroke-miterlimit:4;stroke-dasharray:1, 1;stroke-dashoffset:0;stroke-opacity:1"
           d="M 10.12911,5.2916678 A 4.8374424,4.8374426 0 0 1 5.2916656,10.12911 4.8374424,4.8374426 0 0 1 0.45422399,5.2916678 4.8374424,4.8374426 0 0 1 5.2916656,0.45422399 4.8374424,4.8374426 0 0 1 10.12911,5.2916678 Z"
           id="inkstitch-guide-line-marker-circle" />
        <path
           style="fill:none;stroke:#000000;stroke-width:0.4;stroke-linecap:round;stroke-miterlimit:4"
           id="inkstitch-guide-line-marker-spiral"
           d="M 1.7506092,6.2728168 3.4558825,5.2833684 7.1038696,7.400035 8.8193256,6.4046783 M 1.7963222,4.129626 3.4558825,3.1667016 7.1038696,5.2833682 8.8475785,4.2716184 M 1.6318889,5.2833683 3.4558825,4.225035 7.1038696,6.3417016 8.9558408,5.2677331" />
      </g>
    </marker>
    <symbol
       id="inkstitch_ignore_object">
      <title
         id="title25366">Ignore object when generating stitch plan</title>
      <path
         inkscape:connector-curvature="0"
         style="opacity:1;vector-effect:none;fill:#fafafa;fill-opacity:1;fill-rule:evenodd;stroke:#ff0000;stroke-width:1.06501;stroke-linecap:round;stroke-linejoin:miter;stroke-miterlimit:4;stroke-dasharray:3.19504, 3.19504;stroke-dashoffset:0;stroke-opacity:1"
         d="m 9.2465269,-2.6e-6 c -1.9e-6,5.106729 -4.1398241,9.24655 -9.246553026709,9.24655 C -5.1067554,9.2465474 -9.2465782,5.1067264 -9.2465801,-2.6e-6 c 10e-8,-2.452338 0.9741879,-4.804235 2.7082531,-6.538301 1.7340653,-1.734065 4.0859624,-2.708252 6.538300873291,-2.708252 C 5.106704,-9.2465556 9.2465267,-5.1067326 9.2465269,-2.6e-6 v 0"
         id="inkstitch_path25368"
         sodipodi:nodetypes="csssscc" />
      <path
         style="color:#000000;font-style:normal;font-variant:normal;font-weight:normal;font-stretch:normal;font-size:medium;line-height:normal;font-family:sans-serif;font-variant-ligatures:normal;font-variant-position:normal;font-variant-caps:normal;font-variant-numeric:normal;font-variant-alternates:normal;font-feature-settings:normal;text-indent:0;text-align:start;text-decoration:none;text-decoration-line:none;text-decoration-style:solid;text-decoration-color:#000000;letter-spacing:normal;word-spacing:normal;text-transform:none;writing-mode:lr-tb;direction:ltr;text-orientation:mixed;dominant-baseline:auto;baseline-shift:baseline;text-anchor:start;white-space:normal;shape-padding:0;clip-rule:nonzero;display:inline;overflow:visible;visibility:visible;opacity:1;isolation:auto;mix-blend-mode:normal;color-interpolation:sRGB;color-interpolation-filters:linearRGB;solid-color:#000000;solid-opacity:1;vector-effect:none;fill:#ff0000;fill-opacity:1;fill-rule:nonzero;stroke:none;stroke-width:2.365;stroke-linecap:butt;stroke-linejoin:round;stroke-miterlimit:4;stroke-dasharray:none;stroke-dashoffset:0;stroke-opacity:1;paint-order:fill markers stroke;color-rendering:auto;image-rendering:auto;shape-rendering:auto;text-rendering:auto;enable-background:accumulate"
         d="M 5.9670459,-7.182445 -7.5106053,5.8067489 c -0.1726626,0.167055 -0.1205449,0.382287 0.051259,0.540886 0.4472376,0.445359 0.9095461,0.890719 1.44712,1.336078 L 7.8945309,-5.7539019 c -0.444712,-0.4981949 -0.762678,-1.0407509 -1.340795,-1.4922541 -0.129647,-0.1296467 -0.384848,-0.1381312 -0.58669,0.063711 z"
         id="inkstitch_path31147"
         inkscape:connector-curvature="0"
         sodipodi:nodetypes="ccccccc" />
      <path
         style="color:#000000;font-style:normal;font-variant:normal;font-weight:normal;font-stretch:normal;font-size:medium;line-height:normal;font-family:sans-serif;font-variant-ligatures:normal;font-variant-position:normal;font-variant-caps:normal;font-variant-numeric:normal;font-variant-alternates:normal;font-feature-settings:normal;text-indent:0;text-align:start;text-decoration:none;text-decoration-line:none;text-decoration-style:solid;text-decoration-color:#000000;letter-spacing:normal;word-spacing:normal;text-transform:none;writing-mode:lr-tb;direction:ltr;text-orientation:mixed;dominant-baseline:auto;baseline-shift:baseline;text-anchor:start;white-space:normal;shape-padding:0;clip-rule:nonzero;display:inline;overflow:visible;visibility:visible;opacity:1;isolation:auto;mix-blend-mode:normal;color-interpolation:sRGB;color-interpolation-filters:linearRGB;solid-color:#000000;solid-opacity:1;vector-effect:none;fill:#ff0000;fill-opacity:1;fill-rule:nonzero;stroke:none;stroke-width:2.365;stroke-linecap:butt;stroke-linejoin:round;stroke-miterlimit:4;stroke-dasharray:none;stroke-dashoffset:0;stroke-opacity:1;paint-order:fill markers stroke;color-rendering:auto;image-rendering:auto;shape-rendering:auto;text-rendering:auto;enable-background:accumulate"
         d="m -6.3778509,-7.3863915 c -0.4163674,0.3694232 -0.8327348,0.8218035 -1.2491022,1.2906927 L 5.9335939,7.7988319 7.6269529,6.1484419 -5.6213616,-7.4261673 c -0.1943465,-0.1943465 -0.5493765,-0.1905301 -0.7564893,0.039776 z"
         inkstitch_id="path31147-7"
         inkscape:connector-curvature="0"
         sodipodi:nodetypes="cccccc"
         id="path19494" />
    </symbol>
  </defs>
  <metadata
     id="metadata5">
    <rdf:RDF>
      <cc:Work
         rdf:about="">
        <dc:format>image/svg+xml</dc:format>
        <dc:type
           rdf:resource="http://purl.org/dc/dcmitype/StillImage" />
      </cc:Work>
    </rdf:RDF>
    <inkstitch:thread-palette />
    <inkstitch:operator-overview-transform>&quot;matrix(2.9959, 0, 0, 2.9959, -84, 135.5)&quot;</inkstitch:operator-overview-transform>
    <inkstitch:collapse_len_mm />
  </metadata>
  <g
     style="display:inline"
     inkscape:label="Examples"
     inkscape:groupmode="layer"
     id="layer1"
     transform="matrix(0.535939 0 0 0.535939 -2.95865 -43.2617)">
    <g
       id="g10524"
       style="display:inline"
       transform="translate(-26.5859, 39.0369)">
      <path
         id="path7791"
         style="opacity:0.5;fill:#f993bc;stroke:none;stroke-width:0.00831478;stroke-linecap:square;stroke-dasharray:0.140008, 0.0700042"
         d="m 82.462913,202.02111 -7.493598,15.98301 -17.414441,2.88819 12.885002,12.06542 -2.634465,17.45474 15.456932,-8.52609 15.78612,7.89926 -3.3321,-17.33486 12.390977,-12.57236 -17.516247,-2.18746 z m -0.83458,22.32474 a 6.8153729,5.7462945 0 0 1 6.81561,5.74642 6.8153729,5.7462945 0 0 1 -6.81561,5.74642 6.8153729,5.7462945 0 0 1 -6.815598,-5.74642 6.8153729,5.7462945 0 0 1 6.815598,-5.74642 z"
         inkstitch:fill_method="2"
         inkstitch:underpath="False"
         inkstitch:fill_underlay="False" />
      <g
         id="command_group3"
         inkscape:label="Commande Ink/Stitch: Trim thread after sewing this object"
         transform="matrix(0.493682 0 0 0.493682 32.1064 41.6844)"
         style="display:none">
        <path
           id="command_connector3"
           d="m 96.781274,295.28466 2.657087,34.96044"
           style="fill:none;stroke:#000000;stroke-width:1px;stroke-opacity:0.5"
           inkscape:connection-start="#command_use4650"
           inkscape:connection-end="#path7791"
           inkscape:label="connecteur"
           inkscape:connector-type="polyline"
           inkscape:connector-curvature="0" />
        <use
           id="command_use4650"
           xlink:href="#inkstitch_trim"
           height="100%"
           width="100%"
           x="96.77869768523978"
           y="295.2488070885601"
           inkscape:label="marqueur de commande" />
      </g>
      <g
         id="g7803"
         transform="translate(-24.6237, 34.3939)">
        <path
           id="path7794"
           style="opacity:0.5;fill:#f993bc;stroke:none;stroke-width:0.00831478;stroke-linecap:square;stroke-dasharray:0.140008, 0.0700042"
           d="m 176.05963,167.62719 -7.49361,15.98301 -17.41444,2.88819 12.88501,12.06542 -2.63447,17.45474 15.45694,-8.52609 15.78612,7.89926 -3.3321,-17.33486 12.39098,-12.57236 -17.51625,-2.18746 z m -0.83458,22.32474 a 6.8153729,5.7462945 0 0 1 6.81561,5.74642 6.8153729,5.7462945 0 0 1 -6.81561,5.74642 6.8153729,5.7462945 0 0 1 -6.81561,-5.74642 6.8153729,5.7462945 0 0 1 6.81561,-5.74642 z"
           inkstitch:row_spacing_mm="0.7"
           inkstitch:fill_method="2"
           inkstitch:fill_underlay="False"
           inkstitch:underpath="False" />
        <g
           id="command_group11"
           inkscape:label="Commande Ink/Stitch: Trim thread after sewing this object"
           transform="matrix(0.493682 0 0 0.493682 56.7301 7.29051)"
           style="display:none">
          <path
             id="command_connector11"
             d="m 230.70717,296.92849 5.91763,38.70204"
             style="fill:none;stroke:#000000;stroke-width:1px;stroke-opacity:0.5"
             inkscape:connection-start="#command_use1297"
             inkscape:connection-end="#path7794"
             inkscape:label="connecteur"
             inkscape:connector-type="polyline"
             inkscape:connector-curvature="0" />
          <use
             id="command_use1297"
             xlink:href="#inkstitch_trim"
             height="100%"
             width="100%"
             x="230.70459231854213"
             y="296.89263175783395"
             inkscape:label="marqueur de commande" />
        </g>
        <path
           style="display:inline;fill:none;stroke:#000000;stroke-width:0.264583px;stroke-linecap:butt;stroke-linejoin:miter;stroke-opacity:1;marker-start:url(#inkstitch-guide-line-marker)"
           d="m 154.24436,192.0902 c 0,0 20.035,17.281 27.79603,12.2944 7.76104,-4.98659 6.94901,-34.74504 6.94901,-34.74504"
           id="path7798"
           sodipodi:nodetypes="czc" />
      </g>
      <g
         id="g10512"
         transform="translate(40.7337, 41.2014)">
        <path
           id="path10508"
           style="opacity:0.5;fill:#f993bc;stroke:none;stroke-width:0.00831478;stroke-linecap:square;stroke-dasharray:0.140008, 0.0700042"
           d="m 176.05963,167.62719 -7.49361,15.98301 -17.41444,2.88819 12.88501,12.06542 -2.63447,17.45474 15.45694,-8.52609 15.78612,7.89926 -3.3321,-17.33486 12.39098,-12.57236 -17.51625,-2.18746 z m -0.83458,22.32474 a 6.8153729,5.7462945 0 0 1 6.81561,5.74642 6.8153729,5.7462945 0 0 1 -6.81561,5.74642 6.8153729,5.7462945 0 0 1 -6.81561,-5.74642 6.8153729,5.7462945 0 0 1 6.81561,-5.74642 z"
           inkstitch:row_spacing_mm="0.7"
           inkstitch:fill_underlay="False"
           inkstitch:underpath="False"
           inkstitch:fill_method="2" />
        <path
           style="display:inline;fill:none;stroke:#000000;stroke-width:0.264583px;stroke-linecap:butt;stroke-linejoin:miter;stroke-opacity:1;marker-start:url(#inkstitch-guide-line-marker)"
           d="m 151.57167,203.85006 c -3.73297,-14.97902 13.40134,0.51535 27.26148,-6.94901 13.86015,-7.46437 11.4926,-36.08138 11.4926,-36.08138"
           id="path10510"
           sodipodi:nodetypes="czc" />
        <path
           style="display:inline;fill:none;stroke:#000000;stroke-width:0.264583px;stroke-linecap:butt;stroke-linejoin:miter;stroke-opacity:1;marker-start:url(#inkstitch-guide-line-marker)"
           d="m 157.18433,169.90683 c -3.73297,-14.97902 10.72864,41.40759 24.58878,33.94323 13.86015,-7.46437 27.26151,13.63075 27.26151,13.63075"
           id="path17813"
           sodipodi:nodetypes="czc" />
      </g>
      <g
         id="g8099"
         transform="translate(50.5139, 3.93671)">
        <path
           id="path7796"
           style="display:inline;opacity:0.5;fill:#f993bc;stroke:none;stroke-width:0.00831478;stroke-linecap:square;stroke-dasharray:0.140008, 0.0700042"
           d="m 233.78985,168.69627 -7.49361,15.98301 -17.41444,2.88819 12.88501,12.06542 -2.63447,17.45474 15.45694,-8.52609 15.78612,7.89926 -3.3321,-17.33486 12.39098,-12.57236 -17.51625,-2.18746 z m -0.83458,22.32474 a 6.8153729,5.7462945 0 0 1 6.81561,5.74642 6.8153729,5.7462945 0 0 1 -6.81561,5.74642 6.8153729,5.7462945 0 0 1 -6.81561,-5.74642 6.8153729,5.7462945 0 0 1 6.81561,-5.74642 z"
           transform="translate(5.07812,39.5559)"
           inkstitch:row_spacing_mm="0.7"
           inkstitch:fill_method="2" />
        <g
           id="command_group2"
           inkscape:label="Commande Ink/Stitch: Ignore this object (do not stitch)"
           transform="matrix(0.264583 0 0 0.264583 -40.3278 80.3716)"
           style="display:none">
          <path
             id="command_connector2"
             d="m 1048.4107,454.18156 2.5974,38.15092"
             style="fill:none;stroke:#000000;stroke-width:1px;stroke-opacity:0.5"
             inkscape:connection-start="#command_use7047"
             inkscape:connection-end="#path7796"
             inkscape:label="connecteur"
             inkscape:connector-type="polyline"
             inkscape:connector-curvature="0" />
          <use
             id="command_use7047"
             xlink:href="#inkstitch_ignore_object"
             height="100%"
             width="100%"
             x="1048.4081"
             y="454.1459"
             inkscape:label="marqueur de commande" />
        </g>
        <path
           style="display:inline;fill:none;stroke:#000000;stroke-width:0.264583px;stroke-linecap:butt;stroke-linejoin:miter;stroke-opacity:1;marker-start:url(#inkstitch-guide-line-marker)"
           d="m 222.66536,218.54989 c 0,0 21.10406,55.7678 35.27957,44.63401 14.17551,-11.13379 -27.52876,-48.64305 -27.52876,-48.64305"
           id="path8093"
           sodipodi:nodetypes="czc" />
      </g>
    </g>
    <g
       id="g10809"
       style="display:inline"
       transform="translate(-26.5358, 92.6584)">
      <path
         sodipodi:type="star"
         style="display:inline;fill:#0a55a3;stroke:none;stroke-width:0.377953;stroke-linecap:square;stroke-dasharray:3.59423, 1.79711"
         id="path21585"
         inkscape:flatsided="false"
         sodipodi:sides="5"
         sodipodi:cx="178.57143"
         sodipodi:cy="107.14286"
         sodipodi:r1="100.46829"
         sodipodi:r2="50.234146"
         sodipodi:arg1="1.0498865"
         sodipodi:arg2="1.678205"
         inkscape:rounded="0"
         inkscape:randomized="0"
         d="M 228.57143,194.28572 173.18621,157.08752 111.1445,181.62431 129.40711,117.45497 86.899288,66.032074 153.57142,63.571433 189.34186,7.253544 212.28489,69.902133 276.90006,86.518654 224.4075,127.69825 Z"
         transform="matrix(0.262437 -0.0336335 0.0336335 0.262437 32.4783 34.3501)"
         inkscape:transform-center-x="7.3802079"
         inkscape:transform-center-y="0.27959639"
         inkstitch:fill_method="2"
         inkstitch:fill_underlay="False"
         inkstitch:row_spacing_mm="0.7"
         inkscape:label="round"
         inkstitch:underpath="False" />
      <g
         id="command_group4"
         inkscape:label="Commande Ink/Stitch: Trim thread after sewing this object"
         transform="matrix(0.493682 0 0 0.493682 32.0563 -11.9371)"
         style="display:none">
        <path
           id="command_connector4"
           d="M 83.290773,61.338272 94.10266,101.56341"
           style="fill:none;stroke:#000000;stroke-width:1px;stroke-opacity:0.5"
           inkscape:connection-start="#command_use1468"
           inkscape:connection-end="#path21585"
           inkscape:label="connecteur"
           inkscape:connector-type="polyline"
           inkscape:connector-curvature="0" />
        <use
           id="command_use1468"
           xlink:href="#inkstitch_trim"
           height="100%"
           width="100%"
           x="83.28819288555935"
           y="61.30242683993777"
           inkscape:label="marqueur de commande" />
      </g>
      <g
         id="g5916"
         transform="translate(-27.7354, -80.1809)"
         style="display:inline">
        <path
           sodipodi:type="star"
           style="fill:#0a55a3;stroke:none;stroke-width:2;stroke-linecap:square;stroke-dasharray:3.59423, 1.79711"
           id="path24541"
           inkscape:flatsided="false"
           sodipodi:sides="5"
           sodipodi:cx="178.57143"
           sodipodi:cy="107.14286"
           sodipodi:r1="100.46829"
           sodipodi:r2="50.234146"
           sodipodi:arg1="1.0498865"
           sodipodi:arg2="1.678205"
           inkscape:rounded="0"
           inkscape:randomized="0"
           d="M 228.57143,194.28572 173.18621,157.08752 111.1445,181.62431 129.40711,117.45497 86.899288,66.032074 153.57142,63.571433 189.34186,7.253544 212.28489,69.902133 276.90006,86.518654 224.4075,127.69825 Z"
           transform="matrix(0.262437 -0.0336335 0.0336335 0.262437 126.867 114.531)"
           inkscape:transform-center-x="7.3802079"
           inkscape:transform-center-y="0.27959639"
           inkstitch:fill_method="2"
           inkstitch:fill_underlay="False"
           inkstitch:contour_strategy="1"
           inkstitch:row_spacing_mm="0.7"
           inkscape:label="round"
           inkstitch:underpath="False" />
        <g
           id="command_group5"
           inkscape:label="Commande Ink/Stitch: Trim thread after sewing this object"
           transform="matrix(0.493682 0 0 0.493682 59.7917 68.2438)"
           style="display:none">
          <path
             id="command_connector5"
             d="m 225.00998,57.296791 6.52403,39.10755"
             style="fill:none;stroke:#000000;stroke-width:1px;stroke-opacity:0.5"
             inkscape:connection-start="#command_use405"
             inkscape:connection-end="#path24541"
             inkscape:label="connecteur"
             inkscape:connector-type="polyline"
             inkscape:connector-curvature="0" />
          <use
             id="command_use405"
             xlink:href="#inkstitch_trim"
             height="100%"
             width="100%"
             x="225.0073971587001"
             y="57.26094573978515"
             inkscape:label="marqueur de commande" />
        </g>
        <path
           style="fill:none;stroke:#000000;stroke-width:0.264583px;stroke-linecap:butt;stroke-linejoin:miter;stroke-opacity:1;marker-start:url(#inkstitch-guide-line-marker)"
           d="m 158.2534,142.64534 c 0,0 17.62957,3.11571 25.3906,-1.87089 7.76104,-4.98659 5.87994,-26.72695 5.87994,-26.72695"
           id="path4981"
           sodipodi:nodetypes="czc" />
      </g>
      <g
         id="g7708"
         transform="translate(38.9178, -80.1809)"
         style="display:inline">
        <path
           sodipodi:type="star"
           style="fill:#0a55a3;stroke:none;stroke-width:2;stroke-linecap:square;stroke-dasharray:3.59423, 1.79711"
           id="path7704"
           inkscape:flatsided="false"
           sodipodi:sides="5"
           sodipodi:cx="178.57143"
           sodipodi:cy="107.14286"
           sodipodi:r1="100.46829"
           sodipodi:r2="50.234146"
           sodipodi:arg1="1.0498865"
           sodipodi:arg2="1.678205"
           inkscape:rounded="0"
           inkscape:randomized="0"
           d="M 228.57143,194.28572 173.18621,157.08752 111.1445,181.62431 129.40711,117.45497 86.899288,66.032074 153.57142,63.571433 189.34186,7.253544 212.28489,69.902133 276.90006,86.518654 224.4075,127.69825 Z"
           transform="matrix(0.262437 -0.0336335 0.0336335 0.262437 126.867 114.531)"
           inkscape:transform-center-x="7.3802079"
           inkscape:transform-center-y="0.27959639"
           inkstitch:fill_method="2"
           inkstitch:fill_underlay="False"
           inkstitch:contour_strategy="1"
           inkstitch:row_spacing_mm="0.7"
           inkscape:label="round"
           inkstitch:underpath="False" />
        <g
           id="command_group6"
           inkscape:label="Commande Ink/Stitch: Trim thread after sewing this object"
           transform="matrix(0.493682 0 0 0.493682 -6.8615 68.2438)"
           style="display:none">
          <path
             id="command_connector6"
             d="m 368.93385,54.944184 1.60523,32.943975"
             style="fill:none;stroke:#000000;stroke-width:1px;stroke-opacity:0.5"
             inkscape:connection-start="#command_use1294"
             inkscape:connection-end="#path7704"
             inkscape:label="connecteur"
             inkscape:connector-type="polyline"
             inkscape:connector-curvature="0" />
          <use
             id="command_use1294"
             xlink:href="#inkstitch_trim"
             height="100%"
             width="100%"
             x="368.9312666007296"
             y="54.90833832766787"
             inkscape:label="marqueur de commande" />
        </g>
        <path
           style="fill:none;stroke:#000000;stroke-width:0.264583px;stroke-linecap:butt;stroke-linejoin:miter;stroke-opacity:1;marker-start:url(#inkstitch-guide-line-marker)"
           d="m 196.20567,163.75963 c 11.14122,-23.44776 -42.49585,-28.0633 -42.49585,-28.0633"
           id="path17535"
           sodipodi:nodetypes="cc" />
        <path
           style="fill:none;stroke:#000000;stroke-width:0.264583px;stroke-linecap:butt;stroke-linejoin:miter;stroke-opacity:1;marker-start:url(#inkstitch-guide-line-marker)"
           d="m 160.9261,119.12562 c 27.37878,-2.15002 26.26005,21.13741 18.79494,35.29209"
           id="path7706" />
      </g>
      <g
         id="g10487"
         transform="translate(105.571, -75.5853)"
         style="display:inline">
        <path
           sodipodi:type="star"
           style="fill:#0a55a3;stroke:none;stroke-width:2;stroke-linecap:square;stroke-dasharray:3.59423, 1.79711"
           id="path10483"
           inkscape:flatsided="false"
           sodipodi:sides="5"
           sodipodi:cx="178.57143"
           sodipodi:cy="107.14286"
           sodipodi:r1="100.46829"
           sodipodi:r2="50.234146"
           sodipodi:arg1="1.0498865"
           sodipodi:arg2="1.678205"
           inkscape:rounded="0"
           inkscape:randomized="0"
           d="M 228.57143,194.28572 173.18621,157.08752 111.1445,181.62431 129.40711,117.45497 86.899288,66.032074 153.57142,63.571433 189.34186,7.253544 212.28489,69.902133 276.90006,86.518654 224.4075,127.69825 Z"
           transform="matrix(0.262437,-0.0336335,0.0336335,0.262437,126.867,114.531)"
           inkscape:transform-center-x="7.3802079"
           inkscape:transform-center-y="0.27959639"
           inkstitch:fill_method="2"
           inkstitch:fill_underlay="False"
           inkstitch:contour_strategy="1"
           inkstitch:row_spacing_mm="0.7"
           inkscape:label="round"
           inkstitch:underpath="False" />
        <g
           id="command_group1"
           inkscape:label="Commande Ink/Stitch: Ignore this object (do not stitch)"
           transform="matrix(0.264583 0 0 0.264583 -102.759 67.2753)"
           style="display:none">
          <path
             id="command_connector1"
             d="m 1027.2829,153.64333 13.1451,42.59633"
             style="fill:none;stroke:#000000;stroke-width:1px;stroke-opacity:0.5"
             inkscape:connection-start="#command_use9843"
             inkscape:connection-end="#path10483"
             inkscape:label="connecteur"
             inkscape:connector-type="polyline"
             inkscape:connector-curvature="0" />
          <use
             id="command_use9843"
             xlink:href="#inkstitch_ignore_object"
             height="100%"
             width="100%"
             x="1027.2803"
             y="153.60768"
             inkscape:label="marqueur de commande" />
        </g>
        <path
           style="fill:none;stroke:#000000;stroke-width:0.264583px;stroke-linecap:butt;stroke-linejoin:miter;stroke-opacity:1;marker-start:url(#inkstitch-guide-line-marker)"
           d="m 160.9261,119.12562 c 0,0 21.10406,55.7678 35.27957,44.63401 14.17551,-11.13379 -29.93419,-49.71213 -29.93419,-49.71213"
           id="path10485"
           sodipodi:nodetypes="czc" />
      </g>
    </g>
  </g>
  <g
     style="display:inline"
     inkscape:groupmode="layer"
     id="layer2"
     inkscape:label="Description"
     transform="matrix(0.535939,0,0,0.535939,-2.9586547,3.3650249)">
    <g
       transform="translate(-17.837818,-88.511905)"
       id="g22995"
       inkscape:label="Heading"
       style="display:inline">
      <text
         xml:space="preserve"
         style="font-style:normal;font-variant:normal;font-weight:normal;font-stretch:normal;font-size:10.5833px;line-height:1.25;font-family:'Times New Roman';-inkscape-font-specification:'Times New Roman, ';display:inline;stroke-width:0.264583"
         x="52.260017"
         y="96.104599"
         id="text23051"><tspan
           sodipodi:role="line"
           id="tspan23049"
           style="font-style:normal;font-variant:normal;font-weight:normal;font-stretch:normal;font-family:'Times New Roman';-inkscape-font-specification:'Times New Roman, ';stroke-width:0.264583"
           x="52.260017"
           y="96.104599">Correct</tspan></text>
      <text
         xml:space="preserve"
         style="font-style:normal;font-variant:normal;font-weight:normal;font-stretch:normal;font-size:10.5833px;line-height:1.25;font-family:'Times New Roman';-inkscape-font-specification:'Times New Roman, ';display:inline;stroke-width:0.264583"
         x="258.68951"
         y="95.944405"
         id="text23107"><tspan
           sodipodi:role="line"
           id="tspan23105"
           style="font-style:normal;font-variant:normal;font-weight:normal;font-stretch:normal;font-family:'Times New Roman';-inkscape-font-specification:'Times New Roman, ';stroke-width:0.264583"
           x="258.68951"
           y="95.944405">Incorrect </tspan></text>
      <text
         xml:space="preserve"
         style="font-style:normal;font-variant:normal;font-weight:normal;font-stretch:normal;font-size:10.5833px;line-height:1.25;font-family:'Times New Roman';-inkscape-font-specification:'Times New Roman, ';display:inline;stroke-width:0.264583"
         x="176.60233"
         y="96.285469"
         id="text17447"><tspan
           sodipodi:role="line"
           id="tspan17445"
           style="font-style:normal;font-variant:normal;font-weight:normal;font-stretch:normal;font-family:'Times New Roman';-inkscape-font-specification:'Times New Roman, ';stroke-width:0.264583"
           x="176.60233"
           y="96.285469">Correct but</tspan><tspan
           sodipodi:role="line"
           style="font-style:normal;font-variant:normal;font-weight:normal;font-stretch:normal;font-family:'Times New Roman';-inkscape-font-specification:'Times New Roman, ';stroke-width:0.264583"
           x="176.60233"
           y="109.5146"
           id="tspan17807">only one guide</tspan><tspan
           sodipodi:role="line"
           style="font-style:normal;font-variant:normal;font-weight:normal;font-stretch:normal;font-family:'Times New Roman';-inkscape-font-specification:'Times New Roman, ';stroke-width:0.264583"
           x="176.60233"
           y="122.74372"
           id="tspan17809">is used</tspan><tspan
           sodipodi:role="line"
           style="font-style:normal;font-variant:normal;font-weight:normal;font-stretch:normal;font-family:'Times New Roman';-inkscape-font-specification:'Times New Roman, ';stroke-width:0.264583"
           x="176.60233"
           y="135.97284"
           id="tspan17811" /></text>
      <text
         xml:space="preserve"
         style="font-style:normal;font-variant:normal;font-weight:normal;font-stretch:normal;font-size:10.5833px;line-height:1.25;font-family:'Times New Roman';-inkscape-font-specification:'Times New Roman, ';display:inline;stroke-width:0.264583"
         x="122.12577"
         y="96.104599"
         id="text17451"><tspan
           sodipodi:role="line"
           id="tspan17449"
           style="font-style:normal;font-variant:normal;font-weight:normal;font-stretch:normal;font-family:'Times New Roman';-inkscape-font-specification:'Times New Roman, ';stroke-width:0.264583"
           x="122.12577"
           y="96.104599">Correct</tspan></text>
    </g>
    <use
       xlink:href="#inkstitch_ignore_layer"
       inkscape:label="Ink/Stitch Command: Ignore layer (do not stitch any objects in this layer)"
       y="-10"
       x="0"
       width="100%"
       transform="matrix(0.264583,0,0,0.264583,8.2298827,-10.57902)"
       id="use1"
       height="100%" />
    <text
       xml:space="preserve"
       style="font-size:10.5319px;line-height:1.25;font-family:'Times New Roman';-inkscape-font-specification:'Times New Roman, ';stroke-width:0.493682"
       x="247.42459"
       y="121.37327"
       id="text7658"><tspan
         sodipodi:role="line"
         id="tspan7656"
         style="font-size:10.5319px;stroke-width:0.493682"
         x="247.42459"
         y="121.37327">Will rise </tspan><tspan
         sodipodi:role="line"
         style="font-size:10.5319px;stroke-width:0.493682"
         x="247.42459"
         y="134.53815"
         id="tspan7710">an error</tspan><tspan
         sodipodi:role="line"
         style="font-size:10.5319px;stroke-width:0.493682"
         x="247.42459"
         y="147.70302"
         id="tspan7712" /></text>
    <text
       xml:space="preserve"
       style="font-size:10.5319px;line-height:1.25;font-family:'Times New Roman';-inkscape-font-specification:'Times New Roman, ';stroke-width:0.493682"
       x="243.19304"
       y="246.9095"
       id="text7720"><tspan
         sodipodi:role="line"
         id="tspan7714"
         style="font-size:10.5319px;stroke-width:0.493682"
         x="243.19304"
         y="246.9095">Will rise </tspan><tspan
         sodipodi:role="line"
         style="font-size:10.5319px;stroke-width:0.493682"
         x="243.19304"
         y="260.07437"
         id="tspan7716">an error</tspan><tspan
         sodipodi:role="line"
         style="font-size:10.5319px;stroke-width:0.493682"
         x="243.19304"
         y="273.23926"
         id="tspan7718" /></text>
  </g>
  <g
     inkscape:label="Output"
     inkscape:groupmode="layer"
     id="__inkstitch_stitch_plan__"
     style="display:inline"
     transform="translate(-0.37797619,32.883929)">
    <g
       id="__color_block_0__"
       inkscape:label="color block 1">
      <path
         id="object8794"
         style="fill:none;stroke:#f992bb;stroke-width:0.4"
         d="m 102.13784,325.03937 1.16633,2.24849 1.16632,2.24849 -1.16632,-2.24849 -1.16633,-2.24849 2.33265,4.49698 2.33265,4.49698 2.33265,4.49698 2.33265,4.49698 2.33265,4.49699 2.33265,4.49698 2.33265,4.49698 5.06869,0.63298 5.0687,0.63299 5.06869,0.63299 5.06869,0.63299 5.06869,0.63298 5.0687,0.63299 5.06869,0.63299 -3.58559,3.63807 -3.58559,3.63808 -3.58559,3.63807 -3.58558,3.63808 -3.58559,3.63808 -3.58559,3.63807 -3.58559,3.63808 0.96114,5.00023 0.96115,5.00024 0.96114,5.00023 0.96114,5.00024 0.96115,5.00023 0.96114,5.00024 0.96114,5.00023 -2.09018,-0.94488 h 1.90856 l -0.18163,-0.94488 h -3.61521 l -1.88828,-0.94488 h 3.51897 1.8029 l -0.18163,-0.94488 h -4.45592 -2.57261 l -1.88828,-0.94489 h 1.62625 7.10894 l -0.18163,-0.94488 h -9.76196 -0.67988 l -1.88828,-0.94488 h 11.0721 1.0764 l -0.18163,-0.94488 h -3.72942 -10.12573 l -1.88828,-0.94488 h 9.17937 6.38244 l -0.18163,-0.94489 h -9.03546 -8.233 l -1.88828,-0.94488 h 7.28663 11.33859 l 0.16828,-0.94488 h -3.00293 -11.33858 -6.34027 l -1.88828,-0.94488 h 5.3939 11.33859 5.65594 l -0.18162,-0.94488 h -8.30897 -11.33858 -4.44754 l -1.88828,-0.94489 h 3.50117 11.33858 10.96199 l -0.18162,-0.94488 h -2.27643 -11.33858 -11.33858 -2.55481 l -1.54043,-0.77082 -4.528018,2.49767 -4.52802,2.49767 -4.52802,2.49767 -4.52802,2.49767 -4.52802,2.49767 -4.52802,2.49767 -4.075489,1.84779 h 0.725626 l 1.712975,-0.94488 h -1.115507 -1.180482 l 0.142612,-0.94488 h 3.866351 l 1.712975,-0.94488 h -5.436714 l 0.142612,-0.94488 h 3.587292 3.419784 l 1.712975,-0.94488 h -7.967405 -0.610034 l 0.142613,-0.94489 h 8.971358 1.176442 l 1.712975,-0.94488 h -5.724062 -5.994101 l 0.142612,-0.94488 h 3.016843 10.271682 l 1.712975,-0.94488 H 85.03937 73.700787 l 0.103027,-0.94488 h 8.40091 8.02834 l 1.712975,-0.94489 H 90.708661 79.370079 73.946426 l 0.142613,-0.94488 h 2.446394 11.338583 5.784998 l 1.712974,-0.94488 H 85.03937 74.231651 l 0.142612,-0.94488 h 7.830461 11.338583 3.541656 l 1.712974,-0.94488 H 90.708661 79.370079 74.516875 l 0.142612,-0.94489 h 1.875946 11.338583 11.338582 1.298312 l 1.71298,-0.94488 H 96.377953 85.03937 74.802099 l 0.142613,-0.94488 h 7.260012 11.338583 11.338583 11.33858 11.33859 4.92944 l -0.18162,-0.94488 H 124.72441 113.38583 102.04724 90.708661 79.370079 75.087324 l 0.142612,-0.94488 h 1.305497 11.338583 11.338582 11.338582 11.33858 10.23549 l -0.18162,-0.94488 H 130.3937 119.05512 107.71654 96.377953 85.03937 75.372548 l 0.142612,-0.94489 h 6.689564 11.338583 11.338583 11.33858 11.33859 4.20294 l -0.18162,-0.94488 H 124.72441 113.38583 102.04724 90.708661 79.370079 75.657772 l 0.142613,-0.94488 h 0.735048 11.338583 11.338582 11.338582 11.33858 9.50899 l -0.18162,-0.94488 H 130.3937 119.05512 107.71654 96.377953 85.03937 75.942997 l 0.142612,-0.94488 h 6.119115 11.338583 11.338583 11.33858 11.33859 3.47644 l -0.18162,-0.94489 H 124.72441 113.38583 102.04724 90.708661 79.370079 76.228221 l 0.142612,-0.94488 h 11.503183 11.338582 11.338582 11.33858 8.78249 l -0.18162,-0.94488 H 119.05512 107.71654 96.377953 85.03937 76.513445 l 0.567357,-3.75904 0.567356,-3.75904 -3.794938,-3.55355 -3.794938,-3.55355 -3.794937,-3.55355 -3.794938,-3.55355 h 2.728443 11.338583 11.338583 2.934436 l -1.00381,0.94488 H 79.370079 68.031496 63.477473 l 1.009066,0.94488 h 6.379603 11.338582 6.681032 l -0.619424,0.94488 H 85.03937 73.700787 65.495605 l 1.009066,0.94488 h 10.030762 11.132592 l -0.38853,0.94489 H 79.370079 68.031496 67.513737 l 1.009066,0.94488 h 2.343339 11.338582 4.734239 l -0.222469,0.94488 H 85.03937 73.700787 69.531869 l 1.009066,0.94488 h 5.994498 10.070202 l -0.0888,0.94488 h -7.146755 -7.820078 l 1.009066,0.94489 h 9.645657 4.422968 l 0.110858,0.94488 H 85.03937 73.700787 l 0.876412,0.94488 h 1.958234 10.471283 l 0.340531,0.94488 h -7.977168 -3.783814 l 1.009066,0.94488 h 5.609393 5.58234 l 0.598308,0.94488 H 85.03937 77.604397 l -0.09267,0.94489 h 10.362285 1.194562 l 0.918885,0.94488 H 79.370079 77.369118 l -0.142612,0.94488 h 4.978218 8.875668 l 1.366806,0.94488 H 85.03937 77.083894 l -0.142612,0.94488 h 10.932734 6.562599 l 3.38848,0.94489 H 90.708661 79.370079 76.79867 l -0.142612,0.94488 h 5.548666 11.338583 11.338583 11.33858 11.33859 2.74994 l -0.18162,-0.94488 h -5.40297 -11.33858 -10.58797 l 3.38846,-0.94489 h 4.36486 11.33858 8.05599 l -0.18162,-0.94488 h -10.70901 -10.87938 l 1.36681,-0.94488 h 6.67792 11.33859 2.02344 l -0.18162,-0.94488 h -4.67647 -11.33858 -2.75036 l 0.91889,-0.94488 h 10.3354 7.32949 l -0.18162,-0.94489 h -9.98251 -6.81755 l 0.5983,-0.94488 h 3.3846 11.33859 1.29694 l 0.88295,-0.94488 h -5.01454 -11.33858 l 0.23039,-0.94488 h 8.27354 8.78044 l 0.93125,-0.94488 h -1.20775 -11.33858 -5.17073 l 0.11086,-0.94488 h 2.22522 11.33859 4.97364 l 0.93125,-0.94489 h -8.73954 -10.61831 l -0.0888,-0.94488 h 7.87246 11.33859 1.16685 l 0.93125,-0.94488 h -4.93275 -11.33858 -5.14868 l -0.22247,-0.94488 h 2.5365 11.33859 8.69864 l 0.93125,-0.94488 h -1.12596 -11.33858 -11.33858 l -0.43092,-0.94489 h 8.93485 11.33859 4.89185 l 0.93124,-0.94488 h -8.65774 -11.33858 -6.69851 l -0.61943,-0.94488 h 4.48329 11.33859 11.33858 1.08505 l 0.93125,-0.94488 h -4.85095 -11.33858 -11.33858 -2.56753 l -1.00381,-0.94488 h 0.73669 11.33858 11.33859 8.61684 l 0.93125,-0.94489 h -1.04416 -11.33858 -11.33858 -10.60744 l -1.84371,-0.94488 h 9.6165 11.33859 11.33858 4.81005 l 0.93125,-0.94488 h -8.57595 -11.33858 -11.33858 -9.70608 l -3.0276,-0.36693 -3.046633,0.19725 -2.816615,0.768 -2.613643,1.29144 H 85.03937 73.700787 62.362205 61.459341 l -1.009066,-0.94488 h 10.415867 11.338582 11.338583 0.475659 l 2.924218,-0.94488 H 90.708661 79.370079 68.031496 59.441209 l -1.009066,-0.94488 h 6.764707 11.338583 11.338583 11.338582 11.338582 11.33858 11.33859 11.33858 1.00326 l 0.93125,-0.94488 H 141.73228 130.3937 119.05512 107.71654 96.377953 85.03937 73.700787 62.362205 57.423077 l -1.009066,-0.94488 h 3.113548 11.338583 11.338582 11.338583 11.338583 11.33858 11.33859 11.33858 8.53505 l 0.93125,-0.94489 H 147.40157 136.06299 124.72441 113.38583 102.04724 90.708661 79.370079 68.031496 56.692913 55.404945 l -1.009066,-0.94488 h 10.800971 11.338583 11.338583 11.338582 11.338582 11.33858 11.33859 11.33858 4.72826 l 0.93125,-0.94488 H 141.73228 130.3937 119.05512 107.71654 96.377953 85.03937 73.700787 62.362205 53.386813 l -1.009066,-0.94488 h 7.149812 11.338583 11.338582 11.338583 11.338583 11.33858 11.33859 11.33858 11.33858 0.92147 l 0.93125,-0.94488 H 147.40157 136.06299 124.72441 113.38583 102.04724 90.708661 79.370079 68.031496 56.692913 52.56272 l 2.848599,-0.47245 2.848599,-0.47244 h 6.936932 11.338583 11.338583 11.338582 11.338582 11.33858 11.33859 11.33858 8.45326 l 0.89289,-0.94488 H 153.07087 141.73228 130.3937 119.05512 107.71654 96.377953 85.03937 73.700787 63.957116 L 66.805715,360.47244 69.654314,360 h 1.211828 11.338582 11.338583 11.338583 11.33858 11.33859 11.33858 7.44922 l -3.7831,-0.47244 -3.78311,-0.47244 H 136.06299 124.72441 113.38583 102.04724 90.708661 79.370079 75.351512 l 2.848598,-0.47244 2.848599,-0.47244 h 6.825307 11.338582 11.338582 11.33858 9.32468 l -3.7831,-0.47244 -3.78311,-0.47245 h -4.59311 -11.33858 -11.338587 -9.632046 l 0.51408,-0.94488 h 6.28332 11.338583 11.33858 2.09147 l -0.49013,-0.94488 h -4.43598 -11.33859 -11.338579 -3.005669 l 0.443006,-0.94488 h 11.0666 11.338582 6.78051 l -0.49013,-0.94488 h -9.12502 -11.338587 -7.788949 l 0.443006,-0.94489 h 4.511297 11.338583 11.33858 l -0.35915,-0.94488 h -2.47549 -11.33859 -11.338579 -1.233646 l 0.443006,-0.94488 h 9.294577 11.338582 4.82001 l -0.49012,-0.94488 h -7.16453 -11.338587 -6.016926 l 0.443006,-0.94488 h 2.739274 11.338583 9.50905 l -0.49012,-0.94488 h -0.51499 -11.33859 -10.800202 l 0.443006,-0.94489 h 7.522554 11.338582 2.85952 l -0.49013,-0.94488 H 107.71654 96.377953 92.13305 l 0.443005,-0.94488 h 0.967252 11.338583 7.54856 l -0.49013,-0.94488 h -9.89308 -9.028179 l 0.443006,-0.94488 h 5.750531 11.338582 0.89902 l -0.49012,-0.94489 h -3.24354 -11.338587 -2.47288 l 0.443005,-0.94488 h 10.533812 5.58806 l -0.49012,-0.94488 h -7.93259 -7.256156 l 0.443006,-0.94488 h 3.978508 10.277102 l -0.49012,-0.94488 h -1.28304 -11.338587 -0.700857 l 0.443005,-0.94489 h 8.761789 3.62757 l -0.49013,-0.94488 h -5.97209 -5.484133 l 0.443006,-0.94488 h 2.206485 8.316612 l -0.49013,-0.94488 h -9.589962 l 0.443006,-0.94488 h 6.989766 1.66707 l -0.49012,-0.94488 h -4.0116 -3.71211 l 0.443006,-0.94489 h 0.434462 6.356112 l -0.49012,-0.94488 h -5.857449 l 0.443006,-0.94488 h 4.924313 l -0.49012,-0.94488 h -2.0511 -1.94009 l 0.44301,-0.94488 h 3.05806 l -0.49013,-0.94489 h -2.12493 l 0.44301,-0.94488 h 1.1918 l -0.74879,-0.94488 0.74879,0.94488 -0.74879,-0.94488 0.74879,0.94488 -0.74879,-0.94488"
         transform="scale(0.264583)"
         inkstitch:manual_stitch="true" />
      <g
         id="command_group7"
         inkscape:label="Commande Ink/Stitch: Trim thread after sewing this object"
         transform="scale(0.264583)"
         style="display:none">
        <path
           id="command_connector7"
           d="m 101.88164,295.07485 0.48021,30.39638"
           style="fill:none;stroke:#000000;stroke-width:1px;stroke-opacity:0.5"
           inkscape:connection-start="#command_use3572"
           inkscape:connection-end="#object8794"
           inkscape:label="connecteur"
           inkscape:connector-type="polyline"
           inkscape:connector-curvature="0" />
        <use
           id="command_use3572"
           xlink:href="#inkstitch_trim"
           height="100%"
           width="100%"
           x="101.87906"
           y="295.039"
           inkscape:label="marqueur de commande" />
      </g>
      <path
         id="object687"
         style="fill:none;stroke:#f992bb;stroke-width:0.4"
         d="m 191.25982,363.00284 1.86427,1.74569 1.86428,1.74569 -1.86428,-1.74569 -1.86427,-1.74569 3.72855,3.49138 3.72854,3.49138 3.72855,3.49138 3.72855,3.49139 3.72855,3.49138 3.72854,3.49138 3.72855,3.49138 -0.76569,5.07307 -0.76568,5.07307 -0.76569,5.07307 -0.76568,5.07307 -0.76569,5.07307 -0.76569,5.07307 -0.60479,4.84202 0.30172,-2.83396 2.46729,1.30656 2.79873,-1.54379 -4.84762,-2.53493 0.41841,-2.77217 7.30801,3.71915 2.88222,-1.58984 -9.77075,-4.90861 0.42547,-2.81894 6.02487,3.24871 6.20572,2.8873 3.04071,-1.67727 -7.58007,-3.31608 -7.26529,-3.96473 0.42578,-2.82102 8.52109,4.664 8.95726,3.75061 3.12166,-1.72192 -10.36753,-4.15648 -9.80659,-5.35792 0.42588,-2.82172 7.38003,4.19783 7.66308,3.6529 8.10029,2.61261 4.34169,-2.39489 5.04713,2.52555 5.04713,2.52555 5.04713,2.52554 5.04713,2.52555 5.04713,2.52555 5.04712,2.52554 1.31256,-1.13458 -0.60058,-3.12441 -3.30697,2.96048 -2.63445,-1.31826 5.33917,-4.77535 -0.63467,-3.30183 -7.41649,6.72012 -2.74732,-1.37474 5.20116,-3.91131 4.29792,-4.89222 -0.71227,-3.70554 -5.5521,6.83308 -6.10516,4.23964 -3.02375,-1.51306 7.24975,-4.58893 6.67135,-8.92406 -0.84208,-4.38081 -3.19242,6.05204 -4.37041,5.25425 -8.83662,4.92599 -3.82329,-1.91315 6.10636,-1.74306 4.80998,-3.25964 5.22214,-6.91172 3.12799,-7.37959 -0.59575,-3.09933 3.62837,-3.68149 3.62838,-3.68149 3.62838,-3.68149 3.62837,-3.68149 3.62838,-3.68148 3.62837,-3.68149 2.90549,-3.43048 -0.0369,0.51993 -2.95009,2.99328 0.358,-3.84152 -2.62901,-0.32832 -0.71906,7.20367 -3.07293,3.11792 1.16297,-10.6499 -2.62901,-0.32832 -0.69926,7.09322 -0.96601,7.06214 -3.27084,3.31872 1.39997,-8.86907 0.90868,-8.93313 -2.62748,-0.32813 -1.17621,10.80348 -1.84,10.71071 -3.64903,3.70244 1.85603,-8.42721 1.32625,-8.52859 0.8539,-8.58915 -2.62906,-0.32832 -1.14149,10.62531 -1.80879,10.53265 -2.29444,8.31551 -3.29715,7.96114 -7.36173,8.20545 -4.73592,1.91105 -6.7661,0.44165 -2.29253,-0.27957 -10.70947,-3.15769 -7.91616,-3.81408 -7.60402,-4.40538 0.43236,-2.86466 5.49819,3.333 5.65702,3.05559 9.89988,4.04208 9.28478,1.53203 8.01469,-2.13255 6.23867,-7.06205 3.92075,-9.8868 2.02498,-8.79203 1.42998,-8.90966 0.89744,-8.97931 -2.62906,-0.32832 -0.87699,8.87242 -1.40999,8.80307 -2.00151,8.68608 -3.71315,9.33392 -5.1184,5.92415 -6.93285,1.82998 -8.49675,-1.45986 -9.29371,-3.81089 -6.07178,-3.30099 -5.88953,-3.61641 0.21619,-1.4324 -3.29954,-3.08966 -3.29953,-3.08966 5.13639,3.62676 5.2726,3.42665 6.69235,3.82296 6.94329,3.34255 10.32225,2.85035 6.10677,-0.72016 4.38823,-3.94977 2.6253,-5.05151 1.87223,-5.38477 1.96428,-8.54764 1.37961,-8.66284 0.85518,-8.73065 -3.07059,-0.38346 -3.07058,-0.38346 -2.39395,-4.61517 -2.39396,-4.61517 -2.39395,-4.61516 -2.39396,-4.61517 -2.39395,-4.61516 -2.39395,-4.61517 -2.37106,-3.47313 0.0129,10.87704 -0.28754,10.87243 -0.54429,7.69804 -0.72604,7.6816 -1.18217,7.62413 2.6925,0.007 1.14627,-7.58418 0.7153,-7.63742 0.54112,-7.65319 0.28504,-8.93443 -0.003,-8.93885 1.32587,2.55607 1.32587,2.55607 -0.16881,9.05349 -0.49015,9.04133 -0.76667,9.02212 -1.30175,8.95933 2.52402,0.88627 1.52115,-10.58578 0.84393,-10.66373 0.445,-10.6877 2.49364,4.80736 -0.54594,9.55166 -0.85481,9.52878 -1.47764,9.45099 2.29465,2.08396 1.46045,-8.5738 0.95773,-8.64448 0.61356,-8.67776 2.33411,4.49981 -0.68901,8.3173 -1.09239,8.27415 -1.6676,8.17502 0.5842,2.78219 -0.20199,2.84128 -2.05176,4.17647 -3.82679,3.22647 -3.84477,1.44581 5.69111,-0.24013 4.01729,-6.37934 2.24313,-7.38428 1.57264,-7.55873 1.0082,-7.27059 0.69093,-7.30693 2.62906,0.32832 -0.70066,7.3628 -1.01803,7.32632 -1.62922,7.81499 -2.32314,7.6342 -3.46033,6.22555 -4.39232,2.3671 -8.22702,-1.15453 -6.60924,-2.63051 -6.34492,-3.22192 -6.75158,-4.1099 -6.54366,-4.43323 -6.35899,-4.6966 -7.67718,-6.22894 -7.5836,-6.34367 4.92348,-0.81656 4.92347,-0.81656 4.92348,-0.81656 4.92348,-0.81656 4.92347,-0.81656 4.92348,-0.81656 4.92348,-0.81656 1.21831,-2.59852 1.21831,-2.59852 1.18345,0.87407 0.28294,-4.00171 1.46733,-3.12963 1.46732,-3.12964 -0.37639,7.58893 -0.55889,7.57867 -4.61118,-3.33763 -1.14543,2.44306 7.90941,5.50622 0.80169,-8.56005 0.54364,-8.58095 0.23017,-8.59544 1.3195,-2.81433 1.31949,-2.81433 -0.0542,8.95948 -0.36035,8.95211 -0.63983,8.93745 -1.123,8.88848 -6.76134,-4.33139 -6.50474,-4.70996 -3.60795,0.59838 8.59337,6.27768 9.00615,5.66608 -3.44538,1.03809 -9.04759,-5.89531 -8.6235,-6.50325 -3.51695,0.58329 5.99523,4.67029 6.14803,4.46753 6.35798,4.16262 -2.08584,1.82159 -6.84297,-4.53935 -6.61487,-4.8669 -6.4004,-5.14479 -3.44117,0.57072 6.99467,5.70708 7.23607,5.39777 7.50508,5.01557 -1.02606,2.48537 -8.3534,-5.59628 -8.03391,-6.04732 -7.76363,-6.39147 -3.44117,0.57072 6.54415,5.47417 6.71226,5.26456 6.90673,5.00725 7.15742,4.64032 0.84947,3.5754 -9.28587,-5.88477 -8.8959,-6.46294 -6.76089,-5.46504 -6.66855,-5.57823 -4.25146,0.70511 2.12573,-0.35255 2.12573,-0.35256 -2.12573,0.35256 -2.12573,0.35255"
         transform="scale(0.264583)"
         inkstitch:manual_stitch="true" />
      <g
         id="command_group8"
         inkscape:label="Commande Ink/Stitch: Trim thread after sewing this object"
         transform="scale(0.264583)"
         style="display:none">
        <path
           id="command_connector8"
           d="m 224.25107,300.84362 11.54163,46.60426"
           style="fill:none;stroke:#000000;stroke-width:1px;stroke-opacity:0.5"
           inkscape:connection-start="#command_use1305"
           inkscape:connection-end="#object687"
           inkscape:label="connecteur"
           inkscape:connector-type="polyline"
           inkscape:connector-curvature="0" />
        <use
           id="command_use1305"
           xlink:href="#inkstitch_trim"
           height="100%"
           width="100%"
           x="224.24849"
           y="300.80777"
           inkscape:label="marqueur de commande" />
      </g>
      <path
         id="object6207"
         style="fill:none;stroke:#f992bb;stroke-width:0.4"
         d="m 323.64754,376.79209 1.86427,1.74569 1.86428,1.74569 -1.86428,-1.74569 -1.86427,-1.74569 3.72855,3.49138 3.72854,3.49138 3.72855,3.49138 3.72855,3.49138 3.72854,3.49139 3.72855,3.49138 3.72855,3.49138 -0.7699,5.10095 -0.76989,5.10095 -0.76989,5.10095 -0.7699,5.10094 -0.76989,5.10095 -0.76989,5.10095 0.85418,3.88389 4.29917,-2.37143 4.29917,-2.37143 4.29917,-2.37144 -3.66859,-0.19108 0.43438,1.97508 -2.41582,1.33258 -1.37007,-6.22956 5.92319,0.47329 5.94198,-0.0329 3.99859,-2.20563 3.99858,-2.20563 3.99858,-2.20563 5.05003,2.527 5.05004,2.527 5.05003,2.527 5.05004,2.52701 5.05004,2.527 5.05003,2.527 1.34351,-0.89154 -0.54396,-2.82987 -3.6007,2.31973 -2.80615,-1.40418 5.85807,-3.77055 -0.55749,-2.90028 -8.10673,5.26666 -2.90963,-1.45596 5.39152,-3.10595 5.06662,-3.60881 -0.55822,-2.90406 -6.20757,4.44771 -6.69651,3.66785 -3.01827,-1.51032 8.029,-4.22586 7.32082,-5.3579 -0.5843,-3.03974 -7.14704,5.5638 -5.2484,3.03276 -5.54884,2.43631 -3.2138,-1.60816 6.43864,-2.66273 6.08718,-3.38763 8.04607,-6.42397 -0.6015,-3.12922 -5.78342,5.09602 -6.43594,4.24315 -5.45626,2.58048 -5.70047,1.97971 -3.15644,-1.57946 -3.24226,1.78844 -3.24227,1.78844 -10.39243,0.4225 -10.36579,-0.88265 2.33607,10.62186 -2.41582,1.33258 -2.16756,-9.85565 0.75402,-4.99581 8.80446,0.97515 8.85607,0.14062 7.75165,-0.91672 7.56934,-1.90796 6.22857,-2.54627 5.88262,-3.26316 5.05024,-3.82133 4.50019,-4.45367 -0.68028,-3.53909 3.58559,-3.63807 3.58559,-3.63808 3.58559,-3.63807 3.58558,-3.63808 3.58559,-3.63807 3.58559,-3.63808 3.58559,-3.63807 -1.0054,-0.12556 -0.4716,1.62418 -3.97235,4.0305 1.79687,-5.98525 -2.6625,-0.3325 -3.50998,10.75741 -2.70123,2.74077 -2.70123,2.74076 3.55631,-8.12091 2.69363,-8.45053 -2.66251,-0.3325 -2.04754,6.61038 -2.56851,6.4253 -3.42798,6.53804 -4.17168,6.08481 -1.18908,1.54435 -4.37068,4.5767 -4.90618,3.997 -6.03376,3.53668 -6.45959,2.68875 -7.30808,1.85193 -7.48768,0.87703 -8.55358,-0.14331 -8.50308,-0.94926 0.39484,-2.61605 10.20321,1.08686 6.45826,-0.0247 6.41654,-0.70961 5.64367,-1.33215 5.47805,-1.90081 7.25139,-3.86238 7.33893,-6.09716 3.722,-4.37416 3.29559,-4.7044 4.76527,-9.42969 3.3985,-10.00652 -2.65796,-0.33193 -3.25471,9.49493 -4.54142,8.94883 -6.6869,8.62545 -6.86393,5.6848 -6.70456,3.57835 -10.55435,3.08723 -6.23506,0.69017 -6.27572,0.0181 -9.80248,-1.05378 0.39464,-2.61467 9.6296,1.03209 5.97736,-0.0243 5.93744,-0.66665 9.79415,-2.85828 6.47108,-3.45283 6.27221,-5.19768 6.43962,-8.30713 4.26501,-8.4061 3.0794,-8.91051 -5.2877,-0.66034 -5.28771,-0.66034 -5.2877,-0.66034 -1.83556,-3.53866 -1.83555,-3.53866 -1.83556,-3.53866 -2.11003,8.00773 -3.13367,7.65624 -3.17054,4.7736 -4.34317,3.66764 3.91821,0.49916 5.92946,-7.69202 2.81763,-6.48665 1.97632,-6.79324 1.80808,3.48569 -1.83313,5.63833 -2.43494,5.40426 -5.42671,7.4346 2.35754,1.3853 5.40314,-7.57152 3.67657,-8.93176 2.62629,0.45762 -3.9689,9.72252 -5.76889,8.09131 1.57252,2.19982 6.53033,-9.04275 2.4213,-5.20998 1.87797,-5.42819 2.66434,0.33272 -2.00778,5.89948 -2.62187,5.65436 -3.49786,5.55542 -4.35356,4.90606 0.0912,3.46299 4.67717,-4.61834 3.85143,-5.33041 3.76333,-7.38278 2.75864,-7.8145 2.66003,0.33219 -3.70928,10.20296 -5.03798,8.79255 -4.86807,5.6971 -5.8779,4.63751 -2.91779,2.93484 -3.66449,1.96018 -4.00372,0.77922 -4.07517,-0.14194 -5.69589,0.63225 -5.73371,0.0152 -9.22794,-1.00105 0.39455,-2.61415 7.432,0.84843 7.47697,0.0735 -3.05382,-2.59683 -5.74778,-0.23959 -5.71274,-0.70017 -3.51113,-3.29313 6.6139,1.08348 6.67947,0.50304 -0.75304,-2.64598 -8.12372,-0.86212 -8.04014,-1.47146 -3.58635,-3.35823 9.81023,1.86384 9.90866,1.18228 0.68792,-2.64538 -8.01215,-0.80636 -7.92665,-1.45495 -7.93841,-1.38908 -3.18066,-2.97836 9.52729,1.36614 9.46483,1.77291 9.57894,0.84466 3.13235,-2.73925 -9.2583,-0.26249 -8.41767,-1.44257 -8.40381,-1.52819 -8.49951,-0.70416 -2.60717,-2.44132 10.08133,0.29011 10.98058,1.98829 11.04247,1.54743 10.69402,-1.51112 3.98928,-2.69566 3.80205,-5.34175 3.46457,-8.91154 2.12761,-9.33177 -2.05609,-3.96382 -1.84623,9.80678 -3.17787,9.44972 -3.3937,5.55488 -3.9638,3.00406 -9.52378,1.2946 -8.69043,-1.12034 -8.61383,-1.63789 -8.68301,-1.18929 -8.71921,0.4394 -0.75796,-0.70975 5.03923,-0.83576 5.03923,-0.83576 5.03924,-0.83576 5.03923,-0.83576 5.03923,-0.83575 5.03923,-0.83576 5.03924,-0.83576 2.15117,-4.58821 2.15118,-4.58821 2.15117,-4.58821 2.15118,-4.58821 -1.35317,6.61531 -2.18515,6.38414 -1.16341,2.11465 -2.42159,0.0791 -1.22398,2.61062 5.20457,-0.38042 2.00535,-3.31035 1.92019,-5.42061 1.37931,-5.58669 1.42734,-10.76167 1.50524,-3.2105 1.5074,-3.10233 -0.57888,8.8302 -1.2646,8.75788 -1.84948,7.17208 -2.90102,6.79658 -1.74434,2.09721 -2.79062,0.74998 -11.05842,-0.92462 -3.75623,0.62297 -3.75623,0.62297 7.42094,1.43081 7.49401,0.94246 5.78967,-0.39064 2.93097,-1.50031 3.12664,-4.89856 2.64827,-7.64326 1.77492,-8.93594 0.93483,-9.0636 2.29743,4.42908 -1.37144,9.53346 -2.47467,9.30495 -2.96429,6.40984 -3.15872,3.62641 -4.12463,1.52684 -5.52504,0.24735 -7.73337,-0.96221 -7.65653,-1.47623 -7.70092,-1.20523 -4.16322,0.69047 -4.16323,0.69047 -4.16323,0.69048 2.08161,-0.34524 2.08162,-0.34524 -2.08162,0.34524 -2.08161,0.34524"
         transform="scale(0.264583)"
         inkstitch:manual_stitch="true" />
    </g>
    <g
       id="__color_block_1__"
       inkscape:label="color block 2">
      <path
         id="object1460"
         style="fill:none;stroke:#0954a3;stroke-width:0.4"
         d="m 135.5977,181.4677 -1.56094,-0.78109 -1.56095,-0.7811 1.56095,0.7811 1.56094,0.78109 -3.12189,-1.56219 h 2.82159 l -0.92138,-4.79306 -0.92138,-4.79307 -0.92138,-4.79307 -0.92139,-4.79306 -0.92138,-4.79307 -0.92138,-4.79307 -0.92138,-4.79306 3.58559,-3.63813 3.58559,-3.63814 3.58558,-3.63813 3.58559,-3.63813 3.58559,-3.63814 3.58559,-3.63813 3.58559,-3.63813 -5.06871,-0.63302 -5.0687,-0.63301 -5.0687,-0.63302 -5.06871,-0.63301 -5.0687,-0.63302 -5.0687,-0.63301 -5.0687,-0.63302 -2.35207,-4.53434 -2.35206,-4.53434 -2.35206,-4.53434 -2.35206,-4.534344 -2.35207,-4.534342 -2.35206,-4.534342 -2.35206,-4.534342 -1.21496,2.591467 h 2.55921 l 1.37237,2.645669 h -5.171952 l -1.240372,2.645669 h 0.906812 6.877872 l 1.37237,2.645669 h -5.4156 -4.981826 l -1.240372,2.64567 h 9.056848 3.95332 l 1.37236,2.645666 H 107.71654 96.377953 94.58467 l -1.240372,2.64567 h 5.8683 11.338582 1.02876 l 1.37237,2.64567 h -10.90507 -9.943314 l -1.240372,2.64567 h 2.679753 11.338583 9.44278 l 1.37237,2.64567 h -7.9805 -11.338587 -6.754771 l -1.240372,2.64567 h 10.829788 11.338582 6.51822 l 1.37237,2.64567 h -5.05594 -11.33859 -11.338579 -3.566223 l -3.772758,1.25398 -4.195628,0.69585 -4.195629,0.69584 h 7.226301 11.338583 11.338583 11.33858 11.33859 11.33858 0.37993 l 4.88976,0.61067 4.88976,0.61066 4.88976,0.61067 -0.80192,0.81367 H 141.73228 130.3937 119.05512 107.71654 96.377953 85.03937 73.700787 62.362205 59.026185 l -3.738916,0.62009 -3.738917,0.6201 1.500944,1.40548 h 0.808972 11.338582 11.338583 11.338583 11.338582 11.338582 11.33858 11.33859 11.33858 5.97054 l -2.60746,2.64567 H 147.40157 136.06299 124.72441 113.38583 102.04724 90.708661 79.370079 68.031496 56.692913 55.874677 l 2.82538,2.64567 h 0.827502 11.338583 11.338582 11.338583 11.338583 11.33858 11.33859 11.33858 6.42491 l -2.60745,2.64566 H 141.73228 130.3937 119.05512 107.71654 96.377953 85.03937 73.700787 62.362205 61.525438 l 2.82538,2.64567 h 0.846032 11.338583 11.338583 11.338582 11.338582 11.33858 11.33859 6.87929 l -2.60746,2.64567 H 136.06299 124.72441 113.38583 102.04724 90.708661 79.370079 68.031496 67.176199 l 2.82538,2.64567 h 0.864563 11.338582 11.338583 11.338583 11.33858 11.33859 7.33366 l -2.60746,2.64567 H 130.3937 119.05512 107.71654 96.377953 85.03937 73.700787 72.82696 l 2.82538,2.64567 h 0.883093 11.338583 11.338582 11.338582 11.33858 7.78804 l -0.48339,2.64567 h -4.47 -11.33858 -11.33859 -11.338579 -11.338582 -1.8388 l -0.399328,2.64567 h 5.072773 11.338583 11.338583 11.33858 11.33859 2.14393 l 0.50858,2.64567 H 119.05512 107.71654 96.377953 85.03937 76.732623 l -0.399329,2.64567 h 11.540722 11.338582 11.338582 11.33858 8.8304 l 0.50858,2.64567 H 124.72441 113.38583 102.04724 90.708661 79.370079 75.933966 l -0.399329,2.64567 h 6.670087 11.338583 11.338583 11.33858 11.33859 4.17826 l 0.50858,2.64567 H 130.3937 119.05512 107.71654 96.377953 85.03937 75.135309 l -0.698825,4.62992 -0.698824,4.62992 -0.698825,4.62992 -0.698825,4.62992 5.105218,-2.64567 h -4.705889 l 0.399328,-2.64567 h 3.396766 5.706105 l 4.796309,-2.64567 H 85.03937 73.700787 l 0.236537,-2.64567 h 8.2674 9.629433 l 4.796309,-2.64567 H 90.708661 79.370079 74.336652 l 0.399329,-2.64566 h 1.799452 11.338583 11.338582 2.214182 l 2.19438,-1.21044 2.41894,1.21044 h 4.51108 11.33858 10.86473 l 0.50858,2.64566 h -8.53866 -11.33858 -2.05858 l 2.64357,1.32284 2.64357,1.32283 h 10.94467 6.21259 l 0.50859,2.64567 h -3.88654 -8.49217 l 2.64357,1.32284 2.64357,1.32283 h 6.03968 1.56047 l 0.80888,4.20786 -0.40444,-2.10393 -0.40444,-2.10393 0.40444,2.10393 0.40444,2.10393"
         transform="scale(0.264583)"
         inkstitch:manual_stitch="true" />
      <g
         id="command_group9"
         inkscape:label="Commande Ink/Stitch: Trim thread after sewing this object"
         transform="scale(0.264583)"
         style="display:none">
        <path
           id="command_connector9"
           d="m 99.82467,54.836651 1.18629,31.991738"
           style="fill:none;stroke:#000000;stroke-width:1px;stroke-opacity:0.5"
           inkscape:connection-start="#command_use4314"
           inkscape:connection-end="#object1460"
           inkscape:label="connecteur"
           inkscape:connector-type="polyline"
           inkscape:connector-curvature="0" />
        <use
           id="command_use4314"
           xlink:href="#inkstitch_trim"
           height="100%"
           width="100%"
           x="99.82209"
           y="54.800804"
           inkscape:label="marqueur de commande" />
      </g>
      <path
         id="object6104"
         style="fill:none;stroke:#0954a3;stroke-width:0.4"
         d="m 207.32464,182.73705 1.36861,-0.75493 1.36861,-0.75493 -1.36861,0.75493 -1.36861,0.75493 2.73722,-1.50986 -2.47467,-0.22958 0.84566,-5.60277 0.84567,-5.60277 0.84566,-5.60277 0.84566,-5.60277 0.84567,-5.60277 0.84566,-5.60277 -3.72859,-3.49143 -3.72859,-3.49143 -3.72859,-3.49143 -3.72859,-3.49143 -3.72859,-3.49143 -3.72859,-3.49143 -3.72859,-3.49143 5.03924,-0.83575 5.03925,-0.83576 5.03924,-0.83575 5.03924,-0.83576 5.03924,-0.83576 5.03925,-0.83575 5.03924,-0.83576 2.11962,-4.52107 2.11962,-4.52108 -0.53259,7.50751 -3.00778,0.044 -0.69887,1.49066 -5.44263,0.90266 5.73447,0.24734 5.73633,-0.16488 0.77354,-7.84694 0.11265,-7.88627 1.24528,-2.65614 1.24528,-2.656136 0.16432,7.854056 -0.27872,7.84965 -0.99971,7.7878 -7.8965,0.36606 -7.90141,-0.35983 -7.85889,-0.88893 -4.3376,0.71939 -4.3376,0.71939 11.19478,1.5831 11.27172,0.84748 6.05194,-0.0311 6.02063,-0.58496 1.08666,-6.35459 0.52732,-6.4278 0.0893,-9.02317 -0.47346,-9.011066 2.30936,-4.925783 0.53483,7.687181 0.28019,7.698728 -0.0975,7.70385 -0.6572,7.54387 -1.50775,7.41343 -10.36813,0.9786 -10.42043,-0.38666 -8.18953,-0.95073 -8.16401,-1.16082 -8.16401,-1.16081 -2.55831,0.42429 2.37246,2.22156 10.35473,1.47231 10.36217,1.41107 10.42936,0.75202 8.24547,-0.14686 8.13614,-1.2596 1.96729,-8.40785 0.80456,-8.61407 0.10131,-7.56253 -0.2462,-7.558721 -0.52502,-7.546245 1.53144,2.952327 1.53144,2.952327 0.35816,10.343332 -0.35426,10.34282 -1.00863,7.74354 -2.19144,7.47394 -8.3953,1.67925 -10.0456,0.25306 -9.27176,-0.62998 -9.21671,-1.19097 -9.20243,-1.30847 3.36471,3.1507 9.18368,1.3058 9.2197,0.99258 9.26671,0.36917 10.10118,-0.68093 6.89234,-1.88851 2.34889,-6.42228 1.1936,-6.75705 0.70912,-9.53033 -0.002,-9.557955 1.35059,2.603705 1.3506,2.6037 -0.29724,9.05162 -1.05997,8.99337 -1.35691,5.68798 -2.36642,5.32237 -5.41115,1.96576 -9.79892,1.17081 -9.35609,-0.083 -9.33035,-0.72374 -9.27302,-1.2724 3.36471,3.1507 8.20237,1.01227 8.24641,0.55039 8.26364,0.009 10.26537,-1.2319 6.43917,-2.41298 3.9444,-8.9866 1.45988,-8.56928 0.6384,-8.67208 2.39649,4.62 -0.97518,8.44597 -1.94122,8.27227 -4.13339,7.15224 -7.24443,2.73303 -6.94686,1.04302 -8.42693,0.32839 -8.42752,-0.34302 -8.39588,-0.80043 3.22164,3.01672 11.12697,0.74084 11.14489,-0.30713 10.45021,-1.94584 4.91693,-2.22489 5.22334,-8.54427 1.84047,-7.44208 1.00864,-7.60207 2.62589,0.32794 -1.05521,7.86509 -1.91082,7.69978 -2.95073,6.39161 -3.36256,3.54469 -6.1047,2.66162 -6.51763,1.4387 -7.73456,0.71698 -7.76851,0.0633 -7.75901,-0.41248 0.1793,2.65977 7.83196,0.40183 7.84063,-0.0824 7.80624,-0.72975 7.05091,-1.56617 6.59439,-2.91071 4.19396,-4.38548 3.20928,-6.94284 1.98117,-7.95748 1.10179,-8.12811 2.6259,0.32794 -0.7796,6.17974 -1.18496,6.11467 -2.79166,8.2853 -3.01115,5.07554 -3.92571,3.67141 -6.72349,3.06288 -7.94479,1.79055 -8.06976,0.75519 -8.10539,0.0839 -8.09633,-0.41835 -0.39661,2.62767 8.38896,0.43294 8.39828,-0.0872 8.36046,-0.79232 8.40787,-1.92035 7.34988,-3.40475 4.36379,-4.07795 3.46743,-5.83426 2.91788,-8.7087 1.20531,-6.2211 0.79329,-6.28714 2.62367,0.32766 -0.80951,6.39294 -1.22261,6.32679 -3.10915,9.28533 -3.85915,6.44211 -4.80187,4.48447 -7.97627,3.74662 -8.86587,2.04922 -8.6528,0.8281 -8.6926,0.0928 -8.6827,-0.45355 -0.39494,2.61663 6.42836,0.37549 6.4367,0.15534 7.03837,-0.2751 7.00429,-0.7388 9.32388,-2.1781 8.60266,-4.08848 5.23666,-4.88719 4.24248,-7.02902 3.31211,-9.88672 1.24261,-6.43206 0.82294,-6.49916 4.59286,0.57359 4.59285,0.57359 4.59285,0.57359 4.59286,0.57358 -2.99712,3.21118 0.37129,-3.53911 -2.62584,-0.32793 -0.9046,7.07248 -3.29612,3.34443 1.57489,-10.74484 -2.62339,-0.32763 -0.9519,7.3679 -1.51437,7.27084 -3.84287,3.89918 2.34282,-9.33452 1.34285,-9.53104 -2.62349,-0.32764 -0.83876,6.60391 -1.25976,6.53665 -1.5749,5.51777 -2.11668,5.33208 -3.41187,3.46187 0.36419,1.89454 -7.07351,7.18983 -10.12952,4.72556 -7.0386,1.66523 -7.16646,0.9901 -11.2338,0.38839 -11.22991,-0.53312 -0.39495,2.61666 9.12823,0.52922 9.14306,-0.05 7.37615,-0.62069 7.30777,-1.17222 7.73804,-2.3239 7.25658,-3.54103 6.99516,-6.33574 0.9589,4.98821 0.95889,4.98821 0.95889,4.9882 0.9589,4.98821 0.95889,4.98821 0.69599,4.6412 -0.34983,-2.84045 -2.48829,1.42027 -2.8432,-1.42273 4.80552,-2.73369 -0.53934,-2.80568 -7.21347,4.06455 -3.04118,-1.5218 9.70761,-5.38843 -0.55331,-2.87837 -5.95614,3.72889 -6.37848,2.94649 -3.20109,-1.60182 7.82334,-3.38987 7.14448,-4.63787 -0.56957,-2.96292 -8.89418,5.8675 -8.95699,3.39533 -3.5684,-1.78561 5.73105,-1.64505 5.51023,-2.27781 5.07413,-2.91096 4.51383,-3.71434 -0.61271,-3.18735 -4.75212,4.25606 -5.50244,3.24079 -6.72558,2.64716 -7.02831,1.69403 -2.89502,-1.44866 -4.58904,2.53134 -8.1558,0.47237 -8.17001,-0.0617 -8.15609,-0.50086 -0.39496,2.61668 9.66368,0.58003 9.68062,-0.0548 -2.5059,1.38227 -2.5059,1.38226 -7.37024,-0.19458 -7.35754,-0.47638 -0.39527,2.61879 10.4492,0.63029 -4.40471,2.42966 -6.43975,-0.44121 -0.6575,4.35609 0.32875,-2.17805 0.32875,-2.17804 -0.32875,2.17804 -0.32875,2.17805"
         transform="scale(0.264583)"
         inkstitch:manual_stitch="true" />
      <g
         id="command_group10"
         inkscape:label="Commande Ink/Stitch: Trim thread after sewing this object"
         transform="scale(0.264583)"
         style="display:none">
        <path
           id="command_connector10"
           d="m 220.02857,61.753941 9.4508,39.033179"
           style="fill:none;stroke:#000000;stroke-width:1px;stroke-opacity:0.5"
           inkscape:connection-start="#command_use7842"
           inkscape:connection-end="#object6104"
           inkscape:label="connecteur"
           inkscape:connector-type="polyline"
           inkscape:connector-curvature="0" />
        <use
           id="command_use7842"
           xlink:href="#inkstitch_trim"
           height="100%"
           width="100%"
           x="220.02599"
           y="61.718094"
           inkscape:label="marqueur de commande" />
      </g>
      <path
         id="object6165"
         style="fill:none;stroke:#0954a3;stroke-width:0.4"
         d="m 321.57353,122.94098 2.51962,-0.41788 2.51962,-0.41787 -2.51962,0.41787 -2.51962,0.41788 5.03924,-0.83575 5.03924,-0.83576 5.03924,-0.83575 5.03925,-0.83576 5.03924,-0.83576 5.03924,-0.83575 5.03924,-0.83576 2.16835,-4.62501 2.16835,-4.62501 2.16835,-4.62501 2.16835,-4.625008 2.16835,-4.625011 2.16835,-4.62501 2.16834,-4.625011 0.47517,0.916027 -0.81338,-0.194625 -1.15151,2.456131 3.60148,0.893544 1.63581,3.153547 -6.38891,-1.590738 -1.15172,2.456578 9.17566,2.28618 1.63421,3.150467 -5.9698,-1.536721 -5.99189,-1.443119 -1.15194,2.457037 7.39175,1.780481 7.36206,1.904281 1.7142,3.30467 -8.77484,-2.40136 -8.84521,-2.1308 -1.15216,2.45751 10.29829,2.48015 10.18729,2.89755 1.71252,3.30143 -7.69602,-2.39219 -7.8069,-2.00082 -7.84745,-1.82838 -1.15238,2.45799 8.81714,2.05347 8.74979,2.32414 8.64749,2.68557 0.95569,1.84239 5.0687,0.63302 5.06871,0.63301 5.0687,0.63302 5.0687,0.63301 5.0687,0.63302 5.06871,0.63301 5.0687,0.63302 -1.50803,1.53012 -3.54791,-2.16154 -3.30163,-0.41233 -3.30164,-0.41233 8.26635,4.89866 -1.8894,1.91709 -7.02503,-4.13394 -7.27361,-3.67113 -4.7807,-0.59705 -4.7807,-0.59705 7.54147,3.18477 7.35126,3.60082 7.05735,4.15153 -1.91008,1.93807 -7.01774,-4.08267 -7.30957,-3.53212 -7.49258,-3.12661 -8.08383,-2.79775 -8.17198,-2.53564 -8.28628,-2.13136 -8.33925,-1.90798 -1.15294,2.45918 8.38209,1.89409 8.32677,2.12999 8.21109,2.53892 8.12267,2.80334 7.17194,2.98304 6.99906,3.36725 6.73022,3.87664 -1.91047,1.93847 -9.77399,-5.35602 -7.69616,-3.34192 -7.85551,-2.94889 -9.18569,-2.84798 -9.29687,-2.45466 -9.37809,-2.12308 -1.87155,2.3058 9.70894,2.15232 9.62305,2.50953 9.49968,2.94576 8.3519,3.15042 8.14873,3.6397 7.8148,4.30778 -1.91095,1.93895 -7.49633,-4.08996 -7.81285,-3.45078 -7.99504,-3.00813 -8.76004,-2.71387 -8.86354,-2.34766 -8.94006,-2.03676 -9.00488,-1.73077 -4.06992,0.67499 -4.06993,0.675 10.97839,1.84851 10.90347,2.24859 10.79266,2.7334 10.32179,3.20435 10.09186,3.86342 6.10489,2.842 5.90829,3.22692 -1.91149,1.9395 -7.95157,-4.13334 -8.25913,-3.48852 -7.44076,-2.56347 -7.51972,-2.32777 -9.57972,-2.45123 -9.66583,-2.08411 -10.79137,-1.88002 -10.84948,-1.50753 -4.87576,0.80865 -4.87577,0.80864 11.19417,1.23015 11.14686,1.60083 9.23889,1.68457 9.17764,1.9905 9.09871,2.32711 7.41548,2.29329 7.33811,2.52444 7.77695,3.27121 7.5105,3.83642 -2.61978,2.65817 0.96429,5.01623 0.96428,5.01624 0.96428,5.01624 0.96428,5.01623 0.96428,5.01624 0.96429,5.01623 0.96428,5.01624 -4.56808,-2.28585 -4.56808,-2.28586 -4.56808,-2.28585 -4.56807,-2.28585 -4.56808,-2.28585 -4.56808,-2.28586 -4.56808,-2.28585 -4.32516,2.38579 -4.32517,2.38578 -4.32517,2.38579 -4.32516,2.38578 -4.32517,2.38578 -4.32517,2.38579 -4.32516,2.38578 -0.91758,-0.19511 0.39556,-2.62071 4.06121,0.86358 3.51713,-1.94006 -7.18278,-1.54423 0.39556,-2.62071 10.17481,2.29633 3.38758,-1.86861 -6.55578,-1.64264 -6.61105,-1.40579 0.39556,-2.62071 8.09106,1.74947 8.01143,2.08215 3.22121,-1.77684 -9.40574,-2.57069 -9.5224,-2.1048 0.39556,-2.62071 10.95374,2.46013 10.80005,3.05924 3.21401,-1.77287 -8.0906,-2.49592 -8.20219,-2.09959 -8.27981,-1.76927 0.39501,-2.61705 9.20199,1.99136 9.10074,2.40829 8.96291,2.8788 3.27804,1.25216 6.1252,2.70556 5.83529,3.27944 4.34714,2.17529 4.34714,2.17529 -7.84436,-6.97087 -9.88123,-5.04211 -8.02522,-3.02295 -8.19823,-2.52285 -8.38768,-2.13238 -8.46672,-1.79207 0.395,-2.61704 8.62822,1.82087 8.54663,2.17267 10.27908,3.24858 9.97504,4.07903 6.02635,3.2649 5.55682,4.00335 5.144,7.38621 2.84633,1.4243 -1.41575,-5.00226 -2.77327,-3.80853 -5.04003,-4.32029 -5.63814,-3.51775 -7.62514,-3.63185 -7.90048,-2.9904 -8.62988,-2.65569 -8.74966,-2.2291 -8.83511,-1.86108 0.39501,-2.61705 8.95042,1.88182 8.8653,2.24993 8.6836,2.67222 8.49737,3.21056 7.2473,3.45915 6.8155,4.24049 7.38213,7.56122 -0.53614,-2.78902 -0.53614,-2.78902 -7.95026,-6.2923 -7.62251,-4.13247 -7.98608,-3.38285 -6.60652,-2.25249 -6.67281,-2.05343 -10.57866,-2.61901 -10.68511,-2.14295 -3.54611,-3.32056 8.28755,1.49481 8.23733,1.75161 7.58692,1.9288 7.50154,2.23283 7.41415,2.50622 6.28675,2.61369 6.11709,2.98802 9.3742,6.29716 -0.76982,-4.00459 -5.55987,-3.57819 -5.83705,-3.10797 -6.52888,-2.8242 -6.66766,-2.47997 -9.09501,-2.79882 -9.22105,-2.34994 -10.23354,-2.12433 -10.30551,-1.74091 -3.38374,-3.16851 8.23484,1.24384 8.19343,1.49287 8.14639,1.73293 9.34245,2.38393 9.21467,2.83851 6.76419,2.51791 6.62474,2.86388 9.60499,5.4231 -0.68911,-3.58475 -5.93837,-3.29141 -6.15173,-2.87575 -9.27202,-3.52553 -9.48009,-2.92568 -9.36249,-2.38695 -9.45309,-1.99701 -9.51851,-1.65573 -9.56658,-1.35015 -3.22894,-3.02357 7.81607,0.95133 7.78389,1.18707 7.75047,1.39045 9.32154,1.9981 9.23721,2.35826 7.20755,2.22464 7.13339,2.44669 7.6667,3.22439 7.39243,3.80414 0.29012,-2.89014 -7.06945,-3.53782 -7.29338,-3.05547 -7.23566,-2.4855 -7.31142,-2.25892 -9.35089,-2.39053 -9.43649,-2.02536 -8.99405,-1.59829 -9.04003,-1.31152 -9.07581,-1.03528 -3.19986,-2.99634 1.59993,1.49817 1.59993,1.49817 -1.59993,-1.49817 -1.59993,-1.49817"
         transform="scale(0.264583)"
         inkstitch:manual_stitch="true" />
      <g
         id="command_group12"
         inkscape:label="Commande Ink/Stitch: Trim thread after sewing this object"
         transform="scale(0.264583)"
         style="display:none">
        <path
           id="command_connector12"
           d="m 365.67107,55.46864 3.32427,35.712673"
           style="fill:none;stroke:#000000;stroke-width:1px;stroke-opacity:0.5"
           inkscape:connection-start="#command_use3037"
           inkscape:connection-end="#object6165"
           inkscape:label="connecteur"
           inkscape:connector-type="polyline"
           inkscape:connector-curvature="0" />
        <use
           id="command_use3037"
           xlink:href="#inkstitch_trim"
           height="100%"
           width="100%"
           x="365.66849"
           y="55.432793"
           inkscape:label="marqueur de commande" />
      </g>
    </g>
  </g>
</svg>
