<?xml version="1.0" encoding="UTF-8" standalone="no"?>
<svg
   width="140mm"
   height="140mm"
   viewBox="0 0 140 140"
   version="1.1"
   id="svg8"
   sodipodi:docname="ripple-iris.svg"
   inkscape:version="1.4 (e7c3feb100, 2024-10-09)"
   xml:space="preserve"
   xmlns:inkscape="http://www.inkscape.org/namespaces/inkscape"
   xmlns:sodipodi="http://sodipodi.sourceforge.net/DTD/sodipodi-0.dtd"
   xmlns="http://www.w3.org/2000/svg"
   xmlns:svg="http://www.w3.org/2000/svg"
   xmlns:rdf="http://www.w3.org/1999/02/22-rdf-syntax-ns#"
   xmlns:cc="http://creativecommons.org/ns#"
   xmlns:dc="http://purl.org/dc/elements/1.1/"
   xmlns:inkstitch="http://inkstitch.org/namespace"><sodipodi:namedview
     id="base"
     pagecolor="#ffffff"
     bordercolor="#666666"
     borderopacity="1.0"
     inkscape:pageopacity="0.0"
     inkscape:pageshadow="2"
     inkscape:zoom="0.78144495"
     inkscape:cx="342.95442"
     inkscape:cy="320.56001"
     inkscape:document-units="mm"
     inkscape:current-layer="svg8"
     inkscape:document-rotation="0"
     showgrid="true"
     inkscape:window-width="1920"
     inkscape:window-height="1131"
     inkscape:window-x="0"
     inkscape:window-y="32"
     inkscape:window-maximized="1"
     guidetolerance="10000"
     inkscape:pagecheckerboard="false"
     inkscape:showpageshadow="0"
     inkscape:deskcolor="#d1d1d1"><inkscape:grid
       type="xygrid"
       id="grid75"
       units="cm"
       spacingx="1"
       spacingy="1"
       originx="0"
       originy="0" /></sodipodi:namedview><defs
     id="defs2"><symbol
   id="inkstitch_ignore_layer"
   transform="scale(0.25, 0.25)"
   style="opacity:0.7">
      <title
   id="title9694">Ignore entire layer when generating stitch plan</title>
      <path
   inkscape:connector-curvature="0"
   style="opacity:1;vector-effect:none;fill:#fafafa;fill-opacity:1;fill-rule:evenodd;stroke:#ff0000;stroke-width:1.06501234;stroke-linecap:round;stroke-linejoin:miter;stroke-miterlimit:4;stroke-dasharray:3.19503705, 3.19503705;stroke-dashoffset:0;stroke-opacity:1"
   d="M 9.2465269,-4.9265995e-6 C 9.246525,5.1067241 5.1067028,9.2465451 -2.615882e-5,9.2465451 -5.1067554,9.2465451 -9.2465782,5.1067241 -9.2465801,-4.9265995e-6 -9.24658,-2.4523429 -8.2723922,-4.8042399 -6.538327,-6.5383059 c 1.7340653,-1.734065 4.0859624,-2.708252 6.53830084118,-2.708252 5.10673015882,0 9.24655285882,4.139823 9.24655305882,9.2465529734005 0,0 0,0 0,0"
   id="inkstitch_path25368-7" />
      <path
   sodipodi:nodetypes="ccccc"
   inkscape:connector-curvature="0"
   style="color:#000000;fill:#d5d5d5;fill-opacity:1;fill-rule:evenodd;stroke:#5a5a5a;stroke-width:0.63330007;stroke-linecap:square;stroke-linejoin:round;stroke-miterlimit:0;stroke-opacity:1"
   d="M 4,4.452769 1.46667,1.286102 H -5.5 l 2.53333,3.166667 z"
   id="use5800" />
      <path
   sodipodi:nodetypes="ccccc"
   inkscape:connector-curvature="0"
   style="color:#000000;opacity:0.5;fill:#d5d5d5;fill-opacity:1;fill-rule:evenodd;stroke:#858585;stroke-width:0.63339424;stroke-linecap:square;stroke-linejoin:round;stroke-miterlimit:0;stroke-opacity:1"
   d="M 4,2.552769 1.46667,-0.613898 H -5.5 l 2.53333,3.166667 z"
   id="use5864" />
      <g
   id="g5771">
        <path
   sodipodi:nodetypes="ccccccccc"
   inkscape:connector-curvature="0"
   style="fill:#aa0000;fill-rule:evenodd;stroke:#aa0000;stroke-width:1px"
   d="m -1.0666699,-5.0472339 h 4.4333333 l 0.6333333,0.6333333 V 0.01943274 L 3.3666634,0.65276607 H -1.0666699 L -1.7000032,0.01943274 V -4.4139006 Z"
   id="path8011" />
        <path
   inkscape:connector-curvature="0"
   id="path8023"
   d="m -0.43333658,-3.8755672 c 0,0 3.16666668,3.16666661 3.16666668,3.16666661"
   style="fill:none;stroke:#ffffff;stroke-width:1.70000005" />
        <path
   inkscape:connector-curvature="0"
   id="path8025"
   d="m 2.7333301,-3.8755672 c 0,0 -3.16666668,3.16666661 -3.16666668,3.16666661"
   style="fill:none;stroke:#ffffff;stroke-width:1.79999995;stroke-linejoin:round" />
      </g>
    </symbol>
    </defs><metadata
     id="metadata5"><rdf:RDF><cc:Work
         rdf:about=""><dc:format>image/svg+xml</dc:format><dc:type
           rdf:resource="http://purl.org/dc/dcmitype/StillImage" /></cc:Work></rdf:RDF><inkstitch:collapse_len_mm>3.0</inkstitch:collapse_len_mm><inkstitch:min_stitch_len_mm>0.3</inkstitch:min_stitch_len_mm><inkstitch:inkstitch_svg_version>3</inkstitch:inkstitch_svg_version></metadata><g
     inkscape:label="Calque 1"
     inkscape:groupmode="layer"
     id="layer1"><g
       id="g25222"
       inkscape:label="fonds petales"
       style="display:inline"><path
         style="font-variation-settings:normal;opacity:1;vector-effect:none;fill:none;fill-opacity:1;stroke:#ff6616;stroke-width:0.750001;stroke-linecap:butt;stroke-linejoin:miter;stroke-miterlimit:4;stroke-dasharray:1.5, 0.750001;stroke-dashoffset:0;stroke-opacity:1;-inkscape-stroke:none;stop-color:#000000;stop-opacity:1"
         d="M 77.323153,12.393077 72.579401,21.643392 C 69.066168,25.445591 68.751211,32.236903 70.919087,39.195273 76.2562,61.340656 81.450849,80.639284 83.083437,90.436252 M 77.323153,12.393077 C 79.529172,17.045298 83.156715,16.722177 86.573467,17.136828 86.264194,19.529244 87.362937,20.748314 90.842845,19.983079 95.359008,21.55951 94.229505,25.958813 95.349408,29.233394 101.48275,25.170638 102.9314,42.24209 86.573466,72.401535"
         id="path919"
         sodipodi:nodetypes="ccccccccc"
         inkstitch:stroke_method="ripple_stitch"
         inkstitch:line_count="20"
         inkstitch:exponent="1.2"
         inkstitch:running_stitch_length_mm="2"
         inkstitch:flip_exponent="True"
         inkstitch:reverse_rails="none" /><path
         d="M 77.3231,12.3931 C 77.3231,12.3931 78.637049,16.957059 86.022637,17.313233 87.314438,17.870915 84.912184,20.668041 83.162419,22.64396 82.874988,22.968541 84.965185,25.412049 84.738306,25.667897"
         style="fill:none;stroke:#ff6616;stroke-width:0.264583;stroke-dasharray:3, 1"
         inkstitch:running_stitch_length_mm="2.5"
         inkstitch:running_stitch_tolerance_mm="2.0"
         id="path1"
         sodipodi:nodetypes="ccsc" /><path
         id="path24474"
         style="font-variation-settings:normal;opacity:1;vector-effect:none;fill:none;fill-opacity:1;stroke:#ff6616;stroke-width:0.750001;stroke-linecap:butt;stroke-linejoin:miter;stroke-miterlimit:4;stroke-dasharray:1.5, 0.750001;stroke-dashoffset:0;stroke-opacity:1;-inkscape-stroke:none;stop-color:#000000;stop-opacity:1"
         d="M 84.449535,25.60494 C 85.853608,28.413086 99.448147,36.28185 100.76905,41.132246 102.76107,48.447005 100.03103,56.505719 97.441773,63.630997 93.992357,73.12331 87.459932,77.257002 87.459932,77.257002 M 83.182001,22.436102 C 83.182001,22.436102 78.31356,33.571515 73.675485,36.220548 67.740283,39.610435 67.323784,39.151077 67.020926,42.558223 66.344823,50.164374 73.921904,56.239136 76.368999,63.472557 79.238553,71.954733 82.548234,89.615469 82.548234,89.615469"
         sodipodi:nodetypes="cssccsssc"
         inkstitch:stroke_method="ripple_stitch"
         inkstitch:line_count="25"
         inkstitch:exponent=".8"
         inkstitch:running_stitch_length_mm="2"
         inkstitch:reverse_rails="none" /><path
         id="path1037"
         style="font-variation-settings:normal;opacity:1;vector-effect:none;fill:none;fill-opacity:1;stroke:#ff6616;stroke-width:0.750001;stroke-linecap:butt;stroke-linejoin:miter;stroke-miterlimit:4;stroke-dasharray:1.5, 0.750001;stroke-dashoffset:0;stroke-opacity:1;-inkscape-stroke:none;stop-color:#000000;stop-opacity:1"
         d="M 92.503157,69.792473 C 92.503157,69.792473 98.535292,69.705093 99.144409,66.946221 102.20712,53.07432 108.37444,52.425727 113.37566,49.157151 125.98734,40.914709 120.9978,32.389679 122.1516,25.201205 126.97179,19.353062 127.36421,13.95412 128.08129,11.444326 M 83.727218,87.818729 C 83.727218,87.818729 83.48563,73.137207 86.099093,66.471844 88.86621,59.414602 92.387428,57.433689 102.93941,49.157151 103.96563,35.359802 114.09897,34.971615 115.51036,30.656521 103.48634,24.627006 115.21869,24.237316 127.36973,10.021201"
         inkstitch:stroke_method="ripple_stitch"
         sodipodi:nodetypes="csscccsccc"
         inkstitch:exponent="1.5"
         inkstitch:running_stitch_length_mm="2"
         inkstitch:reverse_rails="none"
         inkstitch:reverse="True" /><path
         d="M 92.5031,69.7924 90.312664,74.747334 87.309781,77.895047 83.330835,86.988684 82.886685,89.985127 78.495395,80.146142 C 74.683585,72.982776 70.68467,68.625972 66.6496,64.8115"
         style="fill:none;stroke:#ff6616;stroke-width:0.264583;stroke-dasharray:3, 1"
         inkstitch:running_stitch_length_mm="2.5"
         inkstitch:running_stitch_tolerance_mm="2.0"
         id="path12"
         sodipodi:nodetypes="ccccccc" /><path
         id="path1131"
         style="font-variation-settings:normal;opacity:1;vector-effect:none;fill:none;fill-opacity:1;stroke:#ff6616;stroke-width:0.750001;stroke-linecap:butt;stroke-linejoin:miter;stroke-miterlimit:4;stroke-dasharray:1.5, 0.750001;stroke-dashoffset:0;stroke-opacity:1;-inkscape-stroke:none;stop-color:#000000;stop-opacity:1"
         d="M 66.649711,64.811532 C 67.233257,65.103305 61.737037,58.778153 53.841581,59.830594 45.829951,60.309272 46.901291,75.15796 40.321888,79.754351 35.634939,85.619558 30.934911,83.709598 29.418669,82.456805 M 79.45784,80.940287 C 80.793457,79.771622 66.581929,52.842737 49.809391,52.952152 44.123789,51.683306 38.997723,57.778966 33.206261,58.407469 24.992538,59.298841 19.337747,64.166824 23.481571,70.266848 19.538145,75.78182 20.644601,81.417329 28.225324,81.889038"
         inkstitch:stroke_method="ripple_stitch"
         inkstitch:exponent="2"
         inkstitch:line_count="15"
         sodipodi:nodetypes="ccccccscc"
         inkstitch:running_stitch_length_mm="2"
         inkstitch:reverse_rails="none" /><path
         d="M 28.2253,81.8889 C 32.673249,84.8085 33.998123,84.215692 38.415146,81.893055 41.007937,84.966297 44.063811,87.576455 48.0078,89.2985"
         style="fill:none;stroke:#ff6616;stroke-width:0.264583;stroke-dasharray:3, 1"
         inkstitch:running_stitch_length_mm="2.5"
         inkstitch:running_stitch_tolerance_mm="2.0"
         id="path4"
         sodipodi:nodetypes="ccc" /><path
         id="path1318"
         style="font-variation-settings:normal;opacity:1;vector-effect:none;fill:none;fill-opacity:1;stroke:#ff6616;stroke-width:0.750001;stroke-linecap:butt;stroke-linejoin:miter;stroke-miterlimit:4;stroke-dasharray:1.5, 0.750001;stroke-dashoffset:0;stroke-opacity:1;-inkscape-stroke:none;stop-color:#000000;stop-opacity:1"
         d="M 48.007897,89.298586 C 48.007897,89.298586 58.564791,93.050373 61.158576,88.823262 66.755037,79.702668 60.098153,73.010979 60.049483,73.13751 56.610327,60.060658 63.797756,68.776006 66.545599,68.701139 M 45.472827,88.03105 C 45.472827,88.03105 35.990765,82.150986 37.392291,78.049212 39.782585,71.053664 43.855224,68.115685 46.423479,63.472557 49.525405,57.864609 59.439879,59.631303 64.961182,64.264764 71.63234,66.133556 80.7232,84.187657 80.64693,85.179097"
         sodipodi:nodetypes="cscccsscc"
         inkstitch:stroke_method="ripple_stitch"
         inkstitch:exponent="2"
         inkstitch:line_count="15"
         inkstitch:running_stitch_length_mm="2"
         inkstitch:reverse_rails="none" /><path
         d="M 80.6342,85.1507 C 80.669599,87.868876 82.096969,97.311257 84.020612,95.229724 88.469341,90.415849 83.487625,79.877348 95.607625,77.923568 L 97.072945,80.027566 98.744639,85.009886 C 98.744639,85.009886 98.369597,85.131659 98.3923,85.3374"
         style="fill:none;stroke:#ff6616;stroke-width:0.264583;stroke-dasharray:3, 1"
         inkstitch:running_stitch_length_mm="2.5"
         inkstitch:running_stitch_tolerance_mm="2.0"
         id="path13"
         sodipodi:nodetypes="cscccc" /><path
         id="path24964"
         style="font-variation-settings:normal;opacity:1;vector-effect:none;fill:none;fill-opacity:1;stroke:#ff6616;stroke-width:0.750001;stroke-linecap:butt;stroke-linejoin:miter;stroke-miterlimit:4;stroke-dasharray:1.5, 0.750001;stroke-dashoffset:0;stroke-opacity:1;-inkscape-stroke:none;stop-color:#000000;stop-opacity:1"
         d="M 105.68075,86.921958 C 104.95215,85.464764 93.957297,92.305051 109.32491,114.33241 111.25258,117.09546 114.48447,114.87362 115.97948,115.28306 120.1747,116.43202 117.93951,121.9487 116.61324,122.09606 M 98.392423,85.337538 C 96.560993,86.054185 85.328018,108.88182 96.49112,112.4311 97.793252,119.8153 102.72627,121.94557 105.83919,122.41294 109.40852,122.94883 116.48425,123.81508 116.61324,123.3636"
         inkstitch:stroke_method="ripple_stitch"
         inkstitch:exponent="1.5"
         inkstitch:line_count="14"
         inkstitch:running_stitch_length_mm="2"
         inkstitch:reverse_rails="automatic"
         inkstitch:reverse="True"
         sodipodi:nodetypes="csscccsc" /><path
         id="path25069"
         style="font-variation-settings:normal;opacity:1;vector-effect:none;fill:none;fill-opacity:1;stroke:#ff6616;stroke-width:0.750001;stroke-linecap:butt;stroke-linejoin:miter;stroke-miterlimit:4;stroke-dasharray:1.5, 0.750001;stroke-dashoffset:0;stroke-opacity:1;-inkscape-stroke:none;stop-color:#000000;stop-opacity:1"
         d="M 117.70409,123.76047 C 133.46983,122.15935 128.0164,105.57605 130.82563,104.27304 133.57826,101.6038 132.45956,99.192648 130.04613,96.867812 123.69267,89.554379 117.2564,83.648742 110.5587,82.187282 M 116.31713,122.3616 C 117.6434,122.21424 119.87859,116.69756 115.68337,115.5486 114.18836,115.13916 110.95647,117.361 109.0288,114.59795 93.661179,92.570593 104.65604,85.73031 105.38464,87.187504"
         inkstitch:stroke_method="ripple_stitch"
         inkstitch:exponent="2"
         inkstitch:line_count="15"
         inkstitch:running_stitch_length_mm="2"
         sodipodi:nodetypes="cccccssc"
         inkstitch:reverse_rails="none"
         inkstitch:reverse="True" /></g><g
       id="g25227"
       inkscape:label="sepales"
       style="display:inline"><path
         id="path24916"
         style="font-variation-settings:normal;opacity:1;vector-effect:none;fill:none;fill-opacity:1;stroke:#b5805a;stroke-width:0.750001;stroke-linecap:butt;stroke-linejoin:miter;stroke-miterlimit:4;stroke-dasharray:1.5, 0.750001;stroke-dashoffset:0;stroke-opacity:1;-inkscape-stroke:none;stop-color:#000000;stop-opacity:1"
         d="M 84.132652,92.94275 C 84.122412,92.87108 88.984553,69.482691 96.332679,78.682979 97.899556,80.644801 97.765643,83.583113 99.184633,85.654421 100.99625,88.298855 106.8064,87.014206 106.94829,86.446631 M 80.171604,82.01026 C 79.03831,78.862221 90.801119,53.827584 105.04698,72.662187 107.15887,75.454345 110.78873,77.877676 110.90933,81.37649 110.96393,82.960847 108.53271,85.495981 108.53271,85.495981"
         sodipodi:nodetypes="cssccssc"
         inkstitch:stroke_method="ripple_stitch"
         inkstitch:line_count="12"
         inkstitch:running_stitch_length_mm="2.5"
         inkstitch:bean_stitch_repeats="1"
         inkstitch:reverse_rails="none" /><path
         d="M 80.1715,82.0102 C 79.77894,75.000984 89.949932,60.816393 99.1023,67.0789"
         style="fill:none;stroke:#b5805a;stroke-width:0.264583;stroke-dasharray:3, 1"
         inkstitch:running_stitch_length_mm="2.5"
         inkstitch:running_stitch_tolerance_mm="2.0"
         id="path7"
         sodipodi:nodetypes="cc" /><path
         id="path24827"
         style="font-variation-settings:normal;opacity:1;vector-effect:none;fill:none;fill-opacity:1;stroke:#b5805a;stroke-width:0.750001;stroke-linecap:butt;stroke-linejoin:miter;stroke-miterlimit:4;stroke-dasharray:1.5, 0.750001;stroke-dashoffset:0;stroke-opacity:1;-inkscape-stroke:none;stop-color:#000000;stop-opacity:1"
         d="M 99.102431,67.078998 C 102.16514,53.207097 107.97207,51.926002 113.33368,49.289928 122.86192,44.6053 124.98801,34.182769 121.39806,27.705858 119.33981,23.992403 127.32223,14.086897 128.03931,11.577103 M 102.03659,69.651789 C 105.49734,68.576288 108.60989,65.75978 111.22622,60.462159 114.08135,59.418603 116.95743,58.458805 118.98987,54.124484 124.04608,49.194961 127.83171,43.12192 124.53534,30.675082 128.14547,20.233161 128.32946,16.643538 128.65483,12.771146"
         inkstitch:stroke_method="ripple_stitch"
         inkstitch:running_stitch_length_mm="2.5"
         inkstitch:bean_stitch_repeats="1"
         inkstitch:reverse_rails="none" /><path
         d="M 102.036,69.6517 C 100.46169,68.791437 100.09288,67.620124 99.014975,66.548581 90.233754,60.507865 80.766474,73.182538 79.888384,78.566031 80.174057,79.858495 81.520469,87.339915 83.0235,91.0413"
         style="fill:none;stroke:#b5805a;stroke-width:0.264583;stroke-dasharray:3, 1"
         inkstitch:running_stitch_length_mm="2.5"
         inkstitch:running_stitch_tolerance_mm="2.0"
         id="path8"
         sodipodi:nodetypes="cccc" /><path
         id="path24783"
         style="font-variation-settings:normal;opacity:1;vector-effect:none;fill:none;fill-opacity:1;stroke:#b5805a;stroke-width:0.750001;stroke-linecap:butt;stroke-linejoin:miter;stroke-miterlimit:4;stroke-dasharray:1.5, 0.750001;stroke-dashoffset:0;stroke-opacity:1;-inkscape-stroke:none;stop-color:#000000;stop-opacity:1"
         d="M 83.023558,91.041446 C 76.51069,77.872299 72.419868,64.730809 56.722202,55.708901 52.195421,55.140479 51.792399,53.197471 52.285828,50.955646 M 83.498885,90.724563 C 77.591727,77.226236 78.127579,48.772662 64.644298,50.638762 60.118785,48.760644 55.859569,45.551046 50.542969,47.628366"
         inkstitch:stroke_method="ripple_stitch"
         inkstitch:running_stitch_length_mm="2.5"
         inkstitch:bean_stitch_repeats="1"
         inkstitch:reverse_rails="none" /></g><g
       id="g25392"
       inkscape:label="contour petales"
       style="display:inline"><path
         style="font-variation-settings:normal;vector-effect:none;fill:none;fill-opacity:1;stroke:#d42727;stroke-width:0.750001;stroke-linecap:butt;stroke-linejoin:miter;stroke-miterlimit:4;stroke-dasharray:1.5, 0.750001;stroke-dashoffset:0;stroke-opacity:1;-inkscape-stroke:none;stop-color:#000000"
         d="M 127.44945,10.021129 C 115.29842,24.23723 103.56622,24.627053 115.59022,30.656562 114.17884,34.971652 104.04563,35.359906 103.01941,49.157241 102.3703,49.666384 101.82568,50.086297 101.22831,50.550438 101.6874,47.362757 101.67976,44.182456 100.849,41.131891 100.63957,40.362838 100.12023,39.517814 99.391203,38.629202 100.49632,30.642039 98.581883,27.145024 95.429173,29.233393 94.309271,25.958815 95.439173,21.559224 90.922988,19.982795 87.443084,20.748029 86.344209,19.52887 86.653481,17.136457 83.236733,16.721806 79.6089,17.045297 77.323153,12.393077 L 72.659503,21.643159 C 69.356082,25.218289 68.880748,31.436618 70.637921,37.951207 67.682973,39.573522 67.337342,39.895593 67.100669,42.558161 66.823314,45.678401 67.934885,48.54096 69.511443,51.331522"
         id="path25283"
         inkstitch:running_stitch_length_mm="2"
         inkstitch:bean_stitch_repeats="1" /><path
         id="path1318-8"
         style="font-variation-settings:normal;vector-effect:none;fill:none;fill-opacity:1;stroke:#d42727;stroke-width:0.750001;stroke-linecap:butt;stroke-linejoin:miter;stroke-miterlimit:4;stroke-dasharray:1.5, 0.750001;stroke-dashoffset:0;stroke-opacity:1;-inkscape-stroke:none;stop-color:#000000"
         d="M 52.732548,53.219995 C 51.735558,53.038953 50.726209,52.945839 49.707411,52.952485 44.021809,51.683639 38.895743,57.779298 33.104281,58.407802 24.890559,59.299173 19.235768,64.167157 23.379592,70.26718 19.436166,75.782152 20.542622,81.417661 28.123344,81.88937 L 29.316687,82.457137 C 30.634289,83.545804 34.356115,85.130727 38.391157,81.833093 40.698137,85.133718 45.370847,88.031382 45.370847,88.031382 L 47.905917,89.298918 C 47.905917,89.298918 58.462811,93.050706 61.056596,88.823594 66.653053,79.703 59.996173,73.011311 59.947503,73.137842 56.508347,60.06099 63.695773,68.776338 66.443623,68.701471"
         sodipodi:nodetypes="ccsccccccscc"
         inkstitch:running_stitch_length_mm="2"
         inkstitch:bean_stitch_repeats="1" /><path
         style="font-variation-settings:normal;vector-effect:none;fill:none;fill-opacity:1;stroke:#d42727;stroke-width:0.750001;stroke-linecap:butt;stroke-linejoin:miter;stroke-miterlimit:4;stroke-dasharray:1.5, 0.750001;stroke-dashoffset:0;stroke-opacity:1;-inkscape-stroke:none;stop-color:#000000"
         d="M 98.586291,85.381096 C 96.754861,86.097743 85.521886,108.92538 96.684988,112.47466 97.98712,119.85886 102.92014,121.98913 106.03306,122.4565 109.60239,122.99239 116.67812,123.85864 117.35253,123.60559 133.6637,122.20291 128.21027,105.61961 131.0195,104.3166 133.77213,101.64736 132.65343,99.236206 130.24,96.911366 123.88654,89.597936 117.45027,83.6923 110.75257,82.23084"
         id="path25377"
         sodipodi:nodetypes="ccscccc"
         inkstitch:running_stitch_length_mm="2"
         inkstitch:bean_stitch_repeats="1" /></g><g
       id="g25721"
       inkscape:label="tige"
       style="display:inline"><path
         id="path25538"
         style="font-variation-settings:normal;opacity:1;fill:none;fill-opacity:1;stroke:#a9dd76;stroke-width:0.75;stroke-linecap:butt;stroke-linejoin:miter;stroke-miterlimit:4;stroke-dasharray:none;stroke-dashoffset:0;stroke-opacity:1;stop-color:#000000;stop-opacity:1"
         d="M 84.005197,87.428416 90.656367,91.984011 M 89.563025,76.31276 93.11639,80.503909 M 95.120851,78.590557 C 92.676219,79.236651 90.641104,82.136059 89.654135,87.883975 90.199222,93.636438 87.554106,93.806047 86.374106,96.539607 M 95.758634,77.952774 C 91.391154,74.56776 89.681227,78.623896 87.649673,81.779474 85.298859,86.598389 84.706546,89.951885 83.731861,93.624026"
         inkstitch:satin_column="True"
         inkstitch:max_stitch_length_mm="3"
         inkstitch:pull_compensation_mm="0.2"
         inkstitch:reverse_rails="none"
         inkstitch:start_at_nearest_point="False"
         inkstitch:end_at_nearest_point="False" /><path
         d="M 83.5975,93.4757 76.0927,77.5707"
         style="fill:none;stroke:#a9dd76;stroke-width:0.264583;stroke-dasharray:3, 1"
         inkstitch:running_stitch_length_mm="2.5"
         inkstitch:running_stitch_tolerance_mm="2.0"
         id="path14" /><path
         id="path25640"
         style="font-variation-settings:normal;opacity:1;vector-effect:none;fill:none;fill-opacity:1;stroke:#a9dd76;stroke-width:0.750001;stroke-linecap:butt;stroke-linejoin:miter;stroke-miterlimit:4;stroke-dasharray:none;stroke-dashoffset:0;stroke-opacity:1;-inkscape-stroke:none;stop-color:#000000;stop-opacity:1"
         d="M 76.260684,77.679438 78.356258,92.257347 80.087384,97.17739 81.636287,109.20417 82.365182,129.88657 M 77.809586,78.681669 83.731861,93.168466 86.55633,96.995167 86.191883,101.73299 85.371875,110.84418 85.280765,129.97769 M 75.440676,82.690595 80.634056,82.143924 M 76.442907,93.80625 86.00966,93.624027"
         inkstitch:satin_column="True"
         inkstitch:max_stitch_length_mm="3"
         inkstitch:pull_compensation_mm="0.2"
         inkstitch:reverse_rails="none"
         inkstitch:start_at_nearest_point="False"
         inkstitch:end_at_nearest_point="False" /></g><g
       aria-label="Iris"
       id="text25953"
       style="font-size:44px;line-height:8.6;font-family:Millimetre;-inkscape-font-specification:Millimetre;font-variant-ligatures:none;stroke-width:0.264583"
       transform="translate(-7.38007, 1.36668)"
       inkscape:label="iris"><path
         d="m 20.969058,97.173221 v 30.799999 m 4.4,-30.799999 v 30.799999"
         id="path26005"
         style="fill:none;stroke:#a3057f"
         sodipodi:nodetypes="cccc"
         inkstitch:stroke_method="ripple_stitch"
         inkstitch:running_stitch_length_mm="2"
         inkstitch:reverse_rails="none" /><path
         id="path26125"
         style="fill:none;stroke:#a3057f"
         d="m 29.769008,127.97322 v -22 m 4.4,22 v -14.96 l -0.44,-7.04"
         inkstitch:stroke_method="ripple_stitch"
         inkstitch:running_stitch_length_mm="2"
         inkstitch:line_count="11"
         inkstitch:reverse_rails="none" /><path
         id="path26007"
         style="fill:none;stroke:#a3057f"
         d="m 33.80456,109.21988 c 0.44,-2.2 3.004448,-3.24666 8.284448,-3.24666 h 3.08 m -11.091112,9.73999 c 0,-2.39553 0.971112,-5.33999 6.691112,-5.33999 h 4.4"
         inkstitch:stroke_method="ripple_stitch"
         inkstitch:running_stitch_length_mm="2"
         inkstitch:reverse_rails="none" /><path
         style="fill:none;stroke:#a3057f"
         d="m 47.368991,127.97322 v -22 m 4.4,22 v -22"
         id="path26016"
         sodipodi:nodetypes="cccc"
         inkstitch:stroke_method="ripple_stitch"
         inkstitch:running_stitch_length_mm="2"
         inkstitch:reverse_rails="none" /><path
         style="fill:none;stroke:#a3057f"
         d="m 47.148991,102.01322 v -4.839999 m 4.84,4.839999 v -4.839999"
         id="path26009"
         sodipodi:nodetypes="cccc"
         inkstitch:stroke_method="ripple_stitch"
         inkstitch:running_stitch_length_mm="2"
         inkstitch:reverse_rails="none" /><path
         d="m 56.168941,120.93322 v 1.32 c 0,3.96 2.64,6.16 11,6.16 7.92,0 11.44,-2.64 11.44,-7.04 0,-3.96 -2.64,-5.72 -11.44,-6.6 -4.4,-0.44 -7.04,-0.88 -7.04,-2.64 0,-1.76 1.32,-2.2 7.04,-2.2 5.72,0 6.6,0.44 6.6,2.2 v 0.88 m -13.2,7.92 v 0.88 c 0,1.76 0.88,2.2 6.6,2.2 5.72,0 7.04,-0.44 7.04,-2.2 0,-1.76 -2.64,-2.2 -7.04,-2.64 -8.8,-0.88 -11.44,-2.64 -11.44,-6.6 0,-4.4 3.52,-7.04 11.44,-7.04 8.36,0 11,2.2 11,6.16 v 1.32"
         id="path26011"
         style="fill:none;stroke:#a3057f"
         sodipodi:nodetypes="csssssssccsssssssc"
         inkstitch:stroke_method="ripple_stitch"
         inkstitch:running_stitch_length_mm="2"
         inkscape:label="path26011"
         inkstitch:reverse_rails="none" /></g></g></svg>
