<?xml version="1.0" encoding="UTF-8" standalone="no"?>
<svg
   width="140mm"
   height="140mm"
   viewBox="0 0 140 140"
   version="1.1"
   id="svg8"
   sodipodi:docname="IRIS RIPPLE.svg"
   inkscape:version="1.2 (dc2aeda, 2022-05-15)"
   xml:space="preserve"
   xmlns:inkscape="http://www.inkscape.org/namespaces/inkscape"
   xmlns:sodipodi="http://sodipodi.sourceforge.net/DTD/sodipodi-0.dtd"
   xmlns="http://www.w3.org/2000/svg"
   xmlns:svg="http://www.w3.org/2000/svg"
   xmlns:rdf="http://www.w3.org/1999/02/22-rdf-syntax-ns#"
   xmlns:cc="http://creativecommons.org/ns#"
   xmlns:dc="http://purl.org/dc/elements/1.1/"
   xmlns:inkstitch="http://inkstitch.org/namespace"><defs
     id="defs2" /><sodipodi:namedview
     id="base"
     pagecolor="#ffffff"
     bordercolor="#666666"
     borderopacity="1.0"
     inkscape:pageopacity="0.0"
     inkscape:pageshadow="2"
     inkscape:zoom="0.78144495"
     inkscape:cx="329.51777"
     inkscape:cy="119.0103"
     inkscape:document-units="mm"
     inkscape:current-layer="layer1"
     inkscape:document-rotation="0"
     showgrid="true"
     inkscape:window-width="1434"
     inkscape:window-height="787"
     inkscape:window-x="0"
     inkscape:window-y="25"
     inkscape:window-maximized="0"
     guidetolerance="10000"
     inkscape:pagecheckerboard="false"
     inkscape:showpageshadow="0"
     inkscape:deskcolor="#d1d1d1"><inkscape:grid
       type="xygrid"
       id="grid75"
       units="cm"
       spacingx="1"
       spacingy="1" /></sodipodi:namedview><metadata
     id="metadata5"><rdf:RDF><cc:Work
         rdf:about=""><dc:format>image/svg+xml</dc:format><dc:type
           rdf:resource="http://purl.org/dc/dcmitype/StillImage" /></cc:Work></rdf:RDF><inkstitch:collapse_len_mm /></metadata><g
     inkscape:label="Calque 1"
     inkscape:groupmode="layer"
     id="layer1"><g
       id="g25222"
       inkscape:label="fonds petales"><path
         style="font-variation-settings:normal;opacity:1;vector-effect:none;fill:none;fill-opacity:1;stroke:#ff6616;stroke-width:0.750001;stroke-linecap:butt;stroke-linejoin:miter;stroke-miterlimit:4;stroke-dasharray:1.5, 0.750001;stroke-dashoffset:0;stroke-opacity:1;-inkscape-stroke:none;stop-color:#000000;stop-opacity:1"
         d="m 77.323153,12.393077 -4.743752,9.250315 c -3.513233,3.802199 -3.82819,10.593511 -1.660314,17.551881 5.337113,22.145383 10.531762,41.444011 12.16435,51.240979 M 77.323153,12.393077 c 2.206019,4.652221 5.833562,4.3291 9.250314,4.743751 -0.309273,2.392416 0.78947,3.611486 4.269378,2.846251 4.516163,1.576431 3.38666,5.975734 4.506563,9.250315 6.133342,-4.062756 7.581992,13.008696 -8.775942,43.168141"
         id="path919"
         sodipodi:nodetypes="ccccccccc"
         inkstitch:stroke_method="1"
         inkstitch:line_count="20"
         inkstitch:exponent="1.2"
         inkstitch:running_stitch_length_mm="2"
         inkstitch:flip_exponent="True" /><path
         id="path24474"
         style="font-variation-settings:normal;opacity:1;vector-effect:none;fill:none;fill-opacity:1;stroke:#ff6616;stroke-width:0.750001;stroke-linecap:butt;stroke-linejoin:miter;stroke-miterlimit:4;stroke-dasharray:1.5, 0.750001;stroke-dashoffset:0;stroke-opacity:1;-inkscape-stroke:none;stop-color:#000000;stop-opacity:1"
         d="m 87.459932,77.257002 c 0,0 6.532425,-4.133692 9.981841,-13.626005 2.589257,-7.125278 5.319297,-15.183992 3.327277,-22.498751 C 99.448147,36.28185 85.853608,28.413086 84.449535,25.60494 m -1.901301,64.010529 c 0,0 -3.309681,-17.660736 -6.179235,-26.142912 -2.447095,-7.233421 -10.024176,-13.308183 -9.348073,-20.914334 0.302858,-3.407146 0.719357,-2.947788 6.654559,-6.337675 4.638075,-2.649033 9.506516,-13.784446 9.506516,-13.784446"
         sodipodi:nodetypes="cssccsssc"
         inkstitch:stroke_method="1"
         inkstitch:line_count="25"
         inkstitch:exponent=".8"
         inkstitch:running_stitch_length_mm="2" /><path
         id="path1037"
         style="font-variation-settings:normal;opacity:1;vector-effect:none;fill:none;fill-opacity:1;stroke:#ff6616;stroke-width:0.750001;stroke-linecap:butt;stroke-linejoin:miter;stroke-miterlimit:4;stroke-dasharray:1.5, 0.750001;stroke-dashoffset:0;stroke-opacity:1;-inkscape-stroke:none;stop-color:#000000;stop-opacity:1"
         d="m 128.08129,11.444326 c -0.71708,2.509794 -1.1095,7.908736 -5.92969,13.756879 -1.1538,7.188474 3.83574,15.713504 -8.77594,23.955946 -5.00122,3.268576 -11.16854,3.917169 -14.231251,17.78907 -0.609117,2.758872 -6.641252,2.846252 -6.641252,2.846252 M 127.36973,10.021201 c -12.15104,14.216115 -23.88339,14.605805 -11.85937,20.63532 -1.41139,4.315094 -11.54473,4.703281 -12.57095,18.50063 -10.551982,8.276538 -14.0732,10.257451 -16.840317,17.314693 -2.613463,6.665363 -2.371875,21.346885 -2.371875,21.346885"
         inkstitch:stroke_method="1"
         sodipodi:nodetypes="ccssccccsc"
         inkstitch:exponent="1.5"
         inkstitch:running_stitch_length_mm="2" /><path
         id="path1131"
         style="font-variation-settings:normal;opacity:1;vector-effect:none;fill:none;fill-opacity:1;stroke:#ff6616;stroke-width:0.750001;stroke-linecap:butt;stroke-linejoin:miter;stroke-miterlimit:4;stroke-dasharray:1.5, 0.750001;stroke-dashoffset:0;stroke-opacity:1;-inkscape-stroke:none;stop-color:#000000;stop-opacity:1"
         d="m 66.649711,64.811532 c 0.583546,0.291773 -4.912674,-6.033379 -12.80813,-4.980938 -8.01163,0.478678 -6.94029,15.327366 -13.519693,19.923757 -4.686949,5.865207 -9.386977,3.955247 -10.903219,2.702454 M 79.45784,80.940287 c 1.335617,-1.168665 -12.875911,-28.09755 -29.648449,-27.988135 -5.685602,-1.268846 -10.811668,4.826814 -16.60313,5.455317 -8.213723,0.891372 -13.868514,5.759355 -9.72469,11.859379 -3.943426,5.514972 -2.83697,11.150481 4.743753,11.62219"
         inkstitch:stroke_method="1"
         inkstitch:exponent="2"
         inkstitch:line_count="15"
         sodipodi:nodetypes="ccccccscc"
         inkstitch:running_stitch_length_mm="2" /><path
         id="path1318"
         style="font-variation-settings:normal;opacity:1;vector-effect:none;fill:none;fill-opacity:1;stroke:#ff6616;stroke-width:0.750001;stroke-linecap:butt;stroke-linejoin:miter;stroke-miterlimit:4;stroke-dasharray:1.5, 0.750001;stroke-dashoffset:0;stroke-opacity:1;-inkscape-stroke:none;stop-color:#000000;stop-opacity:1"
         d="m 48.007897,89.298586 c 0,0 10.556894,3.751787 13.150679,-0.475324 5.596461,-9.120594 -1.060423,-15.812283 -1.109093,-15.685752 -3.439156,-13.076852 3.748273,-4.361504 6.496116,-4.436371 M 45.472827,88.03105 c 0,0 -9.482062,-5.880064 -8.080536,-9.981838 2.390294,-6.995548 6.462933,-9.933527 9.031188,-14.576655 3.101926,-5.607948 13.0164,-3.841254 18.537703,0.792207 6.671158,1.868792 15.762018,19.922893 15.685748,20.914333"
         sodipodi:nodetypes="cscccsscc"
         inkstitch:stroke_method="1"
         inkstitch:exponent="2"
         inkstitch:line_count="15"
         inkstitch:running_stitch_length_mm="2" /><path
         id="path24964"
         style="font-variation-settings:normal;opacity:1;vector-effect:none;fill:none;fill-opacity:1;stroke:#ff6616;stroke-width:0.750001;stroke-linecap:butt;stroke-linejoin:miter;stroke-miterlimit:4;stroke-dasharray:1.5, 0.750001;stroke-dashoffset:0;stroke-opacity:1;-inkscape-stroke:none;stop-color:#000000;stop-opacity:1"
         d="m 105.68075,86.921958 c -0.7286,-1.457194 -11.723453,5.383093 3.64416,27.410452 1.92767,2.76305 5.15956,0.54121 6.65457,0.95065 4.19522,1.14896 1.96003,6.66564 0.63376,6.813 M 98.392423,85.337538 c -1.83143,0.716647 -13.064405,23.544282 -1.901303,27.093562 1.302132,7.3842 6.23515,9.51447 9.34807,9.98184 3.56933,0.53589 10.64506,1.40214 10.77405,0.95066"
         inkstitch:stroke_method="1"
         inkstitch:exponent="1.5"
         inkstitch:line_count="14"
         inkstitch:running_stitch_length_mm="2" /><path
         id="path25069"
         style="font-variation-settings:normal;opacity:1;vector-effect:none;fill:none;fill-opacity:1;stroke:#ff6616;stroke-width:0.750001;stroke-linecap:butt;stroke-linejoin:miter;stroke-miterlimit:4;stroke-dasharray:1.5, 0.750001;stroke-dashoffset:0;stroke-opacity:1;-inkscape-stroke:none;stop-color:#000000;stop-opacity:1"
         d="m 117.70409,123.76047 c 15.76574,-1.60112 10.31231,-18.18442 13.12154,-19.48743 2.75263,-2.66924 1.63393,-5.080392 -0.7795,-7.405228 -6.35346,-7.313433 -12.78973,-13.21907 -19.48743,-14.68053 m 5.75843,40.174318 c 1.32627,-0.14736 3.56146,-5.66404 -0.63376,-6.813 -1.49501,-0.40944 -4.7269,1.8124 -6.65457,-0.95065 -15.367621,-22.027357 -4.37276,-28.86764 -3.64416,-27.410446"
         inkstitch:stroke_method="1"
         inkstitch:exponent="2"
         inkstitch:line_count="15"
         inkstitch:running_stitch_length_mm="2"
         sodipodi:nodetypes="cccccssc" /></g><g
       id="g25227"
       inkscape:label="sepales"><path
         id="path24916"
         style="font-variation-settings:normal;opacity:1;vector-effect:none;fill:none;fill-opacity:1;stroke:#b5805a;stroke-width:0.750001;stroke-linecap:butt;stroke-linejoin:miter;stroke-miterlimit:4;stroke-dasharray:1.5, 0.750001;stroke-dashoffset:0;stroke-opacity:1;-inkscape-stroke:none;stop-color:#000000;stop-opacity:1"
         d="m 84.132652,92.94275 c -0.01024,-0.07167 4.851901,-23.460059 12.200027,-14.259771 1.566877,1.961822 1.432964,4.900134 2.851954,6.971442 1.811617,2.644434 7.621767,1.359785 7.763657,0.79221 M 80.171604,82.01026 c -1.133294,-3.148039 10.629515,-28.182676 24.875376,-9.348073 2.11189,2.792158 5.74175,5.215489 5.86235,8.714303 0.0546,1.584357 -2.37662,4.119491 -2.37662,4.119491"
         sodipodi:nodetypes="cssccssc"
         inkstitch:stroke_method="1"
         inkstitch:line_count="12"
         inkstitch:running_stitch_length_mm="2.5"
         inkstitch:bean_stitch_repeats="1" /><path
         id="path24827"
         style="font-variation-settings:normal;opacity:1;vector-effect:none;fill:none;fill-opacity:1;stroke:#b5805a;stroke-width:0.750001;stroke-linecap:butt;stroke-linejoin:miter;stroke-miterlimit:4;stroke-dasharray:1.5, 0.750001;stroke-dashoffset:0;stroke-opacity:1;-inkscape-stroke:none;stop-color:#000000;stop-opacity:1"
         d="m 99.102431,67.078998 c 3.062709,-13.871901 8.869639,-15.152996 14.231249,-17.78907 9.52824,-4.684628 11.65433,-15.107159 8.06438,-21.58407 -2.05825,-3.713455 5.92417,-13.618961 6.64125,-16.128755 m -26.00272,58.074686 c 3.46075,-1.075501 6.5733,-3.892009 9.18963,-9.18963 2.85513,-1.043556 5.73121,-2.003354 7.76365,-6.337675 5.05621,-4.929523 8.84184,-11.002564 5.54547,-23.449402 3.61013,-10.441921 3.79412,-14.031544 4.11949,-17.903936"
         inkstitch:stroke_method="1"
         inkstitch:running_stitch_length_mm="2.5"
         inkstitch:bean_stitch_repeats="1" /><path
         id="path24783"
         style="font-variation-settings:normal;opacity:1;vector-effect:none;fill:none;fill-opacity:1;stroke:#b5805a;stroke-width:0.750001;stroke-linecap:butt;stroke-linejoin:miter;stroke-miterlimit:4;stroke-dasharray:1.5, 0.750001;stroke-dashoffset:0;stroke-opacity:1;-inkscape-stroke:none;stop-color:#000000;stop-opacity:1"
         d="M 83.023558,91.041446 C 76.51069,77.872299 72.419868,64.730809 56.722202,55.708901 52.195421,55.140479 51.792399,53.197471 52.285828,50.955646 M 83.498885,90.724563 C 77.591727,77.226236 78.127579,48.772662 64.644298,50.638762 60.118785,48.760644 55.859569,45.551046 50.542969,47.628366"
         inkstitch:stroke_method="1"
         inkstitch:running_stitch_length_mm="2.5"
         inkstitch:bean_stitch_repeats="1" /></g><g
       id="g25392"
       inkscape:label="contour petales"><path
         style="font-variation-settings:normal;vector-effect:none;fill:none;fill-opacity:1;stroke:#d42727;stroke-width:0.750001;stroke-linecap:butt;stroke-linejoin:miter;stroke-miterlimit:4;stroke-dasharray:1.5, 0.750001;stroke-dashoffset:0;stroke-opacity:1;-inkscape-stroke:none;stop-color:#000000"
         d="m 127.44945,10.021129 c -12.15103,14.216101 -23.88323,14.605924 -11.85923,20.635433 -1.41138,4.31509 -11.54459,4.703344 -12.57081,18.500679 -0.64911,0.509143 -1.19373,0.929056 -1.7911,1.393197 0.45909,-3.187681 0.45145,-6.367982 -0.37931,-9.418547 -0.20943,-0.769053 -0.72877,-1.614077 -1.457797,-2.502689 1.105117,-7.987163 -0.80932,-11.484178 -3.96203,-9.395809 -1.119902,-3.274578 0.01,-7.674169 -4.506185,-9.250598 -3.479904,0.765234 -4.578779,-0.453925 -4.269507,-2.846338 -3.416748,-0.414651 -7.044581,-0.09116 -9.330328,-4.74338 l -4.66365,9.250082 c -3.303421,3.57513 -3.778755,9.793459 -2.021582,16.308048 -2.954948,1.622315 -3.300579,1.944386 -3.537252,4.606954 -0.277355,3.12024 0.834216,5.982799 2.410774,8.773361"
         id="path25283"
         inkstitch:running_stitch_length_mm="2"
         inkstitch:bean_stitch_repeats="1" /><path
         id="path1318-8"
         style="font-variation-settings:normal;vector-effect:none;fill:none;fill-opacity:1;stroke:#d42727;stroke-width:0.750001;stroke-linecap:butt;stroke-linejoin:miter;stroke-miterlimit:4;stroke-dasharray:1.5, 0.750001;stroke-dashoffset:0;stroke-opacity:1;-inkscape-stroke:none;stop-color:#000000"
         d="m 52.732548,53.219995 c -0.99699,-0.181042 -2.006339,-0.274156 -3.025137,-0.26751 -5.685602,-1.268846 -10.811668,4.826813 -16.60313,5.455317 -8.213722,0.891371 -13.868513,5.759355 -9.724689,11.859378 -3.943426,5.514972 -2.83697,11.150481 4.743752,11.62219 l 1.193343,0.567767 c 1.317602,1.088667 5.039428,2.67359 9.07447,-0.624044 2.30698,3.300625 6.97969,6.198289 6.97969,6.198289 l 2.53507,1.267536 c 0,0 10.556894,3.751788 13.150679,-0.475324 5.596457,-9.120594 -1.060423,-15.812283 -1.109093,-15.685752 -3.439156,-13.076852 3.74827,-4.361504 6.49612,-4.436371"
         sodipodi:nodetypes="ccsccccccscc"
         inkstitch:running_stitch_length_mm="2"
         inkstitch:bean_stitch_repeats="1" /><path
         style="font-variation-settings:normal;vector-effect:none;fill:none;fill-opacity:1;stroke:#d42727;stroke-width:0.750001;stroke-linecap:butt;stroke-linejoin:miter;stroke-miterlimit:4;stroke-dasharray:1.5, 0.750001;stroke-dashoffset:0;stroke-opacity:1;-inkscape-stroke:none;stop-color:#000000"
         d="m 98.586291,85.381096 c -1.83143,0.716647 -13.064405,23.544284 -1.901303,27.093564 1.302132,7.3842 6.235152,9.51447 9.348072,9.98184 3.56933,0.53589 10.64506,1.40214 11.31947,1.14909 16.31117,-1.40268 10.85774,-17.98598 13.66697,-19.28899 2.75263,-2.66924 1.63393,-5.080394 -0.7795,-7.405234 C 123.88654,89.597936 117.45027,83.6923 110.75257,82.23084"
         id="path25377"
         sodipodi:nodetypes="ccscccc"
         inkstitch:running_stitch_length_mm="2"
         inkstitch:bean_stitch_repeats="1" /></g><g
       id="g25721"
       inkscape:label="tige"><path
         id="path25538"
         style="font-variation-settings:normal;opacity:1;fill:none;fill-opacity:1;stroke:#a9dd76;stroke-width:0.75;stroke-linecap:butt;stroke-linejoin:miter;stroke-miterlimit:4;stroke-dasharray:none;stroke-dashoffset:0;stroke-opacity:1;stop-color:#000000;stop-opacity:1"
         d="m 84.005197,87.428416 6.65117,4.555595 M 89.563025,76.31276 93.11639,80.503909 m 2.004461,-1.913352 c -2.444632,0.646094 -4.479747,3.545502 -5.466716,9.293418 0.545087,5.752463 -2.100029,5.922072 -3.280029,8.655632 m 9.384528,-18.586833 c -4.36748,-3.385014 -6.077407,0.671122 -8.108961,3.8267 -2.350814,4.818915 -2.943127,8.172411 -3.917812,11.844552"
         inkstitch:satin_column="True"
         inkstitch:max_stitch_length_mm="3"
         inkstitch:pull_compensation_mm="0.2" /><path
         id="path25640"
         style="font-variation-settings:normal;opacity:1;vector-effect:none;fill:none;fill-opacity:1;stroke:#a9dd76;stroke-width:0.750001;stroke-linecap:butt;stroke-linejoin:miter;stroke-miterlimit:4;stroke-dasharray:none;stroke-dashoffset:0;stroke-opacity:1;-inkscape-stroke:none;stop-color:#000000;stop-opacity:1"
         d="m 76.260684,77.679438 2.095574,14.577909 1.731126,4.920043 1.548903,12.02678 0.728895,20.6824 m -4.555596,-51.204901 5.922275,14.486797 2.824469,3.826701 -0.364447,4.737823 -0.820008,9.11119 -0.09111,19.13351 m -9.840089,-47.287095 5.19338,-0.546671 M 76.442907,93.80625 86.00966,93.624027"
         inkstitch:satin_column="True"
         inkstitch:max_stitch_length_mm="3"
         inkstitch:pull_compensation_mm="0.2" /></g><g
       aria-label="Iris"
       id="text25953"
       style="font-size:44px;line-height:8.6;font-family:Millimetre;-inkscape-font-specification:Millimetre;font-variant-ligatures:none;stroke-width:0.264583"
       transform="translate(-7.38007, 1.36668)"
       inkscape:label="iris"><path
         d="m 20.969058,97.173221 v 30.799999 m 4.4,-30.799999 v 30.799999"
         id="path26005"
         style="fill:none;stroke:#a3057f"
         sodipodi:nodetypes="cccc"
         inkstitch:stroke_method="1"
         inkstitch:running_stitch_length_mm="2" /><path
         id="path26125"
         style="fill:none;stroke:#a3057f"
         d="m 29.769008,127.97322 v -22 m 4.4,22 v -14.96 l -0.44,-7.04"
         inkstitch:stroke_method="1"
         inkstitch:running_stitch_length_mm="2"
         inkstitch:line_count="11" /><path
         id="path26007"
         style="fill:none;stroke:#a3057f"
         d="m 33.80456,109.21988 c 0.44,-2.2 3.004448,-3.24666 8.284448,-3.24666 h 3.08 m -11.091112,9.73999 c 0,-2.39553 0.971112,-5.33999 6.691112,-5.33999 h 4.4"
         inkstitch:stroke_method="1"
         inkstitch:running_stitch_length_mm="2" /><path
         style="fill:none;stroke:#a3057f"
         d="m 47.368991,127.97322 v -22 m 4.4,22 v -22"
         id="path26016"
         sodipodi:nodetypes="cccc"
         inkstitch:stroke_method="1"
         inkstitch:running_stitch_length_mm="2" /><path
         style="fill:none;stroke:#a3057f"
         d="m 47.148991,102.01322 v -4.839999 m 4.84,4.839999 v -4.839999"
         id="path26009"
         sodipodi:nodetypes="cccc"
         inkstitch:stroke_method="1"
         inkstitch:running_stitch_length_mm="2" /><path
         d="m 56.168941,120.93322 v 1.32 c 0,3.96 2.64,6.16 11,6.16 7.92,0 11.44,-2.64 11.44,-7.04 0,-3.96 -2.64,-5.72 -11.44,-6.6 -4.4,-0.44 -7.04,-0.88 -7.04,-2.64 0,-1.76 1.32,-2.2 7.04,-2.2 5.72,0 6.6,0.44 6.6,2.2 v 0.88 m -13.2,7.92 v 0.88 c 0,1.76 0.88,2.2 6.6,2.2 5.72,0 7.04,-0.44 7.04,-2.2 0,-1.76 -2.64,-2.2 -7.04,-2.64 -8.8,-0.88 -11.44,-2.64 -11.44,-6.6 0,-4.4 3.52,-7.04 11.44,-7.04 8.36,0 11,2.2 11,6.16 v 1.32"
         id="path26011"
         style="fill:none;stroke:#a3057f"
         sodipodi:nodetypes="csssssssccsssssssc"
         inkstitch:stroke_method="1"
         inkstitch:running_stitch_length_mm="2"
         inkscape:label="path26011" /></g></g></svg>
