<?xml version="1.0" encoding="UTF-8" standalone="no"?>
<!-- Created with Inkscape (http://www.inkscape.org/) -->

<svg
   sodipodi:docname="True_Blend.svg"
   inkscape:version="1.3-alpha (95f74fb, 2023-03-31)"
   id="svg13258"
   version="1.1"
   viewBox="0 0 100 100"
   height="100mm"
   width="100mm"
   xmlns:inkscape="http://www.inkscape.org/namespaces/inkscape"
   xmlns:sodipodi="http://sodipodi.sourceforge.net/DTD/sodipodi-0.dtd"
   xmlns:xlink="http://www.w3.org/1999/xlink"
   xmlns="http://www.w3.org/2000/svg"
   xmlns:svg="http://www.w3.org/2000/svg"
   xmlns:rdf="http://www.w3.org/1999/02/22-rdf-syntax-ns#"
   xmlns:cc="http://creativecommons.org/ns#"
   xmlns:dc="http://purl.org/dc/elements/1.1/"
   xmlns:inkstitch="http://inkstitch.org/namespace">
  <sodipodi:namedview
     inkscape:guide-bbox="true"
     showguides="true"
     inkscape:window-maximized="1"
     inkscape:window-y="8"
     inkscape:window-x="0"
     inkscape:window-height="1052"
     inkscape:window-width="1920"
     inkscape:snap-global="false"
     showgrid="false"
     inkscape:current-layer="__inkstitch_stitch_plan_"
     inkscape:document-units="mm"
     inkscape:cy="476.42857"
     inkscape:cx="367.14286"
     inkscape:zoom="0.7"
     inkscape:pageshadow="2"
     inkscape:pageopacity="0.0"
     borderopacity="1.0"
     bordercolor="#666666"
     pagecolor="#ffffff"
     id="base"
     inkscape:showpageshadow="2"
     inkscape:pagecheckerboard="0"
     inkscape:deskcolor="#d1d1d1" />
  <defs
     id="defs13252">
    <symbol
       id="inkstitch_fill_start">
      <title
         id="inkstitch_title9432">Fill stitch starting point</title>
      <path
         id="inkstitch_circle13166-6"
         d="m 9.2465269,-2.6e-6 c -1.9e-6,5.106729 -4.1398247,9.24655 -9.246554026709,9.24655 C -5.106756,9.2465474 -9.2465782,5.1067264 -9.2465801,-2.6e-6 c 2e-7,-5.10673 4.1398229,-9.246553 9.246552973291,-9.246553 2.452338526709,0 4.804235626709,0.974187 6.538300926709,2.708252 1.7340652,1.734066 2.708253,4.085963 2.7082531,6.538301 0,0 0,0 0,0"
         style="opacity:1;vector-effect:none;fill:#fafafa;fill-opacity:1;fill-rule:evenodd;stroke:#003399;stroke-width:1.06501234;stroke-linecap:round;stroke-linejoin:miter;stroke-miterlimit:4;stroke-dasharray:3.19503705, 3.19503705;stroke-dashoffset:0;stroke-opacity:1"
         inkscape:connector-curvature="0" />
      <path
         style="opacity:1;vector-effect:none;fill:#000000;fill-opacity:1;fill-rule:evenodd;stroke:none;stroke-width:2.74180555;stroke-linecap:butt;stroke-linejoin:miter;stroke-miterlimit:4;stroke-dasharray:none;stroke-dashoffset:0;stroke-opacity:1"
         d="m 6.5728129,0.0035574 c 0,0 -10.4514,6.03412 -10.4514,6.03412 0,0 0,-12.06823 0,-12.06823 0,0 10.4514,6.03411 10.4514,6.03411"
         id="inkstitch_path4183"
         inkscape:connector-curvature="0" />
    </symbol>
    <symbol
       id="inkstitch_fill_end">
      <title
         id="inkstitch_title9427">Fill stitch ending point</title>
      <path
         id="inkstitch_circle13166"
         d="m 9.220113,0.0792309 c -1.9e-6,5.106729 -4.1398241,9.24655 -9.246553,9.24655 -5.1067293,0 -9.2465521,-4.139821 -9.246554,-9.24655 1e-7,-2.452338 0.9741879,-4.804235 2.7082531,-6.538301 1.7340653,-1.734065 4.0859624,-2.708252 6.5383009,-2.708252 5.1067301,0 9.2465528,4.139823 9.246553,9.246553 0,0 0,0 0,0"
         style="opacity:1;vector-effect:none;fill:#fafafa;fill-opacity:1;fill-rule:evenodd;stroke:#003399;stroke-width:1.06500006;stroke-linecap:round;stroke-linejoin:miter;stroke-miterlimit:4;stroke-dasharray:3.19500017, 3.19500017;stroke-dashoffset:0;stroke-opacity:1"
         inkscape:connector-curvature="0" />
      <path
         style="opacity:1;fill:#000000;fill-opacity:1;fill-rule:nonzero;stroke:none;stroke-width:2.27154255;stroke-linecap:round;stroke-linejoin:round;stroke-miterlimit:4;stroke-dasharray:4.81866985, 4.81866985;stroke-dashoffset:0;stroke-opacity:1;paint-order:fill markers stroke"
         d="m -4.570439,-4.5704391 c 0,0 9.140878,0 9.140878,0 0,0 0,9.14087 0,9.14087 0,0 -9.140878,0 -9.140878,0 0,0 0,-9.14087 0,-9.14087"
         id="inkstitch_rect5371-2"
         inkscape:connector-curvature="0" />
    </symbol>
    <symbol
       id="inkstitch_ignore_layer">
      <title
         id="title25366">Ignore entire layer when generating stitch plan</title>
      <path
         inkscape:connector-curvature="0"
         style="opacity:1;vector-effect:none;fill:#fafafa;fill-opacity:1;fill-rule:evenodd;stroke:#ff0000;stroke-width:1.06501234;stroke-linecap:round;stroke-linejoin:miter;stroke-miterlimit:4;stroke-dasharray:3.19503705, 3.19503705;stroke-dashoffset:0;stroke-opacity:1"
         d="M 9.2465269,-4.9265995e-6 C 9.246525,5.1067241 5.1067028,9.2465451 -2.615882e-5,9.2465451 -5.1067554,9.2465451 -9.2465782,5.1067241 -9.2465801,-4.9265995e-6 -9.24658,-2.4523429 -8.2723922,-4.8042399 -6.538327,-6.5383059 c 1.7340653,-1.734065 4.0859624,-2.708252 6.53830084118,-2.708252 5.10673015882,0 9.24655285882,4.139823 9.24655305882,9.2465529734005 0,0 0,0 0,0"
         id="inkstitch_path25368-7" />
      <path
         sodipodi:nodetypes="ccccc"
         inkscape:connector-curvature="0"
         style="color:#000000;fill:#d5d5d5;fill-opacity:1;fill-rule:evenodd;stroke:#5a5a5a;stroke-width:0.63330007;stroke-linecap:square;stroke-linejoin:round;stroke-miterlimit:0;stroke-opacity:1"
         d="M 4,4.452769 1.46667,1.286102 H -5.5 l 2.53333,3.166667 z"
         id="use5800"
         inkstitch:stroke_method="zigzag_stitch" />
      <path
         sodipodi:nodetypes="ccccc"
         inkscape:connector-curvature="0"
         style="color:#000000;opacity:0.5;fill:#d5d5d5;fill-opacity:1;fill-rule:evenodd;stroke:#858585;stroke-width:0.63339424;stroke-linecap:square;stroke-linejoin:round;stroke-miterlimit:0;stroke-opacity:1"
         d="M 4,2.552769 1.46667,-0.613898 H -5.5 l 2.53333,3.166667 z"
         id="use5864"
         inkstitch:stroke_method="zigzag_stitch" />
      <g
         id="g5771">
        <path
           sodipodi:nodetypes="ccccccccc"
           inkscape:connector-curvature="0"
           style="fill:#aa0000;fill-rule:evenodd;stroke:#aa0000;stroke-width:1px"
           d="m -1.0666699,-5.0472339 h 4.4333333 l 0.6333333,0.6333333 V 0.01943274 L 3.3666634,0.65276607 H -1.0666699 L -1.7000032,0.01943274 V -4.4139006 Z"
           id="path8011"
           inkstitch:stroke_method="zigzag_stitch" />
        <path
           inkscape:connector-curvature="0"
           id="path8023"
           d="m -0.43333658,-3.8755672 c 0,0 3.16666668,3.16666661 3.16666668,3.16666661"
           style="fill:none;stroke:#ffffff;stroke-width:1.70000005"
           inkstitch:stroke_method="zigzag_stitch" />
        <path
           inkscape:connector-curvature="0"
           id="path8025"
           d="m 2.7333301,-3.8755672 c 0,0 -3.16666668,3.16666661 -3.16666668,3.16666661"
           style="fill:none;stroke:#ffffff;stroke-width:1.79999995;stroke-linejoin:round"
           inkstitch:stroke_method="zigzag_stitch" />
      </g>
    </symbol>
  </defs>
  <metadata
     id="metadata13255">
    <rdf:RDF>
      <cc:Work
         rdf:about="">
        <dc:format>image/svg+xml</dc:format>
        <dc:type
           rdf:resource="http://purl.org/dc/dcmitype/StillImage" />
        <dc:creator>
          <cc:Agent>
            <dc:title>Evan West at Wild West Designs</dc:title>
          </cc:Agent>
        </dc:creator>
        <dc:rights>
          <cc:Agent>
            <dc:title>License to Use</dc:title>
          </cc:Agent>
        </dc:rights>
        <dc:publisher>
          <cc:Agent>
            <dc:title>Wild West Designs</dc:title>
          </cc:Agent>
        </dc:publisher>
        <dc:source>www.wildwestdesigns.biz</dc:source>
      </cc:Work>
    </rdf:RDF>
    <inkstitch:min_stitch_len_mm>1</inkstitch:min_stitch_len_mm>
    <inkstitch:collapse_len_mm>3</inkstitch:collapse_len_mm>
    <inkstitch:inkstitch_svg_version>1</inkstitch:inkstitch_svg_version>
  </metadata>
  <g
     sodipodi:insensitive="true"
     inkscape:label="Instructions"
     id="layer7"
     inkscape:groupmode="layer"
     style="display:inline">
    <text
       id="text13371"
       y="27.42857"
       x="121.51934"
       style="font-style:normal;font-variant:normal;font-weight:normal;font-stretch:normal;font-size:4.93889px;line-height:6.61458px;font-family:sans-serif;-inkscape-font-specification:sans-serif;letter-spacing:0px;word-spacing:0px;fill:#000000;fill-opacity:1;stroke:none;stroke-width:0.264583px;stroke-linecap:butt;stroke-linejoin:miter;stroke-opacity:1"
       xml:space="preserve"><tspan
         style="stroke-width:0.264583px"
         y="27.42857"
         x="121.51934"
         id="tspan13369"
         sodipodi:role="line">100%</tspan></text>
    <text
       id="text13375"
       y="27.050596"
       x="151.0015"
       style="font-style:normal;font-variant:normal;font-weight:normal;font-stretch:normal;font-size:4.93889px;line-height:6.61458px;font-family:sans-serif;-inkscape-font-specification:sans-serif;letter-spacing:0px;word-spacing:0px;fill:#000000;fill-opacity:1;stroke:none;stroke-width:0.264583px;stroke-linecap:butt;stroke-linejoin:miter;stroke-opacity:1"
       xml:space="preserve"><tspan
         style="stroke-width:0.264583px"
         y="27.050596"
         x="151.0015"
         id="tspan13373"
         sodipodi:role="line">0%</tspan></text>
    <text
       id="text13379"
       y="38.200893"
       x="122.27529"
       style="font-style:normal;font-variant:normal;font-weight:normal;font-stretch:normal;font-size:4.93889px;line-height:6.61458px;font-family:sans-serif;-inkscape-font-specification:sans-serif;letter-spacing:0px;word-spacing:0px;fill:#000000;fill-opacity:1;stroke:none;stroke-width:0.264583px;stroke-linecap:butt;stroke-linejoin:miter;stroke-opacity:1"
       xml:space="preserve"><tspan
         style="stroke-width:0.264583px"
         y="38.200893"
         x="122.27529"
         id="tspan13377"
         sodipodi:role="line">75%</tspan></text>
    <text
       id="text13383"
       y="38.578869"
       x="151.19048"
       style="font-style:normal;font-variant:normal;font-weight:normal;font-stretch:normal;font-size:4.93889px;line-height:6.61458px;font-family:sans-serif;-inkscape-font-specification:sans-serif;letter-spacing:0px;word-spacing:0px;fill:#000000;fill-opacity:1;stroke:none;stroke-width:0.264583px;stroke-linecap:butt;stroke-linejoin:miter;stroke-opacity:1"
       xml:space="preserve"><tspan
         style="stroke-width:0.264583px"
         y="38.578869"
         x="151.19048"
         id="tspan13381"
         sodipodi:role="line">25%</tspan></text>
    <text
       id="text13387"
       y="50.863094"
       x="123.40922"
       style="font-style:normal;font-variant:normal;font-weight:normal;font-stretch:normal;font-size:4.93889px;line-height:6.61458px;font-family:sans-serif;-inkscape-font-specification:sans-serif;letter-spacing:0px;word-spacing:0px;fill:#000000;fill-opacity:1;stroke:none;stroke-width:0.264583px;stroke-linecap:butt;stroke-linejoin:miter;stroke-opacity:1"
       xml:space="preserve"><tspan
         style="stroke-width:0.264583px"
         y="50.863094"
         x="123.40922"
         id="tspan13385"
         sodipodi:role="line">25%</tspan></text>
    <text
       id="text13391"
       y="51.430061"
       x="153.26935"
       style="font-style:normal;font-variant:normal;font-weight:normal;font-stretch:normal;font-size:4.93889px;line-height:6.61458px;font-family:sans-serif;-inkscape-font-specification:sans-serif;letter-spacing:0px;word-spacing:0px;fill:#000000;fill-opacity:1;stroke:none;stroke-width:0.264583px;stroke-linecap:butt;stroke-linejoin:miter;stroke-opacity:1"
       xml:space="preserve"><tspan
         style="stroke-width:0.264583px"
         y="51.430061"
         x="153.26935"
         id="tspan13389"
         sodipodi:role="line">75%</tspan></text>
    <text
       id="text13395"
       y="63.14732"
       x="123.7872"
       style="font-style:normal;font-variant:normal;font-weight:normal;font-stretch:normal;font-size:4.93889px;line-height:6.61458px;font-family:sans-serif;-inkscape-font-specification:sans-serif;letter-spacing:0px;word-spacing:0px;fill:#000000;fill-opacity:1;stroke:none;stroke-width:0.264583px;stroke-linecap:butt;stroke-linejoin:miter;stroke-opacity:1"
       xml:space="preserve"><tspan
         style="stroke-width:0.264583px"
         y="63.14732"
         x="123.7872"
         id="tspan13393"
         sodipodi:role="line">0%</tspan></text>
    <text
       id="text13399"
       y="63.714287"
       x="152.13542"
       style="font-style:normal;font-variant:normal;font-weight:normal;font-stretch:normal;font-size:4.93889px;line-height:6.61458px;font-family:sans-serif;-inkscape-font-specification:sans-serif;letter-spacing:0px;word-spacing:0px;fill:#000000;fill-opacity:1;stroke:none;stroke-width:0.264583px;stroke-linecap:butt;stroke-linejoin:miter;stroke-opacity:1"
       xml:space="preserve"><tspan
         style="stroke-width:0.264583px"
         y="63.714287"
         x="152.13542"
         id="tspan13397"
         sodipodi:role="line">100%</tspan></text>
    <text
       id="text13403"
       y="26.672619"
       x="180.29465"
       style="font-style:normal;font-variant:normal;font-weight:normal;font-stretch:normal;font-size:4.93889px;line-height:6.61458px;font-family:sans-serif;-inkscape-font-specification:sans-serif;letter-spacing:0px;word-spacing:0px;fill:#000000;fill-opacity:1;stroke:none;stroke-width:0.264583px;stroke-linecap:butt;stroke-linejoin:miter;stroke-opacity:1"
       xml:space="preserve"><tspan
         style="stroke-width:0.264583px"
         y="26.672619"
         x="180.29465"
         id="tspan13401"
         sodipodi:role="line">=100%</tspan></text>
    <text
       id="text13403-7"
       y="38.843464"
       x="180.29465"
       style="font-style:normal;font-variant:normal;font-weight:normal;font-stretch:normal;font-size:4.93889px;line-height:6.61458px;font-family:sans-serif;-inkscape-font-specification:sans-serif;letter-spacing:0px;word-spacing:0px;fill:#000000;fill-opacity:1;stroke:none;stroke-width:0.264583px;stroke-linecap:butt;stroke-linejoin:miter;stroke-opacity:1"
       xml:space="preserve"><tspan
         style="stroke-width:0.264583px"
         y="38.843464"
         x="180.29465"
         id="tspan13401-1"
         sodipodi:role="line">=100%</tspan></text>
    <text
       id="text13403-3"
       y="51.014309"
       x="180.29465"
       style="font-style:normal;font-variant:normal;font-weight:normal;font-stretch:normal;font-size:4.93889px;line-height:6.61458px;font-family:sans-serif;-inkscape-font-specification:sans-serif;letter-spacing:0px;word-spacing:0px;fill:#000000;fill-opacity:1;stroke:none;stroke-width:0.264583px;stroke-linecap:butt;stroke-linejoin:miter;stroke-opacity:1"
       xml:space="preserve"><tspan
         style="stroke-width:0.264583px"
         y="51.014309"
         x="180.29465"
         id="tspan13401-3"
         sodipodi:role="line">=100%</tspan></text>
    <text
       id="text13403-38"
       y="63.714317"
       x="180.29465"
       style="font-style:normal;font-variant:normal;font-weight:normal;font-stretch:normal;font-size:4.93889px;line-height:6.61458px;font-family:sans-serif;-inkscape-font-specification:sans-serif;letter-spacing:0px;word-spacing:0px;fill:#000000;fill-opacity:1;stroke:none;stroke-width:0.264583px;stroke-linecap:butt;stroke-linejoin:miter;stroke-opacity:1"
       xml:space="preserve"><tspan
         style="stroke-width:0.264583px"
         y="63.714317"
         x="180.29465"
         id="tspan13401-5"
         sodipodi:role="line">=100%</tspan></text>
    <text
       id="text13445"
       y="106.42559"
       x="31.56101"
       style="font-style:normal;font-variant:normal;font-weight:normal;font-stretch:normal;font-size:4.93889px;line-height:6.61458px;font-family:sans-serif;-inkscape-font-specification:sans-serif;letter-spacing:0px;word-spacing:0px;fill:#000000;fill-opacity:1;stroke:none;stroke-width:0.264583px;stroke-linecap:butt;stroke-linejoin:miter;stroke-opacity:1"
       xml:space="preserve"><tspan
         style="stroke-width:0.264583px"
         y="106.42559"
         x="31.56101"
         id="tspan13443"
         sodipodi:role="line">Instructions</tspan></text>
    <text
       id="text13449"
       y="116.25298"
       x="0.94494045"
       style="font-style:normal;font-variant:normal;font-weight:normal;font-stretch:normal;font-size:4.93889px;line-height:6.61458px;font-family:sans-serif;-inkscape-font-specification:sans-serif;letter-spacing:0px;word-spacing:0px;fill:#000000;fill-opacity:1;stroke:none;stroke-width:0.264583px;stroke-linecap:butt;stroke-linejoin:miter;stroke-opacity:1"
       xml:space="preserve"><tspan
         style="stroke-width:0.264583px"
         y="116.25298"
         x="0.94494045"
         id="tspan13447"
         sodipodi:role="line">1. Many of the conditions of faux blends</tspan><tspan
         id="tspan13451"
         style="stroke-width:0.264583px"
         y="122.86756"
         x="0.94494045"
         sodipodi:role="line">also apply here.  Stitch angle, start/end</tspan><tspan
         id="tspan13453"
         style="stroke-width:0.264583px"
         y="129.48215"
         x="0.94494045"
         sodipodi:role="line">sequencing, typically go from light to </tspan><tspan
         id="tspan13455"
         style="stroke-width:0.264583px"
         y="136.09673"
         x="0.94494045"
         sodipodi:role="line">dark colors (depends on the design as</tspan><tspan
         id="tspan13457"
         style="stroke-width:0.264583px"
         y="142.7113"
         x="0.94494045"
         sodipodi:role="line">well)</tspan></text>
    <text
       id="text13461"
       y="152.16071"
       x="1.3229166"
       style="font-style:normal;font-variant:normal;font-weight:normal;font-stretch:normal;font-size:4.93889px;line-height:6.61458px;font-family:sans-serif;-inkscape-font-specification:sans-serif;letter-spacing:0px;word-spacing:0px;fill:#000000;fill-opacity:1;stroke:none;stroke-width:0.264583px;stroke-linecap:butt;stroke-linejoin:miter;stroke-opacity:1"
       xml:space="preserve"><tspan
         style="stroke-width:0.264583px"
         y="152.16071"
         x="1.3229166"
         id="tspan13459"
         sodipodi:role="line">2. Biggest difference is math is involved</tspan><tspan
         id="tspan13463"
         style="stroke-width:0.264583px"
         y="158.77528"
         x="1.3229166"
         sodipodi:role="line">and the more complicated the blend, </tspan><tspan
         id="tspan13465"
         style="stroke-width:0.264583px"
         y="165.38986"
         x="1.3229166"
         sodipodi:role="line">the more complicated the math.  Just</tspan><tspan
         id="tspan13469"
         style="stroke-width:0.264583px"
         y="172.00444"
         x="1.3229166"
         sodipodi:role="line">have to make sure that each layer for a</tspan><tspan
         id="tspan13473"
         style="stroke-width:0.264583px"
         y="178.61903"
         x="1.3229166"
         sodipodi:role="line">given section equals 100% of the </tspan><tspan
         id="tspan13475"
         style="stroke-width:0.264583px"
         y="185.23361"
         x="1.3229166"
         sodipodi:role="line">density for that section that you are </tspan><tspan
         id="tspan13477"
         style="stroke-width:0.264583px"
         y="191.84819"
         x="1.3229166"
         sodipodi:role="line">wanting.</tspan></text>
    <text
       id="text13481"
       y="202.43153"
       x="1.3229166"
       style="font-style:normal;font-variant:normal;font-weight:normal;font-stretch:normal;font-size:4.93889px;line-height:6.61458px;font-family:sans-serif;-inkscape-font-specification:sans-serif;letter-spacing:0px;word-spacing:0px;fill:#000000;fill-opacity:1;stroke:none;stroke-width:0.264583px;stroke-linecap:butt;stroke-linejoin:miter;stroke-opacity:1"
       xml:space="preserve"><tspan
         style="stroke-width:0.264583px"
         y="202.43153"
         x="1.3229166"
         id="tspan13479"
         sodipodi:role="line">3. This can involve more layers of colors</tspan><tspan
         id="tspan13483"
         style="stroke-width:0.264583px"
         y="209.04611"
         x="1.3229166"
         sodipodi:role="line">and more increments of density</tspan><tspan
         id="tspan13485"
         style="stroke-width:0.264583px"
         y="215.66069"
         x="1.3229166"
         sodipodi:role="line">variation.  The biggest factor is the </tspan><tspan
         id="tspan13487"
         style="stroke-width:0.264583px"
         y="222.27527"
         x="1.3229166"
         sodipodi:role="line">size/shape of the design and the </tspan><tspan
         id="tspan13489"
         style="stroke-width:0.264583px"
         y="228.88986"
         x="1.3229166"
         sodipodi:role="line">specifics of the project.</tspan></text>
    <text
       id="text13493"
       y="238.71725"
       x="1.5119048"
       style="font-style:normal;font-variant:normal;font-weight:normal;font-stretch:normal;font-size:4.93889px;line-height:6.61458px;font-family:sans-serif;-inkscape-font-specification:sans-serif;letter-spacing:0px;word-spacing:0px;fill:#000000;fill-opacity:1;stroke:none;stroke-width:0.264583px;stroke-linecap:butt;stroke-linejoin:miter;stroke-opacity:1"
       xml:space="preserve"><tspan
         style="stroke-width:0.264583px"
         y="238.71725"
         x="1.5119048"
         id="tspan13491"
         sodipodi:role="line">4. What makes this a true blend </tspan><tspan
         id="tspan13495"
         style="stroke-width:0.264583px"
         y="245.33183"
         x="1.5119048"
         sodipodi:role="line">compared to a faux blend is that each</tspan><tspan
         id="tspan13497"
         style="stroke-width:0.264583px"
         y="251.94641"
         x="1.5119048"
         sodipodi:role="line">section of the layers are actually </tspan><tspan
         id="tspan13499"
         style="stroke-width:0.264583px"
         y="258.561"
         x="1.5119048"
         sodipodi:role="line">mixing with each other.</tspan></text>
  </g>
  <g
     style="display:inline"
     inkscape:label="Base"
     inkscape:groupmode="layer"
     id="layer1"
     transform="translate(0, -197)">
    <path
       style="display:inline;fill:#aacae6;fill-opacity:1;stroke:none;stroke-width:0.635;stroke-miterlimit:4;stroke-dasharray:none;stroke-dashoffset:0"
       d="m 25.324406,219.51488 h 29.104166 v 12.47321 H 25.324406 Z"
       id="rect17768-2"
       inkscape:connector-curvature="0"
       inkstitch:underpath="False"
       inkstitch:fill_underlay="False" />
    <g
       id="command_group2"
       inkscape:label="Ink/Stitch Command: Fill stitch ending position"
       transform="matrix(0.264583 0 0 0.264583 47.1731 213.704)"
       style="display:inline">
      <path
         id="command_connector2"
         d="M 65.690483,85.210474 27.422291,68.931063"
         style="fill:none;stroke:#000000;stroke-width:1px;stroke-opacity:0.5"
         inkscape:connection-start="#command_use7698"
         inkscape:connection-end="#rect17768-2"
         inkscape:label="connector"
         inkscape:connector-type="polyline"
         inkscape:connector-curvature="0" />
      <use
         id="command_use7698"
         xlink:href="#inkstitch_fill_end"
         height="100%"
         width="100%"
         x="65.714302"
         y="85.095619"
         inkscape:label="command marker" />
    </g>
    <g
       id="command_group1"
       inkscape:label="Ink/Stitch Command: Fill stitch starting position"
       transform="matrix(0.264583 0 0 0.264583 -21.2479 201.944)"
       style="display:inline">
      <path
         id="command_connector1"
         d="m 141.51724,55.131518 34.5043,13.434679"
         style="fill:none;stroke:#000000;stroke-width:1px;stroke-opacity:0.5"
         inkscape:connection-start="#command_use2805"
         inkscape:connection-end="#rect17768-2"
         inkscape:label="connector"
         inkscape:connector-type="polyline"
         inkscape:connector-curvature="0" />
      <use
         id="command_use2805"
         xlink:href="#inkstitch_fill_start"
         height="100%"
         width="100%"
         x="141.51465"
         y="55.095619"
         inkscape:label="command marker" />
    </g>
    <path
       style="display:inline;fill:#aacae6;fill-opacity:1;stroke:none;stroke-width:0.635;stroke-miterlimit:4;stroke-dasharray:none;stroke-dashoffset:0"
       d="m 25.324402,231.9881 h 29.104166 v 12.47321 H 25.324402 Z"
       id="rect17768-3-7"
       inkscape:connector-curvature="0"
       inkstitch:row_spacing_mm=".8"
       inkstitch:underpath="False"
       inkstitch:fill_underlay="False" />
    <g
       id="command_group4"
       inkscape:label="Ink/Stitch Command: Fill stitch ending position"
       transform="matrix(0.264583 0 0 0.264583 -1.20271 213.036)"
       style="display:inline">
      <path
         id="command_connector4"
         d="M 65.690468,132.35337 100.26008,118.01453"
         style="fill:none;stroke:#000000;stroke-width:1px;stroke-opacity:0.5"
         inkscape:connection-start="#command_use2501"
         inkscape:connection-end="#rect17768-3-7"
         inkscape:label="connector"
         inkscape:connector-type="polyline"
         inkscape:connector-curvature="0" />
      <use
         id="command_use2501"
         xlink:href="#inkstitch_fill_end"
         height="100%"
         width="100%"
         x="65.714287"
         y="132.23851"
         inkscape:label="command marker" />
    </g>
    <g
       id="command_group3"
       inkscape:label="Ink/Stitch Command: Fill stitch starting position"
       transform="matrix(0.264583 0 0 0.264583 29.8006 200.742)"
       style="display:inline">
      <path
         id="command_connector3"
         d="M 130.8753,102.2744 93.082201,118.31838"
         style="fill:none;stroke:#000000;stroke-width:1px;stroke-opacity:0.5"
         inkscape:connection-start="#command_use9824"
         inkscape:connection-end="#rect17768-3-7"
         inkscape:label="connector"
         inkscape:connector-type="polyline"
         inkscape:connector-curvature="0" />
      <use
         id="command_use9824"
         xlink:href="#inkstitch_fill_start"
         height="100%"
         width="100%"
         x="130.87271"
         y="102.2385"
         inkscape:label="command marker" />
    </g>
    <path
       style="display:inline;fill:#aacae6;fill-opacity:1;stroke:none;stroke-width:0.635;stroke-miterlimit:4;stroke-dasharray:none;stroke-dashoffset:0"
       d="M 25.324394,244.4613 H 54.42856 v 12.47322 H 25.324394 Z"
       id="rect17768-6-0"
       inkscape:connector-curvature="0"
       inkstitch:row_spacing_mm="1.9"
       inkstitch:underpath="False"
       inkstitch:fill_underlay="False" />
    <g
       id="command_group6"
       inkscape:label="Ink/Stitch Command: Fill stitch ending position"
       transform="matrix(0.264583 0 0 0.264583 47.3067 213.437)"
       style="display:inline">
      <path
         id="command_connector6"
         d="M 65.690438,179.49617 26.9173,163.50808"
         style="fill:none;stroke:#000000;stroke-width:1px;stroke-opacity:0.5"
         inkscape:connection-start="#command_use8497"
         inkscape:connection-end="#rect17768-6-0"
         inkscape:label="connector"
         inkscape:connector-type="polyline"
         inkscape:connector-curvature="0" />
      <use
         id="command_use8497"
         xlink:href="#inkstitch_fill_end"
         height="100%"
         width="100%"
         x="65.714256"
         y="179.38132"
         inkscape:label="command marker" />
    </g>
    <g
       id="command_group5"
       inkscape:label="Ink/Stitch Command: Fill stitch starting position"
       transform="matrix(0.264583 0 0 0.264583 -25.1233 200.608)"
       style="display:inline">
      <path
         id="command_connector5"
         d="m 149.06404,149.41722 41.60465,17.18335"
         style="fill:none;stroke:#000000;stroke-width:1px;stroke-opacity:0.5"
         inkscape:connection-start="#command_use6590"
         inkscape:connection-end="#rect17768-6-0"
         inkscape:label="connector"
         inkscape:connector-type="polyline"
         inkscape:connector-curvature="0" />
      <use
         id="command_use6590"
         xlink:href="#inkstitch_fill_start"
         height="100%"
         width="100%"
         x="149.06145"
         y="149.38132"
         inkscape:label="command marker" />
    </g>
  </g>
  <g
     inkscape:label="Top Blend"
     id="layer6"
     inkscape:groupmode="layer"
     style="display:inline">
    <path
       inkscape:connector-curvature="0"
       id="rect17768-62-9"
       d="M 25.324406,34.988098 H 54.428572 V 47.461312 H 25.324406 Z"
       style="display:inline;fill:#002244;fill-opacity:1;stroke:none;stroke-width:0.635;stroke-miterlimit:4;stroke-dasharray:none;stroke-dashoffset:0"
       inkstitch:row_spacing_mm="1.9"
       inkstitch:underpath="False"
       inkstitch:fill_underlay="False" />
    <g
       id="command_group8"
       inkscape:label="Ink/Stitch Command: Fill stitch ending position"
       transform="matrix(0.264583 0 0 0.264583 45.4358 16.3034)"
       style="display:inline">
      <path
         id="command_connector8"
         d="M 65.690483,132.35335 32.540868,117.76234"
         style="fill:none;stroke:#000000;stroke-width:1px;stroke-opacity:0.5"
         inkscape:connection-start="#command_use4590"
         inkscape:connection-end="#rect17768-62-9"
         inkscape:label="connector"
         inkscape:connector-type="polyline"
         inkscape:connector-curvature="0" />
      <use
         id="command_use4590"
         xlink:href="#inkstitch_fill_end"
         height="100%"
         width="100%"
         x="65.714302"
         y="132.23849"
         inkscape:label="command marker" />
    </g>
    <g
       id="command_group7"
       inkscape:label="Ink/Stitch Command: Fill stitch starting position"
       transform="matrix(0.264583 0 0 0.264583 -21.6488 3.34087)"
       style="display:inline">
      <path
         id="command_connector7"
         d="m 132.36918,102.27439 45.16757,18.44658"
         style="fill:none;stroke:#000000;stroke-width:1px;stroke-opacity:0.5"
         inkscape:connection-start="#command_use8014"
         inkscape:connection-end="#rect17768-62-9"
         inkscape:label="connector"
         inkscape:connector-type="polyline"
         inkscape:connector-curvature="0" />
      <use
         id="command_use8014"
         xlink:href="#inkstitch_fill_start"
         height="100%"
         width="100%"
         x="132.36659"
         y="102.23849"
         inkscape:label="command marker" />
    </g>
    <path
       inkscape:connector-curvature="0"
       id="rect17768-3-9-3"
       d="M 25.324402,47.461311 H 54.428568 V 59.934525 H 25.324402 Z"
       style="display:inline;fill:#002244;fill-opacity:1;stroke:none;stroke-width:0.635;stroke-miterlimit:4;stroke-dasharray:none;stroke-dashoffset:0"
       inkstitch:row_spacing_mm=".8"
       inkstitch:underpath="False"
       inkstitch:fill_underlay="False" />
    <g
       id="command_group10"
       inkscape:label="Ink/Stitch Command: Fill stitch ending position"
       transform="matrix(0.264583 0 0 0.264583 -4.27631 17.9071)"
       style="display:inline">
      <path
         id="command_connector10"
         d="M 65.690468,179.4962 112.94396,158.84401"
         style="fill:none;stroke:#000000;stroke-width:1px;stroke-opacity:0.5"
         inkscape:connection-start="#command_use7037"
         inkscape:connection-end="#rect17768-3-9-3"
         inkscape:label="connector"
         inkscape:connector-type="polyline"
         inkscape:connector-curvature="0" />
      <use
         id="command_use7037"
         xlink:href="#inkstitch_fill_end"
         height="100%"
         width="100%"
         x="65.714287"
         y="179.38135"
         inkscape:label="command marker" />
    </g>
    <g
       id="command_group9"
       inkscape:label="Ink/Stitch Command: Fill stitch starting position"
       transform="matrix(0.264583 0 0 0.264583 33.8096 0.26727)"
       style="display:inline">
      <path
         id="command_connector9"
         d="M 144.65986,149.41725 77.557632,178.3714"
         style="fill:none;stroke:#000000;stroke-width:1px;stroke-opacity:0.5"
         inkscape:connection-start="#command_use2809"
         inkscape:connection-end="#rect17768-3-9-3"
         inkscape:label="connector"
         inkscape:connector-type="polyline"
         inkscape:connector-curvature="0" />
      <use
         id="command_use2809"
         xlink:href="#inkstitch_fill_start"
         height="100%"
         width="100%"
         x="144.65727"
         y="149.38135"
         inkscape:label="command marker" />
    </g>
    <path
       inkscape:connector-curvature="0"
       id="rect17768-6-1-6"
       d="M 25.324394,59.934525 H 54.42856 V 72.407739 H 25.324394 Z"
       style="display:inline;fill:#002244;fill-opacity:1;stroke:none;stroke-width:0.635;stroke-miterlimit:4;stroke-dasharray:none;stroke-dashoffset:0"
       inkstitch:underpath="False"
       inkstitch:fill_underlay="False" />
    <g
       id="command_group12"
       inkscape:label="Ink/Stitch Command: Fill stitch ending position"
       transform="matrix(0.264583 0 0 0.264583 47.4403 16.5707)">
      <path
         id="command_connector12"
         d="M 65.690438,226.63907 26.412355,210.319"
         style="fill:none;stroke:#000000;stroke-width:1px;stroke-opacity:0.5"
         inkscape:connection-start="#command_use7802"
         inkscape:connection-end="#rect17768-6-1-6"
         inkscape:label="connector"
         inkscape:connector-type="polyline"
         inkscape:connector-curvature="0" />
      <use
         id="command_use7802"
         xlink:href="#inkstitch_fill_end"
         height="100%"
         width="100%"
         x="65.714256"
         y="226.52422"
         inkscape:label="command marker" />
    </g>
    <g
       id="command_group11"
       inkscape:label="Ink/Stitch Command: Fill stitch starting position"
       transform="matrix(0.264583 0 0 0.264583 -22.7179 1.73725)">
      <path
         id="command_connector11"
         d="m 126.70902,196.56011 54.86838,23.45677"
         style="fill:none;stroke:#000000;stroke-width:1px;stroke-opacity:0.5"
         inkscape:connection-start="#command_use7715"
         inkscape:connection-end="#rect17768-6-1-6"
         inkscape:label="connector"
         inkscape:connector-type="polyline"
         inkscape:connector-curvature="0" />
      <use
         id="command_use7715"
         xlink:href="#inkstitch_fill_start"
         height="100%"
         width="100%"
         x="126.70643"
         y="196.52422"
         inkscape:label="command marker" />
    </g>
  </g>
  <g
     id="__inkstitch_stitch_plan_"
     inkscape:groupmode="layer"
     inkscape:label="Exploding View"
     style="display:inline">
    <g
       id="g1"
       inkscape:label="color block 1"
       transform="translate(89.580358,-2.6458333)">
      <path
         id="object7114"
         style="fill:none;stroke:#aac9e5;stroke-width:0.4"
         d="m 95.714302,87.252105 v 5.623296 -5.623296 5.623296 5.623296 5.623293 5.6233 5.62329 5.6233 5.62329 5.6233 h 5.499998 5.5 5.50001 5.5 5.5 5.5 5.5 5.5 5.5 5.5 5.5 5.50001 5.5 5.5 5.5 5.5 5.5 5.5 5.49999 5.5 l -4.45447,-0.89989 H 189.92126 178.58268 167.24409 155.90551 144.56693 133.22835 121.88976 110.55118 99.212598 l 8.755562,0.89989 h 5.43034 5.43034 5.43034 5.43035 5.43034 5.43034 5.43035 5.43034 5.43034 5.43034 5.43034 5.43035 5.43034 5.43034 5.43034 5.43034 5.43034 5.43034 v -5.13936 -5.13936 -5.13936 -5.13936 -5.13935 -5.13936 -5.139357 -5.139357 -5.139354 h -4.45447 -11.33858 -11.33858 -11.33859 -11.33858 -11.33858 -11.33858 -11.33859 -11.33858 -11.338582 l 14.173232,0.944882 h 11.33858 11.33858 11.33858 11.33859 11.33858 11.33858 11.33859 11.33858 l -8.50394,0.944882 H 184.25197 172.91339 161.5748 150.23622 138.89764 127.55906 116.22047 104.88189 95.714302 l 12.002238,0.944882 h 11.33858 11.33858 11.33858 11.33859 11.33858 11.33858 11.33858 11.33859 7.28911 l -4.45447,0.944882 H 189.92126 178.58268 167.24409 155.90551 144.56693 133.22835 121.88976 110.55118 99.212598 l 14.173232,0.944881 h 11.33858 11.33858 11.33858 11.33859 11.33858 11.33858 11.33859 11.33858 l -8.50394,0.944882 H 184.25197 172.91339 161.5748 150.23622 138.89764 127.55906 116.22047 104.88189 95.714302 l 12.002238,0.944882 h 11.33858 11.33858 11.33858 11.33859 11.33858 11.33858 11.33858 11.33859 7.28911 l -4.45447,0.944882 H 189.92126 178.58268 167.24409 155.90551 144.56693 133.22835 121.88976 110.55118 99.212598 l 14.173232,0.944882 h 11.33858 11.33858 11.33858 11.33859 11.33858 11.33858 11.33859 11.33858 l -8.50394,0.944882 H 184.25197 172.91339 161.5748 150.23622 138.89764 127.55906 116.22047 104.88189 95.714302 l 12.002238,0.944882 h 11.33858 11.33858 11.33858 11.33859 11.33858 11.33858 11.33858 11.33859 7.28911 l -4.45447,0.944882 H 189.92126 178.58268 167.24409 155.90551 144.56693 133.22835 121.88976 110.55118 99.212598 l 14.173232,0.944882 h 11.33858 11.33858 11.33858 11.33859 11.33858 11.33858 11.33859 11.33858 l -8.50394,0.944881 H 184.25197 172.91339 161.5748 150.23622 138.89764 127.55906 116.22047 104.88189 95.714302 l 12.002238,0.944882 h 11.33858 11.33858 11.33858 11.33859 11.33858 11.33858 11.33858 11.33859 7.28911 l -4.45447,0.94488 H 189.92126 178.58268 167.24409 155.90551 144.56693 133.22835 121.88976 110.55118 99.212598 l 14.173232,0.94488 h 11.33858 11.33858 11.33858 11.33859 11.33858 11.33858 11.33859 11.33858 l -8.50394,0.94489 H 184.25197 172.91339 161.5748 150.23622 138.89764 127.55906 116.22047 104.88189 95.714302 l 12.002238,0.94488 h 11.33858 11.33858 11.33858 11.33859 11.33858 11.33858 11.33858 11.33859 7.28911 l -4.45447,0.94488 H 189.92126 178.58268 167.24409 155.90551 144.56693 133.22835 121.88976 110.55118 99.212598 l 14.173232,0.94488 h 11.33858 11.33858 11.33858 11.33859 11.33858 11.33858 11.33859 11.33858 l -8.50394,0.94488 H 184.25197 172.91339 161.5748 150.23622 138.89764 127.55906 116.22047 104.88189 95.714302 l 12.002238,0.94489 h 11.33858 11.33858 11.33858 11.33859 11.33858 11.33858 11.33858 11.33859 7.28911 l -4.45447,0.94488 H 189.92126 178.58268 167.24409 155.90551 144.56693 133.22835 121.88976 110.55118 99.212598 l 14.173232,0.94488 h 11.33858 11.33858 11.33858 11.33859 11.33858 11.33858 11.33859 11.33858 l -8.50394,0.94488 H 184.25197 172.91339 161.5748 150.23622 138.89764 127.55906 116.22047 104.88189 95.714302 l 12.002238,0.94488 h 11.33858 11.33858 11.33858 11.33859 11.33858 11.33858 11.33858 11.33859 7.28911 l -4.45447,0.94488 H 189.92126 178.58268 167.24409 155.90551 144.56693 133.22835 121.88976 110.55118 99.212598 l 14.173232,0.94489 h 11.33858 11.33858 11.33858 11.33859 11.33858 11.33858 11.33859 11.33858 l -8.50394,0.94488 H 184.25197 172.91339 161.5748 150.23622 138.89764 127.55906 116.22047 104.88189 95.714302 l 12.002238,0.94488 h 11.33858 11.33858 11.33858 11.33859 11.33858 11.33858 11.33858 11.33859 7.28911 l -4.45447,0.94488 H 189.92126 178.58268 167.24409 155.90551 144.56693 133.22835 121.88976 110.55118 99.212598 l 14.173232,0.94488 h 11.33858 11.33858 11.33858 11.33859 11.33858 11.33858 11.33859 11.33858 l -8.50394,0.94489 H 184.25197 172.91339 161.5748 150.23622 138.89764 127.55906 116.22047 104.88189 95.714302 l 12.002238,0.94488 h 11.33858 11.33858 11.33858 11.33859 11.33858 11.33858 11.33858 11.33859 7.28911 L 201.25984,120 H 189.92126 178.58268 167.24409 155.90551 144.56693 133.22835 121.88976 110.55118 99.212598 l 14.173232,0.94488 h 11.33858 11.33858 11.33858 11.33859 11.33858 11.33858 11.33859 11.33858 l -8.50394,0.94488 H 184.25197 172.91339 161.5748 150.23622 138.89764 127.55906 116.22047 104.88189 95.714302 l 12.002238,0.94489 h 11.33858 11.33858 11.33858 11.33859 11.33858 11.33858 11.33858 11.33859 7.28911 l -4.45447,0.94488 H 189.92126 178.58268 167.24409 155.90551 144.56693 133.22835 121.88976 110.55118 99.212598 l 14.173232,0.94488 h 11.33858 11.33858 11.33858 11.33859 11.33858 11.33858 11.33859 11.33858 l -8.50394,0.94488 H 184.25197 172.91339 161.5748 150.23622 138.89764 127.55906 116.22047 104.88189 95.714302 l 12.002238,0.94488 h 11.33858 11.33858 11.33858 11.33859 11.33858 11.33858 11.33858 11.33859 7.28911 l -4.45447,0.94489 H 189.92126 178.58268 167.24409 155.90551 144.56693 133.22835 121.88976 110.55118 99.212598 l 14.173232,0.94488 h 11.33858 11.33858 11.33858 11.33859 11.33858 11.33858 11.33859 11.33858 l -8.50394,0.94488 H 184.25197 172.91339 161.5748 150.23622 138.89764 127.55906 116.22047 104.88189 95.714302 l 12.002238,0.94488 h 11.33858 11.33858 11.33858 11.33859 11.33858 11.33858 11.33858 11.33859 7.28911 l -1e-5,7.17115 v 5.1036 5.10361 5.10361 5.10361 5.1036 5.10361 5.10361 5.1036 h -4.45446 -11.33858 -11.33858 -11.33859 -11.33858 -11.33858 -11.33858 -11.33859 -11.33858 -11.338582 l -3.498312,-5.12836 v -5.12835 -5.12836 -5.12835 -5.12836 -5.12835 -5.12836 -5.12835 -5.12836 h 5.500004 5.5 5.5 5.5 5.5 5.5 5.50001 5.5 5.5 5.5 5.5 5.5 5.5 5.5 5.5 5.5 5.5 5.5 5.5 5.5 l -12.95839,0.80087 h -11.33859 -11.33858 -11.33858 -11.33859 -11.33858 -11.33858 -11.33858 -11.33859 -6.332954 l 9.167604,3.02362 h 11.33858 11.33859 11.33858 11.33858 11.33858 11.33859 11.33858 11.33858 10.12375 l -7.2891,3.02362 H 187.08661 175.74803 164.40945 153.07087 141.73228 130.3937 119.05512 107.71654 96.377953 l 2.834645,3.02363 h 11.338582 11.33858 11.33859 11.33858 11.33858 11.33858 11.33859 11.33858 11.33858 4.45446 l -12.95839,3.02362 h -11.33859 -11.33858 -11.33858 -11.33859 -11.33858 -11.33858 -11.33858 -11.33859 -6.332954 l 9.167604,3.02362 h 11.33858 11.33859 11.33858 11.33858 11.33858 11.33859 11.33858 11.33858 10.12375 l -7.2891,3.02362 H 187.08661 175.74803 164.40945 153.07087 141.73228 130.3937 119.05512 107.71654 96.377953 l 2.834645,3.02362 h 11.338582 11.33858 11.33859 11.33858 11.33858 11.33858 11.33859 11.33858 11.33858 4.45446 l -12.95839,3.02363 h -11.33859 -11.33858 -11.33858 -11.33859 -11.33858 -11.33858 -11.33858 -11.33859 -6.332954 l 9.167604,3.02362 h 11.33858 11.33859 11.33858 11.33858 11.33858 11.33859 11.33858 11.33858 10.12375 l -7.2891,3.02362 H 187.08661 175.74803 164.40945 153.07087 141.73228 130.3937 119.05512 107.71654 96.377953 l 2.834645,3.02362 h 11.338582 11.33858 11.33859 11.33858 11.33858 11.33858 11.33859 11.33858 11.33858 4.45446 l -12.95839,3.02362 h -11.33859 -11.33858 -11.33858 -11.33859 -11.33858 -11.33858 -11.33858 -11.33859 -6.332954 l 9.167604,3.02363 h 11.33858 11.33859 11.33858 11.33858 11.33858 11.33859 11.33858 11.33858 10.12375 l -7.2891,3.02362 H 187.08661 175.74803 164.40945 153.07087 141.73228 130.3937 119.05512 107.71654 96.377953 l -0.663697,4.86664 7.034134,-0.85541 h 5.41926 5.41926 5.41926 5.41925 5.41926 5.41926 5.41926 5.41925 5.41926 5.41926 5.41925 5.41926 5.41926 5.41925 5.41926 5.41925 5.41926 5.41925 5.41926 v 5.40411 5.40411 5.40411 5.40411 5.4041 5.40411 5.40411 5.4041 h -4.45443 -11.33858 -11.33858 -11.33859 -11.33858 -11.33858 -11.33858 -11.33859 -11.33858 -11.338582 l -3.498342,-5.40411 v -5.4041 -5.40411 -5.40411 -5.40411 -5.40411 -5.4041 -5.40411 h 5.500004 5.5 5.5 5.5 5.5 5.5 5.50001 5.5 5.5 5.5 5.5 5.5 5.5 5.5 5.5 5.5 5.5 5.5 5.5 5.5 l -10.12372,0.14625 H 184.25197 172.91339 161.5748 150.23622 138.89764 127.55906 116.22047 104.88189 95.714256 v 7.1811 h 12.002284 11.33858 11.33858 11.33858 11.33859 11.33858 11.33858 11.33858 11.33859 7.28907 v 7.1811 h -4.45443 -11.33858 -11.33858 -11.33859 -11.33858 -11.33858 -11.33858 -11.33859 -11.33858 -11.338582 l -3.498342,3.59056 6.332984,3.59055 h 11.33859 11.33858 11.33858 11.33858 11.33859 11.33858 11.33858 11.33859 11.33858 l 1.61978,3.59055 -10.12372,3.59055 H 184.25197 172.91339 161.5748 150.23622 138.89764 127.55906 116.22047 104.88189 95.714256 v 7.1811 h 12.002284 11.33858 11.33858 11.33858 11.33859 11.33858 11.33858 11.33858 11.33859 7.28907 v 5.0994 5.09939 -5.09939 5.09939"
         transform="scale(0.264583)"
         inkstitch:stroke_method="manual_stitch" />
    </g>
    <g
       id="g2"
       inkscape:label="color block 2"
       transform="translate(119.44048,-2.6458333)">
      <path
         id="object8644"
         style="fill:none;stroke:#002144;stroke-width:0.4"
         d="m 96.747161,132.2385 h 5.448359 5.44836 5.44836 5.44835 5.44836 5.44836 5.44836 5.44836 5.44836 5.44835 5.44836 5.44836 5.44836 5.44835 5.44836 5.44836 5.44836 5.44835 5.44836 5.44835 v 4.20244 h -4.45447 -11.33858 -11.33858 -11.33859 -11.33858 -11.33858 -11.33858 -11.33859 -11.33858 -11.338582 l -3.498296,3.59056 6.332938,3.59055 h 11.33859 11.33858 11.33858 11.33858 11.33859 11.33858 11.33858 11.33859 11.33858 l 1.61982,3.59055 -10.12376,3.59055 H 184.25197 172.91339 161.5748 150.23622 138.89764 127.55906 116.22047 104.88189 95.714302 v 7.1811 h 12.002238 11.33858 11.33858 11.33858 11.33859 11.33858 11.33858 11.33858 11.33859 7.28911 v 7.1811 h -4.45447 -11.33858 -11.33858 -11.33859 -11.33858 -11.33858 -11.33858 -11.33859 -11.33858 -11.338582 l -3.498296,3.59056 6.332938,3.59055 h 11.33859 11.33858 11.33858 11.33858 11.33859 11.33858 11.33858 11.33859 11.33858 l 1.61982,3.51745 -1.4476,3.51745 -4.40622,-1e-5 h -5.48138 -5.48138 -5.48138 -5.48138 -5.48138 -5.48138 -5.48138 -5.48138 -5.48138 -5.48138 -5.48138 -5.48138 -5.48138 -5.48137 -5.48138 -5.48138 -5.48138 -5.48138 -5.481374 l 6.332954,2.03597 h 11.33859 11.33858 11.33858 11.33858 11.33859 11.33858 11.33858 11.33859 11.33858 l -8.50394,3.02362 H 184.25197 172.91339 161.5748 150.23622 138.89764 127.55906 116.22047 104.88189 95.714286 l 12.002254,3.02363 h 11.33858 11.33858 11.33858 11.33859 11.33858 11.33858 11.33858 11.33859 7.2891 l -4.45446,3.02362 H 189.92126 178.58268 167.24409 155.90551 144.56693 133.22835 121.88976 110.55118 99.212598 l -3.498312,3.02362 h 6.332954 11.33859 11.33858 11.33858 11.33858 11.33859 11.33858 11.33858 11.33859 11.33858 l -8.50394,3.02362 H 184.25197 172.91339 161.5748 150.23622 138.89764 127.55906 116.22047 104.88189 95.714286 l 12.002254,3.02363 h 11.33858 11.33858 11.33858 11.33859 11.33858 11.33858 11.33858 11.33859 7.2891 l -4.45446,3.02362 H 189.92126 178.58268 167.24409 155.90551 144.56693 133.22835 121.88976 110.55118 99.212598 l -3.498312,3.02362 h 6.332954 11.33859 11.33858 11.33858 11.33858 11.33859 11.33858 11.33858 11.33859 11.33858 l -8.50394,3.02362 H 184.25197 172.91339 161.5748 150.23622 138.89764 127.55906 116.22047 104.88189 95.714286 l 12.002254,3.02362 h 11.33858 11.33858 11.33858 11.33859 11.33858 11.33858 11.33858 11.33859 7.2891 l -4.45446,3.02363 H 189.92126 178.58268 167.24409 155.90551 144.56693 133.22835 121.88976 110.55118 99.212598 l -3.498312,3.02362 h 6.332954 11.33859 11.33858 11.33858 11.33858 11.33859 11.33858 11.33858 11.33859 11.33858 l -8.50394,3.02362 H 184.25197 172.91339 161.5748 150.23622 138.89764 127.55906 116.22047 104.88189 95.714286 l 12.002254,3.02362 h 11.33858 11.33858 11.33858 11.33859 11.33858 11.33858 11.33858 11.33859 7.2891 l -5.44665,2.77619 h -5.44665 -5.44664 -5.44665 -5.44664 -5.44665 -5.44664 -5.44665 -5.44664 -5.44665 -5.44665 -5.44664 -5.44665 -5.44664 -5.44665 -5.44664 -5.44664 -5.44665 -5.44664 -5.446642 l -1.067142,5.22376 v 5.16536 5.16536 5.16536 5.16536 5.16537 5.16536 5.16536 5.16536 h 9.167634 11.33858 11.33859 11.33858 11.33858 11.33858 11.33859 11.33858 11.33858 10.12372 l -5.49758,0.59621 h -5.50013 -5.50013 -5.50013 -5.50013 -5.50013 -5.50012 -5.50013 -5.50013 -5.50013 -5.50013 -5.50013 -5.50012 -5.50013 -5.50013 -5.50013 -5.50013 -5.50012 -5.50013 -5.500124 v -5.21061 -5.2106 -5.2106 -5.21061 -5.2106 -5.2106 -5.2106 -5.21061 -5.2106 h 6.332984 11.33859 11.33858 11.33858 11.33858 11.33859 11.33858 11.33858 11.33859 11.33858 l -8.50394,0.94489 H 184.25197 172.91339 161.5748 150.23622 138.89764 127.55906 116.22047 104.88189 95.714256 l 12.002284,0.94488 h 11.33858 11.33858 11.33858 11.33859 11.33858 11.33858 11.33858 11.33859 7.28907 l -4.45443,0.94488 H 189.92126 178.58268 167.24409 155.90551 144.56693 133.22835 121.88976 110.55118 99.212598 l 14.173232,0.94488 h 11.33858 11.33858 11.33858 11.33859 11.33858 11.33858 11.33859 11.33858 l -8.50394,0.94488 H 184.25197 172.91339 161.5748 150.23622 138.89764 127.55906 116.22047 104.88189 95.714256 l 12.002284,0.94488 h 11.33858 11.33858 11.33858 11.33859 11.33858 11.33858 11.33858 11.33859 7.28907 l -4.45443,0.94489 H 189.92126 178.58268 167.24409 155.90551 144.56693 133.22835 121.88976 110.55118 99.212598 l 14.173232,0.94488 h 11.33858 11.33858 11.33858 11.33859 11.33858 11.33858 11.33859 11.33858 l -8.50394,0.94488 H 184.25197 172.91339 161.5748 150.23622 138.89764 127.55906 116.22047 104.88189 95.714256 l 12.002284,0.94488 h 11.33858 11.33858 11.33858 11.33859 11.33858 11.33858 11.33858 11.33859 7.28907 l -4.45443,0.94488 H 189.92126 178.58268 167.24409 155.90551 144.56693 133.22835 121.88976 110.55118 99.212598 l 14.173232,0.94489 h 11.33858 11.33858 11.33858 11.33859 11.33858 11.33858 11.33859 11.33858 l -8.50394,0.94488 H 184.25197 172.91339 161.5748 150.23622 138.89764 127.55906 116.22047 104.88189 95.714256 L 107.71654,240 h 11.33858 11.33858 11.33858 11.33859 11.33858 11.33858 11.33858 11.33859 7.28907 l -4.45443,0.94488 H 189.92126 178.58268 167.24409 155.90551 144.56693 133.22835 121.88976 110.55118 99.212598 l 14.173232,0.94488 h 11.33858 11.33858 11.33858 11.33859 11.33858 11.33858 11.33859 11.33858 l -8.50394,0.94489 H 184.25197 172.91339 161.5748 150.23622 138.89764 127.55906 116.22047 104.88189 95.714256 l 12.002284,0.94488 h 11.33858 11.33858 11.33858 11.33859 11.33858 11.33858 11.33858 11.33859 7.28907 l -4.45443,0.94488 H 189.92126 178.58268 167.24409 155.90551 144.56693 133.22835 121.88976 110.55118 99.212598 l 14.173232,0.94488 h 11.33858 11.33858 11.33858 11.33859 11.33858 11.33858 11.33859 11.33858 l -8.50394,0.94488 H 184.25197 172.91339 161.5748 150.23622 138.89764 127.55906 116.22047 104.88189 95.714256 l 12.002284,0.94489 h 11.33858 11.33858 11.33858 11.33859 11.33858 11.33858 11.33858 11.33859 7.28907 l -4.45443,0.94488 H 189.92126 178.58268 167.24409 155.90551 144.56693 133.22835 121.88976 110.55118 99.212598 l 14.173232,0.94488 h 11.33858 11.33858 11.33858 11.33859 11.33858 11.33858 11.33859 11.33858 l -8.50394,0.94488 H 184.25197 172.91339 161.5748 150.23622 138.89764 127.55906 116.22047 104.88189 95.714256 l 12.002284,0.94488 h 11.33858 11.33858 11.33858 11.33859 11.33858 11.33858 11.33858 11.33859 7.28907 l -4.45443,0.94488 H 189.92126 178.58268 167.24409 155.90551 144.56693 133.22835 121.88976 110.55118 99.212598 l 14.173232,0.94489 h 11.33858 11.33858 11.33858 11.33859 11.33858 11.33858 11.33859 11.33858 l -8.50394,0.94488 H 184.25197 172.91339 161.5748 150.23622 138.89764 127.55906 116.22047 104.88189 95.714256 l 12.002284,0.94488 h 11.33858 11.33858 11.33858 11.33859 11.33858 11.33858 11.33858 11.33859 7.28907 l -4.45443,0.94488 H 189.92126 178.58268 167.24409 155.90551 144.56693 133.22835 121.88976 110.55118 99.212598 l 14.173232,0.94488 h 11.33858 11.33858 11.33858 11.33859 11.33858 11.33858 11.33859 11.33858 l -8.50394,0.94489 H 184.25197 172.91339 161.5748 150.23622 138.89764 127.55906 116.22047 104.88189 95.714256 l 12.002284,0.94488 h 11.33858 11.33858 11.33858 11.33859 11.33858 11.33858 11.33858 11.33859 7.28907 l -4.45443,0.94488 H 189.92126 178.58268 167.24409 155.90551 144.56693 133.22835 121.88976 110.55118 99.212598 l 14.173232,0.94488 h 11.33858 11.33858 11.33858 11.33859 11.33858 11.33858 11.33859 11.33858 l -8.50394,0.94488 H 184.25197 172.91339 161.5748 150.23622 138.89764 127.55906 116.22047 104.88189 95.714256 l 12.002284,0.94489 h 11.33858 11.33858 11.33858 11.33859 11.33858 11.33858 11.33858 11.33859 7.28907 l -4.45443,0.94488 H 189.92126 178.58268 167.24409 155.90551 144.56693 133.22835 121.88976 110.55118 99.212598 l 14.173232,0.94488 h 11.33858 11.33858 11.33858 11.33859 11.33858 11.33858 11.33859 11.33858 l -8.50394,0.94488 H 184.25197 172.91339 161.5748 150.23622 138.89764 127.55906 116.22047 104.88189 95.714256 l 12.002284,0.94488 h 11.33858 11.33858 11.33858 11.33859 11.33858 11.33858 11.33858 11.33859 7.28907 l -4.45443,0.94488 H 189.92126 178.58268 167.24409 155.90551 144.56693 133.22835 121.88976 110.55118 99.212598 l 14.173232,0.94489 h 11.33858 11.33858 11.33858 11.33859 11.33858 11.33858 11.33859 11.33858 l -8.50394,0.94488 H 184.25197 172.91339 161.5748 150.23622 138.89764 127.55906 116.22047 104.88189 95.714256 l 12.002284,0.94488 h 11.33858 11.33858 11.33858 11.33859 11.33858 11.33858 11.33858 11.33859 7.28907 l -4.45443,0.94488 H 189.92126 178.58268 167.24409 155.90551 144.56693 133.22835 121.88976 110.55118 99.212598 l 14.173232,0.94488 h 11.33858 11.33858 11.33858 11.33859 11.33858 11.33858 11.33859 11.33858"
         transform="scale(0.264583)"
         inkstitch:stroke_method="manual_stitch" />
    </g>
    <use
       xlink:href="#inkstitch_ignore_layer"
       y="-10"
       x="0"
       width="100%"
       transform="matrix(0.264583,0,0,0.264583,119.0625,3.4017857)"
       id="useX"
       height="100%"
       inkscape:label="Ink/Stitch Command: ignore layer" />
  </g>
</svg>
