<svg xmlns:inkscape="http://www.inkscape.org/namespaces/inkscape" xmlns:sodipodi="http://sodipodi.sourceforge.net/DTD/sodipodi-0.dtd" xmlns="http://www.w3.org/2000/svg" xmlns:svg="http://www.w3.org/2000/svg" width="35.706306" height="45.614197" viewBox="0 0 35.706306 45.614197" version="1.1" id="svg80" sodipodi:docname="N3-58b.svg">
  <defs id="defs84"/>
  <sodipodi:namedview id="namedview82" pagecolor="#ffffff" bordercolor="#666666" borderopacity="1.0" inkscape:showpageshadow="2" inkscape:pageopacity="0.0" inkscape:pagecheckerboard="0" inkscape:deskcolor="#d1d1d1"/>
  <style type="text/css" id="style2">
polygon.tile { stroke: #000000; stroke-width:3; stroke-linejoin:round }
polygon.ih1 { fill: #ffff80 }
polygon.ih2 { fill: #8080ff }
polygon.ih3 { fill: #ff8080 }
polygon.ih4 { fill: #80ff80 }
polygon.ih5 { fill: #ff80ff }
polygon.ih6 { fill: #80ffff }
polygon.para {opacity: 0.75; fill: #ff0000; stroke: #ff0000 }
</style>
  <polygon class="para" points="109.761,63.123164 77.365051,109.88269 31.397824,78.035662 63.793775,31.276135 " style="stroke:none" id="polygon4" transform="matrix(0.4,0,0,0.4,-11.993924,-8.4523329)"/>
  <path d="M 22.717031,19.779432 23.796896,6.6867641" style="stroke:#000000;stroke-width:0.08px" id="path6"/>
  <path d="M 23.796896,6.6867641 16.237841,19.779432" style="stroke:#000000;stroke-width:0.08px" id="path8"/>
  <path d="m 16.237841,19.779432 h 6.47919" style="stroke:#000000;stroke-width:0.08px" id="path10"/>
  <path d="M 12.998246,14.168289 23.796896,6.6867641" style="stroke:#000000;stroke-width:0.08px" id="path12"/>
  <path d="M 16.237841,19.779432 12.998246,14.168289" style="stroke:#000000;stroke-width:0.08px" id="path14"/>
  <path d="M 12.998246,14.168289 1.1197296,19.779432" style="stroke:#000000;stroke-width:0.08px" id="path16"/>
  <path d="m 1.1197296,19.779432 h 6.479191" style="stroke:#000000;stroke-width:0.08px" id="path18"/>
  <path d="M 7.5989206,19.779432 H 16.237841" style="stroke:#000000;stroke-width:0.08px" id="path20"/>
  <path d="M 10.838516,25.390575 22.717031,19.779432" style="stroke:#000000;stroke-width:0.08px" id="path22"/>
  <path d="m 7.5989206,19.779432 3.2395954,5.611143" style="stroke:#000000;stroke-width:0.08px" id="path24"/>
  <path d="M 10.838516,25.390575 0.03986463,32.872099" style="stroke:#000000;stroke-width:0.08px" id="path26"/>
  <path d="M 0.03986463,32.872099 7.5989206,19.779432" style="stroke:#000000;stroke-width:0.08px" id="path28"/>
  <path d="M 1.1197296,19.779432 0.03986463,32.872099" style="stroke:#000000;stroke-width:0.08px" id="path30"/>
  <path d="M 1.1197296,19.779432 10.721773,8.1021881" style="stroke:#000000;stroke-width:0.08px" id="path32"/>
  <path d="m 10.721773,8.1021881 2.276473,6.0661009" style="stroke:#000000;stroke-width:0.08px" id="path34"/>
  <path d="M 10.721773,8.1021881 4.3301396,7.0406201" style="stroke:#000000;stroke-width:0.08px" id="path36"/>
  <path d="M 7.6864766,0.01405405 10.721773,8.1021881" style="stroke:#000000;stroke-width:0.08px" id="path38"/>
  <path d="M 14.078111,1.0756211 12.998246,14.168289" style="stroke:#000000;stroke-width:0.08px" id="path40"/>
  <path d="M 9.7586506,38.483243 10.838516,25.390575" style="stroke:#000000;stroke-width:0.08px" id="path42"/>
  <path d="m 10.838516,25.390575 2.276472,6.066101" style="stroke:#000000;stroke-width:0.08px" id="path44"/>
  <path d="m 13.114988,31.456676 3.035296,8.088134" style="stroke:#000000;stroke-width:0.08px" id="path46"/>
  <path d="M 19.506621,32.518244 18.426756,45.610908" style="stroke:#000000;stroke-width:0.08px" id="path48"/>
  <path d="m 13.114988,31.456676 6.391633,1.061568" style="stroke:#000000;stroke-width:0.08px" id="path50"/>
  <path d="m 19.506621,32.518244 3.21041,-12.738812" style="stroke:#000000;stroke-width:0.08px" id="path52"/>
  <path d="M 22.717031,19.779432 13.114988,31.456676" style="stroke:#000000;stroke-width:0.08px" id="path54"/>
  <path d="M 10.838516,25.390575 3.2794606,38.483243" style="stroke:#000000;stroke-width:0.08px" id="path56"/>
  <path d="M 12.998246,14.168289 20.557301,1.0756211" style="stroke:#000000;stroke-width:0.08px" id="path58"/>
  <path d="M 31.385136,26.9071 19.506621,32.518244" style="stroke:#000000;stroke-width:0.08px" id="path60"/>
  <path d="m 19.506621,32.518244 h 6.47919" style="stroke:#000000;stroke-width:0.08px" id="path62"/>
  <path d="M 19.506621,32.518244 29.108664,20.841" style="stroke:#000000;stroke-width:0.08px" id="path64"/>
  <path d="m 29.108664,20.841 2.276472,6.0661" style="stroke:#000000;stroke-width:0.08px" id="path66"/>
  <path d="M 29.108664,20.841 22.717031,19.779432" style="stroke:#000000;stroke-width:0.08px" id="path68"/>
  <path d="m 23.796896,6.6867641 2.276472,6.0661009" style="stroke:#000000;stroke-width:0.08px" id="path70"/>
  <path d="M 26.073368,12.752865 29.108664,20.841" style="stroke:#000000;stroke-width:0.08px" id="path72"/>
  <path d="m 26.073368,12.752865 6.391634,1.061568" style="stroke:#000000;stroke-width:0.08px" id="path74"/>
  <path d="M 35.675411,1.0756211 26.073368,12.752865" style="stroke:#000000;stroke-width:0.08px" id="path76"/>
  </svg>