<svg xmlns="http://www.w3.org/2000/svg">
<defs>
<font
       id="EBGaramond-SemiBoldItalic"
       horiz-adv-x="0">
      <font-face
         font-family="EB Garamond SemiBold"
         font-weight="600"
         font-style="italic"
         font-stretch="normal"
         units-per-em="110"
         panose-1="0 0 0 0 0 0 0 0 0 0"
         ascent="88"
         descent="-22"
         x-height="47"
         cap-height="72"
         bbox="-22 -32 135 79"
         underline-thickness="5.5"
         underline-position="-13.75"
         slope="-17.2"
         unicode-range="U+000D-1F44D"
         id="font-face21074" />
      <missing-glyph
         id="missing-glyph21076" />
      <glyph
         glyph-name="A"
         unicode="A"
         horiz-adv-x="78"
         d="M-5 -1q-1 0 -1.5 0.5t-0.5 1.5t1 1.5t2 1.5q3 1 5.5 1.5t5 2t4.5 3.5q8 8 14.5 16.5t13.5 16.5t13 16q2 2 3.5 4t2 3.5t1.5 1.5q3 0 4.5 0.5t3.5 1.5t3 2t2 1t1 -1.5v-3.5l-11 -56q-1 -4 0 -6.5t5 -3.5q1 0 2 -0.5t1 -1.5t-1 -1h-2h-4.5h-5.5h-6h-4.5h-5h-4.5t-3 1 q0 1 1 1.5t2 1.5q3 1 5 1.5t3.5 2t1.5 3.5l3 14q0 1 -0.5 1.5t-1.5 0.5h-15q-1 0 -2 -0.5t-2 -1.5l-9 -11q-2 -3 -2.5 -5.5t1 -3.5t3.5 -1q1 0 2 -1t1 -2t-1 -1h-3h-5.5h-5.5t-7.5 -0.5t-7.5 -0.5zM37 32h13h1.5t0.5 2l6 24v1.5t-1 0.5l-0.5 -0.5l-0.5 -0.5l-20 -25 q-1 -1 -1 -1.5t2 -0.5z"
         id="glyph21078" />
      <glyph
         glyph-name="Aacute"
         unicode="Á"
         horiz-adv-x="78"
         d="M-5 -1q-1 0 -1.5 0.5t-0.5 1.5t1 1.5t2 1.5q3 1 5.5 1.5t5 2t4.5 3.5q8 8 14.5 16.5t13.5 16.5t13 16q2 2 3.5 4t2 3.5t1.5 1.5q3 0 4.5 0.5t3.5 1.5t3 2t2 1t1 -1.5v-3.5l-11 -56q-1 -4 0 -6.5t5 -3.5q1 0 2 -0.5t1 -1.5t-1 -1h-2h-4.5h-5.5h-6h-4.5h-5h-4.5t-3 1 q0 1 1 1.5t2 1.5q3 1 5 1.5t3.5 2t1.5 3.5l3 14q0 1 -0.5 1.5t-1.5 0.5h-15q-1 0 -2 -0.5t-2 -1.5l-9 -11q-2 -3 -2.5 -5.5t1 -3.5t3.5 -1q1 0 2 -1t1 -2t-1 -1h-3h-5.5h-5.5t-7.5 -0.5t-7.5 -0.5zM37 32h13h1.5t0.5 2l6 24v1.5t-1 0.5l-0.5 -0.5l-0.5 -0.5l-20 -25 q-1 -1 -1 -1.5t2 -0.5z"
         id="glyph21080" />
      <glyph
         glyph-name="Acircumflex"
         unicode="Â"
         horiz-adv-x="78"
         d="M-5 -1q-1 0 -1.5 0.5t-0.5 1.5t1 1.5t2 1.5q3 1 5.5 1.5t5 2t4.5 3.5q8 8 14.5 16.5t13.5 16.5t13 16q2 2 3.5 4t2 3.5t1.5 1.5q3 0 4.5 0.5t3.5 1.5t3 2t2 1t1 -1.5v-3.5l-11 -56q-1 -4 0 -6.5t5 -3.5q1 0 2 -0.5t1 -1.5t-1 -1h-2h-4.5h-5.5h-6h-4.5h-5h-4.5t-3 1 q0 1 1 1.5t2 1.5q3 1 5 1.5t3.5 2t1.5 3.5l3 14q0 1 -0.5 1.5t-1.5 0.5h-15q-1 0 -2 -0.5t-2 -1.5l-9 -11q-2 -3 -2.5 -5.5t1 -3.5t3.5 -1q1 0 2 -1t1 -2t-1 -1h-3h-5.5h-5.5t-7.5 -0.5t-7.5 -0.5zM37 32h13h1.5t0.5 2l6 24v1.5t-1 0.5l-0.5 -0.5l-0.5 -0.5l-20 -25 q-1 -1 -1 -1.5t2 -0.5z"
         id="glyph21082" />
      <glyph
         glyph-name="Adieresis"
         unicode="Ä"
         horiz-adv-x="78"
         d="M-5 -1q-1 0 -1.5 0.5t-0.5 1.5t1 1.5t2 1.5q3 1 5.5 1.5t5 2t4.5 3.5q8 8 14.5 16.5t13.5 16.5t13 16q2 2 3.5 4t2 3.5t1.5 1.5q3 0 4.5 0.5t3.5 1.5t3 2t2 1t1 -1.5v-3.5l-11 -56q-1 -4 0 -6.5t5 -3.5q1 0 2 -0.5t1 -1.5t-1 -1h-2h-4.5h-5.5h-6h-4.5h-5h-4.5t-3 1 q0 1 1 1.5t2 1.5q3 1 5 1.5t3.5 2t1.5 3.5l3 14q0 1 -0.5 1.5t-1.5 0.5h-15q-1 0 -2 -0.5t-2 -1.5l-9 -11q-2 -3 -2.5 -5.5t1 -3.5t3.5 -1q1 0 2 -1t1 -2t-1 -1h-3h-5.5h-5.5t-7.5 -0.5t-7.5 -0.5zM37 32h13h1.5t0.5 2l6 24v1.5t-1 0.5l-0.5 -0.5l-0.5 -0.5l-20 -25 q-1 -1 -1 -1.5t2 -0.5z"
         id="glyph21084" />
      <glyph
         glyph-name="Agrave"
         unicode="À"
         horiz-adv-x="78"
         d="M-5 -1q-1 0 -1.5 0.5t-0.5 1.5t1 1.5t2 1.5q3 1 5.5 1.5t5 2t4.5 3.5q8 8 14.5 16.5t13.5 16.5t13 16q2 2 3.5 4t2 3.5t1.5 1.5q3 0 4.5 0.5t3.5 1.5t3 2t2 1t1 -1.5v-3.5l-11 -56q-1 -4 0 -6.5t5 -3.5q1 0 2 -0.5t1 -1.5t-1 -1h-2h-4.5h-5.5h-6h-4.5h-5h-4.5t-3 1 q0 1 1 1.5t2 1.5q3 1 5 1.5t3.5 2t1.5 3.5l3 14q0 1 -0.5 1.5t-1.5 0.5h-15q-1 0 -2 -0.5t-2 -1.5l-9 -11q-2 -3 -2.5 -5.5t1 -3.5t3.5 -1q1 0 2 -1t1 -2t-1 -1h-3h-5.5h-5.5t-7.5 -0.5t-7.5 -0.5zM37 32h13h1.5t0.5 2l6 24v1.5t-1 0.5l-0.5 -0.5l-0.5 -0.5l-20 -25 q-1 -1 -1 -1.5t2 -0.5z"
         id="glyph21086" />
      <glyph
         glyph-name="Aring"
         unicode="Å"
         horiz-adv-x="78"
         d="M-5 -1q-1 0 -1.5 0.5t-0.5 1.5t1 1.5t2 1.5q3 1 5.5 1.5t5 2t4.5 3.5q8 8 14.5 16.5t13.5 16.5t13 16q2 2 3.5 4t2 3.5t1.5 1.5q3 0 4.5 0.5t3.5 1.5t3 2t2 1t1 -1.5v-3.5l-11 -56q-1 -4 0 -6.5t5 -3.5q1 0 2 -0.5t1 -1.5t-1 -1h-2h-4.5h-5.5h-6h-4.5h-5h-4.5t-3 1 q0 1 1 1.5t2 1.5q3 1 5 1.5t3.5 2t1.5 3.5l3 14q0 1 -0.5 1.5t-1.5 0.5h-15q-1 0 -2 -0.5t-2 -1.5l-9 -11q-2 -3 -2.5 -5.5t1 -3.5t3.5 -1q1 0 2 -1t1 -2t-1 -1h-3h-5.5h-5.5t-7.5 -0.5t-7.5 -0.5zM37 32h13h1.5t0.5 2l6 24v1.5t-1 0.5l-0.5 -0.5l-0.5 -0.5l-20 -25 q-1 -1 -1 -1.5t2 -0.5z"
         id="glyph21088" />
      <glyph
         glyph-name="Atilde"
         unicode="Ã"
         horiz-adv-x="78"
         d="M-5 -1q-1 0 -1.5 0.5t-0.5 1.5t1 1.5t2 1.5q3 1 5.5 1.5t5 2t4.5 3.5q8 8 14.5 16.5t13.5 16.5t13 16q2 2 3.5 4t2 3.5t1.5 1.5q3 0 4.5 0.5t3.5 1.5t3 2t2 1t1 -1.5v-3.5l-11 -56q-1 -4 0 -6.5t5 -3.5q1 0 2 -0.5t1 -1.5t-1 -1h-2h-4.5h-5.5h-6h-4.5h-5h-4.5t-3 1 q0 1 1 1.5t2 1.5q3 1 5 1.5t3.5 2t1.5 3.5l3 14q0 1 -0.5 1.5t-1.5 0.5h-15q-1 0 -2 -0.5t-2 -1.5l-9 -11q-2 -3 -2.5 -5.5t1 -3.5t3.5 -1q1 0 2 -1t1 -2t-1 -1h-3h-5.5h-5.5t-7.5 -0.5t-7.5 -0.5zM37 32h13h1.5t0.5 2l6 24v1.5t-1 0.5l-0.5 -0.5l-0.5 -0.5l-20 -25 q-1 -1 -1 -1.5t2 -0.5z"
         id="glyph21090" />
      <glyph
         glyph-name="AE"
         unicode="Æ"
         horiz-adv-x="94"
         d="M-5 -1q-1 0 -1.5 0.5t-0.5 1.5t1 1.5t2 0.5q3 1 7 3.5t6 5.5l47 54q1 1 0.5 1h-1.5l-6 2q-2 0 -2 1t1 1.5t2 0.5h5.5t7 -0.5t5.5 -0.5h8h8q5 0 8.5 0.5t5.5 1t4 0.5q1 0 1.5 -0.5t0.5 -1.5q0 -3 -1 -7t-2 -7q0 -1 -0.5 -1.5t-1.5 -0.5t-1 0.5v1.5q0 3 -0.5 4.5t-1.5 2.5 l-2.5 2.5t-3.5 1.5h-11q-2 0 -3.5 -1.5t-1.5 -3.5q-1 -3 -2.5 -7t-2.5 -8t-2 -7v-2.5t1 -0.5h5.5h4.5t3.5 1t3.5 3q1 1 1.5 2t1.5 1h1v0q0 -1 -0.5 -3t-1.5 -3q-1 -3 -1.5 -6t-1.5 -6q0 -1 -0.5 -2t-1.5 -1t-1 1v2q0 3 -1 4.5t-3 1.5h-5.5h-4.5q-1 0 -2 -0.5t-2 -2.5 q-1 -4 -2.5 -9t-2.5 -10q-1 -3 0 -5t4 -2h10q3 0 5 1l4 2t3.5 3.5t3.5 4.5l1.5 1.5l0.5 0.5q1 0 1.5 -0.5t-0.5 -1.5q-1 -2 -2 -4.5l-2 -5t-3 -4.5q0 -1 -0.5 -1h-1.5h-6.5h-9.5h-10h-9h-4.5t-5 -0.5t-4.5 -0.5q-1 0 -1.5 0.5t-0.5 1.5t3 2q4 1 6.5 2.5t3.5 5.5t2.5 8.5 t2.5 8.5v1.5t-1 0.5h-15q-1 0 -1.5 -0.5l-1.5 -1.5q-2 -2 -4 -5t-4.5 -5.5t-3.5 -5.5q-2 -3 -2 -4.5t1.5 -2.5t3.5 -1q1 0 1.5 -1t0.5 -2t-1 -1h-2h-6h-6t-6.5 -0.5t-6.5 -0.5zM38 35h11h1.5t0.5 1l8 25v0.5q0 0.5 -1 0.5l-1 -1l-20 -25q-1 -1 -0.5 -1h1.5z"
         id="glyph21092" />
      <glyph
         glyph-name="B"
         unicode="B"
         horiz-adv-x="66"
         d="M-2 -1q-2 0 -2 2q0 1 1 1.5t3 0.5q4 1 6 2.5t3 5.5l16 49q1 4 0 5.5t-5 2.5q-1 0 -1.5 0.5t-0.5 1.5t1 1.5t2 0.5h5t3.5 -0.5t3.5 -0.5t4.5 0.5t4.5 0.5h5q7 0 11.5 -2t7 -5t2.5 -7t-2 -7t-4.5 -5t-6 -3.5t-7.5 -2.5q-1 0 -1 -0.5t1 -0.5q6 -2 10 -6t4 -12 q0 -6 -2.5 -9.5t-7.5 -6.5t-11 -4t-13 -1h-7.5h-7.5h-4.5t-5 -0.5t-5.5 -0.5zM29 3q3 0 6.5 2t6 5t4.5 6.5t2 7.5q0 6 -3.5 9.5t-9.5 3.5q-2 0 -3 -0.5t-2 -1.5l-7 -24v-3.5t1 -1.5l2 -2t3 -1zM35 40q3 0 5 0.5t5 1.5q4 3 7 7t3 10q0 4 -2.5 7t-7.5 3q-2 0 -3.5 -0.5 t-1.5 -2.5l-7 -23q-1 -3 2 -3z"
         id="glyph21094" />
      <glyph
         glyph-name="C"
         unicode="C"
         horiz-adv-x="71"
         d="M35 -2q-5 0 -10 2.5t-9 6t-6.5 9t-2.5 11.5q0 10 4 18.5t10.5 14.5t15 9.5t18.5 3.5q4 0 7 -0.5t5 -1.5t3.5 -1.5t2.5 -0.5t1.5 0.5t1.5 0.5t1.5 0.5t1.5 0.5t1 -0.5v-1.5q-1 -2 -3 -5t-3.5 -6.5t-1.5 -6.5q0 -1 -1 -1.5t-2 -0.5t-1.5 1.5t0.5 2.5q0 3 -0.5 5.5t-2.5 4.5 q-2 3 -4.5 4.5t-5.5 1.5q-5 0 -10.5 -2.5t-9.5 -7t-7 -11t-4.5 -13t-1.5 -13.5q0 -5 1.5 -9t3.5 -6t5.5 -3.5t6.5 -1.5q5 0 9 2t7 5.5t6 7.5q1 1 1.5 2t1.5 1t1 -1v-2q0 -2 -1 -5t-2.5 -6t-3 -5l-1.5 -2q-1 0 -1.5 0.5t-1.5 0.5t-1.5 0.5t-1.5 0.5t-2.5 -0.5t-3.5 -0.5 t-4.5 -1t-5.5 -1z"
         id="glyph21096" />
      <glyph
         glyph-name="Ccaron"
         unicode="Č"
         horiz-adv-x="71"
         d="M35 -2q-5 0 -10 2.5t-9 6t-6.5 9t-2.5 11.5q0 10 4 18.5t10.5 14.5t15 9.5t18.5 3.5q4 0 7 -0.5t5 -1.5t3.5 -1.5t2.5 -0.5t1.5 0.5t1.5 0.5t1.5 0.5t1.5 0.5t1 -0.5v-1.5q-1 -2 -3 -5t-3.5 -6.5t-1.5 -6.5q0 -1 -1 -1.5t-2 -0.5t-1.5 1.5t0.5 2.5q0 3 -0.5 5.5t-2.5 4.5 q-2 3 -4.5 4.5t-5.5 1.5q-5 0 -10.5 -2.5t-9.5 -7t-7 -11t-4.5 -13t-1.5 -13.5q0 -5 1.5 -9t3.5 -6t5.5 -3.5t6.5 -1.5q5 0 9 2t7 5.5t6 7.5q1 1 1.5 2t1.5 1t1 -1v-2q0 -2 -1 -5t-2.5 -6t-3 -5l-1.5 -2q-1 0 -1.5 0.5t-1.5 0.5t-1.5 0.5t-1.5 0.5t-2.5 -0.5t-3.5 -0.5 t-4.5 -1t-5.5 -1z"
         id="glyph21098" />
      <glyph
         glyph-name="Ccedilla"
         unicode="Ç"
         horiz-adv-x="71"
         d="M35 -2q-5 0 -10 2.5t-9 6t-6.5 9t-2.5 11.5q0 10 4 18.5t10.5 14.5t15 9.5t18.5 3.5q4 0 7 -0.5t5 -1.5t3.5 -1.5t2.5 -0.5t1.5 0.5t1.5 0.5t1.5 0.5t1.5 0.5t1 -0.5v-1.5q-1 -2 -3 -5t-3.5 -6.5t-1.5 -6.5q0 -1 -1 -1.5t-2 -0.5t-1.5 1.5t0.5 2.5q0 3 -0.5 5.5t-2.5 4.5 q-2 3 -4.5 4.5t-5.5 1.5q-5 0 -10.5 -2.5t-9.5 -7t-7 -11t-4.5 -13t-1.5 -13.5q0 -5 1.5 -9t3.5 -6t5.5 -3.5t6.5 -1.5q5 0 9 2t7 5.5t6 7.5q1 1 1.5 2t1.5 1t1 -1v-2q0 -2 -1 -5t-2.5 -6t-3 -5l-1.5 -2q-1 0 -1.5 0.5t-1.5 0.5t-1.5 0.5t-1.5 0.5t-2.5 -0.5t-3.5 -0.5 t-4.5 -1t-5.5 -1z"
         id="glyph21100" />
      <glyph
         glyph-name="D"
         unicode="D"
         horiz-adv-x="81"
         d="M34 -1q-3 0 -7 0.5t-8 0.5h-6h-4.5h-5h-5.5h-1.5t-0.5 1q0 2 3 2t5 1t3 2.5t2 4.5l16 50q1 3 0 4t-2.5 2t-4.5 1q-1 0 -1.5 1t-0.5 2t1 1h2h8h8h4h4.5h5.5q10 0 17.5 -4t11.5 -10.5t4 -15.5q0 -8 -3.5 -16t-10 -14t-15.5 -9.5t-19 -3.5zM34 3q7 0 13 3.5t10.5 9.5t7 13 t2.5 15q0 9 -2.5 14t-6.5 7.5t-10 2.5q-3 0 -5 -0.5t-2.5 -1.5l-1.5 -3l-15 -49q-1 -4 0 -6.5t4 -3.5t6 -1z"
         id="glyph21102" />
      <glyph
         glyph-name="Eth"
         unicode="Ð"
         horiz-adv-x="81"
         d="M9 34q-1 0 -1.5 1t-0.5 2t1.5 2t2.5 1h35q1 0 1.5 -1t-0.5 -1q-1 -2 -2 -3t-3 -1h-33zM34 -1q-3 0 -7 0.5t-8 0.5h-6h-4.5h-5h-5.5h-1.5t-0.5 1q0 2 3 2t5 1t3 2.5t2 4.5l16 50q1 3 0 4t-2.5 2t-4.5 1q-1 0 -1.5 1t-0.5 2t1 1h2h8h8h4h4.5h5.5q10 0 17.5 -4t11.5 -10.5 t4 -15.5q0 -8 -3.5 -16t-10 -14t-15.5 -9.5t-19 -3.5zM34 3q7 0 13 3.5t10.5 9.5t7 13t2.5 15q0 9 -2.5 14t-6.5 7.5t-10 2.5q-3 0 -5 -0.5t-2.5 -1.5l-1.5 -3l-15 -49q-1 -4 0 -6.5t4 -3.5t6 -1z"
         id="glyph21104" />
      <glyph
         glyph-name="Dcaron"
         unicode="Ď"
         horiz-adv-x="81"
         d="M34 -1q-3 0 -7 0.5t-8 0.5h-6h-4.5h-5h-5.5h-1.5t-0.5 1q0 2 3 2t5 1t3 2.5t2 4.5l16 50q1 3 0 4t-2.5 2t-4.5 1q-1 0 -1.5 1t-0.5 2t1 1h2h8h8h4h4.5h5.5q10 0 17.5 -4t11.5 -10.5t4 -15.5q0 -8 -3.5 -16t-10 -14t-15.5 -9.5t-19 -3.5zM34 3q7 0 13 3.5t10.5 9.5t7 13 t2.5 15q0 9 -2.5 14t-6.5 7.5t-10 2.5q-3 0 -5 -0.5t-2.5 -1.5l-1.5 -3l-15 -49q-1 -4 0 -6.5t4 -3.5t6 -1z"
         id="glyph21106" />
      <glyph
         glyph-name="Dcroat"
         unicode="Đ"
         horiz-adv-x="81"
         d="M9 34q-1 0 -1.5 1t-0.5 2t1.5 2t2.5 1h35q1 0 1.5 -1t-0.5 -1q-1 -2 -2 -3t-3 -1h-33zM34 -1q-3 0 -7 0.5t-8 0.5h-6h-4.5h-5h-5.5h-1.5t-0.5 1q0 2 3 2t5 1t3 2.5t2 4.5l16 50q1 3 0 4t-2.5 2t-4.5 1q-1 0 -1.5 1t-0.5 2t1 1h2h8h8h4h4.5h5.5q10 0 17.5 -4t11.5 -10.5 t4 -15.5q0 -8 -3.5 -16t-10 -14t-15.5 -9.5t-19 -3.5zM34 3q7 0 13 3.5t10.5 9.5t7 13t2.5 15q0 9 -2.5 14t-6.5 7.5t-10 2.5q-3 0 -5 -0.5t-2.5 -1.5l-1.5 -3l-15 -49q-1 -4 0 -6.5t4 -3.5t6 -1z"
         id="glyph21108" />
      <glyph
         glyph-name="E"
         unicode="E"
         horiz-adv-x="63"
         d="M-3 -1q-1 0 -1.5 0.5t-0.5 1.5t3 2q5 1 7 2.5t3 5.5l15 49q1 4 0 6t-5 2q-1 0 -1.5 1l-0.5 1q0 1 1 1.5t3 0.5h3.5t5.5 -0.5t5 -0.5l18 1h8t4.5 0.5t2.5 0.5t1 -0.5v-1.5t-0.5 -3.5l-1 -5t-1.5 -5.5q0 -1 -0.5 -1.5l-0.5 -0.5l-1 0.5q-1 0.5 -1 1.5q0 6 -1.5 8.5 t-5.5 2.5h-10q-3 0 -4.5 -1.5t-2.5 -5.5l-6 -19q-1 -2 -0.5 -2.5t2.5 -0.5h11q3 0 5 1.5t3 3.5l2 2l1 1q1 0 1 -0.5v-2.5l-2 -4t-1 -4q-1 -2 -1.5 -4t-1.5 -4q0 -1 -0.5 -2l-0.5 -1q-1 0 -1.5 1t-0.5 2q0 3 -1 5t-3 2h-11q-1 0 -2.5 -0.5t-1.5 -2.5l-6 -20q-1 -5 0 -6.5 t5 -1.5h12q2 0 4.5 0.5t4.5 1.5t3.5 4t3.5 6q1 1 1.5 1h0.5q1 0 1 -0.5v-1.5t-0.5 -3.5t-2 -5.5l-2.5 -5q-1 -1 -1.5 -1h-2.5h-5.5h-7.5h-8.5h-9h-7.5h-5t-5.5 -0.5t-4.5 -0.5z"
         id="glyph21110" />
      <glyph
         glyph-name="Eacute"
         unicode="É"
         horiz-adv-x="63"
         d="M-3 -1q-1 0 -1.5 0.5t-0.5 1.5t3 2q5 1 7 2.5t3 5.5l15 49q1 4 0 6t-5 2q-1 0 -1.5 1l-0.5 1q0 1 1 1.5t3 0.5h3.5t5.5 -0.5t5 -0.5l18 1h8t4.5 0.5t2.5 0.5t1 -0.5v-1.5t-0.5 -3.5l-1 -5t-1.5 -5.5q0 -1 -0.5 -1.5l-0.5 -0.5l-1 0.5q-1 0.5 -1 1.5q0 6 -1.5 8.5 t-5.5 2.5h-10q-3 0 -4.5 -1.5t-2.5 -5.5l-6 -19q-1 -2 -0.5 -2.5t2.5 -0.5h11q3 0 5 1.5t3 3.5l2 2l1 1q1 0 1 -0.5v-2.5l-2 -4t-1 -4q-1 -2 -1.5 -4t-1.5 -4q0 -1 -0.5 -2l-0.5 -1q-1 0 -1.5 1t-0.5 2q0 3 -1 5t-3 2h-11q-1 0 -2.5 -0.5t-1.5 -2.5l-6 -20q-1 -5 0 -6.5 t5 -1.5h12q2 0 4.5 0.5t4.5 1.5t3.5 4t3.5 6q1 1 1.5 1h0.5q1 0 1 -0.5v-1.5t-0.5 -3.5t-2 -5.5l-2.5 -5q-1 -1 -1.5 -1h-2.5h-5.5h-7.5h-8.5h-9h-7.5h-5t-5.5 -0.5t-4.5 -0.5z"
         id="glyph21112" />
      <glyph
         glyph-name="Ecircumflex"
         unicode="Ê"
         horiz-adv-x="63"
         d="M-3 -1q-1 0 -1.5 0.5t-0.5 1.5t3 2q5 1 7 2.5t3 5.5l15 49q1 4 0 6t-5 2q-1 0 -1.5 1l-0.5 1q0 1 1 1.5t3 0.5h3.5t5.5 -0.5t5 -0.5l18 1h8t4.5 0.5t2.5 0.5t1 -0.5v-1.5t-0.5 -3.5l-1 -5t-1.5 -5.5q0 -1 -0.5 -1.5l-0.5 -0.5l-1 0.5q-1 0.5 -1 1.5q0 6 -1.5 8.5 t-5.5 2.5h-10q-3 0 -4.5 -1.5t-2.5 -5.5l-6 -19q-1 -2 -0.5 -2.5t2.5 -0.5h11q3 0 5 1.5t3 3.5l2 2l1 1q1 0 1 -0.5v-2.5l-2 -4t-1 -4q-1 -2 -1.5 -4t-1.5 -4q0 -1 -0.5 -2l-0.5 -1q-1 0 -1.5 1t-0.5 2q0 3 -1 5t-3 2h-11q-1 0 -2.5 -0.5t-1.5 -2.5l-6 -20q-1 -5 0 -6.5 t5 -1.5h12q2 0 4.5 0.5t4.5 1.5t3.5 4t3.5 6q1 1 1.5 1h0.5q1 0 1 -0.5v-1.5t-0.5 -3.5t-2 -5.5l-2.5 -5q-1 -1 -1.5 -1h-2.5h-5.5h-7.5h-8.5h-9h-7.5h-5t-5.5 -0.5t-4.5 -0.5z"
         id="glyph21114" />
      <glyph
         glyph-name="Edieresis"
         unicode="Ë"
         horiz-adv-x="63"
         d="M-3 -1q-1 0 -1.5 0.5t-0.5 1.5t3 2q5 1 7 2.5t3 5.5l15 49q1 4 0 6t-5 2q-1 0 -1.5 1l-0.5 1q0 1 1 1.5t3 0.5h3.5t5.5 -0.5t5 -0.5l18 1h8t4.5 0.5t2.5 0.5t1 -0.5v-1.5t-0.5 -3.5l-1 -5t-1.5 -5.5q0 -1 -0.5 -1.5l-0.5 -0.5l-1 0.5q-1 0.5 -1 1.5q0 6 -1.5 8.5 t-5.5 2.5h-10q-3 0 -4.5 -1.5t-2.5 -5.5l-6 -19q-1 -2 -0.5 -2.5t2.5 -0.5h11q3 0 5 1.5t3 3.5l2 2l1 1q1 0 1 -0.5v-2.5l-2 -4t-1 -4q-1 -2 -1.5 -4t-1.5 -4q0 -1 -0.5 -2l-0.5 -1q-1 0 -1.5 1t-0.5 2q0 3 -1 5t-3 2h-11q-1 0 -2.5 -0.5t-1.5 -2.5l-6 -20q-1 -5 0 -6.5 t5 -1.5h12q2 0 4.5 0.5t4.5 1.5t3.5 4t3.5 6q1 1 1.5 1h0.5q1 0 1 -0.5v-1.5t-0.5 -3.5t-2 -5.5l-2.5 -5q-1 -1 -1.5 -1h-2.5h-5.5h-7.5h-8.5h-9h-7.5h-5t-5.5 -0.5t-4.5 -0.5z"
         id="glyph21116" />
      <glyph
         glyph-name="Egrave"
         unicode="È"
         horiz-adv-x="63"
         d="M-3 -1q-1 0 -1.5 0.5t-0.5 1.5t3 2q5 1 7 2.5t3 5.5l15 49q1 4 0 6t-5 2q-1 0 -1.5 1l-0.5 1q0 1 1 1.5t3 0.5h3.5t5.5 -0.5t5 -0.5l18 1h8t4.5 0.5t2.5 0.5t1 -0.5v-1.5t-0.5 -3.5l-1 -5t-1.5 -5.5q0 -1 -0.5 -1.5l-0.5 -0.5l-1 0.5q-1 0.5 -1 1.5q0 6 -1.5 8.5 t-5.5 2.5h-10q-3 0 -4.5 -1.5t-2.5 -5.5l-6 -19q-1 -2 -0.5 -2.5t2.5 -0.5h11q3 0 5 1.5t3 3.5l2 2l1 1q1 0 1 -0.5v-2.5l-2 -4t-1 -4q-1 -2 -1.5 -4t-1.5 -4q0 -1 -0.5 -2l-0.5 -1q-1 0 -1.5 1t-0.5 2q0 3 -1 5t-3 2h-11q-1 0 -2.5 -0.5t-1.5 -2.5l-6 -20q-1 -5 0 -6.5 t5 -1.5h12q2 0 4.5 0.5t4.5 1.5t3.5 4t3.5 6q1 1 1.5 1h0.5q1 0 1 -0.5v-1.5t-0.5 -3.5t-2 -5.5l-2.5 -5q-1 -1 -1.5 -1h-2.5h-5.5h-7.5h-8.5h-9h-7.5h-5t-5.5 -0.5t-4.5 -0.5z"
         id="glyph21118" />
      <glyph
         glyph-name="F"
         unicode="F"
         horiz-adv-x="57"
         d="M-1 -0h-1.5t-0.5 1t1 1.5t2 0.5q4 1 6 2.5t3 5.5l16 49q1 4 0 5.5t-5 2.5q-2 0 -2 1v1q0 1 1 1.5t2 0.5h6.5h7.5h17q8 0 12 0.5t5 0.5t1.5 -0.5t-0.5 -1.5v-1.5v-0.5q-1 -2 -2 -5.5t-1 -6.5q0 -1 -0.5 -1.5t-1.5 -0.5t-1 0.5v1.5q0 2 -0.5 4.5t-1.5 3.5t-2.5 2t-3.5 1 h-10q-2 0 -4 -1.5t-2 -2.5t-1 -4t-2.5 -6.5t-2.5 -7t-1 -4.5t0.5 -2.5t2.5 -1.5l8 1q6 0 10 5l1.5 1.5t1.5 0.5t1 -0.5v-1.5q-2 -4 -3.5 -7.5t-1.5 -7.5q0 -1 -1 -2l-1 -1q-1 0 -1.5 1t-0.5 2q0 3 -1 4.5t-3 1.5h-3.5h-4.5h-3q-2 0 -3 -1t-2 -3l-5 -19q-1 -3 -0.5 -5t2 -2.5 l4.5 -1.5q1 0 2 -0.5t0 -1.5q0 -1 -0.5 -1h-1.5h-6h-5.5h-4.5h-7.5h-7.5z"
         id="glyph21120" />
      <glyph
         glyph-name="G"
         unicode="G"
         horiz-adv-x="78"
         d="M39 -2q-8 0 -14 2.5t-10.5 7.5t-6 11.5t-0.5 15.5q1 8 5.5 15t11 12t14.5 8t18 3q4 0 6.5 -0.5t4.5 -1.5t3.5 -1.5t2.5 -0.5t1.5 0.5t1.5 0.5q1 1 1.5 1h1.5t1 -0.5t-1 -1.5l-2.5 -5l-3 -6t-1.5 -6q0 -1 -1 -2t-2 -1q-2 0 -2 4v6t-2 5t-4.5 3.5t-5.5 1.5q-6 0 -11.5 -2.5 t-10 -8t-8 -12.5t-4.5 -16q-1 -6 0 -11t3.5 -9t6.5 -6t9 -2t7.5 3t3.5 6l4 12v3t-2 2q-1 1 -3 1h-3t-2 0.5t-1 1.5t1.5 1.5t2.5 0.5q2 0 5 -0.5t5.5 -0.5h4.5q3 0 6 0.5t7 0.5q2 0 2 -2q0 -1 -1 -1.5t-3 -0.5q-3 -1 -4 -2l-3 -3q-1 -2 -2 -4.5t-1.5 -5l-0.5 -2.5 q0 -1 0.5 -2t1.5 -2q-1 -2 -4 -3.5t-7 -3t-8.5 -2.5t-7.5 -1z"
         id="glyph21122" />
      <glyph
         glyph-name="Gbreve"
         unicode="Ğ"
         horiz-adv-x="78"
         d="M39 -2q-8 0 -14 2.5t-10.5 7.5t-6 11.5t-0.5 15.5q1 8 5.5 15t11 12t14.5 8t18 3q4 0 6.5 -0.5t4.5 -1.5t3.5 -1.5t2.5 -0.5t1.5 0.5t1.5 0.5q1 1 1.5 1h1.5t1 -0.5t-1 -1.5l-2.5 -5l-3 -6t-1.5 -6q0 -1 -1 -2t-2 -1q-2 0 -2 4v6t-2 5t-4.5 3.5t-5.5 1.5q-6 0 -11.5 -2.5 t-10 -8t-8 -12.5t-4.5 -16q-1 -6 0 -11t3.5 -9t6.5 -6t9 -2t7.5 3t3.5 6l4 12v3t-2 2q-1 1 -3 1h-3t-2 0.5t-1 1.5t1.5 1.5t2.5 0.5q2 0 5 -0.5t5.5 -0.5h4.5q3 0 6 0.5t7 0.5q2 0 2 -2q0 -1 -1 -1.5t-3 -0.5q-3 -1 -4 -2l-3 -3q-1 -2 -2 -4.5t-1.5 -5l-0.5 -2.5 q0 -1 0.5 -2t1.5 -2q-1 -2 -4 -3.5t-7 -3t-8.5 -2.5t-7.5 -1z"
         id="glyph21124" />
      <glyph
         glyph-name="H"
         unicode="H"
         horiz-adv-x="84"
         d="M-2 -0h-1.5t-0.5 1t1 1.5t2 0.5q4 1 6 2t3 4l16 52q1 4 0 5t-4 2q-1 0 -1.5 1t-0.5 2t1 1h2h5h4h4h4.5h5h5.5q2 0 1 -2q0 -1 -1 -1t-2 -1q-3 -1 -5 -1.5t-3 -2q-1 -2.5 -1 -4.5l-7 -20q0 -2 1 -2h31q1 0 1 2l7 21q1 3 0 4.5t-5 2.5q-1 0 -1.5 1l-0.5 1q0 1 1 1.5t2 0.5 h4.5h5h4.5h4h4.5h4.5q1 0 2 -0.5t0 -0.5q0 -2 -3 -3q-4 -1 -5.5 -2.5t-2.5 -4.5l-16 -51q-1 -3 0 -4.5t4 -2.5q1 0 1.5 -0.5t0.5 -1.5t-1 -1h-2h-4.5h-4.5h-4h-4.5h-5h-5.5q-2 0 -1 1q0 1 1 1.5t2 0.5q4 1 6 2.5t3 5.5l7 21v1.5t-1 0.5h-30q-1 0 -2 -2l-7 -21 q-1 -4 0.5 -5.5t5.5 -2.5q1 0 1.5 -0.5t-0.5 -1.5q0 -1 -0.5 -1h-1.5h-5.5h-5h-4.5h-4.5h-5h-4.5z"
         id="glyph21126" />
      <glyph
         glyph-name="I"
         unicode="I"
         horiz-adv-x="40"
         d="M-2 -0h-1.5t-0.5 1q0 2 4 2q4 1 6 2.5t3 5.5l16 50q1 4 0 5t-5 2q-1 0 -1.5 1t-0.5 2t1 1h2h5h4.5h4.5h4.5h5h5.5q2 0 2 -2q0 -1 -1 -1t-3 -1l-4.5 -1.5t-3 -2q-1.5 -2.5 -1.5 -4.5l-15 -47q-1 -4 -1 -5.5t1.5 -2.5t3.5 -1t3 -1t0 -2q0 -1 -0.5 -1h-1.5h-5.5h-5h-5.5 h-7.5h-7.5z"
         id="glyph21128" />
      <glyph
         glyph-name="Iacute"
         unicode="Í"
         horiz-adv-x="40"
         d="M-2 0h-1.5t-0.5 1q0 2 4 2q4 1 6 2.5t3 5.5l16 50q1 4 0 5t-5 2q-1 0 -1.5 1t-0.5 2t1 1h2h5h4.5h4.5h4.5h5h5.5q2 0 2 -2q0 -1 -1 -1t-3 -1l-4.5 -1.5t-3 -2q-1.5 -2.5 -1.5 -4.5l-15 -47q-1 -4 -1 -5.5t1.5 -2.5t3.5 -1t3 -1t0 -2q0 -1 -0.5 -1h-1.5h-5.5h-5h-5.5h-7.5 h-7.5z"
         id="glyph21130" />
      <glyph
         glyph-name="Icircumflex"
         unicode="Î"
         horiz-adv-x="40"
         d="M-2 0h-1.5t-0.5 1q0 2 4 2q4 1 6 2.5t3 5.5l16 50q1 4 0 5t-5 2q-1 0 -1.5 1t-0.5 2t1 1h2h5h4.5h4.5h4.5h5h5.5q2 0 2 -2q0 -1 -1 -1t-3 -1l-4.5 -1.5t-3 -2q-1.5 -2.5 -1.5 -4.5l-15 -47q-1 -4 -1 -5.5t1.5 -2.5t3.5 -1t3 -1t0 -2q0 -1 -0.5 -1h-1.5h-5.5h-5h-5.5h-7.5 h-7.5z"
         id="glyph21132" />
      <glyph
         glyph-name="Idieresis"
         unicode="Ï"
         horiz-adv-x="40"
         d="M-2 0h-1.5t-0.5 1q0 2 4 2q4 1 6 2.5t3 5.5l16 50q1 4 0 5t-5 2q-1 0 -1.5 1t-0.5 2t1 1h2h5h4.5h4.5h4.5h5h5.5q2 0 2 -2q0 -1 -1 -1t-3 -1l-4.5 -1.5t-3 -2q-1.5 -2.5 -1.5 -4.5l-15 -47q-1 -4 -1 -5.5t1.5 -2.5t3.5 -1t3 -1t0 -2q0 -1 -0.5 -1h-1.5h-5.5h-5h-5.5h-7.5 h-7.5z"
         id="glyph21134" />
      <glyph
         glyph-name="Idotaccent"
         unicode="İ"
         horiz-adv-x="40"
         d="M-2 0h-1.5t-0.5 1q0 2 4 2q4 1 6 2.5t3 5.5l16 50q1 4 0 5t-5 2q-1 0 -1.5 1t-0.5 2t1 1h2h5h4.5h4.5h4.5h5h5.5q2 0 2 -2q0 -1 -1 -1t-3 -1l-4.5 -1.5t-3 -2q-1.5 -2.5 -1.5 -4.5l-15 -47q-1 -4 -1 -5.5t1.5 -2.5t3.5 -1t3 -1t0 -2q0 -1 -0.5 -1h-1.5h-5.5h-5h-5.5h-7.5 h-7.5z"
         id="glyph21136" />
      <glyph
         glyph-name="Igrave"
         unicode="Ì"
         horiz-adv-x="40"
         d="M-2 0h-1.5t-0.5 1q0 2 4 2q4 1 6 2.5t3 5.5l16 50q1 4 0 5t-5 2q-1 0 -1.5 1t-0.5 2t1 1h2h5h4.5h4.5h4.5h5h5.5q2 0 2 -2q0 -1 -1 -1t-3 -1l-4.5 -1.5t-3 -2q-1.5 -2.5 -1.5 -4.5l-15 -47q-1 -4 -1 -5.5t1.5 -2.5t3.5 -1t3 -1t0 -2q0 -1 -0.5 -1h-1.5h-5.5h-5h-5.5h-7.5 h-7.5z"
         id="glyph21138" />
      <glyph
         glyph-name="J"
         unicode="J"
         horiz-adv-x="38"
         d="M-9 -22q-7 0 -9.5 2t-2.5 4q0 3 1 5t2 2t3 -1.5t4 -3.5t3.5 -3t3.5 -1t3.5 2t3.5 6t4 11l18 60q1 4 0 5t-5 2q-1 0 -1.5 1t-0.5 2t1 1h2h5h4.5h4.5h4.5h5h4.5t2 -2q0 -1 -1 -1t-2 -1q-3 -1 -5 -1.5t-2.5 -2q-0.5 -2.5 -1.5 -4.5l-16 -50q-2 -5 -3.5 -9t-3 -6.5t-3.5 -4.5 l-4 -4q-4 -3 -8.5 -5.5t-9.5 -2.5z"
         id="glyph21140" />
      <glyph
         glyph-name="K"
         unicode="K"
         horiz-adv-x="81"
         d="M-1 -1q-1 0 -2 0.5t-1 1.5q0 2 4 2q4 1 6 2.5t3 5.5l15 50q1 4 0.5 5t-4.5 2q-1 0 -1.5 0.5t-0.5 1.5t1 1.5t2 0.5h4.5h4.5h5h4h4.5h5.5q2 0 2 -1t-1 -1.5l-3 -1.5l-4.5 -1.5t-2.5 -2q-1 -2.5 -2 -4.5l-6 -20q0 -1 0.5 -1h1.5q2 0 4 1t5 4l19 17l2 2t1 2t-1 1.5t-2 1.5 q-1 0 -2 0.5t-1 1.5t1 1.5t2 0.5h8h10h10q2 0 2 -1t-1.5 -1.5t-2.5 -1.5q-5 -1 -9.5 -2.5t-8.5 -4.5l-8 -6t-8 -6.5t-8 -7.5q-1 -1 -1 -1.5t1 -1.5q6 -11 10 -18t8 -11q2 -2 4.5 -3.5t4.5 -1.5q1 0 2.5 -1t1.5 -2t-1 -1.5t-3 -0.5q-3 0 -5.5 0.5t-5.5 0.5h-6h-4h-3.5h-4.5 q-1 0 -1.5 0.5l-0.5 0.5q0 1 1 1.5t2 1.5q2 0 2.5 1t0 2t-0.5 3l-12 22q-1 2 -2 2.5t-2 0.5t-1 -0.5v-0.5l-6 -23q-1 -4 -0.5 -5.5t4.5 -2.5q1 0 1.5 -0.5t0.5 -1.5t-1 -1h-2h-5.5h-4h-4.5q-4 0 -6.5 -0.5t-7.5 -0.5z"
         id="glyph21142" />
      <glyph
         glyph-name="L"
         unicode="L"
         horiz-adv-x="63"
         d="M-2 -1q-1 0 -1.5 0.5t-0.5 1.5t4 2t6.5 2.5t3.5 5.5l16 50q1 4 0 5t-5 2q-1 0 -1.5 1t-0.5 2t1 1h2h5t4.5 -0.5t4.5 -0.5t5 0.5t5.5 0.5h4.5t2 -2q0 -1 -1 -1t-2 -1q-3 -1 -5 -1.5t-3.5 -1.5t-1.5 -4l-14 -46q-2 -6 -1 -8.5t4 -2.5h6q5 0 8.5 1t6.5 3t4.5 5t3.5 6 q0 1 0.5 1h1.5t1 -0.5v-0.5q0 -1 -0.5 -3.5t-1.5 -5.5t-2 -5l-2 -4q0 -1 -1 -1.5t-2 -0.5q-4 0 -8.5 0.5t-10 0.5h-10.5h-10q-4 0 -7.5 -0.5t-7.5 -0.5z"
         id="glyph21144" />
      <glyph
         glyph-name="M"
         unicode="M"
         horiz-adv-x="108"
         d="M40 -2q-1 0 -1 1v2q0 13 -0.5 26t-0.5 25q0 2 -1 2t-2 -2q-4 -9 -8 -17.5t-8 -17.5q-2 -5 -2 -7.5t0.5 -4t2.5 -2.5q1 0 2 -0.5t1 -1.5t-1 -1h-2h-4.5h-3h-4.5h-4h-4h-3q-3 0 -2 1q0 1 1 1.5t2 0.5q3 1 5.5 2t4.5 4t5 8l19 39q2 4 2.5 6.5t-2 4t-7.5 2.5q-2 0 -2.5 0.5 t-0.5 1.5t1 1h3h6h7.5h6.5q2 0 3 -1.5t1 -3.5v-5l1 -40q0 -2 1 -2t2 1q6 7 12 14.5t11.5 14.5t10.5 13l2 4t2 3q1 2 2 2h5h4.5h5h4.5h2t1 -1t-1.5 -2t-4.5 -1q-3 -1 -4.5 -2t-2.5 -3t-2 -5q-3 -11 -5.5 -22t-5.5 -22q-1 -5 0.5 -7.5t5.5 -3.5q1 0 1.5 -0.5t0.5 -1.5t-1 -1 h-2h-5.5t-5 0.5t-5.5 0.5q-2 0 -4.5 -0.5t-5 -0.5h-4.5h-2t0 1q0 1 1 1.5t2 0.5q4 1 6 2.5t3 5.5q2 7 4 13.5t3.5 13t3.5 13.5q0 1 -0.5 0.5t-1.5 -0.5l-29 -35l-12 -15q-1 -1 -1 -1.5z"
         id="glyph21146" />
      <glyph
         glyph-name="N"
         unicode="N"
         horiz-adv-x="85"
         d="M1 -0h-1.5t-0.5 1t1 1.5t2 0.5q4 1 6.5 3t3.5 6l16 45q1 4 0.5 6t-2.5 3.5t-6 1.5q-2 0 -3 1t-1 2t1.5 1h2.5h6h6h6q1 0 2 -0.5t1 -1.5l23 -50l0.5 -1q0.5 -1 1.5 -1t1 2q0 1 1 3.5t2 5.5t2 7t2.5 8t2 7t1.5 6q1 6 -1 8t-8 3q-2 0 -2 2q0 1 1 1.5t2 0.5q4 0 7 -0.5 t5 -0.5h4t4.5 0.5t5.5 0.5q2 0 2 -2q0 -1 -1.5 -1.5t-2.5 -0.5q-3 0 -4.5 -1t-3 -3t-2.5 -6q-1 -2 -2 -5t-2 -7t-2.5 -8t-3 -8.5t-2.5 -8t-2 -6.5t-0.5 -4.5t1.5 -3.5q1 -1 1.5 -2t1.5 -1l1.5 -1.5t0.5 -1.5t-0.5 -1h-1.5h-4.5t-3 -0.5t-3.5 -0.5q-3 0 -4 1.5t-2 3.5 q-1 3 -3 7.5t-4.5 9.5t-4.5 10.5t-4 10t-3.5 8t-2.5 5.5q0 1 -1 1.5l-1 0.5l-1 -1q-1 -1 -1 -2q-1 -4 -3 -9t-4 -11t-3.5 -12l-2.5 -10t0.5 -6t5.5 -3q1 0 2 -0.5t1 -1.5t-1 -1h-2h-5h-3h-3h-4.5h-4.5h-3z"
         id="glyph21148" />
      <glyph
         glyph-name="Ntilde"
         unicode="Ñ"
         horiz-adv-x="85"
         d="M1 0h-1.5t-0.5 1t1 1.5t2 0.5q4 1 6.5 3t3.5 6l16 45q1 4 0.5 6t-2.5 3.5t-6 1.5q-2 0 -3 1t-1 2t1.5 1h2.5h6h6h6q1 0 2 -0.5t1 -1.5l23 -50l0.5 -1q0.5 -1 1.5 -1t1 2q0 1 1 3.5t2 5.5t2 7t2.5 8t2 7t1.5 6q1 6 -1 8t-8 3q-2 0 -2 2q0 1 1 1.5t2 0.5q4 0 7 -0.5t5 -0.5 h4t4.5 0.5t5.5 0.5q2 0 2 -2q0 -1 -1.5 -1.5t-2.5 -0.5q-3 0 -4.5 -1t-3 -3t-2.5 -6q-1 -2 -2 -5t-2 -7t-2.5 -8t-3 -8.5t-2.5 -8t-2 -6.5t-0.5 -4.5t1.5 -3.5q1 -1 1.5 -2t1.5 -1l1.5 -1.5t0.5 -1.5t-0.5 -1h-1.5h-4.5t-3 -0.5t-3.5 -0.5q-3 0 -4 1.5t-2 3.5q-1 3 -3 7.5 t-4.5 9.5t-4.5 10.5t-4 10t-3.5 8t-2.5 5.5q0 1 -1 1.5l-1 0.5l-1 -1q-1 -1 -1 -2q-1 -4 -3 -9t-4 -11t-3.5 -12l-2.5 -10t0.5 -6t5.5 -3q1 0 2 -0.5t1 -1.5t-1 -1h-2h-5h-3h-3h-4.5h-4.5h-3z"
         id="glyph21150" />
      <glyph
         glyph-name="O"
         unicode="O"
         horiz-adv-x="76"
         d="M33 -2q-8 0 -14 4t-9 10.5t-3 14.5q0 9 3.5 17t9 14.5t14 10.5t18.5 4q8 0 13.5 -3.5t8.5 -10t3 -14.5q0 -9 -3 -17t-9 -15t-14 -11t-18 -4zM33 2q5 0 9.5 3.5t8.5 8.5t7 11.5t4.5 13t1.5 12.5q0 5 -1.5 9t-4 7t-7.5 3t-9.5 -3.5t-8.5 -8.5t-6.5 -11.5t-4.5 -13t-2 -12.5 q0 -5 1.5 -9t4.5 -7t7 -3z"
         id="glyph21152" />
      <glyph
         glyph-name="Oacute"
         unicode="Ó"
         horiz-adv-x="76"
         d="M33 -2q-8 0 -14 4t-9 10.5t-3 14.5q0 9 3.5 17t9 14.5t14 10.5t18.5 4q8 0 13.5 -3.5t8.5 -10t3 -14.5q0 -9 -3 -17t-9 -15t-14 -11t-18 -4zM33 2q5 0 9.5 3.5t8.5 8.5t7 11.5t4.5 13t1.5 12.5q0 5 -1.5 9t-4 7t-7.5 3t-9.5 -3.5t-8.5 -8.5t-6.5 -11.5t-4.5 -13t-2 -12.5 q0 -5 1.5 -9t4.5 -7t7 -3z"
         id="glyph21154" />
      <glyph
         glyph-name="Ocircumflex"
         unicode="Ô"
         horiz-adv-x="76"
         d="M33 -2q-8 0 -14 4t-9 10.5t-3 14.5q0 9 3.5 17t9 14.5t14 10.5t18.5 4q8 0 13.5 -3.5t8.5 -10t3 -14.5q0 -9 -3 -17t-9 -15t-14 -11t-18 -4zM33 2q5 0 9.5 3.5t8.5 8.5t7 11.5t4.5 13t1.5 12.5q0 5 -1.5 9t-4 7t-7.5 3t-9.5 -3.5t-8.5 -8.5t-6.5 -11.5t-4.5 -13t-2 -12.5 q0 -5 1.5 -9t4.5 -7t7 -3z"
         id="glyph21156" />
      <glyph
         glyph-name="Odieresis"
         unicode="Ö"
         horiz-adv-x="76"
         d="M33 -2q-8 0 -14 4t-9 10.5t-3 14.5q0 9 3.5 17t9 14.5t14 10.5t18.5 4q8 0 13.5 -3.5t8.5 -10t3 -14.5q0 -9 -3 -17t-9 -15t-14 -11t-18 -4zM33 2q5 0 9.5 3.5t8.5 8.5t7 11.5t4.5 13t1.5 12.5q0 5 -1.5 9t-4 7t-7.5 3t-9.5 -3.5t-8.5 -8.5t-6.5 -11.5t-4.5 -13t-2 -12.5 q0 -5 1.5 -9t4.5 -7t7 -3z"
         id="glyph21158" />
      <glyph
         glyph-name="Ograve"
         unicode="Ò"
         horiz-adv-x="76"
         d="M33 -2q-8 0 -14 4t-9 10.5t-3 14.5q0 9 3.5 17t9 14.5t14 10.5t18.5 4q8 0 13.5 -3.5t8.5 -10t3 -14.5q0 -9 -3 -17t-9 -15t-14 -11t-18 -4zM33 2q5 0 9.5 3.5t8.5 8.5t7 11.5t4.5 13t1.5 12.5q0 5 -1.5 9t-4 7t-7.5 3t-9.5 -3.5t-8.5 -8.5t-6.5 -11.5t-4.5 -13t-2 -12.5 q0 -5 1.5 -9t4.5 -7t7 -3z"
         id="glyph21160" />
      <glyph
         glyph-name="Oslash"
         unicode="Ø"
         horiz-adv-x="77"
         d="M6 -2q-2 0 -3 1.5t-1 2.5q0 2 2 3l10 8l5 4l46 44l4 2l9 9q1 1 2 1h1q1 0 2 -1t1 -2q0 -3 -2 -4l-9 -8l-6 -5l-46 -44l-4 -2l-8 -7l-1.5 -1.5t-1.5 -0.5zM33 -2q-8 0 -14 4t-9 10.5t-3 14.5q0 9 3.5 17t9 14.5t14 10.5t18.5 4q8 0 13.5 -3.5t8.5 -10t3 -14.5q0 -9 -3 -17 t-9 -15t-14 -11t-18 -4zM33 2q5 0 9.5 3.5t8.5 8.5t7 11.5t4.5 13t1.5 12.5q0 5 -1.5 9t-4 7t-7.5 3t-9.5 -3.5t-8.5 -8.5t-6.5 -11.5t-4.5 -13t-2 -12.5q0 -5 1.5 -9t4.5 -7t7 -3z"
         id="glyph21162" />
      <glyph
         glyph-name="Otilde"
         unicode="Õ"
         horiz-adv-x="76"
         d="M33 -2q-8 0 -14 4t-9 10.5t-3 14.5q0 9 3.5 17t9 14.5t14 10.5t18.5 4q8 0 13.5 -3.5t8.5 -10t3 -14.5q0 -9 -3 -17t-9 -15t-14 -11t-18 -4zM33 2q5 0 9.5 3.5t8.5 8.5t7 11.5t4.5 13t1.5 12.5q0 5 -1.5 9t-4 7t-7.5 3t-9.5 -3.5t-8.5 -8.5t-6.5 -11.5t-4.5 -13t-2 -12.5 q0 -5 1.5 -9t4.5 -7t7 -3z"
         id="glyph21164" />
      <glyph
         glyph-name="OE"
         unicode="Œ"
         horiz-adv-x="104"
         d="M33 -2q-8 0 -14 4t-9 10.5t-3 14.5q0 9 3.5 17t9.5 14.5t14 10.5t18 4q5 0 9.5 -1t8 -3t5.5 -6l-9 -7q-1 6 -5 9.5t-9 3.5t-10 -3t-9 -8.5t-6.5 -11.5t-4.5 -12.5t-2 -12.5q0 -5 1.5 -9t4.5 -6.5t8 -2.5t10 3t9 8l4 -9q-5 -3 -11.5 -5t-12.5 -2zM39 -1q-1 0 -1.5 0.5 t-0.5 1.5t3 2q5 1 7 2.5t3 5.5l15 49q1 4 0 6t-5 2q-1 0 -1.5 1l-0.5 1q0 1 1 1.5t3 0.5h3.5t5 -0.5t5.5 -0.5l18 1h8t4.5 0.5t2.5 0.5t1 -0.5v-1.5t-0.5 -3.5t-1.5 -5t-1 -5.5q0 -1 -0.5 -1.5t-1.5 -0.5l-0.5 0.5q-0.5 0.5 -0.5 1.5q0 6 -1.5 8.5t-5.5 2.5h-11 q-3 0 -4 -1.5t-2 -5.5l-6 -19q-1 -2 -0.5 -2.5t1.5 -0.5h12q3 0 4.5 1.5l3.5 3.5q1 1 1.5 2t1.5 1t1 -0.5v-2.5l-2 -4l-2 -4t-1 -4t-1 -4q0 -1 -0.5 -2t-1.5 -1t-1 1v2q0 3 -1 5t-3 2h-11q-2 0 -3 -0.5t-2 -2.5l-5 -20q-1 -5 0 -6.5t5 -1.5h12q2 0 4.5 0.5t4.5 1.5t3.5 4 t3.5 6q0 1 0.5 1h1.5t1 -0.5v-1.5t-1 -3.5t-2 -5.5t-2 -5q-1 -1 -2 -1h-2h-5.5h-7.5h-8.5h-9h-8.5h-4.5t-5 -0.5t-4.5 -0.5z"
         id="glyph21166" />
      <glyph
         glyph-name="P"
         unicode="P"
         horiz-adv-x="66"
         d="M-0 -0h-2t-1 1t1.5 1.5t2.5 0.5q4 1 6.5 2.5t3.5 5.5l15 49q1 4 0 6t-6 2q-1 0 -2 1t0 1q0 1 1 1.5t2 0.5h4.5h5h3.5h4h5h5q7 0 12.5 -2.5t8.5 -7t3 -10.5q0 -5 -2.5 -10t-7 -8.5t-10.5 -5.5t-12 -2q-2 0 -3.5 0.5t-1.5 1.5t1 1.5t2 0.5t2 0.5t3 0.5q5 1 8.5 4t5 7.5 t1.5 9.5q0 6 -1.5 9.5t-4.5 5t-7 1.5q-1 0 -1.5 -0.5t-1.5 -2t-2 -4.5l-15 -50q-1 -4 0.5 -5.5t5.5 -2.5q1 0 2 -0.5t1 -1.5t-1.5 -1h-2.5h-5.5h-5h-4.5h-7.5h-7.5z"
         id="glyph21168" />
      <glyph
         glyph-name="Thorn"
         unicode="Þ"
         horiz-adv-x="65"
         d="M-2 -0h-1.5t-0.5 1q0 2 4 2q4 1 6 2.5t3 5.5l16 50q1 4 0 5t-5 2q-1 0 -1.5 1t-0.5 2t1 1h2h5h4.5h4.5h4.5h5h5.5q2 0 2 -2q0 -1 -1 -1t-3 -1l-4.5 -1.5t-3 -2q-1.5 -2.5 -1.5 -4.5l-1 -3l-6 2q2 0 5 0.5t6 0.5q7 0 12.5 -2.5t8.5 -7.5t3 -11q0 -5 -3 -10t-7.5 -8t-10 -5 t-12.5 -2q-2 0 -3.5 0.5t-1.5 1.5t1 1t2 1h2h3q4 1 7 3t5 5.5t3 6.5t1 7q0 6 -1.5 9t-4.5 5t-6 2q-2 0 -2.5 -0.5t-1.5 -2t-2 -4.5l-12 -38q-1 -3 0.5 -5t5.5 -3q1 0 1.5 -0.5t0.5 -1.5t-1 -1h-2h-5.5h-4.5h-5h-7.5h-7.5z"
         id="glyph21170" />
      <glyph
         glyph-name="Q"
         unicode="Q"
         horiz-adv-x="76"
         d="M61 -31q-6 0 -12 3t-11 6t-10.5 5t-10.5 2h-3.5t-2.5 -1q-2 -1 -3.5 -1.5l-1.5 -0.5q-1 0 -1.5 0.5t-0.5 1.5t2 2.5t5.5 3t7.5 3t7.5 3t5.5 2.5q11 6 18 13.5t10.5 17.5t3.5 22q0 5 -1.5 9t-4 6.5t-7.5 2.5t-9.5 -3t-8.5 -8t-6.5 -11.5t-4.5 -13t-2 -12.5q0 -5 2 -9.5 t5.5 -7t10.5 -2.5h2h2l-3 -3q-1 0 -2.5 -0.5t-3.5 -0.5q-8 0 -14 4t-9 10.5t-3 14.5q0 9 3.5 17t9 14.5t14 10.5t18.5 4q8 0 13.5 -3.5t9 -10t3.5 -14.5t-3.5 -15.5t-9.5 -14.5t-14 -12q-5 -3 -9 -5t-9 -4t-12 -5l-1 1q2 1 5 1.5t5 0.5q4 0 9 -2l10 -4q5 -3 10 -5.5t9 -2.5 q3 0 5.5 1.5l4.5 4.5q1 2 2 1.5t1.5 -1t-0.5 -1.5q-1 -2 -3 -4.5t-4.5 -4.5t-6 -3.5t-6.5 -1.5z"
         id="glyph21172" />
      <glyph
         glyph-name="R"
         unicode="R"
         horiz-adv-x="80"
         d="M0 -0h-1.5t-0.5 1q0 2 3 2q4 1 6.5 2.5t3.5 5.5l15 49q1 3 1 4.5t-1.5 2.5t-4.5 1q-1 0 -2 0.5t-1 1.5t1 1.5t3 0.5h4t4.5 -0.5t4.5 -0.5t4 0.5t4.5 0.5h5.5q7 0 11.5 -2t7.5 -5.5t3 -8.5q0 -6 -3 -10t-7.5 -6.5t-9.5 -4.5q-1 0 0 -1q1 -3 2 -5.5t2.5 -5.5t2.5 -5.5 q0 -2.5 2 -4.5q2 -4 4.5 -6t6.5 -3h2.5t1.5 -2t-2.5 -2h-9.5q-5 0 -8 1t-4.5 2.5t-2.5 4.5t-3 6.5t-3 7t-3 6.5q-1 2 -1.5 3.5t-3.5 1.5q-2 0 -2.5 -0.5t-0.5 -1.5l-6 -20q-1 -4 0 -5.5t5 -2.5q1 0 2 -0.5t0 -1.5q0 -1 -0.5 -1h-1.5h-5.5h-5h-4.5h-7.5h-7.5zM38 36 q3 0 6.5 1t6 3.5t4.5 6.5t2 10q0 5 -3 8.5t-7 3.5q-1 0 -2.5 -0.5t-2.5 -2.5t-2 -6l-6 -20q-1 -2 0 -3t4 -1z"
         id="glyph21174" />
      <glyph
         glyph-name="Rcaron"
         unicode="Ř"
         horiz-adv-x="80"
         d="M0 0h-1.5t-0.5 1q0 2 3 2q4 1 6.5 2.5t3.5 5.5l15 49q1 3 1 4.5t-1.5 2.5t-4.5 1q-1 0 -2 0.5t-1 1.5t1 1.5t3 0.5h4t4.5 -0.5t4.5 -0.5t4 0.5t4.5 0.5h5.5q7 0 11.5 -2t7.5 -5.5t3 -8.5q0 -6 -3 -10t-7.5 -6.5t-9.5 -4.5q-1 0 0 -1q1 -3 2 -5.5t2.5 -5.5t2.5 -5.5 q0 -2.5 2 -4.5q2 -4 4.5 -6t6.5 -3h2.5t1.5 -2t-2.5 -2h-9.5q-5 0 -8 1t-4.5 2.5t-2.5 4.5t-3 6.5t-3 7t-3 6.5q-1 2 -1.5 3.5t-3.5 1.5q-2 0 -2.5 -0.5t-0.5 -1.5l-6 -20q-1 -4 0 -5.5t5 -2.5q1 0 2 -0.5t0 -1.5q0 -1 -0.5 -1h-1.5h-5.5h-5h-4.5h-7.5h-7.5zM38 36 q3 0 6.5 1t6 3.5t4.5 6.5t2 10q0 5 -3 8.5t-7 3.5q-1 0 -2.5 -0.5t-2.5 -2.5t-2 -6l-6 -20q-1 -2 0 -3t4 -1z"
         id="glyph21176" />
      <glyph
         glyph-name="S"
         unicode="S"
         horiz-adv-x="55"
         d="M23 -2q-4 0 -7 0.5t-6 2.5q-2 1 -3 1h-1h-1.5t-1.5 -1q-1 0 -1.5 -0.5l-0.5 -0.5q-1 0 -2 1l-1 1q0 1 1.5 3.5t2.5 6.5l2 8q0 3 2 3q1 0 1.5 -1.5t0.5 -4.5q0 -4 1.5 -7t4.5 -5t7 -2q7 0 11 3.5t4 9.5q0 3 -0.5 5t-3 4.5l-6.5 6.5q-5 5 -8 9t-3 11q0 6 3.5 11t9 7.5 t12.5 2.5q3 0 6 -0.5t5 -1.5t3.5 -1h2.5h3q1 0 1.5 0.5l0.5 0.5q1 0 1.5 -0.5t-0.5 -1.5t-2 -3.5t-2 -5.5t-2 -8q0 -1 -0.5 -1.5t-1.5 -0.5t-1.5 0.5t-0.5 2.5q0 7 -3.5 11.5t-9.5 4.5q-4 0 -6.5 -2t-4 -4.5t-1.5 -5.5t0.5 -5.5t3 -5t6.5 -5.5q6 -5 8.5 -10t2.5 -10 q0 -6 -3 -11t-9 -8.5t-14 -3.5z"
         id="glyph21178" />
      <glyph
         glyph-name="Scaron"
         unicode="Š"
         horiz-adv-x="55"
         d="M23 -2q-4 0 -7 0.5t-6 2.5q-2 1 -3 1h-1h-1.5t-1.5 -1q-1 0 -1.5 -0.5l-0.5 -0.5q-1 0 -2 1l-1 1q0 1 1.5 3.5t2.5 6.5l2 8q0 3 2 3q1 0 1.5 -1.5t0.5 -4.5q0 -4 1.5 -7t4.5 -5t7 -2q7 0 11 3.5t4 9.5q0 3 -0.5 5t-3 4.5l-6.5 6.5q-5 5 -8 9t-3 11q0 6 3.5 11t9 7.5 t12.5 2.5q3 0 6 -0.5t5 -1.5t3.5 -1h2.5h3q1 0 1.5 0.5l0.5 0.5q1 0 1.5 -0.5t-0.5 -1.5t-2 -3.5t-2 -5.5t-2 -8q0 -1 -0.5 -1.5t-1.5 -0.5t-1.5 0.5t-0.5 2.5q0 7 -3.5 11.5t-9.5 4.5q-4 0 -6.5 -2t-4 -4.5t-1.5 -5.5t0.5 -5.5t3 -5t6.5 -5.5q6 -5 8.5 -10t2.5 -10 q0 -6 -3 -11t-9 -8.5t-14 -3.5z"
         id="glyph21180" />
      <glyph
         glyph-name="T"
         unicode="T"
         horiz-adv-x="72"
         d="M15 -0h-1.5t-0.5 1t1 1.5t2 0.5q4 1 7 2.5t4 5.5l14 47q2 6 1.5 7.5t-2.5 1.5h-6q-4 0 -7.5 -2t-6.5 -4q-1 -1 -2 -2.5t-2 -2.5t-2 -1t-1 0.5v1.5v1.5t1 1.5q3 3 4.5 6t2.5 7q0 1 1 1.5l1 0.5q1 0 2 -0.5t2 -1.5t2 -1t2.5 -0.5t5.5 -0.5h33q4 0 6.5 0.5t3.5 0.5t2 1 q2 1 2.5 1.5t1.5 0.5t1 -1t-0.5 -1.5t-0.5 -1.5q-1 -3 -2.5 -6.5t-2.5 -7.5q0 -2 -1 -2.5t-2 -0.5t-1 1v3q0 5 -2 7t-6 2h-8q-2 0 -2.5 -0.5t-1.5 -2.5t-2 -6l-15 -47q-1 -4 0.5 -5.5t5.5 -2.5q1 0 1.5 -0.5t0.5 -1.5t-1 -1h-2h-4.5h-5h-5.5h-4.5h-5h-5.5z"
         id="glyph21182" />
      <glyph
         glyph-name="Tcaron"
         unicode="Ť"
         horiz-adv-x="72"
         d="M15 0h-1.5t-0.5 1t1 1.5t2 0.5q4 1 7 2.5t4 5.5l14 47q2 6 1.5 7.5t-2.5 1.5h-6q-4 0 -7.5 -2t-6.5 -4q-1 -1 -2 -2.5t-2 -2.5t-2 -1t-1 0.5v1.5v1.5t1 1.5q3 3 4.5 6t2.5 7q0 1 1 1.5l1 0.5q1 0 2 -0.5t2 -1.5t2 -1t2.5 -0.5t5.5 -0.5h33q4 0 6.5 0.5t3.5 0.5t2 1 q2 1 2.5 1.5t1.5 0.5t1 -1t-0.5 -1.5t-0.5 -1.5q-1 -3 -2.5 -6.5t-2.5 -7.5q0 -2 -1 -2.5t-2 -0.5t-1 1v3q0 5 -2 7t-6 2h-8q-2 0 -2.5 -0.5t-1.5 -2.5t-2 -6l-15 -47q-1 -4 0.5 -5.5t5.5 -2.5q1 0 1.5 -0.5t0.5 -1.5t-1 -1h-2h-4.5h-5h-5.5h-4.5h-5h-5.5z"
         id="glyph21184" />
      <glyph
         glyph-name="U"
         unicode="U"
         horiz-adv-x="77"
         d="M34 -2q-6 0 -11 2t-8.5 6t-4 9.5t1.5 12.5l10 32q1 3 0 5t-3 3q-3 1 -3 3q0 1 1.5 1h2.5h6.5h6.5h6.5h6.5t2 -2q0 -1 -1.5 -1.5t-3.5 -0.5q-2 -1 -4 -3t-3 -6l-10 -33q-2 -7 -1 -11.5t5 -7t8 -2.5q7 0 12 3.5t8.5 9t5.5 11.5q2 5 3.5 9t2.5 7.5t1 4.5q2 7 2 10.5t-1 5 t-3 2.5q-1 0 -2.5 0.5t-1.5 1.5t1.5 1.5t2.5 0.5h4h3.5h3.5h3.5h3h2.5t2 -0.5l1 -0.5q0 -1 -4 -3q-2 -1 -4 -1.5t-3 -3t-3 -6.5q-3 -7 -5 -14t-4 -15q-3 -9 -7.5 -15.5t-11 -10.5t-16.5 -4z"
         id="glyph21186" />
      <glyph
         glyph-name="Uacute"
         unicode="Ú"
         horiz-adv-x="77"
         d="M34 -2q-6 0 -11 2t-8.5 6t-4 9.5t1.5 12.5l10 32q1 3 0 5t-3 3q-3 1 -3 3q0 1 1.5 1h2.5h6.5h6.5h6.5h6.5t2 -2q0 -1 -1.5 -1.5t-3.5 -0.5q-2 -1 -4 -3t-3 -6l-10 -33q-2 -7 -1 -11.5t5 -7t8 -2.5q7 0 12 3.5t8.5 9t5.5 11.5q2 5 3.5 9t2.5 7.5t1 4.5q2 7 2 10.5t-1 5 t-3 2.5q-1 0 -2.5 0.5t-1.5 1.5t1.5 1.5t2.5 0.5h4h3.5h3.5h3.5h3h2.5t2 -0.5l1 -0.5q0 -1 -4 -3q-2 -1 -4 -1.5t-3 -3t-3 -6.5q-3 -7 -5 -14t-4 -15q-3 -9 -7.5 -15.5t-11 -10.5t-16.5 -4z"
         id="glyph21188" />
      <glyph
         glyph-name="Ucircumflex"
         unicode="Û"
         horiz-adv-x="77"
         d="M34 -2q-6 0 -11 2t-8.5 6t-4 9.5t1.5 12.5l10 32q1 3 0 5t-3 3q-3 1 -3 3q0 1 1.5 1h2.5h6.5h6.5h6.5h6.5t2 -2q0 -1 -1.5 -1.5t-3.5 -0.5q-2 -1 -4 -3t-3 -6l-10 -33q-2 -7 -1 -11.5t5 -7t8 -2.5q7 0 12 3.5t8.5 9t5.5 11.5q2 5 3.5 9t2.5 7.5t1 4.5q2 7 2 10.5t-1 5 t-3 2.5q-1 0 -2.5 0.5t-1.5 1.5t1.5 1.5t2.5 0.5h4h3.5h3.5h3.5h3h2.5t2 -0.5l1 -0.5q0 -1 -4 -3q-2 -1 -4 -1.5t-3 -3t-3 -6.5q-3 -7 -5 -14t-4 -15q-3 -9 -7.5 -15.5t-11 -10.5t-16.5 -4z"
         id="glyph21190" />
      <glyph
         glyph-name="Udieresis"
         unicode="Ü"
         horiz-adv-x="77"
         d="M34 -2q-6 0 -11 2t-8.5 6t-4 9.5t1.5 12.5l10 32q1 3 0 5t-3 3q-3 1 -3 3q0 1 1.5 1h2.5h6.5h6.5h6.5h6.5t2 -2q0 -1 -1.5 -1.5t-3.5 -0.5q-2 -1 -4 -3t-3 -6l-10 -33q-2 -7 -1 -11.5t5 -7t8 -2.5q7 0 12 3.5t8.5 9t5.5 11.5q2 5 3.5 9t2.5 7.5t1 4.5q2 7 2 10.5t-1 5 t-3 2.5q-1 0 -2.5 0.5t-1.5 1.5t1.5 1.5t2.5 0.5h4h3.5h3.5h3.5h3h2.5t2 -0.5l1 -0.5q0 -1 -4 -3q-2 -1 -4 -1.5t-3 -3t-3 -6.5q-3 -7 -5 -14t-4 -15q-3 -9 -7.5 -15.5t-11 -10.5t-16.5 -4z"
         id="glyph21192" />
      <glyph
         glyph-name="Ugrave"
         unicode="Ù"
         horiz-adv-x="77"
         d="M34 -2q-6 0 -11 2t-8.5 6t-4 9.5t1.5 12.5l10 32q1 3 0 5t-3 3q-3 1 -3 3q0 1 1.5 1h2.5h6.5h6.5h6.5h6.5t2 -2q0 -1 -1.5 -1.5t-3.5 -0.5q-2 -1 -4 -3t-3 -6l-10 -33q-2 -7 -1 -11.5t5 -7t8 -2.5q7 0 12 3.5t8.5 9t5.5 11.5q2 5 3.5 9t2.5 7.5t1 4.5q2 7 2 10.5t-1 5 t-3 2.5q-1 0 -2.5 0.5t-1.5 1.5t1.5 1.5t2.5 0.5h4h3.5h3.5h3.5h3h2.5t2 -0.5l1 -0.5q0 -1 -4 -3q-2 -1 -4 -1.5t-3 -3t-3 -6.5q-3 -7 -5 -14t-4 -15q-3 -9 -7.5 -15.5t-11 -10.5t-16.5 -4z"
         id="glyph21194" />
      <glyph
         glyph-name="V"
         unicode="V"
         horiz-adv-x="78"
         d="M21 -2q-3 0 -4 3.5t0 8.5q3 15 5 27.5t3 23.5q0 3 -0.5 4.5t-4.5 2.5q-2 0 -2.5 1l-0.5 1q0 1 1 1.5t2 0.5h7h8h4.5h5h4.5q1 0 2 -0.5t0 -1.5q0 -1 -1 -1.5t-2 -0.5q-4 -1 -5.5 -2t-2.5 -5l-8 -43v-1.5t1 -0.5l0.5 0.5l1.5 1.5l28 34q5 5 6 8.5t0 5.5t-3 2q-1 0 -2 1t0 1 q0 1 1 1.5t2 0.5h5.5h5.5h5.5h5.5q1 0 2 -0.5l1 -0.5q0 -1 -1 -1.5l-3 -1.5q-3 -1 -6.5 -3t-6.5 -5l-40 -47q-2 -2 -4 -4.5l-4 -5t-3.5 -4t-2.5 -1.5z"
         id="glyph21196" />
      <glyph
         glyph-name="W"
         unicode="W"
         horiz-adv-x="120"
         d="M22 -2q-2 0 -2.5 2t-1 5t0.5 6q1 6 2 12.5l2 13t2 12t1 10.5v5t-1.5 3t-3.5 1t-3 0.5t-1 1.5t1 1.5t3 0.5h6.5h7.5h4.5h5.5h4t2 -0.5t1 -1.5t-1.5 -1.5t-2.5 -0.5q-3 0 -4.5 -1t-2 -2.5l-1.5 -4.5q-2 -10 -3.5 -19.5t-2.5 -19.5q0 -2 0.5 -2.5t1.5 1.5l28 33q2 3 3.5 5 t1.5 4q0 3 -1.5 4t-4.5 2q-2 0 -3 1t-1 2t1.5 1h2.5h5h5.5h4.5h5h5.5h4.5q3 0 3 -1t-1.5 -1.5t-2.5 -1.5q-5 -1 -6.5 -2t-2.5 -5l-6 -40q0 -2 0.5 -2.5t1.5 2.5l25 31q4 5 5.5 8.5t0.5 5.5t-3 2q-1 0 -2 0.5t-1 1.5t1.5 1.5t2.5 0.5h4h4h4h6h6q1 0 2 -0.5l1 -0.5 q0 -1 -1.5 -2t-3.5 -1q-3 -1 -6.5 -3t-6.5 -5l-39 -47q-3 -4 -6 -7t-5 -5.5t-3 -2.5q-2 0 -2.5 1.5l-1 3t0 4t0.5 5.5q1 6 2.5 13t2.5 14t2 13l-32 -39q-2 -2 -4 -4.5t-3.5 -5t-3.5 -4t-3 -1.5z"
         id="glyph21198" />
      <glyph
         glyph-name="X"
         unicode="X"
         horiz-adv-x="75"
         d="M-2 -1q-1 0 -2 0.5t-1 1.5t1 1.5t2 0.5q2 0 4.5 1.5t5 3.5t6.5 6l17 19q2 2 2.5 3.5t-0.5 3.5l-6 20q-1 3 -2.5 4.5t-3 2.5t-3.5 1q-1 0 -2 1t-1 2t1 1h2q4 0 8 -0.5t8 -0.5t7 0.5t6 0.5q1 0 2 -0.5t1 -1.5t-1 -1.5t-3 -0.5q-4 -1 -5 -2.5t1 -6.5l4 -16q0 -1 1 -1t2 1 l11 13q3 4 4 6.5t0 4t-3 1.5q-1 0 -2 1l-1 1q0 1 1 1.5t3 0.5h4h5h5.5h5.5h2t1 -1t-1 -1.5t-2 -1.5q-2 0 -4.5 -1.5t-4.5 -3t-4 -3.5l-18 -20l-1.5 -3t-0.5 -3l7 -23q1 -2 2 -3.5t3 -2.5l4 -2q1 0 2.5 -0.5t1.5 -1.5t-1 -1.5t-2 -0.5q-3 0 -6.5 0.5t-6.5 0.5h-6h-6h-5 q-1 0 -2 0.5l-1 0.5q0 1 1 1.5t2 1.5q4 1 5.5 2.5t0.5 4.5l-6 19q0 1 -1 1.5t-1 -0.5l-14 -18q-3 -3 -3 -5t1 -3t3 -2q1 0 2 -0.5t1 -1.5t-1 -1h-2h-5h-5t-6.5 -0.5t-6.5 -0.5z"
         id="glyph21200" />
      <glyph
         glyph-name="Y"
         unicode="Y"
         horiz-adv-x="68"
         d="M13 -1q-1 0 -1.5 0.5t-0.5 1.5t1 1.5t3 0.5q4 1 6.5 3t3.5 6l5 16q1 3 1 5.5t-1 4.5l-6 23q-1 3 -2.5 4.5t-3.5 2.5l-3 1.5t0 0.5q0 1 1 1.5t2 0.5q4 0 7.5 -0.5t7.5 -0.5q3 0 6 0.5t6 0.5q1 0 1.5 -0.5t0.5 -1.5t-1 -1.5t-3 -0.5q-4 -1 -5 -2.5t-1 -4.5l5 -20 q1 -2 1 -2.5t1 -0.5t1.5 0.5t1.5 2.5q4 4 7.5 8.5t6.5 9.5q3 4 3 6t-4 3q-1 0 -1.5 1l-0.5 1q0 1 1 1.5t2 0.5q2 0 4.5 -0.5t5.5 -0.5t6 0.5t6 0.5q1 0 1.5 -0.5l0.5 -0.5q0 -1 -1 -1.5t-2 -1.5q-2 -1 -5 -2t-5 -2.5t-3 -3.5q-3 -3 -6.5 -7t-6.5 -7.5t-6 -6.5 q-2 -2 -3.5 -4.5t-2.5 -6.5l-5 -16q-1 -4 0 -6t5 -3q1 0 2 -0.5t1 -1.5t-1.5 -1.5t-2.5 -0.5q-3 0 -5 0.5t-4.5 0.5h-5.5h-4.5t-5 -0.5t-5.5 -0.5z"
         id="glyph21202" />
      <glyph
         glyph-name="Yacute"
         unicode="Ý"
         horiz-adv-x="68"
         d="M13 -1q-1 0 -1.5 0.5t-0.5 1.5t1 1.5t3 0.5q4 1 6.5 3t3.5 6l5 16q1 3 1 5.5t-1 4.5l-6 23q-1 3 -2.5 4.5t-3.5 2.5l-3 1.5t0 0.5q0 1 1 1.5t2 0.5q4 0 7.5 -0.5t7.5 -0.5q3 0 6 0.5t6 0.5q1 0 1.5 -0.5t0.5 -1.5t-1 -1.5t-3 -0.5q-4 -1 -5 -2.5t-1 -4.5l5 -20 q1 -2 1 -2.5t1 -0.5t1.5 0.5t1.5 2.5q4 4 7.5 8.5t6.5 9.5q3 4 3 6t-4 3q-1 0 -1.5 1l-0.5 1q0 1 1 1.5t2 0.5q2 0 4.5 -0.5t5.5 -0.5t6 0.5t6 0.5q1 0 1.5 -0.5l0.5 -0.5q0 -1 -1 -1.5t-2 -1.5q-2 -1 -5 -2t-5 -2.5t-3 -3.5q-3 -3 -6.5 -7t-6.5 -7.5t-6 -6.5 q-2 -2 -3.5 -4.5t-2.5 -6.5l-5 -16q-1 -4 0 -6t5 -3q1 0 2 -0.5t1 -1.5t-1.5 -1.5t-2.5 -0.5q-3 0 -5 0.5t-4.5 0.5h-5.5h-4.5t-5 -0.5t-5.5 -0.5z"
         id="glyph21204" />
      <glyph
         glyph-name="Z"
         unicode="Z"
         horiz-adv-x="70"
         d="M55 -0h-5.5h-8.5h-10h-10h-8.5h-8t-7.5 -1q-1 0 -0.5 1.5l0.5 1.5q1 1 2.5 3l3 4t3.5 4q6 7 12 13.5l12 13l12 13t12 13.5q1 1 1 1.5t-2 0.5h-3.5t-5 -0.5t-5.5 -0.5h-4q-4 -1 -8 -3t-7 -7l-2 -2t-2 -1t-1.5 0.5t-0.5 1.5l0.5 1q0.5 1 0.5 2q2 3 3 6t2 5t1.5 2.5t2.5 0.5 q3 0 6 -1t8 -1h7h7t7.5 0.5t7.5 0.5h7q1 0 1.5 -1t-0.5 -2l-10 -11q-6 -6 -11.5 -12.5t-11.5 -12.5t-11.5 -12.5t-11.5 -13.5q-3 -3 1 -2q2 0 5.5 -0.5t6.5 -0.5t6 0.5l6 1t6 1.5q4 1 7.5 3.5t6.5 6.5l1.5 1.5l0.5 0.5q1 0 1.5 -0.5t-0.5 -1.5q0 -1 -1 -3t-2.5 -4.5 t-2.5 -4.5t-2 -3t-2 -1.5t-2 -0.5z"
         id="glyph21206" />
      <glyph
         glyph-name="Zcaron"
         unicode="Ž"
         horiz-adv-x="70"
         d="M55 0h-5.5h-8.5h-10h-10h-8.5h-8t-7.5 -1q-1 0 -0.5 1.5l0.5 1.5q1 1 2.5 3l3 4t3.5 4q6 7 12 13.5l12 13l12 13t12 13.5q1 1 1 1.5t-2 0.5h-3.5t-5 -0.5t-5.5 -0.5h-4q-4 -1 -8 -3t-7 -7l-2 -2t-2 -1t-1.5 0.5t-0.5 1.5l0.5 1q0.5 1 0.5 2q2 3 3 6t2 5t1.5 2.5t2.5 0.5 q3 0 6 -1t8 -1h7h7t7.5 0.5t7.5 0.5h7q1 0 1.5 -1t-0.5 -2l-10 -11q-6 -6 -11.5 -12.5t-11.5 -12.5t-11.5 -12.5t-11.5 -13.5q-3 -3 1 -2q2 0 5.5 -0.5t6.5 -0.5t6 0.5l6 1t6 1.5q4 1 7.5 3.5t6.5 6.5l1.5 1.5l0.5 0.5q1 0 1.5 -0.5t-0.5 -1.5q0 -1 -1 -3t-2.5 -4.5 t-2.5 -4.5t-2 -3t-2 -1.5t-2 -0.5z"
         id="glyph21208" />
      <glyph
         glyph-name="a"
         unicode="a"
         horiz-adv-x="57"
         d="M4 -2q-1 0 -2.5 1t-2.5 2.5t-1 2.5q0 4 2 8t7 10t12 13q5 5 9 8t6 3q3 0 5 -2l1 -1v0h0.5h0.5l1.5 3l0.5 1q1 1 2 1q2 0 3.5 -0.5t2.5 -1.5t1 -2v-1l-12 -31q-1 -3 1 -3t4.5 1.5t5.5 4.5v0.5v0.5q1 0 1.5 -0.5t0.5 -1.5t-2 -3.5t-5 -5.5q-4 -3 -7.5 -5t-6.5 -2 q-1 0 -2.5 1t-2.5 2.5t-1 2.5t1 2v1.5q0 1.5 1 3t1.5 3t1.5 2.5v1.5t-1 -0.5q-6 -7 -10.5 -11t-8.5 -6t-7 -2zM14 9q2 0 6.5 3.5t9.5 9.5q4 5 6 8t2 5q0 1 -2 3q-1 1 -2 1h-2q-2 0 -5 -2l-6 -4q-3 -3 -5 -6.5t-3.5 -7.5t-1.5 -7q0 -2 0.5 -2.5t2.5 -0.5z"
         id="glyph21210" />
      <glyph
         glyph-name="aacute"
         unicode="á"
         horiz-adv-x="57"
         d="M4 -2q-1 0 -2.5 1t-2.5 2.5t-1 2.5q0 4 2 8t7 10t12 13q5 5 9 8t6 3q3 0 5 -2l1 -1v0h0.5h0.5l1.5 3l0.5 1q1 1 2 1q2 0 3.5 -0.5t2.5 -1.5t1 -2v-1l-12 -31q-1 -3 1 -3t4.5 1.5t5.5 4.5v0.5v0.5q1 0 1.5 -0.5t0.5 -1.5t-2 -3.5t-5 -5.5q-4 -3 -7.5 -5t-6.5 -2 q-1 0 -2.5 1t-2.5 2.5t-1 2.5t1 2v1.5q0 1.5 1 3t1.5 3t1.5 2.5v1.5t-1 -0.5q-6 -7 -10.5 -11t-8.5 -6t-7 -2zM14 9q2 0 6.5 3.5t9.5 9.5q4 5 6 8t2 5q0 1 -2 3q-1 1 -2 1h-2q-2 0 -5 -2l-6 -4q-3 -3 -5 -6.5t-3.5 -7.5t-1.5 -7q0 -2 0.5 -2.5t2.5 -0.5z"
         id="glyph21212" />
      <glyph
         glyph-name="acircumflex"
         unicode="â"
         horiz-adv-x="57"
         d="M45 74q1 0 1.5 -1t0.5 -3t1 -4t1.5 -4t0.5 -4v-3v-2.5t-1 -1.5t-3 3l-2 4l-2 4q0 1 -1 0q-3 -2 -5.5 -4.5t-4.5 -3.5l-2 -2t-2 -1t-1 1v1.5t1 1.5q2 2 4 4.5l4 5t4 4.5l3.5 3.5t2.5 1.5zM4 -2q-1 0 -2.5 1t-2.5 2.5t-1 2.5q0 4 2 8t7 10t12 13q5 5 9 8t6 3q3 0 5 -2l1 -1 v0h0.5h0.5l1.5 3l0.5 1q1 1 2 1q2 0 3.5 -0.5t2.5 -1.5t1 -2v-1l-12 -31q-1 -3 1 -3t4.5 1.5t5.5 4.5v0.5v0.5q1 0 1.5 -0.5t0.5 -1.5t-2 -3.5t-5 -5.5q-4 -3 -7.5 -5t-6.5 -2q-1 0 -2.5 1t-2.5 2.5t-1 2.5t1 2v1.5q0 1.5 1 3t1.5 3t1.5 2.5v1.5t-1 -0.5q-6 -7 -10.5 -11 t-8.5 -6t-7 -2zM14 9q2 0 6.5 3.5t9.5 9.5q4 5 6 8t2 5q0 1 -2 3q-1 1 -2 1h-2q-2 0 -5 -2l-6 -4q-3 -3 -5 -6.5t-3.5 -7.5t-1.5 -7q0 -2 0.5 -2.5t2.5 -0.5z"
         id="glyph21214" />
      <glyph
         glyph-name="adieresis"
         unicode="ä"
         horiz-adv-x="57"
         d="M4 -2q-1 0 -2.5 1t-2.5 2.5t-1 2.5q0 4 2 8t7 10t12 13q5 5 9 8t6 3q3 0 5 -2l1 -1v0h0.5h0.5l1.5 3l0.5 1q1 1 2 1q2 0 3.5 -0.5t2.5 -1.5t1 -2v-1l-12 -31q-1 -3 1 -3t4.5 1.5t5.5 4.5v0.5v0.5q1 0 1.5 -0.5t0.5 -1.5t-2 -3.5t-5 -5.5q-4 -3 -7.5 -5t-6.5 -2 q-1 0 -2.5 1t-2.5 2.5t-1 2.5t1 2v1.5q0 1.5 1 3t1.5 3t1.5 2.5v1.5t-1 -0.5q-6 -7 -10.5 -11t-8.5 -6t-7 -2zM14 9q2 0 6.5 3.5t9.5 9.5q4 5 6 8t2 5q0 1 -2 3q-1 1 -2 1h-2q-2 0 -5 -2l-6 -4q-3 -3 -5 -6.5t-3.5 -7.5t-1.5 -7q0 -2 0.5 -2.5t2.5 -0.5z"
         id="glyph21216" />
      <glyph
         glyph-name="agrave"
         unicode="à"
         horiz-adv-x="57"
         d="M38 52q-1 0 -1.5 0.5l-1.5 1.5l-11 12q-1 1 -1.5 2.5l-0.5 1.5q0 1 1 2.5t2.5 2t2.5 0.5t1.5 -0.5t1.5 -2.5l8 -17q1 -1 0.5 -2t-1.5 -1zM4 -2q-1 0 -2.5 1t-2.5 2.5t-1 2.5q0 4 2 8t7 10t12 13q5 5 9 8t6 3q3 0 5 -2l1 -1v0h0.5h0.5l1.5 3l0.5 1q1 1 2 1q2 0 3.5 -0.5 t2.5 -1.5t1 -2v-1l-12 -31q-1 -3 1 -3t4.5 1.5t5.5 4.5v0.5v0.5q1 0 1.5 -0.5t0.5 -1.5t-2 -3.5t-5 -5.5q-4 -3 -7.5 -5t-6.5 -2q-1 0 -2.5 1t-2.5 2.5t-1 2.5t1 2v1.5q0 1.5 1 3t1.5 3t1.5 2.5v1.5t-1 -0.5q-6 -7 -10.5 -11t-8.5 -6t-7 -2zM14 9q2 0 6.5 3.5t9.5 9.5 q4 5 6 8t2 5q0 1 -2 3q-1 1 -2 1h-2q-2 0 -5 -2l-6 -4q-3 -3 -5 -6.5t-3.5 -7.5t-1.5 -7q0 -2 0.5 -2.5t2.5 -0.5z"
         id="glyph21218" />
      <glyph
         glyph-name="aring"
         unicode="å"
         horiz-adv-x="57"
         d="M4 -2q-1 0 -2.5 1t-2.5 2.5t-1 2.5q0 4 2 8t7 10t12 13q5 5 9 8t6 3q3 0 5 -2l1 -1v0h0.5h0.5l1.5 3l0.5 1q1 1 2 1q2 0 3.5 -0.5t2.5 -1.5t1 -2v-1l-12 -31q-1 -3 1 -3t4.5 1.5t5.5 4.5v0.5v0.5q1 0 1.5 -0.5t0.5 -1.5t-2 -3.5t-5 -5.5q-4 -3 -7.5 -5t-6.5 -2 q-1 0 -2.5 1t-2.5 2.5t-1 2.5t1 2v1.5q0 1.5 1 3t1.5 3t1.5 2.5v1.5t-1 -0.5q-6 -7 -10.5 -11t-8.5 -6t-7 -2zM14 9q2 0 6.5 3.5t9.5 9.5q4 5 6 8t2 5q0 1 -2 3q-1 1 -2 1h-2q-2 0 -5 -2l-6 -4q-3 -3 -5 -6.5t-3.5 -7.5t-1.5 -7q0 -2 0.5 -2.5t2.5 -0.5z"
         id="glyph21220" />
      <glyph
         glyph-name="atilde"
         unicode="ã"
         horiz-adv-x="57"
         d="M4 -2q-1 0 -2.5 1t-2.5 2.5t-1 2.5q0 4 2 8t7 10t12 13q5 5 9 8t6 3q3 0 5 -2l1 -1v0h0.5h0.5l1.5 3l0.5 1q1 1 2 1q2 0 3.5 -0.5t2.5 -1.5t1 -2v-1l-12 -31q-1 -3 1 -3t4.5 1.5t5.5 4.5v0.5v0.5q1 0 1.5 -0.5t0.5 -1.5t-2 -3.5t-5 -5.5q-4 -3 -7.5 -5t-6.5 -2 q-1 0 -2.5 1t-2.5 2.5t-1 2.5t1 2v1.5q0 1.5 1 3t1.5 3t1.5 2.5v1.5t-1 -0.5q-6 -7 -10.5 -11t-8.5 -6t-7 -2zM14 9q2 0 6.5 3.5t9.5 9.5q4 5 6 8t2 5q0 1 -2 3q-1 1 -2 1h-2q-2 0 -5 -2l-6 -4q-3 -3 -5 -6.5t-3.5 -7.5t-1.5 -7q0 -2 0.5 -2.5t2.5 -0.5z"
         id="glyph21222" />
      <glyph
         glyph-name="ae"
         unicode="æ"
         horiz-adv-x="60"
         d="M4 -2q-1 0 -2.5 1t-2.5 2t-1 3q0 5 3 10.5t8.5 11t11.5 10.5q5 4 10 6t9 3t7 1l-9 -7q-4 0 -7.5 -1.5t-7.5 -4.5q-3 -3 -6 -6.5t-4.5 -7t-1.5 -6.5q0 -2 1 -3t2 -1q2 0 5 2.5t7 8.5l2 -4q-6 -6 -9.5 -10t-7.5 -6t-7 -2zM36 -2q-3 0 -5.5 2t-4.5 5t-3 7q0 6 2 12t6 11.5 t8.5 8.5t10.5 3q5 0 7.5 -2t2.5 -6t-2.5 -6.5t-6 -4.5t-7.5 -3t-7 0q-1 0 -1 -1q0 -2 -0.5 -3.5t-0.5 -3.5q0 -4 2 -7t5 -3t5.5 2t4.5 5q1 1 2 1t1 -1v-1q0 -1 -1 -1q-2 -4 -4.5 -7t-6 -5t-7.5 -2zM38 28q1 0 3 0.5t4.5 2t4 4t1.5 5.5q0 1 -0.5 2t-2.5 1t-3.5 -1t-3 -3.5 t-2.5 -5t-2 -5.5h1z"
         id="glyph21224" />
      <glyph
         glyph-name="b"
         unicode="b"
         horiz-adv-x="55"
         d="M18 -1q-6 0 -9 3t-3 8q0 2 0.5 5t1.5 6l13 40q1 2 1 3.5v2.5t-0.5 1.5t-2.5 1.5l-3 2q0 1 0.5 1h2.5q2 1 4.5 2t5 1.5t4 1t2.5 0.5q2 0 3 -2q0 -1 -0.5 -2t-0.5 -2q-1 -2 -2.5 -5.5t-3 -8l-3 -9t-3.5 -10t-4 -10.5q0 -1 0.5 -1h0.5q6 9 12.5 14t11.5 5q4 0 6.5 -2.5 t2.5 -6.5q0 -5 -2.5 -10.5t-6 -11t-8 -9.5t-10 -6t-10.5 -2zM21 3q1 0 3.5 1.5t5 4t4.5 5.5q3 4 4.5 8l3 8t1.5 6t-1 3t-2 1q-3 0 -7 -3.5t-8 -9.5q-4 -5 -6.5 -10t-2.5 -7t1.5 -4.5t3.5 -2.5z"
         id="glyph21226" />
      <glyph
         glyph-name="c"
         unicode="c"
         horiz-adv-x="38"
         d="M14 -2q-3 0 -6 2t-5 5t-2 7q0 5 1.5 10t4 9.5t6.5 8t8.5 5.5t9.5 2q4 0 6 -1.5t2 -4.5q0 -2 -1 -4t-3 -2q-1 0 -1.5 1q-0.5 0 -1.5 2t-2.5 3.5t-2.5 1.5q-3 0 -5 -2.5t-4 -6.5t-3.5 -8.5t-1.5 -9.5q0 -4 2 -5.5t5 -1.5t5.5 1t4.5 4l1 1h1q1 0 1 -1q0 -2 -1.5 -5 t-4.5 -5.5t-6.5 -4t-6.5 -1.5z"
         id="glyph21228" />
      <glyph
         glyph-name="ccaron"
         unicode="č"
         horiz-adv-x="38"
         d="M14 -2q-3 0 -6 2t-5 5t-2 7q0 5 1.5 10t4 9.5t6.5 8t8.5 5.5t9.5 2q4 0 6 -1.5t2 -4.5q0 -2 -1 -4t-3 -2q-1 0 -1.5 1q-0.5 0 -1.5 2t-2.5 3.5t-2.5 1.5q-3 0 -5 -2.5t-4 -6.5t-3.5 -8.5t-1.5 -9.5q0 -4 2 -5.5t5 -1.5t5.5 1t4.5 4l1 1h1q1 0 1 -1q0 -2 -1.5 -5 t-4.5 -5.5t-6.5 -4t-6.5 -1.5z"
         id="glyph21230" />
      <glyph
         glyph-name="ccedilla"
         unicode="ç"
         horiz-adv-x="38"
         d="M14 -2q-3 0 -6 2t-5 5t-2 7q0 5 1.5 10t4 9.5t6.5 8t8.5 5.5t9.5 2q4 0 6 -1.5t2 -4.5q0 -2 -1 -4t-3 -2q-1 0 -1.5 1q-0.5 0 -1.5 2t-2.5 3.5t-2.5 1.5q-3 0 -5 -2.5t-4 -6.5t-3.5 -8.5t-1.5 -9.5q0 -4 2 -5.5t5 -1.5t5.5 1t4.5 4l1 1h1q1 0 1 -1q0 -2 -1.5 -5 t-4.5 -5.5t-6.5 -4t-6.5 -1.5z"
         id="glyph21232" />
      <glyph
         glyph-name="d"
         unicode="d"
         horiz-adv-x="60"
         d="M8 -2q-4 0 -6 2.5t-2 6.5t1.5 9t4.5 10t7 10q5 5 9.5 8t8.5 3q2 0 4 -1l4 -2q1 -1 1.5 -1h0.5h1l6 20q1 2 1 3v1v0v0q0 1 -1 2t-3 2t-2.5 1t-0.5 1t1 1t3 1q1 0 3.5 0.5l5 1t4 1t2.5 0.5q2 0 2 -2v-1.5v-2.5l-20 -60v-1v-1q0 -1 1 -1t3 1t4 2.5t3 3.5h0.5h0.5q1 0 1 -1 t-1.5 -3.5t-4 -4.5l-5 -4t-5 -3.5t-4.5 -1.5t-3.5 1t-2.5 2.5t-1 2.5t1 3q0 1 1 3t1.5 3.5t1 2t-0.5 -0.5v1.5t-1 -0.5q-8 -9 -13.5 -13.5t-10.5 -4.5zM16 7q3 0 5.5 2t5.5 5.5l6 7t4 7.5t1 7t-1 4.5t-3 1.5t-5 -2t-6 -5.5t-5.5 -7.5t-4 -8.5t-1.5 -7.5q0 -2 1 -3t3 -1z"
         id="glyph21234" />
      <glyph
         glyph-name="eth"
         unicode="ð"
         horiz-adv-x="48"
         d="M16 -2q-3 0 -6.5 2t-5 5t-1.5 8t2 11t6 11t9.5 8.5t11.5 3.5h2t2 -1h0.5h0.5l0.5 1.5q0.5 1.5 0.5 3.5q0 5 -1 9l-13 -7q-1 -1 -2 -0.5t-1 1.5q0 2 0.5 3t1.5 2l13 6q-2 4 -4.5 6t-6.5 3q-1 0 -1.5 0.5t-0.5 1.5t1 1.5t3 0.5q6 0 10 -2.5t7 -6.5l11 5q1 1 2 0.5t1 -1.5 t-1 -2.5t-2 -2.5l-8 -4q3 -6 3 -14q0 -7 -1.5 -14t-5 -14t-7.5 -12t-9 -8.5t-11 -3.5zM17 2q2 0 5 2.5t5.5 6.5t4.5 8.5t3 9t1 8.5q0 3 -0.5 4.5t-3.5 1.5q-2 0 -4.5 -2.5t-5 -6t-4.5 -8.5t-3 -9.5t-1 -7.5t0.5 -5t2.5 -2z"
         id="glyph21236" />
      <glyph
         glyph-name="dcaron"
         unicode="ď"
         horiz-adv-x="64"
         d="M8 -2q-4 0 -6 2.5t-2 6.5t1.5 9t4.5 10t7 10q5 5 9.5 8t8.5 3q2 0 4 -1l4 -2q1 -1 1.5 -1h0.5h1l6 20q1 2 1 3v1v0v0q0 1 -1 2t-3 2t-2.5 1t-0.5 1t1 1t3 1q1 0 3.5 0.5l5 1t4 1t2.5 0.5q2 0 2 -2v-1.5v-2.5l-20 -60v-1v-1q0 -1 1 -1t3 1t4 2.5t3 3.5h0.5h0.5q1 0 1 -1 t-1.5 -3.5t-4 -4.5l-5 -4t-5 -3.5t-4.5 -1.5t-3.5 1t-2.5 2.5t-1 2.5t1 3q0 1 1 3t1.5 3.5t1 2t-0.5 -0.5v1.5t-1 -0.5q-8 -9 -13.5 -13.5t-10.5 -4.5zM16 7q3 0 5.5 2t5.5 5.5l6 7t4 7.5t1 7t-1 4.5t-3 1.5t-5 -2t-6 -5.5t-5.5 -7.5t-4 -8.5t-1.5 -7.5q0 -2 1 -3t3 -1z"
         id="glyph21238" />
      <glyph
         glyph-name="dcroat"
         unicode="đ"
         horiz-adv-x="59"
         d="M8 -2q-3 0 -5.5 2.5t-2.5 6.5t1.5 9t4.5 10t7 9q4 5 8.5 8t8.5 3q3 0 5.5 -1.5t3.5 -3.5l1 -1v0l1 1l7 22q0 1 0.5 2t0.5 2t-1 2.5t-3 1.5q-1 0 -2 0.5t-1 1.5t1 1t3 1q1 0 3 0.5t4.5 1t4 1t2.5 0.5t1.5 -0.5t0.5 -1.5v-2v-2l-19 -60q0 -1 -0.5 -1t-0.5 -1q0 -2 1 -2 t3 1.5l4 3t4 2.5v1q1 0 1 -1v-2q-1 -2 -3 -4.5t-5 -5t-6 -4t-5 -1.5t-4.5 2t-2.5 4q0 1 1 3t2 4.5t1 4.5v1l-1 -1q-6 -8 -12 -13t-12 -5zM16 7q3 0 5.5 2t5.5 5t5.5 6.5t4 7t1.5 6.5q0 2 -1 3.5t-2.5 2t-2.5 0.5q-2 0 -4.5 -1.5t-5 -5t-4.5 -7t-3.5 -7.5t-1.5 -8 q0 -2 0.5 -3t2.5 -1zM34 57q-1 0 -1 1v2t1.5 2t2.5 1h29q1 0 1.5 -1t-0.5 -1q-1 -2 -2 -3t-3 -1h-28z"
         id="glyph21240" />
      <glyph
         glyph-name="e"
         unicode="e"
         horiz-adv-x="40"
         d="M14 -2q-3 0 -6 2t-5 5t-2 6q0 6 2.5 12.5t6.5 12t9.5 8.5t10.5 3q6 0 8.5 -2t2.5 -6t-2.5 -6t-6 -4t-8 -3.5t-8.5 -1.5q-1 0 -1.5 -0.5l-0.5 -0.5q0 -1 -0.5 -3t-0.5 -3q0 -4 2 -6.5t5 -2.5t6 1.5t5 3.5l2 2q1 0 1 -1v-1v-1q-2 -4 -5 -7t-6.5 -5t-8.5 -2zM16 27 q2 0 4.5 1t5 2.5t4.5 4t2 5.5q0 1 -1 2t-2 1q-2 0 -4.5 -1.5t-4.5 -3.5t-3 -5t-1 -5q-1 -1 0 -1z"
         id="glyph21242" />
      <glyph
         glyph-name="eacute"
         unicode="é"
         horiz-adv-x="40"
         d="M14 -2q-3 0 -6 2t-5 5t-2 6q0 6 2.5 12.5t6.5 12t9.5 8.5t10.5 3q6 0 8.5 -2t2.5 -6t-2.5 -6t-6 -4t-8 -3.5t-8.5 -1.5q-1 0 -1.5 -0.5l-0.5 -0.5q0 -1 -0.5 -3t-0.5 -3q0 -4 2 -6.5t5 -2.5t6 1.5t5 3.5l2 2q1 0 1 -1v-1v-1q-2 -4 -5 -7t-6.5 -5t-8.5 -2zM16 27 q2 0 4.5 1t5 2.5t4.5 4t2 5.5q0 1 -1 2t-2 1q-2 0 -4.5 -1.5t-4.5 -3.5t-3 -5t-1 -5q-1 -1 0 -1z"
         id="glyph21244" />
      <glyph
         glyph-name="ecircumflex"
         unicode="ê"
         horiz-adv-x="40"
         d="M39 74q1 0 1.5 -1t0.5 -3q1 -2 1.5 -4l1 -4l1 -4t0.5 -3t-0.5 -2.5t-1.5 -1.5t-3 3q-1 2 -1.5 4t-2.5 4q0 1 -1 0q-3 -2 -5.5 -4.5l-3.5 -3.5t-2.5 -2t-2.5 -1t-1 1t0.5 1.5t0.5 1.5q2 2 4 4.5t4.5 5t3.5 4.5l3.5 3.5t2.5 1.5zM14 -2q-3 0 -6 2t-5 5t-2 6q0 6 2.5 12.5 t6.5 12t9.5 8.5t10.5 3q6 0 8.5 -2t2.5 -6t-2.5 -6t-6 -4t-8 -3.5t-8.5 -1.5q-1 0 -1.5 -0.5l-0.5 -0.5q0 -1 -0.5 -3t-0.5 -3q0 -4 2 -6.5t5 -2.5t6 1.5t5 3.5l2 2q1 0 1 -1v-1v-1q-2 -4 -5 -7t-6.5 -5t-8.5 -2zM16 27q2 0 4.5 1t5 2.5t4.5 4t2 5.5q0 1 -1 2t-2 1 q-2 0 -4.5 -1.5t-4.5 -3.5t-3 -5t-1 -5q-1 -1 0 -1z"
         id="glyph21246" />
      <glyph
         glyph-name="edieresis"
         unicode="ë"
         horiz-adv-x="40"
         d="M14 -2q-3 0 -6 2t-5 5t-2 6q0 6 2.5 12.5t6.5 12t9.5 8.5t10.5 3q6 0 8.5 -2t2.5 -6t-2.5 -6t-6 -4t-8 -3.5t-8.5 -1.5q-1 0 -1.5 -0.5l-0.5 -0.5q0 -1 -0.5 -3t-0.5 -3q0 -4 2 -6.5t5 -2.5t6 1.5t5 3.5l2 2q1 0 1 -1v-1v-1q-2 -4 -5 -7t-6.5 -5t-8.5 -2zM16 27 q2 0 4.5 1t5 2.5t4.5 4t2 5.5q0 1 -1 2t-2 1q-2 0 -4.5 -1.5t-4.5 -3.5t-3 -5t-1 -5q-1 -1 0 -1z"
         id="glyph21248" />
      <glyph
         glyph-name="egrave"
         unicode="è"
         horiz-adv-x="40"
         d="M33 52q-1 0 -2 0.5t-1 1.5l-12 12q-1 1 -1.5 2.5l-0.5 1.5q0 1 1 2.5t2.5 2t2.5 0.5t2 -0.5t2 -2.5l8 -17q1 -1 0.5 -2t-1.5 -1zM14 -2q-3 0 -6 2t-5 5t-2 6q0 6 2.5 12.5t6.5 12t9.5 8.5t10.5 3q6 0 8.5 -2t2.5 -6t-2.5 -6t-6 -4t-8 -3.5t-8.5 -1.5q-1 0 -1.5 -0.5 l-0.5 -0.5q0 -1 -0.5 -3t-0.5 -3q0 -4 2 -6.5t5 -2.5t6 1.5t5 3.5l2 2q1 0 1 -1v-1v-1q-2 -4 -5 -7t-6.5 -5t-8.5 -2zM16 27q2 0 4.5 1t5 2.5t4.5 4t2 5.5q0 1 -1 2t-2 1q-2 0 -4.5 -1.5t-4.5 -3.5t-3 -5t-1 -5q-1 -1 0 -1z"
         id="glyph21250" />
      <glyph
         glyph-name="f"
         unicode="f"
         horiz-adv-x="39"
         d="M-9 -32q-6 0 -9.5 2t-3.5 5q0 2 2 4t3 2t2 -1.5t3 -2.5q1 -1 2 -2.5t3 -1.5t3.5 1.5t2.5 4l3 7.5l14 52q1 2 -1 2h-7h-1v1q0 1 0.5 2.5t2.5 1.5h7q1 0 1 2l1 3q3 10 8 16t10.5 9t9.5 3q5 0 8.5 -2.5t3.5 -5.5t-1.5 -5t-3.5 -2q-1 0 -2.5 1.5t-1.5 3.5q-1 2 -2.5 3.5 t-3.5 1.5t-4 -1.5t-3.5 -5.5t-3.5 -9q-1 -2 -1.5 -4t-0.5 -4q0 -1 -0.5 -1.5l-0.5 -0.5q0 -1 0.5 -1.5t1.5 -0.5q3 0 5.5 0.5t5.5 0.5q1 0 1 -2q0 -1 -0.5 -1.5t-1 -1.5t-1.5 -1h-9q-2 0 -3 -0.5t-1 -1.5q-4 -12 -7 -24.5t-7 -24.5q-1 -4 -3.5 -8t-6 -6.5t-7 -4.5t-6.5 -2z "
         id="glyph21252" />
      <glyph
         glyph-name="g"
         unicode="g"
         horiz-adv-x="49"
         d="M13 -32q-7 0 -12.5 1.5t-8.5 4t-3 6.5q0 3 3 5t8 4l10 4q1 0 1 1q-2 2 -4 3.5t-2 3.5t2 4t6 4l1 1v0l-1 1q-2 1 -4 2.5t-3 4t-1 5.5q0 4 1.5 8t5 7.5t7.5 6t10 2.5q2 0 3.5 -0.5t2.5 -1.5t2.5 -1h2.5h4t3.5 0.5t3.5 0.5q1 0 1.5 -0.5t0.5 -2.5t-0.5 -3t-1.5 -1h-2.5 t-3 0.5t-2.5 0.5l-1 -0.5q-1 -0.5 0 -0.5v-2v-2q0 -4 -2 -8.5t-5 -8t-7 -5.5t-8 -2h-2q-2 0 -2 -1q-1 -1 -1 -2q0 -2 1.5 -3t3.5 -3q2 -1 4.5 -2.5t5.5 -3.5t5 -3q3 -2 4 -4t1 -4q0 -3 -2.5 -6t-6.5 -5t-8.5 -3.5t-9.5 -1.5zM17 -28q3 0 6 1t4.5 2.5t1.5 3.5q0 1 -1 3t-2 3 l-5 2.5l-5 2.5q-1 1 -2 1h-1.5t-0.5 -1q-6 -2 -9 -4t-3 -5q0 -2 2 -4.5t6 -3.5t9 -1zM18 14q2 0 4 1.5t4 4.5t3.5 6.5t2.5 7t1 5.5t-1 3.5t-2 1.5q-2 0 -4 -2t-4 -5t-3.5 -6.5t-2.5 -6.5t-1 -6q0 -2 1 -3t2 -1z"
         id="glyph21254" />
      <glyph
         glyph-name="gbreve"
         unicode="ğ"
         horiz-adv-x="49"
         d="M13 -32q-7 0 -12.5 1.5t-8.5 4t-3 6.5q0 3 3 5t8 4l10 4q1 0 1 1q-2 2 -4 3.5t-2 3.5t2 4t6 4l1 1v0l-1 1q-2 1 -4 2.5t-3 4t-1 5.5q0 4 1.5 8t5 7.5t7.5 6t10 2.5q2 0 3.5 -0.5t2.5 -1.5t2.5 -1h2.5h4t3.5 0.5t3.5 0.5q1 0 1.5 -0.5t0.5 -2.5t-0.5 -3t-1.5 -1h-2.5 t-3 0.5t-2.5 0.5l-1 -0.5q-1 -0.5 0 -0.5v-2v-2q0 -4 -2 -8.5t-5 -8t-7 -5.5t-8 -2h-2q-2 0 -2 -1q-1 -1 -1 -2q0 -2 1.5 -3t3.5 -3q2 -1 4.5 -2.5t5.5 -3.5t5 -3q3 -2 4 -4t1 -4q0 -3 -2.5 -6t-6.5 -5t-8.5 -3.5t-9.5 -1.5zM17 -28q3 0 6 1t4.5 2.5t1.5 3.5q0 1 -1 3t-2 3 l-5 2.5l-5 2.5q-1 1 -2 1h-1.5t-0.5 -1q-6 -2 -9 -4t-3 -5q0 -2 2 -4.5t6 -3.5t9 -1zM18 14q2 0 4 1.5t4 4.5t3.5 6.5t2.5 7t1 5.5t-1 3.5t-2 1.5q-2 0 -4 -2t-4 -5t-3.5 -6.5t-2.5 -6.5t-1 -6q0 -2 1 -3t2 -1z"
         id="glyph21256" />
      <glyph
         glyph-name="h"
         unicode="h"
         horiz-adv-x="59"
         d="M9 -2q-1 0 -2 0.5t-1.5 2t-0.5 2.5q0 2 0.5 3.5t0.5 3.5l15 50q1 2 1.5 3.5t0.5 3.5q0 1 -1.5 1.5t-3.5 1.5q-1 0 -1.5 0.5l-0.5 0.5q0 1 0.5 1.5t2.5 0.5q1 0 3.5 1l5 2t4.5 1.5t3 0.5t1.5 -0.5t0.5 -1.5v-2t-1 -2l-15 -48q0 -1 0.5 -1t0.5 1q4 7 9 12t9.5 8t8.5 3 t6.5 -2.5t2.5 -6.5q0 -6 -2 -11.5t-4.5 -10.5t-6.5 -9l-2.5 -2.5t-4 -3t-4.5 -2.5t-4 -1q-1 0 -2 1l-2 2t-1 2t0.5 2l1 2t1.5 1t1.5 -0.5l1.5 -1.5t2 -1.5t2 -0.5t2.5 2.5t3 6t2.5 7.5t2 8.5t1 7.5q0 2 -1 3t-3 1t-4 -2t-5 -6t-6 -8.5t-5.5 -9t-5.5 -8.5q-2 -4 -4 -6t-3 -2z "
         id="glyph21258" />
      <glyph
         glyph-name="i"
         unicode="i"
         horiz-adv-x="35"
         d="M9 -2q-2 0 -4 2t-2 4v1v1q4 8 7 15t5 13v1q-1 0 -2.5 -0.5t-3 -1.5t-2.5 -1q-1 -1 -1.5 -0.5l-0.5 0.5q0 1 1 2.5t3 3t4.5 3.5t5.5 3.5l5 2.5q1 1 2.5 0t2.5 -2.5t0 -2.5l-12 -31q0 -1 -0.5 -1t-0.5 -1t0.5 -1h0.5q1 0 3 1.5t4.5 3.5t4.5 3v1l0.5 -0.5l0.5 -0.5 q0 -2 -2 -5t-5.5 -6t-7 -5t-6.5 -2z"
         id="glyph21260" />
      <glyph
         glyph-name="dotlessi"
         unicode="ı"
         horiz-adv-x="35"
         d="M9 -2q-2 0 -4 2t-2 4v1v1q4 8 7 15t5 13v1q-1 0 -2.5 -0.5t-3 -1.5t-2.5 -1q-1 -1 -1.5 -0.5l-0.5 0.5q0 1 1 2.5t3 3t4.5 3.5t5.5 3.5l5 2.5q1 1 2.5 0t2.5 -2.5t0 -2.5l-12 -31q0 -1 -0.5 -1t-0.5 -1t0.5 -1h0.5q1 0 3 1.5t4.5 3.5t4.5 3v1l0.5 -0.5l0.5 -0.5 q0 -2 -2 -5t-5.5 -6t-7 -5t-6.5 -2z"
         id="glyph21262" />
      <glyph
         glyph-name="iacute"
         unicode="í"
         horiz-adv-x="35"
         d="M9 -2q-2 0 -4 2t-2 4v1v1q4 8 7 15t5 13v1q-1 0 -2.5 -0.5t-3 -1.5t-2.5 -1q-1 -1 -1.5 -0.5l-0.5 0.5q0 1 1 2.5t3 3t4.5 3.5t5.5 3.5l5 2.5q1 1 2.5 0t2.5 -2.5t0 -2.5l-12 -31q0 -1 -0.5 -1t-0.5 -1t0.5 -1h0.5q1 0 3 1.5t4.5 3.5t4.5 3v1l0.5 -0.5l0.5 -0.5 q0 -2 -2 -5t-5.5 -6t-7 -5t-6.5 -2z"
         id="glyph21264" />
      <glyph
         glyph-name="icircumflex"
         unicode="î"
         horiz-adv-x="35"
         d="M35 74q1 0 1.5 -1t0.5 -3t1 -4t1.5 -4.5t0.5 -4t1 -2.5q0 -1 -0.5 -2.5t-1.5 -1.5t-3 3l-2 4l-2 4q0 1 -1 0q-3 -2 -5.5 -4.5t-4.5 -3.5l-2 -2t-2 -1t-1 1v1.5t1 1.5q2 2 4 4.5l4 5t4 4.5l3.5 3.5t2.5 1.5zM9 -2q-2 0 -4 2t-2 4v1v1q4 8 7 15t5 13v1q-1 0 -2.5 -0.5 t-3 -1.5t-2.5 -1q-1 -1 -1.5 -0.5l-0.5 0.5q0 1 1 2.5t3 3t4.5 3.5t5.5 3.5l5 2.5q1 1 2.5 0t2.5 -2.5t0 -2.5l-12 -31q0 -1 -0.5 -1t-0.5 -1t0.5 -1h0.5q1 0 3 1.5t4.5 3.5t4.5 3v1l0.5 -0.5l0.5 -0.5q0 -2 -2 -5t-5.5 -6t-7 -5t-6.5 -2z"
         id="glyph21266" />
      <glyph
         glyph-name="idieresis"
         unicode="ï"
         horiz-adv-x="35"
         d="M9 -2q-2 0 -4 2t-2 4v1v1q4 8 7 15t5 13v1q-1 0 -2.5 -0.5t-3 -1.5t-2.5 -1q-1 -1 -1.5 -0.5l-0.5 0.5q0 1 1 2.5t3 3t4.5 3.5t5.5 3.5l5 2.5q1 1 2.5 0t2.5 -2.5t0 -2.5l-12 -31q0 -1 -0.5 -1t-0.5 -1t0.5 -1h0.5q1 0 3 1.5t4.5 3.5t4.5 3v1l0.5 -0.5l0.5 -0.5 q0 -2 -2 -5t-5.5 -6t-7 -5t-6.5 -2z"
         id="glyph21268" />
      <glyph
         glyph-name="igrave"
         unicode="ì"
         horiz-adv-x="35"
         d="M29 52q-1 0 -2 0.5l-1 0.5l-12 13q-1 1 -1.5 2t-0.5 2t1 2t2.5 2t2.5 1t2 -1t1 -2l8 -17q1 -1 1 -2t-1 -1zM9 -2q-2 0 -4 2t-2 4v1v1q4 8 7 15t5 13v1q-1 0 -2.5 -0.5t-3 -1.5t-2.5 -1q-1 -1 -1.5 -0.5l-0.5 0.5q0 1 1 2.5t3 3t4.5 3.5t5.5 3.5l5 2.5q1 1 2.5 0t2.5 -2.5 t0 -2.5l-12 -31q0 -1 -0.5 -1t-0.5 -1t0.5 -1h0.5q1 0 3 1.5t4.5 3.5t4.5 3v1l0.5 -0.5l0.5 -0.5q0 -2 -2 -5t-5.5 -6t-7 -5t-6.5 -2z"
         id="glyph21270" />
      <glyph
         glyph-name="j"
         unicode="j"
         horiz-adv-x="110"
         id="glyph21272" />
      <glyph
         glyph-name="k"
         unicode="k"
         horiz-adv-x="55"
         d="M35 -2q-2 0 -4 1.5t-3 4.5l-4 13q-1 2 -1.5 2.5t-2.5 0.5q-1 0 -1 -1t-1 -2t-1.5 -3t-1.5 -4t-1.5 -4t-0.5 -3q-1 -2 -2.5 -3t-3.5 -1q-1 0 -3 1t-2 4q0 1 0.5 2t0.5 2l17 52q1 2 1 3.5v3.5t-2 3q-1 0 -2 0.5l-1 0.5q0 1 0.5 1.5t1.5 0.5q1 1 3.5 1.5t5 1.5t4.5 1.5 t3 0.5t2 -0.5t1 -1.5t-0.5 -1.5t-0.5 -1.5l-14 -41q0 -1 0.5 -1h0.5q3 5 7 8.5t8 5.5t9 2q3 0 5 -1.5t2 -4.5t-2 -5.5t-5 -5t-6.5 -4.5t-6.5 -3q-1 0 -1 -2l5 -10q1 -1 1.5 -2t1.5 -1q2 0 4 2l4 4l1 1v0l0.5 -0.5l0.5 -0.5q0 -2 -1.5 -5t-4 -5.5t-5.5 -4t-5 -1.5zM24 23 q3 0 6.5 1.5t6 3.5t4 4.5t1.5 4.5t-1 2.5t-2 0.5q-2 0 -5 -2t-5.5 -5t-4 -5t-1.5 -3v-1.5t1 -0.5z"
         id="glyph21274" />
      <glyph
         glyph-name="l"
         unicode="l"
         horiz-adv-x="33"
         d="M7 -2q-2 0 -4 2t-2 4q0 1 1 2l19 57q1 3 1 4.5t-1 2.5t-2 1t-1 1t-0.5 1t0.5 1q2 1 3.5 1t3.5 0.5t3 0.5t3 0.5t3.5 1l1.5 0.5q1 0 1.5 -1t-0.5 -1v-2t-1 -2l-21 -60v-1.5v-0.5q0 -2 1 -2t3 1.5t4 3.5q2 1 3 3l1 1l1 1q1 0 1 -0.5v-1.5q0 -2 -1.5 -4t-4 -4.5t-5.5 -4.5 t-6 -3.5t-5 -1.5z"
         id="glyph21276" />
      <glyph
         glyph-name="m"
         unicode="m"
         horiz-adv-x="89"
         d="M10 -2q-1 0 -2 1l-2 2t-1 3q0 1 0.5 2t1.5 2l11 28q1 1 0 2t-2 1t-3 -1t-5 -4q0 -1 -1 -0.5t-1 1.5t0.5 2t1.5 2t1 2l6 4t8 2q2 0 3.5 -1t2 -3t-0.5 -5l-6 -15v-1l1 1q4 7 8 12.5t8 8.5t8 3t6 -2t2 -5.5t-2 -7.5l-2 -6q0 -1 0.5 -1t0.5 1q4 6 8 10.5t8 7.5t8 3t5.5 -2 t1.5 -5.5t-2 -7.5l-8 -20q-1 -4 0 -4t2.5 1t3 2.5t3 2.5l1.5 1l0.5 0.5q0.5 0.5 1.5 0.5h0.5q0.5 0 0.5 -1t-0.5 -2t-1.5 -2q-4 -5 -10 -9t-12 -4q-1 0 -2 1l-2 2t0 3l14 33q1 2 0 3t-2 1q-2 0 -4 -2t-5 -6q-2 -3 -4.5 -7.5t-5.5 -9.5l-6 -10q-1 -2 -3 -4t-3.5 -3t-3.5 -1 q-1 0 -1.5 1t-1.5 2t-1 2t0.5 2t1.5 4l11 28q1 2 0.5 3t-1.5 1q-2 0 -4.5 -2t-5.5 -7q-2 -2 -3.5 -5t-4 -6.5t-4.5 -7t-3 -6.5q-2 -4 -4 -6.5t-4 -2.5z"
         id="glyph21278" />
      <glyph
         glyph-name="n"
         unicode="n"
         horiz-adv-x="63"
         d="M11 -2q-1 0 -2 1l-2 2t-1.5 2.5t0.5 2.5l11 29q1 4 0 3h-2.5t-3 -1t-3.5 -3q0 -1 -1 -0.5t-1 1.5t0.5 2t1.5 2t1 2q2 3 6 4.5t8 1.5q2 0 3.5 -1t2 -3t-0.5 -4l-6 -16q0 -1 0.5 -1t1.5 1q4 7 8 12.5t8 8.5t9 3q4 0 5.5 -2t1.5 -5.5t-1 -6.5l-9 -21q-1 -4 1 -4q1 0 2 1 t2.5 2l3 2t1.5 2l1 0.5l1 0.5l0.5 -0.5l0.5 -0.5q0 -2 -1 -4q-3 -4 -7 -6.5t-8 -4.5t-8 -2q-1 0 -2.5 1t-2 2.5t0.5 2.5q3 8 6.5 15.5t7.5 15.5q1 3 0.5 4.5t-1.5 1.5t-3 -1.5t-4 -4t-4 -5.5q-1 -1 -3 -4t-4.5 -7t-4.5 -7.5t-4 -7.5l-3 -4.5t-3 -1.5z"
         id="glyph21280" />
      <glyph
         glyph-name="ntilde"
         unicode="ñ"
         horiz-adv-x="63"
         d="M11 -2q-1 0 -2 1l-2 2t-1.5 2.5t0.5 2.5l11 29q1 4 0 3h-2.5t-3 -1t-3.5 -3q0 -1 -1 -0.5t-1 1.5t0.5 2t1.5 2t1 2q2 3 6 4.5t8 1.5q2 0 3.5 -1t2 -3t-0.5 -4l-6 -16q0 -1 0.5 -1t1.5 1q4 7 8 12.5t8 8.5t9 3q4 0 5.5 -2t1.5 -5.5t-1 -6.5l-9 -21q-1 -4 1 -4q1 0 2 1 t2.5 2l3 2t1.5 2l1 0.5l1 0.5l0.5 -0.5l0.5 -0.5q0 -2 -1 -4q-3 -4 -7 -6.5t-8 -4.5t-8 -2q-1 0 -2.5 1t-2 2.5t0.5 2.5q3 8 6.5 15.5t7.5 15.5q1 3 0.5 4.5t-1.5 1.5t-3 -1.5t-4 -4t-4 -5.5q-1 -1 -3 -4t-4.5 -7t-4.5 -7.5t-4 -7.5l-3 -4.5t-3 -1.5z"
         id="glyph21282" />
      <glyph
         glyph-name="o"
         unicode="o"
         horiz-adv-x="47"
         d="M15 -2q-4 0 -7 2t-5 5.5t-2 7.5q0 5 2.5 11t6.5 11t9.5 8.5t11.5 3.5q7 0 11 -4t4 -11q0 -5 -2 -10.5t-6 -11t-10 -9t-13 -3.5zM17 2q2 0 4.5 2.5t5 6.5t4 9t2.5 9.5t1 8.5q0 2 -0.5 3.5t-3.5 1.5q-2 0 -4.5 -2.5t-4.5 -6t-4 -8t-3 -9.5t-1 -9q0 -3 1 -4.5t3 -1.5z"
         id="glyph21284" />
      <glyph
         glyph-name="oacute"
         unicode="ó"
         horiz-adv-x="47"
         d="M15 -2q-4 0 -7 2t-5 5.5t-2 7.5q0 5 2.5 11t6.5 11t9.5 8.5t11.5 3.5q7 0 11 -4t4 -11q0 -5 -2 -10.5t-6 -11t-10 -9t-13 -3.5zM17 2q2 0 4.5 2.5t5 6.5t4 9t2.5 9.5t1 8.5q0 2 -0.5 3.5t-3.5 1.5q-2 0 -4.5 -2.5t-4.5 -6t-4 -8t-3 -9.5t-1 -9q0 -3 1 -4.5t3 -1.5z"
         id="glyph21286" />
      <glyph
         glyph-name="ocircumflex"
         unicode="ô"
         horiz-adv-x="47"
         d="M42 74q1 0 1.5 -1t0.5 -3q1 -2 1.5 -4l1 -4t0.5 -4t1 -3q0 -1 -0.5 -2.5t-1.5 -1.5t-3 3l-2 4l-2 4q0 1 -1 0q-2 -2 -5 -4.5t-5 -3.5l-2 -2t-2 -1t-1 1t0.5 1.5t0.5 1.5q2 2 4 4.5l4 5t4 4.5l3.5 3.5t2.5 1.5zM15 -2q-4 0 -7 2t-5 5.5t-2 7.5q0 5 2.5 11t6.5 11t9.5 8.5 t11.5 3.5q7 0 11 -4t4 -11q0 -5 -2 -10.5t-6 -11t-10 -9t-13 -3.5zM17 2q2 0 4.5 2.5t5 6.5t4 9t2.5 9.5t1 8.5q0 2 -0.5 3.5t-3.5 1.5q-2 0 -4.5 -2.5t-4.5 -6t-4 -8t-3 -9.5t-1 -9q0 -3 1 -4.5t3 -1.5z"
         id="glyph21288" />
      <glyph
         glyph-name="odieresis"
         unicode="ö"
         horiz-adv-x="47"
         d="M15 -2q-4 0 -7 2t-5 5.5t-2 7.5q0 5 2.5 11t6.5 11t9.5 8.5t11.5 3.5q7 0 11 -4t4 -11q0 -5 -2 -10.5t-6 -11t-10 -9t-13 -3.5zM17 2q2 0 4.5 2.5t5 6.5t4 9t2.5 9.5t1 8.5q0 2 -0.5 3.5t-3.5 1.5q-2 0 -4.5 -2.5t-4.5 -6t-4 -8t-3 -9.5t-1 -9q0 -3 1 -4.5t3 -1.5z"
         id="glyph21290" />
      <glyph
         glyph-name="ograve"
         unicode="ò"
         horiz-adv-x="47"
         d="M36 52q-1 0 -2 0.5t-1 1.5l-12 12q-1 1 -1.5 2.5l-0.5 1.5q0 1 1 2.5t2.5 2t2.5 0.5t2 -0.5t1 -2.5l9 -17v-2t-1 -1zM15 -2q-4 0 -7 2t-5 5.5t-2 7.5q0 5 2.5 11t6.5 11t9.5 8.5t11.5 3.5q7 0 11 -4t4 -11q0 -5 -2 -10.5t-6 -11t-10 -9t-13 -3.5zM17 2q2 0 4.5 2.5t5 6.5 t4 9t2.5 9.5t1 8.5q0 2 -0.5 3.5t-3.5 1.5q-2 0 -4.5 -2.5t-4.5 -6t-4 -8t-3 -9.5t-1 -9q0 -3 1 -4.5t3 -1.5z"
         id="glyph21292" />
      <glyph
         glyph-name="oslash"
         unicode="ø"
         horiz-adv-x="45"
         d="M-0 -2q-1 0 -2.5 1t-0.5 2q0 2 1 3l7 6l4 2l26 26l4 3l7 5l0.5 0.5q0.5 0.5 1.5 0.5t1 -0.5v-1.5v-2t-1 -2l-7 -6l-6 -4l-25 -25l-3 -2l-5 -5l-0.5 -0.5q-0.5 -0.5 -1.5 -0.5zM15 -2q-4 0 -7 2t-5 5.5t-2 7.5q0 5 2.5 11t6.5 11t9.5 8.5t11.5 3.5q7 0 11 -4t4 -11 q0 -5 -2 -10.5t-6 -11t-10 -9t-13 -3.5zM17 2q2 0 4.5 2.5t5 6.5t4 9t2.5 9.5t1 8.5q0 2 -0.5 3.5t-3.5 1.5q-2 0 -4.5 -2.5t-4.5 -6t-4 -8t-3 -9.5t-1 -9q0 -3 1 -4.5t3 -1.5z"
         id="glyph21294" />
      <glyph
         glyph-name="otilde"
         unicode="õ"
         horiz-adv-x="47"
         d="M15 -2q-4 0 -7 2t-5 5.5t-2 7.5q0 5 2.5 11t6.5 11t9.5 8.5t11.5 3.5q7 0 11 -4t4 -11q0 -5 -2 -10.5t-6 -11t-10 -9t-13 -3.5zM17 2q2 0 4.5 2.5t5 6.5t4 9t2.5 9.5t1 8.5q0 2 -0.5 3.5t-3.5 1.5q-2 0 -4.5 -2.5t-4.5 -6t-4 -8t-3 -9.5t-1 -9q0 -3 1 -4.5t3 -1.5z"
         id="glyph21296" />
      <glyph
         glyph-name="oe"
         unicode="œ"
         horiz-adv-x="68"
         d="M14 -2q-3 0 -6 2t-5 5t-2 8t2 11t6 11t9.5 8.5t11.5 3.5q3 0 6.5 -2t5.5 -6q4 4 8 6t9 2t7.5 -2t2.5 -6t-2.5 -6.5t-6.5 -4.5t-8.5 -3t-8.5 0q-1 0 -1 -1q-1 -2 -1 -3.5v-4.5q0 -4 2 -6.5t6 -2.5q3 0 6 2t5 5q1 1 2 1t1 -1v-0.5v-0.5q-2 -4 -5 -7.5t-6.5 -5.5t-8.5 -2 q-3 0 -6 2.5t-5 5.5q-4 -4 -8 -6t-10 -2zM16 2q2 0 5 2.5t5 6.5t3.5 8.5l3 9t1.5 8.5q0 3 -1 4.5t-4 1.5q-2 0 -4 -2.5t-4.5 -6t-4 -8.5t-3 -9.5t-1.5 -7.5t1 -5t3 -2zM44 28q1 0 3.5 0.5t5.5 2t5 4t2 5.5q0 1 -0.5 2t-2.5 1t-4 -1t-4 -3.5t-3.5 -5t-2.5 -5.5h1z"
         id="glyph21298" />
      <glyph
         glyph-name="p"
         unicode="p"
         horiz-adv-x="54"
         d="M-11 -31h-1q-1 0 -1 1t1 1.5t2 0.5l4.5 1.5t2.5 3.5l19 58q0 1 0.5 2l0.5 1h-2q-2 -1 -3.5 -1t-4.5 -1h-1.5t-0.5 1t0.5 1.5t1.5 0.5q2 1 4.5 2.5t6.5 2.5q1 0 1.5 1l1.5 3q2 5 4 7.5t5 2.5q2 0 2.5 -1t0.5 -4l-2 -4v-2t1 -1t2.5 0.5t2.5 0.5q6 0 9.5 -2t5.5 -5t2 -8 q0 -6 -2.5 -11.5t-7 -10.5t-10 -8.5t-10.5 -3.5q-2 0 -3.5 1t-2.5 2t-2 0.5t-1 -2.5l-7 -21q-1 -2 0.5 -3.5t5.5 -2.5q1 0 1.5 -0.5t0.5 -1.5t-0.5 -1h-1.5h-4.5h-4.5h-4h-6h-6zM24 3q2 0 5 2t6 6.5t5 9.5t2 10q0 6 -2.5 8.5t-6.5 2.5h-1.5h-1.5l-10 -30q-1 -2 -0.5 -3.5 t0.5 -2.5q1 -2 1.5 -2.5t2.5 -0.5z"
         id="glyph21300" />
      <glyph
         glyph-name="thorn"
         unicode="þ"
         horiz-adv-x="55"
         d="M-14 -31h-1v1q0 1 1 1.5t2 0.5l4.5 1.5t2.5 3.5l26 84q1 2 1.5 3.5t0.5 2.5t-1.5 1.5t-2.5 1.5q-1 0 -2 0.5l-1 1.5q0 1 0.5 1h1.5q1 1 4 1.5t5.5 1.5t4.5 1.5t3 0.5t1.5 -0.5t0.5 -1.5v-2v-2q-1 -2 -2.5 -6t-3 -8.5t-3.5 -9.5t-3.5 -10t-3.5 -10q0 -1 0.5 -1t0.5 1 q4 6 8 10t8.5 6.5t8.5 2.5q3 0 5.5 -2.5t2.5 -6.5q0 -5 -2 -11t-5.5 -11t-8.5 -9t-10.5 -6t-10.5 -2q-2 0 -4 0.5t-4 0.5l3 4l-7 -27q-1 -2 0.5 -3t4.5 -2q1 0 1.5 -0.5t0.5 -1.5t-0.5 -1h-1.5h-4h-4.5h-3.5h-6.5h-6.5zM22 3q1 0 3 1.5t4.5 4t4.5 5.5t4 6.5t3 7t1.5 6.5 t-0.5 4t-2.5 0.5t-3.5 -2t-4 -3.5q-2 -1 -4 -3t-4 -5t-3.5 -6t-3 -5.5t-1.5 -3.5q0 -3 2 -5t4 -2z"
         id="glyph21302" />
      <glyph
         glyph-name="q"
         unicode="q"
         horiz-adv-x="57"
         d="M12 -32q-1 0 -1.5 0.5t-0.5 1.5t1 1.5t2 0.5q3 1 5 2t2 3q2 5 4.5 11.5t4.5 12.5t5 13q0 1 -0.5 1t-1.5 -1q-5 -6 -8.5 -9t-7 -5t-7.5 -2t-6.5 3t-2.5 7q0 5 2.5 10t6 10t7.5 9q5 5 10 8t10 3q2 0 3.5 -1t2.5 -2t1.5 -2t1.5 0q1 0 2 1l1 2q1 2 2.5 3t2.5 1t1.5 -2.5 t-0.5 -6.5l-21 -63q-1 -2 0 -3.5t3 -1.5t2.5 -0.5t0.5 -1.5t-0.5 -1h-1.5q-5 0 -10 -0.5t-9 -1t-6 -0.5zM16 5q2 0 4 1.5t4.5 4t5 5.5t3.5 6q3 4 5 8t2 7q0 1 -0.5 2.5t-1.5 2.5t-2 1q-2 0 -5 -2.5t-6.5 -6.5t-6 -8.5t-4 -9t-1.5 -7.5q0 -2 0.5 -3t2.5 -1z"
         id="glyph21304" />
      <glyph
         glyph-name="r"
         unicode="r"
         horiz-adv-x="47"
         d="M9 -2q-1 0 -2 0.5t-2 1.5t-1 3q0 1 0.5 2t0.5 3l11 28q1 1 0.5 2t-1.5 1q-2 0 -3.5 -1t-2.5 -2h-1.5t-0.5 1q0 2 1.5 4t3.5 3t4.5 2t5.5 1t4 -1.5t1 -4.5t-2 -6l-4 -11q0 -1 0.5 -1h0.5q4 7 8 12.5t8 8.5t7 3t5 -2t2 -4q0 -3 -1.5 -5.5t-3 -4t-3.5 -1.5q-1 0 -1.5 1 t-0.5 3t-1 3.5t-2 1.5q-2 0 -3.5 -2.5t-4.5 -6.5q-1 -1 -2.5 -4t-3.5 -6t-4 -6.5t-4 -6.5q-2 -4 -4 -6.5t-4 -2.5z"
         id="glyph21306" />
      <glyph
         glyph-name="rcaron"
         unicode="ř"
         horiz-adv-x="47"
         d="M9 -2q-1 0 -2 0.5t-2 1.5t-1 3q0 1 0.5 2t0.5 3l11 28q1 1 0.5 2t-1.5 1q-2 0 -3.5 -1t-2.5 -2h-1.5t-0.5 1q0 2 1.5 4t3.5 3t4.5 2t5.5 1t4 -1.5t1 -4.5t-2 -6l-4 -11q0 -1 0.5 -1h0.5q4 7 8 12.5t8 8.5t7 3t5 -2t2 -4q0 -3 -1.5 -5.5t-3 -4t-3.5 -1.5q-1 0 -1.5 1 t-0.5 3t-1 3.5t-2 1.5q-2 0 -3.5 -2.5t-4.5 -6.5q-1 -1 -2.5 -4t-3.5 -6t-4 -6.5t-4 -6.5q-2 -4 -4 -6.5t-4 -2.5z"
         id="glyph21308" />
      <glyph
         glyph-name="s"
         unicode="s"
         horiz-adv-x="33"
         d="M6 -2q-4 0 -6.5 2t-2.5 5t1.5 4.5t2.5 1.5t2 -1l2 -2t3 -2.5t5 -1.5q2 0 3 1.5t1 3.5t-1 4.5t-3 5.5t-3.5 6t-1.5 5q0 3 2 6t5 5.5t6 4t5 1.5t4 -1t3.5 -2.5t1.5 -2.5t-1 -2.5t-2 -2.5t-3 -1q-1 0 -1.5 0.5l-1.5 1.5t-2.5 2t-2.5 1q-2 0 -3 -1t-1 -3q0 -1 1 -2.5l2 -3 t2 -3.5q3 -4 4 -7t1 -5q0 -3 -1.5 -6t-5 -5l-7 -4t-7.5 -2z"
         id="glyph21310" />
      <glyph
         glyph-name="scaron"
         unicode="š"
         horiz-adv-x="33"
         d="M6 -2q-4 0 -6.5 2t-2.5 5t1.5 4.5t2.5 1.5t2 -1l2 -2t3 -2.5t5 -1.5q2 0 3 1.5t1 3.5t-1 4.5t-3 5.5t-3.5 6t-1.5 5q0 3 2 6t5 5.5t6 4t5 1.5t4 -1t3.5 -2.5t1.5 -2.5t-1 -2.5t-2 -2.5t-3 -1q-1 0 -1.5 0.5l-1.5 1.5t-2.5 2t-2.5 1q-2 0 -3 -1t-1 -3q0 -1 1 -2.5l2 -3 t2 -3.5q3 -4 4 -7t1 -5q0 -3 -1.5 -6t-5 -5l-7 -4t-7.5 -2z"
         id="glyph21312" />
      <glyph
         glyph-name="germandbls"
         unicode="ß"
         horiz-adv-x="60"
         d="M-10 -32q-3 0 -5.5 0.5t-4.5 2t-2 4.5t1.5 4.5t3.5 1.5q1 0 2 -1l2 -2t2.5 -3t3.5 -2q3 0 5 3.5t3 10.5q1 3 2 6.5t1.5 7.5t1.5 7.5t2 6.5q2 7 3.5 13.5t3.5 12.5q4 13 10 21t14.5 12t17.5 4q8 0 12 -3t4 -6t-2 -6t-5 -5t-6 -4.5q-3 -1.5 -5 -3.5t-4.5 -3.5t-4 -4 t-1.5 -4.5q0 -1 1 -3.5t2 -4.5l2 -4q1 -3 2.5 -5.5t1.5 -5.5t-2 -6t-5 -5t-6.5 -4t-6.5 -2q-4 0 -7 2t-3 5q0 2 1.5 4t2.5 2t2.5 -1t2.5 -2t2 -2.5t3 -1.5t4 1.5t2 3.5t-1 4.5t-3 5.5t-3.5 6t-1.5 6q0 4 1.5 7t4.5 6t6 5q2 2 5 4t5 4.5t3.5 5t1.5 4.5q0 3 -2 5t-6 2 q-5 0 -9 -2.5t-7.5 -7t-6 -9.5t-4.5 -11t-3.5 -13.5t-3.5 -15t-3 -14.5q-1 -6 -4 -12t-6.5 -10.5t-7.5 -7.5t-9 -3z"
         id="glyph21314" />
      <glyph
         glyph-name="t"
         unicode="t"
         horiz-adv-x="37"
         d="M9 -2q-1 0 -2.5 1t-2.5 2.5t-1 2.5t0.5 2l1.5 3l10 29q1 1 0 1.5l-1 0.5h-5q-2 0 -2.5 1l-0.5 1l1 1l2 2t2 1h5q2 0 2 0.5t1 1.5l3 6l2.5 2.5t3 2.5t2.5 1t1.5 -1.5t0.5 -2.5l-3 -8v-1.5t1 -0.5q2 0 4 -0.5t4 -0.5t2.5 -0.5t0.5 -1.5l-0.5 -1q-0.5 -1 -2.5 -1h-3.5 t-3.5 -1q-2 0 -3 -0.5t-1 -1.5l-9 -24q-1 -2 -1 -3t0.5 -1.5t1.5 -0.5t3.5 1.5t4 3.5t3.5 3q1 1 1 0.5v-0.5l0.5 -1q0.5 -1 -0.5 -1q-1 -2 -2.5 -4t-4 -4.5t-5.5 -4t-5.5 -3t-4.5 -1.5z"
         id="glyph21316" />
      <glyph
         glyph-name="tcaron"
         unicode="ť"
         horiz-adv-x="39"
         d="M9 -2q-1 0 -2.5 1t-2.5 2.5t-1 2.5t0.5 2l1.5 3l10 29q1 1 0 1.5l-1 0.5h-5q-2 0 -2.5 1l-0.5 1l1 1l2 2t2 1h5q2 0 2 0.5t1 1.5l3 6l2.5 2.5t3 2.5t2.5 1t1.5 -1.5t0.5 -2.5l-3 -8v-1.5t1 -0.5q2 0 4 -0.5t4 -0.5t2.5 -0.5t0.5 -1.5l-0.5 -1q-0.5 -1 -2.5 -1h-3.5 t-3.5 -1q-2 0 -3 -0.5t-1 -1.5l-9 -24q-1 -2 -1 -3t0.5 -1.5t1.5 -0.5t3.5 1.5t4 3.5t3.5 3q1 1 1 0.5v-0.5l0.5 -1q0.5 -1 -0.5 -1q-1 -2 -2.5 -4t-4 -4.5t-5.5 -4t-5.5 -3t-4.5 -1.5z"
         id="glyph21318" />
      <glyph
         glyph-name="u"
         unicode="u"
         horiz-adv-x="62"
         d="M11 -2q-2 0 -3.5 2t-2.5 4t0 4l11 25q1 2 0.5 2.5t-1.5 0.5t-2 -1t-3 -2t-3 -2t-2 -1t-1 1t0.5 1.5l1.5 1.5q3 4 6.5 7t7 4.5t6.5 1.5q1 0 2.5 -1t2 -2.5t-0.5 -3.5q-3 -6 -6 -12.5t-6 -14.5q-1 -2 -1 -3.5t1 -1.5t3 2.5t5 5.5t6 7q3 3 5.5 7t4.5 7t3 5t2.5 3.5t2.5 1.5 q2 0 3.5 -1t2 -2.5t0.5 -2.5l-12 -30q0 -1 -0.5 -2t0.5 -1t3.5 1.5t4.5 3.5t4 3v1q1 0 1.5 -0.5t0.5 -1.5t-1 -2.5t-3 -3t-4 -2.5l-4 -2t-3 -2q-2 -1 -4 -1.5t-3.5 -0.5t-3.5 1q-1 0 -1 1.5v2.5l2.5 5t2.5 6t2 5v1.5t-1 -0.5q-4 -5 -7.5 -9.5t-7 -8t-6.5 -5.5t-5 -2z"
         id="glyph21320" />
      <glyph
         glyph-name="uacute"
         unicode="ú"
         horiz-adv-x="62"
         d="M11 -2q-2 0 -3.5 2t-2.5 4t0 4l11 25q1 2 0.5 2.5t-1.5 0.5t-2 -1t-3 -2t-3 -2t-2 -1t-1 1t0.5 1.5l1.5 1.5q3 4 6.5 7t7 4.5t6.5 1.5q1 0 2.5 -1t2 -2.5t-0.5 -3.5q-3 -6 -6 -12.5t-6 -14.5q-1 -2 -1 -3.5t1 -1.5t3 2.5t5 5.5t6 7q3 3 5.5 7t4.5 7t3 5t2.5 3.5t2.5 1.5 q2 0 3.5 -1t2 -2.5t0.5 -2.5l-12 -30q0 -1 -0.5 -2t0.5 -1t3.5 1.5t4.5 3.5t4 3v1q1 0 1.5 -0.5t0.5 -1.5t-1 -2.5t-3 -3t-4 -2.5l-4 -2t-3 -2q-2 -1 -4 -1.5t-3.5 -0.5t-3.5 1q-1 0 -1 1.5v2.5l2.5 5t2.5 6t2 5v1.5t-1 -0.5q-4 -5 -7.5 -9.5t-7 -8t-6.5 -5.5t-5 -2z"
         id="glyph21322" />
      <glyph
         glyph-name="ucircumflex"
         unicode="û"
         horiz-adv-x="62"
         d="M49 74q1 0 1.5 -1t0.5 -3q1 -2 1.5 -4l1 -4l1 -4t0.5 -3t-0.5 -2.5t-1.5 -1.5t-3 3q-1 2 -1.5 4t-2.5 4q0 1 -1 0q-2 -2 -5 -4.5t-4 -3.5t-2.5 -2t-2.5 -1t-1 1t0.5 1.5t0.5 1.5q2 2 4 4.5t4.5 5t3.5 4.5l3.5 3.5t2.5 1.5zM11 -2q-2 0 -3.5 2t-2.5 4t0 4l11 25 q1 2 0.5 2.5t-1.5 0.5t-2 -1t-3 -2t-3 -2t-2 -1t-1 1t0.5 1.5l1.5 1.5q3 4 6.5 7t7 4.5t6.5 1.5q1 0 2.5 -1t2 -2.5t-0.5 -3.5q-3 -6 -6 -12.5t-6 -14.5q-1 -2 -1 -3.5t1 -1.5t3 2.5t5 5.5t6 7q3 3 5.5 7t4.5 7t3 5t2.5 3.5t2.5 1.5q2 0 3.5 -1t2 -2.5t0.5 -2.5l-12 -30 q0 -1 -0.5 -2t0.5 -1t3.5 1.5t4.5 3.5t4 3v1q1 0 1.5 -0.5t0.5 -1.5t-1 -2.5t-3 -3t-4 -2.5l-4 -2t-3 -2q-2 -1 -4 -1.5t-3.5 -0.5t-3.5 1q-1 0 -1 1.5v2.5l2.5 5t2.5 6t2 5v1.5t-1 -0.5q-4 -5 -7.5 -9.5t-7 -8t-6.5 -5.5t-5 -2z"
         id="glyph21324" />
      <glyph
         glyph-name="udieresis"
         unicode="ü"
         horiz-adv-x="62"
         d="M11 -2q-2 0 -3.5 2t-2.5 4t0 4l11 25q1 2 0.5 2.5t-1.5 0.5t-2 -1t-3 -2t-3 -2t-2 -1t-1 1t0.5 1.5l1.5 1.5q3 4 6.5 7t7 4.5t6.5 1.5q1 0 2.5 -1t2 -2.5t-0.5 -3.5q-3 -6 -6 -12.5t-6 -14.5q-1 -2 -1 -3.5t1 -1.5t3 2.5t5 5.5t6 7q3 3 5.5 7t4.5 7t3 5t2.5 3.5t2.5 1.5 q2 0 3.5 -1t2 -2.5t0.5 -2.5l-12 -30q0 -1 -0.5 -2t0.5 -1t3.5 1.5t4.5 3.5t4 3v1q1 0 1.5 -0.5t0.5 -1.5t-1 -2.5t-3 -3t-4 -2.5l-4 -2t-3 -2q-2 -1 -4 -1.5t-3.5 -0.5t-3.5 1q-1 0 -1 1.5v2.5l2.5 5t2.5 6t2 5v1.5t-1 -0.5q-4 -5 -7.5 -9.5t-7 -8t-6.5 -5.5t-5 -2z"
         id="glyph21326" />
      <glyph
         glyph-name="ugrave"
         unicode="ù"
         horiz-adv-x="62"
         d="M43 52q-1 0 -2 0.5t-1 1.5l-11 12q-1 1 -2 2.5l-1 1.5q0 1 1 2.5t2.5 2t2.5 0.5t2 -0.5t2 -2.5l8 -17v-2t-1 -1zM11 -2q-2 0 -3.5 2t-2.5 4t0 4l11 25q1 2 0.5 2.5t-1.5 0.5t-2 -1t-3 -2t-3 -2t-2 -1t-1 1t0.5 1.5l1.5 1.5q3 4 6.5 7t7 4.5t6.5 1.5q1 0 2.5 -1t2 -2.5 t-0.5 -3.5q-3 -6 -6 -12.5t-6 -14.5q-1 -2 -1 -3.5t1 -1.5t3 2.5t5 5.5t6 7q3 3 5.5 7t4.5 7t3 5t2.5 3.5t2.5 1.5q2 0 3.5 -1t2 -2.5t0.5 -2.5l-12 -30q0 -1 -0.5 -2t0.5 -1t3.5 1.5t4.5 3.5t4 3v1q1 0 1.5 -0.5t0.5 -1.5t-1 -2.5t-3 -3t-4 -2.5l-4 -2t-3 -2q-2 -1 -4 -1.5 t-3.5 -0.5t-3.5 1q-1 0 -1 1.5v2.5l2.5 5t2.5 6t2 5v1.5t-1 -0.5q-4 -5 -7.5 -9.5t-7 -8t-6.5 -5.5t-5 -2z"
         id="glyph21328" />
      <glyph
         glyph-name="v"
         unicode="v"
         horiz-adv-x="50"
         d="M16 -2q-4 0 -6.5 2t-3 5.5t0.5 7.5l7 19q1 2 1 2.5t-1 0.5t-3 -1t-3 -3q-1 -1 -1.5 -1h-0.5q-1 0 -1 1t0.5 2t0.5 2q2 2 4.5 4l5 4t5 3t3.5 1t2.5 -1t2 -2t-0.5 -2l-9 -28q-1 -4 0 -5.5t4 -1.5t6 2t6 5.5t4.5 7.5t1.5 8q0 3 -1 4.5t-2 3.5l-1.5 1.5t-0.5 2.5q0 1 1.5 2 t3.5 2t4 1t3 -2q1 -3 1 -7q0 -5 -1.5 -9.5t-4.5 -9t-7 -8.5q-5 -6 -10 -9.5t-10 -3.5z"
         id="glyph21330" />
      <glyph
         glyph-name="w"
         unicode="w"
         horiz-adv-x="73"
         d="M15 -2q-3 0 -5.5 2.5t-3 6t2.5 9.5l6 17q1 2 0.5 2h-1.5t-2.5 -1t-3.5 -2q-1 -1 -1.5 -1h-0.5q-1 0 -1 1l0.5 1l1.5 3q2 2 4.5 4t5 3.5t4.5 2.5t4 1q1 0 2.5 -1t1.5 -2.5t-1 -5.5l-9 -24q-1 -4 0 -5.5t3 -1.5t4 1.5t4 4l4 5t2 5.5q0 1 0.5 2.5t1 3.5l1 4t0.5 4q0 1 1 2.5 t2 2.5q2 1 3.5 2q2.5 1 4.5 1q1 0 1.5 -1.5t0.5 -3.5t-1 -5q-1 -4 -2.5 -7l-2.5 -5t-2 -4.5t-1 -3.5q0 -4 1 -6.5t4 -2.5t5.5 2.5t5 6t4 7.5t1.5 8q0 2 -0.5 3.5t-1.5 2.5l-1.5 3t-0.5 2t1.5 2.5t3.5 2.5t4 1t3 -2q1 -3 1 -7q0 -5 -1.5 -9.5t-5 -9.5t-6.5 -9q-4 -5 -9 -8.5 t-10 -3.5q-4 0 -5.5 2.5t-2 6t0.5 8.5l1 -3q-3 -4 -6.5 -7t-7 -5t-6.5 -2z"
         id="glyph21332" />
      <glyph
         glyph-name="x"
         unicode="x"
         horiz-adv-x="52"
         d="M3 -2q-2 0 -3.5 1.5t-1.5 3.5t1 3.5l2 3t3 1.5q1 0 1 -1t1 -1q0 -1 0.5 -1.5t1.5 -0.5t2 0.5t2 1.5q1 2 3 3.5t3.5 3t2.5 3.5q0 1 0.5 1.5t0.5 1.5l-5 14q0 1 -0.5 1.5l-0.5 0.5q-1 0 -3 -1.5t-4 -3.5l-0.5 -1l-0.5 -1l-0.5 0.5q-0.5 0.5 -0.5 1.5q0 2 1 4.5t3 4.5 t4.5 3.5t5.5 1.5t4 -2t2 -5l3 -10q0 -2 1 -1l7 10q3 4 5.5 6t5.5 2t4.5 -2t1.5 -4q0 -1 -1 -2.5t-2 -2.5t-2 -1t-1.5 0.5l-0.5 0.5q0 1 -1 1.5t-2 0.5t-2.5 -0.5t-3.5 -2.5t-3.5 -4t-3.5 -5q0 -1 -0.5 -2t0.5 -2l3 -12q1 -2 1.5 -2.5t1.5 -0.5t2.5 1.5t3.5 5.5q1 1 2 1 l0.5 -0.5q0.5 -0.5 0.5 -1.5q0 -2 -1.5 -4t-3 -4.5t-4 -4.5t-5.5 -2t-5 2.5t-2 5.5q-1 2 -1.5 4.5t-1.5 5.5q0 1 -0.5 1t-0.5 -1q-2 -3 -4 -5.5t-4 -5.5q-3 -4 -6 -5.5t-5 -1.5z"
         id="glyph21334" />
      <glyph
         glyph-name="y"
         unicode="y"
         horiz-adv-x="50"
         d="M-6 -32q-3 0 -5 1.5t-2 4.5q0 2 1 3.5t2.5 3t2.5 1.5t2.5 -1t2.5 -2t2 -1.5t3 -0.5q4 0 7.5 4t5.5 10q2 5 3 11t1 13q0 9 -1 14t-2.5 7t-2.5 2t-2 -1t-2 -3t-2 -3l-0.5 -1.5q-0.5 -1.5 -1.5 -1.5l-0.5 1q-0.5 1 -0.5 2q0 3 1.5 6t3.5 5.5t4.5 3.5t4.5 1q3 0 5 -2t4 -6 q2 -5 2.5 -12t0.5 -18q0 -2 0.5 -2t0.5 2q4 7 6 16t2 20q0 1 1 2t2 1t2.5 -1t2.5 -2.5t1 -3.5q0 -7 -3.5 -16t-10.5 -19t-16 -20q-4 -5 -8.5 -9t-9 -6.5t-7.5 -2.5z"
         id="glyph21336" />
      <glyph
         glyph-name="yacute"
         unicode="ý"
         horiz-adv-x="50"
         d="M-6 -32q-3 0 -5 1.5t-2 4.5q0 2 1 3.5t2.5 3t2.5 1.5t2.5 -1t2.5 -2t2 -1.5t3 -0.5q4 0 7.5 4t5.5 10q2 5 3 11t1 13q0 9 -1 14t-2.5 7t-2.5 2t-2 -1t-2 -3t-2 -3l-0.5 -1.5q-0.5 -1.5 -1.5 -1.5l-0.5 1q-0.5 1 -0.5 2q0 3 1.5 6t3.5 5.5t4.5 3.5t4.5 1q3 0 5 -2t4 -6 q2 -5 2.5 -12t0.5 -18q0 -2 0.5 -2t0.5 2q4 7 6 16t2 20q0 1 1 2t2 1t2.5 -1t2.5 -2.5t1 -3.5q0 -7 -3.5 -16t-10.5 -19t-16 -20q-4 -5 -8.5 -9t-9 -6.5t-7.5 -2.5z"
         id="glyph21338" />
      <glyph
         glyph-name="z"
         unicode="z"
         horiz-adv-x="49"
         d="M28 -4q-3 0 -6 2t-5 3l-3.5 3.5t-3.5 1.5q-3 0 -4.5 -2t-1.5 -5q0 -1 -0.5 -1h-1.5t-1.5 1t-0.5 2t0.5 3t2.5 3l32 29h3q-1 -2 -3 -2.5t-4 -0.5t-4 1t-4 3q-2 1 -3.5 2t-3.5 1t-3 -1.5t-1 -3.5v-2.5t1 -2.5t0 -2t-2.5 -1.5t-2.5 -0.5t-2 1t-1 3q0 4 2 6l5 5q2 1 3.5 2.5 t4 2.5t3.5 1q2 0 4 -0.5t4 -1.5t4.5 -1.5t4.5 -0.5t2.5 0.5t2.5 1.5l1.5 1.5t1.5 0.5t1.5 -0.5l0.5 -0.5q0 -1 -1.5 -2.5t-2.5 -3.5l-32 -30l-3 1q1 1 3 2t3 1q3 0 5 -1.5t4 -3.5t4 -3t4 -1t3 1t1.5 3t0.5 4v3t1 1t3 -1t2 -4q0 -2 -2 -5t-5 -5.5t-5.5 -4t-4.5 -1.5z"
         id="glyph21340" />
      <glyph
         glyph-name="zcaron"
         unicode="ž"
         horiz-adv-x="49"
         d="M28 -4q-3 0 -6 2t-5 3l-3.5 3.5t-3.5 1.5q-3 0 -4.5 -2t-1.5 -5q0 -1 -0.5 -1h-1.5t-1.5 1t-0.5 2t0.5 3t2.5 3l32 29h3q-1 -2 -3 -2.5t-4 -0.5t-4 1t-4 3q-2 1 -3.5 2t-3.5 1t-3 -1.5t-1 -3.5v-2.5t1 -2.5t0 -2t-2.5 -1.5t-2.5 -0.5t-2 1t-1 3q0 4 2 6l5 5q2 1 3.5 2.5 t4 2.5t3.5 1q2 0 4 -0.5t4 -1.5t4.5 -1.5t4.5 -0.5t2.5 0.5t2.5 1.5l1.5 1.5t1.5 0.5t1.5 -0.5l0.5 -0.5q0 -1 -1.5 -2.5t-2.5 -3.5l-32 -30l-3 1q1 1 3 2t3 1q3 0 5 -1.5t4 -3.5t4 -3t4 -1t3 1t1.5 3t0.5 4v3t1 1t3 -1t2 -4q0 -2 -2 -5t-5 -5.5t-5.5 -4t-4.5 -1.5z"
         id="glyph21342" />
      <glyph
         glyph-name="j.dotless"
         horiz-adv-x="110"
         id="glyph21344" />
      <glyph
         glyph-name="period"
         unicode="."
         horiz-adv-x="27"
         d="M7 -3q-3 0 -5 2t-2 5t1.5 5t3.5 3.5t5 1.5t4.5 -2.5t1.5 -5.5q0 -2 -1 -4t-3 -3.5t-5 -1.5z"
         id="glyph21346" />
      <glyph
         glyph-name="comma"
         unicode=","
         horiz-adv-x="27"
         d="M-5 -16h-1.5t-0.5 1t1 1.5t2 0.5q3 1 5.5 3t4 4t1.5 4t-1 2.5t-2 1.5t-2 1.5t-1 2.5q0 3 2 5t5 2q4 0 6.5 -2t2.5 -7q0 -4 -2 -7.5t-5 -6.5t-7 -4.5t-8 -1.5z"
         id="glyph21348" />
      <glyph
         glyph-name="colon"
         unicode=":"
         horiz-adv-x="27"
         d="M16.3496 27.3604q-3 0 -5 2t-2 5t1.5 5t3.5 3.5t5 1.5t4.5 -2.5t1.5 -5.5q0 -2 -1 -4t-3 -3.5t-5 -1.5zM7 -3q-3 0 -5 2t-2 5t1.5 5t3.5 3.5t5 1.5t4.5 -2.5t1.5 -5.5q0 -2 -1 -4t-3 -3.5t-5 -1.5z"
         id="glyph21350" />
      <glyph
         glyph-name="semicolon"
         unicode=";"
         horiz-adv-x="27"
         d="M-5 -16h-1.5t-0.5 1t1 1.5t2 0.5q3 1 5.5 3t4 4t1.5 4t-1 2.5t-2 1.5t-2 1.5t-1 2.5q0 3 2 5t5 2q4 0 6.5 -2t2.5 -7q0 -4 -2 -7.5t-5 -6.5t-7 -4.5t-8 -1.5zM16.3496 27.3604q-3 0 -5 2t-2 5t1.5 5t3.5 3.5t5 1.5t4.5 -2.5t1.5 -5.5q0 -2 -1 -4t-3 -3.5t-5 -1.5z"
         id="glyph21352" />
      <glyph
         glyph-name="exclam"
         unicode="!"
         horiz-adv-x="32"
         d="M15 21q-1 0 -1 1v4q1 6 2 11l2 10t2 8.5q1 2.5 1 4.5q1 3 2.5 5.5t3.5 4t4 1.5t3.5 -1.5t1.5 -4t-1 -6.5q0 -1 -2 -4.5t-4 -8t-4.5 -10t-4.5 -10.5q-1 -2 -2.5 -3.5t-2.5 -1.5zM9 -2q-3 0 -4.5 2t-1.5 5q0 4 2.5 6t6.5 2q3 0 5 -2t2 -4q0 -3 -3 -6t-7 -3z"
         id="glyph21354" />
      <glyph
         glyph-name="exclamdown"
         unicode="¡"
         horiz-adv-x="32"
         d="M20 32q1 0 1 -1v-4q-1 -6 -2 -11l-2 -10t-2 -8.5t-1 -5.5q-1 -3 -2.5 -5.5t-3.5 -4t-4 -1.5t-3.5 1.5t-1.5 4.5t1 7q0 1 2 4.5t4 8t4.5 10t4.5 10.5q1 2 2.5 3.5t2.5 1.5zM26 54q3 0 4.5 -1.5t1.5 -4.5q0 -4 -2.5 -6.5t-6.5 -2.5q-3 0 -5 2.5t-2 4.5q0 3 3 5.5t7 2.5z "
         id="glyph21356" />
      <glyph
         glyph-name="question"
         unicode="?"
         horiz-adv-x="40"
         d="M18 19q-1 0 -2.5 1.5t-2.5 4t-1 4.5q0 3 1 6t4.5 5.5t10.5 5.5q5 2 8.5 4.5t3.5 7.5q0 3 -2 5t-6 2q-1 0 -2.5 -1t-2.5 -1t-2 -0.5t-2 -0.5q-2 0 -3 1t-1 3q0 3 2.5 5t6.5 2q5 0 8.5 -2.5t5.5 -7t2 -10.5q0 -3 -1.5 -6.5t-3.5 -5.5t-5 -3l-10 -5q-3 -1 -4.5 -2.5 t-1.5 -3.5q0 -1 0.5 -2t0.5 -2t0.5 -1.5t0.5 -1.5t-0.5 -1h-1.5zM15 -2q-2 0 -4 2t-2 4q0 3 2.5 6t5.5 3t4.5 -2t1.5 -4q0 -3 -2 -6t-6 -3z"
         id="glyph21358" />
      <glyph
         glyph-name="questiondown"
         unicode="¿"
         horiz-adv-x="40"
         d="M25 34q1 0 2 -1.5t2 -4t1 -4.5q0 -3 -1 -6t-4.5 -5.5t-10.5 -5.5q-5 -2 -8 -4.5t-3 -6.5q0 -3 2 -5.5t6 -2.5q2 0 3 1t2 1t2 1t2 1q2 0 3 -1.5t1 -3.5q0 -3 -3 -5t-7 -2t-7.5 2.5t-6 7t-2.5 10.5q0 3 1.5 6.5t4 5.5t5.5 4l10 4q3 2 4 3t1 3v2v2t-0.5 1.5t-0.5 1.5t0.5 1 h1.5zM28 55q2 0 4 -2t2 -4q0 -3 -2.5 -6t-6.5 -3q-3 0 -4.5 2t-1.5 4q0 3 2.5 6t6.5 3z"
         id="glyph21360" />
      <glyph
         glyph-name="slash"
         unicode="/"
         horiz-adv-x="30"
         d="M-5 -7q-1 0 -1.5 1l-0.5 1l44 76q1 1 2 1.5t3 0.5q1 0 1.5 -1l0.5 -1l-44 -76q-1 -1 -2.5 -1.5t-2.5 -0.5z"
         id="glyph21362" />
      <glyph
         glyph-name="parenleft"
         unicode="("
         horiz-adv-x="33"
         d="M14 -24q-3 0 -6 5q-3 6 -4 13t-1 14q0 13 4.5 26t13 23.5t20.5 18.5q2 2 4 2t2 -2l-0.5 -0.5l-1.5 -1.5q-7 -6 -13 -14t-10.5 -17t-7 -18.5t-2.5 -18.5q0 -6 0.5 -11t1.5 -9t1 -7v-2t-1 -1z"
         id="glyph21364" />
      <glyph
         glyph-name="parenright"
         unicode=")"
         horiz-adv-x="33"
         d="M22 78q3 0 6 -5q3 -6 4 -13t1 -14q0 -13 -4.5 -26t-13 -23.5t-20.5 -18.5l-4 -2q-2 0 -2 2l0.5 0.5l1.5 1.5q7 6 13 14t10.5 17t7 18.5t2.5 18.5q0 6 -0.5 11t-1.5 9t-1 7v2t1 1z"
         id="glyph21366" />
      <glyph
         glyph-name="guillemotleft"
         unicode="«"
         horiz-adv-x="68"
         id="glyph21368" />
      <glyph
         glyph-name="guillemotright"
         unicode="»"
         horiz-adv-x="72"
         d="M39 45q1 0 2 -1l2 -2q2 -3 4.5 -5l5 -4t5 -3.5t5.5 -3.5q1 -1 1.5 -1t0.5 -1t-1 -1.5l-1 -0.5l-12 -6t-11 -6.5t-10 -6.5q-1 0 -1.5 -0.5t-1.5 -0.5t-0.5 1t0.5 2q4 4 8.5 7.5t8 6t6.5 4.5l1 1v1l-4.5 4.5t-4.5 5.5t-4 7v2t1 1zM16 45q1 0 2 -1t1 -2q2 -3 5 -5t5.5 -4 t5 -3.5t4.5 -3.5q1 -1 2 -1t1 -1t-1 -1.5l-1 -0.5l-12 -6t-11 -6.5t-11 -6.5q-1 0 -1 -0.5t-1 -0.5t-1 1t1 2q4 4 8.5 7.5t8 6t6.5 4.5l1 1v1l-4.5 4.5t-4.5 5.5t-4 7v2t1 1z"
         id="glyph21370" />
      <glyph
         glyph-name="guilsinglleft"
         unicode="‹"
         horiz-adv-x="110"
         id="glyph21372" />
      <glyph
         glyph-name="quotedbl"
         unicode="&quot;"
         horiz-adv-x="41"
         d="M16 46q-1 0 -0.5 1t0.5 2q1 2 1 3.5t1 3.5q1 3 1.5 6t1.5 6q0 1 1.5 2.5t2.5 1.5q2 1 3.5 2t3.5 1q1 0 1 -1.5t-1 -3.5q-1 -3 -2.5 -6t-3 -5.5t-3.5 -5t-3 -4.5l-1.5 -1.5zM33 46q-1 0 -0.5 1t0.5 2q1 2 1 3.5t1 3.5q1 3 1.5 6t1.5 6q0 1 1.5 2.5t2.5 1.5q2 1 3.5 2 t3.5 1q1 0 1 -1.5t-1 -3.5q-1 -3 -2.5 -6t-3 -5.5t-3.5 -5t-3 -4.5l-1.5 -1.5z"
         id="glyph21374" />
      <glyph
         glyph-name="quotesingle"
         unicode="'"
         horiz-adv-x="24"
         d="M16 46q-1 0 -0.5 1t0.5 2q1 2 1 3.5t1 3.5q1 3 1.5 6t1.5 6q0 1 1.5 2.5t2.5 1.5q2 1 3.5 2t3.5 1q1 0 1 -1.5t-1 -3.5q-1 -3 -2.5 -6t-3 -5.5t-3.5 -5t-3 -4.5l-1.5 -1.5z"
         id="glyph21376" />
      <glyph
         glyph-name="divide"
         unicode="÷"
         horiz-adv-x="65"
         d="M8 27q-1 0 -1.5 0.5l-0.5 0.5q0 1 0.5 2l1 2t1.5 1h52q1 0 1.5 -0.5l0.5 -0.5q0 -1 -1 -3t-2 -2h-52zM35 7q-3 0 -5 2t-2 5t2 5t5 2t5 -2t2 -5t-2 -5t-5 -2zM35 38q-3 0 -5 2.5t-2 4.5q0 3 2 5t5 2t5 -2t2 -5t-2 -5t-5 -2z"
         id="glyph21378" />
      <glyph
         glyph-name="equal"
         unicode="="
         horiz-adv-x="68"
         d="M8 35q-1 0 -1.5 0.5l-0.5 0.5q0 1 0.5 2l1 2t1.5 1h54q1 0 1.5 -0.5t0.5 -1.5t-1 -2.5t-2 -1.5h-54zM8 15q-1 0 -1.5 0.5l-0.5 0.5q0 1 0.5 2l1 2t1.5 1h54q1 0 1.5 -0.5l0.5 -0.5q0 -1 -1 -3t-2 -2h-54z"
         id="glyph21380" />
      <glyph
         glyph-name="greater"
         unicode="&gt;"
         horiz-adv-x="65"
         d="M9 0q-1 0 -2 0.5t-1 1.5t1 3t3 2l40 19v0v0l-40 19q-2 1 -3 2.5t-1 2.5t0.5 1.5t1.5 0.5v0v0l47 -22q2 -1 3.5 -1.5t1.5 -1.5t-1 -3t-3 -2z"
         id="glyph21382" />
      <glyph
         glyph-name="less"
         unicode="&lt;"
         horiz-adv-x="65"
         d="M56 -0l-46 21q-2 1 -3.5 2l-1.5 1q0 1 1 3t3 3l47 21q1 1 2 0.5q1 0.5 1 -1.5t-1.5 -3.5l-2.5 -2.5l-40 -18v-0.5v-0.5l40 -18q2 -1 3 -2.5t1 -2.5t-1 -1.5t-2 -0.5z"
         id="glyph21384" />
      <glyph
         glyph-name="at"
         unicode="@"
         horiz-adv-x="86"
         d="M33 -16q-10 0 -17 3t-10.5 9t-3.5 14q0 7 2.5 14t7.5 13.5t11.5 11t14.5 7t17 2.5q7 0 12 -2t9 -5.5t6 -8t2 -8.5q0 -6 -2.5 -11.5t-6.5 -10t-9.5 -7t-12.5 -2.5q-2 0 -3 1t-1.5 2t-0.5 2t-0.5 1h-1.5q-1 -1 -3 -2l-5 -2.5t-6 -1.5q-6 0 -9 3.5t-3 8.5t2.5 9.5t7 8.5 t10.5 6t13 2h3t3 -1h1.5t1.5 -1q1 0 2 1.5t2 1.5h1q1 0 1.5 -0.5l0.5 -0.5q-2 -2 -3.5 -5t-1.5 -5l-8 -16q-1 -2 -1 -4t3 -2q6 0 10 3.5t6.5 9t2.5 11.5t-3 10t-8.5 6.5t-12.5 2.5q-8 0 -15.5 -3t-14 -8.5t-10 -13t-3.5 -15.5q0 -7 3 -12t9 -8t14 -3t14 2.5t12 5.5 q1 1 2 1.5t2 0.5t1 -0.5v-1.5t-3 -3.5t-7.5 -4.5t-10.5 -3.5t-13 -1.5zM36 9q2 0 4 0.5t4 1.5q1 1 2 2.5t2 3.5l6 12q1 1 1 2v2q0 2 -1.5 3t-5.5 1t-7.5 -2t-5.5 -5t-3.5 -6.5t-1.5 -7.5t1.5 -5.5t4.5 -1.5z"
         id="glyph21386" />
      <glyph
         glyph-name="ampersand"
         unicode="&amp;"
         horiz-adv-x="92"
         d="M46 -2q-10 0 -18.5 4t-13 10.5q-4.5 7.5 -4.5 15.5t3 14t8.5 10t11.5 3q6 0 9.5 -2.5t3.5 -6.5q0 -3 -2 -5.5t-4.5 -3.5t-5.5 -1q-5 0 -9 2.5t-6.5 8t-2.5 11.5t3 11t8 7.5t12 2.5q6 0 9 -3t3 -8q0 -3 -1.5 -4.5t-4.5 -1.5q-1 0 -2.5 1.5t-1.5 2.5q0 2 -1.5 4t-3.5 2 q-4 0 -7 -2t-5 -5t-2 -7q0 -17 12 -18q3 0 4.5 2t1.5 4t-1.5 3.5t-5.5 1.5q-7 0 -11.5 -5t-4.5 -13q0 -6 3.5 -11t10.5 -8.5t18 -3.5q10 0 16.5 3.5t10 9.5t3.5 12t-3 10t-11 4q-4 0 -6 -2.5t-2 -5.5q0 -2 1 -3.5t4 -1.5q1 0 1.5 0.5l1.5 1.5l1.5 1.5t2.5 0.5q3 0 4 -1t1 -3 q0 -3 -2.5 -5.5t-5.5 -2.5q-6 0 -10 3.5t-4 8.5q0 6 2.5 10t7 6t9.5 2h9q9 0 13 2.5t4 8.5q0 3 -2 4.5t-4 1.5q-1 0 -2 -0.5t-1 -1.5t0.5 -1.5t1.5 -0.5l1.5 -1.5t0.5 -1.5q0 -2 -1.5 -3.5t-4.5 -1.5t-4.5 2t-1.5 5q0 2 1 4t3.5 3.5t6.5 1.5q5 0 7.5 -3.5t2.5 -9.5 q0 -5 -2 -9t-6 -6.5t-9 -2.5h-2.5t-0.5 -1q2 -3 3 -6.5t1 -7.5q0 -11 -5 -18.5t-14 -12t-20 -4.5z"
         id="glyph21388" />
      <glyph
         glyph-name="uni0308"
         unicode="̈"
         id="glyph21390" />
      <glyph
         glyph-name="acutecomb"
         unicode="́"
         id="glyph21392" />
      <glyph
         glyph-name="uni030C"
         unicode="̌"
         id="glyph21394" />
      <glyph
         glyph-name="uni0306"
         unicode="̆"
         id="glyph21396" />
      <glyph
         glyph-name="uni030A"
         unicode="̊"
         id="glyph21398" />
      <glyph
         glyph-name="tildecomb"
         unicode="̃"
         id="glyph21400" />
      <glyph
         glyph-name="dotaccent"
         unicode="˙"
         horiz-adv-x="110"
         id="glyph21402" />
      <glyph
         glyph-name="uni030C.altcap"
         id="glyph21404" />
      <glyph
         glyph-name="uni0308.cap"
         id="glyph21406" />
      <glyph
         glyph-name="uni0307.cap"
         id="glyph21408" />
      <glyph
         glyph-name="gravecomb.cap"
         id="glyph21410" />
      <glyph
         glyph-name="acutecomb.cap"
         id="glyph21412" />
      <glyph
         glyph-name="uni0302.cap"
         id="glyph21414" />
      <glyph
         glyph-name="uni030C.cap"
         id="glyph21416" />
      <glyph
         glyph-name="uni0306.cap"
         id="glyph21418" />
      <glyph
         glyph-name="uni030A.cap"
         id="glyph21420" />
      <glyph
         glyph-name="tildecomb.cap"
         id="glyph21422" />
      <glyph
         glyph-name="uni0327.cap"
         id="glyph21424" />
      </font>
</defs>
</svg>
