<?xml version="1.0" encoding="UTF-8" standalone="no"?>
<!-- Created with Inkscape (http://www.inkscape.org/) -->

<svg
   width="63mm"
   height="63mm"
   viewBox="0 0 63 63"
   version="1.1"
   id="svg8"
   sodipodi:docname="patch_lighthouse.svg"
   inkscape:version="1.4.2 (ebf0e940d0, 2025-05-08)"
   xml:space="preserve"
   xmlns:inkscape="http://www.inkscape.org/namespaces/inkscape"
   xmlns:sodipodi="http://sodipodi.sourceforge.net/DTD/sodipodi-0.dtd"
   xmlns:xlink="http://www.w3.org/1999/xlink"
   xmlns="http://www.w3.org/2000/svg"
   xmlns:svg="http://www.w3.org/2000/svg"
   xmlns:rdf="http://www.w3.org/1999/02/22-rdf-syntax-ns#"
   xmlns:cc="http://creativecommons.org/ns#"
   xmlns:dc="http://purl.org/dc/elements/1.1/"
   xmlns:inkstitch="http://inkstitch.org/namespace"><sodipodi:namedview
     id="base"
     pagecolor="#ffffff"
     bordercolor="#666666"
     borderopacity="1.0"
     inkscape:pageopacity="0.0"
     inkscape:pageshadow="2"
     inkscape:zoom="2.953"
     inkscape:cx="98.543854"
     inkscape:cy="135.11683"
     inkscape:document-units="mm"
     inkscape:current-layer="g1"
     showgrid="false"
     fit-margin-top="2"
     fit-margin-left="2"
     fit-margin-right="2"
     fit-margin-bottom="2"
     inkscape:object-nodes="false"
     inkscape:snap-global="false"
     inkscape:window-width="1920"
     inkscape:window-height="1131"
     inkscape:window-x="0"
     inkscape:window-y="0"
     inkscape:window-maximized="1"
     showguides="false"
     inkscape:showpageshadow="2"
     inkscape:pagecheckerboard="0"
     inkscape:deskcolor="#d1d1d1"><sodipodi:guide
       position="31.48566,31.50001"
       orientation="1,0"
       id="guide4"
       inkscape:locked="false" /><sodipodi:guide
       position="31.500001,31.5"
       orientation="0,-1"
       id="guide5"
       inkscape:locked="false" /><sodipodi:guide
       position="37.869219,41.313749"
       orientation="0,-1"
       id="guide1138"
       inkscape:locked="false" /><sodipodi:guide
       position="39.154392,18.559319"
       orientation="0,-1"
       id="guide1139"
       inkscape:locked="false" /><inkscape:grid
       id="grid1"
       units="mm"
       originx="0"
       originy="0"
       spacingx="1"
       spacingy="1"
       empcolor="#0099e5"
       empopacity="0.30196078"
       color="#0099e5"
       opacity="0.14901961"
       empspacing="5"
       enabled="true"
       visible="false" /></sodipodi:namedview><defs
     id="defs2"><symbol
       id="inkstitch_ignore_layer"
       transform="scale(0.25, 0.25)"
       style="opacity:0.7"><title
         id="title9694">Ignore entire layer when generating stitch plan</title><path
         inkscape:connector-curvature="0"
         style="opacity:1;vector-effect:none;fill:#fafafa;fill-opacity:1;fill-rule:evenodd;stroke:#ff0000;stroke-width:1.06501234;stroke-linecap:round;stroke-linejoin:miter;stroke-miterlimit:4;stroke-dasharray:3.19503705, 3.19503705;stroke-dashoffset:0;stroke-opacity:1"
         d="M 9.2465269,-4.9265995e-6 C 9.246525,5.1067241 5.1067028,9.2465451 -2.615882e-5,9.2465451 -5.1067554,9.2465451 -9.2465782,5.1067241 -9.2465801,-4.9265995e-6 -9.24658,-2.4523429 -8.2723922,-4.8042399 -6.538327,-6.5383059 c 1.7340653,-1.734065 4.0859624,-2.708252 6.53830084118,-2.708252 5.10673015882,0 9.24655285882,4.139823 9.24655305882,9.2465529734005 0,0 0,0 0,0"
         id="inkstitch_path25368-7" /><path
         sodipodi:nodetypes="ccccc"
         inkscape:connector-curvature="0"
         style="color:#000000;fill:#d5d5d5;fill-opacity:1;fill-rule:evenodd;stroke:#5a5a5a;stroke-width:0.63330007;stroke-linecap:square;stroke-linejoin:round;stroke-miterlimit:0;stroke-opacity:1"
         d="M 4,4.452769 1.46667,1.286102 H -5.5 l 2.53333,3.166667 z"
         id="use5800" /><path
         sodipodi:nodetypes="ccccc"
         inkscape:connector-curvature="0"
         style="color:#000000;opacity:0.5;fill:#d5d5d5;fill-opacity:1;fill-rule:evenodd;stroke:#858585;stroke-width:0.63339424;stroke-linecap:square;stroke-linejoin:round;stroke-miterlimit:0;stroke-opacity:1"
         d="M 4,2.552769 1.46667,-0.613898 H -5.5 l 2.53333,3.166667 z"
         id="use5864" /><g
         id="g5771"><path
           sodipodi:nodetypes="ccccccccc"
           inkscape:connector-curvature="0"
           style="fill:#aa0000;fill-rule:evenodd;stroke:#aa0000;stroke-width:1px"
           d="m -1.0666699,-5.0472339 h 4.4333333 l 0.6333333,0.6333333 V 0.01943274 L 3.3666634,0.65276607 H -1.0666699 L -1.7000032,0.01943274 V -4.4139006 Z"
           id="path8011" /><path
           inkscape:connector-curvature="0"
           id="path8023"
           d="m -0.43333658,-3.8755672 c 0,0 3.16666668,3.16666661 3.16666668,3.16666661"
           style="fill:none;stroke:#ffffff;stroke-width:1.70000005" /><path
           inkscape:connector-curvature="0"
           id="path8025"
           d="m 2.7333301,-3.8755672 c 0,0 -3.16666668,3.16666661 -3.16666668,3.16666661"
           style="fill:none;stroke:#ffffff;stroke-width:1.79999995;stroke-linejoin:round" /></g></symbol><symbol
       id="inkstitch_ending_point"
       transform="scale(0.25, 0.25)"
       style="opacity:0.7"><title
         id="inkstitch_title9427">Ending point</title><path
         id="inkstitch_circle13166"
         d="m 9.220113,0.0792309 c -1.9e-6,5.106729 -4.1398241,9.24655 -9.246553,9.24655 -5.1067293,0 -9.2465521,-4.139821 -9.246554,-9.24655 1e-7,-2.452338 0.9741879,-4.804235 2.7082531,-6.538301 1.7340653,-1.734065 4.0859624,-2.708252 6.5383009,-2.708252 5.1067301,0 9.2465528,4.139823 9.246553,9.246553 0,0 0,0 0,0"
         style="opacity:1;vector-effect:none;fill:#fafafa;fill-opacity:1;fill-rule:evenodd;stroke:#003399;stroke-width:1.06500006;stroke-linecap:round;stroke-linejoin:miter;stroke-miterlimit:4;stroke-dasharray:3.19500017, 3.19500017;stroke-dashoffset:0;stroke-opacity:1"
         inkscape:connector-curvature="0" /><path
         style="opacity:1;fill:#000000;fill-opacity:1;fill-rule:nonzero;stroke:none;stroke-width:2.27154255;stroke-linecap:round;stroke-linejoin:round;stroke-miterlimit:4;stroke-dasharray:4.81866985, 4.81866985;stroke-dashoffset:0;stroke-opacity:1;paint-order:fill markers stroke"
         d="m -4.570439,-4.5704391 c 0,0 9.140878,0 9.140878,0 0,0 0,9.14087 0,9.14087 0,0 -9.140878,0 -9.140878,0 0,0 0,-9.14087 0,-9.14087"
         id="inkstitch_rect5371-2"
         inkscape:connector-curvature="0" /></symbol><filter
       style="color-interpolation-filters:sRGB"
       id="realistic-stitch-filter"
       x="0"
       width="1"
       y="0"
       height="1"
       inkscape:auto-region="false"><feGaussianBlur
         edgeMode="none"
         stdDeviation="0.9"
         in="SourceAlpha"
         id="feGaussianBlur1146" /><feSpecularLighting
         result="result2"
         surfaceScale="4.29"
         specularConstant="0.65"
         specularExponent="1.6"
         id="feSpecularLighting1146"><feDistantLight
           azimuth="154"
           elevation="112"
           id="feDistantLight1146" /></feSpecularLighting><feComposite
         in2="SourceAlpha"
         operator="atop"
         id="feComposite1146" /><feComposite
         in2="SourceGraphic"
         operator="arithmetic"
         result="result3"
         k1="0"
         k2="0.8"
         k3="1.2"
         k4="0"
         id="feComposite1147" /></filter></defs><metadata
     id="metadata5"><rdf:RDF><cc:Work
         rdf:about=""><dc:format>image/svg+xml</dc:format><dc:type
           rdf:resource="http://purl.org/dc/dcmitype/StillImage" /></cc:Work></rdf:RDF><inkstitch:min_stitch_len_mm>0.3</inkstitch:min_stitch_len_mm><inkstitch:collapse_len_mm>10.0</inkstitch:collapse_len_mm><inkstitch:inkstitch_svg_version>3</inkstitch:inkstitch_svg_version></metadata><g
     transform="translate(0,-21)"
     inkscape:label="Guide Lines"
     id="layer2"
     inkscape:groupmode="layer"
     style="display:none"><path
       id="path1669"
       style="opacity:0.5;fill:none;stroke:#02ff00;stroke-width:0.482482"
       inkscape:label="guideline inner not stitched"
       transform="rotate(-164.209)"
       d="M -49.737727,-59.987658 C -38.706857,-63.124183 -25.843927,-55.259189 -25.843927,-41.94656 -25.843927,-31.588948 -34.24043,-23.192445 -44.598042,-23.192446 -54.955653,-23.192446 -63.352156,-31.588949 -63.352156,-41.94656 -63.352156,-50.521951 -57.596603,-57.75306 -49.737727,-59.987658"
       sodipodi:nodetypes="csssc" /><path
       id="path2356"
       style="opacity:0.5;fill:none;stroke:#00ff00;stroke-width:0.48578"
       inkscape:label="guideline outer not stitched"
       transform="matrix(-0.605001,0.796225,0.796174,0.605068,0,0)"
       d="M 1.4112858,40.682356 C 6.2978209,34.243838 14.033069,30.085833 22.739494,30.085833 37.517757,30.085833 49.497907,42.065702 49.497908,56.84362 49.497908,71.621539 37.517758,83.601409 22.739494,83.601408 7.9612306,83.601408 -4.0189196,71.621538 -4.018919,56.84362 -4.0189188,50.771924 -1.996571,45.172561 1.4112858,40.682356"
       sodipodi:nodetypes="cssssc" /><use
       id="use5245"
       inkscape:label="Ink/Stitch Command: Ignore layer (do not stitch any objects in this layer)"
       xlink:href="#inkstitch_ignore_layer"
       height="100%"
       width="100%"
       x="0"
       y="-10"
       transform="scale(0.264583)" /><path
       id="path1143"
       style="opacity:0.5;fill:none;stroke:#02ff00;stroke-width:0.482482"
       inkscape:label="guideline inner not stitched"
       transform="rotate(-164.209)"
       d="M -57.50791,-28.34312 C -61.107587,-31.760379 -63.352156,-36.591345 -63.352156,-41.94656 -63.352156,-44.602729 -62.230383,-48.40835 -61.234531,-50.698042"
       sodipodi:nodetypes="csc" /></g><g
     style="display:inline"
     id="layer1"
     inkscape:groupmode="layer"
     inkscape:label="Patch 1"
     transform="translate(-114.128, -58.0503)"><path
       inkscape:label="positioning/cutting line"
       inkscape:connector-curvature="0"
       id="path3362"
       d="M 176.44785,89.550345 C 176.44785,106.57207 162.64918,120.37092 145.62764,120.37095 128.60607,120.37096 114.80735,106.5721 114.80735,89.550345 114.80735,72.528589 128.60607,58.729732 145.62764,58.729744 162.64918,58.729776 176.44785,72.52862 176.44785,89.550345 Z"
       style="display:inline;fill:none;fill-opacity:1;stroke:#ff0000;stroke-width:0.359487;stroke-miterlimit:4;stroke-dasharray:0.359487, 0.359487;stroke-dashoffset:0;stroke-opacity:1"
       inkstitch:running_stitch_length_mm="2.3"
       inkstitch:trim_after="True"
       inkstitch:stop_after="True"
       inkstitch:fill_underlay="False"
       sodipodi:nodetypes="scscs" /><path
       inkscape:label="fixing line"
       inkscape:connector-curvature="0"
       id="path3362-3"
       d="M 175.5276,89.550342 C 175.5276,106.06384 162.14092,119.45067 145.62761,119.45068 129.11429,119.45068 115.7276,106.06384 115.7276,89.550342 115.7276,73.036844 129.11429,59.650012 145.62761,59.650015 162.14092,59.650023 175.5276,73.036852 175.5276,89.550342 Z"
       style="display:inline;fill:none;fill-opacity:1;stroke:#000000;stroke-width:0.2;stroke-miterlimit:4;stroke-dasharray:0.2, 0.2;stroke-dashoffset:0;stroke-opacity:1"
       inkstitch:trim_after="True"
       inkstitch:stop_after="True"
       inkstitch:running_stitch_length_mm="2"
       inkstitch:fill_underlay="False"
       sodipodi:nodetypes="sssss" /></g><g
     inkscape:groupmode="layer"
     id="layer4"
     inkscape:label="Embroidery"><g
       id="g1"
       inkscape:label="Backup"
       style="display:none"><g
         id="g354"
         style="display:inline"
         inkscape:label="light"><path
           style="fill:none;stroke:#000000;stroke-width:0.2;stroke-linejoin:round;stroke-dasharray:none"
           d="M 34.943277,12.812535 45.426262,8.8702167"
           id="path351" /><path
           style="fill:none;stroke:#000000;stroke-width:0.2;stroke-linejoin:round;stroke-dasharray:none"
           d="M 34.943277,14.425302 48.2934,17.471639"
           id="path352" /><path
           style="fill:none;stroke:#000000;stroke-width:0.2;stroke-linejoin:round;stroke-dasharray:none"
           d="M 26.521052,12.09575 16.754854,9.5870018"
           id="path353" /><path
           style="fill:none;stroke:#000000;stroke-width:0.2;stroke-linejoin:round;stroke-dasharray:none"
           d="M 25.714668,14.962891 14.066909,19.084405"
           id="path354" /></g><g
         id="g656"
         style="display:inline"
         inkscape:label="lighthouse"><path
           style="fill:none;stroke:#000000;stroke-width:0.2;stroke-linejoin:round;stroke-dasharray:none"
           d="M 21.637953,53.445296 V 52.683711 L 22.041144,52.235721 26.969042,51.922126 H 32.748122 L 34.092094,51.832528 H 34.629685 L 34.674484,52.504514 33.778502,52.72851 33.733703,53.042102 32.882519,52.997303 26.745046,53.266099 Z"
           id="path512" /><path
           style="fill:none;stroke:#000000;stroke-width:0.2;stroke-linejoin:round;stroke-dasharray:none"
           d="M 26.65545,53.221299 V 52.459715 L 26.857044,51.899727 26.834646,49.726973 26.677849,49.570176 26.63305,49.256582 26.901844,49.032587 27.013842,39.288788 26.857045,38.930396 V 38.437606 L 27.036241,38.303209 27.058641,36.354449 26.946643,36.085654 V 35.81686"
           id="path513" /><path
           style="fill:none;stroke:#000000;stroke-width:0.2;stroke-linejoin:round;stroke-dasharray:none"
           d="M 34.696884,35.032875 34.719283,35.503265 34.920877,35.592863 35.032875,35.996057 34.965677,36.287249 35.032875,38.124013 34.719283,38.370406 34.741683,38.885595 35.032875,39.17679 35.077675,42.536721 34.674484,42.872712 34.696884,43.051909 33.756102,43.589498 33.778502,43.813494 32.882519,44.373482 32.86012,44.687077 32.591327,44.776675 32.613727,45.269464 32.904919,45.51586 V 48.808592 L 33.128915,49.077385 V 49.413379 L 32.882519,49.614973 32.904919,51.899727 32.837722,52.392516 32.882521,52.997305"
           id="path514"
           sodipodi:nodetypes="cccccccccccccccccccccccccc" /><path
           style="fill:none;stroke:#000000;stroke-width:0.2;stroke-linejoin:round;stroke-dasharray:none"
           d="M 22.018745,52.168522 22.041144,50.197363 21.817149,49.950967 21.839548,49.682172 22.197941,49.525377 22.399537,40.498363 22.108343,40.072773 22.085943,39.60238 22.466735,39.355987 22.489135,37.407228 22.309939,37.25043 22.287539,36.959235 26.09546,35.973657 26.14026,34.002498 27.058641,33.218514 27.506631,19.711592 27.260237,19.308401 26.924243,18.815611 C 26.924243,18.815611 26.610651,18.546817 26.588251,18.166024 26.565852,17.785232 26.610651,17.40444 26.610651,17.40444 26.610651,17.40444 27.215438,16.710054 27.820225,16.530858 28.425013,16.351662 29.679386,15.993269 30.328973,15.993269 30.978559,15.993269 32.344931,15.97087 33.442507,16.262064 34.540086,16.553258 35.055275,17.113246 35.234472,17.382041 35.413669,17.650835 35.36887,17.628436 35.36887,17.628436 L 35.301671,18.278022 34.428088,19.532396 35.167273,31.628146 34.024898,31.829742 33.576905,32.524128 33.621704,32.725725 33.397711,33.240913 33.487307,33.330512 33.196114,33.711303 33.308112,33.845701 32.748122,34.428088 32.680925,34.629685 32.322531,34.741683 32.367331,35.256872 32.770521,35.36887 34.551286,35.044075 C 34.551286,35.044075 34.506487,34.76408 34.820079,34.618485 35.133674,34.472888 36.119252,34.237691 36.119252,34.237691 36.119252,34.237691 38.426405,33.778502 39.927175,33.968899 41.427945,34.159293 42.346324,34.34969 42.346324,34.629685 42.346324,34.909678 42.178329,34.909678 42.178329,34.909678 L 42.346324,38.012015 C 42.346324,38.012015 42.760717,38.213609 42.816716,38.314407 42.872712,38.415206 42.861513,38.930394 42.861513,38.930394 L 42.447122,39.277588 43.130308,48.864591 43.466302,49.099784 V 49.36858 L 43.298305,49.525377 43.376704,51.69813 43.735095,52.213321 43.746295,52.862908 38.7288,52.885308 37.149632,52.930107 H 36.432847 L 33.789702,53.064502"
           id="path515" /><path
           style="fill:none;stroke:#000000;stroke-width:0.2;stroke-linejoin:round;stroke-dasharray:none"
           d="M 34.76408,52.459715 36.533645,52.470915 36.522445,52.862908"
           id="path516" /><path
           style="fill:none;stroke:#000000;stroke-width:0.2;stroke-linejoin:round;stroke-dasharray:none"
           d="M 35.906458,52.426115 35.940058,51.910927 H 37.127232 L 38.695201,51.866127 43.343104,51.754129"
           id="path517" /><path
           style="fill:none;stroke:#000000;stroke-width:0.2;stroke-linejoin:round;stroke-dasharray:none"
           d="M 38.784799,52.829307 38.639202,45.045468"
           id="path518"
           sodipodi:nodetypes="cc" /><path
           style="fill:none;stroke:#000000;stroke-width:0.2;stroke-linejoin:round;stroke-dasharray:none"
           d="M 36.029656,49.435779 37.116033,49.278981 38.583203,49.245382 43.354304,49.35738"
           id="path519" /><path
           style="fill:none;stroke:#000000;stroke-width:0.2;stroke-linejoin:round;stroke-dasharray:none"
           d="M 43.01831,48.763793 38.706401,48.830991 37.127232,48.707793 36.029656,48.786192"
           id="path520" /><path
           style="fill:none;stroke:#000000;stroke-width:0.2;stroke-linejoin:round;stroke-dasharray:none"
           d="M 35.984857,51.899727 V 47.229424 L 34.024898,47.386221 34.114494,51.776529 33.8905,52.28052 33.8793,52.638912"
           id="path521" /><path
           style="fill:none;stroke:#000000;stroke-width:0.2;stroke-linejoin:round;stroke-dasharray:none"
           d="M 34.652085,51.765329 34.629685,47.397421"
           id="path522" /><path
           style="fill:none;stroke:#000000;stroke-width:0.2;stroke-linejoin:round;stroke-dasharray:none"
           d="M 34.573686,49.626173 34.114494,49.614973 33.016917,49.659773"
           id="path523"
           sodipodi:nodetypes="ccc" /><path
           style="fill:none;stroke:#000000;stroke-width:0.2;stroke-linejoin:round;stroke-dasharray:none"
           d="M 34.472888,48.942987 33.991298,48.93179 33.106516,48.965386"
           id="path524" /><path
           style="fill:none;stroke:#000000;stroke-width:0.2;stroke-linejoin:round;stroke-dasharray:none"
           d="M 32.792921,49.614973 26.879444,49.682172 23.945105,49.962167 22.074744,50.141364"
           id="path525" /><path
           style="fill:none;stroke:#000000;stroke-width:0.2;stroke-linejoin:round;stroke-dasharray:none"
           d="M 22.209141,49.536577 26.823445,49.099784 32.815321,48.819792"
           id="path526" /><path
           style="fill:none;stroke:#000000;stroke-width:0.2;stroke-linejoin:round;stroke-dasharray:none"
           d="M 32.882519,45.426262 37.037634,44.731876 38.650402,44.978269 39.019993,44.91107 C 38.986394,44.799074 38.975195,44.306285 38.975195,44.306285 L 37.071234,44.115889 32.92732,44.675877"
           id="path527" /><path
           style="fill:none;stroke:#000000;stroke-width:0.2;stroke-linejoin:round;stroke-dasharray:none"
           d="M 33.8569,43.779895 36.724042,43.320705 37.73202,43.477502"
           id="path528" /><path
           style="fill:none;stroke:#000000;stroke-width:0.2;stroke-linejoin:round;stroke-dasharray:none"
           d="M 34.696884,43.051909 36.388047,42.827916 36.858437,42.839116"
           id="path529" /><path
           style="fill:none;stroke:#000000;stroke-width:0.2;stroke-linejoin:round;stroke-dasharray:none"
           d="M 35.133674,42.469522 36.197651,42.279125 36.992835,43.768695 37.048834,44.563879 37.004035,44.89987 37.172032,52.907707"
           id="path530" /><path
           style="fill:none;stroke:#000000;stroke-width:0.2;stroke-linejoin:round;stroke-dasharray:none"
           d="M 41.170349,42.693518 41.215148,45.381462 42.245526,45.426262 42.200726,42.648719 Z"
           id="path531" /><path
           style="fill:none;stroke:#000000;stroke-width:0.2;stroke-linejoin:round;stroke-dasharray:none"
           d="M 42.379923,39.19919 C 42.379923,39.19919 41.035951,38.930394 39.467985,38.975194 37.900017,39.019993 36.018456,39.109591 35.256872,39.423186 L 27.013842,39.69198 22.26514,40.63276"
           id="path532" /><path
           style="fill:none;stroke:#000000;stroke-width:0.2;stroke-linejoin:round;stroke-dasharray:none"
           d="M 26.11786,35.928858 27.013842,35.79446 34.876078,35.704861"
           id="path533"
           sodipodi:nodetypes="ccc" /><path
           style="fill:none;stroke:#000000;stroke-width:0.2;stroke-linejoin:round;stroke-dasharray:none"
           d="M 42.09993,35.380068 C 42.09993,35.380068 41.159149,35.021676 39.680779,34.976877 38.202409,34.932078 35.962457,35.24567 34.932077,35.604064"
           id="path534" /><path
           style="fill:none;stroke:#000000;stroke-width:0.2;stroke-linejoin:round;stroke-dasharray:none"
           d="M 26.11786,34.047297 28.761004,33.330512 33.296912,33.252113"
           id="path535" /><path
           style="fill:none;stroke:#000000;stroke-width:0.2;stroke-linejoin:round;stroke-dasharray:none"
           d="M 28.772204,33.352912 28.805804,35.738461"
           id="path536" /><path
           style="fill:none;stroke:#000000;stroke-width:0.2;stroke-linejoin:round;stroke-dasharray:none"
           d="M 27.11464,33.196114 29.164198,32.591327 C 29.164198,32.591327 32.613727,32.356131 33.431308,32.468129"
           id="path537" /><path
           style="fill:none;stroke:#000000;stroke-width:0.2;stroke-linejoin:round;stroke-dasharray:none"
           d="M 29.152998,32.613727 28.805804,33.285713"
           id="path538" /><path
           style="fill:none;stroke:#000000;stroke-width:0.2;stroke-linejoin:round;stroke-dasharray:none"
           d="M 37.160832,35.536864 38.348007,35.447266 38.460005,37.68722 37.28403,37.743219 Z"
           id="path539" /><path
           style="fill:none;stroke:#000000;stroke-width:0.2;stroke-linejoin:round;stroke-dasharray:none"
           d="M 35.088875,38.056814 C 35.088875,38.056814 36.399247,37.70962 37.172032,37.653621"
           id="path540" /><path
           style="fill:none;stroke:#000000;stroke-width:0.2;stroke-linejoin:round;stroke-dasharray:none"
           d="M 38.471205,37.463224 C 38.471205,37.463224 40.453563,37.496824 40.834357,37.552823"
           id="path541" /><path
           style="fill:none;stroke:#000000;stroke-width:0.2;stroke-linejoin:round;stroke-dasharray:none"
           d="M 40.823157,37.73202 41.685538,37.821618 41.663138,35.693662 40.867954,35.559264 Z"
           id="path542" /><path
           style="fill:none;stroke:#000000;stroke-width:0.2;stroke-linejoin:round;stroke-dasharray:none"
           d="M 35.088875,36.040856 C 35.088875,36.040856 36.488846,35.671262 37.071233,35.671262"
           id="path544" /><path
           style="fill:none;stroke:#000000;stroke-width:0.2;stroke-linejoin:round;stroke-dasharray:none"
           d="M 38.415206,35.548064 C 38.415206,35.548064 39.63598,35.36887 40.778358,35.626463"
           id="path545" /><path
           style="fill:none;stroke:#000000;stroke-width:0.2;stroke-linejoin:round;stroke-dasharray:none"
           d="M 41.696737,35.749661 42.189526,35.940058"
           id="path546" /><path
           style="fill:none;stroke:#000000;stroke-width:0.2;stroke-linejoin:round;stroke-dasharray:none"
           d="M 35.178473,31.639346 36.432847,31.348153"
           id="path547" /><path
           style="fill:none;stroke:#000000;stroke-width:0.2;stroke-linejoin:round;stroke-dasharray:none"
           d="M 33.666504,32.580127 35.917658,32.031339"
           id="path548" /><path
           style="fill:none;stroke:#000000;stroke-width:0.2;stroke-linejoin:round;stroke-dasharray:none"
           d="M 33.464907,33.184914 35.436066,32.680925"
           id="path549" /><path
           style="fill:none;stroke:#000000;stroke-width:0.2;stroke-linejoin:round;stroke-dasharray:none"
           d="M 33.352912,33.789702 35.010476,33.442507"
           id="path550" /><path
           style="fill:none;stroke:#000000;stroke-width:0.2;stroke-linejoin:round;stroke-dasharray:none"
           d="M 32.591327,34.652085 34.416888,34.260091"
           id="path551" /><path
           style="fill:none;stroke:#000000;stroke-width:0.2;stroke-linejoin:round;stroke-dasharray:none"
           d="M 34.405689,34.831279 34.383289,34.192892 34.78648,33.8905 C 34.78648,33.8905 34.898478,33.386511 35.312871,33.184914 35.34647,32.83772 35.480865,32.568927 35.82806,32.367331 35.77206,31.94174 36.432847,31.628146 36.432847,31.628146 36.432847,31.628146 36.388047,31.079358 37.026434,30.855361 36.948035,30.47457 37.519223,30.127376 37.519223,30.127376 37.519223,30.127376 37.328829,29.903383 37.844018,29.421791 37.967216,28.817003 37.888817,28.917802 37.888817,28.917802 L 37.922416,28.447412 C 37.922416,28.447412 37.888817,27.730627 38.269608,28.481012 38.516004,27.708227 38.717601,28.178617 38.650402,28.402613 38.583203,28.626609 38.605602,28.805804 38.605602,28.805804 L 38.672801,28.973801 38.706401,29.343395 C 38.706401,29.343395 39.255189,29.757785 39.120791,29.992981 39.423186,30.272974 39.826377,30.463371 39.691979,30.664967 40.061573,30.94496 40.487163,31.247355 40.296766,31.415349 40.68876,31.684145 41.069551,32.076136 40.923953,32.143334 41.383145,32.445729 41.786336,32.938519 41.55114,32.904919 42.010332,33.196114 42.391123,33.464907 42.223126,33.655304 42.58152,33.8793 42.536721,33.968899 42.536721,33.968899 42.536721,33.968899 42.715918,34.506487 42.637519,34.584886 42.55912,34.663284 42.402323,34.820079 42.402323,34.820079"
           id="path552" /><path
           style="fill:none;stroke:#000000;stroke-width:0.2;stroke-linejoin:round;stroke-dasharray:none"
           d="M 34.76408,33.9017 C 34.76408,33.9017 36.074455,33.072916 38.717601,33.117715 41.360746,33.162515 42.189526,33.621704 42.189526,33.621704"
           id="path553" /><path
           style="fill:none;stroke:#000000;stroke-width:0.2;stroke-linejoin:round;stroke-dasharray:none"
           d="M 35.38007,33.084116 C 35.38007,33.084116 36.052056,32.322531 38.482404,32.43453 40.912753,32.546528 41.573539,32.87132 41.573539,32.87132"
           id="path554" /><path
           style="fill:none;stroke:#000000;stroke-width:0.2;stroke-linejoin:round;stroke-dasharray:none"
           d="M 35.81686,32.221733 C 35.81686,32.221733 37.29523,31.728944 38.359207,31.751344 39.423186,31.773743 40.845554,32.053739 40.845554,32.053739"
           id="path555" /><path
           style="fill:none;stroke:#000000;stroke-width:0.2;stroke-linejoin:round;stroke-dasharray:none"
           d="M 36.432847,31.482548 C 36.432847,31.482548 37.429627,31.112957 38.336807,31.090557 39.243989,31.068158 40.307966,31.40415 40.307966,31.40415"
           id="path556" /><path
           style="fill:none;stroke:#000000;stroke-width:0.2;stroke-linejoin:round;stroke-dasharray:none"
           d="M 37.071233,30.765763 C 37.071233,30.765763 37.541623,30.530569 38.314407,30.51937 39.087192,30.50817 39.703179,30.664967 39.703179,30.664967"
           id="path557" /><path
           style="fill:none;stroke:#000000;stroke-width:0.2;stroke-linejoin:round;stroke-dasharray:none"
           d="M 37.541623,29.970581 C 37.541623,29.970581 38.269608,29.724186 39.042392,29.914582"
           id="path558" /><path
           style="fill:none;stroke:#000000;stroke-width:0.2;stroke-linejoin:round;stroke-dasharray:none"
           d="M 37.900017,28.985001 C 37.900017,28.985001 38.13521,28.749805 38.605602,28.929002"
           id="path559" /><path
           style="fill:none;stroke:#000000;stroke-width:0.2;stroke-linejoin:round;stroke-dasharray:none"
           d="M 37.944816,28.033019 C 37.944816,28.033019 38.471205,27.09224 38.504804,27.999422"
           id="path560" /><path
           style="fill:none;stroke:#000000;stroke-width:0.2;stroke-linejoin:round;stroke-dasharray:none"
           d="M 36.26485,42.223126 36.936836,42.760717 36.959235,42.939911 37.69842,43.320705 37.743219,43.611897 38.616802,43.970291 38.7288,44.194288"
           id="path561" /><path
           style="fill:none;stroke:#000000;stroke-width:0.2;stroke-linejoin:round;stroke-dasharray:none"
           d="M 38.706401,43.835894 V 43.343104 L 37.69842,43.387904 V 42.805516 L 37.026434,42.850315 V 42.223126 H 36.488846"
           id="path562" /><path
           style="fill:none;stroke:#000000;stroke-width:0.2;stroke-linejoin:round;stroke-dasharray:none"
           d="M 28.223416,48.987786 28.268215,48.2934 32.703325,48.248604"
           id="path563" /><path
           style="fill:none;stroke:#000000;stroke-width:0.2;stroke-linejoin:round;stroke-dasharray:none"
           d="M 29.253796,48.271003 29.231396,44.283883 C 29.127877,43.069305 32.280256,41.722554 32.636126,44.575079"
           id="path564"
           sodipodi:nodetypes="ccc" /><path
           style="fill:none;stroke:#000000;stroke-width:0.2;stroke-linejoin:round;stroke-dasharray:none"
           d="M 29.164198,45.672655 28.268215,45.739854 28.290615,44.821474 29.164198,44.799075"
           id="path565" /><path
           style="fill:none;stroke:#000000;stroke-width:0.2;stroke-linejoin:round;stroke-dasharray:none"
           d="M 29.343395,43.723895 C 29.208997,43.634297 28.649009,43.387904 28.649009,43.387904 L 29.141798,42.805516 29.656987,43.298305"
           id="path566" /><path
           style="fill:none;stroke:#000000;stroke-width:0.2;stroke-linejoin:round;stroke-dasharray:none"
           d="M 30.552969,42.827916 30.328973,41.976733 H 31.202556 L 31.135357,42.805516"
           id="path567" /><path
           style="fill:none;stroke:#000000;stroke-width:0.2;stroke-linejoin:round;stroke-dasharray:none"
           d="M 32.031339,43.208707 32.591327,42.693518 33.039317,43.253506 32.41213,43.679096"
           id="path568" /><path
           style="fill:none;stroke:#000000;stroke-width:0.2;stroke-linejoin:round;stroke-dasharray:none"
           d="M 32.524128,43.880693 33.240913,43.835894 V 44.127089"
           id="path569" /><path
           style="fill:none;stroke:#000000;stroke-width:0.2;stroke-linejoin:round;stroke-dasharray:none"
           d="M 28.391413,44.787874 C 28.391413,44.787874 28.380213,43.970291 28.716205,43.455103"
           id="path570"
           sodipodi:nodetypes="cc" /><path
           style="fill:none;stroke:#000000;stroke-width:0.2;stroke-linejoin:round;stroke-dasharray:none"
           d="M 29.208997,42.805516 C 29.208997,42.805516 29.724186,42.15593 30.373772,42.15593"
           id="path571" /><path
           style="fill:none;stroke:#000000;stroke-width:0.2;stroke-linejoin:round;stroke-dasharray:none"
           d="M 31.224955,42.11113 C 31.224955,42.11113 31.93054,42.144729 32.512928,42.727117"
           id="path572"
           sodipodi:nodetypes="cc" /><path
           style="fill:none;stroke:#000000;stroke-width:0.2;stroke-linejoin:round;stroke-dasharray:none"
           d="M 32.994518,43.298305 C 32.994518,43.298305 33.095316,43.623099 33.117716,43.824693"
           id="path573"
           sodipodi:nodetypes="cc" /><path
           style="fill:none;stroke:#000000;stroke-width:0.2;stroke-linejoin:round;stroke-dasharray:none"
           d="M 30.127376,48.203805 30.082577,44.597478 C 30.082577,44.597478 30.95616,42.850315 31.784943,44.642277 31.852142,46.187846 31.807343,48.181405 31.807343,48.181405"
           id="path575" /><path
           style="fill:none;stroke:#000000;stroke-width:0.2;stroke-linejoin:round;stroke-dasharray:none"
           d="M 30.171888,46.403209 31.829935,46.387809"
           id="path576"
           sodipodi:nodetypes="cc" /><path
           style="fill:none;stroke:#000000;stroke-width:0.2;stroke-linejoin:round;stroke-dasharray:none"
           d="M 30.126545,47.496258 31.784974,47.475463"
           id="path577"
           sodipodi:nodetypes="cc" /><path
           style="fill:none;stroke:#000000;stroke-width:0.2;stroke-linejoin:round;stroke-dasharray:none"
           d="M 30.172775,44.955024 31.741061,44.933686"
           id="path578"
           sodipodi:nodetypes="cc" /><path
           style="fill:none;stroke:#000000;stroke-width:0.2;stroke-linejoin:round;stroke-dasharray:none"
           d="M 22.130742,40.095172 26.700247,38.930394 34.741683,38.885595"
           id="path579" /><path
           style="fill:none;stroke:#000000;stroke-width:0.2;stroke-linejoin:round;stroke-dasharray:none"
           d="M 34.876078,38.056814 33.464907,38.012015"
           id="path580" /><path
           style="fill:none;stroke:#000000;stroke-width:0.2;stroke-linejoin:round;stroke-dasharray:none"
           d="M 32.300132,38.012015 H 32.83772"
           id="path581" /><path
           style="fill:none;stroke:#000000;stroke-width:0.2;stroke-linejoin:round;stroke-dasharray:none"
           d="M 31.045758,38.012015 H 31.605746"
           id="path582" /><path
           style="fill:none;stroke:#000000;stroke-width:0.2;stroke-linejoin:round;stroke-dasharray:none"
           d="M 29.903383,38.012015 H 30.463371"
           id="path583" /><path
           style="fill:none;stroke:#000000;stroke-width:0.2;stroke-linejoin:round;stroke-dasharray:none"
           d="M 28.738605,38.056814 29.231396,38.034415"
           id="path584" /><path
           style="fill:none;stroke:#000000;stroke-width:0.2;stroke-linejoin:round;stroke-dasharray:none"
           d="M 27.10344,38.16881 28.089018,38.124013"
           id="path585" /><rect
           style="fill:none;stroke:#000000;stroke-width:0.2;stroke-linejoin:round;stroke-dasharray:none"
           id="rect585"
           width="0.60478747"
           height="1.7919629"
           x="28.156221"
           y="36.488846" /><rect
           style="fill:none;stroke:#000000;stroke-width:0.2;stroke-linejoin:round;stroke-dasharray:none"
           id="rect586"
           width="0.60478747"
           height="1.7919629"
           x="29.276197"
           y="36.488846" /><rect
           style="fill:none;stroke:#000000;stroke-width:0.2;stroke-linejoin:round;stroke-dasharray:none"
           id="rect587"
           width="0.60478747"
           height="1.7919629"
           x="30.485773"
           y="36.488846" /><rect
           style="fill:none;stroke:#000000;stroke-width:0.2;stroke-linejoin:round;stroke-dasharray:none"
           id="rect588"
           width="0.60478747"
           height="1.7919629"
           x="31.628149"
           y="36.488846" /><rect
           style="fill:none;stroke:#000000;stroke-width:0.2;stroke-linejoin:round;stroke-dasharray:none"
           id="rect589"
           width="0.60478747"
           height="1.7919629"
           x="32.815323"
           y="36.488846" /><path
           style="fill:none;stroke:#000000;stroke-width:0.2;stroke-linejoin:round;stroke-dasharray:none"
           d="M 22.500335,39.19919 23.082723,39.064792"
           id="path589"
           sodipodi:nodetypes="cc" /><path
           style="fill:none;stroke:#000000;stroke-width:0.2;stroke-linejoin:round;stroke-dasharray:none"
           d="M 23.497115,38.952796 23.978704,38.863197"
           id="path591"
           sodipodi:nodetypes="cc" /><path
           style="fill:none;stroke:#000000;stroke-width:0.2;stroke-linejoin:round;stroke-dasharray:none"
           d="M 24.482694,38.7288 24.908285,38.650401"
           id="path592"
           sodipodi:nodetypes="cc" /><path
           style="fill:none;stroke:#000000;stroke-width:0.2;stroke-linejoin:round;stroke-dasharray:none"
           d="M 25.311477,38.538403 25.893865,38.392805"
           id="path593"
           sodipodi:nodetypes="cc" /><path
           style="fill:none;stroke:#000000;stroke-width:0.2;stroke-linejoin:round;stroke-dasharray:none"
           d="M 26.341855,38.280808 26.969042,38.16881"
           id="path594"
           sodipodi:nodetypes="cc" /><path
           style="fill:none;stroke:#000000;stroke-width:0.2;stroke-linejoin:round;stroke-dasharray:none"
           d="M 23.105122,37.564022 23.474715,37.463224 23.441115,39.154391 23.105122,39.221589 Z"
           id="path595" /><path
           style="fill:none;stroke:#000000;stroke-width:0.2;stroke-linejoin:round;stroke-dasharray:none"
           d="M 24.065524,37.384829 24.435117,37.284031 24.401517,38.975198 24.065524,39.042396 Z"
           id="path597" /><path
           style="fill:none;stroke:#000000;stroke-width:0.2;stroke-linejoin:round;stroke-dasharray:none"
           d="M 24.964276,37.172032 25.333869,37.071234 25.300269,38.762401 24.964276,38.829599 Z"
           id="path598" /><path
           style="fill:none;stroke:#000000;stroke-width:0.2;stroke-linejoin:round;stroke-dasharray:none"
           d="M 25.927463,36.948034 26.297056,36.847236 26.263456,38.538403 25.927463,38.605601 Z"
           id="path599" /><path
           style="fill:none;stroke:#000000;stroke-width:0.2;stroke-linejoin:round;stroke-dasharray:none"
           d="M 22.489135,37.351229 26.969042,36.276049 35.010476,36.141652"
           id="path600" /><path
           style="fill:none;stroke:#000000;stroke-width:0.2;stroke-linejoin:round;stroke-dasharray:none"
           d="M 27.450632,22.925926 C 27.450632,22.925926 28.794604,21.671552 31.40415,21.850748 34.013698,22.029945 34.551286,22.701931 34.551286,22.701931"
           id="path601" /><path
           style="fill:none;stroke:#000000;stroke-width:0.2;stroke-linejoin:round;stroke-dasharray:none"
           d="M 27.450632,22.273559 C 27.450632,22.273559 28.794604,21.019185 31.40415,21.198381 34.013698,21.377578 34.551286,22.049564 34.551286,22.049564"
           id="path602" /><path
           style="fill:none;stroke:#000000;stroke-width:0.2;stroke-linejoin:round;stroke-dasharray:none"
           d="M 27.450632,19.627724 C 27.450632,19.627724 28.794604,18.37335 31.40415,18.552546 34.013698,18.731743 34.551286,19.403729 34.551286,19.403729"
           id="path603" /><path
           style="fill:none;stroke:#000000;stroke-width:0.2;stroke-linejoin:round;stroke-dasharray:none"
           d="M 26.633051,18.065226 C 26.687267,18.097756 27.246672,16.288829 31.448949,16.46366 35.43637,16.629552 35.074003,18.462771 35.279271,18.188424"
           id="path620"
           sodipodi:nodetypes="csc" /><path
           style="fill:none;stroke:#000000;stroke-width:0.2;stroke-linejoin:round;stroke-dasharray:none"
           d="M 27.820225,25.042682 28.492212,24.818687 28.514611,26.879444 27.865025,27.069841 Z"
           id="path621" /><path
           style="fill:none;stroke:#000000;stroke-width:0.2;stroke-linejoin:round;stroke-dasharray:none"
           d="M 33.431308,26.487453 34.136893,26.689047 34.181692,28.59301 33.498506,28.492212 Z"
           id="path622" /><path
           style="fill:none;stroke:#000000;stroke-width:0.2;stroke-linejoin:round;stroke-dasharray:none"
           d="M 30.440971,19.230002 31.168956,19.207603 31.146556,20.540375 30.452171,20.551575 Z"
           id="path623" /><path
           style="fill:none;stroke:#000000;stroke-width:0.2;stroke-linejoin:round;stroke-dasharray:none"
           d="M 26.767446,16.878051 C 26.767446,16.878051 27.865025,15.220485 31.471348,15.46688 33.352912,15.48928 34.696884,16.228465 35.021676,16.766053"
           id="path625" /><path
           style="fill:none;stroke:#000000;stroke-width:0.2;stroke-linejoin:round;stroke-dasharray:none"
           d="M 26.745046,15.881272 26.711447,17.258843"
           id="path626"
           sodipodi:nodetypes="cc" /><path
           style="fill:none;stroke:#000000;stroke-width:0.2;stroke-linejoin:round;stroke-dasharray:none"
           d="M 27.11464,16.788453 C 27.11464,16.788453 25.557872,15.242885 29.242596,14.470101 32.927319,13.697317 34.771553,15.399832 34.932077,15.578878 35.223271,15.903672 35.189673,16.474859 34.719283,16.676455"
           id="path627"
           sodipodi:nodetypes="cssc" /><path
           style="fill:none;stroke:#000000;stroke-width:0.2;stroke-linejoin:round;stroke-dasharray:none"
           d="M 34.405689,14.783694 34.450488,16.665256"
           id="path630"
           sodipodi:nodetypes="cc" /><path
           style="fill:none;stroke:#000000;stroke-width:0.2;stroke-linejoin:round;stroke-dasharray:none"
           d="M 32.815321,14.380503 32.804121,16.127666"
           id="path632"
           sodipodi:nodetypes="cc" /><path
           style="fill:none;stroke:#000000;stroke-width:0.2;stroke-linejoin:round;stroke-dasharray:none"
           d="M 30.642568,14.290904 30.597768,15.926071"
           id="path634" /><path
           style="fill:none;stroke:#000000;stroke-width:0.2;stroke-linejoin:round;stroke-dasharray:none"
           d="M 28.55941,14.246105 28.626609,16.329262"
           id="path636" /><path
           style="fill:none;stroke:#000000;stroke-width:0.2;stroke-linejoin:round;stroke-dasharray:none"
           d="M 28.133818,16.329262 28.178617,12.834935 28.55941,12.409343 30.104977,11.692558 C 30.104977,11.692558 34.024898,11.513362 33.352912,13.170928"
           id="path637" /><path
           style="fill:none;stroke:#000000;stroke-width:0.2;stroke-linejoin:round;stroke-dasharray:none"
           d="M 28.044219,12.879734 C 28.044219,12.879734 26.745046,11.670159 28.873002,10.975773 31.000959,10.281388 32.725725,10.751778 33.420108,11.154969 34.114494,11.558161 34.495287,11.983752 34.226492,12.454142 33.957699,12.924533 33.375311,13.350124 33.375311,13.350124"
           id="path638" /><path
           style="fill:none;stroke:#000000;stroke-width:0.2;stroke-linejoin:round;stroke-dasharray:none"
           d="M 33.308112,12.991732 33.352912,15.074888"
           id="path639" /><path
           style="fill:none;stroke:#000000;stroke-width:0.2;stroke-linejoin:round;stroke-dasharray:none"
           d="M 30.104977,11.714958 V 14.559699"
           id="path640" /><path
           style="fill:none;stroke:#000000;stroke-width:0.2;stroke-linejoin:round;stroke-dasharray:none"
           d="M 33.487307,16.273264 33.599305,15.209286 C 33.599305,15.209286 33.330512,14.626898 30.104977,14.559699 L 30.104978,15.99327"
           id="path641"
           sodipodi:nodetypes="cccc" /><path
           style="fill:none;stroke:#000000;stroke-width:0.2;stroke-linejoin:round;stroke-dasharray:none"
           d="M 30.127376,14.246105 30.776963,11.849355 31.538547,14.201306 32.255333,11.894154 32.83772,14.313304 33.285713,12.543741"
           id="path642"
           sodipodi:nodetypes="cccccc" /><path
           style="fill:none;stroke:#000000;stroke-width:0.2;stroke-linejoin:round;stroke-dasharray:none"
           d="M 28.402613,11.177369 C 28.402613,11.177369 28.626609,8.2430297 30.463371,8.1534314 32.301358,8.0637734 33.711303,9.430205 33.509706,11.13257"
           id="path643"
           sodipodi:nodetypes="csc" /><path
           style="fill:none;stroke:#000000;stroke-width:0.2;stroke-linejoin:round;stroke-dasharray:none"
           d="M 30.306573,8.0190342 C 30.306573,8.0190342 31.314554,7.2350505 31.40415,8.1086324"
           id="path644" /><path
           style="fill:none;stroke:#000000;stroke-width:0.2;stroke-linejoin:round;stroke-dasharray:none"
           d="M 30.866561,7.5934429 30.844162,7.1902512 C 30.844162,7.1902512 30.037779,6.8542584 30.373772,6.5854639 30.709765,6.3166695 31.47135,6.1150737 31.336953,6.7422607 31.202555,7.3694477 30.844162,7.1902512 30.844162,7.1902512"
           id="path645" /><path
           style="fill:none;stroke:#000000;stroke-width:0.2;stroke-linejoin:round;stroke-dasharray:none"
           d="M 31.068158,7.1902512 31.090557,7.6158425"
           id="path646" /><path
           style="fill:none;stroke:#000000;stroke-width:0.2;stroke-linejoin:round;stroke-dasharray:none"
           d="M 29.724186,8.3998265 C 29.724186,8.3998265 29.43299,8.6462213 29.343395,9.1614105 29.253796,9.6766 29.276196,10.796577 29.276196,10.796577"
           id="path647" /><path
           style="fill:none;stroke:#000000;stroke-width:0.2;stroke-linejoin:round;stroke-dasharray:none"
           d="M 30.620168,8.22063 C 30.620168,8.22063 30.530569,8.2878286 30.463371,8.7582189 30.396172,9.2286091 30.440971,10.527782 30.440971,10.527782"
           id="path648" /><path
           style="fill:none;stroke:#000000;stroke-width:0.2;stroke-linejoin:round;stroke-dasharray:none"
           d="M 31.292154,8.1982306 C 31.292154,8.1982306 31.426549,8.556623 31.516148,9.2734084 31.605746,9.9901935 31.583346,10.527782 31.583346,10.527782"
           id="path649" /><path
           style="fill:none;stroke:#000000;stroke-width:0.2;stroke-linejoin:round;stroke-dasharray:none"
           d="M 32.120935,8.5342237 C 32.120935,8.5342237 32.43453,9.0270133 32.456929,9.4750042 32.479329,9.9229949 32.546528,10.818976 32.546528,10.818976"
           id="path650" /><path
           style="fill:none;stroke:#000000;stroke-width:0.2;stroke-linejoin:round;stroke-dasharray:none"
           d="M 32.927319,9.2958077 C 32.927319,9.2958077 33.128915,9.766198 33.106516,10.863775"
           id="path651" /><path
           style="fill:none;stroke:#000000;stroke-width:0.2;stroke-linejoin:round;stroke-dasharray:none"
           d="M 12.633339,54.520475 C 12.633339,54.520475 16.351662,52.325317 21.817149,51.205341"
           id="path652"
           sodipodi:nodetypes="cc" /><path
           style="fill:none;stroke:#000000;stroke-width:0.2;stroke-linejoin:round;stroke-dasharray:none"
           d="M 43.320705,50.309359 C 43.320705,50.309359 47.800611,50.264561 52.146122,52.818107"
           id="path653"
           sodipodi:nodetypes="cc" /><path
           style="fill:none;stroke:#000000;stroke-width:0.2;stroke-linejoin:round;stroke-dasharray:none"
           d="M 27.282637,25.199479 27.775426,25.042682"
           id="path654" /><path
           style="fill:none;stroke:#000000;stroke-width:0.2;stroke-linejoin:round;stroke-dasharray:none"
           d="M 30.373772,19.129205 30.396172,18.502018"
           id="path655" /><path
           style="fill:none;stroke:#000000;stroke-width:0.2;stroke-linejoin:round;stroke-dasharray:none"
           d="M 34.159293,26.65545 34.898478,26.924243"
           id="path656" /><path
           style="fill:none;stroke:#000000;stroke-width:0.2;stroke-linejoin:round;stroke-dasharray:none"
           d="M 27.349833,17.359641 C 27.349833,17.359641 27.215438,17.942029 27.708227,18.031627 27.909824,18.524417 27.909824,18.524417 27.909824,18.524417"
           id="path659"
           sodipodi:nodetypes="ccc" /><path
           style="fill:none;stroke:#000000;stroke-width:0.2;stroke-linejoin:round;stroke-dasharray:none"
           d="M 26.745046,17.87483 C 26.745046,17.87483 26.633051,18.479618 27.148239,18.614015 L 27.260237,18.86041"
           id="path660"
           sodipodi:nodetypes="ccc" /><path
           style="fill:none;stroke:#000000;stroke-width:0.2;stroke-linejoin:round;stroke-dasharray:none"
           d="M 31.516148,16.396461 C 31.516148,16.396461 31.650545,17.023648 31.538547,17.225244 31.560947,17.740433 31.560947,17.740433 31.560947,17.740433"
           id="path661" /><path
           style="fill:none;stroke:#000000;stroke-width:0.2;stroke-linejoin:round;stroke-dasharray:none"
           d="M 33.319311,16.754854 C 33.319311,16.754854 33.375311,17.180445 33.039317,17.516438 32.994518,17.785232 32.927319,17.986828 32.927319,17.986828"
           id="path662"
           sodipodi:nodetypes="ccc" /><path
           style="fill:none;stroke:#000000;stroke-width:0.2;stroke-linejoin:round;stroke-dasharray:none"
           d="M 34.433424,17.214045 C 34.433424,17.214045 34.544389,17.650835 34.030406,17.807632 33.868099,18.36762 33.868099,18.434819 33.868099,18.434819"
           id="path663"
           sodipodi:nodetypes="ccc" /><path
           style="fill:none;stroke:#000000;stroke-width:0.2;stroke-linejoin:round;stroke-dasharray:none"
           d="M 35.055275,17.91963 C 35.055275,17.91963 34.943277,18.345221 34.719283,18.36762 34.632485,18.527217 34.584886,18.636415 34.584886,18.636415"
           id="path664"
           sodipodi:nodetypes="ccc" /><path
           style="fill:none;stroke:#000000;stroke-width:0.2;stroke-linejoin:round;stroke-dasharray:none"
           d="M 29.903383,16.486059 C 29.903383,16.486059 29.724186,16.866851 30.015381,17.382041 L 29.992981,17.87483"
           id="path657"
           sodipodi:nodetypes="ccc" /><path
           style="fill:none;stroke:#000000;stroke-width:0.2;stroke-linejoin:round;stroke-dasharray:none"
           d="M 28.492212,16.754854 C 28.492212,16.754854 28.178617,17.382041 28.626609,17.650835 L 28.671408,18.098826"
           id="path658"
           sodipodi:nodetypes="cc" /><path
           style="fill:none;stroke:#000000;stroke-width:0.2;stroke-linejoin:round;stroke-dasharray:none"
           d="M 41.707937,37.586422 42.245526,37.72082"
           id="path795" /></g></g><g
       id="g1145"
       inkscape:label="Lighthouse"
       style="display:inline"><g
         id="g144"
         style="display:inline;stroke:#db902e"
         inkscape:label="light"><path
           style="fill:none;stroke:#db902e;stroke-width:0.2;stroke-linejoin:round;stroke-dasharray:none"
           d="M 37.267146,11.938602 45.426262,8.8702167"
           id="path141"
           inkstitch:satin_column="False"
           inkstitch:stroke_method="running_stitch"
           inkstitch:repeats="2"
           inkstitch:min_jump_stitch_length_mm="1"
           sodipodi:nodetypes="cc" /><path
           style="fill:none;stroke:#db902e;stroke-width:0.2;stroke-linejoin:round;stroke-dasharray:none"
           d="M 37.32829,14.969533 48.2934,17.471639"
           id="path142"
           inkstitch:satin_column="False"
           inkstitch:stroke_method="running_stitch"
           inkstitch:repeats="2"
           inkstitch:min_jump_stitch_length_mm="1"
           sodipodi:nodetypes="cc" /><path
           style="fill:none;stroke:#db902e;stroke-width:0.2;stroke-linejoin:round;stroke-dasharray:none"
           d="M 24.247028,11.511597 16.754854,9.5870018"
           id="path143"
           inkstitch:satin_column="False"
           inkstitch:stroke_method="running_stitch"
           inkstitch:repeats="2"
           inkstitch:min_jump_stitch_length_mm="1"
           sodipodi:nodetypes="cc" /><path
           style="fill:none;stroke:#db902e;stroke-width:0.2;stroke-linejoin:round;stroke-dasharray:none"
           d="M 24.22011,15.491735 14.066909,19.084405"
           id="path144"
           inkstitch:satin_column="False"
           inkstitch:stroke_method="running_stitch"
           inkstitch:repeats="2"
           inkstitch:min_jump_stitch_length_mm="1"
           sodipodi:nodetypes="cc" /></g><g
         inkscape:label="Lighthouse"
         id="g1132"
         style="display:inline;stroke:#000000"><path
           id="redwork_3995"
           style="fill:none;stroke:#000000;stroke-width:0.2;stroke-linejoin:round;stroke-dasharray:none"
           d="M 12.6333,54.5205 13.2998,54.1599 14.098,53.7667 15.1757,53.2828 16.5095,52.7465 18.0763,52.1959 19.8532,51.6694 21.8172,51.2053 22.0297,51.2077 V 51.2077 L 22.0411,50.1972 22.0284,50.1835 V 50.1835 L 22.0747,50.1414 23.945,49.962 26.7975,49.69 V 49.69 L 26.8345,49.7268 26.857,51.8995 26.8462,51.93 V 51.93 L 22.0411,52.2356 21.6379,52.6838 V 53.4452 53.4452 L 26.7451,53.2661 32.8824,52.9973 V 52.9973 L 32.8377,52.3925 32.9033,51.9117 V 51.9117 L 34.0894,51.8326 V 51.8326 L 34.092,51.8323 H 34.6297 V 51.8323 L 34.6718,52.4658 V 52.4658 L 34.7641,52.4597 35.906,52.4668 V 52.4668 L 35.9063,52.4261 35.9399,51.9109 H 35.9849 V 51.9109 H 37.1271 L 37.1512,51.9101 V 51.9101 L 38.6953,51.8659 38.7667,51.8644 V 51.8644 L 38.7178,49.2484 38.6966,49.2479 38.5831,49.2452 37.116,49.2788 37.0959,49.2818 V 49.2818 L 37.116,49.2788 38.5831,49.2452 38.6966,49.2479 38.7064,48.8309 37.1271,48.7076 37.084,48.7108 V 48.7108 L 37.1271,48.7076 38.7064,48.8309 H 38.7101 L 38.6392,45.0455 38.6495,44.9781 V 44.9781 L 38.6503,44.9783 39.0199,44.9111 38.9752,44.3063 38.7201,44.2806 38.6802,44.0973 38.7064,43.8358 V 43.3429 L 37.7086,43.3874 37.6983,43.3207 V 42.8056 L 37.0263,42.8503 V 42.8392 42.8392 42.2229 H 36.4889 L 36.3545,42.2949 V 42.2949 L 36.4889,42.2229 H 37.0263 V 42.8392 42.8392 42.8503 L 37.6983,42.8056 V 43.3207 43.3207 L 36.9591,42.94 36.9466,42.8392 36.9453,42.8283 36.9368,42.7606 36.3545,42.2949 36.2389,42.3566 36.4918,42.8304 V 42.8304 L 36.2389,42.3566 36.1976,42.279 35.1337,42.4695 35.0768,42.4703 V 42.4703 L 35.1337,42.4695 36.1976,42.279 36.3545,42.2949 36.9368,42.7606 36.9453,42.8283 36.4918,42.8304 36.3881,42.8278 34.6969,43.0519 V 43.0519 L 36.3881,42.8278 36.4918,42.8304 36.9466,42.8392 36.9591,42.94 37.6983,43.3207 37.7086,43.3874 38.7064,43.3429 V 43.8358 L 38.6802,44.0973 V 44.0973 L 38.6167,43.9703 37.7433,43.6117 37.7224,43.476 37.6856,43.4702 36.7564,43.3257 36.7241,43.3207 33.8568,43.7798 33.7759,43.788 V 43.788 L 33.7785,43.8134 33.2983,44.1137 V 44.1137 L 33.7785,43.8134 33.7759,43.788 V 43.788 L 33.756,43.5895 34.6969,43.0519 V 43.0519 L 34.6744,42.8728 35.0776,42.5367 35.0768,42.4703 V 42.4703 L 35.0363,39.4303 V 39.4303 L 27.0139,39.6919 27.0092,39.6927 V 39.6927 L 26.9017,49.0325 26.8208,49.1 V 49.1 L 26.9017,49.0325 27.0092,39.6927 V 39.6927 L 27.0139,39.2887 26.857,38.9305 V 38.9294 38.9294 38.4376 L 27.0361,38.3032 27.0377,38.1695 27.1034,38.1687 28.0889,38.124 H 28.1561 V 38.124 38.2807 H 28.761 V 38.0558 38.0558 L 29.2314,38.0343 H 29.2761 V 38.0343 38.2807 H 29.8809 V 38.0118 38.0118 H 29.9034 30.4633 30.4858 V 38.0118 38.2807 H 31.0906 V 38.0118 38.0118 H 31.6058 31.628 V 38.0118 38.2807 H 32.2328 V 38.0118 38.0118 H 32.3 32.8152 V 38.0118 38.2807 H 33.42 V 38.0118 38.0118 H 33.465 L 34.876,38.0568 H 35.0887 L 35.8407,37.8761 36.5204,37.7401 37.1721,37.6536 37.2787,37.6475 V 37.6475 L 37.284,37.7433 38.46,37.6872 38.4489,37.4644 V 37.4644 L 38.4712,37.4631 39.5099,37.4869 40.8267,37.5525 40.823,37.7319 41.6856,37.8216 41.6829,37.5867 V 37.5867 L 41.6636,35.7499 41.6967,35.7497 42.1893,35.9399 42.2341,35.9375 V 35.9375 L 42.1893,35.9399 41.6967,35.7497 41.6631,35.6936 40.868,35.5592 40.8664,35.6282 V 35.6282 L 40.868,35.5592 41.6631,35.6936 41.6636,35.7499 41.6829,37.5867 V 37.5867 L 41.7078,37.5864 42.2454,37.7208 42.3304,37.7163 V 37.7163 L 42.2454,37.7208 41.7078,37.5864 41.6829,37.5867 V 37.5867 L 41.6856,37.8216 40.823,37.7319 40.8267,37.5525 40.8664,35.6282 V 35.6282 L 40.7783,35.6264 39.9272,35.5055 39.1683,35.4906 38.4151,35.548 38.3532,35.5512 V 35.5512 L 38.4151,35.548 39.1683,35.4906 39.9272,35.5055 40.7783,35.6264 40.8664,35.6282 V 35.6282 L 40.8267,37.5525 V 37.5525 L 39.5099,37.4869 38.4712,37.4631 38.4489,37.4644 V 37.4644 L 38.3532,35.5512 V 35.5512 L 38.3479,35.4472 37.1607,35.5369 37.0948,35.1467 35.9007,35.3486 34.971,35.5938 34.876,35.7049 28.8062,35.774 V 35.774 L 28.8057,35.7385 28.7721,33.3528 28.8057,33.2856 29.1531,32.6136 29.1478,32.5961 V 32.5961 L 29.1642,32.5913 30.9911,32.4876 32.4196,32.44 33.4314,32.468 33.5801,32.5389 33.6663,32.5802 35.9177,32.0312 35.9277,32.0402 36.1095,31.8381 36.4328,31.628 36.4357,31.5388 36.4516,31.4766 36.4704,31.4711 37.0445,31.2949 37.6565,31.1613 38.3368,31.0906 39.0276,31.13 39.6626,31.2391 40.3045,31.4031 V 31.4031 L 40.2968,31.4153 40.8119,31.855 40.9424,32.0389 40.9548,32.1037 40.9238,32.1434 41.2488,32.3945 41.498,32.6501 41.6168,32.8427 41.6104,32.8943 41.5787,32.8998 V 32.8998 L 41.5734,32.8713 41.4324,32.8189 40.9392,32.6948 39.9907,32.5501 38.4823,32.4344 37.6512,32.4302 36.9723,32.4887 36.4328,32.5908 36.0198,32.7173 35.7208,32.849 35.5846,32.9303 V 32.9303 L 35.7208,32.849 36.0198,32.7173 36.4328,32.5908 36.9723,32.4887 37.6512,32.4302 38.4823,32.4344 39.9907,32.5501 40.9392,32.6948 41.4324,32.8189 41.5734,32.8713 41.5787,32.8998 V 32.8998 L 41.5512,32.9049 42.1224,33.3179 42.2536,33.4986 42.2613,33.5803 42.2229,33.6552 42.4232,33.7989 42.5143,33.896 42.5367,33.9688 42.6164,34.2474 42.6547,34.4556 42.6376,34.585 42.4023,34.8199 42.3201,34.7916 V 34.7916 L 42.4023,34.8199 42.6376,34.585 42.6547,34.4556 42.6164,34.2474 42.5367,33.9688 42.5143,33.896 42.4232,33.7989 42.2229,33.6552 42.2613,33.5803 42.2536,33.4986 42.1224,33.3179 41.5512,32.9049 41.5787,32.8998 V 32.8998 L 41.6104,32.8943 41.6168,32.8427 41.498,32.6501 41.2488,32.3945 40.9238,32.1434 40.9548,32.1037 40.9424,32.0389 40.8119,31.855 40.2968,31.4153 40.3045,31.4031 V 31.4031 L 40.3404,31.3462 40.3346,31.2666 40.2044,31.0822 39.6919,30.6649 39.6927,30.6631 V 30.6631 L 39.2985,30.5879 38.8575,30.5374 38.3143,30.5194 37.7941,30.5625 37.403,30.6466 37.0713,30.7657 V 30.7657 L 37.403,30.6466 37.7941,30.5625 38.3143,30.5194 38.8575,30.5374 39.2985,30.5879 39.6927,30.6631 V 30.6631 L 39.7184,30.5898 39.702,30.5144 39.5702,30.3583 39.1207,29.9929 39.1416,29.8976 39.1128,29.7923 38.9641,29.5799 38.7064,29.3433 38.6728,28.9737 38.6056,28.8057 38.6027,28.6882 38.6503,28.4025 38.654,28.2117 38.5775,28.068 38.5161,28.0574 V 28.0574 L 38.5048,27.9995 38.4712,27.7405 38.4032,27.6219 38.3129,27.6114 38.2121,27.6759 38.0275,27.9003 37.9446,28.0331 V 28.0331 L 38.0275,27.9003 38.2121,27.6759 38.3129,27.6114 38.4032,27.6219 38.4712,27.7405 38.5048,27.9995 38.5161,28.0574 V 28.0574 L 38.4426,28.1112 38.2695,28.481 38.0547,28.159 37.9923,28.1405 37.9531,28.1829 37.9229,28.3472 37.9224,28.4474 37.8888,28.9179 37.8991,28.9115 37.9126,28.943 37.9071,28.9811 V 28.9811 L 38.0764,28.8898 38.2968,28.862 38.6056,28.929 V 28.929 L 38.2968,28.862 38.0764,28.8898 37.9071,28.9811 V 28.9811 L 37.8441,29.4216 37.5758,29.7352 37.4885,29.955 37.4898,29.9741 V 29.9741 L 37.5417,29.9706 38.0021,29.8712 38.4817,29.8428 39.0424,29.9145 V 29.9145 L 38.4817,29.8428 38.0021,29.8712 37.5417,29.9706 37.4898,29.9741 V 29.9741 L 37.4975,30.0849 37.5192,30.1273 37.2435,30.3485 37.0702,30.581 37.025,30.7146 37.0263,30.8554 36.8175,30.9528 36.6643,31.0705 36.4902,31.3258 36.4812,31.3605 V 31.3605 L 36.4902,31.3258 36.6643,31.0705 36.8175,30.9528 37.0263,30.8554 37.025,30.7146 37.0702,30.581 37.2435,30.3485 37.5192,30.1273 37.4975,30.0849 37.4898,29.9741 V 29.9741 L 37.4885,29.955 37.5758,29.7352 37.8441,29.4216 37.9071,28.9811 V 28.9811 L 37.9126,28.943 37.8991,28.9115 37.8888,28.9179 37.9224,28.4474 37.9229,28.3472 37.9531,28.1829 37.9923,28.1405 38.0547,28.159 38.2695,28.481 38.4426,28.1112 38.5161,28.0574 V 28.0574 L 38.5775,28.068 38.654,28.2117 38.6503,28.4025 38.6027,28.6882 38.6056,28.8057 38.6728,28.9737 38.7064,29.3433 38.9641,29.5799 39.1128,29.7923 39.1416,29.8976 39.1207,29.9929 39.5702,30.3583 39.702,30.5144 39.7184,30.5898 39.6927,30.6631 V 30.6631 L 39.6919,30.6649 40.2044,31.0822 40.3346,31.2666 40.3404,31.3462 40.3045,31.4031 V 31.4031 L 39.6626,31.2391 39.0276,31.13 38.3368,31.0906 37.6565,31.1613 37.0445,31.2949 36.4704,31.4711 36.4328,31.3481 35.1784,31.6394 35.1673,31.628 V 31.628 L 35.1784,31.6394 36.4328,31.3481 36.4516,31.4766 36.4357,31.5388 36.4328,31.628 36.1095,31.8381 35.9277,32.0402 35.9597,32.1818 36.6889,31.978 37.5131,31.8153 38.3592,31.7513 39.1966,31.8079 40.0012,31.9108 40.8455,32.0537 V 32.0537 L 40.0012,31.9108 39.1966,31.8079 38.3592,31.7513 37.5131,31.8153 36.6889,31.978 35.9597,32.1818 35.8378,32.2159 35.828,32.3672 35.6057,32.5313 35.466,32.7051 35.457,32.7162 35.4528,32.7215 35.3586,32.939 35.3128,33.1848 35.0557,33.3801 35.012,33.4436 35.1197,33.7314 35.7497,33.4928 36.305,33.3459 36.9847,33.2213 37.7888,33.1385 38.7175,33.1176 39.6255,33.1522 40.3751,33.2152 41.4448,33.3864 42.0187,33.5491 42.1893,33.6216 V 33.6216 L 42.0187,33.5491 41.4448,33.3864 40.3751,33.2152 39.6255,33.1522 38.7175,33.1176 37.7888,33.1385 36.9847,33.2213 36.305,33.3459 35.7497,33.4928 35.1197,33.7314 35.0112,33.4443 34.8943,33.6132 34.7866,33.8899 34.7442,33.9222 34.3834,34.1929 34.3857,34.2667 V 34.2667 L 34.3834,34.1929 34.7442,33.9222 V 33.9222 L 34.417,34.2601 34.3857,34.2667 V 34.2667 L 34.417,34.2601 34.7442,33.9222 34.7866,33.8899 34.8943,33.6132 35.0112,33.4443 35.0104,33.4425 33.3528,33.7896 33.2988,33.8346 V 33.8346 L 33.3528,33.7896 35.0104,33.4425 35.012,33.4436 35.0557,33.3801 35.3128,33.1848 35.3586,32.939 35.4528,32.7215 35.457,32.7162 35.4361,32.6808 33.465,33.1848 V 33.1848 L 35.4361,32.6808 35.466,32.7051 35.6057,32.5313 35.828,32.3672 35.8378,32.2159 35.9177,32.0312 33.6663,32.5802 33.5801,32.5389 33.4314,32.468 32.4196,32.44 30.9911,32.4876 29.1642,32.5913 29.1478,32.5961 V 32.5961 L 27.1147,33.1962 27.0594,33.1943 V 33.1943 L 27.1147,33.1962 29.1478,32.5961 V 32.5961 L 29.1531,32.6136 28.8057,33.2856 28.8065,33.3298 33.297,33.252 33.4131,33.2057 V 33.2057 L 33.297,33.252 28.8065,33.3298 28.7718,33.3303 28.761,33.3306 26.1392,34.0415 V 34.0415 L 28.761,33.3306 28.7718,33.3303 28.7721,33.3528 28.8057,35.7385 28.8062,35.774 V 35.774 L 27.0139,35.7944 26.9449,35.8047 V 35.8047 L 27.0139,35.7944 28.8062,35.774 V 35.774 L 34.876,35.7049 34.9244,35.606 34.9207,35.5928 34.7194,35.5033 34.6969,35.0329 34.5622,34.9398 34.4056,34.8313 34.3857,34.2667 V 34.2667 L 32.6485,34.6397 V 34.6397 L 34.3857,34.2667 V 34.2667 L 34.4056,34.8313 34.5622,34.9398 34.6969,35.0329 34.7194,35.5033 34.9207,35.5928 34.9244,35.606 34.971,35.5938 35.9007,35.3486 37.0948,35.1467 V 35.1467 L 37.1385,35.1393 38.46,35.0057 39.6808,34.9768 40.6823,35.0588 41.4448,35.1954 41.7771,35.289 V 35.289 L 41.4448,35.1954 40.6823,35.0588 39.6808,34.9768 38.46,35.0057 37.1385,35.1393 37.0948,35.1467 37.1607,35.5369 38.3479,35.4472 38.3532,35.5512 V 35.5512 L 38.4489,37.4644 V 37.4644 L 38.46,37.6872 37.284,37.7433 37.2787,37.6475 V 37.6475 L 37.1681,35.6658 V 35.6658 L 37.0713,35.6713 36.5156,35.729 35.8616,35.856 35.0887,36.0407 V 36.0407 L 35.8616,35.856 36.5156,35.729 37.0713,35.6713 37.1681,35.6658 V 35.6658 L 37.2787,37.6475 V 37.6475 L 37.1721,37.6536 36.5204,37.7401 35.8407,37.8761 35.0887,38.0568 34.9686,38.1746 34.7194,38.3704 34.7416,38.8855 V 38.8855 L 34.7194,38.3704 34.9686,38.1746 35.0303,38.0568 34.9657,36.2873 34.9993,36.1418 V 36.1418 L 34.9657,36.2873 35.0303,38.0568 H 34.876 L 33.465,38.0118 H 33.42 V 38.0118 36.4889 H 32.8152 V 36.4889 H 33.42 V 38.0118 38.0118 38.2807 H 32.8152 V 38.0118 38.0118 36.4889 L 32.8101,36.1783 34.8834,36.1436 V 36.1436 L 32.8101,36.1783 32.8152,36.4889 V 38.0118 38.0118 H 32.3 32.2328 V 38.0118 36.4889 H 31.628 V 36.4889 H 32.2328 V 38.0118 38.0118 38.2807 H 31.628 V 38.0118 38.0118 36.4889 L 31.6232,36.1981 32.8101,36.1783 V 36.1783 L 31.6232,36.1981 31.628,36.4889 V 38.0118 38.0118 H 31.6058 31.0906 V 38.0118 36.4889 H 30.4858 V 36.4889 H 31.0906 V 38.0118 38.0118 38.2807 H 30.4858 V 38.0118 38.0118 36.4889 L 30.4813,36.2172 31.6232,36.1981 V 36.1981 L 30.4813,36.2172 30.4858,36.4889 V 38.0118 38.0118 H 30.4633 29.9034 29.8809 V 38.0118 36.4889 H 29.2761 V 36.4889 H 29.8809 V 38.0118 38.0118 38.2807 H 29.2761 V 38.0343 38.0343 36.4889 L 29.2719,36.2376 30.4813,36.2172 V 36.2172 L 29.2719,36.2376 29.2761,36.4889 V 38.0343 38.0343 H 29.2314 L 28.761,38.0558 V 38.0558 36.4889 H 28.1561 V 36.4889 H 28.761 V 38.0558 38.0558 38.2807 H 28.1561 V 38.124 38.124 36.4889 L 28.1524,36.2563 29.2719,36.2376 V 36.2376 L 28.1524,36.2563 28.1561,36.4889 V 38.124 38.124 H 28.0889 L 27.1034,38.1687 27.0377,38.1679 27.0586,36.3545 27.0256,36.2751 26.9449,35.8047 26.1178,35.9288 26.0964,35.9283 V 35.9283 L 26.1178,35.9288 26.9449,35.8047 27.0256,36.2751 28.1524,36.2563 V 36.2563 L 27.0256,36.2751 V 36.2751 L 26.9689,36.2759 26.204,36.4595 25.9275,36.948 V 38.3844 38.3844 36.948 L 26.2969,36.8472 26.2686,38.2793 V 38.2793 L 26.2969,36.8472 26.204,36.4595 25.2425,36.6903 24.9642,37.1721 V 38.6347 38.6347 37.1721 L 25.3338,37.0713 25.3047,38.5381 V 38.5381 L 25.3338,37.0713 25.2425,36.6903 26.204,36.4595 V 36.4595 L 26.9689,36.2759 27.0256,36.2751 V 36.2751 L 27.0586,36.3545 27.0377,38.1679 26.9689,38.1687 26.3419,38.2807 26.2633,38.5384 25.9275,38.6056 V 38.3928 38.3928 38.6056 L 26.2633,38.5384 25.8939,38.3928 25.3113,38.5384 25.3047,38.5402 25.3002,38.7625 24.9642,38.8297 V 38.6503 H 24.9084 L 24.4827,38.7289 24.4065,38.7273 V 38.7273 L 24.435,37.284 24.0654,37.3848 V 38.8633 38.8633 37.3848 L 24.3443,36.9059 25.2425,36.6903 V 36.6903 L 24.3443,36.9059 V 36.9059 L 23.3955,37.1337 23.105,37.5639 V 39.0588 39.0588 37.5639 L 23.4746,37.4631 23.4452,38.9516 V 38.9516 L 23.4746,37.4631 23.3955,37.1337 22.489,37.3512 22.4612,37.3829 V 37.3829 L 22.489,37.3512 23.3955,37.1337 V 37.1337 L 24.3443,36.9059 24.435,37.284 24.4065,38.7273 V 38.7273 L 24.4014,38.9752 24.0654,39.0424 V 38.8633 38.8633 H 23.9786 L 23.4971,38.9527 23.4447,38.967 23.441,39.1543 23.105,39.2215 V 39.0646 H 23.0828 L 22.5004,39.199 22.4684,39.1988 V 39.1988 L 22.5004,39.199 23.0828,39.0646 H 23.105 V 39.2215 L 23.441,39.1543 23.4447,38.967 23.4971,38.9527 23.9786,38.8633 H 24.0654 V 38.8633 39.0424 L 24.4014,38.9752 24.4065,38.7273 V 38.7273 L 24.4827,38.7289 24.9084,38.6503 H 24.9642 V 38.8297 L 25.3002,38.7625 25.3047,38.5402 25.3113,38.5384 25.8939,38.3928 26.3419,38.2807 26.9689,38.1687 27.0377,38.1695 27.0361,38.3032 26.857,38.4376 V 38.9294 38.9294 38.9305 L 27.0139,39.2887 27.0092,39.6927 V 39.6927 L 22.3972,40.6066 V 40.6066 L 27.0092,39.6927 V 39.6927 L 27.0139,39.6919 35.0363,39.4303 V 39.4303 L 35.2567,39.4231 35.5922,39.3157 36.0156,39.2271 37.0599,39.0982 38.2555,39.0199 39.4678,38.9752 40.5844,38.9913 41.512,39.0704 42.3798,39.199 V 39.199 L 41.512,39.0704 40.5844,38.9913 39.4678,38.9752 38.2555,39.0199 37.0599,39.0982 36.0156,39.2271 35.5922,39.3157 35.2567,39.4231 35.0363,39.4303 V 39.4303 L 35.0329,39.1768 34.7416,38.8855 V 38.8855 L 26.857,38.9294 26.384,39.0109 22.1308,40.0952 22.126,40.0983 V 40.0983 L 22.1308,40.0952 26.384,39.0109 26.857,38.9294 34.7416,38.8855 V 38.8855 L 35.0329,39.1768 35.0363,39.4303 V 39.4303 L 35.0768,42.4703 V 42.4703 L 35.0776,42.5367 34.6744,42.8728 34.6969,43.0519 V 43.0519 L 33.756,43.5895 33.7759,43.788 V 43.788 L 33.8568,43.7798 36.7241,43.3207 36.7564,43.3257 36.9927,43.7686 37.0178,44.1232 V 44.1232 L 32.9274,44.6759 32.8625,44.6534 32.6921,44.7431 32.5913,44.7767 32.6136,45.2694 32.8477,45.4673 V 45.4673 L 32.6136,45.2694 32.5913,44.7767 32.6921,44.7431 32.8625,44.6534 32.8824,44.3735 33.2509,44.143 33.1176,43.8247 32.9946,43.2982 32.9877,43.2884 V 43.2884 L 32.9946,43.2982 33.1176,43.8247 33.1189,43.8435 32.5241,43.8806 V 43.8806 L 32.4122,43.6789 32.9877,43.2884 V 43.2884 L 33.0393,43.2535 32.5913,42.6934 32.5321,42.7479 V 42.7479 L 32.513,42.727 32.2902,42.5333 32.0659,42.3851 31.6505,42.2007 31.3444,42.1253 31.225,42.111 31.192,42.1084 V 42.1084 L 31.1353,42.8056 31.1277,42.8852 V 42.8852 L 31.1353,42.8056 31.192,42.1084 V 42.1084 L 31.2025,41.9766 H 30.3289 L 30.376,42.1552 V 42.1552 L 30.553,42.8278 V 42.8278 L 30.376,42.1552 V 42.1552 L 30.3739,42.156 30.1371,42.1838 29.9177,42.2573 29.5478,42.4807 29.2997,42.704 29.2089,42.8056 29.1769,42.8392 V 42.8392 L 29.6568,43.2982 V 43.2982 L 29.1769,42.8392 V 42.8392 L 29.2089,42.8056 29.2997,42.704 29.5478,42.4807 29.9177,42.2573 30.1371,42.1838 30.3739,42.156 30.376,42.1552 V 42.1552 L 30.3289,41.9766 H 31.2025 L 31.192,42.1084 V 42.1084 L 31.225,42.111 31.3444,42.1253 31.6505,42.2007 32.0659,42.3851 32.2902,42.5333 32.513,42.727 32.5321,42.7479 V 42.7479 L 32.0312,43.2088 32.0143,43.2265 V 43.2265 L 32.0312,43.2088 32.5321,42.7479 V 42.7479 L 32.5913,42.6934 33.0393,43.2535 32.9877,43.2884 V 43.2884 L 32.4122,43.6789 32.5241,43.8806 V 43.8806 L 33.1189,43.8435 33.2509,44.143 32.8824,44.3735 32.8625,44.6534 32.636,44.5751 32.5382,44.0883 32.4657,43.9036 V 43.9036 L 32.3834,43.6938 32.181,43.3847 32.0143,43.2265 V 43.2265 L 31.9394,43.1553 31.6679,42.999 31.375,42.909 31.1277,42.8852 V 42.8852 L 31.07,42.8796 30.7615,42.9043 30.4583,42.9765 30.1693,43.09 29.9034,43.2387 29.6695,43.4157 29.4767,43.6152 29.3856,43.752 V 43.752 L 29.3333,43.8306 29.2486,44.0557 29.2314,44.2838 29.2343,44.7987 V 44.7987 L 29.1642,44.7989 28.3921,44.8188 V 44.8188 L 28.2905,44.8214 28.2683,45.7398 29.1642,45.6726 V 45.6726 L 28.2683,45.7398 28.2905,44.8214 28.3921,44.8188 V 44.8188 L 29.1642,44.7989 29.2343,44.7987 V 44.7987 L 29.2539,48.2711 V 48.2835 48.2835 48.2711 L 29.2343,44.7987 V 44.7987 L 29.2314,44.2838 29.2486,44.0557 29.3333,43.8306 29.3856,43.752 V 43.752 L 29.3433,43.7239 28.7297,43.4271 V 43.4271 L 28.649,43.3879 29.1417,42.8056 29.1769,42.8392 V 42.8392 L 29.1417,42.8056 28.649,43.3879 28.7297,43.4271 V 43.4271 L 28.7163,43.4551 28.5236,43.8806 28.4279,44.3147 28.3913,44.7878 28.3921,44.8188 V 44.8188 L 28.3913,44.7878 28.4279,44.3147 28.5236,43.8806 28.7163,43.4551 28.7297,43.4271 V 43.4271 L 29.3433,43.7239 29.3856,43.752 V 43.752 L 29.4767,43.6152 29.6695,43.4157 29.9034,43.2387 30.1693,43.09 30.4583,42.9765 30.7615,42.9043 31.07,42.8796 31.1277,42.8852 V 42.8852 L 31.375,42.909 31.6679,42.999 31.9394,43.1553 32.0143,43.2265 V 43.2265 L 32.181,43.3847 32.3834,43.6938 32.4657,43.9036 V 43.9036 L 32.5382,44.0883 32.636,44.5751 32.8625,44.6534 32.9274,44.6759 37.0178,44.1232 V 44.1232 L 36.9927,43.7686 36.7564,43.3257 V 43.3257 L 37.6856,43.4702 37.7224,43.476 37.7433,43.6117 38.6167,43.9703 38.6802,44.0973 38.6625,44.2751 37.0713,44.1158 37.0178,44.1232 V 44.1232 L 37.0713,44.1158 38.6625,44.2751 38.7201,44.2806 38.9752,44.3063 39.0199,44.9111 38.6503,44.9783 38.6495,44.9781 V 44.9781 L 38.6392,45.0455 38.7101,48.8309 V 48.8309 L 43.0183,48.7637 43.1225,48.7563 V 48.7563 L 43.0183,48.7637 38.7101,48.8309 38.7178,49.2484 43.3543,49.3574 43.412,49.4191 V 49.4191 L 43.3543,49.3574 38.7178,49.2484 V 49.2484 L 38.7667,51.8644 V 51.8644 L 38.7847,52.8293 38.785,52.8851 V 52.8851 L 38.7847,52.8293 38.7667,51.8644 V 51.8644 L 43.3429,51.754 43.3919,51.7202 V 51.7202 L 43.3429,51.754 38.7667,51.8644 V 51.8644 L 38.6953,51.8659 37.1512,51.9101 V 51.9101 L 37.0959,49.2818 V 49.2818 L 37.084,48.7108 V 48.7108 L 36.0296,48.7862 H 35.9849 V 48.7862 47.2294 L 34.6249,47.3381 V 47.3381 L 34.0248,47.3863 34.0563,48.9333 V 48.9333 L 34.0248,47.3863 34.6249,47.3381 V 47.3381 L 34.6297,47.3974 34.6376,48.942 V 48.942 L 34.4728,48.9428 34.0563,48.9333 V 48.9333 L 34.4728,48.9428 34.6376,48.942 V 48.942 L 34.6297,47.3974 34.6249,47.3381 V 47.3381 L 35.9849,47.2294 V 48.7862 48.7862 H 36.0296 L 37.084,48.7108 V 48.7108 L 37.004,44.8997 37.026,44.7338 V 44.7338 L 37.0488,44.5637 37.0178,44.1232 V 44.1232 L 37.0488,44.5637 37.026,44.7338 V 44.7338 L 37.0377,44.7317 38.6495,44.9781 V 44.9781 L 37.0377,44.7317 37.026,44.7338 V 44.7338 L 32.8824,45.4263 32.8477,45.4673 V 45.4673 L 32.9049,45.5157 V 48.2486 48.2486 48.8084 L 33.0647,49.0002 33.129,49.0772 V 49.4133 L 32.9411,49.567 V 49.567 L 33.129,49.4133 V 49.0772 L 33.0647,49.0002 32.9049,48.8084 V 48.2486 48.2486 H 32.7033 L 30.1281,48.2745 V 48.2745 L 30.1273,48.2038 30.1185,47.4964 V 47.4964 L 30.0826,44.5973 30.232,44.3523 30.4027,44.1391 30.6228,43.9478 30.8821,43.8406 31.0229,43.8377 31.1692,43.8792 31.32,43.9726 31.4737,44.1258 31.6293,44.3465 31.7849,44.6423 31.7894,44.9328 V 44.9328 L 31.741,44.9336 30.1728,44.955 V 44.955 L 31.741,44.9336 31.7894,44.9328 V 44.9328 L 31.8119,46.388 V 46.388 L 30.1717,46.4031 V 46.4031 L 31.8119,46.388 V 46.388 L 31.8214,46.9913 31.8074,48.1814 V 48.1814 L 31.8214,46.9913 31.8119,46.388 V 46.388 L 31.7894,44.9328 V 44.9328 L 31.7849,44.6423 31.6293,44.3465 31.4737,44.1258 31.32,43.9726 31.1692,43.8792 31.0229,43.8377 30.8821,43.8406 30.6228,43.9478 30.4027,44.1391 30.232,44.3523 30.0826,44.5973 30.1185,47.4964 V 47.4964 L 30.1265,47.4961 31.7849,47.4755 V 47.4755 L 30.1265,47.4961 30.1185,47.4964 V 47.4964 L 30.1273,48.2038 30.1281,48.2745 V 48.2745 L 29.2539,48.2835 V 48.2835 L 28.2683,48.2933 28.2233,48.9878 28.2254,49.0341 V 49.0341 L 28.2233,48.9878 28.2683,48.2933 29.2539,48.2835 V 48.2835 L 30.1281,48.2745 V 48.2745 L 32.7033,48.2486 H 32.9049 V 48.2486 45.5157 L 32.8477,45.4673 V 45.4673 L 32.8824,45.4263 37.026,44.7338 V 44.7338 L 37.004,44.8997 37.084,48.7108 V 48.7108 L 37.0959,49.2818 V 49.2818 L 36.0296,49.4357 H 35.9849 V 49.4357 48.7862 48.7862 49.4357 49.4357 H 36.0296 L 37.0959,49.2818 V 49.2818 L 37.1512,51.9101 V 51.9101 L 37.1721,52.9076 37.1726,52.9293 V 52.9293 L 37.1721,52.9076 37.1512,51.9101 V 51.9101 L 37.1271,51.9109 H 35.9849 V 51.9109 51.8995 49.4357 49.4357 51.8995 51.9109 51.9109 H 35.9399 L 35.9063,52.4261 35.906,52.4668 V 52.4668 L 36.5336,52.4708 36.5225,52.8629 V 52.9301 52.9301 52.8629 L 36.5336,52.4708 35.906,52.4668 V 52.4668 L 34.7641,52.4597 34.6718,52.4658 V 52.4658 L 34.6744,52.5044 33.8825,52.7026 V 52.7026 L 34.6744,52.5044 34.6718,52.4658 V 52.4658 L 34.6297,51.8323 V 51.8323 L 34.6522,51.7654 34.6411,49.6257 V 49.6257 L 34.6376,48.942 V 48.942 L 34.6411,49.6257 V 49.6257 L 34.6522,51.7654 34.6297,51.8323 V 51.8323 H 34.092 L 34.0894,51.8326 V 51.8326 L 33.8904,52.2805 33.8793,52.6388 33.8825,52.7026 V 52.7026 L 33.8793,52.6388 33.8904,52.2805 34.0894,51.8326 V 51.8326 L 34.1145,51.7765 34.0704,49.6167 V 49.6167 L 34.0563,48.9333 V 48.9333 L 33.9912,48.9317 33.1065,48.9653 32.8152,48.8198 28.2254,49.0341 V 49.0341 L 26.8234,49.0997 26.8208,49.1 V 49.1 L 26.8234,49.0997 28.2254,49.0341 V 49.0341 L 32.8152,48.8198 33.1065,48.9653 33.9912,48.9317 34.0563,48.9333 V 48.9333 L 34.0704,49.6167 V 49.6167 L 34.1145,49.6149 34.5736,49.6262 34.6411,49.6257 V 49.6257 L 34.5736,49.6262 34.1145,49.6149 34.0704,49.6167 V 49.6167 L 33.0168,49.6598 V 49.6598 L 34.0704,49.6167 V 49.6167 L 34.1145,51.7765 34.0894,51.8326 V 51.8326 L 32.9033,51.9117 V 51.9117 L 32.9049,51.8995 32.8826,49.6329 V 49.6329 L 32.9049,51.8995 32.9033,51.9117 V 51.9117 L 32.8377,52.3925 32.8824,52.9973 V 52.9973 L 33.7335,53.042 33.9005,53.0587 36.4328,52.9301 H 36.5225 V 52.9301 H 37.1496 L 37.1726,52.9293 V 52.9293 L 38.7289,52.8854 38.785,52.8851 V 52.8851 L 43.7462,52.8629 43.735,52.2133 43.3919,51.7202 V 51.7202 L 43.3765,51.6982 43.3265,50.3097 V 50.3097 L 44.0885,50.3422 44.9672,50.4298 46.1039,50.606 47.444,50.9021 48.9338,51.3487 49.7181,51.6384 50.5192,51.9771 51.331,52.3692 52.1461,52.8182 V 52.8182 L 51.331,52.3692 50.5192,51.9771 49.7181,51.6384 48.9338,51.3487 47.444,50.9021 46.1039,50.606 44.9672,50.4298 44.0885,50.3422 43.3265,50.3097 V 50.3097 L 43.2982,49.5254 43.412,49.4191 V 49.4191 L 43.4662,49.3685 V 49.0997 L 43.1302,48.8645 43.1225,48.7563 V 48.7563 L 42.6849,42.6143 42.2007,42.6487 41.1702,42.6934 V 42.6934 L 42.2007,42.6487 V 42.6487 L 42.2454,45.4263 41.2152,45.3815 41.1702,42.6934 V 42.6934 L 41.2152,45.3815 42.2454,45.4263 42.2007,42.6487 42.6849,42.6143 42.4471,39.2776 42.8614,38.9305 42.8601,38.6601 42.8167,38.3143 42.5606,38.1254 42.3462,38.0118 42.3304,37.7163 V 37.7163 L 42.2341,35.9375 V 35.9375 L 42.2034,35.3745 V 35.3745 L 42.1782,34.9096 42.2624,34.8747 42.3201,34.7916 V 34.7916 L 42.3462,34.6297 42.3039,34.5286 42.1793,34.4349 41.6996,34.2656 40.9381,34.113 39.9272,33.9688 39.3326,33.9256 38.699,33.9307 37.4605,34.032 36.1193,34.2376 35.5872,34.3736 34.8199,34.6186 34.6458,34.7464 34.568,34.8858 34.5622,34.9398 34.554,35.0176 34.5514,35.044 32.7705,35.3689 32.3672,35.2567 32.3225,34.7416 32.6485,34.6397 V 34.6397 L 32.6808,34.6297 32.748,34.4281 33.3081,33.8457 33.2988,33.8346 V 33.8346 L 33.1962,33.7113 33.4872,33.3306 33.3978,33.2409 33.4131,33.2057 33.4287,33.1692 33.6216,32.7257 33.593,32.5964 33.5801,32.5389 33.5769,32.5241 34.0248,31.8296 35.1673,31.628 V 31.628 L 34.8794,26.9174 V 26.9174 L 34.1593,26.6554 34.1368,26.689 V 26.689 L 34.1817,28.593 33.4986,28.4921 33.4314,26.4874 V 26.4874 L 33.4986,28.4921 34.1817,28.593 34.1368,26.689 V 26.689 L 33.4314,26.4874 V 26.4874 L 34.1368,26.689 V 26.689 L 34.1593,26.6554 34.8794,26.9174 V 26.9174 L 34.4281,19.5323 34.5302,19.3855 V 19.3855 L 34.4265,19.296 33.9563,19.0452 33.5467,18.9005 32.9967,18.7611 32.2887,18.6407 31.4042,18.5526 30.485,18.5473 30.3942,18.5584 V 18.5584 L 30.3739,19.1291 30.4411,19.2299 V 19.2299 L 30.4522,20.5515 31.1464,20.5404 31.1689,19.2077 30.4411,19.2299 V 19.2299 L 31.1689,19.2077 31.1464,20.5404 30.4522,20.5515 30.4411,19.2299 V 19.2299 L 30.3739,19.1291 30.3942,18.5584 V 18.5584 L 29.6854,18.6449 29.0065,18.814 28.4488,19.023 28.0135,19.2402 27.7013,19.4344 27.4539,19.6252 V 19.6252 L 27.7013,19.4344 28.0135,19.2402 28.4488,19.023 29.0065,18.814 29.6854,18.6449 30.3942,18.5584 V 18.5584 L 30.485,18.5473 31.4042,18.5526 32.2887,18.6407 32.9967,18.7611 33.5467,18.9005 33.9563,19.0452 34.4265,19.296 34.5302,19.3855 V 19.3855 L 35.3017,18.2779 35.3105,18.1917 35.0551,17.9197 34.9713,18.1353 34.8662,18.2882 34.7194,18.3676 34.585,18.6364 V 18.6364 L 34.7194,18.3676 34.8662,18.2882 34.9713,18.1353 35.0551,17.9197 35.0792,17.9075 35.0284,17.807 34.7823,17.4911 34.4336,17.2138 34.4334,17.214 34.4426,17.2847 34.4246,17.4519 34.3101,17.6487 34.1952,17.7371 34.0304,17.8075 33.8679,18.4348 V 18.4348 L 34.0304,17.8075 34.1952,17.7371 34.3101,17.6487 34.4246,17.4519 34.4426,17.2847 34.4334,17.214 34.2233,17.0802 34.0629,16.9923 33.7007,16.8418 33.3459,16.7328 33.3279,16.7272 33.3192,16.7547 33.3052,17.0095 33.2247,17.2556 33.0393,17.5165 32.9274,17.9869 V 17.9869 L 33.0393,17.5165 33.2247,17.2556 33.3052,17.0095 33.3192,16.7547 33.3279,16.7272 V 16.7272 L 33.2655,16.7079 32.7498,16.5968 32.7395,16.5952 V 16.5952 L 32.1468,16.5134 31.5274,16.4692 V 16.4692 L 31.5692,16.7351 31.5822,17.0106 31.5386,17.2251 31.5608,17.7403 V 17.7403 L 31.5386,17.2251 31.5822,17.0106 31.5692,16.7351 31.5274,16.4692 V 16.4692 L 31.4489,16.4637 30.703,16.4531 30.0376,16.4835 29.9008,16.4989 V 16.4989 L 29.8503,16.741 29.8751,17.0246 30.0154,17.382 29.9929,17.8747 V 17.8747 L 30.0154,17.382 29.8751,17.0246 29.8503,16.741 29.9008,16.4989 V 16.4989 L 29.4486,16.5494 28.9311,16.6447 28.7414,16.7031 28.4805,16.783 28.4501,16.8571 28.3913,17.1021 28.4165,17.3974 28.4921,17.5352 28.6266,17.6509 28.6713,18.0988 V 18.0988 L 28.6266,17.6509 28.4921,17.5352 28.4165,17.3974 28.3913,17.1021 28.4501,16.8571 28.4805,16.783 28.626,16.3121 28.6078,15.7482 V 15.7482 L 28.5721,14.6362 V 14.6362 L 28.5594,14.2462 28.1606,14.2409 V 14.2409 L 28.1781,12.8815 V 12.8815 L 28.0442,12.8796 27.8743,12.6799 27.7452,12.4603 27.6606,12.188 27.6756,11.8832 27.7378,11.725 27.8458,11.5662 28.0064,11.4093 28.2265,11.2569 28.404,11.1667 V 11.1667 L 28.4662,10.7175 28.5702,10.2441 28.7443,9.69908 29.0041,9.14954 29.3663,8.66377 29.5912,8.46586 29.7174,8.3886 V 8.3886 L 29.8473,8.30896 30.1376,8.20207 30.4633,8.15339 30.5779,8.15895 30.6231,8.16106 31.1303,8.18593 31.3012,8.22933 31.4042,8.10868 31.3311,7.85388 31.1949,7.72609 31.0755,7.70598 V 7.70598 L 31.0906,7.61576 31.0681,7.19031 31.0631,7.18369 V 7.18369 L 31.2033,7.0768 31.2772,6.9416 31.3369,6.74237 31.3478,6.54446 31.2904,6.41534 31.1798,6.34602 31.0316,6.32777 30.6847,6.40846 30.3739,6.58547 30.2974,6.68866 30.3056,6.79343 30.4829,6.9887 30.844,7.19031 V 7.19031 L 30.8665,7.59353 30.8927,7.72185 V 7.72185 L 30.8665,7.59353 30.844,7.19031 V 7.19031 L 30.4829,6.9887 30.3056,6.79343 30.2974,6.68866 30.3739,6.58547 30.6847,6.40846 31.0316,6.32777 31.1798,6.34602 31.2904,6.41534 31.3478,6.54446 31.3369,6.74237 31.2772,6.9416 31.2033,7.0768 31.0631,7.18369 V 7.18369 L 31.0681,7.19031 31.0906,7.61576 31.0755,7.70598 30.8927,7.72185 30.8218,7.73614 30.4654,7.91024 30.426,7.93723 V 7.93723 L 30.4654,7.91024 30.8218,7.73614 30.8927,7.72185 31.0755,7.70598 31.1949,7.72609 31.3311,7.85388 31.4042,8.10868 31.369,8.24652 31.7431,8.34177 32.1241,8.52777 V 8.52777 L 32.1209,8.53412 32.2804,8.83654 32.395,9.13896 32.4405,9.38555 32.9816,9.25114 33.1189,9.4181 33.3771,9.93615 33.5121,10.5121 33.5097,11.1326 V 11.1326 L 33.5121,10.5121 33.3771,9.93615 33.1189,9.4181 32.9816,9.25114 32.9274,9.29586 33.0253,9.66813 33.088,10.1558 33.1065,10.8638 33.0626,10.985 V 10.985 L 33.1126,11.0029 33.42,11.1551 33.8767,11.462 34.1844,11.7792 34.2725,11.9427 34.3114,12.1094 34.2974,12.2798 34.2265,12.4542 33.9801,12.7926 33.6999,13.0786 33.3753,13.3501 33.0993,13.2802 32.8377,14.3134 V 14.3134 L 32.2553,11.8941 V 11.8941 L 31.5386,14.2012 30.7768,11.8493 30.1273,14.2462 H 30.105 V 11.7149 L 30.0963,11.6964 V 11.6964 L 30.105,11.7149 V 14.2462 L 30.1135,14.56 30.6345,14.583 V 14.583 L 31.1811,14.6068 32.0116,14.6896 32.6281,14.7947 32.8123,14.8436 V 14.8436 L 33.0618,14.9098 33.3441,15.0214 33.3517,15.0259 V 15.0259 L 33.3441,15.0214 33.0618,14.9098 32.8123,14.8436 V 14.8436 L 32.6281,14.7947 32.0116,14.6896 31.1811,14.6068 30.6345,14.583 V 14.583 L 30.6109,15.4474 V 15.4474 L 30.6345,14.583 V 14.583 L 30.1135,14.56 30.105,14.5597 V 15.4728 15.4728 15.9932 15.9932 15.4728 15.4728 14.5597 L 30.1273,14.2462 30.7768,11.8493 31.5386,14.2012 32.2553,11.8941 V 11.8941 L 32.8377,14.3134 32.8123,14.8436 32.8075,15.6122 V 15.6122 L 32.8041,16.1277 V 16.1277 L 32.8075,15.6122 V 15.6122 L 32.8123,14.8436 32.8377,14.3134 33.0993,13.2802 33.3158,13.3514 33.3438,14.6484 33.3517,15.0259 33.5068,15.1172 33.5994,15.2093 33.5354,15.8176 V 15.8176 L 33.5994,15.2093 33.5068,15.1172 33.3517,15.0259 33.3438,14.6484 33.4089,14.6674 34.0328,14.9455 34.4148,15.1744 V 15.1744 L 34.4934,15.2215 34.9321,15.5789 35.0877,15.8591 35.1112,16.174 35.0699,16.3261 34.9919,16.4655 34.8755,16.5846 V 16.5846 L 34.9919,16.4655 35.0699,16.3261 35.1112,16.174 35.0877,15.8591 34.9321,15.5789 34.4934,15.2215 34.4148,15.1744 V 15.1744 L 34.4405,16.2428 V 16.2428 L 34.5945,16.3393 34.853,16.5568 34.8755,16.5846 V 16.5846 L 34.853,16.5568 34.5945,16.3393 34.4405,16.2428 V 16.2428 L 34.2516,16.1247 33.8304,15.9231 33.5354,15.8176 V 15.8176 L 33.3359,15.7461 32.8075,15.6122 V 15.6122 L 32.7742,15.6038 32.1508,15.5069 31.4714,15.467 30.8242,15.4421 30.6109,15.4474 V 15.4474 L 30.2339,15.4567 30.105,15.4728 V 15.4728 L 30.2339,15.4567 30.6109,15.4474 V 15.4474 L 30.5977,15.926 30.5964,15.998 V 15.998 L 30.5977,15.926 30.6109,15.4474 V 15.4474 L 30.8242,15.4421 31.4714,15.467 32.1508,15.5069 32.7742,15.6038 32.8075,15.6122 V 15.6122 L 33.3359,15.7461 33.5354,15.8176 V 15.8176 L 33.8304,15.9231 34.2516,16.1247 34.4405,16.2428 V 16.2428 L 34.4148,15.1744 V 15.1744 L 34.0328,14.9455 33.4089,14.6674 33.3438,14.6484 V 14.6484 L 32.8146,14.4917 V 14.4917 L 32.6196,14.4341 31.6634,14.2922 31.1221,14.27 30.6424,14.2851 V 14.2851 L 30.5384,14.2885 30.136,14.3301 V 14.3301 L 30.5384,14.2885 30.6424,14.2851 V 14.2851 L 31.1221,14.27 31.6634,14.2922 32.6196,14.4341 32.8146,14.4917 V 14.4917 L 33.3438,14.6484 V 14.6484 L 33.3158,13.3514 33.3121,13.1717 33.3528,13.1709 33.4272,12.8812 33.4062,12.6315 33.3028,12.419 33.129,12.2407 32.8975,12.0936 32.6204,11.9748 32.2585,11.8816 V 11.8816 L 31.9809,11.8102 31.3097,11.7231 30.707,11.6903 30.105,11.6925 30.0963,11.6964 V 11.6964 L 30.105,11.6925 30.707,11.6903 31.3097,11.7231 31.9809,11.8102 32.2585,11.8816 V 11.8816 L 32.6204,11.9748 32.8975,12.0936 33.129,12.2407 33.3028,12.419 33.4062,12.6315 33.4272,12.8812 33.3528,13.1709 33.3121,13.1717 33.3753,13.3501 33.6999,13.0786 33.9801,12.7926 34.2265,12.4542 34.2974,12.2798 34.3114,12.1094 34.2725,11.9427 34.1844,11.7792 33.8767,11.462 33.42,11.1551 33.1126,11.0029 33.0626,10.985 V 10.985 L 33.1065,10.8638 33.088,10.1558 33.0253,9.66813 32.9274,9.29586 32.4405,9.38555 32.4569,9.47498 32.5464,10.8162 V 10.8162 L 32.716,10.8593 33.0626,10.985 V 10.985 L 32.716,10.8593 32.5464,10.8162 V 10.8162 L 32.4569,9.47498 32.4405,9.38555 V 9.38555 L 32.395,9.13896 32.2804,8.83654 32.1209,8.53412 32.1241,8.52777 V 8.52777 L 32.2881,8.60768 32.7514,8.97095 32.9816,9.25114 V 9.25114 L 32.7514,8.97095 32.2881,8.60768 32.1241,8.52777 V 8.52777 L 31.7431,8.34177 31.369,8.24652 31.3012,8.22933 31.3705,8.46692 31.5161,9.27337 31.5833,10.1692 V 10.5278 L 31.5769,10.6481 V 10.6481 L 31.6841,10.6537 32.2373,10.7381 32.5464,10.8162 V 10.8162 L 32.2373,10.7381 31.6841,10.6537 31.5769,10.6481 V 10.6481 L 31.5833,10.5278 V 10.1692 L 31.5161,9.27337 31.3705,8.46692 31.3012,8.22933 V 8.22933 L 31.1303,8.18593 30.6231,8.16106 30.6202,8.22059 30.567,8.31293 30.4633,8.75823 30.427,9.81947 30.4411,10.5278 30.4469,10.6511 V 10.6511 L 31.0636,10.6209 31.5769,10.6481 V 10.6481 L 31.0636,10.6209 30.4469,10.6511 V 10.6511 L 30.4411,10.5278 30.427,9.81947 30.4633,8.75823 30.567,8.31293 30.6202,8.22059 30.5779,8.15895 30.4633,8.15339 30.1376,8.20207 29.8473,8.30896 29.7174,8.3886 V 8.3886 L 29.724,8.39972 29.5674,8.58731 29.4407,8.82517 29.3433,9.16145 29.2952,9.63426 29.2761,10.1722 V 10.7966 L 29.2938,10.863 V 10.863 L 29.6508,10.7675 30.3837,10.6542 30.4469,10.6511 V 10.6511 L 30.3837,10.6542 29.6508,10.7675 29.2938,10.863 V 10.863 L 29.2761,10.7966 V 10.1722 L 29.2952,9.63426 29.3433,9.16145 29.4407,8.82517 29.5674,8.58731 29.724,8.39972 29.7174,8.3886 V 8.3886 L 29.5912,8.46586 29.3663,8.66377 29.0041,9.14954 28.7443,9.69908 28.5702,10.2441 28.4662,10.7175 28.404,11.1667 V 11.1667 L 28.5131,11.1117 28.8729,10.9757 29.2938,10.863 V 10.863 L 28.8729,10.9757 28.5131,11.1117 28.404,11.1667 V 11.1667 L 28.2265,11.2569 28.0064,11.4093 27.8458,11.5662 27.7378,11.725 27.6756,11.8832 27.6606,12.188 27.7452,12.4603 27.8743,12.6799 28.0442,12.8796 28.1781,12.8815 V 12.8815 L 28.1786,12.8349 28.5594,12.4092 30.0963,11.6964 V 11.6964 L 28.5594,12.4092 28.1786,12.8349 28.1781,12.8815 V 12.8815 L 28.1606,14.2409 V 14.2409 L 28.1537,14.7719 V 14.7719 L 28.1606,14.2409 V 14.2409 L 28.5594,14.2462 28.5721,14.6362 V 14.6362 L 28.6115,14.6235 29.2425,14.47 29.9119,14.3531 30.0818,14.3356 V 14.3356 L 29.9119,14.3531 29.2425,14.47 28.6115,14.6235 28.5721,14.6362 28.1537,14.7719 28.1389,15.9178 V 15.9178 L 28.1537,14.7719 V 14.7719 L 28.0932,14.7915 27.678,14.9709 27.3555,15.1582 27.1163,15.3503 26.9499,15.5432 26.847,15.734 26.7967,15.9192 V 15.9192 L 26.847,15.734 26.9499,15.5432 27.1163,15.3503 27.3555,15.1582 27.678,14.9709 28.0932,14.7915 28.1537,14.7719 28.5721,14.6362 28.6078,15.7482 V 15.7482 L 29.215,15.5834 30.105,15.4728 V 15.4728 L 29.215,15.5834 28.6078,15.7482 28.1389,15.9178 27.7669,16.08 27.305,16.3666 26.9951,16.623 26.9943,16.624 V 16.624 L 26.929,16.5349 26.8163,16.2586 26.7967,15.9192 V 15.9192 L 26.8163,16.2586 26.929,16.5349 26.9943,16.624 26.7208,16.877 26.744,15.9178 V 15.9178 L 26.7208,16.877 26.9943,16.624 26.9951,16.623 27.305,16.3666 27.7669,16.08 28.1389,15.9178 V 15.9178 L 28.1339,16.3293 28.1633,16.4377 V 16.4377 L 28.1339,16.3293 28.1389,15.9178 28.6078,15.7482 28.626,16.3121 28.4805,16.783 28.0926,16.9021 27.4854,17.2111 27.3282,17.3312 27.3497,17.3596 27.3365,17.4519 27.3441,17.662 27.4444,17.8887 27.5513,17.9771 27.7082,18.0316 27.9098,18.5245 V 18.5245 L 27.7082,18.0316 27.5513,17.9771 27.4444,17.8887 27.3441,17.662 27.3365,17.4519 27.3497,17.3596 26.7356,17.9715 26.7533,18.194 26.8679,18.4417 26.983,18.5436 27.1483,18.6139 27.2603,18.8603 V 18.8603 L 27.1483,18.6139 26.983,18.5436 26.8679,18.4417 26.7533,18.194 26.7356,17.9715 27.3282,17.3312 27.4854,17.2111 28.0926,16.9021 28.4805,16.783 28.7414,16.7031 28.9311,16.6447 29.4486,16.5494 29.9008,16.4989 V 16.4989 L 30.0376,16.4835 30.703,16.4531 31.4489,16.4637 31.5274,16.4692 V 16.4692 L 32.1468,16.5134 32.7395,16.5952 V 16.5952 L 32.7498,16.5968 33.2655,16.7079 33.3279,16.7272 33.3459,16.7328 33.7007,16.8418 34.0629,16.9923 34.2233,17.0802 34.4336,17.2138 34.7823,17.4911 35.0284,17.807 35.0792,17.9075 35.3356,17.9485 35.3689,17.6284 V 17.6061 L 35.2345,17.382 35.0332,17.1347 34.7305,16.8717 34.4381,16.6859 34.1603,16.5222 33.4859,16.2777 H 33.4856 L 33.4425,16.2621 32.8025,16.139 H 32.8019 L 32.5842,16.0972 31.7177,16.0184 31.5229,16.0149 V 16.0149 L 30.5964,15.998 V 15.998 L 30.3289,15.9932 29.8582,16.0409 V 16.0409 L 29.7479,16.052 29.0578,16.1949 28.626,16.3121 28.1633,16.4377 27.8201,16.5309 27.3761,16.7428 27.1875,16.8852 26.7351,17.2828 26.6107,17.4045 26.5911,17.6424 26.5893,17.9707 V 17.9707 L 26.5882,18.166 26.6501,18.4282 26.7647,18.6335 26.9242,18.8156 27.2603,19.3085 27.4539,19.6252 V 19.6252 L 27.5066,19.7117 27.4216,22.2726 V 22.2726 L 27.4505,22.2737 27.7013,22.0802 28.0135,21.886 28.4488,21.6688 29.0065,21.4598 29.6854,21.2907 30.485,21.1931 31.4042,21.1984 32.2887,21.2865 32.9967,21.4069 33.5467,21.5463 33.9563,21.691 34.4265,21.9419 34.5514,22.0496 V 22.0496 L 34.4265,21.9419 33.9563,21.691 33.5467,21.5463 32.9967,21.4069 32.2887,21.2865 31.4042,21.1984 30.485,21.1931 29.6854,21.2907 29.0065,21.4598 28.4488,21.6688 28.0135,21.886 27.7013,22.0802 27.4505,22.2737 27.4216,22.2726 V 22.2726 L 27.4,22.9243 V 22.9243 L 27.4505,22.9259 27.7013,22.7327 28.0135,22.5385 28.4488,22.321 29.0065,22.1123 29.6854,21.9432 30.485,21.8456 31.4042,21.8509 32.2887,21.9387 32.9967,22.0593 33.5467,22.1988 33.9563,22.3435 34.4265,22.5941 34.5514,22.702 V 22.702 L 34.4265,22.5941 33.9563,22.3435 33.5467,22.1988 32.9967,22.0593 32.2887,21.9387 31.4042,21.8509 30.485,21.8456 29.6854,21.9432 29.0065,22.1123 28.4488,22.321 28.0135,22.5385 27.7013,22.7327 27.4505,22.9259 27.4,22.9243 V 22.9243 L 27.3304,25.0264 27.8201,25.0428 27.8651,27.0698 28.5146,26.8795 28.4921,24.8187 27.8201,25.0428 V 25.0428 L 28.4921,24.8187 28.5146,26.8795 27.8651,27.0698 27.8201,25.0428 V 25.0428 H 27.7754 L 27.3251,25.1859 V 25.1859 L 27.7754,25.0428 H 27.8201 L 27.3251,25.1859 27.0594,33.1943 V 33.1943 L 27.0586,33.2184 26.1403,34.0024 26.1392,34.0415 V 34.0415 L 26.0964,35.9283 V 35.9283 L 26.0956,35.9735 22.2874,36.9591 22.3099,37.2504 22.4612,37.3829 V 37.3829 L 22.489,37.4073 22.4684,39.1988 V 39.1988 L 22.4668,39.3559 22.0858,39.6023 22.1083,40.0727 22.126,40.0983 V 40.0983 L 22.3996,40.4984 22.3972,40.6066 V 40.6066 L 22.3996,40.4984 22.126,40.0983 V 40.0983 L 22.1083,40.0727 22.0858,39.6023 22.4668,39.3559 22.4684,39.1988 V 39.1988 L 22.489,37.4073 22.4612,37.3829 V 37.3829 L 22.3099,37.2504 22.2874,36.9591 26.0956,35.9735 26.0964,35.9283 V 35.9283 L 26.1392,34.0415 V 34.0415 L 26.1403,34.0024 27.0586,33.2184 27.0594,33.1943 V 33.1943 L 27.3251,25.1859 27.3304,25.0264 27.4,22.9243 V 22.9243 L 27.4216,22.2726 V 22.2726 L 27.5066,19.7117 27.4539,19.6252 V 19.6252 L 27.2603,19.3085 26.9242,18.8156 26.7647,18.6335 26.6501,18.4282 26.5882,18.166 26.5893,17.9707 V 17.9707 L 26.5911,17.6424 26.6107,17.4045 26.7351,17.2828 27.1875,16.8852 27.3761,16.7428 27.8201,16.5309 28.1633,16.4377 28.626,16.3121 29.0578,16.1949 29.7479,16.052 29.8582,16.0409 V 16.0409 L 30.3289,15.9932 30.5964,15.998 V 15.998 L 31.5229,16.0149 V 16.0149 L 31.7177,16.0184 32.5842,16.0972 32.8019,16.139 H 32.8025 L 33.4425,16.2621 33.4856,16.2777 H 33.4859 L 34.1603,16.5222 34.4381,16.6859 34.7305,16.8717 35.0332,17.1347 35.2345,17.382 35.3689,17.6061 V 17.6284 L 35.3356,17.9485 35.3105,18.1917 35.3017,18.2779 34.5302,19.3855 V 19.3855 L 34.4281,19.5323 34.8794,26.9174 V 26.9174 L 35.1673,31.628 V 31.628 L 34.0248,31.8296 33.5769,32.5241 33.5801,32.5389 33.593,32.5964 33.6216,32.7257 33.4287,33.1692 33.4131,33.2057 33.3978,33.2409 33.4872,33.3306 33.1962,33.7113 33.2988,33.8346 V 33.8346 L 33.3081,33.8457 32.748,34.4281 32.6808,34.6297 32.6485,34.6397 V 34.6397 L 32.3225,34.7416 32.3672,35.2567 32.7705,35.3689 34.5514,35.044 34.554,35.0176 34.5622,34.9398 34.568,34.8858 34.6458,34.7464 34.8199,34.6186 35.5872,34.3736 36.1193,34.2376 37.4605,34.032 38.699,33.9307 39.3326,33.9256 39.9272,33.9688 40.9381,34.113 41.6996,34.2656 42.1793,34.4349 42.3039,34.5286 42.3462,34.6297 42.3201,34.7916 V 34.7916 L 42.2624,34.8747 42.1782,34.9096 42.2034,35.3745 V 35.3745 L 42.2341,35.9375 V 35.9375 L 42.3304,37.7163 V 37.7163 L 42.3462,38.0118 42.5606,38.1254 42.8167,38.3143 42.8601,38.6601 42.8614,38.9305 42.4471,39.2776 42.6849,42.6143 V 42.6143 L 43.1225,48.7563 V 48.7563 L 43.1302,48.8645 43.4662,49.0997 V 49.3685 L 43.412,49.4191 V 49.4191 L 43.2982,49.5254 43.3265,50.3097 V 50.3097 L 43.3765,51.6982 43.3919,51.7202 V 51.7202 L 43.735,52.2133 43.7462,52.8629 38.785,52.8851 V 52.8851 L 38.7289,52.8854 37.1726,52.9293 V 52.9293 L 37.1496,52.9301 H 36.5225 V 52.9301 H 36.4328 L 33.9005,53.0587 33.7335,53.042 32.8824,52.9973 V 52.9973 L 26.7451,53.2661 21.6379,53.4452 V 53.4452 52.6838 L 22.0411,52.2356 26.8462,51.93 V 51.93 L 26.9689,51.922 H 32.748 L 32.9033,51.9117 V 51.9117 L 32.748,51.922 H 26.9689 L 26.8462,51.93 V 51.93 L 26.6554,52.4597 V 53.2211 53.2211 52.4597 L 26.8462,51.93 V 51.93 L 26.857,51.8995 26.8345,49.7268 26.7975,49.69 V 49.69 L 26.6779,49.5702 26.6329,49.2566 26.8208,49.1 V 49.1 L 22.2091,49.5366 22.198,49.5254 V 49.5254 L 22.3972,40.6066 V 40.6066 L 22.198,49.5254 V 49.5254 L 22.2091,49.5366 26.8208,49.1 V 49.1 L 26.6329,49.2566 26.6779,49.5702 26.7975,49.69 V 49.69 L 26.8795,49.6821 32.7929,49.6149 V 49.6149 L 26.8795,49.6821 26.7975,49.69 V 49.69 L 23.945,49.962 22.0747,50.1414 22.0284,50.1835 V 50.1835 L 21.8172,49.9509 21.8395,49.6821 22.198,49.5254 V 49.5254 L 21.8395,49.6821 21.8172,49.9509 22.0284,50.1835 V 50.1835 L 22.0411,50.1972 22.0297,51.2077 V 51.2077 L 22.0186,52.1684 V 52.1684 L 22.0297,51.2077 V 51.2077 L 21.8172,51.2053 19.8532,51.6694 18.0763,52.1959 16.5095,52.7465 15.1757,53.2828 14.098,53.7667 13.2998,54.1599 12.6333,54.5205"
           inkscape:label="Redwork 1"
           inkstitch:running_stitch_length_mm="2.5"
           inkstitch:path_type="redwork-top"
           inkstitch:bean_stitch_repeats="0" /></g><g
         id="g1144"
         inkscape:label="Circle"
         style="stroke:#000000"><path
           style="display:inline;opacity:0.5;fill:none;stroke:#000000;stroke-width:0.482482"
           d="M 43.565569,19.960468 C 47.510729,24.093803 49.229847,30.146535 47.56236,36.042845 46.902354,38.376654 45.777535,40.453475 44.316622,42.201343"
           id="path1137"
           inkstitch:satin_column="False"
           inkstitch:stroke_method="running_stitch"
           inkstitch:repeats="2" /><path
           style="display:inline;opacity:0.5;fill:none;stroke:#000000;stroke-width:0.482482"
           d="M 18.997228,20.430525 C 17.38185,22.252218 16.141582,24.457212 15.43462,26.957062 13.408419,34.1218 16.252883,40.67448 21.179455,44.552072"
           id="path1136"
           inkstitch:satin_column="False"
           inkstitch:stroke_method="running_stitch"
           inkstitch:repeats="2" /></g></g></g><g
     inkscape:groupmode="layer"
     id="layer3"
     inkscape:label="Patch 2"
     style="display:inline"><path
       id="path3224-1"
       style="display:inline;fill:none;fill-opacity:1;stroke:#0200ff;stroke-width:0.1;stroke-miterlimit:4;stroke-dasharray:none;stroke-dashoffset:0;stroke-opacity:1"
       d="M 145.6276,61.050344 C 161.36772,61.050344 174.1276,73.810229 174.1276,89.550345 174.1276,105.29046 161.36772,118.05035 145.6276,118.05035 129.88748,118.05035 117.1276,105.29046 117.1276,89.550345 117.1276,73.810229 129.88748,61.050344 145.6276,61.050344 M 145.6276,58.550344 C 162.74843,58.550344 176.6276,72.429518 176.6276,89.550345 176.6276,106.67117 162.74843,120.55035 145.6276,120.55035 128.50677,120.55035 114.6276,106.67117 114.6276,89.550345 114.6276,72.429517 128.50677,58.550344 145.6276,58.550344"
       inkscape:connector-curvature="0"
       inkscape:label="satin"
       sodipodi:nodetypes="csssccsssc"
       transform="translate(-114.128, -58.0503)"
       inkstitch:satin_column="True"
       inkstitch:zigzag_underlay="True"
       inkstitch:zigzag_underlay_spacing_mm="4"
       inkstitch:reverse_rails="none"
       inkstitch:fill_underlay="False"
       inkstitch:start_at_nearest_point="False"
       inkstitch:end_at_nearest_point="False" /><path
       inkscape:label="top line"
       inkscape:connector-curvature="0"
       id="path816"
       d="M 174.7461,89.550346 A 29.118499,29.118499 0 0 1 145.62759,118.66885 29.118499,29.118499 0 0 1 116.5091,89.550346 29.118499,29.118499 0 0 1 145.62759,60.431844 29.118499,29.118499 0 0 1 174.7461,89.550346 Z"
       style="display:inline;fill:none;fill-opacity:1;stroke:#f75900;stroke-width:0.263;stroke-miterlimit:4;stroke-dasharray:0.263, 0.263;stroke-dashoffset:0;stroke-opacity:1"
       transform="translate(-114.128, -58.0503)"
       inkstitch:running_stitch_length_mm="1.5"
       inkstitch:fill_underlay="False" /></g></svg>
