<?xml version="1.0" encoding="UTF-8" standalone="no"?>
<!-- Created with Inkscape (http://www.inkscape.org/) -->

<svg
   width="63mm"
   height="63mm"
   viewBox="0 0 63 63"
   version="1.1"
   id="svg8"
   sodipodi:docname="patch_boat.svg"
   inkscape:version="1.4.2 (ebf0e940d0, 2025-05-08)"
   xmlns:inkscape="http://www.inkscape.org/namespaces/inkscape"
   xmlns:sodipodi="http://sodipodi.sourceforge.net/DTD/sodipodi-0.dtd"
   xmlns:xlink="http://www.w3.org/1999/xlink"
   xmlns="http://www.w3.org/2000/svg"
   xmlns:svg="http://www.w3.org/2000/svg"
   xmlns:rdf="http://www.w3.org/1999/02/22-rdf-syntax-ns#"
   xmlns:cc="http://creativecommons.org/ns#"
   xmlns:dc="http://purl.org/dc/elements/1.1/"
   xmlns:inkstitch="http://inkstitch.org/namespace">
  <sodipodi:namedview
     id="base"
     pagecolor="#ffffff"
     bordercolor="#666666"
     borderopacity="1.0"
     inkscape:pageopacity="0.0"
     inkscape:pageshadow="2"
     inkscape:zoom="1.6318101"
     inkscape:cx="122.86969"
     inkscape:cy="193.64998"
     inkscape:document-units="mm"
     inkscape:current-layer="layer3"
     showgrid="false"
     fit-margin-top="2"
     fit-margin-left="2"
     fit-margin-right="2"
     fit-margin-bottom="2"
     inkscape:object-nodes="false"
     inkscape:snap-global="false"
     inkscape:window-width="1920"
     inkscape:window-height="1131"
     inkscape:window-x="0"
     inkscape:window-y="0"
     inkscape:window-maximized="1"
     showguides="true"
     inkscape:showpageshadow="2"
     inkscape:pagecheckerboard="0"
     inkscape:deskcolor="#d1d1d1" />
  <defs
     id="defs2">
    <symbol
       id="inkstitch_ending_point"
       transform="scale(0.25, 0.25)"
       style="opacity:0.7">
      <title
         id="inkstitch_title9427">Ending point</title>
      <path
         id="inkstitch_circle13166"
         d="m 9.220113,0.0792309 c -1.9e-6,5.106729 -4.1398241,9.24655 -9.246553,9.24655 -5.1067293,0 -9.2465521,-4.139821 -9.246554,-9.24655 1e-7,-2.452338 0.9741879,-4.804235 2.7082531,-6.538301 1.7340653,-1.734065 4.0859624,-2.708252 6.5383009,-2.708252 5.1067301,0 9.2465528,4.139823 9.246553,9.246553 0,0 0,0 0,0"
         style="opacity:1;vector-effect:none;fill:#fafafa;fill-opacity:1;fill-rule:evenodd;stroke:#003399;stroke-width:1.06500006;stroke-linecap:round;stroke-linejoin:miter;stroke-miterlimit:4;stroke-dasharray:3.19500017, 3.19500017;stroke-dashoffset:0;stroke-opacity:1"
         inkscape:connector-curvature="0" />
      <path
         style="opacity:1;fill:#000000;fill-opacity:1;fill-rule:nonzero;stroke:none;stroke-width:2.27154255;stroke-linecap:round;stroke-linejoin:round;stroke-miterlimit:4;stroke-dasharray:4.81866985, 4.81866985;stroke-dashoffset:0;stroke-opacity:1;paint-order:fill markers stroke"
         d="m -4.570439,-4.5704391 c 0,0 9.140878,0 9.140878,0 0,0 0,9.14087 0,9.14087 0,0 -9.140878,0 -9.140878,0 0,0 0,-9.14087 0,-9.14087"
         id="inkstitch_rect5371-2"
         inkscape:connector-curvature="0" />
    </symbol>
    <filter
       style="color-interpolation-filters:sRGB"
       id="realistic-stitch-filter"
       x="0"
       width="1"
       y="0"
       height="1"
       inkscape:auto-region="false">
      <feGaussianBlur
         edgeMode="none"
         stdDeviation="0.9"
         in="SourceAlpha"
         id="feGaussianBlur16" />
      <feSpecularLighting
         result="result2"
         surfaceScale="4.29"
         specularConstant="0.65"
         specularExponent="1.6"
         id="feSpecularLighting16">
        <feDistantLight
           azimuth="154"
           elevation="112"
           id="feDistantLight16" />
      </feSpecularLighting>
      <feComposite
         in2="SourceAlpha"
         operator="atop"
         id="feComposite16" />
      <feComposite
         in2="SourceGraphic"
         operator="arithmetic"
         result="result3"
         k1="0"
         k2="0.8"
         k3="1.2"
         k4="0"
         id="feComposite17" />
    </filter>
    <symbol
       id="inkstitch_ignore_layer"
       transform="scale(0.25, 0.25)"
       style="opacity:0.7">
      <title
         id="title9694">Ignore entire layer when generating stitch plan</title>
      <path
         inkscape:connector-curvature="0"
         style="opacity:1;vector-effect:none;fill:#fafafa;fill-opacity:1;fill-rule:evenodd;stroke:#ff0000;stroke-width:1.06501234;stroke-linecap:round;stroke-linejoin:miter;stroke-miterlimit:4;stroke-dasharray:3.19503705, 3.19503705;stroke-dashoffset:0;stroke-opacity:1"
         d="M 9.2465269,-4.9265995e-6 C 9.246525,5.1067241 5.1067028,9.2465451 -2.615882e-5,9.2465451 -5.1067554,9.2465451 -9.2465782,5.1067241 -9.2465801,-4.9265995e-6 -9.24658,-2.4523429 -8.2723922,-4.8042399 -6.538327,-6.5383059 c 1.7340653,-1.734065 4.0859624,-2.708252 6.53830084118,-2.708252 5.10673015882,0 9.24655285882,4.139823 9.24655305882,9.2465529734005 0,0 0,0 0,0"
         id="inkstitch_path25368-7" />
      <path
         sodipodi:nodetypes="ccccc"
         inkscape:connector-curvature="0"
         style="color:#000000;fill:#d5d5d5;fill-opacity:1;fill-rule:evenodd;stroke:#5a5a5a;stroke-width:0.63330007;stroke-linecap:square;stroke-linejoin:round;stroke-miterlimit:0;stroke-opacity:1"
         d="M 4,4.452769 1.46667,1.286102 H -5.5 l 2.53333,3.166667 z"
         id="use5800" />
      <path
         sodipodi:nodetypes="ccccc"
         inkscape:connector-curvature="0"
         style="color:#000000;opacity:0.5;fill:#d5d5d5;fill-opacity:1;fill-rule:evenodd;stroke:#858585;stroke-width:0.63339424;stroke-linecap:square;stroke-linejoin:round;stroke-miterlimit:0;stroke-opacity:1"
         d="M 4,2.552769 1.46667,-0.613898 H -5.5 l 2.53333,3.166667 z"
         id="use5864" />
      <g
         id="g5771">
        <path
           sodipodi:nodetypes="ccccccccc"
           inkscape:connector-curvature="0"
           style="fill:#aa0000;fill-rule:evenodd;stroke:#aa0000;stroke-width:1px"
           d="m -1.0666699,-5.0472339 h 4.4333333 l 0.6333333,0.6333333 V 0.01943274 L 3.3666634,0.65276607 H -1.0666699 L -1.7000032,0.01943274 V -4.4139006 Z"
           id="path8011" />
        <path
           inkscape:connector-curvature="0"
           id="path8023"
           d="m -0.43333658,-3.8755672 c 0,0 3.16666668,3.16666661 3.16666668,3.16666661"
           style="fill:none;stroke:#ffffff;stroke-width:1.70000005" />
        <path
           inkscape:connector-curvature="0"
           id="path8025"
           d="m 2.7333301,-3.8755672 c 0,0 -3.16666668,3.16666661 -3.16666668,3.16666661"
           style="fill:none;stroke:#ffffff;stroke-width:1.79999995;stroke-linejoin:round" />
      </g>
    </symbol>
  </defs>
  <metadata
     id="metadata5">
    <rdf:RDF>
      <cc:Work
         rdf:about="">
        <dc:format>image/svg+xml</dc:format>
        <dc:type
           rdf:resource="http://purl.org/dc/dcmitype/StillImage" />
      </cc:Work>
    </rdf:RDF>
    <inkstitch:min_stitch_len_mm>0.3</inkstitch:min_stitch_len_mm>
    <inkstitch:collapse_len_mm>10.0</inkstitch:collapse_len_mm>
    <inkstitch:inkstitch_svg_version>3</inkstitch:inkstitch_svg_version>
  </metadata>
  <g
     transform="translate(0.05889116,-20.791451)"
     inkscape:label="Guide Lines"
     id="layer2-6"
     inkscape:groupmode="layer">
    <path
       id="path1669"
       style="opacity:0.5;fill:none;stroke:#02ff00;stroke-width:0.482482"
       inkscape:label="guideline inner not stitched"
       d="M 31.493459,71.717916 C 19.617235,71.734832 9.0157282,60.272386 12.767404,47.006293 15.686316,36.684888 26.419714,30.683982 36.741119,33.602895 47.062524,36.521807 53.06343,47.255205 50.144518,57.57661 47.727859,66.122024 39.954603,71.705865 31.493459,71.717916"
       sodipodi:nodetypes="csssc" />
    <path
       id="path2356"
       style="opacity:0.5;fill:none;stroke:#00ff00;stroke-width:0.48578"
       inkscape:label="guideline outer not stitched"
       d="M 31.477518,25.530734 C 23.394978,25.525774 15.40465,29.168896 10.137254,36.101169 1.1963903,47.867992 3.4864478,64.655522 15.252241,73.597168 27.018036,82.538814 43.8041,80.248555 52.744964,68.481731 61.685828,56.714909 59.39577,39.927377 47.629975,30.985733 42.795849,27.311944 37.114259,25.534192 31.477518,25.530734"
       sodipodi:nodetypes="cssssc" />
    <use
       id="use8741"
       inkscape:label="Ink/Stitch Befehl: Ebene ignorieren (keine Objekte in dieser Ebene nähen)"
       xlink:href="#inkstitch_ignore_layer"
       height="100%"
       width="100%"
       x="0"
       y="-10"
       transform="matrix(0.264583,0,0,0.264583,0.97284604,22.5376)" />
  </g>
  <g
     style="display:inline"
     id="layer1"
     inkscape:groupmode="layer"
     inkscape:label="Patch"
     transform="translate(-114.128, -58.0503)">
    <path
       embroider_running_stitch_length_mm="2.3"
       embroider_trim_after="True"
       embroider_stop_after="True"
       inkscape:label="positioning/cutting line"
       inkscape:connector-curvature="0"
       id="path3362"
       d="M 176.44825,89.550298 A 30.820268,30.820601 0 0 1 145.62804,120.3709 30.820268,30.820601 0 0 1 114.80775,89.550298 30.820268,30.820601 0 0 1 145.62804,58.729697 30.820268,30.820601 0 0 1 176.44825,89.550298 Z"
       style="display:inline;fill:none;fill-opacity:1;stroke:#ff0000;stroke-width:0.359487;stroke-miterlimit:4;stroke-dasharray:0.359487, 0.359487;stroke-dashoffset:0;stroke-opacity:1" />
    <path
       embroider_trim_after="True"
       embroider_stop_after="True"
       inkscape:label="fixing line"
       inkscape:connector-curvature="0"
       id="path3362-3"
       d="M 175.528,89.550295 A 29.900004,29.900332 0 0 1 145.62801,119.45063 29.900004,29.900332 0 0 1 115.728,89.550295 29.900004,29.900332 0 0 1 145.62801,59.649968 29.900004,29.900332 0 0 1 175.528,89.550295 Z"
       style="display:inline;fill:none;fill-opacity:1;stroke:#000000;stroke-width:0.2;stroke-miterlimit:4;stroke-dasharray:0.2, 0.2;stroke-dashoffset:0;stroke-opacity:1"
       embroider_running_stitch_length_mm="2" />
    <path
       id="path3224-1"
       style="display:inline;fill:none;fill-opacity:1;stroke:#0200ff;stroke-width:0.1;stroke-miterlimit:4;stroke-dasharray:none;stroke-dashoffset:0;stroke-opacity:1"
       d="M 145.628,61.050297 C 161.36812,61.050297 174.128,73.810182 174.128,89.550298 174.128,105.29041 161.36812,118.0503 145.628,118.0503 129.88788,118.0503 117.128,105.29041 117.128,89.550298 117.128,73.810182 129.88788,61.050297 145.628,61.050297 M 145.628,58.550297 C 162.74883,58.550297 176.628,72.429471 176.628,89.550298 176.628,106.67112 162.74883,120.5503 145.628,120.5503 128.50717,120.5503 114.628,106.67112 114.628,89.550298 114.628,72.42947 128.50717,58.550297 145.628,58.550297"
       inkscape:connector-curvature="0"
       inkscape:label="zig-zag"
       sodipodi:nodetypes="csssccsssc"
       embroider_satin_column="True"
       embroider_zigzag_underlay="True"
       embroider_zigzag_underlay_spacing_mm="4"
       inkstitch:satin_column="True"
       inkstitch:zigzag_underlay="True"
       inkstitch:zigzag_underlay_spacing_mm="4" />
    <path
       embroider_running_stitch_length_mm="1.5"
       inkscape:label="fixing_line"
       inkscape:connector-curvature="0"
       id="path816"
       d="M 174.7126,89.226017 A 29.118499,29.118499 0 0 1 145.59409,118.34452 29.118499,29.118499 0 0 1 116.4756,89.226017 29.118499,29.118499 0 0 1 145.59409,60.107515 29.118499,29.118499 0 0 1 174.7126,89.226017 Z"
       style="display:inline;fill:none;fill-opacity:1;stroke:#000000;stroke-width:0.263;stroke-miterlimit:4;stroke-dasharray:0.263, 0.263;stroke-dashoffset:0;stroke-opacity:1" />
    <path
       embroider_running_stitch_length_mm="2.3"
       embroider_trim_after="True"
       embroider_stop_after="True"
       inkscape:label="positioning/cutting line"
       inkscape:connector-curvature="0"
       id="path1"
       d="M 145.62763,63.756115 C 134.54579,63.756111 125.09618,70.744648 121.4455,80.555007 120.40327,83.355778 119.83367,86.386542 119.83367,89.550344 119.83367,103.79611 131.38201,115.34458 145.62763,115.34458 159.87321,115.34456 171.42153,103.79609 171.42153,89.550344 171.42153,86.297503 170.81942,83.185293 169.72058,80.319088 166.00707,70.632816 156.6204,63.756135 145.62763,63.756115"
       style="display:none;fill:none;fill-opacity:1;stroke:#ff0000;stroke-width:0.359487;stroke-miterlimit:4;stroke-dasharray:0.359487, 0.359487;stroke-dashoffset:0;stroke-opacity:1"
       sodipodi:nodetypes="csscssc" />
  </g>
  <g
     transform="translate(0, -21)"
     inkscape:label="Embroidery"
     id="layer2"
     inkscape:groupmode="layer">
    <g
       id="g17"
       inkscape:label="Boot"
       transform="matrix(0.24226388,-0.0037922,0.0037922,0.24226388,-70.534421,122.9806)"
       style="fill:#000000;stroke-width:4.12722"
       inkscape:transform-center-x="-7.2152748"
       inkscape:transform-center-y="-11.836294">
      <path
         style="opacity:0.75641;fill:#000000;stroke:none;stroke-width:1.23816"
         d="M 327.129,-292.103 426.938,-277.794 383.498,-242.403 Z"
         id="path7"
         inkstitch:fill_method="auto_fill"
         inkstitch:row_spacing_mm="0.8"
         inkstitch:angle="39.0"
         inkstitch:fill_underlay="False"
         inkstitch:underpath="False"
         inkstitch:max_stitch_length_mm="4" />
      <path
         style="opacity:0.75641;fill:#000000;stroke:none;stroke-width:1.23816"
         d="M 327.129,-292.103 C 327.129,-292.103 358.459,-297.31 400.195,-294.212 394.909,-287.521 391.218,-282.774 391.17,-282.789 384.402,-283.892 353.111,-288.378 327.129,-292.103 Z"
         id="path8"
         sodipodi:nodetypes="cccc"
         inkstitch:fill_method="auto_fill"
         inkstitch:row_spacing_mm="0.8"
         inkstitch:angle="-58.0"
         inkstitch:fill_underlay="False"
         inkstitch:underpath="False"
         inkstitch:max_stitch_length_mm="4" />
      <path
         style="opacity:0.75641;fill:#000000;stroke:none;stroke-width:1.23816"
         d="M 391.17,-282.789 430.153,-332.129 468.386,-276.933 C 458.43,-276.88 428.92,-277.697 426.938,-277.794 421.842,-278.043 405.582,-280.86 391.17,-282.789 Z"
         id="path12"
         sodipodi:nodetypes="cccsc"
         inkstitch:fill_method="auto_fill"
         inkstitch:row_spacing_mm="0.8"
         inkstitch:angle="-8.0"
         inkstitch:fill_underlay="False"
         inkstitch:underpath="False"
         inkstitch:max_stitch_length_mm="4" />
      <path
         style="opacity:0.75641;fill:#000000;stroke:none;stroke-width:1.23816"
         d="M 458.502,-290.937 468.386,-276.933 C 469.699,-276.524 519.307,-278.397 523.969,-285.204 492.289,-291.416 458.502,-290.937 458.502,-290.937 Z"
         id="path9"
         sodipodi:nodetypes="cccc"
         inkstitch:fill_method="auto_fill"
         inkstitch:row_spacing_mm="0.8"
         inkstitch:angle="-58.0"
         inkstitch:fill_underlay="False"
         inkstitch:underpath="False"
         inkstitch:max_stitch_length_mm="4" />
      <path
         style="opacity:0.75641;fill:#000000;stroke:none;stroke-width:1.23816"
         d="M 426.938,-277.794 479.824,-238.155 523.969,-285.204 C 513.512,-275.491 447.684,-277.238 426.938,-277.794 Z"
         id="path10"
         sodipodi:nodetypes="cccc"
         inkstitch:fill_method="auto_fill"
         inkstitch:row_spacing_mm="0.8"
         inkstitch:angle="-39.0"
         inkstitch:fill_underlay="False"
         inkstitch:underpath="False"
         inkstitch:max_stitch_length_mm="4" />
      <path
         style="opacity:0.75641;fill:#000000;stroke:none;stroke-width:1.23816"
         d="M 426.937,-277.794 383.497,-242.404 479.824,-238.156 Z"
         id="path11"
         sodipodi:nodetypes="cccc"
         inkstitch:fill_method="auto_fill"
         inkstitch:row_spacing_mm="0.8"
         inkstitch:angle="-2.0"
         inkstitch:fill_underlay="False"
         inkstitch:underpath="False"
         inkstitch:max_stitch_length_mm="4" />
    </g>
  </g>
  <g
     inkscape:groupmode="layer"
     id="layer3"
     inkscape:label="Text" />
</svg>
