<?xml version="1.0" encoding="UTF-8" standalone="no"?>
<!-- Created with Inkscape (http://www.inkscape.org/) -->

<svg
   width="63mm"
   height="63mm"
   viewBox="0 0 63 63"
   version="1.1"
   id="svg8"
   sodipodi:docname="patch_curious_penguin.svg"
   inkscape:version="1.4.2 (ebf0e940d0, 2025-05-08)"
   xmlns:inkscape="http://www.inkscape.org/namespaces/inkscape"
   xmlns:sodipodi="http://sodipodi.sourceforge.net/DTD/sodipodi-0.dtd"
   xmlns:xlink="http://www.w3.org/1999/xlink"
   xmlns="http://www.w3.org/2000/svg"
   xmlns:svg="http://www.w3.org/2000/svg"
   xmlns:rdf="http://www.w3.org/1999/02/22-rdf-syntax-ns#"
   xmlns:cc="http://creativecommons.org/ns#"
   xmlns:dc="http://purl.org/dc/elements/1.1/"
   xmlns:inkstitch="http://inkstitch.org/namespace">
  <sodipodi:namedview
     id="base"
     pagecolor="#ffffff"
     bordercolor="#666666"
     borderopacity="1.0"
     inkscape:pageopacity="0.0"
     inkscape:pageshadow="2"
     inkscape:zoom="1.6318101"
     inkscape:cx="119.80561"
     inkscape:cy="106.63005"
     inkscape:document-units="mm"
     inkscape:current-layer="layer4"
     showgrid="false"
     fit-margin-top="2"
     fit-margin-left="2"
     fit-margin-right="2"
     fit-margin-bottom="2"
     inkscape:object-nodes="false"
     inkscape:snap-global="false"
     inkscape:window-width="1920"
     inkscape:window-height="1131"
     inkscape:window-x="0"
     inkscape:window-y="0"
     inkscape:window-maximized="1"
     showguides="true"
     inkscape:showpageshadow="2"
     inkscape:pagecheckerboard="0"
     inkscape:deskcolor="#d1d1d1">
    <sodipodi:guide
       position="42.562016,31.463575"
       orientation="0,-1"
       id="guide1"
       inkscape:locked="false" />
    <sodipodi:guide
       position="31.500066,31.500048"
       orientation="1,0"
       id="guide2"
       inkscape:locked="false" />
  </sodipodi:namedview>
  <defs
     id="defs2">
    <symbol
       id="inkstitch_ending_point"
       transform="scale(0.25, 0.25)"
       style="opacity:0.7">
      <title
         id="inkstitch_title9427">Ending point</title>
      <path
         id="inkstitch_circle13166"
         d="m 9.220113,0.0792309 c -1.9e-6,5.106729 -4.1398241,9.24655 -9.246553,9.24655 -5.1067293,0 -9.2465521,-4.139821 -9.246554,-9.24655 1e-7,-2.452338 0.9741879,-4.804235 2.7082531,-6.538301 1.7340653,-1.734065 4.0859624,-2.708252 6.5383009,-2.708252 5.1067301,0 9.2465528,4.139823 9.246553,9.246553 0,0 0,0 0,0"
         style="opacity:1;vector-effect:none;fill:#fafafa;fill-opacity:1;fill-rule:evenodd;stroke:#003399;stroke-width:1.06500006;stroke-linecap:round;stroke-linejoin:miter;stroke-miterlimit:4;stroke-dasharray:3.19500017, 3.19500017;stroke-dashoffset:0;stroke-opacity:1"
         inkscape:connector-curvature="0" />
      <path
         style="opacity:1;fill:#000000;fill-opacity:1;fill-rule:nonzero;stroke:none;stroke-width:2.27154255;stroke-linecap:round;stroke-linejoin:round;stroke-miterlimit:4;stroke-dasharray:4.81866985, 4.81866985;stroke-dashoffset:0;stroke-opacity:1;paint-order:fill markers stroke"
         d="m -4.570439,-4.5704391 c 0,0 9.140878,0 9.140878,0 0,0 0,9.14087 0,9.14087 0,0 -9.140878,0 -9.140878,0 0,0 0,-9.14087 0,-9.14087"
         id="inkstitch_rect5371-2"
         inkscape:connector-curvature="0" />
    </symbol>
    <filter
       style="color-interpolation-filters:sRGB"
       id="realistic-stitch-filter"
       x="0"
       width="1"
       y="0"
       height="1"
       inkscape:auto-region="false">
      <feGaussianBlur
         edgeMode="none"
         stdDeviation="0.9"
         in="SourceAlpha"
         id="feGaussianBlur2" />
      <feSpecularLighting
         result="result2"
         surfaceScale="4.29"
         specularConstant="0.65"
         specularExponent="1.6"
         id="feSpecularLighting2">
        <feDistantLight
           azimuth="154"
           elevation="112"
           id="feDistantLight2" />
      </feSpecularLighting>
      <feComposite
         in2="SourceAlpha"
         operator="atop"
         id="feComposite2" />
      <feComposite
         in2="SourceGraphic"
         operator="arithmetic"
         result="result3"
         k1="0"
         k2="0.8"
         k3="1.2"
         k4="0"
         id="feComposite3" />
    </filter>
    <symbol
       id="inkstitch_ignore_layer"
       transform="scale(0.25, 0.25)"
       style="opacity:0.7">
      <title
         id="title9694">Ignore entire layer when generating stitch plan</title>
      <path
         inkscape:connector-curvature="0"
         style="opacity:1;vector-effect:none;fill:#fafafa;fill-opacity:1;fill-rule:evenodd;stroke:#ff0000;stroke-width:1.06501234;stroke-linecap:round;stroke-linejoin:miter;stroke-miterlimit:4;stroke-dasharray:3.19503705, 3.19503705;stroke-dashoffset:0;stroke-opacity:1"
         d="M 9.2465269,-4.9265995e-6 C 9.246525,5.1067241 5.1067028,9.2465451 -2.615882e-5,9.2465451 -5.1067554,9.2465451 -9.2465782,5.1067241 -9.2465801,-4.9265995e-6 -9.24658,-2.4523429 -8.2723922,-4.8042399 -6.538327,-6.5383059 c 1.7340653,-1.734065 4.0859624,-2.708252 6.53830084118,-2.708252 5.10673015882,0 9.24655285882,4.139823 9.24655305882,9.2465529734005 0,0 0,0 0,0"
         id="inkstitch_path25368-7" />
      <path
         sodipodi:nodetypes="ccccc"
         inkscape:connector-curvature="0"
         style="color:#000000;fill:#d5d5d5;fill-opacity:1;fill-rule:evenodd;stroke:#5a5a5a;stroke-width:0.63330007;stroke-linecap:square;stroke-linejoin:round;stroke-miterlimit:0;stroke-opacity:1"
         d="M 4,4.452769 1.46667,1.286102 H -5.5 l 2.53333,3.166667 z"
         id="use5800" />
      <path
         sodipodi:nodetypes="ccccc"
         inkscape:connector-curvature="0"
         style="color:#000000;opacity:0.5;fill:#d5d5d5;fill-opacity:1;fill-rule:evenodd;stroke:#858585;stroke-width:0.63339424;stroke-linecap:square;stroke-linejoin:round;stroke-miterlimit:0;stroke-opacity:1"
         d="M 4,2.552769 1.46667,-0.613898 H -5.5 l 2.53333,3.166667 z"
         id="use5864" />
      <g
         id="g5771">
        <path
           sodipodi:nodetypes="ccccccccc"
           inkscape:connector-curvature="0"
           style="fill:#aa0000;fill-rule:evenodd;stroke:#aa0000;stroke-width:1px"
           d="m -1.0666699,-5.0472339 h 4.4333333 l 0.6333333,0.6333333 V 0.01943274 L 3.3666634,0.65276607 H -1.0666699 L -1.7000032,0.01943274 V -4.4139006 Z"
           id="path8011" />
        <path
           inkscape:connector-curvature="0"
           id="path8023"
           d="m -0.43333658,-3.8755672 c 0,0 3.16666668,3.16666661 3.16666668,3.16666661"
           style="fill:none;stroke:#ffffff;stroke-width:1.70000005" />
        <path
           inkscape:connector-curvature="0"
           id="path8025"
           d="m 2.7333301,-3.8755672 c 0,0 -3.16666668,3.16666661 -3.16666668,3.16666661"
           style="fill:none;stroke:#ffffff;stroke-width:1.79999995;stroke-linejoin:round" />
      </g>
    </symbol>
  </defs>
  <metadata
     id="metadata5">
    <rdf:RDF>
      <cc:Work
         rdf:about="">
        <dc:format>image/svg+xml</dc:format>
        <dc:type
           rdf:resource="http://purl.org/dc/dcmitype/StillImage" />
      </cc:Work>
    </rdf:RDF>
    <inkstitch:min_stitch_len_mm>0.3</inkstitch:min_stitch_len_mm>
    <inkstitch:collapse_len_mm>10.0</inkstitch:collapse_len_mm>
    <inkstitch:inkstitch_svg_version>3</inkstitch:inkstitch_svg_version>
  </metadata>
  <g
     transform="translate(2.1426333,-24.621423)"
     inkscape:label="Guide Lines"
     id="layer2-3"
     inkscape:groupmode="layer"
     style="display:inline;opacity:1;stroke-width:1.6621">
    <path
       id="path1669"
       style="opacity:0.5;fill:none;stroke:#02ff00;stroke-width:0.482482"
       inkscape:label="guideline inner not stitched"
       d="M 29.409717,75.547888 C 17.533493,75.564804 6.9319861,64.102358 10.683662,50.836265 13.602574,40.51486 24.335972,34.513954 34.657377,37.432867 44.978782,40.351779 50.979688,51.085177 48.060776,61.406582 45.644117,69.951996 37.870861,75.535837 29.409717,75.547888"
       sodipodi:nodetypes="csssc" />
    <path
       id="path2356"
       style="opacity:0.5;fill:none;stroke:#00ff00;stroke-width:0.48578"
       inkscape:label="guideline outer not stitched"
       d="M 29.393775,29.360706 C 21.311236,29.355746 13.320908,32.998868 8.0535121,39.931141 -0.88735184,51.697964 1.4027057,68.485494 13.168499,77.42714 24.934294,86.368786 41.720358,84.078527 50.661221,72.311703 59.602086,60.544881 57.312027,43.757349 45.546233,34.815705 40.712106,31.141916 35.030517,29.364164 29.393775,29.360706"
       sodipodi:nodetypes="cssssc" />
    <use
       id="use3501"
       inkscape:label="Ink/Stitch Befehl: Ebene ignorieren (keine Objekte in dieser Ebene nähen)"
       xlink:href="#inkstitch_ignore_layer"
       height="100%"
       width="100%"
       x="0"
       y="-10"
       transform="matrix(0.264583,0,0,0.264583,-1.297128,26.104702)" />
  </g>
  <g
     style="display:inline;opacity:1"
     id="layer1"
     inkscape:groupmode="layer"
     inkscape:label="Patch"
     transform="translate(-114.128, -58.0503)">
    <path
       inkscape:label="positioning/cutting line"
       inkscape:connector-curvature="0"
       id="path3362"
       d="M 176.44785,89.550345 A 30.820268,30.820601 0 0 1 145.62764,120.37095 30.820268,30.820601 0 0 1 114.80735,89.550345 30.820268,30.820601 0 0 1 145.62764,58.729744 30.820268,30.820601 0 0 1 176.44785,89.550345 Z"
       style="display:inline;fill:none;fill-opacity:1;stroke:#ff0000;stroke-width:0.35948741;stroke-miterlimit:4;stroke-dasharray:0.35948746, 0.35948746;stroke-dashoffset:0;stroke-opacity:1"
       inkstitch:running_stitch_length_mm="2.3"
       inkstitch:trim_after="True"
       inkstitch:stop_after="True"
       inkstitch:fill_underlay="False" />
    <path
       inkscape:label="fixing line"
       inkscape:connector-curvature="0"
       id="path3362-3"
       d="M 175.5276,89.550342 A 29.900004,29.900332 0 0 1 145.62761,119.45068 29.900004,29.900332 0 0 1 115.7276,89.550342 29.900004,29.900332 0 0 1 145.62761,59.650015 29.900004,29.900332 0 0 1 175.5276,89.550342 Z"
       style="display:inline;fill:none;fill-opacity:1;stroke:#000000;stroke-width:0.20000002;stroke-miterlimit:4;stroke-dasharray:0.2, 0.2;stroke-dashoffset:0;stroke-opacity:1"
       inkstitch:trim_after="True"
       inkstitch:stop_after="True"
       inkstitch:running_stitch_length_mm="2"
       inkstitch:fill_underlay="False" />
  </g>
  <g
     transform="translate(0, -21)"
     inkscape:label="Embroidery"
     id="layer2"
     inkscape:groupmode="layer"
     style="opacity:1;display:inline">
    <g
       inkscape:groupmode="layer"
       id="layer4"
       inkscape:label="Penguin Scribble"
       style="display:inline;stroke-width:1.6621"
       transform="matrix(0.566773 -0.201866 0.201866 0.566773 -5.78111 33.9583)"
       inkscape:transform-center-x="-1.2315134"
       inkscape:transform-center-y="7.5971977">
      <path
         style="fill:none;stroke:#e8e8e8;stroke-width:0.439763;stroke-linejoin:round;stroke-dasharray:none;stroke-opacity:1"
         d="M 11.142062,79.294004 C 10.336209,79.34872 8.6005008,76.311323 8.5123378,77.150536 8.3875969,78.337928 10.373501,79.106076 11.155315,79.012195 12.347287,78.869062 11.824839,74.356832 11.916994,75.194997 11.652978,76.372191 12.58455,78.870031 13.45403,76.811617 13.816823,75.745565 15.235085,71.553362 14.703377,74.832256 14.079024,77.769468 17.004302,74.263603 17.193296,73.350895 18.19517,71.220258 16.940453,76.219385 18.048161,73.73855 18.849669,72.684078 19.633275,69.787549 20.556856,69.936456 20.325847,70.853376 19.439309,73.263279 20.519765,71.141927 20.886658,70.116159 22.451417,67.340222 21.773656,70.095526 21.224712,71.32516 20.938361,72.8143 21.869999,70.731054 22.480222,69.656293 23.328851,66.816973 24.572134,67.252691 24.78496,68.204097 22.781363,72.036917 24.464773,69.628054 25.68167,68.126612 26.923332,63.973242 28.349353,64.079805 28.087468,65.088905 26.644829,67.769539 26.6921,67.437527 27.775735,65.098327 28.506786,62.495838 30.21485,60.515603 29.861521,61.51024 28.442645,64.094122 28.161934,63.958822 28.877771,61.953485 30.067203,60.152082 31.200494,58.364961 30.445554,60.259405 28.988021,61.835028 28.30221,63.727872 29.797526,62.588201 30.565589,60.653801 31.874071,59.273431 32.509894,58.206132 35.298963,55.568327 33.627681,58.366296 32.597196,60.455194 30.998591,62.380195 30.455559,64.640553 32.366351,62.532673 33.930152,60.028996 35.730481,57.782465 36.096042,56.80033 38.829884,54.172825 36.959418,56.639253 35.805072,58.512117 34.313058,60.277914 33.43517,62.255246 35.181599,60.616219 36.426477,58.052779 37.28031,55.72248 37.296085,52.983758 34.831953,56.458298 34.682125,57.596965 33.108657,60.6147 31.455878,63.836262 30.773983,67.093287 33.147957,63.41194 35.217025,59.498663 37.843234,55.9903 37.786435,58.032276 36.030149,60.126591 35.248789,62.138308 34.318469,64.234732 32.887865,66.296236 32.584715,68.563232 34.757248,66.931074 35.795757,64.106604 38.098412,62.618807 37.550577,64.841967 35.632182,66.825179 34.446233,68.876555 33.528363,69.919024 32.607471,72.32247 31.908062,72.727139 33.089844,69.543158 34.906805,66.584163 35.830959,63.315839 33.70625,64.991173 32.292764,67.581272 30.586237,69.707143 29.757546,70.462861 28.317046,73.779809 27.740194,73.250337 28.377475,70.706049 30.120803,68.615274 30.954564,66.155249 28.832564,68.193855 27.470719,70.99067 25.888894,73.479065 25.300523,74.379405 23.810712,77.06177 25.357281,74.834403 26.576406,73.316143 27.398333,71.103872 29.022979,70.138575 28.818573,73.383704 26.674627,76.137499 25.934891,79.215011 27.523819,77.670745 28.682802,75.64974 30.121926,73.93148 28.610353,76.219084 26.817891,78.428063 24.590399,80.030763 23.491387,78.387806 25.592746,75.915726 26.040439,74.036586 26.149665,72.154033 23.18622,76.241815 22.460966,76.980764 20.955038,78.385034 19.924116,81.081927 18.267217,81.848594 18.341232,80.777811 20.222342,78.283009 19.814556,78.103131 17.689654,80.939714 15.697188,80.657696 13.907736,83.71253 16.571053,82.802739 16.235202,82.187247 17.323654,82.641917 18.195488,83.206507 18.47349,83.70669 17.864226,85.659337 17.330399,86.527715 16.678401,88.744882 17.985223,86.837849 19.743256,84.730723 21.113689,82.141341 23.444637,80.613688 23.541891,82.730694 21.167873,84.887596 21.102,87.250221 22.672107,86.535719 23.600481,84.139585 24.891963,82.761831 25.392056,81.646293 28.983522,78.323788 27.640315,81.512767 26.988033,82.958277 25.148529,85.825947 25.25607,86.607998 27.319497,83.984978 28.8196,80.813203 31.621759,78.86512 32.07319,80.823607 29.313366,83.480925 28.798316,85.781332 29.197817,86.682536 30.685815,83.545095 31.292556,82.850459 32.279739,81.493487 33.450639,79.148546 34.791543,78.732778 34.125806,80.168484 32.864791,83.119215 31.599711,83.096261 32.215154,79.729347 33.827843,76.611151 34.501545,73.2738 32.408193,74.58917 31.225125,77.105905 29.540955,78.92739 28.342059,79.461718 30.144374,76.414568 30.437753,75.5442 31.157466,74.095908 31.890726,72.224398 32.820805,71.132122 31.764531,73.941756 29.742441,76.362861 29.209182,79.369295 31.005315,79.362961 32.548823,75.30777 34.478666,76.41504 34.410582,79.190023 32.783981,81.607785 31.857471,84.14029 33.591759,82.251361 34.653492,79.597504 36.578579,77.763737 36.344253,80.188194 34.257103,82.54587 33.087652,84.82622 32.361337,85.997305 31.834637,87.240971 33.041052,85.339974 33.885496,84.368317 35.958926,80.416133 37.093495,82.263896 37.302508,83.270449 35.16597,86.170426 35.970887,85.94978 37.552935,84.465042 38.577043,81.710257 40.701665,81.186616 40.630629,82.216875 38.207197,85.024244 39.36578,84.984256 40.574711,84.092179 42.473423,80.903761 43.671525,81.829317 43.874833,82.868744 41.176439,85.992628 42.197107,85.605461 43.861583,83.35925 46.310165,75.207416 48.079731,73.051004 47.572356,73.727864 54.070292,92.87083 51.794592,95.806605 50.82084,96.640539 50.139905,98.014516 48.830666,96.052356 48.550799,95.702523 48.721349,94.284463 48.594858,93.778498 48.459902,93.238676 48.824862,92.830595 48.931726,92.296279 49.092073,91.494541 49.146125,90.241464 48.864352,89.466588 48.78296,89.242759 48.403396,88.497347 48.123243,88.590732 47.062019,88.944473 45.739367,91.909232 45.360926,92.902641 45.200339,93.324181 45.088902,93.75303 44.956684,94.182739 44.95653,94.18324 44.666424,95.079361 44.754563,94.991222 44.787216,94.95857 44.641349,94.592194 44.619816,94.452234 44.446915,93.328379 44.39619,92.185894 43.878707,91.150928 43.846946,91.087408 43.850727,91.007898 43.811333,90.948807 43.697583,90.778182 43.045549,91.688971 43.00285,91.75729 42.874655,91.962403 42.841527,92.214683 42.733356,92.431026 42.573224,92.751289 42.301423,93.026326 42.194367,93.374256 42.147666,93.526035 42.161442,93.690852 42.126993,93.845871 42.060962,94.143012 41.484334,95.404343 40.981642,95.260717 40.160979,95.026241 39.432158,91.690132 39.027808,90.881434 38.811932,90.449681 38.69527,90.568493 38.421446,90.881434 38.075127,91.277227 37.824767,91.752346 37.612963,92.228905 37.171393,93.222438 37.101728,94.131252 36.534986,92.431026 36.413197,92.065659 36.400239,91.79184 36.400239,91.420422 36.400239,90.849182 36.534986,90.308122 36.534986,89.736083 36.534986,89.713625 36.54654,89.784199 36.534986,89.803456 36.359135,90.096541 36.156414,90.378532 35.995997,90.679313 35.415917,91.766963 35.895188,91.083051 35.322261,92.228905 34.972247,92.928934 34.547335,93.622941 34.17691,94.317487 34.010343,94.629801 33.918515,94.999936 33.772669,95.32809 33.714982,95.457884 33.716709,95.850513 33.637921,95.732332 33.450494,95.451191 33.304234,94.230738 33.23368,93.913245 33.00843,92.899621 32.817055,91.893363 32.627318,90.881434 32.595873,90.713728 32.59127,90.135603 32.492571,89.938203 32.428343,89.809748 31.906001,91.224299 31.818835,91.420422 31.47977,92.183317 31.11498,92.937357 30.673484,93.643751 30.66485,93.657564 30.604506,93.911641 30.538737,93.845871 30.317701,93.624836 30.36619,92.92399 30.269242,92.633147 30.013232,91.865116 29.794313,91.309966 29.730253,90.477192 29.70854,90.19492 29.730253,89.886036 29.730253,89.601335 29.730253,89.578878 29.752711,89.533962 29.730253,89.533962 29.671663,89.533962 29.437292,89.876735 29.393386,89.938203 28.788656,90.784825 28.349873,91.722202 27.843793,92.633147 27.632812,93.012913 27.641023,92.904588 27.506925,93.306883 27.48562,93.370799 27.544297,93.565062 27.506925,93.509004 27.009337,92.762621 27.102684,91.206846 27.102684,90.342445 27.102684,90.187708 27.177714,89.751396 27.102684,89.601335 27.094246,89.58446 26.922653,89.713992 26.563695,90.072951 26.348831,90.287815 25.084435,92.937807 25.014102,92.902641 24.654974,92.723077 24.469277,90.140324 24.003499,90.140324 23.481373,90.140324 23.067538,91.016181 22.588653,91.016181 22.566195,91.016181 22.588653,90.971265 22.588653,90.948807 22.588653,90.653212 22.578158,90.35734 22.52128,90.072951 22.265449,88.793795 22.531681,87.471619 22.386532,86.165283 22.328943,85.646981 22.175076,85.138031 22.117038,84.61569 22.105649,84.513188 22.184412,84.221707 22.184412,84.278822 22.184412,84.30128 22.101158,84.262942 22.117038,84.278822 23.089873,85.251657 23.971423,86.335328 24.946729,87.310634 25.295007,87.658911 25.676428,87.972959 26.024706,88.321237 26.193514,88.490045 26.339116,88.680563 26.496321,88.860226 26.563695,88.882684 26.639352,88.888206 26.698442,88.9276 26.717128,88.940057 26.682562,89.010853 26.698442,88.994973 26.858979,88.834436 27.306047,87.242018 27.574299,86.973766 27.752752,86.795313 29.191265,88.76801 29.191265,87.984369 29.191265,87.087418 28.991073,86.190362 28.92177,85.289426 28.914239,85.19152 28.921175,84.480347 28.989144,84.548316 29.572581,85.131753 29.860068,85.941302 30.269242,86.636898 30.535769,87.089994 31.263764,88.174103 31.54934,88.792852 31.701382,89.122276 31.797042,89.476146 31.953582,89.803456 32.150365,90.214912 32.357823,90.317881 32.357823,90.746686 32.357823,90.769144 32.345366,90.697999 32.357823,90.679313 32.472675,90.507036 32.60486,90.342445 32.762065,90.207698 32.815986,90.16148 32.907371,90.182935 32.964186,90.140324 33.167451,89.987875 33.362235,89.812744 33.503174,89.601335 33.542568,89.542245 33.520331,89.449432 33.570548,89.399215 33.663144,89.306619 33.81482,89.28969 33.907416,89.197094 34.035445,89.069064 34.063802,88.866864 34.17691,88.725479 34.747332,88.012452 34.762685,87.044891 34.850646,86.165283 34.868651,85.985231 34.900818,85.104507 34.985393,85.019932 35.020902,84.984423 35.032985,85.108522 35.052767,85.154679 35.155935,85.395404 35.35064,85.589086 35.457008,85.828415 35.89075,86.804333 36.202377,87.797349 36.871854,88.658105 37.356173,89.280802 37.582096,86.816458 37.612963,86.569524 37.6461,86.304427 37.680337,86.029902 37.680337,85.761041 37.680337,85.716125 37.640163,85.606207 37.680337,85.626294 37.752761,85.662506 37.763246,85.766209 37.815084,85.828415 38.13365,86.210694 40.253607,89.12972 40.712148,89.12972 41.104334,89.12972 41.217278,86.73882 41.251137,86.569524 41.265065,86.499885 41.247492,86.367403 41.31851,86.367403 41.600226,86.367403 42.597263,87.406305 43.00285,87.580128 43.311389,87.712359 43.356638,86.232656 43.407092,86.232656 43.533052,86.232656 43.444267,86.327139 43.474465,86.367403 43.899915,86.934669 44.394331,87.489389 44.889311,87.984369 45.312714,88.407773 45.742342,87.98503 45.967288,87.580128 46.132558,87.282641 46.230836,87.102566 46.236782,87.108513 46.284711,87.156442 46.236682,87.478918 46.304156,87.580128 46.620868,88.055196 46.915135,88.509977 47.382133,88.860226 47.418066,88.887175 47.36793,88.76809 47.382133,88.725479 47.484403,88.41867 47.523763,88.354198 47.584254,88.051743 47.710993,87.418046 47.871227,86.746537 47.921122,86.097909 47.950403,85.71725 47.889417,85.333023 47.921122,84.952558 47.922329,84.938071 48.022609,84.313789 48.055869,84.413569 48.077174,84.477485 48.034564,84.551774 48.055869,84.61569 48.093917,84.729833 48.347257,84.972757 48.392737,85.154679 48.519475,85.661632 48.578917,86.204386 48.662231,86.704271 48.712942,87.008533 48.900882,87.285475 48.999099,87.580128 49.09258,87.860569 49.032932,88.35536 49.133846,88.658105 49.273526,89.077144 49.587723,89.486075 49.807582,89.87083 49.892245,90.018989 49.928578,90.28813 50.009703,90.409819 50.037559,90.451602 50.116595,90.435409 50.14445,90.477192 50.200007,90.560527 50.246477,91.324194 50.279197,91.487796 50.289046,91.537038 50.324113,91.577627 50.346571,91.622543 50.369029,91.645001 50.406242,91.659105 50.413945,91.689917 50.472925,91.925838 50.372217,92.280197 50.481318,92.4984 50.597654,92.731071 50.719557,93.227707 50.750813,93.509004 50.794957,93.906303 51.211165,93.89062 51.289801,94.2838 51.35847,94.627145 50.66624,95.773092 50.531338,95.806605 48.892646,94.351125 50.30455,83.467326 48.085598,79.313285 46.556672,76.451024 42.964308,82.06981 42.789548,81.920626 42.967307,78.867806 44.373937,76.048709 44.805833,73.046962 43.246366,72.697677 41.492091,75.949562 40.102676,77.092278 39.453256,78.084367 36.396187,80.7495 37.48914,77.84935 38.216891,75.738186 39.550448,73.727497 40.426296,71.789099 39.263556,72.758017 37.708995,75.832853 36.559712,75.465108 36.584872,73.812873 38.599957,71.142977 37.998805,70.189788 37.053734,70.569712 34.4259,73.752892 35.636021,70.947267 36.045592,70.042213 37.59625,66.074287 35.91109,68.76408 34.944629,69.789496 34.798955,70.916453 36.187337,69.534542 37.324761,68.149552 41.656372,64.922764 41.311043,68.73689 41.132672,69.682817 39.34742,73.221245 41.428273,71.237528 42.300857,70.292936 45.68364,67.139197 45.23342,70.321995 44.973906,71.489501 43.149062,74.780738 43.062549,74.344492 43.623439,73.246044 45.278682,70.405467 45.768528,70.540634 45.402274,71.709766 44.192316,73.449982 43.989373,74.06539 44.876677,73.000457 46.275785,70.028311 47.498296,70.850919 46.874345,73.031519 45.700533,72.318491 46.380684,70.499647 46.422825,68.950585 48.365884,65.050524 46.139347,64.851472 44.54458,65.331858 42.750117,69.054338 41.379382,67.798971 41.209158,66.437525 43.188918,64.009785 42.706106,63.510316 41.854047,64.202268 38.802291,67.847896 39.58348,64.760527 39.733002,63.49344 41.856122,59.105679 38.955944,60.890304 36.552855,62.49116 39.405284,58.751039 39.858149,57.876871 40.391473,56.830642 42.210768,54.879313 40.948205,57.246191 40.480887,58.809267 38.410558,61.115022 38.8355,62.237857 41.274032,60.559257 42.955222,57.757217 45.843768,56.763716 47.848994,57.283506 48.345303,53.848594 49.245262,52.259632 49.515228,51.587271 49.562204,50.864868 49.044303,51.812746 48.906945,50.640939 49.84024,48.69073 48.316974,50.301597 48.301279,49.083993 48.118106,48.859965 47.118408,49.131225 47.104418,46.594204 45.23758,49.162519 44.694128,48.644947 44.682974,47.588059 46.336677,45.572431 44.460673,47.121567 44.337963,45.922648 44.418604,45.01421 43.491256,46.53022 42.071042,48.362145 44.029262,43.465684 42.334289,46.229494 42.288636,45.63251 43.319579,43.056556 41.969079,44.106772 42.340467,42.946134 43.132777,41.849648 42.336027,41.709074 42.68759,40.787772 43.70544,39.01853 42.626122,40.852018 41.077531,43.25272 45.030958,37.141416 43.037118,39.741564 42.781968,40.691535 44.937564,37.133298 46.239689,36.920519 47.315947,36.609065 48.983849,37.54717 47.505749,38.014458 49.203204,35.646533 44.539056,38.107176 44.068107,39.064863 43.592795,39.989284 41.673292,42.525665 43.796909,40.851398 43.515457,42.553959 44.094018,42.290143 45.083809,41.187069 46.919816,39.610984 43.432481,44.098142 45.3496,41.987675 46.233422,41.067283 46.818836,42.322437 47.742777,40.827587 48.621999,40.46234 48.005686,40.434624 48.929069,39.341402 49.71915,38.451034 49.568271,38.298974 49.28528,38.112772 50.504076,36.483291 48.627581,37.847137 48.580399,37.487587 49.884488,36.310578 47.048247,37.259652 48.54753,36.452104 48.706434,38.537966 50.104267,41.414674 47.000672,42.223407 46.596127,42.345286 45.131784,43.790819 45.597803,42.567271 44.867127,43.717378 43.836602,44.614791 44.968038,42.883978 45.298287,41.753186 41.822025,45.902271 44.058033,44.150708 46.124607,43.286293 44.539253,48.44633 46.470415,45.872995 47.633899,45.388019 45.891444,48.590456 47.4255,46.602577 48.211407,45.259473 48.428781,46.300824 48.760234,46.97147 50.563999,45.128721 49.981434,47.869264 50.855736,48.612173 51.724669,48.119628 53.406893,45.475041 52.837262,48.110675 52.016728,50.617672 55.276125,45.407844 54.458419,48.482386 53.377757,51.373646 56.310624,46.540582 54.783553,48.757622 53.885597,50.950221 52.25418,49.557415 51.461845,48.862383 50.332237,49.543236 49.066299,51.854419 51.379299,50.795741 52.567241,50.638771 53.296587,52.920946 54.245167,50.764585 54.784591,49.905659 55.69627,48.724399 55.862121,49.992179 56.442362,49.381952 58.479856,46.239366 56.781568,48.331099 55.195674,50.020157 58.710268,44.22354 56.294775,46.592536 54.431502,47.62982 57.417211,42.011436 55.771418,45.105648 54.408067,48.112544 58.014115,41.851055 55.86521,43.992801 53.419578,46.252356 57.055092,41.38017 54.473654,42.046636 53.604725,41.560093 54.95865,39.429473 53.654393,40.831724 54.128509,39.782682 55.637512,38.60915 54.931258,38.526312 55.829442,36.717626 55.843407,38.097342 55.385724,39.150984 56.430259,38.518714 56.940655,38.075085 57.820944,38.731953 59.226479,38.860399 56.894778,42.279313 59.28888,40.614916 60.90595,40.728181 57.792629,42.908682 59.048613,43.109979 58.662494,44.202332 56.483926,46.373005 58.13275,44.20795 56.354009,45.464273 58.645265,46.391303 57.490468,48.132886 57.295058,49.420466 54.029926,52.034208 53.434202,50.604207 54.022736,49.534331 52.509456,51.777031 52.87916,50.062489 51.33093,50.772942 49.145128,51.143794 50.148167,49.631017 49.772189,50.385796 48.584322,50.37717 49.124091,50.128361 48.59447,51.9809 49.11144,54.738258 47.367029,56.165333 46.439155,57.907676 46.830304,60.469115 45.993484,62.475319 45.781647,63.29534 44.959479,65.339607 46.198646,63.578877 47.513802,62.469881 49.196899,59.303037 50.965708,60.102721 51.099071,62.031224 48.354064,65.459447 48.85872,66.152992 49.525861,65.188735 52.02371,62.804042 50.800227,65.513727 50.332493,67.040289 48.809159,69.386309 48.859549,70.539451 50.040856,69.370306 51.650733,66.195375 53.048005,66.471442 52.881553,68.171657 50.320374,70.775506 50.640477,71.659959 51.354115,70.626765 54.678744,66.881861 53.760772,70.285515 53.513769,72.160118 51.184301,76.019734 51.800187,76.525281 52.829465,75.677127 53.928166,72.404857 55.14064,73.085792 54.753777,75.478317 53.428983,77.65044 52.97774,79.991139 53.710607,79.055634 54.954815,75.997304 55.808674,76.902111 55.334564,78.828818 53.74583,80.944014 53.932399,82.220999 54.353227,80.859694 57.513791,78.436569 56.331307,80.969707 56.07489,81.710123 53.458511,83.968851 54.246726,85.880756 59.954703,78.490127 59.738004,82.598794 55.125333,85.566802 54.560199,87.438325 59.069611,82.935703 58.898714,83.710345 58.945064,83.821235 59.018168,83.924436 59.037764,84.043015 59.053045,84.135486 58.634177,84.614926 58.633522,84.61569 58.225428,85.0918 57.750661,85.508298 57.319737,85.963162 56.729015,86.586702 56.354194,86.561399 55.635397,87.074826 55.299111,87.31503 54.769498,87.8879 54.422673,88.119117 53.644065,88.638172 57.167741,86.955217 58.296654,86.165283 57.947939,86.71731 56.228554,88.470206 55.837518,89.02866 L 55.635398,89.331841 C 55.635398,89.354299 55.645441,89.379128 55.635398,89.399215 55.630376,89.409258 55.590482,89.399215 55.601711,89.399215 56.029375,89.399215 57.820742,88.678799 58.060847,88.287551 58.815748,87.057449 59.650101,85.617269 60.216802,85.323112 60.807454,85.016523 60.004592,87.070685 58.296654,89.12972 57.96697,89.527176 62.697934,86.810719 62.204322,87.714875 61.811522,88.434371 60.008064,89.234508 59.239884,89.668709 58.164583,90.234657 57.027011,90.675033 55.972266,91.285675 55.669122,91.461179 55.34508,91.617601 55.062722,91.824664 55.033736,91.845921 54.018432,92.564395 54.018432,92.59946 54.018432,92.681208 54.179101,92.564289 54.254239,92.532086 64.390484,88.973313 62.8033,90.245022 60.486296,91.521483 58.882806,92.404862 53.766621,95.213505 58.86933,93.138449 60.504987,92.446438 59.954711,92.293816 61.665334,91.723603 61.86744,91.656235 62.288645,91.44574 62.507503,91.555169 62.520867,91.561851 62.435767,91.750788 62.305383,91.892037 61.970501,92.288512 61.614651,92.620971 61.193719,92.936328 60.603492,93.402296 60.039548,94.008118 59.307258,94.216426 55.809539,95.21139 51.516044,98.422938 62.715893,95.337765"
         id="path12"
         sodipodi:nodetypes="csscccccccccccccccccccccccccccccccccccccccccccccccccccccccccccccccccccccccccccccccssssscssssssssssssssssssssssssscssssssssssssssssssssssscssssssssssssssssssssssssssssssssssssssssssssssssssscsssscscccccccccccccccccccccccccccccccccccccccccccccccccccccccccccccccccccccccccccccccccccccccccccccccccccccscssssccsssssssssscsssssssc" />
      <path
         style="fill:none;stroke:#000000;stroke-width:0.439763;stroke-linejoin:round"
         d="M 13.943397,72.100373 13.537265,73.193697 C 13.4937,73.302375 13.448624,73.410457 13.406572,73.519728 13.400443,73.535653 9.9846724,72.506885 9.6591518,73.498036 8.7776634,76.182009 7.3257488,76.970569 6.8061124,74.969256 6.8061124,74.969256 8.6095733,77.393054 9.7137639,73.423668 9.8327353,72.995985 13.419574,74.252252 13.756481,72.810293 14.134202,71.193654 14.822049,70.316571 14.916568,70.128738 14.999368,69.964193 15.190994,69.505726 15.242597,69.682552 15.481171,70.500067 15.026082,71.479332 14.956619,72.290794 14.939515,72.490594 15.146185,71.937329 15.237679,71.758886 15.761581,70.737094 16.179031,69.531769 16.832696,68.588527 16.908928,68.478523 16.870373,68.857761 16.848154,68.989741 16.720585,69.7475 16.477595,70.483922 16.271278,71.222062 16.240738,71.331324 16.166895,71.658516 16.220687,71.558631 16.814388,70.456175 17.371733,69.323846 17.896509,68.187312 18.005498,67.95127 18.59524,66.107833 18.930107,65.894566 19.151424,65.753614 18.870858,66.417345 18.809251,66.672398 18.669293,67.251838 18.498227,67.814964 18.318099,68.382649 18.262097,68.559142 18.198571,68.733188 18.142436,68.909638 18.129916,68.948992 18.088908,69.06388 18.112222,69.029791 18.884914,67.900023 19.323242,66.505311 19.922953,65.282555 20.215604,64.685867 20.412414,64.360213 20.475236,64.419701 20.687659,64.620859 19.983059,66.969065 19.868146,67.35959 19.801193,67.587126 20.062622,66.926893 20.163962,66.712451 20.622611,65.741914 21.087561,64.763766 21.624069,63.832988 22.711672,61.94613 20.329577,67.897684 21.437867,65.869269 21.627988,65.521305 21.81081,65.169393 21.999987,64.820916 22.124286,64.591948 23.567439,61.898344 23.826176,62.072146 24.093781,62.251904 23.542481,63.51444 23.500146,63.62711 23.231706,64.341546 23.135111,64.428189 23.169198,64.409864 23.830564,64.054291 24.868243,60.818058 26.063415,60.120183 26.455329,59.891339 25.894794,61.607345 25.958018,61.590128 26.320312,61.49146 28.327696,57.880501 29.188804,57.256179 29.919527,56.726391 29.257291,58.52901 29.34409,58.615807 29.538861,58.810577 29.716253,58.207817 29.875998,57.983424 30.499026,57.108253 31.022829,56.162466 31.712024,55.334431 32.568822,54.305025 32.24449,56.090653 32.499694,56.03708 32.904303,55.952149 34.233064,53.943845 34.501545,53.503324 34.727049,53.133317 34.919314,52.743935 35.138148,52.369947 35.237306,52.200484 35.427031,51.705824 35.484554,51.893551 35.665722,52.484805 35.31639,53.555622 35.479635,53.373332 36.016181,52.774191 36.232007,51.644999 36.332652,50.879626 36.353998,50.717306 36.385425,50.233495 36.332652,50.388474 36.160159,50.895038 36.14861,51.493917 36.136614,52.023541 36.133873,52.144466 36.096572,52.479463 36.171745,52.384703 36.636687,51.798614 36.703156,49.812855 36.89899,49.048519 36.958053,48.817998 37.032157,48.23311 37.200427,48.401377 37.343273,48.544223 37.228264,49.671242 37.430895,48.983876 37.82179,47.657882 37.969335,46.275452 38.15322,44.909906 38.15965,44.862151 38.296439,43.84485 38.283914,43.861553 37.917082,44.350662 38.170424,45.447484 38.183433,45.427058 38.664242,44.672157 38.773769,43.628876 38.895922,42.768228 38.925751,42.558054 38.951241,42.347192 38.971106,42.135843 38.974701,42.097565 38.982676,41.985877 38.966187,42.020609 38.885735,42.190061 38.481706,43.832504 38.659831,43.841878 39.039699,43.86187 39.808752,39.622554 39.957178,39.177134 40.056709,38.878443 40.132917,38.572471 40.217861,38.269309 40.228027,38.233032 40.256554,38.124055 40.242454,38.158993 39.909161,38.98479 39.202801,40.196624 39.249608,41.1038 39.260969,41.323958 39.08922,40.523843 39.605854,40.546598 39.945404,40.561553 39.895774,39.931043 40.016902,39.613479 40.497222,38.354235 41.444748,37.676941 41.639773,36.351625 41.666117,36.172595 41.698177,35.994366 41.720576,35.814799 41.726783,35.765036 41.743159,35.617496 41.725495,35.664431 41.652594,35.858132 41.146515,37.726958 41.474649,37.711253 41.99565,37.686316 42.709988,36.244268 42.874329,35.955329 43.065845,35.618613 43.245272,35.274395 43.405533,34.921729 43.563246,34.574667 43.692974,34.215456 43.827123,33.85862 43.915536,33.623445 43.997168,33.385646 44.07305,33.146132 44.084255,33.110765 44.110113,33.006172 44.087806,33.035816 43.702959,33.547219 43.374857,34.176829 43.104797,34.756608 43.08616,34.796621 43.037937,34.901457 43.079503,34.886598 43.511538,34.732145 43.764956,34.273262 44.068132,33.928886 44.276666,33.692012 46.4162,30.750417 46.711504,30.933485 46.963001,31.089399 45.025391,33.572233 45.557752,33.542427 46.15453,33.509016 47.035061,32.384201 47.374103,32.017676 47.748367,31.61307 48.779009,30.318646 48.427375,30.743067 48.128226,31.104141 47.915549,31.36515 47.629868,31.771748 45.932949,34.186902 49.632039,30.54545 49.947208,30.281427 51.74407,28.776176 49.069056,32.250647 49.590965,32.217931 50.012925,32.191481 50.288319,31.738556 50.619646,31.475931 50.99637,31.177322 51.367901,30.872115 51.748102,30.577946 52.600116,29.918726 53.722544,29.059248 53.855352,29.293499 54.012782,29.571182 52.28279,31.938314 52.511181,32.172963 52.70383,32.370889 53.81413,31.226363 53.890483,31.159741 54.016081,31.050148 54.376004,30.710907 54.28186,30.848466 53.742219,31.636954 51.854533,33.710472 51.958898,34.616077 52.037461,35.297808 54.089273,32.936362 54.186298,32.815183 54.211391,32.783846 54.124092,32.866258 54.096361,32.895286 53.943405,33.055382 53.791124,33.216262 53.644556,33.382222 53.581638,33.453464 52.42961,34.806138 52.365732,34.881679 52.246164,35.023078 51.891313,35.44729 52.029161,35.323647 52.449713,34.946436 52.746661,34.596649 53.088058,34.119304 53.28481,33.8442 53.481909,33.565541 53.6298,33.261368 55.209371,30.012589 50.673772,32.128827 51.01102,32.594552 51.131414,32.760806 51.321543,32.326003 51.477581,32.192637 51.985573,31.758453 52.712371,30.908455 53.398628,30.763445 53.679243,30.704149 53.232618,31.318157 53.088058,31.565871 52.92377,31.847387 51.138904,34.587711 51.397479,34.656127 51.882232,34.784389 53.133071,33.509939 53.444301,33.271203 53.649961,33.113448 54.212193,32.620968 54.10128,32.855236 53.481274,34.164778 51.689859,35.326126 51.311756,36.693112 51.147733,37.286115 53.562559,34.936234 52.962283,35.724859 52.819318,35.912684 50.903801,38.820743 51.407316,38.909974 51.5157,38.929183 51.901735,38.216945 52.064295,38.28321 52.22232,38.347628 51.555927,39.868527 51.675863,40.098267 51.782146,40.301848 52.473134,39.642751 52.430375,39.86839 52.325304,40.422843 51.578951,41.113006 49.992231,41.438165"
         id="path15"
         sodipodi:nodetypes="ccsscssssssssssssssscssssssssscsssssssssssssssssssccsssssscssssssssssscsssssssssssssssssssssssssssssssssssssc" />
      <g
         inkscape:label="Redwork Gruppe"
         id="g16"
         style="display:inline;stroke-width:1.31929;stroke-dasharray:none">
        <path
           id="underpath_5918"
           style="fill:none;stroke:#000000;stroke-width:1.6621;stroke-linejoin:round;stroke-dasharray:none;stroke-opacity:1"
           transform="scale(0.264583, 0.264583)"
           d="M 187.185,157.145 182.601,159.756 178.073,162.227"
           inkscape:label="Redwork Unterpfad 1"
           inkstitch:running_stitch_length_mm="2.5"
           sodipodi:nodetypes="ccc" />
        <path
           style="display:inline;opacity:1;fill:none;stroke:#000000;stroke-width:0.439764;stroke-linejoin:round;stroke-dasharray:none;stroke-opacity:1"
           d="M 46.725338,40.641447 C 47.153455,40.599891 47.631778,40.341452 47.783295,40.013992 48.00011,39.545409 47.627984,38.684122 47.0869,38.630431 45.588577,38.481754 45.65794,39.879678 46.073001,40.428453 46.209201,40.60853 46.45744,40.667451 46.725338,40.641447"
           id="path9"
           sodipodi:nodetypes="csssc"
           inkstitch:bean_stitch_repeats="1" />
        <path
           id="redwork_8984"
           style="fill:none;stroke:#000000;stroke-width:0.439764;stroke-linejoin:round;stroke-dasharray:none;stroke-opacity:1"
           d="M 47.245336,43.127544 47.286876,43.093942 C 51.395772,44.857015 53.123001,43.542749 54.396221,44.392516"
           inkscape:label="Redwork 10"
           inkstitch:running_stitch_length_mm="2.5"
           inkstitch:bean_stitch_repeats="1"
           sodipodi:nodetypes="ccc" />
        <path
           id="underpath_2722"
           style="fill:none;stroke:#000000;stroke-width:0.439764;stroke-linejoin:round;stroke-dasharray:none;stroke-opacity:1"
           d="M 54.407525,44.36078 C 51.761761,43.490351 51.243635,44.687334 48.00397,43.368744 47.746543,43.300593 47.534083,43.087639 47.25664,43.095808"
           inkscape:label="Redwork Unterpfad 9"
           inkstitch:running_stitch_length_mm="2.5"
           sodipodi:nodetypes="ccc" />
        <path
           id="underpath_7333"
           style="fill:none;stroke:#000000;stroke-width:1.66210077;stroke-linejoin:round;stroke-dasharray:none;stroke-opacity:1"
           transform="scale(0.264583, 0.264583)"
           d="M 178.608,162.882 180.297,164.95 182.476,167.186 184.607,168.97 186.685,170.339 188.708,171.331 190.671,171.98 192.572,172.325 194.406,172.4 196.171,172.243 197.862,171.89 199.477,171.378 201.012,170.743 203.826,169.249 206.278,167.702 205.207,166.148 204.179,164.434 202.047,160.944 200.842,159.377 199.477,158.069 198.382,157.414"
           inkscape:label="Redwork Unterpfad 7"
           inkstitch:running_stitch_length_mm="2.5" />
        <path
           id="underpath_5713"
           style="fill:none;stroke:#000000;stroke-width:1.6621;stroke-linejoin:round;stroke-dasharray:none;stroke-opacity:1"
           transform="scale(0.264583, 0.264583)"
           d="M 198.382,157.414 197.9,157.125 196.061,156.649 191.577,156.529 189.335,156.653 187.185,157.145"
           inkscape:label="Redwork Unterpfad 2"
           inkstitch:running_stitch_length_mm="2.5"
           sodipodi:nodetypes="cccccc" />
        <path
           id="redwork_1855"
           style="fill:none;stroke:#000000;stroke-width:0.439764;stroke-linejoin:round;stroke-dasharray:none;stroke-opacity:1"
           d="M 49.514665,41.609631 48.301817,42.300457 47.103785,42.954242 47.245337,43.127544"
           inkscape:label="Redwork 6"
           inkstitch:running_stitch_length_mm="2.5"
           inkstitch:bean_stitch_repeats="1" />
        <path
           id="redwork_5384"
           style="fill:none;stroke:#000000;stroke-width:0.439764;stroke-linejoin:round;stroke-dasharray:none;stroke-opacity:1"
           d="M 47.245337,43.127544 47.692218,43.674702 48.268744,44.266309 48.83257,44.738325 49.382374,45.100539 49.917625,45.363006 50.437002,45.53472 50.939974,45.626001 51.425219,45.645845 51.892208,45.604305 52.339618,45.510908 52.76692,45.375441 53.173054,45.207431 53.917591,44.812144 54.566349,44.402834 54.28298,43.991672 54.010989,43.538177 53.446898,42.614782 53.128075,42.200181 52.76692,41.854106 52.477201,41.680804"
           inkscape:label="Redwork 8"
           inkstitch:running_stitch_length_mm="2.5"
           inkstitch:bean_stitch_repeats="1"
           sodipodi:nodetypes="ccccccccccccccccccccc" />
        <path
           id="redwork_9166"
           style="fill:none;stroke:#000000;stroke-width:0.439764;stroke-linejoin:round;stroke-dasharray:none;stroke-opacity:1"
           d="M 52.477201,41.680804 52.349672,41.60434 51.863104,41.478398 50.676714,41.446648 50.083519,41.479456 49.514665,41.609631"
           inkscape:label="Redwork 5"
           inkstitch:running_stitch_length_mm="2.5"
           inkstitch:bean_stitch_repeats="1" />
        <path
           style="fill:none;stroke:#000000;stroke-width:1.6621;stroke-linejoin:round;stroke-dasharray:none;stroke-opacity:1"
           d="M 189.394,156.455 190.909,150.377 191.454,147.34 191.819,144.377 191.974,141.542 191.89,138.889 191.536,136.473 190.885,134.349 189.906,132.57 188.57,131.191 187.759,130.669 186.847,130.267 185.832,129.992 184.709,129.851 182.125,129.998 179.066,130.763 175.503,132.199 171.406,134.362 169.206,135.924 167.127,137.581 163.337,141.152 160.048,145.007 157.272,149.082 155.018,153.311 153.299,157.628 152.124,161.967 151.505,166.262 151.453,170.448 151.643,172.479 151.978,174.459 152.461,176.378 153.092,178.229 153.873,180.003 154.806,181.692 155.89,183.289 157.129,184.783 158.523,186.169 160.074,187.436 161.783,188.578 163.652,189.585 165.681,190.45 167.872,191.165 177.29,193.826 186.286,196.139 190.584,196.996 194.729,197.565 198.704,197.777 202.492,197.566 206.079,196.864 207.791,196.308 209.447,195.604 211.044,194.743 212.581,193.718 214.055,192.519 215.464,191.139 216.807,189.569 218.082,187.8 219.285,185.825 220.416,183.634 221.473,181.219 222.453,178.573 224.175,172.549 224.716,170.464 225.057,167.946 225.198,165.082 225.143,161.962 224.892,158.675 224.449,155.308"
           transform="scale(0.264583, 0.264583)"
           id="path3"
           sodipodi:nodetypes="cccccccccccccccccccccccccccccccccccccccccccccccccccccccccccccccccccc" />
        <path
           style="display:inline;opacity:1;fill:none;stroke:#000000;stroke-width:0.439764;stroke-linejoin:round;stroke-dasharray:none;stroke-opacity:1"
           d="M 57.998283,41.007916 C 57.910861,39.904946 56.554049,38.917554 55.360456,40.692303 54.716412,41.649929 56.403089,43.105819 57.557175,42.099398 57.902766,41.798026 58.029029,41.395823 57.998283,41.007916"
           id="path10"
           sodipodi:nodetypes="cssc"
           inkstitch:bean_stitch_repeats="1" />
        <path
           style="fill:none;stroke:#000000;stroke-width:1.6621;stroke-linejoin:round;stroke-dasharray:none;stroke-opacity:1"
           d="M 224.449,155.308 223.816,151.95 222.994,148.689 221.985,145.615 220.793,142.816 219.418,140.38 217.864,138.395 216.131,136.951 215.199,136.459 214.223,136.136 213.204,135.991 212.142,136.037 211.036,136.285 209.888,136.745 207.669,138.069 205.653,139.773 203.851,141.846 202.274,144.275 200.934,147.05 199.84,150.157 199.004,153.585 198.437,157.323 198.382,157.414"
           transform="scale(0.264583, 0.264583)"
           id="underpath_8630"
           sodipodi:nodetypes="ccccccccccccccccccccccc" />
        <path
           id="redwork_7909"
           style="fill:none;stroke:#000000;stroke-width:0.439764;stroke-linejoin:round;stroke-dasharray:none;stroke-opacity:1"
           d="M 52.477201,41.680804 52.491753,41.656727 52.641772,40.667716 52.862963,39.760725 53.152417,38.938666 53.506958,38.204448 53.924206,37.561776 54.400984,37.013295 54.934383,36.562446 55.521493,36.212138 55.825234,36.09043 56.117863,36.024813 56.39885,36.012642 56.66846,36.051007 56.926693,36.136467 57.173285,36.266642 57.631807,36.6487 58.042969,37.173897 58.406771,37.818421 58.722154,38.558989 58.989118,39.372317 59.206605,40.235123 59.374086,41.123592 59.491296,42.014443 59.557707,42.884128 59.572259,43.709627 59.534953,44.467392 59.44473,45.133612 59.30159,45.685268 58.845979,47.279116 58.586687,47.979202 58.307023,48.61817 58.00778,49.197872 57.689486,49.720423 57.352143,50.18847 56.996808,50.603866 56.624011,50.96899 56.234015,51.286225 55.827351,51.557423 55.404812,51.785229 54.966663,51.971495 54.513697,52.118603 53.564637,52.304341 52.562397,52.360168 51.510679,52.304076 50.413983,52.153528 49.276805,51.926781 46.896617,51.3148 44.404774,50.610745 43.825072,50.421568 43.288234,50.192704 42.793728,49.926269 42.341556,49.624115 41.931187,49.288888 41.562359,48.922176 41.23454,48.526889 40.947732,48.10435 40.700876,47.657469 40.494237,47.188099 40.327285,46.698356 40.199492,46.190621 40.110856,45.666747 40.060586,45.129379 40.074344,44.021834 40.238121,42.885451 40.549006,41.737425 41.003824,40.59522 41.600194,39.476299 42.334676,38.398123 43.20489,37.378155 44.207659,36.433329 44.757728,35.994915 45.33981,35.581637 46.423807,35.009344 47.366516,34.629403 48.175875,34.426997 48.859558,34.388103 49.156685,34.425409 49.425236,34.498169 49.666536,34.604532 49.881113,34.742644 50.234596,35.107504 50.493622,35.578197 50.665866,36.140171 50.759528,36.779404 50.781753,37.481343 50.740743,38.231436 50.64417,39.015395 50.499972,39.818934 50.099129,41.427069"
           inkscape:label="Redwork 4"
           inkstitch:running_stitch_length_mm="2.5"
           inkstitch:bean_stitch_repeats="1"
           sodipodi:nodetypes="cccccccccccccccccccccccccccccccccccccccccccccccccccccccccccccccccccccccccccccccccccccccccc" />
      </g>
      <path
         style="fill:none;stroke:#000000;stroke-width:0.439763;stroke-linejoin:round"
         d="M 51.071627,41.018018 C 51.17609,39.627283 52.780636,38.873721 53.037467,37.936805 53.35925,36.76293 53.562464,34.768432 54.492654,33.838242 54.63655,33.694348 55.471811,33.298582 55.626031,33.196022 56.044853,32.917487 56.493777,32.537519 56.955446,32.328246 57.065732,32.278256 56.856669,32.549928 56.795241,32.654277 56.585688,33.010244 56.149782,34.10958 55.696296,34.229619 55.563251,34.264838 55.794198,33.97047 55.86704,33.853702 56.047385,33.564605 57.581895,31.68641 57.407248,31.535658 56.79986,31.011365 55.654254,32.146393 54.983808,31.736614 54.401031,31.380422 55.809258,30.279268 55.972437,30.121222 55.976324,30.11746 56.46921,29.633759 56.46921,29.669417 56.46921,30.342631 55.070472,31.808729 55.018939,32.834857 54.966126,33.886531 57.036228,31.618044 56.990577,32.137828 56.912459,33.027268 54.839118,36.114019 57.231586,35.474013 58.180829,35.220084 62.604271,32.78851 60.090671,35.498606 59.952476,35.647606 59.617387,35.991008 59.428773,36.161207 59.352317,36.2302 59.532101,35.982375 59.594601,35.900524 60.012558,35.353146 61.139405,34.360945 60.9992,33.577559 60.869416,32.852418 57.612406,35.016331 57.557616,34.139679 57.524678,33.612664 58.849624,32.950755 59.248193,33.306337 60.054854,34.025993 58.578088,35.58223 59.142796,36.271522 59.448477,36.64464 61.53832,34.886407 61.600667,35.032047 61.619717,35.076542 60.231533,37.430101 60.106131,37.685958 59.994286,37.914151 59.885725,38.145929 59.810313,38.388607 59.419704,39.645637 60.895616,38.114996 60.964066,38.187651 60.976388,38.200729 60.375521,40.454848 60.240113,40.810416 60.113488,41.142921 59.948616,42.166527 60.285399,42.28129 60.898587,42.490242 60.986069,41.860763 61.400411,41.554048 61.585755,41.416851 61.755736,41.259945 61.937238,41.117702 61.980031,41.084163 62.098237,40.978981 62.072847,41.027061 61.370162,42.357754 59.381751,43.79768 60.449267,45.157414 60.945782,45.789843 61.373042,43.312175 60.667873,44.14541 59.89607,45.05738 60.07005,45.513047 59.767155,46.669004 59.690569,46.961287 58.392381,51.506052 58.525486,51.2348 62.725978,42.674658 57.439573,50.434301 57.40233,52.721274 57.38921,53.526942 59.389893,51.691034 59.41402,51.783233 59.434208,51.860381 59.313291,51.906889 59.262949,51.968735 59.109289,52.157502 58.951799,52.343216 58.80201,52.535071 58.228629,53.269488 57.428611,54.790961 56.7046,55.304216 56.644635,55.346726 56.751997,55.164516 56.785403,55.099042 56.927852,54.81984 57.084848,54.548291 57.231586,54.271319 57.466232,53.828425 58.550418,52.283174 58.385339,51.697511 58.272367,51.296712 55.594093,55.197991 55.450366,55.148932 55.392277,55.129101 55.746856,54.495183 56.027243,54.009935 56.214401,53.686035 56.410137,53.367161 56.604119,53.047304 56.739686,52.823766 56.883373,52.605154 57.015874,52.379784 57.040954,52.337123 57.113823,52.211906 57.0763,52.244175 56.242359,52.96132 54.111905,56.967857 53.378954,56.984957 53.251779,56.987923 53.360261,56.72374 53.403547,56.604119 53.63765,55.957162 54.25446,54.878541 54.577675,54.306453 54.785304,53.938952 55.215937,53.278219 55.139796,53.242641 54.864044,53.113783 53.130216,55.176081 52.917312,55.425072 52.734844,55.638469 52.557309,55.856891 52.36011,56.056754 52.313276,56.104226 52.173626,56.226778 52.19007,56.162154 52.484414,55.005271 53.608739,53.959627 54.291698,53.017089 54.399076,52.868895 53.992652,53.231475 53.865187,53.362793 53.615362,53.620169 51.722091,55.790467 51.542928,55.690674 51.356556,55.586865 52.344751,53.800261 52.471129,53.584128 52.57235,53.411019 52.931565,52.933319 52.786621,53.071894 52.237338,53.597045 50.339664,55.457965 49.646474,55.404697 49.128269,55.364871 49.831677,53.600746 49.907158,53.317822 49.94925,53.160054 49.662828,53.534698 49.545996,53.648771 49.239021,53.948493 47.983134,55.369189 47.449287,55.078666 47.126479,54.902991 47.472086,53.405796 47.414153,53.433059 47.073145,53.593534 45.177797,55.205423 44.971038,54.832739 44.656393,54.265589 45.541697,52.94536 45.833892,52.499939 46.080185,52.124493 45.283646,53.21143 44.975957,53.538455 44.348249,54.205613 43.542106,55.22987 42.648076,55.550143 41.865319,55.830554 43.701684,53.035893 43.766694,52.946823 43.862405,52.815696 44.198923,52.462271 44.093428,52.585662 43.822201,52.9029 43.581399,53.102086 43.240409,53.388087 42.967071,53.617349 42.688184,53.83998 42.407768,54.060526 42.133043,54.276595 41.865309,54.503007 41.575127,54.697828 39.619136,56.011053 42.177144,51.970582 41.880782,51.863336 41.049149,51.562396 40.016824,53.509682 39.167143,53.147078 38.474044,52.851298 39.877206,50.849672 40.009622,50.478412 40.070119,50.3088 39.735958,50.712671 39.603492,50.834657 39.129557,51.271095 37.800745,52.518304 37.993015,51.903389 38.109678,51.530281 38.688361,50.643094 38.846035,50.408146 39.007367,50.167746 39.178415,49.933637 39.357564,49.706199 39.440995,49.600281 39.738694,49.324942 39.638623,49.415303 39.454963,49.581141 37.779975,51.03881 37.742169,51.005401 37.617701,50.895405 38.283398,50.025305 38.328883,49.957045 39.06748,48.848613 37.187695,50.902139 38.198893,49.680904 38.394841,49.444256 38.583279,49.200482 38.795444,48.978253 39.388806,48.356744 40.089883,47.857518 40.145234,48.110481 40.250276,48.590543 39.347706,49.310522 39.020993,49.545292 38.938467,49.604596 38.644179,49.66889 38.745554,49.675986 39.850634,49.753342 40.103295,51.578369 40.285765,51.567521 40.675938,51.544325 41.311083,50.627851 41.725495,50.890167 42.251442,51.223079 40.425346,53.805587 40.455805,54.311372 40.471407,54.570412 42.580602,53.33103 42.879248,53.348037 43.647217,53.39177 42.810538,55.127792 43.79691,54.86787 44.641309,54.645358 46.735208,52.734739 47.649542,53.629096 48.409108,54.37207 47.390301,56.21856 48.256631,56.749568 48.875023,57.128605 49.939011,56.398919 50.609809,56.417918 51.522166,56.44376 51.224719,57.498286 51.859121,57.637015 52.731299,57.827743 53.489992,56.604987 54.366882,56.68914 54.831321,56.733712 54.181697,58.147156 54.402013,58.374798 54.816853,58.803433 57.207432,55.776627 56.950527,57.120567 56.752717,58.155358 56.194494,59.105648 55.711753,60.025324 55.435089,60.552401 55.184013,60.983219 55.21498,60.978118 55.41614,60.944987 56.772576,58.072339 56.955446,57.642638 57.01852,57.494423 56.784459,57.916024 56.709518,58.058605 55.896536,59.605367 56.746917,58.037446 55.716672,59.945222 55.235114,60.836955 54.395994,61.955243 54.196839,62.979971 54.138668,63.279278 54.664236,62.578212 54.838359,62.327911 55.135925,61.900162 56.64464,59.530842 56.46921,59.012102 56.403864,58.818872 54.831225,59.070803 54.652859,59.066911 53.369061,59.038883 50.834369,57.384923 50.233188,57.43676 49.701113,57.482639 49.160527,57.969546 48.748486,58.27432 48.508684,58.451694 49.237174,57.932002 49.475731,57.752953 49.745198,57.550705 50.407458,56.908141 50.820602,57.230885 51.57784,57.822427 51.026485,59.601078 51.979274,59.959977 53.1672,60.407451 56.855603,56.621981 57.34682,58.319288 57.798631,59.880428 56.686169,61.676361 56.197989,63.080449 55.462968,65.194478 57.550851,62.506388 57.010955,63.842825 56.373778,65.420067 55.382826,66.856876 54.512328,68.307468 54.101362,68.992299 53.562101,69.630985 53.343823,70.399258 53.321635,70.477347 53.48929,70.317867 53.539159,70.253809 53.762237,69.967239 53.967199,69.665997 54.156085,69.355821 54.425812,68.912895 54.698844,68.468954 54.913543,67.996895 55.345329,67.047525 56.314673,64.321192 55.089205,63.461285 54.316232,62.918895 52.988961,68.045834 53.052924,68.387568 53.114262,68.715273 53.578119,67.961435 53.765412,67.68562 54.52347,66.569274 55.149149,65.34202 55.736346,64.128803 55.768303,64.062776 55.658382,64.253387 55.626031,64.319223 55.50464,64.566259 55.381326,64.812785 55.275408,65.066843 55.031354,65.652234 53.730649,68.786184 54.091442,69.291178 54.346239,69.647812 57.007344,67.569415 57.547779,67.354671 57.884533,67.220864 58.231214,67.12741 58.294698,67.585142 58.521999,69.224058 57.28423,71.168431 56.7046,72.606984 56.537275,73.022255 56.028409,74.159911 56.403864,73.916023 57.240651,73.37246 57.820861,72.114962 58.465441,71.367509 58.684757,71.113191 59.054933,70.430998 59.233437,70.715449 59.476417,71.102642 59.040548,71.610912 58.896868,72.044863 58.391234,73.57202 57.129674,76.399378 57.206292,77.944318 57.227649,78.375012 57.932475,77.44325 58.174543,77.086382 58.925949,75.978627 61.007484,72.205129 60.638036,73.745981 60.46218,74.479422 58.84573,79.103018 58.982591,79.279355 59.309229,79.700198 60.242942,76.645767 61.071267,76.957259 61.384881,77.075191 61.798205,78.347267 61.734374,78.676184 61.475519,80.01006 61.431249,80.5974 61.12919,81.922725 61.031603,82.350892 60.901219,82.775009 60.858669,83.21209 60.727386,84.560615 62.227248,81.427676 62.388339,81.406277 62.533008,81.38706 62.157742,82.533539 62.143113,82.584622 61.886443,83.480906 61.494873,84.340503 61.31539,85.258909 61.27448,85.468255 61.620431,84.955995 61.736279,84.776891 62.091887,84.227116 62.165883,83.997233 62.504277,83.583088 62.542321,83.536527 62.601384,83.399864 62.629348,83.453099 62.815403,83.807294 62.098991,85.251461 62.01734,85.544889 61.979071,85.682412 61.83626,86.062202 61.942156,85.966479 61.962135,85.948418 62.462581,85.161008 62.488817,85.228696 62.519953,85.309024 62.094945,86.220735 62.042635,85.780276 61.958799,85.074373 61.949798,84.338037 61.937238,83.628761 61.929419,83.187372 62.194852,81.387094 61.616126,81.135055 61.21601,80.9608 60.216189,82.973957 60.186233,82.519979 60.093409,81.113367 61.41908,79.14977 60.607823,77.814328 59.945642,76.724292 58.246184,79.524732 57.567454,78.802255 56.983643,78.180818 57.912661,73.334649 57.968668,72.271119 58.110937,69.569517 55.526998,71.81612 55.621112,70.3044 55.771073,67.895646 56.814545,66.579668 58.313955,65.156317"
         id="path1"
         sodipodi:nodetypes="cssssssssssssssssssssssssssssscsssssssssssssssscsssssscsssssssssssssssssscssssssssssssssssssssssssssssssssssssssssssssssssssssssssssssssssssssssssssssssssssssssssc" />
      <path
         style="display:inline;fill:none;stroke:#000000;stroke-width:0.439764;stroke-linejoin:round;stroke-dasharray:none;stroke-opacity:1"
         d="M 59.048139,65.080019 C 59.295032,66.112627 59.613511,67.24673 59.999752,68.57842 61.092764,72.346928 61.775067,75.677934 62.720706,79.46775 62.993473,80.796064 63.356576,82.093627 63.451803,83.452105 63.5042,84.199595 65.152729,94.505854 64.742157,95.022167 60.626446,97.188507 57.04592,97.368974 53.60403,98.187674 53.211107,96.77571 53.018939,83.745384 52.892646,82.277458 52.823449,81.473149 52.538525,80.797894 52.356893,80.022874 51.70481,77.240455 50.297404,74.602822 50.080888,71.739024"
         id="path2"
         inkstitch:satin_column="False"
         inkstitch:stroke_method="running_stitch"
         inkstitch:repeats="2"
         sodipodi:nodetypes="cscsccssc" />
      <path
         style="display:inline;fill:none;stroke:#000000;stroke-width:0.439764;stroke-linejoin:round;stroke-dasharray:none;stroke-opacity:1"
         d="M 59.048139,65.080019 C 57.965839,60.553396 58.259169,57.97717 60.250146,49.256585 61.126244,45.419231 62.0866,43.10025 62.562745,39.228879 63.757529,33.080702 57.045382,23.197146 45.021927,30.363616 43.393926,31.333968 38.318244,37.960725 37.312444,41.826115 34.810579,52.357166 33.797661,52.102715 25.222787,58.751206 22.588746,60.793498 19.895598,62.661022 17.76358,65.227301 16.581834,66.649748 6.5531122,72.50131 5.6918412,74.144682 6.874591,76.854262 7.3690488,79.86975 11.627099,81.21253 16.862898,74.504519 21.178735,75.672436 26.963301,68.337946"
         id="path11"
         inkstitch:satin_column="False"
         inkstitch:stroke_method="running_stitch"
         inkstitch:repeats="2"
         sodipodi:nodetypes="cscccssccc" />
    </g>
  </g>
  <g
     inkscape:groupmode="layer"
     id="layer5"
     inkscape:label="Text" />
  <g
     inkscape:groupmode="layer"
     id="layer3"
     inkscape:label="Fixing up"
     style="opacity:1;display:inline">
    <path
       id="path3224-1"
       style="display:inline;fill:none;fill-opacity:1;stroke:#0200ff;stroke-width:0.1;stroke-miterlimit:4;stroke-dasharray:none;stroke-dashoffset:0;stroke-opacity:1"
       d="m 145.6276,61.050344 c 15.74012,0 28.5,12.759885 28.5,28.500001 0,15.740115 -12.75988,28.500005 -28.5,28.500005 -15.74012,0 -28.5,-12.75989 -28.5,-28.500005 0,-15.740116 12.75988,-28.500001 28.5,-28.500001 m 0,-2.5 c 17.12083,0 31,13.879174 31,31.000001 0,17.120825 -13.87917,31.000005 -31,31.000005 -17.12083,0 -31,-13.87918 -31,-31.000005 0,-17.120828 13.87917,-31.000001 31,-31.000001"
       inkscape:connector-curvature="0"
       inkscape:label="satin"
       sodipodi:nodetypes="csssccsssc"
       inkstitch:satin_column="True"
       inkstitch:zigzag_underlay="True"
       inkstitch:zigzag_underlay_spacing_mm="4"
       inkstitch:reverse_rails="none"
       inkstitch:fill_underlay="False"
       inkstitch:start_at_nearest_point="False"
       inkstitch:end_at_nearest_point="False"
       transform="translate(-114.128, -58.0503)" />
    <path
       inkscape:label="fixing_line"
       inkscape:connector-curvature="0"
       id="path816"
       d="M 174.7461,89.550346 A 29.118499,29.118499 0 0 1 145.62759,118.66885 29.118499,29.118499 0 0 1 116.5091,89.550346 29.118499,29.118499 0 0 1 145.62759,60.431844 29.118499,29.118499 0 0 1 174.7461,89.550346 Z"
       style="display:inline;fill:none;fill-opacity:1;stroke:#000000;stroke-width:0.26300001;stroke-miterlimit:4;stroke-dasharray:0.26300002, 0.26300002;stroke-dashoffset:0;stroke-opacity:1"
       inkstitch:running_stitch_length_mm="1.5"
       inkstitch:fill_underlay="False"
       transform="translate(-114.128, -58.0503)" />
  </g>
</svg>
