<?xml version="1.0" encoding="UTF-8" standalone="no"?>
<!-- Created with Inkscape (http://www.inkscape.org/) -->

<svg
   width="63mm"
   height="63mm"
   viewBox="0 0 63 63"
   version="1.1"
   id="svg8"
   sodipodi:docname="patch_openstreetmap.svg"
   inkscape:version="1.4.2 (ebf0e940d0, 2025-05-08)"
   xmlns:inkscape="http://www.inkscape.org/namespaces/inkscape"
   xmlns:sodipodi="http://sodipodi.sourceforge.net/DTD/sodipodi-0.dtd"
   xmlns:xlink="http://www.w3.org/1999/xlink"
   xmlns="http://www.w3.org/2000/svg"
   xmlns:svg="http://www.w3.org/2000/svg"
   xmlns:rdf="http://www.w3.org/1999/02/22-rdf-syntax-ns#"
   xmlns:cc="http://creativecommons.org/ns#"
   xmlns:dc="http://purl.org/dc/elements/1.1/"
   xmlns:inkstitch="http://inkstitch.org/namespace">
  <sodipodi:namedview
     id="base"
     pagecolor="#ffffff"
     bordercolor="#666666"
     borderopacity="1.0"
     inkscape:pageopacity="0.0"
     inkscape:pageshadow="2"
     inkscape:zoom="2.953"
     inkscape:cx="111.07348"
     inkscape:cy="140.53505"
     inkscape:document-units="mm"
     inkscape:current-layer="layer1"
     showgrid="false"
     fit-margin-top="2"
     fit-margin-left="2"
     fit-margin-right="2"
     fit-margin-bottom="2"
     inkscape:object-nodes="false"
     inkscape:snap-global="false"
     inkscape:window-width="1920"
     inkscape:window-height="1131"
     inkscape:window-x="0"
     inkscape:window-y="0"
     inkscape:window-maximized="1"
     showguides="true"
     inkscape:showpageshadow="2"
     inkscape:pagecheckerboard="0"
     inkscape:deskcolor="#d1d1d1">
    <sodipodi:guide
       position="31.500001,31.5"
       orientation="0,-1"
       id="guide5"
       inkscape:locked="false" />
    <inkscape:grid
       id="grid1"
       units="mm"
       originx="0"
       originy="0"
       spacingx="1"
       spacingy="1"
       empcolor="#0099e5"
       empopacity="0.30196078"
       color="#0099e5"
       opacity="0.14901961"
       empspacing="5"
       enabled="true"
       visible="false" />
  </sodipodi:namedview>
  <defs
     id="defs2">
    <symbol
       id="inkstitch_ignore_layer"
       transform="scale(0.25, 0.25)"
       style="opacity:0.7">
      <title
         id="title9694">Ignore entire layer when generating stitch plan</title>
      <path
         inkscape:connector-curvature="0"
         style="opacity:1;vector-effect:none;fill:#fafafa;fill-opacity:1;fill-rule:evenodd;stroke:#ff0000;stroke-width:1.06501234;stroke-linecap:round;stroke-linejoin:miter;stroke-miterlimit:4;stroke-dasharray:3.19503705, 3.19503705;stroke-dashoffset:0;stroke-opacity:1"
         d="M 9.2465269,-4.9265995e-6 C 9.246525,5.1067241 5.1067028,9.2465451 -2.615882e-5,9.2465451 -5.1067554,9.2465451 -9.2465782,5.1067241 -9.2465801,-4.9265995e-6 -9.24658,-2.4523429 -8.2723922,-4.8042399 -6.538327,-6.5383059 c 1.7340653,-1.734065 4.0859624,-2.708252 6.53830084118,-2.708252 5.10673015882,0 9.24655285882,4.139823 9.24655305882,9.2465529734005 0,0 0,0 0,0"
         id="inkstitch_path25368-7" />
      <path
         sodipodi:nodetypes="ccccc"
         inkscape:connector-curvature="0"
         style="color:#000000;fill:#d5d5d5;fill-opacity:1;fill-rule:evenodd;stroke:#5a5a5a;stroke-width:0.63330007;stroke-linecap:square;stroke-linejoin:round;stroke-miterlimit:0;stroke-opacity:1"
         d="M 4,4.452769 1.46667,1.286102 H -5.5 l 2.53333,3.166667 z"
         id="use5800" />
      <path
         sodipodi:nodetypes="ccccc"
         inkscape:connector-curvature="0"
         style="color:#000000;opacity:0.5;fill:#d5d5d5;fill-opacity:1;fill-rule:evenodd;stroke:#858585;stroke-width:0.63339424;stroke-linecap:square;stroke-linejoin:round;stroke-miterlimit:0;stroke-opacity:1"
         d="M 4,2.552769 1.46667,-0.613898 H -5.5 l 2.53333,3.166667 z"
         id="use5864" />
      <g
         id="g5771">
        <path
           sodipodi:nodetypes="ccccccccc"
           inkscape:connector-curvature="0"
           style="fill:#aa0000;fill-rule:evenodd;stroke:#aa0000;stroke-width:1px"
           d="m -1.0666699,-5.0472339 h 4.4333333 l 0.6333333,0.6333333 V 0.01943274 L 3.3666634,0.65276607 H -1.0666699 L -1.7000032,0.01943274 V -4.4139006 Z"
           id="path8011" />
        <path
           inkscape:connector-curvature="0"
           id="path8023"
           d="m -0.43333658,-3.8755672 c 0,0 3.16666668,3.16666661 3.16666668,3.16666661"
           style="fill:none;stroke:#ffffff;stroke-width:1.70000005" />
        <path
           inkscape:connector-curvature="0"
           id="path8025"
           d="m 2.7333301,-3.8755672 c 0,0 -3.16666668,3.16666661 -3.16666668,3.16666661"
           style="fill:none;stroke:#ffffff;stroke-width:1.79999995;stroke-linejoin:round" />
      </g>
    </symbol>
    <symbol
       id="inkstitch_ending_point"
       transform="scale(0.25, 0.25)"
       style="opacity:0.7">
      <title
         id="inkstitch_title9427">Ending point</title>
      <path
         id="inkstitch_circle13166"
         d="m 9.220113,0.0792309 c -1.9e-6,5.106729 -4.1398241,9.24655 -9.246553,9.24655 -5.1067293,0 -9.2465521,-4.139821 -9.246554,-9.24655 1e-7,-2.452338 0.9741879,-4.804235 2.7082531,-6.538301 1.7340653,-1.734065 4.0859624,-2.708252 6.5383009,-2.708252 5.1067301,0 9.2465528,4.139823 9.246553,9.246553 0,0 0,0 0,0"
         style="opacity:1;vector-effect:none;fill:#fafafa;fill-opacity:1;fill-rule:evenodd;stroke:#003399;stroke-width:1.06500006;stroke-linecap:round;stroke-linejoin:miter;stroke-miterlimit:4;stroke-dasharray:3.19500017, 3.19500017;stroke-dashoffset:0;stroke-opacity:1"
         inkscape:connector-curvature="0" />
      <path
         style="opacity:1;fill:#000000;fill-opacity:1;fill-rule:nonzero;stroke:none;stroke-width:2.27154255;stroke-linecap:round;stroke-linejoin:round;stroke-miterlimit:4;stroke-dasharray:4.81866985, 4.81866985;stroke-dashoffset:0;stroke-opacity:1;paint-order:fill markers stroke"
         d="m -4.570439,-4.5704391 c 0,0 9.140878,0 9.140878,0 0,0 0,9.14087 0,9.14087 0,0 -9.140878,0 -9.140878,0 0,0 0,-9.14087 0,-9.14087"
         id="inkstitch_rect5371-2"
         inkscape:connector-curvature="0" />
    </symbol>
  </defs>
  <metadata
     id="metadata5">
    <rdf:RDF>
      <cc:Work
         rdf:about="">
        <dc:format>image/svg+xml</dc:format>
        <dc:type
           rdf:resource="http://purl.org/dc/dcmitype/StillImage" />
      </cc:Work>
    </rdf:RDF>
    <inkstitch:min_stitch_len_mm>0.35</inkstitch:min_stitch_len_mm>
    <inkstitch:collapse_len_mm>10.0</inkstitch:collapse_len_mm>
    <inkstitch:inkstitch_svg_version>3</inkstitch:inkstitch_svg_version>
    <inkstitch:rotate_on_export>0</inkstitch:rotate_on_export>
  </metadata>
  <g
     transform="translate(0, -21)"
     inkscape:label="Guide Lines"
     id="layer2"
     inkscape:groupmode="layer">
    <path
       id="path1669"
       style="fill:none;stroke:#02ff00;stroke-width:0.482482;opacity:0.5"
       inkscape:label="guideline inner not stitched"
       transform="rotate(-164.20893)"
       d="M -49.737727,-59.987658 C -38.706857,-63.124183 -25.843927,-55.259189 -25.843927,-41.94656 -25.843927,-31.588948 -34.24043,-23.192445 -44.598042,-23.192446 -54.955653,-23.192446 -63.352156,-31.588949 -63.352156,-41.94656 -63.352156,-50.521951 -57.596603,-57.75306 -49.737727,-59.987658"
       sodipodi:nodetypes="csssc" />
    <path
       id="path2356"
       style="fill:none;stroke:#00ff00;stroke-width:0.48578;opacity:0.5"
       inkscape:label="guideline outer not stitched"
       transform="matrix(-0.60500079,0.79622487,0.79617398,0.60506776,0,0)"
       d="M 1.4112858,40.682356 C 6.2978209,34.243838 14.033069,30.085833 22.739494,30.085833 37.517757,30.085833 49.497907,42.065702 49.497908,56.84362 49.497908,71.621539 37.517758,83.601409 22.739494,83.601408 7.9612306,83.601408 -4.0189196,71.621538 -4.018919,56.84362 -4.0189188,50.771924 -1.996571,45.172561 1.4112858,40.682356"
       sodipodi:nodetypes="cssssc" />
    <use
       id="use5245"
       inkscape:label="Ink/Stitch Command: Ignore layer (do not stitch any objects in this layer)"
       xlink:href="#inkstitch_ignore_layer"
       height="100%"
       width="100%"
       x="0"
       y="-10"
       transform="matrix(0.264583,0,0,0.264583,0.52916663,22.754175)" />
  </g>
  <g
     style="display:inline"
     id="layer1"
     inkscape:groupmode="layer"
     inkscape:label="Patch 1"
     transform="translate(-114.128, -58.0503)">
    <path
       inkscape:label="positioning/cutting line"
       inkscape:connector-curvature="0"
       id="path3362"
       d="M 176.44785,89.550345 C 176.44785,106.57207 162.64918,120.37092 145.62764,120.37095 128.60607,120.37096 114.80735,106.5721 114.80735,89.550345 114.80735,72.528589 128.60607,58.729732 145.62764,58.729744 162.64918,58.729776 176.44785,72.52862 176.44785,89.550345 Z"
       style="display:inline;fill:none;fill-opacity:1;stroke:#ff0000;stroke-width:0.359487;stroke-miterlimit:4;stroke-dasharray:0.359487, 0.359487;stroke-dashoffset:0;stroke-opacity:1"
       inkstitch:running_stitch_length_mm="2.3"
       inkstitch:trim_after="True"
       inkstitch:stop_after="True"
       inkstitch:fill_underlay="False"
       sodipodi:nodetypes="scscs" />
    <path
       inkscape:label="fixing line"
       inkscape:connector-curvature="0"
       id="path3362-3"
       d="M 175.5276,89.550342 C 175.5276,106.06384 162.14092,119.45067 145.62761,119.45068 129.11429,119.45068 115.7276,106.06384 115.7276,89.550342 115.7276,73.036844 129.11429,59.650012 145.62761,59.650015 162.14092,59.650023 175.5276,73.036852 175.5276,89.550342 Z"
       style="display:inline;fill:none;fill-opacity:1;stroke:#000000;stroke-width:0.2;stroke-miterlimit:4;stroke-dasharray:0.2, 0.2;stroke-dashoffset:0;stroke-opacity:1"
       inkstitch:running_stitch_length_mm="2"
       inkstitch:fill_underlay="False"
       sodipodi:nodetypes="sssss" />
  </g>
  <g
     inkscape:groupmode="layer"
     id="layer3"
     inkscape:label="Patch 2">
    <path
       id="path3224-1"
       style="display:inline;fill:none;fill-opacity:1;stroke:#000000;stroke-width:0.1;stroke-miterlimit:4;stroke-dasharray:none;stroke-dashoffset:0;stroke-opacity:1"
       d="m 145.6276,61.050344 c 15.74012,0 28.5,12.759885 28.5,28.500001 0,15.740115 -12.75988,28.500005 -28.5,28.500005 -15.74012,0 -28.5,-12.75989 -28.5,-28.500005 0,-15.740116 12.75988,-28.500001 28.5,-28.500001 m 0,-2.5 c 17.12083,0 31,13.879174 31,31.000001 0,17.120825 -13.87917,31.000005 -31,31.000005 -17.12083,0 -31,-13.87918 -31,-31.000005 0,-17.120828 13.87917,-31.000001 31,-31.000001"
       inkscape:connector-curvature="0"
       inkscape:label="satin"
       sodipodi:nodetypes="csssccsssc"
       transform="translate(-114.128, -58.0503)"
       inkstitch:satin_column="True"
       inkstitch:zigzag_underlay="True"
       inkstitch:zigzag_underlay_spacing_mm="4"
       inkstitch:reverse_rails="none"
       inkstitch:fill_underlay="False"
       inkstitch:start_at_nearest_point="True"
       inkstitch:end_at_nearest_point="True" />
    <path
       inkscape:label="top line"
       inkscape:connector-curvature="0"
       id="path816"
       d="M 174.7461,89.550346 A 29.118499,29.118499 0 0 1 145.62759,118.66885 29.118499,29.118499 0 0 1 116.5091,89.550346 29.118499,29.118499 0 0 1 145.62759,60.431844 29.118499,29.118499 0 0 1 174.7461,89.550346 Z"
       style="display:inline;fill:none;fill-opacity:1;stroke:#000000;stroke-width:0.26300001;stroke-miterlimit:4;stroke-dasharray:0.26300002, 0.26300002;stroke-dashoffset:0;stroke-opacity:1"
       transform="translate(-114.128, -58.0503)"
       inkstitch:running_stitch_length_mm="1.5"
       inkstitch:fill_underlay="False" />
  </g>
  <g
     inkscape:groupmode="layer"
     id="layer4"
     inkscape:label="Embroidery">
    <g
       id="g41"
       inkscape:label="Map">
      <path
         style="fill:none;stroke:#87a841;stroke-width:0.264585;stroke-linejoin:round"
         d="M 31.318253,12.666537 32.180763,15.829067"
         id="path4"
         inkstitch:satin_column="False"
         inkstitch:stroke_method="running_stitch"
         inkstitch:bean_stitch_repeats="1" />
      <path
         d="M 32.180802,15.829079 C 29.811636,17.918823 28.510131,20.542396 27.868228,23.495772"
         style="fill:none;stroke:#87a841;stroke-width:0.312766;stroke-dasharray:3.54633, 1.18211"
         inkstitch:running_stitch_length_mm="2.5"
         inkstitch:running_stitch_tolerance_mm="2.0"
         id="path31"
         sodipodi:nodetypes="cc" />
      <path
         style="fill:none;stroke:#87a841;stroke-width:0.264585;stroke-linejoin:round"
         d="M 27.868221,23.495806 24.322353,24.070812 C 24.322353,24.070812 15.553519,21.387454 15.266017,21.435371"
         id="path5"
         sodipodi:nodetypes="ccc"
         inkstitch:satin_column="False"
         inkstitch:stroke_method="running_stitch"
         inkstitch:bean_stitch_repeats="1" />
      <path
         d="M 15.26599,21.435354 12.970864,12.573222 22.567839,14.513265"
         style="fill:none;stroke:#87a841;stroke-width:0.312766;stroke-dasharray:3.54633, 1.18211"
         inkstitch:running_stitch_length_mm="2.5"
         inkstitch:running_stitch_tolerance_mm="2.0"
         id="path32"
         sodipodi:nodetypes="ccc" />
      <path
         style="fill:none;stroke:#87a841;stroke-width:0.264585;stroke-linejoin:round"
         d="M 22.405668,14.918642 24.322353,24.022896 22.118166,32.839646 23.028592,37.152187"
         id="path3"
         inkstitch:satin_column="False"
         inkstitch:stroke_method="running_stitch"
         inkstitch:bean_stitch_repeats="1" />
      <path
         d="M 23.028552,37.152216 C 23.028552,37.152216 24.479255,36.292048 25.291914,36.222359 25.910131,36.169343 27.109025,36.62625 27.109025,36.62625 L 30.354946,33.517858 28.922434,31.450072"
         style="fill:none;stroke:#87a841;stroke-width:0.312766;stroke-dasharray:3.54633, 1.18211"
         inkstitch:running_stitch_length_mm="2.5"
         inkstitch:running_stitch_tolerance_mm="2.0"
         id="path33"
         sodipodi:nodetypes="caccc" />
      <path
         style="fill:none;stroke:#87a841;stroke-width:0.264585;stroke-linejoin:round"
         d="M 28.922399,31.450049 22.166083,32.887565 C 22.166083,32.887565 13.205581,30.347956 12.965995,30.347956"
         id="path6"
         sodipodi:nodetypes="ccc"
         inkstitch:satin_column="False"
         inkstitch:stroke_method="running_stitch"
         inkstitch:bean_stitch_repeats="1" />
      <path
         d="M 12.965959,30.347991 14.355529,34.947935"
         style="fill:none;stroke:#87a841;stroke-width:0.312766;stroke-dasharray:3.54633, 1.18211"
         inkstitch:running_stitch_length_mm="2.5"
         inkstitch:running_stitch_tolerance_mm="2.0"
         id="path34" />
      <path
         d="M 14.15272,35.308558 15.359672,35.987526 16.289639,36.657206 17.108751,37.431064 17.97182,38.429023 17.989057,38.447758 18.468246,38.937425 18.49736,38.964448 18.528931,38.988556 19.017065,39.325467 19.049627,39.345778 19.083931,39.362984 19.558617,39.574132 19.590926,39.586909 19.624193,39.596927 20.062941,39.70921 20.121771,39.719809 20.502095,39.76025 20.552063,39.762524 20.851568,39.75802 20.90063,39.754354 21.167169,39.718418 M 14.558426,34.587363 15.785532,35.277669 15.824453,35.302521 16.79553,36.001804 16.837888,36.036803 17.692178,36.843896 17.720987,36.874 18.589371,37.878107 19.031775,38.330183 19.455416,38.622582 19.863094,38.803924 20.239064,38.90014 20.564674,38.934763 20.814486,38.931007 21.056603,38.898363 M 20.705693,39.84297 20.690763,38.85011 M 18.132056,38.712189 18.841744,38.017689 M 16.497175,36.96711 17.17909,36.245318"
         inkstitch:satin_column="True"
         id="path6436"
         style="fill:none;stroke:#87a841;stroke-width:0.264584px"
         sodipodi:nodetypes="ccccccccccccccccccccccccccccccccccccccccccc"
         inkstitch:pull_compensation_mm="0.15" />
      <path
         style="fill:none;stroke:#87a841;stroke-width:0.264585;stroke-linejoin:round"
         d="M 19.434807,40.554304 C 19.434807,40.554304 15.745188,39.500126 15.457686,39.548045"
         id="path7"
         sodipodi:nodetypes="cc"
         inkstitch:satin_column="False"
         inkstitch:stroke_method="running_stitch"
         inkstitch:bean_stitch_repeats="1" />
      <path
         d="M 13.186479,46.207798 14.793494,39.496253 12.801533,30.485034 12.794201,30.440418 12.791781,30.39527 12.794302,30.350125 12.801734,30.305525 14.793027,21.392152 12.612219,12.574104 12.604495,12.534797 12.600609,12.494926 12.600597,12.454867 12.604459,12.414995 12.61216,12.375682 12.623626,12.3373 12.63875,12.300205 12.657391,12.264747 12.679373,12.231258 12.704491,12.200052 12.73251,12.171422 12.763165,12.145635 12.796171,12.122934 12.831218,12.103531 12.867977,12.087608 12.906103,12.075315 12.94524,12.066767 12.985019,12.062044 13.025069,12.06119 13.065014,12.064213 13.104479,12.071085 22.401556,14.15819 30.93237,12.072871 30.976361,12.06461 31.020989,12.06115 31.065727,12.06253 31.110056,12.068736 35.518422,12.93125 M 13.991207,46.40048 15.620402,39.5963 15.627463,39.559538 15.631172,39.522284 15.631499,39.484849 15.628441,39.447539 15.622022,39.410658 13.629348,30.396208 15.621821,21.477545 15.628425,21.439884 15.631523,21.401774 15.63109,21.363541 15.627129,21.325511 15.619675,21.288008 13.576143,13.025037 22.314951,14.986816 22.352468,14.993441 22.390436,14.996586 22.428532,14.996226 22.466433,14.992363 22.503818,14.98503 31.040468,12.898284 35.359537,13.743326 M 15.012658,42.489843 14.046985,42.258622 M 15.094719,36.641877 14.125157,36.856203 M 14.347103,33.259816 13.37754,33.474139 M 14.285253,27.839786 13.316173,27.623286 M 15.040446,24.459408 14.071366,24.242908 M 15.043154,18.612195 14.079227,18.850586 M 14.211591,15.249789 13.247664,15.48818 M 15.628759,13.570637 15.846258,12.601781 M 19.57162,14.455771 19.789119,13.486916 M 25.418056,14.357841 25.182272,13.393273 M 28.221923,13.672449 27.986139,12.70788 M 33.644019,13.491995 33.834683,12.517503"
         inkstitch:satin_column="True"
         id="path5700"
         style="fill:none;stroke:#87a841;stroke-width:0.264583px"
         inkstitch:pull_compensation_mm="0.15" />
      <path
         d="M 35.3833,13.6215 C 39.234288,12.269835 42.849406,12.215451 46.2681,13.2414"
         style="fill:none;stroke:#87a841;stroke-width:0.264583;stroke-dasharray:3, 1"
         inkstitch:running_stitch_length_mm="2.5"
         inkstitch:running_stitch_tolerance_mm="2.0"
         id="path35"
         sodipodi:nodetypes="cc" />
      <path
         d="M 46.215212,12.831127 47.014975,12.727847 48.224082,12.500215 49.825253,12.165617 49.864502,12.159365 49.90417,12.156908 49.943892,12.158269 49.9833,12.163435 50.02203,12.172357 50.059724,12.184955 50.096036,12.201112 50.130628,12.220677 50.163187,12.243472 50.193406,12.269286 50.221011,12.297881 50.245742,12.328991 50.267375,12.362332 50.28571,12.397594 50.300579,12.434453 50.311838,12.472568 51.270183,16.401778 M 46.321189,13.651786 47.132784,13.546979 47.156342,13.543243 48.381225,13.312641 48.38931,13.311036 49.602765,13.057459 50.466276,16.597853 M 46.792899,13.674305 46.665725,12.689514"
         inkstitch:satin_column="True"
         id="path4167"
         style="fill:none;stroke:#87a841;stroke-width:0.264583px"
         inkstitch:pull_compensation_mm="0.15" />
      <path
         d="M 50.4488,16.5264 C 57.790464,24.726221 53.634125,33.30513 47.761444,37.230979 44.575389,39.360835 41.171351,39.189442 37.1639,38.7332"
         style="fill:none;stroke:#87a841;stroke-width:0.264583;stroke-dasharray:3, 1"
         inkstitch:running_stitch_length_mm="2.5"
         inkstitch:running_stitch_tolerance_mm="2.0"
         id="path36"
         sodipodi:nodetypes="csc" />
      <path
         d="M 37.577238,38.713482 37.641699,40.059249 37.640541,40.115763 37.537923,41.267521 37.533529,41.301147 37.526401,41.334303 37.275688,42.304658 37.264084,42.342127 37.248987,42.37833 36.869165,43.179854 36.848882,43.217495 36.824824,43.252841 36.334877,43.898263 36.306972,43.931288 36.275774,43.96122 35.694718,44.463083 35.662794,44.488033 35.628584,44.509742 34.975373,44.880681 34.943543,44.89698 34.910421,44.910469 34.204041,45.163152 34.17495,45.172363 34.145263,45.179407 33.404728,45.326438 33.353635,45.333306 32.597931,45.387289 32.553934,45.388087 31.802015,45.36169 31.763532,45.358537 31.034413,45.264363 30.999568,45.258336 30.312204,45.108991 30.278919,45.100296 29.652325,44.908446 29.617974,44.896251 29.071135,44.6745 29.031876,44.656128 28.583777,44.417082 M 36.750711,38.753072 36.813818,40.070543 36.716729,41.160221 36.484366,42.05955 36.139783,42.786714 35.70204,43.363366 35.184613,43.810273 34.59795,44.143424 33.954125,44.373729 33.268913,44.509776 32.560946,44.56035 31.850362,44.535404 31.157962,44.445972 30.504714,44.304039 29.912023,44.122569 29.402203,43.915831 28.973252,43.687 M 36.698989,39.402748 37.690818,39.355242 M 36.26676,42.325529 37.164078,42.750746 M 34.862262,43.898169 35.352597,44.761627 M 32.262005,44.467055 32.227166,45.459413 M 29.661429,43.931657 29.288282,44.851847"
         inkstitch:satin_column="True"
         id="path3484"
         style="fill:none;stroke:#87a841;stroke-width:0.264583px"
         inkstitch:pull_compensation_mm="0.15" />
      <path
         d="M 28.9148,43.7965 C 29.651001,42.966607 30.431279,42.180792 30.750201,40.93362 29.470034,39.34962 28.189867,38.154188 26.9097,36.7686"
         style="fill:none;stroke:#87a841;stroke-width:0.264583;stroke-dasharray:3, 1"
         inkstitch:running_stitch_length_mm="2.5"
         inkstitch:running_stitch_tolerance_mm="2.0"
         id="path37"
         sodipodi:nodetypes="ccc" />
      <path
         d="M 27.195807,37.067505 30.549993,33.857067 M 26.623648,36.469724 27.537234,35.595292 29.977833,33.259285 M 28.930118,35.522065 28.243523,34.804726"
         inkstitch:satin_column="True"
         id="path7214"
         style="fill:none;stroke:#87a841;stroke-width:0.264583px"
         sodipodi:nodetypes="ccccccc" />
      <path
         d="M 29.9778,33.2592 32.7556,36.2416"
         style="fill:none;stroke:#87a841;stroke-width:0.264583;stroke-dasharray:3, 1"
         inkstitch:running_stitch_length_mm="2.5"
         inkstitch:running_stitch_tolerance_mm="2.0"
         id="path38" />
      <path
         d="M 33.057189,36.524878 30.086324,39.687374 M 32.45409,35.958322 29.483225,39.120818 M 30.908347,37.482916 31.632067,38.16278"
         inkstitch:satin_column="True"
         id="path6699"
         style="fill:none;stroke:#87a841;stroke-width:0.264583px" />
      <path
         style="fill:none;stroke:#87a841;stroke-width:0.264584;stroke-linejoin:round"
         d="M 30.168156,39.739584 33.570264,39.404165 42.147406,41.608348 52.066226,39.260415"
         id="path8"
         inkstitch:satin_column="False"
         inkstitch:stroke_method="running_stitch"
         inkstitch:bean_stitch_repeats="1" />
      <path
         d="M 52.0662,39.2604 50.91234,34.898918 C 47.89486,37.455258 44.87738,38.636246 41.8599,38.925"
         style="fill:none;stroke:#87a841;stroke-width:0.264583;stroke-dasharray:3, 1"
         inkstitch:running_stitch_length_mm="2.5"
         inkstitch:running_stitch_tolerance_mm="2.0"
         id="path39"
         sodipodi:nodetypes="ccc" />
      <path
         style="fill:none;stroke:#87a841;stroke-width:0.264584;stroke-linejoin:round"
         d="M 41.859905,38.924996 42.099491,41.704182 40.278643,50.664663"
         id="path10"
         inkstitch:satin_column="False"
         inkstitch:stroke_method="running_stitch"
         inkstitch:bean_stitch_repeats="1" />
      <path
         d="M 40.2786,50.6646 31.366,48.5563"
         style="fill:none;stroke:#87a841;stroke-width:0.264583;stroke-dasharray:3, 1"
         inkstitch:running_stitch_length_mm="2.5"
         inkstitch:running_stitch_tolerance_mm="2.0"
         id="path40" />
      <path
         style="fill:none;stroke:#87a841;stroke-width:0.264584;stroke-linejoin:round"
         d="M 31.366081,48.556315 33.522344,39.547919 32.94734,36.433313"
         id="path9"
         sodipodi:nodetypes="ccc"
         inkstitch:satin_column="False"
         inkstitch:stroke_method="running_stitch"
         inkstitch:bean_stitch_repeats="1" />
      <path
         d="M 40.562684,12.954839 40.080062,12.972961 39.130162,13.080213 38.198718,13.256316 37.28878,13.499221 36.403501,13.806725 35.546126,14.176742 34.719835,14.607127 33.927822,15.095757 33.173266,15.640496 32.459441,16.239216 31.789476,16.889732 31.166597,17.589895 30.593999,18.337627 30.07483,19.130816 29.612225,19.967345 29.209383,20.845214 28.873505,21.750818 28.609071,22.66942 28.415334,23.597385 28.291492,24.531012 28.236836,25.46654 28.250592,26.40027 28.332004,27.328367 28.480346,28.247081 28.694894,29.152656 28.974819,30.041273 29.319445,30.90919 29.727955,31.752597 30.199642,32.567767 30.733774,33.350953 31.329595,34.098438 31.986471,34.806557 32.694619,35.463462 33.4421,36.05928 34.225287,36.59338 35.040466,37.065074 35.883866,37.473611 36.751756,37.81821 37.640369,38.098163 38.545944,38.312679 39.464664,38.461052 40.392786,38.542465 41.326479,38.556221 41.518648,38.544986 42.262044,38.501537 43.19564,38.377719 44.123637,38.183955 45.042238,37.919552 45.947838,37.583645 46.825717,37.180797 47.662243,36.718226 48.455391,36.199064 49.203135,35.626425 49.903332,35.003574 50.553834,34.333621 51.152527,33.619763 51.69727,32.865232 52.1859,32.073219 52.616316,31.246896 52.986333,30.389521 53.293834,29.504279 53.536709,28.594342 53.712846,27.662861 53.820094,26.712998 53.856205,25.750469 53.789902,24.437361 53.595769,23.165397 53.280179,21.937963 52.849495,20.761254 52.310112,19.641592 51.668436,18.585342 50.930876,17.599023 50.103909,16.689117 49.194002,15.862148 48.207681,15.124588 47.151469,14.482917 46.031778,13.943564 44.855057,13.512877 43.627628,13.197258 42.355696,13.003154 41.042588,12.93682 40.562684,12.954839 M 40.531632,12.127948 40.033522,12.146652 40.002627,12.148972 39.022014,12.259691 38.991572,12.264281 38.029944,12.446092 38.000096,12.452887 37.060674,12.703663 37.031628,12.712571 36.117696,13.030028 36.089509,13.040988 35.204415,13.422968 35.177229,13.435895 34.324255,13.880178 34.298146,13.895006 33.480577,14.399403 33.45564,14.416065 32.676729,14.978386 32.653021,14.996845 31.916146,15.614901 31.893811,15.635063 31.202193,16.306601 31.181291,16.328437 30.538245,17.051269 30.518879,17.07472 29.927721,17.846687 29.910031,17.871651 29.374045,18.690533 29.358156,18.716895 28.880595,19.580471 28.866624,19.608135 28.450833,20.514217 28.438951,20.542901 28.092282,21.477601 28.082608,21.507022 27.809627,22.455326 27.802214,22.485223 27.602201,23.443255 27.597059,23.473405 27.4692,24.437286 27.466313,24.467561 27.409891,25.433381 27.409231,25.463604 27.42343,26.427515 27.424969,26.457575 27.509009,27.415638 27.512715,27.445435 27.665845,28.393803 27.6717,28.423234 27.893169,29.358027 27.901142,29.386958 28.190106,30.304268 28.200193,30.332645 28.555963,31.228624 28.568136,31.256288 28.989869,32.126996 29.004122,32.153856 29.491097,32.995445 29.507392,33.021348 30.058829,33.82991 30.07711,33.854681 30.692195,34.626336 30.712399,34.649824 31.390381,35.380694 31.412331,35.402644 32.143232,36.080657 32.166721,36.100862 32.938376,36.715946 32.963156,36.734234 33.771718,37.285639 33.797611,37.301928 34.639201,37.788904 34.666048,37.80315 35.536756,38.224914 35.564442,38.237097 36.46039,38.592836 36.488748,38.602916 37.406058,38.891912 37.435011,38.89989 38.369804,39.121328 38.39921,39.127177 39.347577,39.280338 39.377387,39.284048 40.335481,39.368088 40.365538,39.369626 41.329419,39.383826 41.359657,39.383166 41.566933,39.371049 42.325508,39.326712 42.355758,39.323825 43.319608,39.195998 43.34978,39.190856 44.307843,38.990811 44.337718,38.983402 45.286023,38.710451 45.315467,38.700768 46.250166,38.354068 46.278841,38.342192 47.184922,37.926402 47.212577,37.912437 48.076153,37.434906 48.102529,37.419009 48.92138,36.883022 48.946348,36.865329 49.718316,36.27414 49.741742,36.254792 50.464605,35.611778 50.486455,35.590863 51.157994,34.899245 51.178167,34.876895 51.796192,34.139988 51.814635,34.116303 52.376956,33.337423 52.393624,33.31248 52.89802,32.494911 52.912846,32.468808 53.35716,31.615803 53.370087,31.588611 53.752067,30.703516 53.763026,30.675333 54.080483,29.761432 54.089397,29.73237 54.340141,28.792948 54.346931,28.763122 54.528773,27.801463 54.533364,27.771012 54.644083,26.79043 54.646404,26.759519 54.68378,25.763299 54.683545,25.726924 54.615268,24.374745 54.611059,24.333185 54.410638,23.020039 54.402344,22.979439 54.076474,21.712018 54.064298,21.67284 53.619576,20.457778 53.603788,20.420419 53.046878,19.264376 53.027737,19.229125 52.3653,18.1387 52.34304,18.105741 51.581706,17.087627 51.556545,17.05713 50.702976,16.117958 50.675068,16.090051 49.735896,15.236482 49.705399,15.211318 48.687285,14.449985 48.654328,14.427728 47.563934,13.765291 47.52867,13.746142 46.372595,13.189264 46.335248,13.173479 45.120186,12.728758 45.081015,12.716587 43.813596,12.390685 43.772977,12.382385 42.459862,12.181997 42.418321,12.177788 41.066142,12.10948 41.029742,12.109245 40.531632,12.127948 M 39.663126,12.104032 39.774534,13.090731 M 36.719003,12.733566 37.044817,13.671559 M 33.985183,13.990858 34.506554,14.835938 M 31.591295,15.813461 32.283014,16.525861 M 29.651721,18.115202 30.482545,18.659003 M 28.260347,20.786504 29.191346,21.1318 M 27.429401,24.108066 28.413746,24.238639 M 27.363482,26.703609 28.352653,26.616838 M 27.901649,29.663977 28.84874,29.365631 M 29.072157,32.436655 29.931615,31.93934 M 30.820898,34.888455 31.548878,34.213154 M 32.699436,36.631306 33.318364,35.854831 M 34.901514,38.009153 35.334391,37.115504 M 37.723634,39.053299 37.952519,38.087069 M 41.120463,39.463503 41.135091,38.470645 M 41.513819,38.462381 41.571759,39.453657 M 42.848711,39.341922 42.718166,38.357571 M 45.771961,38.619703 45.426639,37.688712 M 48.468505,37.278355 47.924691,36.44754 M 50.805298,35.38127 50.092896,34.689555 M 52.670806,33.020795 51.825723,32.499427 M 53.97739,30.310404 53.0394,29.984578 M 54.660951,27.378547 53.674254,27.267137 M 54.63405,23.935391 53.652448,24.085209 M 53.914987,21.024143 52.982514,21.365435 M 52.58386,18.339094 51.735218,18.854646 M 50.98805,16.308593 50.253226,16.97644 M 48.312789,14.123414 47.797226,14.972049 M 46.003857,12.964073 45.662568,13.896546 M 43.104988,12.196741 42.955189,13.178345"
         inkstitch:satin_column="True"
         id="path41"
         style="fill:none;stroke:#87a841;stroke-width:0.264583px"
         inkstitch:pull_compensation_mm="0.15" />
      <path
         d="M 51.358211,34.965799 52.795743,39.469996 52.80613,39.50902 52.81266,39.548869 52.815278,39.589166 52.813952,39.629525 52.808701,39.669565 52.799568,39.708902 50.212029,48.813097 50.199089,48.851395 50.182475,48.888248 50.162346,48.923303 50.138888,48.956227 50.112331,48.986706 50.082925,49.014446 50.050954,49.039185 50.016719,49.060685 49.980551,49.078741 49.942794,49.093181 49.903804,49.103868 40.416253,51.21222 40.378471,51.218798 40.340239,51.221847 40.30189,51.22134 40.263755,51.217287 40.226157,51.209721 31.128878,48.9354 21.36048,51.496077 M 50.56991,35.217387 51.969504,39.602709 49.483513,48.34961 40.332094,50.383263 31.226789,48.106938 31.186108,48.098909 31.144826,48.094993 31.103356,48.095231 31.062121,48.099616 31.021534,48.108108 21.150656,50.695647 M 51.28645,37.734664 52.232409,37.432758 M 51.309485,41.622291 52.264627,41.893756 M 49.879146,46.654903 50.834288,46.926367 M 47.387938,48.730527 47.603343,49.699852 M 42.280601,49.865496 42.496006,50.834819 M 38.266191,49.781493 38.025362,50.744817 M 33.190477,48.512567 32.949648,49.475887 M 28.721066,48.625606 28.972854,49.586121"
         inkstitch:satin_column="True"
         id="path3901"
         style="fill:none;stroke:#87a841;stroke-width:0.264583px"
         inkstitch:pull_compensation_mm="0.15" />
      <path
         d="M 20.731484,39.259461 23.223161,36.899552 23.249887,36.876329 23.555365,36.632998 23.586056,36.610766 23.927439,36.386607 23.965633,36.364354 24.396906,36.143041 24.4253,36.129805 24.454615,36.118752 24.948753,35.953549 24.992217,35.941608 25.036722,35.934464 25.566797,35.878792 25.611149,35.876531 25.655489,35.879036 25.925593,35.908905 25.96027,35.914238 25.994371,35.922489 26.263349,35.999773 26.298823,36.011727 26.333071,36.026837 26.597545,36.158135 26.630395,36.176348 26.661455,36.197463 26.918079,36.389501 26.953835,36.419548 29.110071,38.450021 29.116677,38.456383 30.266684,39.588437 30.290685,39.614165 30.312416,39.641839 30.331717,39.671261 30.518501,39.984245 30.533835,40.012356 30.546947,40.041569 30.678183,40.367095 30.689242,40.398008 30.697815,40.429701 30.773723,40.762171 30.779857,40.795139 30.7833,40.828493 30.80413,41.162245 30.804847,41.196399 30.802745,41.230496 30.768747,41.559869 30.763743,41.594205 30.755874,41.628002 30.667267,41.947367 30.656489,41.980677 30.642931,42.012957 30.499966,42.316684 30.483715,42.347726 30.464896,42.377282 30.267791,42.659678 30.245922,42.688271 30.221655,42.714856 28.250107,44.694192 28.244527,44.699687 24.587642,48.234593 24.586096,48.236082 21.962255,50.746218 19.481139,53.11982 19.466576,53.1331 19.20304,53.362201 19.167993,53.389508 18.865517,53.600093 18.82234,53.626391 18.430007,53.833598 18.39883,53.848432 18.366526,53.860618 17.902351,54.013904 17.857437,54.025983 17.811451,54.032945 17.293324,54.081799 17.254316,54.083626 17.215309,54.081768 17.176651,54.076241 16.622619,53.97012 16.576491,53.958497 16.532002,53.941661 16.247135,53.814679 16.218886,53.800773 16.191776,53.784763 15.904626,53.600075 15.860752,53.567572 14.644876,52.535884 14.623983,52.516893 13.444013,51.368387 13.431946,51.356142 12.186108,50.038399 12.161561,50.009953 12.139696,49.979396 12.120694,49.946984 11.995682,49.709657 11.978905,49.67373 11.965643,49.636361 11.880946,49.355685 11.871087,49.316023 11.865188,49.275583 11.829345,48.90114 11.827531,48.854156 11.83106,48.80727 11.891799,48.349725 11.901122,48.301584 11.916075,48.254882 12.121124,47.724901 12.140022,47.683103 12.163432,47.643651 12.560519,47.051899 12.583895,47.0204 12.610149,46.991257 13.247002,46.348399 13.256422,46.339188 18.239778,41.61937 20.731486,39.259461 M 21.300495,39.860246 23.779307,37.512522 24.056089,37.292048 24.363115,37.090448 24.746762,36.893575 25.168183,36.752684 25.60887,36.706398 25.799675,36.7275 25.998752,36.784698 26.195848,36.882547 26.40358,37.038001 28.539452,39.049295 29.648362,40.140893 29.791493,40.380734 29.898424,40.645972 29.959526,40.913587 29.976128,41.179606 29.949221,41.440302 29.879299,41.692313 29.76625,41.932489 29.609914,42.156473 27.666605,44.10746 24.013307,47.638897 21.390242,50.148295 18.916248,52.515082 18.676941,52.723118 18.413507,52.90652 18.074178,53.085735 17.687248,53.213512 17.274379,53.252442 16.825238,53.166413 16.612856,53.071742 16.375257,52.918922 15.191015,51.914075 14.027327,50.781417 12.82637,49.511145 12.74634,49.359216 12.684988,49.155903 12.657556,48.869326 12.70559,48.507487 12.876222,48.06646 13.2257,47.545659 13.830216,46.935441 18.808786,42.220155 21.300493,39.860246 M 22.85345,38.503385 22.170636,37.782448 M 25.303246,36.821702 25.199527,35.834164 M 27.280077,37.977035 27.960814,37.254134 M 29.840569,40.764313 30.808625,40.543288 M 28.724134,42.9285 29.42765,43.629251 M 26.714785,44.912443 27.404911,45.626383 M 22.019457,50.806013 21.33304,50.088504 M 19.844104,51.512916 20.530521,52.230428 M 17.402406,53.157255 17.495619,54.145841 M 15.562951,52.121148 14.92051,52.878284 M 13.751673,50.369408 13.030128,51.051581 M 12.775746,48.607804 11.791413,48.477133 M 14.812148,46.119408 14.129335,45.398468"
         inkstitch:satin_column="True"
         id="path3659"
         style="fill:none;stroke:#87a841;stroke-width:0.264583px"
         inkstitch:pull_compensation_mm="0.15" />
    </g>
    <path
       id="path11"
       style="fill:none;stroke:#87a841;stroke-width:0.223824;stroke-linejoin:round"
       transform="matrix(1.18211 0 0 1.18211 -5.29043 -8.89617)"
       d="M 30.401441,29.347523 C 30.401441,24.467157 34.357759,20.510839 39.238125,20.510839 44.118491,20.510839 48.074809,24.467157 48.074809,29.347523 48.074809,34.227889 44.118491,38.184207 39.238125,38.184207 34.357759,38.184207 30.401441,34.227889 30.401441,29.347523"
       sodipodi:nodetypes="csssc"
       inkstitch:satin_column="False"
       inkstitch:stroke_method="running_stitch"
       inkstitch:bean_stitch_repeats="1" />
    <g
       id="g98"
       inkscape:label="Text"
       style="display:inline;stroke-width:0.797749"
       transform="matrix(1.25353 0 0 1.25353 -7.65193 -11.1273)">
      <path
         d="M 34.0259,25.669 33.8878,25.3958 33.7976,25.077 33.7663,24.7122 33.7976,24.3441 33.8878,24.0243 34.0151,23.7708 34.0248,23.7512 34.2034,23.5262 34.427,23.3473 34.681,23.2187 34.9527,23.1429 35.2395,23.1174 35.5327,23.1429 35.8103,23.2187 35.8999,23.2652 36.0584,23.3473 36.2717,23.5262 36.4503,23.7512 36.5873,24.0243 36.6776,24.3441 36.7088,24.7122 36.6916,24.9133 36.6776,25.077 36.5873,25.3958 36.4513,25.669 36.2717,25.894 36.0584,26.0677 35.8103,26.1932 35.7071,26.2215 35.5338,26.269 35.2395,26.2945 34.9448,26.269 34.6651,26.1932 34.4178,26.0677 34.2034,25.894 34.1645,25.8447 33.967825,25.575187 M 34.509236,25.382532 34.4019,25.1654 34.341,24.7122 34.393327,24.137227 34.572,23.9107 34.7056,23.7831 34.8636,23.6885 35.0385,23.6303 35.2356,23.6114 35.4335,23.6303 35.5512,23.6686 35.6118,23.6885 35.7626,23.7831 35.8872,23.9107 35.9944,24.0663 36.0732,24.2548 36.1341,24.7122 36.1034,24.9406 36.0732,25.1654 35.9944,25.3517 35.8872,25.5095 35.7626,25.6321 35.6118,25.724 35.502,25.7597 35.4335,25.7819 35.2356,25.8005 35.0385,25.7819 34.8636,25.724 34.7056,25.6321 34.5881,25.5244 34.572,25.5095 34.473497,25.324457 M 35.224635,25.660836 35.236325,26.511153 M 36.03035,24.824316 36.83494,24.846358 M 35.211039,23.781092 35.189345,22.977585"
         style="fill:none;stroke:#87a841;stroke-width:0.211071"
         inkstitch:satin_column="True"
         inkstitch:contour_underlay="False"
         inkscape:label="O"
         id="path294"
         inkstitch:pull_compensation_mm="0.08"
         sodipodi:nodetypes="cccccccccccccccccccccccccccccccccccccccccccccccccccccccccccccccccccccccccccc"
         inkstitch:min_stitch_length_mm="0.5"
         inkstitch:running_stitch_length_mm="1.5" />
      <path
         d="M 37.550765,26.051038 37.8412,26.1901 37.9552,26.2335 38.2545,26.2702 38.4841,26.2515 38.6876,26.1891 38.8617,26.0833 38.9805,25.9654 39.0032,25.9426 39.1136,25.7695 39.1935,25.5659 39.2496,25.3381 39.2705,25.0884 39.2485,24.8232 39.1853,24.5866 39.1683,24.5507 39.0884,24.381 38.9546,24.2104 38.7868,24.0724 38.5863,23.9716 38.3577,23.9082 38.2931,23.9027 38.1005,23.8864 37.6028,23.9272 37.2292,24.0062 37.2022,24.0119 V 24.6389 25.3778 26.7557 27.0391 M 37.603671,25.64215 37.8473,25.7446 37.9184,25.7803 38.1732,25.817 38.4193,25.7712 38.5863,25.6268 38.6556,25.4708 38.6889,25.3957 38.7236,25.0966 38.6855,24.78 38.6413,24.6923 38.5661,24.5421 38.3563,24.3916 38.2066,24.3663 38.0484,24.3396 37.8944,24.3478 37.7324,24.3804 V 24.3896 24.7567 25.4132 25.6873 26.1488 26.7705 27.0391 M 39.0252,26.0337 38.5794,25.3548 M 39.2684,24.5238 38.5894,24.7062 M 38.1944,24.4326 38.073501,23.727485 M 37.7891,24.4326 37.1506,23.9462 M 37.7787,24.767 37.050954,24.446408 M 37.7687,25.4156 37.053485,25.196308 M 37.8396,26.3074 37.8497,25.5574 M 37.8396,26.7734 37.038423,26.574608"
         style="fill:none;stroke:#87a841;stroke-width:0.211071"
         inkstitch:satin_column="True"
         inkstitch:contour_underlay="False"
         inkscape:label="p"
         id="path293"
         sodipodi:nodetypes="cccccccccccccccccccccccccccccccccccccccccccccccccccccccccccccccccccccc"
         inkstitch:pull_compensation_mm="0.08"
         inkstitch:split_method="default"
         inkstitch:min_random_split_length_mm="0.5"
         inkstitch:running_stitch_length_mm="1.5" />
      <path
         d="M 40.081551,24.823681 40.3934,24.8579 H 40.8926 41.1479 L 41.1461,24.8452 41.1194,24.6476 41.0334,24.4942 41.0265,24.4817 40.8807,24.3639 40.6987,24.3238 40.6786,24.3194 40.4643,24.3721 40.3023,24.4853 40.2089,24.6553 40.1888,24.7331 40.1838,25.3635 40.2145,25.4914 40.3468,25.6713 40.5595,25.7853 40.5947,25.7901 40.8487,25.8248 41.2006,25.7886 41.3234,25.7554 41.4554,25.7198 M 40.097119,25.238779 40.3934,25.2501 H 40.9069 41.662 L 41.6634,25.2331 41.6697,25.1493 41.6779,25.048 41.6112,24.5386 41.5602,24.416 41.5279,24.3382 41.4109,24.1737 41.2657,24.045 41.0932,23.9528 40.8945,23.8972 40.7146,23.8823 40.6704,23.8786 40.4719,23.8972 40.278,23.9551 40.0952,24.0509 39.934,24.1861 39.8004,24.3566 39.6951,24.5664 39.6933,24.5735 39.6306,24.8129 39.6099,25.0966 39.6541,25.3992 39.6792,25.57 39.7679,25.7733 39.8936,25.9503 40.06,26.0882 40.2658,26.1932 40.3674,26.222 40.5069,26.2616 40.7876,26.2862 41.0186,26.2702 41.2249,26.2335 41.3853,26.1972 41.5239,26.1488 M 39.6332,24.5542 40.2312,24.7467 M 40.6974,24.3617 40.7177,23.7942 M 40.9709,24.5035 41.7208,24.3921 M 41.0823,24.7974 41.6903,25.2534 M 40.89,24.7873 40.9101,25.3345 M 40.3934,24.8379 V 25.3345 M 39.5623,25.4054 40.3121,25.3548 M 40.6265,25.7297 40.3224,26.3074 M 41.3154,25.6993 41.3967,26.277"
         style="fill:none;stroke:#87a841;stroke-width:0.211071"
         inkstitch:satin_column="True"
         inkstitch:contour_underlay="False"
         inkscape:label="e"
         id="path285"
         inkstitch:pull_compensation_mm="0.08"
         sodipodi:nodetypes="cccccccccccccccccccccccccccccccccccccccccccccccccccccccccccccccccccccccccccccccc"
         inkstitch:min_stitch_length_mm="0.5"
         inkstitch:running_stitch_length_mm="1.5" />
      <path
         d="M 42.1555,26.1156 V 24.4751 24.0184 24.0119 L 42.5561,23.9272 42.908,23.9005 43.0945,23.8864 43.3522,23.9052 43.5636,23.9634 43.7332,24.0542 43.8634,24.1778 43.9181,24.2651 43.9576,24.3284 44.0168,24.5096 44.0697,24.9426 V 25.1995 26.1047 M 42.6857,26.1239 V 24.6438 24.4005 24.3804 L 42.8474,24.3561 42.9495,24.348 43.0543,24.3396 43.2847,24.3804 43.4099,24.4819 43.4345,24.5018 43.5115,24.7122 43.5395,25.0279 V 25.229 26.1047 M 43.4638,25.2332 44.1936,25.1926 M 43.312,24.5238 44.0719,24.1995 M 42.8963,23.7739 42.9572,24.4326 M 42.0552,23.9462 42.7444,24.4427 M 42.0856,24.4529 42.7545,24.6657"
         style="fill:none;stroke:#87a841;stroke-width:0.211071"
         inkstitch:satin_column="True"
         inkstitch:contour_underlay="False"
         inkscape:label="n"
         id="path286"
         sodipodi:nodetypes="ccccccccccccccccccccccccccccccccccccccccc"
         inkstitch:pull_compensation_mm="0.08"
         inkstitch:min_stitch_length_mm="0.5"
         inkstitch:running_stitch_length_mm="1.5" />
      <g
         inkscape:label="t"
         id="g284"
         style="stroke-width:0.797749">
        <path
           d="M 46.0081,28.6699 H 45.8668 45.3802 L 45.025135,28.680877 M 45.8747,28.2247 H 45.3887 L 45.0228,28.231789 M 45.3892,28.1921 45.3792,28.7192"
           style="fill:none;stroke:#87a841;stroke-width:0.211071"
           inkstitch:satin_column="True"
           inkstitch:contour_underlay="False"
           inkscape:label="Satin 11"
           id="path283"
           sodipodi:nodetypes="ccccccccc"
           inkstitch:pull_compensation_mm="0.08"
           inkstitch:min_stitch_length_mm="0.5"
           inkstitch:running_stitch_length_mm="1.5" />
        <path
           d="M 46.0025,30.4781 45.8623,30.5231 45.5062,30.5718 45.2821,30.558 45.0974,30.5112 45.0418,30.4797 44.9516,30.4284 44.8386,30.317 44.701,30.0172 44.6608,29.6084 V 29.519 28.8843 28.1093 27.7278 M 45.9073,30.0648 45.8303,30.0865 45.575,30.1185 45.3948,30.0894 45.345,30.0527 45.2757,30.0013 45.2111,29.8405 45.1905,29.6008 V 29.51 28.8557 28.6699 28.2247 28.0921 27.6219 M 44.5989,28.1112 45.227,28.0908 M 44.528,28.8914 45.2778,28.8509 M 44.619,29.5198 45.217,29.5097 M 45.3995,29.9757 44.9534,30.6041"
           style="fill:none;stroke:#87a841;stroke-width:0.211071"
           inkstitch:satin_column="True"
           inkstitch:contour_underlay="False"
           inkscape:label="Satin 10"
           id="path284"
           sodipodi:nodetypes="cccccccccccccccccccccccccccccccccccc"
           inkstitch:pull_compensation_mm="0.08"
           inkstitch:min_stitch_length_mm="0.5"
           inkstitch:running_stitch_length_mm="1.5" />
      </g>
      <path
         d="M 42.702361,29.576656 42.8841,29.5396 H 43.3675 44.1994 L 44.2004,29.524 44.2071,29.4391 V 29.3417 L 44.1422,28.8303 44.0602,28.6284 43.9441,28.4633 43.9414,28.4609 43.7993,28.3353 43.6284,28.2442 43.431,28.19 43.2077,28.172 43.0294,28.1887 43.0093,28.1908 42.8154,28.249 42.6304,28.3448 42.4672,28.48 42.3357,28.6483 42.2325,28.8562 42.1862,29.0332 42.1679,29.1025 42.1473,29.3862 42.1753,29.5806 42.2166,29.8637 42.3052,30.0651 42.4309,30.24 42.5912,30.3799 42.791,30.4871 42.9503,30.5313 43.0363,30.5554 43.3207,30.58 43.5517,30.5641 43.762,30.5231 43.9364,30.4871 43.989,30.4683 M 42.713461,29.153889 42.9122,29.1475 H 43.3884 43.6774 L 43.6766,29.143 43.6448,28.9409 43.5602,28.7708 43.5199,28.7395 43.4144,28.6578 43.2159,28.6173 43.0707,28.6501 43.0014,28.666 42.8397,28.779 42.7463,28.9491 42.7241,29.0332 42.7034,29.5806 42.7519,29.787 42.8841,29.9728 43.0966,30.0828 43.1175,30.0855 43.3861,30.1185 43.738,30.0783 43.9099,30.0318 M 42.7849,29.0332 H 42.0856 M 43.0789,28.7395 43.018,28.0606 M 44.0414,28.3948 43.4739,28.77 M 44.2645,29.5703 43.5956,29.084 M 43.3625,29.6312 43.3929,29.0636 M 42.8762,29.6516 42.9167,29.084 M 42.0856,29.5806 H 42.7341 M 42.9267,30.594 43.1395,30.0265"
         style="fill:none;stroke:#87a841;stroke-width:0.211071"
         inkstitch:satin_column="True"
         inkstitch:contour_underlay="False"
         inkscape:label="e"
         id="path280"
         sodipodi:nodetypes="ccccccccccccccccccccccccccccccccccccccccccccccccccccccccccccccccccccccccccccc"
         inkstitch:pull_compensation_mm="0.08"
         inkstitch:min_stitch_length_mm="0.5"
         inkstitch:running_stitch_length_mm="1.5" />
      <path
         d="M 40.086758,29.576985 40.41145,29.580135 H 40.89485 41.72675 L 41.72775,29.564535 41.73445,29.479635 V 29.382235 L 41.66955,28.870835 41.58755,28.668935 41.47145,28.503835 41.46875,28.501435 41.32665,28.375835 41.15575,28.284735 40.95835,28.230535 40.73505,28.212535 40.55675,28.229235 40.53665,28.231335 40.34275,28.289535 40.15775,28.385335 39.99455,28.520535 39.86305,28.688835 39.75985,28.896735 39.71355,29.073735 39.69525,29.143035 39.67465,29.426735 39.70265,29.621135 39.74395,29.904235 39.83255,30.105635 39.95825,30.280535 40.11855,30.420435 40.31835,30.527635 40.47765,30.571835 40.56365,30.595935 40.84805,30.620535 41.07905,30.604635 41.28935,30.563635 41.46375,30.527635 41.51635,30.508835 M 40.066586,29.172087 40.43955,29.188035 H 40.91575 41.20475 L 41.20395,29.183535 41.17215,28.981435 41.08755,28.811335 41.04725,28.780035 40.94175,28.698335 40.74325,28.657835 40.59805,28.690635 40.52875,28.706535 40.36705,28.819535 40.27365,28.989635 40.25145,29.073735 40.23075,29.621135 40.27925,29.827535 40.41145,30.013335 40.62395,30.123335 40.64485,30.126035 40.91345,30.159035 41.26535,30.118835 41.43725,30.072335 M 40.31225,29.073735 H 39.61295 M 40.60625,28.780035 40.54535,28.101135 M 41.56875,28.435335 41.00125,28.810535 M 41.79185,29.610835 41.12295,29.124535 M 40.88985,29.671735 40.92025,29.104135 M 40.40355,29.692135 40.44405,29.124535 M 39.61295,29.621135 H 40.26145 M 40.45405,30.634535 40.66685,30.067035"
         style="fill:none;stroke:#87a841;stroke-width:0.211071"
         inkstitch:satin_column="True"
         inkstitch:contour_underlay="False"
         inkscape:label="e"
         id="path2"
         sodipodi:nodetypes="ccccccccccccccccccccccccccccccccccccccccccccccccccccccccccccccccccccccccccccc"
         inkstitch:pull_compensation_mm="0.08"
         inkstitch:min_stitch_length_mm="0.5"
         inkstitch:running_stitch_length_mm="1.5" />
      <path
         d="M 38.1698,30.4202 V 29.7084 28.7959 28.3419 L 38.2105,28.33 38.546,28.2329 38.9818,28.1881 39.0596,28.1802 39.1853,28.1884 39.3226,28.2085 39.4414,28.2294 M 38.6995,30.4125 V 29.6854 28.861 28.6901 28.6861 L 38.8291,28.6578 39.0035,28.6358 39.0233,28.6334 39.2906,28.666 39.3591,28.6824 M 38.9747,28.0402 39.0051,28.6686 M 38.0828,28.2429 38.4526,28.4951 38.7617,28.7395 M 38.1232,28.7901 38.782,28.8713 M 38.0828,29.7124 38.782,29.682"
         style="fill:none;stroke:#87a841;stroke-width:0.211071"
         inkstitch:satin_column="True"
         inkstitch:contour_underlay="False"
         inkscape:label="r"
         id="path289"
         sodipodi:nodetypes="cccccccccccccccccccccccccccccc"
         inkstitch:pull_compensation_mm="0.08"
         inkstitch:min_stitch_length_mm="0.5"
         inkstitch:running_stitch_length_mm="1.5" />
      <g
         inkscape:label="t"
         id="g291"
         style="stroke-width:0.797749">
        <path
           d="M 36.741665,28.225085 37.021,28.2247 H 37.6338 M 36.774667,28.676609 37.0361,28.6699 H 37.6189 M 37.0189,28.1619 37.039,28.7596"
           style="fill:none;stroke:#87a841;stroke-width:0.211071"
           inkstitch:satin_column="True"
           inkstitch:contour_underlay="False"
           inkscape:label="Satin 4"
           id="path290"
           sodipodi:nodetypes="cccccccc"
           inkstitch:pull_compensation_mm="0.08"
           inkstitch:min_stitch_length_mm="0.5"
           inkstitch:running_stitch_length_mm="1.5" />
        <path
           d="M 37.8298,30.4466 37.6901,30.4905 37.5869,30.5231 37.2385,30.5718 37.0107,30.558 36.822,30.5112 36.7344,30.4614 36.6762,30.4284 36.563,30.317 36.4294,30.0172 36.3931,29.6084 V 29.2359 28.1585 27.709 M 37.6107,30.0722 37.5626,30.0865 37.3078,30.1185 37.1273,30.0894 37.0268,30.0151 37.008,30.0013 36.9437,29.8405 36.9234,29.6008 V 29.2359 28.6699 28.2247 28.0828 27.641 M 36.2992,28.172 37.0085,28.0707 M 36.3905,29.2359 H 36.9884 M 36.6741,30.5535 37.0593,29.9656"
           style="fill:none;stroke:#87a841;stroke-width:0.211071"
           inkstitch:satin_column="True"
           inkstitch:contour_underlay="False"
           inkscape:label="Satin 3"
           id="path291"
           sodipodi:nodetypes="ccccccccccccccccccccccccccccccccc"
           inkstitch:pull_compensation_mm="0.08"
           inkstitch:min_stitch_length_mm="0.5"
           inkstitch:running_stitch_length_mm="1.5" />
      </g>
      <path
         d="M 35.6293,28.0212 35.4097,27.9331 35.1745,27.9077 35.0371,27.8929 34.8411,27.9164 34.6934,27.9857 34.609,28.0865 34.6022,28.095 34.572,28.2411 34.6083,28.4189 34.7255,28.5403 34.8982,28.644 34.908,28.6498 35.13,28.743 35.5147,28.9004 35.8018,29.0949 35.8145,29.1137 35.9761,29.3579 36.0407,29.7264 36.0222,29.9206 35.9666,30.0918 35.8888,30.2167 35.8743,30.2402 35.7457,30.3657 35.3906,30.5329 34.8996,30.5882 34.7128,30.5707 34.5556,30.5556 34.2765,30.503 34.0704,30.4342 34.0209,30.4098 M 35.7928,27.573 35.5555,27.4799 35.1745,27.4349 35.0453,27.4195 H 34.9281 L 34.5633,27.4891 34.2765,27.65 34.1521,27.7772 34.0894,27.8831 34.0637,27.9267 33.9934,28.2934 34.0071,28.4776 34.0537,28.6334 34.2402,28.8721 34.495,29.0422 34.6688,29.1107 34.8025,29.1637 35.0779,29.2809 35.284,29.3941 35.2935,29.4039 35.4173,29.532 35.4703,29.7264 35.4353,29.8886 35.4345,29.8897 35.3327,30.0095 35.1567,30.0852 34.8996,30.1109 34.7752,30.1021 34.6339,30.0926 34.4098,30.0415 34.168,29.9394 M 34.7892,29.996 34.7083,30.6041 M 35.3366,29.8238 35.6671,30.0455 35.9447,30.2596 M 35.1946,29.4589 35.9042,29.0636 M 34.921,28.5977 34.6273,29.1954 M 33.9989,27.8476 34.6982,28.1212 M 35.1745,27.3613 V 27.9998"
         style="fill:none;stroke:#87a841;stroke-width:0.211071"
         inkstitch:satin_column="True"
         inkstitch:contour_underlay="False"
         inkscape:label="S"
         id="path292"
         sodipodi:nodetypes="ccccccccccccccccccccccccccccccccccccccccccccccccccccccccccccccccccccccccccc"
         inkstitch:pull_compensation_mm="0.08"
         inkstitch:min_stitch_length_mm="0.5"
         inkstitch:running_stitch_length_mm="1.5" />
      <path
         d="M 33.6129,34.7173 33.6449,34.032 33.6502,33.9584 33.7018,33.2306 33.7251,32.97 33.7706,32.4614 33.7939,32.2304 33.8391,31.7777 H 34.3535 L 34.5678,32.1865 34.6651,32.3929 34.8067,32.6927 34.9525,33.0213 35.0453,33.2306 35.185,33.5452 35.2681,33.7322 35.3213,33.6118 35.4904,33.2306 35.729,32.6927 35.8611,32.4223 35.9761,32.1865 36.1865,31.7777 H 36.6844 L 36.7609,32.4858 36.7773,32.6921 36.822,33.2549 36.8572,33.7452 36.8784,34.0402 36.9181,34.7199 M 34.1585,34.7091 34.1839,33.9584 34.1918,33.7245 34.237,33.0036 34.2513,32.7776 34.2603,32.6316 34.3188,32.7546 34.3778,32.8787 34.5151,33.1776 34.5395,33.2316 34.6691,33.5179 34.8149,33.8537 34.866,33.9682 34.9525,34.1611 35.0615,34.4082 H 35.4703 L 35.5756,34.1696 35.6843,33.9185 35.7089,33.8619 35.8547,33.5179 36.0087,33.1861 36.146,32.8787 36.1711,32.826 36.2635,32.6316 36.2849,32.9747 36.332,33.7245 36.336,33.8174 36.3733,34.7273 M 36.2688,33.8267 36.9276,33.7354 M 36.2487,32.9956 36.8667,32.6411 M 35.7724,32.3066 36.2082,32.8742 M 35.2758,33.5732 35.7317,33.9584 M 35.225,33.4922 34.7892,34.0698 M 34.5056,33.2491 35.0223,32.9856 M 33.7558,32.1849 34.2725,32.803 M 34.2725,32.803 34.7286,32.3268 M 33.6544,32.9652 34.2725,33.0057 M 33.5732,33.9584 H 34.2016"
         style="fill:none;stroke:#87a841;stroke-width:0.211071"
         inkstitch:satin_column="True"
         inkstitch:contour_underlay="False"
         inkscape:label="M"
         id="path288"
         sodipodi:nodetypes="ccccccccccccccccccccccccccccccccccccccccccccccccccccccccccccccccccccccccccccc"
         inkstitch:pull_compensation_mm="0.08"
         inkstitch:min_stitch_length_mm="0.5"
         inkstitch:center_walk_underlay="False"
         inkstitch:running_stitch_length_mm="1.5"
         inkstitch:start_at_nearest_point="True"
         inkstitch:end_at_nearest_point="True" />
      <path
         d="M 38.755889,33.48405 38.6048,33.4507 38.4328,33.4171 38.2545,33.4089 38.1399,33.4213 37.8859,33.4491 37.5827,33.5706 37.4612,33.6968 37.3766,33.7849 37.3194,33.9354 37.2996,34.1167 37.3133,34.3074 37.3599,34.4651 37.448,34.5696 37.5544,34.6956 37.8457,34.8252 38.1695,34.8564 38.2219,34.8615 38.7765,34.8252 39.1527,34.7644 V 34.744 34.2849 33.8989 33.3721 L 39.1503,33.3531 39.1083,33.0001 39.048,32.8453 38.9913,32.7673 38.9546,32.7167 38.8297,32.6106 38.6675,32.5307 38.4653,32.4797 38.2219,32.4614 37.9846,32.4852 37.8131,32.5024 37.6343,32.5434 M 38.719454,33.840482 38.5746,33.8132 38.5135,33.8015 38.3315,33.7849 38.1743,33.7989 38.1455,33.8015 37.9833,33.846 37.9005,33.9254 37.8782,33.9468 37.8298,34.109 37.8587,34.2691 37.86,34.2704 37.947,34.372 38.088,34.4238 38.214,34.4355 38.2706,34.4408 38.5929,34.4196 38.6389,34.4164 V 34.3 33.9068 L 38.6384,33.3684 38.6146,33.1943 38.5376,33.0485 38.5331,33.0454 38.3921,32.9472 38.1698,32.9112 38.0089,32.9244 37.8298,32.939 37.7068,32.9694 M 38.5693,33.8772 38.6098,33.3909 M 38.1841,33.9076 38.1336,33.3504 M 37.9409,33.9481 37.6901,33.8063 37.3938,33.6645 M 37.3126,34.6678 37.9409,34.2116 M 38.164,34.9109 38.2246,34.3333 M 39.2482,34.7995 38.5489,34.3942 M 39.2279,34.2825 38.5389,34.3029 M 39.2482,33.8976 38.5794,33.9076 M 39.2382,33.3504 38.5693,33.3705 M 39.0657,32.722 38.4984,33.0665 M 38.0118,32.9755 37.9814,32.4281"
         style="fill:none;stroke:#87a841;stroke-width:0.211071"
         inkstitch:satin_column="True"
         inkstitch:contour_underlay="False"
         inkscape:label="a"
         id="path287"
         sodipodi:nodetypes="cccccccccccccccccccccccccccccccccccccccccccccccccccccccccccccccccccccccccccccccccccccccc"
         inkstitch:pull_compensation_mm="0.08"
         inkstitch:min_stitch_length_mm="0.5"
         inkstitch:center_walk_underlay="False"
         inkstitch:running_stitch_length_mm="1.5"
         inkstitch:start_at_nearest_point="True"
         inkstitch:end_at_nearest_point="True" />
      <path
         d="M 40.0854,34.6188 40.3439,34.7733 40.4682,34.8252 40.7675,34.8615 40.9971,34.839 41.1797,34.7792 41.2006,34.7726 41.375,34.6665 41.5162,34.5254 41.6266,34.3527 41.7065,34.1492 41.7626,33.9214 41.7774,33.7454 41.7835,33.6719 41.7615,33.4068 41.6983,33.17 41.6014,32.9644 41.4678,32.7937 41.439,32.7702 41.2998,32.6559 41.0993,32.5551 40.8709,32.4916 40.614,32.4699 40.4434,32.4836 40.1158,32.5101 39.7152,32.5953 V 32.6286 33.5253 35.1292 L 39.696251,35.629641 M 40.17148,34.208076 40.3513,34.3236 40.4317,34.3638 40.6828,34.4006 40.9305,34.3545 40.941,34.3453 41.0993,34.2098 41.2019,33.9788 41.23,33.737 41.2366,33.6801 41.1964,33.3634 41.0889,33.153 41.0749,33.1255 40.8675,32.9792 40.5614,32.9313 40.4796,32.9353 40.4074,32.939 40.2455,32.9633 V 32.97 33.4822 34.2706 34.7323 35.0985 35.6261 M 40.3325,35.0932 39.6332,35.134 M 40.373,33.4719 39.6232,33.5327 M 40.3325,33.026 39.5927,32.5498 M 40.4846,32.9956 40.4338,32.3672 M 41.0014,33.2491 41.5385,32.6612 M 41.1331,33.7354 41.7917,33.7454 M 40.89,34.2521 41.2244,34.8604 M 40.3529,34.2421 40.3426,34.84"
         style="fill:none;stroke:#87a841;stroke-width:0.211071"
         inkstitch:satin_column="True"
         inkstitch:contour_underlay="False"
         inkscape:label="p"
         id="path279"
         sodipodi:nodetypes="cccccccccccccccccccccccccccccccccccccccccccccccccccccccccccccccccccccc"
         inkstitch:pull_compensation_mm="0.08"
         inkstitch:min_stitch_length_mm="0.5"
         inkstitch:start_at_nearest_point="True"
         inkstitch:end_at_nearest_point="True"
         inkstitch:center_walk_underlay="False"
         inkstitch:running_stitch_length_mm="1.5" />
    </g>
  </g>
</svg>
