<?xml version="1.0" encoding="UTF-8" standalone="no"?>
<!-- Created with Inkscape (http://www.inkscape.org/) -->

<svg
   width="300mm"
   height="300mm"
   viewBox="0 0 300 300"
   version="1.1"
   id="svg1"
   inkscape:version="1.4 (e7c3feb100, 2024-10-09)"
   sodipodi:docname="inkscape_logo_cut.svg"
   xmlns:inkscape="http://www.inkscape.org/namespaces/inkscape"
   xmlns:sodipodi="http://sodipodi.sourceforge.net/DTD/sodipodi-0.dtd"
   xmlns="http://www.w3.org/2000/svg"
   xmlns:svg="http://www.w3.org/2000/svg">
  <sodipodi:namedview
     id="namedview1"
     pagecolor="#ffffff"
     bordercolor="#000000"
     borderopacity="0.25"
     inkscape:showpageshadow="2"
     inkscape:pageopacity="0.0"
     inkscape:pagecheckerboard="0"
     inkscape:deskcolor="#d1d1d1"
     inkscape:document-units="mm"
     showgrid="true"
     inkscape:zoom="0.76288194"
     inkscape:cx="566.92913"
     inkscape:cy="566.92913"
     inkscape:window-width="1920"
     inkscape:window-height="1131"
     inkscape:window-x="0"
     inkscape:window-y="32"
     inkscape:window-maximized="1"
     inkscape:current-layer="layer1">
    <inkscape:grid
       id="grid3"
       units="mm"
       originx="0"
       originy="0"
       spacingx="1"
       spacingy="0.99999986"
       empcolor="#0099e5"
       empopacity="0.30196078"
       color="#00d9e5"
       opacity="0.14901961"
       empspacing="5"
       enabled="true"
       visible="true" />
  </sodipodi:namedview>
  <defs
     id="defs1" />
  <g
     inkscape:label="Layer 1"
     inkscape:groupmode="layer"
     id="layer1">
    <path
       id="path689"
       style="display:inline;fill:none;fill-opacity:1;stroke:#000000;stroke-width:0.339947;stroke-opacity:1"
       d="M 114.34933,111.33796 C 112.28161,110.14208 109.89083,109.18666 108.35984,107.27268 107.48277,106.09744 107.31041,104.5535 108.70117,103.13439 109.47526,102.53105 110.88147,101.90253 112.91357,101.07038 113.44324,100.85379 113.98101,100.62583 114.59176,100.39601 124.44405,96.664068 135.07242,94.421598 143.90563,88.453648 145.44365,87.159948 145.79774,86.755508 146.65053,85.566648 147.10627,84.860938 147.76672,83.557798 147.73808,81.964658 L 147.7386,81.984528 C 147.70906,81.112728 147.55531,78.923238 144.83546,75.546238 144.62174,75.281028 144.51376,75.134028 144.33519,74.927078 L 129.21442,59.387947 126.30764,56.416634 92.817319,22.185265 92.845089,22.212786 C 90.032889,19.512723 86.638949,17.322668 82.897769,17.315169 78.669919,17.307138 74.897749,19.953731 72.435803,22.229185 L 72.481505,22.18474 66.155593,28.658594 24.225479,71.565838 C 24.225479,71.565838 17.280142,76.854738 19.979634,83.061598 20.641265,84.582868 22.30831,85.737408 24.721561,86.760848 27.738125,88.040158 31.600551,88.891538 35.636702,89.820748 39.610757,90.735668 43.588478,91.674688 46.728185,93.229168 47.109848,93.506308 48.066292,94.338058 47.997818,95.673888 47.95635,96.482888 47.547058,97.142228 47.063164,97.665218 44.856207,100.05051 39.121826,101.73208 36.09955,103.77704 35.654181,104.13359 34.5923,104.64185 35.130391,105.27195 36.862191,107.0421 42.148714,108.8755 49.471238,111.25988 53.293632,112.50454 57.135318,113.75126 60.130125,115.05315 62.126662,115.92108 63.745658,116.76983 64.829931,117.87628 65.481688,118.54245 65.902109,119.33142 66.013483,120.14695 66.124857,120.96249 65.934879,121.74226 65.621703,122.42192 64.995351,123.78123 63.904853,124.8861 62.537131,126.30817 60.502802,128.42848 59.709286,129.545 59.955785,130.36029 60.42006,131.89582 63.42026,132.6679 64.59017,132.91354 66.894359,133.36295 69.26637,133.6646 71.415551,134.65972 74.982556,136.10912 75.534277,139.26325 76.702099,142.43976 76.716939,142.4759 76.732659,142.51163 76.756469,142.56512 76.756469,142.56512 77.118669,143.16992 77.399429,143.41619 81.531999,146.41382 86.801949,144.07809 91.679329,142.63425 L 91.662379,142.64042 C 94.488559,141.58792 97.581529,140.16315 100.08821,138.32859 100.08821,138.32859 100.47021,137.67067 100.47098,137.68138 98.846189,135.9869 95.595579,135.90976 94.894739,133.32247 94.638619,132.13327 95.296209,131.0859 96.085719,130.25249 101.30065,124.91954 107.04246,123.71523 111.41461,122.49591 115.6181,121.32363 118.61117,120.18826 119.68533,115.44867 119.57407,114.51485 117.83264,113.22922 114.34933,111.33796 Z M 128.56107,116.23036 C 128.51095,114.99316 129.54768,114.01896 130.45717,113.35676 131.75274,112.33012 132.88069,111.92149 134.66183,111.89063 135.20848,111.88115 136.48742,111.84935 136.9773,111.93848 138.20766,112.006 138.68815,112.12256 139.95728,112.57326 140.87845,112.85487 141.63421,113.18476 142.07398,113.46562 142.76189,113.90496 143.24979,114.30796 143.5586,114.63685 143.8674,114.96574 143.98744,115.20977 144.02336,115.338 144.0593,115.46621 144.05124,115.48344 144.01274,115.57171 143.97426,115.65997 143.86404,115.82229 143.625,116.01258 143.0513,116.46928 141.80294,116.98662 140.30785,117.31659 138.06523,117.81157 135.25523,117.95672 133.10522,117.70435 132.17328,117.59495 131.05771,117.39558 130.15191,117.09617 129.74432,116.96143 129.37938,116.8068 129.10286,116.64998 128.82635,116.49315 128.64331,116.33407 128.56107,116.23036 M 125.20101,122.75776 C 125.35664,122.81773 125.91598,122.81504 126.24325,122.94873 127.10089,123.29908 128.16794,123.80075 129.18045,124.47575 130.02056,125.03583 130.4238,125.87904 130.4238,126.33019 130.4238,126.55575 130.12585,127.15228 129.9875,127.35392 129.84914,127.55556 129.48798,127.79283 129.10802,127.97015 128.40019,128.44213 127.64909,128.49399 126.94267,128.23275 126.40242,128.09214 125.5662,127.86675 124.32991,126.70855 123.93969,126.34297 123.79192,126.00762 123.81982,125.56796 123.83959,125.25646 123.89866,124.64314 124.16492,124.13349 124.43118,123.62383 124.90489,123.12015 125.20101,122.75776 Z M 53.22286,122.28302 C 54.885299,122.27248 55.858075,122.59446 56.423147,122.90713 56.681509,123.0501 56.857606,123.19084 56.980874,123.31348 56.802913,123.62143 56.57525,124.00846 56.295666,124.44487 55.666418,125.42708 54.80682,126.6002 54.075385,127.27069 53.269254,128.00964 52.562295,128.46479 51.73559,128.79513 50.908885,129.12548 49.93519,129.33051 48.622945,129.47238 47.876328,129.55308 47.299078,129.32615 46.739956,128.89871 46.320613,128.57814 45.940701,128.13694 45.648405,127.68765 45.376663,127.26995 45.186102,126.84741 45.085367,126.5536 45.09478,126.50555 45.119321,126.41074 45.178321,126.2827 45.306092,126.00544 45.574231,125.60297 45.967105,125.18319 47.145731,123.92385 49.407352,122.52261 52.333154,122.31754 52.646371,122.29558 52.943352,122.28479 53.22286,122.28302 Z" />
  </g>
</svg>
