<?xml version="1.0" encoding="UTF-8"?>
<!DOCTYPE svg PUBLIC "-//W3C//DTD SVG 1.1//EN" "http://www.w3.org/Graphics/SVG/1.1/DTD/svg11.dtd">
<!-- Official logo release date: 2018.03 > X3msnake  -->
<svg xmlns="http://www.w3.org/2000/svg" xml:space="preserve" width="100mm" height="96.4295mm" version="1.1" style="shape-rendering:geometricPrecision; text-rendering:geometricPrecision; image-rendering:optimizeQuality; fill-rule:evenodd; clip-rule:evenodd"
viewBox="0 0 10485 10110"
 xmlns:xlink="http://www.w3.org/1999/xlink">
 <defs>
  <style type="text/css">
   <![CDATA[
    .fil0 {fill:none}
    .fil1 {fill:#003399}
   ]]>
  </style>
 </defs>
 <g id="Layer_x0020_1">
  <metadata id="CorelCorpID_0Corel-Layer"/>
  <rect class="fil0" width="10485" height="10110"/>
  <path class="fil1" d="M6840 5191l0 -36c0,-10 8,-19 19,-19l205 0c10,0 18,9 18,19l0 36c0,10 -8,19 -18,19l-205 0c-11,0 -19,-9 -19,-19zm1956 -1087c7,45 47,80 94,80l0 0c52,0 95,-42 95,-94l0 -100c0,-26 12,-48 34,-61 22,-14 47,-14 70,-2 57,30 96,87 96,161l0 1934c0,103 -84,187 -187,187l-202 0 0 307c0,1151 -942,2093 -2093,2093l-2921 0c-1151,0 -2093,-942 -2093,-2093l0 -279 -199 0c-105,0 -190,-85 -190,-190l0 -1927c0,-104 85,-190 190,-190l199 0 0 -335c0,-1152 942,-2094 2093,-2094l2921 0c1151,0 2093,942 2093,2094l0 509zm-7255 1170l74 0c30,0 56,14 74,36l0 118c-18,22 -44,36 -74,36l-74 0c-52,0 -95,-43 -95,-95l0 0c0,-52 43,-95 95,-95zm37 492c52,0 95,43 95,95 0,52 -43,95 -95,95 -53,0 -95,-43 -95,-95 0,-52 42,-95 95,-95zm7297 -492l74 0c52,0 95,43 95,95l0 0c0,52 -43,95 -95,95l-74 0c-33,0 -62,-17 -79,-42l0 -106c17,-25 46,-42 79,-42zm37 493c52,0 94,42 94,94 0,52 -42,94 -94,94 -52,0 -94,-42 -94,-94 0,-52 42,-94 94,-94zm-1358 -581c-469,106 -539,115 -1087,51l-1282 13c-260,2 -457,80 -714,80l-1437 0 -95 -52 0 -210 95 -52 1437 0c257,0 454,78 714,80l1282 13c548,-64 618,-55 1087,51 6,1 10,7 10,13 0,6 -4,11 -10,13zm-4389 -577l0 -1502 359 0 0 1502 -359 0zm1085 0l0 -1551 34 0 935 877 0 -828 331 0 0 1559 -31 0 -938 -876 0 819 -331 0zm1987 0l0 -1502 354 0 0 654 496 -654 427 0 -566 714 611 788 -433 0 -535 -692 0 692 -354 0zm-3336 1929c60,36 110,62 152,77 42,14 83,22 123,22 40,0 72,-9 97,-27 24,-17 36,-40 36,-68 0,-39 -43,-84 -130,-134 -14,-8 -25,-14 -32,-19l-66 -37c-64,-36 -111,-77 -142,-123 -31,-45 -46,-97 -46,-155 0,-78 29,-142 88,-192 59,-51 135,-76 229,-76 34,0 72,5 112,13 40,8 85,20 134,37l0 228c-47,-29 -91,-52 -133,-68 -43,-16 -78,-24 -108,-24 -33,0 -58,7 -77,21 -19,14 -28,33 -28,57 0,17 5,33 16,48 12,15 28,28 51,40l114 63c96,53 160,102 193,147 33,44 49,97 49,159 0,95 -32,171 -97,230 -65,58 -150,87 -257,87 -36,0 -76,-3 -119,-11 -42,-8 -89,-20 -140,-36l-19 -259zm999 275l0 -770 -309 0 0 -204 849 0 0 204 -308 0 0 770 -232 0zm684 0l0 -974 232 0 0 974 -232 0zm686 0l0 -770 -309 0 0 -204 850 0 0 204 -308 0 0 770 -233 0zm1377 -666c-43,-43 -85,-75 -128,-96 -44,-21 -89,-31 -136,-31 -83,0 -150,28 -202,85 -53,57 -79,130 -79,219 0,89 26,161 78,216 52,55 119,83 203,83 49,0 98,-10 147,-31 49,-21 98,-51 147,-93l-15 259c-42,28 -87,50 -137,64 -49,15 -100,22 -154,22 -57,0 -112,-9 -165,-26 -52,-18 -101,-45 -145,-80 -63,-49 -111,-109 -144,-180 -33,-71 -50,-148 -50,-232 0,-72 12,-140 37,-203 25,-63 60,-119 107,-167 48,-48 103,-85 165,-111 62,-26 128,-39 197,-39 54,0 106,8 156,23 50,15 97,39 142,70l-24 248zm181 666l0 -974 229 0 0 358 376 0 0 -358 228 0 0 974 -228 0 0 -409 -376 0 0 409 -229 0zm-3046 -4956c-955,0 -1738,783 -1738,1738l0 2921c0,955 783,1738 1738,1738l2921 0c955,0 1738,-783 1738,-1738l0 -2921c0,-955 -783,-1738 -1738,-1738l-2921 0z"/>
 </g>
</svg>
