<svg xmlns="http://www.w3.org/2000/svg" viewBox="0 0 24 24" width="24" height="24" fill="none" stroke="#000000" stroke-width="1.5" stroke-linecap="round" stroke-linejoin="round">
    <path d="M14 3H10C6.22876 3 4.34315 3 3.17157 4.17157C2 5.34315 2 7.22876 2 11V13C2 16.7712 2 18.6569 3.17157 19.8284C4.34315 21 6.22876 21 10 21H14C17.7712 21 19.6569 21 20.8284 19.8284C22 18.6569 22 16.7712 22 13V11C22 7.22876 22 5.34315 20.8284 4.17157C19.6569 3 17.7712 3 14 3Z" />
    <circle cx="8.5" cy="8.5" r="1.5" />
    <path d="M21.5 17L16.348 11.3797C16.1263 11.1377 15.8131 11 15.485 11C15.1744 11 14.8766 11.1234 14.6571 11.3429L10 16L7.83928 13.8393C7.62204 13.622 7.32741 13.5 7.02019 13.5C6.68931 13.5 6.37423 13.6415 6.15441 13.8888L2.5 18" />
</svg>