<?xml version="1.0" encoding="UTF-8"?>
<!DOCTYPE svg PUBLIC "-//W3C//DTD SVG 1.1//EN" "http://www.w3.org/Graphics/SVG/1.1/DTD/svg11.dtd">
<!-- Official logo release date: 2018.03 > X3msnake  -->
<svg xmlns="http://www.w3.org/2000/svg" xml:space="preserve" width="99.9999mm" height="96.4295mm" version="1.1" style="shape-rendering:geometricPrecision; text-rendering:geometricPrecision; image-rendering:optimizeQuality; fill-rule:evenodd; clip-rule:evenodd"
viewBox="0 0 15109 14570"
 xmlns:xlink="http://www.w3.org/1999/xlink">
 <defs>
  <style type="text/css">
   <![CDATA[
    .fil0 {fill:none}
    .fil3 {fill:black}
    .fil1 {fill:#003399}
    .fil4 {fill:gray}
    .fil2 {fill:white}
   ]]>
  </style>
 </defs>
 <g id="Layer_x0020_1">
  <metadata id="CorelCorpID_0Corel-Layer"/>
  <rect class="fil0" width="15109" height="14570"/>
  <path class="fil1" d="M9857 7480l0 -51c0,-15 12,-27 27,-27l295 0c15,0 27,12 27,27l0 51c0,15 -12,28 -27,28l-295 0c-15,0 -27,-13 -27,-28zm2819 -1566c10,66 67,116 135,116l0 0c75,0 137,-61 137,-137l0 -144c0,-37 18,-68 49,-88 32,-19 69,-20 101,-2 83,43 138,125 138,232l0 2788c0,147 -121,268 -268,268l-292 0 0 443c0,1659 -1357,3016 -3016,3016l-4210 0c-1659,0 -3017,-1357 -3017,-3016l0 -402 -286 0c-151,0 -274,-123 -274,-273l0 -2778c0,-150 123,-273 274,-273l286 0 0 -484c0,-1659 1358,-3016 3017,-3016l4210 0c1659,0 3016,1357 3016,3016l0 734zm-10456 1686l107 0c43,0 81,21 106,52l0 170c-25,32 -63,52 -106,52l-107 0c-75,0 -136,-62 -136,-137l0 0c0,-75 61,-137 136,-137zm54 710c75,0 136,61 136,136 0,76 -61,137 -136,137 -76,0 -137,-61 -137,-137 0,-75 61,-136 137,-136zm10515 -710l107 0c75,0 137,62 137,137l0 0c0,75 -62,137 -137,137l-107 0c-47,0 -88,-24 -113,-61l0 -152c25,-36 66,-61 113,-61zm54 711c75,0 135,60 135,135 0,75 -60,136 -135,136 -75,0 -136,-61 -136,-136 0,-75 61,-135 136,-135zm-1957 -838c-676,154 -776,166 -1566,74l-1848 18c-374,4 -659,116 -1029,116l-2070 0 -138 -75 0 -302 138 -75 2070 0c370,0 655,111 1029,115l1848 19c790,-92 890,-80 1566,73 9,2 15,10 15,19 0,9 -6,16 -15,18zm-6324 -832l0 -2163 516 0 0 2163 -516 0zm1562 0l0 -2234 50 0 1347 1263 0 -1192 477 0 0 2246 -45 0 -1352 -1263 0 1180 -477 0zm2865 0l0 -2163 510 0 0 941 715 -941 614 0 -816 1029 881 1134 -624 0 -770 -996 0 996 -510 0zm-4809 2781c86,52 160,89 220,111 60,21 119,31 177,31 57,0 104,-13 139,-38 35,-26 53,-58 53,-98 0,-57 -63,-122 -188,-193 -20,-12 -36,-21 -46,-27l-95 -54c-92,-52 -161,-111 -205,-177 -45,-66 -67,-140 -67,-223 0,-113 43,-206 128,-278 85,-72 195,-108 330,-108 50,0 103,5 161,17 58,12 123,30 194,54l0 329c-68,-43 -132,-75 -193,-98 -61,-23 -112,-35 -155,-35 -47,0 -84,10 -111,30 -27,21 -41,48 -41,83 0,24 8,47 25,68 16,22 40,41 72,58l165 91c137,76 230,147 277,211 48,65 72,141 72,230 0,136 -47,247 -140,331 -93,84 -217,126 -371,126 -52,0 -109,-5 -171,-16 -61,-11 -128,-28 -202,-51l-28 -374zm1440 396l0 -1110 -445 0 0 -293 1224 0 0 293 -444 0 0 1110 -335 0zm986 0l0 -1403 335 0 0 1403 -335 0zm989 0l0 -1110 -446 0 0 -293 1225 0 0 293 -444 0 0 1110 -335 0zm1983 -959c-60,-63 -122,-109 -184,-139 -62,-30 -128,-45 -196,-45 -119,0 -216,41 -291,122 -76,82 -113,188 -113,316 0,128 37,232 112,312 75,79 172,119 292,119 71,0 142,-14 213,-44 70,-30 141,-74 211,-134l-22 373c-60,40 -125,71 -196,92 -72,22 -146,32 -223,32 -82,0 -161,-12 -237,-38 -76,-26 -146,-64 -209,-115 -91,-71 -160,-157 -208,-259 -48,-102 -72,-214 -72,-335 0,-104 18,-201 53,-292 36,-91 87,-171 155,-241 68,-70 147,-123 237,-160 90,-37 184,-55 283,-55 79,0 154,10 226,33 72,21 140,55 205,99l-36 359zm261 959l0 -1403 331 0 0 515 541 0 0 -515 329 0 0 1403 -329 0 0 -589 -541 0 0 589 -331 0zm-4389 -7142c-1376,0 -2504,1128 -2504,2504l0 4210c0,1376 1128,2504 2504,2504l4210 0c1376,0 2504,-1128 2504,-2504l0 -4210c0,-1376 -1128,-2504 -2504,-2504l-4210 0z"/>
  <path class="fil2" d="M5450 2676c-1376,0 -2504,1128 -2504,2504l0 4210c0,1376 1128,2504 2504,2504l4210 0c1376,0 2504,-1128 2504,-2504l0 -4210c0,-1376 -1128,-2504 -2504,-2504l-4210 0z"/>
  <path class="fil3" d="M9839 9818l0 -1403 331 0 0 515 541 0 0 -515 329 0 0 1403 -329 0 0 -589 -541 0 0 589 -331 0zm-261 -959c-60,-63 -122,-109 -184,-139 -62,-30 -128,-45 -196,-45 -119,0 -216,41 -291,122 -76,82 -113,188 -113,316 0,128 37,232 112,312 75,79 172,119 292,119 71,0 142,-14 213,-44 70,-30 141,-74 211,-134l-22 373c-60,40 -125,71 -196,92 -72,22 -146,32 -223,32 -82,0 -161,-12 -237,-38 -76,-26 -146,-64 -209,-115 -91,-71 -160,-157 -208,-259 -48,-102 -72,-214 -72,-335 0,-104 18,-201 53,-292 36,-91 87,-171 155,-241 68,-70 147,-123 237,-160 90,-37 184,-55 283,-55 79,0 154,10 226,33 72,21 140,55 205,99l-36 359zm-1983 959l0 -1110 -446 0 0 -293 1225 0 0 293 -444 0 0 1110 -335 0zm-989 0l0 -1403 335 0 0 1403 -335 0zm-986 0l0 -1110 -445 0 0 -293 1224 0 0 293 -444 0 0 1110 -335 0zm-1440 -396c86,52 160,89 220,111 60,21 119,31 177,31 57,0 104,-13 139,-38 35,-26 53,-58 53,-98 0,-57 -63,-122 -188,-193 -20,-12 -36,-21 -46,-27l-95 -54c-92,-52 -161,-111 -205,-177 -45,-66 -67,-140 -67,-223 0,-113 43,-206 128,-278 85,-72 195,-108 330,-108 50,0 103,5 161,17 58,12 123,30 194,54l0 329c-68,-43 -132,-75 -193,-98 -61,-23 -112,-35 -155,-35 -47,0 -84,10 -111,30 -27,21 -41,48 -41,83 0,24 8,47 25,68 16,22 40,41 72,58l165 91c137,76 230,147 277,211 48,65 72,141 72,230 0,136 -47,247 -140,331 -93,84 -217,126 -371,126 -52,0 -109,-5 -171,-16 -61,-11 -128,-28 -202,-51l-28 -374z"/>
  <path class="fil3" d="M8989 6641l0 -2163 510 0 0 941 715 -941 614 0 -816 1029 881 1134 -624 0 -770 -996 0 996 -510 0zm-2865 0l0 -2234 50 0 1347 1263 0 -1192 477 0 0 2246 -45 0 -1352 -1263 0 1180 -477 0zm-1562 0l0 -2163 516 0 0 2163 -516 0z"/>
  <path class="fil4" d="M10886 7473c-676,154 -776,166 -1566,74l-1848 18c-374,4 -659,116 -1029,116l-2070 0 -138 -75 0 -302 138 -75 2070 0c370,0 655,111 1029,115l1848 19c790,-92 890,-80 1566,73 9,2 15,10 15,19 0,9 -6,16 -15,18zm-1029 7l0 -51c0,-15 12,-27 27,-27l295 0c15,0 27,12 27,27l0 51c0,15 -12,28 -27,28l-295 0c-15,0 -27,-13 -27,-28z"/>
 </g>
</svg>
