<?xml version="1.0" encoding="UTF-8" standalone="no"?>
<!-- Created with Inkscape (http://www.inkscape.org/) -->

<svg
   width="256"
   height="256"
   viewBox="0 0 256 256"
   id="svg8375"
   version="1.1"
   inkscape:version="1.3 (1:1.3+202307231459+0e150ed6c4)"
   sodipodi:docname="invisible.svg"
   inkscape:export-filename="invisible.png"
   inkscape:export-xdpi="96"
   inkscape:export-ydpi="96"
   xmlns:inkscape="http://www.inkscape.org/namespaces/inkscape"
   xmlns:sodipodi="http://sodipodi.sourceforge.net/DTD/sodipodi-0.dtd"
   xmlns="http://www.w3.org/2000/svg"
   xmlns:svg="http://www.w3.org/2000/svg"
   xmlns:rdf="http://www.w3.org/1999/02/22-rdf-syntax-ns#"
   xmlns:cc="http://creativecommons.org/ns#"
   xmlns:dc="http://purl.org/dc/elements/1.1/"
   xmlns:inkstitch="http://inkstitch.org/namespace">
  <sodipodi:namedview
     id="base"
     pagecolor="#ffffff"
     bordercolor="#666666"
     borderopacity="1.0"
     inkscape:pageopacity="0.0"
     inkscape:pageshadow="2"
     inkscape:zoom="2.0952828"
     inkscape:cx="45.578573"
     inkscape:cy="97.122928"
     inkscape:document-units="px"
     inkscape:current-layer="layer1"
     showgrid="false"
     units="mm"
     inkscape:window-width="1366"
     inkscape:window-height="705"
     inkscape:window-x="-4"
     inkscape:window-y="-4"
     inkscape:window-maximized="1"
     inkscape:showpageshadow="2"
     inkscape:pagecheckerboard="0"
     inkscape:deskcolor="#d1d1d1" />
  <defs
     id="defs8377" />
  <metadata
     id="metadata8380">
    <rdf:RDF>
      <cc:Work
         rdf:about="">
        <dc:format>image/svg+xml</dc:format>
        <dc:type
           rdf:resource="http://purl.org/dc/dcmitype/StillImage" />
      </cc:Work>
    </rdf:RDF>
    <inkstitch:min_stitch_len_mm>0.1</inkstitch:min_stitch_len_mm>
    <inkstitch:collapse_len_mm>5.0</inkstitch:collapse_len_mm>
    <inkstitch:inkstitch_svg_version>2</inkstitch:inkstitch_svg_version>
  </metadata>
  <g
     inkscape:label="Layer 1"
     inkscape:groupmode="layer"
     id="layer1">
    <path
       id="path2-6_5933"
       style="vector-effect:none;fill:#000000;fill-opacity:1;fill-rule:nonzero;stroke:none;stroke-width:0.5483"
       d="M 129.32422 55.861328 C 110.32282 55.757387 91.281627 60.1355 74.181641 68.480469 C 46.079495 81.850453 22.919484 103.71975 3.8554688 128 C 15.21954 142.49825 28.16565 156.21308 42.720703 167.73242 L 82.140625 122.39453 C 82.658785 117.91155 83.814437 113.49799 85.742188 109.3457 C 91.111437 96.514585 102.78834 87.112914 116.00391 83.449219 L 139.54492 56.375 C 136.14668 56.064195 132.73662 55.879995 129.32422 55.861328 z M 213.43555 88.087891 L 173.82422 133.64453 C 172.48714 144.14972 167.59687 154.16973 159.85352 161.44727 C 154.33406 166.90989 147.40088 170.62016 139.99023 172.55859 L 116.50977 199.5625 C 139.32834 201.7575 162.76183 197.32341 183.29688 187.06055 C 210.85815 173.69799 233.55503 152.03542 252.14453 128 C 240.89596 113.40073 227.9836 99.632292 213.43555 88.087891 z " />
    <path
       style="display:inline;fill:none;fill-opacity:1;stroke:#000000;stroke-width:29.27;stroke-linejoin:round;stroke-dasharray:none;stroke-opacity:1"
       d="M 201.62932,43.318967 54.370675,212.68103"
       id="path2" />
  </g>
</svg>
