<?xml version="1.0" encoding="UTF-8" standalone="no"?>
<!-- Created with Inkscape (http://www.inkscape.org/) -->

<svg
   width="256"
   height="256"
   viewBox="0 0 256 256"
   id="svg8375"
   version="1.1"
   inkscape:version="1.3.2 (091e20ef0f, 2023-11-25, custom)"
   sodipodi:docname="settings.svg"
   xmlns:inkscape="http://www.inkscape.org/namespaces/inkscape"
   xmlns:sodipodi="http://sodipodi.sourceforge.net/DTD/sodipodi-0.dtd"
   xmlns="http://www.w3.org/2000/svg"
   xmlns:svg="http://www.w3.org/2000/svg"
   xmlns:rdf="http://www.w3.org/1999/02/22-rdf-syntax-ns#"
   xmlns:cc="http://creativecommons.org/ns#"
   xmlns:dc="http://purl.org/dc/elements/1.1/">
  <defs
     id="defs8377" />
  <sodipodi:namedview
     id="base"
     pagecolor="#ffffff"
     bordercolor="#666666"
     borderopacity="1.0"
     inkscape:pageopacity="0.0"
     inkscape:pageshadow="2"
     inkscape:zoom="2.1965384"
     inkscape:cx="101.06812"
     inkscape:cy="137.71669"
     inkscape:document-units="px"
     inkscape:current-layer="layer1"
     showgrid="false"
     units="mm"
     inkscape:window-width="1920"
     inkscape:window-height="1011"
     inkscape:window-x="0"
     inkscape:window-y="32"
     inkscape:window-maximized="1"
     inkscape:showpageshadow="2"
     inkscape:pagecheckerboard="0"
     inkscape:deskcolor="#d1d1d1" />
  <metadata
     id="metadata8380">
    <rdf:RDF>
      <cc:Work
         rdf:about="">
        <dc:format>image/svg+xml</dc:format>
        <dc:type
           rdf:resource="http://purl.org/dc/dcmitype/StillImage" />
      </cc:Work>
    </rdf:RDF>
  </metadata>
  <g
     inkscape:label="Layer 1"
     inkscape:groupmode="layer"
     id="layer1">
    <path
       id="circle1"
       style="fill:#000000;fill-opacity:1;fill-rule:evenodd;stroke:none;stroke-linecap:round;stroke-linejoin:round"
       d="M 172.93174,131.65247 C 170.09359,158.92565 145.68354,178.73415 118.41035,175.896 91.137173,173.05785 71.328666,148.6478 74.166818,121.37461 77.004969,94.101435 101.41503,74.292931 128.68821,77.131082 155.96139,79.969232 175.76989,104.37929 172.93174,131.65247 Z M 228.65564,137.45131 C 227.90054,144.70738 205.00996,146.46855 203.33755,151.77089 201.66514,157.07324 199.48625,162.12905 196.86249,166.88834 194.23872,171.64764 208.94929,189.15069 204.58971,194.34927 200.23014,199.54785 195.38649,204.30883 190.13653,208.56913 184.88657,212.82942 167.6382,197.83642 162.89934,200.36687 158.16049,202.89734 153.16151,204.98136 147.96395,206.56899 142.76641,208.15661 141.0042,231.00077 134.01633,231.68885 127.02846,232.37694 119.86759,232.37499 112.61151,231.6199 105.35544,230.86481 103.59427,207.97423 98.291928,206.30181 92.989582,204.6294 87.933774,202.45051 83.174477,199.82675 78.415182,197.20298 60.912122,211.91355 55.713545,207.55398 50.514972,203.1944 45.753981,198.35075 41.49369,193.10079 37.2334,187.85082 52.226399,170.60246 49.695939,165.86361 47.16548,161.12475 45.081452,156.12577 43.493831,150.92821 41.906208,145.73067 19.062053,143.96846 18.373963,136.98059 17.685874,129.99272 17.687821,122.83185 18.442916,115.57577 19.198011,108.3197 42.088592,106.55853 43.761005,101.25619 45.433417,95.953841 47.6123,90.898033 50.236068,86.138737 52.859837,81.379442 38.149274,63.876381 42.508841,58.677807 46.868409,53.479232 51.712062,48.718242 56.962027,44.457951 62.21199,40.197661 79.460361,55.190661 84.19921,52.660201 88.938061,50.129742 93.937051,48.045714 99.1346,46.458093 104.33215,44.870472 106.09436,22.026316 113.08223,21.338226 120.0701,20.650138 127.23097,20.652087 134.48705,21.407181 141.74312,22.162276 143.50429,45.052856 148.80663,46.725269 154.10898,48.397682 159.16479,50.576564 163.92408,53.200332 168.68338,55.824101 186.18643,41.113538 191.38502,45.473106 196.58359,49.832675 201.34458,54.676327 205.60487,59.92629 209.86515,65.176253 194.87216,82.424623 197.40262,87.163474 199.93308,91.902323 202.0171,96.901313 203.60473,102.09886 205.19235,107.29641 228.03651,109.05862 228.72459,116.04649 229.41269,123.03436 229.41073,130.19523 228.65564,137.45131 Z"
       sodipodi:nodetypes="ssssssssssssssssssssssssssssssssssssss" />
  </g>
</svg>
