<?xml version="1.0" encoding="UTF-8" standalone="no"?>
<!-- Created with Inkscape (http://www.inkscape.org/) -->

<svg
   width="256"
   height="256"
   viewBox="0 0 256 256"
   id="svg8375"
   version="1.1"
   inkscape:version="1.3 (1:1.3+202307231459+0e150ed6c4)"
   sodipodi:docname="visible.svg"
   inkscape:export-filename="visible.png"
   inkscape:export-xdpi="96"
   inkscape:export-ydpi="96"
   xmlns:inkscape="http://www.inkscape.org/namespaces/inkscape"
   xmlns:sodipodi="http://sodipodi.sourceforge.net/DTD/sodipodi-0.dtd"
   xmlns="http://www.w3.org/2000/svg"
   xmlns:svg="http://www.w3.org/2000/svg"
   xmlns:rdf="http://www.w3.org/1999/02/22-rdf-syntax-ns#"
   xmlns:cc="http://creativecommons.org/ns#"
   xmlns:dc="http://purl.org/dc/elements/1.1/">
  <defs
     id="defs8377" />
  <sodipodi:namedview
     id="base"
     pagecolor="#ffffff"
     bordercolor="#666666"
     borderopacity="1.0"
     inkscape:pageopacity="0.0"
     inkscape:pageshadow="2"
     inkscape:zoom="0.8569637"
     inkscape:cx="-80.51683"
     inkscape:cy="191.95679"
     inkscape:document-units="px"
     inkscape:current-layer="layer1"
     showgrid="false"
     units="mm"
     inkscape:window-width="1366"
     inkscape:window-height="705"
     inkscape:window-x="-4"
     inkscape:window-y="-4"
     inkscape:window-maximized="1"
     inkscape:showpageshadow="2"
     inkscape:pagecheckerboard="0"
     inkscape:deskcolor="#d1d1d1" />
  <metadata
     id="metadata8380">
    <rdf:RDF>
      <cc:Work
         rdf:about="">
        <dc:format>image/svg+xml</dc:format>
        <dc:type
           rdf:resource="http://purl.org/dc/dcmitype/StillImage" />
      </cc:Work>
    </rdf:RDF>
  </metadata>
  <g
     inkscape:label="Layer 1"
     inkscape:groupmode="layer"
     id="layer1">
    <path
       id="path2-6"
       style="vector-effect:none;fill:#000000;fill-rule:evenodd;stroke:none;stroke-width:0.5483;fill-opacity:1"
       d="M 151.45266,128 A 23.452663,23.452663 0 0 1 128,151.45266 23.452663,23.452663 0 0 1 104.54734,128 23.452663,23.452663 0 0 1 128,104.54734 23.452663,23.452663 0 0 1 151.45266,128 Z m 22.78843,0 A 46.241085,46.241085 0 0 1 128,174.24109 46.241085,46.241085 0 0 1 81.758915,128 46.241085,46.241085 0 0 1 128,81.758915 46.241085,46.241085 0 0 1 174.24109,128 Z m 77.90272,1e-5 c -72.89616,94.98236 -172.238205,97.57424 -248.2876202,0 76.0494152,-97.574262 175.3914602,-94.982384 248.2876202,0 z" />
  </g>
</svg>
