<svg xmlns:inkscape="http://www.inkscape.org/namespaces/inkscape" xmlns:sodipodi="http://sodipodi.sourceforge.net/DTD/sodipodi-0.dtd" xmlns="http://www.w3.org/2000/svg" xmlns:svg="http://www.w3.org/2000/svg" width="36.699471" height="35.59684" viewBox="0 0 36.699471 35.59684" version="1.1" id="svg58" sodipodi:docname="N3-26b.svg">
  <defs id="defs62"/>
  <sodipodi:namedview id="namedview60" pagecolor="#ffffff" bordercolor="#666666" borderopacity="1.0" inkscape:showpageshadow="2" inkscape:pageopacity="0.0" inkscape:pagecheckerboard="0" inkscape:deskcolor="#d1d1d1"/>
  <style type="text/css" id="style2">
polygon.tile { stroke: #000000; stroke-width:3; stroke-linejoin:round }
polygon.ih1 { fill: #ffff80 }
polygon.ih2 { fill: #8080ff }
polygon.ih3 { fill: #ff8080 }
polygon.ih4 { fill: #80ff80 }
polygon.ih5 { fill: #ff80ff }
polygon.ih6 { fill: #80ffff }
polygon.para {opacity: 0.75; fill: #ff0000; stroke: #ff0000 }
</style>
  <polygon class="para" points="62.652299,39.147754 52.832799,90.171376 85.564468,109.06901 95.383968,58.045391 " style="stroke:none" id="polygon4" transform="matrix(0.4,0,0,0.4,-11.293619,-9.95517)"/>
  <path d="M 18.349735,19.688184 H 31.442402" style="stroke:#000000;stroke-width:0.08px" id="path6"/>
  <path d="M 30.133135,18.932278 23.586802,15.152751" style="stroke:#000000;stroke-width:0.08px" id="path8"/>
  <path d="M 23.586802,15.152751 18.349735,12.129129" style="stroke:#000000;stroke-width:0.08px" id="path10"/>
  <path d="m 18.349735,12.129129 v 7.559055" style="stroke:#000000;stroke-width:0.08px" id="path12"/>
  <path d="M 36.679469,7.593696 23.586802,15.152751" style="stroke:#000000;stroke-width:0.08px" id="path14"/>
  <path d="M 30.133135,3.814168 23.586802,15.152751" style="stroke:#000000;stroke-width:0.08px" id="path16"/>
  <path d="M 30.133135,3.814168 17.040468,11.373223" style="stroke:#000000;stroke-width:0.08px" id="path18"/>
  <path d="m 17.040468,11.373223 1.309267,0.755906" style="stroke:#000000;stroke-width:0.08px" id="path20"/>
  <path d="M 23.586802,0.03464102 17.040468,11.373223" style="stroke:#000000;stroke-width:0.08px" id="path22"/>
  <path d="M 13.112668,31.782672 19.659001,20.444089" style="stroke:#000000;stroke-width:0.08px" id="path24"/>
  <path d="M 19.659001,20.444089 6.566334,28.003144" style="stroke:#000000;stroke-width:0.08px" id="path26"/>
  <path d="M 13.112668,16.664562 6.566334,28.003144" style="stroke:#000000;stroke-width:0.08px" id="path28"/>
  <path d="M 19.659001,20.444089 18.349735,19.688184" style="stroke:#000000;stroke-width:0.08px" id="path30"/>
  <path d="M 18.349735,19.688184 13.112668,16.664562" style="stroke:#000000;stroke-width:0.08px" id="path32"/>
  <path d="M 13.112668,16.664562 0.02,24.223617" style="stroke:#000000;stroke-width:0.08px" id="path34"/>
  <path d="M 13.112668,16.664562 6.566334,12.885034" style="stroke:#000000;stroke-width:0.08px" id="path36"/>
  <path d="M 18.349735,12.129129 H 5.257067" style="stroke:#000000;stroke-width:0.08px" id="path38"/>
  <path d="M 32.751669,28.003144 19.659001,35.5622" style="stroke:#000000;stroke-width:0.08px" id="path40"/>
  <path d="M 26.205335,24.223617 19.659001,35.5622" style="stroke:#000000;stroke-width:0.08px" id="path42"/>
  <path d="M 26.205335,24.223617 13.112668,31.782672" style="stroke:#000000;stroke-width:0.08px" id="path44"/>
  <path d="M 26.205335,24.223617 24.159606,23.042515" style="stroke:#000000;stroke-width:0.08px" id="path46"/>
  <path d="M 24.159606,23.042515 19.659001,20.444089" style="stroke:#000000;stroke-width:0.08px" id="path48"/>
  <path d="m 17.040468,11.373223 -3.9278,-2.267716" style="stroke:#000000;stroke-width:0.08px" id="path50"/>
  <path d="M 13.112668,9.105507 10.494134,7.593696" style="stroke:#000000;stroke-width:0.08px" id="path52"/>
  <path d="M 23.586802,0.03464102 10.494134,7.593696" style="stroke:#000000;stroke-width:0.08px" id="path54"/>
  </svg>