<svg xmlns="http://www.w3.org/2000/svg">
<defs>
<font
       id="Limelight-Regular"
       horiz-adv-x="0"
       horiz-origin-x="0"
       horiz-origin-y="0"
       vert-origin-x="512"
       vert-origin-y="768"
       vert-adv-y="1024">
      <font-face
         font-family="Limelight"
         font-weight="400"
         font-stretch="normal"
         units-per-em="80"
         panose-1="2 0 0 0 0 0 0 0 0 0"
         ascent="64"
         descent="-16"
         x-height="42"
         cap-height="55"
         bbox="-4 -15 89 73"
         underline-thickness="2.92969"
         underline-position="-5.66406"
         unicode-range="U+0001-FB04"
         id="font-face4" />
      <missing-glyph
         horiz-adv-x="16"
         id="missing-glyph6" />
      <glyph
         glyph-name=".notdef"
         horiz-adv-x="16"
         id="glyph8" />
      <glyph
         glyph-name=".null"
         id="glyph10" />
      <glyph
         glyph-name="nonmarkingreturn"
         id="glyph12" />
      <glyph
         glyph-name="uni0001"
         id="glyph14" />
      <glyph
         glyph-name="uni0002"
         id="glyph16" />
      <glyph
         glyph-name="uni0003"
         id="glyph18" />
      <glyph
         glyph-name="uni0004"
         id="glyph20" />
      <glyph
         glyph-name="uni0005"
         id="glyph22" />
      <glyph
         glyph-name="uni0006"
         id="glyph24" />
      <glyph
         glyph-name="uni0007"
         id="glyph26" />
      <glyph
         glyph-name="uni0008"
         id="glyph28" />
      <glyph
         glyph-name="uni0009"
         unicode=" "
         id="glyph30" />
      <glyph
         glyph-name="uni0010"
         id="glyph32" />
      <glyph
         glyph-name="uni0011"
         id="glyph34" />
      <glyph
         glyph-name="uni0012"
         id="glyph36" />
      <glyph
         glyph-name="uni0013"
         id="glyph38" />
      <glyph
         glyph-name="uni0014"
         id="glyph40" />
      <glyph
         glyph-name="uni0015"
         id="glyph42" />
      <glyph
         glyph-name="uni0016"
         id="glyph44" />
      <glyph
         glyph-name="uni0017"
         id="glyph46" />
      <glyph
         glyph-name="uni0018"
         id="glyph48" />
      <glyph
         glyph-name="uni0019"
         id="glyph50" />
      <glyph
         glyph-name="space"
         unicode=" "
         horiz-adv-x="17"
         id="glyph52" />
      <glyph
         glyph-name="exclam"
         unicode="!"
         horiz-adv-x="32"
         d="M16 18q-1 0 -2 2t-1.5 4t-0.5 4l-3.5 7t-2.5 4.5t-1 2.5q-1 2 -1 4t1 4t2 3q3 3 9 3t9 -3t3 -7q0 -2 -0.5 -3.5t-1.5 -3.5l-2 -4q-3 -6 -5 -11q-1 -2 -1 -4t-2 -2zM8 6q0 3 2 5t5.5 2t6.5 -2q2 -2 2 -5t-3 -5q-2 -2 -5 -2q-6 0 -8 4v3z"
         id="glyph54" />
      <glyph
         glyph-name="quotedbl"
         unicode="&quot;"
         horiz-adv-x="34"
         d="M26 32q-2 0 -2 2q-1 6 -2 10l-2 5q0 1 -0.5 2.5t0 2l1.5 1.5q2 1 5 1.5t5 -1t2 -3.5q0 -1 -1 -3l-1 -3q-2 -6 -3 -12q0 -2 -1 -2h-1zM9 32q-2 0 -3 2q-1 6 -2 10l-2 5v2.5t0.5 2t0.5 1.5q2 1 5.5 1.5t5 -1t1.5 -3.5v-3l-1 -3q-2 -6 -3 -12q0 -2 -2 -2v0z"
         id="glyph56" />
      <glyph
         glyph-name="percent"
         unicode="%"
         horiz-adv-x="62"
         d="M13 -1q-2 0 -1 2q0 1 0.5 2t1.5 1q1 1 4 5l25 41q1 2 2 3.5t1.5 2t1 0.5t1.5 -0.5t1 -1t-0.5 -1l-0.5 -1.5l-1 -1q0 -1 -1 -1l-29 -47q-2 -3 -3 -3.5t-2 -0.5zM18 31q-3 0 -5.5 1t-3.5 2q-4 4 -4 9t4 9q4 3 9 3t9 -3t4 -9q0 -5 -4 -9q-4 -3 -9 -3zM18 33q4 0 7 3t3 7 t-3 7t-7 2v0h-1v-19h1zM32 12q0 3 1 5t3 4q4 3 9 3t9 -3t4 -9q0 -5 -4 -9q-4 -3 -9 -3q-6 0 -9 3q-4 4 -4 9zM45 3q4 0 7 2q3 3 3 7t-3 7t-7 3v0v-1v-18v0z"
         id="glyph58" />
      <glyph
         glyph-name="ampersand"
         unicode="&amp;"
         horiz-adv-x="55"
         d="M52 31q0 -1 -3 -2h-1h-2q-3 0 -4 1q5 -3 6 -10v-4.5t-1.5 -5.5t-4.5 -5q-6 -5 -15 -6q-10 0 -15 5q-6 5 -6 13q0 5 3 9t8 5q-6 2 -8 9q-1 2 -0.5 4t1.5 4.5t4 3.5q6 4 15 4q2 0 4.5 -0.5t4 -1t2.5 -0.5q2 -1 2 -2.5t-1 -1.5t-1.5 0.5q0.5 0.5 -1.5 1.5q-2 2 -6.5 1.5 t-5.5 -0.5v-51q4 -1 8 0.5t6 3.5q5 4 5 10t-3 10t-8 4v0q-3 0 -3 1t2 2l4 -1q8 0 10.5 0.5t3.5 0t1 -1.5z"
         id="glyph60" />
      <glyph
         glyph-name="quotesingle"
         unicode="'"
         horiz-adv-x="17"
         d="M9 32q-2 0 -3 2q-1 6 -2 10l-2 5v2.5t0.5 2t0.5 1.5q2 1 5.5 1.5t5 -1t1.5 -3.5v-3l-1 -3q-2 -6 -3 -12q0 -2 -2 -2v0z"
         id="glyph62" />
      <glyph
         glyph-name="parenleft"
         unicode="("
         horiz-adv-x="36"
         d="M33 60q0 -2 -3 -2t-7 -1v-60q4 -2 8 -2q3 0 2.5 -1.5t-3 -1.5t-5.5 1t-6 3.5t-5.5 5.5t-4.5 7q-4 8 -5 18q0 14 8 24q5 6 12 9q3 1 5 1q4 0 4 -1z"
         id="glyph64" />
      <glyph
         glyph-name="parenright"
         unicode=")"
         horiz-adv-x="36"
         d="M7 -5q3 0 6 2v60q-4 2 -6 1.5t-2.5 0t-0.5 1.5q0 2 3 1.5t6 -1.5t6 -3.5t5.5 -5.5t4.5 -7q4 -8 3 -17q0 -10 -4 -18t-10 -12t-12 -5q-2 0 -2 1.5t3 1.5z"
         id="glyph66" />
      <glyph
         glyph-name="asterisk"
         unicode="*"
         horiz-adv-x="29"
         d="M23 35q0 -1 -2 -2q-1 0 -1.5 1t-0.5 2l-4 7l-3 -4l-1 -2q0 -1 -1 -2l-1 -2q-2 0 -2 2q0 1 1 3l5 6h-4h-3h-2t-1.5 0.5t-0.5 1.5t0.5 1h1.5h2h3h4l-4 6q-1 2 -2 3q0 2 2 2q1 0 2 -2l4 -8l3 7q1 2 1.5 2.5t1.5 0.5t1 -2q0 -1 -1 -3l-4 -6h7h2q2 0 2 -1.5t-2 -1.5h-2h-7 q4 -7 4.5 -7t0.5 -1q1 0 1 -1z"
         id="glyph68" />
      <glyph
         glyph-name="plus"
         unicode="+"
         horiz-adv-x="39"
         d="M21 14v-6q0 -1 -0.5 -1.5t-1.5 -0.5t-1 1v2v5v7h-6.5h-3.5q-2 0 -2.5 -0.5t-1 0t-0.5 1.5t0.5 1.5l0.5 0.5h3h1q1 0 2 -1h7v7v6q0 1 0.5 1.5l0.5 0.5q1 0 1.5 -0.5t0.5 -1.5v-6v-7h6q1 0 2 1h1h3q2 0 2 -2q0 -1 -0.5 -1.5t-1.5 -0.5q-3 0 -4 1h-8v-7z"
         id="glyph70" />
      <glyph
         glyph-name="comma"
         unicode=","
         horiz-adv-x="26"
         d="M17 1q-2 -1 -4.5 -1.5t-4 0.5t-2.5 2q-2 2 -2 5t2 6q2 2 6 2t7 -3t3 -7q0 -6 -4 -11q-2 -3 -3.5 -3h-1.5q-2 -1 -2 1v1l2 1q2 1 3 3t1 4z"
         id="glyph72" />
      <glyph
         glyph-name="hyphen"
         unicode="-"
         horiz-adv-x="28"
         d="M10 24h-4q-1 0 -1.5 0.5l-0.5 0.5q0 2 2 2h6h4h6q2 0 2 -1.5t-2 -1.5h-2h-1h-3h-6z"
         id="glyph74" />
      <glyph
         glyph-name="period"
         unicode="."
         horiz-adv-x="26"
         d="M4 4q-1 2 -0.5 3.5l1 3t1.5 2.5q3 2 7 3q4 0 7 -3q2 -2 2 -6q0 -3 -3 -5t-6 -3q-7 0 -9 5z"
         id="glyph76" />
      <glyph
         glyph-name="slash"
         unicode="/"
         horiz-adv-x="26"
         d="M5 -1q-2 0 -2 2q0 1 1 3t2 5l12 41q2 5 3 6h1q1 0 1 -1v-2t-0.5 -1.5l-0.5 -0.5l-1 -2v-1l-12 -42q-1 -4 -2 -5q-1 -2 -2 -2z"
         id="glyph78" />
      <glyph
         glyph-name="zero"
         unicode="0"
         horiz-adv-x="52"
         d="M26 -1q-5 0 -9.5 2t-7.5 6q-6 8 -6 22q0 13 7 20q6 7 17 7t16 -7q6 -7 6 -21t-6 -21q-6 -8 -17 -8zM26 2q14 0 19 14q2 5 1.5 12t-2 12t-3.5 8q-5 6 -14 5h-1v-51v0z"
         id="glyph80" />
      <glyph
         glyph-name="one"
         unicode="1"
         horiz-adv-x="38"
         d="M11 47h-2l-4 -2t-3 -1q-2 0 -2 2q0 1 3 2h3l25 8v-56h-20v47z"
         id="glyph82" />
      <glyph
         glyph-name="two"
         unicode="2"
         horiz-adv-x="48"
         d="M43 2q0 -2 -4 -2h-38q1 8 13 24q13 18 14 19t1 2q1 1 0.5 2.5t-1 2.5t-1.5 2q-2 2 -6 1q-4 0 -7 -1q-5 -2 -7 -4q-1 -2 -2 -2t-1 2t3 4q6 4 14 4q10 0 16 -4t6 -11q0 -4 -1 -6l-2 -4l-2 -4l-8 -11q-5 -8 -7 -13h11h4t3 0.5t1.5 0t0.5 -1.5z"
         id="glyph84" />
      <glyph
         glyph-name="three"
         unicode="3"
         horiz-adv-x="50"
         d="M22 32h2v21h-1h-0.5h-2h-3t-3.5 -1q-3 -1 -4 -2t-3 -2q-2 0 -2 2t7 4q5 2 10.5 2t9.5 -1t6 -3q5 -3 5 -9t-5 -10q-2 -1 -5 -2q9 -3 12 -10q1 -2 0.5 -5.5t-2 -6.5t-4.5 -5q-6 -5 -17 -5q-9 0 -17 6q-2 2 -3 4v1q0 2 1 1q1 0 2 -1.5t2.5 -3t3.5 -2.5q4 -2 9 -2h4v27h-3h-1 h-4q-3 0 -3 2t3 1h6zM29 52q-1 0 -2 1z"
         id="glyph86" />
      <glyph
         glyph-name="four"
         unicode="4"
         horiz-adv-x="57"
         d="M6 11h-1h-1q-1 0 -2 0.5t-1 1.5t0.5 1.5t0.5 1.5t1 1l26 38h16v-41h6h1.5h1t0.5 -1q0 -2 -2 -2h-4h-3v-11h-20v11h-19zM25 14v30l-19 -29q-1 -1 -0.5 -1h1.5h18z"
         id="glyph88" />
      <glyph
         glyph-name="five"
         unicode="5"
         horiz-adv-x="49"
         d="M11 36q6 3 12 3t10 -2t7 -4q6 -6 6 -14t-7 -14t-17 -6q-8 0 -15 5q-3 2 -3 4v1q0 2 1 2t2 -2t2.5 -3t3.5 -2q4 -2 9 -2h2h1v34h-3.5t-5.5 -1t-5 -2t-2.5 -1t-1 0.5t-0.5 1.5l2 18v0v1q0 2 1 2l1 1l6 -1h8q10 0 13 1h1q1 0 1.5 -0.5t0.5 -1.5q0 -2 -5 -2h-2h-22z"
         id="glyph90" />
      <glyph
         glyph-name="six"
         unicode="6"
         horiz-adv-x="54"
         d="M43 49q-3 4 -11 4h-6v-51h2q9 0 15 5q5 5 5 12q0 6 -4 10q-3 4 -9 4h-3q-2 -1 -3 -1t-1 1t0.5 1.5t1.5 0.5q2 1 5.5 1t6 -1t4.5 -3q5 -4 5 -13t-7 -15q-6 -5 -15 -5q-10 0 -17 7t-7 20q0 14 8 22q7 8 18 8q7 0 12 -3q4 -2 4 -4q0 -1 -2 -1h-1z"
         id="glyph92" />
      <glyph
         glyph-name="seven"
         unicode="7"
         horiz-adv-x="47"
         d="M35 7v-7h-22v5.5t0.5 8l1 9t1.5 9t2 8.5q2 8 5 12h-1h-10h-3h-2v-2v-1q0 -2 -1 -3q0 -2 -2 -1q-1 0 -1.5 0.5t0 1.5t0.5 1.5v1.5q1 2 1 3.5t2 1.5h40q-4 -7 -7 -20q-4 -15 -4 -28z"
         id="glyph94" />
      <glyph
         glyph-name="eight"
         unicode="8"
         horiz-adv-x="53"
         d="M5.5 8q-1.5 3 -1.5 5.5t0.5 4.5t1.5 3q2 3 6 4q1 0 1 -0.5v-1t-0.5 -1t-1.5 -1l-2 -1t-1 -1.5q-1 -2 -1 -5t1.5 -5t3.5 -4q5 -3 13 -3q4 0 8 2q3 2 3 4t-2 4q-3 3 -9.5 7t-10 6.5t-5.5 5.5q-4 4 -4 9q0 7 7 12q6 4 16 4q6 0 12 -3q4 -2 6 -5q1 -2 0.5 -4l-1 -4t-1.5 -3 q-2 -2 -5 -3h-1q-1 0 -1.5 0.5t-0.5 1t0.5 1t2 0.5t2 0.5l1.5 1.5q1 2 1.5 4.5t-0.5 4t-2 2.5t-3 1.5t-3 1.5q-3 1 -7 1q-6 0 -8 -3q-1 -1 -1 -2t0.5 -2.5t2.5 -3.5q3 -3 9 -6.5t9.5 -6t5.5 -4.5q4 -4 4 -10t-4 -10q-7 -7 -21 -7q-9 0 -15 4q-3 2 -4.5 5z"
         id="glyph96" />
      <glyph
         glyph-name="nine"
         unicode="9"
         horiz-adv-x="53"
         d="M28 53h-2q-9 0 -15 -5q-5 -5 -4 -12q0 -7 4 -11q4 -3 10 -3h1h1q3 1 3 -1t-4 -2h-0.5h-2t-4.5 1t-6 3q-5 4 -5 13t6 15q6 5 16 5t16 -6q7 -7 7 -21t-7 -22t-19 -8q-7 0 -11 3q-4 2 -4 4q0 1 1 2q1 0 2 -1l1 -1q4 -4 12 -4h4v51z"
         id="glyph98" />
      <glyph
         glyph-name="colon"
         unicode=":"
         horiz-adv-x="26"
         d="M13 23q-2 0 -4 0.5t-3 1.5q-2 2 -2 6q0 3 2 6q3 2 7 2t7 -3q2 -2 2 -6q0 -3 -3 -5q-2 -2 -6 -2zM4 4q-1 2 -0.5 3.5l1 3t1.5 2.5q3 2 7 3q4 0 7 -3q2 -2 2 -6q0 -3 -3 -5t-6 -3q-7 0 -9 5z"
         id="glyph100" />
      <glyph
         glyph-name="semicolon"
         unicode=";"
         horiz-adv-x="26"
         d="M13 23q-2 0 -4 0.5t-3 1.5q-2 2 -2 6q0 3 2 6q3 2 7 2t7 -3q2 -2 2 -6q0 -3 -3 -5q-2 -2 -6 -2zM17 1q-2 -1 -4.5 -1.5t-4 0.5t-2.5 2q-2 2 -2 5t2 6q2 2 6 2t7 -3q2 -3 3 -7q0 -6 -4 -11q-2 -3 -3.5 -3h-1.5q-2 -1 -2 1v1l2 1q2 1 4 3v4z"
         id="glyph102" />
      <glyph
         glyph-name="less"
         unicode="&lt;"
         horiz-adv-x="36"
         d="M3 19q-2 1 -2 2q0 2 2 3l21 15l4 2l2 1q2 0 2 -1t-2 -2l-4 -2l-21 -16q20 -14 20 -15l4 -3q1 -1 2 -1t1 -1t-0.5 -1.5t-1.5 -0.5t-2 1t-3 2z"
         id="glyph104" />
      <glyph
         glyph-name="equal"
         unicode="="
         horiz-adv-x="39"
         d="M12 28h-6q-1 0 -1.5 0.5t-0.5 1.5q0 2 2 1h1h1h4h14h4h3q2 0 2 -1t-0.5 -1.5t-2.5 -0.5h-5h-15zM10 13h-4q-1 0 -1.5 0.5l-0.5 0.5q0 2 2 2h6h14h7q2 0 2 -2q0 -1 -0.5 -1h-2.5h-3h-19z"
         id="glyph106" />
      <glyph
         glyph-name="greater"
         unicode="&gt;"
         horiz-adv-x="36"
         d="M4 -0v1q0 1 0.5 1.5t1.5 0.5q5 3 7 5l18 13l-21 16q-3 2 -3.5 2h-1.5q-1 1 -1 2q0 2 2 1h2q2 -1 4 -3l21 -15q2 -1 2 -3q0 -1 -2 -2l-24 -18q-1 0 -1 -1q-3 -1 -4 -0z"
         id="glyph108" />
      <glyph
         glyph-name="question"
         unicode="?"
         horiz-adv-x="36"
         d="M26 20q-5 -3 -11 -1q-5 1 -7 6q-1 2 -1 4v3.5t1 3.5q1 3 3.5 5.5t3.5 4t2 2.5q1 2 1 3q0 2 -3 2t-6 -2q-1 -1 -2 -1q-2 0 -1 1q0 1 1.5 2t2.5 2q3 1 7 1t6.5 -1t4.5 -2q4 -3 3.5 -7.5t-2.5 -9t-5 -8t-3.5 -4.5l-0.5 -1q0 -1 2 -2q2 0 3 1q2 2 3 2t1 -1.5t-3 -2.5zM10 6 q0 3 2 5t6 2t6 -2t2 -5t-2 -5t-6 -2q-6 0 -7 4q-1 2 -1 3z"
         id="glyph110" />
      <glyph
         glyph-name="at"
         unicode="@"
         horiz-adv-x="75"
         d="M37 40q5 0 8 -3l1 2h13l-5 -31q7 1 11 7q5 6 4 15q0 11 -8 16q-8 6 -20 6q-9 0 -17 -5q-8 -4 -13 -11q-5 -8 -5 -17q0 -13 10 -21q8 -7 20 -7q6 0 11 3q2 1 2.5 0.5l1 -1l0.5 -0.5q0 -2 -8 -4q-4 -1 -8 -1t-8 1t-7.5 3t-6.5 4.5t-5 5.5q-5 7 -5 17t6 18q5 8 13 13 q9 5 19 5q14 0 23 -7q8 -7 8 -19q0 -8 -4 -14t-10 -9q-7 -3 -15 -3l-4 1l1 3q-5 -3 -8.5 -3t-6 1t-4.5 3q-4 4 -4 11q0 9 5 14q6 7 15 7zM31 7h1.5q1.5 0 3.5 1t5 2l4 24q-4 3 -9 3v0z"
         id="glyph112" />
      <glyph
         glyph-name="A"
         unicode="A"
         horiz-adv-x="52"
         d="M17 7h-10l-1 -3q-1 -1 -1 -2q-1 -2 -3 -2q-1 0 -1 0.5v0.5v2q1 2 3 4q-3 0 -3.5 2t1.5 2q1 0 3 -1l19 48l27 -58h-20l-3 7h-11zM8 10h7h11l-9 21z"
         id="glyph114" />
      <glyph
         glyph-name="B"
         unicode="B"
         horiz-adv-x="58"
         d="M7 55h17h7q6 0 8.5 -1t3.5 -3q3 -3 3 -7t-3 -7l-2 -2q6 -1 11 -5q4 -5 4 -11q0 -7 -4 -12q-6 -7 -18 -7h-6h-21v55zM33 36h2v0q3 0 6 2q2 2 2 6t-4 7q-2 1 -3.5 1h-2.5h-6v-49h4q7 0 11 2q5 2 8 5q3 4 3 8t-1.5 6.5t-3.5 4.5q-5 4 -12 4h-3q-1 0 -2 0.5l-1 0.5q1 2 3 2z "
         id="glyph116" />
      <glyph
         glyph-name="C"
         unicode="C"
         horiz-adv-x="56"
         d="M52 9q2 0 1 -2q0 -1 -2 -3q-4 -3 -7 -3q-5 -2 -11 -2t-11.5 2.5t-9.5 5.5q-8 8 -9 21q0 6 2.5 11.5t6.5 8.5q9 8 22 8q7 0 13 -3t5 -4q0 -1 -0.5 -1.5l-0.5 -0.5q-1 0 -2 1t-3 2l-4 2q-4 1 -7.5 1h-5.5v-50q3 0 5 -0.5t4 0t4 0.5q5 1 7 4l1.5 1.5t1.5 0.5z"
         id="glyph118" />
      <glyph
         glyph-name="D"
         unicode="D"
         horiz-adv-x="61"
         d="M7 55h16q11 0 17 -1q6 -2 9 -5t5 -6q4 -6 4 -15q0 -13 -9 -20q-6 -6 -15 -7q-5 -1 -14 -1h-13v55zM27 3h1h1q11 0 18 7q8 7 8 18q0 7 -4 13q-5 8 -16 11q-4 1 -8 0v-49z"
         id="glyph120" />
      <glyph
         glyph-name="E"
         unicode="E"
         horiz-adv-x="46"
         d="M41 3q2 0 2 -1t-1 -1.5t-3 -0.5h-33v55h31h3q3 0 3 -1t-0.5 -1.5l-0.5 -0.5h-3h-4h-9v-11h7h5q1 0 1.5 -0.5t0.5 -1.5q0 -2 -2 -1h-2h-2h-8v-35h9h4h2z"
         id="glyph122" />
      <glyph
         glyph-name="F"
         unicode="F"
         horiz-adv-x="45"
         d="M39 35l-1 1h-2h-9v-36h-20v55h31h4v0q3 0 3 -1t-0.5 -1.5l-0.5 -0.5h-2h-5h-10v-14h8l5 1q2 0 1.5 -2t-2.5 -2z"
         id="glyph124" />
      <glyph
         glyph-name="G"
         unicode="G"
         horiz-adv-x="63"
         d="M53 3v3v6q-6 -9 -16 -12q-3 -1 -7.5 -1t-9.5 2t-9 6q-8 8 -8 20t9 20q9 9 22 9q7 0 12 -3q3 -1 4.5 -2.5t1.5 -2t-0.5 -1t-1 -0.5t-1.5 1q-3 3 -5.5 3.5t-4 1t-2.5 0.5h-4h-4v-51h1h1q12 0 18 9q2 3 4 7v4v3q0 2 2 2q1 0 1.5 -0.5t0.5 -1.5l-1 -3v-14l1 -6 q0 -1 -0.5 -1.5t-1.5 -0.5q-2 0 -2 1v2z"
         id="glyph126" />
      <glyph
         glyph-name="H"
         unicode="H"
         horiz-adv-x="57"
         d="M50 6v-4q0 -1 -1 -1.5t-1.5 -0.5t-1 0.5l-0.5 0.5v2t1 6v29h-20v-38h-20v55h20v-14h13h7v6q0 3 -1 5v1v1q0 2 2 2q1 0 1.5 -0.5t0.5 -1.5v-5v-8h2q1 0 1.5 -0.5l0.5 -0.5q0 -2 -3 -2h-0.5h-0.5v-32z"
         id="glyph128" />
      <glyph
         glyph-name="I"
         unicode="I"
         horiz-adv-x="32"
         d="M6 55h20v-55h-20v55z"
         id="glyph130" />
      <glyph
         glyph-name="J"
         unicode="J"
         horiz-adv-x="44"
         d="M11.5 2h3h3.5v53h20v-34q0 -10 -5 -16q-6 -6 -19 -6q-8 0 -12 4l-1 1q-1 1 -1 2q0 2 2 2q1 0 2 -1.5t2 -2.5t2.5 -1.5t3 -0.5z"
         id="glyph132" />
      <glyph
         glyph-name="K"
         unicode="K"
         horiz-adv-x="56"
         d="M7 55h20v-16l14 11q3 2 4 3.5t1.5 1.5h0.5l1 0.5q1 0.5 1.5 0t0.5 -1v-1t-1 -0.5l-3 -3l-8 -6l14 -36q0 -1 1 -2l1 -1l1 -2v-1v-0.5v-1.5l-1 -1q-1 0 -2 1t-1 2l-1 2q0 1 -1 3l-14 35l-8 -7v-35h-20v55z"
         id="glyph134" />
      <glyph
         glyph-name="L"
         unicode="L"
         horiz-adv-x="43"
         d="M40 4q2 0 2 -2q0 -1 -0.5 -1.5t-2.5 -0.5h-32v55h20v-52h7h3z"
         id="glyph136" />
      <glyph
         glyph-name="M"
         unicode="M"
         horiz-adv-x="75"
         d="M0.5 0q-0.5 1 0.5 1q0 1 0.5 2.5t0.5 2t1 0.5l1 4l16 48l17 -34l17 34l20 -58h-21l-9 30l-15 -31l-16 28l-6 -17q-1 -3 -1.5 -5t-0.5 -3q-1 -2 -3 -3q-1 0 -1.5 1z"
         id="glyph138" />
      <glyph
         glyph-name="N"
         unicode="N"
         horiz-adv-x="59"
         d="M10 6l1 -4q0 -1 -1 -1.5t-1.5 -0.5t-1 0.5t-0.5 1v1v1.5v5v49l43 -34v23v4q0 2 -1 3q0 2 2 2q1 0 1.5 -0.5t0.5 -1.5v-2v-5v-49l-43 33v-25z"
         id="glyph140" />
      <glyph
         glyph-name="O"
         unicode="O"
         horiz-adv-x="65"
         d="M6.5 16.5q-2.5 5.5 -2.5 11.5t2.5 11t5.5 9q8 8 21 8q12 0 20 -8t8 -20q0 -13 -8 -21q-5 -5 -13 -7q-4 -1 -8.5 -1t-9.5 2t-9 6t-6.5 9.5zM33 53h-4v-51h4q10 0 18 7q7 7 7 19q0 11 -7 18t-18 7z"
         id="glyph142" />
      <glyph
         glyph-name="P"
         unicode="P"
         horiz-adv-x="59"
         d="M33 16h3q8 0 13 5t5 13q0 12 -12 17q-5 2 -12 1h-3v-52h-20v55h15h14.5t5 -1t6 -2.5t5.5 -4.5q4 -5 4 -12q0 -9 -5 -15t-14 -7h-4q-4 0 -4 2q0 1 1 1h2z"
         id="glyph144" />
      <glyph
         glyph-name="Q"
         unicode="Q"
         horiz-adv-x="63"
         d="M48 4q-7 -5 -16 -5q-6 0 -11 2t-9 6q-8 8 -9 21q0 12 8.5 20t20.5 8t20 -8t8 -20q0 -7 -2.5 -13t-7.5 -9l4 -3q3 -2 3.5 -2.5t1.5 -0.5q2 0 2 -1q0 -2 -2 -2t-3.5 1t-2.5 2zM32 53h-4v-51h5q7 0 13 4q-4 3 -8 3q-1 0 -1.5 0.5t-0.5 1.5q0 2 2 1q4 0 10 -4q4 3 6.5 8 t2.5 11t-1.5 10.5t-5.5 8.5q-7 7 -18 7z"
         id="glyph146" />
      <glyph
         glyph-name="R"
         unicode="R"
         horiz-adv-x="58"
         d="M33 19h3q7 0 12 5t5 11q0 9 -8 14q-5 2 -10 3h-4h-3h-1v-52h-20v55h14.5h7.5h3.5h2.5q2 0 5 -0.5t6 -2.5t5 -4q5 -5 5 -12t-5 -13t-12 -7q4 -11 10 -13q2 -1 3 -1l3 1q1 0 1 -2t-4 -2t-7 2q-5 3 -8 11l-1 3v1h-0.5h-1.5l-1 -1q-2 0 -2 1v1q-1 2 2 2z"
         id="glyph148" />
      <glyph
         glyph-name="S"
         unicode="S"
         horiz-adv-x="46"
         d="M7 3q-1 1 -2 1.5t-1 1.5q0 2 1 2t2.5 -1l3 -2t3.5 -2q4 -1 7 -1t5 0.5t3 1.5q3 2 3 4t-3 4l-5 5l-7 5q-10 8 -11 15q-1 2 -1 4.5t1 5.5t4 5q5 4 14 4q5 0 8.5 -1.5t4.5 -2.5t1 -2q0 -2 -1 -1q-1 0 -2 0.5t-2 1.5t-3 1q-3 1 -6 1q-6 0 -6 -4q0 -2 1 -3q2 -2 7.5 -6.5 t8.5 -8t5 -5.5q3 -4 3 -8.5t-1.5 -8t-4.5 -5.5q-6 -5 -15 -5t-15 4z"
         id="glyph150" />
      <glyph
         glyph-name="T"
         unicode="T"
         horiz-adv-x="48"
         d="M47 54q0 -2 -4 -2h-9v-52h-20v52h-6h-4h-2q-2 0 -2 1q0 2 4 2h35q3 0 4 1h2q2 0 2 -2z"
         id="glyph152" />
      <glyph
         glyph-name="U"
         unicode="U"
         horiz-adv-x="61"
         d="M56 54l-1 -5v-24q0 -12 -6 -18q-7 -7 -18 -8q-12 0 -19 8q-6 7 -6 18v30h20v-52q3 0 6.5 -0.5t7 1t6.5 4.5q6 7 6 20v21v2.5v2.5q0 2 2 2t2 -2z"
         id="glyph154" />
      <glyph
         glyph-name="V"
         unicode="V"
         horiz-adv-x="49"
         d="M46 56q2 0 2 -2q0 -1 -0.5 -2t-0.5 -2l-22 -52l-25 57h21l12 -29l9 22q1 4 1.5 5l1 2t1.5 1z"
         id="glyph156" />
      <glyph
         glyph-name="W"
         unicode="W"
         horiz-adv-x="76"
         d="M75 54v-1q-1 -3 -2 -5l-20 -50l-15 33l-15 -33l-23 57h21l11 -29l15 32l14 -32l10 23q1 1 0 3l1 2q0 2 1.5 2t1.5 -2z"
         id="glyph158" />
      <glyph
         glyph-name="X"
         unicode="X"
         horiz-adv-x="51"
         d="M4 -0q-2 0 -1 1q0 1 2 3q2 1 2 3l11 15l-16 33h21l9 -19l8 11q2 3 4 7q1 2 2.5 2t1.5 -2q0 -1 -3 -4l-11 -18l15 -32h-20l-9 19l-10 -14q-3 -4 -5 -5h-1z"
         id="glyph160" />
      <glyph
         glyph-name="Y"
         unicode="Y"
         horiz-adv-x="51"
         d="M19 -0q-2 0 -2 1t1 3q2 2 4 5l2 4l-23 42h23l11 -23l10 17q1 2 1.5 4.5t2.5 2.5t1 -2v-2l-27 -48q0 -1 -1 -1v-1q-1 -2 -3 -2z"
         id="glyph162" />
      <glyph
         glyph-name="Z"
         unicode="Z"
         horiz-adv-x="46"
         d="M42 3q2 0 2 -1t-1 -1.5t-3 -0.5h-38l20 52h-10h-4h-2q-2 0 -2 1q0 2 4 2h35l-20 -52h13h4h2z"
         id="glyph164" />
      <glyph
         glyph-name="bracketleft"
         unicode="["
         horiz-adv-x="36"
         d="M31 -6q1 -2 -3 -2h-23v68h23q3 0 3 -2t-3 -1h-6h-1v-62h1q2 0 4 0.5t3 0.5t1.5 -0.5t0.5 -1.5z"
         id="glyph166" />
      <glyph
         glyph-name="backslash"
         unicode="\"
         horiz-adv-x="26"
         d="M23 1q0 -2 -1 -1h-2q-1 2 -2 6l-13 42q-1 2 -1 3t-0.5 1.5l-0.5 0.5v1q0 1 0.5 1.5t1 0.5t1 -0.5l0.5 -0.5q1 -1 2 -5l12 -41q1 -4 2 -5q1 -2 1 -3z"
         id="glyph168" />
      <glyph
         glyph-name="bracketright"
         unicode="]"
         horiz-adv-x="36"
         d="M7 -8q-3 0 -3 2q0 1 0.5 1.5t1.5 0.5t1 -1h2h3h1v62v0h-7q-2 0 -2 1q0 2 3 2h22v-68h-22z"
         id="glyph170" />
      <glyph
         glyph-name="asciicircum"
         unicode="^"
         horiz-adv-x="36"
         d="M8 37q-1 -2 -2 -2l-1 0.5q-1 0.5 -1 1.5t1 2l2 2q1 1 1 2l8 11q1 2 3 2q1 0 3 -2q9 -13 10 -14v-1q1 -2 1.5 -2.5t0 -1t-1.5 -0.5t-1.5 0.5t-0.5 1.5l-5 7l-6 9q-9 -12 -9 -13l-2 -2v-1z"
         id="glyph172" />
      <glyph
         glyph-name="underscore"
         unicode="_"
         horiz-adv-x="34"
         d="M30 -4q3 0 4.5 -0.5t1.5 -1.5t-1 -1h-4h-28h-4t-1 1t1.5 1.5t4.5 0.5h26z"
         id="glyph174" />
      <glyph
         glyph-name="grave"
         unicode="`"
         horiz-adv-x="22"
         d="M4 58h11l4 -11h-6z"
         id="glyph176" />
      <glyph
         glyph-name="a"
         unicode="a"
         horiz-adv-x="55"
         d="M33 3q-5 -3 -11 -4q-8 0 -13 4t-5 12q0 7 5 11t13 4q6 0 11 -2v11q-4 1 -6.5 1t-4.5 -0.5t-4 -0.5q-4 -1 -5 -3q-1 -1 -2 -1t-1.5 0.5t-0.5 1t0.5 1l0.5 0.5q1 1 4 2q6 2 11 2q17 0 23 -8q2 -4 2 -10v-24h-17v3zM33 25q-5 2 -10 2h-1v-25v0v0q5 0 11 4v19z"
         id="glyph178" />
      <glyph
         glyph-name="b"
         unicode="b"
         horiz-adv-x="59"
         d="M33 -1q-5 0 -10 3v-2h-16v55h16v-15q5 3 10.5 2.5t9.5 -2t7 -4.5q6 -6 6 -15t-6 -15q-7 -7 -17 -7zM33 40q-6 0 -10 -4v-31q5 -3 11 -3h1h1v37q-1 1 -3 1z"
         id="glyph180" />
      <glyph
         glyph-name="c"
         unicode="c"
         horiz-adv-x="44"
         d="M22 2h4t3.5 0.5t3.5 0.5q3 1 5 3q1 2 2 2t1.5 -1.5t-2.5 -3.5q-6 -4 -13 -4q-10 0 -17 6q-6 6 -6 16q0 9 7 15t16 6q6 0 11 -2q4 -2 4 -3t-0.5 -1.5l-0.5 -0.5q-1 0 -2 1q-3 2 -8 3q-2 0 -4 0.5t-4 -0.5v-37z"
         id="glyph182" />
      <glyph
         glyph-name="d"
         unicode="d"
         horiz-adv-x="58"
         d="M36 2q-5 -3 -10 -3t-9.5 1.5t-7.5 4.5q-6 6 -6 16q0 9 6 15t17 6q5 0 10 -2v15h16v-55h-16v2zM25 40q-1 0 -2 -1v-37h3q5 0 10 4v31q-5 3 -11 3z"
         id="glyph184" />
      <glyph
         glyph-name="e"
         unicode="e"
         horiz-adv-x="50"
         d="M43 9q2 0 2 -1t-2 -2q-6 -6 -17 -7q-10 0 -16 6q-7 6 -7 15t6 16q7 6 18 6q9 0 14 -5q6 -6 7 -15v-3h-26v-16q3 -1 6 -1q7 0 12 5l1 1q1 1 2 1zM33 39q-3 1 -6 1t-5 -1v-17h11v17z"
         id="glyph186" />
      <glyph
         glyph-name="f"
         unicode="f"
         horiz-adv-x="32"
         d="M32 39h-4h-4v-39h-17v39h-1h-4q-2 0 -2 1.5t2 1.5h5q1 7 6 11q5 3 13 3t11 -3q1 -1 1 -2q0 -2 -2 -1h-2l-1 1q-2 2 -5 2h-1.5h-1.5h-1v-11h3h5q2 0 2 -1.5t-2 -1.5z"
         id="glyph188" />
      <glyph
         glyph-name="g"
         unicode="g"
         horiz-adv-x="46"
         d="M15 13q-3 -1 -3 -3q0 -1 2 -1q4 -1 11 -1.5t10.5 -1t5.5 -2.5q4 -2 3 -6q0 -5 -5 -8q-6 -3 -15 -4q-11 0 -18 3q-2 1 -2 3q0 1 0.5 1h0.5h2q2 -1 3.5 -2t5.5 -1.5t7 -0.5h5.5t3.5 1q3 1 3 2t-0.5 1t-1.5 0.5t-3 0.5q-3 1 -8.5 1.5t-8.5 1t-5 1.5q-4 2 -4 7q0 6 8 9 q-4 2 -6 5.5t-2 7t1.5 6.5t3.5 5q5 4 14 4q4 0 8 -1q6 5 10 6q2 0 3 -1t1 -2t-0.5 -1.5t-1.5 -0.5t-2 1h-2q-2 0 -5 -3q6 -3 8 -9q1 -2 1 -5t-2 -5.5t-4 -4.5q-6 -4 -14 -4q-4 0 -8 1zM23 14q6 0 11 4q5 3 5.5 9t-5.5 9q-5 3 -11 4v-26z"
         id="glyph190" />
      <glyph
         glyph-name="h"
         unicode="h"
         horiz-adv-x="58"
         d="M39 42q14 0 13 -13v-29h-16v38h-2t-2.5 -0.5t-2.5 -1.5q-3 -2 -5 -5v-31h-17v55h17v-20q7 7 15 7z"
         id="glyph192" />
      <glyph
         glyph-name="i"
         unicode="i"
         horiz-adv-x="29"
         d="M8.5 50.5q-2.5 1.5 -2.5 4.5q0 2 3 4t6 2t4.5 -0.5t2.5 -1.5q2 -2 2 -4q0 -3 -2 -5q-3 -2 -7 -1.5t-6.5 2zM7 42h17v-42h-17v42z"
         id="glyph194" />
      <glyph
         glyph-name="j"
         unicode="j"
         horiz-adv-x="31"
         d="M10.5 50.5q-2.5 1.5 -2.5 4.5q0 2 3 4t5.5 2t4 -0.5t3.5 -1.5q2 -2 2 -4q0 -3 -3 -5t-6.5 -1.5t-6 2zM-2 -8q1 0 2 -1t2 -1q2 -1 3.5 -1h3.5v53h16v-38q0 -9 -5 -14q-5 -4 -14 -4q-4 0 -7 1q-3 2 -3 3.5t2 1.5z"
         id="glyph196" />
      <glyph
         glyph-name="k"
         unicode="k"
         horiz-adv-x="51"
         d="M7 55h17v-30l16 12l3.5 3.5t2.5 1.5q2 0 2 -1t-1 -2l-10 -8l14 -31h-17l-10 22v-22h-17v55z"
         id="glyph198" />
      <glyph
         glyph-name="l"
         unicode="l"
         horiz-adv-x="29"
         d="M7 55h17v-55h-17v55z"
         id="glyph200" />
      <glyph
         glyph-name="m"
         unicode="m"
         horiz-adv-x="86"
         d="M52 31v-2v-29h-17v38h-1h-1q-3 0 -7 -4q-1 -1 -2 -3v-31h-17v42h17v-7q7 7 14 7q11 0 13 -7q3 4 7.5 5.5t8.5 1.5q7 0 10.5 -3t3.5 -10v-29h-17v38h-1.5q-1.5 0 -3 -0.5t-2.5 -1.5q-3 -2 -5 -5z"
         id="glyph202" />
      <glyph
         glyph-name="n"
         unicode="n"
         horiz-adv-x="58"
         d="M36 37q-1 1 -2.5 1t-2.5 -0.5t-2 -1.5q-3 -2 -5 -5v-31h-17v42h17v-7q7 7 15 7q14 0 13 -13v-29h-16v37z"
         id="glyph204" />
      <glyph
         glyph-name="o"
         unicode="o"
         horiz-adv-x="50"
         d="M3 21q0 5 2 8.5t5 6.5q6 6 16 6t16 -6t6 -15t-6 -15t-17 -7q-10 0 -15 6q-7 6 -7 16zM24 2h1h1q8 0 13 5q6 5 5 14q0 8 -5 13t-13 6h-1h-1v-38z"
         id="glyph206" />
      <glyph
         glyph-name="p"
         unicode="p"
         horiz-adv-x="59"
         d="M33 -1q-5 0 -10 3v-14h-16v54h16v-2q5 3 10.5 2.5t9.5 -2t7 -4.5q6 -6 6 -15t-6 -15q-7 -7 -17 -7zM33 40q-6 0 -10 -4v-31q5 -3 11 -3h1h1v37q-1 1 -3 1z"
         id="glyph208" />
      <glyph
         glyph-name="q"
         unicode="q"
         horiz-adv-x="58"
         d="M36 2q-5 -3 -10 -3t-9.5 1.5t-7.5 4.5q-6 6 -6 16q0 9 6 15t17 6q5 0 10 -2v2h16v-54h-16v14zM25 40q-1 0 -2 -1v-37h3q6 0 10 3v32q-5 3 -11 3z"
         id="glyph210" />
      <glyph
         glyph-name="r"
         unicode="r"
         horiz-adv-x="37"
         d="M7 42h17v-13q3 7 5.5 10t6.5 3q2 0 2.5 -0.5t0.5 -2v-2t-1 -0.5q-1 -1 -2 -1h-2q-1 1 -2 0.5t-2.5 -2t-2.5 -3.5q-3 -6 -3 -14v-17h-17v42z"
         id="glyph212" />
      <glyph
         glyph-name="s"
         unicode="s"
         horiz-adv-x="39"
         d="M4 5q0 1 0.5 1.5t1 0.5t0.5 -1h1q4 -4 12 -4q5 0 6 2v1.5v1t-0.5 1t-2.5 1.5l-3 3q-9 7 -12 11t-3 8q0 5 5 8q5 4 12 3q5 0 8 -1t4.5 -2t1.5 -2q0 -2 -1 -1h-1.5t-2 1.5t-4 2t-5 0.5t-3.5 -1t-1 -1.5t0.5 -1l1.5 -1.5q2 -2 5.5 -5t6 -5t4.5 -4q3 -4 2.5 -7.5t-1.5 -6 t-4 -4.5q-5 -4 -14 -4q-7 0 -11 3q-3 1 -3 3z"
         id="glyph214" />
      <glyph
         glyph-name="t"
         unicode="t"
         horiz-adv-x="37"
         d="M23 -1q-15 0 -15 14l-1 26h-4q-2 0 -2 1.5t2 1.5h4v0v6l17 7v-13h5h4q2 0 2 -2q0 -1 -0.5 -1h-1.5h-4h-5v-37q5 0 8 3q1 1 1.5 2.5t1 2t1.5 0.5t1.5 -0.5t0.5 -1t-0.5 -1.5t-1.5 -2q-2 -2 -4 -3q-4 -3 -9 -3z"
         id="glyph216" />
      <glyph
         glyph-name="u"
         unicode="u"
         horiz-adv-x="58"
         d="M20 -1q-14 0 -13 14v29h16v-39h1h2q3 1 7 5q1 1 3 2v32h16v-42h-16v6q-7 -7 -16 -7z"
         id="glyph218" />
      <glyph
         glyph-name="v"
         unicode="v"
         horiz-adv-x="41"
         d="M0 42h18l10 -22l7 13q2 4 2.5 6t1 2.5t1.5 0.5t1.5 -0.5t0.5 -1v-1t-1 -0.5q-1 -2 -2 -6l-17 -35z"
         id="glyph220" />
      <glyph
         glyph-name="w"
         unicode="w"
         horiz-adv-x="63"
         d="M0 42h18l10 -21l12 23l12 -24l6 13q2 5 2 6.5t0.5 2t1.5 0.5t1.5 -0.5l0.5 -0.5v-0.5q0 -0.5 -0.5 -1.5t-0.5 -2l-17 -39l-13 25l-13 -25z"
         id="glyph222" />
      <glyph
         glyph-name="x"
         unicode="x"
         horiz-adv-x="42"
         d="M1.5 -0.5q-0.5 0.5 -0.5 1.5t1 2l2 2l11 13l-15 24h18l8 -14q7 9 8 10q1 2 2 3q1 2 2 1h1v-1v-1.5t-1 -1.5q-1 -2 -3 -5l-7 -8l15 -25h-18l-9 15l-9 -12q-2 -3 -4 -4h-0.5q-0.5 0 -1 0.5z"
         id="glyph224" />
      <glyph
         glyph-name="y"
         unicode="y"
         horiz-adv-x="41"
         d="M14 -9q2 1 3 2q1 2 4 5v2l-21 42h18l11 -24l6 15q2 4 2.5 6t1 2.5t1.5 0.5t1.5 -0.5l0.5 -0.5v-1q0 -1 -0.5 -1.5t-1.5 -2.5l-16 -37q-3 -7 -5 -10q-2 -2 -4.5 -2t-2.5 1.5t2 2.5z"
         id="glyph226" />
      <glyph
         glyph-name="z"
         unicode="z"
         horiz-adv-x="43"
         d="M40 3q2 0 2 -1t-1 -1.5t-3 -0.5h-36l23 39h-12h-4q-2 0 -2.5 -0.5t-1 0t-0.5 1.5q0 2 3 2h34l-21 -39h12h5h2z"
         id="glyph228" />
      <glyph
         glyph-name="braceleft"
         unicode="{"
         horiz-adv-x="36"
         d="M32 60q0 -2 -3 -2q-2 0 -5 -1v-17q0 -6 -3 -9t-10 -3q6 -1 10 -5q3 -3 3 -8v-18q3 -1 5 -1.5t2.5 -1l0.5 -0.5q0 -1 -2 -2q-4 0 -8 2t-7 6q-7 9 -8 22q0 2 -0.5 3t-2.5 1t-2 1.5t2 1.5t2 1q1 1 1 3q1 12 7 20t16 8h1.5t0.5 -1z"
         id="glyph230" />
      <glyph
         glyph-name="bar"
         unicode="|"
         horiz-adv-x="17"
         d="M11 -7v-4q0 -1 -0.5 -1.5t-1.5 -0.5t-1.5 0.5t-0.5 1v1.5v1q0 1 1 5v51v4l-1 2v1q0 2 2 2q1 0 1.5 -0.5t0.5 -1.5v-5v-56z"
         id="glyph232" />
      <glyph
         glyph-name="braceright"
         unicode="}"
         horiz-adv-x="36"
         d="M6.5 -5q2.5 0 5.5 2v18q0 8 7 11q2 1 6 2q-10 1 -12 7q-1 2 -1 5v17q-3 1 -5 1q-4 0 -3 2q0 1 0.5 1h1.5q10 0 16 -8t6 -20q0 -2 1 -3t2 -1q2 0 2.5 -1t-1.5 -1.5t-3 -1.5t-1 -3q-1 -13 -7 -22q-3 -4 -7 -6t-8 -2q-2 0 -2 1.5t2.5 1.5z"
         id="glyph234" />
      <glyph
         glyph-name="asciitilde"
         unicode="~"
         horiz-adv-x="46"
         d="M22 26q-11 9 -15 -1q-1 -3 -2.5 -2.5t-1.5 2.5t3 5q7 7 18 -2l3 -3q3 -2 4 -2h3q3 0 5 4q1 2 1.5 2.5t1.5 0.5q2 0 1 -2q0 -2 -1 -3q-4 -6 -12 -5q-2 1 -8 6z"
         id="glyph236" />
      <glyph
         glyph-name="nonbreakingspace"
         unicode=" "
         horiz-adv-x="17"
         id="glyph238" />
      <glyph
         glyph-name="exclamdown"
         unicode="¡"
         horiz-adv-x="32"
         d="M16 42q-4 0 -6 2t-2 5t2 5t6 2t5 -2q2 -2 3 -5q0 -5 -5 -6q-1 -1 -3 -1zM5 5q-1 2 -1 3.5v2.5t1 2q1 2 2.5 5.5t2.5 5.5l2 4q1 3 1.5 6t1 3.5t1 0.5t1 -0.5t1 -2.5l1 -4t1.5 -4q1 -3 3 -6l3 -5q2 -3 2 -4.5v-3t-1 -3.5t-2 -3q-3 -3 -9 -3q-5 0 -9 3q-1 1 -2 3z"
         id="glyph240" />
      <glyph
         glyph-name="dieresis"
         unicode="¨"
         horiz-adv-x="40"
         d="M35 48.5q-2 -1.5 -4.5 -1.5t-3.5 0.5t-2 0.5q-2 1 -2 4t4 4q1 0 3 0.5t3 0t2 -1.5q2 -1 2 -3t-2 -3.5zM15.5 48.5q-1.5 -1.5 -4 -1.5t-4 0.5t-2.5 0.5q-2 1 -1 4q0 3 3 4q1 0 3 0.5t3.5 0t2.5 -1.5q2 -1 1.5 -3t-2 -3.5z"
         id="glyph242" />
      <glyph
         glyph-name="guillemotleft"
         unicode="«"
         horiz-adv-x="40"
         d="M21 27q5 4 8 7.5t3.5 4l0.5 0.5q1 0 1.5 0.5t1 0t0.5 -1.5t-0.5 -1.5l-1.5 -1.5t-3 -2l-3 -3l-2 -1q-1 -1 -1 -2l10 -8v-17l-14 13v12zM4 27q5 4 8 7.5t3.5 4l0.5 0.5q1 0 1.5 0.5t1 0t0.5 -1.5t-0.5 -1.5l-1.5 -1.5t-3 -2l-3 -3l-2 -1q-1 -1 -1 -2l10 -8v-17l-14 13v12z "
         id="glyph244" />
      <glyph
         glyph-name="macron"
         unicode="¯"
         horiz-adv-x="35"
         d="M12 49h-6q-1 0 -1.5 0.5t-0.5 1t0.5 1t1.5 0.5h5h12h7q2 0 2 -1t-0.5 -1.5t-2.5 -0.5h-5h-12z"
         id="glyph246" />
      <glyph
         glyph-name="degree"
         unicode="°"
         horiz-adv-x="23"
         d="M12 40q-2 0 -3.5 0.5t-2.5 1.5q-2 2 -2 6q0 3 2 6q2 2 6 2t6 -2t2 -6q0 -3 -2 -6q-3 -2 -6 -2zM17 47.5q0 1.5 -0.5 2.5t-0.5 2q-1 1 -4 1q-2 0 -3 -1q-2 -2 -2 -4t1 -4q2 -1 3 -1q3 0 4.5 1.5t1.5 3z"
         id="glyph248" />
      <glyph
         glyph-name="acute"
         unicode="´"
         horiz-adv-x="22"
         d="M12 58h11l-9 -11h-6z"
         id="glyph250" />
      <glyph
         glyph-name="guillemotright"
         unicode="»"
         horiz-adv-x="40"
         d="M21.5 2.5q-0.5 0.5 -0.5 1t0.5 1l1.5 1.5l3 3l3 2l2 2q1 1 1 2l-10 7v18l14 -13v-13q-4 -3 -5 -4l-5 -5l-2.5 -2.5t-1 -0.5t-1 0.5zM4.5 2.5q-0.5 0.5 -0.5 1t0.5 1l1.5 1.5l3 3l3 2l2 2q1 1 1 2l-10 7v18l14 -13v-13q-4 -3 -5 -4l-5 -5l-2.5 -2.5t-1 -0.5t-1 0.5z"
         id="glyph252" />
      <glyph
         glyph-name="questiondown"
         unicode="¿"
         horiz-adv-x="36"
         d="M18 35q-4 0 -6 1.5t-2 5.5q0 3 2 5t6 1q4 0 6 -2t2 -4q0 -5 -4 -7h-4zM23.5 20q3.5 -4 5.5 -8.5t2 -8t-1 -5.5t-2 -3q-4 -3 -11 -3q-4 0 -6 0.5t-3.5 2l-1.5 1.5q0 2 1 2t3 -1q2 -2 6 -2q1 0 1.5 0.5t0.5 1t-0.5 1t-0.5 2.5q-1 2 -3.5 4.5t-3.5 4.5t-2 3q-1 3 -1 6t1 5 t3 4q4 3 10 3q3 0 5 -2q3 -2 3 -3t-1 -1t-2 1q-2 2 -4 1.5t-2 -1.5t3.5 -5z"
         id="glyph254" />
      <glyph
         glyph-name="Agrave"
         unicode="À"
         horiz-adv-x="52"
         d="M17 7h-10l-1 -3q-1 -1 -1 -2q-1 -2 -3 -2q-1 0 -1 0.5v0.5v2q1 2 3 4q-3 0 -3.5 2t1.5 2q1 0 3 -1l19 48l27 -58h-20l-3 7h-11zM8 10h7h11l-9 21zM11 66h11l4 -11h-6z"
         id="glyph256" />
      <glyph
         glyph-name="Aacute"
         unicode="Á"
         horiz-adv-x="52"
         d="M17 7h-10l-1 -3q-1 -1 -1 -2q-1 -2 -3 -2q-1 0 -1 0.5v0.5v2q1 2 3 4q-3 0 -3.5 2t1.5 2q1 0 3 -1l19 48l27 -58h-20l-3 7h-11zM8 10h7h11l-9 21zM30 71h11l-10 -11h-6z"
         id="glyph258" />
      <glyph
         glyph-name="Acircumflex"
         unicode="Â"
         horiz-adv-x="52"
         d="M17 7h-10l-1 -3q-1 -1 -1 -2q-1 -2 -3 -2q-1 0 -1 0.5v0.5v2q1 2 3 4q-3 0 -3.5 2t1.5 2q1 0 3 -1l19 48l27 -58h-20l-3 7h-11zM8 10h7h11l-9 21zM16 61l-1 -1q-1 -1 -1.5 -1t-1 0.5t-0.5 1.5t2 2l1.5 1.5t1.5 2.5l5 4h10l10 -11h-12l-7 8l-5.5 -5.5z"
         id="glyph260" />
      <glyph
         glyph-name="Atilde"
         unicode="Ã"
         horiz-adv-x="52"
         d="M17 7h-10l-1 -3q-1 -1 -1 -2q-1 -2 -3 -2q-1 0 -1 0.5v0.5v2q1 2 3 4q-3 0 -3.5 2t1.5 2q1 0 3 -1l19 48l27 -58h-20l-3 7h-11zM8 10h7h11l-9 21zM13.5 60q-0.5 0 -1 0.5t-0.5 2t1 3t2 3.5q3 3 7 3q3 0 7 -4l2 -1q2 -2 3 -2t1.5 1t1 2.5t0.5 2t1 0.5t1.5 -0.5t0.5 -1.5 t-1 -3t-2 -3q-3 -3 -7 -3q-3 0 -8 3l-2 2q-1 1 -2 1t-1.5 -0.5l-0.5 -0.5q-1 -1 -1 -2v-2q0 -1 -0.5 -1h-1z"
         id="glyph262" />
      <glyph
         glyph-name="Adieresis"
         unicode="Ä"
         horiz-adv-x="52"
         d="M17 7h-10l-1 -3q-1 -1 -1 -2q-1 -2 -3 -2q-1 0 -1 0.5v0.5v2q1 2 3 4q-3 0 -3.5 2t1.5 2q1 0 3 -1l19 48l27 -58h-20l-3 7h-11zM8 10h7h11l-9 21zM40 61q-2 -1 -4 -1t-3.5 0.5t-2.5 0.5q-2 1 -2 4t4 4q1 0 3 0.5t3 0t2 -1.5q2 -1 2 -3.5t-2 -3.5zM20.5 61q-1.5 -1 -4 -1 t-4 0.5l-1.5 0.5q-2 1 -2 4t4 4q1 0 2.5 0.5t3 0t2.5 -1.5q2 -1 1.5 -3.5t-2 -3.5z"
         id="glyph264" />
      <glyph
         glyph-name="Aring"
         unicode="Å"
         horiz-adv-x="52"
         d="M17 7h-10l-1 -3q-1 -1 -1 -2q-1 -2 -3 -2q-1 0 -1 0.5v0.5v2q1 2 3 4q-3 0 -3.5 2t1.5 2q1 0 3 -1l19 48l27 -58h-20l-3 7h-11zM8 10h7h11l-9 21zM26 60q-3 0 -5 1q-2 2 -2 5q0 4 4 5q1 0 2.5 0.5t2.5 0t2 -1.5q2 -2 2 -4q0 -3 -2 -5q-1 -1 -4 -1zM24.5 63h1.5t2 0.5t1 2 t-1 2.5t-2.5 1t-2.5 -1t-1 -2t0.5 -1.5l1 -1t1 -0.5z"
         id="glyph266" />
      <glyph
         glyph-name="AE"
         unicode="Æ"
         horiz-adv-x="64"
         d="M16 7h-9l-2 -3q0 -1 -1 -2q-1 -2 -2 -2t-1.5 0.5l-0.5 0.5q0 1 1 2l2 4q-3 0 -3 2t2 2q1 0 3 -1l19 45v0v0h31h3q3 0 3 -1t-0.5 -1.5t-1.5 -0.5h-2h-5h-8v-11h7h5q1 0 1.5 -0.5t0.5 -1.5q0 -2 -2 -1h-2h-2h-8v-35h8h5h2q2 0 2 -1t-1 -1.5t-3 -0.5h-33v7h-8zM8 10h7h9v38 v0z"
         id="glyph268" />
      <glyph
         glyph-name="Ccedilla"
         unicode="Ç"
         horiz-adv-x="56"
         d="M35 -3q8 0 9 -5q0 -4 -5 -5h-4q-6 0 -8 2q-1 1 -1 2q0 2 1 1q1 0 2 -0.5t1.5 -1t1.5 -0.5h4t3.5 0.5t1.5 1.5t-1.5 1.5t-4 0.5t-3 0.5t-0.5 2.5v2q-13 0 -21 9q-8 8 -8 20q0 6 2.5 11.5t6.5 8.5q9 8 22 8q7 0 13 -3t5 -4q0 -1 -0.5 -1.5l-0.5 -0.5q-1 0 -2 1t-3 2l-4 2 q-4 1 -7.5 1h-5.5v-50q3 0 5 -0.5t4 0t4 0.5q5 1 7 4l1.5 1.5t1.5 0.5q2 0 1 -2q0 -1 -2 -3q-4 -3 -7 -3q-5 -1 -9 -2v-2z"
         id="glyph270" />
      <glyph
         glyph-name="Egrave"
         unicode="È"
         horiz-adv-x="46"
         d="M41 3q2 0 2 -1t-1 -1.5t-3 -0.5h-33v55h31h3q3 0 3 -1t-0.5 -1.5l-0.5 -0.5h-3h-4h-9v-11h7h5q1 0 1.5 -0.5t0.5 -1.5q0 -2 -2 -1h-2h-2h-8v-35h9h4h2zM11 66h11l5 -11h-6z"
         id="glyph272" />
      <glyph
         glyph-name="Eacute"
         unicode="É"
         horiz-adv-x="46"
         d="M41 3q2 0 2 -1t-1 -1.5t-3 -0.5h-33v55h31h3q3 0 3 -1t-0.5 -1.5l-0.5 -0.5h-3h-4h-9v-11h7h5q1 0 1.5 -0.5t0.5 -1.5q0 -2 -2 -1h-2h-2h-8v-35h9h4h2zM30 71h11l-9 -11h-6z"
         id="glyph274" />
      <glyph
         glyph-name="Ecircumflex"
         unicode="Ê"
         horiz-adv-x="46"
         d="M41 3q2 0 2 -1t-1 -1.5t-3 -0.5h-33v55h31h3q3 0 3 -1t-0.5 -1.5l-0.5 -0.5h-3h-4h-9v-11h7h5q1 0 1.5 -0.5t0.5 -1.5q0 -2 -2 -1h-2h-2h-8v-35h9h4h2zM17 61l-1 -1q-1 -1 -2 -1t-1.5 0.5t-0.5 1.5t2 2l1.5 1.5l2.5 2.5l4 4h10l10 -11h-12l-7 8q-5 -5 -5 -5.5z"
         id="glyph276" />
      <glyph
         glyph-name="Edieresis"
         unicode="Ë"
         horiz-adv-x="46"
         d="M41 3q2 0 2 -1t-1 -1.5t-3 -0.5h-33v55h31h3q3 0 3 -1t-0.5 -1.5l-0.5 -0.5h-3h-4h-9v-11h7h5q1 0 1.5 -0.5t0.5 -1.5q0 -2 -2 -1h-2h-2h-8v-35h9h4h2zM40.5 61q-1.5 -1 -4 -1t-4 0.5l-1.5 0.5q-2 1 -2 4t3 4q1 0 3 0.5t3.5 0t2.5 -1.5q2 -1 1.5 -3.5t-2 -3.5zM21 61 q-2 -1 -4.5 -1t-3.5 0.5t-2 0.5q-2 1 -2 4t4 4q1 0 3 0.5t3 0t2 -1.5q2 -1 2 -3.5t-2 -3.5z"
         id="glyph278" />
      <glyph
         glyph-name="Igrave"
         unicode="Ì"
         horiz-adv-x="32"
         d="M6 55h20v-55h-20v55zM2 66h11l4 -11h-6z"
         id="glyph280" />
      <glyph
         glyph-name="Iacute"
         unicode="Í"
         horiz-adv-x="32"
         d="M6 55h20v-55h-20v55zM21 71h11l-10 -11h-6z"
         id="glyph282" />
      <glyph
         glyph-name="Icircumflex"
         unicode="Î"
         horiz-adv-x="32"
         d="M6 55h20v-55h-20v55zM7 61l-1 -1q-1 -1 -1.5 -1t-1 0.5t-0.5 1.5t2 2l1.5 1.5t1.5 2.5l5 4h10l10 -11h-12l-7 8l-5.5 -5.5z"
         id="glyph284" />
      <glyph
         glyph-name="Idieresis"
         unicode="Ï"
         horiz-adv-x="32"
         d="M6 55h20v-55h-20v55zM31 61q-2 -1 -4 -1t-3.5 0.5t-2.5 0.5q-2 1 -2 4t4 4q1 0 3 0.5t3 0t2 -1.5q2 -1 2 -3.5t-2 -3.5zM11.5 61q-1.5 -1 -4 -1t-4 0.5l-1.5 0.5q-2 1 -2 4t4 4q1 0 2.5 0.5t3 0t2.5 -1.5q2 -1 1.5 -3.5t-2 -3.5z"
         id="glyph286" />
      <glyph
         glyph-name="Eth"
         unicode="Ð"
         horiz-adv-x="61"
         d="M2 30h5v25h16q11 0 17 -1q6 -2 9 -5t5 -6q4 -6 4 -15q0 -13 -9 -20q-6 -6 -15 -7q-5 -1 -14 -1h-13v27h-2h-3q-1 0 -1.5 0.5t-0.5 1t0.5 1t1.5 0.5zM27 3h1h1q11 0 18 7q8 7 8 18q0 7 -4 13q-5 8 -16 11q-4 1 -8 0v-22h4h3h2.5t2 -0.5l0.5 -0.5q0 -1 -0.5 -1.5t-2.5 -0.5 h-2h-3h-4v-24z"
         id="glyph288" />
      <glyph
         glyph-name="Ntilde"
         unicode="Ñ"
         horiz-adv-x="59"
         d="M10 6l1 -4q0 -1 -1 -1.5t-1.5 -0.5t-1 0.5t-0.5 1v1v1.5v5v49l43 -34v23v4q0 2 -1 3q0 2 2 2q1 0 1.5 -0.5t0.5 -1.5v-2v-5v-49l-43 33v-25zM19.5 60q-0.5 0 -1 0.5t-0.5 2t1 3t2 3.5q3 3 7 3q3 0 8 -4l2 -1q2 -2 2.5 -2t1.5 1t1 2.5t0.5 2t1 0.5t1 -0.5t0.5 -1.5t-1 -3 t-2 -3q-3 -3 -7 -3q-3 0 -7 3l-3 2q-1 1 -2 1t-1 -0.5t-1 -0.5q-1 -1 -1 -2v-2q0 -1 -0.5 -1h-1z"
         id="glyph290" />
      <glyph
         glyph-name="Ograve"
         unicode="Ò"
         horiz-adv-x="65"
         d="M6.5 16.5q-2.5 5.5 -2.5 11.5t2.5 11t5.5 9q8 8 21 8q12 0 20 -8t8 -20q0 -13 -8 -21q-5 -5 -13 -7q-4 -1 -8.5 -1t-9.5 2t-9 6t-6.5 9.5zM33 53h-4v-51h4q10 0 18 7q7 7 7 19q0 11 -7 18t-18 7zM18 66h11l5 -11h-6z"
         id="glyph292" />
      <glyph
         glyph-name="Oacute"
         unicode="Ó"
         horiz-adv-x="65"
         d="M6.5 16.5q-2.5 5.5 -2.5 11.5t2.5 11t5.5 9q8 8 21 8q12 0 20 -8t8 -20q0 -13 -8 -21q-5 -5 -13 -7q-4 -1 -8.5 -1t-9.5 2t-9 6t-6.5 9.5zM33 53h-4v-51h4q10 0 18 7q7 7 7 19q0 11 -7 18t-18 7zM37 71h11l-9 -11h-6z"
         id="glyph294" />
      <glyph
         glyph-name="Ocircumflex"
         unicode="Ô"
         horiz-adv-x="65"
         d="M6.5 16.5q-2.5 5.5 -2.5 11.5t2.5 11t5.5 9q8 8 21 8q12 0 20 -8t8 -20q0 -13 -8 -21q-5 -5 -13 -7q-4 -1 -8.5 -1t-9.5 2t-9 6t-6.5 9.5zM33 53h-4v-51h4q10 0 18 7q7 7 7 19q0 11 -7 18t-18 7zM24 61l-2 -1q-1 -1 -1.5 -1t-1 0.5t-0.5 1.5t2 2l1.5 1.5l2.5 2.5l4 4h10 l10 -11h-12l-7 8q-5 -5 -5 -5.5z"
         id="glyph296" />
      <glyph
         glyph-name="Otilde"
         unicode="Õ"
         horiz-adv-x="65"
         d="M6.5 16.5q-2.5 5.5 -2.5 11.5t2.5 11t5.5 9q8 8 21 8q12 0 20 -8t8 -20q0 -13 -8 -21q-5 -5 -13 -7q-4 -1 -8.5 -1t-9.5 2t-9 6t-6.5 9.5zM33 53h-4v-51h4q10 0 18 7q7 7 7 19q0 11 -7 18t-18 7zM20.5 60q-0.5 0 -1 0.5t-0.5 2t1 3t2 3.5q3 3 7 3q3 0 8 -4l2 -1 q2 -2 2.5 -2t1.5 1t1 2.5t0.5 2t1 0.5t1 -0.5t0.5 -1.5t-1 -3t-2 -3q-3 -3 -7 -3q-3 0 -7 3l-3 2q-1 1 -2 1t-1 -0.5t-1 -0.5q-1 -1 -1 -2v-2q0 -1 -0.5 -1h-1z"
         id="glyph298" />
      <glyph
         glyph-name="Odieresis"
         unicode="Ö"
         horiz-adv-x="65"
         d="M6.5 16.5q-2.5 5.5 -2.5 11.5t2.5 11t5.5 9q8 8 21 8q12 0 20 -8t8 -20q0 -13 -8 -21q-5 -5 -13 -7q-4 -1 -8.5 -1t-9.5 2t-9 6t-6.5 9.5zM33 53h-4v-51h4q10 0 18 7q7 7 7 19q0 11 -7 18t-18 7zM47.5 61q-1.5 -1 -4 -1t-4 0.5l-1.5 0.5q-2 1 -2 4t3 4q1 0 3 0.5t3.5 0 t2.5 -1.5q2 -1 1.5 -3.5t-2 -3.5zM28 61q-2 -1 -4.5 -1t-3.5 0.5t-2 0.5q-2 1 -2 4t4 4q1 0 3 0.5t3 0t2 -1.5q2 -1 2 -3.5t-2 -3.5z"
         id="glyph300" />
      <glyph
         glyph-name="multiply"
         unicode="×"
         horiz-adv-x="34"
         d="M5 33q0 1 1 2q1 0 3 -2v-1l2 -2h1l5 -6l5 5l2.5 2.5l0.5 0.5l1 1q1 2 2 2q2 0 2 -2q0 -1 -2 -2l-1 -1l-2 -2l-6 -6l6 -6l1 -1l2 -1q2 -2 2 -2.5v-1t-0.5 -1l-0.5 -0.5q-1 0 -2 1l-2 2l-8 8l-8 -8q-1 -1 -1.5 -2t-1.5 -1t-2 2q0 1 2 2l0.5 0.5l1 1l0.5 0.5l7 7l-7 8 q-1 1 -2 1q-1 1 -1 2z"
         id="glyph302" />
      <glyph
         glyph-name="Oslash"
         unicode="Ø"
         horiz-adv-x="65"
         d="M49 51l2 4l2 3q2 3 2.5 3t1 -0.5l0.5 -0.5q0 -1 -1 -2.5t-1.5 -2.5t-0.5 -2l-3 -4zM16 -8q-2 1 0 3l1 2l4 7l2 -3l-3 -7q-2 -3 -2.5 -2.5t-1.5 0.5zM6.5 16.5q-2.5 5.5 -2.5 11.5t2.5 11t5.5 9q8 8 21 8q12 0 20 -8t8 -20q0 -13 -8 -21q-5 -5 -13 -7q-4 -1 -8.5 -1 t-9.5 2t-9 6t-6.5 9.5zM33 53h-4v-51h4q10 0 18 7q7 7 7 19q0 11 -7 18t-18 7z"
         id="glyph304" />
      <glyph
         glyph-name="Ugrave"
         unicode="Ù"
         horiz-adv-x="61"
         d="M56 54l-1 -5v-24q0 -12 -6 -18q-7 -7 -18 -8q-12 0 -19 8q-6 7 -6 18v30h20v-52q3 0 6.5 -0.5t7 1t6.5 4.5q6 7 6 20v21v2.5v2.5q0 2 2 2t2 -2zM18 66h11l5 -11h-6z"
         id="glyph306" />
      <glyph
         glyph-name="Uacute"
         unicode="Ú"
         horiz-adv-x="61"
         d="M56 54l-1 -5v-24q0 -12 -6 -18q-7 -7 -18 -8q-12 0 -19 8q-6 7 -6 18v30h20v-52q3 0 6.5 -0.5t7 1t6.5 4.5q6 7 6 20v21v2.5v2.5q0 2 2 2t2 -2zM38 71h11l-10 -11h-6z"
         id="glyph308" />
      <glyph
         glyph-name="Ucircumflex"
         unicode="Û"
         horiz-adv-x="61"
         d="M56 54l-1 -5v-24q0 -12 -6 -18q-7 -7 -18 -8q-12 0 -19 8q-6 7 -6 18v30h20v-52q3 0 6.5 -0.5t7 1t6.5 4.5q6 7 6 20v21v2.5v2.5q0 2 2 2t2 -2zM24 61l-1 -1q-1 -1 -1.5 -1t-1 0.5t-0.5 1.5t1 2t2 1.5t2 2.5l4 4h10l11 -11h-12l-8 8q-5 -5 -5 -5.5z"
         id="glyph310" />
      <glyph
         glyph-name="Udieresis"
         unicode="Ü"
         horiz-adv-x="61"
         d="M56 54l-1 -5v-24q0 -12 -6 -18q-7 -7 -18 -8q-12 0 -19 8q-6 7 -6 18v30h20v-52q3 0 6.5 -0.5t7 1t6.5 4.5q6 7 6 20v21v2.5v2.5q0 2 2 2t2 -2zM48 61q-2 -1 -4.5 -1t-3.5 0.5t-2 0.5q-2 1 -2 4t4 4q1 0 3 0.5t3 0t2 -1.5q2 -1 2 -3.5t-2 -3.5zM28 61q-2 -1 -4 -1 t-3.5 0.5t-2.5 0.5q-2 1 -2 4t4 4q1 0 3 0.5t3 0t2 -1.5q2 -1 2 -3.5t-2 -3.5z"
         id="glyph312" />
      <glyph
         glyph-name="germandbls"
         unicode="ß"
         horiz-adv-x="57"
         d="M32 53q-2 1 -4.5 1t-4.5 -1v-53h-17v37q0 9 6 14t16 5q6 0 10 -3t3 -6q0 -4 -2 -6v-1v-1v-1q0 -1 1 -2l2 -2l3 -4q7 -8 9 -13v-4t-1 -5t-3 -5q-5 -4 -13 -4q-4 0 -6 2l-0.5 0.5l-0.5 0.5l-1 1q0 2 2 2h1l1 -1q2 -2 5 -2q2 0 2 1q2 1 2 2t-0.5 2t-0.5 3q-1 2 -4.5 6t-5 6 t-2.5 3q-1 2 -2 5q0 5 6 9q5 3 5 6v2t-0.5 2.5t-2 2t-3.5 1.5z"
         id="glyph314" />
      <glyph
         glyph-name="agrave"
         unicode="à"
         horiz-adv-x="55"
         d="M33 3q-5 -3 -11 -4q-8 0 -13 4t-5 12q0 7 5 11t13 4q6 0 11 -2v11q-4 1 -6.5 1t-4.5 -0.5t-4 -0.5q-4 -1 -5 -3q-1 -1 -2 -1t-1.5 0.5t-0.5 1t0.5 1l0.5 0.5q1 1 4 2q6 2 11 2q17 0 23 -8q2 -4 2 -10v-24h-17v3zM33 25q-5 2 -10 2h-1v-25v0v0q5 0 11 4v19zM20 58h11 l4 -11h-6z"
         id="glyph316" />
      <glyph
         glyph-name="aacute"
         unicode="á"
         horiz-adv-x="55"
         d="M33 3q-5 -3 -11 -4q-8 0 -13 4t-5 12q0 7 5 11t13 4q6 0 11 -2v11q-4 1 -6.5 1t-4.5 -0.5t-4 -0.5q-4 -1 -5 -3q-1 -1 -2 -1t-1.5 0.5t-0.5 1t0.5 1l0.5 0.5q1 1 4 2q6 2 11 2q17 0 23 -8q2 -4 2 -10v-24h-17v3zM33 25q-5 2 -10 2h-1v-25v0v0q5 0 11 4v19zM30 62h11 l-10 -11h-6z"
         id="glyph318" />
      <glyph
         glyph-name="acircumflex"
         unicode="â"
         horiz-adv-x="55"
         d="M33 3q-5 -3 -11 -4q-8 0 -13 4t-5 12q0 7 5 11t13 4q6 0 11 -2v11q-4 1 -6.5 1t-4.5 -0.5t-4 -0.5q-4 -1 -5 -3q-1 -1 -2 -1t-1.5 0.5t-0.5 1t0.5 1l0.5 0.5q1 1 4 2q6 2 11 2q17 0 23 -8q2 -4 2 -10v-24h-17v3zM33 25q-5 2 -10 2h-1v-25v0v0q5 0 11 4v19zM19 53l-2 -2 q-1 -1 -1.5 -1t-1 0.5t-0.5 1.5t2 2l1.5 1.5l2.5 2.5l4 4h10l10 -11h-12l-7 8q-5 -5 -5.5 -5z"
         id="glyph320" />
      <glyph
         glyph-name="atilde"
         unicode="ã"
         horiz-adv-x="55"
         d="M33 3q-5 -3 -11 -4q-8 0 -13 4t-5 12q0 7 5 11t13 4q6 0 11 -2v11q-4 1 -6.5 1t-4.5 -0.5t-4 -0.5q-4 -1 -5 -3q-1 -1 -2 -1t-1.5 0.5t-0.5 1t0.5 1l0.5 0.5q1 1 4 2q6 2 11 2q17 0 23 -8q2 -4 2 -10v-24h-17v3zM33 25q-5 2 -10 2h-1v-25v0v0q5 0 11 4v19zM15.5 47 q-0.5 0 -1 0.5t-0.5 1.5t0.5 3t2.5 3q3 3 7 3q3 0 7 -3l2 -2q2 -2 3 -2t1.5 1t1 3t0.5 2.5t0.5 0.5t1 -1t0.5 -2t-0.5 -2.5t-2.5 -3.5q-3 -3 -7 -3q-3 0 -7 3l-3 2q-1 1 -1.5 1h-1t-0.5 -1q-1 -1 -1 -2l-1 -1v-1h-0.5z"
         id="glyph322" />
      <glyph
         glyph-name="adieresis"
         unicode="ä"
         horiz-adv-x="55"
         d="M33 3q-5 -3 -11 -4q-8 0 -13 4t-5 12q0 7 5 11t13 4q6 0 11 -2v11q-4 1 -6.5 1t-4.5 -0.5t-4 -0.5q-4 -1 -5 -3q-1 -1 -2 -1t-1.5 0.5t-0.5 1t0.5 1l0.5 0.5q1 1 4 2q6 2 11 2q17 0 23 -8q2 -4 2 -10v-24h-17v3zM33 25q-5 2 -10 2h-1v-25v0v0q5 0 11 4v19zM43 52.5 q-2 -1.5 -4.5 -1.5t-3.5 0.5t-2 0.5q-2 1 -2 4t4 4q1 0 3 0.5t3 0t2 -1.5q2 -1 2 -3t-2 -3.5zM23.5 52.5q-1.5 -1.5 -4 -1.5t-4 0.5t-2.5 0.5q-2 1 -2 4t4 4q1 0 3 0.5t3.5 0t1.5 -1.5q2 -1 2 -3t-1.5 -3.5z"
         id="glyph324" />
      <glyph
         glyph-name="aring"
         unicode="å"
         horiz-adv-x="55"
         d="M33 3q-5 -3 -11 -4q-8 0 -13 4t-5 12q0 7 5 11t13 4q6 0 11 -2v11q-4 1 -6.5 1t-4.5 -0.5t-4 -0.5q-4 -1 -5 -3q-1 -1 -2 -1t-1.5 0.5t-0.5 1t0.5 1l0.5 0.5q1 1 4 2q6 2 11 2q17 0 23 -8q2 -4 2 -10v-24h-17v3zM33 25q-5 2 -10 2h-1v-25v0v0q5 0 11 4v19zM28 50 q-3 0 -4 2q-2 2 -2 4q0 4 4 6h2t2.5 -0.5t2.5 -1.5q2 -2 1 -4q0 -3 -2 -4q-1 -2 -4 -2zM27 53h1.5t1.5 1t1 2t-0.5 2t-2 1t-2.5 -1t-1 -2t0.5 -1.5t0.5 -1t1 -0.5z"
         id="glyph326" />
      <glyph
         glyph-name="ae"
         unicode="æ"
         horiz-adv-x="78"
         d="M37 6q-7 -7 -15 -7t-13 4t-5 12q0 7 5 11t13 4q5 0 10 -2v11q-3 1 -5.5 1t-4.5 -0.5t-4 -0.5q-4 -1 -5 -3q-1 -1 -2 -1t-1.5 0.5t-0.5 1t0.5 1l0.5 0.5q1 1 4 2q6 2 13 2t15 -3q5 3 13 3q9 0 14 -5q6 -6 7 -15q0 -1 -1 -3h-25v-16q3 -1 6 -1q7 0 12 5v1h1q1 1 2 1 q2 0 1 -1q0 -1 -1 -2q-6 -6 -16.5 -6.5t-17.5 6.5zM60 39q-2 1 -5.5 1t-4.5 -1v-17h10v17zM32 25q-5 2 -9 2h-1v-25v0v0q7 0 13 6q-3 4 -3 14v3z"
         id="glyph328" />
      <glyph
         glyph-name="ccedilla"
         unicode="ç"
         horiz-adv-x="44"
         d="M28 -3q8 0 8 -5q0 -4 -5 -5h-3q-6 0 -9 2q-1 1 -1 2q0 2 2 1q1 0 1.5 -0.5l1 -1t1.5 -0.5h4t3.5 0.5t1.5 1.5t-1.5 1.5t-3.5 0.5t-2.5 0.5t-0.5 2.5v2q-10 0 -16 7q-6 6 -6 15t7 15t16 6q6 0 11 -2q4 -2 4 -3t-0.5 -1.5l-0.5 -0.5q-1 0 -2 1q-3 2 -8 3q-2 0 -4 0.5 t-4 -0.5v-37h4t3.5 0.5t3.5 0.5q3 1 5 3q1 2 2 2t1.5 -1.5t-2.5 -3.5q-5 -3 -11 -4v-2z"
         id="glyph330" />
      <glyph
         glyph-name="egrave"
         unicode="è"
         horiz-adv-x="50"
         d="M43 9q2 0 2 -1t-2 -2q-6 -6 -17 -7q-10 0 -16 6q-7 6 -7 15t6 16q7 6 18 6q9 0 14 -5q6 -6 7 -15v-3h-26v-16q3 -1 6 -1q7 0 12 5l1 1q1 1 2 1zM33 39q-3 1 -6 1t-5 -1v-17h11v17zM18 58h11l4 -11h-6z"
         id="glyph332" />
      <glyph
         glyph-name="eacute"
         unicode="é"
         horiz-adv-x="50"
         d="M43 9q2 0 2 -1t-2 -2q-6 -6 -17 -7q-10 0 -16 6q-7 6 -7 15t6 16q7 6 18 6q9 0 14 -5q6 -6 7 -15v-3h-26v-16q3 -1 6 -1q7 0 12 5l1 1q1 1 2 1zM33 39q-3 1 -6 1t-5 -1v-17h11v17zM28 62h11l-9 -11h-6z"
         id="glyph334" />
      <glyph
         glyph-name="ecircumflex"
         unicode="ê"
         horiz-adv-x="50"
         d="M43 9q2 0 2 -1t-2 -2q-6 -6 -17 -7q-10 0 -16 6q-7 6 -7 15t6 16q7 6 18 6q9 0 14 -5q6 -6 7 -15v-3h-26v-16q3 -1 6 -1q7 0 12 5l1 1q1 1 2 1zM33 39q-3 1 -6 1t-5 -1v-17h11v17zM17 53l-1 -2q-1 -1 -2 -1t-1 0.5v1.5t1 2l1.5 1.5l2.5 2.5l4 4h10l10 -11h-12l-7 8l-5 -5 z"
         id="glyph336" />
      <glyph
         glyph-name="edieresis"
         unicode="ë"
         horiz-adv-x="50"
         d="M43 9q2 0 2 -1t-2 -2q-6 -6 -17 -7q-10 0 -16 6q-7 6 -7 15t6 16q7 6 18 6q9 0 14 -5q6 -6 7 -15v-3h-26v-16q3 -1 6 -1q7 0 12 5l1 1q1 1 2 1zM33 39q-3 1 -6 1t-5 -1v-17h11v17zM41 52.5q-2 -1.5 -4 -1.5t-3.5 0.5t-2.5 0.5q-2 1 -2 4t4 4q1 0 3 0.5t3.5 0t1.5 -1.5 q2 -1 2 -3t-2 -3.5zM21.5 52.5q-1.5 -1.5 -4 -1.5t-3.5 0.5t-2 0.5q-2 1 -2 4t4 4q1 0 2.5 0.5t3 0t2.5 -1.5q2 -1 1.5 -3t-2 -3.5z"
         id="glyph338" />
      <glyph
         glyph-name="igrave"
         unicode="ì"
         horiz-adv-x="29"
         d="M7 42h17v-42h-17v42zM7 58h11l5 -11h-6z"
         id="glyph340" />
      <glyph
         glyph-name="iacute"
         unicode="í"
         horiz-adv-x="29"
         d="M7 42h17v-42h-17v42zM17 62h11l-9 -11h-7z"
         id="glyph342" />
      <glyph
         glyph-name="icircumflex"
         unicode="î"
         horiz-adv-x="29"
         d="M7 42h17v-42h-17v42zM6 53l-1 -2q-1 -1 -2 -1t-1 0.5v1.5t1 2l1.5 1.5l2.5 2.5l4 4h10l10 -11h-12l-7 8l-5 -5z"
         id="glyph344" />
      <glyph
         glyph-name="idieresis"
         unicode="ï"
         horiz-adv-x="29"
         d="M7 42h17v-42h-17v42zM30 52.5q-2 -1.5 -4 -1.5t-3.5 0.5t-2.5 0.5q-2 1 -2 4t4 4q1 0 3 0.5t3 0t2 -1.5q2 -1 2 -3t-2 -3.5zM10.5 52.5q-1.5 -1.5 -4 -1.5t-3.5 0.5t-2 0.5q-2 1 -2 4t4 4q1 0 2.5 0.5t3 0t2.5 -1.5q2 -1 1.5 -3t-2 -3.5z"
         id="glyph346" />
      <glyph
         glyph-name="ntilde"
         unicode="ñ"
         horiz-adv-x="58"
         d="M36 37q-1 1 -2.5 1t-2.5 -0.5t-2 -1.5q-3 -2 -5 -5v-31h-17v42h17v-7q7 7 15 7q14 0 13 -13v-29h-16v37zM16.5 47q-0.5 0 -1 0.5t-0.5 1.5t1 3t2 3q3 3 7 3q3 0 8 -3l2 -2q2 -2 2.5 -2t1.5 1t1 3t0.5 2.5t1 0.5t1 -1t0.5 -2t-1 -2.5t-2 -3.5q-3 -3 -7 -3q-3 0 -7 3l-3 2 q-1 1 -1.5 1h-1t-1.5 -1t-1 -2v-1q0 -1 -0.5 -1h-1z"
         id="glyph348" />
      <glyph
         glyph-name="ograve"
         unicode="ò"
         horiz-adv-x="50"
         d="M3 21q0 5 2 8.5t5 6.5q6 6 16 6t16 -6t6 -15t-6 -15t-17 -7q-10 0 -15 6q-7 6 -7 16zM24 2h1h1q8 0 13 5q6 5 5 14q0 8 -5 13t-13 6h-1h-1v-38zM18 58h11l4 -11h-6z"
         id="glyph350" />
      <glyph
         glyph-name="oacute"
         unicode="ó"
         horiz-adv-x="50"
         d="M3 21q0 5 2 8.5t5 6.5q6 6 16 6t16 -6t6 -15t-6 -15t-17 -7q-10 0 -15 6q-7 6 -7 16zM24 2h1h1q8 0 13 5q6 5 5 14q0 8 -5 13t-13 6h-1h-1v-38zM27 62h11l-10 -11h-6z"
         id="glyph352" />
      <glyph
         glyph-name="ocircumflex"
         unicode="ô"
         horiz-adv-x="50"
         d="M3 21q0 5 2 8.5t5 6.5q6 6 16 6t16 -6t6 -15t-6 -15t-17 -7q-10 0 -15 6q-7 6 -7 16zM24 2h1h1q8 0 13 5q6 5 5 14q0 8 -5 13t-13 6h-1h-1v-38zM16 53l-2 -2q-1 -1 -1.5 -1t-1 0.5t-0.5 1.5t2 2l1.5 1.5l2.5 2.5l4 4h10l10 -11h-12l-7 8q-5 -5 -5.5 -5z"
         id="glyph354" />
      <glyph
         glyph-name="otilde"
         unicode="õ"
         horiz-adv-x="50"
         d="M3 21q0 5 2 8.5t5 6.5q6 6 16 6t16 -6t6 -15t-6 -15t-17 -7q-10 0 -15 6q-7 6 -7 16zM24 2h1h1q8 0 13 5q6 5 5 14q0 8 -5 13t-13 6h-1h-1v-38zM13.5 47q-0.5 0 -1 0.5t-0.5 1.5t0.5 3t2.5 3q3 3 7 3q3 0 7 -3l2 -2q2 -2 3 -2t1.5 1t0.5 3t0.5 2.5t1 0.5t1 -1t0.5 -2 t-0.5 -2.5t-2.5 -3.5q-3 -3 -7 -3q-3 0 -7 3l-3 2q-1 1 -1.5 1h-1t-0.5 -1l-2 -2v-1v-1h-0.5z"
         id="glyph356" />
      <glyph
         glyph-name="odieresis"
         unicode="ö"
         horiz-adv-x="50"
         d="M3 21q0 5 2 8.5t5 6.5q6 6 16 6t16 -6t6 -15t-6 -15t-17 -7q-10 0 -15 6q-7 6 -7 16zM24 2h1h1q8 0 13 5q6 5 5 14q0 8 -5 13t-13 6h-1h-1v-38zM40 52.5q-2 -1.5 -4.5 -1.5t-3.5 0.5t-2 0.5q-2 1 -2 4t4 4q1 0 3 0.5t3 0t2 -1.5q2 -1 2 -3t-2 -3.5zM20.5 52.5 q-1.5 -1.5 -4 -1.5t-4 0.5t-2.5 0.5q-2 1 -2 4t4 4q1 0 3 0.5t3.5 0t1.5 -1.5q2 -1 2 -3t-1.5 -3.5z"
         id="glyph358" />
      <glyph
         glyph-name="divide"
         unicode="÷"
         horiz-adv-x="40"
         d="M19 28q-2 0 -3.5 1t-2.5 2q-2 2 -2 6q0 3 2 5q3 2 7 3q4 0 6 -3q2 -2 3 -6q0 -3 -3 -5q-3 -3 -7 -3zM12 21l-6 -1q-1 0 -1.5 0.5t-0.5 1.5q0 2 2 2h2q1 0 4 -1h15l5 1h1q1 0 1.5 -0.5t0.5 -1.5t-0.5 -1.5t-1.5 -0.5l-6 1h-15zM11 5q-1 2 -0.5 3.5t1 2.5l1.5 3q3 2 7 2 t6 -3q2 -2 3 -6q0 -3 -3 -5t-6 -2q-7 0 -9 5z"
         id="glyph360" />
      <glyph
         glyph-name="oslash"
         unicode="ø"
         horiz-adv-x="50"
         d="M17 40.5q4 1.5 9 1.5t9 -1q1 2 2 3l2 3q1 3 2 3h1.5t0.5 -1t-1 -2.5t-2 -3.5l-2 -4q7 -4 9 -13q1 -3 1 -6.5t-2 -7t-4 -6.5q-6 -6 -17 -7q-5 0 -9 2l-4 -7l-2 -3q-2 0 -2 1.5t1 2.5l1 2l3 5v1q-7 4 -9 12q-1 3 -1 7t2 7.5t5 6.5t7 4.5zM24 2h1h1q8 0 13 5q6 5 5 14 q0 8 -5 13t-13 6h-1h-1v-38z"
         id="glyph362" />
      <glyph
         glyph-name="ugrave"
         unicode="ù"
         horiz-adv-x="58"
         d="M20 -1q-14 0 -13 14v29h16v-39h1h2q3 1 7 5q1 1 3 2v32h16v-42h-16v6q-7 -7 -16 -7zM21 58h11l5 -11h-6z"
         id="glyph364" />
      <glyph
         glyph-name="uacute"
         unicode="ú"
         horiz-adv-x="58"
         d="M20 -1q-14 0 -13 14v29h16v-39h1h2q3 1 7 5q1 1 3 2v32h16v-42h-16v6q-7 -7 -16 -7zM31 62h11l-9 -11h-7z"
         id="glyph366" />
      <glyph
         glyph-name="ucircumflex"
         unicode="û"
         horiz-adv-x="58"
         d="M20 -1q-14 0 -13 14v29h16v-39h1h2q3 1 7 5q1 1 3 2v32h16v-42h-16v6q-7 -7 -16 -7zM20 53l-1 -2q-1 -1 -2 -1t-1 0.5v1.5t1 2l1.5 1.5l2.5 2.5l4 4h10l10 -11h-12l-7 8l-5 -5z"
         id="glyph368" />
      <glyph
         glyph-name="udieresis"
         unicode="ü"
         horiz-adv-x="58"
         d="M20 -1q-14 0 -13 14v29h16v-39h1h2q3 1 7 5q1 1 3 2v32h16v-42h-16v6q-7 -7 -16 -7zM44 52.5q-2 -1.5 -4 -1.5t-3.5 0.5t-2.5 0.5q-2 1 -2 4t4 4q1 0 3 0.5t3 0t2 -1.5q2 -1 2 -3t-2 -3.5zM24.5 52.5q-1.5 -1.5 -4 -1.5t-4 0.5l-1.5 0.5q-2 1 -2 4t3 4q1 0 3 0.5t3.5 0 t2.5 -1.5q2 -1 1.5 -3t-2 -3.5z"
         id="glyph370" />
      <glyph
         glyph-name="ydieresis"
         unicode="ÿ"
         horiz-adv-x="41"
         d="M14 -9q2 1 3 2q1 2 4 5v2l-21 42h18l11 -24l6 15q2 4 2.5 6t1 2.5t1.5 0.5t1.5 -0.5l0.5 -0.5v-1q0 -1 -0.5 -1.5t-1.5 -2.5l-16 -37q-3 -7 -5 -10q-2 -2 -4.5 -2t-2.5 1.5t2 2.5zM37 52.5q-2 -1.5 -4 -1.5t-3.5 0.5t-2.5 0.5q-2 1 -2 4t4 4q1 0 3 0.5t3.5 0t1.5 -1.5 q2 -1 2 -3t-2 -3.5zM18 52.5q-2 -1.5 -4.5 -1.5t-3.5 0.5t-2 0.5q-2 1 -2 4t4 4q1 0 2.5 0.5t3 0t2.5 -1.5q2 -1 2 -3t-2 -3.5z"
         id="glyph372" />
      <glyph
         glyph-name="Amacron"
         unicode="Ā"
         horiz-adv-x="52"
         d="M17 7h-10l-1 -3q-1 -1 -1 -2q-1 -2 -3 -2q-1 0 -1 0.5v0.5v2q1 2 3 4q-3 0 -3.5 2t1.5 2q1 0 3 -1l19 48l27 -58h-20l-3 7h-11zM8 10h7h11l-9 21zM20 67h-6q-1 0 -1.5 0.5t-0.5 1t0.5 1t1.5 0.5h5h12h7q2 0 2 -1t-1 -1.5t-2 -0.5h-5h-12z"
         id="glyph374" />
      <glyph
         glyph-name="amacron"
         unicode="ā"
         horiz-adv-x="55"
         d="M33 3q-5 -3 -11 -4q-8 0 -13 4t-5 12q0 7 5 11t13 4q6 0 11 -2v11q-4 1 -6.5 1t-4.5 -0.5t-4 -0.5q-4 -1 -5 -3q-1 -1 -2 -1t-1.5 0.5t-0.5 1t0.5 1l0.5 0.5q1 1 4 2q6 2 11 2q17 0 23 -8q2 -4 2 -10v-24h-17v3zM33 25q-5 2 -10 2h-1v-25v0v0q5 0 11 4v19zM22 49h-6 q-1 0 -1.5 0.5t-0.5 1t0.5 1t1.5 0.5h6h12h6q2 0 2 -1t-0.5 -1.5t-1.5 -0.5h-6h-12z"
         id="glyph376" />
      <glyph
         glyph-name="OE"
         unicode="Œ"
         horiz-adv-x="91"
         d="M52 6q-8 -7 -19 -7q-6 0 -11 2t-9 6q-8 8 -9 21q0 12 8.5 20t20 8t19.5 -6v5h30h4q3 0 3 -1t-0.5 -1.5t-1.5 -0.5h-2h-5h-8v-11h7h5q1 0 1.5 -0.5t0.5 -1.5q0 -2 -3 -1h-1h-2h-8v-35h8h4h3t2 -1t-1 -1.5t-3 -0.5h-33v6zM33 53h-4v-51h4q6 0 10.5 2t8.5 6v35q-7 8 -19 8z "
         id="glyph378" />
      <glyph
         glyph-name="oe"
         unicode="œ"
         horiz-adv-x="83"
         d="M42 6q-6 -7 -17 -7q-10 0 -15 6q-6 6 -7 16q0 9 6.5 15t16.5 6t16 -6q7 7 17 6q9 0 15 -5q6 -6 6 -15v-3h-26v-16q3 -1 6 -1q7 0 12 5q1 1 2 1q1 1 2 1t1 -1t-1 -2q-6 -6 -16.5 -6.5t-17.5 6.5zM65 39q-3 1 -6 1t-5 -1v-17h11v17zM40 34q-5 6 -14 6h-1h-1v-38h1h1 q9 0 14 6q-4 5 -4 12.5t4 13.5z"
         id="glyph380" />
      <glyph
         glyph-name="circumflex"
         unicode="ˆ"
         horiz-adv-x="36"
         d="M8 49l-1 -2q-1 -1 -2 -0.5l-1 0.5v1q0 1 1 2l1.5 1.5l2.5 2.5l4 4h10l10 -11h-12l-7 8l-5 -5z"
         id="glyph382" />
      <glyph
         glyph-name="breve"
         unicode="˘"
         horiz-adv-x="27"
         d="M22.5 60q1.5 0 1.5 -2t-0.5 -4t-2.5 -3q-3 -3 -7 -3q-5 0 -8 3t-2 7v1.5t1 0.5q2 0 2 -3t2 -4.5t4 -1.5t3.5 0.5t2.5 1.5q2 2 2 4.5t1.5 2.5z"
         id="glyph384" />
      <glyph
         glyph-name="dotaccent"
         unicode="˙"
         horiz-adv-x="20"
         d="M4 50.5q-2 1.5 -2 4.5q0 2 2 4q3 2 6 2t4.5 -0.5t2.5 -1.5q2 -2 2 -4q0 -3 -2 -5q-3 -2 -7 -1.5t-6 2z"
         id="glyph386" />
      <glyph
         glyph-name="ring"
         unicode="˚"
         horiz-adv-x="19"
         d="M10 46q-3 0 -5 2t-1 4q0 4 3 6h2.5t2.5 -0.5t2 -1.5q2 -2 2 -4q0 -3 -2 -4q-1 -2 -4 -2zM8.5 49h1.5t2 1t1 2t-1 2t-2.5 1t-2 -1t-0.5 -2v-1.5t0.5 -1t1 -0.5z"
         id="glyph388" />
      <glyph
         glyph-name="ogonek"
         unicode="˛"
         horiz-adv-x="21"
         d="M4.5 -10q-0.5 1 -0.5 3t0.5 3.5t1.5 2.5q2 2 5 3l2 -1q-3 -2 -5 -5q-1 -1 -1 -2.5v-2t1 -1.5t3 -1q3 0 4 1t1 1.5t1 0.5t1 -0.5v-1t-0.5 -1.5t-1.5 -2q-2 -2 -4.5 -1.5t-4 1t-2 1.5z"
         id="glyph390" />
      <glyph
         glyph-name="tilde"
         unicode="˜"
         horiz-adv-x="34"
         d="M4.5 47q-0.5 0 -0.5 0.5v1.5t0.5 3t1.5 3q3 3 7 3q3 0 8 -3l2 -2q2 -2 3 -2t1.5 1t0.5 3t0.5 2.5t1 0.5t1 -1t0.5 -2t-0.5 -2.5t-2.5 -3.5q-3 -3 -7 -3q-3 0 -7 3l-3 2q-1 1 -1.5 1h-1t-1.5 -1t-1 -2v-1q0 -1 -0.5 -1h-1z"
         id="glyph392" />
      <glyph
         glyph-name="hungarumlaut"
         unicode="˝"
         horiz-adv-x="37"
         d="M27 59h9l-7 -11h-7zM12 59h9l-7 -11h-6z"
         id="glyph394" />
      <glyph
         glyph-name="uni1E02"
         unicode="Ḃ"
         horiz-adv-x="58"
         d="M7 55h17h7q6 0 8.5 -1t3.5 -3q3 -3 3 -7t-3 -7l-2 -2q6 -1 11 -5q4 -5 4 -11q0 -7 -4 -12q-6 -7 -18 -7h-6h-21v55zM33 36h2v0q3 0 6 2q2 2 2 6t-4 7q-2 1 -3.5 1h-2.5h-6v-49h4q7 0 11 2q5 2 8 5q3 4 3 8t-1.5 6.5t-3.5 4.5q-5 4 -12 4h-3q-1 0 -2 0.5l-1 0.5q1 2 3 2z M21 61q-2 2 -2 5t2 4q3 2 7 2t6 -2t3 -5q0 -3 -3 -4q-3 -2 -7 -2t-6 2z"
         id="glyph396" />
      <glyph
         glyph-name="uni1E03"
         unicode="ḃ"
         horiz-adv-x="59"
         d="M33 -1q-5 0 -10 3v-2h-16v55h16v-15q5 3 10.5 2.5t9.5 -2t7 -4.5q6 -6 6 -15t-6 -15q-7 -7 -17 -7zM33 40q-6 0 -10 -4v-31q5 -3 11 -3h1h1v37q-1 1 -3 1zM31 50.5q-2 1.5 -2 4.5q0 2 2 4q3 2 6 2t4.5 -0.5t2.5 -1.5q2 -2 3 -4q0 -3 -3 -5t-7 -1.5t-6 2z"
         id="glyph398" />
      <glyph
         glyph-name="uni1E0A"
         unicode="Ḋ"
         horiz-adv-x="61"
         d="M7 55h16q11 0 17 -1q6 -2 9 -5t5 -6q4 -6 4 -15q0 -13 -9 -20q-6 -6 -15 -7q-5 -1 -14 -1h-13v55zM27 3h1h1q11 0 18 7q8 7 8 18q0 7 -4 13q-5 8 -16 11q-4 1 -8 0v-49zM22.5 61q-2.5 2 -2.5 5t3 4q3 2 7 2t6 -2t3 -5q0 -3 -3 -4q-3 -2 -7 -2t-6.5 2z"
         id="glyph400" />
      <glyph
         glyph-name="uni1E0B"
         unicode="ḋ"
         horiz-adv-x="58"
         d="M36 2q-5 -3 -10 -3t-9.5 1.5t-7.5 4.5q-6 6 -6 16q0 9 6 15t17 6q5 0 10 -2v15h16v-55h-16v2zM25 40q-1 0 -2 -1v-37h3q5 0 10 4v31q-5 3 -11 3zM13.5 50.5q-2.5 1.5 -2.5 4.5q0 2 3 4t5.5 2t4.5 -0.5t3 -1.5q2 -2 2 -4q0 -3 -3 -5t-6.5 -1.5t-6 2z"
         id="glyph402" />
      <glyph
         glyph-name="uni1E1E"
         unicode="Ḟ"
         horiz-adv-x="45"
         d="M39 35l-1 1h-2h-9v-36h-20v55h31h4v0q3 0 3 -1t-0.5 -1.5l-0.5 -0.5h-2h-5h-10v-14h8l5 1q2 0 1.5 -2t-2.5 -2zM21 61q-2 2 -2 5t2 4q3 2 7 2t6 -2t3 -5q0 -3 -3 -4q-3 -2 -7 -2t-6 2z"
         id="glyph404" />
      <glyph
         glyph-name="uni1E1F"
         unicode="ḟ"
         horiz-adv-x="32"
         d="M32 39h-4h-4v-39h-17v39h-1h-4q-2 0 -2 1.5t2 1.5h5q1 7 6 11q5 3 13 3t11 -3q1 -1 1 -2q0 -2 -2 -1h-2l-1 1q-2 2 -5 2h-1.5h-1.5h-1v-11h3h5q2 0 2 -1.5t-2 -1.5zM9.5 62q-2.5 2 -2.5 5q0 2 3 4t5.5 2t4 -0.5t3.5 -1.5q2 -2 2 -5t-3 -4q-3 -2 -6.5 -2t-6 2z"
         id="glyph406" />
      <glyph
         glyph-name="uni1E40"
         unicode="Ṁ"
         horiz-adv-x="75"
         d="M0.5 0q-0.5 1 0.5 1q0 1 0.5 2.5t0.5 2t1 0.5l1 4l16 48l17 -34l17 34l20 -58h-21l-9 30l-15 -31l-16 28l-6 -17q-1 -3 -1.5 -5t-0.5 -3q-1 -2 -3 -3q-1 0 -1.5 1zM30 61q-2 2 -2 5t2 4q3 2 7 2t7 -2q2 -2 2 -5t-3 -4q-3 -2 -7 -2t-6 2z"
         id="glyph408" />
      <glyph
         glyph-name="uni1E41"
         unicode="ṁ"
         horiz-adv-x="86"
         d="M52 31v-2v-29h-17v38h-1h-1q-3 0 -7 -4q-1 -1 -2 -3v-31h-17v42h17v-7q7 7 14 7q11 0 13 -7q3 4 7.5 5.5t8.5 1.5q7 0 10.5 -3t3.5 -10v-29h-17v38h-1.5q-1.5 0 -3 -0.5t-2.5 -1.5q-3 -2 -5 -5zM36.5 50.5q-2.5 1.5 -2.5 4.5q0 2 3 4t6 2t4.5 -0.5t2.5 -1.5q2 -2 2 -4 q0 -3 -2 -5q-3 -2 -7 -1.5t-6.5 2z"
         id="glyph410" />
      <glyph
         glyph-name="uni1E56"
         unicode="Ṗ"
         horiz-adv-x="59"
         d="M33 16h3q8 0 13 5t5 13q0 12 -12 17q-5 2 -12 1h-3v-52h-20v55h15h14.5t5 -1t6 -2.5t5.5 -4.5q4 -5 4 -12q0 -9 -5 -15t-14 -7h-4q-4 0 -4 2q0 1 1 1h2zM21.5 61q-2.5 2 -2.5 5t2 4q3 2 7 2t7 -2q2 -2 2 -5t-3 -4q-3 -2 -6.5 -2t-6 2z"
         id="glyph412" />
      <glyph
         glyph-name="uni1E57"
         unicode="ṗ"
         horiz-adv-x="59"
         d="M33 -1q-5 0 -10 3v-14h-16v54h16v-2q5 3 10.5 2.5t9.5 -2t7 -4.5q6 -6 6 -15t-6 -15q-7 -7 -17 -7zM33 40q-6 0 -10 -4v-31q5 -3 11 -3h1h1v37q-1 1 -3 1zM27.5 50.5q-2.5 1.5 -2.5 4.5q0 2 3 4t5.5 2t4.5 -0.5t3 -1.5q2 -2 2 -4q0 -3 -3 -5t-6.5 -1.5t-6 2z"
         id="glyph414" />
      <glyph
         glyph-name="uni1E60"
         unicode="Ṡ"
         horiz-adv-x="46"
         d="M7 3q-1 1 -2 1.5t-1 1.5q0 2 1 2t2.5 -1l3 -2t3.5 -2q4 -1 7 -1t5 0.5t3 1.5q3 2 3 4t-3 4l-5 5l-7 5q-10 8 -11 15q-1 2 -1 4.5t1 5.5t4 5q5 4 14 4q5 0 8.5 -1.5t4.5 -2.5t1 -2q0 -2 -1 -1q-1 0 -2 0.5t-2 1.5t-3 1q-3 1 -6 1q-6 0 -6 -4q0 -2 1 -3q2 -2 7.5 -6.5 t8.5 -8t5 -5.5q3 -4 3 -8.5t-1.5 -8t-4.5 -5.5q-6 -5 -15 -5t-15 4zM16.5 61q-2.5 2 -2.5 5t3 4q3 2 7 2t6 -2t3 -5q0 -3 -3 -4q-3 -2 -7 -2t-6.5 2z"
         id="glyph416" />
      <glyph
         glyph-name="uni1E61"
         unicode="ṡ"
         horiz-adv-x="39"
         d="M4 5q0 1 0.5 1.5t1 0.5t0.5 -1h1q4 -4 12 -4q5 0 6 2v1.5v1t-0.5 1t-2.5 1.5l-3 3q-9 7 -12 11t-3 8q0 5 5 8q5 4 12 3q5 0 8 -1t4.5 -2t1.5 -2q0 -2 -1 -1h-1.5t-2 1.5t-4 2t-5 0.5t-3.5 -1t-1 -1.5t0.5 -1l1.5 -1.5q2 -2 5.5 -5t6 -5t4.5 -4q3 -4 2.5 -7.5t-1.5 -6 t-4 -4.5q-5 -4 -14 -4q-7 0 -11 3q-3 1 -3 3zM15 50.5q-2 1.5 -2 4.5q0 2 2 4q3 2 6 2t4.5 -0.5t2.5 -1.5q2 -2 2 -4q0 -3 -2 -5q-3 -2 -7 -1.5t-6 2z"
         id="glyph418" />
      <glyph
         glyph-name="uni1E6A"
         unicode="Ṫ"
         horiz-adv-x="48"
         d="M47 54q0 -2 -4 -2h-9v-52h-20v52h-6h-4h-2q-2 0 -2 1q0 2 4 2h35q3 0 4 1h2q2 0 2 -2zM17.5 61q-2.5 2 -2.5 5t3 4q3 2 6 2q4 0 7 -2q2 -2 2 -5t-2 -4q-3 -2 -7 -2t-6.5 2z"
         id="glyph420" />
      <glyph
         glyph-name="uni1E6B"
         unicode="ṫ"
         horiz-adv-x="37"
         d="M23 -1q-15 0 -15 14l-1 26h-4q-2 0 -2 1.5t2 1.5h4v0v6l17 7v-13h5h4q2 0 2 -2q0 -1 -0.5 -1h-1.5h-4h-5v-37q5 0 8 3q1 1 1.5 2.5t1 2t1.5 0.5t1.5 -0.5t0.5 -1t-0.5 -1.5t-1.5 -2q-2 -2 -4 -3q-4 -3 -9 -3zM10 60.5q-2 1.5 -2 4.5q0 2 2 4q3 2 6 2t4.5 -0.5t2.5 -1.5 q2 -2 2 -4q0 -3 -2 -5q-3 -2 -7 -1.5t-6 2z"
         id="glyph422" />
      <glyph
         glyph-name="Wgrave"
         unicode="Ẁ"
         horiz-adv-x="76"
         d="M75 54v-1q-1 -3 -2 -5l-20 -50l-15 33l-15 -33l-23 57h21l11 -29l15 32l14 -32l10 23q1 1 0 3l1 2q0 2 1.5 2t1.5 -2zM24 66h11l5 -11h-6z"
         id="glyph424" />
      <glyph
         glyph-name="wgrave"
         unicode="ẁ"
         horiz-adv-x="63"
         d="M0 42h18l10 -21l12 23l12 -24l6 13q2 5 2 6.5t0.5 2t1.5 0.5t1.5 -0.5l0.5 -0.5v-0.5q0 -0.5 -0.5 -1.5t-0.5 -2l-17 -39l-13 25l-13 -25zM24 58h11l5 -11h-6z"
         id="glyph426" />
      <glyph
         glyph-name="Wacute"
         unicode="Ẃ"
         horiz-adv-x="76"
         d="M75 54v-1q-1 -3 -2 -5l-20 -50l-15 33l-15 -33l-23 57h21l11 -29l15 32l14 -32l10 23q1 1 0 3l1 2q0 2 1.5 2t1.5 -2zM43 71h11l-9 -11h-6z"
         id="glyph428" />
      <glyph
         glyph-name="wacute"
         unicode="ẃ"
         horiz-adv-x="63"
         d="M0 42h18l10 -21l12 23l12 -24l6 13q2 5 2 6.5t0.5 2t1.5 0.5t1.5 -0.5l0.5 -0.5v-0.5q0 -0.5 -0.5 -1.5t-0.5 -2l-17 -39l-13 25l-13 -25zM35 58h11l-10 -11h-6z"
         id="glyph430" />
      <glyph
         glyph-name="Wdieresis"
         unicode="Ẅ"
         horiz-adv-x="76"
         d="M75 54v-1q-1 -3 -2 -5l-20 -50l-15 33l-15 -33l-23 57h21l11 -29l15 32l14 -32l10 23q1 1 0 3l1 2q0 2 1.5 2t1.5 -2zM54 61q-2 -1 -4.5 -1t-3.5 0.5t-2 0.5q-2 1 -2 4t4 4q1 0 2.5 0.5t3 0t2.5 -1.5q2 -1 2 -3.5t-2 -3.5zM34 61q-2 -1 -4.5 -1t-3.5 0.5t-2 0.5 q-2 1 -2 4t4 4q1 0 3 0.5t3 0t2 -1.5q2 -1 2 -3.5t-2 -3.5z"
         id="glyph432" />
      <glyph
         glyph-name="wdieresis"
         unicode="ẅ"
         horiz-adv-x="63"
         d="M0 42h18l10 -21l12 23l12 -24l6 13q2 5 2 6.5t0.5 2t1.5 0.5t1.5 -0.5l0.5 -0.5v-0.5q0 -0.5 -0.5 -1.5t-0.5 -2l-17 -39l-13 25l-13 -25zM48 48.5q-2 -1.5 -4.5 -1.5t-3.5 0.5t-2 0.5q-2 1 -2 4t4 4q1 0 3 0.5t3 0t2 -1.5q2 -1 2 -3t-2 -3.5zM28 48.5q-2 -1.5 -4 -1.5 t-3.5 0.5t-2.5 0.5q-2 1 -2 4t4 4q1 0 3 0.5t3.5 0t1.5 -1.5q2 -1 2 -3t-2 -3.5z"
         id="glyph434" />
      <glyph
         glyph-name="Ygrave"
         unicode="Ỳ"
         horiz-adv-x="51"
         d="M19 -0q-2 0 -2 1t1 3q2 2 4 5l2 4l-23 42h23l11 -23l10 17q1 2 1.5 4.5t2.5 2.5t1 -2v-2l-27 -48q0 -1 -1 -1v-1q-1 -2 -3 -2zM17 66h11l4 -11h-6z"
         id="glyph436" />
      <glyph
         glyph-name="ygrave"
         unicode="ỳ"
         horiz-adv-x="41"
         d="M14 -9q2 1 3 2q1 2 4 5v2l-21 42h18l11 -24l6 15q2 4 2.5 6t1 2.5t1.5 0.5t1.5 -0.5l0.5 -0.5v-1q0 -1 -0.5 -1.5t-1.5 -2.5l-16 -37q-3 -7 -5 -10q-2 -2 -4.5 -2t-2.5 1.5t2 2.5zM13 58h11l5 -11h-6z"
         id="glyph438" />
      <glyph
         glyph-name="endash"
         unicode="–"
         horiz-adv-x="41"
         d="M12 24h-6q-1 0 -1.5 0.5t-0.5 1t0.5 1t1.5 0.5h6h16h6q1 0 2 -0.5t1 -1.5q0 -2 -3 -1h-5h-17z"
         id="glyph440" />
      <glyph
         glyph-name="emdash"
         unicode="—"
         horiz-adv-x="53"
         d="M12 24h-6q-1 0 -1.5 0.5t-0.5 1t0.5 1t1.5 0.5h6h28h6q1 0 1.5 -0.5t0.5 -1.5q0 -2 -2 -1h-6h-28z"
         id="glyph442" />
      <glyph
         glyph-name="quoteleft"
         unicode="‘"
         horiz-adv-x="24"
         d="M7 46q2 1 4.5 1.5t4 -0.5t2.5 -2q2 -2 2 -5t-2 -6q-2 -2 -6 -2t-7 3q-2 3 -3 6q0 5 4 11q2 3 3.5 3.5l1.5 0.5q2 0 2 -2v-1h-2q-2 -1 -4 -4v-3z"
         id="glyph444" />
      <glyph
         glyph-name="quoteright"
         unicode="’"
         horiz-adv-x="24"
         d="M12 32q-2 0 -2 2q0 1 1 0l1 1q2 1 4 4q1 1 1 3q-2 -1 -4.5 -1.5t-4 0.5t-3.5 2q-2 2 -2 5t3 6q2 2 6 2t7 -3q2 -3 2 -6q0 -6 -4 -12q-2 -3 -3 -3h-2z"
         id="glyph446" />
      <glyph
         glyph-name="quotesinglbase"
         unicode="‚"
         horiz-adv-x="24"
         d="M17 1q-2 -1 -4.5 -1.5t-4 0.5t-3.5 2q-2 2 -2 5t3 6q2 2 6 2t7 -3q2 -3 2 -7q0 -6 -4 -11q-2 -3 -3 -3h-2q-2 -1 -2 1q0 1 1 1l1 1q2 1 4 3q1 2 1 4z"
         id="glyph448" />
      <glyph
         glyph-name="quotedblleft"
         unicode="“"
         horiz-adv-x="45"
         d="M27 46q2 1 4.5 1.5t4 -0.5t3.5 -2q2 -2 2 -5t-3 -6q-2 -2 -6 -2t-7 3t-2 6q0 5 4 11q2 3 3 3.5t2 0.5q2 0 2 -2q0 -1 -1 -1h-1q-2 -1 -4 -4q-1 -1 -1 -3zM7 46q2 1 4.5 1.5t4 -0.5t2.5 -2q2 -2 2 -5t-2 -6q-2 -2 -6 -2t-7 3q-2 3 -3 6q0 5 4 11q2 3 3.5 3.5l1.5 0.5 q2 0 2 -2v-1h-2q-2 -1 -4 -4v-3z"
         id="glyph450" />
      <glyph
         glyph-name="quotedblright"
         unicode="”"
         horiz-adv-x="45"
         d="M33 32q-2 0 -2 2v0l2 1q2 1 4 4q1 1 1 3q-2 -1 -5 -1.5t-4.5 0.5t-2.5 2q-2 2 -2 5t2 6q2 2 6 2t7 -3t3 -6q0 -6 -4 -12q-2 -3 -3 -3h-2zM12 32q-2 0 -2 2q0 1 1 0l1 1q2 1 4 4q1 1 1 3q-2 -1 -4.5 -1.5t-4 0.5t-3.5 2q-2 2 -2 5t3 6q2 2 6 2t7 -3q2 -3 2 -6q0 -6 -4 -12 q-2 -3 -3 -3h-2z"
         id="glyph452" />
      <glyph
         glyph-name="quotedblbase"
         unicode="„"
         horiz-adv-x="45"
         d="M38 1q-2 -1 -4.5 -1.5t-4 0.5t-2.5 2q-2 2 -3 5q0 3 3 6q2 2 6 2t7 -3t3 -7q0 -6 -5 -11q-2 -3 -3 -3h-2q-2 -1 -2 1q0 1 1 1l1 1q2 1 4 3q1 2 1 4zM17 1q-2 -1 -4.5 -1.5t-4 0.5t-3.5 2q-2 2 -2 5t3 6q2 2 6 2t7 -3q2 -3 2 -7q0 -6 -4 -11q-2 -3 -3 -3h-2q-2 -1 -2 1 q0 1 1 1l1 1q2 1 4 3q1 2 1 4z"
         id="glyph454" />
      <glyph
         glyph-name="dagger"
         unicode="†"
         horiz-adv-x="26"
         d="M15 5v-4q0 -1 -0.5 -1.5t-1.5 -0.5t-1 0.5v1.5v2v6v30h-2l-5 -1q-1 0 -1.5 0.5t-0.5 1.5t0.5 1.5t1.5 0.5l6 -1h1v6v4v2v1q0 2 1 2t1.5 -0.5t0.5 -1.5v-5v-8v0l6 1q1 0 2 -0.5t1 -1.5q0 -2 -3 -2l-5 1h-1v-34z"
         id="glyph456" />
      <glyph
         glyph-name="daggerdbl"
         unicode="‡"
         horiz-adv-x="26"
         d="M15 5v-4q0 -1 -0.5 -1.5t-1.5 -0.5t-1 0.5v1.5v2v6v12h-2h-5q-1 0 -1.5 0.5t-0.5 1t0.5 1t1.5 0.5h6h1v15h-2l-5 -1q-1 0 -1.5 0.5t-0.5 1.5t0.5 1.5t1.5 0.5l6 -1h1v6v4v2v1q0 2 1 2t1.5 -0.5t0.5 -1.5v-5v-8v0l6 1q1 0 2 -0.5t1 -1.5q0 -2 -3 -2l-5 1h-1v-15v0h6 q1 0 2 -0.5l1 -0.5q0 -2 -3 -2h-5h-1v-16z"
         id="glyph458" />
      <glyph
         glyph-name="bullet"
         unicode="•"
         horiz-adv-x="26"
         d="M13 21q-2 0 -4 0.5t-3 1.5q-2 2 -2 6q0 3 2 6q3 2 7 2t7 -2q2 -2 2 -6q0 -3 -3 -6q-2 -2 -6 -2z"
         id="glyph460" />
      <glyph
         glyph-name="ellipsis"
         unicode="…"
         horiz-adv-x="80"
         d="M59 4q-1 2 -1 3.5t0.5 3t2.5 2.5q3 2 6 3q4 0 7 -3q2 -2 2 -6q0 -3 -2 -5q-3 -2 -7 -3q-6 0 -8 5zM31 4q-1 2 -0.5 3.5l1 3t2.5 2.5q3 2 6 3q4 0 7 -3q2 -2 2 -6q0 -3 -3 -5t-6 -3q-7 0 -9 5zM4 4q-1 2 -0.5 3.5l1 3t1.5 2.5q3 2 7 3q4 0 7 -3q2 -2 2 -6q0 -3 -3 -5 t-6 -3q-7 0 -9 5z"
         id="glyph462" />
      <glyph
         glyph-name="perthousand"
         unicode="‰"
         horiz-adv-x="89"
         d="M13 -1q-2 0 -1 2q0 1 0.5 2t1.5 1q1 1 4 5l25 41q1 2 2 3.5t1.5 2t1 0.5t1.5 -0.5t1 -1t-0.5 -1l-0.5 -1.5l-1 -1q0 -1 -1 -1l-29 -47q-2 -3 -3 -3.5t-2 -0.5zM18 31q-3 0 -5.5 1t-3.5 2q-4 4 -4 9t4 9q4 3 9 3t9 -3t4 -9q0 -5 -4 -9q-4 -3 -9 -3zM18 33q4 0 7 3t3 7 t-3 7t-7 2v0h-1v-19h1zM60 12q0 3 1 5t3 4q4 3 9 3t9 -3t4 -9q0 -5 -4 -9q-4 -3 -9 -3q-6 0 -9.5 3.5t-3.5 8.5zM32 12q0 3 1 5t3 4q4 3 9 3t9 -3t4 -9q0 -5 -4 -9q-4 -3 -9 -3q-6 0 -9 3q-4 4 -4 9zM73 3q4 0 7 2q3 3 3 7t-3 7t-7 3h-0.5h-0.5v-19h1zM45 3q4 0 7 2q3 3 3 7 t-3 7t-7 3v0v-1v-18v0z"
         id="glyph464" />
      <glyph
         glyph-name="guilsinglleft"
         unicode="‹"
         horiz-adv-x="23"
         d="M4 27q5 4 8 7.5t3.5 4l0.5 0.5q1 0 1.5 0.5t1 0t0.5 -1.5t-0.5 -1.5l-1.5 -1.5t-3 -2l-3 -3l-2 -1q-1 -1 -1 -2l10 -8v-17l-14 13v12z"
         id="glyph466" />
      <glyph
         glyph-name="guilsinglright"
         unicode="›"
         horiz-adv-x="23"
         d="M4.5 2.5q-0.5 0.5 -0.5 1t0.5 1l1.5 1.5l3 3l3 2l2 2q1 1 1 2l-10 7v18l14 -13v-13q-4 -3 -5 -4l-5 -5l-2.5 -2.5t-1 -0.5t-1 0.5z"
         id="glyph468" />
      <glyph
         glyph-name="fraction"
         unicode="⁄"
         horiz-adv-x="42"
         d="M2.5 -0.5q-0.5 0.5 -0.5 1v1t1 0.5q0 1 1 2q2 2 4 5l26 41q1 1 1.5 2l1 2t1 1.5l0.5 0.5q2 0 2 -1t-1 -3l-5 -7l-27 -42q-2 -3 -2.5 -3.5t-1 -0.5t-1 0.5z"
         id="glyph470" />
      <glyph
         glyph-name="Euro"
         unicode="€"
         horiz-adv-x="56"
         d="M4 24h-2h-2t-1.5 0.5t-0.5 1.5t0.5 1.5t1.5 0.5h1h1h1v0q0 3 1 7h-3.5t-1 0.5l-0.5 0.5q0 2 2 2h1h2h1q3 8 11 13t18 5q7 0 13 -3t5 -4q0 -1 -0.5 -1.5l-0.5 -0.5q-1 0 -2 1t-3 2l-4 2q-4 1 -7.5 1h-5.5v-15h8h3h3q2 0 2 -2q0 -1 -0.5 -1h-1.5h-3h-11v-8h7q2 1 3 1h3 t1.5 -0.5t0.5 -1.5t-0.5 -1.5t-1.5 -0.5l-6 1h-7v-22q3 0 5 -0.5t4 0t4 0.5q5 1 7 4l1.5 1.5t1.5 0.5q2 0 1 -2q0 -1 -2 -3q-4 -3 -7 -3q-5 -2 -11 -2t-11 2t-9 5q-8 7 -9 18z"
         id="glyph472" />
      <glyph
         glyph-name="trademark"
         unicode="™"
         horiz-adv-x="64"
         d="M29 35q-1 0 -1.5 0.5t-0.5 1q1 0.5 1 1.5v1v2q0 1 1 2l5 20l10 -16l9 16l7 -27h-9l-3 11l-7 -12l-8 12l-2 -9q0 -3 -2 -3zM23 61l3 1q1 0 1.5 -0.5t0.5 -1.5t-0.5 -1.5t-1.5 -0.5h-5v-22h-10v22h-2h-3q-1 0 -1.5 0.5t-0.5 1t0.5 1t1.5 0.5h17z"
         id="glyph474" />
      <glyph
         glyph-name="partialdiff"
         unicode="∂"
         horiz-adv-x="46"
         d="M11 55q-1 0 -2 2q0 2 4 3q4 2 8 2q8 0 14 -6q4 -5 6 -14q1 -5 1 -11.5t-1.5 -12.5t-4.5 -10q-5 -8 -14 -9q-8 0 -13 6q-5 5 -5 13q0 9 5 15t14 5q8 0 13 -6q2 -2 2 -4v5.5t-0.5 8t-2 7.5t-3.5 5t-4 3q-3 2 -8 2t-7 -2q-1 -1 -1 -1.5t-1 -0.5zM8.5 26q-1.5 -3 -1.5 -7 t1.5 -7t3.5 -5q4 -4 10 -5q10 0 14 12q1 4 2 10q-4 8 -11 10q-2 1 -5 1t-5.5 -1t-4.5 -3t-3.5 -5z"
         id="glyph476" />
      <glyph
         glyph-name="product"
         unicode="∏"
         horiz-adv-x="55"
         d="M15 6v-4q0 -1 -0.5 -1.5t-1.5 -0.5t-1.5 0.5t-0.5 1v1.5v1q0 1 1 6v48h-1h-5q-3 0 -2 2q0 1 0.5 1.5l0.5 0.5h2h1.5t2.5 -1h8h17q10 0 10 1h3t1.5 -0.5t0.5 -1.5q0 -2 -3 -2h-5v0v-52v-4q0 -1 -0.5 -1.5t-1.5 -0.5t-1.5 0.5t-0.5 1v1v1.5v6v48h-24v-52z"
         id="glyph478" />
      <glyph
         glyph-name="summation"
         unicode="∑"
         horiz-adv-x="46"
         d="M4.5 0.5q-0.5 0.5 -0.5 1v1v1.5l4 4l21 24l-22 22q-3 3 -3 4.5t0.5 2t1.5 0.5h21q10 0 11 1h2.5t1 -0.5t0.5 -1.5q0 -2 -3 -2h-4h-27l23 -22q2 -2 2 -4q0 -1 -2 -3l-23 -26h19h11t2 0.5t1.5 0t0.5 -1.5q0 -2 -3 -2h-4h-29q-1 0 -1.5 0.5z"
         id="glyph480" />
      <glyph
         glyph-name="minus"
         unicode="−"
         horiz-adv-x="40"
         d="M12 21l-6 -1q-1 0 -1.5 0.5t-0.5 1.5q0 2 2 2h2q1 0 4 -1h15l5 1h1q1 0 1.5 -0.5t0.5 -1.5t-0.5 -1.5t-1.5 -0.5l-6 1h-15z"
         id="glyph482" />
      <glyph
         glyph-name="radical"
         unicode="√"
         horiz-adv-x="47"
         d="M41 62q2 0 2 -1v-2l-1 -2q-1 -2 -1 -4l-15 -50q-1 -3 -3 -4q-2 0 -4 4l-7 20h-6q-2 0 -2 0.5v0.5q0 2 2 2h6q2 0 3 -2l8 -21l15 54q1 2 1.5 3.5t1.5 1.5z"
         id="glyph484" />
      <glyph
         glyph-name="infinity"
         unicode="∞"
         horiz-adv-x="57"
         d="M18.5 13.5q-1.5 -0.5 -4 -0.5t-4.5 0.5t-3 2.5q-3 3 -3 7t3 6q3 3 8 3q3 0 5 -1q3 -2 8 -7q5 5 8 6q4 2 6.5 2t4.5 -0.5t3 -1.5q3 -3 3 -7t-3 -7t-8 -3q-3 0 -5 1q-4 2 -9 6l-6 -4.5t-3.5 -2zM30 22q6 -5 10 -6h2.5t3 0.5q1.5 1.5 2.5 1.5q2 2 2 5t-2 5t-6 2 q-3 0 -4.5 -1.5t-3.5 -2.5zM15 16h2t3 1t6 5l-6 6q-3 2 -5 2t-3.5 -0.5t-2.5 -1.5q-2 -2 -2 -5t2 -5q3 -2 6 -2z"
         id="glyph486" />
      <glyph
         glyph-name="integral"
         unicode="∫"
         horiz-adv-x="31"
         d="M21 59q-4 0 -4 -7v-57q0 -5 -3 -7q-2 -2 -5 -3q-3 0 -4 1q-2 2 -2 3v1q0 1 0.5 1h1h0.5v-1h1q1 -1 3 -2q4 0 5 7v57q0 7 4 10q1 1 3 0.5t3 -1t2 -0.5q2 -1 2 -3l-0.5 -0.5l-0.5 -0.5q-1 0 -2 1q-2 1 -4 1z"
         id="glyph488" />
      <glyph
         glyph-name="approxequal"
         unicode="≈"
         horiz-adv-x="39"
         d="M5 24q-1 0 -1 1q0 2 2 3q3 2 6 2t6 -1l2 -1q4 -2 7 -2q4 0 5 1t1 1.5t0.5 0.5t1 -0.5t0.5 -1t-0.5 -1.5t-1.5 -2q-3 -2 -6 -1q-3 0 -6 1l-2 1q-4 2 -6.5 2t-3.5 -0.5t-1.5 -1.5t-1 -1h-1.5zM6.5 15.5q-0.5 -0.5 -1.5 -0.5t-1 2t2 3q3 2 6 1q3 0 6 -1l2 -1q4 -2 7 -2 q4 0 5 2q1 1 1 1.5t1 0.5t1 -2t-2 -3q-3 -2 -6 -2t-6 2l-2 1q-4 2 -6.5 1.5t-3.5 -0.5t-1.5 -1t-1 -1.5z"
         id="glyph490" />
      <glyph
         glyph-name="notequal"
         unicode="≠"
         horiz-adv-x="39"
         d="M32 13h-3h-12l-2 -3q-2 -5 -3 -6q-1 0 -1.5 0.5t-0.5 1.5t1 2t1 1.5v1.5l1 1q0 1 1 1h-4h-4q-1 0 -1.5 0.5l-0.5 0.5q0 2 2 2h6h3l6 12h-9h-6q-1 0 -1.5 0.5t-0.5 1.5q0 2 2 1h1h1h4h10l2 4q1 2 1 3q0 2 2 1h1v-0.5v-1.5t-1 -2l-2 -4h1h4h3q2 0 2 -1t-0.5 -1.5t-2.5 -0.5 h-5h-3l-6 -12h8h7q2 0 2 -2q0 -1 -1 -1h-2z"
         id="glyph492" />
      <glyph
         glyph-name="lessequal"
         unicode="≤"
         horiz-adv-x="40"
         d="M32 18q0 -1 -2 -2q-1 0 -2 1l-2 1q-1 0 -1 1l-16 10q-1 1 -2 1.5l-1 0.5q0 1 2 3l16 10l1 1h1l0.5 0.5l1.5 1.5t2 1t2 -2q0 -1 -2 -2h-1l-19 -12l17 -11h1l1 -1h1q2 -1 2 -2zM12 10h-6q-1 0 -1.5 0.5l-0.5 0.5q0 2 2 2h2h4h15h5h1q1 0 1.5 -0.5t0.5 -1t-0.5 -1t-1.5 -0.5 h-6h-15z"
         id="glyph494" />
      <glyph
         glyph-name="greaterequal"
         unicode="≥"
         horiz-adv-x="40"
         d="M7 46q0 1 2 2q1 0 2 -1l1 -1l1 -1h1q1 0 1 -1l16 -10q2 -1 2 -2t-0.5 -1.5t-2.5 -1.5l-16 -10q-1 -1 -1.5 -1t-1.5 -1t-2 -1q-2 0 -2 2q0 1 3 2l2 1l17 11l-17 11h-1.5t-0.5 1q-1 1 -1 0q-2 1 -2 2zM12 10h-6q-1 0 -1.5 0.5l-0.5 0.5q0 2 2 2h2h4h15h5h1q1 0 1.5 -0.5 t0.5 -1t-0.5 -1t-1.5 -0.5h-6h-15z"
         id="glyph496" />
      <glyph
         glyph-name="lozenge"
         unicode="◊"
         horiz-adv-x="41"
         d="M4 28q-1 1 -0.5 2l0.5 1v1q0 1 1 3l13 25l1.5 1.5t1 0.5t1 -0.5l1.5 -1.5l13 -26q1 -2 1 -3t-1 -4l-13 -26l-1.5 -1.5l-0.5 -0.5q-1 0 -3 2zM34 31l-14 27l-13 -27l14 -27z"
         id="glyph498" />
      <glyph
         glyph-name="ff"
         unicode="ﬀ"
         horiz-adv-x="65"
         d="M32 39h-4h-4v-39h-17v39h-1h-4q-2 0 -2 1.5t2 1.5h5q1 7 6 11q5 3 13 3t11 -3q1 -1 1 -2q0 -2 -2 -1h-2l-1 1q-2 2 -5 2h-1.5h-1.5h-1v-11h3h5q2 0 2 -1.5t-2 -1.5zM65 39h-4h-5v-39h-17v39v0h-4q-2 0 -2 1.5t2 1.5h5q1 7 6 11q5 3 13 3t10 -3q1 -1 1 -2q0 -2 -2 -1h-1 l-2 1q-2 2 -5 2h-1.5h-1h-1.5v-11h4h5q2 0 2 -1.5t-2 -1.5z"
         id="glyph500" />
      <glyph
         glyph-name="fi"
         unicode="ﬁ"
         horiz-adv-x="62"
         d="M32 39h-4h-4v-39h-17v39h-1h-4q-2 0 -2 1.5t2 1.5h5q1 7 6 11q5 3 13 3t11 -3q1 -1 1 -2q0 -2 -2 -1h-2l-1 1q-2 2 -5 2h-1.5h-1.5h-1v-11h3h5q2 0 2 -1.5t-2 -1.5zM41.5 50.5q-2.5 1.5 -2.5 4.5q0 2 3 4t5.5 2t4 -0.5t2.5 -1.5q2 -2 3 -4q0 -3 -3 -5t-6.5 -1.5t-6 2z M39 42h17v-42h-17v42z"
         id="glyph502" />
      <glyph
         glyph-name="fl"
         unicode="ﬂ"
         horiz-adv-x="62"
         d="M32 39h-4h-4v-39h-17v39h-1h-4q-2 0 -2 1.5t2 1.5h5q1 7 6 11q5 3 13 3t11 -3q1 -1 1 -2q0 -2 -2 -1h-2l-1 1q-2 2 -5 2h-1.5h-1.5h-1v-11h3h5q2 0 2 -1.5t-2 -1.5zM39 55h17v-55h-17v55z"
         id="glyph504" />
      <glyph
         glyph-name="ffi"
         unicode="ﬃ"
         horiz-adv-x="94"
         d="M32 39h-4h-4v-39h-17v39h-1h-4q-2 0 -2 1.5t2 1.5h5q1 7 6 11q5 3 13 3t11 -3q1 -1 1 -2q0 -2 -2 -1h-2l-1 1q-2 2 -5 2h-1.5h-1.5h-1v-11h3h5q2 0 2 -1.5t-2 -1.5zM65 39h-4h-5v-39h-17v39v0h-4q-2 0 -2 1.5t2 1.5h5q1 7 6 11q5 3 13 3t10 -3q1 -1 1 -2q0 -2 -2 -1h-1 l-2 1q-2 2 -5 2h-1.5h-1h-1.5v-11h4h5q2 0 2 -1.5t-2 -1.5zM74 50.5q-2 1.5 -2 4.5q0 2 2 4q3 2 6 2t4.5 -0.5t2.5 -1.5q2 -2 2 -4q0 -3 -2 -5q-3 -2 -7 -1.5t-6 2zM72 42h17v-42h-17v42z"
         id="glyph506" />
      <glyph
         glyph-name="ffl"
         unicode="ﬄ"
         horiz-adv-x="94"
         d="M32 39h-4h-4v-39h-17v39h-1h-4q-2 0 -2 1.5t2 1.5h5q1 7 6 11q5 3 13 3t11 -3q1 -1 1 -2q0 -2 -2 -1h-2l-1 1q-2 2 -5 2h-1.5h-1.5h-1v-11h3h5q2 0 2 -1.5t-2 -1.5zM65 39h-4h-5v-39h-17v39v0h-4q-2 0 -2 1.5t2 1.5h5q1 7 6 11q5 3 13 3t10 -3q1 -1 1 -2q0 -2 -2 -1h-1 l-2 1q-2 2 -5 2h-1.5h-1h-1.5v-11h4h5q2 0 2 -1.5t-2 -1.5zM72 55h17v-55h-17v55z"
         id="glyph508" />
    </font>
</defs>
</svg>
