<?xml version="1.0" encoding="UTF-8" standalone="no"?>
<!-- Created with Inkscape (http://www.inkscape.org/) -->

<svg
   width="105mm"
   height="148mm"
   viewBox="0 0 105 148"
   version="1.1"
   id="svg1"
   xml:space="preserve"
   inkscape:version="1.4.4 (dcaf3e7d9e, 2026-05-05)"
   sodipodi:docname="04_satin_swirl.svg"
   xmlns:inkscape="http://www.inkscape.org/namespaces/inkscape"
   xmlns:sodipodi="http://sodipodi.sourceforge.net/DTD/sodipodi-0.dtd"
   xmlns:xlink="http://www.w3.org/1999/xlink"
   xmlns="http://www.w3.org/2000/svg"
   xmlns:svg="http://www.w3.org/2000/svg"
   xmlns:inkstitch="http://inkstitch.org/namespace"><sodipodi:namedview
     id="namedview1"
     pagecolor="#ffffff"
     bordercolor="#666666"
     borderopacity="1.0"
     inkscape:showpageshadow="2"
     inkscape:pageopacity="0.0"
     inkscape:pagecheckerboard="0"
     inkscape:deskcolor="#d1d1d1"
     inkscape:document-units="mm"
     showgrid="true"
     showguides="true"
     inkscape:zoom="2.7614"
     inkscape:cx="194.10444"
     inkscape:cy="443.25342"
     inkscape:window-width="1920"
     inkscape:window-height="1131"
     inkscape:window-x="0"
     inkscape:window-y="0"
     inkscape:window-maximized="1"
     inkscape:current-layer="layer1"
     inkscape:lockguides="true"><inkscape:grid
       id="grid1"
       units="mm"
       originx="0"
       originy="0"
       spacingx="1"
       spacingy="1"
       empcolor="#0099e5"
       empopacity="0.30196078"
       color="#0099e5"
       opacity="0.14901961"
       empspacing="5"
       enabled="true"
       visible="true" /><sodipodi:guide
       position="60,-739852.01"
       orientation="0,1"
       id="guide1"
       inkscape:locked="true"
       inkscape:label=""
       inkscape:color="rgb(0,134,229)" /><sodipodi:guide
       position="0,74.000001"
       orientation="0,1"
       id="guide2"
       inkscape:locked="true"
       inkscape:label=""
       inkscape:color="rgb(0,134,229)" /><sodipodi:guide
       position="0,197.33333"
       orientation="0,1"
       id="guide10"
       inkscape:locked="true"
       inkscape:label=""
       inkscape:color="rgb(224,27,36)" /></sodipodi:namedview><metadata
     id="metadata18"><inkstitch:min_stitch_len_mm>0.3</inkstitch:min_stitch_len_mm><inkstitch:collapse_len_mm>11.0</inkstitch:collapse_len_mm><inkstitch:inkstitch_svg_version>4</inkstitch:inkstitch_svg_version><inkstitch:min_satin_stroke_width_mm>1.0</inkstitch:min_satin_stroke_width_mm></metadata><defs
     id="defs1"><inkscape:path-effect
   effect="taper_stroke"
   start_shape="center | center"
   end_shape="center | center"
   id="path-effect73"
   is_visible="true"
   lpeversion="1"
   stroke_width="2"
   subpath="1"
   attach_start="1.4844595"
   end_offset="0.62650929"
   start_smoothing="0.5"
   end_smoothing="0.5"
   jointype="extrapolated"
   miter_limit="100" /><inkscape:path-effect
   effect="taper_stroke"
   start_shape="center | center"
   end_shape="center | center"
   id="path-effect71"
   is_visible="true"
   lpeversion="1"
   stroke_width="2"
   subpath="1"
   attach_start="0"
   end_offset="1.9031208"
   start_smoothing="0.5"
   end_smoothing="0.5"
   jointype="extrapolated"
   miter_limit="100" /><inkscape:path-effect
   effect="taper_stroke"
   start_shape="center | center"
   end_shape="center | center"
   id="path-effect69"
   is_visible="true"
   lpeversion="1"
   stroke_width="2"
   subpath="1"
   attach_start="0.11865955"
   end_offset="1.6893794"
   start_smoothing="0.5"
   end_smoothing="0.5"
   jointype="extrapolated"
   miter_limit="100" /><inkscape:path-effect
   effect="taper_stroke"
   start_shape="center"
   end_shape="center"
   id="path-effect67"
   is_visible="true"
   lpeversion="1"
   stroke_width="2"
   subpath="1"
   attach_start="0.2"
   end_offset="3.3109667"
   start_smoothing="0.5"
   end_smoothing="0.5"
   jointype="extrapolated"
   miter_limit="100" /><inkscape:path-effect
   effect="taper_stroke"
   start_shape="center | center"
   end_shape="center | center"
   id="path-effect65"
   is_visible="true"
   lpeversion="1"
   stroke_width="2"
   subpath="1"
   attach_start="0.32344282"
   end_offset="1.8847733"
   start_smoothing="0.5"
   end_smoothing="0.5"
   jointype="extrapolated"
   miter_limit="100" /><inkscape:path-effect
   effect="taper_stroke"
   start_shape="center | center"
   end_shape="center | center"
   id="path-effect63"
   is_visible="true"
   lpeversion="1"
   stroke_width="2"
   subpath="1"
   attach_start="0.0083595265"
   end_offset="2.6794581"
   start_smoothing="0.5"
   end_smoothing="0.5"
   jointype="extrapolated"
   miter_limit="100" /><inkscape:path-effect
   effect="taper_stroke"
   start_shape="center | center"
   end_shape="center | center"
   id="path-effect61"
   is_visible="true"
   lpeversion="1"
   stroke_width="2"
   subpath="1"
   attach_start="0.78509964"
   end_offset="3.10519"
   start_smoothing="0.5"
   end_smoothing="0.5"
   jointype="extrapolated"
   miter_limit="100" /><inkscape:path-effect
   effect="taper_stroke"
   start_shape="center | center"
   end_shape="center | center"
   id="path-effect46"
   is_visible="true"
   lpeversion="1"
   stroke_width="2"
   subpath="1"
   attach_start="0"
   end_offset="1.9031208"
   start_smoothing="0.5"
   end_smoothing="0.5"
   jointype="extrapolated"
   miter_limit="100" /><inkscape:path-effect
   effect="taper_stroke"
   start_shape="center | center"
   end_shape="center | center"
   id="path-effect42"
   is_visible="true"
   lpeversion="1"
   stroke_width="2"
   subpath="1"
   attach_start="0.32344282"
   end_offset="1.8847733"
   start_smoothing="0.5"
   end_smoothing="0.5"
   jointype="extrapolated"
   miter_limit="100" /><inkscape:path-effect
   effect="taper_stroke"
   start_shape="center"
   end_shape="center"
   id="path-effect40"
   is_visible="true"
   lpeversion="1"
   stroke_width="2"
   subpath="1"
   attach_start="0.2"
   end_offset="3.3109667"
   start_smoothing="0.5"
   end_smoothing="0.5"
   jointype="extrapolated"
   miter_limit="100" /><inkscape:path-effect
   effect="taper_stroke"
   start_shape="center | center"
   end_shape="center | center"
   id="path-effect38"
   is_visible="true"
   lpeversion="1"
   stroke_width="2"
   subpath="1"
   attach_start="0.11865955"
   end_offset="1.6893794"
   start_smoothing="0.5"
   end_smoothing="0.5"
   jointype="extrapolated"
   miter_limit="100" /><inkscape:path-effect
   effect="taper_stroke"
   start_shape="center | center"
   end_shape="center | center"
   id="path-effect36"
   is_visible="true"
   lpeversion="1"
   stroke_width="2"
   subpath="1"
   attach_start="0.0083595265"
   end_offset="2.6794581"
   start_smoothing="0.5"
   end_smoothing="0.5"
   jointype="extrapolated"
   miter_limit="100" /><inkscape:path-effect
   effect="taper_stroke"
   start_shape="center | center"
   end_shape="center | center"
   id="path-effect34"
   is_visible="true"
   lpeversion="1"
   stroke_width="2"
   subpath="1"
   attach_start="1.4844595"
   end_offset="0.62650929"
   start_smoothing="0.5"
   end_smoothing="0.5"
   jointype="extrapolated"
   miter_limit="100" /><inkscape:path-effect
   effect="taper_stroke"
   start_shape="center | center"
   end_shape="center | center"
   id="path-effect32"
   is_visible="true"
   lpeversion="1"
   stroke_width="2"
   subpath="1"
   attach_start="0.78509964"
   end_offset="3.10519"
   start_smoothing="0.5"
   end_smoothing="0.5"
   jointype="extrapolated"
   miter_limit="100" /><inkscape:path-effect
   effect="spiro"
   id="path-effect45"
   is_visible="true"
   lpeversion="1" /><inkscape:path-effect
   effect="spiro"
   id="path-effect44"
   is_visible="true"
   lpeversion="1" /><inkscape:path-effect
   effect="taper_stroke"
   start_shape="center | center"
   end_shape="center | center"
   id="path-effect43"
   is_visible="true"
   lpeversion="1"
   stroke_width="1.5"
   subpath="1"
   attach_start="2.648638"
   end_offset="0.2"
   start_smoothing="0.5"
   end_smoothing="0.5"
   jointype="extrapolated"
   miter_limit="100" /><inkscape:path-effect
   effect="spiro"
   id="path-effect41"
   is_visible="true"
   lpeversion="1" /><inkscape:path-effect
   effect="taper_stroke"
   start_shape="center | center"
   end_shape="center | center"
   id="path-effect39"
   is_visible="true"
   lpeversion="1"
   stroke_width="1.5"
   subpath="1"
   attach_start="0.2"
   end_offset="3.5595793"
   start_smoothing="0.5"
   end_smoothing="0.5"
   jointype="extrapolated"
   miter_limit="100" /><inkscape:path-effect
   effect="spiro"
   id="path-effect37"
   is_visible="true"
   lpeversion="1" /><inkscape:path-effect
   effect="taper_stroke"
   start_shape="center | center"
   end_shape="center | center"
   id="path-effect35"
   is_visible="true"
   lpeversion="1"
   stroke_width="1.5"
   subpath="1"
   attach_start="0.2"
   end_offset="3.5194246"
   start_smoothing="0.5"
   end_smoothing="0.5"
   jointype="extrapolated"
   miter_limit="100" /><inkscape:path-effect
   effect="spiro"
   id="path-effect33"
   is_visible="true"
   lpeversion="1" /><inkscape:path-effect
   effect="taper_stroke"
   start_shape="center | center"
   end_shape="center | center"
   id="path-effect31"
   is_visible="true"
   lpeversion="1"
   stroke_width="2"
   subpath="1"
   attach_start="3.3746375"
   end_offset="2.9000579"
   start_smoothing="0.8"
   end_smoothing="0.5"
   jointype="bevel"
   miter_limit="100" /><inkscape:path-effect
   effect="spiro"
   id="path-effect29"
   is_visible="true"
   lpeversion="1" /><inkscape:path-effect
   effect="taper_stroke"
   start_shape="center | center"
   end_shape="center | center"
   id="path-effect25"
   is_visible="true"
   lpeversion="1"
   stroke_width="1.5"
   subpath="1"
   attach_start="0.2"
   end_offset="3.5595793"
   start_smoothing="0.5"
   end_smoothing="0.5"
   jointype="extrapolated"
   miter_limit="100" /><inkscape:path-effect
   effect="taper_stroke"
   start_shape="center | center"
   end_shape="center | center"
   id="path-effect24"
   is_visible="true"
   lpeversion="1"
   stroke_width="1.5"
   subpath="1"
   attach_start="2.648638"
   end_offset="0.2"
   start_smoothing="0.5"
   end_smoothing="0.5"
   jointype="extrapolated"
   miter_limit="100" /><inkscape:path-effect
   effect="taper_stroke"
   start_shape="center | center"
   end_shape="center | center"
   id="path-effect23"
   is_visible="true"
   lpeversion="1"
   stroke_width="1.5"
   subpath="1"
   attach_start="0.2"
   end_offset="3.5194246"
   start_smoothing="0.5"
   end_smoothing="0.5"
   jointype="extrapolated"
   miter_limit="100" /><inkscape:path-effect
   effect="taper_stroke"
   start_shape="center | center"
   end_shape="center | center"
   id="path-effect22"
   is_visible="true"
   lpeversion="1"
   stroke_width="2"
   subpath="1"
   attach_start="3.3746375"
   end_offset="2.9000579"
   start_smoothing="0.8"
   end_smoothing="0.5"
   jointype="bevel"
   miter_limit="100" /><inkscape:path-effect
   effect="spiro"
   id="path-effect20"
   is_visible="true"
   lpeversion="1" /><inkscape:path-effect
   effect="spiro"
   id="path-effect18"
   is_visible="true"
   lpeversion="1" /><inkscape:path-effect
   effect="spiro"
   id="path-effect16"
   is_visible="true"
   lpeversion="1" /><inkscape:path-effect
   effect="spiro"
   id="path-effect14"
   is_visible="true"
   lpeversion="1" /><inkscape:path-effect
   effect="spiro"
   id="path-effect10"
   is_visible="true"
   lpeversion="1" /><inkscape:path-effect
   effect="spiro"
   id="path-effect9"
   is_visible="true"
   lpeversion="1" /><inkscape:path-effect
   effect="spiro"
   id="path-effect8"
   is_visible="true"
   lpeversion="1" /><inkscape:path-effect
   effect="spiro"
   id="path-effect5"
   is_visible="true"
   lpeversion="1" /><inkscape:path-effect
   center_point="52.529609,111.277"
   end_point="150.0296,111.277"
   start_point="-44.970382,111.277"
   effect="mirror_symmetry"
   id="path-effect21"
   is_visible="true"
   lpeversion="1.2"
   lpesatellites=""
   mode="Y"
   discard_orig_path="false"
   fuse_paths="false"
   oposite_fuse="false"
   split_items="false"
   split_open="false"
   link_styles="false" /><inkscape:path-effect
   effect="offset"
   id="path-effect2"
   is_visible="true"
   lpeversion="1.3"
   linejoin_type="miter"
   unit="mm"
   offset="4"
   miter_limit="4"
   attempt_force_join="false"
   update_on_knot_move="true" /><inkscape:path-effect
   effect="offset"
   id="path-effect7"
   is_visible="true"
   lpeversion="1.3"
   linejoin_type="miter"
   unit="mm"
   offset="4"
   miter_limit="4"
   attempt_force_join="false"
   update_on_knot_move="true" /><inkscape:path-effect
   center_point="53.000002,110.79823"
   end_point="53.000002,133.01515"
   start_point="53.000002,88.581308"
   effect="mirror_symmetry"
   id="path-effect6"
   is_visible="true"
   lpeversion="1.2"
   lpesatellites=""
   mode="free"
   discard_orig_path="false"
   fuse_paths="false"
   oposite_fuse="false"
   split_items="false"
   split_open="false"
   link_styles="false" /><symbol
   id="inkstitch_ignore_layer"
   transform="scale(0.25, 0.25)"
   style="opacity:0.7">
      <title
   id="title9694">Ignore entire layer when generating stitch plan</title>
      <path
   inkscape:connector-curvature="0"
   style="opacity:1;vector-effect:none;fill:#fafafa;fill-opacity:1;fill-rule:evenodd;stroke:#ff0000;stroke-width:1.06501234;stroke-linecap:round;stroke-linejoin:miter;stroke-miterlimit:4;stroke-dasharray:3.19503705, 3.19503705;stroke-dashoffset:0;stroke-opacity:1"
   d="M 9.2465269,-4.9265995e-6 C 9.246525,5.1067241 5.1067028,9.2465451 -2.615882e-5,9.2465451 -5.1067554,9.2465451 -9.2465782,5.1067241 -9.2465801,-4.9265995e-6 -9.24658,-2.4523429 -8.2723922,-4.8042399 -6.538327,-6.5383059 c 1.7340653,-1.734065 4.0859624,-2.708252 6.53830084118,-2.708252 5.10673015882,0 9.24655285882,4.139823 9.24655305882,9.2465529734005 0,0 0,0 0,0"
   id="inkstitch_path25368-7"
   inkstitch:max_stitch_length_mm="3" />
      <path
   sodipodi:nodetypes="ccccc"
   inkscape:connector-curvature="0"
   style="color:#000000;fill:#d5d5d5;fill-opacity:1;fill-rule:evenodd;stroke:#5a5a5a;stroke-width:0.63330007;stroke-linecap:square;stroke-linejoin:round;stroke-miterlimit:0;stroke-opacity:1"
   d="M 4,4.452769 1.46667,1.286102 H -5.5 l 2.53333,3.166667 z"
   id="use5800"
   inkstitch:max_stitch_length_mm="3" />
      <path
   sodipodi:nodetypes="ccccc"
   inkscape:connector-curvature="0"
   style="color:#000000;opacity:0.5;fill:#d5d5d5;fill-opacity:1;fill-rule:evenodd;stroke:#858585;stroke-width:0.63339424;stroke-linecap:square;stroke-linejoin:round;stroke-miterlimit:0;stroke-opacity:1"
   d="M 4,2.552769 1.46667,-0.613898 H -5.5 l 2.53333,3.166667 z"
   id="use5864"
   inkstitch:max_stitch_length_mm="3" />
      <g
   id="g5771">
        <path
   sodipodi:nodetypes="ccccccccc"
   inkscape:connector-curvature="0"
   style="fill:#aa0000;fill-rule:evenodd;stroke:#aa0000;stroke-width:1px"
   d="m -1.0666699,-5.0472339 h 4.4333333 l 0.6333333,0.6333333 V 0.01943274 L 3.3666634,0.65276607 H -1.0666699 L -1.7000032,0.01943274 V -4.4139006 Z"
   id="path8011"
   inkstitch:max_stitch_length_mm="3" />
        <path
   inkscape:connector-curvature="0"
   id="path8023"
   d="m -0.43333658,-3.8755672 c 0,0 3.16666668,3.16666661 3.16666668,3.16666661"
   style="fill:none;stroke:#ffffff;stroke-width:1.70000005" />
        <path
   inkscape:connector-curvature="0"
   id="path8025"
   d="m 2.7333301,-3.8755672 c 0,0 -3.16666668,3.16666661 -3.16666668,3.16666661"
   style="fill:none;stroke:#ffffff;stroke-width:1.79999995;stroke-linejoin:round" />
      </g>
    </symbol>
    <marker
   refX="10"
   refY="5"
   orient="auto"
   id="inkstitch-guide-line-marker"
   markerUnits="userSpaceOnUse"
   markerWidth="0.1"
   viewBox="0 0 1 1">
     <g
   id="inkstitch-guide-line-group">
       <path
   style="fill:#fafafa;fill-opacity:0.8;stroke:#ff5500;stroke-width:0.5;stroke-linecap:round;stroke-linejoin:miter;stroke-miterlimit:4;stroke-dasharray:1, 1;stroke-dashoffset:0;stroke-opacity:1"
   d="M 10.12911,5.2916678 A 4.8374424,4.8374426 0 0 1 5.2916656,10.12911 4.8374424,4.8374426 0 0 1 0.45422399,5.2916678 4.8374424,4.8374426 0 0 1 5.2916656,0.45422399 4.8374424,4.8374426 0 0 1 10.12911,5.2916678 Z"
   id="inkstitch-guide-line-marker-circle"
   inkstitch:max_stitch_length_mm="3" />
       <path
   style="fill:none;stroke:#000000;stroke-width:0.4;stroke-linecap:round;stroke-miterlimit:4"
   id="inkstitch-guide-line-marker-spiral"
   d="M 1.7506092,6.2728168 3.4558825,5.2833684 7.1038696,7.400035 8.8193256,6.4046783 M 1.7963222,4.129626 3.4558825,3.1667016 7.1038696,5.2833682 8.8475785,4.2716184 M 1.6318889,5.2833683 3.4558825,4.225035 7.1038696,6.3417016 8.9558408,5.2677331" />
     </g>
    </marker><marker
   refX="10"
   refY="5"
   orient="auto"
   id="inkstitch-guide-line-marker-1"
   markerUnits="userSpaceOnUse"
   markerWidth="0.1"
   viewBox="0 0 1 1"><g
     id="inkstitch-guide-line-group-5"><path
       style="fill:#fafafa;fill-opacity:0.8;stroke:#ff5500;stroke-width:0.5;stroke-linecap:round;stroke-linejoin:miter;stroke-miterlimit:4;stroke-dasharray:1, 1;stroke-dashoffset:0;stroke-opacity:1"
       d="M 10.12911,5.2916678 A 4.8374424,4.8374426 0 0 1 5.2916656,10.12911 4.8374424,4.8374426 0 0 1 0.45422399,5.2916678 4.8374424,4.8374426 0 0 1 5.2916656,0.45422399 4.8374424,4.8374426 0 0 1 10.12911,5.2916678 Z"
       id="inkstitch-guide-line-marker-circle-9"
       inkstitch:max_stitch_length_mm="3" /><path
       style="fill:none;stroke:#000000;stroke-width:0.4;stroke-linecap:round;stroke-miterlimit:4"
       id="inkstitch-guide-line-marker-spiral-7"
       d="M 1.7506092,6.2728168 3.4558825,5.2833684 7.1038696,7.400035 8.8193256,6.4046783 M 1.7963222,4.129626 3.4558825,3.1667016 7.1038696,5.2833682 8.8475785,4.2716184 M 1.6318889,5.2833683 3.4558825,4.225035 7.1038696,6.3417016 8.9558408,5.2677331" /></g></marker><marker
   refX="10"
   refY="5"
   orient="auto"
   id="marker2"
   markerUnits="userSpaceOnUse"
   markerWidth="0.1"
   viewBox="0 0 1 1"><g
     id="g2-5"><path
       style="fill:#fafafa;fill-opacity:0.8;stroke:#ff5500;stroke-width:0.5;stroke-linecap:round;stroke-linejoin:miter;stroke-miterlimit:4;stroke-dasharray:1, 1;stroke-dashoffset:0;stroke-opacity:1"
       d="M 10.12911,5.2916678 A 4.8374424,4.8374426 0 0 1 5.2916656,10.12911 4.8374424,4.8374426 0 0 1 0.45422399,5.2916678 4.8374424,4.8374426 0 0 1 5.2916656,0.45422399 4.8374424,4.8374426 0 0 1 10.12911,5.2916678 Z"
       id="path1"
       inkstitch:max_stitch_length_mm="3" /><path
       style="fill:none;stroke:#000000;stroke-width:0.4;stroke-linecap:round;stroke-miterlimit:4"
       id="path2-6"
       d="M 1.7506092,6.2728168 3.4558825,5.2833684 7.1038696,7.400035 8.8193256,6.4046783 M 1.7963222,4.129626 3.4558825,3.1667016 7.1038696,5.2833682 8.8475785,4.2716184 M 1.6318889,5.2833683 3.4558825,4.225035 7.1038696,6.3417016 8.9558408,5.2677331" /></g></marker><marker
   refX="10"
   refY="5"
   orient="auto"
   id="marker4"
   markerUnits="userSpaceOnUse"
   markerWidth="0.1"
   viewBox="0 0 1 1"><g
     id="g4"><path
       style="fill:#fafafa;fill-opacity:0.8;stroke:#ff5500;stroke-width:0.5;stroke-linecap:round;stroke-linejoin:miter;stroke-miterlimit:4;stroke-dasharray:1, 1;stroke-dashoffset:0;stroke-opacity:1"
       d="M 10.12911,5.2916678 A 4.8374424,4.8374426 0 0 1 5.2916656,10.12911 4.8374424,4.8374426 0 0 1 0.45422399,5.2916678 4.8374424,4.8374426 0 0 1 5.2916656,0.45422399 4.8374424,4.8374426 0 0 1 10.12911,5.2916678 Z"
       id="path3"
       inkstitch:max_stitch_length_mm="3" /><path
       style="fill:none;stroke:#000000;stroke-width:0.4;stroke-linecap:round;stroke-miterlimit:4"
       id="path4"
       d="M 1.7506092,6.2728168 3.4558825,5.2833684 7.1038696,7.400035 8.8193256,6.4046783 M 1.7963222,4.129626 3.4558825,3.1667016 7.1038696,5.2833682 8.8475785,4.2716184 M 1.6318889,5.2833683 3.4558825,4.225035 7.1038696,6.3417016 8.9558408,5.2677331" /></g></marker><marker
   refX="10"
   refY="5"
   orient="auto"
   id="marker6"
   markerUnits="userSpaceOnUse"
   markerWidth="0.1"
   viewBox="0 0 1 1"><g
     id="g6"><path
       style="fill:#fafafa;fill-opacity:0.8;stroke:#ff5500;stroke-width:0.5;stroke-linecap:round;stroke-linejoin:miter;stroke-miterlimit:4;stroke-dasharray:1, 1;stroke-dashoffset:0;stroke-opacity:1"
       d="M 10.12911,5.2916678 A 4.8374424,4.8374426 0 0 1 5.2916656,10.12911 4.8374424,4.8374426 0 0 1 0.45422399,5.2916678 4.8374424,4.8374426 0 0 1 5.2916656,0.45422399 4.8374424,4.8374426 0 0 1 10.12911,5.2916678 Z"
       id="path5-3"
       inkstitch:max_stitch_length_mm="3" /><path
       style="fill:none;stroke:#000000;stroke-width:0.4;stroke-linecap:round;stroke-miterlimit:4"
       id="path6"
       d="M 1.7506092,6.2728168 3.4558825,5.2833684 7.1038696,7.400035 8.8193256,6.4046783 M 1.7963222,4.129626 3.4558825,3.1667016 7.1038696,5.2833682 8.8475785,4.2716184 M 1.6318889,5.2833683 3.4558825,4.225035 7.1038696,6.3417016 8.9558408,5.2677331" /></g></marker><symbol
   id="inkstitch_autoroute_start"
   style="display:inline;opacity:0.7"
   transform="scale(0.25, 0.25)">
      <title
   id="inkstitch_title9427-3">Running stitch starting point</title>
      <path
   style="opacity:1;vector-effect:none;fill:#fafafa;fill-opacity:1;fill-rule:evenodd;stroke:#003399;stroke-width:1.06500006;stroke-linecap:round;stroke-linejoin:miter;stroke-miterlimit:4;stroke-dasharray:3.19500017, 3.19500017;stroke-dashoffset:0;stroke-opacity:1"
   d="M 9.2201108,0.05852023 A 9.2576327,9.2122261 0 0 1 -0.03752532,9.2707454 9.2576327,9.2122261 0 0 1 -9.2951565,0.05852023 9.2576327,9.2122261 0 0 1 -0.03752532,-9.1537082 9.2576327,9.2122261 0 0 1 9.2201108,0.05852023 Z"
   id="inkstitch-autorun_start-circle"
   inkstitch:max_stitch_length_mm="3" />
      <path
   style="fill:#000000"
   id="inkstitch-autorun_start-path"
   d="M -3.8159516,-5.6184574 c -0.3237427,0.020819 -0.5868063,0.2896236 -0.5907925,0.6167873 -0.00301,0.2444103 0.1384108,0.4575508 0.3447536,0.5613983 l -0.084402,6.772037 c -0.1244867,-0.03501 -0.2442949,-0.092709 -0.3519231,-0.1734001 -0.018852,-0.014824 -0.04551,-0.014824 -0.064361,0 -0.018491,0.013861 -0.025495,0.038228 -0.017164,0.05968 l 0.6437207,1.8106215 c 0.016803,0.044746 0.080472,0.044746 0.097275,0 l 0.6923582,-1.7949729 c 0.01924,-0.049558 -0.04036,-0.092132 -0.081524,-0.058277 -0.1120849,0.077886 -0.2339971,0.131597 -0.3605046,0.1634443 l 0.078701,-6.7706068 c 0.2092494,-0.097934 0.3546084,-0.3086274 0.3576257,-0.5542753 0.00418,-0.34328 -0.2710359,-0.6282831 -0.6165645,-0.632436 -0.016194,-1.924e-4 -0.031281,-0.00102 -0.047198,-3e-7 z m 0.9498575,1.1369602 c -0.042382,0.00503 -0.060846,0.055939 -0.031474,0.086686 l 1.2703061,1.4510604 c 0.035433,0.033525 0.093621,0.00416 0.087254,-0.044058 -0.016443,-0.1368774 -0.00712,-0.2718022 0.025745,-0.3993565 l 5.8279214,3.19201934 c -0.00955,0.23010929 0.1105352,0.45752327 0.3261511,0.57558932 0.3026489,0.1656996 0.6815068,0.0590468 0.8482917,-0.24160502 0.1667849,-0.30067931 0.059461,-0.68276459 -0.2431877,-0.84846414 -0.216862,-0.11872613 -0.4758284,-0.0980447 -0.6666138,0.0341025 l -5.8250435,-3.1905893 c 0.090438,-0.093452 0.1986471,-0.1708699 0.32186037,-0.2274139 0.044292,-0.022937 0.033578,-0.088721 -0.015724,-0.096642 L -2.8489315,-4.4800672 c -0.00556,-0.00146 -0.011405,-0.00189 -0.017162,-0.00146 z m 6.9651605,5.10354566 -1.909736,0.3126702 c -0.047392,0.011523 -0.054063,0.075768 -0.01,0.096642 0.1244589,0.057067 0.2344955,0.1342923 0.3261511,0.2273865 L -3.4211257,4.5999927 C -3.6139873,4.4704034 -3.8733966,4.4493919 -4.0877673,4.5701537 -4.38834,4.7394835 -4.4899335,5.1199736 -4.3194944,5.4186179 c 0.170439,0.2986167 0.5534215,0.4066446 0.8540219,0.2373147 0.2139276,-0.1204863 0.3297497,-0.3481203 0.3175695,-0.5769918 L 2.778711,1.7376949 c 0.03333,0.1260415 0.043323,0.2590963 0.027184,0.3936635 -0.00791,0.053024 0.060763,0.081379 0.092985,0.038365 L 4.1477039,0.70304186 c 0.026048,-0.036523 -0.00388,-0.086439 -0.048637,-0.0809934 Z"
   inkstitch:max_stitch_length_mm="3" />
    </symbol>
    <symbol
   id="inkstitch_autoroute_end"
   style="display:inline;opacity:0.7"
   transform="scale(0.25, 0.25)">
      <title
   id="inkstitch_title9427-3-1">Running stitch ending point</title>
       <path
   style="opacity:1;vector-effect:none;fill:#fafafa;fill-opacity:1;fill-rule:evenodd;stroke:#003399;stroke-width:1.06500006;stroke-linecap:round;stroke-linejoin:miter;stroke-miterlimit:4;stroke-dasharray:3.19500017, 3.19500017;stroke-dashoffset:0;stroke-opacity:1"
   d="M 9.2201108,0.05852023 A 9.2576327,9.2122261 0 0 1 -0.03752532,9.2707454 9.2576327,9.2122261 0 0 1 -9.2951565,0.05852023 9.2576327,9.2122261 0 0 1 -0.03752532,-9.1537082 9.2576327,9.2122261 0 0 1 9.2201108,0.05852023 Z"
   id="inkstitch-autorun_end-circle"
   inkstitch:max_stitch_length_mm="3" />
       <path
   style="fill:#000000"
   id="inkstitch-autorun_end-path"
   d="M -1.5977169,-4.8605484 c -0.00319,1.523e-4 -0.00643,6.284e-4 -0.00955,0.00139 l -1.738218,0.6114515 c -0.044131,0.013274 -0.04771,0.07406 -0.00546,0.092381 l 1.7286718,0.6522048 c 0.042543,0.011464 0.077832,-0.033916 0.055977,-0.072004 -0.075631,-0.1076723 -0.1279528,-0.2256474 -0.1583813,-0.3478501 l 5.3580083,0.0693 C 3.7283489,-3.6574881 3.9289854,-3.5209456 4.163113,-3.51807 4.4929661,-3.51396 4.7679522,-3.7755203 4.7721242,-4.1036793 4.7763142,-4.4318766 4.5079699,-4.70559 4.178155,-4.7096844 3.9431472,-4.7126044 3.7385104,-4.5784741 3.6388043,-4.38223 l -5.3566689,-0.065225 c 0.033509,-0.1204507 0.089391,-0.2361787 0.1679695,-0.3396805 0.019712,-0.034678 -0.00793,-0.077126 -0.047786,-0.073375 z m -2.6203001,0.2119742 c -0.3227531,0.0041 -0.5844387,0.2625539 -0.5884958,0.5856093 -0.00295,0.2329983 0.129063,0.4383262 0.3236143,0.5394287 l -0.065546,5.2964025 c -0.1188053,-0.03344 -0.233209,-0.088553 -0.3359005,-0.1657553 -0.018028,-0.014169 -0.043442,-0.014169 -0.061451,0 -0.016535,0.013426 -0.022582,0.035878 -0.015004,0.055721 l 0.6130875,1.7310434 c 0.013338,0.043896 0.074426,0.047476 0.092855,0.00543 l 0.6608737,-1.7201931 c 0.021243,-0.048142 -0.037912,-0.091505 -0.077832,-0.057054 -0.1085476,0.075489 -0.2269701,0.1273635 -0.3495646,0.1576047 l 0.069641,-5.2950505 c 0.1995845,-0.095713 0.3397855,-0.2989653 0.3427327,-0.5326301 0.00412,-0.3281781 -0.2641734,-0.5964641 -0.5939692,-0.6005585 -0.00519,-7.62e-5 -0.00991,-7.62e-5 -0.015023,0 z m 8.4425639,1.3302136 c -0.020458,-1.333e-4 -0.038925,0.012283 -0.046428,0.03125 l -0.6608735,1.714742 c -0.021243,0.04818 0.037931,0.091524 0.077851,0.057054 0.1072273,-0.074556 0.2244441,-0.1271727 0.3454502,-0.1576044 L 3.8750009,3.6234841 C 3.6760287,3.7194257 3.5366315,3.9202022 3.5336461,4.15341 3.529436,4.4816071 3.7964416,4.7512453 4.1262565,4.7553397 4.4560331,4.759449 4.726962,4.4979085 4.731134,4.1697112 4.7341354,3.934523 4.5996979,3.7276145 4.4020654,3.6275594 L 4.4703294,-1.66612 c 0.1197239,0.033383 0.2338597,0.08802 0.3372785,0.1657745 0.039309,0.032355 0.096166,-0.00834 0.077832,-0.055721 L 4.2709744,-3.2871101 c -0.00748,-0.018949 -0.02595,-0.031384 -0.046428,-0.031251 z M 1.5114302,3.6180947 c -0.037451,6.856e-4 -0.060627,0.040868 -0.042351,0.073356 0.075823,0.1079391 0.1280103,0.2267139 0.1584006,0.3492023 L -3.7305473,3.971372 c -0.096108,-0.1988532 -0.2989079,-0.338138 -0.5338966,-0.3410517 -0.3297958,-0.0041 -0.5994042,0.2615256 -0.6035188,0.5896847 -0.00413,0.3281972 0.2627956,0.6019488 0.5926104,0.6060241 0.2345678,0.00292 0.4394534,-0.1304295 0.5393508,-0.3261024 l 5.3580084,0.063873 C 1.5885549,4.684593 1.5314859,4.7996924 1.4526979,4.90348 1.4299049,4.942272 1.4668789,4.9887 1.5100529,4.975503 L 3.2496085,4.3640511 c 0.043002,-0.015959 0.043002,-0.076441 0,-0.0924 L 1.5250561,3.6194659 c -0.00446,-0.00112 -0.00905,-0.00154 -0.013665,-0.00139 Z"
   inkstitch:max_stitch_length_mm="3" />
    </symbol>
    <filter
   style="color-interpolation-filters:sRGB"
   id="realistic-stitch-filter"
   x="0"
   width="1"
   y="0"
   height="1"
   inkscape:auto-region="false"><feGaussianBlur
     edgeMode="none"
     stdDeviation="0.9"
     in="SourceAlpha"
     id="feGaussianBlur24" /><feSpecularLighting
     result="result2"
     surfaceScale="4.29"
     specularConstant="0.65"
     specularExponent="1.6"
     id="feSpecularLighting24"><feDistantLight
       azimuth="154"
       elevation="112"
       id="feDistantLight24" /></feSpecularLighting><feComposite
     in2="SourceAlpha"
     operator="atop"
     id="feComposite24" /><feComposite
     in2="SourceGraphic"
     operator="arithmetic"
     result="result3"
     k1="0"
     k2="0.8"
     k3="1.2"
     k4="0"
     id="feComposite25" /></filter></defs><g
     inkscape:label="Embroidery"
     inkscape:groupmode="layer"
     id="layer1"
     style="display:inline"><g
       id="g46"
       style="fill:#000000"
       inkscape:label="right wing"><path
         d="M 74.323963,125.7706 C 74.837644,125.56451 75.188402,125.27236 75.236066,124.70578 75.215819,123.14258 72.487493,122.64091 72.752442,125.3076 72.917366,126.16721 73.603872,126.82631 74.331443,127.25471 74.825747,127.54997 75.394876,127.67464 75.9525,127.789 M 75.698594,125.50661 C 77.197769,122.55367 71.641405,120.87051 71.588658,125.23203 71.580852,125.87752 71.654817,126.63121 71.975538,127.19157 72.488858,128.08749 73.033219,128.4716 73.990974,128.85065 74.540179,129.07808 74.902318,128.99642 75.482878,129.11525 M 74.2087,123.817 74.448085,122.16417 M 72.891,124.775 70.6635,124.751 M 75.4302,127.266 74.7116,129.949 M 73.6337,126.116 C 72.715499,126.49933 71.797301,126.88267 70.8791,127.266"
         style="fill:none;stroke:#000000;stroke-width:0.264583"
         inkstitch:satin_column="True"
         inkstitch:contour_underlay="True"
         inkstitch:pull_compensation_mm="0.2"
         inkscape:label="Satin 0"
         id="path78"
         sodipodi:nodetypes="ccccccsccccccccccc"
         inkstitch:min_stitch_length_mm="1" /><path
         d="M 67.034433,126.01167 C 66.183653,127.72445 63.627061,129.06865 61.38198,127.47066 59.560341,126.15334 58.224521,122.88705 61.308295,119.90064 62.366476,118.93447 65.397556,116.80093 69.109648,119.79127 69.577442,120.19602 70.000266,120.65105 70.364731,121.15111 71.518339,122.72187 71.862908,124.29872 71.96327,124.99726 72.204994,126.67626 72.076297,130.047 67.813928,132.00337 65.16426,132.99308 62.081564,133.2837 59.24248,131.42689 58.608937,130.99114 57.982036,130.53647 57.429273,130.00065 57.121582,129.65944 56.813891,129.31822 56.5062,128.977 M 67.3578,123.505 C 67.229187,126.46472 64.409938,128.87163 61.828627,126.85921 61.315886,126.4138 59.102571,124.02974 61.791371,121.24242 64.363643,118.77663 66.718893,119.90872 67.869782,120.94574 69.348574,122.30036 69.956021,124.17066 70.071883,125.09792 70.427623,127.35558 69.483737,129.08171 67.001399,130.16144 63.741667,131.54674 60.88719,130.33031 58.340924,128.18257 58.225516,128.08471 58.110108,127.98686 57.9947,127.889 M 62.8546,126.428 C 61.784633,126.52367 60.714667,126.61933 59.6447,126.715 M 62.0402,121.924 C 61.625,121.02967 61.2098,120.13533 60.7946,119.241 M 66.7829,121.014 70.0886,119.625 M 68.8908,126.092 C 70.232233,126.49133 71.573667,126.89067 72.9151,127.29 M 63.1419,130.404 62.0402,133.087 M 59.1655,128.2 C 58.462967,128.98267 57.760433,129.76533 57.0579,130.548"
         style="fill:none;stroke:#000000;stroke-width:0.264583"
         inkstitch:satin_column="True"
         inkstitch:contour_underlay="True"
         inkstitch:zigzag_underlay="False"
         inkstitch:pull_compensation_mm="0.2"
         inkscape:label="Satin 0"
         id="path73"
         sodipodi:nodetypes="cccccccccccccccccccccccccccccc"
         inkstitch:min_stitch_length_mm="1" /><path
         d="M 52.3851,114.965 C 52.921942,113.96255 53.488574,112.92914 54.400258,112.21518 55.656255,111.18469 57.342909,110.76077 58.946308,110.89801 62.830129,111.22673 63.622709,115.24852 63.430199,116.44437 63.501598,117.58968 62.865119,119.07421 61.975507,119.83834 59.793002,121.88045 55.753635,120.87051 55.961725,117.6059 M 54.224761,115.66258 C 54.407454,115.35062 54.581851,115.02908 54.801332,114.73749 55.36474,113.93571 56.153841,113.20859 57.151192,113.03709 57.982296,112.85507 58.883228,112.62831 59.708059,112.95819 61.560357,113.33878 62.645649,116.00068 61.903048,117.70067 61.714736,118.58917 60.927628,119.2204 60.103499,119.50586 59.198187,119.813 58.352831,119.74041 57.51835,119.24404 55.978254,118.29723 56.748641,116.28784 57.6032,116.002 M 61.8963,116.822 63.740731,117.68452 M 59.9082,113.397 61.7288,111.6 M 56.7464,113.636 56.0278,111.049 M 54.878,114.906 52.7221,113.349"
         style="fill:none;stroke:#000000;stroke-width:0.264583"
         inkstitch:satin_column="True"
         inkstitch:contour_underlay="True"
         inkstitch:pull_compensation_mm="0.2"
         inkscape:label="Satin 0"
         id="path84"
         sodipodi:nodetypes="cccccccccccccccccccccc"
         inkstitch:min_stitch_length_mm="1" /><path
         d="M 66.419618,109.79193 C 66.806093,111.16367 68.297894,112.36569 70.457863,111.01765 71.141926,110.53936 71.456922,109.4614 71.488359,108.66994 71.478337,107.58153 70.903304,107.01583 69.947389,106.36086 69.065795,105.83994 67.94223,105.96322 67.072788,106.4503 65.768582,107.11038 64.788188,108.28401 64.168024,109.58864 63.626807,110.69604 63.743753,112.14427 64.646759,113.03035 66.023023,114.47845 68.161098,114.79975 70.067108,114.61621 70.667607,114.61464 71.320874,114.45876 71.888155,114.52316 M 66.824638,111.92012 C 67.88711,112.7239 69.582571,112.67383 70.630676,112.10857 71.825115,111.40679 72.597419,109.69944 72.576459,108.39863 72.553926,106.7961 71.266191,105.28814 69.664547,104.78801 67.774138,104.22733 65.714863,104.99949 64.343013,106.33816 62.833561,107.69002 61.770829,109.69544 61.988686,111.76285 62.260137,113.8254 63.934728,115.49192 65.86063,116.13423 67.781543,116.79789 69.885385,116.79049 71.853594,116.35243 M 69.37,106.594 C 69.697365,105.90733 70.024735,105.22067 70.3521,104.534 M 65.7528,107.959 63.6211,106.45 M 70.6873,114.259 70.7352,117.158 M 65.369732,112.94184 C 64.619179,113.66045 63.868635,114.37907 63.118082,115.09768"
         style="fill:none;stroke:#000000;stroke-width:0.264583"
         inkstitch:satin_column="True"
         inkstitch:contour_underlay="True"
         inkstitch:pull_compensation_mm="0.2"
         inkscape:label="Satin 0"
         id="path90"
         sodipodi:nodetypes="ccccccccccccccccccccccccc"
         inkstitch:min_stitch_length_mm="1" /><path
         d="M 62.902352,104.84577 C 64.716929,107.08641 67.044008,102.53114 63.945382,102.97993 62.94958,103.37844 62.035958,103.95041 61.194344,104.61181 60.26841,105.31456 59.3531,106.03121 58.42785,106.73488 58.131108,106.81265 57.814481,107.28423 57.367865,107.39399 M 64.170046,105.93746 C 64.969335,106.01717 68.301929,104.39493 65.897832,102.35664 65.163237,101.58087 64.090013,101.68033 63.06358,101.88641 60.651793,102.76044 58.82883,105.0071 57.118481,106.83132 M 64.8186,104.606 67.261879,104.46164 M 64.5075,103.432 64.9863,100.797 M 61.3216,104.989 C 60.922331,104.13467 60.523069,103.28033 60.1238,102.426 M 58.6625,107.049 C 58.135569,106.29833 57.608631,105.54767 57.0817,104.797"
         style="fill:none;stroke:#000000;stroke-width:0.264583"
         inkstitch:satin_column="True"
         inkstitch:contour_underlay="True"
         inkstitch:pull_compensation_mm="0.2"
         inkscape:label="Satin 0"
         id="path99"
         sodipodi:nodetypes="ccccccccccccccccc"
         inkstitch:min_stitch_length_mm="1" /><path
         style="display:inline;fill:none;stroke:#000000;stroke-width:0.264583;stroke-linejoin:round;stroke-dasharray:none;paint-order:fill markers stroke"
         d="M 60.794569,102.56988 66.208113,97.827038"
         id="path121" /><path
         d="M 75.703175,96.960863 C 73.909462,96.746698 72.524142,97.533886 71.509785,98.553632 71.474715,98.588889 66.806201,103.71481 71.413848,102.84519 73.547663,102.3174 75.481285,101.18871 77.300246,99.984503 78.847052,98.894657 79.347454,98.647072 80.410464,97.064024 81.144638,96.186449 79.929232,94.670741 79.057494,94.676112 76.549278,94.395246 75.258077,94.636798 72.873021,95.412119 70.541942,96.133072 68.311107,97.154079 66.159646,98.297443 M 78.057044,97.740276 C 77.548922,95.937346 73.404541,95.655416 71.159893,97.584873 69.442926,98.727595 66.313225,102.45517 69.267325,104.03678 70.57005,104.60576 72.044387,104.1739 73.339721,103.79431 76.438826,102.65753 78.770265,100.67812 81.130427,98.353791 82.12049,97.363261 83.078852,96.327808 82.910123,94.84335 82.70359,93.406935 81.354743,93.217798 80.076842,93.013414 78.138402,92.683911 76.386056,93.099553 74.473552,93.479159 71.36926,94.478553 70.791784,94.82457 69.766242,95.20024 69.421554,95.444485 66.681133,97.317078 66.337131,97.56229 M 73.346297,98.114367 70.136397,97.731067 M 70.4717,102.186 68.5556,104.103 M 74.5918,100.701 76.1727,103.767 M 80.0533,96.5334 82.736157,97.132216 M 77.7059,94.9046 78.5682,91.8865 M 69.897,96.6292 71.166401,93.659055"
         style="fill:none;stroke:#000000;stroke-width:0.264583"
         inkstitch:satin_column="True"
         inkstitch:contour_underlay="True"
         inkstitch:pull_compensation_mm="0.2"
         inkscape:label="Satin 0"
         id="path107"
         sodipodi:nodetypes="cscccccccccccccccccccccccccccc"
         inkstitch:min_stitch_length_mm="1" /><path
         style="fill:none;stroke:#000000;stroke-width:0.264583;stroke-linejoin:round;stroke-dasharray:none;paint-order:fill markers stroke"
         d="M 66.351834,97.300054 73.202601,92.557215 78.520329,90.736734 82.496648,91.455345 84.7483,92.605123 85.275281,94.713051 84.365041,98.018668 C 84.365041,98.018668 82.113389,102.7136 82.017575,102.90523 81.921759,103.09686 80.819889,106.83364 80.819889,106.83364 80.658894,108.08624 80.688261,109.48161 80.053369,110.37879"
         id="path120"
         inkstitch:satin_column="False"
         inkstitch:stroke_method="running_stitch"
         inkstitch:running_stitch_tolerance_mm="0.5"
         sodipodi:nodetypes="cccccccscc" /><path
         d="M 75.3104,108.75 C 75.103143,109.19258 74.802683,109.64743 74.913822,110.16073 74.978937,110.76497 75.43207,111.29827 76.032309,111.42785 76.876571,111.67591 77.935983,111.24738 78.179806,110.35682 78.430492,109.51476 78.320809,108.54017 77.823016,107.80726 77.583925,107.43082 77.15128,107.27996 76.769547,107.09348 75.932126,106.80713 75.056813,107.20528 74.333712,107.61537 73.561737,108.0742 72.833847,108.60518 72.170824,109.21003 M 74.567825,111.08246 C 74.922294,112.15265 76.116025,112.71307 77.187654,112.64677 78.313561,112.60242 79.362287,111.8376 79.760639,110.78671 80.371207,109.3679 80.127296,107.61268 79.150047,106.41613 78.67496,105.86822 78.064342,105.36913 77.319886,105.28305 76.034935,105.01552 74.693783,105.49042 73.723463,106.33886 73.221653,106.78042 72.741907,107.2835 72.501214,107.91862 72.450992,108.02522 72.372589,108.15192 72.289096,108.28225 M 77.5382,110.69 78.1369,112.798 M 77.2987,108.558 80.1253,106.881 M 72.77136,109.25281 72.891,106.642"
         style="fill:none;stroke:#000000;stroke-width:0.264583"
         inkstitch:satin_column="True"
         inkstitch:contour_underlay="True"
         inkstitch:pull_compensation_mm="0.2"
         inkscape:label="Satin 0"
         id="path94"
         sodipodi:nodetypes="cccccccccccccccccccccc"
         inkstitch:min_stitch_length_mm="1" /><path
         d="M 54.9219,117.642 C 55.192864,118.3956 55.558058,119.12565 55.588289,119.94017 56.123572,123.30282 56.947205,126.66619 58.494502,129.71672 59.398505,131.43212 60.566502,133.18632 62.397047,134.00548 63.581262,134.57844 64.92473,134.34033 66.186021,134.27291 68.434157,134.02161 70.75268,133.46235 72.549563,132.01751 73.283673,131.42811 73.80222,130.63891 74.212415,129.80148 75.413842,127.45636 76.359352,124.78238 75.875563,122.11752 75.44613,119.71819 73.743818,117.67825 71.623856,116.54225 71.261699,116.40409 71.000607,116.25302 71.236178,115.84123 71.350807,115.34982 71.465394,114.85841 71.58,114.367 73.526202,114.44318 75.559999,114.31299 77.335,113.442 78.328473,112.92522 79.039656,111.98248 79.350553,110.91467 80.087048,108.36116 80.337412,105.69549 80.5155,103.052 81.79907,100.91863 82.984355,98.699064 83.749415,96.322237 84.011059,95.372935 84.33745,94.335948 84.0064,93.3653 83.743474,92.967187 83.234733,92.821673 82.837385,92.583773 81.093625,91.782526 79.081199,91.808477 77.25452,92.296357 74.245364,93.073577 71.546969,94.721834 69.043485,96.519232 66.304937,98.503054 63.79986,100.79073 61.408186,103.17571 59.005575,105.55269 56.830786,108.1414 54.5986,110.675 54.08223,110.98998 53.632506,111.46139 52.996353,111.49524 52.795768,111.53849 52.595184,111.58175 52.3946,111.625 M 53.0899,118.443 C 53.337349,119.08311 53.607454,119.71696 53.636525,120.41215 54.194915,123.90085 55.085286,127.37587 56.668052,130.54869 57.748083,132.68218 59.26564,134.7583 61.48997,135.78858 62.45896,136.26448 63.547221,136.44208 64.620514,136.36913 67.52864,136.27809 70.538431,135.76256 73.024733,134.1687 74.176439,133.39321 75.189743,132.37176 75.783184,131.10225 77.279824,128.32924 78.311502,125.12956 77.828521,121.95231 77.51807,119.73893 76.339068,117.69058 74.6367,116.252 76.570107,116.04634 78.632824,115.43229 79.907288,113.87078 80.713537,113.14007 81.122981,112.10804 81.392081,111.07697 82.032981,108.65288 82.30309,106.14644 82.4745,103.65 83.764799,101.49105 84.935364,99.235188 85.688084,96.828441 86.064463,95.510458 86.38792,94.05745 85.920545,92.721257 85.622719,91.821442 84.791803,91.294474 83.983083,90.901095 82.417588,90.103041 80.627224,89.861753 78.88867,89.996306 75.972132,90.271539 73.242414,91.49328 70.751196,92.978921 66.86667,95.320465 63.452089,98.349488 60.229149,101.51937 57.78165,103.93703 55.537292,106.54567 53.2957,109.152 53.005033,109.31033 52.714367,109.46867 52.4237,109.627 M 55.7643,118.714 C 54.742233,118.96967 53.720167,119.22533 52.6981,119.481 M 59.8841,127.434 C 58.159467,128.10467 56.434833,128.77533 54.7102,129.446 M 68.3159,132.512 C 68.635333,133.94933 68.954767,135.38667 69.2742,136.824 M 73.8732,120.439 C 75.342333,119.864 76.811467,119.289 78.2806,118.714 M 70.6156,115.265 C 72.180533,115.68033 73.745467,116.09567 75.3104,116.511 M 76.2687,112.678 C 76.971333,113.828 77.673967,114.978 78.3766,116.128 M 79.2389,106.259 C 80.452533,106.259 81.666167,106.259 82.8798,106.259 M 82.3049,93.9944 C 83.582467,93.0682 84.860033,92.142 86.1376,91.2158 M 72.3402,94.7609 C 71.7014,93.7069 71.0626,92.6529 70.4238,91.5989 M 57.0097,108.846 C 56.051567,107.88767 55.093433,106.92933 54.1353,105.971"
         style="fill:none;stroke:#000000;stroke-width:0.264583"
         inkstitch:satin_column="True"
         inkstitch:contour_underlay="True"
         inkstitch:pull_compensation_mm="0.2"
         inkscape:label="Satin 0"
         id="path119"
         inkstitch:min_stitch_length_mm="1" /></g><path
       d="M 52.1914,118.523 54.153335,118.48583 C 55.744311,127.0764 57.774604,130.47112 59.178963,132.84365 61.506897,136.77646 69.455996,135.29462 73.038251,132.97264 75.294562,131.51012 75.59384,129.08485 75.912482,128.8076"
       style="display:inline;fill:none;stroke:#000000;stroke-width:0.264583"
       inkscape:label="Running Stitch"
       inkstitch:running_stitch_length_mm="2.5"
       inkstitch:running_stitch_tolerance_mm="0.5"
       id="path133"
       sodipodi:nodetypes="ccssc"
       inkstitch:satin_column="False"
       inkstitch:stroke_method="running_stitch"
       transform="matrix(-1 0 0 1 105.098 0)" /><use
       x="0"
       y="0"
       xlink:href="#g46"
       id="use132"
       transform="matrix(-1 0 0 1 105.194 0)"
       inkscape:label="left wing" /><path
       id="path18"
       style="fill:none;stroke:#000000;stroke-width:0.264583"
       d="M 52.896342,105.95625 C 52.896342,105.95625 54.254757,106.26189 54.322678,107.75614 54.390598,109.2504 54.424558,112.64643 54.424558,112.64643 54.424558,112.64643 54.628319,117.19712 54.560398,117.53672 54.492478,117.87632 54.526438,120.42335 54.526438,120.76295 54.526438,121.10256 54.526438,123.27602 54.424557,123.92126 54.322677,124.56651 53.88119,126.0268 52.862381,126.87581 M 52.366837,105.95625 C 52.366837,105.95625 50.80466,106.19397 50.736739,107.68822 50.668819,109.18248 50.634859,112.57851 50.634859,112.57851 50.634859,112.57851 50.431098,117.1292 50.499019,117.4688 50.566939,117.8084 50.532979,120.35543 50.532979,120.69503 50.532979,121.03464 50.532979,123.2081 50.63486,123.85334 50.73674,124.49859 51.246148,126.09472 52.264957,126.94373 M 50.295257,107.07694 H 54.60822 M 49.887733,114.07277 H 55.185546 M 50.974464,126.16265 H 54.336537"
       sodipodi:nodetypes="cscsssccscsssccccccc"
       inkscape:label="Satin"
       inkstitch:satin_column="True"
       inkstitch:contour_underlay="True"
       inkstitch:zigzag_underlay="True" /></g></svg>
