<?xml version="1.0" encoding="UTF-8" standalone="no"?>
<!-- Created with Inkscape (http://www.inkscape.org/) -->

<svg
   width="105mm"
   height="148mm"
   viewBox="0 0 105 148"
   version="1.1"
   id="svg1"
   xml:space="preserve"
   inkscape:version="1.4.4 (dcaf3e7d9e, 2026-05-05)"
   sodipodi:docname="03_multicolor_satin.svg"
   xmlns:inkscape="http://www.inkscape.org/namespaces/inkscape"
   xmlns:sodipodi="http://sodipodi.sourceforge.net/DTD/sodipodi-0.dtd"
   xmlns="http://www.w3.org/2000/svg"
   xmlns:svg="http://www.w3.org/2000/svg"
   xmlns:inkstitch="http://inkstitch.org/namespace"><sodipodi:namedview
     id="namedview1"
     pagecolor="#ffffff"
     bordercolor="#666666"
     borderopacity="1.0"
     inkscape:showpageshadow="2"
     inkscape:pageopacity="0.0"
     inkscape:pagecheckerboard="0"
     inkscape:deskcolor="#d1d1d1"
     inkscape:document-units="mm"
     showgrid="true"
     showguides="true"
     inkscape:zoom="2.944885"
     inkscape:cx="201.70567"
     inkscape:cy="436.34981"
     inkscape:window-width="1920"
     inkscape:window-height="1131"
     inkscape:window-x="0"
     inkscape:window-y="0"
     inkscape:window-maximized="1"
     inkscape:current-layer="g37"
     inkscape:lockguides="false"><inkscape:grid
       id="grid1"
       units="mm"
       originx="0"
       originy="0"
       spacingx="1"
       spacingy="1"
       empcolor="#0099e5"
       empopacity="0.30196078"
       color="#0099e5"
       opacity="0.14901961"
       empspacing="5"
       enabled="true"
       visible="true" /><sodipodi:guide
       position="60,-739852.01"
       orientation="0,1"
       id="guide1"
       inkscape:locked="false"
       inkscape:label=""
       inkscape:color="rgb(0,134,229)" /><sodipodi:guide
       position="0,74.000001"
       orientation="0,1"
       id="guide2"
       inkscape:locked="false"
       inkscape:label=""
       inkscape:color="rgb(0,134,229)" /><sodipodi:guide
       position="0,197.33333"
       orientation="0,1"
       id="guide10"
       inkscape:locked="false"
       inkscape:label=""
       inkscape:color="rgb(224,27,36)" /><sodipodi:guide
       position="47.971989,19.532289"
       orientation="0,-1"
       id="guide94"
       inkscape:locked="false" /><sodipodi:guide
       position="47.948826,19.579317"
       orientation="1,0"
       id="guide95"
       inkscape:locked="false" /></sodipodi:namedview><metadata
     id="metadata18"><inkstitch:min_stitch_len_mm>0.3</inkstitch:min_stitch_len_mm><inkstitch:collapse_len_mm>11.0</inkstitch:collapse_len_mm><inkstitch:inkstitch_svg_version>4</inkstitch:inkstitch_svg_version><inkstitch:min_satin_stroke_width_mm>1.0</inkstitch:min_satin_stroke_width_mm><inkstitch:rotate_on_export /></metadata><defs
     id="defs1"><inkscape:path-effect
   center_point="52.529609,111.277"
   end_point="150.0296,111.277"
   start_point="-44.970382,111.277"
   effect="mirror_symmetry"
   id="path-effect21"
   is_visible="true"
   lpeversion="1.2"
   lpesatellites=""
   mode="Y"
   discard_orig_path="false"
   fuse_paths="false"
   oposite_fuse="false"
   split_items="false"
   split_open="false"
   link_styles="false" /><inkscape:path-effect
   effect="offset"
   id="path-effect2"
   is_visible="true"
   lpeversion="1.3"
   linejoin_type="miter"
   unit="mm"
   offset="4"
   miter_limit="4"
   attempt_force_join="false"
   update_on_knot_move="true" /><inkscape:path-effect
   effect="offset"
   id="path-effect7"
   is_visible="true"
   lpeversion="1.3"
   linejoin_type="miter"
   unit="mm"
   offset="4"
   miter_limit="4"
   attempt_force_join="false"
   update_on_knot_move="true" /><inkscape:path-effect
   center_point="53.000002,110.79823"
   end_point="53.000002,133.01515"
   start_point="53.000002,88.581308"
   effect="mirror_symmetry"
   id="path-effect6"
   is_visible="true"
   lpeversion="1.2"
   lpesatellites=""
   mode="free"
   discard_orig_path="false"
   fuse_paths="false"
   oposite_fuse="false"
   split_items="false"
   split_open="false"
   link_styles="false" /><symbol
   id="inkstitch_ignore_layer"
   transform="scale(0.25, 0.25)"
   style="opacity:0.7">
      <title
   id="title9694">Ignore entire layer when generating stitch plan</title>
      <path
   inkscape:connector-curvature="0"
   style="opacity:1;vector-effect:none;fill:#fafafa;fill-opacity:1;fill-rule:evenodd;stroke:#ff0000;stroke-width:1.06501234;stroke-linecap:round;stroke-linejoin:miter;stroke-miterlimit:4;stroke-dasharray:3.19503705, 3.19503705;stroke-dashoffset:0;stroke-opacity:1"
   d="M 9.2465269,-4.9265995e-6 C 9.246525,5.1067241 5.1067028,9.2465451 -2.615882e-5,9.2465451 -5.1067554,9.2465451 -9.2465782,5.1067241 -9.2465801,-4.9265995e-6 -9.24658,-2.4523429 -8.2723922,-4.8042399 -6.538327,-6.5383059 c 1.7340653,-1.734065 4.0859624,-2.708252 6.53830084118,-2.708252 5.10673015882,0 9.24655285882,4.139823 9.24655305882,9.2465529734005 0,0 0,0 0,0"
   id="inkstitch_path25368-7"
   inkstitch:max_stitch_length_mm="3" />
      <path
   sodipodi:nodetypes="ccccc"
   inkscape:connector-curvature="0"
   style="color:#000000;fill:#d5d5d5;fill-opacity:1;fill-rule:evenodd;stroke:#5a5a5a;stroke-width:0.63330007;stroke-linecap:square;stroke-linejoin:round;stroke-miterlimit:0;stroke-opacity:1"
   d="M 4,4.452769 1.46667,1.286102 H -5.5 l 2.53333,3.166667 z"
   id="use5800"
   inkstitch:max_stitch_length_mm="3" />
      <path
   sodipodi:nodetypes="ccccc"
   inkscape:connector-curvature="0"
   style="color:#000000;opacity:0.5;fill:#d5d5d5;fill-opacity:1;fill-rule:evenodd;stroke:#858585;stroke-width:0.63339424;stroke-linecap:square;stroke-linejoin:round;stroke-miterlimit:0;stroke-opacity:1"
   d="M 4,2.552769 1.46667,-0.613898 H -5.5 l 2.53333,3.166667 z"
   id="use5864"
   inkstitch:max_stitch_length_mm="3" />
      <g
   id="g5771">
        <path
   sodipodi:nodetypes="ccccccccc"
   inkscape:connector-curvature="0"
   style="fill:#aa0000;fill-rule:evenodd;stroke:#aa0000;stroke-width:1px"
   d="m -1.0666699,-5.0472339 h 4.4333333 l 0.6333333,0.6333333 V 0.01943274 L 3.3666634,0.65276607 H -1.0666699 L -1.7000032,0.01943274 V -4.4139006 Z"
   id="path8011"
   inkstitch:max_stitch_length_mm="3" />
        <path
   inkscape:connector-curvature="0"
   id="path8023"
   d="m -0.43333658,-3.8755672 c 0,0 3.16666668,3.16666661 3.16666668,3.16666661"
   style="fill:none;stroke:#ffffff;stroke-width:1.70000005" />
        <path
   inkscape:connector-curvature="0"
   id="path8025"
   d="m 2.7333301,-3.8755672 c 0,0 -3.16666668,3.16666661 -3.16666668,3.16666661"
   style="fill:none;stroke:#ffffff;stroke-width:1.79999995;stroke-linejoin:round" />
      </g>
    </symbol>
    <marker
   refX="10"
   refY="5"
   orient="auto"
   id="inkstitch-guide-line-marker"
   markerUnits="userSpaceOnUse"
   markerWidth="0.1"
   viewBox="0 0 1 1">
     <g
   id="inkstitch-guide-line-group">
       <path
   style="fill:#fafafa;fill-opacity:0.8;stroke:#ff5500;stroke-width:0.5;stroke-linecap:round;stroke-linejoin:miter;stroke-miterlimit:4;stroke-dasharray:1, 1;stroke-dashoffset:0;stroke-opacity:1"
   d="M 10.12911,5.2916678 A 4.8374424,4.8374426 0 0 1 5.2916656,10.12911 4.8374424,4.8374426 0 0 1 0.45422399,5.2916678 4.8374424,4.8374426 0 0 1 5.2916656,0.45422399 4.8374424,4.8374426 0 0 1 10.12911,5.2916678 Z"
   id="inkstitch-guide-line-marker-circle"
   inkstitch:max_stitch_length_mm="3" />
       <path
   style="fill:none;stroke:#000000;stroke-width:0.4;stroke-linecap:round;stroke-miterlimit:4"
   id="inkstitch-guide-line-marker-spiral"
   d="M 1.7506092,6.2728168 3.4558825,5.2833684 7.1038696,7.400035 8.8193256,6.4046783 M 1.7963222,4.129626 3.4558825,3.1667016 7.1038696,5.2833682 8.8475785,4.2716184 M 1.6318889,5.2833683 3.4558825,4.225035 7.1038696,6.3417016 8.9558408,5.2677331" />
     </g>
    </marker><marker
   refX="10"
   refY="5"
   orient="auto"
   id="inkstitch-guide-line-marker-1"
   markerUnits="userSpaceOnUse"
   markerWidth="0.1"
   viewBox="0 0 1 1"><g
     id="inkstitch-guide-line-group-5"><path
       style="fill:#fafafa;fill-opacity:0.8;stroke:#ff5500;stroke-width:0.5;stroke-linecap:round;stroke-linejoin:miter;stroke-miterlimit:4;stroke-dasharray:1, 1;stroke-dashoffset:0;stroke-opacity:1"
       d="M 10.12911,5.2916678 A 4.8374424,4.8374426 0 0 1 5.2916656,10.12911 4.8374424,4.8374426 0 0 1 0.45422399,5.2916678 4.8374424,4.8374426 0 0 1 5.2916656,0.45422399 4.8374424,4.8374426 0 0 1 10.12911,5.2916678 Z"
       id="inkstitch-guide-line-marker-circle-9"
       inkstitch:max_stitch_length_mm="3" /><path
       style="fill:none;stroke:#000000;stroke-width:0.4;stroke-linecap:round;stroke-miterlimit:4"
       id="inkstitch-guide-line-marker-spiral-7"
       d="M 1.7506092,6.2728168 3.4558825,5.2833684 7.1038696,7.400035 8.8193256,6.4046783 M 1.7963222,4.129626 3.4558825,3.1667016 7.1038696,5.2833682 8.8475785,4.2716184 M 1.6318889,5.2833683 3.4558825,4.225035 7.1038696,6.3417016 8.9558408,5.2677331" /></g></marker><marker
   refX="10"
   refY="5"
   orient="auto"
   id="marker2"
   markerUnits="userSpaceOnUse"
   markerWidth="0.1"
   viewBox="0 0 1 1"><g
     id="g2-5"><path
       style="fill:#fafafa;fill-opacity:0.8;stroke:#ff5500;stroke-width:0.5;stroke-linecap:round;stroke-linejoin:miter;stroke-miterlimit:4;stroke-dasharray:1, 1;stroke-dashoffset:0;stroke-opacity:1"
       d="M 10.12911,5.2916678 A 4.8374424,4.8374426 0 0 1 5.2916656,10.12911 4.8374424,4.8374426 0 0 1 0.45422399,5.2916678 4.8374424,4.8374426 0 0 1 5.2916656,0.45422399 4.8374424,4.8374426 0 0 1 10.12911,5.2916678 Z"
       id="path1"
       inkstitch:max_stitch_length_mm="3" /><path
       style="fill:none;stroke:#000000;stroke-width:0.4;stroke-linecap:round;stroke-miterlimit:4"
       id="path2-6"
       d="M 1.7506092,6.2728168 3.4558825,5.2833684 7.1038696,7.400035 8.8193256,6.4046783 M 1.7963222,4.129626 3.4558825,3.1667016 7.1038696,5.2833682 8.8475785,4.2716184 M 1.6318889,5.2833683 3.4558825,4.225035 7.1038696,6.3417016 8.9558408,5.2677331" /></g></marker><marker
   refX="10"
   refY="5"
   orient="auto"
   id="marker4"
   markerUnits="userSpaceOnUse"
   markerWidth="0.1"
   viewBox="0 0 1 1"><g
     id="g4"><path
       style="fill:#fafafa;fill-opacity:0.8;stroke:#ff5500;stroke-width:0.5;stroke-linecap:round;stroke-linejoin:miter;stroke-miterlimit:4;stroke-dasharray:1, 1;stroke-dashoffset:0;stroke-opacity:1"
       d="M 10.12911,5.2916678 A 4.8374424,4.8374426 0 0 1 5.2916656,10.12911 4.8374424,4.8374426 0 0 1 0.45422399,5.2916678 4.8374424,4.8374426 0 0 1 5.2916656,0.45422399 4.8374424,4.8374426 0 0 1 10.12911,5.2916678 Z"
       id="path3"
       inkstitch:max_stitch_length_mm="3" /><path
       style="fill:none;stroke:#000000;stroke-width:0.4;stroke-linecap:round;stroke-miterlimit:4"
       id="path4"
       d="M 1.7506092,6.2728168 3.4558825,5.2833684 7.1038696,7.400035 8.8193256,6.4046783 M 1.7963222,4.129626 3.4558825,3.1667016 7.1038696,5.2833682 8.8475785,4.2716184 M 1.6318889,5.2833683 3.4558825,4.225035 7.1038696,6.3417016 8.9558408,5.2677331" /></g></marker><marker
   refX="10"
   refY="5"
   orient="auto"
   id="marker6"
   markerUnits="userSpaceOnUse"
   markerWidth="0.1"
   viewBox="0 0 1 1"><g
     id="g6"><path
       style="fill:#fafafa;fill-opacity:0.8;stroke:#ff5500;stroke-width:0.5;stroke-linecap:round;stroke-linejoin:miter;stroke-miterlimit:4;stroke-dasharray:1, 1;stroke-dashoffset:0;stroke-opacity:1"
       d="M 10.12911,5.2916678 A 4.8374424,4.8374426 0 0 1 5.2916656,10.12911 4.8374424,4.8374426 0 0 1 0.45422399,5.2916678 4.8374424,4.8374426 0 0 1 5.2916656,0.45422399 4.8374424,4.8374426 0 0 1 10.12911,5.2916678 Z"
       id="path5-3"
       inkstitch:max_stitch_length_mm="3" /><path
       style="fill:none;stroke:#000000;stroke-width:0.4;stroke-linecap:round;stroke-miterlimit:4"
       id="path6"
       d="M 1.7506092,6.2728168 3.4558825,5.2833684 7.1038696,7.400035 8.8193256,6.4046783 M 1.7963222,4.129626 3.4558825,3.1667016 7.1038696,5.2833682 8.8475785,4.2716184 M 1.6318889,5.2833683 3.4558825,4.225035 7.1038696,6.3417016 8.9558408,5.2677331" /></g></marker><symbol
   id="inkstitch_autoroute_start"
   style="display:inline;opacity:0.7"
   transform="scale(0.25, 0.25)">
      <title
   id="inkstitch_title9427-3">Running stitch starting point</title>
      <path
   style="opacity:1;vector-effect:none;fill:#fafafa;fill-opacity:1;fill-rule:evenodd;stroke:#003399;stroke-width:1.06500006;stroke-linecap:round;stroke-linejoin:miter;stroke-miterlimit:4;stroke-dasharray:3.19500017, 3.19500017;stroke-dashoffset:0;stroke-opacity:1"
   d="M 9.2201108,0.05852023 A 9.2576327,9.2122261 0 0 1 -0.03752532,9.2707454 9.2576327,9.2122261 0 0 1 -9.2951565,0.05852023 9.2576327,9.2122261 0 0 1 -0.03752532,-9.1537082 9.2576327,9.2122261 0 0 1 9.2201108,0.05852023 Z"
   id="inkstitch-autorun_start-circle"
   inkstitch:max_stitch_length_mm="3" />
      <path
   style="fill:#000000"
   id="inkstitch-autorun_start-path"
   d="M -3.8159516,-5.6184574 c -0.3237427,0.020819 -0.5868063,0.2896236 -0.5907925,0.6167873 -0.00301,0.2444103 0.1384108,0.4575508 0.3447536,0.5613983 l -0.084402,6.772037 c -0.1244867,-0.03501 -0.2442949,-0.092709 -0.3519231,-0.1734001 -0.018852,-0.014824 -0.04551,-0.014824 -0.064361,0 -0.018491,0.013861 -0.025495,0.038228 -0.017164,0.05968 l 0.6437207,1.8106215 c 0.016803,0.044746 0.080472,0.044746 0.097275,0 l 0.6923582,-1.7949729 c 0.01924,-0.049558 -0.04036,-0.092132 -0.081524,-0.058277 -0.1120849,0.077886 -0.2339971,0.131597 -0.3605046,0.1634443 l 0.078701,-6.7706068 c 0.2092494,-0.097934 0.3546084,-0.3086274 0.3576257,-0.5542753 0.00418,-0.34328 -0.2710359,-0.6282831 -0.6165645,-0.632436 -0.016194,-1.924e-4 -0.031281,-0.00102 -0.047198,-3e-7 z m 0.9498575,1.1369602 c -0.042382,0.00503 -0.060846,0.055939 -0.031474,0.086686 l 1.2703061,1.4510604 c 0.035433,0.033525 0.093621,0.00416 0.087254,-0.044058 -0.016443,-0.1368774 -0.00712,-0.2718022 0.025745,-0.3993565 l 5.8279214,3.19201934 c -0.00955,0.23010929 0.1105352,0.45752327 0.3261511,0.57558932 0.3026489,0.1656996 0.6815068,0.0590468 0.8482917,-0.24160502 0.1667849,-0.30067931 0.059461,-0.68276459 -0.2431877,-0.84846414 -0.216862,-0.11872613 -0.4758284,-0.0980447 -0.6666138,0.0341025 l -5.8250435,-3.1905893 c 0.090438,-0.093452 0.1986471,-0.1708699 0.32186037,-0.2274139 0.044292,-0.022937 0.033578,-0.088721 -0.015724,-0.096642 L -2.8489315,-4.4800672 c -0.00556,-0.00146 -0.011405,-0.00189 -0.017162,-0.00146 z m 6.9651605,5.10354566 -1.909736,0.3126702 c -0.047392,0.011523 -0.054063,0.075768 -0.01,0.096642 0.1244589,0.057067 0.2344955,0.1342923 0.3261511,0.2273865 L -3.4211257,4.5999927 C -3.6139873,4.4704034 -3.8733966,4.4493919 -4.0877673,4.5701537 -4.38834,4.7394835 -4.4899335,5.1199736 -4.3194944,5.4186179 c 0.170439,0.2986167 0.5534215,0.4066446 0.8540219,0.2373147 0.2139276,-0.1204863 0.3297497,-0.3481203 0.3175695,-0.5769918 L 2.778711,1.7376949 c 0.03333,0.1260415 0.043323,0.2590963 0.027184,0.3936635 -0.00791,0.053024 0.060763,0.081379 0.092985,0.038365 L 4.1477039,0.70304186 c 0.026048,-0.036523 -0.00388,-0.086439 -0.048637,-0.0809934 Z"
   inkstitch:max_stitch_length_mm="3" />
    </symbol>
    <symbol
   id="inkstitch_autoroute_end"
   style="display:inline;opacity:0.7"
   transform="scale(0.25, 0.25)">
      <title
   id="inkstitch_title9427-3-1">Running stitch ending point</title>
       <path
   style="opacity:1;vector-effect:none;fill:#fafafa;fill-opacity:1;fill-rule:evenodd;stroke:#003399;stroke-width:1.06500006;stroke-linecap:round;stroke-linejoin:miter;stroke-miterlimit:4;stroke-dasharray:3.19500017, 3.19500017;stroke-dashoffset:0;stroke-opacity:1"
   d="M 9.2201108,0.05852023 A 9.2576327,9.2122261 0 0 1 -0.03752532,9.2707454 9.2576327,9.2122261 0 0 1 -9.2951565,0.05852023 9.2576327,9.2122261 0 0 1 -0.03752532,-9.1537082 9.2576327,9.2122261 0 0 1 9.2201108,0.05852023 Z"
   id="inkstitch-autorun_end-circle"
   inkstitch:max_stitch_length_mm="3" />
       <path
   style="fill:#000000"
   id="inkstitch-autorun_end-path"
   d="M -1.5977169,-4.8605484 c -0.00319,1.523e-4 -0.00643,6.284e-4 -0.00955,0.00139 l -1.738218,0.6114515 c -0.044131,0.013274 -0.04771,0.07406 -0.00546,0.092381 l 1.7286718,0.6522048 c 0.042543,0.011464 0.077832,-0.033916 0.055977,-0.072004 -0.075631,-0.1076723 -0.1279528,-0.2256474 -0.1583813,-0.3478501 l 5.3580083,0.0693 C 3.7283489,-3.6574881 3.9289854,-3.5209456 4.163113,-3.51807 4.4929661,-3.51396 4.7679522,-3.7755203 4.7721242,-4.1036793 4.7763142,-4.4318766 4.5079699,-4.70559 4.178155,-4.7096844 3.9431472,-4.7126044 3.7385104,-4.5784741 3.6388043,-4.38223 l -5.3566689,-0.065225 c 0.033509,-0.1204507 0.089391,-0.2361787 0.1679695,-0.3396805 0.019712,-0.034678 -0.00793,-0.077126 -0.047786,-0.073375 z m -2.6203001,0.2119742 c -0.3227531,0.0041 -0.5844387,0.2625539 -0.5884958,0.5856093 -0.00295,0.2329983 0.129063,0.4383262 0.3236143,0.5394287 l -0.065546,5.2964025 c -0.1188053,-0.03344 -0.233209,-0.088553 -0.3359005,-0.1657553 -0.018028,-0.014169 -0.043442,-0.014169 -0.061451,0 -0.016535,0.013426 -0.022582,0.035878 -0.015004,0.055721 l 0.6130875,1.7310434 c 0.013338,0.043896 0.074426,0.047476 0.092855,0.00543 l 0.6608737,-1.7201931 c 0.021243,-0.048142 -0.037912,-0.091505 -0.077832,-0.057054 -0.1085476,0.075489 -0.2269701,0.1273635 -0.3495646,0.1576047 l 0.069641,-5.2950505 c 0.1995845,-0.095713 0.3397855,-0.2989653 0.3427327,-0.5326301 0.00412,-0.3281781 -0.2641734,-0.5964641 -0.5939692,-0.6005585 -0.00519,-7.62e-5 -0.00991,-7.62e-5 -0.015023,0 z m 8.4425639,1.3302136 c -0.020458,-1.333e-4 -0.038925,0.012283 -0.046428,0.03125 l -0.6608735,1.714742 c -0.021243,0.04818 0.037931,0.091524 0.077851,0.057054 0.1072273,-0.074556 0.2244441,-0.1271727 0.3454502,-0.1576044 L 3.8750009,3.6234841 C 3.6760287,3.7194257 3.5366315,3.9202022 3.5336461,4.15341 3.529436,4.4816071 3.7964416,4.7512453 4.1262565,4.7553397 4.4560331,4.759449 4.726962,4.4979085 4.731134,4.1697112 4.7341354,3.934523 4.5996979,3.7276145 4.4020654,3.6275594 L 4.4703294,-1.66612 c 0.1197239,0.033383 0.2338597,0.08802 0.3372785,0.1657745 0.039309,0.032355 0.096166,-0.00834 0.077832,-0.055721 L 4.2709744,-3.2871101 c -0.00748,-0.018949 -0.02595,-0.031384 -0.046428,-0.031251 z M 1.5114302,3.6180947 c -0.037451,6.856e-4 -0.060627,0.040868 -0.042351,0.073356 0.075823,0.1079391 0.1280103,0.2267139 0.1584006,0.3492023 L -3.7305473,3.971372 c -0.096108,-0.1988532 -0.2989079,-0.338138 -0.5338966,-0.3410517 -0.3297958,-0.0041 -0.5994042,0.2615256 -0.6035188,0.5896847 -0.00413,0.3281972 0.2627956,0.6019488 0.5926104,0.6060241 0.2345678,0.00292 0.4394534,-0.1304295 0.5393508,-0.3261024 l 5.3580084,0.063873 C 1.5885549,4.684593 1.5314859,4.7996924 1.4526979,4.90348 1.4299049,4.942272 1.4668789,4.9887 1.5100529,4.975503 L 3.2496085,4.3640511 c 0.043002,-0.015959 0.043002,-0.076441 0,-0.0924 L 1.5250561,3.6194659 c -0.00446,-0.00112 -0.00905,-0.00154 -0.013665,-0.00139 Z"
   inkstitch:max_stitch_length_mm="3" />
    </symbol>
    <marker
   orient="auto"
   id="inkstitch-needle-point-marker"
   markerWidth="0.1">
       <circle
   cx="0"
   cy="0"
   r="1.5"
   style="fill:context-stroke;opacity:0.8;"
   id="circle56" />
    </marker>
  <filter
   style="color-interpolation-filters:sRGB"
   id="realistic-stitch-filter"
   x="0"
   width="1"
   y="0"
   height="1"
   inkscape:auto-region="false"><feGaussianBlur
     edgeMode="none"
     stdDeviation="0.9"
     in="SourceAlpha"
     id="feGaussianBlur44" /><feSpecularLighting
     result="result2"
     surfaceScale="4.29"
     specularConstant="0.65"
     specularExponent="1.6"
     id="feSpecularLighting44"><feDistantLight
       azimuth="154"
       elevation="112"
       id="feDistantLight44" /></feSpecularLighting><feComposite
     in2="SourceAlpha"
     operator="atop"
     id="feComposite44" /><feComposite
     in2="SourceGraphic"
     operator="arithmetic"
     result="result3"
     k1="0"
     k2="0.8"
     k3="1.2"
     k4="0"
     id="feComposite45" /></filter></defs><g
     inkscape:label="Embroidery"
     inkscape:groupmode="layer"
     id="layer1"
     style="display:inline;opacity:1"><g
       inkscape:label="Multicolor Satin Group Backup"
       inkstitch:satin-multicolor="{&quot;equidistance&quot;: false, &quot;monochrome_width&quot;: 0.0, &quot;colors&quot;: [{&quot;value&quot;: &quot;#26A269&quot;, &quot;width&quot;: 15.0, &quot;margin_right&quot;: 43.0}, {&quot;value&quot;: &quot;#1A5FB4&quot;, &quot;width&quot;: 6.0, &quot;margin_right&quot;: 30.0}, {&quot;value&quot;: &quot;#000000&quot;, &quot;width&quot;: 6.0, &quot;margin_right&quot;: 20.0}], &quot;overflow_left&quot;: 0.0, &quot;overflow_right&quot;: 0.0, &quot;pull_compensation&quot;: 0.8, &quot;seed&quot;: &quot;1782820736.5396109&quot;, &quot;adjust_underlay_per_color&quot;: false}"
       id="g37"
       style="display:none"><path
         id="path35"
         style="display:inline;fill:none;stroke:#26a269;stroke-width:0.264583px"
         inkscape:label="path5511 1 0 0"
         d="M 45.9854,132.186 C 44.7831,133.857 42.9225,135.271 40.7748,135.208 37.8407,135.175 34.7464,134.689 32.3033,132.953 30.7986,131.937 30.0296,130.249 29.3067,128.651 28.1205,125.924 27.5531,122.619 28.9883,119.875 29.8315,118.197 32.6392,115.685 32.6392,115.685 32.2076,114.562 27.92,116.006 25.4283,112.427 23.8112,109.447 24.4307,106.864 23.5451,103.195 22.7716,101.468 21.861,99.8072 21.0314,98.1088 20.337,96.5072 19.7237,94.6704 20.2183,92.9311 20.7572,92.1394 21.7752,91.8663 22.618,91.5164 25.4839,90.5638 28.5355,91.5001 31.1678,92.7135 33.478524,93.842536 35.634088,95.25138 37.674121,96.815067 M 50.9535,120.082 51.0392,109.742 M 51.6436,113.4 29.5394,116.175"
         inkstitch:satin_column="True"
         inkstitch:center_walk_underlay="False"
         inkstitch:contour_underlay="False"
         inkstitch:zigzag_underlay="False"
         inkstitch:satin_method="satin_column"
         inkstitch:zigzag_spacing_mm="0.6"
         inkstitch:swap_satin_rails="False"
         inkstitch:start_at_nearest_point="False"
         inkstitch:end_at_nearest_point="False"
         sodipodi:nodetypes="ccccccccccccccccc"
         inkstitch:split_method="staggered"
         inkstitch:max_stitch_length_mm="7"
         inkstitch:split_staggers="2"
         inkstitch:reverse_rails="none"
         inkstitch:short_stitch_inset="50 20"
         inkstitch:pull_compensation_mm="0.8"
         inkstitch:random_seed="1782820736.5396109"
         inkstitch:random_width_increase_percent="43.0 0"
         inkstitch:random_width_decrease_percent="0 -0.0"
         inkstitch:pull_compensation_percent="-85.0 0"
         inkstitch:running_stitch_position="92.5"
         inkstitch:short_stitch_distance_mm="0.4"
         inkstitch:min_stitch_length_mm="1" /><path
         id="path36"
         style="display:inline;fill:none;stroke:#1a5fb4;stroke-width:0.264583px"
         inkscape:label="path5511 1 0 0"
         d="M 45.9854,132.186 C 44.7831,133.857 42.9225,135.271 40.7748,135.208 37.8407,135.175 34.7464,134.689 32.3033,132.953 30.7986,131.937 30.0296,130.249 29.3067,128.651 28.1205,125.924 27.5531,122.619 28.9883,119.875 29.8315,118.197 32.6392,115.685 32.6392,115.685 32.2076,114.562 27.92,116.006 25.4283,112.427 23.8112,109.447 24.4307,106.864 23.5451,103.195 22.7716,101.468 21.861,99.8072 21.0314,98.1088 20.337,96.5072 19.7237,94.6704 20.2183,92.9311 20.7572,92.1394 21.7752,91.8663 22.618,91.5164 25.4839,90.5638 28.5355,91.5001 31.1678,92.7135 33.478524,93.842536 35.634088,95.25138 37.674121,96.815067 M 50.9535,120.082 51.0392,109.742 M 51.6436,113.4 29.5394,116.175"
         inkstitch:satin_column="True"
         inkstitch:center_walk_underlay="False"
         inkstitch:contour_underlay="False"
         inkstitch:zigzag_underlay="False"
         inkstitch:satin_method="satin_column"
         inkstitch:zigzag_spacing_mm="0.6"
         inkstitch:swap_satin_rails="True"
         inkstitch:start_at_nearest_point="False"
         inkstitch:end_at_nearest_point="False"
         sodipodi:nodetypes="ccccccccccccccccc"
         inkstitch:split_method="staggered"
         inkstitch:max_stitch_length_mm="7"
         inkstitch:split_staggers="2"
         inkstitch:reverse_rails="none"
         inkstitch:short_stitch_inset="50 20"
         inkstitch:pull_compensation_mm="0.8"
         inkstitch:random_seed="1782820736.5396109"
         inkstitch:random_width_increase_percent="0 30.0"
         inkstitch:random_width_decrease_percent="-43.0 0"
         inkstitch:pull_compensation_percent="-58.0 -36.0"
         inkstitch:running_stitch_position="61.0"
         inkstitch:short_stitch_distance_mm="0.4"
         inkstitch:min_stitch_length_mm="1" /><path
         id="path37"
         style="display:inline;fill:none;stroke:#000000;stroke-width:0.264583px"
         inkscape:label="path5511 1 0 0"
         d="M 45.9854,132.186 C 44.7831,133.857 42.9225,135.271 40.7748,135.208 37.8407,135.175 34.7464,134.689 32.3033,132.953 30.7986,131.937 30.0296,130.249 29.3067,128.651 28.1205,125.924 27.5531,122.619 28.9883,119.875 29.8315,118.197 32.6392,115.685 32.6392,115.685 32.2076,114.562 27.92,116.006 25.4283,112.427 23.8112,109.447 24.4307,106.864 23.5451,103.195 22.7716,101.468 21.861,99.8072 21.0314,98.1088 20.337,96.5072 19.7237,94.6704 20.2183,92.9311 20.7572,92.1394 21.7752,91.8663 22.618,91.5164 25.4839,90.5638 28.5355,91.5001 31.1678,92.7135 33.478524,93.842536 35.634088,95.25138 37.674121,96.815067 M 50.9535,120.082 51.0392,109.742 M 51.6436,113.4 29.5394,116.175"
         inkstitch:satin_column="True"
         inkstitch:center_walk_underlay="False"
         inkstitch:contour_underlay="False"
         inkstitch:zigzag_underlay="False"
         inkstitch:satin_method="satin_column"
         inkstitch:zigzag_spacing_mm="0.6"
         inkstitch:swap_satin_rails="False"
         inkstitch:start_at_nearest_point="False"
         inkstitch:end_at_nearest_point="False"
         sodipodi:nodetypes="ccccccccccccccccc"
         inkstitch:split_method="staggered"
         inkstitch:max_stitch_length_mm="7"
         inkstitch:split_staggers="2"
         inkstitch:reverse_rails="none"
         inkstitch:short_stitch_inset="50 20"
         inkstitch:pull_compensation_mm="0.8"
         inkstitch:random_seed="1782820736.5396109"
         inkstitch:random_width_increase_percent="0.0 0"
         inkstitch:random_width_decrease_percent="0 -30.0"
         inkstitch:pull_compensation_percent="0.0 -94.0"
         inkstitch:running_stitch_position="3.0"
         inkstitch:short_stitch_distance_mm="0.4"
         inkstitch:min_stitch_length_mm="1" /></g><path
       style="display:inline;opacity:1;fill:#000000;stroke:none;stroke-width:0.264583px;stroke-linecap:round;stroke-linejoin:round;paint-order:fill markers stroke"
       d="M 50.726707,111.02059 C 36.773044,94.401433 26.139222,90.806667 22.946349,91.79448 18.306888,93.229838 20.590168,96.654021 23.048134,101.08285 24.317222,103.36953 24.323578,106.77175 24.419393,107.25083 24.515207,107.7299 25.383511,112.03561 26.054215,112.99376 26.72492,113.95191 30.713178,114.44292 31.383881,114.82618 36.464058,115.88259 32.035584,117.20357 29.940839,119.88019 28.574374,123.11684 28.951494,126.85927 30.467672,130.02494 32.947428,133.67303 36.816705,134.48502 40.875977,134.8515 46.104809,134.05286 45.727054,130.39436 48.068065,126.89887 48.834585,125.94072 51.002212,120.8085 51.002212,120.8085 51.002212,120.8085 53.014326,120.61687 54.45155,121.38338 55.582936,121.98679 58.646551,131.24007 60.589377,132.90535 63.683766,135.55768 71.763105,134.27053 73.632741,130.90518 75.070887,128.31652 76.603841,122.19667 75.848721,120.98848 75.369646,120.22196 69.877752,114.96378 70.356827,114.67634 73.670118,114.32995 77.501829,114.78046 79.255972,111.22133 80.118307,109.11341 79.665205,106.89657 80.64514,103.93342 81.346286,101.81328 82.522857,100.07588 83.389462,98.299149 84.001909,97.011639 84.939508,96.04835 84.504168,93.790528 83.983897,92.139116 82.822511,91.245 77.524739,91.962232 72.131091,92.679464 59.782008,104.93791 53.744729,110.99671 Z"
       id="path49-1"
       inkstitch:fill_method="tatami_fill"
       inkstitch:angle="-45"
       inkstitch:row_spacing_mm="2"
       inkstitch:fill_underlay_row_spacing_mm="2"
       inkstitch:max_stitch_length_mm="3.5"
       sodipodi:nodetypes="cssssscssscsssssssccccc"
       inkscape:label="Underlay"
       inkstitch:fill_underlay_angle="45"
       inkstitch:skip_last="True"
       inkstitch:fill_underlay_skip_last="True" /><g
       id="g38"
       transform="matrix(-1 0 0 1 105.195 0)"
       inkscape:label="Color 1"><path
         id="path26-1-1-1-1"
         style="display:inline;opacity:0.4;fill:none;stroke:#26a269;stroke-width:0.264583px"
         inkscape:label="path5511 1 0 0"
         d="M 45.9854,132.186 C 44.7831,133.857 42.9225,135.271 40.7748,135.208 37.8407,135.175 34.7464,134.689 32.3033,132.953 30.7986,131.937 30.0296,130.249 29.3067,128.651 28.1205,125.924 27.5531,122.619 28.9883,119.875 29.8315,118.197 32.6392,115.685 32.6392,115.685 32.2076,114.562 27.92,116.006 25.4283,112.427 23.8112,109.447 24.4307,106.864 23.5451,103.195 22.7716,101.468 21.861,99.8072 21.0314,98.1088 20.337,96.5072 19.7237,94.6704 20.2183,92.9311 20.7572,92.1394 21.7752,91.8663 22.618,91.5164 25.4839,90.5638 28.5355,91.5001 31.1678,92.7135 33.478524,93.842536 35.634088,95.25138 37.674121,96.815067 M 50.9535,120.082 51.0392,109.742 M 51.6436,113.4 29.5394,116.175"
         inkstitch:satin_column="True"
         inkstitch:center_walk_underlay="False"
         inkstitch:contour_underlay="False"
         inkstitch:zigzag_underlay="False"
         inkstitch:satin_method="satin_column"
         inkstitch:zigzag_spacing_mm="0.6"
         inkstitch:swap_satin_rails="False"
         inkstitch:start_at_nearest_point="False"
         inkstitch:end_at_nearest_point="False"
         sodipodi:nodetypes="ccccccccccccccccc"
         inkstitch:split_method="staggered"
         inkstitch:max_stitch_length_mm="7"
         inkstitch:split_staggers="2"
         inkstitch:reverse_rails="none"
         inkstitch:short_stitch_inset="50 20"
         inkstitch:pull_compensation_mm="0.8"
         inkstitch:random_seed="1782820736.5396109"
         inkstitch:random_width_increase_percent="43.0 0"
         inkstitch:random_width_decrease_percent="0 -0.0"
         inkstitch:pull_compensation_percent="-85.0 0"
         inkstitch:running_stitch_position="92.5"
         inkstitch:short_stitch_distance_mm="0.4"
         inkstitch:min_stitch_length_mm="1"
         transform="matrix(-1 0 0 1 105.195 0)" /><path
         d="M 53.5808,110.298 51.872454,117.95296 49.5233,123.566"
         style="fill:none;stroke:#26a269;stroke-width:0.264583"
         inkscape:label="Running Stitch"
         inkstitch:running_stitch_length_mm="2.5"
         inkstitch:running_stitch_tolerance_mm="0.0"
         id="path40"
         sodipodi:nodetypes="ccc" /><path
         id="path31"
         style="display:inline;fill:none;stroke:#26a269;stroke-width:0.264583px"
         inkscape:label="path5511 1 0 0"
         d="M 45.9854,132.186 C 44.7831,133.857 42.9225,135.271 40.7748,135.208 37.8407,135.175 34.7464,134.689 32.3033,132.953 30.7986,131.937 30.0296,130.249 29.3067,128.651 28.1205,125.924 27.5531,122.619 28.9883,119.875 29.8315,118.197 32.6392,115.685 32.6392,115.685 32.2076,114.562 27.92,116.006 25.4283,112.427 23.8112,109.447 24.4307,106.864 23.5451,103.195 22.7716,101.468 21.861,99.8072 21.0314,98.1088 20.337,96.5072 19.7237,94.6704 20.2183,92.9311 20.7572,92.1394 21.7752,91.8663 22.618,91.5164 25.4839,90.5638 28.5355,91.5001 31.1678,92.7135 33.478524,93.842536 35.634088,95.25138 37.674121,96.815067 M 50.9535,120.082 51.0392,109.742 M 51.6436,113.4 29.5394,116.175"
         inkstitch:satin_column="True"
         inkstitch:center_walk_underlay="False"
         inkstitch:contour_underlay="False"
         inkstitch:zigzag_underlay="False"
         inkstitch:satin_method="satin_column"
         inkstitch:zigzag_spacing_mm="0.6"
         inkstitch:swap_satin_rails="False"
         inkstitch:start_at_nearest_point="False"
         inkstitch:end_at_nearest_point="False"
         sodipodi:nodetypes="ccccccccccccccccc"
         inkstitch:split_method="staggered"
         inkstitch:max_stitch_length_mm="7"
         inkstitch:split_staggers="2"
         inkstitch:reverse_rails="none"
         inkstitch:short_stitch_inset="50 20"
         inkstitch:pull_compensation_mm="0.8"
         inkstitch:random_seed="1782820736.5396109"
         inkstitch:random_width_increase_percent="43.0 0"
         inkstitch:random_width_decrease_percent="0 -0.0"
         inkstitch:pull_compensation_percent="-85.0 0"
         inkstitch:running_stitch_position="92.5"
         inkstitch:short_stitch_distance_mm="0.4"
         inkstitch:min_stitch_length_mm="1" /></g><g
       id="g39"
       transform="matrix(-1 0 0 1 105.195 0)"
       inkscape:label="Color 2"><path
         id="path26-1-1-1-1-1"
         style="display:inline;opacity:0.4;fill:none;stroke:#1a5fb4;stroke-width:0.264583px"
         inkscape:label="path5511 1 0 0"
         d="M 45.9854,132.186 C 44.7831,133.857 42.9225,135.271 40.7748,135.208 37.8407,135.175 34.7464,134.689 32.3033,132.953 30.7986,131.937 30.0296,130.249 29.3067,128.651 28.1205,125.924 27.5531,122.619 28.9883,119.875 29.8315,118.197 32.6392,115.685 32.6392,115.685 32.2076,114.562 27.92,116.006 25.4283,112.427 23.8112,109.447 24.4307,106.864 23.5451,103.195 22.7716,101.468 21.861,99.8072 21.0314,98.1088 20.337,96.5072 19.7237,94.6704 20.2183,92.9311 20.7572,92.1394 21.7752,91.8663 22.618,91.5164 25.4839,90.5638 28.5355,91.5001 31.1678,92.7135 33.478524,93.842536 35.634088,95.25138 37.674121,96.815067 M 50.9535,120.082 51.0392,109.742 M 51.6436,113.4 29.5394,116.175"
         inkstitch:satin_column="True"
         inkstitch:center_walk_underlay="False"
         inkstitch:contour_underlay="False"
         inkstitch:zigzag_underlay="False"
         inkstitch:satin_method="satin_column"
         inkstitch:zigzag_spacing_mm="0.6"
         inkstitch:swap_satin_rails="True"
         inkstitch:start_at_nearest_point="False"
         inkstitch:end_at_nearest_point="False"
         sodipodi:nodetypes="ccccccccccccccccc"
         inkstitch:split_method="staggered"
         inkstitch:max_stitch_length_mm="7"
         inkstitch:split_staggers="2"
         inkstitch:reverse_rails="none"
         inkstitch:short_stitch_inset="50 20"
         inkstitch:pull_compensation_mm="0.8"
         inkstitch:random_seed="1782820736.5396109"
         inkstitch:random_width_increase_percent="0 30.0"
         inkstitch:random_width_decrease_percent="-43.0 0"
         inkstitch:pull_compensation_percent="-58.0 -36.0"
         inkstitch:running_stitch_position="61.0"
         inkstitch:short_stitch_distance_mm="0.4"
         inkstitch:min_stitch_length_mm="1"
         transform="matrix(-1 0 0 1 105.195 0)" /><path
         d="M 63.9867,100.233 53.207297,110.77112 50.1308,122.086"
         style="fill:none;stroke:#1a5fb4;stroke-width:0.264583"
         inkscape:label="Running Stitch"
         inkstitch:running_stitch_length_mm="2.5"
         inkstitch:running_stitch_tolerance_mm="0.0"
         id="path41"
         sodipodi:nodetypes="ccc" /><path
         id="path32"
         style="display:inline;fill:none;stroke:#1a5fb4;stroke-width:0.264583px"
         inkscape:label="path5511 1 0 0"
         d="M 45.9854,132.186 C 44.7831,133.857 42.9225,135.271 40.7748,135.208 37.8407,135.175 34.7464,134.689 32.3033,132.953 30.7986,131.937 30.0296,130.249 29.3067,128.651 28.1205,125.924 27.5531,122.619 28.9883,119.875 29.8315,118.197 32.6392,115.685 32.6392,115.685 32.2076,114.562 27.92,116.006 25.4283,112.427 23.8112,109.447 24.4307,106.864 23.5451,103.195 22.7716,101.468 21.861,99.8072 21.0314,98.1088 20.337,96.5072 19.7237,94.6704 20.2183,92.9311 20.7572,92.1394 21.7752,91.8663 22.618,91.5164 25.4839,90.5638 28.5355,91.5001 31.1678,92.7135 33.478524,93.842536 35.634088,95.25138 37.674121,96.815067 M 50.9535,120.082 51.0392,109.742 M 51.6436,113.4 29.5394,116.175"
         inkstitch:satin_column="True"
         inkstitch:center_walk_underlay="False"
         inkstitch:contour_underlay="False"
         inkstitch:zigzag_underlay="False"
         inkstitch:satin_method="satin_column"
         inkstitch:zigzag_spacing_mm="0.6"
         inkstitch:swap_satin_rails="True"
         inkstitch:start_at_nearest_point="False"
         inkstitch:end_at_nearest_point="False"
         sodipodi:nodetypes="ccccccccccccccccc"
         inkstitch:split_method="staggered"
         inkstitch:max_stitch_length_mm="7"
         inkstitch:split_staggers="2"
         inkstitch:reverse_rails="none"
         inkstitch:short_stitch_inset="50 20"
         inkstitch:pull_compensation_mm="0.8"
         inkstitch:random_seed="1782820736.5396109"
         inkstitch:random_width_increase_percent="0 30.0"
         inkstitch:random_width_decrease_percent="-43.0 0"
         inkstitch:pull_compensation_percent="-58.0 -36.0"
         inkstitch:running_stitch_position="61.0"
         inkstitch:short_stitch_distance_mm="0.4"
         inkstitch:min_stitch_length_mm="1" /></g><path
       style="opacity:1;fill:none;stroke:#000000;stroke-width:0.264583;stroke-linejoin:round;paint-order:fill markers stroke"
       d="M 51.121831,120.43728 45.776051,132.74606"
       id="path44"
       inkscape:label="Running Stitch" /><g
       id="g40"
       transform="matrix(-1 0 0 1 105.195 0)"
       inkscape:label="Color 3"><path
         id="path26-1-1-1-1-1-1"
         style="display:inline;opacity:0.4;fill:none;stroke:#000000;stroke-width:0.264583px"
         inkscape:label="path5511 1 0 0"
         d="M 45.9854,132.186 C 44.7831,133.857 42.9225,135.271 40.7748,135.208 37.8407,135.175 34.7464,134.689 32.3033,132.953 30.7986,131.937 30.0296,130.249 29.3067,128.651 28.1205,125.924 27.5531,122.619 28.9883,119.875 29.8315,118.197 32.6392,115.685 32.6392,115.685 32.2076,114.562 27.92,116.006 25.4283,112.427 23.8112,109.447 24.4307,106.864 23.5451,103.195 22.7716,101.468 21.861,99.8072 21.0314,98.1088 20.337,96.5072 19.7237,94.6704 20.2183,92.9311 20.7572,92.1394 21.7752,91.8663 22.618,91.5164 25.4839,90.5638 28.5355,91.5001 31.1678,92.7135 33.478524,93.842536 35.634088,95.25138 37.674121,96.815067 M 50.9535,120.082 51.0392,109.742 M 51.6436,113.4 29.5394,116.175"
         inkstitch:satin_column="True"
         inkstitch:center_walk_underlay="False"
         inkstitch:contour_underlay="False"
         inkstitch:zigzag_underlay="True"
         inkstitch:satin_method="satin_column"
         inkstitch:zigzag_spacing_mm="0.6"
         inkstitch:swap_satin_rails="False"
         inkstitch:start_at_nearest_point="False"
         inkstitch:end_at_nearest_point="False"
         sodipodi:nodetypes="ccccccccccccccccc"
         inkstitch:split_method="staggered"
         inkstitch:max_stitch_length_mm="7"
         inkstitch:split_staggers="2"
         inkstitch:reverse_rails="none"
         inkstitch:short_stitch_inset="50 20"
         inkstitch:pull_compensation_mm="0 0.8"
         inkstitch:random_seed="1782820736.5396109"
         inkstitch:random_width_increase_percent="0.0 0"
         inkstitch:random_width_decrease_percent="0 -30.0"
         inkstitch:pull_compensation_percent="0.0 -94.0"
         inkstitch:running_stitch_position="3.0"
         inkstitch:short_stitch_distance_mm="0.4"
         inkstitch:min_stitch_length_mm="1"
         transform="matrix(-1 0 0 1 105.195 0)"
         inkstitch:zigzag_underlay_inset_percent="0 90" /><path
         d="M 62.8366,101.346 52.183682,111.82731 51.130454,119.91889 45.6817,132.926"
         style="fill:none;stroke:#000000;stroke-width:0.264583"
         inkscape:label="Running Stitch"
         inkstitch:running_stitch_length_mm="2.5"
         inkstitch:running_stitch_tolerance_mm="0.0"
         id="path42"
         sodipodi:nodetypes="cccc" /><path
         id="path33"
         style="display:inline;fill:none;stroke:#000000;stroke-width:0.264583px"
         inkscape:label="path5511 1 0 0"
         d="M 45.9854,132.186 C 44.7831,133.857 42.9225,135.271 40.7748,135.208 37.8407,135.175 34.7464,134.689 32.3033,132.953 30.7986,131.937 30.0296,130.249 29.3067,128.651 28.1205,125.924 27.5531,122.619 28.9883,119.875 29.8315,118.197 32.6392,115.685 32.6392,115.685 32.2076,114.562 27.92,116.006 25.4283,112.427 23.8112,109.447 24.4307,106.864 23.5451,103.195 22.7716,101.468 21.861,99.8072 21.0314,98.1088 20.337,96.5072 19.7237,94.6704 20.2183,92.9311 20.7572,92.1394 21.7752,91.8663 22.618,91.5164 25.4839,90.5638 28.5355,91.5001 31.1678,92.7135 33.478524,93.842536 35.634088,95.25138 37.674121,96.815067 M 50.9535,120.082 51.0392,109.742 M 51.6436,113.4 29.5394,116.175"
         inkstitch:satin_column="True"
         inkstitch:center_walk_underlay="False"
         inkstitch:contour_underlay="False"
         inkstitch:zigzag_underlay="True"
         inkstitch:satin_method="satin_column"
         inkstitch:zigzag_spacing_mm="0.6"
         inkstitch:swap_satin_rails="False"
         inkstitch:start_at_nearest_point="False"
         inkstitch:end_at_nearest_point="False"
         sodipodi:nodetypes="ccccccccccccccccc"
         inkstitch:split_method="staggered"
         inkstitch:max_stitch_length_mm="7"
         inkstitch:split_staggers="2"
         inkstitch:reverse_rails="none"
         inkstitch:short_stitch_inset="50 20"
         inkstitch:pull_compensation_mm="0 0.8"
         inkstitch:random_seed="1782820736.5396109"
         inkstitch:random_width_increase_percent="0.0 0"
         inkstitch:random_width_decrease_percent="0 -30.0"
         inkstitch:pull_compensation_percent="0.0 -94.0"
         inkstitch:running_stitch_position="3.0"
         inkstitch:short_stitch_distance_mm="0.4"
         inkstitch:min_stitch_length_mm="1"
         inkstitch:zigzag_underlay_inset_percent="0 90" /></g><path
       style="display:inline;opacity:1;fill:none;stroke:#000000;stroke-width:0.264583;stroke-linejoin:round;paint-order:fill markers stroke"
       d="M 37.631525,96.49358 52.051655,110.64417"
       id="path43"
       transform="matrix(-1 0 0 1 105.195 0)"
       inkscape:label="Running Stitch" /><path
       id="path18"
       style="fill:none;stroke:#000000;stroke-width:0.264583"
       d="M 52.896342,105.95625 C 52.896342,105.95625 54.254757,106.26189 54.322678,107.75614 54.390598,109.2504 54.424558,112.64643 54.424558,112.64643 54.424558,112.64643 54.628319,117.19712 54.560398,117.53672 54.492478,117.87632 54.526438,120.42335 54.526438,120.76295 54.526438,121.10256 54.526438,123.27602 54.424557,123.92126 54.322677,124.56651 53.88119,126.0268 52.862381,126.87581 M 52.366837,105.95625 C 52.366837,105.95625 50.80466,106.19397 50.736739,107.68822 50.668819,109.18248 50.634859,112.57851 50.634859,112.57851 50.634859,112.57851 50.431098,117.1292 50.499019,117.4688 50.566939,117.8084 50.532979,120.35543 50.532979,120.69503 50.532979,121.03464 50.532979,123.2081 50.63486,123.85334 50.73674,124.49859 51.246148,126.09472 52.264957,126.94373 M 50.295257,107.07694 H 54.60822 M 49.887733,114.07277 H 55.185546 M 50.974464,126.16265 H 54.336537"
       sodipodi:nodetypes="cscsssccscsssccccccc"
       inkscape:label="Satin body"
       inkstitch:satin_column="True"
       inkstitch:contour_underlay="True"
       inkstitch:zigzag_underlay="True" /></g></svg>
