<?xml version="1.0" encoding="UTF-8" standalone="no"?>
<!-- Creator: CorelDRAW X7 -->

<svg
   xmlns:dc="http://purl.org/dc/elements/1.1/"
   xmlns:cc="http://creativecommons.org/ns#"
   xmlns:rdf="http://www.w3.org/1999/02/22-rdf-syntax-ns#"
   xmlns:svg="http://www.w3.org/2000/svg"
   xmlns="http://www.w3.org/2000/svg"
   xmlns:sodipodi="http://sodipodi.sourceforge.net/DTD/sodipodi-0.dtd"
   xmlns:inkscape="http://www.inkscape.org/namespaces/inkscape"
   xml:space="preserve"
   width="75.204422mm"
   height="67.78524mm"
   version="1.1"
   style="clip-rule:evenodd;fill-rule:evenodd;image-rendering:optimizeQuality;shape-rendering:geometricPrecision;text-rendering:geometricPrecision"
   viewBox="0 0 11362.647 10242"
   id="svg20"
   sodipodi:docname="inkstitch-logo.svg"
   inkscape:version="0.92.3 (unknown)"><metadata
   id="metadata24"><rdf:RDF><cc:Work
       rdf:about=""><dc:format>image/svg+xml</dc:format><dc:type
         rdf:resource="http://purl.org/dc/dcmitype/StillImage" /><dc:title></dc:title></cc:Work></rdf:RDF></metadata><sodipodi:namedview
   pagecolor="#ffffff"
   bordercolor="#666666"
   borderopacity="1"
   objecttolerance="10"
   gridtolerance="10"
   guidetolerance="10"
   inkscape:pageopacity="0"
   inkscape:pageshadow="2"
   inkscape:window-width="1920"
   inkscape:window-height="1035"
   id="namedview22"
   showgrid="false"
   fit-margin-top="0"
   fit-margin-left="0"
   fit-margin-right="0"
   fit-margin-bottom="0"
   inkscape:zoom="0.647537"
   inkscape:cx="-40.882545"
   inkscape:cy="128.09809"
   inkscape:window-x="0"
   inkscape:window-y="0"
   inkscape:window-maximized="1"
   inkscape:current-layer="Layer_x0020_1" />
 <defs
   id="defs4">
  <style
   type="text/css"
   id="style2">
   <![CDATA[
    .fil0 {fill:none}
    .fil3 {fill:black}
    .fil1 {fill:#003399}
    .fil4 {fill:gray}
    .fil2 {fill:white}
   ]]>
  </style>
 </defs>
 <g
   id="Layer_x0020_1"
   transform="translate(-1873.2349,-2164)">
  <metadata
   id="CorelCorpID_0Corel-Layer" />
  
  <path
   class="fil1"
   d="m 9857,7480 v -51 c 0,-15 12,-27 27,-27 h 295 c 15,0 27,12 27,27 v 51 c 0,15 -12,28 -27,28 h -295 c -15,0 -27,-13 -27,-28 z m 2819,-1566 c 10,66 67,116 135,116 v 0 c 75,0 137,-61 137,-137 v -144 c 0,-37 18,-68 49,-88 32,-19 69,-20 101,-2 83,43 138,125 138,232 v 2788 c 0,147 -121,268 -268,268 h -292 v 443 c 0,1659 -1357,3016 -3016,3016 H 5450 c -1659,0 -3017,-1357 -3017,-3016 v -402 h -286 c -151,0 -274,-123 -274,-273 V 5937 c 0,-150 123,-273 274,-273 h 286 v -484 c 0,-1659 1358,-3016 3017,-3016 h 4210 c 1659,0 3016,1357 3016,3016 z M 2220,7600 h 107 c 43,0 81,21 106,52 v 170 c -25,32 -63,52 -106,52 h -107 c -75,0 -136,-62 -136,-137 v 0 c 0,-75 61,-137 136,-137 z m 54,710 c 75,0 136,61 136,136 0,76 -61,137 -136,137 -76,0 -137,-61 -137,-137 0,-75 61,-136 137,-136 z m 10515,-710 h 107 c 75,0 137,62 137,137 v 0 c 0,75 -62,137 -137,137 h -107 c -47,0 -88,-24 -113,-61 v -152 c 25,-36 66,-61 113,-61 z m 54,711 c 75,0 135,60 135,135 0,75 -60,136 -135,136 -75,0 -136,-61 -136,-136 0,-75 61,-135 136,-135 z m -1957,-838 c -676,154 -776,166 -1566,74 l -1848,18 c -374,4 -659,116 -1029,116 H 4373 l -138,-75 v -302 l 138,-75 h 2070 c 370,0 655,111 1029,115 l 1848,19 c 790,-92 890,-80 1566,73 9,2 15,10 15,19 0,9 -6,16 -15,18 z M 4562,6641 V 4478 h 516 v 2163 z m 1562,0 V 4407 h 50 L 7521,5670 V 4478 h 477 v 2246 h -45 L 6601,5461 v 1180 z m 2865,0 V 4478 h 510 v 941 l 715,-941 h 614 l -816,1029 881,1134 h -624 l -770,-996 v 996 z M 4180,9422 c 86,52 160,89 220,111 60,21 119,31 177,31 57,0 104,-13 139,-38 35,-26 53,-58 53,-98 0,-57 -63,-122 -188,-193 -20,-12 -36,-21 -46,-27 l -95,-54 c -92,-52 -161,-111 -205,-177 -45,-66 -67,-140 -67,-223 0,-113 43,-206 128,-278 85,-72 195,-108 330,-108 50,0 103,5 161,17 58,12 123,30 194,54 v 329 c -68,-43 -132,-75 -193,-98 -61,-23 -112,-35 -155,-35 -47,0 -84,10 -111,30 -27,21 -41,48 -41,83 0,24 8,47 25,68 16,22 40,41 72,58 l 165,91 c 137,76 230,147 277,211 48,65 72,141 72,230 0,136 -47,247 -140,331 -93,84 -217,126 -371,126 -52,0 -109,-5 -171,-16 -61,-11 -128,-28 -202,-51 z m 1440,396 V 8708 h -445 v -293 h 1224 v 293 h -444 v 1110 z m 986,0 V 8415 h 335 v 1403 z m 989,0 V 8708 h -446 v -293 h 1225 v 293 h -444 v 1110 z m 1983,-959 c -60,-63 -122,-109 -184,-139 -62,-30 -128,-45 -196,-45 -119,0 -216,41 -291,122 -76,82 -113,188 -113,316 0,128 37,232 112,312 75,79 172,119 292,119 71,0 142,-14 213,-44 70,-30 141,-74 211,-134 l -22,373 c -60,40 -125,71 -196,92 -72,22 -146,32 -223,32 -82,0 -161,-12 -237,-38 -76,-26 -146,-64 -209,-115 -91,-71 -160,-157 -208,-259 -48,-102 -72,-214 -72,-335 0,-104 18,-201 53,-292 36,-91 87,-171 155,-241 68,-70 147,-123 237,-160 90,-37 184,-55 283,-55 79,0 154,10 226,33 72,21 140,55 205,99 z m 261,959 V 8415 h 331 v 515 h 541 v -515 h 329 v 1403 h -329 v -589 h -541 v 589 z M 5450,2676 c -1376,0 -2504,1128 -2504,2504 v 4210 c 0,1376 1128,2504 2504,2504 h 4210 c 1376,0 2504,-1128 2504,-2504 V 5180 c 0,-1376 -1128,-2504 -2504,-2504 z"
   id="path9"
   inkscape:connector-curvature="0"
   style="fill:#003399" />
  <path
   class="fil2"
   d="m 5450,2676 c -1376,0 -2504,1128 -2504,2504 v 4210 c 0,1376 1128,2504 2504,2504 h 4210 c 1376,0 2504,-1128 2504,-2504 V 5180 c 0,-1376 -1128,-2504 -2504,-2504 z"
   id="path11"
   inkscape:connector-curvature="0"
   style="fill:#ffffff" />
  <path
   class="fil3"
   d="M 9839,9818 V 8415 h 331 v 515 h 541 v -515 h 329 v 1403 h -329 v -589 h -541 v 589 z m -261,-959 c -60,-63 -122,-109 -184,-139 -62,-30 -128,-45 -196,-45 -119,0 -216,41 -291,122 -76,82 -113,188 -113,316 0,128 37,232 112,312 75,79 172,119 292,119 71,0 142,-14 213,-44 70,-30 141,-74 211,-134 l -22,373 c -60,40 -125,71 -196,92 -72,22 -146,32 -223,32 -82,0 -161,-12 -237,-38 -76,-26 -146,-64 -209,-115 -91,-71 -160,-157 -208,-259 -48,-102 -72,-214 -72,-335 0,-104 18,-201 53,-292 36,-91 87,-171 155,-241 68,-70 147,-123 237,-160 90,-37 184,-55 283,-55 79,0 154,10 226,33 72,21 140,55 205,99 z M 7595,9818 V 8708 h -446 v -293 h 1225 v 293 h -444 v 1110 z m -989,0 V 8415 h 335 v 1403 z m -986,0 V 8708 h -445 v -293 h 1224 v 293 H 5955 V 9818 Z M 4180,9422 c 86,52 160,89 220,111 60,21 119,31 177,31 57,0 104,-13 139,-38 35,-26 53,-58 53,-98 0,-57 -63,-122 -188,-193 -20,-12 -36,-21 -46,-27 l -95,-54 c -92,-52 -161,-111 -205,-177 -45,-66 -67,-140 -67,-223 0,-113 43,-206 128,-278 85,-72 195,-108 330,-108 50,0 103,5 161,17 58,12 123,30 194,54 v 329 c -68,-43 -132,-75 -193,-98 -61,-23 -112,-35 -155,-35 -47,0 -84,10 -111,30 -27,21 -41,48 -41,83 0,24 8,47 25,68 16,22 40,41 72,58 l 165,91 c 137,76 230,147 277,211 48,65 72,141 72,230 0,136 -47,247 -140,331 -93,84 -217,126 -371,126 -52,0 -109,-5 -171,-16 -61,-11 -128,-28 -202,-51 z"
   id="path13"
   inkscape:connector-curvature="0"
   style="fill:#000000" />
  <path
   class="fil3"
   d="M 8989,6641 V 4478 h 510 v 941 l 715,-941 h 614 l -816,1029 881,1134 h -624 l -770,-996 v 996 z m -2865,0 V 4407 h 50 L 7521,5670 V 4478 h 477 v 2246 h -45 L 6601,5461 v 1180 z m -1562,0 V 4478 h 516 v 2163 z"
   id="path15"
   inkscape:connector-curvature="0"
   style="fill:#000000" />
  <path
   class="fil4"
   d="m 10886,7473 c -676,154 -776,166 -1566,74 l -1848,18 c -374,4 -659,116 -1029,116 H 4373 l -138,-75 v -302 l 138,-75 h 2070 c 370,0 655,111 1029,115 l 1848,19 c 790,-92 890,-80 1566,73 9,2 15,10 15,19 0,9 -6,16 -15,18 z m -1029,7 v -51 c 0,-15 12,-27 27,-27 h 295 c 15,0 27,12 27,27 v 51 c 0,15 -12,28 -27,28 h -295 c -15,0 -27,-13 -27,-28 z"
   id="path17"
   inkscape:connector-curvature="0"
   style="fill:#808080" />
 </g>
</svg>