<svg xmlns="http://www.w3.org/2000/svg">
<defs>
<font
       id="GlacialIndifference-Bold"
       horiz-adv-x="13">
      <font-face
         font-family="Glacial Indifference"
         font-weight="700"
         font-stretch="normal"
         units-per-em="32"
         panose-1="0 0 8 0 0 0 0 0 0 0"
         ascent="21"
         descent="-11"
         x-height="14"
         cap-height="21"
         bbox="-3 -8.59808 29 30"
         underline-thickness="0"
         underline-position="-2.66667"
         stemh="6"
         stemv="6"
         unicode-range="U+0020-F8FF"
         id="font-face4" />
      <missing-glyph
         id="missing-glyph6" />
      <glyph
         glyph-name="exclam"
         unicode="!"
         horiz-adv-x="2"
         d="M2 3c0 2 0 1 2 1s4 1 4 -1s-2 -3 -4 -3s-2 1 -2 3zM3 8l-1 16h5l-1 -16h-3z"
         id="glyph8" />
      <glyph
         glyph-name="quotedbl"
         unicode="&quot;"
         horiz-adv-x="8"
         d="M1 24h3v-10h-2zM6 24h6l-1 -10h-3z"
         id="glyph10" />
      <glyph
         glyph-name="numbersign"
         unicode="#"
         d="M12 13h-4l-1 -3h4zM18 13h-4l-1 -3h4v-4h-4l-1 -6h-3l2 6h-5l-1 -6h-2l1 6h-4v4h4v3h-2v3h2v6l4 -1v-5h4v6l2 -1v-5h4v-3z"
         id="glyph12" />
      <glyph
         glyph-name="dollar"
         unicode="$"
         d="M12 -3h-4v3c-4 1 -6 3 -6 7h4c0 -3 3 -3 5 -3s3 0 3 2c0 4 -12 1 -12 9c0 4 3 5 6 6v3h4v-3c3 -1 7 -3 7 -7h-6c0 3 -1 4 -3 4s-4 0 -4 -2c0 -4 13 -2 13 -10c0 -4 -3 -5 -7 -6v-3z"
         id="glyph14" />
      <glyph
         glyph-name="percent"
         unicode="%"
         horiz-adv-x="17"
         d="M14 21h4l-9 -21h-5zM4 12c-3 0 -3 4 -3 6s-1 3 3 3s7 -1 7 -3s-3 -6 -7 -6zM4 19c-2 0 0 0 0 -1c0 -2 -1 -4 0 -4c2 0 2 2 2 4c0 1 0 1 -2 1zM18 0c-3 0 -5 2 -5 4s1 7 5 7s3 -5 3 -7s1 -4 -3 -4zM18 7c-2 0 -2 -1 -2 -3s0 -1 2 -1c1 0 1 -1 1 1s1 3 -1 3z"
         id="glyph16" />
      <glyph
         glyph-name="ampersand"
         unicode="&amp;"
         horiz-adv-x="17"
         d="M12 4l-4 6c-2 -1 -4 -2 -4 -4s2 -2 4 -2s3 -1 4 0zM9 18c-1 0 -1 1 -1 0c0 -2 0 -3 1 -4c1 0 3 2 3 4c0 1 -2 0 -3 0zM20 0h-4l-2 2c-2 -2 -3 -2 -6 -2c-4 0 -6 2 -6 6c0 3 0 4 2 6v1c-1 2 0 3 0 5c0 3 2 3 5 3s5 0 5 -3s0 -4 -2 -6l2 -4c1 2 2 2 3 4l2 -4 c-1 -1 0 -2 -1 -4z"
         id="glyph18" />
      <glyph
         glyph-name="quotesingle"
         unicode="'"
         horiz-adv-x="0"
         d="M1 24h3v-10h-2z"
         id="glyph20" />
      <glyph
         glyph-name="parenleft"
         unicode="("
         horiz-adv-x="2"
         d="M4 24h4s-4 -6 -4 -16s4 -14 4 -14h-4s-2 4 -2 14c0 11 2 16 2 16z"
         id="glyph22" />
      <glyph
         glyph-name="parenright"
         unicode=")"
         horiz-adv-x="2"
         d="M2 24h2s4 -5 4 -16c0 -10 -4 -14 -4 -14h-2s2 4 2 14s-2 16 -2 16z"
         id="glyph24" />
      <glyph
         glyph-name="asterisk"
         unicode="*"
         d="M3 20l5 -1l-2 5h4l-1 -5l4 1l1 -2h-5l4 -4l-1 -2l-4 5l-3 -5l-2 2l4 4h-5z"
         id="glyph26" />
      <glyph
         glyph-name="plus"
         unicode="+"
         horiz-adv-x="8"
         d="M8 5v-4h-3v4h-5v3h5v6h3v-6h5v-3h-5z"
         id="glyph28" />
      <glyph
         glyph-name="comma"
         unicode=","
         horiz-adv-x="2"
         d="M6 4l-3 -8h-3l2 8h4z"
         id="glyph30" />
      <glyph
         glyph-name="hyphen"
         unicode="-"
         horiz-adv-x="8"
         d="M12 5h-12v3h12v-3z"
         id="glyph32" />
      <glyph
         glyph-name="period"
         unicode="."
         horiz-adv-x="2"
         d="M2 3c0 2 0 1 2 1s4 1 4 -1s-2 -3 -4 -3s-2 1 -2 3z"
         id="glyph34" />
      <glyph
         glyph-name="slash"
         unicode="/"
         d="M0 -6l13 30h5l-14 -30h-4z"
         id="glyph36" />
      <glyph
         glyph-name="zero"
         unicode="0"
         d="M11 18c-3 0 -5 -3 -5 -6s2 -8 5 -8s3 5 3 8s0 6 -3 6zM11 0c-6 0 -9 8 -9 12s3 9 9 9s8 -5 8 -9s-2 -12 -8 -12z"
         id="glyph38" />
      <glyph
         glyph-name="one"
         unicode="1"
         horiz-adv-x="2"
         d="M8 21v-21h-5v16h-3v3z"
         id="glyph40" />
      <glyph
         glyph-name="two"
         unicode="2"
         d="M15 0h-15l8 12c2 1 3 0 3 2s-1 4 -3 4s-4 -2 -4 -4h-3c0 4 3 7 7 7s6 -3 6 -7c0 -3 0 -4 -2 -6l-4 -4h7v-4z"
         id="glyph42" />
      <glyph
         glyph-name="three"
         unicode="3"
         d="M0 6h4c1 -2 2 -2 4 -2s4 0 4 2s-2 4 -4 4h-2v3h2c2 0 4 0 4 2s-2 3 -4 3s-3 -1 -3 -3h-3c0 4 2 6 6 6s6 -2 6 -6c0 -2 1 -1 -1 -3c3 -1 3 -4 3 -6c0 -4 -4 -6 -8 -6s-8 2 -8 6z"
         id="glyph44" />
      <glyph
         glyph-name="four"
         unicode="4"
         d="M12 8v7l-6 -7h6zM19 4h-4v-4h-3v4h-14l14 17h3v-13h4v-4z"
         id="glyph46" />
      <glyph
         glyph-name="five"
         unicode="5"
         d="M8 18v-4c5 1 9 -2 9 -6s-5 -8 -9 -8c-3 0 -5 1 -8 4l4 3c2 -3 2 -3 4 -3s4 1 4 4s-2 4 -4 4c-1 0 -2 0 -4 -1l-1 1l1 9h11v-3h-7z"
         id="glyph48" />
      <glyph
         glyph-name="six"
         unicode="6"
         d="M9 12c-2 0 -4 -2 -4 -4s2 -4 4 -4s3 2 3 4s-1 4 -3 4zM9 0c-4 0 -7 4 -7 8c0 2 -1 3 1 5l7 8h5l-4 -7c4 0 7 -2 7 -6s-5 -8 -9 -8z"
         id="glyph50" />
      <glyph
         glyph-name="seven"
         unicode="7"
         d="M0 21h18l-12 -21h-5l11 18h-12v3z"
         id="glyph52" />
      <glyph
         glyph-name="eight"
         unicode="8"
         d="M9 11c-2 0 -4 -2 -4 -4s2 -3 4 -3s3 1 3 3s-1 4 -3 4zM9 18c-2 0 -3 -1 -3 -3s1 -2 3 -2s3 0 3 2s-1 3 -3 3zM9 0c-4 0 -7 2 -7 6c0 2 0 4 2 6c-1 1 -2 1 -2 3c0 4 3 6 7 6c3 0 6 -2 6 -6c0 -2 0 -2 -1 -3c2 -2 3 -3 3 -5c0 -4 -4 -7 -8 -7z"
         id="glyph54" />
      <glyph
         glyph-name="nine"
         unicode="9"
         d="M9 12c2 0 3 0 3 2s-1 4 -3 4s-4 -2 -4 -4s2 -2 4 -2zM9 21c4 0 9 -3 9 -7c0 -2 -2 -3 -4 -5l-6 -9h-5l5 7c-4 1 -6 3 -6 7s3 7 7 7z"
         id="glyph56" />
      <glyph
         glyph-name="colon"
         unicode=":"
         horiz-adv-x="2"
         d="M2 14c0 2 0 3 2 3s4 -1 4 -3s-2 -2 -4 -2s-2 0 -2 2zM2 3c0 2 0 1 2 1s4 1 4 -1s-2 -3 -4 -3s-2 1 -2 3z"
         id="glyph58" />
      <glyph
         glyph-name="semicolon"
         unicode=";"
         horiz-adv-x="2"
         d="M8 4l-4 -8h-2l1 8h5zM2 14c0 2 0 3 2 3s4 -1 4 -3s-2 -2 -4 -2s-2 0 -2 2z"
         id="glyph60" />
      <glyph
         glyph-name="less"
         unicode="&lt;"
         d="M14 -2l-12 6v5l12 6v-3l-10 -5l10 -5v-4z"
         id="glyph62" />
      <glyph
         glyph-name="equal"
         unicode="="
         horiz-adv-x="8"
         d="M12 8h-12v4h12v-4zM12 3h-12v1h12v-1z"
         id="glyph64" />
      <glyph
         glyph-name="greater"
         unicode="&gt;"
         d="M14 4l-12 -6v4l10 5l-10 5v3l12 -6v-5z"
         id="glyph66" />
      <glyph
         glyph-name="question"
         unicode="?"
         horiz-adv-x="8"
         d="M4 3c0 2 2 1 4 1s4 1 4 -1s-2 -3 -4 -3s-4 1 -4 3zM11 12v-5h-6v5c0 4 6 4 6 7c0 2 -1 1 -3 1s-4 0 -4 -2h-2c0 4 2 6 6 6c3 0 6 -1 6 -5s-3 -4 -3 -7z"
         id="glyph68" />
      <glyph
         glyph-name="at"
         unicode="@"
         d="M11 6c2 0 2 3 0 3s-2 -3 0 -3zM14 12v-8h-2s0 -1 -1 -1c-3 0 -5 2 -5 5s3 6 6 4c0 1 0 1 -2 1c-3 0 -6 -2 -6 -5s4 -5 7 -5h3v-3h-3c-4 0 -9 4 -9 8s4 7 8 7c3 0 4 0 4 -3z"
         id="glyph70" />
      <glyph
         glyph-name="A"
         unicode="A"
         horiz-adv-x="17"
         d="M14 8l-2 8l-4 -8h6zM21 0h-4l-3 4h-7l-3 -4h-4l9 21h4z"
         id="glyph72" />
      <glyph
         glyph-name="B"
         unicode="B"
         d="M13 6c0 2 0 3 -2 3h-5v-5h5c2 0 2 0 2 2zM12 15c0 2 -2 3 -4 3h-2v-5h2c2 0 4 0 4 2zM18 6c0 -4 -2 -6 -6 -6h-10v21h7c4 0 6 -1 6 -4s0 -4 -2 -5c3 -1 5 -3 5 -6z"
         id="glyph74" />
      <glyph
         glyph-name="C"
         unicode="C"
         horiz-adv-x="17"
         d="M18 8h5c-2 -4 -7 -8 -11 -8c-6 0 -10 6 -10 12s4 9 10 9c4 0 9 -3 11 -7h-5c-2 2 -4 4 -6 4c-4 0 -6 -2 -6 -6s2 -8 6 -8c2 0 4 2 6 4z"
         id="glyph76" />
      <glyph
         glyph-name="D"
         unicode="D"
         d="M6 4h2c4 0 6 5 6 8c0 4 -2 6 -6 6h-2v-14zM2 21h6c6 0 11 -3 11 -9s-5 -12 -11 -12h-6v21z"
         id="glyph78" />
      <glyph
         glyph-name="E"
         unicode="E"
         d="M14 4v-4h-12v21h12v-3h-8v-5h8v-5h-8v-4h8z"
         id="glyph80" />
      <glyph
         glyph-name="F"
         unicode="F"
         d="M14 8h-8v-8h-4v21h12v-3h-8v-5h8v-5z"
         id="glyph82" />
      <glyph
         glyph-name="G"
         unicode="G"
         horiz-adv-x="17"
         d="M13 18c-4 0 -7 -2 -7 -6s3 -8 7 -8c2 0 4 1 6 4h-6v4h11v0c0 -6 -5 -12 -11 -12s-11 6 -11 12s5 9 11 9c4 0 9 -3 11 -7h-6c-1 2 -3 4 -5 4z"
         id="glyph84" />
      <glyph
         glyph-name="H"
         unicode="H"
         d="M14 21h5v-21h-5v8h-8v-8h-4v21h4v-8h8v8z"
         id="glyph86" />
      <glyph
         glyph-name="I"
         unicode="I"
         horiz-adv-x="2"
         d="M6 0h-4v21h4v-21z"
         id="glyph88" />
      <glyph
         glyph-name="J"
         unicode="J"
         horiz-adv-x="8"
         d="M4 4c4 0 4 2 4 4v13h4v-13c0 -6 -4 -8 -8 -8h-3v5v0c1 -2 1 -1 3 -1z"
         id="glyph90" />
      <glyph
         glyph-name="K"
         unicode="K"
         d="M6 10v-10h-4v21h4v-9l7 9h7l-8 -9l8 -12h-7z"
         id="glyph92" />
      <glyph
         glyph-name="L"
         unicode="L"
         horiz-adv-x="8"
         d="M2 0v21h4v-17h8v-4h-12z"
         id="glyph94" />
      <glyph
         glyph-name="M"
         unicode="M"
         horiz-adv-x="24"
         d="M29 0h-5l-4 14l-2 -14h-6l-4 14l-4 -14h-4l4 21h7l3 -15l5 15h6z"
         id="glyph96" />
      <glyph
         glyph-name="N"
         unicode="N"
         d="M19 0h-5l-8 13v-13h-4v21h4l8 -13v13h5v-21z"
         id="glyph98" />
      <glyph
         glyph-name="O"
         unicode="O"
         horiz-adv-x="17"
         d="M19 12c0 4 -4 6 -7 6s-6 -2 -6 -6c0 -3 3 -8 6 -8s7 5 7 8zM24 12c0 -6 -7 -12 -12 -12c-6 0 -10 6 -10 12s4 9 10 9c5 0 12 -3 12 -9z"
         id="glyph100" />
      <glyph
         glyph-name="P"
         unicode="P"
         d="M6 8v-8h-4v21h2h2h5c3 0 6 -3 6 -7s-3 -6 -6 -6h-5zM9 18h-3v-6h3c2 0 3 -1 3 2c0 2 -1 4 -3 4z"
         id="glyph102" />
      <glyph
         glyph-name="Q"
         unicode="Q"
         horiz-adv-x="17"
         d="M19 12c0 4 -4 6 -7 6s-6 -2 -6 -6c0 -3 3 -8 6 -8s7 5 7 8zM20 3l1 1h4v-4h-11h-2c-6 0 -10 6 -10 12s4 9 10 9c5 0 12 -3 12 -9c0 -3 -1 -7 -4 -9z"
         id="glyph104" />
      <glyph
         glyph-name="R"
         unicode="R"
         d="M6 8v-8h-4v21h2h2h5c3 0 6 -3 6 -7s-2 -5 -5 -6l6 -8h-6l-6 8v0zM9 18h-3v-6h3c2 0 3 -1 3 2c0 2 -1 4 -3 4z"
         id="glyph106" />
      <glyph
         glyph-name="S"
         unicode="S"
         d="M11 4c2 0 3 0 3 2c0 4 -12 1 -12 9c0 4 5 6 9 6s7 -3 8 -7h-5c-1 3 0 4 -3 4c-2 0 -5 0 -5 -2c0 -4 13 -2 13 -10c0 -4 -4 -7 -8 -7s-9 4 -9 8h3c0 -3 4 -3 6 -3z"
         id="glyph108" />
      <glyph
         glyph-name="T"
         unicode="T"
         d="M12 18v-18h-6v18h-6v3h18v-3h-6z"
         id="glyph110" />
      <glyph
         glyph-name="U"
         unicode="U"
         d="M14 21h5v-13c0 -5 -2 -8 -7 -8s-10 3 -10 8v13h4v-12c0 -3 3 -5 6 -5s2 2 2 5v12z"
         id="glyph112" />
      <glyph
         glyph-name="V"
         unicode="V"
         horiz-adv-x="17"
         d="M21 21l-8 -21h-4l-9 21h4l7 -11l1 -4v4l5 11h4z"
         id="glyph114" />
      <glyph
         glyph-name="W"
         unicode="W"
         horiz-adv-x="24"
         d="M29 21l-4 -21h-6l-5 15l-3 -15h-7l-4 21h4l4 -15l4 15h6l2 -15l4 15h5z"
         id="glyph116" />
      <glyph
         glyph-name="X"
         unicode="X"
         horiz-adv-x="17"
         d="M20 0h-5l-3 8l-6 -8h-6l8 12l-8 9h6l6 -7l3 7h5l-6 -9z"
         id="glyph118" />
      <glyph
         glyph-name="Y"
         unicode="Y"
         horiz-adv-x="17"
         d="M8 0v12l-8 9h6l6 -7l3 7h5l-7 -9v-12h-5z"
         id="glyph120" />
      <glyph
         glyph-name="Z"
         unicode="Z"
         d="M18 4v-4h-17l9 18h-8v3h16l-10 -17h10z"
         id="glyph122" />
      <glyph
         glyph-name="bracketleft"
         unicode="["
         horiz-adv-x="2"
         d="M6 -4h4v-3h-8v31h8v-4h-4v-24z"
         id="glyph124" />
      <glyph
         glyph-name="backslash"
         unicode="\"
         d="M0 24h4l14 -30h-5z"
         id="glyph126" />
      <glyph
         glyph-name="bracketright"
         unicode="]"
         horiz-adv-x="2"
         d="M2 -7v3h2v24h-2v4h6v-31h-6z"
         id="glyph128" />
      <glyph
         glyph-name="asciicircum"
         unicode="^"
         d="M18 11h-5l-4 8l-5 -8h-4l6 10h6z"
         id="glyph130" />
      <glyph
         glyph-name="underscore"
         unicode="_"
         d="M18 -4h-18v2h18v-2z"
         id="glyph132" />
      <glyph
         glyph-name="grave"
         unicode="`"
         horiz-adv-x="2"
         d="M2 30h2l5 -6h-4z"
         id="glyph134" />
      <glyph
         glyph-name="a"
         unicode="a"
         d="M13 7c0 2 -1 5 -3 5s-4 -3 -4 -5s2 -3 4 -3s3 1 3 3zM18 14v-14h-5v2c-2 -2 -3 -2 -5 -2c-4 0 -6 3 -6 7s2 7 6 7c2 0 3 1 5 -1v1h5z"
         id="glyph136" />
      <glyph
         glyph-name="b"
         unicode="b"
         d="M6 7c0 -2 3 -3 5 -3s2 1 2 3s0 5 -2 5s-5 -3 -5 -5zM6 0h-4v24h4v-11c2 2 4 1 6 1c4 0 7 -3 7 -7s-3 -7 -7 -7c-2 0 -4 0 -6 2v-2z"
         id="glyph138" />
      <glyph
         glyph-name="c"
         unicode="c"
         d="M9 12c-3 0 -3 -3 -3 -5s0 -4 3 -4c2 0 3 -1 3 1h5c-1 -3 -4 -4 -8 -4s-7 3 -7 7s3 7 7 7s8 -3 8 -6h-5c0 2 -1 4 -3 4z"
         id="glyph140" />
      <glyph
         glyph-name="d"
         unicode="d"
         d="M13 7c0 2 -1 5 -3 5s-4 -3 -4 -5s2 -3 4 -3s3 1 3 3zM18 24v-24h-5v2c-2 -2 -3 -2 -5 -2c-4 0 -6 3 -6 7s2 7 6 7c2 0 3 1 5 -1v11h5z"
         id="glyph142" />
      <glyph
         glyph-name="e"
         unicode="e"
         d="M6 8h7s-1 4 -4 4s-3 -4 -3 -4zM18 8v-2h-12c0 -2 1 -3 3 -3s3 0 3 1h6c-2 -4 -5 -4 -9 -4s-7 3 -7 7s3 7 7 7s9 -2 9 -6z"
         id="glyph144" />
      <glyph
         glyph-name="f"
         unicode="f"
         horiz-adv-x="8"
         d="M8 24h4v-4h-3c-2 0 -1 0 -1 -2v-4h4v-2h-4v-12h-5v12h-1v2h1v5c0 4 2 5 5 5z"
         id="glyph146" />
      <glyph
         glyph-name="g"
         unicode="g"
         d="M10 4c2 0 3 1 3 3s-1 5 -3 5s-4 -3 -4 -5s2 -3 4 -3zM13 13v1h5v-14c0 -4 -4 -8 -8 -8s-8 2 -8 6h4c0 -2 1 -2 3 -2c3 0 4 1 4 3v3c-2 -2 -3 -2 -5 -2c-4 0 -6 3 -6 7s2 7 6 7c2 0 3 1 5 -1z"
         id="glyph148" />
      <glyph
         glyph-name="h"
         unicode="h"
         d="M17 8v-8h-5v8c0 2 -1 4 -3 4s-3 -3 -3 -5v-7h-4v24h4v-11c2 2 4 1 6 1c4 0 5 -2 5 -6z"
         id="glyph150" />
      <glyph
         glyph-name="i"
         unicode="i"
         horiz-adv-x="2"
         d="M2 19c0 2 0 2 2 2s4 0 4 -2s-2 -3 -4 -3s-2 1 -2 3zM7 0h-5v14h5v-14z"
         id="glyph152" />
      <glyph
         glyph-name="j"
         unicode="j"
         horiz-adv-x="2"
         d="M-1 -8v5s1 -1 2 -1c2 0 1 0 1 2v16h5v-16c0 -3 -1 -6 -5 -6h-3zM2 19c0 2 0 2 2 2s4 0 4 -2s-2 -3 -4 -3s-2 1 -2 3z"
         id="glyph154" />
      <glyph
         glyph-name="k"
         unicode="k"
         d="M6 6v-6h-4v24h4v-16l6 6h6l-6 -6l6 -8h-6z"
         id="glyph156" />
      <glyph
         glyph-name="l"
         unicode="l"
         horiz-adv-x="2"
         d="M6 0h-4v24h4v-24z"
         id="glyph158" />
      <glyph
         glyph-name="m"
         unicode="m"
         horiz-adv-x="24"
         d="M17 7v-7h-5v8c0 2 -1 4 -3 4s-3 -3 -3 -5v-7h-4v14h4v-1c2 2 4 1 6 1s1 0 2 -2c2 2 3 2 6 2s6 -2 6 -6v-8h-6v8c0 2 1 4 -1 4s-2 -3 -2 -5z"
         id="glyph160" />
      <glyph
         glyph-name="n"
         unicode="n"
         d="M17 8v-8h-5v8c0 2 -1 4 -3 4s-3 -3 -3 -5v-7h-4v14h4v-1c2 2 4 1 6 1c4 0 5 -2 5 -6z"
         id="glyph162" />
      <glyph
         glyph-name="o"
         unicode="o"
         d="M9 3c3 0 4 2 4 4s-1 5 -4 5s-4 -3 -4 -5s1 -4 4 -4zM9 14c4 0 9 -3 9 -7s-5 -7 -9 -7s-7 3 -7 7s3 7 7 7z"
         id="glyph164" />
      <glyph
         glyph-name="p"
         unicode="p"
         d="M6 7c0 -2 3 -3 5 -3s2 1 2 3s0 5 -2 5s-5 -3 -5 -5zM6 -8h-4v22h4v-1c2 2 4 1 6 1c4 0 7 -3 7 -7s-3 -7 -7 -7c-2 0 -4 0 -6 2v-10z"
         id="glyph166" />
      <glyph
         glyph-name="q"
         unicode="q"
         d="M13 7c0 2 -1 5 -3 5s-4 -3 -4 -5s2 -3 4 -3s3 1 3 3zM18 14v-22h-5v10c-2 -2 -3 -2 -5 -2c-4 0 -6 3 -6 7s2 7 6 7c2 0 3 1 5 -1v1h5z"
         id="glyph168" />
      <glyph
         glyph-name="r"
         unicode="r"
         horiz-adv-x="8"
         d="M11 12c-2 0 -5 -3 -5 -5v-7h-4v14h4v-1c1 1 4 1 6 1v0v-3v0c0 1 0 1 -1 1z"
         id="glyph170" />
      <glyph
         glyph-name="s"
         unicode="s"
         d="M14 11h-3c0 2 -1 1 -3 1s-2 1 -2 -1s8 -2 8 -7c0 -3 -2 -4 -6 -4s-6 0 -7 4h3c0 -3 3 -1 4 -1c2 0 3 0 3 1c0 3 -9 3 -9 7c0 3 2 3 6 3s6 0 6 -3z"
         id="glyph172" />
      <glyph
         glyph-name="t"
         unicode="t"
         horiz-adv-x="8"
         d="M8 12v-12h-5v12h-2v2h2v5h5v-5h4v-2h-4z"
         id="glyph174" />
      <glyph
         glyph-name="u"
         unicode="u"
         d="M2 6v8h4v-8c0 -2 0 -2 2 -2s4 1 4 3v7h4v-14h-4v2c-2 -2 -3 -2 -5 -2c-4 0 -5 2 -5 6z"
         id="glyph176" />
      <glyph
         glyph-name="v"
         unicode="v"
         horiz-adv-x="8"
         d="M16 14l-4 -14h-8l-4 14h4l4 -10l4 10h4z"
         id="glyph178" />
      <glyph
         glyph-name="w"
         unicode="w"
         horiz-adv-x="17"
         d="M26 14l-6 -14h-5l-2 9l-2 -9h-7l-5 14h5l4 -10l4 10h2l4 -10l2 10h6z"
         id="glyph180" />
      <glyph
         glyph-name="x"
         unicode="x"
         d="M0 14h4l4 -3l4 3h5l-5 -7l6 -7h-6l-4 4l-4 -4h-5l5 7z"
         id="glyph182" />
      <glyph
         glyph-name="y"
         unicode="y"
         horiz-adv-x="8"
         d="M8 -8h-5l2 8h-1l-4 14h4l4 -10l4 10h4l-4 -14z"
         id="glyph184" />
      <glyph
         glyph-name="z"
         unicode="z"
         horiz-adv-x="8"
         d="M14 4v-4h-14l8 12h-6v2h12l-6 -10h6z"
         id="glyph186" />
      <glyph
         glyph-name="braceleft"
         unicode="{"
         horiz-adv-x="8"
         d="M7 -7c-3 0 -4 2 -4 5v6c0 2 0 2 -1 2v6c2 0 1 -1 1 1v6c0 3 1 5 4 5h4v-5c-2 0 -3 1 -3 -1v-6c0 -2 -1 -2 -2 -4c1 -1 2 -2 2 -4v-6v-1v0h3v-4h-2h-2z"
         id="glyph188" />
      <glyph
         glyph-name="bar"
         unicode="|"
         horiz-adv-x="2"
         d="M6 -7h-4v31h4v-31z"
         id="glyph190" />
      <glyph
         glyph-name="braceright"
         unicode="}"
         horiz-adv-x="8"
         d="M4 -7h-2v4h1v0c0 1 1 1 1 1v6c0 2 -1 3 1 4c-2 2 -1 2 -1 4v6c0 2 0 1 -2 1v5h2c3 0 4 -2 4 -5v-6c0 -2 1 -1 3 -1v-6c-1 0 -3 0 -3 -2v-6c0 -3 -1 -5 -4 -5z"
         id="glyph192" />
      <glyph
         glyph-name="asciitilde"
         unicode="~"
         d="M14 18c-3 0 -5 2 -8 2c-1 0 -2 0 -2 -2l-2 1c2 2 3 5 5 5c3 0 4 -3 7 -3c1 0 3 2 3 3l2 -1c-1 -2 -3 -5 -5 -5z"
         id="glyph194" />
      <glyph
         glyph-name="Agrave"
         unicode="À"
         horiz-adv-x="17"
         d="M4 30h5l4 -6h-4zM14 8l-2 8l-4 -8h6zM21 0h-4l-3 4h-7l-3 -4h-4l9 21h4z"
         id="glyph196" />
      <glyph
         glyph-name="Aacute"
         unicode="Á"
         horiz-adv-x="17"
         d="M18 30l-5 -6h-4l4 6h5zM14 8l-2 8l-4 -8h6zM21 0h-4l-3 4h-7l-3 -4h-4l9 21h4z"
         id="glyph198" />
      <glyph
         glyph-name="Acircumflex"
         unicode="Â"
         horiz-adv-x="17"
         d="M13 30l5 -6h-5l-1 5l-4 -5h-4l5 6h4zM14 8l-2 8l-4 -8h6zM21 0h-4l-3 4h-7l-3 -4h-4l9 21h4z"
         id="glyph200" />
      <glyph
         glyph-name="Atilde"
         unicode="Ã"
         horiz-adv-x="17"
         d="M14 28h4c0 -3 -2 -5 -5 -5c-2 0 -2 2 -4 2s-1 0 -1 -1h-4c0 2 1 4 4 4s3 -1 5 -1c1 0 1 -1 1 1zM14 8l-2 8l-4 -8h6zM21 0h-4l-3 4h-7l-3 -4h-4l9 21h4z"
         id="glyph202" />
      <glyph
         glyph-name="Adieresis"
         unicode="Ä"
         horiz-adv-x="17"
         d="M13 28c0 2 -1 2 1 2s4 0 4 -2s-2 -4 -4 -4s-1 2 -1 4zM4 28c0 2 0 2 2 2s4 0 4 -2s-2 -4 -4 -4s-2 2 -2 4zM14 8l-2 8l-4 -8h6zM21 0h-4l-3 4h-7l-3 -4h-4l9 21h4z"
         id="glyph204" />
      <glyph
         glyph-name="Aring"
         unicode="Å"
         horiz-adv-x="17"
         d="M12 29c3 0 3 -2 3 -4s0 -4 -2 -5l8 -20h-4l-3 4h-7l-3 -4h-4l9 20c-2 1 -3 3 -3 5s3 4 6 4zM12 23c2 0 1 0 1 2c0 1 1 3 -1 3s-3 -2 -3 -3c0 -2 1 -2 3 -2zM14 8l-2 8l-4 -8h6z"
         id="glyph206" />
      <glyph
         glyph-name="AE"
         unicode="Æ"
         horiz-adv-x="17"
         d="M23 4v-4h-11v0v4h-5l-3 -4h-4l9 21h14v-3h-9v-5h9v-5h-9v-4h9zM12 18l-4 -10h4v10z"
         id="glyph208" />
      <glyph
         glyph-name="Ccedilla"
         unicode="Ç"
         horiz-adv-x="17"
         d="M18 8h5c-2 -4 -6 -8 -10 -8l-1 -2h1c2 -1 2 -2 1 -4c-2 -3 -4 -3 -6 -2v0v4h1l2 -2c3 0 3 1 1 2h-2h-1l3 4c-5 1 -10 7 -10 12c0 6 4 9 10 9c4 0 9 -3 11 -7h-5c-2 2 -4 4 -6 4c-4 0 -6 -2 -6 -6s2 -8 6 -8c2 0 4 2 6 4z"
         id="glyph210" />
      <glyph
         glyph-name="Egrave"
         unicode="È"
         d="M3 30h5l4 -6h-4zM14 4v-4h-12v21h12v-3h-8v-5h8v-5h-8v-4h8z"
         id="glyph212" />
      <glyph
         glyph-name="Eacute"
         unicode="É"
         d="M14 30l-3 -6h-5l6 6h2zM14 4v-4h-12v21h12v-3h-8v-5h8v-5h-8v-4h8z"
         id="glyph214" />
      <glyph
         glyph-name="Ecircumflex"
         unicode="Ê"
         d="M11 30l3 -6h-2l-4 5l-3 -5h-3l4 6h5zM14 4v-4h-12v21h12v-3h-8v-5h8v-5h-8v-4h8z"
         id="glyph216" />
      <glyph
         glyph-name="Edieresis"
         unicode="Ë"
         d="M10 28c0 2 1 2 3 2s2 0 2 -2s0 -4 -2 -4s-3 2 -3 4zM2 28c0 2 0 2 2 2s3 0 3 -2s-1 -4 -3 -4s-2 2 -2 4zM14 4v-4h-12v21h12v-3h-8v-5h8v-5h-8v-4h8z"
         id="glyph218" />
      <glyph
         glyph-name="Igrave"
         unicode="Ì"
         horiz-adv-x="2"
         d="M-2 30h4l4 -6h-3zM6 0h-4v21h4v-21z"
         id="glyph220" />
      <glyph
         glyph-name="Iacute"
         unicode="Í"
         horiz-adv-x="2"
         d="M12 30l-6 -6h-3l3 6h6zM6 0h-4v21h4v-21z"
         id="glyph222" />
      <glyph
         glyph-name="Icircumflex"
         unicode="Î"
         horiz-adv-x="2"
         d="M6 30l5 -6h-5l-2 5l-2 -5h-4l5 6h3zM6 0h-4v21h4v-21z"
         id="glyph224" />
      <glyph
         glyph-name="Idieresis"
         unicode="Ï"
         horiz-adv-x="2"
         d="M5 28c0 2 1 2 3 2s4 0 4 -2s-2 -4 -4 -4s-3 2 -3 4zM-3 28c0 2 1 2 3 2s3 0 3 -2s-1 -4 -3 -4s-3 2 -3 4zM6 0h-4v21h4v-21z"
         id="glyph226" />
      <glyph
         glyph-name="Eth"
         unicode="Ð"
         d="M2 21h6c6 0 11 -3 11 -9s-5 -12 -11 -12h-6v9h-2v3h2v9zM6 4h2c4 0 6 5 6 8c0 4 -2 6 -6 6h-2v-6h6v-3h-6v-5z"
         id="glyph228" />
      <glyph
         glyph-name="Ntilde"
         unicode="Ñ"
         d="M14 28h4c0 -3 -2 -5 -5 -5c-2 0 -2 2 -4 2s-1 0 -1 -1h-4c0 2 1 4 4 4s3 -1 5 -1c1 0 1 -1 1 1zM19 0h-5l-8 13v-13h-4v21h4l8 -13v13h5v-21z"
         id="glyph230" />
      <glyph
         glyph-name="Ograve"
         unicode="Ò"
         horiz-adv-x="17"
         d="M6 30h5l3 -6h-2zM19 12c0 4 -4 6 -7 6s-6 -2 -6 -6c0 -3 3 -8 6 -8s7 5 7 8zM24 12c0 -6 -7 -12 -12 -12c-6 0 -10 6 -10 12s4 9 10 9c5 0 12 -3 12 -9z"
         id="glyph232" />
      <glyph
         glyph-name="Oacute"
         unicode="Ó"
         horiz-adv-x="17"
         d="M18 30l-4 -6h-3l3 6h4zM19 12c0 4 -4 6 -7 6s-6 -2 -6 -6c0 -3 3 -8 6 -8s7 5 7 8zM24 12c0 -6 -7 -12 -12 -12c-6 0 -10 6 -10 12s4 9 10 9c5 0 12 -3 12 -9z"
         id="glyph234" />
      <glyph
         glyph-name="Ocircumflex"
         unicode="Ô"
         horiz-adv-x="17"
         d="M14 30l4 -6h-4l-2 5l-1 -5h-5l6 6h2zM19 12c0 4 -4 6 -7 6s-6 -2 -6 -6c0 -3 3 -8 6 -8s7 5 7 8zM24 12c0 -6 -7 -12 -12 -12c-6 0 -10 6 -10 12s4 9 10 9c5 0 12 -3 12 -9z"
         id="glyph236" />
      <glyph
         glyph-name="Otilde"
         unicode="Õ"
         horiz-adv-x="17"
         d="M15 28h4c0 -3 -2 -5 -5 -5s-1 2 -3 2c-1 0 -3 0 -3 -1h-2c0 2 2 4 5 4s1 -1 3 -1c1 0 1 -1 1 1zM19 12c0 4 -4 6 -7 6s-6 -2 -6 -6c0 -3 3 -8 6 -8s7 5 7 8zM24 12c0 -6 -7 -12 -12 -12c-6 0 -10 6 -10 12s4 9 10 9c5 0 12 -3 12 -9z"
         id="glyph238" />
      <glyph
         glyph-name="Odieresis"
         unicode="Ö"
         horiz-adv-x="17"
         d="M14 28c0 2 1 2 3 2s2 0 2 -2s0 -4 -2 -4s-3 2 -3 4zM4 28c0 2 2 2 4 2s4 0 4 -2s-2 -4 -4 -4s-4 2 -4 4zM19 12c0 4 -4 6 -7 6s-6 -2 -6 -6c0 -3 3 -8 6 -8s7 5 7 8zM24 12c0 -6 -7 -12 -12 -12c-6 0 -10 6 -10 12s4 9 10 9c5 0 12 -3 12 -9z"
         id="glyph240" />
      <glyph
         glyph-name="multiply"
         unicode="×"
         horiz-adv-x="8"
         d="M4 7l-2 5l1 1l4 -4l5 4l1 -1l-4 -5l4 -4l-1 -1l-5 2l-4 -2l-1 1z"
         id="glyph242" />
      <glyph
         glyph-name="Oslash"
         unicode="Ø"
         horiz-adv-x="17"
         d="M3 0l-1 2l2 2c-2 2 -2 5 -2 8c0 6 4 9 10 9c3 0 5 0 7 -2l2 2l3 -1l-4 -2c2 -2 4 -3 4 -6c0 -6 -7 -12 -12 -12c-3 0 -6 0 -8 2zM7 8l8 9c-2 1 -1 1 -3 1c-3 0 -6 -2 -6 -6c0 -2 0 -3 1 -4zM8 5c2 -1 2 -1 4 -1c3 0 7 5 7 8c0 2 0 0 -1 2z"
         id="glyph244" />
      <glyph
         glyph-name="Ugrave"
         unicode="Ù"
         d="M4 30h4l4 -6h-4zM14 21h5v-13c0 -5 -2 -8 -7 -8s-10 3 -10 8v13h4v-12c0 -3 3 -5 6 -5s2 2 2 5v12z"
         id="glyph246" />
      <glyph
         glyph-name="Uacute"
         unicode="Ú"
         d="M16 30l-4 -6h-4l4 6h4zM14 21h5v-13c0 -5 -2 -8 -7 -8s-10 3 -10 8v13h4v-12c0 -3 3 -5 6 -5s2 2 2 5v12z"
         id="glyph248" />
      <glyph
         glyph-name="Ucircumflex"
         unicode="Û"
         d="M12 30l5 -6h-4l-2 5l-3 -5h-4l4 6h4zM14 21h5v-13c0 -5 -2 -8 -7 -8s-10 3 -10 8v13h4v-12c0 -3 3 -5 6 -5s2 2 2 5v12z"
         id="glyph250" />
      <glyph
         glyph-name="Udieresis"
         unicode="Ü"
         d="M12 28c0 2 0 2 2 2s4 0 4 -2s-2 -4 -4 -4s-2 2 -2 4zM4 28c0 2 0 2 2 2s3 0 3 -2s-1 -4 -3 -4s-2 2 -2 4zM14 21h5v-13c0 -5 -2 -8 -7 -8s-10 3 -10 8v13h4v-12c0 -3 3 -5 6 -5s2 2 2 5v12z"
         id="glyph252" />
      <glyph
         glyph-name="Yacute"
         unicode="Ý"
         horiz-adv-x="17"
         d="M18 30l-5 -6h-4l4 6h5zM8 0v12l-8 9h6l6 -7l3 7h5l-7 -9v-12h-5z"
         id="glyph254" />
      <glyph
         glyph-name="Thorn"
         unicode="Þ"
         d="M6 19h5c3 0 6 -2 6 -6s-3 -9 -6 -9h-5v-4h-4v24h4v-5zM6 15v-6h3c2 0 3 2 3 4s-1 2 -3 2h-3z"
         id="glyph256" />
      <glyph
         glyph-name="germandbls"
         unicode="ß"
         d="M8 9v4v0c2 0 4 0 4 2s-2 3 -4 3s-2 -1 -2 -2v-16h-4v14c0 4 3 7 7 7s6 -1 6 -4s0 -4 -2 -5c3 -1 5 -3 5 -6c0 -4 -2 -6 -6 -6h-4v4h3c2 0 2 0 2 2s0 3 -2 3h-3z"
         id="glyph258" />
      <glyph
         glyph-name="agrave"
         unicode="à"
         d="M3 22h3l6 -4h-6zM13 7c0 2 -1 5 -3 5s-4 -3 -4 -5s2 -3 4 -3s3 1 3 3zM18 14v-14h-5v2c-2 -2 -3 -2 -5 -2c-4 0 -6 3 -6 7s2 7 6 7c2 0 3 1 5 -1v1h5z"
         id="glyph260" />
      <glyph
         glyph-name="aacute"
         unicode="á"
         d="M14 22l-3 -4h-5l5 4h3zM13 7c0 2 -1 5 -3 5s-4 -3 -4 -5s2 -3 4 -3s3 1 3 3zM18 14v-14h-5v2c-2 -2 -3 -2 -5 -2c-4 0 -6 3 -6 7s2 7 6 7c2 0 3 1 5 -1v1h5z"
         id="glyph262" />
      <glyph
         glyph-name="acircumflex"
         unicode="â"
         d="M12 24l2 -6h-2l-3 3l-3 -3h-3l5 6h4zM13 7c0 2 -1 5 -3 5s-4 -3 -4 -5s2 -3 4 -3s3 1 3 3zM18 14v-14h-5v2c-2 -2 -3 -2 -5 -2c-4 0 -6 3 -6 7s2 7 6 7c2 0 3 1 5 -1v1h5z"
         id="glyph264" />
      <glyph
         glyph-name="atilde"
         unicode="ã"
         d="M12 20h2c0 -3 1 -3 -2 -3c-2 0 -4 1 -6 1c-1 0 -2 1 -2 0h-1c0 2 0 2 3 2h6c1 0 0 -2 0 0zM13 7c0 2 -1 5 -3 5s-4 -3 -4 -5s2 -3 4 -3s3 1 3 3zM18 14v-14h-5v2c-2 -2 -3 -2 -5 -2c-4 0 -6 3 -6 7s2 7 6 7c2 0 3 1 5 -1v1h5z"
         id="glyph266" />
      <glyph
         glyph-name="adieresis"
         unicode="ä"
         d="M10 19c0 2 1 2 3 2s2 0 2 -2s0 -3 -2 -3s-3 1 -3 3zM2 19c0 2 0 2 2 2s3 0 3 -2s-1 -3 -3 -3s-2 1 -2 3zM13 7c0 2 -1 5 -3 5s-4 -3 -4 -5s2 -3 4 -3s3 1 3 3zM18 14v-14h-5v2c-2 -2 -3 -2 -5 -2c-4 0 -6 3 -6 7s2 7 6 7c2 0 3 1 5 -1v1h5z"
         id="glyph268" />
      <glyph
         glyph-name="aring"
         unicode="å"
         d="M9 18c2 0 3 1 3 2c0 2 -1 1 -3 1s-2 1 -2 -1c0 -1 0 -2 2 -2zM9 24c2 0 4 -1 4 -4s-2 -4 -4 -4c-3 0 -5 1 -5 4s2 4 5 4zM13 7c0 2 -1 5 -3 5s-4 -3 -4 -5s2 -3 4 -3s3 1 3 3zM18 14v-14h-5v2c-2 -2 -3 -2 -5 -2c-4 0 -6 3 -6 7s2 7 6 7c2 0 3 1 5 -1v1h5z"
         id="glyph270" />
      <glyph
         glyph-name="ae"
         unicode="æ"
         horiz-adv-x="24"
         d="M12 6h-4c-1 0 -2 -1 -2 -2c0 -2 0 -1 2 -1s3 0 4 1v2v0zM5 11l-3 1c2 2 3 2 6 2s4 1 6 -1c2 2 4 1 6 1c4 0 8 -2 8 -6v-2h-11c0 -2 0 -3 2 -3s3 0 3 1h6c-2 -4 -4 -4 -8 -4c-3 0 -5 0 -7 2c-2 -2 -3 -2 -7 -2c-3 0 -4 1 -4 4c0 2 0 4 2 5h8v0c0 2 -2 3 -4 3 c-1 0 -2 0 -3 -1zM17 8h6s0 4 -3 4s-3 -4 -3 -4z"
         id="glyph272" />
      <glyph
         glyph-name="ccedilla"
         unicode="ç"
         d="M9 12c-3 0 -3 -3 -3 -5s0 -4 3 -4c2 0 3 -1 3 1h5c0 -3 -3 -4 -7 -4l-2 -2h3c2 -1 2 -2 1 -4c-2 -3 -6 -3 -8 -2v0v4h1l2 -2c3 0 3 1 1 2h-2h-1l3 4c-4 1 -6 4 -6 7c0 4 3 7 7 7s8 -3 8 -6h-5c0 2 -1 4 -3 4z"
         id="glyph274" />
      <glyph
         glyph-name="egrave"
         unicode="è"
         d="M4 22h4l4 -4h-4zM6 8h7s-1 4 -4 4s-3 -4 -3 -4zM18 8v-2h-12c0 -2 1 -3 3 -3s3 0 3 1h6c-2 -4 -5 -4 -9 -4s-7 3 -7 7s3 7 7 7s9 -2 9 -6z"
         id="glyph276" />
      <glyph
         glyph-name="eacute"
         unicode="é"
         d="M15 22l-3 -4h-4l4 4h3zM6 8h7s-1 4 -4 4s-3 -4 -3 -4zM18 8v-2h-12c0 -2 1 -3 3 -3s3 0 3 1h6c-2 -4 -5 -4 -9 -4s-7 3 -7 7s3 7 7 7s9 -2 9 -6z"
         id="glyph278" />
      <glyph
         glyph-name="ecircumflex"
         unicode="ê"
         d="M12 24l3 -6h-3l-2 3l-3 -3h-3l4 6h4zM6 8h7s-1 4 -4 4s-3 -4 -3 -4zM18 8v-2h-12c0 -2 1 -3 3 -3s3 0 3 1h6c-2 -4 -5 -4 -9 -4s-7 3 -7 7s3 7 7 7s9 -2 9 -6z"
         id="glyph280" />
      <glyph
         glyph-name="edieresis"
         unicode="ë"
         d="M12 19c0 2 -1 2 1 2s3 0 3 -2s-1 -3 -3 -3s-1 1 -1 3zM2 19c0 2 0 2 2 2s4 0 4 -2s-2 -3 -4 -3s-2 1 -2 3zM6 8h7s-1 4 -4 4s-3 -4 -3 -4zM18 8v-2h-12c0 -2 1 -3 3 -3s3 0 3 1h6c-2 -4 -5 -4 -9 -4s-7 3 -7 7s3 7 7 7s9 -2 9 -6z"
         id="glyph282" />
      <glyph
         glyph-name="igrave"
         unicode="ì"
         horiz-adv-x="2"
         d="M-2 22h5l3 -4h-3zM7 0h-5v14h5v-14z"
         id="glyph284" />
      <glyph
         glyph-name="iacute"
         unicode="í"
         horiz-adv-x="2"
         d="M12 22l-6 -4h-3l3 4h6zM7 0h-5v14h5v-14z"
         id="glyph286" />
      <glyph
         glyph-name="icircumflex"
         unicode="î"
         horiz-adv-x="2"
         d="M6 24l6 -6h-5l-3 3l-2 -3h-4l5 6h3zM7 0h-5v14h5v-14z"
         id="glyph288" />
      <glyph
         glyph-name="idieresis"
         unicode="ï"
         horiz-adv-x="2"
         d="M5 19c0 2 1 2 3 2s4 0 4 -2s-2 -3 -4 -3s-3 1 -3 3zM-3 19c0 2 1 2 3 2s3 0 3 -2s-1 -3 -3 -3s-3 1 -3 3zM7 0h-5v14h5v-14z"
         id="glyph290" />
      <glyph
         glyph-name="eth"
         unicode="ð"
         d="M13 7c0 2 -1 5 -3 5s-4 -3 -4 -5s2 -3 4 -3s3 1 3 3zM13 17h-5v2h5v5h5v-5h2v-2h-2v-17h-5v2c-2 -2 -3 -2 -5 -2c-4 0 -6 3 -6 7s2 7 6 7c2 0 3 1 5 -1v4z"
         id="glyph292" />
      <glyph
         glyph-name="ntilde"
         unicode="ñ"
         d="M14 20h3c0 -3 -1 -3 -4 -3c-2 0 -3 1 -5 1c-1 0 -1 1 -1 0h-3c0 2 1 2 4 2h5c1 0 1 -2 1 0zM17 8v-8h-5v8c0 2 -1 4 -3 4s-3 -3 -3 -5v-7h-4v14h4v-1c2 2 4 1 6 1c4 0 5 -2 5 -6z"
         id="glyph294" />
      <glyph
         glyph-name="ograve"
         unicode="ò"
         d="M3 22h5l4 -4h-4zM9 3c3 0 4 2 4 4s-1 5 -4 5s-4 -3 -4 -5s1 -4 4 -4zM9 14c4 0 9 -3 9 -7s-5 -7 -9 -7s-7 3 -7 7s3 7 7 7z"
         id="glyph296" />
      <glyph
         glyph-name="oacute"
         unicode="ó"
         d="M14 22l-2 -4h-4l4 4h2zM9 3c3 0 4 2 4 4s-1 5 -4 5s-4 -3 -4 -5s1 -4 4 -4zM9 14c4 0 9 -3 9 -7s-5 -7 -9 -7s-7 3 -7 7s3 7 7 7z"
         id="glyph298" />
      <glyph
         glyph-name="ocircumflex"
         unicode="ô"
         d="M12 24l2 -6h-2l-3 3l-3 -3h-3l5 6h4zM9 3c3 0 4 2 4 4s-1 5 -4 5s-4 -3 -4 -5s1 -4 4 -4zM9 14c4 0 9 -3 9 -7s-5 -7 -9 -7s-7 3 -7 7s3 7 7 7z"
         id="glyph300" />
      <glyph
         glyph-name="otilde"
         unicode="õ"
         d="M13 20h2c0 -3 0 -3 -3 -3s-3 1 -5 1c-1 0 -2 1 -2 0h-2c0 2 0 2 3 2h6c1 0 1 -2 1 0zM9 3c3 0 4 2 4 4s-1 5 -4 5s-4 -3 -4 -5s1 -4 4 -4zM9 14c4 0 9 -3 9 -7s-5 -7 -9 -7s-7 3 -7 7s3 7 7 7z"
         id="glyph302" />
      <glyph
         glyph-name="odieresis"
         unicode="ö"
         d="M12 19c0 2 -1 2 1 2s3 0 3 -2s-1 -3 -3 -3s-1 1 -1 3zM2 19c0 2 0 2 2 2s4 0 4 -2s-2 -3 -4 -3s-2 1 -2 3zM9 3c3 0 4 2 4 4s-1 5 -4 5s-4 -3 -4 -5s1 -4 4 -4zM9 14c4 0 9 -3 9 -7s-5 -7 -9 -7s-7 3 -7 7s3 7 7 7z"
         id="glyph304" />
      <glyph
         glyph-name="oslash"
         unicode="ø"
         d="M2 -2v2l1 2c-2 2 -1 3 -1 5c0 4 3 7 7 7c2 0 3 1 5 -1l3 1h1l-3 -2c2 -2 3 -3 3 -5c0 -4 -5 -7 -9 -7c-2 0 -3 0 -5 2zM9 3c3 0 4 2 4 4c0 1 -1 0 -1 1l-4 -4c1 0 -1 -1 1 -1zM6 4l6 7c-1 0 -2 1 -3 1c-3 0 -4 -3 -4 -5c0 -1 1 -2 1 -3z"
         id="glyph306" />
      <glyph
         glyph-name="ugrave"
         unicode="ù"
         d="M3 22h4l5 -4h-5zM2 6v8h4v-8c0 -2 0 -2 2 -2s4 1 4 3v7h4v-14h-4v2c-2 -2 -3 -2 -5 -2c-4 0 -5 2 -5 6z"
         id="glyph308" />
      <glyph
         glyph-name="uacute"
         unicode="ú"
         d="M14 22l-2 -4h-5l5 4h2zM2 6v8h4v-8c0 -2 0 -2 2 -2s4 1 4 3v7h4v-14h-4v2c-2 -2 -3 -2 -5 -2c-4 0 -5 2 -5 6z"
         id="glyph310" />
      <glyph
         glyph-name="ucircumflex"
         unicode="û"
         d="M12 24l2 -6h-2l-3 3l-3 -3h-3l4 6h5zM2 6v8h4v-8c0 -2 0 -2 2 -2s4 1 4 3v7h4v-14h-4v2c-2 -2 -3 -2 -5 -2c-4 0 -5 2 -5 6z"
         id="glyph312" />
      <glyph
         glyph-name="udieresis"
         unicode="ü"
         d="M11 19c0 2 0 2 2 2s3 0 3 -2s-1 -3 -3 -3s-2 1 -2 3zM2 19c0 2 0 2 2 2s4 0 4 -2s-2 -3 -4 -3s-2 1 -2 3zM2 6v8h4v-8c0 -2 0 -2 2 -2s4 1 4 3v7h4v-14h-4v2c-2 -2 -3 -2 -5 -2c-4 0 -5 2 -5 6z"
         id="glyph314" />
      <glyph
         glyph-name="yacute"
         unicode="ý"
         horiz-adv-x="8"
         d="M14 22l-4 -4h-4l5 4h3zM8 -8h-5l2 8h-1l-4 14h4l4 -10l4 10h4l-4 -14z"
         id="glyph316" />
      <glyph
         glyph-name="thorn"
         unicode="þ"
         d="M6 7c0 -2 3 -3 5 -3s2 1 2 3s0 5 -2 5s-5 -3 -5 -5zM6 -8h-4v32h4v-11c2 2 4 1 6 1c4 0 7 -3 7 -7s-3 -7 -7 -7c-2 0 -4 0 -6 2v-10z"
         id="glyph318" />
      <glyph
         glyph-name="ydieresis"
         unicode="ÿ"
         horiz-adv-x="8"
         d="M9 19c0 2 1 2 3 2s2 0 2 -2s0 -3 -2 -3s-3 1 -3 3zM2 19c0 2 0 2 2 2s2 0 2 -2s0 -3 -2 -3s-2 1 -2 3zM8 -8h-5l2 8h-1l-4 14h4l4 -10l4 10h4l-4 -14z"
         id="glyph320" />
      <glyph
         glyph-name="OE"
         unicode="Œ"
         horiz-adv-x="24"
         d="M14 4v14h-1c-4 0 -7 -2 -7 -6c0 -3 3 -8 7 -8h1zM28 4v-4h-9h-5h-1c-6 0 -11 6 -11 12s5 9 11 9h1h5h9v-3h-9v-5h9v-5h-9v-4h9z"
         id="glyph322" />
      <glyph
         glyph-name="oe"
         unicode="œ"
         horiz-adv-x="24"
         d="M28 8v-2h-10c0 -2 0 -3 2 -3s4 0 4 1h4c-2 -4 -4 -4 -8 -4c-3 0 -4 0 -6 2c-2 -2 -2 -2 -5 -2c-4 0 -7 3 -7 7s3 7 7 7c3 0 3 1 5 -1c2 2 4 1 6 1c4 0 8 -2 8 -6zM18 8h6s-1 4 -4 4s-2 -4 -2 -4zM13 7c0 2 -1 5 -4 5s-4 -3 -4 -5s1 -4 4 -4s4 2 4 4z"
         id="glyph324" />
      </font>
</defs>
</svg>
