<?xml version="1.0" encoding="UTF-8" standalone="no"?>
<!-- Created with Inkscape (http://www.inkscape.org/) -->

<svg
   xmlns:dc="http://purl.org/dc/elements/1.1/"
   xmlns:cc="http://creativecommons.org/ns#"
   xmlns:rdf="http://www.w3.org/1999/02/22-rdf-syntax-ns#"
   xmlns:svg="http://www.w3.org/2000/svg"
   xmlns="http://www.w3.org/2000/svg"
   xmlns:xlink="http://www.w3.org/1999/xlink"
   xmlns:sodipodi="http://sodipodi.sourceforge.net/DTD/sodipodi-0.dtd"
   xmlns:inkscape="http://www.inkscape.org/namespaces/inkscape"
   width="100mm"
   height="100mm"
   viewBox="0 0 377.95276 377.95276"
   id="svg8375"
   version="1.1"
   inkscape:version="0.92.3 (unknown)"
   sodipodi:docname="inkstitch.svg">
  <sodipodi:namedview
     inkscape:snap-object-midpoints="true"
     id="base"
     pagecolor="#ffffff"
     bordercolor="#666666"
     borderopacity="1.0"
     inkscape:pageopacity="0.0"
     inkscape:pageshadow="2"
     inkscape:zoom="4"
     inkscape:cx="56.98931"
     inkscape:cy="305.83326"
     inkscape:document-units="px"
     inkscape:current-layer="layer1"
     showgrid="true"
     units="mm"
     inkscape:window-width="1366"
     inkscape:window-height="705"
     inkscape:window-x="-4"
     inkscape:window-y="-4"
     inkscape:window-maximized="1"
     inkscape:measure-start="128.23,226.536"
     inkscape:measure-end="114.217,226.536"
     inkscape:snap-global="true"
     showguides="false"
     inkscape:snap-others="true"
     inkscape:object-nodes="false"
     inkscape:snap-nodes="false">
    <inkscape:grid
       empspacing="2"
       opacity="0.1254902"
       color="#f03fff"
       spacingy="18.897638"
       spacingx="18.897638"
       units="mm"
       id="grid5001"
       type="xygrid" />
  </sodipodi:namedview>
  <title
     id="title9425">Ink/Stitch Commands</title>
  <defs
     id="defs8377">
    <symbol
       id="inkstitch_stop">
      <title
         id="title13328">Stop the machine after sewing this object (for applique, etc)</title>
      <path
         style="opacity:1;vector-effect:none;fill:#fafafa;fill-opacity:1;fill-rule:evenodd;stroke:#003399;stroke-width:1.06501234;stroke-linecap:round;stroke-linejoin:miter;stroke-miterlimit:4;stroke-dasharray:3.19503705, 3.19503705;stroke-dashoffset:0;stroke-opacity:1"
         d="m 9.246554,58.4095 c -1.9e-6,5.106729 -4.1398241,9.24655 -9.246553,9.24655 -5.1067293,0 -9.2465521,-4.139821 -9.246554,-9.24655 1e-7,-2.452338 0.9741879,-4.804235 2.7082531,-6.538301 1.7340653,-1.734065 4.0859624,-2.708252 6.5383009,-2.708252 5.1067301,0 9.2465528,4.139823 9.246553,9.246553 0,0 0,0 0,0"
         id="circle13330"
         inkscape:connector-curvature="0" />
      <path
         style="opacity:1;fill:#000000;fill-opacity:1;fill-rule:nonzero;stroke:none;stroke-width:1.60622311;stroke-linecap:round;stroke-linejoin:round;stroke-miterlimit:4;stroke-dasharray:4.81866985, 4.81866985;stroke-dashoffset:0;stroke-opacity:1;paint-order:fill markers stroke"
         d="m -3.168998,53.75983 c 0,0 2.515878,0 2.515878,0 0,0 0,9.14087 0,9.14087 0,0 -2.515878,0 -2.515878,0 0,0 0,-9.14087 0,-9.14087"
         id="path13332"
         inkscape:connector-curvature="0" />
      <path
         style="display:inline;opacity:1;fill:#000000;fill-opacity:1;fill-rule:nonzero;stroke:none;stroke-width:1.60622311;stroke-linecap:round;stroke-linejoin:round;stroke-miterlimit:4;stroke-dasharray:4.81866985, 4.81866985;stroke-dashoffset:0;stroke-opacity:1;paint-order:fill markers stroke"
         d="m 0.831,53.75983 c 0,0 2.51588,0 2.51588,0 0,0 0,9.14087 0,9.14087 0,0 -2.51588,0 -2.51588,0 0,0 0,-9.14087 0,-9.14087"
         id="path13333"
         inkscape:connector-curvature="0" />
    </symbol>
    <symbol
       id="inkstitch_fill_start">
      <title
         id="title9432">Fill stitch starting point</title>
      <path
         inkscape:connector-curvature="0"
         style="opacity:1;vector-effect:none;fill:#fafafa;fill-opacity:1;fill-rule:evenodd;stroke:#003399;stroke-width:1.06501234;stroke-linecap:round;stroke-linejoin:miter;stroke-miterlimit:4;stroke-dasharray:3.19503705, 3.19503705;stroke-dashoffset:0;stroke-opacity:1"
         d="M 9.246554,58.4095 C 9.2465521,63.516229 5.1067293,67.65605 0,67.65605 c -5.1067289,0 -9.2465511,-4.139821 -9.246553,-9.24655 2e-7,-5.10673 4.1398229,-9.246553 9.246553,-9.246553 2.4523385,0 4.8042356,0.974187 6.5383009,2.708252 1.7340652,1.734066 2.708253,4.085963 2.7082531,6.538301 0,0 0,0 0,0"
         id="circle13166-6" />
      <path
         inkscape:connector-curvature="0"
         id="path4183"
         d="m 6.57284,58.41306 c 0,0 -10.4514,6.03412 -10.4514,6.03412 0,0 0,-12.06823 0,-12.06823 0,0 10.4514,6.03411 10.4514,6.03411"
         style="opacity:1;vector-effect:none;fill:#000000;fill-opacity:1;fill-rule:evenodd;stroke:none;stroke-width:2.74180555;stroke-linecap:butt;stroke-linejoin:miter;stroke-miterlimit:4;stroke-dasharray:none;stroke-dashoffset:0;stroke-opacity:1" />
    </symbol>
    <symbol
       id="inkstitch_trim">
      <title
         id="title9282">Trim the thread after sewing this object.</title>
      <path
         style="opacity:1;vector-effect:none;fill:#fafafa;fill-opacity:1;fill-rule:evenodd;stroke:#003399;stroke-width:1.06500006;stroke-linecap:round;stroke-linejoin:miter;stroke-miterlimit:4;stroke-dasharray:3.19500017, 3.19500017;stroke-dashoffset:0;stroke-opacity:1"
         d="m 9.07045,57.915929 c 1.8e-6,2.452339 -0.9741847,4.804237 -2.7082493,6.538304 -1.7340645,1.734066 -4.0859617,2.708255 -6.5383007,2.708256 -2.4523407,2e-6 -4.8042405,-0.974186 -6.5383072,-2.708253 -1.7340668,-1.734067 -2.7082546,-4.085966 -2.7082528,-6.538307 6e-7,-2.452339 0.9741895,-4.804237 2.708256,-6.538301 1.7340665,-1.734065 4.0859648,-2.708252 6.538304,-2.70825 5.1067282,2e-6 9.2465487,4.139823 9.24655,9.246551 0,0 0,0 0,0"
         id="circle13405"
         inkscape:connector-curvature="0" />
      <path
         id="path13416"
         d="m -3,52.426099 c -1.30575,0 -2.375,1.06924 -2.375,2.375 0,1.30575 1.06925,2.375 2.375,2.375 0.58687,0 1.11944,-0.22369 1.53516,-0.58007 0,0 0.61718,1.62109 0.61718,1.62109 0,0 -2.29882,6.01758 -2.29882,6.01758 0.98655,-0.12511 1.23728,-0.26171 1.67382,-0.97461 0,0 1.33008,-3.18945 1.33008,-3.18945 0,0 1.23633,3.25 1.23633,3.25 0.23227,0.77906 0.84315,0.79218 1.57813,1.07226 0,0 -2.05469,-6.14258 -2.05469,-6.14258 0,0 0.73047,-1.75 0.73047,-1.75 0.42849,0.41682 1.01136,0.67578 1.65234,0.67578 1.30575,0 2.375,-1.06925 2.375,-2.375 0,-1.30576 -1.06925,-2.375 -2.375,-2.375 -1.06233,0 -1.95701,0.71265 -2.25781,1.67969 0,0 -0.0117,-0.0156 -0.0117,-0.0156 0,0 -0.80274,2.10156 -0.80274,2.10156 0,0 -0.59179,-1.76562 -0.59179,-1.76562 -0.18242,-1.12808 -1.15865,-2 -2.33594,-2 0,0 -2e-5,-3e-5 -2e-5,-3e-5 m 0,1 c 0.76531,0 1.375,0.60968 1.375,1.375 0,0.76531 -0.60969,1.375 -1.375,1.375 -0.76531,0 -1.375,-0.60969 -1.375,-1.375 0,-0.76532 0.60969,-1.375 1.375,-1.375 0,0 0,0 0,0 m 6,0 c 0.76531,0 1.375,0.60968 1.375,1.375 0,0.76531 -0.60969,1.375 -1.375,1.375 -0.76531,0 -1.375,-0.60969 -1.375,-1.375 0,-0.76532 0.60969,-1.375 1.375,-1.375 0,0 0,0 0,0"
         style="color:#000000;font-style:normal;font-variant:normal;font-weight:normal;font-stretch:normal;font-size:medium;line-height:normal;font-family:sans-serif;font-variant-ligatures:normal;font-variant-position:normal;font-variant-caps:normal;font-variant-numeric:normal;font-variant-alternates:normal;font-feature-settings:normal;text-indent:0;text-align:start;text-decoration:none;text-decoration-line:none;text-decoration-style:solid;text-decoration-color:#000000;letter-spacing:normal;word-spacing:normal;text-transform:none;writing-mode:lr-tb;direction:ltr;text-orientation:mixed;dominant-baseline:auto;baseline-shift:baseline;text-anchor:start;white-space:normal;shape-padding:0;clip-rule:nonzero;display:inline;overflow:visible;visibility:visible;opacity:1;isolation:auto;mix-blend-mode:normal;color-interpolation:sRGB;color-interpolation-filters:linearRGB;solid-color:#000000;solid-opacity:1;vector-effect:none;fill:#050505;fill-opacity:1;fill-rule:evenodd;stroke:none;stroke-width:1.41421342;stroke-linecap:butt;stroke-linejoin:miter;stroke-miterlimit:4;stroke-dasharray:none;stroke-dashoffset:0;stroke-opacity:1;color-rendering:auto;image-rendering:auto;shape-rendering:auto;text-rendering:auto;enable-background:accumulate"
         inkscape:connector-curvature="0" />
    </symbol>
    <symbol
       id="inkstitch_fill_end">
      <title
         id="title9427">Fill stitch ending point</title>
      <path
         inkscape:connector-curvature="0"
         style="opacity:1;vector-effect:none;fill:#fafafa;fill-opacity:1;fill-rule:evenodd;stroke:#003399;stroke-width:1.06500006;stroke-linecap:round;stroke-linejoin:miter;stroke-miterlimit:4;stroke-dasharray:3.19500017, 3.19500017;stroke-dashoffset:0;stroke-opacity:1"
         d="m 9.260977,58.431186 c -1.9e-6,5.106729 -4.1398241,9.24655 -9.246553,9.24655 -5.1067293,0 -9.2465521,-4.139821 -9.246554,-9.24655 10e-8,-2.452338 0.9741879,-4.804235 2.7082531,-6.538301 1.7340653,-1.734065 4.0859624,-2.708252 6.5383009,-2.708252 5.1067301,0 9.2465528,4.139823 9.246553,9.246553 0,0 0,0 0,0"
         id="circle13166" />
      <path
         inkscape:connector-curvature="0"
         id="rect5371-2"
         d="m -4.529575,53.781516 c 0,0 9.140878,0 9.140878,0 0,0 0,9.14087 0,9.14087 0,0 -9.140878,0 -9.140878,0 0,0 0,-9.14087 0,-9.14087"
         style="opacity:1;fill:#000000;fill-opacity:1;fill-rule:nonzero;stroke:none;stroke-width:2.27154255;stroke-linecap:round;stroke-linejoin:round;stroke-miterlimit:4;stroke-dasharray:4.81866985, 4.81866985;stroke-dashoffset:0;stroke-opacity:1;paint-order:fill markers stroke" />
    </symbol>
  </defs>
  <metadata
     id="metadata8380">
    <rdf:RDF>
      <cc:Work
         rdf:about="">
        <dc:format>image/svg+xml</dc:format>
        <dc:type
           rdf:resource="http://purl.org/dc/dcmitype/StillImage" />
        <dc:title />
      </cc:Work>
    </rdf:RDF>
  </metadata>
  <g
     style="display:inline"
     id="layer1"
     inkscape:groupmode="layer"
     inkscape:label="Layer 1">
    <flowRoot
       xml:space="preserve"
       id="flowRoot37658"
       style="font-style:normal;font-variant:normal;font-weight:normal;font-stretch:normal;font-size:13.33333302px;line-height:100%;font-family:sans-serif;-inkscape-font-specification:sans-serif;text-align:start;text-anchor:start;opacity:1;fill:none;fill-opacity:1;fill-rule:nonzero;stroke:#050505;stroke-width:1.06500006;stroke-linecap:butt;stroke-linejoin:round;stroke-miterlimit:4;stroke-dasharray:3.19500017, 3.19500017;stroke-dashoffset:0;stroke-opacity:1;paint-order:fill markers stroke"
       transform="translate(0,58.409503)"><flowRegion
         id="flowRegion37660"><rect
           id="rect37662"
           width="217.5"
           height="62.5"
           x="20.75"
           y="71.702759" /></flowRegion><flowPara
         id="flowPara37664"
         style="fill:#000000;fill-opacity:1;stroke:none">Create symbols carefully!  They must be centered about the origin before being converted to a symbol.</flowPara></flowRoot>    <use
       xlink:href="#inkstitch_stop"
       id="use52651"
       x="0"
       y="0"
       width="100%"
       height="100%"
       transform="translate(151.18108,-1.7165886)" />
    <use
       xlink:href="#inkstitch_fill_start"
       id="use52663"
       x="0"
       y="0"
       width="100%"
       height="100%"
       transform="translate(113.3858,-1.7165886)" />
    <use
       xlink:href="#inkstitch_trim"
       id="use52679"
       x="0"
       y="0"
       width="100%"
       height="100%"
       transform="translate(75.590552,-1.7165891)" />
    <use
       xlink:href="#inkstitch_fill_end"
       id="use52699"
       x="0"
       y="0"
       width="100%"
       height="100%"
       transform="translate(37.780826,-1.7382746)" />
  </g>
</svg>
