<?xml version="1.0" encoding="UTF-8" standalone="no"?>
<!-- Created with Inkscape (http://www.inkscape.org/) -->

<svg
   xmlns:dc="http://purl.org/dc/elements/1.1/"
   xmlns:cc="http://creativecommons.org/ns#"
   xmlns:rdf="http://www.w3.org/1999/02/22-rdf-syntax-ns#"
   xmlns:svg="http://www.w3.org/2000/svg"
   xmlns="http://www.w3.org/2000/svg"
   xmlns:xlink="http://www.w3.org/1999/xlink"
   xmlns:sodipodi="http://sodipodi.sourceforge.net/DTD/sodipodi-0.dtd"
   xmlns:inkscape="http://www.inkscape.org/namespaces/inkscape"
   width="100mm"
   height="100mm"
   viewBox="0 0 377.95276 377.95276"
   id="svg8375"
   version="1.1"
   inkscape:version="0.92.3 (unknown)"
   sodipodi:docname="inkstitch.svg">
  <sodipodi:namedview
     inkscape:snap-object-midpoints="true"
     id="base"
     pagecolor="#ffffff"
     bordercolor="#666666"
     borderopacity="1.0"
     inkscape:pageopacity="0.0"
     inkscape:pageshadow="2"
     inkscape:zoom="1.9999999"
     inkscape:cx="160.57712"
     inkscape:cy="279.26165"
     inkscape:document-units="px"
     inkscape:current-layer="layer1"
     showgrid="true"
     units="mm"
     inkscape:window-width="1366"
     inkscape:window-height="705"
     inkscape:window-x="-4"
     inkscape:window-y="-4"
     inkscape:window-maximized="1"
     inkscape:measure-start="128.23,226.536"
     inkscape:measure-end="114.217,226.536"
     inkscape:snap-global="true"
     showguides="false"
     inkscape:snap-others="true"
     inkscape:object-nodes="false"
     inkscape:snap-nodes="false">
    <inkscape:grid
       type="xygrid"
       id="grid5001"
       units="mm"
       spacingx="18.897638"
       spacingy="18.897638"
       color="#f03fff"
       opacity="0.1254902"
       empspacing="2" />
  </sodipodi:namedview>
  <title
     id="title9425">Ink/Stitch Commands</title>
  <defs
     id="defs8377">
    <symbol
       id="inkstitch_fill_end">
      <title
         id="inkstitch_title9427">Fill stitch ending point</title>
      <path
         id="inkstitch_circle13166"
         d="m 9.220113,0.0792309 c -1.9e-6,5.106729 -4.1398241,9.24655 -9.246553,9.24655 -5.1067293,0 -9.2465521,-4.139821 -9.246554,-9.24655 1e-7,-2.452338 0.9741879,-4.804235 2.7082531,-6.538301 1.7340653,-1.734065 4.0859624,-2.708252 6.5383009,-2.708252 5.1067301,0 9.2465528,4.139823 9.246553,9.246553 0,0 0,0 0,0"
         style="opacity:1;vector-effect:none;fill:#fafafa;fill-opacity:1;fill-rule:evenodd;stroke:#003399;stroke-width:1.06500006;stroke-linecap:round;stroke-linejoin:miter;stroke-miterlimit:4;stroke-dasharray:3.19500017, 3.19500017;stroke-dashoffset:0;stroke-opacity:1"
         inkscape:connector-curvature="0" />
      <path
         style="opacity:1;fill:#000000;fill-opacity:1;fill-rule:nonzero;stroke:none;stroke-width:2.27154255;stroke-linecap:round;stroke-linejoin:round;stroke-miterlimit:4;stroke-dasharray:4.81866985, 4.81866985;stroke-dashoffset:0;stroke-opacity:1;paint-order:fill markers stroke"
         d="m -4.570439,-4.5704391 c 0,0 9.140878,0 9.140878,0 0,0 0,9.14087 0,9.14087 0,0 -9.140878,0 -9.140878,0 0,0 0,-9.14087 0,-9.14087"
         id="inkstitch_rect5371-2"
         inkscape:connector-curvature="0" />
    </symbol>
    <symbol
       id="inkstitch_trim">
      <title
         id="inkstitch_title9282">Trim the thread after sewing this object.</title>
      <path
         id="inkstitch_circle13405"
         d="m 9.2465284,-8.6e-6 c 1.8e-6,2.452339 -0.9741847,4.804237 -2.7082493,6.538304 C 4.8042146,8.2723614 2.4523174,9.2465504 -2.1625959e-5,9.2465514 -2.4523623,9.2465534 -4.8042621,8.2723654 -6.5383288,6.5382984 -8.2723956,4.8042314 -9.2465834,2.4523324 -9.2465816,-8.6e-6 c 6e-7,-2.452339 0.9741895,-4.804237 2.708256,-6.538301 1.7340665,-1.734065 4.0859648,-2.708252 6.538303974041,-2.70825 C 5.1067066,-9.2465576 9.2465271,-5.1067366 9.2465284,-8.6e-6 c 0,0 0,0 0,0"
         style="opacity:1;vector-effect:none;fill:#fafafa;fill-opacity:1;fill-rule:evenodd;stroke:#003399;stroke-width:1.06500006;stroke-linecap:round;stroke-linejoin:miter;stroke-miterlimit:4;stroke-dasharray:3.19500017, 3.19500017;stroke-dashoffset:0;stroke-opacity:1"
         inkscape:connector-curvature="0" />
      <path
         style="color:#000000;font-style:normal;font-variant:normal;font-weight:normal;font-stretch:normal;font-size:medium;line-height:normal;font-family:sans-serif;font-variant-ligatures:normal;font-variant-position:normal;font-variant-caps:normal;font-variant-numeric:normal;font-variant-alternates:normal;font-feature-settings:normal;text-indent:0;text-align:start;text-decoration:none;text-decoration-line:none;text-decoration-style:solid;text-decoration-color:#000000;letter-spacing:normal;word-spacing:normal;text-transform:none;writing-mode:lr-tb;direction:ltr;text-orientation:mixed;dominant-baseline:auto;baseline-shift:baseline;text-anchor:start;white-space:normal;shape-padding:0;clip-rule:nonzero;display:inline;overflow:visible;visibility:visible;opacity:1;isolation:auto;mix-blend-mode:normal;color-interpolation:sRGB;color-interpolation-filters:linearRGB;solid-color:#000000;solid-opacity:1;vector-effect:none;fill:#050505;fill-opacity:1;fill-rule:evenodd;stroke:none;stroke-width:1.41421342;stroke-linecap:butt;stroke-linejoin:miter;stroke-miterlimit:4;stroke-dasharray:none;stroke-dashoffset:0;stroke-opacity:1;color-rendering:auto;image-rendering:auto;shape-rendering:auto;text-rendering:auto;enable-background:accumulate"
         d="m -3.0000256,-5.9834096 c -1.30575,0 -2.375,1.06924 -2.375,2.375 0,1.30575 1.06925,2.375 2.375,2.375 0.58687,0 1.11944,-0.22369 1.53516,-0.58007 0,0 0.61717997,1.62109 0.61717997,1.62109 0,0 -2.29881997,6.01758 -2.29881997,6.01758 0.98655,-0.12511 1.23728,-0.26171 1.67382,-0.97461 0,0 1.33007997,-3.18945 1.33007997,-3.18945 0,0 1.23633003,3.25 1.23633003,3.25 0.23227,0.77906 0.84315,0.79218 1.57813,1.07226 0,0 -2.05469003,-6.14258 -2.05469003,-6.14258 0,0 0.73047003,-1.75 0.73047003,-1.75 0.42849,0.41682 1.01136,0.67578 1.65234,0.67578 1.30575,0 2.375,-1.06925 2.375,-2.375 0,-1.30576 -1.06925,-2.375 -2.375,-2.375 -1.06233,0 -1.95701,0.71265 -2.25781003,1.67969 0,0 -0.0117,-0.0156 -0.0117,-0.0156 0,0 -0.80274,2.10156 -0.80274,2.10156 0,0 -0.59179,-1.76562 -0.59179,-1.76562 -0.18242,-1.12808 -1.15864997,-2 -2.33593997,-2 0,0 -2e-5,-3e-5 -2e-5,-3e-5 m 0,1 c 0.76531,0 1.375,0.60968 1.375,1.375 0,0.76531 -0.60969,1.375 -1.375,1.375 -0.76531,0 -1.375,-0.60969 -1.375,-1.375 0,-0.76532 0.60969,-1.375 1.375,-1.375 0,0 0,0 0,0 m 6,0 c 0.76531,0 1.375,0.60968 1.375,1.375 0,0.76531 -0.60969,1.375 -1.375,1.375 -0.76531,0 -1.375,-0.60969 -1.375,-1.375 0,-0.76532 0.60969,-1.375 1.375,-1.375 0,0 0,0 0,0"
         id="inkstitch_path13416"
         inkscape:connector-curvature="0" />
    </symbol>
    <symbol
       id="inkstitch_fill_start">
      <title
         id="inkstitch_title9432">Fill stitch starting point</title>
      <path
         id="inkstitch_circle13166-6"
         d="m 9.2465269,-2.6e-6 c -1.9e-6,5.106729 -4.1398247,9.24655 -9.246554026709,9.24655 C -5.106756,9.2465474 -9.2465782,5.1067264 -9.2465801,-2.6e-6 c 2e-7,-5.10673 4.1398229,-9.246553 9.246552973291,-9.246553 2.452338526709,0 4.804235626709,0.974187 6.538300926709,2.708252 1.7340652,1.734066 2.708253,4.085963 2.7082531,6.538301 0,0 0,0 0,0"
         style="opacity:1;vector-effect:none;fill:#fafafa;fill-opacity:1;fill-rule:evenodd;stroke:#003399;stroke-width:1.06501234;stroke-linecap:round;stroke-linejoin:miter;stroke-miterlimit:4;stroke-dasharray:3.19503705, 3.19503705;stroke-dashoffset:0;stroke-opacity:1"
         inkscape:connector-curvature="0" />
      <path
         style="opacity:1;vector-effect:none;fill:#000000;fill-opacity:1;fill-rule:evenodd;stroke:none;stroke-width:2.74180555;stroke-linecap:butt;stroke-linejoin:miter;stroke-miterlimit:4;stroke-dasharray:none;stroke-dashoffset:0;stroke-opacity:1"
         d="m 6.5728129,0.0035574 c 0,0 -10.4514,6.03412 -10.4514,6.03412 0,0 0,-12.06823 0,-12.06823 0,0 10.4514,6.03411 10.4514,6.03411"
         id="inkstitch_path4183"
         inkscape:connector-curvature="0" />
    </symbol>
    <symbol
       id="inkstitch_stop">
      <title
         id="inkstitch_title13328">Stop the machine after sewing this object (for applique, etc)</title>
      <path
         id="inkstitch_circle13330"
         d="m 9.2465269,-2.6e-6 c -1.9e-6,5.106729 -4.1398241,9.24655 -9.246553026709,9.24655 C -5.1067554,9.2465474 -9.2465782,5.1067264 -9.2465801,-2.6e-6 c 10e-8,-2.452338 0.9741879,-4.804235 2.7082531,-6.538301 1.7340653,-1.734065 4.0859624,-2.708252 6.538300873291,-2.708252 C 5.106704,-9.2465556 9.2465267,-5.1067326 9.2465269,-2.6e-6 c 0,0 0,0 0,0"
         style="opacity:1;vector-effect:none;fill:#fafafa;fill-opacity:1;fill-rule:evenodd;stroke:#003399;stroke-width:1.06501234;stroke-linecap:round;stroke-linejoin:miter;stroke-miterlimit:4;stroke-dasharray:3.19503705, 3.19503705;stroke-dashoffset:0;stroke-opacity:1"
         inkscape:connector-curvature="0" />
      <path
         id="inkstitch_path13332"
         d="m -3.1690251,-4.6497026 c 0,0 2.51587797,0 2.51587797,0 0,0 0,9.14087 0,9.14087 0,0 -2.51587797,0 -2.51587797,0 0,0 0,-9.14087 0,-9.14087"
         style="opacity:1;fill:#000000;fill-opacity:1;fill-rule:nonzero;stroke:none;stroke-width:1.60622311;stroke-linecap:round;stroke-linejoin:round;stroke-miterlimit:4;stroke-dasharray:4.81866985, 4.81866985;stroke-dashoffset:0;stroke-opacity:1;paint-order:fill markers stroke"
         inkscape:connector-curvature="0" />
      <path
         id="inkstitch_path13333"
         d="m 0.83097287,-4.6497026 c 0,0 2.51588003,0 2.51588003,0 0,0 0,9.14087 0,9.14087 0,0 -2.51588003,0 -2.51588003,0 0,0 0,-9.14087 0,-9.14087"
         style="display:inline;opacity:1;fill:#000000;fill-opacity:1;fill-rule:nonzero;stroke:none;stroke-width:1.60622311;stroke-linecap:round;stroke-linejoin:round;stroke-miterlimit:4;stroke-dasharray:4.81866985, 4.81866985;stroke-dashoffset:0;stroke-opacity:1;paint-order:fill markers stroke"
         inkscape:connector-curvature="0" />
    </symbol>
    <symbol
       id="inkstitch_ignore_object">
      <title
         id="title25366">Ignore object when generating stitch plan</title>
      <path
         inkscape:connector-curvature="0"
         style="opacity:1;vector-effect:none;fill:#fafafa;fill-opacity:1;fill-rule:evenodd;stroke:#ff0000;stroke-width:1.06501234;stroke-linecap:round;stroke-linejoin:miter;stroke-miterlimit:4;stroke-dasharray:3.19503705, 3.19503705;stroke-dashoffset:0;stroke-opacity:1"
         d="m 9.2465269,-2.6e-6 c -1.9e-6,5.106729 -4.1398241,9.24655 -9.246553026709,9.24655 C -5.1067554,9.2465474 -9.2465782,5.1067264 -9.2465801,-2.6e-6 c 10e-8,-2.452338 0.9741879,-4.804235 2.7082531,-6.538301 1.7340653,-1.734065 4.0859624,-2.708252 6.538300873291,-2.708252 C 5.106704,-9.2465556 9.2465267,-5.1067326 9.2465269,-2.6e-6 v 0"
         id="inkstitch_path25368"
         sodipodi:nodetypes="csssscc" />
      <path
         style="color:#000000;font-style:normal;font-variant:normal;font-weight:normal;font-stretch:normal;font-size:medium;line-height:normal;font-family:sans-serif;font-variant-ligatures:normal;font-variant-position:normal;font-variant-caps:normal;font-variant-numeric:normal;font-variant-alternates:normal;font-feature-settings:normal;text-indent:0;text-align:start;text-decoration:none;text-decoration-line:none;text-decoration-style:solid;text-decoration-color:#000000;letter-spacing:normal;word-spacing:normal;text-transform:none;writing-mode:lr-tb;direction:ltr;text-orientation:mixed;dominant-baseline:auto;baseline-shift:baseline;text-anchor:start;white-space:normal;shape-padding:0;clip-rule:nonzero;display:inline;overflow:visible;visibility:visible;opacity:1;isolation:auto;mix-blend-mode:normal;color-interpolation:sRGB;color-interpolation-filters:linearRGB;solid-color:#000000;solid-opacity:1;vector-effect:none;fill:#ff0000;fill-opacity:1;fill-rule:nonzero;stroke:none;stroke-width:2.36500001;stroke-linecap:butt;stroke-linejoin:round;stroke-miterlimit:4;stroke-dasharray:none;stroke-dashoffset:0;stroke-opacity:1;paint-order:fill markers stroke;color-rendering:auto;image-rendering:auto;shape-rendering:auto;text-rendering:auto;enable-background:accumulate"
         d="M 5.9670459,-7.182445 -7.5106053,5.8067489 c -0.1726626,0.167055 -0.1205449,0.382287 0.051259,0.540886 0.4472376,0.445359 0.9095461,0.890719 1.44712,1.336078 L 7.8945309,-5.7539019 c -0.444712,-0.4981949 -0.762678,-1.0407509 -1.340795,-1.4922541 -0.129647,-0.1296467 -0.384848,-0.1381312 -0.58669,0.063711 z"
         id="inkstitch_path31147"
         inkscape:connector-curvature="0"
         sodipodi:nodetypes="ccccccc" />
      <path
         style="color:#000000;font-style:normal;font-variant:normal;font-weight:normal;font-stretch:normal;font-size:medium;line-height:normal;font-family:sans-serif;font-variant-ligatures:normal;font-variant-position:normal;font-variant-caps:normal;font-variant-numeric:normal;font-variant-alternates:normal;font-feature-settings:normal;text-indent:0;text-align:start;text-decoration:none;text-decoration-line:none;text-decoration-style:solid;text-decoration-color:#000000;letter-spacing:normal;word-spacing:normal;text-transform:none;writing-mode:lr-tb;direction:ltr;text-orientation:mixed;dominant-baseline:auto;baseline-shift:baseline;text-anchor:start;white-space:normal;shape-padding:0;clip-rule:nonzero;display:inline;overflow:visible;visibility:visible;opacity:1;isolation:auto;mix-blend-mode:normal;color-interpolation:sRGB;color-interpolation-filters:linearRGB;solid-color:#000000;solid-opacity:1;vector-effect:none;fill:#ff0000;fill-opacity:1;fill-rule:nonzero;stroke:none;stroke-width:2.36500001;stroke-linecap:butt;stroke-linejoin:round;stroke-miterlimit:4;stroke-dasharray:none;stroke-dashoffset:0;stroke-opacity:1;paint-order:fill markers stroke;color-rendering:auto;image-rendering:auto;shape-rendering:auto;text-rendering:auto;enable-background:accumulate"
         d="m -6.3778509,-7.3863915 c -0.4163674,0.3694232 -0.8327348,0.8218035 -1.2491022,1.2906927 L 5.9335939,7.7988319 7.6269529,6.1484419 -5.6213616,-7.4261673 c -0.1943465,-0.1943465 -0.5493765,-0.1905301 -0.7564893,0.039776 z"
         inkstitch_id="path31147-7"
         inkscape:connector-curvature="0"
         sodipodi:nodetypes="cccccc"
         id="path19494" />
    </symbol>
    <symbol
       id="inkstitch_ignore_layer">
      <title
         id="title9694">Ignore entire layer when generating stitch plan</title>
      <path
         inkscape:connector-curvature="0"
         style="opacity:1;vector-effect:none;fill:#fafafa;fill-opacity:1;fill-rule:evenodd;stroke:#ff0000;stroke-width:1.06501234;stroke-linecap:round;stroke-linejoin:miter;stroke-miterlimit:4;stroke-dasharray:3.19503705, 3.19503705;stroke-dashoffset:0;stroke-opacity:1"
         d="M 9.2465269,-4.9265995e-6 C 9.246525,5.1067241 5.1067028,9.2465451 -2.615882e-5,9.2465451 -5.1067554,9.2465451 -9.2465782,5.1067241 -9.2465801,-4.9265995e-6 -9.24658,-2.4523429 -8.2723922,-4.8042399 -6.538327,-6.5383059 c 1.7340653,-1.734065 4.0859624,-2.708252 6.53830084118,-2.708252 5.10673015882,0 9.24655285882,4.139823 9.24655305882,9.2465529734005 0,0 0,0 0,0"
         id="inkstitch_path25368-7" />
      <path
         sodipodi:nodetypes="ccccc"
         inkscape:connector-curvature="0"
         style="color:#000000;fill:#d5d5d5;fill-opacity:1;fill-rule:evenodd;stroke:#5a5a5a;stroke-width:0.63330007;stroke-linecap:square;stroke-linejoin:round;stroke-miterlimit:0;stroke-opacity:1"
         d="M 4,4.452769 1.46667,1.286102 H -5.5 l 2.53333,3.166667 z"
         id="use5800" />
      <path
         sodipodi:nodetypes="ccccc"
         inkscape:connector-curvature="0"
         style="color:#000000;opacity:0.5;fill:#d5d5d5;fill-opacity:1;fill-rule:evenodd;stroke:#858585;stroke-width:0.63339424;stroke-linecap:square;stroke-linejoin:round;stroke-miterlimit:0;stroke-opacity:1"
         d="M 4,2.552769 1.46667,-0.613898 H -5.5 l 2.53333,3.166667 z"
         id="use5864" />
      <g
         id="g5771">
        <path
           sodipodi:nodetypes="ccccccccc"
           inkscape:connector-curvature="0"
           style="fill:#aa0000;fill-rule:evenodd;stroke:#aa0000;stroke-width:1px"
           d="m -1.0666699,-5.0472339 h 4.4333333 l 0.6333333,0.6333333 V 0.01943274 L 3.3666634,0.65276607 H -1.0666699 L -1.7000032,0.01943274 V -4.4139006 Z"
           id="path8011" />
        <path
           inkscape:connector-curvature="0"
           id="path8023"
           d="m -0.43333658,-3.8755672 c 0,0 3.16666668,3.16666661 3.16666668,3.16666661"
           style="fill:none;stroke:#ffffff;stroke-width:1.70000005" />
        <path
           inkscape:connector-curvature="0"
           id="path8025"
           d="m 2.7333301,-3.8755672 c 0,0 -3.16666668,3.16666661 -3.16666668,3.16666661"
           style="fill:none;stroke:#ffffff;stroke-width:1.79999995;stroke-linejoin:round" />
      </g>
    </symbol>
    <symbol
       id="inkstitch_stop_position"
       style="display:inline">
      <title
         id="inkstitch_title9427-6">Jump destination for Stop commands (a.k.a. &quot;Frame Out position&quot;).</title>
      <path
         id="inkstitch_circle13166-7"
         d="m 9.220113,0.07922893 c -1.9e-6,5.10672897 -4.1398241,9.24654997 -9.24655297,9.24654997 -5.10672933,0 -9.24655213,-4.139821 -9.24655403,-9.24654997 1e-7,-2.45233803 0.9741879,-4.80423503 2.7082531,-6.53830103 1.7340653,-1.734065 4.0859624,-2.708252 6.53830093,-2.708252 5.10673007,0 9.24655277,4.139823 9.24655297,9.24655303 0,0 0,0 0,0"
         style="opacity:1;vector-effect:none;fill:#fafafa;fill-opacity:1;fill-rule:evenodd;stroke:#003399;stroke-width:1.06500006;stroke-linecap:round;stroke-linejoin:miter;stroke-miterlimit:4;stroke-dasharray:3.19500017, 3.19500017;stroke-dashoffset:0;stroke-opacity:1"
         inkscape:connector-curvature="0" />
      <path
         style="opacity:1;fill:#000000;fill-opacity:1;fill-rule:nonzero;stroke:none;stroke-width:2.27154255;stroke-linecap:round;stroke-linejoin:round;stroke-miterlimit:4;stroke-dasharray:4.81866985, 4.81866985;stroke-dashoffset:0;stroke-opacity:1;paint-order:fill markers stroke"
         d="m 4.570439,1.4295589 c 0,0 0,2.32837 0,2.32837 0,0 -9.140878,0 -9.140878,0 0,0 0,-2.32837 0,-2.32837 0,0 9.140878,0 9.140878,0"
         id="inkstitch_rect5371-2-5"
         inkscape:connector-curvature="0" />
      <path
         style="display:inline;opacity:1;fill:#000000;fill-opacity:1;fill-rule:nonzero;stroke:none;stroke-width:2.27154255;stroke-linecap:round;stroke-linejoin:round;stroke-miterlimit:4;stroke-dasharray:4.81866985, 4.81866985;stroke-dashoffset:0;stroke-opacity:1;paint-order:fill markers stroke"
         d="m 4.570439,0.00792594 c 0,0 -9.140878,0 -9.140878,0 0,0 4.570439028610238,-4.51587004 4.570439028610238,-4.51587004 0,0 4.570438971389763,4.51587004 4.570438971389763,4.51587004"
         id="inkstitch_rect5371-2-5-3"
         inkscape:connector-curvature="0" />
    </symbol>
    <symbol
       style="display:inline"
       id="inkstitch_origin">
      <title
         id="inkstitch_title9427-67">Origin for exported embroidery files</title>
      <path
         inkscape:connector-curvature="0"
         id="inkstitch_circle13166-5"
         d="m 9.220113,0.07922893 c -1.9e-6,5.10672897 -4.1398241,9.24654997 -9.24655297,9.24654997 -5.10672933,0 -9.24655213,-4.139821 -9.24655403,-9.24654997 1e-7,-2.45233803 0.9741879,-4.80423503 2.7082531,-6.53830103 1.7340653,-1.734065 4.0859624,-2.708252 6.53830093,-2.708252 5.10673007,0 9.24655277,4.139823 9.24655297,9.24655303 0,0 0,0 0,0"
         style="opacity:1;vector-effect:none;fill:#fafafa;fill-opacity:1;fill-rule:evenodd;stroke:#003399;stroke-width:1.06500006;stroke-linecap:round;stroke-linejoin:miter;stroke-miterlimit:4;stroke-dasharray:3.19500017, 3.19500017;stroke-dashoffset:0;stroke-opacity:1" />
      <g
         id="g27211">
        <path
           inkscape:connector-curvature="0"
           style="color:#000000;font-style:normal;font-variant:normal;font-weight:normal;font-stretch:normal;font-size:medium;line-height:normal;font-family:sans-serif;font-variant-ligatures:normal;font-variant-position:normal;font-variant-caps:normal;font-variant-numeric:normal;font-variant-alternates:normal;font-feature-settings:normal;text-indent:0;text-align:start;text-decoration:none;text-decoration-line:none;text-decoration-style:solid;text-decoration-color:#000000;letter-spacing:normal;word-spacing:normal;text-transform:none;writing-mode:lr-tb;direction:ltr;text-orientation:mixed;dominant-baseline:auto;baseline-shift:baseline;text-anchor:start;white-space:normal;shape-padding:0;clip-rule:nonzero;display:inline;overflow:visible;visibility:visible;opacity:1;isolation:auto;mix-blend-mode:normal;color-interpolation:sRGB;color-interpolation-filters:linearRGB;solid-color:#000000;solid-opacity:1;vector-effect:none;fill:#000000;fill-opacity:1;fill-rule:nonzero;stroke:none;stroke-width:1.95000005;stroke-linecap:butt;stroke-linejoin:miter;stroke-miterlimit:4;stroke-dasharray:none;stroke-dashoffset:0;stroke-opacity:1;paint-order:fill markers stroke;color-rendering:auto;image-rendering:auto;shape-rendering:auto;text-rendering:auto;enable-background:accumulate"
           d="m -3.8183594,-6.3222656 c 0,0 -1.9511718,3.375 -1.9511718,3.375 0,0 0.9746093,0 0.9746093,0 0,0 0,2.33984372 0,2.33984372 0,0 -0.703125,0 -0.703125,0 0,0 0,0.6484375 0,0.6484375 0,0 0.703125,0 0.703125,0 0,0 0,1.60156248 0,1.60156248 0,0 -0.703125,0 -0.703125,0 0,0 0,0.6484375 0,0.6484375 0,0 0.703125,0 0.703125,0 0,0 0,2.9003906 0,2.9003906 0,0 3.7675781,0 3.7675781,0 0,0 0,0.7265626 0,0.7265626 0,0 0.65039068,0 0.65039068,0 0,0 0,-0.7265626 0,-0.7265626 0,0 1.59960932,0 1.59960932,0 0,0 0,0.7265626 0,0.7265626 0,0 0.6503907,0 0.6503907,0 0,0 0,-0.7265626 0,-0.7265626 0,0 1.8242187,0 1.8242187,0 0,0 0,0.9746094 0,0.9746094 0,0 3.3730469,-1.9492187 3.3730469,-1.9492187 0,0 -3.3730469,-1.9492188 -3.3730469,-1.9492188 0,0 0,0.9746094 0,0.9746094 0,0 -1.8242187,0 -1.8242187,0 0,0 0,-0.7265625 0,-0.7265625 0,0 -0.6503907,0 -0.6503907,0 0,0 0,0.7265625 0,0.7265625 0,0 -1.59960932,0 -1.59960932,0 0,0 0,-0.7265625 0,-0.7265625 0,0 -0.65039068,0 -0.65039068,0 0,0 0,0.7265625 0,0.7265625 0,0 -1.8164062,0 -1.8164062,0 0,0 0,-0.9511719 0,-0.9511719 0,0 0.75,0 0.75,0 0,0 0,-0.6484375 0,-0.6484375 0,0 -0.75,0 -0.75,0 0,0 0,-1.60156248 0,-1.60156248 0,0 0.75,0 0.75,0 0,0 0,-0.6484375 0,-0.6484375 0,0 -0.75,0 -0.75,0 0,0 0,-2.33984372 0,-2.33984372 0,0 0.9746094,0 0.9746094,0 0,0 -1.9492188,-3.375 -1.9492188,-3.375"
           id="inkstitch_rect5371-2-3" />
      </g>
      <path
         inkscape:connector-curvature="0"
         id="path16421-8"
         d="m 0.57260898,-3.1777344 c -0.071734,-1.477e-4 -0.1459261,0.023966 -0.203125,0.070312 -0.001979,0.00126 -0.003933,0.00257 -0.00586,0.00391 -0.1089887,0.095935 -0.2036022,0.1946157 -0.2851562,0.2988281 -0.080937,0.103424 -0.1496356,0.2111305 -0.203125,0.3242187 -0.053925,0.1140093 -0.092467,0.2338978 -0.1171875,0.3554688 -0.024626,0.1211014 -0.037109,0.2469313 -0.037109,0.3769531 0,0 0,0.00391 0,0.00391 -1e-7,0.1308008 0.012438,0.2575792 0.037109,0.3789062 0.024772,0.1208588 0.063476,0.2399564 0.1171875,0.3535156 0.053489,0.1130885 0.1221879,0.2207947 0.203125,0.3242188 0.079746,0.1019017 0.1731573,0.2012789 0.28125,0.296875 0.057512,0.054401 0.1230095,0.072299 0.1816406,0.076172 0.058631,0.00387 0.1145272,-0.00646 0.171875,-0.037109 0.057348,-0.030654 0.123751,-0.098677 0.1328125,-0.1914063 0.00897,-0.091756 -0.035792,-0.1679217 -0.087891,-0.2226562 0,0 -0.00195,-0.00196 -0.00195,-0.00196 -0.042833,-0.045359 -0.0821932,-0.091351 -0.1171901,-0.1367188 -0.0646652,-0.085061 -0.1178725,-0.1718145 -0.1582031,-0.2597656 -0.0404721,-0.08826 -0.0692154,-0.1791742 -0.0898438,-0.2753906 0,0 0,-0.00195 0,-0.00195 -0.019368,-0.095905 -0.029297,-0.1972936 -0.029297,-0.3046876 0,-0.1073939 0.00993,-0.2087828 0.029297,-0.3046874 0,0 0,-0.00195 0,-0.00195 0.020577,-0.095962 0.049404,-0.1859964 0.089844,-0.2734375 0.040331,-0.087951 0.093538,-0.1747036 0.1582031,-0.2597656 0.034608,-0.045272 0.072382,-0.090974 0.1132813,-0.1347656 0.1100322,-0.1004922 0.106643,-0.2892446 0.00977,-0.3847657 -0.048439,-0.04776 -0.1177191,-0.072118 -0.1894532,-0.072266 0,0 -4.1e-6,-6.4e-6 -4.1e-6,-6.4e-6 m 5.98828132,0 c -0.071651,7.8e-5 -0.1408014,0.023039 -0.1894531,0.070312 -0.097304,0.094548 -0.1026997,0.2857883 0.00781,0.3867188 0.042446,0.045212 0.082141,0.091474 0.1152343,0.1347656 0.063728,0.083829 0.1151348,0.1701035 0.15625,0.2597656 0.041495,0.089724 0.071628,0.1807109 0.091797,0.2753907 0.019368,0.095905 0.029297,0.1972939 0.029297,0.3046874 0,0.1080768 -0.00969,0.210199 -0.029297,0.3066407 -0.020235,0.094281 -0.050544,0.1854295 -0.091797,0.2753906 -0.041114,0.089661 -0.092522,0.1759365 -0.15625,0.2597656 -0.035531,0.046061 -0.07555,0.092638 -0.1191406,0.1386719 -0.052099,0.054735 -0.096857,0.1309001 -0.087891,0.2226562 0.00906,0.092729 0.075465,0.1607525 0.1328125,0.1914063 0.057348,0.030654 0.1132438,0.040982 0.171875,0.037109 0.058631,-0.00387 0.1241291,-0.021771 0.1816406,-0.076172 0.1080928,-0.095596 0.2015041,-0.1949734 0.2812503,-0.296875 0.08094,-0.1034241 0.149635,-0.2111302 0.203125,-0.3242188 0.05371,-0.1135599 0.09242,-0.2326573 0.117187,-0.3535156 0.02467,-0.1213269 0.03711,-0.2481053 0.03711,-0.3789062 0,0 0,-0.00391 0,-0.00391 0,-0.1300217 -0.01248,-0.2558514 -0.03711,-0.3769531 -0.02472,-0.1215662 -0.06326,-0.2414547 -0.117184,-0.3554641 -0.05349,-0.1130875 -0.122188,-0.2207943 -0.203125,-0.3242187 -0.081554,-0.1042124 -0.176168,-0.2028933 -0.2851566,-0.2988281 -0.00193,-0.00134 -0.00388,-0.00265 -0.00586,-0.00391 -0.05737,-0.046485 -0.1314738,-0.07039 -0.203125,-0.070312 0,0 6e-7,3.2e-6 6e-7,3.2e-6 m -4.7011719,0.3515625 c -0.1283255,0 -0.2496161,0.018417 -0.3613281,0.052734 -0.1205672,0.03623 -0.231977,0.1029821 -0.3222656,0.1953125 -0.092899,0.095 -0.158771,0.2147859 -0.20507822,0.3535156 -3.58e-6,6.5e-4 -3.58e-6,0.0013 0,0.00195 -0.047143,0.1440141 -0.068359,0.3107544 -0.068359,0.5058593 0,0.187956 0.021404,0.3526519 0.068359,0.4960938 -3.58e-6,6.5e-4 -3.58e-6,0.0013 0,0.00195 0.046821,0.138265 0.11525652,0.2561727 0.20312502,0.3496094 6.449e-4,6.5506e-4 0.00129,0.001305 0.00195,0.00195 0.086822,0.090925 0.1925294,0.1619069 0.3144532,0.203125 0.113825,0.038479 0.2343925,0.056641 0.359375,0.056641 0.1240896,-10e-8 0.2463111,-0.01819 0.3613281,-0.056641 0.1227637,-0.04104 0.2290582,-0.1116491 0.3164063,-0.203125 0.090879,-0.094856 0.160379,-0.2144584 0.2070312,-0.3515625 0,0 0,-0.00195 0,-0.00195 0.04963,-0.1446454 0.070315,-0.3097522 0.070315,-0.4960938 0,-0.1944243 -0.019335,-0.3619907 -0.068359,-0.5078125 C 2.6898173,-2.3649775 2.6213826,-2.484308 2.5296403,-2.578125 2.4412783,-2.668486 2.3312446,-2.7348378 2.2112809,-2.7714844 c -0.1098451,-0.034511 -0.2276775,-0.054687 -0.3515625,-0.054687 0,0 0,0 0,0 m 3.40625,0 c -0.1283255,0 -0.2509177,0.018217 -0.3632812,0.052734 -0.1211815,0.036426 -0.2311771,0.1041614 -0.3203125,0.1953125 -0.0929,0.095001 -0.1587709,0.2147864 -0.2050781,0.3535156 -3.6e-6,6.5e-4 -3.6e-6,0.0013 0,0.00195 -0.047144,0.144015 -0.068359,0.3107548 -0.068359,0.5058593 0,0.1879556 0.021403,0.352651 0.068359,0.4960938 -3.6e-6,6.5e-4 -3.6e-6,0.0013 0,0.00195 0.04626,0.13661 0.1121532,0.2549502 0.2011718,0.3496094 6.449e-4,6.5506e-4 0.00129,0.001305 0.00195,0.00195 0.087964,0.092121 0.195188,0.1621455 0.3164062,0.203125 0.1138248,0.038479 0.2343924,0.056641 0.359375,0.056641 0.1240899,0 0.2450506,-0.018421 0.359375,-0.056641 0.1227636,-0.04104 0.2290582,-0.1116493 0.3164062,-0.203125 0.090879,-0.094856 0.160379,-0.2144583 0.2070313,-0.3515625 0,0 0,-0.00195 0,-0.00195 0.04909,-0.1430335 0.072266,-0.3084325 0.072266,-0.4960938 0,-0.1956861 -0.021841,-0.3636373 -0.070312,-0.5078125 C 6.0946613,-2.3633389 6.02879,-2.4831245 5.9358903,-2.578125 5.8475279,-2.6684863 5.7374948,-2.7348378 5.6175309,-2.7714844 c -0.1098451,-0.034511 -0.2276775,-0.054687 -0.3515625,-0.054687 0,0 0,0 0,0 m -3.40625,0.5429688 c 0.055432,0 0.1009954,0.00891 0.1367188,0.023437 6.5e-4,3.6e-6 0.0013,3.6e-6 0.00195,0 0.02557,0.00985 0.045222,0.025496 0.070312,0.060547 6.5e-4,3.6e-6 0.0013,3.6e-6 0.00195,0 0.022095,0.030406 0.047135,0.083247 0.064453,0.1621094 -3.6e-6,6.5e-4 -3.6e-6,0.0013 0,0.00195 0.016958,0.076535 0.025391,0.1828146 0.025391,0.3183593 0,0.1285689 -0.010757,0.2344819 -0.029297,0.3105469 -0.0184,0.079083 -0.042145,0.132477 -0.066406,0.1660156 -6.5e-4,-3.6e-6 -0.0013,-3.6e-6 -0.00195,0 -0.02365,0.033039 -0.047699,0.051825 -0.076172,0.064453 -0.036523,0.01511 -0.077371,0.023437 -0.1328125,0.023437 -0.058078,0 -0.1013487,-0.0088 -0.1367188,-0.023437 -0.02914,-0.012911 -0.055461,-0.032877 -0.080078,-0.066406 -0.022766,-0.033187 -0.04635,-0.085255 -0.064453,-0.1621094 0,0 0,-0.00195 0,-0.00195 -0.016808,-0.07661 -0.025391,-0.1812575 -0.025391,-0.3105469 0,-0.1346383 0.00848,-0.2420437 0.025391,-0.3183593 3.6e-6,-6.5e-4 3.6e-6,-0.0013 0,-0.00195 0.017622,-0.080248 0.04212,-0.1316854 0.0625,-0.1601562 0.023285,-0.031716 0.046461,-0.05007 0.078125,-0.0625 0.038881,-0.015263 0.085765,-0.023437 0.1464844,-0.023437 0,0 3.1e-6,-3.4e-6 3.1e-6,-3.4e-6 m 3.40625,0 c 0.055432,0 0.097781,0.0084 0.1347656,0.023437 6.5e-4,3.6e-6 0.0013,3.6e-6 0.00195,0 0.02677,0.010311 0.048719,0.027653 0.072266,0.060547 6.5e-4,3.6e-6 0.0013,3.6e-6 0.00195,0 0.022095,0.030406 0.047135,0.083247 0.064453,0.1621094 -3.6e-6,6.5e-4 -3.6e-6,0.0013 0,0.00195 0.016958,0.076535 0.025391,0.1828146 0.025391,0.3183593 1e-6,0.1285671 -0.010756,0.2344806 -0.029297,0.3105469 -0.0184,0.079083 -0.042145,0.132477 -0.066406,0.1660156 -6.5e-4,-3.6e-6 -0.0013,-3.6e-6 -0.00195,0 -0.02365,0.033039 -0.047699,0.051825 -0.076172,0.064453 -0.036523,0.01511 -0.077371,0.023437 -0.1328126,0.023437 -0.058078,0 -0.1045526,-0.00932 -0.1386718,-0.023437 -0.027839,-0.012332 -0.052016,-0.030845 -0.078125,-0.066406 -0.024212,-0.035177 -0.048775,-0.087353 -0.066406,-0.1621094 0,0 0,-0.00195 0,-0.00195 -0.016808,-0.07661 -0.025391,-0.1812576 -0.025391,-0.3105469 0,-0.1346383 0.00848,-0.2420434 0.025391,-0.3183593 3.6e-6,-6.5e-4 3.6e-6,-0.0013 0,-0.00195 0.017138,-0.078042 0.042536,-0.1295963 0.064453,-0.1601562 0.024828,-0.033817 0.045701,-0.050539 0.076172,-0.0625 0.037688,-0.014795 0.087718,-0.023437 0.1484375,-0.023437 0,0 2.3e-6,-3.4e-6 2.3e-6,-3.4e-6 m -1.5664062,1.0058593 c -0.097876,-0.029355 -0.2049377,-0.028281 -0.3144532,0.00781 -0.1691652,0.055752 -0.26201,0.2041752 -0.2441406,0.3730468 0.00893,0.084436 0.065507,0.1795074 0.1523438,0.2265625 0.00174,9.428e-4 0.00411,-9.08e-4 0.00586,0 -0.03157,0.046422 -0.066871,0.097993 -0.056641,0.1542969 0.013731,0.075568 0.061485,0.1250427 0.109375,0.1542969 0.095781,0.058508 0.2242885,0.048199 0.3203125,-0.025391 0.024113,-0.01848 0.051789,-0.03993 0.080078,-0.070312 0,0 0.00195,-0.00195 0.00195,-0.00195 0.028338,-0.029789 0.049476,-0.061384 0.066406,-0.089844 0,0 0.00195,-0.00195 0.00195,-0.00195 0.04171,-0.070204 0.043422,-0.1104433 0.052734,-0.1542969 0.020331,-0.067932 0.046748,-0.1800329 0.033203,-0.3085938 10e-4,-0.071525 -0.027523,-0.1432706 -0.068359,-0.1835937 -0.044315,-0.043758 -0.091687,-0.0654 -0.140625,-0.080078 0,0 6.5e-6,-3.7e-6 6.5e-6,-3.7e-6"
         style="font-style:normal;font-variant:normal;font-weight:normal;font-stretch:normal;font-size:3.23560667px;line-height:100%;font-family:'Liberation Sans';-inkscape-font-specification:'Liberation Sans';text-align:center;text-anchor:middle;display:inline;opacity:1;fill:#000000;fill-opacity:1;fill-rule:nonzero;stroke:none;stroke-width:0.18200287;stroke-linecap:butt;stroke-linejoin:miter;stroke-miterlimit:4;stroke-dasharray:none;stroke-dashoffset:0;stroke-opacity:1;paint-order:fill markers stroke" />
    </symbol>
    <symbol
       id="inkstitch_satin_cut_point"
       style="display:inline">
      <title
         id="inkstitch_title9427-675">Satin Column cut point</title>
      <path
         id="inkstitch_circle13166-3"
         d="m 9.220113,0.07922893 c -1.9e-6,5.10672897 -4.1398241,9.24654997 -9.24655297,9.24654997 -5.10672933,0 -9.24655213,-4.139821 -9.24655403,-9.24654997 1e-7,-2.45233803 0.9741879,-4.80423503 2.7082531,-6.53830103 1.7340653,-1.734065 4.0859624,-2.708252 6.53830093,-2.708252 5.10673007,0 9.24655277,4.139823 9.24655297,9.24655303 0,0 0,0 0,0"
         style="opacity:1;vector-effect:none;fill:#fafafa;fill-opacity:1;fill-rule:evenodd;stroke:#003399;stroke-width:1.06500006;stroke-linecap:round;stroke-linejoin:miter;stroke-miterlimit:4;stroke-dasharray:3.19500017, 3.19500017;stroke-dashoffset:0;stroke-opacity:1"
         inkscape:connector-curvature="0" />
      <path
         id="path24356"
         d="m -7.8132269,-1.4510415 c -0.4413094,0.88338563 -0.07931,1.96814513 0.8040823,2.40945763 0.8833854,0.44130937 1.9681488,0.079303 2.4094581,-0.8040818 0.1983467,-0.3970378 0.2270074,-0.8329413 0.1264064,-1.23463743 0,0 1.3053145,0.13034233 1.3053145,0.13034233 0,0 3.29416163,3.58901577 3.29416163,3.58901577 0.2487872,-0.7097192 0.2411124,-0.9255141 -0.09365,-1.4617903 0,0 -1.70824193,-1.97779537 -1.70824193,-1.97779537 0,0 2.61658533,0.2619947 2.61658533,0.2619947 0.60556237,0.1061633 0.82089997,-0.3026842 1.25878787,-0.70526413 0,0 -4.8501007,-0.6859624 -4.8501007,-0.6859624 0,0 -0.9370561,-1.0856429 -0.9370561,-1.0856429 0.4268116,-0.1490142 0.7990019,-0.4558243 1.0156363,-0.8894695 0.4413094,-0.8833854 0.079303,-1.9681487 -0.8040822,-2.4094581 -0.8833921,-0.4413128 -1.9681487,-0.079303 -2.4094581,0.8040822 -0.3590398,0.7187033 -0.1792857,1.5648425 0.373288,2.0951784 0,0 -0.014508,0.00264 -0.014508,0.00264 0,0 1.1504733,1.2533541 1.1504733,1.2533541 0,0 -1.3945129,-0.196367 -1.3945129,-0.196367 -0.8248385,-0.2578481 -1.7446631,0.1079194 -2.1425563,0.9043974 0,0 -2.71e-5,3.4e-6 -2.71e-5,3.4e-6 m 0.6765348,0.337974 c 0.2586549,-0.517759 0.877184,-0.7241797 1.3949495,-0.4655215 0.5177589,0.2586549 0.7241761,0.87719093 0.4655214,1.39494953 -0.2586548,0.5177587 -0.8771906,0.7241758 -1.3949494,0.4655211 -0.5177657,-0.2586579 -0.7241762,-0.8771902 -0.4655215,-1.39494913 0,0 0,0 0,0 m 2.0278432,-4.0592094 c 0.2586548,-0.5177589 0.8771839,-0.7241794 1.3949495,-0.4655213 0.5177588,0.2586548 0.724176,0.8771905 0.4655213,1.3949494 -0.2586548,0.5177588 -0.8771906,0.7241761 -1.3949494,0.4655213 -0.5177656,-0.2586581 -0.7241761,-0.8771906 -0.4655214,-1.3949494 0,0 0,0 0,0"
         style="display:inline;opacity:1;fill:#000000;fill-opacity:1;stroke:none;stroke-width:0.37812883;stroke-linejoin:miter;stroke-miterlimit:4;stroke-dasharray:none;stroke-dashoffset:0;stroke-opacity:1;paint-order:fill markers stroke"
         inkscape:connector-curvature="0" />
      <path
         id="path24362"
         d="m 4.4798843,-4.3110508 c 0.219827,2.414579 -0.180079,4.01786863 -1.429103,5.5454305 0,0 2.023437,1.0507812 2.023437,1.0507812 1.715964,-1.67359867 1.847271,-3.9809016 1.75755,-6.660665 0,0 -2.351884,0.064453 -2.351884,0.064453 m -2.097072,6.2192586 c -2.10168637,1.4056146 -3.14434337,3.5358281 -3.667017,6.0218201 0,0 2.3918915,0.212651 2.3918915,0.212651 0.3238246,-2.741001 2.2229845,-4.191785 3.3298135,-5.1368148 0,0 -2.054688,-1.0976563 -2.054688,-1.0976563"
         style="color:#000000;font-style:normal;font-variant:normal;font-weight:normal;font-stretch:normal;font-size:medium;line-height:normal;font-family:sans-serif;font-variant-ligatures:normal;font-variant-position:normal;font-variant-caps:normal;font-variant-numeric:normal;font-variant-alternates:normal;font-feature-settings:normal;text-indent:0;text-align:start;text-decoration:none;text-decoration-line:none;text-decoration-style:solid;text-decoration-color:#000000;letter-spacing:normal;word-spacing:normal;text-transform:none;writing-mode:lr-tb;direction:ltr;text-orientation:mixed;dominant-baseline:auto;baseline-shift:baseline;text-anchor:start;white-space:normal;shape-padding:0;clip-rule:nonzero;display:inline;overflow:visible;visibility:visible;opacity:1;isolation:auto;mix-blend-mode:normal;color-interpolation:sRGB;color-interpolation-filters:linearRGB;solid-color:#000000;solid-opacity:1;vector-effect:none;fill:#242424;fill-opacity:1;fill-rule:nonzero;stroke:none;stroke-width:2.4000001;stroke-linecap:butt;stroke-linejoin:miter;stroke-miterlimit:4;stroke-dasharray:none;stroke-dashoffset:0;stroke-opacity:1;paint-order:fill markers stroke;color-rendering:auto;image-rendering:auto;shape-rendering:auto;text-rendering:auto;enable-background:accumulate"
         inkscape:connector-curvature="0" />
    </symbol>
    <symbol
       style="display:inline"
       id="inkstitch_satin_start">
      <title
         id="inkstitch_title9432-1">Satin column starting point</title>
      <path
         inkscape:connector-curvature="0"
         id="inkstitch_circle13166-6-2"
         d="M 9.2465269,-4.9265995e-6 C 9.246525,5.1067241 5.1067022,9.2465451 -2.715882e-5,9.2465451 -5.106756,9.2465451 -9.2465782,5.1067241 -9.2465801,-4.9265995e-6 -9.2465799,-5.1067349 -5.1067572,-9.2465579 -2.715882e-5,-9.2465579 c 2.45233855882,0 4.80423565882,0.974187 6.53830095882,2.708252 1.7340652,1.734066 2.708253,4.085963 2.7082531,6.5383009734005 0,0 0,0 0,0"
         style="opacity:1;vector-effect:none;fill:#fafafa;fill-opacity:1;fill-rule:evenodd;stroke:#003399;stroke-width:1.06501234;stroke-linecap:round;stroke-linejoin:miter;stroke-miterlimit:4;stroke-dasharray:3.19503705, 3.19503705;stroke-dashoffset:0;stroke-opacity:1" />
      <path
         inkscape:connector-curvature="0"
         style="opacity:1;vector-effect:none;fill:#000000;fill-opacity:1;fill-rule:evenodd;stroke:none;stroke-width:2.74180555;stroke-linecap:butt;stroke-linejoin:miter;stroke-miterlimit:4;stroke-dasharray:none;stroke-dashoffset:0;stroke-opacity:1"
         d="m 6.5728129,0.00355507 c 0,0 -10.4514,6.03412003 -10.4514,6.03412003 0,0 0,-12.06823 0,-12.06823 0,0 10.4514,6.03410997 10.4514,6.03410997"
         id="inkstitch_path4183-7" />
      <path
         inkscape:connector-curvature="0"
         style="display:inline;opacity:1;fill:none;fill-opacity:1;stroke:#ffffff;stroke-width:0.2;stroke-linejoin:miter;stroke-miterlimit:4;stroke-dasharray:none;stroke-dashoffset:0;stroke-opacity:1;paint-order:fill markers stroke"
         d="m -3.0312502,1.577739 c 0,0 0.25,-3.6875002 0.25,-3.6875002 0,0 1.0312501,3.8437502 1.0312501,3.8437502 0,0 0.34375,-3.6250002 0.34375,-3.6250002 0,0 0.96874997,3.5625002 0.96874997,3.5625002 0,0 0.28125,-3.3125002 0.28125,-3.3125002 0,0 0.9375001,3.3125002 0.9375001,3.3125002 0,0 0.21875,-3.0937502 0.21875,-3.0937502 0,0 1.03125013,2.9687502 1.03125013,2.9687502 0,0 0.0625,-2.7187501 0.0625,-2.7187501 0,0 0.96875,2.4687501 0.96875,2.4687501 0,0 0.15625,-2.18750023 0.15625,-2.18750023"
         id="path31975" />
    </symbol>
    <symbol
       id="inkstitch_satin_end"
       style="display:inline">
      <title
         id="inkstitch_title9427-3">Satin column ending point</title>
      <path
         id="inkstitch_circle13166-60"
         d="m 9.220113,0.0792309 c -1.9e-6,5.106729 -4.1398241,9.24655 -9.246553,9.24655 -5.1067293,0 -9.2465521,-4.139821 -9.246554,-9.24655 1e-7,-2.452338 0.9741879,-4.804235 2.7082531,-6.538301 1.7340653,-1.734065 4.0859624,-2.708252 6.5383009,-2.708252 5.1067301,0 9.2465528,4.139823 9.246553,9.246553 0,0 0,0 0,0"
         style="opacity:1;vector-effect:none;fill:#fafafa;fill-opacity:1;fill-rule:evenodd;stroke:#003399;stroke-width:1.06500006;stroke-linecap:round;stroke-linejoin:miter;stroke-miterlimit:4;stroke-dasharray:3.19500017, 3.19500017;stroke-dashoffset:0;stroke-opacity:1"
         inkscape:connector-curvature="0" />
      <path
         style="opacity:1;fill:#000000;fill-opacity:1;fill-rule:nonzero;stroke:none;stroke-width:2.27154255;stroke-linecap:round;stroke-linejoin:round;stroke-miterlimit:4;stroke-dasharray:4.81866985, 4.81866985;stroke-dashoffset:0;stroke-opacity:1;paint-order:fill markers stroke"
         d="m -4.570439,-4.5704391 c 0,0 9.140878,0 9.140878,0 0,0 0,9.14087 0,9.14087 0,0 -9.140878,0 -9.140878,0 0,0 0,-9.14087 0,-9.14087"
         id="inkstitch_rect5371-2-6"
         inkscape:connector-curvature="0" />
      <path
         style="display:inline;opacity:1;fill:none;fill-opacity:1;stroke:#ffffff;stroke-width:0.2;stroke-linejoin:miter;stroke-miterlimit:4;stroke-dasharray:none;stroke-dashoffset:0;stroke-opacity:1;paint-order:fill markers stroke"
         d="m -3.2964153,1.5777408 0.25,-3.6875001 1.0312501,3.8437501 0.34375,-3.6250001 0.9687501,3.5625001 0.28125,-3.3125001 0.9375,3.3125001 0.21875,-3.0937501 1.0312499,2.9687501 0.0625,-2.7187501 0.96875,2.4687501 0.15625,-2.1875"
         id="path31975-0-2"
         inkscape:connector-curvature="0" />
    </symbol>
    <symbol
       id="inkstitch_run_start"
       style="display:inline">
      <title
         id="inkstitch_title9427-3">Running stitch starting point</title>
      <path
         style="opacity:1;vector-effect:none;fill:#fafafa;fill-opacity:1;fill-rule:evenodd;stroke:#003399;stroke-width:1.06500006;stroke-linecap:round;stroke-linejoin:miter;stroke-miterlimit:4;stroke-dasharray:3.19500017, 3.19500017;stroke-dashoffset:0;stroke-opacity:1"
         d="M 9.2201108,0.05852023 A 9.2576327,9.2122261 0 0 1 -0.03752532,9.2707454 9.2576327,9.2122261 0 0 1 -9.2951565,0.05852023 9.2576327,9.2122261 0 0 1 -0.03752532,-9.1537082 9.2576327,9.2122261 0 0 1 9.2201108,0.05852023 Z"
         id="inkstitch-autorun_start-circle" />
      <path
         style="fill:#000000;"
         id="inkstitch-autorun_start-path"
         d="M -3.8159516,-5.6184574 c -0.3237427,0.020819 -0.5868063,0.2896236 -0.5907925,0.6167873 -0.00301,0.2444103 0.1384108,0.4575508 0.3447536,0.5613983 l -0.084402,6.772037 c -0.1244867,-0.03501 -0.2442949,-0.092709 -0.3519231,-0.1734001 -0.018852,-0.014824 -0.04551,-0.014824 -0.064361,0 -0.018491,0.013861 -0.025495,0.038228 -0.017164,0.05968 l 0.6437207,1.8106215 c 0.016803,0.044746 0.080472,0.044746 0.097275,0 l 0.6923582,-1.7949729 c 0.01924,-0.049558 -0.04036,-0.092132 -0.081524,-0.058277 -0.1120849,0.077886 -0.2339971,0.131597 -0.3605046,0.1634443 l 0.078701,-6.7706068 c 0.2092494,-0.097934 0.3546084,-0.3086274 0.3576257,-0.5542753 0.00418,-0.34328 -0.2710359,-0.6282831 -0.6165645,-0.632436 -0.016194,-1.924e-4 -0.031281,-0.00102 -0.047198,-3e-7 z m 0.9498575,1.1369602 c -0.042382,0.00503 -0.060846,0.055939 -0.031474,0.086686 l 1.2703061,1.4510604 c 0.035433,0.033525 0.093621,0.00416 0.087254,-0.044058 -0.016443,-0.1368774 -0.00712,-0.2718022 0.025745,-0.3993565 l 5.8279214,3.19201934 c -0.00955,0.23010929 0.1105352,0.45752327 0.3261511,0.57558932 0.3026489,0.1656996 0.6815068,0.0590468 0.8482917,-0.24160502 0.1667849,-0.30067931 0.059461,-0.68276459 -0.2431877,-0.84846414 -0.216862,-0.11872613 -0.4758284,-0.0980447 -0.6666138,0.0341025 l -5.8250435,-3.1905893 c 0.090438,-0.093452 0.1986471,-0.1708699 0.32186037,-0.2274139 0.044292,-0.022937 0.033578,-0.088721 -0.015724,-0.096642 L -2.8489315,-4.4800672 c -0.00556,-0.00146 -0.011405,-0.00189 -0.017162,-0.00146 z m 6.9651605,5.10354566 -1.909736,0.3126702 c -0.047392,0.011523 -0.054063,0.075768 -0.01,0.096642 0.1244589,0.057067 0.2344955,0.1342923 0.3261511,0.2273865 L -3.4211257,4.5999927 C -3.6139873,4.4704034 -3.8733966,4.4493919 -4.0877673,4.5701537 -4.38834,4.7394835 -4.4899335,5.1199736 -4.3194944,5.4186179 c 0.170439,0.2986167 0.5534215,0.4066446 0.8540219,0.2373147 0.2139276,-0.1204863 0.3297497,-0.3481203 0.3175695,-0.5769918 L 2.778711,1.7376949 c 0.03333,0.1260415 0.043323,0.2590963 0.027184,0.3936635 -0.00791,0.053024 0.060763,0.081379 0.092985,0.038365 L 4.1477039,0.70304186 c 0.026048,-0.036523 -0.00388,-0.086439 -0.048637,-0.0809934 Z" />
    </symbol>
    <symbol
       id="inkstitch_run_end"
       style="display:inline">
      <title
         id="inkstitch_title9427-3">Running stitch ending point</title>
       <path
          style="opacity:1;vector-effect:none;fill:#fafafa;fill-opacity:1;fill-rule:evenodd;stroke:#003399;stroke-width:1.06500006;stroke-linecap:round;stroke-linejoin:miter;stroke-miterlimit:4;stroke-dasharray:3.19500017, 3.19500017;stroke-dashoffset:0;stroke-opacity:1"
          d="M 9.2201108,0.05852023 A 9.2576327,9.2122261 0 0 1 -0.03752532,9.2707454 9.2576327,9.2122261 0 0 1 -9.2951565,0.05852023 9.2576327,9.2122261 0 0 1 -0.03752532,-9.1537082 9.2576327,9.2122261 0 0 1 9.2201108,0.05852023 Z"
          id="inkstitch-autorun_end-circle" />
       <path
          style="fill:#000000;"
          id="inkstitch-autorun_end-path"
          d="M -1.5977169,-4.8605484 c -0.00319,1.523e-4 -0.00643,6.284e-4 -0.00955,0.00139 l -1.738218,0.6114515 c -0.044131,0.013274 -0.04771,0.07406 -0.00546,0.092381 l 1.7286718,0.6522048 c 0.042543,0.011464 0.077832,-0.033916 0.055977,-0.072004 -0.075631,-0.1076723 -0.1279528,-0.2256474 -0.1583813,-0.3478501 l 5.3580083,0.0693 C 3.7283489,-3.6574881 3.9289854,-3.5209456 4.163113,-3.51807 4.4929661,-3.51396 4.7679522,-3.7755203 4.7721242,-4.1036793 4.7763142,-4.4318766 4.5079699,-4.70559 4.178155,-4.7096844 3.9431472,-4.7126044 3.7385104,-4.5784741 3.6388043,-4.38223 l -5.3566689,-0.065225 c 0.033509,-0.1204507 0.089391,-0.2361787 0.1679695,-0.3396805 0.019712,-0.034678 -0.00793,-0.077126 -0.047786,-0.073375 z m -2.6203001,0.2119742 c -0.3227531,0.0041 -0.5844387,0.2625539 -0.5884958,0.5856093 -0.00295,0.2329983 0.129063,0.4383262 0.3236143,0.5394287 l -0.065546,5.2964025 c -0.1188053,-0.03344 -0.233209,-0.088553 -0.3359005,-0.1657553 -0.018028,-0.014169 -0.043442,-0.014169 -0.061451,0 -0.016535,0.013426 -0.022582,0.035878 -0.015004,0.055721 l 0.6130875,1.7310434 c 0.013338,0.043896 0.074426,0.047476 0.092855,0.00543 l 0.6608737,-1.7201931 c 0.021243,-0.048142 -0.037912,-0.091505 -0.077832,-0.057054 -0.1085476,0.075489 -0.2269701,0.1273635 -0.3495646,0.1576047 l 0.069641,-5.2950505 c 0.1995845,-0.095713 0.3397855,-0.2989653 0.3427327,-0.5326301 0.00412,-0.3281781 -0.2641734,-0.5964641 -0.5939692,-0.6005585 -0.00519,-7.62e-5 -0.00991,-7.62e-5 -0.015023,0 z m 8.4425639,1.3302136 c -0.020458,-1.333e-4 -0.038925,0.012283 -0.046428,0.03125 l -0.6608735,1.714742 c -0.021243,0.04818 0.037931,0.091524 0.077851,0.057054 0.1072273,-0.074556 0.2244441,-0.1271727 0.3454502,-0.1576044 L 3.8750009,3.6234841 C 3.6760287,3.7194257 3.5366315,3.9202022 3.5336461,4.15341 3.529436,4.4816071 3.7964416,4.7512453 4.1262565,4.7553397 4.4560331,4.759449 4.726962,4.4979085 4.731134,4.1697112 4.7341354,3.934523 4.5996979,3.7276145 4.4020654,3.6275594 L 4.4703294,-1.66612 c 0.1197239,0.033383 0.2338597,0.08802 0.3372785,0.1657745 0.039309,0.032355 0.096166,-0.00834 0.077832,-0.055721 L 4.2709744,-3.2871101 c -0.00748,-0.018949 -0.02595,-0.031384 -0.046428,-0.031251 z M 1.5114302,3.6180947 c -0.037451,6.856e-4 -0.060627,0.040868 -0.042351,0.073356 0.075823,0.1079391 0.1280103,0.2267139 0.1584006,0.3492023 L -3.7305473,3.971372 c -0.096108,-0.1988532 -0.2989079,-0.338138 -0.5338966,-0.3410517 -0.3297958,-0.0041 -0.5994042,0.2615256 -0.6035188,0.5896847 -0.00413,0.3281972 0.2627956,0.6019488 0.5926104,0.6060241 0.2345678,0.00292 0.4394534,-0.1304295 0.5393508,-0.3261024 l 5.3580084,0.063873 C 1.5885549,4.684593 1.5314859,4.7996924 1.4526979,4.90348 1.4299049,4.942272 1.4668789,4.9887 1.5100529,4.975503 L 3.2496085,4.3640511 c 0.043002,-0.015959 0.043002,-0.076441 0,-0.0924 L 1.5250561,3.6194659 c -0.00446,-0.00112 -0.00905,-0.00154 -0.013665,-0.00139 Z" />
    </symbol>
  </defs>
  <metadata
     id="metadata8380">
    <rdf:RDF>
      <cc:Work
         rdf:about="">
        <dc:format>image/svg+xml</dc:format>
        <dc:type
           rdf:resource="http://purl.org/dc/dcmitype/StillImage" />
        <dc:title />
      </cc:Work>
    </rdf:RDF>
  </metadata>
  <g
     inkscape:label="Layer 1"
     inkscape:groupmode="layer"
     id="layer1"
     style="display:inline">
    <flowRoot
       transform="translate(0,58.409503)"
       style="font-style:normal;font-variant:normal;font-weight:normal;font-stretch:normal;font-size:13.33333302px;line-height:100%;font-family:sans-serif;-inkscape-font-specification:sans-serif;text-align:start;text-anchor:start;opacity:1;fill:none;fill-opacity:1;fill-rule:nonzero;stroke:#050505;stroke-width:1.06500006;stroke-linecap:butt;stroke-linejoin:round;stroke-miterlimit:4;stroke-dasharray:3.19500017, 3.19500017;stroke-dashoffset:0;stroke-opacity:1;paint-order:fill markers stroke"
       id="flowRoot37658"
       xml:space="preserve"><flowRegion
         id="flowRegion37660"><rect
           y="71.702759"
           x="20.75"
           height="62.5"
           width="217.5"
           id="rect37662" /></flowRegion><flowPara
         style="fill:#000000;fill-opacity:1;stroke:none"
         id="flowPara37664">Create symbols carefully!  They must be centered about the origin before being converted to a symbol.</flowPara></flowRoot>    <use
       xlink:href="#inkstitch_fill_end"
       id="use9454"
       x="0"
       y="0"
       width="100%"
       height="100%"
       transform="translate(37.82169,75.511319)" />
    <use
       xlink:href="#inkstitch_trim"
       id="use9461"
       x="0"
       y="0"
       width="100%"
       height="100%"
       transform="translate(75.590552,75.590552)" />
    <use
       xlink:href="#inkstitch_fill_start"
       id="use9468"
       x="0"
       y="0"
       width="100%"
       height="100%"
       transform="translate(113.38583,75.590552)" />
    <use
       xlink:href="#inkstitch_stop"
       id="use9476"
       x="0"
       y="0"
       width="100%"
       height="100%"
       transform="translate(151.1811,75.590552)" />
    <use
       xlink:href="#inkstitch_ignore_object"
       id="use31203"
       x="0"
       y="0"
       width="100%"
       height="100%"
       transform="translate(188.83762,75.41843)" />
    <use
       transform="translate(226.77166,75.590554)"
       height="100%"
       width="100%"
       y="0"
       x="0"
       id="use58774"
       xlink:href="#inkstitch_ignore_layer" />
    <use
       xlink:href="#inkstitch_stop_position"
       id="use9692"
       x="0"
       y="0"
       width="100%"
       height="100%"
       transform="translate(264.59335,75.511321)" />
    <use
       transform="translate(302.38862,75.511321)"
       height="100%"
       width="100%"
       y="0"
       x="0"
       id="use27375"
       xlink:href="#inkstitch_origin" />
    <use
       xlink:href="#inkstitch_satin_cut_point"
       id="use24520"
       x="0"
       y="0"
       width="100%"
       height="100%"
       transform="translate(340.1839,75.511321)" />
    <use
       transform="translate(113.29209,37.983158)"
       height="100%"
       width="100%"
       y="0"
       x="0"
       id="use32163"
       xlink:href="#inkstitch_satin_start" />
    <use
       xlink:href="#inkstitch_satin_end"
       id="use37077"
       x="0"
       y="0"
       width="100%"
       height="100%"
       transform="translate(37.966704,37.983156)" />
    <use
       xlink:href="#inkstitch_run_start"
       id="use37078"
       x="0"
       y="0"
       width="100%"
       height="100%"
       transform="translate(113.4214,113.28861)" />
    <use
       xlink:href="#inkstitch_run_end"
       id="use37079"
       x="0"
       y="0"
       width="100%"
       height="100%"
       transform="translate(37.830849,113.28861)" />
  </g>
</svg>
