<?xml version="1.0" encoding="UTF-8" standalone="no"?>
<!-- Created with Inkscape (http://www.inkscape.org/) -->

<svg
   id="svg"
   version="1.1"
   viewBox="0 0 210 297"
   height="297mm"
   width="210mm"
   sodipodi:docname="marker.svg"
   inkscape:version="1.1.1 (3bf5ae0d25, 2021-09-20, custom)"
   xmlns:inkscape="http://www.inkscape.org/namespaces/inkscape"
   xmlns:sodipodi="http://sodipodi.sourceforge.net/DTD/sodipodi-0.dtd"
   xmlns="http://www.w3.org/2000/svg"
   xmlns:svg="http://www.w3.org/2000/svg"
   xmlns:inkstitch="http://inkstitch.org/namespace">
  <defs
     id="defs1">
    <marker
       refX="10"
       refY="5"
       orient="auto"
       id="inkstitch-pattern-marker"
       markerUnits="userSpaceOnUse"
       markerWidth="0.5"
       viewBox="0 0 1 1">
      <g
         id="inkstitch-pattern-group">
        <path
           style="fill:#fafafa;stroke:#ff5500;stroke-width:0.5;stroke-linecap:round;stroke-linejoin:miter;stroke-miterlimit:4;stroke-dasharray:1, 1;stroke-dashoffset:0;stroke-opacity:1;fill-opacity:0.8;"
           d="M 10.12911,5.2916678 A 4.8374424,4.8374426 0 0 1 5.2916656,10.12911 4.8374424,4.8374426 0 0 1 0.45422399,5.2916678 4.8374424,4.8374426 0 0 1 5.2916656,0.45422399 4.8374424,4.8374426 0 0 1 10.12911,5.2916678 Z"
           id="inkstitch-pattern-marker-circle" />
        <path
           style="fill:none;stroke:#000000;stroke-width:0.4;stroke-linecap:round;stroke-miterlimit:4;"
           id="inkstitch-pattern-marker-spiral"
           d="M 4.9673651,5.7245662 C 4.7549848,5.7646159 4.6247356,5.522384 4.6430021,5.3419847 4.6765851,5.0103151 5.036231,4.835347 5.3381858,4.8987426 5.7863901,4.9928495 6.0126802,5.4853625 5.9002872,5.9065088 5.7495249,6.4714237 5.1195537,6.7504036 4.5799191,6.5874894 3.898118,6.3816539 3.5659013,5.6122905 3.7800789,4.9545192 4.0402258,4.1556558 4.9498996,3.7699484 5.7256318,4.035839 6.6416744,4.3498087 7.0810483,5.4003986 6.7631909,6.2939744 6.395633,7.3272552 5.2038143,7.8204128 4.1924535,7.4503931 3.0418762,7.0294421 2.4948761,5.6961604 2.9171752,4.567073 3.3914021,3.2991406 4.8663228,2.6982592 6.1130974,3.1729158 7.4983851,3.7003207 8.1531869,5.3169977 7.6260947,6.6814205 7.0456093,8.1841025 5.2870784,8.8928844 3.8050073,8.3132966 2.1849115,7.6797506 1.4221671,5.7793073 2.0542715,4.1796074 2.7408201,2.4420977 4.7832541,1.6253548 6.5005435,2.310012 8.3554869,3.0495434 9.2262638,5.2339874 8.4890181,7.0688861 8.4256397,7.2266036 8.3515789,7.379984 8.2675333,7.5277183" />
      </g>
    </marker>
    <marker
      refX="10"
      refY="5"
      orient="auto"
      id="inkstitch-guide-line-marker"
      markerUnits="userSpaceOnUse"
      markerWidth="0.5"
      viewBox="0 0 1 1">
     <g
        id="inkstitch-guide-line-group">
       <path
          style="fill:#fafafa;stroke:#ff5500;stroke-width:0.5;stroke-linecap:round;stroke-linejoin:miter;stroke-miterlimit:4;stroke-dasharray:1, 1;stroke-dashoffset:0;stroke-opacity:1;fill-opacity:0.8;"
          d="M 10.12911,5.2916678 A 4.8374424,4.8374426 0 0 1 5.2916656,10.12911 4.8374424,4.8374426 0 0 1 0.45422399,5.2916678 4.8374424,4.8374426 0 0 1 5.2916656,0.45422399 4.8374424,4.8374426 0 0 1 10.12911,5.2916678 Z"
          id="inkstitch-guide-line-marker-circle" />
       <path
          style="fill:none;stroke:#000000;stroke-width:0.4;stroke-linecap:round;stroke-miterlimit:4;"
          id="inkstitch-guide-line-marker-spiral"
          d="M 1.7506092,6.2728168 3.4558825,5.2833684 7.1038696,7.400035 8.8193256,6.4046783 M 1.7963222,4.129626 3.4558825,3.1667016 7.1038696,5.2833682 8.8475785,4.2716184 M 1.6318889,5.2833683 3.4558825,4.225035 7.1038696,6.3417016 8.9558408,5.2677331" />
     </g>
    </marker>
    <marker
        orient="auto"
        id="inkstitch-needle-point-marker">
       <circle
         cx="0" cy="0" r="1.5"
         style="fill:context-stroke;opacity:0.8;" />
    </marker>
  </defs>
</svg>
