<?xml version="1.0" encoding="UTF-8" standalone="no"?>
<!-- Created with Inkscape (http://www.inkscape.org/) -->

<svg
   id="svg"
   version="1.1"
   viewBox="0 0 210 297"
   height="297mm"
   width="210mm"
   sodipodi:docname="marker.svg"
   inkscape:version="1.1.1 (3bf5ae0d25, 2021-09-20, custom)"
   xmlns:inkscape="http://www.inkscape.org/namespaces/inkscape"
   xmlns:sodipodi="http://sodipodi.sourceforge.net/DTD/sodipodi-0.dtd"
   xmlns="http://www.w3.org/2000/svg"
   xmlns:svg="http://www.w3.org/2000/svg"
   xmlns:inkstitch="http://inkstitch.org/namespace">
  <defs
     id="defs1">
    <marker
       refX="10"
       refY="5"
       orient="auto"
       id="inkstitch-pattern-marker">
      <g
         id="inkstitch-pattern-group">
        <path
           style="fill:#fafafa;stroke:#ff5500;stroke-width:0.5;stroke-linecap:round;stroke-linejoin:miter;stroke-miterlimit:4;stroke-dasharray:1, 1;stroke-dashoffset:0;stroke-opacity:1;fill-opacity:0.8;"
           d="M 10.12911,5.2916678 A 4.8374424,4.8374426 0 0 1 5.2916656,10.12911 4.8374424,4.8374426 0 0 1 0.45422399,5.2916678 4.8374424,4.8374426 0 0 1 5.2916656,0.45422399 4.8374424,4.8374426 0 0 1 10.12911,5.2916678 Z"
           id="inkstitch-pattern-marker-circle" />
        <path
           style="fill:none;stroke:#000000;stroke-width:0.4;stroke-linecap:round;stroke-miterlimit:4;"
           id="inkstitch-pattern-marker-spiral"
           d="M 4.9673651,5.7245662 C 4.7549848,5.7646159 4.6247356,5.522384 4.6430021,5.3419847 4.6765851,5.0103151 5.036231,4.835347 5.3381858,4.8987426 5.7863901,4.9928495 6.0126802,5.4853625 5.9002872,5.9065088 5.7495249,6.4714237 5.1195537,6.7504036 4.5799191,6.5874894 3.898118,6.3816539 3.5659013,5.6122905 3.7800789,4.9545192 4.0402258,4.1556558 4.9498996,3.7699484 5.7256318,4.035839 6.6416744,4.3498087 7.0810483,5.4003986 6.7631909,6.2939744 6.395633,7.3272552 5.2038143,7.8204128 4.1924535,7.4503931 3.0418762,7.0294421 2.4948761,5.6961604 2.9171752,4.567073 3.3914021,3.2991406 4.8663228,2.6982592 6.1130974,3.1729158 7.4983851,3.7003207 8.1531869,5.3169977 7.6260947,6.6814205 7.0456093,8.1841025 5.2870784,8.8928844 3.8050073,8.3132966 2.1849115,7.6797506 1.4221671,5.7793073 2.0542715,4.1796074 2.7408201,2.4420977 4.7832541,1.6253548 6.5005435,2.310012 8.3554869,3.0495434 9.2262638,5.2339874 8.4890181,7.0688861 8.4256397,7.2266036 8.3515789,7.379984 8.2675333,7.5277183" />
      </g>
    </marker>
    <marker
      refX="10"
      refY="5"
      orient="auto"
      id="inkstitch-guide-line-marker">
     <g
        id="inkstitch-guide-line-group">
       <path
          style="fill:#fafafa;stroke:#ff5500;stroke-width:0.5;stroke-linecap:round;stroke-linejoin:miter;stroke-miterlimit:4;stroke-dasharray:1, 1;stroke-dashoffset:0;stroke-opacity:1;fill-opacity:0.8;"
          d="M 10.12911,5.2916678 A 4.8374424,4.8374426 0 0 1 5.2916656,10.12911 4.8374424,4.8374426 0 0 1 0.45422399,5.2916678 4.8374424,4.8374426 0 0 1 5.2916656,0.45422399 4.8374424,4.8374426 0 0 1 10.12911,5.2916678 Z"
          id="inkstitch-guide-line-marker-circle" />
       <path
          style="fill:none;stroke:#000000;stroke-width:0.4;stroke-linecap:round;stroke-miterlimit:4;"
          id="inkstitch-guide-line-marker-spiral"
          d="M 1.7506092,6.2728168 3.4558825,5.2833684 7.1038696,7.400035 8.8193256,6.4046783 M 1.7963222,4.129626 3.4558825,3.1667016 7.1038696,5.2833682 8.8475785,4.2716184 M 1.6318889,5.2833683 3.4558825,4.225035 7.1038696,6.3417016 8.9558408,5.2677331" />
     </g>
     </marker>
     <marker
      refX="10"
      refY="5"
      orient="auto"
      id="inkstitch-autorun_start-marker">
     <g
        id="inkstitch-autorun_start-group">
       <path
          style="fill:#fafafa;stroke:#ff5500;stroke-width:0.5;stroke-linecap:round;stroke-linejoin:miter;stroke-miterlimit:4;stroke-dasharray:1, 1;stroke-dashoffset:0;stroke-opacity:1;fill-opacity:0.8;"
          d="M 10.12911,5.2916678 A 4.8374424,4.8374426 0 0 1 5.2916656,10.12911 4.8374424,4.8374426 0 0 1 0.45422399,5.2916678 4.8374424,4.8374426 0 0 1 5.2916656,0.45422399 4.8374424,4.8374426 0 0 1 10.12911,5.2916678 Z"
          id="inkstitch-autorun_start-circle" />
       <path
          style="fill:#000000;"
          id="inkstitch-autorun_start-path"
          d="M 3.79718,3.17603 C 3.68023,3.1836 3.5852,3.28134 3.58376,3.4003 3.58267,3.48917 3.63376,3.56667 3.7083,3.60443 L 3.67781,6.06681 C 3.63284,6.05408 3.58956,6.0331 3.55068,6.00376 3.54387,5.99837 3.53424,5.99837 3.52743,6.00376 3.52075,6.0088 3.51822,6.01766 3.52123,6.02546 l 0.23254,0.65836 c 0.00607,0.01627 0.02907,0.01627 0.03514,0 L 4.03902,6.03115 C 4.04597,6.01313 4.02444,5.99765 4.00957,6.00996 3.96908,6.03828 3.92504,6.05781 3.87934,6.06939 L 3.90777,3.60753 C 3.98336,3.57192 4.03587,3.49531 4.03696,3.40599 4.03847,3.28117 3.93905,3.17754 3.81423,3.17603 c -0.00585,-7e-5 -0.0113,-3.7e-4 -0.01705,0 z M 4.14031,3.58944 C 4.125,3.59127 4.11833,3.60978 4.12894,3.62096 L 4.58783,4.14858 C 4.60063,4.16077 4.62165,4.15009 4.61935,4.13256 4.61341,4.08279 4.61678,4.03373 4.62865,3.98735 L 6.73395,5.148 C 6.7305,5.23167 6.77388,5.31436 6.85177,5.35729 6.9611,5.41754 7.09796,5.37876 7.15821,5.26944 7.21846,5.16011 7.17969,5.02118 7.07036,4.96093 6.99202,4.91776 6.89847,4.92528 6.82955,4.97333 L 4.72529,3.8132 C 4.75796,3.77922 4.79705,3.75107 4.84156,3.73051 4.85756,3.72217 4.85369,3.69825 4.83588,3.69537 L 4.14651,3.58996 C 4.1445,3.58943 4.14239,3.58927 4.14031,3.58943 Z M 6.65643,5.44514 5.96655,5.55883 C 5.94943,5.56302 5.94702,5.58638 5.96294,5.59397 6.0079,5.61472 6.04765,5.6428 6.08076,5.67665 L 3.93981,6.89156 C 3.87014,6.84444 3.77643,6.8368 3.69899,6.88071 3.59041,6.94228 3.55371,7.08063 3.61528,7.18922 3.67685,7.2978 3.8152,7.33708 3.92379,7.27551 4.00107,7.2317 4.04291,7.14893 4.03851,7.06571 L 6.17946,5.8508 C 6.1915,5.89663 6.19511,5.94501 6.18928,5.99394 6.18642,6.01322 6.21123,6.02353 6.22287,6.00789 L 6.674,5.47459 C 6.68341,5.46131 6.6726,5.44316 6.65643,5.44514 Z" />
     </g>
     </marker>
     <marker
      refX="0"
      refY="5"
      orient="auto"
      id="inkstitch-autorun_end-marker">
     <g
        id="inkstitch-autorun_end-group">
       <path
          style="fill:#fafafa;stroke:#ff5500;stroke-width:0.5;stroke-linecap:round;stroke-linejoin:miter;stroke-miterlimit:4;stroke-dasharray:1, 1;stroke-dashoffset:0;stroke-opacity:1;fill-opacity:0.8;"
          d="M 10.12911,5.2916678 A 4.8374424,4.8374426 0 0 1 5.2916656,10.12911 4.8374424,4.8374426 0 0 1 0.45422399,5.2916678 4.8374424,4.8374426 0 0 1 5.2916656,0.45422399 4.8374424,4.8374426 0 0 1 10.12911,5.2916678 Z"
          id="inkstitch-autorun_start-circle" />
       <path
          style="fill:#000000;"
          id="inkstitch-autorun_end-path"
          d="m 4.47641,2.70861 c -0.00167,8e-5 -0.00336,3.3e-4 -0.00499,7.3e-4 L 3.56314,3.03042 C 3.54008,3.03739 3.53821,3.06931 3.56029,3.07893 L 4.46358,3.42141 C 4.48581,3.42743 4.50425,3.4036 4.49283,3.3836 4.45331,3.32706 4.42597,3.26511 4.41007,3.20094 L 7.20982,3.23733 C 7.25947,3.34035 7.36431,3.41205 7.48665,3.41356 7.65901,3.41572 7.8027,3.27837 7.80488,3.10605 7.80707,2.93371 7.66685,2.78998 7.49451,2.78783 7.37171,2.7863 7.26478,2.85673 7.21268,2.95978 L 4.41363,2.92553 C 4.43114,2.86228 4.46034,2.80151 4.5014,2.74716 4.5117,2.72895 4.49726,2.70666 4.47643,2.70863 Z M 3.10721,2.81992 C 2.93856,2.82207 2.80182,2.95779 2.7997,3.12743 2.79816,3.24978 2.86714,3.3576 2.9688,3.41069 L 2.93455,6.19189 C 2.87247,6.17433 2.81269,6.14539 2.75903,6.10485 2.74961,6.09741 2.73633,6.09741 2.72692,6.10485 2.71828,6.1119 2.71512,6.12369 2.71908,6.13411 L 3.03944,7.0431 C 3.04641,7.06615 3.07833,7.06803 3.08796,7.04595 L 3.43329,6.14266 C 3.44439,6.11738 3.41348,6.09461 3.39262,6.1127 3.3359,6.15234 3.27402,6.17958 3.20996,6.19546 L 3.24635,3.41497 C 3.35064,3.36471 3.4239,3.25798 3.42544,3.13528 3.42759,2.96295 3.2874,2.82207 3.11507,2.81992 c -0.00271,-4e-5 -0.00518,-4e-5 -0.00785,0 z M 7.51875,3.51843 C 7.50806,3.51836 7.49841,3.52488 7.49449,3.53484 L 7.14916,4.43527 C 7.13806,4.46057 7.16898,4.48333 7.18984,4.46523 7.24587,4.42608 7.30712,4.39845 7.37035,4.38247 L 7.3361,7.16367 C 7.23213,7.21405 7.15929,7.31948 7.15773,7.44194 7.15553,7.61428 7.29505,7.75587 7.46739,7.75802 7.63971,7.76018 7.78128,7.62284 7.78346,7.4505 7.78503,7.327 7.71478,7.21835 7.61151,7.16581 L 7.64718,4.38604 C 7.70974,4.40357 7.76938,4.43226 7.82342,4.47309 7.84396,4.49008 7.87367,4.46871 7.86409,4.44383 L 7.54301,3.53484 C 7.5391,3.52489 7.52945,3.51836 7.51875,3.51843 Z M 6.10105,7.16084 C 6.08148,7.1612 6.06937,7.1823 6.07892,7.19936 6.11854,7.25604 6.14581,7.31841 6.16169,7.38273 L 3.36193,7.34635 C 3.31171,7.24193 3.20574,7.16879 3.08295,7.16726 2.91062,7.16511 2.76974,7.30459 2.76759,7.47691 2.76543,7.64925 2.90491,7.793 3.07725,7.79514 3.19982,7.79667 3.30688,7.72665 3.35908,7.6239 L 6.15883,7.65744 C 6.14135,7.72087 6.11153,7.78131 6.07036,7.83581 6.05845,7.85618 6.07777,7.88056 6.10033,7.87363 L 7.00931,7.55255 c 0.02247,-0.00838 0.02247,-0.04014 0,-0.04852 L 6.10817,7.16156 C 6.10584,7.16097 6.10344,7.16075 6.10103,7.16083 Z" />
     </g>
     </marker>
  </defs>
</svg>
