<svg xmlns:inkscape="http://www.inkscape.org/namespaces/inkscape" xmlns:sodipodi="http://sodipodi.sourceforge.net/DTD/sodipodi-0.dtd" xmlns="http://www.w3.org/2000/svg" xmlns:svg="http://www.w3.org/2000/svg" width="26.225336" height="37.795277" viewBox="0 0 26.225336 37.795277" version="1.1" id="svg60" sodipodi:docname="N4-23c.svg">
  <defs id="defs64"/>
  <sodipodi:namedview id="namedview62" pagecolor="#ffffff" bordercolor="#666666" borderopacity="1.0" inkscape:showpageshadow="2" inkscape:pageopacity="0.0" inkscape:pagecheckerboard="0" inkscape:deskcolor="#d1d1d1"/>
  <style type="text/css" id="style2">
polygon.tile { stroke: #000000; stroke-width:3; stroke-linejoin:round }
polygon.ih1 { fill: #ffff80 }
polygon.ih2 { fill: #8080ff }
polygon.ih3 { fill: #ff8080 }
polygon.ih4 { fill: #80ff80 }
polygon.ih5 { fill: #ff80ff }
polygon.ih6 { fill: #80ffff }
polygon.para {opacity: 0.75; fill: #ff0000; stroke: #ff0000 }
</style>
  <polygon class="para" points="-24.548752,42.519685 24.548752,14.173228 24.548752,-42.519685 -24.548752,-14.173228 " style="stroke:none" id="polygon4" transform="matrix(0.4,0,0,0.4,13.112668,18.897638)"/>
  <path d="m 13.112668,18.897638 6.546334,3.779528" style="stroke:#000000;stroke-width:0.08px" id="path6"/>
  <path d="m 19.659002,22.677166 6.546334,-3.779528" style="stroke:#000000;stroke-width:0.08px" id="path8"/>
  <path d="M 26.205336,18.897638 19.659002,15.11811" style="stroke:#000000;stroke-width:0.08px" id="path10"/>
  <path d="m 19.659002,15.11811 -6.546334,3.779528" style="stroke:#000000;stroke-width:0.08px" id="path12"/>
  <path d="M 26.205336,11.338583 19.659002,15.11811" style="stroke:#000000;stroke-width:0.08px" id="path14"/>
  <path d="m 6.5663342,15.11811 6.5463338,3.779528" style="stroke:#000000;stroke-width:0.08px" id="path16"/>
  <path d="M 19.659002,15.11811 13.112668,11.338583" style="stroke:#000000;stroke-width:0.08px" id="path18"/>
  <path d="M 13.112668,11.338583 6.5663342,15.11811" style="stroke:#000000;stroke-width:0.08px" id="path20"/>
  <path d="M 19.659002,30.236221 V 22.677166" style="stroke:#000000;stroke-width:0.08px" id="path22"/>
  <path d="m 13.112668,18.897638 v 7.559055" style="stroke:#000000;stroke-width:0.08px" id="path24"/>
  <path d="m 13.112668,26.456693 6.546334,3.779528" style="stroke:#000000;stroke-width:0.08px" id="path26"/>
  <path d="m 6.5663342,15.11811 v 7.559056" style="stroke:#000000;stroke-width:0.08px" id="path28"/>
  <path d="m 6.5663342,22.677166 6.5463338,3.779527" style="stroke:#000000;stroke-width:0.08px" id="path30"/>
  <path d="m 13.112668,26.456693 v 7.559055" style="stroke:#000000;stroke-width:0.08px" id="path32"/>
  <path d="M 0.02,18.897638 6.5663342,15.11811" style="stroke:#000000;stroke-width:0.08px" id="path34"/>
  <path d="M 6.5663342,15.11811 V 7.559055" style="stroke:#000000;stroke-width:0.08px" id="path36"/>
  <path d="M 0.02,26.456693 6.5663342,22.677166" style="stroke:#000000;stroke-width:0.08px" id="path38"/>
  <path d="M 13.112668,11.338583 V 3.779528" style="stroke:#000000;stroke-width:0.08px" id="path40"/>
  <path d="M 0.02,34.015748 6.5663342,30.236221" style="stroke:#000000;stroke-width:0.08px" id="path42"/>
  <path d="M 6.5663342,30.236221 0.02,26.456693" style="stroke:#000000;stroke-width:0.08px" id="path44"/>
  <path d="M 6.5663342,30.236221 13.112668,26.456693" style="stroke:#000000;stroke-width:0.08px" id="path46"/>
  <path d="M 6.5663342,37.795276 V 30.236221" style="stroke:#000000;stroke-width:0.08px" id="path48"/>
  <path d="M 19.659002,7.559055 V 0" style="stroke:#000000;stroke-width:0.08px" id="path50"/>
  <path d="m 13.112668,3.779528 6.546334,3.779527" style="stroke:#000000;stroke-width:0.08px" id="path52"/>
  <path d="M 19.659002,15.11811 V 7.559055" style="stroke:#000000;stroke-width:0.08px" id="path54"/>
  <path d="M 19.659002,7.559055 26.205336,3.779528" style="stroke:#000000;stroke-width:0.08px" id="path56"/>
  </svg>