<?xml version="1.0" encoding="UTF-8" standalone="no"?>
<!-- Created with Inkscape (http://www.inkscape.org/) -->

<svg
   width="210mm"
   height="297mm"
   viewBox="0 0 210 297"
   version="1.1"
   id="svg5"
   sodipodi:docname="bee.svg"
   inkscape:version="1.2.2 (b0a8486541, 2022-12-01)"
   xml:space="preserve"
   xmlns:inkscape="http://www.inkscape.org/namespaces/inkscape"
   xmlns:sodipodi="http://sodipodi.sourceforge.net/DTD/sodipodi-0.dtd"
   xmlns="http://www.w3.org/2000/svg"
   xmlns:svg="http://www.w3.org/2000/svg"
   xmlns:inkstitch="http://inkstitch.org/namespace"><sodipodi:namedview
     id="namedview7"
     pagecolor="#3199ff"
     bordercolor="#666666"
     borderopacity="1.0"
     inkscape:showpageshadow="2"
     inkscape:pageopacity="0.0"
     inkscape:pagecheckerboard="0"
     inkscape:deskcolor="#d1d1d1"
     inkscape:document-units="mm"
     showgrid="false"
     inkscape:zoom="0.70477298"
     inkscape:cx="414.31781"
     inkscape:cy="445.53354"
     inkscape:current-layer="svg5"
     showguides="false"
     inkscape:window-width="1920"
     inkscape:window-height="1011"
     inkscape:window-x="0"
     inkscape:window-y="32"
     inkscape:window-maximized="1" /><metadata
     id="metadata578"><inkstitch:collapse_len_mm>3</inkstitch:collapse_len_mm><inkstitch:min_stitch_len_mm>0.5</inkstitch:min_stitch_len_mm><inkstitch:inkstitch_svg_version>1</inkstitch:inkstitch_svg_version></metadata><defs
     id="defs2"><marker
   refX="10"
   refY="5"
   orient="auto"
   id="inkstitch-guide-line-marker"><g
     id="inkstitch-guide-line-group"><path
       style="fill:#fafafa;fill-opacity:0.8;stroke:#ff5500;stroke-width:0.5;stroke-linecap:round;stroke-linejoin:miter;stroke-miterlimit:4;stroke-dasharray:1, 1;stroke-dashoffset:0;stroke-opacity:1"
       d="M 10.12911,5.2916678 A 4.8374424,4.8374426 0 0 1 5.2916656,10.12911 4.8374424,4.8374426 0 0 1 0.45422399,5.2916678 4.8374424,4.8374426 0 0 1 5.2916656,0.45422399 4.8374424,4.8374426 0 0 1 10.12911,5.2916678 Z"
       id="inkstitch-guide-line-marker-circle" /><path
       style="fill:none;stroke:#000000;stroke-width:0.4;stroke-linecap:round;stroke-miterlimit:4"
       id="inkstitch-guide-line-marker-spiral"
       d="M 1.7506092,6.2728168 3.4558825,5.2833684 7.1038696,7.400035 8.8193256,6.4046783 M 1.7963222,4.129626 3.4558825,3.1667016 7.1038696,5.2833682 8.8475785,4.2716184 M 1.6318889,5.2833683 3.4558825,4.225035 7.1038696,6.3417016 8.9558408,5.2677331"
       inkstitch:stroke_method="zigzag_stitch" /></g></marker><marker
   orient="auto"
   id="inkstitch-needle-point"><circle
     cx="0"
     cy="0"
     r="1.5"
     style="opacity:0.8;fill:context-stroke"
     id="circle585" /></marker><symbol
   id="inkstitch_trim">
      <title
   id="inkstitch_title9282">Trim the thread after sewing this object.</title>
      <path
   id="inkstitch_circle13405"
   d="m 9.2465284,-8.6e-6 c 1.8e-6,2.452339 -0.9741847,4.804237 -2.7082493,6.538304 C 4.8042146,8.2723614 2.4523174,9.2465504 -2.1625959e-5,9.2465514 -2.4523623,9.2465534 -4.8042621,8.2723654 -6.5383288,6.5382984 -8.2723956,4.8042314 -9.2465834,2.4523324 -9.2465816,-8.6e-6 c 6e-7,-2.452339 0.9741895,-4.804237 2.708256,-6.538301 1.7340665,-1.734065 4.0859648,-2.708252 6.538303974041,-2.70825 C 5.1067066,-9.2465576 9.2465271,-5.1067366 9.2465284,-8.6e-6 c 0,0 0,0 0,0"
   style="opacity:1;vector-effect:none;fill:#fafafa;fill-opacity:1;fill-rule:evenodd;stroke:#003399;stroke-width:1.06500006;stroke-linecap:round;stroke-linejoin:miter;stroke-miterlimit:4;stroke-dasharray:3.19500017, 3.19500017;stroke-dashoffset:0;stroke-opacity:1"
   inkscape:connector-curvature="0" />
      <path
   style="color:#000000;font-style:normal;font-variant:normal;font-weight:normal;font-stretch:normal;font-size:medium;line-height:normal;font-family:sans-serif;font-variant-ligatures:normal;font-variant-position:normal;font-variant-caps:normal;font-variant-numeric:normal;font-variant-alternates:normal;font-feature-settings:normal;text-indent:0;text-align:start;text-decoration:none;text-decoration-line:none;text-decoration-style:solid;text-decoration-color:#000000;letter-spacing:normal;word-spacing:normal;text-transform:none;writing-mode:lr-tb;direction:ltr;text-orientation:mixed;dominant-baseline:auto;baseline-shift:baseline;text-anchor:start;white-space:normal;shape-padding:0;clip-rule:nonzero;display:inline;overflow:visible;visibility:visible;opacity:1;isolation:auto;mix-blend-mode:normal;color-interpolation:sRGB;color-interpolation-filters:linearRGB;solid-color:#000000;solid-opacity:1;vector-effect:none;fill:#050505;fill-opacity:1;fill-rule:evenodd;stroke:none;stroke-width:1.41421342;stroke-linecap:butt;stroke-linejoin:miter;stroke-miterlimit:4;stroke-dasharray:none;stroke-dashoffset:0;stroke-opacity:1;color-rendering:auto;image-rendering:auto;shape-rendering:auto;text-rendering:auto;enable-background:accumulate"
   d="m -3.0000256,-5.9834096 c -1.30575,0 -2.375,1.06924 -2.375,2.375 0,1.30575 1.06925,2.375 2.375,2.375 0.58687,0 1.11944,-0.22369 1.53516,-0.58007 0,0 0.61717997,1.62109 0.61717997,1.62109 0,0 -2.29881997,6.01758 -2.29881997,6.01758 0.98655,-0.12511 1.23728,-0.26171 1.67382,-0.97461 0,0 1.33007997,-3.18945 1.33007997,-3.18945 0,0 1.23633003,3.25 1.23633003,3.25 0.23227,0.77906 0.84315,0.79218 1.57813,1.07226 0,0 -2.05469003,-6.14258 -2.05469003,-6.14258 0,0 0.73047003,-1.75 0.73047003,-1.75 0.42849,0.41682 1.01136,0.67578 1.65234,0.67578 1.30575,0 2.375,-1.06925 2.375,-2.375 0,-1.30576 -1.06925,-2.375 -2.375,-2.375 -1.06233,0 -1.95701,0.71265 -2.25781003,1.67969 0,0 -0.0117,-0.0156 -0.0117,-0.0156 0,0 -0.80274,2.10156 -0.80274,2.10156 0,0 -0.59179,-1.76562 -0.59179,-1.76562 -0.18242,-1.12808 -1.15864997,-2 -2.33593997,-2 0,0 -2e-5,-3e-5 -2e-5,-3e-5 m 0,1 c 0.76531,0 1.375,0.60968 1.375,1.375 0,0.76531 -0.60969,1.375 -1.375,1.375 -0.76531,0 -1.375,-0.60969 -1.375,-1.375 0,-0.76532 0.60969,-1.375 1.375,-1.375 0,0 0,0 0,0 m 6,0 c 0.76531,0 1.375,0.60968 1.375,1.375 0,0.76531 -0.60969,1.375 -1.375,1.375 -0.76531,0 -1.375,-0.60969 -1.375,-1.375 0,-0.76532 0.60969,-1.375 1.375,-1.375 0,0 0,0 0,0"
   id="inkstitch_path13416"
   inkscape:connector-curvature="0" />
    </symbol>
    </defs><g
     inkscape:groupmode="layer"
     id="layer5"
     inkscape:label="Calque 3"
     style="display:inline;opacity:0.4;stroke-width:1.04995"
     transform="matrix(0.952431 0 0 0.952431 2.90482 3.34635)"><g
       id="g12799"
       inkscape:label="pattes"
       style="stroke-width:1.04995"><path
         id="path1"
         style="fill:none;stroke:#000000;stroke-width:0.277798px"
         d="m 121.88643,178.28093 c 0.0229,-0.83443 -0.41556,-2.00054 -0.36832,-2.83379 0.0576,-0.781 0.0617,-1.56854 0.19002,-2.34238 0.12616,-0.76477 0.3836,-1.51995 0.83705,-2.15455 0.22479,-0.25822 0.43487,-0.54012 0.72324,-0.73201 0.32378,-0.26152 1.82256,-1.43997 2.22772,-1.53147 m -2.945,9.64971 c 0.0354,-1.12069 0.45662,-2.57274 0.51772,-3.69222 0.0425,-0.81481 0.0957,-1.65644 0.45303,-2.404 0.13095,-0.29872 0.34303,-0.55312 0.57963,-0.77274 0.19587,-0.1662 1.87285,-1.56332 2.12573,-1.61242 m -0.91198,1.56821 c -0.32719,-0.67487 -1.37739,-1.18289 -1.70457,-1.85776 m 0.15054,3.07221 -2.09804,-0.81283 m 1.79175,2.64514 c -0.74866,-0.0448 -1.49732,-0.0896 -2.24598,-0.13438 m 2.10354,2.51526 c -0.74866,-0.0448 -1.49732,-0.0896 -2.24598,-0.13438"
         inkstitch:satin_column="true"
         sodipodi:nodetypes="ccccccccccccccccccc"
         inkstitch:reverse_rails="none" /><path
         style="fill:none;fill-rule:evenodd;stroke:#000000;stroke-width:0.262487;stroke-linejoin:bevel;stroke-dasharray:0.787459, 0.787459;stroke-dashoffset:0;paint-order:markers stroke fill"
         d="m 125.52812,169.41013 5.61734,0.38932 -1.83537,2.22469 -0.3337,5.06117"
         id="path13601" /><path
         id="path2"
         style="fill:none;stroke:#000000;stroke-width:0.277798px"
         d="m 128.89401,178.78425 c 0.0174,-0.83984 -0.53779,-3.40191 -0.48097,-4.23976 0.0507,-0.74748 0.0559,-1.50152 0.19266,-2.23991 0.0989,-0.47566 0.25482,-0.94077 0.49136,-1.36633 0.24086,-0.4387 0.55505,-0.84153 0.94762,-1.15481 0.23904,-0.24108 0.53506,-0.40614 0.82387,-0.57881 m -1.47649,9.62959 c 0.0144,-0.48593 0.42032,-2.69548 0.45562,-3.18042 0.0591,-0.87664 0.0972,-1.75523 0.16961,-2.63063 0.0605,-0.68303 0.29562,-1.36821 0.76229,-1.88163 0.17968,-0.16211 0.3518,-0.34144 0.5594,-0.4681 m -0.49311,0.99635 c -0.62411,-0.41591 -1.24823,-0.83181 -1.87235,-1.24772 m 1.37714,3.15897 c -0.74859,-0.046 -1.49718,-0.0919 -2.24577,-0.1379 m 2.1032,2.45964 c -0.74859,-0.046 -1.49718,-0.0919 -2.24577,-0.1379"
         inkstitch:satin_column="true"
         sodipodi:nodetypes="csccccccccccccccc"
         inkstitch:reverse_rails="none" /><path
         style="display:inline;fill:none;fill-rule:evenodd;stroke:#000000;stroke-width:0.262487;stroke-linejoin:bevel;stroke-dasharray:0.78746, 0.78746;stroke-dashoffset:0;paint-order:markers stroke fill"
         d="m 131.03423,169.74383 1.9466,-3.67074 3.44827,4.17129 8.12012,2.33593"
         id="path13603" /><path
         id="path3"
         style="fill:none;stroke:#000000;stroke-width:0.277798px"
         d="m 144.9196,172.7626 c -0.49474,-0.0864 -1.266,0.26462 -1.75987,0.17324 -1.30484,-0.24143 -2.59689,-0.54124 -3.88998,-0.83719 -0.84676,-0.21908 -1.69414,-0.45198 -2.50339,-0.78644 -0.60941,-0.25522 -1.14556,-0.65168 -1.65921,-1.06007 -0.81659,-0.32942 -1.62334,-1.41781 -2.31176,-2.71592 m 12.32859,4.63896 c -0.96861,-0.16324 -2.15316,-0.80657 -3.11784,-0.99107 -1.38961,-0.32962 -2.80255,-0.58439 -4.15091,-1.06513 -0.58831,-0.1677 -1.11186,-0.49171 -1.59137,-0.8641 -0.88183,-0.69967 -1.61153,-1.57981 -2.20803,-2.53184 m 0.71849,0.39901 c -0.60843,0.43853 -1.21687,0.87706 -1.8253,1.31559 m 3.13497,0.16877 c -0.50428,0.55515 -1.00856,1.11031 -1.51284,1.66547 m 3.57111,-0.45065 c -0.24426,0.70911 -0.48852,1.41822 -0.73277,2.12733 m 2.75403,-1.56904 c -0.16701,0.73117 -0.33402,1.46234 -0.50102,2.1935 m 3.01406,-1.64085 c -0.14283,0.73627 -0.28565,1.47255 -0.42847,2.20882"
         inkstitch:satin_column="true"
         sodipodi:nodetypes="csccccccccccccccccccc"
         inkstitch:reverse_rails="none" /><path
         style="fill:none;fill-rule:evenodd;stroke:#000000;stroke-width:0.262487;stroke-linejoin:bevel;stroke-dasharray:0.78746, 0.78746;stroke-dashoffset:0;paint-order:markers stroke fill"
         d="m 133.42577,166.96297 1.83537,-3.83759 0.94549,-2.39155 2.66963,0.83426 c 1.8886,3.50579 6.57493,4.09488 10.45605,6.00666"
         id="path13606"
         sodipodi:nodetypes="ccccc" /><path
         id="path4"
         style="fill:none;stroke:#000000;stroke-width:0.277798px"
         d="m 149.82679,168.21311 c -2.33314,-0.97034 -5.085,-1.64549 -7.42479,-2.59913 -0.83475,-0.35405 -1.6752,-0.77636 -2.29696,-1.45272 -0.4623,-0.49863 -2.0506,-1.81424 -1.76177,-2.46256 m 11.77344,5.96035 c -2.33099,-0.96944 -4.80246,-2.47831 -7.14023,-3.43073 -0.62687,-0.27195 -1.27528,-0.56671 -1.75258,-1.06933 -0.14978,-0.66635 -0.59967,-1.0458 -1.14344,-1.68738 m 2.0504,1.92034 -1.15455,1.93119 m 3.00045,-1.09303 c -0.27646,0.69718 -0.55294,1.39436 -0.8294,2.09155"
         inkstitch:satin_column="true"
         sodipodi:nodetypes="cccccccccccc"
         inkstitch:reverse_rails="none" /><path
         style="fill:none;fill-rule:evenodd;stroke:#000000;stroke-width:0.262487;stroke-linejoin:bevel;stroke-dasharray:0.78746, 0.78746;stroke-dashoffset:0;paint-order:markers stroke fill"
         d="m 139.20996,161.51248 5.72858,-1.72414 0.83426,0.0556 1.55728,2.78086 5.89543,1.77975"
         id="path13608" /><path
         id="path5"
         style="fill:none;stroke:#000000;stroke-width:1.04995px"
         transform="scale(0.264583, 0.264583)"
         d="m 582.97851,623.10024 -5.46538,0.63062 -0.1092,-0.0241 -12.19199,-2.94287 -0.10117,-0.0264 -2.37755,-0.66757 -0.16663,-0.0524 -2.09919,-0.73162 -0.26246,-0.10646 -3.43228,-1.59626 -0.37134,-0.20794 -2.52576,-1.67509 -0.36467,-0.28748 -1.75719,-1.63567 -0.32306,-0.35649 -1.12658,-1.47802 -0.25296,-0.39617 -0.63391,-1.20212 -0.20051,-0.48404 -0.34158,-1.10358 m 34.79483,12.14775 -4.99013,-2.72173 -12.0868,-2.91748 -2.24309,-0.62983 -1.8828,-0.6562 -3.11022,-1.44648 -2.15378,-1.42838 -1.40997,-1.31246 -0.83727,-1.09846 -0.40118,-0.7608 -0.2638,-0.85225 m 1.77857,0.68627 -7.52216,3.96661 m 12.78663,0.15584 -3.5861,7.71083 m 10.58379,-5.37306 -1.99535,8.26653 m 10.96862,-6.10058 -1.99536,8.26653"
         inkstitch:satin_column="true"
         sodipodi:nodetypes="ccccccccccccccccccccccccccccccccccccccc"
         inkstitch:reverse_rails="none" /><path
         style="fill:none;fill-rule:evenodd;stroke:#000000;stroke-width:0.262487;stroke-linejoin:bevel;stroke-dasharray:0.78746, 0.78746;stroke-dashoffset:0;paint-order:markers stroke fill"
         d="m 146.32897,159.73272 1.66852,-2.39154 2.11345,-0.3337 4.89432,3.39265"
         id="path13610" /><path
         id="path6"
         style="fill:none;stroke:#000000;stroke-width:1.04995px"
         transform="scale(0.264583, 0.264583)"
         d="m 591.08133,609.90822 -23.33297,-12.19197 m 24.84558,11.36551 c -5.27829,-7.00242 -13.93748,-11.30011 -21.86153,-16.18592 m 11.25636,1.52758 -6.15773,9.9633"
         inkstitch:satin_column="true"
         sodipodi:nodetypes="cccccc"
         inkstitch:reverse_rails="none" /></g><g
       id="command_group6"
       inkscape:label="antenne cachée"
       transform="matrix(0.229003 -0.132521 0.132521 0.229003 -37.955 88.4171)"
       style="display:inline;stroke-width:1.04995"><path
         d="m 570.8936,592.99215 10.57801,-100.40144 c 1.13115,-32.48707 18.05229,-43.61122 31.98199,-58.7826"
         style="fill:none;stroke:#000000;stroke-width:1.04995px;stroke-dasharray:3.14984, 1.04995"
         transform="matrix(0.865525 0.500868 -0.500868 0.865525 291.539 -217.386)"
         inkstitch:running_stitch_length_mm="2.5"
         inkstitch:running_stitch_tolerance_mm="2.0"
         id="path7"
         sodipodi:nodetypes="ccc" /><path
         id="path14726"
         style="display:inline;fill:none;stroke:#000000;stroke-width:0.277798px"
         d="m 160.13038,123.12236 c -0.69465,0.0707 -1.37311,-0.34639 -2.06546,-0.11562 -1.67914,0.34522 -3.36534,0.679 -5.00699,1.178 -0.8814,0.25688 -1.73371,0.6354 -2.44836,1.22047 -0.41695,0.33424 -2.58229,2.14799 -2.9185,2.58714 m 12.51443,-4.61441 c -0.9174,0.54713 -2.1204,1.19773 -3.31466,1.39894 -0.86836,0.20209 -1.64937,0.33457 -2.61139,0.61206 -1.24425,0.35888 -5.09851,2.87965 -5.42303,3.24861 m 1.12868,0.12536 c -0.60843,-0.43853 -1.54626,-1.19619 -2.15469,-1.63472 m 3.46436,0.15036 c -0.50428,-0.55515 -1.00856,-1.11031 -1.51284,-1.66547 m 3.57111,0.45065 c -0.24426,-0.70911 -0.48852,-1.41822 -0.73277,-2.12733 m 2.75403,1.56904 c -0.16701,-0.73117 -0.33402,-1.46233 -0.50102,-2.1935 m 3.01406,1.64085 c -0.14283,-0.73627 -0.28565,-1.47255 -0.42847,-2.20882"
         inkstitch:satin_column="true"
         sodipodi:nodetypes="cscccccsccccccccccc"
         transform="scale(3.77953, 3.77953)"
         inkstitch:reverse_rails="none"
         inkstitch:pull_compensation_mm="0.5" /></g><g
       id="g16389"
       inkscape:label="corps abeille"
       style="display:inline;stroke-width:1.04995"><path
         id="path11743"
         style="display:inline;opacity:0.4;fill:none;fill-rule:evenodd;stroke:#ffff00;stroke-width:1.14133;stroke-linejoin:bevel;paint-order:markers stroke fill"
         d="m 123.02529,170.41119 c -15.11255,2e-5 -34.70517,-15.50854 -34.70516,-29.6996 0,-14.19105 11.338034,-30.58949 23.80418,-30.58949 m 13.79308,59.17674 c -14.326,-3.30348 -32.702952,-18.40063 -32.702942,-32.59169 0,-14.19105 12.895312,-20.35592 20.022212,-26.14011"
         sodipodi:nodetypes="csccsc"
         inkstitch:satin_column="True"
         inkstitch:max_stitch_length_mm="3"
         inkstitch:reverse_rails="none"
         inkstitch:random_width_increase_percent="50 90"
         inkstitch:lock_start="arrow"
         inkstitch:lock_end="bowtie"
         inkstitch:random_split_jitter_percent="50"
         inkstitch:pull_compensation_mm="0 1"
         inkscape:label="jaune" /><path
         id="path11739"
         style="display:inline;fill:none;fill-rule:evenodd;stroke:#000000;stroke-width:1.14133;stroke-linejoin:bevel;paint-order:markers stroke fill"
         d="m 131.70158,169.96625 c -15.11255,2e-5 -38.487142,-19.06804 -38.487132,-33.2591 0,-14.19105 12.450382,-21.9132 22.691842,-26.58505 m 19.57726,55.39477 c -15.11255,2e-5 -34.03776,-15.28607 -34.03775,-29.47713 0,-14.19105 10.44816,-19.46604 18.90987,-25.69517"
         inkstitch:satin_column="True"
         inkstitch:max_stitch_length_mm="3"
         sodipodi:nodetypes="csccsc"
         inkstitch:reverse_rails="both"
         inkstitch:random_width_increase_percent="20 20"
         inkstitch:random_split_jitter_percent="50"
         inkstitch:trim_after="True"
         inkscape:label="noir" /><g
         id="g16574"
         inkscape:label="ailes"
         style="display:inline;opacity:0.4;stroke-width:1.04995"><path
           id="path16558"
           style="fill:none;fill-rule:evenodd;stroke:#efe3b9;stroke-width:0.787459;stroke-linejoin:bevel;paint-order:markers stroke fill"
           d="m 101.65764,140.26411 c -2.558481,3.7203 -9.716689,8.09961 -15.523163,8.03912 -12.777394,-0.1331 -17.421471,-8.96509 -22.686499,-17.64822 m 44.066182,-5.64306 c -3.68352,-4.37493 -8.570932,-12.04257 -17.650076,-13.52537 -18.580194,-3.03449 -21.447561,9.00581 -26.416106,15.46426"
           sodipodi:nodetypes="csccsc"
           inkstitch:stroke_method="ripple_stitch"
           inkstitch:line_count="20"
           inkstitch:fill_method="contour_fill"
           inkstitch:contour_strategy="1"
           inkstitch:fill_underlay="False"
           inkstitch:row_spacing_randomness="80"
           inkstitch:row_spacing_mm="1"
           inkstitch:max_stitch_length_mm="2.5"
           inkstitch:length_increase="80"
           inkstitch:length_decrease="30"
           inkstitch:join_style="1"
           inkstitch:grid_size_mm="4"
           inkstitch:lock_start="half_stitch" /><path
           d="m 107.68639,125.49538 7.1978,-8.16201"
           style="fill:none;stroke:#efe3b9;stroke-width:0.277799px;stroke-dasharray:0.833393, 0.277799"
           inkstitch:running_stitch_length_mm="2.5"
           inkstitch:running_stitch_tolerance_mm="2.0"
           id="path14" /><path
           id="path16566"
           style="fill:none;fill-rule:evenodd;stroke:#efe3b9;stroke-width:0.787459;stroke-linejoin:bevel;paint-order:markers stroke fill"
           d="m 114.712,116.84993 c -3.22923,2.66372 -13.62709,-2.22328 -16.985063,-6.19023 C 82.890543,93.132682 89.461772,89.143049 96.012828,82.730449 M 131.20774,110.1261 c 2.62026,-6.0246 4.52302,-17.002752 -1.37707,-23.341433 -8.70608,-9.35327 -20.67049,-6.185891 -30.113676,-5.112552"
           sodipodi:nodetypes="csccsc"
           inkstitch:stroke_method="ripple_stitch"
           inkstitch:line_count="20"
           inkstitch:fill_method="contour_fill"
           inkstitch:contour_strategy="1"
           inkstitch:fill_underlay="False"
           inkstitch:row_spacing_randomness="80"
           inkstitch:row_spacing_mm="1"
           inkstitch:max_stitch_length_mm="2.5"
           inkstitch:length_increase="80"
           inkstitch:length_decrease="30"
           inkstitch:join_style="1"
           inkstitch:grid_size_mm="4"
           inkstitch:lock_start="half_stitch" /></g><path
         id="path11735"
         style="fill:none;fill-rule:evenodd;stroke:#ffff00;stroke-width:1.14133;stroke-linejoin:bevel;paint-order:markers stroke fill"
         d="m 133.0364,106.5626 c -12.46615,0 -31.5906,15.28609 -31.5906,29.47714 -1e-5,14.19106 18.9252,29.47715 34.03775,29.47713 m 1.11235,-55.61724 c -12.46615,0 -27.36369,11.50412 -27.36369,25.69517 -10e-6,14.19106 12.25113,25.69518 27.36368,25.69516"
         inkstitch:satin_column="True"
         inkstitch:max_stitch_length_mm="3"
         sodipodi:nodetypes="csccsc"
         inkstitch:reverse_rails="both"
         inkstitch:random_width_increase_percent="20 20"
         inkstitch:random_split_jitter_percent="50"
         inkscape:label="j" /><path
         id="path11661"
         style="display:inline;fill:none;fill-rule:evenodd;stroke:#000000;stroke-width:1.14133;stroke-linejoin:bevel;paint-order:markers stroke fill"
         d="m 136.59589,161.28996 c -15.11255,2e-5 -27.36369,-11.5041 -27.36368,-25.69516 0,-14.19105 14.89754,-25.69517 27.36369,-25.69517 12.46617,0 27.36368,11.5041 27.36368,25.69515 0,14.19104 -12.25113,25.69517 -27.36369,25.69518 m 0.77864,-5.56172 c -7.18767,0 -13.01444,-5.42835 -13.01443,-12.12456 0,-6.69621 7.08541,-12.12456 13.01444,-12.12456 5.92903,0 13.01443,5.42834 13.01443,12.12455 -1e-5,6.6962 -5.82676,12.12456 -13.01444,12.12457"
         inkstitch:satin_column="True"
         inkstitch:max_stitch_length_mm="4"
         inkstitch:reverse_rails="none"
         inkstitch:random_width_increase_percent="  30 0"
         inkstitch:random_split_jitter_percent="50"
         inkstitch:short_stitch_inset="25"
         inkstitch:lock_start="half_stitch"
         inkstitch:pull_compensation_mm="0 1"
         sodipodi:nodetypes="cscsccscsc" /><path
         id="ellipse11594"
         style="fill:none;fill-rule:evenodd;stroke:#ffff00;stroke-width:0.544089;stroke-linejoin:bevel;paint-order:markers stroke fill"
         transform="matrix(0.901302 -0.433192 0.569722 0.821837 0 0)"
         d="m 25.557862,194.27929 c -0.25027,-0.90327 -0.383373,-1.88438 -0.383373,-2.89156 -2e-6,-4.14335 2.528783,-7.5022 5.6482,-7.5022 3.119418,0 5.648205,3.35885 5.648201,7.5022 -10e-7,4.14335 -2.732863,7.20748 -5.648201,7.50219 -1.362475,0.13773 -2.540915,-0.37581 -3.463654,-1.30782 -0.817954,-0.82618 -1.434984,-1.98117 -1.801173,-3.30281 m -4.91068,-8.66113 c 3.863184,-6.11156 12.891542,-7.95784 17.825807,-5.35698 4.934262,2.60086 7.699156,10.66338 3.835975,16.77494 -3.86318,6.11156 -11.844062,8.50997 -17.825799,5.35699 -5.981741,-3.15298 -7.69917,-10.66338 -3.835983,-16.77495 z"
         sodipodi:nodetypes="cscssccscscs"
         inkstitch:satin_column="True"
         inkstitch:max_stitch_length_mm="4"
         inkstitch:reverse_rails="both"
         inkstitch:random_width_increase_percent="0 30"
         inkstitch:random_zigzag_spacing_percent="15"
         inkstitch:random_split_jitter_percent="50"
         inkstitch:short_stitch_distance_mm="0.3"
         inkstitch:random_width_decrease_percent="0 15" /><path
         id="path12089"
         style="display:inline;fill:none;fill-rule:evenodd;stroke:#f0f0f0;stroke-width:0.461741;stroke-linejoin:bevel;paint-order:markers stroke fill"
         d="m 136.75573,142.37488 c -1.2119,0.5131 -1.36949,1.97722 -0.35198,3.2702 1.01752,1.29297 2.82482,1.92518 4.03672,1.41208 1.21191,-0.51311 1.36949,-1.97722 0.35199,-3.2702 -1.01752,-1.29298 -2.82482,-1.92519 -4.03673,-1.41208 m -4.21155,-4.60309 c -2.81153,1.35131 -3.17712,5.20718 -0.81656,8.61234 2.36056,3.40516 6.55336,5.07013 9.36489,3.71882 2.81154,-1.3513 3.17713,-5.20717 0.81658,-8.61233 -2.36056,-3.40516 -6.55337,-5.07014 -9.36491,-3.71883"
         sodipodi:nodetypes="csssccsssc"
         inkstitch:satin_column="True"
         inkstitch:pull_compensation_mm="0.5"
         inkstitch:reverse_rails="none" /><path
         style="display:inline;fill:none;fill-rule:evenodd;stroke:#000000;stroke-width:0.461741;stroke-linejoin:bevel;paint-order:markers stroke fill"
         d="m 140.44047,147.05716 c 1.21191,-0.51311 1.36949,-1.97722 0.35199,-3.2702 -1.01752,-1.29298 -2.82482,-1.92519 -4.03673,-1.41208 m 3.68474,4.68228 c -1.2119,0.5131 -3.0192,-0.11911 -4.03672,-1.41208 -1.01751,-1.29298 -0.85992,-2.7571 0.35198,-3.2702"
         id="path12091"
         sodipodi:nodetypes="csccsc"
         inkstitch:satin_column="True"
         inkstitch:pull_compensation_mm="0.5"
         inkstitch:reverse_rails="none"
         inkstitch:zigzag_underlay="True"
         inkstitch:trim_after="True" /></g><g
       id="g14734"
       inkscape:label="antennes"
       transform="translate(5.66313, -5.0339)"
       style="stroke-width:1.04995"><path
         id="path14728"
         style="display:inline;fill:none;stroke:#000000;stroke-width:0.277798px"
         d="m 113.69352,125.65185 c 0.49474,0.0864 1.266,-0.26462 1.75987,-0.17324 1.30484,0.24143 2.59689,0.54124 3.88998,0.83719 0.84676,0.21908 1.69414,0.45198 2.50339,0.78644 0.60941,0.25522 1.14556,0.65168 1.65921,1.06007 0.81659,0.32942 3.18062,7.31324 3.86904,8.61135 m -13.88587,-10.53439 c 0.96861,0.16324 2.15316,0.80657 3.11784,0.99107 1.38961,0.32962 2.80255,0.58439 4.15091,1.06513 0.58831,0.1677 1.11186,0.49171 1.59137,0.8641 0.88183,0.69967 2.50141,6.91907 3.09791,7.8711 m -1.60837,-5.73827 c 0.60843,-0.43853 1.21687,-0.87706 1.8253,-1.31559 m -3.13497,-0.16877 c 0.50428,-0.55515 1.00856,-1.11031 1.51284,-1.66547 m -3.57111,0.45065 c 0.24426,-0.70911 0.48852,-1.41822 0.73277,-2.12733 m -2.75403,1.56904 c 0.16701,-0.73117 0.33402,-1.46234 0.50102,-2.1935 m -3.01406,1.64085 c 0.14283,-0.73627 0.28565,-1.47255 0.42847,-2.20882"
         inkstitch:satin_column="true"
         sodipodi:nodetypes="csccccccccccccccccccc"
         inkstitch:reverse_rails="none"
         inkstitch:pull_compensation_percent="0.5" /></g></g></svg>
