<svg xmlns="http://www.w3.org/2000/svg">
<defs>
<font
       id="VarelaRound-Regular"
       horiz-adv-x="0"
       horiz-origin-x="0"
       horiz-origin-y="0"
       vert-origin-x="512"
       vert-origin-y="768"
       vert-adv-y="1024">
      <font-face
         font-family="Varela Round"
         font-weight="400"
         font-stretch="normal"
         units-per-em="200"
         panose-1="0 0 0 0 0 0 0 0 0 0"
         ascent="160"
         descent="-40"
         x-height="102"
         cap-height="141"
         bbox="-9 -57 197 153"
         underline-thickness="10"
         underline-position="-25"
         unicode-range="U+000D-FB4B"
         id="font-face1" />
      <missing-glyph
         id="missing-glyph1" />
      <glyph
         glyph-name="A"
         unicode="A"
         horiz-adv-x="149"
         d="M19 -1q-4 0 -6.5 2.5t-2.5 6.5q0 2 1 4l51 120q1 3 4 6t8 3h2q5 0 7.5 -2.5t3.5 -6.5l51 -120q1 -2 1 -4q0 -4 -2.5 -6.5t-6.5 -2.5q-6 0 -8 6l-13 31h-68l-13 -31q-3 -6 -9 -6zM48 52h54l-27 65z"
         id="glyph1" />
      <glyph
         glyph-name="B"
         unicode="B"
         horiz-adv-x="138"
         d="M28 0q-4 0 -6.5 2.5t-2.5 6.5v121q0 4 3 7t6 3h48q22 0 33 -10t11 -27q0 -12 -6 -19.5t-13 -10.5q7 -2 13.5 -6.5t10 -11.5t3.5 -16q0 -12 -5 -20.5t-16.5 -13.5t-29.5 -5h-49zM38 79h33q13 0 19.5 3t9.5 8.5t3 11.5q0 9 -7.5 15t-21.5 6h-36v-44zM38 17h37q14 0 21.5 3 t11 8t3.5 12q0 12 -9.5 17.5t-26.5 5.5h-37v-46z"
         id="glyph2" />
      <glyph
         glyph-name="C"
         unicode="C"
         horiz-adv-x="139"
         d="M81 -2q-20 0 -36 8.5t-25 25t-9 38.5t9 38t25 25t36 9q15 0 25.5 -4t20.5 -9q2 -1 3 -2.5t1 -4.5t-2 -5.5t-6 -2.5q-2 0 -4 1q-8 4 -16 6.5t-20 2.5q-18 0 -30 -7t-18 -19.5t-6 -27.5t6 -27.5t18 -20t30 -7.5q12 0 20 3t16 7q2 1 4 1q4 0 6 -2.5t2 -5.5t-1 -5t-3 -3 q-9 -5 -20 -8.5t-26 -3.5z"
         id="glyph3" />
      <glyph
         glyph-name="D"
         unicode="D"
         horiz-adv-x="150"
         d="M28 0q-4 0 -6.5 2.5t-2.5 6.5v121q0 4 3 7t6 3h41q18 0 31 -6.5t22 -16.5t13 -22.5t4 -24.5q0 -13 -4 -25.5t-13 -22.5t-22 -16t-31 -6h-41zM38 17h28q17 0 29.5 6.5t19 18.5t6.5 28t-6.5 27.5t-19 18.5t-29.5 7h-28v-106z"
         id="glyph4" />
      <glyph
         glyph-name="E"
         unicode="E"
         horiz-adv-x="127"
         d="M28 0q-4 0 -6.5 2.5t-2.5 6.5v121q0 4 3 7t6 3h81q4 0 6 -2.5t2 -6.5t-2.5 -6t-5.5 -2h-71v-45h63q4 0 6.5 -2.5t2.5 -5.5q0 -4 -2.5 -6.5t-6.5 -2.5h-63v-44h71q4 0 6 -2.5t2 -6.5t-2.5 -6t-5.5 -2h-81z"
         id="glyph5" />
      <glyph
         glyph-name="F"
         unicode="F"
         horiz-adv-x="121"
         d="M28 -1q-4 0 -6.5 2.5t-2.5 6.5v122q0 4 3 7t6 3h78q4 0 6.5 -2.5t2.5 -6.5t-2.5 -6t-6.5 -2h-68v-45h61q4 0 6.5 -2.5t2.5 -5.5q0 -4 -2.5 -6.5t-6.5 -2.5h-61v-53q0 -4 -3 -6.5t-7 -2.5z"
         id="glyph6" />
      <glyph
         glyph-name="G"
         unicode="G"
         horiz-adv-x="151"
         d="M81 -2q-21 0 -36.5 9t-24.5 25.5t-9 37.5q0 16 5.5 29t15 22.5t22 15t27.5 5.5q17 0 28.5 -4.5t20.5 -10.5l2.5 -2.5t1.5 -4.5t-2 -5.5t-6 -2.5q-2 0 -4 1q-9 5 -18.5 8t-20.5 3q-15 0 -27.5 -6.5t-19.5 -18.5t-7 -29q0 -15 6.5 -27.5t18.5 -20t30 -7.5q11 0 19.5 2.5 t15.5 6.5v36h-33q-3 0 -6 2.5t-3 5.5t2.5 6t6.5 3h39q4 0 7 -3t3 -7v-45q0 -4 -2.5 -7.5t-5.5 -5.5q-10 -5 -21.5 -8t-24.5 -3z"
         id="glyph7" />
      <glyph
         glyph-name="H"
         unicode="H"
         horiz-adv-x="151"
         d="M28 -1q-4 0 -6.5 2.5t-2.5 6.5v123q0 4 3 7t6 3q4 0 7 -3t3 -7v-53h75v53q0 4 3 7t6 3q4 0 7 -3t3 -7v-123q0 -4 -3 -6.5t-7 -2.5t-6.5 2.5t-2.5 6.5v53h-75v-53q0 -4 -3 -6.5t-7 -2.5z"
         id="glyph8" />
      <glyph
         glyph-name="I"
         unicode="I"
         horiz-adv-x="57"
         d="M28 -1q-4 0 -6.5 2.5t-2.5 6.5v123q0 4 3 7t6 3q4 0 7 -3t3 -7v-123q0 -4 -3 -6.5t-7 -2.5z"
         id="glyph9" />
      <glyph
         glyph-name="J"
         unicode="J"
         horiz-adv-x="93"
         d="M34 -2q-8 0 -14.5 2t-12.5 5q-2 1 -3 2.5t-1 4.5t2 5.5t5 2.5h4q4 -2 8.5 -3.5t9.5 -1.5q6 0 11.5 2.5t9.5 8.5t4 19v86q0 4 2.5 7t6.5 3t6.5 -3t2.5 -7v-85q0 -14 -3.5 -23.5t-9.5 -15t-13 -7.5t-15 -2z"
         id="glyph10" />
      <glyph
         glyph-name="K"
         unicode="K"
         horiz-adv-x="134"
         d="M28 -1q-4 0 -6.5 2.5t-2.5 6.5v123q0 4 3 7t6 3q4 0 7 -3t3 -7v-63l68 69q1 1 3 2.5t4 1.5q4 0 6.5 -2.5t1.5 -6.5q0 -4 -2 -6l-46 -46l53 -66q2 -3 2 -6q0 -4 -2.5 -6.5t-6.5 -2.5q-5 0 -7 4l-52 65l-22 -23v-37q0 -4 -3 -6.5t-7 -2.5z"
         id="glyph11" />
      <glyph
         glyph-name="L"
         unicode="L"
         horiz-adv-x="115"
         d="M32 0q-5 0 -9 3.5t-4 9.5v118q0 4 3 7t6 3q4 0 7 -3t3 -7v-113h65q4 0 6.5 -2.5t2.5 -6.5t-2.5 -6.5t-6.5 -2.5h-71z"
         id="glyph12" />
      <glyph
         glyph-name="M"
         unicode="M"
         horiz-adv-x="193"
         d="M28 -1q-4 0 -6.5 2.5t-2.5 6.5v119q0 5 4 9.5t9 4.5h7q4 0 7.5 -2.5t4.5 -6.5l46 -113l45 113q2 4 5 6.5t7 2.5h7q5 0 9 -4t4 -10v-119q0 -4 -2.5 -6.5t-6.5 -2.5t-6.5 2.5t-2.5 6.5v114l-47 -115q-2 -4 -5 -6t-7 -2t-8 2.5t-5 5.5l-46 115v-114q0 -4 -3 -6.5t-7 -2.5z "
         id="glyph13" />
      <glyph
         glyph-name="N"
         unicode="N"
         horiz-adv-x="160"
         d="M28 -1q-4 0 -6.5 2.5t-2.5 6.5v119q0 5 4 9.5t9 4.5h3q3 0 6 -2t5 -4l77 -112v108q0 4 2.5 7t6.5 3t6.5 -3t2.5 -7v-119q0 -5 -4 -9t-9 -4h-2q-3 0 -6 1.5t-5 3.5l-77 112v-108q0 -4 -3 -6.5t-7 -2.5z"
         id="glyph14" />
      <glyph
         glyph-name="O"
         unicode="O"
         horiz-adv-x="162"
         d="M81 -2q-21 0 -36.5 9t-24.5 25.5t-9 37.5t9 37t24.5 25.5t36.5 9.5t37 -9.5t24.5 -25.5t8.5 -37t-8.5 -37.5t-24.5 -25.5t-37 -9zM81 15q17 0 28.5 7.5t17.5 19.5t6 28q0 15 -6 27.5t-17.5 20t-28.5 7.5t-28.5 -7.5t-17.5 -20t-6 -27.5t6 -27.5t17.5 -20t28.5 -7.5z"
         id="glyph15" />
      <glyph
         glyph-name="P"
         unicode="P"
         horiz-adv-x="134"
         d="M28 -1q-4 0 -6.5 2.5t-2.5 6.5v122q0 4 3 7t6 3h46q15 0 25.5 -4t16.5 -10.5t8.5 -14.5t2.5 -16t-2.5 -15.5t-8.5 -14t-16.5 -10.5t-25.5 -4h-36v-43q0 -4 -3 -6.5t-7 -2.5zM38 68h34q15 0 23 4t11 10.5t3 12.5q0 7 -3 13t-11 10t-23 4h-34v-54z"
         id="glyph16" />
      <glyph
         glyph-name="Q"
         unicode="Q"
         horiz-adv-x="162"
         d="M121 -30q-4 0 -6 3l-22 26q-3 0 -6 -0.5t-6 -0.5q-21 0 -36.5 9t-24.5 25.5t-9 37.5t9 37t24.5 25.5t36.5 9.5t37 -9.5t24.5 -25.5t8.5 -37q0 -23 -11 -41t-30 -26l18 -19q2 -2 2 -6q0 -3 -2.5 -5.5t-6.5 -2.5zM81 15q17 0 28.5 7.5t17.5 19.5t6 28q0 15 -6 27.5 t-17.5 20t-28.5 7.5t-28.5 -7.5t-17.5 -20t-6 -27.5t6 -27.5t17.5 -20t28.5 -7.5z"
         id="glyph17" />
      <glyph
         glyph-name="R"
         unicode="R"
         horiz-adv-x="142"
         d="M28 -1q-4 0 -6.5 2.5t-2.5 6.5v122q0 4 3 7t6 3h47q19 0 31 -5.5t17.5 -14.5t5.5 -21t-6.5 -22t-19.5 -14q8 -2 13.5 -8t8 -13t3 -14t0.5 -11v-9q0 -4 -2.5 -6.5t-6.5 -2.5t-6.5 2.5t-2.5 6.5v6q0 5 -0.5 12t-3.5 13.5t-9.5 10.5t-17.5 4h-41v-46q0 -4 -3 -6.5t-7 -2.5z M38 72h36q17 0 27 6.5t10 19.5q0 7 -3.5 12.5t-11.5 8.5t-23 3h-35v-50z"
         id="glyph18" />
      <glyph
         glyph-name="S"
         unicode="S"
         horiz-adv-x="123"
         d="M63 -2q-15 0 -26.5 3t-20.5 7q-2 1 -4 3t-2 5t2.5 5.5t5.5 2.5q2 0 4 -1q7 -3 17 -5.5t23 -2.5q10 0 17.5 2t12.5 7.5t5 13.5q0 6 -5 10t-12.5 7t-16.5 5t-18 4.5t-16.5 7t-12 11.5t-4.5 18t5.5 20t17.5 15t28 6q12 0 22 -2t18 -5q2 -1 4 -2.5t2 -5.5q0 -3 -2 -5.5 t-6 -2.5h-2h-1q-7 2 -15 4t-18 2q-15 0 -25 -6t-10 -17q0 -7 4.5 -11.5t12 -7t16.5 -5l18 -5t16.5 -6.5t12.5 -11.5t5 -18.5t-6.5 -20t-18 -14t-27.5 -5z"
         id="glyph19" />
      <glyph
         glyph-name="T"
         unicode="T"
         horiz-adv-x="121"
         d="M61 -1q-4 0 -6.5 2.5t-2.5 6.5v115h-41q-4 0 -6 2t-2 6t2 6.5t6 2.5h100q4 0 6 -2.5t2 -6.5t-2.5 -6t-5.5 -2h-41v-115q0 -4 -2.5 -6.5t-6.5 -2.5z"
         id="glyph20" />
      <glyph
         glyph-name="U"
         unicode="U"
         horiz-adv-x="151"
         d="M76 -2q-10 0 -20.5 3t-18.5 10t-13.5 17t-5.5 24v79q0 4 3 7t6 3q4 0 7 -3t3 -7v-79q0 -12 5.5 -20.5t14.5 -12.5t19 -4t19 4t14.5 12t5.5 21v79q0 4 2.5 7t6.5 3t6.5 -3t2.5 -7v-79q0 -14 -5 -24t-13.5 -17t-18.5 -10t-20 -3z"
         id="glyph21" />
      <glyph
         glyph-name="V"
         unicode="V"
         horiz-adv-x="138"
         d="M67 -1q-8 0 -12 9l-50 120q-1 2 0 3q0 4 2.5 7t6.5 3q6 0 8 -7l47 -117l47 117q3 6 9 7q4 0 6.5 -3t2.5 -7q0 -2 -1 -3l-49 -120q-4 -9 -12 -9h-5z"
         id="glyph22" />
      <glyph
         glyph-name="W"
         unicode="W"
         horiz-adv-x="202"
         d="M57 -1q-4 0 -7 2t-5 7l-39 120q-1 2 0 4q0 4 2.5 6.5t5.5 2.5t6 -2t3 -6l34 -110l34 110q1 3 4 5.5t6 2.5q4 0 7 -2.5t4 -5.5l33 -110l34 110q1 3 3.5 5.5t5.5 2.5q4 0 6.5 -2.5t2.5 -6.5q0 -1 -1 -4l-39 -120q-2 -5 -5 -7t-7 -2t-7 2.5t-5 6.5l-32 102l-32 -102 q-1 -4 -4.5 -6.5t-7.5 -2.5z"
         id="glyph23" />
      <glyph
         glyph-name="X"
         unicode="X"
         horiz-adv-x="134"
         d="M17 -1q-3 0 -5.5 2.5t-2.5 5.5t2 6l46 57l-46 56q-2 2 -2 6t2.5 6.5t6.5 2.5q5 0 7 -4l43 -54l42 54q2 3 6 4q4 0 6.5 -2.5t2.5 -6.5q0 -3 -1 -5l-47 -57l47 -57q2 -2 1 -5q0 -4 -2 -6.5t-7 -2.5q-4 0 -7 4l-43 54l-42 -54q-3 -4 -7 -4z"
         id="glyph24" />
      <glyph
         glyph-name="Y"
         unicode="Y"
         horiz-adv-x="127"
         d="M64 -1q-4 0 -6.5 2.5t-2.5 6.5v51l-48 67q-2 3 -2 5q0 4 2.5 7t6.5 3q5 0 8 -5l42 -61l42 61q3 5 8 5q4 0 6.5 -3t2.5 -7q0 -3 -2 -5l-48 -67v-51q0 -4 -2.5 -6.5t-6.5 -2.5z"
         id="glyph25" />
      <glyph
         glyph-name="Z"
         unicode="Z"
         horiz-adv-x="127"
         d="M21 0q-5 0 -8.5 3.5t-3.5 8.5q0 4 3 7l83 103h-77q-4 0 -6 2.5t-2 6.5t2.5 6.5t5.5 2.5h87q6 0 9 -4t3 -9q0 -4 -3 -8l-82 -102h78q4 0 6.5 -2.5t2.5 -6.5t-2.5 -6t-6.5 -2h-89z"
         id="glyph26" />
      <glyph
         glyph-name="a"
         unicode="a"
         horiz-adv-x="112"
         d="M42 -2q-9 0 -16.5 3.5t-12 10.5t-4.5 16q0 14 11.5 23t34.5 9h24v2q0 13 -6.5 19t-19.5 6q-8 0 -14.5 -1.5t-12.5 -3.5h-3q-3 0 -5 2t-2 5q0 5 5 8q7 3 15.5 5t19.5 2q15 0 24 -6t13.5 -15t4.5 -18v-57q0 -4 -3 -6.5t-7 -2.5t-6.5 2.5t-2.5 6.5v5q-5 -6 -14 -10.5 t-23 -4.5zM49 14q9 0 17 4.5t13 10.5v17h-21q-14 0 -22.5 -3.5t-8.5 -12.5q0 -6 5 -11t17 -5z"
         id="glyph27" />
      <glyph
         glyph-name="b"
         unicode="b"
         horiz-adv-x="126"
         d="M68 -2q-10 0 -18.5 4t-15.5 11v-5q0 -4 -2.5 -6.5t-6.5 -2.5t-6.5 2.5t-2.5 6.5v130q0 4 2.5 6.5t6.5 2.5t6.5 -2.5t2.5 -6.5v-49q7 7 15.5 11t18.5 4q12 0 23 -6t18.5 -18t7.5 -29t-7.5 -29t-18.5 -18t-23 -6zM66 15q14 0 23 9t9 27t-9 27t-23 9q-10 0 -18 -4.5 t-14 -10.5v-42q6 -6 14 -10.5t18 -4.5z"
         id="glyph28" />
      <glyph
         glyph-name="c"
         unicode="c"
         horiz-adv-x="106"
         d="M63 -2q-14 0 -26.5 6.5t-19.5 18t-7 28.5t7 28.5t19.5 18t26.5 6.5q12 0 20 -3t13 -7q4 -3 4 -7q0 -3 -2.5 -5.5t-5.5 -2.5q-2 0 -4 2q-5 3 -10.5 4.5t-12.5 1.5q-17 0 -27 -10t-10 -26t9.5 -26t27.5 -10q8 0 12.5 2t10.5 4l4 2q3 0 5.5 -3t2.5 -5q0 -4 -4 -7 q-5 -3 -13 -6.5t-20 -3.5z"
         id="glyph29" />
      <glyph
         glyph-name="d"
         unicode="d"
         horiz-adv-x="126"
         d="M58 -2q-12 0 -23 6t-18 18t-7 29t7 29t18 18t23 6q11 0 19 -4t15 -11v49q0 4 3 6.5t6 2.5q4 0 6.5 -2.5t2.5 -6.5v-130q0 -4 -2.5 -6.5t-6.5 -2.5t-6.5 2.5t-2.5 6.5v5q-7 -7 -15 -11t-19 -4zM61 15q10 0 17.5 4.5t13.5 10.5v42q-6 6 -14 10.5t-17 4.5q-14 0 -23.5 -9 t-9.5 -27t9.5 -27t23.5 -9z"
         id="glyph30" />
      <glyph
         glyph-name="e"
         unicode="e"
         horiz-adv-x="113"
         d="M61 -2q-24 0 -37.5 14t-13.5 39q0 14 5 26t15.5 19.5t26.5 7.5q15 0 26 -7t16.5 -18.5t5.5 -24.5q0 -4 -2.5 -6.5t-6.5 -2.5h-68q2 -13 10.5 -21.5t24.5 -8.5q9 0 15 1.5t12 4.5q2 1 4 1q3 0 5.5 -2t2.5 -6q0 -2 -1.5 -4t-4.5 -3q-7 -4 -14.5 -6.5t-20.5 -2.5zM28 59h59 q-1 10 -5.5 17t-11 10t-13.5 3q-6 0 -12.5 -3t-11 -10t-5.5 -17z"
         id="glyph31" />
      <glyph
         glyph-name="f"
         unicode="f"
         horiz-adv-x="76"
         d="M32 -1q-4 0 -6.5 2.5t-2.5 6.5v78h-11q-3 0 -5.5 2.5t-2.5 5.5t2 5.5t6 2.5h11v12q0 13 4.5 20t11.5 10.5t14 3.5q5 0 9.5 -1t8.5 -3q2 -1 3 -3t1 -4q0 -3 -2 -5.5t-5 -2.5q-2 0 -4.5 1t-5.5 1q-7 0 -11.5 -3.5t-4.5 -14.5v-11h25q3 0 5 -2t2 -6q0 -3 -2 -5.5t-5 -2.5 h-25v-78q0 -4 -3 -6.5t-7 -2.5z"
         id="glyph32" />
      <glyph
         glyph-name="g"
         unicode="g"
         horiz-adv-x="126"
         d="M63 -48q-12 0 -23.5 3t-18.5 7q-1 1 -2.5 3t-1.5 4q0 3 2.5 6t5.5 3q1 0 2 -0.5t2 -0.5q6 -3 14 -5.5t19 -2.5q31 0 30 33v13q-6 -7 -14.5 -11t-19.5 -4q-8 0 -16.5 3t-16 9.5t-11.5 16.5t-4 23t4 23t11.5 16.5t16 9.5t16.5 3q11 0 19.5 -4.5t14.5 -10.5v5q0 4 2.5 6.5 t6.5 2.5t6.5 -2.5t2.5 -6.5v-90q0 -25 -12 -38.5t-35 -13.5zM62 17q10 0 17.5 4.5t12.5 9.5v42q-6 6 -13 10t-17 4q-9 0 -17 -3.5t-12.5 -11.5t-4.5 -20t4.5 -20t12.5 -11.5t17 -3.5z"
         id="glyph33" />
      <glyph
         glyph-name="h"
         unicode="h"
         horiz-adv-x="121"
         d="M25 -1q-4 0 -6.5 2.5t-2.5 6.5v130q0 4 2.5 6.5t6.5 2.5t6.5 -2.5t2.5 -6.5v-52q6 7 15 12.5t22 5.5q11 0 19.5 -5.5t12.5 -14t4 -19.5v-57q0 -4 -2.5 -6.5t-6.5 -2.5t-6.5 2.5t-2.5 6.5v55q0 11 -5 17.5t-17 6.5q-11 0 -19 -5.5t-14 -13.5v-60q0 -4 -2.5 -6.5t-6.5 -2.5 z"
         id="glyph34" />
      <glyph
         glyph-name="i"
         unicode="i"
         horiz-adv-x="49"
         d="M24 123q-4 0 -7 3t-3 7v1q0 4 3 7t7 3h2q4 0 7 -3t3 -7v-1q0 -4 -3 -7t-7 -3h-2zM25 -1q-4 0 -6.5 2.5t-2.5 6.5v86q0 4 2.5 6.5t6.5 2.5t6.5 -2.5t2.5 -6.5v-86q0 -4 -2.5 -6.5t-6.5 -2.5z"
         id="glyph35" />
      <glyph
         glyph-name="j"
         unicode="j"
         horiz-adv-x="50"
         d="M25 123q-4 0 -7 3t-3 7v1q0 4 3 7t7 3h2q4 0 7 -3t3 -7v-1q0 -4 -3 -7t-7 -3h-2zM9 -48q-7 0 -13 2q-5 2 -5 7q0 3 2 5.5t6 2.5q1 0 2.5 -0.5t3.5 -0.5q5 0 8.5 2t3.5 10v114q0 4 2.5 6.5t6.5 2.5t6.5 -2.5t2.5 -6.5v-115q0 -12 -6 -19.5t-20 -7.5z"
         id="glyph36" />
      <glyph
         glyph-name="k"
         unicode="k"
         horiz-adv-x="109"
         d="M25 -1q-4 0 -6.5 2.5t-2.5 6.5v130q0 4 2.5 6.5t6.5 2.5t6.5 -2.5t2.5 -6.5v-82l48 44q1 1 2.5 2t3.5 1q5 0 6.5 -3t1.5 -6q0 -1 -0.5 -3t-2.5 -4l-29 -26l36 -48q2 -3 2 -5q0 -4 -2.5 -6.5t-6.5 -2.5t-7 4l-35 47l-17 -16v-26q0 -4 -2.5 -6.5t-6.5 -2.5z"
         id="glyph37" />
      <glyph
         glyph-name="l"
         unicode="l"
         horiz-adv-x="49"
         d="M25 -1q-4 0 -6.5 2.5t-2.5 6.5v130q0 4 2.5 6.5t6.5 2.5t6.5 -2.5t2.5 -6.5v-130q0 -4 -2.5 -6.5t-6.5 -2.5z"
         id="glyph38" />
      <glyph
         glyph-name="m"
         unicode="m"
         horiz-adv-x="183"
         d="M25 -1q-4 0 -6.5 2.5t-2.5 6.5v86q0 4 2.5 6.5t6.5 2.5t6.5 -2.5t2.5 -6.5v-8q3 4 7 8t11 7t16 3q12 0 19.5 -6.5t11.5 -14.5q2 4 6.5 9t11.5 8.5t18 3.5q12 0 19.5 -6t11 -14.5t3.5 -17.5v-58q0 -4 -3 -6.5t-6 -2.5q-4 0 -6.5 2.5t-2.5 6.5v54q0 13 -4.5 19t-16.5 6 q-8 0 -13 -3t-9 -7t-7 -9v-60q0 -4 -2.5 -6.5t-6.5 -2.5t-6.5 2.5t-2.5 6.5v54q0 13 -4.5 19t-15.5 6q-8 0 -13.5 -3t-9 -7t-6.5 -9v-60q0 -4 -2.5 -6.5t-6.5 -2.5z"
         id="glyph39" />
      <glyph
         glyph-name="n"
         unicode="n"
         horiz-adv-x="121"
         d="M25 -1q-4 0 -6.5 2.5t-2.5 6.5v86q0 4 2.5 6.5t6.5 2.5t6.5 -2.5t2.5 -6.5v-8q6 7 15 12.5t22 5.5q11 0 19.5 -5.5t12.5 -14t4 -19.5v-57q0 -4 -2.5 -6.5t-6.5 -2.5t-6.5 2.5t-2.5 6.5v55q0 11 -5 17.5t-17 6.5q-11 0 -19 -5.5t-14 -13.5v-60q0 -4 -2.5 -6.5t-6.5 -2.5z "
         id="glyph40" />
      <glyph
         glyph-name="o"
         unicode="o"
         horiz-adv-x="121"
         d="M61 -2q-15 0 -27 6.5t-18 18.5t-6 28t6 28t17.5 18.5t27.5 6.5q15 0 26.5 -6.5t18 -18.5t6.5 -28t-6.5 -28t-18 -18.5t-26.5 -6.5zM61 15q8 0 15.5 3.5t12.5 11.5t5 21t-5 21t-13 11.5t-15 3.5q-8 0 -15.5 -3.5t-12.5 -11.5t-5 -21t5 -21t12.5 -11.5t15.5 -3.5z"
         id="glyph41" />
      <glyph
         glyph-name="p"
         unicode="p"
         horiz-adv-x="126"
         d="M25 -47q-4 0 -6.5 2.5t-2.5 6.5v132q0 4 2.5 6.5t6.5 2.5t6.5 -2.5t2.5 -6.5v-5q7 7 15.5 11t18.5 4q12 0 23 -6t18.5 -18t7.5 -29t-7.5 -29t-18.5 -18t-23 -6q-10 0 -18.5 4t-15.5 11v-51q0 -4 -2.5 -6.5t-6.5 -2.5zM66 15q14 0 23 9t9 27t-9 27t-23 9q-10 0 -18 -4.5 t-14 -10.5v-42q6 -6 14 -10.5t18 -4.5z"
         id="glyph42" />
      <glyph
         glyph-name="q"
         unicode="q"
         horiz-adv-x="126"
         d="M101 -47q-4 0 -6.5 2.5t-2.5 6.5v51q-7 -7 -15 -11t-19 -4q-12 0 -23 6t-18 18t-7 29t7 29t18 18t23 6q11 0 19 -4t15 -11v5q0 4 3 6.5t6 2.5q4 0 6.5 -2.5t2.5 -6.5v-132q0 -4 -2.5 -6.5t-6.5 -2.5zM61 15q10 0 17.5 4.5t13.5 10.5v42q-6 6 -14 10.5t-17 4.5 q-14 0 -23.5 -9t-9.5 -27t9.5 -27t23.5 -9z"
         id="glyph43" />
      <glyph
         glyph-name="r"
         unicode="r"
         horiz-adv-x="76"
         d="M25 -1q-4 0 -6.5 2.5t-2.5 6.5v86q0 4 2.5 6.5t6.5 2.5t6.5 -2.5t2.5 -6.5v-9q5 7 13 13t18 6h1q4 0 6.5 -2.5t2.5 -6.5t-2.5 -6.5t-6.5 -2.5h-1q-10 0 -18 -4.5t-13 -12.5v-61q0 -4 -2.5 -6.5t-6.5 -2.5z"
         id="glyph44" />
      <glyph
         glyph-name="s"
         unicode="s"
         horiz-adv-x="96"
         d="M49 -2q-11 0 -20 2.5t-17 6.5q-3 2 -3 7q0 3 2 5.5t6 2.5q2 0 3 -1q5 -2 12 -4t16 -2q12 0 17 3.5t5 10.5q0 4 -4.5 6.5t-11.5 4.5t-14.5 3.5t-14.5 5t-11 9t-4 14.5q0 14 9.5 23t29.5 9q8 0 15.5 -1.5t13.5 -3.5q3 -1 4.5 -3t1.5 -5t-2.5 -5.5t-5.5 -2.5q-1 0 -1.5 0.5 t-1.5 0.5q-5 2 -10.5 2.5t-12.5 0.5q-11 0 -17 -4t-6 -10q0 -5 4.5 -7.5t11.5 -4.5t14.5 -3.5t14.5 -5t11 -9.5t4 -15q0 -12 -9.5 -21t-28.5 -9z"
         id="glyph45" />
      <glyph
         glyph-name="t"
         unicode="t"
         horiz-adv-x="76"
         d="M51 -2q-4 0 -8.5 0.5t-9.5 3t-8 8t-3 14.5v62h-14q-4 0 -4 4q0 2 2 4l27 26l1 1t2 1q2 0 3 -1t1 -3v-16h23q3 0 5 -2t2 -6q0 -3 -2 -5.5t-5 -2.5h-23v-60q0 -6 2 -8.5t5.5 -3t5.5 -0.5q5 0 7 1t5 1t5 -2t2 -5q0 -5 -4 -7t-8 -3t-9 -1z"
         id="glyph46" />
      <glyph
         glyph-name="u"
         unicode="u"
         horiz-adv-x="121"
         d="M51 -2q-11 0 -19.5 5.5t-12.5 14.5t-4 19v57q0 4 2.5 6.5t6.5 2.5t6.5 -2.5t2.5 -6.5v-55q0 -11 5 -17.5t17 -6.5q11 0 19 6t14 13v60q0 4 2.5 6.5t6.5 2.5t6.5 -2.5t2.5 -6.5v-86q0 -4 -2.5 -6.5t-6.5 -2.5t-6.5 2.5t-2.5 6.5v8q-6 -7 -15 -12.5t-22 -5.5z"
         id="glyph47" />
      <glyph
         glyph-name="v"
         unicode="v"
         horiz-adv-x="106"
         d="M52 -1q-4 0 -7 2t-4 5l-35 84q-1 2 -1 4q0 4 2.5 6.5t6.5 2.5q3 0 5.5 -1.5t2.5 -3.5l31 -78l31 78q1 2 3 3.5t5 1.5q4 0 6.5 -2.5t2.5 -6.5q0 -2 -1 -4l-35 -84q-1 -3 -4 -5t-7 -2h-2z"
         id="glyph48" />
      <glyph
         glyph-name="w"
         unicode="w"
         horiz-adv-x="158"
         d="M46 -1q-4 0 -7 2.5t-4 5.5l-29 84q-1 2 0 3q0 4 2.5 6.5t6.5 2.5q3 0 5 -1.5t3 -3.5l23 -77l23 75q1 3 4 5t6 2t6 -2t4 -5l23 -75l24 77q1 3 3 4t5 1q4 0 6.5 -2.5t2.5 -6.5q0 -2 -1 -3l-28 -84q-1 -3 -4.5 -5.5t-7.5 -2.5t-7 2.5t-5 6.5l-21 66l-21 -66q-1 -4 -4.5 -6.5 t-7.5 -2.5z"
         id="glyph49" />
      <glyph
         glyph-name="x"
         unicode="x"
         horiz-adv-x="108"
         d="M19 -1q-4 0 -6.5 2.5t-2.5 6.5q0 3 2 6l31 36l-31 38q-2 3 -2 6q0 4 2.5 6.5t6.5 2.5q5 0 7 -3l28 -35l28 35q2 3 7 3q4 0 6.5 -2.5t2.5 -6.5q0 -3 -2 -5l-31 -37l31 -38q1 -1 1.5 -3t0.5 -3q0 -3 -2.5 -6t-6.5 -3t-7 4l-29 34l-26 -34q-3 -4 -8 -4z"
         id="glyph50" />
      <glyph
         glyph-name="y"
         unicode="y"
         horiz-adv-x="107"
         d="M39 -47q-4 0 -6.5 2.5t-2.5 6.5q0 2 1 3l13 33l-38 92q0 1 -0.5 2t-0.5 2q0 4 2.5 6.5t6.5 2.5q3 0 5.5 -1.5t3.5 -4.5l30 -76l32 76q1 3 3 4.5t5 1.5q4 0 6.5 -2.5t2.5 -6.5v-4l-55 -131q-1 -3 -3 -4.5t-5 -1.5z"
         id="glyph51" />
      <glyph
         glyph-name="z"
         unicode="z"
         horiz-adv-x="99"
         d="M21 0q-5 0 -9 2.5t-4 8.5q0 5 3 8l58 66h-51q-4 0 -6 2.5t-2 5.5q0 4 2.5 6.5t5.5 2.5h61q5 0 8 -3t3 -8t-2 -8l-56 -66h51q4 0 6.5 -2.5t2.5 -6.5t-2.5 -6t-6.5 -2h-62z"
         id="glyph52" />
      <glyph
         glyph-name="uni05D0"
         unicode="א"
         horiz-adv-x="131"
         d="M17 0q-3 1 -4 4.5t0 6.5l22 71l-18 22q-2 3 -2 6.5t2 6.5q3 3 7 2t6 -3l48 -56l25 54q2 4 5.5 4.5t6.5 -0.5q4 -2 5 -5.5t-1 -7.5l-28 -59l27 -32q2 -3 2 -6.5t-3 -6.5q-3 -2 -6.5 -1.5t-6.5 3.5l-55 64l-19 -62q-1 -4 -5.5 -5t-7.5 0z"
         id="glyph53" />
      <glyph
         glyph-name="uni05D1"
         unicode="ב"
         horiz-adv-x="128"
         d="M19 0q-3 0 -5.5 2.5t-2.5 5.5t2 5.5t6 2.5h67v59q0 16 -6 22t-21 6q-9 0 -18 -1t-20 -4q-3 -1 -6 1.5t-4 5.5q0 3 2 5.5t5 3.5q11 3 21.5 4t19.5 1q25 0 35 -10t10 -34v-59h11q3 0 5.5 -2.5t2.5 -5.5t-2.5 -5.5t-5.5 -2.5h-96z"
         id="glyph54" />
      <glyph
         glyph-name="uni05D2"
         unicode="ג"
         horiz-adv-x="81"
         d="M15 -1q-4 0 -7 2t-4 5q-1 4 1.5 7t6.5 4q12 1 20 7t14 16v49q0 9 -3 12t-9 3q-2 0 -5.5 -1t-6.5 -2q-2 -1 -4.5 0t-3.5 4t0 5.5t4 4.5t8 3t9 1q5 0 10 -1t9.5 -4t7 -9t2.5 -18v-79q0 -4 -2.5 -6.5t-6.5 -2.5t-6.5 2.5t-2.5 6.5v13q-3 -4 -8 -9t-10.5 -9t-12.5 -4z"
         id="glyph55" />
      <glyph
         glyph-name="uni05D3"
         unicode="ד"
         horiz-adv-x="117"
         d="M75 -1q-4 0 -6.5 2.5t-2.5 6.5v62q0 10 1.5 18t6.5 14h-60q-3 0 -5.5 2.5t-2.5 5.5t2 5.5t6 2.5h86q3 0 5.5 -2.5t2.5 -5.5t-2.5 -5.5t-5.5 -2.5h-9q-4 -6 -5.5 -14.5t-1.5 -18.5v-61q0 -4 -2.5 -6.5t-6.5 -2.5z"
         id="glyph56" />
      <glyph
         glyph-name="uni05D4"
         unicode="ה"
         horiz-adv-x="132"
         d="M107 -1q-4 0 -6.5 2.5t-2.5 6.5v67q0 11 -3.5 17t-10.5 8.5t-20 2.5q-9 0 -19.5 -1t-21.5 -4q-3 -1 -6 1.5t-4 5.5q0 3 2 5.5t5 3.5q11 2 23.5 3.5t21.5 1.5q19 0 30 -4.5t16 -14t5 -25.5v-67q0 -4 -2.5 -6.5t-6.5 -2.5zM28 -1q-4 0 -6.5 2.5t-2.5 6.5v54q0 4 2.5 6.5 t6.5 2.5t6.5 -2.5t2.5 -6.5v-54q0 -4 -2.5 -6.5t-6.5 -2.5z"
         id="glyph57" />
      <glyph
         glyph-name="uni05D5"
         unicode="ו"
         horiz-adv-x="53"
         d="M27 -1q-4 0 -6.5 2.5t-2.5 6.5v102q0 4 2.5 6.5t6.5 2.5t6.5 -3t2.5 -6v-102q0 -4 -2.5 -6.5t-6.5 -2.5z"
         id="glyph58" />
      <glyph
         glyph-name="uni05D6"
         unicode="ז"
         horiz-adv-x="83"
         d="M39 -1q-4 0 -6.5 2.5t-2.5 6.5v62q0 10 2 18t7 14h-22q-3 0 -5.5 2.5t-2.5 5.5t2.5 5.5t5.5 2.5h53q3 0 5.5 -2.5t2.5 -5.5t-2.5 -5.5t-5.5 -2.5h-14q-4 -6 -6 -14.5t-2 -18.5v-61q0 -4 -2.5 -6.5t-6.5 -2.5z"
         id="glyph59" />
      <glyph
         glyph-name="uni05D7"
         unicode="ח"
         horiz-adv-x="136"
         d="M32 -1q-4 0 -7 2.5t-3 6.5v61q0 8 2.5 17.5t6.5 15.5h-9q-4 0 -6.5 2.5t-2.5 5.5t2.5 5.5t6.5 2.5h58q12 0 21 -4t14 -13.5t5 -25.5v-67q0 -4 -2.5 -6.5t-6.5 -2.5t-6.5 2.5t-2.5 6.5v67q0 11 -3 17t-8 8t-11 2h-33q-4 -7 -5 -15.5t-1 -18.5v-60q0 -4 -2.5 -6.5 t-6.5 -2.5z"
         id="glyph60" />
      <glyph
         glyph-name="uni05D8"
         unicode="ט"
         horiz-adv-x="139"
         d="M72 -1q-26 0 -41.5 13t-15.5 37v61q0 4 3 6.5t6 2.5q4 0 7 -2.5t3 -6.5v-61q0 -17 10.5 -25.5t27.5 -8.5q16 0 25.5 8.5t9.5 25.5v39q0 8 -3 11.5t-10 3.5q-5 0 -10.5 -4t-9.5 -13q-1 -3 -4 -4.5t-6 -0.5t-4.5 4t-0.5 7q2 9 8 15t13.5 9t13.5 3t11.5 -1t10 -4.5t7 -9.5 t2.5 -17v-38q0 -24 -13.5 -37t-39.5 -13z"
         id="glyph61" />
      <glyph
         glyph-name="uni05D9"
         unicode="י"
         horiz-adv-x="51"
         d="M26 47q-4 0 -7 3t-3 7v53q0 4 3 6.5t6 2.5q4 0 7 -3t3 -6v-53q0 -4 -2.5 -7t-6.5 -3z"
         id="glyph62" />
      <glyph
         glyph-name="uni05DA"
         unicode="ך"
         horiz-adv-x="105"
         d="M81 -39q-4 0 -6.5 3t-2.5 7v104q0 11 -2.5 17t-7.5 8t-11 2h-36q-4 0 -6 2.5t-2 5.5t2.5 5.5t5.5 2.5h36q12 0 20.5 -4t13.5 -13.5t5 -25.5v-104q0 -4 -2.5 -7t-6.5 -3z"
         id="glyph63" />
      <glyph
         glyph-name="uni05DB"
         unicode="כ"
         horiz-adv-x="114"
         d="M18 0q-4 0 -6.5 2.5t-2.5 5.5t2.5 5.5t6.5 2.5h35q15 0 23 10.5t8 32.5q0 23 -8 33t-23 10h-35q-4 0 -6.5 2.5t-2.5 5.5t2.5 5.5t6.5 2.5h35q25 0 37 -14t12 -45t-12 -45t-37 -14h-35z"
         id="glyph64" />
      <glyph
         glyph-name="uni05DC"
         unicode="ל"
         horiz-adv-x="108"
         d="M39 1q-3 2 -4.5 5.5t0.5 6.5l44 89h-61q-9 0 -9 9v27q0 4 2.5 6.5t6.5 2.5q3 0 5.5 -3t2.5 -6v-20h60q4 0 7.5 -3t4 -7.5t-1.5 -10.5l-45 -92q-2 -3 -5.5 -4.5t-6.5 0.5z"
         id="glyph65" />
      <glyph
         glyph-name="uni05DD"
         unicode="ם"
         horiz-adv-x="138"
         d="M28 0q-3 0 -5.5 2.5t-2.5 5.5v57q0 5 1 12.5t3 14t5 10.5h-8q-4 0 -6.5 2.5t-2.5 5.5t2.5 5.5t6.5 2.5h61q12 0 21 -4t14 -13.5t5 -25.5v-67q0 -3 -2.5 -5.5t-5.5 -2.5h-86zM38 16h66v59q0 11 -3 17t-7.5 8t-11.5 2h-36q-4 -6 -6 -16t-2 -21v-49z"
         id="glyph66" />
      <glyph
         glyph-name="uni05DE"
         unicode="מ"
         horiz-adv-x="138"
         d="M27 -1q-4 0 -6.5 2.5t-2.5 6.5v102q0 4 2.5 6.5t6.5 2.5t6.5 -2.5t2.5 -6.5v-9q5 4 12.5 8.5t16.5 7t18 2.5q20 0 30 -12t10 -35v-64q0 -8 -8 -8h-45q-3 0 -5.5 2.5t-2.5 5.5t2 5.5t6 2.5h35v54q0 13 -2.5 20t-8 10t-14.5 3q-8 0 -16.5 -3t-16 -7.5t-11.5 -9.5v-75 q0 -4 -2.5 -6.5t-6.5 -2.5z"
         id="glyph67" />
      <glyph
         glyph-name="uni05DF"
         unicode="ן"
         horiz-adv-x="53"
         d="M27 -39q-4 0 -6.5 3t-2.5 7v139q0 4 2.5 6.5t6.5 2.5t6.5 -3t2.5 -6v-139q0 -4 -2.5 -7t-6.5 -3z"
         id="glyph68" />
      <glyph
         glyph-name="uni05E0"
         unicode="נ"
         horiz-adv-x="70"
         d="M11 0q-4 0 -6 2.5t-2 5.5t2.5 5.5t5.5 2.5h10q8 0 11.5 5.5t3.5 19.5v61h-15q-4 0 -6.5 2.5t-2.5 5.5t2.5 5.5t6.5 2.5h21q5 0 8.5 -3t3.5 -8v-66q0 -22 -7.5 -31.5t-25.5 -9.5h-10z"
         id="glyph69" />
      <glyph
         glyph-name="uni05E1"
         unicode="ס"
         horiz-adv-x="132"
         d="M69 -2q-18 0 -29.5 7.5t-17.5 21t-6 31.5q0 10 2.5 22t7.5 22h-8q-3 0 -5.5 2.5t-2.5 5.5t2.5 5.5t5.5 2.5h55q18 0 29 -7.5t15.5 -21t4.5 -31.5t-5.5 -31.5t-17.5 -21t-30 -7.5zM34 58q0 -21 8.5 -32.5t26.5 -11.5t26.5 11.5t8.5 32.5q0 14 -2.5 24t-9 15t-19.5 5h-30 q-5 -9 -7 -21t-2 -23z"
         id="glyph70" />
      <glyph
         glyph-name="uni05E2"
         unicode="ע"
         horiz-adv-x="114"
         d="M16 -12q-3 -1 -6.5 0t-4.5 4t0.5 6.5t4.5 4.5l28 9l-26 95q-1 4 1 7t5 4t6.5 -0.5t4.5 -5.5l26 -94l4 1q13 4 18 17t5 37v37q0 4 3 6.5t7 2.5t6.5 -2.5t2.5 -6.5v-37q0 -29 -9 -46t-31 -24z"
         id="glyph71" />
      <glyph
         glyph-name="uni05E3"
         unicode="ף"
         horiz-adv-x="121"
         d="M100 -39q-4 0 -6.5 3t-2.5 7v87q0 23 -8 34t-26 11q-15 0 -23.5 -7.5t-8.5 -20.5q0 -9 2 -13.5t5.5 -7t6.5 -3t5 -0.5q5 0 7 1.5t4 1.5q3 0 5.5 -1.5t2.5 -5.5q0 -5 -4 -7q-3 -2 -7.5 -3t-9.5 -1q-4 0 -9.5 1t-11.5 4.5t-10.5 11t-4.5 20.5q0 14 6 24.5t17.5 16t27.5 5.5 q27 0 39.5 -16.5t12.5 -44.5v-87q0 -4 -2.5 -7t-6.5 -3z"
         id="glyph72" />
      <glyph
         glyph-name="uni05E4"
         unicode="פ"
         horiz-adv-x="125"
         d="M52 -2q-15 0 -26 3q-3 1 -5 3.5t-2 5.5q1 3 3.5 5t6.5 2q6 -1 11.5 -2t11.5 -1q24 0 34.5 11t10.5 35q0 21 -9.5 32t-28.5 11q-15 0 -23 -6.5t-8 -17.5q0 -7 2 -11.5t5 -6t6 -2t5 -0.5q3 0 7.5 1.5t6.5 1.5q3 0 4.5 -2t1.5 -5q0 -4 -3.5 -7t-8.5 -4t-10 -1q-4 0 -9.5 1 t-11 4.5t-9.5 10t-4 18.5q0 19 12.5 30.5t36.5 11.5q18 0 31 -7t19 -20.5t6 -31.5q0 -31 -16 -46.5t-47 -15.5z"
         id="glyph73" />
      <glyph
         glyph-name="uni05E5"
         unicode="ץ"
         horiz-adv-x="105"
         d="M77 -38q-3 -1 -6.5 0.5t-4.5 4.5l-58 140q-1 3 0 6.5t5 4.5q4 2 7 0t5 -5l25 -62l29 63q2 4 5.5 4.5t7.5 -0.5q4 -2 4.5 -5.5t-1.5 -7.5l-36 -75l24 -57q1 -3 -1 -6.5t-5 -4.5z"
         id="glyph74" />
      <glyph
         glyph-name="uni05E6"
         unicode="צ"
         horiz-adv-x="122"
         d="M19 0q-3 0 -5.5 2.5t-2.5 5.5t2 5.5t6 2.5h65l-74 89q-2 3 -1.5 6.5t3.5 5.5t6.5 2t5.5 -3l45 -55l23 53l2 2l2 2q3 2 6.5 0.5t5.5 -4.5q2 -4 0 -8l-26 -60l25 -30q5 -6 3 -12q-1 -3 -4.5 -3.5t-7.5 -0.5h-79z"
         id="glyph75" />
      <glyph
         glyph-name="uni05E7"
         unicode="ק"
         horiz-adv-x="126"
         d="M71 -1q-4 0 -7.5 0.5t-6.5 1.5q-4 1 -6 3.5t-2 5.5t3 5.5t7 1.5q3 -1 5.5 -1.5t6.5 -0.5q6 0 10.5 2.5t8 8.5t3.5 17v59h-73q-4 0 -6.5 2.5t-2.5 5.5t2.5 5.5t6.5 2.5h79q5 0 8.5 -3t3.5 -8v-64q0 -16 -5.5 -25.5t-14.5 -14t-20 -4.5zM24 -39q-4 0 -6.5 3t-2.5 7v93 q0 4 2.5 6.5t6.5 2.5t6.5 -2.5t2.5 -6.5v-93q0 -4 -2.5 -7t-6.5 -3z"
         id="glyph76" />
      <glyph
         glyph-name="uni05E8"
         unicode="ר"
         horiz-adv-x="112"
         d="M88 -1q-4 0 -6.5 3t-2.5 6v67q0 11 -3 17t-9 8.5t-16 2.5q-9 0 -17 -1t-17 -3q-4 -1 -6.5 1.5t-3.5 5.5q0 3 2 6t5 3q9 2 18.5 3t19.5 1q17 0 26.5 -4.5t14 -14t4.5 -25.5v-67q0 -4 -2.5 -6.5t-6.5 -2.5z"
         id="glyph77" />
      <glyph
         glyph-name="uni05E9"
         unicode="ש"
         horiz-adv-x="156"
         d="M78 -1q-31 0 -47 13.5t-16 41.5v56q0 4 2.5 6.5t6.5 2.5t6.5 -2.5t2.5 -6.5v-56q0 -20 11.5 -29.5t33.5 -9.5t33.5 9.5t11.5 29.5v56q0 4 2.5 6.5t6.5 2.5t6.5 -2.5t2.5 -6.5v-56q0 -28 -16 -41.5t-47 -13.5zM78 37q-4 0 -6.5 3t-2.5 6v64q0 4 2.5 6.5t6.5 2.5t6.5 -2.5 t2.5 -6.5v-64q0 -4 -2.5 -6.5t-6.5 -2.5z"
         id="glyph78" />
      <glyph
         glyph-name="uni05EA"
         unicode="ת"
         horiz-adv-x="139"
         d="M14 0q-3 0 -5.5 2.5t-2.5 5.5t2.5 5.5t5.5 2.5h15v55q0 8 1 16t4 15h-11q-4 0 -6 2.5t-2 5.5t2.5 5.5t5.5 2.5h61q12 0 21 -4t14 -13.5t5 -25.5v-67q0 -4 -2.5 -6.5t-6.5 -2.5t-6.5 2.5t-2.5 6.5v67q0 11 -3 17t-8 8t-11 2h-33q-3 -7 -3.5 -15t-0.5 -17v-62 q0 -3 -2.5 -5.5t-5.5 -2.5h-25z"
         id="glyph79" />
      <glyph
         glyph-name="backslash"
         unicode="\"
         horiz-adv-x="88"
         d="M71 -19q-3 0 -5 1.5t-3 4.5l-53 155l-0.5 1t-0.5 2q0 3 2.5 5.5t6.5 2.5q3 0 5 -1.5t2 -4.5l53 -155l0.5 -1t0.5 -2q0 -3 -2 -5.5t-6 -2.5z"
         id="glyph80" />
      <glyph
         glyph-name="bracketleft"
         unicode="["
         horiz-adv-x="64"
         d="M26 -26q-4 0 -6.5 2.5t-2.5 5.5v156q0 4 3 6t6 2h26q3 0 5 -2t2 -5t-2 -5t-5 -2h-19v-144h19q3 0 5 -2t2 -5t-2 -5t-5 -2h-26z"
         id="glyph81" />
      <glyph
         glyph-name="bracketright"
         unicode="]"
         horiz-adv-x="64"
         d="M13 -26q-3 0 -5 2t-2 5t2 5t5 2h18v144h-18q-3 0 -5 2t-2 5t2 5t5 2h25q4 0 6.5 -2.5t2.5 -5.5v-156q0 -4 -2.5 -6t-6.5 -2h-25z"
         id="glyph82" />
      <glyph
         glyph-name="underscore"
         unicode="_"
         horiz-adv-x="132"
         d="M17 -29q-3 0 -5 2t-2 4q0 3 2 5t5 2h99q3 0 4.5 -2t1.5 -5t-2 -4.5t-4 -1.5h-99z"
         id="glyph83" />
      <glyph
         glyph-name="uni05F3"
         unicode="׳"
         horiz-adv-x="37"
         d="M12 87q-6 2 -4 10l7 26q1 4 4 5.5t8 0.5q4 -1 5.5 -4.5t-0.5 -6.5l-11 -27q-1 -3 -3.5 -4t-5.5 0z"
         id="glyph84" />
      <glyph
         glyph-name="uni05F4"
         unicode="״"
         horiz-adv-x="62"
         d="M38 87q-2 1 -3 3.5t0 5.5l6 26q1 4 4 6t7 1t5.5 -4.5t-0.5 -6.5l-11 -27q-2 -6 -8 -4zM12 87q-2 1 -3 3.5t-1 5.5l7 26q1 4 4 6t7 1t5 -4.5t0 -6.5l-11 -27q-1 -3 -3 -4t-5 0z"
         id="glyph85" />
      <glyph
         glyph-name="uni05BE"
         unicode="־"
         horiz-adv-x="65"
         d="M17 102q-3 0 -5.5 2.5t-2.5 5.5t2.5 5.5t5.5 2.5h31q3 0 5.5 -2.5t2.5 -5.5t-2 -5.5t-6 -2.5h-31z"
         id="glyph86" />
      <glyph
         glyph-name="asciicircum"
         unicode="^"
         horiz-adv-x="104"
         d="M24 83q-3 0 -5.5 2t-2.5 5q0 1 0.5 2t1.5 2l21 40q2 3 4 4.5t5 1.5h8q4 0 6 -2l4 -4l21 -40q0 -1 0.5 -2t0.5 -2q0 -3 -2 -5t-5 -2t-5 2l-1 1t-3 4.5t-6.5 11.5t-13.5 21q-8 -13 -13 -21t-7 -11.5t-2.5 -4.5l-0.5 -1q-2 -2 -5 -2z"
         id="glyph87" />
      <glyph
         glyph-name="grave"
         unicode="`"
         horiz-adv-x="49"
         d="M40 113q-3 0 -4 3l-14 16q-2 2 -2 5t2 5t5 2t4 -1q2 -1 3 -2l10 -18l1 -2v-2q0 -2 -1 -4q-2 -2 -4 -2z"
         id="glyph88" />
      <glyph
         glyph-name="uni05C1"
         unicode="ׁ"
         d="M50 135q-3 0 -5 2t-2 6q0 3 2 5t5 2t5 -2t2 -5t-2 -5.5t-5 -2.5z"
         id="glyph89" />
      <glyph
         glyph-name="uni05B0"
         unicode="ְ"
         d="M53 -29q-3 0 -5 2t-2 5t2 4.5t5 1.5t5 -1.5t2 -4.5t-2 -5t-5 -2zM53 -49q-3 0 -5 1.5t-2 4.5t2 5t5 2t5 -2t2 -5t-2 -4.5t-5 -1.5z"
         id="glyph90" />
      <glyph
         glyph-name="uni05B1"
         unicode="ֱ"
         d="M76 -29q-3 0 -5 2t-2 5t2 4.5t5 1.5t5 -1.5t2 -4.5t-2 -5t-5 -2zM30 -29q-3 0 -5 2t-2 5t2 4.5t5 1.5t4.5 -1.5t1.5 -4.5t-1.5 -5t-4.5 -2zM53 -29q-3 0 -5 2t-2 5t2 4.5t5 1.5t5 -1.5t2 -4.5t-2 -5t-5 -2zM41 -48q-3 0 -4.5 2t-1.5 5t1.5 5t4.5 2t5 -2t2 -5t-2 -5t-5 -2 zM76 -49q-3 0 -5 1.5t-2 4.5t2 5t5 2t5 -2t2 -5t-2 -4.5t-5 -1.5z"
         id="glyph91" />
      <glyph
         glyph-name="uni05B2"
         unicode="ֲ"
         d="M77 -29q-3 0 -5 2t-2 5t2 4.5t5 1.5t5 -1.5t2 -4.5t-2 -5t-5 -2zM27 -28q-3 0 -4 1t-1 5q0 3 0.5 4t4.5 1h28q3 0 3.5 -1t0.5 -4t-0.5 -4.5t-3.5 -1.5h-28zM77 -49q-3 0 -5 1.5t-2 4.5t2 5t5 2t5 -2t2 -5t-2 -4.5t-5 -1.5z"
         id="glyph92" />
      <glyph
         glyph-name="uni05B3"
         unicode="ֳ"
         d="M76 -29q-3 0 -5 2t-2 5t2 4.5t5 1.5t5 -1.5t2 -4.5t-2 -5t-5 -2zM30 -28q-3 0 -4 1t-1 5q0 3 0.5 4t4.5 1h26q3 0 3.5 -1t0.5 -4t-0.5 -4.5t-3.5 -1.5h-10l2 -8t1 -7.5v-5.5t-1.5 -3t-4.5 -1t-5 1t-2 3q0 1 0.5 5l1 8t1.5 8h-9zM76 -49q-3 0 -5 1.5t-2 4.5t2 5t5 2t5 -2 t2 -5t-2 -4.5t-5 -1.5z"
         id="glyph93" />
      <glyph
         glyph-name="uni05B4"
         unicode="ִ"
         d="M53 -30q-3 0 -5 2t-2 5t2 5t5 2t5 -1.5t2 -5.5q0 -3 -2 -5t-5 -2z"
         id="glyph94" />
      <glyph
         glyph-name="uni05B5"
         unicode="ֵ"
         d="M64 -29q-3 0 -5 2t-2 5t2 4.5t5 1.5t5 -1.5t2 -4.5t-2 -5t-5 -2zM42 -29q-3 0 -5 2t-2 5t2 4.5t5 1.5t4.5 -1.5t1.5 -4.5t-1.5 -5t-4.5 -2z"
         id="glyph95" />
      <glyph
         glyph-name="uni05B6"
         unicode="ֶ"
         d="M64 -29q-3 0 -5 2t-2 5t2 4.5t5 1.5t5 -1.5t2 -4.5t-2 -5t-5 -2zM42 -29q-3 0 -5 2t-2 5t2 4.5t5 1.5t4.5 -1.5t1.5 -4.5t-1.5 -5t-4.5 -2zM53 -48q-3 0 -5 2t-2 5t2 5t5 2t4.5 -2t1.5 -5t-1.5 -5t-4.5 -2z"
         id="glyph96" />
      <glyph
         glyph-name="uni05B7"
         unicode="ַ"
         d="M39 -28q-3 0 -4 1t-1 5q0 3 0.5 4t4.5 1h28q3 0 3.5 -1t0.5 -4t-0.5 -4.5t-3.5 -1.5h-28z"
         id="glyph97" />
      <glyph
         glyph-name="uni05B8"
         unicode="ָ"
         d="M40 -28q-3 0 -4 1t-1 5q0 3 1 4t4 1h26q3 0 3.5 -1t0.5 -4t-0.5 -4.5t-3.5 -1.5h-9q1 -5 2 -11t1 -8t-2 -3t-5 -1t-5 1t-2 3t1 8t2 11h-9z"
         id="glyph98" />
      <glyph
         glyph-name="uni05B9"
         unicode="ֹ"
         d="M50 135q-3 0 -5 2t-2 6q0 3 2 5t5 2t5 -2t2 -5t-2 -5.5t-5 -2.5z"
         id="glyph99" />
      <glyph
         glyph-name="uni05BA"
         unicode="ֺ"
         d="M50 135q-3 0 -5 2t-2 6q0 3 2 5t5 2t5 -2t2 -5t-2 -5.5t-5 -2.5z"
         id="glyph100" />
      <glyph
         glyph-name="uni05BB"
         unicode="ֻ"
         d="M52 -28q-3 0 -5 1.5t-2 4.5t2 5t5 2t5 -2t2 -5t-2 -4.5t-5 -1.5zM66 -43q-3 0 -5 2t-2 5t2 5t5 2t5 -2t2 -5t-2 -5t-5 -2zM80 -57q-3 0 -5 1.5t-2 4.5t2 5t5 2t4.5 -2t1.5 -5t-1.5 -4.5t-4.5 -1.5z"
         id="glyph101" />
      <glyph
         glyph-name="uni05BC"
         unicode="ּ"
         d="M50 53q-3 0 -5 2t-2 5t2 5t5 2t5 -2t2 -5t-2 -5t-5 -2z"
         id="glyph102" />
      <glyph
         glyph-name="uni05C2"
         unicode="ׂ"
         d="M50 135q-3 0 -5 2t-2 6q0 3 2 5t5 2t5 -2t2 -5t-2 -5.5t-5 -2.5z"
         id="glyph103" />
      <glyph
         glyph-name="uni05C7"
         unicode="ׇ"
         d="M44 -25q-2 0 -2.5 1t-0.5 3t0.5 3t2.5 1h18q2 0 2.5 -1t0.5 -3t-0.5 -3t-2.5 -1h-6q1 -3 1.5 -7t0.5 -6t-1.5 -2h-3.5t-3.5 0.5t-1.5 1.5t1 5.5t1 7.5h-6z"
         id="glyph104" />
      </font>
</defs>
</svg>
