<svg xmlns="http://www.w3.org/2000/svg" xmlns:xlink="http://www.w3.org/1999/xlink" aria-hidden="true" role="img" width="64" height="64" viewBox="0 0 512 512" style="color: rgb(74, 85, 101);"><path fill="currentColor" d="M89 25v462h334V25zm30 30h274v402H119zm18 18v94h49.8c1-10.8 2.3-22 4.4-34c6.4-21 24.8-43.28 45-47.7c3.9-.95 8.4 1.48 12.6 1.4c2.7 0 13.4-2.68 15.3-2.8c30.8.81 55.3 33.7 59.3 60.3c.6 4.5 2 12.7 3.6 22.8h48V73zm112.9 31.3c-9.9 0-19.3 5.7-26.9 16.6c-7.5 10.9-12.6 26.7-12.6 44.3s5.1 33.4 12.6 44.3c7.6 10.9 17 16.6 26.9 16.6s19.3-5.7 26.9-16.6c7.5-10.9 12.6-26.7 12.6-44.3s-5.1-33.4-12.6-44.3c-7.6-10.9-17-16.6-26.9-16.6M137 185v132.8c7.6-16.4 30-32.3 35.4-46c10.6-26.8 11-54.5 13.1-86.8zm193 0c3.5 22.9 7.9 46.9 9.9 69.3c14.7 9.4 27.1 21.6 35.1 35.5V185zm-52.7 49.7c-8 5.9-17.3 9.4-27.4 9.4c-3.6 0-7.1-.5-10.5-1.3c-4.1 6.7-7.8 13.9-10.9 22.1c-5 12.9-17.2 19.1-27.7 26.3c-7.7 7.4-25.4 14.3-18.4 27.4c9.7 12.9 37.8 14.2 50.8 14.1c19.3-2.3 44.6-1.5 59-14.1zm-60.1 124l-5.7 17.8l59.2 32.2l9.9-28.1c-12.6-12.3-36.5-17.9-63.4-21.9m-15.6 44c-4.7 1.3-9.6 2.9-13.7 4.3c-2.9 8.5-.5 18 1.7 29.8c22.3 3 37.9-8.3 54.6-18.5z"></path></svg>