<svg xmlns="http://www.w3.org/2000/svg">
<defs>
<font
       id="gingo"
       horiz-adv-x="126">
      <font-face
         font-family="2505171810-gingo"
         font-weight="400"
         font-stretch="normal"
         units-per-em="200"
         panose-1="2 0 5 3 0 0 0 0 0 0"
         ascent="160"
         descent="-40"
         x-height="110"
         cap-height="160"
         bbox="3.06992 -16.1803 194.532 200.638"
         underline-thickness="10"
         underline-position="-20"
         unicode-range="U+0020-00FC"
         id="font-face1" />
      <missing-glyph
         id="missing-glyph1" />
      <glyph
         glyph-name="exclam"
         unicode="!"
         horiz-adv-x="38"
         d="M20 66v0c8 2 16 -2 16 -10s-4 -14 -12 -14s-14 6 -14 14c0 6 4 10 10 10zM30 56v0c0 4 -4 6 -8 6c-6 0 -8 -6 -4 -10c2 0 4 -2 6 -2c4 0 6 2 6 6zM16 78c0 6 -2 12 -2 18c-4 18 -6 52 -10 70c2 2 4 4 6 4h6c4 0 10 -2 14 -2h2h2l6 -2c-4 -14 -6 -38 -8 -52 c-2 -8 -2 -18 -2 -26v-10v-2c-2 0 -8 -2 -10 -2l-4 2v2zM16 154v0c0 -12 2 -38 4 -50c0 -8 0 -14 2 -20h2v12c0 12 2 24 2 36v24c-2 0 -8 -2 -10 -2zM12 154v0v0z"
         id="glyph1" />
      <glyph
         glyph-name="quotedbl"
         unicode="&quot;"
         horiz-adv-x="38"
         d="M14 124h-2c-4 2 -6 6 -8 10v8c0 6 2 12 2 12c0 2 6 2 8 2s4 -4 4 -6c0 0 -2 -4 -2 -8v-6c2 -2 4 -6 4 -8s-4 -4 -6 -4v0zM34 124h-2c-4 2 -4 6 -6 10c0 2 -2 4 -2 8c0 6 2 10 2 10c0 2 6 4 8 4s4 -4 4 -6c0 0 -2 -4 -2 -8v-6c2 -2 4 -6 4 -8s-4 -4 -6 -4v0z"
         id="glyph2" />
      <glyph
         glyph-name="numbersign"
         unicode="#"
         horiz-adv-x="74"
         d="M76 82v0h-16l-6 -8h12v-10h-16l-8 -12l-8 4l4 8h-12l-8 -12l-8 4l6 8h-12v8l18 2l4 8h-12v8h18l10 14l8 -4l-6 -10h10l8 14l8 -4l-4 -10h10v-8zM48 82h-10l-6 -8h12z"
         id="glyph3" />
      <glyph
         glyph-name="ampersand"
         unicode="&amp;"
         horiz-adv-x="102"
         d="M96 90v0c6 -2 8 -6 6 -12c-2 -2 -2 -8 -2 -10c0 -10 2 -26 -12 -28c-4 0 -8 2 -10 4c-10 8 -18 22 -22 36c-2 0 -4 -2 -6 -2c12 -26 -2 -48 -30 -34c-6 4 -14 10 -14 18c0 16 20 16 32 20c-4 8 -10 20 -18 24h-2c-6 -2 -12 -2 -14 4c-4 14 18 20 20 4v-2 c8 -8 18 -18 24 -28c2 0 4 2 6 2c-2 10 -10 36 4 40c10 4 22 0 30 -8c8 -6 8 -18 0 -24c-6 -6 -16 -10 -24 -12c4 -10 10 -34 22 -34c8 2 8 14 6 20c0 2 -2 4 -4 4c-12 4 -4 22 8 18zM42 62v0c0 4 0 10 -2 14c-6 -2 -22 -6 -22 -12c2 -8 12 -12 20 -10c4 0 4 4 4 8zM62 116 v0v0zM60 114c-2 -6 0 -16 2 -24c8 4 18 6 18 16c-2 8 -10 12 -18 10z"
         id="glyph4" />
      <glyph
         glyph-name="slash"
         unicode="/"
         horiz-adv-x="64"
         d="M10 10h-2c-2 2 -6 6 -4 8l50 126c2 2 6 4 8 2s4 -4 2 -6l-50 -126c0 -2 -2 -4 -4 -4v0z"
         id="glyph5" />
      <glyph
         glyph-name="plus"
         unicode="+"
         horiz-adv-x="32"
         d="M34 86v-12h-10v-8h-12v8h-8v12h8v8h12v-8h10z"
         id="glyph6" />
      <glyph
         glyph-name="parenleft"
         unicode="("
         horiz-adv-x="30"
         d="M30 130c-2 -2 -4 -6 -4 -8c-2 -6 -2 -10 -2 -16c-2 -8 -4 -16 -4 -24c0 -4 2 -8 2 -12c2 -10 2 -18 4 -28c0 -2 0 -8 2 -10h2v-4c0 -2 0 -4 -2 -4s-4 0 -6 2c-6 6 -12 16 -14 24c-2 6 -4 14 -4 22v16c2 12 6 24 12 36c2 2 2 4 4 6s2 4 4 6c4 2 8 -2 6 -6v0z"
         id="glyph7" />
      <glyph
         glyph-name="question"
         unicode="?"
         horiz-adv-x="58"
         d="M48 52c0 -6 -6 -10 -14 -10c-6 0 -12 4 -14 8v4v4c2 2 4 4 8 4h6c4 0 8 0 10 -2c4 -2 4 -4 4 -8v0zM40 52v0l-2 2l-2 4c0 2 -2 0 -4 0s-2 0 -2 -2v-2l-2 -2c0 -2 2 -4 6 -4s6 2 6 4v0zM8 130c2 2 2 2 2 4s2 0 2 2v4s2 2 2 4s0 4 2 4c4 4 10 4 16 4h10c4 -2 12 -2 14 -6 c2 -2 2 -2 2 -4v-8c0 -6 2 -12 -2 -18c-2 -4 -10 -18 -12 -22c0 -2 -2 -2 -2 -4v-6s-2 -2 -2 -4s-2 -2 -4 -2c-2 -2 -6 -2 -8 0s-2 4 -2 6v4v4c2 4 8 22 12 26c2 4 6 6 8 10c2 2 0 6 0 10v2c0 2 0 2 -2 2c-4 2 -8 4 -12 4s-10 0 -12 -2s-2 -2 -2 -4s2 -2 2 -4s2 -4 2 -4 l2 -2c6 -4 6 -8 2 -12s-12 -6 -18 -2s-6 10 0 14v0z"
         id="glyph8" />
      <glyph
         glyph-name="zero"
         unicode="0"
         horiz-adv-x="66"
         d="M42 118c14 0 20 -8 24 -20c6 -24 -8 -58 -36 -58c-12 0 -20 6 -24 16c-4 14 -2 28 4 40s18 22 32 22zM42 114c-20 0 -30 -26 -28 -44c0 -6 2 -12 8 -16c4 -2 10 -4 14 -2c18 4 26 28 24 44c0 4 -2 6 -4 10c-4 4 -8 8 -14 8v0z"
         id="glyph9" />
      <glyph
         glyph-name="one"
         unicode="1"
         horiz-adv-x="54"
         d="M12 98c14 -2 26 8 32 20l6 -4c8 -22 4 -46 2 -68c-4 -12 -18 -4 -12 6c4 14 16 42 4 52v0c-2 0 -2 0 -6 -4c-6 -6 -14 -12 -22 -16c-12 -6 -18 16 -4 14v0z"
         id="glyph10" />
      <glyph
         glyph-name="two"
         unicode="2"
         horiz-adv-x="70"
         d="M62 40c-14 0 -30 2 -44 0c-2 0 -6 0 -8 2c-12 16 6 30 18 36c8 8 22 12 24 24c-2 10 -12 12 -20 10c-6 -2 -24 -8 -14 -16s-8 -20 -12 -8c-14 40 76 40 48 0c-8 -10 -22 -18 -32 -26c-4 -4 -8 -8 -4 -12l-2 2c4 0 6 -2 10 -4c10 -2 24 2 34 6c12 6 16 -14 2 -14v0z"
         id="glyph11" />
      <glyph
         glyph-name="three"
         unicode="3"
         horiz-adv-x="68"
         d="M66 76v0c4 -6 2 -16 -2 -22c-8 -12 -24 -16 -38 -14c-8 0 -16 4 -20 12c-2 4 0 10 4 8l6 -4v0c2 -2 8 -4 12 -4c10 -2 22 2 28 10c2 2 4 6 2 10c-2 8 -34 -2 -42 4c-4 2 -4 8 -2 10c10 8 32 2 42 8c2 2 4 6 2 10c-6 12 -28 10 -38 6c-2 0 -4 0 -4 -2v-2c4 -2 6 -8 4 -12 c-4 -6 -16 -4 -16 4c-2 14 4 20 18 20c12 0 28 0 38 -8c6 -6 8 -14 2 -20c-4 -4 -10 -4 -16 -6c8 0 14 -2 20 -8zM22 78v0v0z"
         id="glyph12" />
      <glyph
         glyph-name="four"
         unicode="4"
         horiz-adv-x="76"
         d="M76 76v0c2 -4 -2 -10 -6 -10h-12c0 -6 0 -12 2 -18c0 -4 -2 -8 -6 -8s-10 2 -10 6c0 6 4 12 4 18c-12 0 -26 -2 -38 4c-8 6 -8 18 -2 24l12 12l6 6c2 6 6 10 12 8c10 -4 6 -18 -4 -16c-4 0 -6 -2 -8 -4c-6 -6 -10 -14 -12 -22c2 -8 26 -4 34 -2c0 6 2 10 2 16 c0 2 0 4 -2 6c-2 4 -4 8 0 10c8 6 16 -2 10 -10c-2 -2 -2 -4 -2 -6v-14c2 0 6 2 8 2c4 2 10 2 12 -2z"
         id="glyph13" />
      <glyph
         glyph-name="five"
         unicode="5"
         horiz-adv-x="68"
         d="M14 108v0c-4 -4 0 -10 2 -16c16 6 44 4 52 -14c6 -18 -8 -38 -28 -38c-12 0 -26 2 -34 12c-2 4 -2 10 2 12s8 -2 10 -4v0v0c4 -6 14 -8 22 -8c14 -2 20 10 18 22c-4 12 -22 16 -34 14c-4 0 -8 -2 -8 -6l-4 -4c-6 10 -14 28 -2 36c14 6 32 6 48 2c6 -2 12 -2 10 -10 c-6 -12 -22 10 -54 2z"
         id="glyph14" />
      <glyph
         glyph-name="six"
         unicode="6"
         horiz-adv-x="70"
         d="M56 104c0 8 -12 8 -18 8h-2c-6 0 -12 -2 -16 -8s-4 -12 -4 -18v-10c0 -8 2 -16 8 -20l12 -6c6 -2 12 -2 18 0c4 2 8 6 10 10c2 6 0 16 -6 20c-4 2 -10 4 -16 2c-4 0 -8 -2 -10 -6c-2 -2 -2 -4 0 -6s2 -6 0 -8c-4 -2 -8 0 -10 4v8c2 8 10 12 16 14c10 2 24 0 30 -10 c6 -6 4 -16 0 -24c-2 -6 -6 -10 -12 -12c-8 -4 -14 -4 -22 -2s-16 6 -22 14c-4 6 -8 16 -8 24c-2 20 8 42 30 42c2 0 6 -2 8 -2c6 0 14 0 20 -6l4 -4s0 -6 -2 -8c-4 -2 -8 0 -8 4v0z"
         id="glyph15" />
      <glyph
         glyph-name="seven"
         unicode="7"
         horiz-adv-x="72"
         d="M74 114v0c0 -6 -6 -12 -10 -16c-10 -14 -20 -32 -18 -50c0 -14 -20 -10 -14 6c0 2 2 6 2 8c4 12 10 24 18 34c2 4 6 8 8 12c-12 0 -26 -2 -36 -8c-2 -2 -6 -4 -6 -6c2 -10 -10 -14 -14 -4c0 2 0 6 2 8c8 12 24 12 36 16c8 2 30 12 32 0zM66 108v0v0z"
         id="glyph16" />
      <glyph
         glyph-name="eight"
         unicode="8"
         horiz-adv-x="72"
         d="M68 86v0c-4 -6 -10 -6 -16 -8c16 -6 24 -26 6 -34c-16 -8 -50 -2 -52 18c0 8 6 12 14 16c-34 14 -4 48 26 40c20 0 10 -24 -2 -14c-4 4 -10 10 -16 8c-6 0 -12 -6 -14 -10c-6 -8 4 -12 12 -14c4 -2 10 -4 16 -4h8s6 2 8 4c0 2 -2 2 -2 2c-6 10 6 18 14 10 c4 -6 2 -10 -2 -14zM56 64c-6 6 -18 8 -26 10c-34 -12 -2 -26 18 -22c6 2 14 6 8 12z"
         id="glyph17" />
      <glyph
         glyph-name="nine"
         unicode="9"
         horiz-adv-x="64"
         d="M46 88c-4 -12 -16 -16 -26 -12c-4 2 -8 6 -10 8c-8 8 -8 20 0 28l4 4c4 4 12 4 18 4c8 0 16 2 24 -2c4 -2 6 -6 8 -10s0 -10 0 -14c-4 -18 -16 -38 -28 -52c-2 -2 -8 -2 -10 0c-4 2 -4 8 -2 10c8 10 18 18 24 28c4 6 6 10 8 16c2 4 0 6 0 10c0 2 -2 4 -4 6 c-8 4 -18 4 -26 2c-2 0 -4 0 -6 -2c-4 -2 -6 -6 -8 -10c-2 -6 0 -10 6 -14c2 -2 4 -2 6 -2c4 0 8 2 8 6s4 8 8 8c6 0 10 -6 8 -12h-2v0z"
         id="glyph18" />
      <glyph
         glyph-name="equal"
         unicode="="
         horiz-adv-x="58"
         d="M4 84v12h56v-12h-56zM4 56v12h56v-12h-56z"
         id="glyph19" />
      <glyph
         glyph-name="at"
         unicode="@"
         horiz-adv-x="130"
         d="M130 96v0c0 -26 -8 -58 -40 -54c-6 0 -8 4 -10 8c-12 -12 -36 -16 -46 0c-8 12 -8 28 0 40c8 14 26 20 42 22c4 10 16 6 24 6c2 0 4 2 4 4c10 -2 8 -16 -2 -14v2l-2 2c0 4 -10 2 -12 0c10 -2 14 -18 4 -22c-8 -2 -16 8 -16 16c-14 -4 -30 -10 -34 -24 c-10 -30 12 -42 36 -24c-2 8 2 24 12 24c2 0 4 -2 6 -4c4 -8 -4 -18 -10 -24c2 -4 2 -6 6 -6c18 0 24 16 26 32c4 18 0 40 -18 50c-18 8 -40 8 -56 -2c-38 -22 -46 -68 -12 -98c16 -10 40 -6 58 -2c4 0 4 4 4 6c12 2 16 -14 4 -18c-2 2 0 2 -2 4s-8 0 -10 0 c-20 -2 -40 -8 -58 2c-20 12 -26 38 -24 60c2 20 18 38 34 50c34 24 92 12 92 -36zM92 100c0 4 -4 6 -6 6c0 -4 2 -6 4 -8l-2 -2c2 0 4 2 4 4zM86 76c-2 -4 -2 -10 -2 -14c4 4 10 8 8 14c0 0 0 2 -2 2s-4 0 -4 -2z"
         id="glyph20" />
      <glyph
         glyph-name="A"
         unicode="A"
         d="M126 82v0c4 -14 -6 -32 -20 -40c-6 -2 -12 -2 -18 -2c4 22 8 46 10 68c-4 4 -10 8 -16 10c-8 -18 -26 -72 -50 -78c-26 -6 -36 16 -20 32c4 4 10 8 16 8c2 0 2 2 4 4c12 -2 10 -16 -2 -14c0 2 0 6 -2 6c-6 0 -12 -2 -14 -6s-4 -10 -4 -14c28 -34 52 52 60 66 c-16 4 -36 8 -48 -4c0 -2 2 -4 4 -4c-2 -8 -20 -6 -18 2c20 14 40 20 66 12c4 10 8 18 12 26v0c6 8 26 6 26 -4v-4l-6 -36c12 -8 18 -16 20 -28zM102 152v0v0zM96 118v0l2 -2c2 12 2 24 4 36c-2 0 -6 0 -6 -2c-4 -8 -8 -18 -12 -28c4 -2 8 -2 12 -4zM102 48v0v0zM116 72 c2 12 -2 22 -12 30c-2 -18 -4 -36 -4 -54c2 0 2 2 2 2c6 6 14 12 14 22z"
         id="glyph21" />
      <glyph
         glyph-name="B"
         unicode="B"
         horiz-adv-x="124"
         d="M120 90c16 -20 -6 -48 -34 -48c-14 0 -30 2 -40 12c-8 -20 -36 -16 -42 2c-4 24 24 16 38 8c4 8 4 16 6 26c-26 0 -22 22 2 20v28c-6 -4 -16 -8 -12 -14c0 -2 2 0 4 0c4 -6 -4 -12 -10 -6c0 2 2 2 2 4c-6 10 8 16 16 22c0 2 -2 2 -2 4v0v2c-6 6 -24 6 -24 -4 c0 0 -2 -4 0 -4h4c2 -8 -12 -10 -14 -2l2 2c2 2 2 2 2 4c4 16 32 20 40 6v-2c44 24 90 -22 44 -50c6 -2 12 -4 18 -10zM58 116v-6c12 0 22 -4 32 -8c12 4 20 16 20 26c0 22 -34 26 -52 16v-28zM58 104c0 -2 -2 -6 -2 -8c8 0 16 0 22 2c-6 2 -12 4 -20 6zM42 96 c2 0 4 -2 6 -2c0 4 2 6 2 10c-4 0 -12 2 -14 -2s2 -6 6 -6zM30 48c6 0 8 6 10 10c-6 4 -20 12 -28 8c-4 -4 0 -10 2 -14c4 -4 10 -4 16 -4zM114 64v0c10 20 -8 26 -24 32c-10 -4 -24 -6 -34 -6c-2 -10 -4 -20 -8 -30l4 -2c2 -2 2 -4 4 -4c2 -2 6 -4 8 -4c18 -4 42 -2 50 14z "
         id="glyph22" />
      <glyph
         glyph-name="C"
         unicode="C"
         d="M40 90v0h-2c-4 -16 -2 -32 18 -40c0 26 42 52 66 26c8 -14 -4 -26 -20 -32c-12 -4 -24 -6 -38 -4c2 -4 0 -4 6 -4c2 -10 -14 -14 -18 -4h2c2 0 2 2 2 4v6c-26 8 -32 30 -26 50c-38 8 -34 62 8 66c6 2 10 2 14 4c2 0 4 0 4 2s2 2 2 4c14 0 14 -16 0 -16v0l-2 2 c0 2 0 2 -2 2c-8 2 -16 -4 -24 -6c-26 -10 -24 -44 2 -50c6 14 16 26 28 38c14 10 40 28 60 20c6 -4 8 -12 6 -18c-10 -28 -48 -50 -86 -50zM78 74c-10 -6 -16 -16 -16 -26c20 -2 56 4 50 24c-6 10 -24 8 -34 2zM42 102l-2 -2c32 0 76 24 74 50c-2 2 -8 0 -12 0 c-30 -8 -48 -26 -60 -48z"
         id="glyph23" />
      <glyph
         glyph-name="D"
         unicode="D"
         d="M114 138v0c34 -48 -12 -132 -70 -86c-14 -40 -58 22 -32 22c10 0 20 -6 28 -12c10 28 16 58 24 86c-12 0 -32 0 -40 -10c-6 -8 -8 -20 -6 -30c0 -10 18 -12 22 -4c2 4 -2 12 -6 6c-6 6 0 18 8 12v-6c14 -20 -20 -30 -28 -12c-10 38 16 58 52 54c2 6 6 14 14 14 c4 0 6 2 10 4v0c8 -4 4 -16 -6 -12c0 12 -14 0 -14 -6c16 -2 34 -6 44 -20zM10 66v0v0v0zM34 50c2 2 0 6 2 8c-8 4 -16 10 -26 8c2 -6 18 -26 24 -16zM114 88c8 34 -12 58 -46 60c-6 -30 -10 -62 -22 -90c30 -22 60 -4 68 30z"
         id="glyph24" />
      <glyph
         glyph-name="E"
         unicode="E"
         horiz-adv-x="106"
         d="M106 76c8 -64 -152 -40 -86 34c0 4 2 12 4 16c-20 4 -20 22 -6 32c4 2 2 6 2 10c12 4 22 -10 10 -16c-2 2 -6 6 -10 4c-12 -6 -2 -20 8 -24c30 64 134 -4 8 -8c-2 -2 -4 -6 -6 -8c8 2 26 2 26 -8c-2 -12 -26 -18 -34 -6c-12 -16 -10 -38 10 -50c22 -14 82 -10 56 34 c-8 14 -36 -6 -28 -22c2 -6 8 -4 12 0c2 2 2 4 2 6c0 0 -2 2 0 2c6 -2 10 -8 12 -12c0 -2 0 -2 -2 -2h-2h-6c-10 -2 -14 -4 -22 4c-24 30 48 52 52 14zM46 112c-6 2 -12 -2 -16 -4c2 -12 26 0 16 4zM44 138c-2 -2 -4 -6 -6 -8c16 -2 46 0 48 12c2 14 -36 6 -42 -4z"
         id="glyph25" />
      <glyph
         glyph-name="F"
         unicode="F"
         horiz-adv-x="118"
         d="M80 132v0c-10 2 -18 4 -28 8c4 -8 8 -20 12 -32h22h8c4 0 6 2 8 4c0 2 0 4 -2 6c6 8 18 0 14 -8h-4s-2 2 -2 0c-10 -16 -22 -16 -40 -14c4 -20 4 -40 -16 -50c-12 -6 -28 -10 -40 -2c-4 2 -6 8 -6 12c0 24 20 44 46 50c-4 12 -12 28 -16 40c-8 2 -20 6 -26 -2 c-2 -4 -2 -14 4 -16c4 0 8 -2 12 0c2 2 4 4 0 8v0c6 8 20 2 14 -6c-6 2 -8 -4 -14 -6c-4 -2 -8 -2 -12 -2c-12 2 -10 16 -8 24c6 10 20 10 30 8c8 10 56 4 70 4v0c22 0 16 -32 -26 -26zM60 72c0 8 -2 16 -4 24c-24 -2 -46 -18 -46 -40c0 -4 4 -6 6 -8c18 -8 46 6 44 24z M102 150v0h-44c16 -4 32 -16 48 -8c4 2 6 8 0 8v0h-4z"
         id="glyph26" />
      <glyph
         glyph-name="G"
         unicode="G"
         horiz-adv-x="124"
         d="M124 104v0c2 -16 0 -36 -18 -38c-4 -18 0 -42 -12 -56l-2 -2l-2 -2h-2v0c-14 -8 -32 -6 -48 -4h-2c-16 4 -28 24 -28 40c0 4 -2 4 -4 6c4 12 18 8 16 -4c-2 0 -4 0 -4 -2c0 -8 2 -16 8 -22l2 -2c4 -4 10 -4 14 -4c14 0 28 -6 40 0h2c2 0 2 4 2 4c10 10 10 34 12 48 c-22 -2 -50 2 -60 26c-32 4 -42 42 -30 72c0 2 0 4 -2 6c4 10 18 2 14 -8c-2 0 0 2 -2 2c0 0 -2 0 -2 -2c-10 -22 -6 -56 20 -58c0 8 2 14 4 22c8 44 52 46 48 12c-4 -18 -18 -40 -36 -46c12 -14 32 -14 48 -14c2 10 4 32 12 40c8 6 12 -8 12 -14zM48 106v-2 c10 2 18 16 24 26c4 8 10 22 -4 20c-16 -4 -18 -30 -20 -44zM114 86v0c2 6 0 14 0 20c-4 -8 -6 -18 -6 -28c4 2 6 4 6 8zM116 110v0v0z"
         id="glyph27" />
      <glyph
         glyph-name="H"
         unicode="H"
         horiz-adv-x="124"
         d="M68 52v0c0 -2 0 -2 2 -2c8 -2 18 2 24 6s14 10 14 16c0 2 -4 4 -6 4c0 10 16 8 16 -2v0v0c-2 0 -4 0 -4 -2c-2 -14 -18 -26 -34 -30c-10 -4 -24 0 -24 10c0 12 6 26 8 38c-2 -2 -6 -2 -8 -4c-2 -14 -4 -32 -18 -42c-10 -8 -40 -8 -34 10c8 16 28 24 44 34c2 20 2 40 6 60 c-8 4 -30 2 -36 -4c-6 -8 -6 -24 10 -18c4 2 6 2 4 6c8 6 18 -4 10 -10l-2 2c-4 2 -6 0 -10 -2c-8 -4 -18 -4 -22 4c-10 26 16 38 42 34c6 0 10 -4 12 -8c0 -2 2 -2 2 -4c-6 -18 -6 -36 -6 -54c4 2 4 4 8 6c2 12 6 24 10 36v0v0c4 10 20 18 32 22c24 4 20 -26 8 -36 s-24 -16 -42 -26c-4 -14 -4 -26 -6 -40v-4zM54 150v0v0zM84 128c-4 -8 -6 -14 -8 -22c16 10 42 22 36 42c-8 0 -20 -6 -24 -14c-2 -2 -4 -4 -4 -6zM42 68c2 4 4 8 4 12c-14 -8 -28 -20 -32 -28v0v-2v0c6 -2 16 0 20 4s6 10 8 14z"
         id="glyph28" />
      <glyph
         glyph-name="I"
         unicode="I"
         horiz-adv-x="94"
         d="M92 148c2 -8 2 -16 2 -24c0 -10 0 -6 -2 -16c-4 -22 -12 -50 -32 -62c-6 -4 -12 -6 -18 -6c-14 0 -38 2 -38 20c0 6 2 12 8 16c4 2 10 4 14 4c6 0 10 -4 12 -8s2 -8 0 -12l-2 -2s-2 -2 -2 -4v-2c-10 -4 -18 10 -8 14c0 -2 0 -2 2 -2h2v0c2 2 2 6 -2 8h-6 c-4 -2 -8 -4 -10 -8v-4c0 -10 18 -10 26 -10c4 0 8 0 12 2c32 12 36 56 32 86v4c-4 -2 -8 0 -12 0s-6 2 -10 4c-2 0 -2 2 -2 2c-8 2 -22 2 -28 -4v0l-2 -2c-2 -2 -2 -6 -2 -8c0 -4 0 -10 4 -12h4c4 0 8 0 12 2c2 2 4 2 4 4v0c0 2 2 4 2 6c-2 2 -6 2 -8 2s-4 -2 -4 -2v-2v-2 l2 -2v0c-4 -2 -10 -4 -12 0s-4 10 0 12l2 -2h4h2c2 2 4 2 8 2c6 0 12 -2 12 -8v-6c0 -4 -4 -6 -6 -8c-6 -4 -12 -6 -20 -6c-14 2 -18 18 -14 30c0 2 2 6 4 8c6 8 16 10 26 10c4 0 8 -2 12 -2h2c4 -2 12 -6 16 -4c2 0 4 4 4 6c2 0 2 -2 4 -2s4 0 4 -2c2 -2 2 -6 2 -8z"
         id="glyph29" />
      <glyph
         glyph-name="J"
         unicode="J"
         horiz-adv-x="98"
         d="M90 52v0c10 2 12 -14 0 -16v0v0c-2 2 -4 4 -6 4c-4 0 -10 -2 -14 -2c-6 -16 -24 -48 -44 -42c-50 22 -2 40 34 46c12 32 20 68 18 104c-10 -2 -18 -4 -28 0c-12 6 -32 8 -32 -10c-2 -12 6 -16 16 -16c10 -2 18 14 4 12c-4 0 -4 -2 -8 -4c-8 -2 -12 10 -4 14 c6 2 10 -2 10 -2c24 4 20 -26 -2 -28c-20 -2 -30 16 -22 34c6 14 22 16 34 12c4 -2 10 -4 14 -4c8 0 14 2 22 4l6 2c8 -28 -6 -88 -16 -116c6 2 16 0 18 8v0zM32 4v0c12 2 20 20 26 32c-14 -4 -52 -16 -44 -24c0 0 10 -6 14 -6c2 0 4 -2 4 -2zM14 12v0v0z"
         id="glyph30" />
      <glyph
         glyph-name="K"
         unicode="K"
         horiz-adv-x="146"
         d="M134 136v0c2 2 4 2 2 4c-2 8 -10 12 -18 10c-2 -2 -2 -2 -2 -4c-4 -14 -6 -30 -10 -44c12 -18 0 -20 0 -38c2 -24 18 -16 24 -2c2 2 0 6 -2 8c4 10 20 4 16 -6c-6 0 -8 -2 -10 -8c-10 -24 -34 -26 -36 4c0 14 6 16 2 30c-2 -6 -8 -10 -14 -12c-2 -14 -12 -22 -24 -32 c-50 -38 -86 38 -32 36c10 -2 14 -18 8 -24l-8 -8c-6 -2 -10 6 -4 10c6 -2 14 14 4 14c-8 2 -18 -2 -16 -12c10 -30 62 -8 62 18c-22 2 -18 34 2 32c0 12 -2 22 -2 34c-20 -6 -40 20 -52 -8c-6 -16 10 -20 22 -16c8 2 6 12 0 16c-4 2 -6 -4 -4 -8c-8 -6 -18 6 -10 12 c6 -2 6 -2 12 0c8 0 12 -14 8 -20c-12 -14 -42 -8 -36 14c14 40 38 14 58 20c4 6 14 2 14 -4c2 -14 2 -26 2 -40c2 0 6 -2 8 -2c4 14 2 54 24 48c10 -2 14 -10 18 -18c0 -2 6 -2 6 0c6 -18 -20 -12 -12 -4zM74 100v0v0zM74 88v0s0 -2 2 -2c0 4 2 10 2 14c-6 0 -6 -8 -4 -12z M88 86c4 2 4 8 6 12c-2 0 -2 2 -4 2c0 -4 -2 -10 -2 -14z"
         id="glyph31" />
      <glyph
         glyph-name="L"
         unicode="L"
         d="M126 146v0c4 -24 -42 -58 -66 -58c-2 -12 -2 -18 -6 -30c10 -6 20 -12 30 -12c2 6 6 12 8 18c4 6 16 10 22 2c2 -4 2 -10 0 -14c-4 -8 -14 -12 -24 -12c-2 -4 -4 -8 0 -12v0s2 -2 4 -2c-6 -14 -26 -8 -22 6h6c4 2 4 6 6 8c-10 0 -22 8 -32 12c-8 -22 -46 -10 -48 10 c-2 16 14 20 26 12c6 -4 10 -8 16 -12c2 10 4 16 6 26c-16 2 -30 14 -36 28c-8 18 0 42 14 56l8 8c14 0 16 -18 2 -20c0 2 -2 4 -4 4c-12 -4 -18 -18 -18 -30c-2 -18 14 -38 34 -40c4 30 24 68 60 66c8 -2 12 -8 14 -14zM98 60v0v0zM94 52v0c0 -2 -2 -4 -2 -6 c8 2 16 4 16 12c0 2 0 6 -4 6c-6 0 -8 -8 -10 -12zM32 48c6 -2 10 2 12 8c-8 4 -20 14 -30 12c-8 -8 10 -20 18 -20zM114 136v0c2 4 2 12 -2 14s-8 0 -12 -2c-24 -8 -34 -30 -38 -52c22 6 40 24 52 40z"
         id="glyph32" />
      <glyph
         glyph-name="M"
         unicode="M"
         horiz-adv-x="146"
         d="M146 64v0c4 -12 -10 -22 -20 -24c2 -2 2 0 4 -2c0 -2 4 2 4 2c6 -8 -4 -18 -10 -10c4 6 4 0 -2 10c-42 -2 -12 88 -6 110c-26 -4 -24 -54 -30 -74l-12 -36c-32 4 -4 94 2 114c-34 -16 -8 -100 -46 -114c-12 -4 -28 4 -26 18c0 14 28 36 30 14c0 -6 -2 -8 4 -12 c-4 -10 -20 -4 -16 6c8 -2 8 4 4 4c-8 0 -18 -16 -8 -20c44 -10 14 112 66 110c-8 -32 -16 -66 -14 -98c18 32 6 106 60 98c-8 -18 -44 -112 -12 -116c-22 32 20 48 28 20zM74 52v0v0zM142 58c8 14 -32 20 -18 -14c8 2 14 8 18 14z"
         id="glyph33" />
      <glyph
         glyph-name="N"
         unicode="N"
         horiz-adv-x="140"
         d="M140 140v0c2 -8 0 -14 -6 -20l-2 -2c-6 -4 -12 -4 -16 0l-2 4h-2l-2 2v0h-2c-2 0 -2 -2 -2 -2l-2 -2c-10 8 2 22 12 14v-2v-2h-2l2 -4h2c2 -2 4 -6 8 -6c2 0 2 2 4 4c8 8 8 20 0 26c-2 2 -6 4 -10 4c-6 0 -12 -4 -16 -8c-8 -8 -8 -6 -8 -16v-32c2 -20 2 -38 -4 -58h-4 c-4 0 -10 2 -12 6c-8 10 -10 28 -10 40c0 24 0 36 2 60v0c-10 -8 -10 -20 -10 -32c0 -18 0 -36 -4 -54c-2 -8 -6 -18 -16 -20h-8s-4 2 -6 2c-8 2 -16 8 -18 16s0 16 2 22l4 4c6 4 18 6 24 0c4 -4 6 -8 6 -12s-2 -10 -6 -12h-6h-4l-4 -2v0v0v0h-2c-4 2 -4 6 -2 10s6 6 10 4 v-2v-2v-2h4c2 0 2 4 2 6s-4 2 -6 4v2v0c-4 2 -10 0 -12 -2v0l-2 -2c-2 -4 -4 -8 -4 -12c0 -6 8 -12 14 -14c4 -2 8 -2 12 -2c8 2 12 16 12 24c2 18 0 34 0 52c0 12 0 16 8 28c2 4 8 8 14 10h4h6c-2 -24 -2 -34 -2 -58c0 -12 0 -38 6 -48c4 14 6 30 6 44s-2 14 0 28 c0 10 0 20 8 26c6 6 16 6 24 6c2 0 2 -2 4 -2c8 -2 12 -8 14 -16z"
         id="glyph34" />
      <glyph
         glyph-name="O"
         unicode="O"
         d="M126 132v0c4 -32 -8 -68 -40 -84c-98 -44 -116 94 -12 118c2 0 2 0 2 2v4c10 2 14 -12 4 -14v0c0 2 -2 4 -2 4c-2 2 -6 -2 -8 -2c-22 -6 -38 -22 -48 -40c-12 -22 -10 -66 22 -70c14 -2 30 2 42 10c8 4 12 12 18 18c12 18 18 46 8 66c-16 22 -68 -20 -72 -38 c-2 -8 -2 -20 8 -24c12 -2 24 6 30 16v0c2 2 0 6 -2 8c8 10 22 0 14 -10c-2 2 -4 2 -6 0l-2 -2c-10 -18 -42 -30 -50 -4c-16 40 86 104 94 42z"
         id="glyph35" />
      <glyph
         glyph-name="P"
         unicode="P"
         horiz-adv-x="124"
         d="M118 146v0c18 -20 6 -64 -30 -52c-4 0 -6 0 -10 -2c-2 2 -4 4 -4 6c-6 -26 -16 -50 -42 -56c-10 -2 -22 -2 -26 8c-12 34 22 42 30 20c0 -2 4 -2 6 -4c-2 -10 -18 -8 -16 2c16 0 -10 22 -16 2c0 -6 0 -14 4 -20c4 -4 10 -2 16 0c36 14 36 68 34 98c-18 0 -50 4 -46 -18 c0 -16 24 -20 30 -6c2 6 -2 8 -8 6c-8 12 12 20 20 10c-2 -2 -4 -4 -4 -8c6 -16 -20 -28 -34 -20c-12 6 -14 22 -10 32c8 18 36 16 56 16c18 0 38 -2 50 -14zM106 98v0c20 6 12 40 -6 46c-8 4 -18 4 -26 4c2 -12 2 -30 0 -46c2 6 12 10 18 6c-2 -2 -4 -6 -2 -8 c4 -2 10 -4 16 -2z"
         id="glyph36" />
      <glyph
         glyph-name="Q"
         unicode="Q"
         d="M128 38v0c2 -4 -2 -8 -8 -10v0v0c-2 2 -4 4 -6 4h-2c-14 -2 -16 0 -28 6c-18 -8 -34 -8 -46 -6c-6 -2 -12 -4 -18 -4s-10 2 -12 6s-4 12 -2 16c0 2 2 2 4 4c-16 32 2 86 64 100c2 0 2 0 2 2v4c10 2 14 -12 4 -14v0c0 2 -2 2 -2 2c-2 2 -6 0 -8 0c-22 -6 -38 -22 -48 -40 c-8 -14 -10 -34 -4 -48c4 2 8 4 12 4c6 2 12 2 18 2v0c-6 2 -12 4 -16 14c-16 40 86 100 94 40c4 -22 -18 -68 -34 -78v0c8 -6 10 -6 20 -4v0l2 2v2s2 2 2 4c6 2 10 -4 12 -8zM76 96v0c8 8 22 -2 14 -12c-2 2 -4 2 -6 0h-2c-6 -10 -18 -18 -30 -18c8 0 16 -4 22 -8 c4 -2 6 -6 8 -8h2h2c8 4 12 12 18 18c12 18 18 44 8 64c-16 20 -68 -20 -72 -38c-2 -8 -2 -20 8 -24c12 -2 24 8 30 18v0c2 2 0 6 -2 8zM18 38v0c2 -2 4 -2 8 -2c-4 2 -8 6 -10 8c0 -2 2 -2 2 -4v-2zM50 40v0c8 0 16 0 24 4v2c-10 6 -18 10 -30 8c-4 0 -8 -2 -12 -2 c-2 0 -6 -2 -8 -2c4 -4 12 -6 18 -8l6 6s6 0 4 -2c0 -2 0 -4 -2 -6z"
         id="glyph37" />
      <glyph
         glyph-name="R"
         unicode="R"
         d="M108 66v0c4 10 20 8 18 -4h-2v0h-2v0h-2v-2c0 -2 -4 -2 -4 -4c-4 -4 -8 -10 -14 -12c-10 -4 -24 -4 -32 4c-4 6 -6 14 -6 20c0 10 2 20 2 30h-14c0 -4 -2 -10 -2 -14c-2 -12 -6 -32 -18 -40c-4 -2 -10 -4 -16 -2c-12 4 -14 18 -10 26c0 2 2 2 2 4c4 4 8 6 14 4h2h2v0v0 l2 2v0v0h2c10 -4 2 -16 -8 -12v0v2v0v0v2l-2 2h-2s-4 0 -6 -2v-4c-2 -4 -2 -8 0 -10c2 -4 8 -6 12 -4c6 2 10 14 12 20c4 10 6 18 8 28c-4 0 -8 0 -10 2c-4 2 -10 6 -10 10c-2 8 4 18 14 20h10h2c2 4 2 10 4 14c0 2 2 6 4 8s2 4 6 4c8 0 16 2 24 2c14 0 28 -2 34 -14 c4 -10 2 -22 -4 -30c-10 -12 -26 -16 -42 -18c0 -4 -2 -10 -2 -14c0 -6 -2 -10 -2 -16c0 -4 2 -6 2 -10c0 -2 0 -4 2 -6s4 -4 8 -4c8 0 16 2 22 6c2 2 4 4 6 8v2l-2 2h-2zM60 148v0c-2 -6 -4 -10 -4 -16c6 -2 12 -6 16 -12c2 -4 2 -8 2 -12c14 2 26 6 34 14c2 4 6 8 6 12 s0 8 -2 12c-4 6 -12 8 -20 8h-16h-12l-2 -2c-2 -2 -2 -2 -2 -4zM36 114v0v0zM36 114c2 -2 6 -4 10 -4c0 4 2 8 2 12h-2s-6 0 -8 -2s-2 -4 -2 -6v0zM56 122v0c0 -4 -2 -10 -2 -14h10v6c-2 4 -4 6 -8 8z"
         id="glyph38" />
      <glyph
         glyph-name="S"
         unicode="S"
         horiz-adv-x="118"
         d="M74 128l2 2v0v0v0l-2 2c-2 2 -4 2 -8 2c-2 0 -4 0 -6 -2s-2 -4 0 -6c4 -4 8 -6 14 -8c4 -2 12 -2 16 -2h4c4 0 12 0 14 4c4 6 0 14 -2 18s-6 4 -10 6c-18 8 -42 10 -60 2c-8 -4 -16 -10 -20 -18v-2v-6c2 -8 12 -10 20 -12s16 -4 26 -4s20 -4 30 -6c6 -2 14 -4 20 -8 c6 -6 8 -12 6 -20c0 -2 0 -6 -2 -8c-4 -6 -12 -14 -20 -16c-18 -6 -40 -6 -58 -2c-10 2 -20 8 -26 14c-2 2 -4 6 -4 8c-2 4 0 8 2 12c4 6 14 12 22 12v0c8 0 18 0 26 -2c6 -2 10 -4 14 -10l2 -2v-2c0 -8 -6 -12 -14 -12h-14h-2v0h-2v0v0v0v-2h-2v0v0v-2v0h-2 c-14 4 -6 22 8 18v0v-2h-2v-2v0v0v-2h2v-2h2c6 -2 10 -2 16 0c2 0 4 2 4 4v2s-2 4 -2 4c-4 4 -12 6 -18 6h-16c-6 0 -12 -2 -16 -8c-2 -2 -2 -6 -2 -8v0v-2v0c0 -2 2 -4 4 -6c14 -10 42 -10 58 -8c8 2 18 4 24 8c4 2 4 4 6 8c0 2 2 6 2 8c0 6 -6 8 -12 10c-12 4 -22 6 -34 6 c-4 0 -6 2 -10 2c-16 2 -46 8 -48 26v8l2 2v2c4 8 10 16 18 20s18 6 28 8c14 2 26 -2 40 -6c6 -2 12 -4 16 -8c2 -2 2 -4 4 -6c2 -6 6 -12 4 -18c-2 -8 -10 -12 -18 -12c-2 0 -2 -2 -4 -2s-2 2 -4 2c-12 0 -30 2 -36 12c-2 4 -4 10 0 14s8 4 12 4s6 2 10 0l2 -2v0l2 2h2h2v2 c10 -6 0 -20 -10 -14v0z"
         id="glyph39" />
      <glyph
         glyph-name="T"
         unicode="T"
         d="M126 160v-2v-6c0 -8 -8 -10 -14 -12c-12 -4 -24 -4 -36 -2c-14 -24 -8 -82 -36 -96c-2 -2 -4 -2 -8 -2c-14 -2 -22 4 -26 16c-6 16 2 40 24 40c12 0 16 -10 16 -20c0 -4 -2 -8 -4 -10c-4 -4 -10 -4 -16 -2h-2h-2h-2v0l-4 -2v0c-2 2 -4 4 -4 6c0 -6 2 -12 6 -16 c4 -2 8 -2 12 -2c12 2 18 14 20 24c6 22 4 44 12 64c-14 2 -26 8 -38 16v0c-4 -2 -10 -10 -10 -14c0 -6 2 -10 4 -16s6 -8 12 -8c4 0 8 2 10 4c0 0 2 2 2 4c2 4 -4 12 -10 8l-2 -2v0v-2l2 -2v0v0c-6 -8 -20 -2 -14 8l2 -2v0v0l4 2h2c2 2 6 4 10 4c6 -2 14 -8 14 -14 c0 -10 -8 -18 -18 -18c-16 -2 -24 8 -26 22c-2 12 2 26 14 32c2 0 6 0 8 -2c12 -8 26 -8 40 -10c6 10 16 12 28 12h30zM24 154v0v0v0v0zM24 154v0v0zM26 88c-8 -2 -14 -8 -14 -16c2 6 10 10 18 4c-2 -2 -4 -4 -2 -6h2h4c4 0 4 4 4 6c0 8 -2 14 -12 12zM86 148h12 c-4 0 -8 2 -12 0z"
         id="glyph40" />
      <glyph
         glyph-name="U"
         unicode="U"
         horiz-adv-x="128"
         d="M114 52v0c8 8 22 -4 14 -12c-2 0 -2 2 -4 2c-4 2 -8 -2 -12 -2c-8 0 -8 8 -10 14c-16 -16 -76 -22 -74 12c2 20 12 38 18 56c2 8 8 24 -2 28c-18 6 -42 -10 -26 -28c6 -6 18 2 20 10c2 6 -6 12 -10 8c-2 -2 2 -6 4 -6c-2 -10 -18 -6 -16 4c2 0 6 0 8 2c6 4 16 2 18 -4 c6 -14 -14 -28 -26 -22c-2 0 -2 2 -4 4c-18 20 0 42 24 42c46 0 12 -56 6 -80c-2 -6 -4 -16 -2 -22c4 -8 16 -8 24 -8c16 0 30 6 38 16c0 10 2 20 2 30c2 18 -2 46 8 62c8 6 12 -4 12 -10c2 -30 4 -64 -16 -88c0 -6 0 -12 4 -16c2 -2 4 0 4 2s2 4 0 6h-2zM116 154v0v0z M108 74v0v0c6 10 6 20 8 32c2 14 2 28 2 42v6h-2v0v-2c-2 -2 -4 -6 -4 -8v-12c0 -6 -2 -14 -2 -20c0 -12 0 -26 -2 -38z"
         id="glyph41" />
      <glyph
         glyph-name="V"
         unicode="V"
         horiz-adv-x="154"
         d="M136 154v0c4 10 22 6 18 -4c-4 0 -4 -2 -6 -2v0h-2c-6 -10 -14 -30 -30 -32c-10 -24 -22 -46 -42 -66c-4 -4 -8 -8 -14 -10c-18 -4 -34 14 -26 28c6 18 36 62 22 78c-4 4 -8 4 -14 4c-8 0 -16 0 -22 -6c-4 -4 -8 -10 -10 -16c0 -4 2 -6 2 -10c2 -4 4 -12 8 -14l2 -2v0v0 c10 2 14 12 14 20c0 2 0 4 -2 6s-2 2 -4 2s-2 -2 -4 -2c-2 -2 -2 -4 -2 -6v-2h4s2 2 4 2c8 -8 -6 -18 -14 -10v0l2 4v4c0 4 -2 8 2 12c2 2 4 4 8 4c8 0 14 -4 16 -10c4 -12 -8 -30 -24 -30c-8 0 -12 6 -14 12c-4 6 -6 14 -4 20c0 4 4 8 6 12l2 2v2h2l2 2l2 2h2l2 2 c6 4 12 4 20 4c20 0 26 -12 24 -26c-2 -20 -10 -42 -16 -62l-2 -2v-4c2 -2 6 -4 10 -4c8 0 14 4 18 8c14 16 22 36 30 54c-10 6 -10 22 -6 30c2 6 10 10 18 8c4 0 6 -4 8 -6s2 -6 0 -8c-2 -6 -6 -12 -8 -18c12 4 18 16 22 26c0 2 -2 2 -4 4zM108 142v0c-2 -4 0 -12 2 -16v-2 c2 6 6 14 8 20v2v0v0l-2 2h-2c-2 0 -4 -2 -6 -4v-2z"
         id="glyph42" />
      <glyph
         glyph-name="W"
         unicode="W"
         horiz-adv-x="192"
         d="M188 154v0c4 -2 8 -6 6 -10h-2h-2h-2v0v0h-2v-2h-2c-4 -6 -10 -18 -16 -24v-4c-8 -24 -34 -72 -66 -74c-6 0 -10 4 -14 6s-6 4 -8 8c-8 -8 -18 -14 -30 -12c-14 4 -22 16 -22 28c0 8 4 14 8 20c6 10 12 22 16 32c4 8 8 22 0 28c-2 2 -6 4 -10 4c-8 0 -16 -2 -22 -6 c-8 -6 -12 -16 -10 -24c0 -4 2 -10 8 -12h6c4 0 8 0 10 2c4 4 6 10 6 14s-2 8 -6 8h-2c-4 -2 -4 -4 -4 -8v-2l2 -2v0h2v0v0h2c0 -12 -20 -14 -20 -2l2 2h2v0v0v0l2 2v0v2c0 6 4 10 10 12c4 2 8 2 12 -2c2 -2 4 -6 4 -10c0 -6 -2 -14 -8 -18c-4 -4 -12 -6 -18 -4 c-4 0 -8 4 -10 6c-4 6 -6 12 -6 18c0 8 4 16 12 22s18 8 28 8s18 -6 22 -14c6 -20 -16 -50 -22 -70c-2 -6 -2 -10 2 -16c2 -4 6 -8 12 -8s10 2 14 6l4 4c-6 20 -4 50 -2 64c0 2 2 0 2 2c2 6 4 12 12 14c12 4 26 -4 26 -16c0 -6 -4 -10 -6 -16v-2l-12 -30c-2 -4 -4 -6 -6 -10 c2 -6 4 -14 10 -14s12 2 18 6c14 12 28 32 36 50h-2c-4 0 -10 -2 -14 0c-10 4 -12 16 -10 24c0 4 2 6 4 10c4 6 10 14 18 16c4 0 10 -2 14 -4h2c2 -2 2 -2 2 -4c4 -6 4 -14 2 -22c2 2 4 6 6 8s2 6 4 8v2v0h-2v2h-2c2 4 8 6 12 4zM90 126v0c-2 -16 -4 -30 -2 -46v0 c4 6 8 14 10 22c2 4 2 8 4 10c2 4 0 8 0 12c0 2 -2 4 -4 6h-4s-4 -2 -4 -4zM152 114v0c2 0 2 2 4 2c2 4 4 8 4 12c2 6 6 18 0 22c-2 2 -6 4 -10 2c-8 -2 -14 -12 -16 -18v-2c0 -4 -2 -6 0 -10c2 -6 8 -8 16 -8h2z"
         id="glyph43" />
      <glyph
         glyph-name="X"
         unicode="X"
         d="M104 114v0c-6 -4 -12 -8 -18 -10c0 -16 -6 -30 -16 -42c2 -2 4 -6 8 -8c2 0 4 -2 6 -2c2 10 10 26 20 28c6 2 10 -2 14 -6c6 -6 6 -14 2 -20c-6 -10 -18 -14 -30 -14v-2l2 -2v0v0h6c6 -10 -10 -20 -16 -10v2l2 2v2v2v0v0v2v4c-4 0 -8 4 -12 6s-8 4 -12 8 c-2 -2 -4 -4 -8 -6c-8 -4 -20 -8 -28 -8c-4 0 -8 2 -12 4c-8 6 -10 14 -4 22c0 2 2 2 2 4c8 10 20 18 30 24c2 2 4 2 6 4c0 6 0 12 2 16c2 8 4 16 10 24l2 2c-6 6 -16 10 -28 10s-18 -6 -18 -18c0 -6 2 -14 8 -16h4c4 0 6 2 8 4s6 8 4 12c0 2 -4 2 -6 2s-2 0 -2 -2l-2 -2 c-12 0 -12 18 0 18l2 -2v0l2 -2c2 0 2 -2 4 -2l6 -6c4 -6 2 -12 -2 -18c-2 -4 -8 -8 -12 -8h-6c-10 2 -16 12 -18 20c-2 10 2 20 10 26c6 4 12 4 18 4c14 0 26 -4 36 -12c4 4 10 8 16 10c4 0 6 2 10 2c8 0 16 -2 24 -6c6 -4 10 -10 8 -16c-2 -4 -6 -6 -8 -10 c-2 -2 -2 -4 -4 -6c-4 -4 -6 -6 -10 -8zM100 66v0c-4 -4 -6 -10 -8 -16h4c8 0 14 4 16 12c0 2 2 4 0 6s-4 4 -6 4s-4 -4 -6 -6zM80 146c-2 -2 -4 -2 -6 -4c4 -6 8 -16 10 -24c0 -2 2 -2 2 -4c6 2 10 6 16 10c4 2 8 4 12 8c2 2 2 4 4 6s2 6 0 8c0 2 0 2 -2 2s-4 4 -6 4 c-6 2 -10 0 -16 0s-10 -4 -14 -6zM68 130c-2 -4 -2 -6 -4 -10c-2 -6 -4 -10 -4 -16l12 6c0 8 0 14 -4 20zM34 48v0c8 4 14 8 20 14c-4 8 -8 16 -8 24c-4 -2 -8 -6 -12 -8c-6 -4 -14 -8 -18 -12v-2h-2c-2 -2 -2 -4 -2 -6c-2 -6 4 -12 10 -12c4 0 8 0 12 2zM62 72 c4 8 8 18 10 26c-2 0 -4 -4 -6 -4s-4 -2 -6 -2c0 -6 0 -14 2 -20z"
         id="glyph44" />
      <glyph
         glyph-name="Y"
         unicode="Y"
         d="M128 134v0c0 -20 2 -44 -8 -62c4 -12 8 -24 4 -38c-6 -30 -38 -34 -64 -34c-20 0 -48 2 -54 24c-4 18 20 24 34 24c10 0 34 -4 38 -16c2 -16 -22 -16 -34 -12c-2 0 -2 0 -4 2s-8 2 -12 2c-6 14 12 22 20 10l-4 -2c-2 -2 -4 -6 0 -8c6 -4 20 -2 26 2c2 2 2 4 2 6 c-2 4 -4 6 -8 8c-12 6 -50 8 -52 -10c2 -28 56 -20 76 -16c22 4 28 34 26 48c-14 -22 -70 -18 -78 8c-6 22 28 66 2 80h-2c-16 6 -26 -4 -26 -20c0 -8 2 -22 14 -22c14 0 14 18 10 26c0 4 -6 6 -10 4c-2 -2 0 -8 0 -10s4 -2 6 -2h2c6 -12 -12 -18 -18 -8h2c2 2 2 6 2 8 c-8 18 14 24 20 10c2 -8 4 -16 0 -24c-8 -18 -34 -8 -34 10c-2 18 4 38 26 38c10 0 18 -4 24 -12c6 -10 4 -24 2 -36s-12 -34 -6 -42s24 -10 34 -10c12 0 22 8 26 18c-6 22 -8 48 -6 70c2 14 18 18 22 4c2 -6 2 -12 2 -18zM112 96v0c0 -2 2 -2 2 -4c4 18 2 34 4 52 c0 2 0 6 -2 8s-2 0 -2 -2s-2 -2 -2 -4c-2 -16 -4 -34 0 -50z"
         id="glyph45" />
      <glyph
         glyph-name="Z"
         unicode="Z"
         d="M126 80v0c4 -30 -14 -54 -36 -72c-18 -12 -56 -12 -68 8c-6 12 -8 30 2 42c16 20 66 12 58 -20c-4 -10 -16 -24 -28 -20c-6 2 -8 6 -8 12c0 4 -4 6 -8 6c2 16 24 14 24 -2c-2 0 -6 0 -8 -2s-2 -6 0 -8c4 -2 8 0 12 2c8 4 14 12 10 20c-12 24 -64 14 -40 -24 c12 -14 36 -12 50 0c10 8 16 12 22 24c10 20 8 60 -24 50c-8 -2 -18 -6 -24 -12l-8 6c4 12 12 22 20 30h-10c-24 -50 -78 -20 -50 10c10 8 26 2 24 -12c0 -4 2 -6 4 -8c-6 -12 -22 -6 -18 6c2 0 2 0 4 2s2 4 0 4h-4c-6 2 -8 -6 -6 -12c12 -16 32 -2 40 12 c-16 2 -38 12 -30 30l6 6c14 6 44 -2 38 -22c20 -4 30 4 48 12c-10 -12 -22 -24 -32 -36c22 4 36 -10 40 -32zM40 144v0v0zM52 140v0c2 0 4 -2 8 -2c0 2 2 4 -2 6c-6 2 -10 2 -16 0c4 -2 6 -2 10 -4z"
         id="glyph46" />
      <glyph
         glyph-name="bracketleft"
         unicode="["
         horiz-adv-x="26"
         d="M22 40h-18v120h18c4 0 4 -2 4 -6s0 -6 -4 -6h-6v-96h6c4 0 4 -2 4 -6s0 -6 -4 -6v0z"
         id="glyph47" />
      <glyph
         glyph-name="bracketright"
         unicode="]"
         horiz-adv-x="26"
         d="M26 40h-16c-4 0 -6 2 -6 6s2 6 6 6h6v96h-6c-4 0 -6 2 -6 6s2 6 6 6h16v-120z"
         id="glyph48" />
      <glyph
         glyph-name="asciicircum"
         unicode="^"
         horiz-adv-x="62"
         d="M12 136zM8 140c6 2 16 6 20 12c0 0 2 2 2 4l4 4c2 -2 2 -6 4 -8s6 -4 8 -6s4 -2 8 -4c2 0 2 -2 4 -2c4 0 4 -2 4 -6c-2 -6 -6 -8 -10 -4c-4 6 -18 16 -18 16h-4c0 0 -8 -6 -12 -12l-4 -4c-2 -2 -6 -2 -8 0c-4 2 -2 8 2 10v0z"
         id="glyph49" />
      <glyph
         glyph-name="grave"
         unicode="`"
         horiz-adv-x="38"
         d="M20 158l18 -20c2 -2 0 -8 -4 -6l-24 10c-4 2 -8 8 -6 12c2 6 12 8 16 4z"
         id="glyph50" />
      <glyph
         glyph-name="a"
         unicode="a"
         horiz-adv-x="78"
         d="M68 52v0c2 8 12 8 12 0c-2 0 -4 -4 -6 -6c-2 -4 -8 -8 -14 -6c-4 2 -6 4 -6 8c-14 -8 -30 -12 -42 2c-22 28 10 68 42 64c4 4 12 6 16 4c2 0 4 0 6 2c6 -2 2 -14 -4 -12c0 2 -2 4 -4 4h-6c24 -14 -6 -38 -10 -6c-22 0 -48 -28 -32 -50c4 -4 8 -8 14 -6s12 4 18 8 c0 6 2 12 4 18c4 8 14 8 14 -2c0 -8 -6 -16 -12 -22c0 -4 2 -8 4 -8c4 0 14 4 6 8zM64 100c-2 2 -4 6 -6 6c0 -2 2 -8 4 -10h2c2 0 0 2 0 4zM62 76v0c-4 -2 -4 -8 -4 -14c2 4 6 10 6 14h-2z"
         id="glyph51" />
      <glyph
         glyph-name="b"
         unicode="b"
         horiz-adv-x="78"
         d="M78 70v0c-2 -10 -4 -22 -14 -26c2 -2 2 -4 4 -4s2 2 4 2c4 -8 -6 -16 -12 -8c2 2 2 2 2 4s-2 2 -2 4c-50 -12 -36 46 -6 12c8 0 12 6 14 14c10 30 -14 52 -42 38c0 -16 0 -30 -2 -46c0 -8 -4 -20 -14 -20h-4c-2 4 -2 10 -2 14c0 18 -2 40 14 52c0 6 2 10 2 16 c-8 -2 -10 2 -10 10c0 2 -2 6 -4 2c-4 8 8 14 12 6c0 -4 -4 -6 -4 -12v-2c2 0 4 2 6 2c2 8 0 24 6 30c2 2 6 0 8 0c16 -6 0 -26 -8 -32v-14c30 14 58 -10 52 -42zM30 154v0v0zM28 150c-2 -6 -2 -12 -2 -18c6 4 16 20 4 22c-2 -2 -2 -2 -2 -4zM12 88c-2 -10 -2 -18 0 -28 c2 12 2 26 4 38c-2 -2 -2 -6 -4 -10zM8 52h2h-2zM16 50h2h-2zM44 52h6c-16 12 -20 -2 -6 0z"
         id="glyph52" />
      <glyph
         glyph-name="c"
         unicode="c"
         horiz-adv-x="86"
         d="M84 106c8 -8 -4 -20 -12 -12c4 8 -2 10 -8 10c4 -4 8 -10 8 -16c2 -12 -8 -20 -18 -12c-8 6 -12 24 -2 30c-38 22 -54 -54 -14 -58c8 -2 20 -4 26 4c2 4 2 8 0 10h-2v0c6 10 22 2 16 -8c-10 0 -12 -10 -20 -12c-72 -20 -68 80 -12 72c6 0 10 -2 14 -6c4 0 10 0 14 -2 s6 -2 10 0zM62 84v0v0zM62 90v0c0 4 -4 10 -6 12c-4 -2 -2 -8 0 -12l6 -6v6z"
         id="glyph53" />
      <glyph
         glyph-name="d"
         unicode="d"
         horiz-adv-x="88"
         d="M72 58c8 8 22 -6 14 -14c-6 2 -8 0 -12 -2c-8 -4 -16 -2 -22 4c-14 -8 -34 -10 -42 4c-10 18 -8 42 6 56c12 12 36 14 44 -2c-2 8 -4 16 -4 24c-6 4 -6 10 -14 8v0c-6 10 8 18 14 8c-4 -4 -4 -4 0 -8c0 8 2 20 12 22c4 0 6 -2 8 -4c4 -8 0 -24 -10 -28c2 -12 6 -26 6 -38 c-2 -6 -8 -6 -12 -2l-4 4c2 14 -16 18 -26 10c-14 -8 -20 -38 -8 -50c8 -4 20 -4 28 0c-8 42 42 24 6 -2c6 -4 14 0 18 4c2 2 -2 4 -2 6zM62 90v0v0zM66 94v0v0zM64 142v-10c12 6 6 36 0 10zM56 66v0c-2 -4 -2 -8 -2 -12c4 2 18 12 8 16c-2 0 -6 -2 -6 -4z"
         id="glyph54" />
      <glyph
         glyph-name="e"
         unicode="e"
         horiz-adv-x="76"
         d="M74 56v0c4 -4 6 -8 2 -12c-8 2 -10 0 -18 -2c-14 -4 -38 0 -38 18c-10 2 -6 6 -14 2c-6 8 6 18 12 10c0 0 -4 -2 -2 -4s4 -2 6 -2c4 20 20 58 44 44c6 -4 8 -14 6 -20c-4 -18 -24 -28 -42 -30c0 -10 10 -12 18 -14c6 -2 22 0 14 10c4 4 8 4 12 0zM44 94 c-6 -8 -8 -18 -12 -26c12 6 22 16 30 26c2 4 2 10 -4 10s-10 -6 -14 -10z"
         id="glyph55" />
      <glyph
         glyph-name="f"
         unicode="f"
         horiz-adv-x="72"
         d="M58 114v0l-12 -6v-10c4 0 8 0 12 4v0c10 -4 6 -16 -4 -14c0 6 -4 6 -8 6c0 -16 0 -32 -2 -48c-2 -14 2 -44 -16 -46h-4l-2 6c-2 4 -4 10 -4 14c-2 24 -12 60 16 74c0 4 2 8 2 12h-12c-6 2 -10 2 -14 -4c-10 4 -6 16 4 14c-2 -12 16 -8 22 -6c2 14 2 36 10 46 c10 10 26 0 26 -12c2 -12 -4 -22 -14 -30zM22 64c0 -16 2 -32 8 -48c2 10 4 20 4 30c0 14 -2 30 0 44c-8 -6 -12 -16 -12 -26zM46 140v0v-24c8 6 20 26 14 36c-6 6 -14 -6 -14 -12z"
         id="glyph56" />
      <glyph
         glyph-name="g"
         unicode="g"
         horiz-adv-x="80"
         d="M72 48v0c6 4 12 -6 6 -10c-2 -2 -4 -2 -6 -2v2c-2 0 -8 -2 -10 -2c0 -6 2 -10 2 -16c0 -20 -36 -30 -50 -18c-8 8 0 20 8 26c10 6 20 8 32 10v12c-6 -4 -16 -8 -24 -10c-20 -2 -30 22 -24 38c6 20 28 36 50 34c2 4 10 4 14 2c2 0 4 0 6 2c6 -2 4 -12 -4 -10 c0 2 -2 4 -4 4h-6c24 -14 -6 -36 -10 -6c-16 0 -34 -16 -38 -32c-2 -12 8 -28 22 -24c6 2 12 4 18 8c0 6 -2 10 0 16c8 14 26 4 8 -16v-16c2 0 4 2 6 4v2c2 0 2 2 4 2zM64 98v0c-2 2 -4 4 -6 4c0 -2 2 -6 4 -8h2c2 0 0 2 0 4zM60 70v0v-8c2 2 4 6 4 10s-4 0 -4 -2v0zM56 20 v0c0 4 -2 8 -2 12c-10 -4 -20 -6 -28 -12c-4 -4 -12 -4 -10 -12c0 -2 4 -6 6 -6c10 0 34 6 34 18z"
         id="glyph57" />
      <glyph
         glyph-name="h"
         unicode="h"
         horiz-adv-x="82"
         d="M72 52v0c8 4 16 -8 8 -12c0 2 -2 2 -2 2s-2 2 -4 2c-6 -2 -14 -8 -18 0s-4 16 -2 24c2 10 10 22 10 32v0c-8 14 -28 6 -38 0c0 -14 0 -26 -2 -40c-2 -8 -4 -20 -14 -20h-2c-4 4 -4 10 -4 16c0 16 0 32 14 44v20c-6 0 -6 8 -8 12c0 2 -4 4 -6 4c0 10 12 10 14 0 c-2 -2 -4 -4 -4 -6s2 -6 6 -6c2 10 0 24 6 32c4 4 10 0 12 -2c8 -10 -4 -26 -12 -32v-16c16 10 46 14 46 -10c-2 -16 -8 -32 -10 -48c0 -2 -2 -4 0 -4c4 -2 10 0 12 2c0 2 -2 4 -2 6v0zM30 154v0v0zM26 134v0v-6c6 6 16 22 4 26c-4 -6 -4 -14 -4 -20zM10 80v0 c0 -6 0 -14 2 -20c2 12 2 22 4 34c-4 -4 -6 -8 -6 -14zM8 52h2h-2zM18 50v0v0z"
         id="glyph58" />
      <glyph
         glyph-name="i"
         unicode="i"
         horiz-adv-x="88"
         d="M74 56v0c12 6 22 -12 10 -18c-2 2 -4 6 -6 6c-10 -2 -14 -10 -26 0c-4 2 -8 6 -10 10c-4 -4 -8 -6 -12 -10c-2 -2 -2 -4 -4 -6c-4 -6 -12 -4 -18 0c-10 10 0 26 14 20c6 -2 12 -2 18 2c-6 12 -6 28 -2 40c2 12 20 18 20 2c0 -14 -2 -28 -10 -40c2 -6 2 -12 8 -14 c4 0 6 2 10 0c2 0 6 0 8 2v6zM46 92v0v-26c6 10 8 20 8 32c0 4 0 10 -4 6c-4 -2 -4 -8 -4 -12zM32 128c-2 8 2 16 8 20c2 2 0 2 0 4c8 4 14 -4 8 -10c6 2 12 2 16 -2c16 -20 -28 -34 -32 -12zM42 142c-4 -4 -6 -12 -4 -16c4 -10 30 0 20 8h-2c-2 2 -14 2 -12 -2 c2 -2 4 0 6 2c6 -4 -2 -14 -8 -10c0 2 2 4 2 6c-4 4 0 10 4 12c-2 2 -4 2 -6 0z"
         id="glyph59" />
      <glyph
         glyph-name="j"
         unicode="j"
         horiz-adv-x="64"
         d="M24 134c-2 8 2 16 8 20c2 2 0 2 0 4c8 4 14 -4 8 -10c6 2 12 2 16 -2c16 -20 -28 -34 -32 -12zM34 148c-4 -4 -6 -12 -4 -16c4 -10 28 0 18 8v0c-2 2 -14 2 -12 -2c2 -2 4 0 6 2c6 -4 -2 -14 -8 -10c0 2 2 4 2 6c-4 4 0 10 4 12c-2 2 -4 2 -6 0zM56 58v0 c12 2 14 -14 2 -16c-4 6 -6 6 -12 4c4 -20 -2 -42 -22 -46c-12 0 -22 16 -20 26c2 14 20 18 32 22c-2 8 -4 14 -6 22c-4 -4 -6 -6 -8 -10v-2c0 -2 0 -4 2 -4c-4 -10 -16 -6 -14 4c2 2 4 4 6 4v0c4 6 10 10 14 14c-4 14 -4 46 18 42c16 -4 -4 -34 -10 -40c2 -8 4 -18 6 -28 c6 2 10 0 12 8zM36 100v0v-14c2 4 16 22 10 24s-10 -4 -10 -10zM36 32v0v10c-10 -4 -30 -18 -16 -28c6 -2 10 4 14 8c2 2 2 6 2 10z"
         id="glyph60" />
      <glyph
         glyph-name="k"
         unicode="k"
         horiz-adv-x="78"
         d="M78 52v0c2 -2 0 -8 -2 -10v2h-2c-2 0 -4 -2 -6 -2c-4 -2 -8 0 -12 2c-6 6 -8 16 -10 24c-18 -4 -26 14 -8 24c8 6 12 -6 16 -12c8 4 14 12 14 20c0 20 -30 8 -40 2c0 -16 0 -34 -4 -50c-2 -6 -6 -12 -14 -10c-6 6 -6 16 -6 24c0 14 2 28 14 36c0 6 2 14 2 20 c-6 0 -6 6 -8 10c0 2 -4 6 -6 6c0 10 12 10 14 0c-2 -2 -4 -2 -4 -4c0 -4 2 -8 6 -8c2 10 2 18 4 26c4 16 20 4 16 -8c-2 -8 -8 -16 -14 -20v-16c12 8 34 16 44 2c8 -14 0 -34 -14 -40c2 -6 2 -14 4 -20c2 -2 2 -2 4 -2s2 0 2 2v4c2 2 8 0 10 -2zM32 156v0v0zM28 136v-6 c6 4 18 22 4 26c-4 -6 -4 -14 -4 -20zM12 82c-2 -8 -4 -16 0 -24l6 36c-4 -4 -6 -8 -6 -12zM10 54v0v0zM16 54l2 -2zM38 78v0v0zM40 78v0h4c0 4 0 14 -4 6c0 -2 -2 -4 -2 -6h2z"
         id="glyph61" />
      <glyph
         glyph-name="l"
         unicode="l"
         horiz-adv-x="56"
         d="M58 144v0c2 -18 -6 -38 -22 -46c0 -8 -18 -64 2 -52c4 2 4 6 2 10c10 6 20 -8 10 -14c-2 2 -6 2 -8 0c-30 -14 -16 38 -16 52c-4 0 -8 -2 -12 0c-2 0 -6 2 -8 2c-6 6 4 14 10 8c-2 -2 -2 -4 0 -4c4 0 6 0 10 2c2 16 0 32 4 46s26 10 28 -4zM50 140c4 12 -12 12 -10 4 c2 -12 0 -20 -2 -32c6 8 10 18 12 28z"
         id="glyph62" />
      <glyph
         glyph-name="m"
         unicode="m"
         horiz-adv-x="118"
         d="M104 56c2 10 18 8 16 -2c-2 0 -4 -2 -6 -4c-8 -16 -32 -8 -30 10c0 14 16 30 4 44c-6 6 -14 0 -18 -4c6 -12 8 -54 -6 -60c-8 -2 -12 8 -12 14c-2 14 -4 28 6 42c-4 12 -10 8 -18 2c6 -12 2 -58 -14 -58h2c-12 0 -10 14 -10 22c0 14 2 26 12 38c0 2 -2 6 -4 6 c-4 0 -16 -6 -12 -10v0c-6 -6 -12 0 -8 6c2 0 2 0 4 2c6 6 20 12 26 2c10 8 24 12 32 0c14 16 34 8 36 -12c0 -12 -6 -24 -8 -36c0 -2 -2 -4 0 -6s4 -4 6 -4s6 4 6 6s-2 2 -4 2zM28 50v0v0v0v0zM30 66v0c2 8 2 14 2 22c-8 -10 -8 -24 -6 -36c2 4 4 10 4 14zM58 64v0 c0 -4 0 -8 2 -12c2 12 4 24 2 36c-4 -6 -4 -16 -4 -24zM62 48v0v0z"
         id="glyph63" />
      <glyph
         glyph-name="n"
         unicode="n"
         horiz-adv-x="80"
         d="M74 62v0c4 0 6 -6 6 -10c-2 0 -4 0 -6 -2c-8 -18 -32 -10 -30 8c0 14 14 28 8 42c-6 8 -14 4 -20 -2c6 -12 2 -24 0 -36c-2 -6 -2 -16 -6 -20c-10 -4 -14 12 -14 18c-2 14 0 28 8 38c0 4 -2 8 -6 8c-2 0 -2 -2 -2 -4c-10 -2 -12 12 -2 14c4 -8 6 -2 16 -12 c16 18 38 12 38 -12c0 -14 -6 -26 -8 -38c0 -2 0 -4 2 -4c2 -2 6 -2 8 0s4 4 0 6h-2c0 4 6 6 10 6zM22 46v0v0zM24 62v0c0 8 -2 16 -2 24c-6 -10 -4 -28 0 -38c2 4 2 10 2 14z"
         id="glyph64" />
      <glyph
         glyph-name="o"
         unicode="o"
         horiz-adv-x="90"
         d="M90 106v0c2 -2 2 -6 0 -8h-4c-6 -4 -6 -10 -10 -14c0 -8 -2 -18 -6 -24c-12 -24 -60 -30 -66 2c-4 22 14 42 34 50c2 0 2 4 2 6v0c8 4 14 -10 6 -14c-2 2 -4 4 -6 4c-16 -4 -24 -20 -26 -36c-4 -20 18 -26 34 -20c10 4 16 12 18 22c-8 -8 -22 -16 -32 -6 c-18 16 34 54 40 24c2 2 6 4 8 8c0 2 -2 4 -2 6c2 2 8 2 10 0zM58 76v0c4 2 6 6 10 10c0 24 -32 2 -30 -10c0 -2 0 -2 2 -2c6 -4 12 0 18 2z"
         id="glyph65" />
      <glyph
         glyph-name="p"
         unicode="p"
         horiz-adv-x="84"
         d="M74 116v0c6 8 14 0 10 -8c-2 0 -4 0 -6 -2l-4 -4c18 -26 -4 -56 -34 -50c0 -8 0 -16 -2 -24c4 -2 4 -4 8 0v0c8 -4 2 -16 -6 -12c0 4 0 6 -4 6c-4 -38 -42 -22 -30 0c4 8 14 10 22 8v26c-10 6 -14 16 -14 26c0 8 0 30 12 30c8 -2 10 -10 10 -16c2 -12 4 -22 4 -34 c20 -6 38 14 28 34c-10 -8 -26 -4 -32 6c-4 8 8 12 14 12c8 0 14 -4 20 -10c2 4 8 8 4 12zM24 12c2 4 4 8 4 12c-20 -2 -10 -18 -4 -12zM20 82v0c0 -6 4 -12 8 -16v30v0c0 4 -2 8 -4 10l-2 -4c-2 -6 -2 -12 -2 -20zM58 96v0c2 0 6 2 8 4c-4 4 -10 8 -16 8c-4 0 -8 0 -10 -2 c0 -6 14 -10 18 -10z"
         id="glyph66" />
      <glyph
         glyph-name="q"
         unicode="q"
         horiz-adv-x="86"
         d="M86 20v0c4 -12 -12 -24 -24 -16c-6 4 -6 12 -8 20c-4 0 -4 -4 -4 -8c-8 -4 -14 10 -6 14v-2c2 -2 4 0 8 0c-2 8 0 16 0 24c-34 -8 -60 26 -38 54c-2 4 -4 2 -8 2c-6 8 4 16 10 10c-2 -4 0 -6 2 -8c4 4 8 4 14 4s20 0 22 -8c0 -10 -14 -14 -22 -14c-6 0 -10 4 -14 8 c-14 -24 10 -44 34 -38c2 12 -2 40 8 48c4 2 8 2 12 -2c4 -6 4 -14 4 -20c0 -12 -4 -26 -14 -32v-26c10 2 20 0 24 -10zM24 106v0c-2 0 -2 -2 -2 -2c4 -4 6 -6 10 -6c6 0 12 0 16 4v4c-4 4 -20 2 -24 0zM62 98v0v-30c4 4 8 10 8 18c0 6 2 14 -4 18c-2 0 -4 -4 -4 -6zM74 14 v0c2 6 -8 10 -12 10c0 -4 2 -10 6 -12c2 -2 6 0 6 2z"
         id="glyph67" />
      <glyph
         glyph-name="r"
         unicode="r"
         horiz-adv-x="82"
         d="M68 56v0c10 4 18 -10 8 -16c-6 6 -6 4 -12 2s-12 -4 -14 4c-2 10 20 32 24 44c-10 -6 -20 -16 -32 -16c-2 -10 -4 -20 -8 -28c-4 -10 -14 -8 -20 -2c-2 2 -4 2 -6 0c-8 6 0 18 8 12c0 -8 0 -6 6 -10c2 -2 4 0 6 2c4 8 8 18 8 28c-10 4 -20 10 -26 18c-10 16 12 26 24 18 c8 -6 8 -16 8 -26c12 2 24 8 34 14c10 -2 6 -14 2 -20c-6 -12 -12 -24 -18 -34c4 0 6 0 8 2s0 6 0 8v0zM18 102v0c2 -6 12 -10 18 -12c-2 8 -2 18 -14 14c-2 0 -4 0 -4 -2zM58 48v-2v2z"
         id="glyph68" />
      <glyph
         glyph-name="s"
         unicode="s"
         horiz-adv-x="76"
         d="M76 64v0c4 -14 -4 -26 -18 -24c-2 0 -6 2 -8 4c-4 4 -2 10 -2 14c0 2 -2 4 -4 6c4 8 16 4 14 -6c-4 0 -6 -2 -6 -6c0 -6 4 -6 8 -6c10 0 8 12 6 20c-6 8 -18 10 -28 12c0 -12 0 -24 -8 -32c-8 -10 -28 -6 -24 8c0 4 4 8 0 10c2 6 12 0 10 -6c-2 0 -4 0 -4 -2 c-4 -6 -4 -10 4 -10c14 0 12 24 12 34c-10 4 -22 6 -24 18c0 6 2 14 8 16c14 4 24 -12 26 -24c14 -4 36 -8 38 -26zM12 98c2 -4 8 -4 14 -6c-2 4 0 10 -4 14c-6 6 -14 0 -10 -8z"
         id="glyph69" />
      <glyph
         glyph-name="t"
         unicode="t"
         horiz-adv-x="74"
         d="M42 158v0v0zM64 54v0c6 6 14 -4 8 -10c-2 0 -4 2 -6 0s-2 -2 -4 -2c-4 -2 -8 -4 -12 -2c-6 2 -8 8 -12 14c-2 -2 -2 -6 -4 -8c-2 -4 -6 -8 -12 -6c-2 0 -6 2 -8 4h-2c-2 0 -2 2 -4 2l-2 -2c-6 8 4 20 12 12c0 -2 -2 -4 -2 -6l2 -2l2 -2c2 -2 4 -2 6 -2c6 2 6 12 8 18 c-2 4 -4 8 -4 12c-2 6 -2 12 -2 18h-4v0v0v-2v0c0 -2 0 -4 2 -6c-6 -8 -20 -2 -14 8c2 0 6 2 8 2v0h2v0v0v2c2 2 4 2 6 2v0v4c0 10 -2 18 -2 28v8v16v0v2c2 4 6 2 8 2h8v0l4 -4v-44v-2v-6v-6v-2c4 0 6 0 8 2c0 0 2 2 2 4c2 6 12 2 10 -4v0l-2 -2c-2 -2 -4 -6 -8 -6 s-8 2 -12 2c0 -8 0 -16 -2 -24c2 -6 4 -10 6 -14c2 -2 4 -6 8 -6c2 0 4 0 6 2s2 4 2 6zM38 150c-2 0 -2 2 -4 2v0v-18c2 -12 4 -24 4 -36v-2v0v8v4v4v8v30zM32 152v0z"
         id="glyph70" />
      <glyph
         glyph-name="u"
         unicode="u"
         horiz-adv-x="82"
         d="M72 48v0c6 6 14 -2 8 -8c-2 0 -4 2 -6 0c-4 -2 -10 0 -12 4c-14 -6 -34 -4 -42 8c-4 6 -4 12 -6 18c-2 -2 -2 -2 -4 -2c-8 2 -6 16 2 14c0 -2 0 -4 2 -4c0 10 -2 20 2 28c2 6 4 8 10 4c10 -12 8 -28 -6 -36c2 -8 4 -14 10 -20c8 -6 20 -6 28 -2c-2 14 0 28 0 42 c4 54 36 -20 6 -48c2 -4 6 -4 8 -2s2 2 0 4zM22 108v0v0zM22 108c-4 -8 -6 -18 -4 -28c14 8 12 18 4 28zM66 102v0c0 2 -2 2 -2 4c-2 -16 2 -32 0 -48c8 12 8 30 2 44z"
         id="glyph71" />
      <glyph
         glyph-name="v"
         unicode="v"
         horiz-adv-x="102"
         d="M102 98v0c2 -2 2 -8 0 -10c-4 0 -8 -2 -10 -4c-4 -4 -8 -6 -14 -6c-12 -16 -22 -38 -44 -40c-14 0 -18 14 -16 26c0 8 2 16 4 24c-6 -2 -8 2 -10 -4c-10 0 -10 14 0 14c0 -2 2 -4 4 -4h8c2 6 6 18 12 20c8 0 16 -6 10 -14c-4 -4 -8 -8 -14 -10c-2 -12 -6 -28 0 -38 c16 -8 30 20 38 30c-24 34 42 52 12 4c2 0 4 2 6 4s6 4 4 8c2 2 8 2 10 0zM36 108v0v0zM34 102c0 -2 -2 -4 -2 -6c6 2 18 12 4 12c-2 -2 -2 -4 -2 -6zM72 98v0c0 -4 0 -8 2 -12c4 6 10 14 10 22c-6 2 -12 -4 -12 -10z"
         id="glyph72" />
      <glyph
         glyph-name="w"
         unicode="w"
         horiz-adv-x="122"
         d="M112 92v0c8 4 14 -8 6 -12c-6 6 -10 -2 -16 -2c-8 -20 -22 -54 -46 -28c-2 -4 -6 -8 -10 -10c-20 -6 -36 16 -36 34c0 8 4 14 6 20l-6 6s-2 2 -4 2c-4 8 4 14 10 6c-4 -4 2 -6 4 -8c2 6 6 12 12 12c8 0 12 -6 10 -12c-2 -8 -10 -12 -16 -10c-2 -4 -4 -8 -4 -14 c0 -12 10 -28 22 -28c4 2 6 4 8 6c-4 6 -8 14 -6 20s2 16 8 18c6 4 10 -4 12 -10c4 -10 2 -16 -4 -24c2 -2 6 -6 10 -6c10 6 18 16 24 26c-18 6 -8 32 8 34c14 2 4 -22 2 -28c4 0 6 2 6 8zM32 104v0c-2 -2 -2 -6 -4 -8c4 0 8 2 6 6c0 0 0 2 -2 2v0zM54 78c-2 -6 0 -12 4 -16 c4 4 6 10 4 16c0 2 -2 6 -4 8c-2 -2 -4 -6 -4 -8zM106 106v0v0zM98 84v0h2c4 6 6 14 6 22c-8 -2 -16 -10 -12 -18c0 -2 2 -4 4 -4z"
         id="glyph73" />
      <glyph
         glyph-name="x"
         unicode="x"
         horiz-adv-x="78"
         d="M74 90v0c-10 -8 -20 -14 -30 -20c0 -10 6 -22 14 -26c2 0 6 2 8 4s2 4 0 6c6 6 16 -4 10 -10c-2 0 -4 2 -6 0c-14 -10 -22 0 -28 12c-2 -8 -8 -18 -18 -18v0c-6 2 -14 4 -18 8c-2 2 -2 6 0 8c8 6 18 12 26 18c0 8 -2 46 -16 34c-2 -2 -4 -4 -2 -6c0 -2 2 -4 4 -4 c-2 -8 -16 -4 -14 4c2 0 4 2 6 4c10 20 26 4 30 -10c2 10 10 22 22 18c10 -2 24 -12 12 -22zM68 96v0v0zM56 104v0v0zM10 48v0v0zM24 48c4 4 6 10 8 16c-6 -4 -14 -8 -20 -14c4 -2 8 -2 12 -2v0zM58 92c2 2 6 4 8 6c-4 2 -6 6 -10 6c-6 -6 -8 -14 -10 -22c4 4 8 6 12 10z "
         id="glyph74" />
      <glyph
         glyph-name="y"
         unicode="y"
         horiz-adv-x="88"
         d="M84 38v0c8 -2 6 -12 -2 -12c0 2 0 4 -2 4v0c-2 -10 -6 -20 -16 -24c-12 -4 -24 -10 -36 -4c-10 4 -14 22 -2 26c14 6 30 4 46 6v12c-8 -8 -20 -6 -30 -4c-20 4 -24 20 -24 38c-4 0 -4 -2 -6 -6c-10 0 -10 16 0 16c2 -4 2 -6 6 -4c0 8 0 22 4 28c6 4 10 0 12 -6 c4 -8 -2 -18 -10 -24c0 -26 10 -34 36 -32v0c6 0 8 4 12 8c0 14 -2 28 -6 42v8c0 2 2 6 6 6c24 -2 16 -46 8 -60v-22c2 0 2 2 4 4zM24 108v-18c6 4 8 12 4 18c0 0 0 2 -2 2c0 -2 -2 0 -2 -2zM82 100c0 2 -2 4 -4 4c-2 -10 0 -22 0 -32c4 8 6 20 4 28zM78 108v0v0zM30 18v0v0 zM62 14c6 2 6 10 8 16c-14 -2 -28 -4 -40 -12c0 -14 24 -6 32 -4z"
         id="glyph75" />
      <glyph
         glyph-name="z"
         unicode="z"
         horiz-adv-x="78"
         d="M80 52c2 -34 -32 -74 -62 -38v0c-2 0 -4 -2 -6 -2h-6c-10 12 8 28 18 16c-2 -4 -2 -6 -2 -10v-2c38 -38 60 36 40 58c-4 0 -12 -4 -18 -4s-10 6 -14 10c12 12 14 24 -6 26c-4 2 -10 -2 -10 -6c-2 -6 2 -6 6 -8c0 -10 -16 -10 -16 0c4 2 8 4 8 8c2 12 10 14 22 12 c16 -4 18 -18 12 -30c4 2 10 4 14 4c16 -2 20 -22 20 -34z"
         id="glyph76" />
      <glyph
         glyph-name="braceleft"
         unicode="{"
         horiz-adv-x="22"
         d="M22 0c-2 0 -6 2 -8 6c0 2 -2 8 -2 12v26v10l-4 4h-2l-2 2v2l2 2v0s4 2 6 4v8v26s2 16 8 16c2 0 4 0 4 -2s0 -4 -2 -4c0 0 -2 -2 -4 -12v-24c0 -8 -2 -8 -2 -10s-2 -4 -4 -6c2 -2 4 -2 4 -4s2 -4 2 -12v-24c2 -12 4 -14 4 -14c2 0 2 -2 2 -4s0 -2 -2 -2v0zM12 54v0z"
         id="glyph77" />
      <glyph
         glyph-name="bar"
         unicode="|"
         horiz-adv-x="14"
         d="M4 0v140h12v-140h-12z"
         id="glyph78" />
      <glyph
         glyph-name="quotesingle"
         unicode="'"
         horiz-adv-x="28"
         d="M14 168c8 -2 12 -8 14 -16c0 -4 2 -6 2 -10v0v0v0c0 -4 -2 -6 -6 -6s-6 2 -6 6l2 2c2 4 0 8 -2 12h-2h-2c-4 -2 -8 -2 -10 2s2 12 8 10h2z"
         id="glyph79" />
      <glyph
         glyph-name="asterisk"
         unicode="*"
         horiz-adv-x="38"
         d="M38 78v-4h-10l10 -10l-4 -4l-10 10v-12h-6v12l-10 -10l-4 4l10 10h-10v4h10l-10 10l4 4l10 -8v10h6v-10l10 8l4 -4l-10 -10h10z"
         id="glyph80" />
      <glyph
         glyph-name="parenright"
         unicode=")"
         horiz-adv-x="30"
         d="M10 134l4 -4s2 -4 4 -6c8 -14 14 -32 12 -48c0 -14 -6 -38 -16 -50c-2 -2 -2 -2 -4 -2c-2 -2 -4 0 -6 2v2v2c2 4 4 8 4 12c2 10 6 22 6 32v8v8l-6 30c0 2 -2 2 -2 4s-2 4 -2 6c-2 4 2 6 6 4z"
         id="glyph81" />
      <glyph
         glyph-name="cedilla"
         unicode="¸"
         horiz-adv-x="40"
         d="M36 32v0c6 -4 4 -12 4 -18c-2 -16 -18 -16 -30 -10c-6 4 -2 10 4 8c6 -4 14 -6 18 0c8 18 -6 24 -18 10l-2 -2c-10 2 -8 12 -6 20c2 6 8 4 8 -2v-4c8 2 16 4 22 -2zM14 30v0v0v0z"
         id="glyph82" />
      <glyph
         glyph-name="period"
         unicode="."
         horiz-adv-x="30"
         d="M32 54c0 -6 -4 -14 -12 -14s-16 8 -16 16s6 14 14 14c10 0 14 -8 14 -16zM26 54c0 2 -2 4 -4 4h-2c-4 0 -6 -8 -2 -10h4s4 4 4 6z"
         id="glyph83" />
      <glyph
         glyph-name="comma"
         unicode=","
         horiz-adv-x="38"
         d="M6 50c8 2 26 -8 30 -16c8 -14 0 -26 -12 -34c-10 -8 -20 10 -8 14c4 2 12 2 14 6s0 10 -2 12l-2 2c-4 4 -10 8 -12 8h-4c-4 0 -8 6 -4 8v0z"
         id="glyph84" />
      <glyph
         glyph-name="hyphen"
         unicode="-"
         horiz-adv-x="46"
         d="M4 76v10h44v-10h-44z"
         id="glyph85" />
      <glyph
         glyph-name="semicolon"
         unicode=";"
         horiz-adv-x="40"
         d="M32 54c0 -6 -4 -14 -12 -14s-16 8 -16 16s6 14 14 14c10 0 14 -8 14 -16zM26 54c0 2 -2 4 -4 4h-2c-4 0 -6 -6 -2 -8c2 0 2 -2 4 -2s4 4 4 6zM20 36c4 0 8 -2 12 -4c2 0 4 -2 4 -4c2 -2 2 -2 2 -4l2 -2v-2v0v-2v-2v-2v-2v0v-2v-2c-2 -10 -12 -14 -20 -20v-2 c-4 -4 -8 -2 -12 2s-2 12 4 14h2c2 0 2 2 4 2c2 2 4 2 6 4s6 4 6 8v2v0v2v0v2v2c-2 2 -4 0 -6 2c-2 0 -2 2 -4 2c-4 0 -4 8 0 8v0z"
         id="glyph86" />
      <glyph
         glyph-name="acute"
         unicode="´"
         horiz-adv-x="38"
         d="M34 142l-26 -10c-2 0 -4 0 -4 2v4l20 20c8 8 20 -6 12 -14c0 0 0 -2 -2 -2z"
         id="glyph87" />
      <glyph
         glyph-name="dieresis"
         unicode="¨"
         horiz-adv-x="64"
         d="M66 134c0 -6 -4 -14 -12 -14s-16 8 -16 16s6 14 14 14c10 0 14 -8 14 -16v0zM60 134c0 2 -2 4 -4 4h-2c-4 0 -6 -6 -2 -8c2 0 2 -2 4 -2s4 4 4 6zM32 134c0 -6 -4 -14 -12 -14s-16 8 -16 16s6 14 14 14c10 0 14 -8 14 -16zM26 134c0 2 -2 4 -4 4h-2c-4 0 -6 -6 -2 -8 c2 0 2 -2 4 -2s4 4 4 6z"
         id="glyph88" />
      <glyph
         glyph-name="underscore"
         unicode="_"
         horiz-adv-x="44"
         d="M14 28h-10v12h40v-12h-30z"
         id="glyph89" />
      <glyph
         glyph-name="braceright"
         unicode="}"
         horiz-adv-x="22"
         d="M6 2c2 0 6 2 8 6c0 2 2 6 2 10v28v10l4 4v0l4 2v2l-4 2v0l-4 4v8v26s-4 16 -10 16c-2 0 -2 -2 -2 -4s0 -2 2 -2c0 0 2 -4 4 -14v-22c0 -8 2 -10 2 -12s2 -2 4 -4c-2 -2 -4 -2 -4 -4s-2 -4 -2 -12v-24c-2 -12 -4 -16 -4 -16c-2 0 -2 0 -2 -2s0 -2 2 -2v0zM16 56v0z"
         id="glyph90" />
      <glyph
         glyph-name="colon"
         unicode=":"
         horiz-adv-x="30"
         d="M32 52c0 -6 -4 -14 -12 -14s-16 8 -16 16s6 14 14 14c10 0 14 -8 14 -16zM26 52c0 2 -2 4 -4 4h-2c-4 0 -6 -8 -2 -10h4s4 4 4 6zM32 104c0 -6 -4 -14 -12 -14s-16 8 -16 16s6 14 14 14c10 0 14 -8 14 -16zM26 104c0 2 -2 4 -4 4h-2c-4 0 -6 -8 -2 -10h4s4 4 4 6z"
         id="glyph91" />
      <glyph
         glyph-name="divide"
         unicode="÷"
         horiz-adv-x="36"
         d="M14 112c0 4 2 6 6 6s4 -2 4 -6s0 -6 -4 -6s-6 2 -6 6zM20 104c-4 0 -10 4 -10 8s6 8 10 8s8 -4 8 -8s-4 -8 -8 -8zM20 114c-2 0 -4 0 -4 -2s2 -2 4 -2s2 4 2 2c0 2 0 2 -2 2zM14 76c0 4 2 6 6 6s4 -2 4 -6s0 -6 -4 -6s-6 2 -6 6zM20 68c-4 0 -10 4 -10 8s6 8 10 8 s8 -4 8 -8s-4 -8 -8 -8zM20 78c-2 0 -4 0 -4 -2s2 -2 4 -2s2 0 2 2s0 2 -2 2zM22 92h-18v4c22 0 34 0 32 0v-4c2 0 -4 0 -14 0v0z"
         id="glyph92" />
      <glyph
         glyph-name="space"
         unicode=" "
         horiz-adv-x="38"
         id="glyph93" />
      <glyph
         glyph-name="Agrave"
         unicode="À"
         d="M106 198l20 -20c2 -2 0 -8 -4 -6l-26 10c-4 2 -6 8 -4 12c2 6 10 8 14 4zM126 82v0c4 -14 -6 -32 -20 -40c-6 -2 -12 -2 -18 -2c4 22 8 46 10 68c-4 4 -10 8 -16 10c-8 -18 -26 -72 -50 -78c-26 -6 -36 16 -20 32c4 4 10 8 16 8c2 0 2 2 4 4c12 -2 10 -16 -2 -14 c0 2 0 6 -2 6c-6 0 -12 -2 -14 -6s-4 -10 -4 -14c28 -34 52 52 60 66c-16 4 -36 8 -48 -4c0 -2 2 -4 4 -4c-2 -8 -20 -6 -18 2c20 14 40 20 66 12c4 10 8 18 12 26v0c6 8 26 6 26 -4v-4l-6 -36c12 -8 18 -16 20 -28zM102 152v0v0zM96 118v0l2 -2c2 12 2 24 4 36 c-2 0 -6 0 -6 -2c-4 -8 -8 -18 -12 -28c4 -2 8 -2 12 -4zM102 48v0v0zM116 72c2 12 -2 22 -12 30c-2 -18 -4 -36 -4 -54c2 0 2 2 2 2c6 6 14 12 14 22z"
         id="glyph94" />
      <glyph
         glyph-name="Aacute"
         unicode="Á"
         d="M110 182l-24 -10c-2 0 -6 0 -6 2s2 4 2 4l18 20c8 8 20 -6 12 -14c0 0 0 -2 -2 -2zM126 82v0c4 -14 -6 -32 -20 -40c-6 -2 -12 -2 -18 -2c4 22 8 46 10 68c-4 4 -10 8 -16 10c-8 -18 -26 -72 -50 -78c-26 -6 -36 16 -20 32c4 4 10 8 16 8c2 0 2 2 4 4 c12 -2 10 -16 -2 -14c0 2 0 6 -2 6c-6 0 -12 -2 -14 -6s-4 -10 -4 -14c28 -34 52 52 60 66c-16 4 -36 8 -48 -4c0 -2 2 -4 4 -4c-2 -8 -20 -6 -18 2c20 14 40 20 66 12c4 10 8 18 12 26v0c6 8 26 6 26 -4v-4l-6 -36c12 -8 18 -16 20 -28zM102 152v0v0zM96 118v0l2 -2 c2 12 2 24 4 36c-2 0 -6 0 -6 -2c-4 -8 -8 -18 -12 -28c4 -2 8 -2 12 -4zM102 48v0v0zM116 72c2 12 -2 22 -12 30c-2 -18 -4 -36 -4 -54c2 0 2 2 2 2c6 6 14 12 14 22z"
         id="glyph95" />
      <glyph
         glyph-name="Acircumflex"
         unicode="Â"
         horiz-adv-x="130"
         d="M80 176zM76 180c6 2 16 6 20 12c0 0 2 2 2 4l4 4c2 -2 2 -6 4 -8s6 -4 8 -6s4 -2 8 -4c2 0 2 -2 4 -2c4 0 4 -2 4 -6c-2 -6 -8 -6 -10 -2c-4 6 -12 10 -18 12c-2 0 -2 2 -4 2h6c-8 -2 -14 -6 -18 -12l-4 -2c-2 -2 -6 -4 -8 -2c-4 2 -2 8 2 10v0zM126 82v0 c4 -14 -6 -32 -20 -40c-6 -2 -12 -2 -18 -2c4 22 8 46 10 68c-4 4 -10 8 -16 10c-8 -18 -26 -72 -50 -78c-26 -6 -36 16 -20 32c4 4 10 8 16 8c2 0 2 2 4 4c12 -2 10 -16 -2 -14c0 2 0 6 -2 6c-6 0 -12 -2 -14 -6s-4 -10 -4 -14c28 -34 52 52 60 66c-16 4 -36 8 -48 -4 c0 -2 2 -4 4 -4c-2 -8 -20 -6 -18 2c20 14 40 20 66 12c4 10 8 18 12 26v0c6 8 26 6 26 -4v-4l-6 -36c12 -8 18 -16 20 -28zM102 152v0v0zM96 118v0l2 -2c2 12 2 24 4 36c-2 0 -6 0 -6 -2c-4 -8 -8 -18 -12 -28c4 -2 8 -2 12 -4zM102 48v0v0zM116 72c2 12 -2 22 -12 30 c-2 -18 -4 -36 -4 -54c2 0 2 2 2 2c6 6 14 12 14 22z"
         id="glyph96" />
      <glyph
         glyph-name="Atilde"
         unicode="Ã"
         d="M76 176h-2c-2 0 -2 4 -2 6c2 2 4 6 6 10c4 4 8 6 12 6c6 0 8 -2 10 -4s4 -4 4 -6v-4c6 0 12 8 14 12c2 2 4 4 6 2s4 -4 2 -6c0 0 -2 -4 -6 -8c-6 -6 -10 -8 -16 -8c-2 0 -4 0 -6 4c0 2 -2 2 -2 4c-2 6 -4 6 -6 6s-4 0 -6 -4c-2 -2 -6 -6 -6 -8s0 -2 -2 -2v0zM126 82v0 c4 -14 -6 -32 -20 -40c-6 -2 -12 -2 -18 -2c4 22 8 46 10 68c-4 4 -10 8 -16 10c-8 -18 -26 -72 -50 -78c-26 -6 -36 16 -20 32c4 4 10 8 16 8c2 0 2 2 4 4c12 -2 10 -16 -2 -14c0 2 0 6 -2 6c-6 0 -12 -2 -14 -6s-4 -10 -4 -14c28 -34 52 52 60 66c-16 4 -36 8 -48 -4 c0 -2 2 -4 4 -4c-2 -8 -20 -6 -18 2c20 14 40 20 66 12c4 10 8 18 12 26v0c6 8 26 6 26 -4v-4l-6 -36c12 -8 18 -16 20 -28zM102 152v0v0zM96 118v0l2 -2c2 12 2 24 4 36c-2 0 -6 0 -6 -2c-4 -8 -8 -18 -12 -28c4 -2 8 -2 12 -4zM102 48v0v0zM116 72c2 12 -2 22 -12 30 c-2 -18 -4 -36 -4 -54c2 0 2 2 2 2c6 6 14 12 14 22z"
         id="glyph97" />
      <glyph
         glyph-name="Adieresis"
         unicode="Ä"
         horiz-adv-x="130"
         d="M130 182c0 -6 -4 -14 -12 -14s-16 8 -16 16s6 14 14 14c10 0 14 -8 14 -16v0zM124 182c0 2 0 4 -2 4h-4c-4 0 -6 -6 -2 -8c2 0 2 -2 4 -2s4 4 4 6zM96 182c0 -6 -4 -14 -12 -14s-16 8 -16 16s6 14 14 14c10 0 14 -8 14 -16zM90 182c0 2 0 4 -2 4h-4c-4 0 -6 -6 -2 -8 c2 0 2 -2 4 -2s4 4 4 6zM126 82v0c4 -14 -6 -32 -20 -40c-6 -2 -12 -2 -18 -2c4 22 8 46 10 68c-4 4 -10 8 -16 10c-8 -18 -26 -72 -50 -78c-26 -6 -36 16 -20 32c4 4 10 8 16 8c2 0 2 2 4 4c12 -2 10 -16 -2 -14c0 2 0 6 -2 6c-6 0 -12 -2 -14 -6s-4 -10 -4 -14 c28 -34 52 52 60 66c-16 4 -36 8 -48 -4c0 -2 2 -4 4 -4c-2 -8 -20 -6 -18 2c20 14 40 20 66 12c4 10 8 18 12 26v0c6 8 26 6 26 -4v-4l-6 -36c12 -8 18 -16 20 -28zM102 152v0v0zM96 118v0l2 -2c2 12 2 24 4 36c-2 0 -6 0 -6 -2c-4 -8 -8 -18 -12 -28c4 -2 8 -2 12 -4z M102 48v0v0zM116 72c2 12 -2 22 -12 30c-2 -18 -4 -36 -4 -54c2 0 2 2 2 2c6 6 14 12 14 22z"
         id="glyph98" />
      <glyph
         glyph-name="ccedilla"
         unicode="ç"
         horiz-adv-x="86"
         d="M64 32v0c6 -4 4 -10 4 -16c-2 -16 -18 -18 -30 -12c-6 4 -2 12 4 10c6 -4 14 -8 18 -2c8 18 -8 24 -20 10v-2c-10 2 -8 12 -6 20c2 6 8 4 8 -2v-4c8 2 16 4 22 -2zM42 30v0v0v0zM84 106c8 -8 -4 -20 -12 -12c4 8 -2 10 -8 10c4 -4 8 -10 8 -16c2 -12 -8 -20 -18 -12 c-8 6 -12 24 -2 30c-38 22 -54 -54 -14 -58c8 -2 20 -4 26 4c2 4 2 8 0 10h-2v0c6 10 22 2 16 -8c-10 0 -12 -10 -20 -12c-72 -20 -68 80 -12 72c6 0 10 -2 14 -6c4 0 10 0 14 -2s6 -2 10 0zM62 84v0v0zM62 90v0c0 4 -4 10 -6 12c-4 -2 -2 -8 0 -12l6 -6v6z"
         id="glyph99" />
      <glyph
         glyph-name="Ccedilla"
         unicode="Ç"
         d="M106 32v0c6 -4 4 -12 4 -18c-2 -16 -18 -16 -30 -10c-6 4 -2 10 4 8c6 -4 14 -6 18 0c8 18 -6 24 -18 10l-2 -2c-10 2 -8 12 -6 20c2 6 8 4 8 -2v-4c8 2 16 4 22 -2zM84 30v0v0v0zM40 90v0h-2c-4 -16 -2 -32 18 -40c0 26 42 52 66 26c8 -14 -4 -26 -20 -32 c-12 -4 -24 -6 -38 -4c2 -4 0 -4 6 -4c2 -10 -14 -14 -18 -4h2c2 0 2 2 2 4v6c-26 8 -32 30 -26 50c-38 8 -34 62 8 66c6 2 10 2 14 4c2 0 4 0 4 2s2 2 2 4c14 0 14 -16 0 -16v0l-2 2c0 2 0 2 -2 2c-8 2 -16 -4 -24 -6c-26 -10 -24 -44 2 -50c6 14 16 26 28 38 c14 10 40 28 60 20c6 -4 8 -12 6 -18c-10 -28 -48 -50 -86 -50zM78 74c-10 -6 -16 -16 -16 -26c20 -2 56 4 50 24c-6 10 -24 8 -34 2zM42 102l-2 -2c32 0 76 24 74 50c-2 2 -8 0 -12 0c-30 -8 -48 -26 -60 -48z"
         id="glyph100" />
      <glyph
         glyph-name="Egrave"
         unicode="È"
         horiz-adv-x="106"
         d="M78 198l18 -20c2 -2 0 -8 -4 -6l-24 10c-4 2 -8 8 -6 12c2 6 12 8 16 4zM106 76c8 -64 -152 -40 -86 34c0 4 2 12 4 16c-20 4 -20 22 -6 32c4 2 2 6 2 10c12 4 22 -10 10 -16c-2 2 -6 6 -10 4c-12 -6 -2 -20 8 -24c30 64 134 -4 8 -8c-2 -2 -4 -6 -6 -8c8 2 26 2 26 -8 c-2 -12 -26 -18 -34 -6c-12 -16 -10 -38 10 -50c22 -14 82 -10 56 34c-8 14 -36 -6 -28 -22c2 -6 8 -4 12 0c2 2 2 4 2 6c0 0 -2 2 0 2c6 -2 10 -8 12 -12c0 -2 0 -2 -2 -2h-2h-6c-10 -2 -14 -4 -22 4c-24 30 48 52 52 14zM46 112c-6 2 -12 -2 -16 -4c2 -12 26 0 16 4z M44 138c-2 -2 -4 -6 -6 -8c16 -2 46 0 48 12c2 14 -36 6 -42 -4z"
         id="glyph101" />
      <glyph
         glyph-name="Eacute"
         unicode="É"
         horiz-adv-x="106"
         d="M82 182l-24 -10c-2 0 -4 0 -4 2v4l20 20c8 8 20 -6 12 -14c0 0 -2 -2 -4 -2zM106 76c8 -64 -152 -40 -86 34c0 4 2 12 4 16c-20 4 -20 22 -6 32c4 2 2 6 2 10c12 4 22 -10 10 -16c-2 2 -6 6 -10 4c-12 -6 -2 -20 8 -24c30 64 134 -4 8 -8c-2 -2 -4 -6 -6 -8 c8 2 26 2 26 -8c-2 -12 -26 -18 -34 -6c-12 -16 -10 -38 10 -50c22 -14 82 -10 56 34c-8 14 -36 -6 -28 -22c2 -6 8 -4 12 0c2 2 2 4 2 6c0 0 -2 2 0 2c6 -2 10 -8 12 -12c0 -2 0 -2 -2 -2h-2h-6c-10 -2 -14 -4 -22 4c-24 30 48 52 52 14zM46 112c-6 2 -12 -2 -16 -4 c2 -12 26 0 16 4zM44 138c-2 -2 -4 -6 -6 -8c16 -2 46 0 48 12c2 14 -36 6 -42 -4z"
         id="glyph102" />
      <glyph
         glyph-name="Ecircumflex"
         unicode="Ê"
         horiz-adv-x="106"
         d="M48 174zM46 180c6 2 14 6 18 12c0 0 2 0 2 2l4 6c2 -2 4 -6 6 -8l6 -6s6 -4 10 -6h2c4 0 6 -4 6 -8c-2 -6 -10 -6 -12 -2c-4 6 -12 12 -18 14h-4h8c-8 -2 -16 -6 -20 -12l-2 -2c-2 -2 -6 -4 -8 -2c-4 2 -2 10 2 12v0zM106 76c8 -64 -152 -40 -86 34c0 4 2 12 4 16 c-20 4 -20 22 -6 32c4 2 2 6 2 10c12 4 22 -10 10 -16c-2 2 -6 6 -10 4c-12 -6 -2 -20 8 -24c30 64 134 -4 8 -8c-2 -2 -4 -6 -6 -8c8 2 26 2 26 -8c-2 -12 -26 -18 -34 -6c-12 -16 -10 -38 10 -50c22 -14 82 -10 56 34c-8 14 -36 -6 -28 -22c2 -6 8 -4 12 0c2 2 2 4 2 6 c0 0 -2 2 0 2c6 -2 10 -8 12 -12c0 -2 0 -2 -2 -2h-2h-6c-10 -2 -14 -4 -22 4c-24 30 48 52 52 14zM46 112c-6 2 -12 -2 -16 -4c2 -12 26 0 16 4zM44 138c-2 -2 -4 -6 -6 -8c16 -2 46 0 48 12c2 14 -36 6 -42 -4z"
         id="glyph103" />
      <glyph
         glyph-name="Edieresis"
         unicode="Ë"
         horiz-adv-x="106"
         d="M100 184c0 -6 -4 -14 -12 -14s-14 8 -14 16s4 14 12 14c10 0 14 -8 14 -16v0zM96 184c0 2 -2 4 -4 4h-4c-4 0 -6 -8 -2 -10h4s6 4 6 6zM68 184c0 -6 -6 -14 -14 -14s-14 8 -14 16s6 14 14 14c10 0 14 -8 14 -16zM62 184c0 2 -2 4 -4 4h-4c-4 0 -6 -8 -2 -10h6s4 4 4 6z M106 76c8 -64 -152 -40 -86 34c0 4 2 12 4 16c-20 4 -20 22 -6 32c4 2 2 6 2 10c12 4 22 -10 10 -16c-2 2 -6 6 -10 4c-12 -6 -2 -20 8 -24c30 64 134 -4 8 -8c-2 -2 -4 -6 -6 -8c8 2 26 2 26 -8c-2 -12 -26 -18 -34 -6c-12 -16 -10 -38 10 -50c22 -14 82 -10 56 34 c-8 14 -36 -6 -28 -22c2 -6 8 -4 12 0c2 2 2 4 2 6c0 0 -2 2 0 2c6 -2 10 -8 12 -12c0 -2 0 -2 -2 -2h-2h-6c-10 -2 -14 -4 -22 4c-24 30 48 52 52 14zM46 112c-6 2 -12 -2 -16 -4c2 -12 26 0 16 4zM44 138c-2 -2 -4 -6 -6 -8c16 -2 46 0 48 12c2 14 -36 6 -42 -4z"
         id="glyph104" />
      <glyph
         glyph-name="Igrave"
         unicode="Ì"
         horiz-adv-x="94"
         d="M70 198l18 -20c2 -2 0 -6 -4 -4l-24 10c-4 2 -8 6 -6 10c2 6 12 8 16 4zM92 148c2 -8 2 -16 2 -24c0 -10 0 -6 -2 -16c-4 -22 -12 -50 -32 -62c-6 -4 -12 -6 -18 -6c-14 0 -38 2 -38 20c0 6 2 12 8 16c4 2 10 4 14 4c6 0 10 -4 12 -8s2 -8 0 -12l-2 -2s-2 -2 -2 -4v-2 c-10 -4 -18 10 -8 14c0 -2 0 -2 2 -2h2v0c2 2 2 6 -2 8h-6c-4 -2 -8 -4 -10 -8v-4c0 -10 18 -10 26 -10c4 0 8 0 12 2c32 12 36 56 32 86v4c-4 -2 -8 0 -12 0s-6 2 -10 4c-2 0 -2 2 -2 2c-8 2 -22 2 -28 -4v0l-2 -2c-2 -2 -2 -6 -2 -8c0 -4 0 -10 4 -12h4c4 0 8 0 12 2 c2 2 4 2 4 4v0c0 2 2 4 2 6c-2 2 -6 2 -8 2s-4 -2 -4 -2v-2v-2l2 -2v0c-4 -2 -10 -4 -12 0s-4 10 0 12l2 -2h4h2c2 2 4 2 8 2c6 0 12 -2 12 -8v-6c0 -4 -4 -6 -6 -8c-6 -4 -12 -6 -20 -6c-14 2 -18 18 -14 30c0 2 2 6 4 8c6 8 16 10 26 10c4 0 8 -2 12 -2h2 c4 -2 12 -6 16 -4c2 0 4 4 4 6c2 0 2 -2 4 -2s4 0 4 -2c2 -2 2 -6 2 -8z"
         id="glyph105" />
      <glyph
         glyph-name="Iacute"
         unicode="Í"
         horiz-adv-x="94"
         d="M86 182l-24 -10c-2 0 -4 0 -4 2v4l18 18c8 8 22 -4 14 -12c0 0 -2 -2 -4 -2zM92 148c2 -8 2 -16 2 -24c0 -10 0 -6 -2 -16c-4 -22 -12 -50 -32 -62c-6 -4 -12 -6 -18 -6c-14 0 -38 2 -38 20c0 6 2 12 8 16c4 2 10 4 14 4c6 0 10 -4 12 -8s2 -8 0 -12l-2 -2s-2 -2 -2 -4 v-2c-10 -4 -18 10 -8 14c0 -2 0 -2 2 -2h2v0c2 2 2 6 -2 8h-6c-4 -2 -8 -4 -10 -8v-4c0 -10 18 -10 26 -10c4 0 8 0 12 2c32 12 36 56 32 86v4c-4 -2 -8 0 -12 0s-6 2 -10 4c-2 0 -2 2 -2 2c-8 2 -22 2 -28 -4v0l-2 -2c-2 -2 -2 -6 -2 -8c0 -4 0 -10 4 -12h4c4 0 8 0 12 2 c2 2 4 2 4 4v0c0 2 2 4 2 6c-2 2 -6 2 -8 2s-4 -2 -4 -2v-2v-2l2 -2v0c-4 -2 -10 -4 -12 0s-4 10 0 12l2 -2h4h2c2 2 4 2 8 2c6 0 12 -2 12 -8v-6c0 -4 -4 -6 -6 -8c-6 -4 -12 -6 -20 -6c-14 2 -18 18 -14 30c0 2 2 6 4 8c6 8 16 10 26 10c4 0 8 -2 12 -2h2 c4 -2 12 -6 16 -4c2 0 4 4 4 6c2 0 2 -2 4 -2s4 0 4 -2c2 -2 2 -6 2 -8z"
         id="glyph106" />
      <glyph
         glyph-name="Icircumflex"
         unicode="Î"
         horiz-adv-x="94"
         d="M42 176zM40 180c6 2 16 6 20 12c0 0 2 0 2 2l2 6c2 -2 4 -6 6 -8s6 -4 8 -6s4 -4 8 -6h4c4 0 4 -4 4 -8c-2 -6 -10 -6 -12 -2c-4 6 -12 12 -18 14c-2 0 0 2 -2 2h6c-8 -2 -16 -6 -20 -12l-2 -4c-2 -2 -6 -2 -8 0c-4 2 -2 8 2 10v0zM92 148c2 -8 2 -16 2 -24 c0 -10 0 -6 -2 -16c-4 -22 -12 -50 -32 -62c-6 -4 -12 -6 -18 -6c-14 0 -38 2 -38 20c0 6 2 12 8 16c4 2 10 4 14 4c6 0 10 -4 12 -8s2 -8 0 -12l-2 -2s-2 -2 -2 -4v-2c-10 -4 -18 10 -8 14c0 -2 0 -2 2 -2h2v0c2 2 2 6 -2 8h-6c-4 -2 -8 -4 -10 -8v-4c0 -10 18 -10 26 -10 c4 0 8 0 12 2c32 12 36 56 32 86v4c-4 -2 -8 0 -12 0s-6 2 -10 4c-2 0 -2 2 -2 2c-8 2 -22 2 -28 -4v0l-2 -2c-2 -2 -2 -6 -2 -8c0 -4 0 -10 4 -12h4c4 0 8 0 12 2c2 2 4 2 4 4v0c0 2 2 4 2 6c-2 2 -6 2 -8 2s-4 -2 -4 -2v-2v-2l2 -2v0c-4 -2 -10 -4 -12 0s-4 10 0 12l2 -2 h4h2c2 2 4 2 8 2c6 0 12 -2 12 -8v-6c0 -4 -4 -6 -6 -8c-6 -4 -12 -6 -20 -6c-14 2 -18 18 -14 30c0 2 2 6 4 8c6 8 16 10 26 10c4 0 8 -2 12 -2h2c4 -2 12 -6 16 -4c2 0 4 4 4 6c2 0 2 -2 4 -2s4 0 4 -2c2 -2 2 -6 2 -8z"
         id="glyph107" />
      <glyph
         glyph-name="Idieresis"
         unicode="Ï"
         horiz-adv-x="94"
         d="M92 184c0 -6 -6 -14 -14 -14s-14 8 -14 16s6 14 14 14c10 0 14 -8 14 -16v0zM86 184c0 2 -2 4 -4 4h-4c-4 0 -6 -6 -2 -8c2 0 2 -2 4 -2s6 4 6 6zM58 184c0 -6 -6 -14 -14 -14s-14 8 -14 16s4 14 12 14c10 0 16 -8 16 -16zM52 184c0 2 -2 4 -4 4h-4c-4 0 -6 -6 -2 -8 c2 0 2 -2 4 -2s6 4 6 6zM92 148c2 -8 2 -16 2 -24c0 -10 0 -6 -2 -16c-4 -22 -12 -50 -32 -62c-6 -4 -12 -6 -18 -6c-14 0 -38 2 -38 20c0 6 2 12 8 16c4 2 10 4 14 4c6 0 10 -4 12 -8s2 -8 0 -12l-2 -2s-2 -2 -2 -4v-2c-10 -4 -18 10 -8 14c0 -2 0 -2 2 -2h2v0 c2 2 2 6 -2 8h-6c-4 -2 -8 -4 -10 -8v-4c0 -10 18 -10 26 -10c4 0 8 0 12 2c32 12 36 56 32 86v4c-4 -2 -8 0 -12 0s-6 2 -10 4c-2 0 -2 2 -2 2c-8 2 -22 2 -28 -4v0l-2 -2c-2 -2 -2 -6 -2 -8c0 -4 0 -10 4 -12h4c4 0 8 0 12 2c2 2 4 2 4 4v0c0 2 2 4 2 6c-2 2 -6 2 -8 2 s-4 -2 -4 -2v-2v-2l2 -2v0c-4 -2 -10 -4 -12 0s-4 10 0 12l2 -2h4h2c2 2 4 2 8 2c6 0 12 -2 12 -8v-6c0 -4 -4 -6 -6 -8c-6 -4 -12 -6 -20 -6c-14 2 -18 18 -14 30c0 2 2 6 4 8c6 8 16 10 26 10c4 0 8 -2 12 -2h2c4 -2 12 -6 16 -4c2 0 4 4 4 6c2 0 2 -2 4 -2s4 0 4 -2 c2 -2 2 -6 2 -8z"
         id="glyph108" />
      <glyph
         glyph-name="Ograve"
         unicode="Ò"
         d="M98 196l20 -18c2 -2 0 -8 -4 -6l-26 10c-4 2 -6 8 -4 12c2 6 10 6 14 2zM126 132v0c4 -32 -8 -68 -40 -84c-98 -44 -116 94 -12 118c2 0 2 0 2 2v4c10 2 14 -12 4 -14v0c0 2 -2 4 -2 4c-2 2 -6 -2 -8 -2c-22 -6 -38 -22 -48 -40c-12 -22 -10 -66 22 -70c14 -2 30 2 42 10 c8 4 12 12 18 18c12 18 18 46 8 66c-16 22 -68 -20 -72 -38c-2 -8 -2 -20 8 -24c12 -2 24 6 30 16v0c2 2 0 6 -2 8c8 10 22 0 14 -10c-2 2 -4 2 -6 0l-2 -2c-10 -18 -42 -30 -50 -4c-16 40 86 104 94 42z"
         id="glyph109" />
      <glyph
         glyph-name="Oacute"
         unicode="Ó"
         d="M68 184l-24 -10c-2 0 -4 0 -4 2v2l18 20c8 8 22 -4 14 -12c0 0 -2 -2 -4 -2zM126 132v0c4 -32 -8 -68 -40 -84c-98 -44 -116 94 -12 118c2 0 2 0 2 2v4c10 2 14 -12 4 -14v0c0 2 -2 4 -2 4c-2 2 -6 -2 -8 -2c-22 -6 -38 -22 -48 -40c-12 -22 -10 -66 22 -70 c14 -2 30 2 42 10c8 4 12 12 18 18c12 18 18 46 8 66c-16 22 -68 -20 -72 -38c-2 -8 -2 -20 8 -24c12 -2 24 6 30 16v0c2 2 0 6 -2 8c8 10 22 0 14 -10c-2 2 -4 2 -6 0l-2 -2c-10 -18 -42 -30 -50 -4c-16 40 86 104 94 42z"
         id="glyph110" />
      <glyph
         glyph-name="Ocircumflex"
         unicode="Ô"
         d="M58 176zM54 180c6 2 16 6 20 12c0 0 2 2 2 4l2 4l6 -6l8 -8s4 -2 8 -4c2 0 2 -2 4 -2c4 0 4 -2 4 -6c-2 -6 -10 -6 -12 -2c-4 6 -12 12 -18 14h-2h6c-8 -2 -16 -6 -20 -12l-2 -2c-2 -2 -6 -4 -8 -2c-4 2 -2 8 2 10v0zM126 132v0c4 -32 -8 -68 -40 -84 c-98 -44 -116 94 -12 118c2 0 2 0 2 2v4c10 2 14 -12 4 -14v0c0 2 -2 4 -2 4c-2 2 -6 -2 -8 -2c-22 -6 -38 -22 -48 -40c-12 -22 -10 -66 22 -70c14 -2 30 2 42 10c8 4 12 12 18 18c12 18 18 46 8 66c-16 22 -68 -20 -72 -38c-2 -8 -2 -20 8 -24c12 -2 24 6 30 16v0 c2 2 0 6 -2 8c8 10 22 0 14 -10c-2 2 -4 2 -6 0l-2 -2c-10 -18 -42 -30 -50 -4c-16 40 86 104 94 42z"
         id="glyph111" />
      <glyph
         glyph-name="Otilde"
         unicode="Õ"
         d="M54 174h-2c-2 2 -4 4 -2 6c2 4 4 6 8 10c6 4 10 8 14 8c6 0 12 -2 14 -4s4 -6 4 -8s2 -4 2 -4c8 0 16 10 18 14c2 2 6 4 8 2s4 -4 2 -6l-8 -8c-6 -6 -14 -10 -20 -10c-2 0 -8 0 -10 4c-2 2 -2 4 -2 6c-2 6 -2 6 -6 6c-2 0 -4 -2 -8 -6c-4 -2 -6 -6 -6 -8s-4 -2 -6 -2v0z M126 132v0c4 -32 -8 -68 -40 -84c-98 -44 -116 94 -12 118c2 0 2 0 2 2v4c10 2 14 -12 4 -14v0c0 2 -2 4 -2 4c-2 2 -6 -2 -8 -2c-22 -6 -38 -22 -48 -40c-12 -22 -10 -66 22 -70c14 -2 30 2 42 10c8 4 12 12 18 18c12 18 18 46 8 66c-16 22 -68 -20 -72 -38 c-2 -8 -2 -20 8 -24c12 -2 24 6 30 16v0c2 2 0 6 -2 8c8 10 22 0 14 -10c-2 2 -4 2 -6 0l-2 -2c-10 -18 -42 -30 -50 -4c-16 40 86 104 94 42z"
         id="glyph112" />
      <glyph
         glyph-name="Odieresis"
         unicode="Ö"
         d="M106 184c0 -6 -4 -14 -12 -14s-16 8 -16 16s6 14 14 14c10 0 14 -8 14 -16v0zM100 184c0 2 -2 4 -4 4h-2c-4 0 -6 -6 -2 -8h4s4 2 4 4zM76 184c0 -6 -6 -14 -14 -14s-14 8 -14 16s6 14 14 14c10 0 14 -8 14 -16zM70 184c0 2 -2 4 -4 4h-4c-4 0 -6 -6 -2 -8h6s4 2 4 4z M126 132v0c4 -32 -8 -68 -40 -84c-98 -44 -116 94 -12 118c2 0 2 0 2 2v4c10 2 14 -12 4 -14v0c0 2 -2 4 -2 4c-2 2 -6 -2 -8 -2c-22 -6 -38 -22 -48 -40c-12 -22 -10 -66 22 -70c14 -2 30 2 42 10c8 4 12 12 18 18c12 18 18 46 8 66c-16 22 -68 -20 -72 -38 c-2 -8 -2 -20 8 -24c12 -2 24 6 30 16v0c2 2 0 6 -2 8c8 10 22 0 14 -10c-2 2 -4 2 -6 0l-2 -2c-10 -18 -42 -30 -50 -4c-16 40 86 104 94 42z"
         id="glyph113" />
      <glyph
         glyph-name="Ntilde"
         unicode="Ñ"
         horiz-adv-x="140"
         d="M68 168h-2c-2 2 -6 4 -4 6c2 4 6 6 10 10c6 4 12 8 16 8c8 0 10 -2 12 -4s6 -6 6 -8v-2c8 0 18 8 20 12c2 2 6 4 8 2s4 -4 2 -6l-8 -8c-8 -6 -14 -10 -22 -10c-2 0 -6 0 -8 4c-2 2 -4 4 -4 6c-2 6 -2 6 -6 6c-2 0 -4 -2 -8 -6c-4 -2 -6 -6 -8 -8c0 -2 -2 -2 -4 -2v0z M140 140v0c2 -8 0 -14 -6 -20l-2 -2c-6 -4 -12 -4 -16 0l-2 4h-2l-2 2v0h-2c-2 0 -2 -2 -2 -2l-2 -2c-10 8 2 22 12 14v-2v-2h-2l2 -4h2c2 -2 4 -6 8 -6c2 0 2 2 4 4c8 8 8 20 0 26c-2 2 -6 4 -10 4c-6 0 -12 -4 -16 -8c-8 -8 -8 -6 -8 -16v-32c2 -20 2 -38 -4 -58h-4 c-4 0 -10 2 -12 6c-8 10 -10 28 -10 40c0 24 0 36 2 60v0c-10 -8 -10 -20 -10 -32c0 -18 0 -36 -4 -54c-2 -8 -6 -18 -16 -20h-8s-4 2 -6 2c-8 2 -16 8 -18 16s0 16 2 22l4 4c6 4 18 6 24 0c4 -4 6 -8 6 -12s-2 -10 -6 -12h-6h-4l-4 -2v0v0v0h-2c-4 2 -4 6 -2 10s6 6 10 4 v-2v-2v-2h4c2 0 2 4 2 6s-4 2 -6 4v2v0c-4 2 -10 0 -12 -2v0l-2 -2c-2 -4 -4 -8 -4 -12c0 -6 8 -12 14 -14c4 -2 8 -2 12 -2c8 2 12 16 12 24c2 18 0 34 0 52c0 12 0 16 8 28c2 4 8 8 14 10h4h6c-2 -24 -2 -34 -2 -58c0 -12 0 -38 6 -48c4 14 6 30 6 44s-2 14 0 28 c0 10 0 20 8 26c6 6 16 6 24 6c2 0 2 -2 4 -2c8 -2 12 -8 14 -16z"
         id="glyph114" />
      <glyph
         glyph-name="Ugrave"
         unicode="Ù"
         horiz-adv-x="128"
         d="M98 194l20 -18c2 -2 0 -8 -4 -6l-24 10c-4 2 -8 8 -6 12c2 6 10 6 14 2zM114 52v0c8 8 22 -4 14 -12c-2 0 -2 2 -4 2c-4 2 -8 -2 -12 -2c-8 0 -8 8 -10 14c-16 -16 -76 -22 -74 12c2 20 12 38 18 56c2 8 8 24 -2 28c-18 6 -42 -10 -26 -28c6 -6 18 2 20 10 c2 6 -6 12 -10 8c-2 -2 2 -6 4 -6c-2 -10 -18 -6 -16 4c2 0 6 0 8 2c6 4 16 2 18 -4c6 -14 -14 -28 -26 -22c-2 0 -2 2 -4 4c-18 20 0 42 24 42c46 0 12 -56 6 -80c-2 -6 -4 -16 -2 -22c4 -8 16 -8 24 -8c16 0 30 6 38 16c0 10 2 20 2 30c2 18 -2 46 8 62c8 6 12 -4 12 -10 c2 -30 4 -64 -16 -88c0 -6 0 -12 4 -16c2 -2 4 0 4 2s2 4 0 6h-2zM116 154v0v0zM108 74v0v0c6 10 6 20 8 32c2 14 2 28 2 42v6h-2v0v-2c-2 -2 -4 -6 -4 -8v-12c0 -6 -2 -14 -2 -20c0 -12 0 -26 -2 -38z"
         id="glyph115" />
      <glyph
         glyph-name="Uacute"
         unicode="Ú"
         horiz-adv-x="128"
         d="M76 178l-36 -10c-2 0 -6 0 -6 2s2 4 2 4l30 20c8 8 22 -6 14 -14c0 0 -2 -2 -4 -2zM114 52v0c8 8 22 -4 14 -12c-2 0 -2 2 -4 2c-4 2 -8 -2 -12 -2c-8 0 -8 8 -10 14c-16 -16 -76 -22 -74 12c2 20 12 38 18 56c2 8 8 24 -2 28c-18 6 -42 -10 -26 -28c6 -6 18 2 20 10 c2 6 -6 12 -10 8c-2 -2 2 -6 4 -6c-2 -10 -18 -6 -16 4c2 0 6 0 8 2c6 4 16 2 18 -4c6 -14 -14 -28 -26 -22c-2 0 -2 2 -4 4c-18 20 0 42 24 42c46 0 12 -56 6 -80c-2 -6 -4 -16 -2 -22c4 -8 16 -8 24 -8c16 0 30 6 38 16c0 10 2 20 2 30c2 18 -2 46 8 62c8 6 12 -4 12 -10 c2 -30 4 -64 -16 -88c0 -6 0 -12 4 -16c2 -2 4 0 4 2s2 4 0 6h-2zM116 154v0v0zM108 74v0v0c6 10 6 20 8 32c2 14 2 28 2 42v6h-2v0v-2c-2 -2 -4 -6 -4 -8v-12c0 -6 -2 -14 -2 -20c0 -12 0 -26 -2 -38z"
         id="glyph116" />
      <glyph
         glyph-name="Ucircumflex"
         unicode="Û"
         horiz-adv-x="128"
         d="M56 174zM54 178c6 2 16 6 20 12c0 0 2 0 2 2l2 6c2 -2 4 -6 6 -8s6 -4 8 -6s4 -4 8 -6h2c4 0 6 -4 6 -8c-2 -6 -10 -6 -12 -2c-4 6 -12 12 -18 14c-2 0 0 2 -2 2h6c-8 -2 -16 -8 -20 -14l-2 -2c-2 -2 -6 -4 -8 -2c-4 2 -2 10 2 12v0zM114 52v0c8 8 22 -4 14 -12 c-2 0 -2 2 -4 2c-4 2 -8 -2 -12 -2c-8 0 -8 8 -10 14c-16 -16 -76 -22 -74 12c2 20 12 38 18 56c2 8 8 24 -2 28c-18 6 -42 -10 -26 -28c6 -6 18 2 20 10c2 6 -6 12 -10 8c-2 -2 2 -6 4 -6c-2 -10 -18 -6 -16 4c2 0 6 0 8 2c6 4 16 2 18 -4c6 -14 -14 -28 -26 -22 c-2 0 -2 2 -4 4c-18 20 0 42 24 42c46 0 12 -56 6 -80c-2 -6 -4 -16 -2 -22c4 -8 16 -8 24 -8c16 0 30 6 38 16c0 10 2 20 2 30c2 18 -2 46 8 62c8 6 12 -4 12 -10c2 -30 4 -64 -16 -88c0 -6 0 -12 4 -16c2 -2 4 0 4 2s2 4 0 6h-2zM116 154v0v0zM108 74v0v0c6 10 6 20 8 32 c2 14 2 28 2 42v6h-2v0v-2c-2 -2 -4 -6 -4 -8v-12c0 -6 -2 -14 -2 -20c0 -12 0 -26 -2 -38z"
         id="glyph117" />
      <glyph
         glyph-name="Udieresis"
         unicode="Ü"
         horiz-adv-x="128"
         d="M110 180c0 -6 -4 -14 -12 -14s-16 6 -16 14s6 14 14 14c10 0 14 -6 14 -14v0zM104 180c0 2 0 2 -2 2s-2 2 -4 2c-4 0 -6 -8 -2 -10h4s4 4 4 6zM72 180c0 -6 -4 -14 -12 -14s-16 6 -16 14s6 14 14 14c10 0 14 -6 14 -14zM66 180c0 2 -2 2 -4 2s0 2 -2 2c-4 0 -6 -8 -2 -10 h4s4 4 4 6zM114 52v0c8 8 22 -4 14 -12c-2 0 -2 2 -4 2c-4 2 -8 -2 -12 -2c-8 0 -8 8 -10 14c-16 -16 -76 -22 -74 12c2 20 12 38 18 56c2 8 8 24 -2 28c-18 6 -42 -10 -26 -28c6 -6 18 2 20 10c2 6 -6 12 -10 8c-2 -2 2 -6 4 -6c-2 -10 -18 -6 -16 4c2 0 6 0 8 2 c6 4 16 2 18 -4c6 -14 -14 -28 -26 -22c-2 0 -2 2 -4 4c-18 20 0 42 24 42c46 0 12 -56 6 -80c-2 -6 -4 -16 -2 -22c4 -8 16 -8 24 -8c16 0 30 6 38 16c0 10 2 20 2 30c2 18 -2 46 8 62c8 6 12 -4 12 -10c2 -30 4 -64 -16 -88c0 -6 0 -12 4 -16c2 -2 4 0 4 2s2 4 0 6h-2z M116 154v0v0zM108 74v0v0c6 10 6 20 8 32c2 14 2 28 2 42v6h-2v0v-2c-2 -2 -4 -6 -4 -8v-12c0 -6 -2 -14 -2 -20c0 -12 0 -26 -2 -38z"
         id="glyph118" />
      <glyph
         glyph-name="agrave"
         unicode="à"
         horiz-adv-x="80"
         d="M62 148l18 -20c2 -2 0 -6 -4 -4l-24 10c-4 2 -8 6 -6 10c2 6 12 8 16 4zM68 52v0c2 8 12 8 12 0c-2 0 -4 -4 -6 -6c-2 -4 -8 -8 -14 -6c-4 2 -6 4 -6 8c-14 -8 -30 -12 -42 2c-22 28 10 68 42 64c4 4 12 6 16 4c2 0 4 0 6 2c6 -2 2 -14 -4 -12c0 2 -2 4 -4 4h-6 c24 -14 -6 -38 -10 -6c-22 0 -48 -28 -32 -50c4 -4 8 -8 14 -6s12 4 18 8c0 6 2 12 4 18c4 8 14 8 14 -2c0 -8 -6 -16 -12 -22c0 -4 2 -8 4 -8c4 0 14 4 6 8zM64 100c-2 2 -4 6 -6 6c0 -2 2 -8 4 -10h2c2 0 0 2 0 4zM62 76v0c-4 -2 -4 -8 -4 -14c2 4 6 10 6 14h-2z"
         id="glyph119" />
      <glyph
         glyph-name="aacute"
         unicode="á"
         horiz-adv-x="78"
         d="M62 132l-24 -10c-2 0 -4 0 -4 2v4l18 18c8 8 22 -4 14 -12c0 0 -2 -2 -4 -2zM68 52v0c2 8 12 8 12 0c-2 0 -4 -4 -6 -6c-2 -4 -8 -8 -14 -6c-4 2 -6 4 -6 8c-14 -8 -30 -12 -42 2c-22 28 10 68 42 64c4 4 12 6 16 4c2 0 4 0 6 2c6 -2 2 -14 -4 -12c0 2 -2 4 -4 4h-6 c24 -14 -6 -38 -10 -6c-22 0 -48 -28 -32 -50c4 -4 8 -8 14 -6s12 4 18 8c0 6 2 12 4 18c4 8 14 8 14 -2c0 -8 -6 -16 -12 -22c0 -4 2 -8 4 -8c4 0 14 4 6 8zM64 100c-2 2 -4 6 -6 6c0 -2 2 -8 4 -10h2c2 0 0 2 0 4zM62 76v0c-4 -2 -4 -8 -4 -14c2 4 6 10 6 14h-2z"
         id="glyph120" />
      <glyph
         glyph-name="acircumflex"
         unicode="â"
         horiz-adv-x="82"
         d="M32 132zM30 136c6 2 14 6 18 12c0 0 2 2 2 4l4 4l6 -6s4 -6 6 -8s6 -2 10 -4c2 0 0 -2 2 -2c4 0 6 -2 6 -6c-2 -6 -8 -6 -12 -2c-4 6 -16 14 -16 14h-6c0 0 -8 -6 -12 -12l-2 -2c-2 -2 -6 -4 -8 -2c-4 2 -2 8 2 10v0zM68 52v0c2 8 12 8 12 0c-2 0 -4 -4 -6 -6 c-2 -4 -8 -8 -14 -6c-4 2 -6 4 -6 8c-14 -8 -30 -12 -42 2c-22 28 10 68 42 64c4 4 12 6 16 4c2 0 4 0 6 2c6 -2 2 -14 -4 -12c0 2 -2 4 -4 4h-6c24 -14 -6 -38 -10 -6c-22 0 -48 -28 -32 -50c4 -4 8 -8 14 -6s12 4 18 8c0 6 2 12 4 18c4 8 14 8 14 -2c0 -8 -6 -16 -12 -22 c0 -4 2 -8 4 -8c4 0 14 4 6 8zM64 100c-2 2 -4 6 -6 6c0 -2 2 -8 4 -10h2c2 0 0 2 0 4zM62 76v0c-4 -2 -4 -8 -4 -14c2 4 6 10 6 14h-2z"
         id="glyph121" />
      <glyph
         glyph-name="atilde"
         unicode="ã"
         horiz-adv-x="78"
         d="M28 124h-2c-2 0 -2 4 -2 6c2 2 4 6 6 10c4 4 8 8 12 8c6 0 8 -2 10 -4s4 -6 4 -8v-4c6 0 14 10 16 14c2 2 2 2 4 0s4 -4 2 -6c0 0 -2 -4 -6 -8c-6 -6 -10 -8 -16 -8c-2 0 -4 0 -6 4c0 2 -2 4 -2 6c-2 6 -4 4 -6 4s-4 0 -6 -4c-2 -2 -4 -6 -4 -8s-2 -2 -4 -2v0zM68 52v0 c2 8 12 8 12 0c-2 0 -4 -4 -6 -6c-2 -4 -8 -8 -14 -6c-4 2 -6 4 -6 8c-14 -8 -30 -12 -42 2c-22 28 10 68 42 64c4 4 12 6 16 4c2 0 4 0 6 2c6 -2 2 -14 -4 -12c0 2 -2 4 -4 4h-6c24 -14 -6 -38 -10 -6c-22 0 -48 -28 -32 -50c4 -4 8 -8 14 -6s12 4 18 8c0 6 2 12 4 18 c4 8 14 8 14 -2c0 -8 -6 -16 -12 -22c0 -4 2 -8 4 -8c4 0 14 4 6 8zM64 100c-2 2 -4 6 -6 6c0 -2 2 -8 4 -10h2c2 0 0 2 0 4zM62 76v0c-4 -2 -4 -8 -4 -14c2 4 6 10 6 14h-2z"
         id="glyph122" />
      <glyph
         glyph-name="adieresis"
         unicode="ä"
         horiz-adv-x="80"
         d="M80 138c0 -6 -4 -14 -12 -14s-16 6 -16 14s6 14 14 14c10 0 14 -6 14 -14v0zM74 138c0 2 0 4 -2 4h-4c-4 0 -6 -8 -2 -10h4s4 4 4 6zM50 138c0 -6 -4 -14 -12 -14s-16 6 -16 14s6 14 14 14c10 0 14 -6 14 -14zM44 138c0 2 0 4 -2 4h-4c-4 0 -6 -8 -2 -10h4s4 4 4 6z M68 52v0c2 8 12 8 12 0c-2 0 -4 -4 -6 -6c-2 -4 -8 -8 -14 -6c-4 2 -6 4 -6 8c-14 -8 -30 -12 -42 2c-22 28 10 68 42 64c4 4 12 6 16 4c2 0 4 0 6 2c6 -2 2 -14 -4 -12c0 2 -2 4 -4 4h-6c24 -14 -6 -38 -10 -6c-22 0 -48 -28 -32 -50c4 -4 8 -8 14 -6s12 4 18 8 c0 6 2 12 4 18c4 8 14 8 14 -2c0 -8 -6 -16 -12 -22c0 -4 2 -8 4 -8c4 0 14 4 6 8zM64 100c-2 2 -4 6 -6 6c0 -2 2 -8 4 -10h2c2 0 0 2 0 4zM62 76v0c-4 -2 -4 -8 -4 -14c2 4 6 10 6 14h-2z"
         id="glyph123" />
      <glyph
         glyph-name="egrave"
         unicode="è"
         horiz-adv-x="80"
         d="M62 142l18 -20c2 -2 0 -8 -4 -6l-24 10c-4 2 -8 8 -6 12c2 6 12 8 16 4zM74 56v0c4 -4 6 -8 2 -12c-8 2 -10 0 -18 -2c-14 -4 -38 0 -38 18c-10 2 -6 6 -14 2c-6 8 6 18 12 10c0 0 -4 -2 -2 -4s4 -2 6 -2c4 20 20 58 44 44c6 -4 8 -14 6 -20c-4 -18 -24 -28 -42 -30 c0 -10 10 -12 18 -14c6 -2 22 0 14 10c4 4 8 4 12 0zM44 94c-6 -8 -8 -18 -12 -26c12 6 22 16 30 26c2 4 2 10 -4 10s-10 -6 -14 -10z"
         id="glyph124" />
      <glyph
         glyph-name="eacute"
         unicode="é"
         horiz-adv-x="76"
         d="M62 126l-24 -10c-2 0 -4 0 -4 2v4l18 20c8 8 22 -6 14 -14c0 0 -2 -2 -4 -2zM74 56v0c4 -4 6 -8 2 -12c-8 2 -10 0 -18 -2c-14 -4 -38 0 -38 18c-10 2 -6 6 -14 2c-6 8 6 18 12 10c0 0 -4 -2 -2 -4s4 -2 6 -2c4 20 20 58 44 44c6 -4 8 -14 6 -20c-4 -18 -24 -28 -42 -30 c0 -10 10 -12 18 -14c6 -2 22 0 14 10c4 4 8 4 12 0zM44 94c-6 -8 -8 -18 -12 -26c12 6 22 16 30 26c2 4 2 10 -4 10s-10 -6 -14 -10z"
         id="glyph125" />
      <glyph
         glyph-name="ecircumflex"
         unicode="ê"
         horiz-adv-x="78"
         d="M38 122zM36 128c6 2 12 6 16 10l2 4l2 4c2 -2 2 -6 4 -8l6 -6s6 -2 8 -4h2c2 0 4 -4 4 -8c0 -6 -8 -6 -10 -2c-4 6 -12 14 -12 14h-4s-6 -8 -10 -12l-2 -2c-2 -2 -6 -4 -8 -2c-4 2 -2 10 2 12v0zM74 56v0c4 -4 6 -8 2 -12c-8 2 -10 0 -18 -2c-14 -4 -38 0 -38 18 c-10 2 -6 6 -14 2c-6 8 6 18 12 10c0 0 -4 -2 -2 -4s4 -2 6 -2c4 20 20 58 44 44c6 -4 8 -14 6 -20c-4 -18 -24 -28 -42 -30c0 -10 10 -12 18 -14c6 -2 22 0 14 10c4 4 8 4 12 0zM44 94c-6 -8 -8 -18 -12 -26c12 6 22 16 30 26c2 4 2 10 -4 10s-10 -6 -14 -10z"
         id="glyph126" />
      <glyph
         glyph-name="edieresis"
         unicode="ë"
         horiz-adv-x="78"
         d="M78 128c0 -6 -6 -10 -12 -10c-8 0 -12 4 -12 12c0 6 6 12 12 12c8 0 12 -8 12 -14v0zM74 128c0 2 -2 4 -4 4h-4c-4 0 -4 -4 0 -6c2 0 0 -2 2 -2s6 2 6 4zM48 128c0 -6 -6 -10 -12 -10c-8 0 -12 4 -12 12c0 6 6 12 12 12c8 0 12 -8 12 -14zM42 128c0 2 0 4 -2 4h-4 c-4 0 -4 2 0 0c2 0 0 -8 2 -8s4 2 4 4zM74 56v0c4 -4 6 -8 2 -12c-8 2 -10 0 -18 -2c-14 -4 -38 0 -38 18c-10 2 -6 6 -14 2c-6 8 6 18 12 10c0 0 -4 -2 -2 -4s4 -2 6 -2c4 20 20 58 44 44c6 -4 8 -14 6 -20c-4 -18 -24 -28 -42 -30c0 -10 10 -12 18 -14c6 -2 22 0 14 10 c4 4 8 4 12 0zM44 94c-6 -8 -8 -18 -12 -26c12 6 22 16 30 26c2 4 2 10 -4 10s-10 -6 -14 -10z"
         id="glyph127" />
      <glyph
         glyph-name="idieresis"
         unicode="ï"
         horiz-adv-x="88"
         d="M74 56v0c12 6 22 -12 10 -18c-2 2 -4 6 -6 6c-10 -2 -14 -10 -26 0c-4 2 -8 6 -10 10c-4 -4 -8 -6 -12 -10c-2 -2 -2 -4 -4 -6c-4 -6 -12 -4 -18 0c-10 10 0 26 14 20c6 -2 12 -2 18 2c-6 12 -6 28 -2 40c2 12 20 18 20 2c0 -14 -2 -28 -10 -40c2 -6 2 -12 8 -14 c4 0 6 2 10 0c2 0 6 0 8 2v6zM46 92v0v-26c6 10 8 20 8 32c0 4 0 10 -4 6c-4 -2 -4 -8 -4 -12zM44 128c0 -6 -6 -14 -14 -14s-14 8 -14 16s6 14 14 14c10 0 14 -8 14 -16v0zM38 128c0 2 -2 4 -4 4h-4c-4 0 -6 -8 -2 -10h6s4 4 4 6zM82 128c0 -6 -4 -14 -12 -14s-16 8 -16 16 s6 14 14 14c10 0 14 -8 14 -16v0zM76 128c0 2 0 4 -2 4h-4c-4 0 -6 -8 -2 -10h4s4 4 4 6z"
         id="glyph128" />
      <glyph
         glyph-name="icircumflex"
         unicode="î"
         horiz-adv-x="88"
         d="M30 122zM26 126c6 2 16 6 20 12c0 0 2 0 2 2l2 6c2 -2 4 -6 6 -8s6 -4 8 -6s4 -4 8 -6h4c4 0 4 -4 4 -8c-2 -6 -8 -6 -12 -2c-4 6 -16 16 -16 16h-4c0 0 -10 -8 -14 -14l-2 -2c-2 -2 -6 -4 -8 -2c-4 2 -2 10 2 12v0zM74 56v0c12 6 22 -12 10 -18c-2 2 -4 6 -6 6 c-10 -2 -14 -10 -26 0c-4 2 -8 6 -10 10c-4 -4 -8 -6 -12 -10c-2 -2 -2 -4 -4 -6c-4 -6 -12 -4 -18 0c-10 10 0 26 14 20c6 -2 12 -2 18 2c-6 12 -6 28 -2 40c2 12 20 18 20 2c0 -14 -2 -28 -10 -40c2 -6 2 -12 8 -14c4 0 6 2 10 0c2 0 6 0 8 2v6zM46 92v0v-26 c6 10 8 20 8 32c0 4 0 10 -4 6c-4 -2 -4 -8 -4 -12z"
         id="glyph129" />
      <glyph
         glyph-name="iacute"
         unicode="í"
         horiz-adv-x="88"
         d="M60 126l-24 -10c-2 0 -4 0 -4 2v4l20 18c8 8 20 -4 12 -12c0 0 -2 -2 -4 -2zM74 56v0c12 6 22 -12 10 -18c-2 2 -4 6 -6 6c-10 -2 -14 -10 -26 0c-4 2 -8 6 -10 10c-4 -4 -8 -6 -12 -10c-2 -2 -2 -4 -4 -6c-4 -6 -12 -4 -18 0c-10 10 0 26 14 20c6 -2 12 -2 18 2 c-6 12 -6 28 -2 40c2 12 20 18 20 2c0 -14 -2 -28 -10 -40c2 -6 2 -12 8 -14c4 0 6 2 10 0c2 0 6 0 8 2v6zM46 92v0v-26c6 10 8 20 8 32c0 4 0 10 -4 6c-4 -2 -4 -8 -4 -12z"
         id="glyph130" />
      <glyph
         glyph-name="igrave"
         unicode="ì"
         horiz-adv-x="88"
         d="M54 138l18 -18c2 -2 0 -8 -4 -6l-24 10c-4 2 -8 8 -6 12c2 6 12 6 16 2zM74 56v0c12 6 22 -10 10 -16c-2 2 -4 4 -6 4c-10 -2 -14 -10 -26 0c-4 2 -8 8 -10 12l-12 -12c-2 -2 -2 -4 -4 -6c-4 -6 -12 -4 -18 0c-10 10 0 26 14 20c6 -2 12 -2 18 2c-6 12 -6 28 -2 40 c2 12 20 18 20 2c0 -14 -2 -28 -10 -40c2 -6 2 -10 8 -12c4 0 6 0 10 -2c2 0 6 0 8 2v6zM46 92v0v-26c6 10 8 20 8 32c0 4 0 10 -4 6c-4 -2 -4 -8 -4 -12z"
         id="glyph131" />
      <glyph
         glyph-name="aring"
         unicode="å"
         horiz-adv-x="78"
         d="M64 136c0 -6 -4 -14 -12 -14s-16 8 -16 16s6 14 14 14c10 0 14 -8 14 -16zM58 136c0 2 -2 4 -4 4h-2c-4 0 -6 -6 -2 -8h4s4 2 4 4zM68 52v0c2 8 12 8 12 0c-2 0 -4 -4 -6 -6c-2 -4 -8 -8 -14 -6c-4 2 -6 4 -6 8c-14 -8 -30 -12 -42 2c-22 28 10 68 42 64c4 4 12 6 16 4 c2 0 4 0 6 2c6 -2 2 -14 -4 -12c0 2 -2 4 -4 4h-6c24 -14 -6 -38 -10 -6c-22 0 -48 -28 -32 -50c4 -4 8 -8 14 -6s12 4 18 8c0 6 2 12 4 18c4 8 14 8 14 -2c0 -8 -6 -16 -12 -22c0 -4 2 -8 4 -8c4 0 14 4 6 8zM64 100c-2 2 -4 6 -6 6c0 -2 2 -8 4 -10h2c2 0 0 2 0 4zM62 76 v0c-4 -2 -4 -8 -4 -14c2 4 6 10 6 14h-2z"
         id="glyph132" />
      <glyph
         glyph-name="ordmasculine"
         unicode="º"
         horiz-adv-x="30"
         d="M32 142c0 -6 -4 -14 -12 -14s-16 8 -16 16s6 14 14 14c10 0 14 -8 14 -16v0zM26 142c0 2 -2 4 -4 4h-2c-4 0 -6 -8 -2 -10h4s4 4 4 6z"
         id="glyph133" />
      <glyph
         glyph-name="degree"
         unicode="°"
         horiz-adv-x="24"
         d="M26 144c0 -6 -4 -10 -10 -10s-12 6 -12 12s4 10 10 10s12 -6 12 -12v0zM20 144c0 2 0 4 -2 4h-2c-4 0 -4 -4 -2 -6c0 0 2 -2 4 -2s2 2 2 4z"
         id="glyph134" />
      <glyph
         glyph-name="guillemotleft"
         unicode="«"
         horiz-adv-x="38"
         d="M14 124h-2c-4 2 -6 6 -8 10v8c0 6 2 12 2 12c0 2 6 2 8 2s4 -4 4 -6c0 0 -2 -4 -2 -8v-6c2 -2 4 -6 4 -8s-4 -4 -6 -4v0zM34 124h-2c-4 2 -4 6 -6 10c0 2 -2 4 -2 8c0 6 2 10 2 10c0 2 6 4 8 4s4 -4 4 -6c0 0 -2 -4 -2 -8v-6c2 -2 4 -6 4 -8s-4 -4 -6 -4v0z"
         id="glyph135" />
      <glyph
         glyph-name="percent"
         unicode="%"
         horiz-adv-x="92"
         d="M10 42h-2c-2 2 -6 6 -4 8l80 102c2 2 4 4 6 2s6 -6 4 -8l-80 -102c0 -2 -2 -2 -4 -2v0zM82 84c0 -6 -4 -14 -12 -14s-16 6 -16 14s6 14 14 14c10 0 14 -6 14 -14v0zM76 84c0 2 0 4 -2 4h-4c-4 0 -6 -8 -2 -10h4s4 4 4 6zM48 116c0 -6 -4 -14 -12 -14s-16 8 -16 16 s6 14 14 14c10 0 14 -8 14 -16v0zM42 116c0 2 0 4 -2 4h-4c-4 0 -6 -6 -2 -8c2 0 2 -2 4 -2s4 4 4 6z"
         id="glyph136" />
      <glyph
         glyph-name="ntilde"
         unicode="ñ"
         horiz-adv-x="80"
         d="M18 132h-2c-2 0 -2 4 -2 6c2 2 4 6 6 8c4 4 8 6 12 6s6 -2 8 -4s4 -4 4 -6v-2c6 0 12 8 14 10s2 2 4 2s4 -4 2 -6l-6 -6s-10 -8 -14 -8c-2 0 -4 2 -6 4c0 2 -2 2 -2 4c-2 4 -2 4 -4 4c0 0 -4 0 -6 -2s-4 -6 -4 -8s-2 -2 -4 -2v0zM74 62v0c4 0 6 -6 6 -10c-2 0 -4 0 -6 -2 c-8 -18 -32 -10 -30 8c0 14 14 28 8 42c-6 8 -14 4 -20 -2c6 -12 2 -24 0 -36c-2 -6 -2 -16 -6 -20c-10 -4 -14 12 -14 18c-2 14 0 28 8 38c0 4 -2 8 -6 8c-2 0 -2 -2 -2 -4c-10 -2 -12 12 -2 14c4 -8 6 -2 16 -12c16 18 38 12 38 -12c0 -14 -6 -26 -8 -38c0 -2 0 -4 2 -4 c2 -2 6 -2 8 0s4 4 0 6h-2c0 4 6 6 10 6zM22 46v0v0zM24 62v0c0 8 -2 16 -2 24c-6 -10 -4 -28 0 -38c2 4 2 10 2 14z"
         id="glyph137" />
      <glyph
         glyph-name="guillemotright"
         unicode="»"
         horiz-adv-x="38"
         d="M30 158h2c4 -2 6 -4 8 -8v-8c0 -6 -2 -12 -2 -12c0 -2 -6 -2 -8 -2s-4 4 -4 6c0 0 2 2 2 6v8c-2 0 -4 4 -4 6s4 4 6 4v0zM10 158h2c4 -2 4 -4 6 -8c0 -2 2 -4 2 -8c0 -6 -2 -12 -2 -12c0 -2 -6 -2 -8 -2s-4 4 -4 6c0 0 2 2 2 6v8c-2 0 -4 4 -4 6s4 4 6 4v0z"
         id="glyph138" />
      <glyph
         glyph-name="ograve"
         unicode="ò"
         horiz-adv-x="90"
         d="M60 158l20 -20c2 -2 0 -8 -4 -6l-26 10c-4 2 -6 8 -4 12c2 6 10 8 14 4zM90 106v0c2 -2 2 -6 0 -8h-4c-6 -4 -6 -10 -10 -14c0 -8 -2 -18 -6 -24c-12 -24 -60 -30 -66 2c-4 22 14 42 34 50c2 0 2 4 2 6v0c8 4 14 -10 6 -14c-2 2 -4 4 -6 4c-16 -4 -24 -20 -26 -36 c-4 -20 18 -26 34 -20c10 4 16 12 18 22c-8 -8 -22 -16 -32 -6c-18 16 34 54 40 24c2 2 6 4 8 8c0 2 -2 4 -2 6c2 2 8 2 10 0zM58 76v0c4 2 6 6 10 10c0 24 -32 2 -30 -10c0 -2 0 -2 2 -2c6 -4 12 0 18 2z"
         id="glyph139" />
      <glyph
         glyph-name="oacute"
         unicode="ó"
         horiz-adv-x="90"
         d="M50 142l-24 -10c-2 0 -4 0 -4 2v4l18 18c8 8 22 -4 14 -12c0 0 -2 -2 -4 -2zM90 106v0c2 -2 2 -6 0 -8h-4c-6 -4 -6 -10 -10 -14c0 -8 -2 -18 -6 -24c-12 -24 -60 -30 -66 2c-4 22 14 42 34 50c2 0 2 4 2 6v0c8 4 14 -10 6 -14c-2 2 -4 4 -6 4c-16 -4 -24 -20 -26 -36 c-4 -20 18 -26 34 -20c10 4 16 12 18 22c-8 -8 -22 -16 -32 -6c-18 16 34 54 40 24c2 2 6 4 8 8c0 2 -2 4 -2 6c2 2 8 2 10 0zM58 76v0c4 2 6 6 10 10c0 24 -32 2 -30 -10c0 -2 0 -2 2 -2c6 -4 12 0 18 2zM90 106v0c2 -2 2 -6 0 -8h-4c-6 -4 -6 -10 -10 -14 c0 -8 -2 -18 -6 -24c-12 -24 -60 -30 -66 2c-4 22 14 42 34 50c2 0 2 4 2 6v0c8 4 14 -10 6 -14c-2 2 -4 4 -6 4c-16 -4 -24 -20 -26 -36c-4 -20 18 -26 34 -20c10 4 16 12 18 22c-8 -8 -22 -16 -32 -6c-18 16 34 54 40 24c2 2 6 4 8 8c0 2 -2 4 -2 6c2 2 8 2 10 0zM58 76v0 c4 2 6 6 10 10c0 24 -32 2 -30 -10c0 -2 0 -2 2 -2c6 -4 12 0 18 2z"
         id="glyph140" />
      <glyph
         glyph-name="ocircumflex"
         unicode="ô"
         horiz-adv-x="90"
         d="M24 134zM20 138c6 2 16 6 20 12c0 0 2 2 2 4l2 4c2 -2 4 -6 6 -8s6 -4 8 -6s4 -2 8 -4c2 0 2 -2 4 -2c4 0 4 -2 4 -6c-2 -6 -8 -6 -12 -2c-4 6 -16 14 -16 14h-4c0 0 -10 -6 -14 -12l-2 -2c-2 -2 -6 -4 -8 -2c-4 2 -2 8 2 10v0zM90 106v0c2 -2 2 -6 0 -8h-4 c-6 -4 -6 -10 -10 -14c0 -8 -2 -18 -6 -24c-12 -24 -60 -30 -66 2c-4 22 14 42 34 50c2 0 2 4 2 6v0c8 4 14 -10 6 -14c-2 2 -4 4 -6 4c-16 -4 -24 -20 -26 -36c-4 -20 18 -26 34 -20c10 4 16 12 18 22c-8 -8 -22 -16 -32 -6c-18 16 34 54 40 24c2 2 6 4 8 8c0 2 -2 4 -2 6 c2 2 8 2 10 0zM58 76v0c4 2 6 6 10 10c0 24 -32 2 -30 -10c0 -2 0 -2 2 -2c6 -4 12 0 18 2z"
         id="glyph141" />
      <glyph
         glyph-name="otilde"
         unicode="õ"
         horiz-adv-x="90"
         d="M30 130v0c-2 0 -2 2 -2 4c2 2 4 6 6 10c4 4 6 8 10 8s6 -2 8 -4s4 -6 4 -8v-2c6 0 12 8 14 12c2 2 2 2 4 0s4 -2 2 -4c0 0 -2 -4 -6 -8c-4 -6 -10 -8 -14 -8c-2 0 -4 -2 -6 2c0 2 -2 4 -2 6c-2 6 -2 6 -4 6c0 0 -4 -2 -6 -6c-2 -2 -4 -4 -4 -6s-2 -2 -4 -2v0zM90 106v0 c2 -2 2 -6 0 -8h-4c-6 -4 -6 -10 -10 -14c0 -8 -2 -18 -6 -24c-12 -24 -60 -30 -66 2c-4 22 14 42 34 50c2 0 2 4 2 6v0c8 4 14 -10 6 -14c-2 2 -4 4 -6 4c-16 -4 -24 -20 -26 -36c-4 -20 18 -26 34 -20c10 4 16 12 18 22c-8 -8 -22 -16 -32 -6c-18 16 34 54 40 24 c2 2 6 4 8 8c0 2 -2 4 -2 6c2 2 8 2 10 0zM58 76v0c4 2 6 6 10 10c0 24 -32 2 -30 -10c0 -2 0 -2 2 -2c6 -4 12 0 18 2z"
         id="glyph142" />
      <glyph
         glyph-name="odieresis"
         unicode="ö"
         horiz-adv-x="90"
         d="M82 144c0 -6 -6 -14 -14 -14s-14 6 -14 14s6 14 14 14c10 0 14 -6 14 -14v0zM76 144c0 2 -2 4 -4 4h-4c-4 0 -6 -8 -2 -10h6s4 4 4 6zM46 144c0 -6 -6 -14 -14 -14s-14 6 -14 14s6 14 14 14c10 0 14 -6 14 -14zM40 144c0 2 -2 4 -4 4h-4c-4 0 -6 -8 -2 -10h4s6 4 6 6z M90 106v0c2 -2 2 -6 0 -8h-4c-6 -4 -6 -10 -10 -14c0 -8 -2 -18 -6 -24c-12 -24 -60 -30 -66 2c-4 22 14 42 34 50c2 0 2 4 2 6v0c8 4 14 -10 6 -14c-2 2 -4 4 -6 4c-16 -4 -24 -20 -26 -36c-4 -20 18 -26 34 -20c10 4 16 12 18 22c-8 -8 -22 -16 -32 -6c-18 16 34 54 40 24 c2 2 6 4 8 8c0 2 -2 4 -2 6c2 2 8 2 10 0zM58 76v0c4 2 6 6 10 10c0 24 -32 2 -30 -10c0 -2 0 -2 2 -2c6 -4 12 0 18 2z"
         id="glyph143" />
      <glyph
         glyph-name="ugrave"
         unicode="ù"
         horiz-adv-x="82"
         d="M46 146l18 -20c2 -2 0 -6 -4 -4l-24 10c-4 2 -6 6 -4 10c2 6 10 8 14 4zM72 48v0c6 6 14 -2 8 -8c-2 0 -4 2 -6 0c-4 -2 -10 0 -12 4c-14 -6 -34 -4 -42 8c-4 6 -4 12 -6 18c-2 -2 -2 -2 -4 -2c-8 2 -6 16 2 14c0 -2 0 -4 2 -4c0 10 -2 20 2 28c2 6 4 8 10 4 c10 -12 8 -28 -6 -36c2 -8 4 -14 10 -20c8 -6 20 -6 28 -2c-2 14 0 28 0 42c4 54 36 -20 6 -48c2 -4 6 -4 8 -2s2 2 0 4zM22 108v0v0zM22 108c-4 -8 -6 -18 -4 -28c14 8 12 18 4 28zM66 102v0c0 2 -2 2 -2 4c-2 -16 2 -32 0 -48c8 12 8 30 2 44z"
         id="glyph144" />
      <glyph
         glyph-name="uacute"
         unicode="ú"
         horiz-adv-x="82"
         d="M52 132l-24 -10c-2 0 -4 0 -4 2v4l18 18c8 8 22 -4 14 -12c0 0 -2 -2 -4 -2zM72 48v0c6 6 14 -2 8 -8c-2 0 -4 2 -6 0c-4 -2 -10 0 -12 4c-14 -6 -34 -4 -42 8c-4 6 -4 12 -6 18c-2 -2 -2 -2 -4 -2c-8 2 -6 16 2 14c0 -2 0 -4 2 -4c0 10 -2 20 2 28c2 6 4 8 10 4 c10 -12 8 -28 -6 -36c2 -8 4 -14 10 -20c8 -6 20 -6 28 -2c-2 14 0 28 0 42c4 54 36 -20 6 -48c2 -4 6 -4 8 -2s2 2 0 4zM22 108v0v0zM22 108c-4 -8 -6 -18 -4 -28c14 8 12 18 4 28zM66 102v0c0 2 -2 2 -2 4c-2 -16 2 -32 0 -48c8 12 8 30 2 44z"
         id="glyph145" />
      <glyph
         glyph-name="ucircumflex"
         unicode="û"
         horiz-adv-x="82"
         d="M30 128zM28 134c6 2 12 6 16 12c0 0 2 2 2 4l2 4c2 -2 4 -6 6 -8l6 -6s6 -4 8 -6h2c2 0 4 -4 4 -8c0 -6 -8 -6 -10 -2c-4 6 -14 16 -14 16h-4s-8 -8 -12 -14c0 0 -2 0 -2 -2c-2 -2 -4 -4 -6 -2c-4 4 -2 10 2 12v0zM72 48v0c6 6 14 -2 8 -8c-2 0 -4 2 -6 0 c-4 -2 -10 0 -12 4c-14 -6 -34 -4 -42 8c-4 6 -4 12 -6 18c-2 -2 -2 -2 -4 -2c-8 2 -6 16 2 14c0 -2 0 -4 2 -4c0 10 -2 20 2 28c2 6 4 8 10 4c10 -12 8 -28 -6 -36c2 -8 4 -14 10 -20c8 -6 20 -6 28 -2c-2 14 0 28 0 42c4 54 36 -20 6 -48c2 -4 6 -4 8 -2s2 2 0 4zM22 108 v0v0zM22 108c-4 -8 -6 -18 -4 -28c14 8 12 18 4 28zM66 102v0c0 2 -2 2 -2 4c-2 -16 2 -32 0 -48c8 12 8 30 2 44z"
         id="glyph146" />
      <glyph
         glyph-name="udieresis"
         unicode="ü"
         horiz-adv-x="82"
         d="M72 132c0 -4 -4 -10 -10 -10s-12 6 -12 12s6 8 12 8c8 0 10 -4 10 -10v0zM68 132c0 2 0 2 -2 2h-4c-4 0 -4 -4 0 -6h2s4 2 4 4zM42 132c0 -4 -4 -10 -10 -10s-14 6 -14 12s6 8 12 8c8 0 12 -4 12 -10zM36 132c0 2 0 2 -2 2h-2c-4 0 -6 -4 -2 -6h2s4 2 4 4zM72 48v0 c6 6 14 -2 8 -8c-2 0 -4 2 -6 0c-4 -2 -10 0 -12 4c-14 -6 -34 -4 -42 8c-4 6 -4 12 -6 18c-2 -2 -2 -2 -4 -2c-8 2 -6 16 2 14c0 -2 0 -4 2 -4c0 10 -2 20 2 28c2 6 4 8 10 4c10 -12 8 -28 -6 -36c2 -8 4 -14 10 -20c8 -6 20 -6 28 -2c-2 14 0 28 0 42c4 54 36 -20 6 -48 c2 -4 6 -4 8 -2s2 2 0 4zM22 108v0v0zM22 108c-4 -8 -6 -18 -4 -28c14 8 12 18 4 28zM66 102v0c0 2 -2 2 -2 4c-2 -16 2 -32 0 -48c8 12 8 30 2 44z"
         id="glyph147" />
      <glyph
         glyph-name="Aring"
         unicode="Å"
         d="M112 184c0 -6 -4 -14 -12 -14s-14 8 -14 16s4 14 12 14c10 0 14 -8 14 -16v0zM108 184c0 2 -2 4 -4 4h-4c-4 0 -6 -6 -2 -8c2 0 2 -2 4 -2s6 4 6 6zM126 82v0c4 -14 -6 -32 -20 -40c-6 -2 -12 -2 -18 -2c4 22 8 46 10 68c-4 4 -10 8 -16 10c-8 -18 -26 -72 -50 -78 c-26 -6 -36 16 -20 32c4 4 10 8 16 8c2 0 2 2 4 4c12 -2 10 -16 -2 -14c0 2 0 6 -2 6c-6 0 -12 -2 -14 -6s-4 -10 -4 -14c28 -34 52 52 60 66c-16 4 -36 8 -48 -4c0 -2 2 -4 4 -4c-2 -8 -20 -6 -18 2c20 14 40 20 66 12c4 10 8 18 12 26v0c6 8 26 6 26 -4v-4l-6 -36 c12 -8 18 -16 20 -28zM102 152v0v0zM96 118v0l2 -2c2 12 2 24 4 36c-2 0 -6 0 -6 -2c-4 -8 -8 -18 -12 -28c4 -2 8 -2 12 -4zM102 48v0v0zM116 72c2 12 -2 22 -12 30c-2 -18 -4 -36 -4 -54c2 0 2 2 2 2c6 6 14 12 14 22z"
         id="glyph148" />
      <glyph
         glyph-name="onequarter"
         unicode="¼"
         horiz-adv-x="120"
         d="M120 70v0c2 -4 0 -8 -4 -8h-12c0 -4 2 -8 2 -12s-2 -8 -6 -8s-8 0 -8 4s4 12 4 16c-12 0 -26 -2 -36 2c-8 4 -4 12 0 18c4 4 8 6 12 10l4 4c2 4 6 8 12 6c8 -4 4 -12 -4 -12c-2 0 -6 0 -8 -2c-6 -4 -8 -12 -10 -18c2 -6 24 -4 30 -2v14c0 2 0 2 -2 4s0 6 2 8 c6 4 16 -2 10 -8c-2 -2 -2 -2 -2 -4v-12c2 0 4 2 6 2c4 2 8 2 10 -2zM12 144c14 -2 22 6 28 16l6 -4c6 -18 4 -34 2 -52c-2 -10 -18 -4 -12 4c4 10 14 32 4 40v0c-2 0 -4 -2 -6 -4c-6 -4 -14 -6 -20 -10c-12 -4 -14 12 -2 10v0zM30 48h-2c-2 2 -6 4 -4 6l54 86c2 2 4 4 6 2 s6 -4 4 -6l-54 -86c0 -2 -2 -2 -4 -2v0z"
         id="glyph149" />
      <glyph
         glyph-name="onehalf"
         unicode="½"
         horiz-adv-x="124"
         d="M118 40c-14 0 -30 2 -44 0c-2 0 -6 2 -8 2c-12 10 4 20 16 24c8 4 24 10 26 18c-2 6 -14 6 -22 6c-6 0 -24 -4 -14 -10s-6 -14 -10 -6c-14 28 74 28 46 0c-8 -8 -20 -12 -30 -18c-4 -2 -8 -6 -4 -10l-4 2c4 0 6 -2 10 -2c10 -2 24 2 34 4c12 4 16 -10 4 -10v0zM12 144 c14 -2 22 6 28 16l6 -4c6 -18 4 -34 2 -52c-2 -10 -18 -4 -12 4c4 10 14 32 4 40v0c-2 0 -4 -2 -6 -4c-6 -4 -14 -6 -20 -10c-12 -4 -14 12 -2 10v0zM30 48h-2c-2 2 -6 4 -4 6l54 86c2 2 4 4 6 2s6 -4 4 -6l-54 -86c0 -2 -2 -2 -4 -2v0z"
         id="glyph150" />
      <glyph
         glyph-name="threequarters"
         unicode="¾"
         horiz-adv-x="122"
         d="M56 122v0c4 -4 4 -12 0 -16c-8 -8 -22 -12 -34 -10c-6 0 -14 2 -16 8c-2 2 0 8 4 6l4 -2v0c2 -2 6 -4 10 -4c8 0 18 2 24 8c2 2 4 4 2 6c-2 6 -30 0 -36 4c-2 2 -2 4 0 6c8 6 26 4 34 8c2 2 4 4 2 6c-6 8 -22 6 -32 4c-2 0 -4 0 -4 -2v0c4 -2 6 -6 4 -8 c-4 -4 -14 -4 -14 2c-2 10 4 14 16 14c10 0 24 0 32 -6c4 -4 4 -10 0 -14s-8 -4 -12 -4c6 0 12 -2 16 -6zM20 124v0v0zM122 70v0c2 -4 -2 -8 -6 -8h-10c0 -4 2 -8 2 -12s-2 -8 -6 -8s-8 0 -8 4s2 12 2 16c-12 0 -24 -2 -34 2c-8 4 -4 12 0 18l10 10c2 2 4 2 6 4 c2 4 4 8 10 6c8 -4 4 -12 -4 -12c-2 0 -6 0 -8 -2c-6 -4 -8 -12 -10 -18c2 -6 26 -4 32 -2v14c0 2 0 2 -2 4s-2 6 0 8c6 4 16 -2 10 -8c-2 -2 -2 -2 -2 -4v-12c2 0 6 2 8 2c4 2 8 2 10 -2zM30 48h-2c-2 2 -4 4 -2 6l54 86c2 2 4 4 6 2s4 -4 2 -6l-52 -86c0 -2 -4 -2 -6 -2v0 z"
         id="glyph151" />
      <glyph
         glyph-name="questiondown"
         unicode="¿"
         horiz-adv-x="56"
         d="M14 146c0 6 6 12 14 12c6 0 12 -4 14 -8v-6v-4c-2 -2 -4 -4 -8 -4h-8s-6 0 -8 2c-4 2 -4 4 -4 8v0zM22 146v0l2 -2v-4c0 -2 2 0 4 0s4 0 4 2v2v2c0 2 0 4 -4 4s-6 -2 -6 -4v0zM54 64c-2 -2 -4 -2 -4 -4v-4s-2 0 -2 -2v-4s-2 -2 -4 -4c-4 -4 -8 -6 -14 -6h-10 c-4 2 -10 4 -12 8c-2 2 -4 2 -4 4v8c0 6 -2 12 2 18l12 24c0 2 2 2 2 4v6s2 2 2 4s0 2 2 2c2 2 6 2 8 0s4 -4 4 -6v-4v-4c-2 -6 -8 -22 -12 -26c-2 -4 -6 -8 -8 -12s0 -6 0 -10v-2c0 -2 -2 -4 0 -4c4 -2 10 -4 14 -4s8 0 10 2s2 4 2 6s-2 2 -2 4v4l-2 2c-6 4 -6 10 -2 14 s10 6 16 2s6 -12 2 -16v0z"
         id="glyph152" />
      <glyph
         glyph-name="sterling"
         unicode="£"
         horiz-adv-x="118"
         d="M102 60v0c12 8 24 -8 14 -18c-4 2 -8 4 -12 2c-18 -10 -34 -4 -52 -6c-2 0 -4 -2 -6 -2h-8c-8 2 -10 10 -12 16c0 2 2 2 2 4c12 22 2 28 0 50c-4 -2 -18 -8 -14 -14c-4 -6 -12 -2 -10 4c2 0 4 0 6 2c4 6 10 10 18 12c0 16 0 34 14 44c12 8 32 8 44 2h6 c6 -8 -4 -18 -12 -10c6 8 -10 8 -14 8c-6 0 -14 -2 -20 -6c-10 -8 -10 -26 -10 -38c8 0 16 -2 24 -2c2 0 4 0 4 2c8 -2 6 -10 -2 -10c0 2 0 4 -2 4c-8 2 -14 2 -22 2c4 -24 14 -30 0 -54c0 -2 2 -4 4 -6c20 6 40 -10 58 2c4 2 4 8 2 12zM38 52v0v0zM40 46v0v0z"
         id="glyph153" />
      <glyph
         glyph-name="Oslash"
         unicode="Ø"
         horiz-adv-x="124"
         d="M120 124c16 -42 -14 -86 -58 -86c-12 0 -22 4 -32 10l-8 -8c-2 -4 -8 -2 -12 0c-2 2 -2 6 0 10s6 6 8 10c-8 10 -14 24 -14 40c0 34 30 58 62 58c4 0 10 2 14 2c2 0 4 -2 6 -2l12 -6c2 2 6 0 8 2s0 6 -2 10c10 10 22 -4 14 -14c-4 2 -8 2 -10 0v-6c6 -6 10 -12 12 -20z M16 100v0c0 -10 4 -22 10 -30l8 8c18 20 34 40 52 60c-2 2 -6 2 -8 4s-4 2 -6 4s-4 4 -6 4c-8 0 -16 -2 -22 -4c-18 -8 -28 -26 -28 -46zM72 54v0c24 6 40 30 34 54c-2 8 -6 14 -10 20c-10 -12 -16 -22 -26 -32l-30 -36c4 -2 6 -2 10 -4c8 -2 14 -4 22 -2z"
         id="glyph154" />
      <glyph
         glyph-name="multiply"
         unicode="×"
         horiz-adv-x="80"
         d="M72 78v0c6 0 10 -2 10 -8c0 -12 -18 -14 -20 -2v2v2v2c-6 8 -14 14 -20 22c-6 -6 -10 -10 -14 -16l-4 -4l-2 -2v-4c2 -6 0 -8 -6 -10c-12 -2 -16 14 -4 18h2h2l2 2l18 24c-6 6 -12 12 -18 20h-2v0v0v2h2v2h-2l-2 2c-12 0 -12 16 0 16c6 0 8 -4 8 -10c0 -2 0 -4 2 -4v0 l2 2v0v-2h2l12 -18l2 -2c4 6 10 14 16 20v2h2v-2h2v2v2c-2 12 16 16 18 4c0 -6 -2 -10 -8 -10c-2 0 -4 0 -4 -2v-2v0v-2v0v0c-4 -6 -10 -10 -14 -16l-4 -4c4 -6 10 -14 14 -20c0 -2 2 -2 2 -4l2 -2h4z"
         id="glyph155" />
      <glyph
         glyph-name="less"
         unicode="&lt;"
         horiz-adv-x="48"
         d="M8 80c4 4 6 6 10 8s8 4 12 8l4 4s2 4 0 8c10 8 22 -6 12 -14c-2 2 -6 4 -8 2c-2 0 -2 0 -4 -2l-12 -12c-2 -2 -6 -4 -8 -6v0l6 -6c4 -4 10 -8 14 -12c2 -2 2 -4 4 -4h4s2 0 4 2c4 -4 6 -8 2 -12s-10 -6 -14 -2c0 2 2 4 2 6s-2 2 -2 2l-2 2c-4 4 -6 6 -10 8s-8 4 -12 8 l-4 4l-2 4l4 4v0z"
         id="glyph156" />
      <glyph
         glyph-name="greater"
         unicode="&gt;"
         horiz-adv-x="48"
         d="M46 80l4 -4l-2 -2l-4 -4c-4 -4 -8 -8 -12 -10s-8 -4 -12 -8v-2s-2 0 -2 -2v-6c-4 -4 -8 -2 -12 2s-2 8 2 12c2 -2 2 -2 4 -2h4c2 0 2 2 4 4c4 4 10 8 14 12l6 6v0c-2 2 -6 4 -8 6l-12 12c-2 2 -2 2 -4 2c-2 2 -6 0 -8 -2c-10 8 2 22 12 14c-2 -4 -2 -6 0 -8s0 -2 2 -4 c4 -4 10 -6 14 -8s6 -4 10 -8z"
         id="glyph157" />
      <glyph
         glyph-name="oslash"
         unicode="ø"
         horiz-adv-x="62"
         d="M62 72c0 -22 -22 -40 -42 -30v2c-2 -2 -2 -4 -4 -6s-6 -4 -8 -2c-4 2 -4 6 -2 8l6 6c-6 6 -8 14 -8 22c0 10 6 18 14 22c4 2 6 4 10 6h2l2 2h2h2c4 0 8 -2 12 -4l2 2v0v2l-2 2c4 6 14 -2 10 -8l-2 2v0h-2v0v-2l-2 -2v0c6 -6 10 -12 10 -22zM20 90v0 c-6 -4 -10 -10 -10 -18c0 -6 4 -12 8 -16c4 6 8 10 12 16l12 18h-2c-2 0 -2 2 -4 2h-4h-2l-2 2c-4 0 -6 -2 -8 -4zM54 72v0c0 6 -4 10 -8 14c-8 -10 -14 -20 -20 -32l-2 -2h4c4 0 8 -2 12 0c8 2 14 12 14 20z"
         id="glyph158" />
      <glyph
         glyph-name="registered"
         unicode="®"
         horiz-adv-x="124"
         d="M96 82v0c10 -6 2 -22 -8 -16c0 6 -4 12 -10 12c-2 0 -4 2 -6 2c-10 6 -20 12 -28 18c0 -8 2 -16 2 -24c0 -10 -14 -10 -16 0c0 10 2 20 2 30s2 22 2 32v6c6 12 38 10 48 6c32 -12 -14 -34 -26 -42c8 -6 16 -10 24 -18c4 -8 8 -12 16 -6zM42 128c0 -4 2 -12 2 -16 c14 6 30 12 40 24c-8 8 -36 8 -42 0v-8zM124 106c0 -56 -68 -88 -104 -46c-42 44 2 122 58 108c6 -2 10 2 16 0c22 -10 30 -38 30 -62zM116 106c0 20 -14 36 -30 46c-4 2 -4 8 -8 8c-60 18 -90 -74 -34 -102c32 -18 74 8 72 48z"
         id="glyph159" />
      <glyph
         glyph-name="copyright"
         unicode="©"
         horiz-adv-x="118"
         d="M80 132c4 -2 6 -6 4 -10c-2 -6 -12 -4 -12 4c0 2 -2 2 -2 2s-2 2 -4 2c-4 2 -10 2 -14 0c-10 -2 -24 -12 -26 -24c-2 -20 10 -36 30 -36c4 0 8 2 12 2c2 0 2 2 4 2c4 2 8 -2 10 -6s-2 -8 -6 -8c-6 0 -12 -2 -18 -2c-18 2 -34 14 -38 34v12c0 2 2 6 2 8c6 16 24 26 38 28 c6 0 12 0 16 -4c2 -2 2 -4 4 -4zM110 134v0c6 -10 10 -22 10 -34c0 -42 -44 -72 -80 -56s-48 64 -20 94c12 12 28 18 44 18h2c2 0 6 4 8 4h2c2 0 2 -2 4 -2c12 -4 24 -12 30 -24zM96 64c10 8 14 22 14 36c0 12 -6 24 -16 32c-6 4 -12 8 -18 10c-4 0 -6 6 -12 6 c-24 2 -48 -12 -52 -38c-4 -16 4 -36 16 -46c18 -18 50 -18 68 0z"
         id="glyph160" />
      <glyph
         glyph-name="dollar"
         unicode="$"
         horiz-adv-x="138"
         d="M138 70v0c2 -10 -2 -22 -12 -26c-12 -4 -26 -4 -38 -2h-2c0 -8 2 -22 2 -30c0 -6 -4 -12 -10 -12c-8 0 -14 6 -14 12c0 8 2 26 2 34c-8 2 -16 2 -24 4c-4 0 -6 2 -10 2h-8c-4 0 -8 -2 -12 -2h-2c-20 16 8 42 28 26c-4 0 -4 -4 -4 -6s0 -4 2 -4c2 -2 6 -4 10 -6 c6 -2 14 -4 22 -6v30c-6 0 -14 2 -20 4s-12 6 -18 10c-8 6 -14 22 -12 32c2 8 6 14 12 18c12 8 26 12 40 12v4c0 4 0 -2 -2 2l-2 4s0 2 -2 2c-18 14 6 38 24 24c8 -6 8 -18 0 -24c-4 -2 -6 -2 -6 -6v-2v-4c14 -2 26 -6 38 -12l2 -2h2s0 2 2 2s2 2 4 2h2 c18 -14 -6 -38 -24 -24c2 2 6 8 4 10v0h-2c-8 6 -18 10 -28 10v-22v-18h6l24 -6c14 -6 24 -16 26 -30zM52 112v0c6 -2 12 -4 18 -4v38h-2c-8 -2 -18 -6 -24 -12c-4 -4 -6 -6 -4 -10s8 -10 12 -12zM118 60v0v6c-2 8 -8 12 -16 14c-4 2 -10 2 -14 2c-2 0 -2 2 -4 2v-32h4 c6 0 14 0 20 2c4 2 8 4 10 6z"
         id="glyph161" />
      </font>
</defs>
</svg>
