<svg xmlns="http://www.w3.org/2000/svg">
<defs>
<font
       id="Emilio20"
       horiz-adv-x="320">
      <font-face
         font-family="Emilio 20"
         font-weight="400"
         font-stretch="normal"
         units-per-em="400"
         panose-1="2 0 5 5 0 0 0 2 0 4"
         ascent="320"
         descent="-80"
         cap-height="379"
         bbox="8 -61 538 380"
         underline-thickness="20"
         underline-position="-40"
         unicode-range="U+0020-007A"
         id="font-face4" />
      <missing-glyph
         id="missing-glyph6" />
      <glyph
         glyph-name="nine"
         unicode="9"
         horiz-adv-x="318"
         d="M180 240v51h-68v-51h68zM230 12h-166l-37 50v86h85v-48h68v52h-116l-37 50v126l37 51h166l37 -51v-266zM252 68v255l-29 40h-152l-29 -40v-116l29 -40h123v-82h-96v48h-56v-65l29 -40h152zM98 224v82h96v-82h-96zM218 38h-142l-25 34v50h37v-48h116v103h-128l-25 34v109 l25 33h12h130l25 -33v-248zM88 214h116v102h-116v-102z"
         id="glyph8" />
      <glyph
         glyph-name="eight"
         unicode="8"
         d="M180 291h-66v-51h66v51zM180 100v52h-66v-52h66zM230 379l37 -51v-126l-5 -6q2 -2 3 -4t2 -3v-127l-37 -50h-166l-37 50v127l5 7q-2 2 -3 3.5t-2 2.5v126l37 51h166zM71 363l-29 -40v-115q2 -2 4 -5.5t4 -6.5l-8 -13v-115l29 -40h152l29 40v115q-2 2 -4 5.5t-4 7.5l8 12 v115l-29 40h-152zM194 224h-94v82h94v-82zM100 85v82h94v-82h-94zM218 353l25 -33v-109l-12 -15l12 -16v-108l-25 -34h-142l-25 34v108l12 16l-12 15v58v51l25 33h142zM90 74h114v103h-114v-103zM204 214v102h-114v-102h114z"
         id="glyph10" />
      <glyph
         glyph-name="six"
         unicode="6"
         horiz-adv-x="313"
         d="M114 152v-52h68v52h-68zM64 379h166l37 -51v-85h-85v48h-68v-51h116l37 -51v-127l-37 -50h-166l-37 50v266zM42 324v-256l29 -40h152l29 40v116l-29 40h-123v82h96v-48h56v65l-29 40h-152zM196 167v-82h-96v82h96zM76 353h142l25 -33v-51h-37v47h-116v-102h128l25 -34 v-108l-25 -34h-12h-130l-25 34v248zM206 177h-116v-103h116v103z"
         id="glyph12" />
      <glyph
         glyph-name="seven"
         unicode="7"
         horiz-adv-x="292"
         d="M267 302l-87 -202h8v-88h-133v88h31q11 26 20.5 48.5t19 44t19.5 44t22 50.5h-55v-44h-85v136h240v-77zM252 363h-210v-105h56v45h91q-12 -29 -23.5 -56t-23 -53.5l-23 -53t-24.5 -55.5h-26v-57h104v57h-16l95 219v59zM243 307l-101 -233h22v-36h-37h-41h-7v36h23 l102 239h-116v-44h-37v84h192v-46z"
         id="glyph14" />
      <glyph
         glyph-name="three"
         unicode="3"
         horiz-adv-x="317"
         d="M230 379l37 -51v-126l-5 -6q2 -2 3 -4t2 -3v-127l-37 -50h-166l-37 50v86h85v-48h68v52h-91v88h91v51h-68v-48h-85v85l37 51h166zM71 363l-29 -40v-65h56v48h96v-82h-91v-57h91v-82h-96v48h-56v-65l29 -40h152l29 40v115q-2 2 -4 5.5t-4 7.5l8 12v115l-29 40h-152z M218 353l25 -33v-109l-12 -15l12 -16v-108l-25 -34h-130h-12l-25 34v2v48h37v-48h116v103h-91v37h91v102h-116v-47h-37v47v4l25 33h142z"
         id="glyph16" />
      <glyph
         glyph-name="five"
         unicode="5"
         horiz-adv-x="323"
         d="M112 100h70v52h-118l-37 50v177h240v-136h-85v48h-69v-51h117l37 -51v-127l-37 -50h-166l-37 50v86h85v-48zM97 133h-55v-65l29 -40h152l29 40v116l-29 40h-124v82h98v-48h55v105h-210v-156l29 -40h125v-82h-99v48zM88 74h118v103h-130l-25 34v142h155h12h25v-84h-37v47 h-58h-59v-102h129l25 -34v-108l-25 -34h-142l-25 34v50h37v-48z"
         id="glyph18" />
      <glyph
         glyph-name="two"
         unicode="2"
         d="M112 291v-48h-85v85l37 51h166l37 -51v-126l-37 -50h-117v-52h69v48h85v-136h-240v177l37 51h118v51h-70zM196 306v-82h-125l-29 -40v-156h210v105h-55v-48h-98v82h124l29 40v116l-29 40h-152l-29 -40v-65h55v48h99zM88 316v-47h-37v51l25 33h142l25 -33v-109l-25 -34 h-129v-103h59h58v48h37v-84h-25h-12h-155v142l25 34h130v102h-118z"
         id="glyph20" />
      <glyph
         glyph-name="one"
         unicode="1"
         horiz-adv-x="199"
         d="M145 100v-88h-105v88h18v191h-18v88h86v-279h19zM115 85v278h-64v-57h19v-221h-19v-57h83v57h-19zM107 74h19v-36h-67v36h19v242h-19v37h48v-72v-67v-140z"
         id="glyph22" />
      <glyph
         glyph-name="Z"
         unicode="Z"
         horiz-adv-x="316"
         d="M183 148h85v-136h-241v70q19 30 39 64t39 64q8 14 14 23t10.5 17t10.5 17t15 24h-43v-48h-85v136h241v-70q-19 -31 -39.5 -64t-38.5 -63q-9 -15 -14.5 -24.5t-10.5 -17t-10 -16.5t-15 -24h43v48zM197 85h-84q9 14 17 27l16 26t15.5 25.5t16.5 26.5q19 30 38 61.5t38 62.5 v49h-212v-105h56v48h84q-9 -15 -17 -27.5t-15.5 -25t-15.5 -25t-17 -27.5q-19 -30 -38 -61.5t-37 -62.5v-49h212v105h-57v-48zM207 122h37v-84h-193v36q37 61 74 121.5t75 120.5h-112v-47h-37v84h193v-37q-37 -61 -74 -121t-74 -121h111v48z"
         id="glyph24" />
      <glyph
         glyph-name="Y"
         unicode="Y"
         horiz-adv-x="349"
         d="M151 379v-88h-2q2 -4 5.5 -10t8.5 -15q2 4 5.5 10t7.5 15h-2v88h138v-88h-35q-18 -32 -35 -62.5t-35 -64.5v-64h25v-88h-139v88h25v64q-10 17 -18.5 32.5t-17 30.5t-17 30.5t-17.5 33.5h-35v88h138zM28 363v-57h28q20 -36 38.5 -69t38.5 -68v-84h-25v-57h109v57h-25v84 q20 35 38.5 68.5t37.5 68.5h29v57h-108v-57h13q-6 -11 -11 -19.5t-9.5 -17t-9 -16.5t-10.5 -18q-6 11 -10.5 20t-9.5 17t-9.5 16.5t-9.5 17.5h13v57h-108zM126 353v-37h-20l56 -102l57 102h-20v37h88v-37h-24l-81 -144v-98h25v-36h-89v36h25v98l-81 144h-24v37h88z"
         id="glyph26" />
      <glyph
         glyph-name="X"
         unicode="X"
         horiz-adv-x="372"
         d="M166 379v-83q2 -3 5 -7t7 -10q3 4 5.5 8.5t5.5 9.5v82h138v-88h-36q-8 -13 -15 -24.5t-14.5 -22.5t-14.5 -23t-16 -25q9 -14 16 -25.5t14 -22t14 -22.5t16 -26h36v-88h-138v82l-5 7.5t-6 10.5q-3 -4 -6 -8.5t-6 -9.5v-82h-138v88h36q15 24 29.5 47t30.5 49 q-8 12 -15 23.5t-14.5 23t-15 23.5t-15.5 25h-36v88h138zM43 363v-57h29q9 -15 18 -28.5t17.5 -27t17.5 -27t18 -27.5q-18 -29 -35.5 -55.5t-35.5 -55.5h-29v-57h108v57h-9q6 9 10 16t8.5 13t8.5 12.5t9 13.5q11 -17 18.5 -29t16.5 -26h-9v-57h108v57h-29q-18 28 -35 55.5 t-35 55.5q10 15 18.5 28.5t16.5 26.5t17 27l18 28h29v57h-108v-57h9q-6 -9 -10 -16t-8.5 -13.5t-8.5 -12.5t-8 -14q-11 17 -19 29.5t-17 26.5h9v57h-108zM141 353v-37h-17l54 -84l54 84h-18v37h88v-37h-24l-77 -120l77 -122h24v-36h-88v36h18l-54 85l-54 -85h17v-36h-88v36 h24l77 122l-77 120h-24v37h88z"
         id="glyph28" />
      <glyph
         glyph-name="N"
         unicode="N"
         horiz-adv-x="371"
         d="M142 100h24v-88h-138v88h25v191h-25v88h112l74 -149v61h-25v88h138v-88h-25v-279h-80l-80 163v-75zM126 238l105 -210h57v278h24v57h-108v-57h24v-140l-97 197h-88v-57h25v-221h-25v-57h108v57h-25v153zM116 74h25v-36h-88v36h25v242h-25v37h71l114 -230v193h-24v37h88 v-37h-24v-278h-40l-122 243v-207z"
         id="glyph30" />
      <glyph
         glyph-name="K"
         unicode="K"
         horiz-adv-x="377"
         d="M166 291h-24v-50h27q4 7 6 12t4.5 10t6 11t8.5 17h-5v88h138v-88h-33l-12 -24t-11.5 -23.5t-12 -23.5t-12.5 -25q12 -23 23.5 -46l24.5 -49h33v-88h-138v88h5q-6 12 -12 23.5t-14 26.5h-26v-50h24v-88h-138v88h25v191h-25v88h138v-88zM151 363h-108v-57h25v-221h-25v-57 h108v57h-25v80h52q11 -22 20.5 -40.5t19.5 -39.5h-14v-57h108v57h-28q-14 29 -27.5 55t-27.5 55q15 29 28.5 55.5t28.5 55.5h26v57h-108v-57h15q-6 -12 -11 -21.5l-10 -19t-9.5 -18.5l-10.5 -21h-52v80h25v57zM141 353v-37h-25v-100h68l52 100h-22v37h88v-37h-22l-62 -120 l60 -122h24v-36h-88v36h20l-50 102h-68v-102h25v-36h-88v36h25v242h-25v37h88z"
         id="glyph32" />
      <glyph
         glyph-name="H"
         unicode="H"
         horiz-adv-x="362"
         d="M166 291h-24v-50h72v50h-25v88h138v-88h-25v-191h25v-88h-138v88h25v50h-72v-50h24v-88h-138v88h25v191h-25v88h138v-88zM151 363h-108v-57h25v-221h-25v-57h108v57h-25v80h102v-80h-24v-57h108v57h-24v221h24v57h-108v-57h24v-80h-102v80h25v57zM141 353v-37h-25v-100 h122v100h-24v37h88v-37h-24v-242h24v-36h-88v36h24v102h-122v-102h25v-36h-88v36h25v242h-25v37h88z"
         id="glyph34" />
      <glyph
         glyph-name="I"
         unicode="I"
         horiz-adv-x="202"
         d="M158 291h-24v-191h24v-88h-138v88h25v191h-25v88h138v-88zM143 363h-108v-57h25v-221h-25v-57h108v57h-25v80v61v80h25v57zM133 353v-37h-25v-100v-40v-102h25v-36h-88v36h25v242h-25v37h88z"
         id="glyph36" />
      <glyph
         glyph-name="P"
         unicode="P"
         horiz-adv-x="341"
         d="M208 221v70h-69v-70h69zM297 328v-144l-38 -50h-120v-34h24v-88h-135v88h24v191h-24v88h231zM252 363h-210v-57h25v-221h-25v-57h106v57h-24v64h128l30 40v134zM124 206v100h98v-100h-98zM248 353l24 -33v-128l-24 -32h-134v-86h25v-36h-25h-38h-24v36h24v242h-24v37h196 zM114 196h118v120h-118v-120z"
         id="glyph38" />
      <glyph
         glyph-name="C"
         unicode="C"
         horiz-adv-x="298"
         d="M27 331l36 48h167l37 -51v-85h-87v48h-68v-93v-98h68v48h87v-86l-37 -50h-167l-35 50zM42 67l28 -39h153l29 40v65h-58v-48h-97v56.5t0.5 54.5t0.5 54.5v55.5h96v-48h58v65l-29 40h-153l-28 -38v-258zM51 321l24 32h143l25 -33v-51h-39v47h-116l-1 -242h117v48h39v-50 l-25 -34h-143l-23 33z"
         id="glyph40" />
      <glyph
         glyph-name="R"
         unicode="R"
         horiz-adv-x="350"
         d="M139 100h39q-1 7 -2 14.5t-3 19.5h-34v-34zM208 221v70h-69v-70h69zM297 328v-144l-35 -46q1 -8 2.5 -16.5t3.5 -21.5h29v-88h-269v88h24v191h-24v88h231zM252 363h-210v-57h25v-221h-25v-57h106v57h-24v64h62q3 -18 4.5 -33t4.5 -31h-19v-57h106v57h-26l-5.5 33t-4.5 31 h6l30 40v134zM124 206v100h98v-100h-98zM248 353l24 -33v-128l-24 -32h-14l13 -86h25v-36h-20h-40h-26v36h21l-13 86h-80v-86h25v-36h-87v36h24v242h-24v37h196zM114 196h118v120h-118v-120z"
         id="glyph42" />
      <glyph
         glyph-name="A"
         unicode="A"
         horiz-adv-x="360"
         d="M122 353h110v-37h-21l75 -242h25v-36h-89v36h23l-15 49h-106l-14 -49h23v-36h-89v36h25l74 242h-21v37zM177 294q-10 -34 -20.5 -67t-20.5 -67h83zM205 170h-55q2 8 4 14.5t4 12.5t4 12.5t4 14.5q3 9 5.5 17.5t5.5 18.5zM112 306h17q-9 -29 -17.5 -56.5t-17 -54.5 t-16.5 -54t-17 -56h-27v-57h109v57h-20l9 28h90q2 -8 4.5 -14.5t4.5 -13.5h-19v-57h109v57h-27q-18 57 -34.5 111t-33.5 110h17v57h-131v-57zM97 379h161v-88h-12q8 -24 15 -47.5t14 -46.5t14 -47t15 -50h32v-88h-139v85h-39v-85h-140v88h32q8 26 15 49t14 45t14 45.5 t16 51.5h-12v88zM177 208l-1.5 -4.5t-1 -3.5t-1.5 -5t-3 -10h14z"
         id="glyph44" />
      <glyph
         glyph-name="V"
         unicode="V"
         horiz-adv-x="352"
         d="M125 12l-86 279h-31v88h139v-88h-13q4 -15 7 -25.5t6.5 -21.5t8 -25t10.5 -36q8 25 16 50.5t18 57.5h-14v88h139v-88h-31q-10 -34 -21 -69.5l-22 -71t-22 -70.5t-21 -68h-83zM197 28q10 32 21 67.5t22 71.5t22 71.5t21 67.5h27v57h-109v-57h20q-8 -26 -14.5 -47t-13 -41 t-13 -41t-14.5 -45q-8 26 -14 47t-12.5 41t-12.5 41t-14 45h19v57h-109v-57h27l86 -278h61zM190 38h-46l-86 278h-25v37h89v-37h-23l67 -220l68 220h-23v37h89v-37h-25q-22 -70 -42.5 -139t-42.5 -139z"
         id="glyph46" />
      <glyph
         glyph-name="B"
         unicode="B"
         horiz-adv-x="330"
         d="M136 152v-52h68v52h-68zM204 240v51h-68v-51h68zM293 328v-126l-5 -6q2 -2 3 -4t2 -3v-127l-37 -50h-228v88h21v191h-21v88h228zM249 363h-207v-57h22v-221h-22v-57h207l30 40v115q-2 2 -4.5 5.5t-4.5 7.5l9 12v115zM219 167v-82h-98v82h98zM121 224v82h98v-82h-98z M244 353l25 -33v-109l-12 -15l12 -16v-108l-25 -34h-192v36h22v242h-22v37h192zM111 214h118v102h-118v-102zM229 177h-118v-103h118v103z"
         id="glyph48" />
      <glyph
         glyph-name="D"
         unicode="D"
         horiz-adv-x="328"
         d="M204 100v191h-68v-191h68zM293 328v-266l-37 -50h-228v88h21v191h-21v88h228zM249 363h-207v-57h22v-221h-22v-57h207l30 40v255zM121 85v221h98v-221h-98zM244 353l25 -33v-248l-25 -34h-192v36h22v242h-22v37h192zM111 74h118v242h-118v-242z"
         id="glyph50" />
      <glyph
         glyph-name="zero"
         unicode="0"
         horiz-adv-x="313"
         d="M180 100v191h-68v-93v-98h68zM27 331l36 48h167l37 -51v-266l-37 -50h-167l-36 50v269zM42 68l28 -40h153l29 40v255l-29 40h-153l-28 -38v-257zM97 85v56.5t0.5 54.5t0.5 54.5v55.5h96v-221h-97zM51 321l24 32h143l25 -33v-248l-25 -34h-143l-24 33v250zM87 74h117v242 h-116z"
         id="glyph52" />
      <glyph
         glyph-name="O"
         unicode="O"
         horiz-adv-x="306"
         d="M180 100v191h-68v-93v-98h68zM27 331l36 48h167l37 -51v-266l-37 -50h-167l-36 50v269zM42 68l28 -40h153l29 40v255l-29 40h-153l-28 -38v-257zM97 85v56.5t0.5 54.5t0.5 54.5v55.5h96v-221h-97zM51 321l24 32h143l25 -33v-248l-25 -34h-143l-24 33v250zM87 74h117v242 h-116z"
         id="glyph54" />
      <glyph
         glyph-name="E"
         unicode="E"
         horiz-adv-x="331"
         d="M181 267h23v24h-68v-51h45v27zM204 100v24h-23v28h-45v-52h68zM293 243h-29v-95h29v-136h-265v88h21v191h-21v88h265v-136zM279 363h-237v-57h22v-221h-22v-57h237v105h-60v-48h-98v82h75v-27h53v111h-53v-27h-75v82h98v-48h60v105zM269 269h-40v47h-118v-102h65h29v27 h35v-91h-35v27h-41h-53v-103h118v48h40v-84h-217v36h22v242h-22v37h217v-84z"
         id="glyph56" />
      <glyph
         glyph-name="F"
         unicode="F"
         horiz-adv-x="327"
         d="M181 267h23v24h-68v-51h45v27zM293 243h-29v-119h-83v28h-45v-52h21v-88h-129v88h21v191h-21v88h265v-136zM279 363h-237v-57h22v-221h-22v-57h100v57h-21v82h75v-27h53v111h-53v-27h-75v82h98v-48h60v105zM269 269h-40v47h-118v-102h65h29v27h35v-91h-35v27h-41h-53 v-103h22v-36h-81v36h22v242h-22v37h217v-84z"
         id="glyph58" />
      <glyph
         glyph-name="G"
         unicode="G"
         horiz-adv-x="302"
         d="M27 331l36 48h167l36 -51v-85h-87v48h-67v-93v-98h67v52h-49v88h136v-178l-36 -50h-167l-35 50zM42 67l28 -39h153l29 40v156h-107v-57h49v-82h-97v56.5t0.5 54.5t0.5 54.5v55.5h96v-48h58v65l-29 40h-153l-29 -38zM51 321l24 32h143l24 -33v-51h-39v47h-115l-1 -242h116 v103h-49v37h88v-142l-24 -34h-143l-23 33z"
         id="glyph60" />
      <glyph
         glyph-name="J"
         unicode="J"
         horiz-adv-x="296"
         d="M231 291v-229l-37 -50h-143l-36 50v86h84v-48h45v191h-23v88h132v-88h-22zM239 306v57h-104v-57h23v-221h-73v48h-56v-65l29 -40h129l29 40v238h23zM207 316v-244l-25 -34h-119l-24 33v51h36v-48h92v242v0h-22v37h84v-37h-22z"
         id="glyph62" />
      <glyph
         glyph-name="L"
         unicode="L"
         horiz-adv-x="312"
         d="M136 291v-191h51v48h85v-136h-245v88h25v191h-25v88h133v-88h-24zM146 306v57h-104v-57h24v-221h-24v-57h215v105h-56v-48h-79v221h24zM112 316v-242h99v48h37v-84h-197v36h25v242h-25v37h85v-37h-24z"
         id="glyph64" />
      <glyph
         glyph-name="M"
         unicode="M"
         horiz-adv-x="445"
         d="M146 100h25v-88h-142v88h25v191h-25v88h117l65 -127q17 32 33.5 65t31.5 62h116v-88h-26v-191h26v-88h-142v88h25v91q-12 -22 -22.5 -44t-21.5 -41h-41l-44 84v-90zM130 253l69 -132h23q16 31 34 65t35 66v-167h-26v-57h111v57h-25v221h25v57h-91q-18 -35 -37 -71.5 t-37 -72.5l-75 144h-91v-57h25v-221h-25v-57h111v57h-26v168zM120 74h26v-36h-91v36h25v242h-25v37h75l81 -157l81 157h74v-37h-25v-242h25v-36h-90v36h25v220l-85 -162h-10l-86 162v-220z"
         id="glyph66" />
      <glyph
         glyph-name="Q"
         unicode="Q"
         horiz-adv-x="307"
         d="M180 102v187h-68v-46v-45v-46.5v-49.5h68zM27 330l36 50h167l37 -52v-264l-37 -51h-15q4 -8 8 -15.5t7 -11.5l-74 -47l-39 73h-54l-36 51v267zM42 69l28 -41h55l36 -68l49 32q-4 8 -9 17.5t-11 18.5h33l29 42v253l-29 41h-153l-28 -39v-256zM97 86v57t0.5 53t0.5 53v56 h96v-219h-97zM51 321l24 33h143l25 -35v-246l-25 -34h-44l23 -43l-32 -21l-35 63h-55l-24 34v249zM87 76h117v240h-116z"
         id="glyph68" />
      <glyph
         glyph-name="S"
         unicode="S"
         horiz-adv-x="321"
         d="M182 291h-70v-51h118l37 -51v-127l-37 -50h-166l-37 50v86h85v-48h68v52h-116l-37 50v126l37 51h166l37 -51v-85h-85v48zM197 258h55v65l-29 40h-152l-29 -40v-116l29 -40h123v-82h-97v48h-55v-65l29 -40h152l29 40v116l-29 40h-125v82h99v-48zM206 316h-118v-102h130 l25 -34v-108l-25 -34h-142l-25 34v50h37v-48h58h58v103h-128l-25 34v109l25 33h142l25 -33v-51h-37v47z"
         id="glyph70" />
      <glyph
         glyph-name="T"
         unicode="T"
         horiz-adv-x="308"
         d="M274 243h-83v48h-5v-191h24v-88h-136v88h25v191h-6v-48h-84v136h265v-136zM260 363h-236v-105h54v48h35v-221h-24v-57h106v57h-24v221h35v-48h54v105zM250 353v-84h-34v47h-55v-242h24v-36h-86v36h24v242h-55v-47h-34v84h216z"
         id="glyph72" />
      <glyph
         glyph-name="U"
         unicode="U"
         horiz-adv-x="376"
         d="M143 291v-48v-46v-46.5v-50.5h70v191h-23v88h138v-88h-24v-229l-38 -50h-174l-37 50v229h-25v88h138v-88h-25zM153 306v57h-108v-57h25v-238l30 -40h159l30 40v238h24v57h-108v-57h23v-221h-100v56.5v54.5v54.5v55.5h25zM118 316v-242h120v86v156h-23v37h88v-37h-24v-244 l-25 -34h-150l-24 33v245h-25v37h88v-37h-25z"
         id="glyph74" />
      <glyph
         glyph-name="W"
         unicode="W"
         horiz-adv-x="572"
         d="M222 12h-89l-91 279h-34v88h149v-88h-15l8.5 -25.5t7 -21.5t8 -25t12.5 -36q8 25 16.5 50t18.5 58h-14v88h148v-88h-14q5 -15 8 -25.5t7 -21.5t8.5 -24.5t11.5 -36.5q8 24 16.5 50.5t18.5 57.5h-14v88h149v-88h-34q-11 -33 -22.5 -69t-23.5 -71.5t-23 -70.5t-22 -68h-89 l-51 154zM273 218l63 -190h64q11 33 23 68t23.5 70.5t23.5 71t22 68.5h30v57h-117v-57h21q-8 -24 -15 -45.5l-14 -43l-14 -43t-15 -43.5q-8 26 -15 47.5t-13.5 41.5t-13.5 41l-15 45h20v57h-116v-57h21q-8 -26 -15.5 -47t-14 -41t-13.5 -41l-15 -45q-8 26 -15.5 47t-14 41 t-13 41t-14.5 45h20v57h-117v-57h30l92 -278h64zM202 38h-49l-91 278h-27v37h95v-37h-24l72 -220l72 220h-24v37h94v-37h-24l72 -220l72 220h-24v37h95v-37h-27q-23 -70 -45.5 -139t-45.5 -139h-49l-71 215z"
         id="glyph76" />
      <glyph
         glyph-name="four"
         unicode="4"
         horiz-adv-x="337"
         d="M180 188v50q-8 -10 -16 -21.5t-20 -28.5h36zM292 12h-136v88h-134v66l152 213h93v-191h25v-176zM252 116h25v56h-25v191h-71l-144 -203v-44h158v-31h-24v-57h106v57h-25v31zM115 172q11 16 21 30l20 28t19 27t20 28v-113h-80zM243 74h24v-36h-87v36h25v52h-91h-48h-19v31 l139 196h57v-72v-67v-52h24v-36h-24v-52zM95 162h110v85v69z"
         id="glyph78" />
    </font>
</defs>
</svg>
