<?xml version="1.0" encoding="UTF-8" standalone="no"?>
<!-- Created with Inkscape (http://www.inkscape.org/) -->

<svg
   xmlns:dc="http://purl.org/dc/elements/1.1/"
   xmlns:cc="http://creativecommons.org/ns#"
   xmlns:rdf="http://www.w3.org/1999/02/22-rdf-syntax-ns#"
   xmlns:svg="http://www.w3.org/2000/svg"
   xmlns="http://www.w3.org/2000/svg"
   xmlns:sodipodi="http://sodipodi.sourceforge.net/DTD/sodipodi-0.dtd"
   xmlns:inkscape="http://www.inkscape.org/namespaces/inkscape"
   sodipodi:docname="Applique Stop.svg"
   enable-background="new"
   inkscape:version="0.91+devel r"
   id="svg8"
   version="1.1"
   viewBox="0 0 101.6 101.6"
   height="4in"
   width="4in">
  <sodipodi:namedview
     inkscape:window-maximized="1"
     inkscape:window-y="0"
     inkscape:window-x="0"
     inkscape:window-height="1011"
     inkscape:window-width="1920"
     units="in"
     inkscape:snap-global="false"
     showgrid="false"
     inkscape:current-layer="layer10"
     inkscape:document-units="mm"
     inkscape:cy="189.09022"
     inkscape:cx="154.79626"
     inkscape:zoom="3.04"
     inkscape:pageshadow="2"
     inkscape:pageopacity="0"
     borderopacity="1.0"
     bordercolor="#666666"
     pagecolor="#989898"
     id="base"
     showguides="true"
     inkscape:guide-bbox="true"
     inkscape:locked="false" />
  <defs
     id="defs2" />
  <metadata
     id="metadata5">
    <rdf:RDF>
      <cc:Work
         rdf:about="">
        <dc:format>image/svg+xml</dc:format>
        <dc:type
           rdf:resource="http://purl.org/dc/dcmitype/StillImage" />
        <dc:title></dc:title>
        <dc:creator>
          <cc:Agent>
            <dc:title>Evan West at Wild West Designs</dc:title>
          </cc:Agent>
        </dc:creator>
        <dc:publisher>
          <cc:Agent>
            <dc:title>Wild West Designs</dc:title>
          </cc:Agent>
        </dc:publisher>
        <dc:source>www.wildwestdesigns.biz</dc:source>
      </cc:Work>
    </rdf:RDF>
  </metadata>
  <g
     inkscape:groupmode="layer"
     id="layer1"
     inkscape:label="Instructions"
     style="display:inline"
     sodipodi:insensitive="true">
    <text
       id="text4553"
       y="133.16608"
       x="-94.09964"
       style="font-style:normal;font-variant:normal;font-weight:500;font-stretch:normal;font-size:9.8777771px;line-height:10.58333302px;font-family:KacstPen;-inkscape-font-specification:'KacstPen Medium';font-variant-ligatures:normal;font-variant-caps:normal;font-variant-numeric:normal;text-align:start;letter-spacing:0px;word-spacing:0px;writing-mode:lr-tb;text-anchor:start;fill:#000000;fill-opacity:1;stroke:none;stroke-width:0.26458332px;stroke-linecap:butt;stroke-linejoin:miter;stroke-opacity:1"
       xml:space="preserve"
       sodipodi:insensitive="true"><tspan
         style="line-height:10.58333302px;stroke-width:0.26458332px"
         y="133.16608"
         x="-94.09964"
         sodipodi:role="line"
         id="tspan4529">1. Digitize placement and tackdown stitches and apply </tspan><tspan
         style="line-height:10.58333302px;stroke-width:0.26458332px"
         y="144.07037"
         x="-94.09964"
         sodipodi:role="line"
         id="tspan4388">stop code at the end to force machine to stop.</tspan></text>
    <text
       id="text4563"
       y="116.09454"
       x="35.659531"
       style="font-style:normal;font-variant:normal;font-weight:500;font-stretch:normal;font-size:9.8777771px;line-height:4.23333311px;font-family:KacstPen;-inkscape-font-specification:'KacstPen Medium';font-variant-ligatures:normal;font-variant-caps:normal;font-variant-numeric:normal;text-align:start;letter-spacing:0px;word-spacing:0px;writing-mode:lr-tb;text-anchor:start;fill:#000000;fill-opacity:1;stroke:none;stroke-width:0.26458332px;stroke-linecap:butt;stroke-linejoin:miter;stroke-opacity:1"
       xml:space="preserve"
       sodipodi:insensitive="true"><tspan
         style="stroke-width:0.26458332px"
         y="116.09454"
         x="35.659531"
         id="tspan4561"
         sodipodi:role="line">Steps:</tspan></text>
    <text
       id="text4569"
       y="160.26834"
       x="-93.547462"
       style="font-style:normal;font-variant:normal;font-weight:500;font-stretch:normal;font-size:9.8777771px;line-height:10.57999992px;font-family:KacstPen;-inkscape-font-specification:'KacstPen Medium';font-variant-ligatures:normal;font-variant-caps:normal;font-variant-numeric:normal;text-align:start;letter-spacing:0px;word-spacing:0px;writing-mode:lr-tb;text-anchor:start;fill:#000000;fill-opacity:1;stroke:none;stroke-width:0.26458332px;stroke-linecap:butt;stroke-linejoin:miter;stroke-opacity:1"
       xml:space="preserve"
       sodipodi:insensitive="true"><tspan
         style="line-height:10.57999992px;stroke-width:0.26458332px"
         y="160.26834"
         x="-93.547462"
         sodipodi:role="line"
         id="tspan4533">2. May or may not have to add a stop code for the zig </tspan><tspan
         style="line-height:10.57999992px;stroke-width:0.26458332px"
         y="171.1693"
         x="-93.547462"
         sodipodi:role="line"
         id="tspan4392">zag stitches, depends on the design.</tspan></text>
    <text
       id="text4579"
       y="186.61166"
       x="-93.639496"
       style="font-style:normal;font-variant:normal;font-weight:500;font-stretch:normal;font-size:9.8777771px;line-height:4.23333311px;font-family:KacstPen;-inkscape-font-specification:'KacstPen Medium';font-variant-ligatures:normal;font-variant-caps:normal;font-variant-numeric:normal;text-align:start;letter-spacing:0px;word-spacing:0px;writing-mode:lr-tb;text-anchor:start;fill:#000000;fill-opacity:1;stroke:none;stroke-width:0.26458332px;stroke-linecap:butt;stroke-linejoin:miter;stroke-opacity:1"
       xml:space="preserve"
       sodipodi:insensitive="true"><tspan
         id="tspan4581"
         style="stroke-width:0.26458332px"
         y="186.61166"
         x="-93.639496"
         sodipodi:role="line">3.  Complete the rest of the design as normal.</tspan></text>
    <text
       id="text4553-6"
       y="201.9576"
       x="-94.09964"
       style="font-style:normal;font-variant:normal;font-weight:500;font-stretch:normal;font-size:9.8777771px;line-height:10.58333302px;font-family:KacstPen;-inkscape-font-specification:'KacstPen Medium';font-variant-ligatures:normal;font-variant-caps:normal;font-variant-numeric:normal;text-align:start;letter-spacing:0px;word-spacing:0px;writing-mode:lr-tb;text-anchor:start;fill:#000000;fill-opacity:1;stroke:none;stroke-width:0.26458332px;stroke-linecap:butt;stroke-linejoin:miter;stroke-opacity:1"
       xml:space="preserve"
       sodipodi:insensitive="true"><tspan
         id="tspan4555-1"
         style="line-height:10.58333302px;stroke-width:0.26458332px"
         y="201.9576"
         x="-94.09964"
         sodipodi:role="line">4. Start sewing like normal, after machine does Placement</tspan><tspan
         id="tspan4559-2"
         style="line-height:10.58333302px;stroke-width:0.26458332px"
         y="212.86189"
         x="-94.09964"
         sodipodi:role="line">Stitch, stop machine.</tspan></text>
    <text
       id="text4569-5"
       y="229.05934"
       x="-93.547462"
       style="font-style:normal;font-variant:normal;font-weight:500;font-stretch:normal;font-size:9.8777771px;line-height:10.57999992px;font-family:KacstPen;-inkscape-font-specification:'KacstPen Medium';font-variant-ligatures:normal;font-variant-caps:normal;font-variant-numeric:normal;text-align:start;letter-spacing:0px;word-spacing:0px;writing-mode:lr-tb;text-anchor:start;fill:#000000;fill-opacity:1;stroke:none;stroke-width:0.26458332px;stroke-linecap:butt;stroke-linejoin:miter;stroke-opacity:1"
       xml:space="preserve"
       sodipodi:insensitive="true"><tspan
         style="line-height:10.57999992px;stroke-width:0.26458332px"
         y="229.05934"
         x="-93.547462"
         id="tspan4567-1"
         sodipodi:role="line">5. Place material over Placement stitch, totally covering </tspan><tspan
         id="tspan4571-1"
         style="line-height:10.57999992px;stroke-width:0.26458332px"
         y="239.9603"
         x="-93.547462"
         sodipodi:role="line">the stitch.  Use a light adhesive spray to hold material.</tspan></text>
    <text
       id="text4579-7"
       y="255.40201"
       x="-93.639496"
       style="font-style:normal;font-variant:normal;font-weight:500;font-stretch:normal;font-size:9.8777771px;line-height:4.23333311px;font-family:KacstPen;-inkscape-font-specification:'KacstPen Medium';font-variant-ligatures:normal;font-variant-caps:normal;font-variant-numeric:normal;text-align:start;letter-spacing:0px;word-spacing:0px;writing-mode:lr-tb;text-anchor:start;fill:#000000;fill-opacity:1;stroke:none;stroke-width:0.26458332px;stroke-linecap:butt;stroke-linejoin:miter;stroke-opacity:1"
       xml:space="preserve"
       sodipodi:insensitive="true"><tspan
         id="tspan4581-7"
         style="stroke-width:0.26458332px"
         y="255.40201"
         x="-93.639496"
         sodipodi:role="line">6.  Start sewing 1st Tackdown stitch.  Stop Machine after.</tspan></text>
    <text
       id="text4587-3"
       y="270.70227"
       x="-93.179352"
       style="font-style:normal;font-variant:normal;font-weight:500;font-stretch:normal;font-size:9.8777771px;line-height:10.57999992px;font-family:KacstPen;-inkscape-font-specification:'KacstPen Medium';font-variant-ligatures:normal;font-variant-caps:normal;font-variant-numeric:normal;text-align:start;letter-spacing:0px;word-spacing:0px;writing-mode:lr-tb;text-anchor:start;fill:#000000;fill-opacity:1;stroke:none;stroke-width:0.26458332px;stroke-linecap:butt;stroke-linejoin:miter;stroke-opacity:1"
       xml:space="preserve"
       sodipodi:insensitive="true"><tspan
         style="line-height:10.57999992px;stroke-width:0.26458332px"
         y="270.70227"
         x="-93.179352"
         id="tspan4585-4"
         sodipodi:role="line">7.  Completely cut away excess material from the tack</tspan><tspan
         id="tspan4589-4"
         style="line-height:10.57999992px;stroke-width:0.26458332px"
         y="281.60324"
         x="-93.179352"
         sodipodi:role="line">down stitch.  Best to use applique scissors if available.</tspan></text>
    <text
       id="text4593-9"
       y="298.44931"
       x="-93.938591"
       style="font-style:normal;font-variant:normal;font-weight:500;font-stretch:normal;font-size:9.8777771px;line-height:10.57999992px;font-family:KacstPen;-inkscape-font-specification:'KacstPen Medium';font-variant-ligatures:normal;font-variant-caps:normal;font-variant-numeric:normal;text-align:start;letter-spacing:0px;word-spacing:0px;writing-mode:lr-tb;text-anchor:start;fill:#000000;fill-opacity:1;stroke:none;stroke-width:0.26458332px;stroke-linecap:butt;stroke-linejoin:miter;stroke-opacity:1"
       xml:space="preserve"
       sodipodi:insensitive="true"><tspan
         style="line-height:10.57999992px;stroke-width:0.26458332px"
         y="298.44931"
         x="-93.938591"
         id="tspan4591-1"
         sodipodi:role="line">8.  Start machine again and let it finish stitching the rest </tspan><tspan
         id="tspan4595-1"
         style="line-height:10.57999992px;stroke-width:0.26458332px"
         y="309.35028"
         x="-93.938591"
         sodipodi:role="line">of the design.  Applique portion is finished at this point.</tspan></text>
  </g>
  <g
     sodipodi:insensitive="true"
     style="display:none"
     inkscape:groupmode="layer"
     id="layer2"
     inkscape:label="Vector Cut Files">
    <path
       style="opacity:1;fill:none;fill-opacity:1;stroke:#000000;stroke-width:0.44967338;stroke-linecap:butt;stroke-linejoin:round;stroke-miterlimit:4;stroke-dasharray:none;stroke-dashoffset:0;stroke-opacity:1"
       d="m 16.453459,73.721163 c 0,0 -8.1340807,-26.466109 17.846413,-38.363718 0,0 9.59093,-4.249146 19.667477,-1.821062 0,0 0.728426,-8.012676 4.006337,-11.169184 0,0 1.942468,-2.913701 1.69966,1.45685 0,0 0.242808,7.28425 -1.456851,9.712334 0,0 2.792296,2.549487 8.012675,-0.242809 0,0 -2.306679,5.341784 0,8.862504 0,0 3.277912,-2.913699 6.920038,-1.699657 0,0 4.977572,-0.607022 11.411992,3.277912 0,0 0.728426,2.063871 4.127742,0.485617 0,0 5.098976,-4.006337 5.584592,-0.1214 0,0 0.485616,6.920034 -2.306679,9.469521 0,0 0.242807,1.821063 -1.821062,2.185275 0,0 -0.364214,1.578254 -2.063871,1.45685 0,0 -2.063871,-0.121399 -1.578255,2.670892 0,0 1.335447,2.549488 -1.335445,3.035105 0,0 -2.063871,1.092637 -3.884934,-2.063871 0,0 -0.84983,-2.30668 -2.549488,-2.185275 0,0 -2.306679,-1.699659 -4.491954,-1.092639 0,0 -7.162847,-0.728425 -11.290589,1.335446 0,0 -2.792295,3.277913 -6.920037,2.30668 0,0 -4.006338,-0.60702 -4.370551,-4.613358 0,0 -4.491953,-5.341784 -11.047779,3.642124 0,0 -5.220379,7.041443 4.37055,17.725009 0,0 -12.74744,3.399315 -28.529981,-4.249146 z"
       id="path4340"
       inkscape:connector-curvature="0"
       sodipodi:nodetypes="ccccccccccccccccccc" />
  </g>
  <g
     style="display:inline"
     inkscape:label="Placement Stitch - Light Cinnamon"
     id="layer5"
     inkscape:groupmode="layer">
    <path
       embroider_running_stitch_length_mm="1"
       embroider_trim_after="True"
       embroider_stop_after="True"
       sodipodi:nodetypes="cccccccccccccccccccccccccccccccccccccccccccccc"
       inkscape:connector-curvature="0"
       id="path4390"
       d="m 59.309132,21.487017 c 0,0 0.546317,-0.0607 0.394562,3.277913 0,0 0.0607,6.373719 -1.456847,8.801803 0,0 2.792295,2.458435 7.951973,-0.212456 0,0 -2.306679,4.856167 0.03034,8.832154 0,0 3.308269,-2.974403 6.859341,-1.73001 0,0 5.554241,-0.485618 11.503046,3.277912 0,0 0.698073,2.063871 4.158092,0.485617 0,0 3.217211,-2.579838 4.765113,-1.608605 0,0 1.183691,-0.03035 0.698075,4.734763 0,0 -0.09105,3.945634 -2.215626,6.191612 0,0 0.09105,1.972818 -1.851413,2.185275 0,0 -0.303511,1.122988 -1.305095,1.396149 0,0 -1.821063,-0.03035 -2.185275,0.880179 0,0 -0.515969,1.031936 0.0607,2.397732 0,0 0.485612,1.547904 -0.698078,2.245979 0,0 -0.880181,0.364212 -1.487201,0.424914 0,0 -1.396149,0.333862 -2.822647,-1.547903 0,0 -0.728425,-1.365798 -1.183692,-1.912116 0,0 -0.849829,-1.274745 -1.760359,-0.880181 0,0 -2.337031,-1.76036 -4.400902,-1.18369 0,0 -8.46794,-0.591846 -11.411992,1.396148 0,0 -2.893678,3.159729 -6.743372,2.318776 0,0 -4.092634,-0.50457 -4.541142,-4.634582 0,0 -3.382499,-3.999196 -8.54034,0.710138 0,0 -2.149102,2.186476 -2.7658,3.326433 0,0 -1.139959,1.980911 -1.177334,4.634583 0,0 -0.186878,2.205165 1.214709,5.811916 0,0 1.887472,4.186075 4.597209,6.877123 0,0 -7.923642,1.737968 -15.884661,-0.05607 0,0 -3.588063,-0.784883 -4.578517,-1.102577 0,0 -3.475937,-1.065207 -4.242138,-1.438962 0,0 -3.401186,-1.3829 -3.868383,-1.663217 0,0 -1.270772,-5.083091 -1.139957,-7.419071 0,0 -0.09344,-4.279514 0.112122,-5.008339 0,0 0.373761,-4.354264 1.364217,-7.213503 0,0 1.420275,-4.503768 3.812319,-7.755451 0,0 2.093036,-2.896615 4.111322,-4.709334 0,0 2.485482,-2.205165 4.223451,-3.289059 0,0 2.933989,-1.868784 4.410327,-2.504169 0,0 3.382499,-1.569778 5.942733,-2.055663 0,0 3.457248,-0.859639 6.914498,-0.953077 0,0 4.970963,-0.205567 7.774137,0.728823 0,0 0.78489,-5.849291 1.999599,-8.01708 0,0 1.121269,-2.560233 2.055662,-3.176931 0,0 1.046518,-1.625841 1.532401,-0.59801"
       style="opacity:1;fill:none;fill-opacity:1;stroke:#a25022;stroke-width:0.1;stroke-linecap:butt;stroke-linejoin:round;stroke-miterlimit:4;stroke-dasharray:0.1, 0.1;stroke-dashoffset:0;stroke-opacity:1" />
  </g>
  <g
     style="display:inline"
     inkscape:groupmode="layer"
     id="layer6"
     inkscape:label="Tack Down Stitch - Light Cinnamon">
    <path
       embroider_running_stitch_length_mm="1"
       embroider_trim_after="True"
       embroider_stop_after="True"
       sodipodi:nodetypes="cccccccccccccccccccccccccccccccccccccccccccccc"
       inkscape:connector-curvature="0"
       id="path4390-8"
       d="m 59.309132,21.487015 c 0,0 0.546317,-0.0607 0.394563,3.277913 0,0 0.0607,6.373719 -1.456847,8.801804 0,0 2.792294,2.458435 7.951973,-0.212456 0,0 -2.30668,4.856167 0.03034,8.832154 0,0 3.308268,-2.974403 6.859341,-1.73001 0,0 5.55424,-0.485618 11.503047,3.277912 0,0 0.698071,2.063871 4.158091,0.485617 0,0 3.217211,-2.579838 4.765114,-1.608605 0,0 1.18369,-0.03035 0.698074,4.734763 0,0 -0.09105,3.945634 -2.215626,6.191613 0,0 0.09105,1.972818 -1.851414,2.185273 0,0 -0.303509,1.12299 -1.305095,1.396151 0,0 -1.821063,-0.03035 -2.185275,0.880178 0,0 -0.51597,1.031936 0.0607,2.397731 0,0 0.485614,1.547905 -0.698076,2.245979 0,0 -0.880182,0.364213 -1.487202,0.424916 0,0 -1.396148,0.333862 -2.822647,-1.547905 0,0 -0.728427,-1.365798 -1.183692,-1.912115 0,0 -0.849829,-1.274744 -1.760361,-0.880181 0,0 -2.33703,-1.76036 -4.400902,-1.18369 0,0 -8.467939,-0.591847 -11.411989,1.396148 0,0 -2.89368,3.15973 -6.743375,2.318776 0,0 -4.092633,-0.504571 -4.541142,-4.634582 0,0 -3.382499,-3.999195 -8.54034,0.710139 0,0 -2.149101,2.186475 -2.765799,3.326432 0,0 -1.139959,1.980912 -1.177334,4.634584 0,0 -0.186878,2.205165 1.214709,5.811915 0,0 1.887473,4.186076 4.597208,6.877124 0,0 -7.923641,1.737968 -15.88466,-0.05607 0,0 -3.588063,-0.784884 -4.578517,-1.102577 0,0 -3.475937,-1.065207 -4.242138,-1.438963 0,0 -3.401186,-1.3829 -3.868383,-1.663215 0,0 -1.270772,-5.083091 -1.139957,-7.419071 0,0 -0.09344,-4.279516 0.112122,-5.00834 0,0 0.373761,-4.354264 1.364217,-7.213502 0,0 1.420275,-4.503769 3.812319,-7.755452 0,0 2.093036,-2.896615 4.111322,-4.709334 0,0 2.485482,-2.205165 4.223451,-3.289059 0,0 2.933989,-1.868784 4.410327,-2.504169 0,0 3.382499,-1.569778 5.942733,-2.055663 0,0 3.457247,-0.859639 6.914499,-0.953077 0,0 4.970963,-0.205567 7.774136,0.728823 0,0 0.784889,-5.849292 1.999599,-8.017081 0,0 1.12127,-2.560233 2.055662,-3.176931 0,0 1.046519,-1.625841 1.5324,-0.59801"
       style="display:inline;opacity:1;fill:none;fill-opacity:1;stroke:#a25022;stroke-width:0.1;stroke-linecap:butt;stroke-linejoin:round;stroke-miterlimit:4;stroke-dasharray:0.1, 0.1;stroke-dashoffset:0;stroke-opacity:1" />
  </g>
  <g
     style="display:inline"
     inkscape:label="Zig Zag Tackdown"
     id="layer8"
     inkscape:groupmode="layer">
    <path
       embroider_zigzag_spacing_mm="1.2"
       embroider_satin_column="True"
       inkscape:connector-curvature="0"
       d="m 57.511108,27.608332 h 4.441267 m -4.071164,-2.009147 3.648187,-1.427549 m -3.330954,0.105736 2.696485,-3.912545 m -1.533294,0.740211 c 0,0 1.16319,0.370106 0.528721,7.454987 M 58.780041,22.9027 c 0,0 0.105736,4.388396 -0.211488,5.815946"
       style="opacity:1;fill:none;fill-opacity:1;stroke:#a25022;stroke-width:0.16702154;stroke-linecap:butt;stroke-linejoin:round;stroke-miterlimit:4;stroke-dasharray:none;stroke-dashoffset:0;stroke-opacity:1"
       id="path4484" />
    <path
       id="path4697"
       style="opacity:1;fill:none;fill-opacity:1;stroke:#a25022;stroke-width:0.16702154;stroke-linecap:butt;stroke-linejoin:round;stroke-miterlimit:4;stroke-dasharray:none;stroke-dashoffset:0;stroke-opacity:1"
       d="m 58.132816,24.448139 1.334563,-5.087879 m -1.533294,5.234352 -1.903401,-3.330951 m 1.163188,5.392971 -3.013718,-2.855103 m 2.167764,5.763076 -3.330953,-2.379252 m 3.066592,5.710201 -4.335526,-2.907972 m 3.27808,5.498714 -3.383826,-4.969991 m 0.264361,5.128607 -2.114888,-5.551583 m -3.066591,5.92169 -1.163188,-5.868822 m -2.379255,6.926268 -1.057441,-5.921695 m -4.071165,6.873395 -1.268934,-6.027437 m -2.590738,7.825095 -1.744785,-6.238927 m -1.956273,8.618177 c 0,0 -2.749357,-6.344672 -2.749357,-6.133181 m -0.951703,9.094026 c 0,0 -3.172334,-6.080307 -3.066589,-5.868819 m -0.05287,8.93541 -3.436696,-5.234352 m 1.216061,9.41126 -5.392969,-5.234354 m 4.441268,9.305518 C 20.447663,56.265089 14.208737,53.40999 14.208737,53.40999 m 6.291796,7.454987 -7.032009,-1.956273 m 5.815947,4.917118 c -0.211487,0.05287 -6.450413,0.475851 -6.450413,0.475851 m 5.498713,3.278079 -5.181479,3.172335 m 7.243498,-0.211489 -6.767648,5.710204 m 11.314661,-4.282654 -5.075736,7.032011 m 8.72392,-5.287226 c -0.05287,0.211489 -3.33095,6.609033 -3.33095,6.609033 m 7.084879,-5.868822 -2.273507,6.450414 m 4.758503,-5.075732 -0.951699,5.181479 m 3.75393,-4.811377 1.533296,5.022865 m 0.581593,-4.811376 3.383825,3.859675 m -1.956273,-3.859675 5.392969,2.062018 m -6.767649,-4.441268 4.547014,-0.422977 m -6.55616,-2.643615 4.811376,-0.581592 m -5.234353,-2.907976 3.806803,-0.158616 m -4.547014,-5.181479 4.811376,1.480423 m -1.744785,-5.921692 3.436696,2.590738 m 0.105737,-6.13318 2.590741,4.547015 m 1.004572,-6.450414 0.370104,4.917117 m 3.91255,-4.282652 -1.956276,4.705629 m 4.652761,-2.8551 -3.648188,3.912547 m 4.599886,-1.533297 -3.225206,3.278081 m 4.599884,-2.484996 -2.696484,4.441269 m 3.753929,-3.595316 -0.687337,4.124039 m 2.009145,-4.388398 0.264362,4.65276 m 1.110315,-5.340099 c 0.05287,0.211488 1.427554,4.282652 1.427554,4.282652 m 0.31723,-5.234353 2.220635,3.489569 m -0.264361,-4.494141 1.639042,3.912544 m 2.484995,-4.282649 0.317232,3.48957 m 3.753929,-3.859677 -0.211489,3.701057 m 4.388399,-4.811373 -0.370106,5.392969 m 3.595314,-4.018291 -0.581596,4.599883 m 2.220634,-4.018288 -1.374676,4.7585 m 3.436695,-3.013715 -2.484996,4.07116 m 2.907973,-1.744784 -2.114888,3.383827 m 2.537864,-2.590742 0.528724,4.282653 m 0.211489,-4.018292 1.903404,2.802231 m -1.374682,-2.643615 3.172335,0.634469 m -3.436696,-1.850531 3.701057,0.264362 m -3.8068,-2.590738 3.8068,1.744784 m -2.220634,-3.965419 3.383826,3.701057 m -1.744785,-4.65276 2.37925,4.124038 m -1.321807,-4.3884 2.749356,3.383827 m -1.744784,-4.071165 3.383828,2.273508 M 90.08041,52.45829 c 0.211489,0.105737 3.75393,1.850527 3.75393,1.850527 m -2.907977,-3.013719 3.806805,1.797657 m -2.960847,-3.595311 3.489569,1.797654 m -2.80223,-3.8068 3.278081,0.422977 m -3.119462,-2.484995 3.172335,-1.586169 m -3.489569,0.370107 1.321807,-3.542442 m -2.167765,4.176908 c -0.05287,-0.211488 -0.264362,-4.018293 -0.264362,-4.018293 m -1.744783,5.498715 -0.845955,-4.652757 m -1.691912,5.815949 0.05287,-5.392972 m -3.806799,3.542442 2.432123,-3.489569 m -5.181481,1.850531 2.009146,-3.91255 m -6.344672,2.696487 1.639041,-4.01829 m -4.917121,3.912545 c -0.05287,-0.211488 0.422981,-4.22978 0.422981,-4.22978 m -2.590743,4.071165 c 0,-0.211489 0.528724,-4.547015 0.528724,-4.547015 m -3.489569,5.234354 1.110318,-4.652758 m -3.119463,5.710203 1.216062,-3.912549 m -2.643611,2.32638 2.590738,-2.80223 m -3.436696,-0.422977 3.172334,-1.42755 m -3.013715,-1.321807 3.8068,-2.432122 m -3.066587,1.268933 2.749356,-3.383826 m -3.330953,3.806802 0.211489,-3.172333 m -2.220634,3.701057 0.528723,-4.176906 m -4.018293,3.8068 c 0.105748,-0.211489 2.432123,-3.383824 2.432123,-3.383824 m -4.758502,1.85053 4.229781,-1.586168 m -3.542439,-1.11032 h 4.22978 M 57.40536,28.560032 h 5.075737 m -2.537869,-1.076273 c 0,0 -0.740212,5.464669 -1.268933,5.993392 0,0 2.907975,2.009145 7.402116,-0.370105 0,0 0.740211,-0.317234 0.211489,0.898828 0,0 -1.744784,3.489568 0,7.666476 0,0 3.436696,-2.802229 6.767647,-1.480423 0,0 7.084883,-0.211489 11.737641,3.330951 0,0 0.687338,1.903402 3.965418,0.422979 0,0 2.749357,-2.590741 4.969992,-1.533295 0,0 1.427552,0.793084 0.687338,6.291798 0,0 -0.845954,3.648185 -2.009144,4.864247 0,0 -0.264361,1.956273 -2.062019,2.432123 0,0 -0.211489,1.374678 -2.062016,1.374678 0,0 -1.744785,0.105748 -1.533296,1.903402 0,0 0.211489,1.057445 0.422978,1.533295 0,0 0.370106,1.268934 -1.216062,2.167762 0,0 -1.744783,0.740212 -3.119463,0 0,0 -0.793084,-0.898828 -1.374678,-1.42755 0,0 -1.268935,-2.855102 -2.643613,-2.537868 0,0 -3.013718,-1.956273 -4.388396,-1.110318 0,0 -8.353816,-0.740212 -11.26179,1.216062 0,0 -3.701058,3.701057 -7.402114,2.326379 0,0 -3.806804,-0.687338 -4.388398,-4.652758 0,0 -3.119463,-3.489569 -7.29637,0.105748 0,0 -3.542442,2.643606 -4.229781,5.974559 0,0 -1.216061,3.701058 0.793084,8.195199 0,0 2.960846,5.445842 4.758502,7.032009 0,0 -5.445841,1.110318 -10.204344,0.898828 0,0 -7.08488,-0.581595 -10.944557,-1.956274 0,0 -7.137752,-2.590739 -8.089453,-3.172333 0,0 -2.537868,-9.728496 -0.898829,-14.381253 0,0 1.480423,-8.089455 3.172335,-10.151474 0,0 5.022864,-8.142325 7.930838,-9.464132 0,0 8.353816,-6.450414 12.953701,-6.397541 0,0 10.151473,-2.062019 14.434125,-0.264362 0,0 1.004573,-8.459559 3.806802,-10.944556 0,0 1.235505,-1.44761 2.187205,-0.918886 m -1.030702,6.088225 c 0,0 -0.469164,4.453408 -1.156502,5.457981 0,0 -0.581596,0.793087 0.26436,1.480425 0,0 1.85053,2.009146 6.979137,0.475851 0,0 -1.374678,3.383823 0.422979,7.560732 0,0 0.528721,1.268933 1.850529,0.317233 0,0 2.907974,-2.432123 5.86882,-1.374679 0,0 7.137754,-0.105737 10.944555,3.066592 0,0 1.374678,2.273505 5.340098,0.740211 0,0 1.9034,-2.062019 3.489569,-1.9034 0,0 1.321805,-0.105748 0.422978,5.287223 0,0 -0.475851,3.542441 -2.062019,4.494141 0,0 0.264361,1.691913 -1.110317,1.797657 0,0 -0.740211,0.317235 -0.845956,0.793085 0,0 0.105737,0.793083 -1.480423,0.634466 0,0 -2.907974,0.317234 -1.850528,4.494142 0,0 0.634466,1.216062 -1.427551,1.42755 0,0 -1.268935,0.05287 -2.220635,-1.744784 0,0 -1.374679,-2.643612 -3.06659,-2.590739 0,0 -2.484996,-1.85053 -4.811374,-1.216063 0,0 -8.565305,-0.740211 -11.896258,1.586168 0,0 -2.432124,2.696485 -5.763076,2.220634 0,0 -3.753928,-0.317234 -4.124035,-4.22978 0,0 -4.018291,-4.758502 -9.675622,0.158617 0,0 -3.75393,3.066591 -4.282652,6.767649 0,0 -0.845957,4.811374 1.691912,9.622748 0,0 2.379251,3.96542 3.119463,4.494142 0,0 -5.128608,0.951701 -7.719348,0.528721 0,0 -6.979138,-0.264359 -13.218063,-2.590739 0,0 -4.176909,-1.480423 -5.181482,-2.062018 0,0 -1.797655,-7.137753 -1.004571,-11.367534 0,0 0.528721,-8.45956 4.071163,-13.37668 0,0 4.864247,-7.772221 12.107746,-11.103172 0,0 10.680194,-5.551586 20.990282,-3.013717 0,0 1.163191,0.634466 1.586168,-0.793084 0,0 0.581596,-6.186055 2.062017,-8.036583 0,0 0.694025,-2.570067 1.843844,-2.122191"
       inkscape:connector-curvature="0"
       sodipodi:nodetypes="cccccccccccccccccccccccccccccccccccccccccccccccccccccccccccccccccccccccccccccccccccccccccccccccccccccccccccccccccccccccccccccccccccccccccccccccccccccccccccccccccccccccccccccccccccccccccccccccccccccccccccccccccccccccccccccccccccccccccccccccccccc"
       embroider_satin_column="True"
       embroider_zigzag_spacing_mm="1.2"
       embroider_stop_after="True"
       embroider_trim_after="True" />
  </g>
  <g
     style="display:inline"
     inkscape:label="Cover Stitch - Light Cinnamon"
     id="layer10"
     inkscape:groupmode="layer">
    <path
       embroider_pull_compensation_mm=".2"
       embroider_zigzag_spacing_mm="0.33"
       embroider_satin_column="True"
       inkscape:connector-curvature="0"
       d="m 89.510752,53.297244 3.922292,3.987661 m -3.660806,-5.425833 c 0.392231,0.130745 5.098975,3.595433 5.098975,3.595433 m -4.053029,-4.90286 4.837489,3.464688 M 91.537269,49.11347 c 0.261485,0.196114 5.75269,1.895772 5.75269,1.895772 m -4.968234,-3.987656 4.968234,-0.653716 m -4.968234,-0.915201 4.706744,-3.399318 m -4.837484,2.61486 c 0.06537,-0.261485 2.091888,-5.295088 2.091888,-5.295088 m -2.810977,5.42583 c -0.06537,-0.261487 0.196117,-5.81806 0.196117,-5.81806 m -1.307431,7.190863 c 0,-0.392229 -1.111316,-6.079549 -1.111316,-6.079549 m -1.961144,7.256233 c 0,-0.326854 0.392231,-6.079546 0.392231,-6.079546 m -3.660803,5.360461 2.418743,-6.406403 m -5.491201,4.183774 2.614857,-5.752691 m -6.733262,4.249146 c 0,-0.261486 1.568917,-5.098975 1.568917,-5.098975 m -5.491206,4.968234 0.261486,-6.47178 m -2.680229,5.948805 0.392227,-5.948805 m -1.503544,2.745604 c 0,0 2.157261,-0.719088 3.660805,0.06537 0,0 6.144919,-0.588341 12.289838,3.530062 0,0 0.392229,1.30743 2.288001,0.653715 0,0 3.07246,-2.61486 5.491204,-2.288002 0,0 2.61486,0.130742 2.61486,4.314516 0,0 0.130743,6.210292 -2.418745,8.629037 0,0 0.130743,1.76503 -2.026516,2.680229 M 69.507082,41.465008 c 0,0 2.288002,-0.719084 3.399316,0.130744 0,0 5.491206,-0.653714 10.851667,3.072459 0,0 1.503543,2.22263 5.229719,0.719087 0,0 2.484115,-2.026516 3.856916,-1.830402 0,0 0.784458,0.84983 0.130744,4.510632 0,0 -0.261486,2.745603 -1.568916,4.314518 0,0 -0.588344,0.522971 -0.588344,1.634287 0,0 0.06537,0.653714 -1.045943,0.719087"
       style="opacity:1;fill:none;fill-opacity:1;stroke:#a25022;stroke-width:0.1;stroke-linecap:butt;stroke-linejoin:round;stroke-miterlimit:4;stroke-dasharray:none;stroke-dashoffset:0;stroke-opacity:1"
       id="path4814" />
    <path
       style="opacity:1;fill:none;fill-opacity:1;stroke:#a25022;stroke-width:0.1;stroke-linecap:butt;stroke-linejoin:round;stroke-miterlimit:4;stroke-dasharray:0.1, 0.1;stroke-dashoffset:0;stroke-opacity:1"
       d="m 90.556698,55.585246 c 0,0 -0.849828,-1.503541 -2.15726,-2.35337 0,0 -1.3728,-1.111316 -3.333944,-0.261487 0,0 -1.765029,0.653715 -2.941715,-0.06537 0,0 -0.915202,-0.653716 -1.372802,-1.438174 0,0 1.242058,-0.457601 1.76503,-1.568916 0,0 -1.438173,2.026517 -3.595431,2.222631"
       id="path4861"
       inkscape:connector-curvature="0"
       embroider_repeats="2"
       embroider_running_stitch_length_mm="1" />
    <path
       id="path4372"
       style="opacity:1;fill:none;fill-opacity:1;stroke:#a25022;stroke-width:0.1;stroke-linecap:butt;stroke-linejoin:round;stroke-miterlimit:4;stroke-dasharray:none;stroke-dashoffset:0;stroke-opacity:1"
       d="m 61.854122,56.306769 c 0.0402,0.160784 0.844101,6.230274 0.844101,6.230274 m 2.210742,-7.757696 c 0,0.16078 0.52254,6.752815 0.52254,6.752815 m 6.029297,-7.114571 c 0,0.160781 -0.04019,6.109688 -0.04019,6.109688 m 4.381282,-5.627344 0.0402,5.506757 m 3.858748,-4.743047 -1.648009,5.828322 m 4.059726,-4.622462 -3.697967,5.024415 m 4.783239,-3.01465 -4.099918,5.064611 m 4.542067,-3.456799 -1.527421,5.506761 m 2.049961,-6.109691 c 0,0 2.813672,6.55184 2.733282,6.391055 m -3.778361,-8.199842 c 0.241175,0.120589 5.747932,3.858748 5.747932,3.858748 m -3.697971,-6.67242 3.979339,5.144999 m -1.808789,-5.948907 2.894062,5.989104 m -1.648009,-5.989104 3.416603,4.461682 m 0.160779,-2.77348 c 0,0 -0.562733,0.52254 -1.085272,0.60293 0,0 -0.401951,1.889182 -3.014648,1.848986 0,0 -0.602929,0.241173 -0.160781,1.004884 0,0 0.924493,2.813673 -0.60293,3.738165 0,0 -0.723515,0.803905 -1.768594,0.76371 0,0 -3.416602,1.688203 -5.74793,-3.215625 0,0 -0.522539,-0.964688 -1.205859,-0.844101 0,0 -2.733282,-1.648008 -4.180313,-1.045078 0,0 -8.119454,-0.844103 -10.852736,1.246053 0,0 -1.045078,0.844103 -1.808789,0.683321 m 28.900433,-6.431251 c 0,0 -1.28625,0.08039 -1.688201,1.125467 0,0 0.08039,0.723518 -0.884297,0.602932 0,0 -1.36664,-0.321563 -2.049962,0.763711 0,0 -1.045077,0.884297 -0.602929,3.095039 0,0 0.924492,1.688204 -0.321564,1.728399 0,0 -0.602929,0.361758 -1.205859,0.04019 0,0 -0.964687,-0.04019 -2.009765,-2.170539 0,0 -0.562734,-1.487227 -2.612696,-1.969572 0,0 -2.371523,-1.889178 -4.944024,-1.326445 0,0 -9.043946,-0.803905 -12.822307,2.250938"
       inkscape:connector-curvature="0"
       embroider_satin_column="True"
       embroider_pull_compensation_mm=".3"
       embroider_zigzag_spacing_mm=".33" />
    <path
       embroider_running_stitch_length_mm="1"
       inkscape:connector-curvature="0"
       id="path4300"
       d="m 61.866838,60.009903 2.444123,-3.069362 1.591519,-4.035646"
       style="opacity:1;fill:none;fill-opacity:1;stroke:#a25022;stroke-width:0.1;stroke-linecap:butt;stroke-linejoin:round;stroke-miterlimit:4;stroke-dasharray:0.1, 0.1;stroke-dashoffset:0;stroke-opacity:1" />
    <path
       id="path4375"
       style="opacity:1;fill:none;fill-opacity:1;stroke:#a25022;stroke-width:0.1;stroke-linecap:butt;stroke-linejoin:round;stroke-miterlimit:4;stroke-dasharray:none;stroke-dashoffset:0;stroke-opacity:1"
       d="m 54.307111,55.860577 -4.888244,0.8526 m 5.513484,-0.5684 -5.058764,3.865126 m 6.138727,-3.183042 c -0.113678,0.22736 -4.149326,6.650282 -4.149326,6.650282 m 5.286126,-5.058763 -1.07996,6.877647 m 3.183043,-7.161847 0.795758,6.820808 m 0.909445,-8.469171 2.671481,5.286125 m -1.477842,-7.048163 4.09248,3.751441 m -3.239881,-5.229285 3.751445,2.216762 m -2.557802,-3.637761 3.580921,1.818879 m -1.420998,-1.364159 0.05684,1.1368 c 0,0 0.113677,3.467245 -3.012526,6.934486 0,0 -2.728318,2.728323 -6.309242,2.387284 0,0 -4.717723,0.341039 -6.593445,-5.229286 0,0 -0.170521,0.170521 0.113677,-1.705202 m 15.119453,-3.694602 -0.852599,1.07996 c 0,0 -1.307319,3.637765 -3.126203,5.172443 0,0 -1.364159,2.273603 -5.456643,1.762044 0,0 -3.012524,0.113677 -3.978804,-4.547204"
       inkscape:connector-curvature="0"
       embroider_satin_column="True"
       embroider_zigzag_spacing_mm="0.33"
       embroider_pull_compensation_mm=".02" />
    <path
       embroider_running_stitch_length_mm="1"
       inkscape:connector-curvature="0"
       id="path4430"
       d="m 51.46511,55.860577 c 0,0 0,-1.818882 -0.05684,-2.103082 -0.05684,-0.284199 0.341038,-3.126203 0.341038,-3.126203"
       style="opacity:1;fill:none;fill-opacity:1;stroke:#a25022;stroke-width:0.1;stroke-linecap:butt;stroke-linejoin:round;stroke-miterlimit:4;stroke-dasharray:0.1, 0.1;stroke-dashoffset:0;stroke-opacity:1" />
    <path
       id="path4496"
       style="opacity:1;fill:none;fill-opacity:1;stroke:#a25022;stroke-width:0.1;stroke-linecap:butt;stroke-linejoin:round;stroke-miterlimit:4;stroke-dasharray:none;stroke-dashoffset:0;stroke-opacity:1"
       d="m 49.362027,56.997381 4.888245,-0.738924 m -5.001925,-0.966278 c 0.22736,-0.113678 4.717725,-0.682081 4.717725,-0.682081 m -4.433525,-2.103083 4.604045,-0.113677 m -4.206165,-1.932566 3.921964,-0.113676 m -1.421002,-0.568403 0.17052,1.25048 c 0,0 -0.738921,4.035645 0.397883,6.593446 m -1.534682,-7.730247 -0.625241,1.250481 c 0,0 -1.023122,3.467245 -0.341039,6.422927"
       inkscape:connector-curvature="0"
       embroider_satin_column="True"
       embroider_zigzag_spacing_mm="0.33" />
    <path
       embroider_zigzag_spacing_mm="0.33"
       embroider_satin_column="True"
       inkscape:connector-curvature="0"
       d="m 20.146243,79.051318 2.159922,-6.309247 m 1.079961,6.593447 2.21676,-6.252405 m 5.456645,8.014447 0.682082,-6.025046 m 6.650285,6.252407 -1.079959,-6.081887 m 7.275522,5.513484 -5.342963,-4.604041 m 8.41233,2.898841 -6.536607,-2.500962 m 5.854524,-1.193642 -5.740845,0.852602 m 3.694606,-4.319845 -4.319846,3.580921 m 2.159923,-6.536602 -4.888246,3.637761 m 4.376686,-7.332364 -6.195567,0.62524 m 7.900766,-5.058765 c -0.227359,0 -6.707124,-1.989402 -6.707124,-1.989402 m 8.980727,0.05684 -3.751442,-4.547202 m 5.342964,3.694602 -0.39788,-5.968205 m 1.7052,6.252405 1.762043,-6.536605 m 0.34104,2.898843 c 0,0 -2.387282,-1.534682 -5.968205,-0.113677 0,0 -3.978803,2.103079 -5.058765,4.20616 0,0 -2.500962,4.149325 -2.159921,6.650286 0,0 0.227359,4.831404 2.330442,7.900767 0,0 1.7052,2.785162 2.671482,3.865123 0,0 -7.673407,0.966281 -11.36801,0 0,0 -8.241806,-1.364161 -11.026969,-2.898842 M 50.839869,57.33842 c 0,0 -3.012522,-2.216761 -5.854524,0.227361 0,0 -4.092484,2.955682 -4.376685,6.707127 0,0 -0.45472,4.035643 1.932562,8.071286 0,0 1.818882,3.069362 3.183043,4.376683 0,0 1.02312,0.909441 0.397881,1.705202 0,0 0.22736,1.136801 -3.524083,1.421002 0,0 -6.820806,0.738921 -11.08381,-0.170521 0,0 -9.264929,-1.762042 -11.53853,-2.955683"
       style="opacity:1;fill:none;fill-opacity:1;stroke:#a25022;stroke-width:0.1;stroke-linecap:butt;stroke-linejoin:round;stroke-miterlimit:4;stroke-dasharray:none;stroke-dashoffset:0;stroke-opacity:1"
       id="path4587" />
    <path
       style="opacity:1;fill:none;fill-opacity:1;stroke:#a25022;stroke-width:0.1;stroke-linecap:butt;stroke-linejoin:round;stroke-miterlimit:4;stroke-dasharray:0.1, 0.1;stroke-dashoffset:0;stroke-opacity:1"
       d="M 20.373604,75.640916 17.531601,74.163074 17.2474,73.594674"
       id="path4649"
       inkscape:connector-curvature="0"
       embroider_running_stitch_length_mm="1" />
    <path
       embroider_zigzag_spacing_mm="0.33"
       embroider_satin_column="True"
       inkscape:connector-curvature="0"
       d="m 51.010389,36.080242 0.852599,-6.877647 m -5.797684,7.048167 1.02312,-7.275527 m -9.151246,8.355486 0.170519,-7.502886 M 30.377451,40.627443 29.297492,32.8972 m -4.831405,13.641612 -3.069364,-7.559727 m -0.68208,15.631013 -5.911366,-7.446047 m 4.092484,14.94893 -6.366084,-3.410401 m 6.081885,9.32177 -6.877648,0.2842 m 6.991328,3.239881 -5.740845,1.36416 m 2.159922,1.364163 c 0,0 -1.705201,-7.389207 -1.193641,-9.66281 0,0 0.17052,-7.900765 1.932561,-12.277449 0,0 3.012522,-8.071286 8.696528,-12.447969 0,0 7.900766,-7.048167 17.620414,-8.014447 0,0 6.820807,-0.795761 11.595372,0.2842 M 17.58844,73.139954 c 0,0 -2.614643,-7.332367 -0.34104,-16.142573 0,0 1.250482,-7.673408 7.105006,-13.584773 0,0 8.696528,-9.662808 23.645461,-9.492288 0,0 4.547204,0.2842 5.740845,0.68208"
       style="display:inline;opacity:1;fill:none;fill-opacity:1;stroke:#a25022;stroke-width:0.1;stroke-linecap:butt;stroke-linejoin:round;stroke-miterlimit:4;stroke-dasharray:none;stroke-dashoffset:0;stroke-opacity:1"
       id="path4731" />
    <path
       style="opacity:1;fill:none;fill-opacity:1;stroke:#a25022;stroke-width:0.1;stroke-linecap:butt;stroke-linejoin:round;stroke-miterlimit:4;stroke-dasharray:0.1, 0.1;stroke-dashoffset:0;stroke-opacity:1"
       d="m 53.852391,33.57928 0.90944,-4.319845 1.591523,-4.490361 1.705198,-2.614645 1.136805,-0.284199 0.454718,1.25048 v 2.387284 l -0.170519,3.63776 -0.90944,4.206166 1.421001,0.96628 3.353564,-0.17052 3.239882,-0.51156"
       id="path4796"
       inkscape:connector-curvature="0" />
    <path
       inkscape:connector-curvature="0"
       id="path4876"
       style="opacity:1;fill:none;fill-opacity:1;stroke:#a25022;stroke-width:0.1;stroke-linecap:butt;stroke-linejoin:round;stroke-miterlimit:4;stroke-dasharray:none;stroke-dashoffset:0;stroke-opacity:1"
       d="m 58.229077,36.364442 1.705198,-4.831404 m 0.8526,5.627163 0.909444,-5.342963 m 1.818879,5.001924 0.170523,-5.172444 m 1.36416,4.774563 0.966279,-5.570324 m -0.34104,5.456644 1.193644,-5.058763 m -0.34104,3.296721 -2.046243,0.625241 c 0,0 -4.035645,1.534681 -6.479768,-0.454722 M 66.925604,33.06772 65.95932,32.044596 c 0,0 -3.353561,1.875723 -5.911365,0.909444 l -1.364158,-0.682081"
       embroider_satin_column="True"
       embroider_zigzag_spacing_mm="0.33" />
    <path
       embroider_running_stitch_length_mm="1"
       inkscape:connector-curvature="0"
       id="path4946"
       d="m 58.399596,33.238241 0.795761,1.875718 0.909439,0.852602 -0.22736,2.330443 -1.1368,1.875719"
       style="opacity:1;fill:none;fill-opacity:1;stroke:#a25022;stroke-width:0.1;stroke-linecap:butt;stroke-linejoin:round;stroke-miterlimit:4;stroke-dasharray:0.1, 0.1;stroke-dashoffset:0;stroke-opacity:1" />
    <path
       id="path5052"
       style="opacity:1;fill:none;fill-opacity:1;stroke:#a25022;stroke-width:0.1;stroke-linecap:butt;stroke-linejoin:round;stroke-miterlimit:4;stroke-dasharray:none;stroke-dashoffset:0;stroke-opacity:1"
       d="m 51.010389,41.821086 -5.058764,-1.421003 m 5.797683,-0.34104 -5.172444,-2.955681 m 5.797685,1.818882 -4.035642,-5.513484 m 5.456644,5.286124 -3.410402,-7.446046 m 5.342965,6.081883 -4.376684,-7.559726 m 4.831404,2.898845 -4.490365,-4.774565 m 4.774565,1.76204 -4.490365,-3.978802 m 5.172445,2.046242 c 0,0 -2.614643,-5.911366 -2.614643,-5.684006 m 3.126203,3.751445 -0.62524,-6.991327 m 1.193643,6.195566 1.1368,-7.105007 m -1.364164,8.014447 4.604046,-5.627165 m -5.001925,7.673406 5.286125,-1.762042 m -5.740845,5.229285 5.570324,-1.079959 m -6.536604,3.296722 c 0.22736,-0.17052 5.740844,-0.68208 5.740844,-0.68208 m -5.570324,2.330439 6.081885,-0.90944 m -5.740845,3.126203 c 0.22736,-0.05684 6.081884,-1.079961 6.081884,-1.079961 m -5.911365,2.216764 4.774565,1.591518 m -3.751445,0 0.2842,-1.648359 c 0,0 0.284204,-1.648362 -0.909439,-4.319845 0,0 -0.45472,-0.852599 0.341042,-1.81888 0,0 1.534681,-4.717724 0.96628,-8.639687 l -0.625241,0.2842 c 0,0 -2.898842,5.627164 -2.898842,9.435449 0,0 0,3.126202 -0.90944,3.694602 0,0 -4.319845,-0.682081 -4.319845,3.921963 l -0.90944,1.193641 m 10.003849,-1.59152 1.307318,-1.307322 c 0,0 0.966284,-3.353563 -0.05684,-6.479765 0,0 0.966281,-4.376684 0.966281,-7.105007 0,0 0.2842,-3.126203 -0.17052,-4.206164 0,0 -1.079962,-3.183043 -3.808282,-0.511559 0,0 -4.433525,4.660884 -4.376685,10.913288 0,0 -4.945084,3.353563 -4.831405,8.241808 l 0.05684,1.875722"
       inkscape:connector-curvature="0"
       embroider_satin_column="True"
       embroider_zigzag_spacing_mm="0.33"
       embroider_stop_after="False"
       embroider_trim_after="True" />
    <path
       embroider_trim_after="True"
       embroider_repeats="2"
       embroider_running_stitch_length_mm="1"
       inkscape:connector-curvature="0"
       id="path5125"
       d="m 69.426566,44.492569 c 0,0 4.37668,3.751441 10.685929,1.932562"
       style="opacity:1;fill:none;fill-opacity:1;stroke:#a25022;stroke-width:0.1;stroke-linecap:butt;stroke-linejoin:round;stroke-miterlimit:4;stroke-dasharray:0.1, 0.1;stroke-dashoffset:0;stroke-opacity:1" />
  </g>
  <g
     style="display:inline"
     inkscape:label="Eyes - White"
     id="layer3"
     inkscape:groupmode="layer">
    <path
       embroider_fill_underlay_inset_mm=".02"
       embroider_fill_underlay_row_spacing_mm="1.27"
       embroider_fill_underlay_max_stitch_length_mm="4"
       embroider_fill_underlay="True"
       embroider_trim_after="True"
       embroider_max_stitch_length_mm="4"
       embroider_angle="10"
       inkscape:connector-curvature="0"
       id="path5272"
       d="m 66.584563,43.412608 c 0,0 2.898842,-3.126204 5.968205,-1.932561 0,0 3.183043,-4.547204 1.477841,-8.582848 0,0 -2.103081,-2.671482 -5.968205,-2.614642 0,0 -3.183043,0.341041 -3.637763,5.115604 0,0 -1.250481,4.263003 0.682081,7.161846 0,0 0.284201,0.909442 1.477841,0.852601 z"
       style="opacity:1;fill:#ffffff;fill-opacity:1;stroke:none;stroke-width:0.16702154;stroke-linecap:butt;stroke-linejoin:round;stroke-miterlimit:4;stroke-dasharray:none;stroke-dashoffset:0;stroke-opacity:1" />
  </g>
  <g
     style="display:inline"
     inkscape:groupmode="layer"
     id="layer4"
     inkscape:label="Mane and Forelock - Deep Walnut">
    <path
       id="path5387"
       style="opacity:1;fill:none;fill-opacity:1;stroke:#4e2e2d;stroke-width:0.16702154;stroke-linecap:butt;stroke-linejoin:round;stroke-miterlimit:4;stroke-dasharray:none;stroke-dashoffset:0;stroke-opacity:1"
       d="m 51.778899,33.419393 c -0.06069,-0.242796 1.820971,-9.286944 1.820971,-9.286944 m -6.191295,9.165548 C 47.347875,33.0552 48.015563,24.07175 48.015563,24.07175 M 40.428191,34.633373 C 40.367498,34.390577 40.124696,23.282664 40.124696,23.282664 m -4.066834,12.079098 -1.881668,-8.740656 m -4.73452,12.503993 c 0,-0.242797 -4.127534,-10.683023 -4.127534,-10.683023 m -0.849783,15.356845 -4.734521,-9.893936 m 0.910484,14.142864 -7.587373,-7.769468 m 5.34151,13.232377 -8.315762,-4.977316 M 17.787468,59.641359 6.6188522,56.54571 m 9.4690438,8.012264 -7.2838787,0.242796 m 7.0410837,1.94237 -8.8013551,2.610057 m 9.7725381,-1.092585 -9.1048484,5.887803 m 9.8939364,-5.220113 -6.373395,9.226246 m 7.708771,-8.862052 c 0,0 -4.006132,8.983451 -4.006132,8.679957 m 7.16248,-7.041084 -5.038016,6.616191 m 6.676888,-1.335379 c -0.242795,0 -6.312693,2.792153 -6.312693,2.792153 m 5.280811,0.971183 -4.734521,0.182099 m 2.245863,0.728389 c 0,0 -1.396077,-8.497861 -7.465977,-4.734522 0,0 -6.0092008,-1.274678 -2.185163,-11.472109 0,0 -4.1882318,-7.223179 2.610057,-14.567757 0,0 -1.760271,-8.194364 8.862053,-13.535875 0,0 3.945433,-8.012267 12.62539,-7.465975 0,0 4.916617,-6.67689 12.868185,-2.610058 0,0 2.97425,-2.003066 6.858987,0 M 20.883116,81.128801 c 0,0 2.063765,-3.884736 1.27468,-5.887803 0,0 -0.424893,-3.641939 -4.127532,-3.641939 0,0 -3.763337,-1.699571 -3.763337,-4.673821 0,0 0.182097,-8.194365 1.15328,-11.593508 0,0 1.335378,-5.34151 3.824036,-8.740655 0,0 2.974251,-5.159414 8.012267,-8.315762 0,0 6.858987,-4.734521 14.203564,-6.069898 0,0 8.619257,-0.789087 11.836303,0.121398"
       inkscape:connector-curvature="0"
       embroider_satin_column="True"
       embroider_zigzag_spacing_mm="0.33"
       embroider_trim_after="True"
       embroider_zigzag_underlay="True"
       embroider_zigzag_underlay_spacing_mm="1.2"
       embroider_zigzag_underlay_inset_mm=".02" />
    <path
       embroider_zigzag_underlay_spacing_mm="1.2"
       embroider_zigzag_underlay_inset_mm=".02"
       embroider_zigzag_underlay="True"
       embroider_trim_after="True"
       embroider_zigzag_spacing_mm="0.33"
       embroider_satin_column="True"
       inkscape:connector-curvature="0"
       d="m 81.122669,31.980648 4.688488,0.19741 m -4.244316,-1.332516 c 0.197409,-0.04936 4.935251,-0.542878 4.935251,-0.542878 m -5.576834,-0.04936 5.478128,-3.454673 m -6.859998,3.504028 c 0.04936,-0.197412 3.504028,-6.761292 3.504028,-6.761292 m -7.008054,8.389922 c 0,-0.296114 2.615682,-12.68359 2.615682,-12.68359 m -5.872948,12.535533 c -0.04935,-0.345467 0.740286,-12.436828 0.740286,-12.436828 m -3.948198,13.325175 c -0.04936,-0.246763 0.246764,-12.930356 0.246764,-12.732946 m -3.010503,13.769352 -1.72734,-12.732944 m -2.41827,13.522584 -0.542877,-9.919852 m -1.480576,9.969204 0.690935,-10.31467 m -0.740288,2.418271 c 0,0 1.283166,-0.493524 1.677986,0.641584 0,0 2.516977,-5.675538 8.192514,-4.73784 0,0 9.278271,-4.93525 11.400428,3.207911 0,0 3.405322,0.296115 2.862445,4.046905 0,0 -0.641583,2.072807 -1.332518,3.257265 M 59.654332,33.75734 c 0,0 5.083307,0.296115 8.044456,-1.974103 0,0 5.527482,-1.529925 8.439278,-0.987048 0,0 2.368921,-2.714387 5.379423,-1.529928 0,0 1.529927,0.542877 0.937698,3.849496"
       style="opacity:1;fill:none;fill-opacity:1;stroke:#4e2e2d;stroke-width:0.16702154;stroke-linecap:butt;stroke-linejoin:round;stroke-miterlimit:4;stroke-dasharray:none;stroke-dashoffset:0;stroke-opacity:1"
       id="path5484" />
  </g>
  <g
     style="display:inline"
     inkscape:groupmode="layer"
     id="layer7"
     inkscape:label="Detail - Black Stallion">
    <path
       id="path5564"
       style="opacity:1;fill:none;fill-opacity:1;stroke:#191d1f;stroke-width:0.16702154;stroke-linecap:butt;stroke-linejoin:round;stroke-miterlimit:4;stroke-dasharray:none;stroke-dashoffset:0;stroke-opacity:1"
       d="m 67.730544,37.164376 c 0,0 0.784063,-0.01867 0.485371,1.698798 m -0.952074,-1.47478 c 0,0 -0.8774,1.008079 -0.149341,1.904148"
       inkscape:connector-curvature="0"
       embroider_satin_column="True"
       embroider_zigzag_spacing_mm="0.33"
       embroider_trim_after="True" />
    <path
       id="path5564-6"
       style="opacity:1;fill:none;fill-opacity:1;stroke:#191d1f;stroke-width:0.16702154;stroke-linecap:butt;stroke-linejoin:round;stroke-miterlimit:4;stroke-dasharray:none;stroke-dashoffset:0;stroke-opacity:1"
       d="m 72.16198,35.854354 c 0,0 0.784062,-0.01867 0.485371,1.698798 m -0.952074,-1.474779 c 0,0 -0.8774,1.008077 -0.149342,1.904146"
       inkscape:connector-curvature="0"
       embroider_satin_column="True"
       embroider_zigzag_spacing_mm="0.33"
       embroider_trim_after="True" />
    <path
       id="path4332"
       style="opacity:1;fill:none;fill-opacity:1;stroke:#191d1f;stroke-width:0.22561927;stroke-linecap:butt;stroke-linejoin:round;stroke-miterlimit:4;stroke-dasharray:none;stroke-dashoffset:0;stroke-opacity:1"
       d="m 87.386956,47.365663 c 0.222617,0.04297 5.138413,2.992801 5.138413,2.992801 m -2.895993,-3.510427 2.674734,1.341685 M 89.424224,46.1331 92.860855,45.896012 m -1.581393,-1.005594 c 0,0 1.096741,1.162148 -0.258867,3.426724 0,0 0.730401,0.591206 -0.0037,1.575075 0,0 -0.390806,0.850018 -1.515427,0.282769 m 0.908327,-5.302345 c 0,0 0.623631,1.671129 -0.595054,2.811565 0,0 -1.023738,-0.622805 -1.736899,0.515162 0,0 -0.834892,1.039436 0.461325,1.539752"
       inkscape:connector-curvature="0"
       embroider_satin_column="True"
       embroider_zigzag_spacing_mm="0.33"
       embroider_trim_after="True" />
  </g>
</svg>
