<?xml version="1.0" encoding="UTF-8" standalone="no"?>
<!-- Created with Inkscape (http://www.inkscape.org/) -->

<svg
   xmlns:dc="http://purl.org/dc/elements/1.1/"
   xmlns:cc="http://creativecommons.org/ns#"
   xmlns:rdf="http://www.w3.org/1999/02/22-rdf-syntax-ns#"
   xmlns:svg="http://www.w3.org/2000/svg"
   xmlns="http://www.w3.org/2000/svg"
   xmlns:sodipodi="http://sodipodi.sourceforge.net/DTD/sodipodi-0.dtd"
   xmlns:inkscape="http://www.inkscape.org/namespaces/inkscape"
   width="16in"
   height="16in"
   viewBox="0 0 406.40001 406.40001"
   version="1.1"
   id="svg8"
   inkscape:version="0.91+devel r"
   enable-background="new"
   sodipodi:docname="Donkey FullBack Design.svg">
  <sodipodi:namedview
     id="base"
     pagecolor="#ffffff"
     bordercolor="#666666"
     borderopacity="1.0"
     inkscape:pageopacity="0"
     inkscape:pageshadow="2"
     inkscape:zoom="0.89095454"
     inkscape:cx="764.03435"
     inkscape:cy="908.69153"
     inkscape:document-units="mm"
     inkscape:current-layer="layer8"
     showgrid="false"
     inkscape:snap-global="false"
     units="in"
     inkscape:window-width="1920"
     inkscape:window-height="1011"
     inkscape:window-x="0"
     inkscape:window-y="0"
     inkscape:window-maximized="1"
     inkscape:pagecheckerboard="true" />
  <defs
     id="defs2" />
  <metadata
     id="metadata5">
    <rdf:RDF>
      <cc:Work
         rdf:about="">
        <dc:format>image/svg+xml</dc:format>
        <dc:type
           rdf:resource="http://purl.org/dc/dcmitype/StillImage" />
        <dc:title></dc:title>
        <dc:creator>
          <cc:Agent>
            <dc:title>Evan West at Wild West Designs</dc:title>
          </cc:Agent>
        </dc:creator>
        <dc:publisher>
          <cc:Agent>
            <dc:title>Wild West Designs</dc:title>
          </cc:Agent>
        </dc:publisher>
        <dc:source>www.wildwestdesigns.biz</dc:source>
      </cc:Work>
    </rdf:RDF>
  </metadata>
  <g
     style="display:inline"
     inkscape:groupmode="layer"
     id="layer2"
     inkscape:label="Teeth - Pure White">
    <path
       id="path4402"
       style="opacity:1;fill:none;fill-opacity:1;stroke:#ffffff;stroke-width:0.1;stroke-linecap:butt;stroke-linejoin:round;stroke-miterlimit:4;stroke-dasharray:none;stroke-dashoffset:0;stroke-opacity:1"
       d="m 197.77945,273.23296 6.1472,0.73498 m -6.68174,5.54585 c 0.26727,-0.13364 7.61718,-0.80182 7.61718,-0.80182 m -6.61492,6.88219 5.21176,-0.33407 m -1.60362,1.80407 c 0,0 -0.26727,-13.7644 0.4009,-15.76891 m -2.33861,15.70207 c 0,0 -0.13363,-14.96708 0.46773,-15.83571"
       inkscape:connector-curvature="0"
       embroider_satin_column="True"
       embroider_zigzag_spacing_mm="0.33"
       embroider_zigzag_underlay="True"
       embroider_zigzag_underlay_inset_mm=".25"
       embroider_zigzag_underlay_spacing_mm="1.2" />
    <path
       embroider_running_stitch_length_mm="2.5"
       inkscape:connector-curvature="0"
       id="path4457"
       d="m 201.12032,271.09481 -0.13364,-2.73953 -0.13363,-4.40994 v -6.34765 l 0.33408,-4.47677"
       style="opacity:1;fill:none;fill-opacity:1;stroke:#ffffff;stroke-width:0.1;stroke-linecap:butt;stroke-linejoin:round;stroke-miterlimit:4;stroke-dasharray:0.1, 0.1;stroke-dashoffset:0;stroke-opacity:1" />
    <path
       id="path4523"
       style="opacity:1;fill:none;fill-opacity:1;stroke:#ffffff;stroke-width:0.1;stroke-linecap:butt;stroke-linejoin:round;stroke-miterlimit:4;stroke-dasharray:none;stroke-dashoffset:0;stroke-opacity:1"
       d="m 198.64807,270.15934 c 0.26727,-0.0668 5.27858,0 5.27858,0 m -5.61266,-4.2763 c 0.26727,-0.20045 5.27857,-0.13364 5.27857,-0.13364 m -4.94449,-6.54809 c 0.26727,-0.0668 4.81086,0.53453 4.81086,0.53453 m -4.47677,-5.21175 4.74404,0.60135 m -1.53681,-2.27179 c 0,0 -1.00226,15.16754 0,18.30796 m -1.73725,-18.30796 c 0,0 -1.33634,14.69984 -0.0668,18.17432"
       inkscape:connector-curvature="0"
       embroider_satin_column="True"
       embroider_zigzag_spacing_mm="0.33"
       embroider_zigzag_underlay="True"
       embroider_zigzag_underlay_inset_mm=".25"
       embroider_zigzag_underlay_spacing_mm="1.2" />
    <path
       embroider_running_stitch_length_mm="2.5"
       inkscape:connector-curvature="0"
       id="path4582"
       d="m 201.12032,271.16161 h 5.27857 l 5.81311,-0.33409 5.67948,-0.73498 5.41221,-1.06908 1.5368,-0.4009"
       style="opacity:1;fill:none;fill-opacity:1;stroke:#ffffff;stroke-width:0.1;stroke-linecap:butt;stroke-linejoin:round;stroke-miterlimit:4;stroke-dasharray:0.1, 0.1;stroke-dashoffset:0;stroke-opacity:1" />
    <path
       id="path4650"
       style="opacity:1;fill:none;fill-opacity:1;stroke:#ffffff;stroke-width:0.1;stroke-linecap:butt;stroke-linejoin:round;stroke-miterlimit:4;stroke-dasharray:none;stroke-dashoffset:0;stroke-opacity:1"
       d="m 229.31725,263.94534 1.20271,5.21176 m -3.67495,-3.60815 c 0.13363,0.26729 1.60362,4.67723 1.60362,4.67723 m -3.47451,-4.2095 1.26953,4.61039 m -1.5368,-0.93543 c 0,0 4.47677,-1.40316 6.21402,-2.73952 m -6.61492,0.80182 c 0,0 4.74403,-1.53681 6.5481,-3.14042"
       inkscape:connector-curvature="0"
       embroider_satin_column="True"
       embroider_zigzag_spacing_mm="0.33"
       embroider_zigzag_underlay="True"
       embroider_zigzag_underlay_inset_mm=".25"
       embroider_zigzag_underlay_spacing_mm="1.2" />
    <path
       inkscape:connector-curvature="0"
       id="path4715"
       d="m 230.78723,265.81624 0.20046,-5.87995 v -7.34991 l -0.0668,-3.60814"
       style="opacity:1;fill:none;fill-opacity:1;stroke:#ffffff;stroke-width:0.1;stroke-linecap:butt;stroke-linejoin:round;stroke-miterlimit:4;stroke-dasharray:0.1, 0.1;stroke-dashoffset:0;stroke-opacity:1" />
    <path
       embroider_zigzag_underlay_spacing_mm="1.2"
       embroider_zigzag_underlay_inset_mm=".25"
       embroider_zigzag_underlay="True"
       embroider_zigzag_spacing_mm="0.33"
       embroider_satin_column="True"
       inkscape:connector-curvature="0"
       d="m 228.38181,263.94534 5.81311,-0.26727 m -5.54584,-3.34087 5.54584,0.46772 m -5.41221,-6.1472 4.87767,-0.13363 m -4.81085,-3.67496 h 4.94449 m -1.93771,-2.13815 c 0,0 -0.13363,16.50388 0,17.3057 m -1.80407,-17.17207 c 0,0 0.13364,16.70434 0,17.37252"
       style="opacity:1;fill:none;fill-opacity:1;stroke:#ffffff;stroke-width:0.1;stroke-linecap:butt;stroke-linejoin:round;stroke-miterlimit:4;stroke-dasharray:none;stroke-dashoffset:0;stroke-opacity:1"
       id="path4727" />
    <path
       style="opacity:1;fill:none;fill-opacity:1;stroke:#ffffff;stroke-width:0.1;stroke-linecap:butt;stroke-linejoin:round;stroke-miterlimit:4;stroke-dasharray:0.1, 0.1;stroke-dashoffset:0;stroke-opacity:1"
       d="m 230.92087,266.08349 -0.20045,6.68174"
       id="path4794"
       inkscape:connector-curvature="0"
       embroider_running_stitch_length_mm="2.5" />
    <path
       embroider_zigzag_underlay_spacing_mm="1.2"
       embroider_zigzag_underlay_inset_mm=".25"
       embroider_zigzag_underlay="True"
       embroider_zigzag_spacing_mm="0.33"
       embroider_satin_column="True"
       inkscape:connector-curvature="0"
       d="m 228.78271,267.48666 4.34313,-0.46773 m -4.40994,4.61041 3.80859,-1.06907 m -1.06908,1.9377 c 0,0 0.26727,-7.08266 0.4009,-7.6172 m -2.20497,8.21854 c 0,0 0.46772,-7.41672 0.46772,-7.88445"
       style="opacity:1;fill:none;fill-opacity:1;stroke:#ffffff;stroke-width:0.1;stroke-linecap:butt;stroke-linejoin:round;stroke-miterlimit:4;stroke-dasharray:none;stroke-dashoffset:0;stroke-opacity:1"
       id="path4868" />
    <path
       style="opacity:1;fill:none;fill-opacity:1;stroke:#ffffff;stroke-width:0.1;stroke-linecap:butt;stroke-linejoin:round;stroke-miterlimit:4;stroke-dasharray:none;stroke-dashoffset:0;stroke-opacity:1"
       d="m 230.11906,265.08122 -1.60362,3.20726 -2.27179,-1.26955 -0.80181,2.47226"
       id="path4939"
       inkscape:connector-curvature="0"
       embroider_manual_stitch="True" />
    <path
       embroider_zigzag_underlay_spacing_mm="1.25"
       embroider_zigzag_underlay_inset_mm=".25"
       embroider_zigzag_underlay="True"
       embroider_zigzag_spacing_mm="0.33"
       embroider_satin_column="True"
       inkscape:connector-curvature="0"
       d="m 172.05476,263.47762 -0.20046,6.14719 m 3.27406,-6.08038 -2.6727,7.21629 m 8.08491,-5.41222 -3.40769,7.01583 m 8.95353,-5.07812 -2.07134,5.7463 m 11.42577,-4.34314 -0.13364,5.21176 m 11.02487,-5.47904 0.40091,5.94675 m 11.09168,-7.48353 0.73499,6.41445 m 6.01357,-6.94899 0.93544,5.34538 m 0.93544,-4.74403 c 0,0 -8.15172,3.74176 -24.52197,3.20722 0,0 -13.02939,0.20047 -22.78473,-1.87087 0,0 -5.27857,-1.60362 -7.81763,-3.40769 m 55.12433,4.20949 c 0,0 -12.09394,3.60815 -24.25471,2.93997 0,0 -15.30117,-0.13363 -18.64204,-1.00226 0,0 -9.35444,-1.73725 -12.2944,-3.80859"
       style="opacity:1;fill:none;fill-opacity:1;stroke:#ffffff;stroke-width:0.1;stroke-linecap:butt;stroke-linejoin:round;stroke-miterlimit:4;stroke-dasharray:none;stroke-dashoffset:0;stroke-opacity:1"
       id="path5029" />
    <path
       style="opacity:1;fill:none;fill-opacity:1;stroke:#ffffff;stroke-width:0.1;stroke-linecap:butt;stroke-linejoin:round;stroke-miterlimit:4;stroke-dasharray:0.1, 0.1;stroke-dashoffset:0;stroke-opacity:1"
       d="m 170.98568,266.15032 0.20045,-5.21176 0.13363,-5.54585 0.20046,-4.40994 0.26727,-2.40543"
       id="path5104"
       inkscape:connector-curvature="0"
       embroider_running_stitch_length_mm="2.5" />
    <path
       embroider_trim_after="True"
       embroider_zigzag_underlay_spacing_mm="1.25"
       embroider_zigzag_underlay_inset_mm=".25"
       embroider_zigzag_underlay="True"
       embroider_zigzag_spacing_mm="0.33"
       embroider_satin_column="True"
       inkscape:connector-curvature="0"
       d="m 169.24843,249.44597 4.81085,0.13363 m -5.81311,5.41221 6.28083,1.13589 m -6.1472,8.55263 c 0.26727,-0.0668 6.34765,0.66817 6.34765,0.66817 m -5.14494,5.54586 4.94449,0.26725 m -1.67043,-22.98517 c 0,0 -1.53681,11.02487 -0.40091,24.58879 m -1.33635,-24.45516 c 0,0 -1.73725,11.22532 -0.53454,24.25471"
       style="opacity:1;fill:none;fill-opacity:1;stroke:#ffffff;stroke-width:0.1;stroke-linecap:butt;stroke-linejoin:round;stroke-miterlimit:4;stroke-dasharray:none;stroke-dashoffset:0;stroke-opacity:1"
       id="path5190" />
  </g>
  <g
     style="display:inline"
     inkscape:groupmode="layer"
     id="layer4"
     inkscape:label="Mane - Charcoal">
    <path
       id="path5321"
       style="opacity:1;fill:none;fill-opacity:1;stroke:#1b242a;stroke-width:0.1;stroke-linecap:butt;stroke-linejoin:round;stroke-miterlimit:4;stroke-dasharray:none;stroke-dashoffset:0;stroke-opacity:1"
       d="m 219.16101,118.28345 4.81085,1.00226 m -5.14494,-4.2095 5.01131,0.80181 m -4.14268,-4.94448 5.0113,1.46998 m -2.20497,-6.41447 4.94449,2.67269 m -2.07134,-4.00904 5.4122,0.60136 m -4.07586,-1.60362 6.8822,-1.46998 m -8.419,1.87088 2.60588,-3.74177 m -6.48128,2.73951 1.40316,-5.545839 m -9.28761,2.071341 2.13815,-5.412209 m -9.35443,0.133634 2.87315,-4.877668 m -7.14946,0.935442 0.66817,-4.610399 m -1.26953,4.075861 -0.20045,-5.011303 m -0.40091,5.278572 -1.40316,-4.543581 m 0.20045,5.612659 -2.73951,-4.476763 m -2.40543,8.218538 -2.80633,-4.34313 m -3.87541,8.084902 -2.27179,-5.011304 m -4.40995,8.151727 -2.67269,-4.47677 m -0.86863,5.81311 -4.40994,-1.87088 m 3.20723,2.27179 -5.61266,0.13363 m 6.28084,-0.0668 -4.40995,2.13816 m 5.47902,-2.00452 -3.27405,3.4745 m 7.08264,0.60136 -4.07586,3.40768 m 5.34539,2.80633 -5.07812,1.06908 m 4.81085,3.74178 -4.54358,0.26727 m 3.40769,0.53454 c 0,0 2.07134,-12.09395 -6.34765,-16.03618 0,0 18.50842,-8.352168 25.79151,-14.766637 0,0 14.56619,12.628487 26.99422,14.432557 0,0 -9.35443,5.94674 -7.41673,16.23662 m -41.29314,0.73499 c 0,0 3.67495,-11.75986 -6.74856,-15.70208 0,0 -0.8018,0.13363 -0.93544,-0.66818 0,0 -0.26727,-0.86862 1.1359,-1.26953 0,0 21.9161,-10.022603 27.39512,-15.434811 0,0 0.33409,-0.601357 1.00226,-0.668174 0,0 0.40091,0.133635 1.00227,0.734991 0,0 16.23662,13.964834 28.8651,14.499374 0,0 0.80181,-0.20045 1.20272,0.86862 0,0 -0.20046,0.80181 -1.06908,1.06908 0,0 -10.22306,4.14268 -8.75308,16.30344"
       inkscape:connector-curvature="0"
       embroider_satin_column="True"
       embroider_zigzag_spacing_mm="0.33"
       embroider_zigzag_underlay="True"
       embroider_zigzag_underlay_inset_mm=".25"
       embroider_zigzag_underlay_spacing_mm="1.25"
       embroider_trim_after="True" />
    <path
       embroider_zigzag_underlay_spacing_mm="1.25"
       embroider_zigzag_underlay_inset_mm=".25"
       embroider_zigzag_underlay="True"
       embroider_zigzag_spacing_mm="0.33"
       embroider_trim_after="True"
       embroider_satin_column="True"
       inkscape:connector-curvature="0"
       d="m 179.89304,105.93255 2.07887,-2.3151 m -0.96856,3.827 c 0.0472,-0.0945 2.78757,-2.26785 2.78757,-2.26785 m -2.76395,2.88207 c 0.11812,-0.0709 3.73251,-0.96857 3.73251,-0.96857 m -3.49627,1.93713 3.75613,0.21261 m -2.85844,1.91351 h 2.19699 m -1.08669,0.54334 0.8032,-2.52772 c 0,0 0.0472,-2.26786 -1.15755,-3.66164 l -2.24423,-1.58278 m 2.13973,7.67716 -0.73499,-2.47224 c 0,0 0.10716,-1.33066 -0.48343,-2.41734 l -1.15755,-2.57497"
       style="opacity:1;fill:none;fill-opacity:1;stroke:#1b242a;stroke-width:0.1;stroke-linecap:butt;stroke-linejoin:round;stroke-miterlimit:4;stroke-dasharray:none;stroke-dashoffset:0;stroke-opacity:1"
       id="path5418" />
    <path
       id="path5519"
       style="opacity:1;fill:none;fill-opacity:1;stroke:#1b242a;stroke-width:0.1;stroke-linecap:butt;stroke-linejoin:round;stroke-miterlimit:4;stroke-dasharray:none;stroke-dashoffset:0;stroke-opacity:1"
       d="m 185.86979,101.84568 2.38597,-1.08668 m -2.69308,2.64584 3.54353,-1.67728 m -2.78757,4.13412 3.77976,-1.88988 m -3.37816,3.82701 3.80338,-0.44885 m -3.94513,3.6144 c 0.0945,-0.0236 3.35454,0.56696 3.35454,0.56696 m -3.00018,1.77177 1.81901,0.51971 m -0.99219,0.25986 1.58278,-2.8112 c 0,0 0.68508,-5.10268 -0.96857,-8.97693 l -1.44103,-1.6064 m 0.47247,13.48903 0.0709,-3.16555 c 0,0 0.56696,-5.76414 -0.87407,-7.96113 l -3e-5,-2.14974"
       inkscape:connector-curvature="0"
       embroider_satin_column="True"
       embroider_zigzag_spacing_mm="0.33"
       embroider_trim_after="True"
       embroider_zigzag_underlay="True"
       embroider_zigzag_underlay_inset_mm=".25"
       embroider_zigzag_underlay_spacing_mm="1.25" />
    <path
       embroider_zigzag_underlay_inset_mm=".25"
       embroider_zigzag_underlay_spacing_mm="1.25"
       embroider_zigzag_underlay="True"
       embroider_trim_after="True"
       embroider_zigzag_spacing_mm="0.33"
       embroider_satin_column="True"
       inkscape:connector-curvature="0"
       d="m 192.8151,95.987051 2.66946,-0.661458 m -3.35454,1.81901 c 0.0945,0.02363 3.82701,-0.944941 3.82701,-0.944941 m -3.6144,2.527716 4.22861,-1.393785 m -3.9215,4.819197 c 0.0945,0 4.89006,-1.6064 4.89006,-1.6064 m -4.51209,5.74051 c 0.18899,0.0472 5.45703,-0.99219 5.45703,-0.99219 m -5.00818,4.37035 c 0.11812,0.0236 4.79557,0.0236 4.79557,0.0236 m -4.48846,2.74036 3.80338,0.92131 m -3.82701,0.85045 2.92932,0.33073 m -1.86626,0.7087 1.5119,-2.10249 c 0,0 1.65365,-6.89806 -1.13392,-16.441964 l -1.13393,-1.511903 m 0.37798,20.079987 0.0236,-2.52772 c 0,0 1.5119,-6.00037 -1.08668,-15.54427 l 0.378,-1.866256"
       style="opacity:1;fill:none;fill-opacity:1;stroke:#1b242a;stroke-width:0.1;stroke-linecap:butt;stroke-linejoin:round;stroke-miterlimit:4;stroke-dasharray:none;stroke-dashoffset:0;stroke-opacity:1"
       id="path5626" />
    <path
       embroider_zigzag_underlay_inset_mm=".25"
       embroider_zigzag_underlay_spacing_mm="1.25"
       embroider_zigzag_underlay="True"
       embroider_trim_after="True"
       embroider_zigzag_spacing_mm="0.33"
       embroider_satin_column="True"
       inkscape:connector-curvature="0"
       d="m 209.14364,96.087274 -2.66946,-0.661458 m 3.35454,1.819011 c -0.0945,0.02363 -3.82701,-0.944941 -3.82701,-0.944941 m 3.6144,2.527716 -4.22861,-1.393785 m 3.9215,4.819203 c -0.0945,0 -4.89006,-1.6064 -4.89006,-1.6064 m 4.51209,5.74051 c -0.18899,0.0472 -5.45703,-0.99219 -5.45703,-0.99219 m 5.00818,4.37035 c -0.11812,0.0236 -4.79557,0.0236 -4.79557,0.0236 m 4.48846,2.74036 -3.80338,0.92131 m 3.82701,0.85045 -2.92932,0.33073 m 1.86626,0.7087 -1.5119,-2.10249 c 0,0 -1.65365,-6.89806 1.13392,-16.441971 l 1.13393,-1.511903 m -0.37798,20.079994 -0.0236,-2.52772 c 0,0 -1.5119,-6.00037 1.08668,-15.544276 l -0.378,-1.866257"
       style="opacity:1;fill:none;fill-opacity:1;stroke:#1b242a;stroke-width:0.1;stroke-linecap:butt;stroke-linejoin:round;stroke-miterlimit:4;stroke-dasharray:none;stroke-dashoffset:0;stroke-opacity:1"
       id="path5626-4" />
    <path
       id="path5519-8"
       style="opacity:1;fill:none;fill-opacity:1;stroke:#1b242a;stroke-width:0.1;stroke-linecap:butt;stroke-linejoin:round;stroke-miterlimit:4;stroke-dasharray:none;stroke-dashoffset:0;stroke-opacity:1"
       d="m 216.13031,101.84569 -2.38597,-1.08668 m 2.69308,2.64584 -3.54353,-1.67728 m 2.78757,4.13412 -3.77976,-1.88988 m 3.37816,3.82701 -3.80338,-0.44885 m 3.94513,3.6144 c -0.0945,-0.0236 -3.35454,0.56696 -3.35454,0.56696 m 3.00018,1.77177 -1.81901,0.51971 m 0.99219,0.25986 -1.58278,-2.8112 c 0,0 -0.68508,-5.10268 0.96857,-8.97693 l 1.44103,-1.6064 m -0.47247,13.48903 -0.0709,-3.16555 c 0,0 -0.56696,-5.76414 0.87407,-7.96113 l 3e-5,-2.14974"
       inkscape:connector-curvature="0"
       embroider_satin_column="True"
       embroider_zigzag_spacing_mm="0.33"
       embroider_trim_after="True"
       embroider_zigzag_underlay="True"
       embroider_zigzag_underlay_inset_mm=".25"
       embroider_zigzag_underlay_spacing_mm="1.25" />
    <path
       embroider_zigzag_underlay_spacing_mm="1.25"
       embroider_zigzag_underlay_inset_mm=".25"
       embroider_zigzag_underlay="True"
       embroider_zigzag_spacing_mm="0.33"
       embroider_trim_after="True"
       embroider_satin_column="True"
       inkscape:connector-curvature="0"
       d="m 222.02686,105.93254 -2.07887,-2.3151 m 0.96856,3.827 c -0.0472,-0.0945 -2.78757,-2.26785 -2.78757,-2.26785 m 2.76395,2.88207 c -0.11812,-0.0709 -3.73251,-0.96857 -3.73251,-0.96857 m 3.49627,1.93713 -3.75613,0.21261 m 2.85844,1.91351 h -2.19699 m 1.08669,0.54334 -0.8032,-2.52772 c 0,0 -0.0472,-2.26786 1.15755,-3.66164 l 2.24423,-1.58278 m -2.13973,7.67716 0.73499,-2.47224 c 0,0 -0.10716,-1.33066 0.48343,-2.41734 l 1.15755,-2.57497"
       style="opacity:1;fill:none;fill-opacity:1;stroke:#1b242a;stroke-width:0.1;stroke-linecap:butt;stroke-linejoin:round;stroke-miterlimit:4;stroke-dasharray:none;stroke-dashoffset:0;stroke-opacity:1"
       id="path5418-2" />
  </g>
  <path
     id="path5790"
     style="display:inline;opacity:1;fill:none;fill-opacity:1;stroke:#8e908f;stroke-width:0.1;stroke-linecap:butt;stroke-linejoin:round;stroke-miterlimit:4;stroke-dasharray:none;stroke-dashoffset:0;stroke-opacity:1"
     d="m 132.35781,92.008853 0.33073,-4.7625 m 0.8599,5.423958 0.19843,-6.283854 m 4.49792,6.35 -0.59531,-7.077604 m 4.43177,8.135937 c 0,-0.264583 0.0661,-7.209895 0.0661,-7.209895 m 3.63806,8.73125 1.45521,-6.35 m 2.84427,10.054166 2.31511,-5.886979 m 2.38125,11.707808 c 0,0 3.175,-7.011454 3.04271,-6.680725 m 0.39687,13.692185 3.175,-7.60677 m -0.92604,13.09688 4.10104,-8.26823 m -1.32292,11.64166 3.70417,-6.68072 m -0.46302,9.98802 3.30729,-7.54063 m 0.19844,8.66511 2.77812,-6.68073 m -0.19843,6.94531 3.04271,-5.75469 m 0.85989,2.18281 c 0,0 -3.70417,0.26459 -6.48229,-0.79375 0,0 -5.15937,-3.77031 -6.41614,-6.81302 0,0 -3.50573,-6.28385 -4.10105,-7.87135 0,0 -4.10104,-6.879167 -5.75468,-8.598959 0,0 -4.82865,-4.7625 -7.14375,-6.151562 0,0 -8.46667,-4.960938 -14.41979,-2.38125 m 42.59791,34.528121 c 0,0 -6.48229,0.79375 -11.90625,-7.0776 0,0 -3.83646,-6.54844 -4.43177,-8.13594 0,0 -3.175,-5.88698 -4.36562,-7.0776 0,0 -4.36563,-5.490106 -6.21771,-6.680731 0,0 -4.63021,-3.704167 -9.525,-4.299479 0,0 -4.43177,-0.264584 -6.48229,0.529166"
     embroider_satin_column="True"
     embroider_zigzag_spacing_mm="0.33"
     embroider_zigzag_underlay="True"
     embroider_zigzag_underlay_inset_mm=".25"
     embroider_zigzag_underlay_spacing_mm="1.25"
     inkscape:connector-curvature="0" />
  <path
     embroider_running_stitch_length_mm="2.5"
     inkscape:connector-curvature="0"
     id="path5889"
     d="m 131.89479,89.958332 0.59531,2.976563 1.19063,3.704166 1.05833,3.241146 1.65365,3.505733 2.38125,4.69635 4.16718,5.35781 4.36563,4.89479 5.4901,4.8948 6.15157,4.36562 3.70416,2.4474 2.4474,2.38125 2.3151,2.38125 1.05834,1.52135 0.99218,2.91042 1.71979,2.91041 1.78594,2.24896"
     style="display:inline;opacity:1;fill:none;fill-opacity:1;stroke:#8e908f;stroke-width:0.1;stroke-linecap:butt;stroke-linejoin:round;stroke-miterlimit:4;stroke-dasharray:0.1, 0.1;stroke-dashoffset:0;stroke-opacity:1" />
  <g
     style="display:inline"
     inkscape:groupmode="layer"
     id="layer3"
     inkscape:label="Head - Chrome">
    <path
       id="path6051"
       style="opacity:1;fill:none;fill-opacity:1;stroke:#8e908f;stroke-width:0.1;stroke-linecap:butt;stroke-linejoin:round;stroke-miterlimit:4;stroke-dasharray:none;stroke-dashoffset:0;stroke-opacity:1"
       d="m 173.83125,121.84062 2.97656,-3.57187 m -6.01927,1.78594 3.37344,-4.7625 m -7.67292,1.19062 3.70417,-4.82864 m -7.07761,0.52916 4.36563,-4.36562 m -6.35,0.59531 4.96094,-3.70417 m -7.40834,-1.85208 c 0,0 5.55625,-3.175 5.29167,-3.042709 m -9.12813,-1.918229 4.63021,-4.167187 m -7.60677,-0.595313 4.49792,-4.167187 m -6.61459,2.447396 3.43959,-4.630209 m -8.73125,2.38125 1.85208,-6.416146 M 140.29531,88.503124 139.7,82.549999 m -2.18281,9.194271 -5.15938,-7.606771 m 3.175,7.739062 -7.80521,-3.505729 m 9.98802,8.466667 c -0.26458,0.132291 -8.33437,-0.595313 -8.33437,-0.595313 m 12.03854,6.879164 -8.73125,1.32292 m 11.90625,3.63802 -7.87135,4.49792 m 12.63385,1.25677 c -0.26458,0.13229 -6.35,5.68854 -6.35,5.68854 m 10.2526,-0.59531 c -0.13229,0.26458 -4.10104,5.68854 -4.10104,5.68854 m 9.525,-1.45521 c -0.13229,0.26458 -2.57969,6.48229 -2.57969,6.48229 m 7.73907,-3.43958 c -0.0661,0.26458 -2.77813,8.00364 -2.77813,7.80521 m 6.08542,-4.96094 -3.30729,6.74687 m 6.61458,-1.71979 -4.36562,4.10104 m 5.42395,-0.99218 c -0.13229,0.26458 -2.71198,6.15156 -2.71198,6.15156 m 3.50573,-3.30729 -0.52916,6.21771 m 1.25677,-3.43959 c 0,0 -3.37344,-4.56406 -3.90261,-7.47448 0,0 -4.69635,-5.95312 -6.94531,-7.0776 0,0 -25.13541,-12.83229 -29.3026,-38.298437 0,0 7.2099,-8.202083 20.10833,2.050521 0,0 8.00365,10.186456 9.98802,16.602606 0,0 4.0349,8.79739 13.22917,13.49375 m -3.24115,23.8125 c 0,0 -4.82864,-5.49011 -5.62239,-9.78959 0,0 -4.82865,-5.4901 -6.48229,-6.35 0,0 -25.99532,-13.82447 -30.03021,-39.687495 0,0 6.41614,-11.972396 23.54792,0.463021 0,0 8.92968,11.707814 10.45104,17.660934 0,0 5.22552,9.59115 13.22916,12.7"
       inkscape:connector-curvature="0"
       embroider_satin_column="True"
       embroider_zigzag_spacing_mm="0.33"
       embroider_zigzag_underlay="True"
       embroider_zigzag_underlay_inset_mm=".25"
       embroider_zigzag_underlay_spacing_mm="1.25" />
    <path
       embroider_running_stitch_length_mm="2.5"
       inkscape:connector-curvature="0"
       id="path6154"
       d="m 177.07239,121.57604 2.4474,-1.05833 2.4474,-1.05834 2.71197,-0.7276 3.43959,-0.46302 4.63021,-0.46302 4.69635,-0.0661 H 203.2 l 5.95312,0.13229 4.36563,0.26459 3.175,0.46302 3.10885,0.59531 2.91042,0.99219 2.77812,1.05833 1.85209,1.78594"
       style="opacity:1;fill:none;fill-opacity:1;stroke:#8e908f;stroke-width:0.1;stroke-linecap:butt;stroke-linejoin:round;stroke-miterlimit:4;stroke-dasharray:0.1, 0.1;stroke-dashoffset:0;stroke-opacity:1" />
    <path
       id="path6286"
       style="opacity:1;fill:none;fill-opacity:1;stroke:#8e908f;stroke-width:0.1;stroke-linecap:butt;stroke-linejoin:round;stroke-miterlimit:4;stroke-dasharray:none;stroke-dashoffset:0;stroke-opacity:1"
       d="m 269.54427,91.810416 0.19843,-3.96875 m -3.175,3.704166 0.33073,-3.836458 m -4.82864,4.167187 0.7276,-4.564062 m -5.95312,6.945312 0.52916,-5.027083 m -5.22552,9.061979 -0.79375,-5.688541 m -2.97656,10.914064 -2.05052,-6.416148 m -0.59531,10.649478 -2.91042,-4.69635 m 0.72761,8.6651 -3.63803,-3.70417 m 1.98438,6.94532 -4.36563,-2.4474 m 1.45521,6.01927 -3.70416,-3.175 m 0.59531,6.54844 -3.175,-3.70417 m -0.72761,6.01927 -2.51354,-3.96875 m -0.33073,4.69636 -1.98437,-3.63802 m 0.52917,2.64583 c 0,0 7.0776,1.05833 13.62604,-10.45104 0,0 9.98802,-26.061459 27.91354,-22.754167 l 1.19063,0.330729 M 227.0125,122.56823 c 0,0 4.16718,-0.66146 6.48229,-2.4474 0,0 4.7625,-4.23333 6.61459,-8.53281 0,0 9.98802,-25.86302 29.10416,-22.68802 l 1.32292,0.264583"
       inkscape:connector-curvature="0"
       embroider_satin_column="True"
       embroider_zigzag_spacing_mm=".33"
       embroider_zigzag_underlay="True"
       embroider_zigzag_underlay_inset_mm=".25"
       embroider_zigzag_underlay_spacing_mm="1.25" />
    <path
       embroider_running_stitch_length_mm="2.5"
       inkscape:connector-curvature="0"
       id="path6393"
       d="m 270.53645,90.090624 -1.19062,4.630208 -1.5875,5.027083 -3.50573,6.945315 -3.70417,5.88698 -4.96093,5.75468 -4.43177,4.0349 -3.70417,2.57969 -1.38906,1.05833"
       style="opacity:1;fill:none;fill-opacity:1;stroke:#8e908f;stroke-width:0.1;stroke-linecap:butt;stroke-linejoin:round;stroke-miterlimit:4;stroke-dasharray:0.1, 0.1;stroke-dashoffset:0;stroke-opacity:1" />
    <path
       id="path6533"
       style="opacity:1;fill:none;fill-opacity:1;stroke:#8e908f;stroke-width:0.1;stroke-linecap:butt;stroke-linejoin:round;stroke-miterlimit:4;stroke-dasharray:none;stroke-dashoffset:0;stroke-opacity:1"
       d="m 229.26146,123.69271 -3.24115,-4.10104 m 7.0776,0.52916 -4.29948,-4.56406 m 9.78959,-2.57969 -5.29167,-2.84427 m 7.87136,-2.57969 -5.6224,-1.91823 m 9.85573,-5.22552 -6.94531,-1.190621 m 12.5677,-5.820834 -6.2177,-2.84427 m 12.76614,-0.595313 -2.24896,-6.548437 m 7.34219,6.614583 c 0,-0.264583 -0.46302,-7.540625 -0.46302,-7.540625 m 3.10885,8.003646 3.37344,-6.945313 m -1.71979,7.408334 6.21771,-4.034896 m -7.07761,7.342187 7.87136,-6.482291 m -10.18646,12.7 9.59115,-4.365625 m -14.94896,13.030725 9.78958,-3.63802 m -16.13958,11.37709 7.27604,1.19062 m -14.15521,5.42396 6.28386,1.91823 m -4.49792,0.79375 c 0,0 20.90208,-11.57552 24.20937,-37.372397 0,0 -18.38853,-17.13177 -34.92499,21.629687 0,0 -1.25677,3.63802 -9.85573,11.31094 m 17.99166,3.9026 c 0,0 21.56354,-11.97239 24.60625,-36.049477 0,0 -16.6026,-13.824478 -31.15468,21.960417 0,0 -3.50573,6.35 -10.25261,11.57552"
       inkscape:connector-curvature="0"
       embroider_satin_column="True"
       embroider_zigzag_spacing_mm="0.33"
       embroider_zigzag_underlay="True"
       embroider_zigzag_underlay_inset_mm=".25"
       embroider_zigzag_underlay_spacing_mm="1.25" />
    <path
       embroider_running_stitch_length_mm="2.5"
       inkscape:connector-curvature="0"
       id="path6644"
       d="m 227.07864,122.50208 1.38907,2.11667 1.38906,2.91042 0.59531,2.97656 0.39688,3.96875 -0.59532,3.70416 -0.59531,4.82865 1.98438,-2.38125 1.65364,-2.91042 1.19063,-3.175 2.71198,-3.0427 2.24895,-1.45521 1.85209,-0.66146"
       style="opacity:1;fill:none;fill-opacity:1;stroke:#8e908f;stroke-width:0.1;stroke-linecap:butt;stroke-linejoin:round;stroke-miterlimit:4;stroke-dasharray:0.1, 0.1;stroke-dashoffset:0;stroke-opacity:1" />
    <path
       id="path6770"
       style="opacity:1;fill:none;fill-opacity:1;stroke:#8e908f;stroke-width:0.1;stroke-linecap:butt;stroke-linejoin:round;stroke-miterlimit:4;stroke-dasharray:none;stroke-dashoffset:0;stroke-opacity:1"
       d="M 229.92291,147.17448 229.79062,139.7 m 1.91823,5.22552 c -0.13229,-0.26458 -1.25677,-7.2099 -1.25677,-7.2099 m 3.70417,2.38125 -2.05052,-5.62239 m 3.9026,2.44739 -1.91823,-5.88698 m 4.0349,3.10886 -1.32292,-5.75469 m 3.77031,3.50573 -0.46302,-5.42396 m 1.52136,3.77031 c 0,0 -4.96094,0.72761 -7.47448,7.54063 0,0 -3.04271,6.28385 -5.22552,9.525 m 12.7,-19.31458 c 0,0 -7.27605,2.3151 -9.32657,9.32656 0,0 -1.52135,3.30729 -3.17499,5.35781"
       inkscape:connector-curvature="0"
       embroider_satin_column="True"
       embroider_zigzag_spacing_mm="0.33"
       embroider_zigzag_underlay="True"
       embroider_zigzag_underlay_inset_mm=".25"
       embroider_zigzag_underlay_spacing_mm="1.25" />
    <path
       embroider_running_stitch_length_mm="2.5"
       inkscape:connector-curvature="0"
       id="path6885"
       d="m 229.09007,144.56941 -0.46772,2.80633 -0.0935,3.08696 -0.0935,4.20949 1.12253,3.92887 1.40317,4.49012 1.49671,2.99342 2.71278,2.89988 2.80634,3.83531 2.61924,4.58368 2.05797,4.49012 0.8419,3.3676 0.37418,5.42557 v 5.05139 l -1.02899,6.17393 -1.87089,5.70621 -2.89987,6.45456 -2.15152,4.11595 -2.71279,4.0224 -2.52569,2.5257"
       style="opacity:1;fill:none;fill-opacity:1;stroke:#8e908f;stroke-width:0.1;stroke-linecap:butt;stroke-linejoin:round;stroke-miterlimit:4;stroke-dasharray:0.1, 0.1;stroke-dashoffset:0;stroke-opacity:1" />
    <path
       id="path7063"
       style="opacity:1;fill:none;fill-opacity:1;stroke:#8e908f;stroke-width:0.1;stroke-linecap:butt;stroke-linejoin:round;stroke-miterlimit:4;stroke-dasharray:none;stroke-dashoffset:0;stroke-opacity:1"
       d="m 171.65385,224.83044 -4.11595,3.92887 m 0.8419,-13.65748 -4.39658,9.63507 m 1.30962,-16.74444 -5.14494,8.69963 m 2.89987,-17.02507 -7.76418,6.92228 m 7.20292,-17.77343 -9.54153,4.86431 m 12.16077,-14.68646 -9.0738,-0.28063 m 12.81557,-6.17393 -6.64165,-5.79975 m 9.82216,2.43215 -6.64165,-7.67063 m 10.00925,0.37418 c -0.37418,0 -7.95127,-6.54811 -7.95127,-6.54811 m 10.28987,-3.27405 -9.35443,-4.49013 m 9.0738,-4.49013 -9.72861,-1.21607 m 8.04481,-6.92228 -9.63506,0.8419 m 10.57051,-7.76418 -9.44798,-1.21608 m 13.28329,-2.61924 -6.73519,-7.67064 m 12.90912,5.42558 -3.55468,-8.98026 m 20.11203,8.2319 v -8.88671 m 10.28987,10.28988 0.37418,-9.16735 m 9.16735,11.97368 2.61924,-9.54152 m -0.93545,13.56392 7.01583,-9.0738 m -6.5481,13.75102 c 0.46772,-0.18709 10.00924,-6.36101 10.00924,-6.36101 m -10.19633,10.75759 c 0.37417,0.0935 10.94468,1.87089 10.94468,1.87089 m -13.56393,7.20291 c 0.37418,0.0936 11.22532,1.02899 11.22532,1.02899 m -8.41898,8.79317 9.44797,-1.49671 m -9.0738,7.57709 11.41241,-3.46114 m -7.10937,9.82215 9.82216,-6.36101 m -4.39659,17.49279 c 0,0 10.00925,-10.66405 9.63507,-10.38342 m -7.67064,19.8314 12.53495,-6.08038 m -14.31229,21.51519 c 0.56127,0.0936 10.7576,1.96443 10.7576,1.96443 m -12.90912,6.7352 5.14494,7.10937 m -7.20291,-1.87089 1.49671,7.10937 m -2.05798,-0.46772 c 0,0 30.30836,-31.80508 2.5257,-61.178 0,0 -7.48355,-9.44797 -1.6838,-27.87621 0,0 2.33861,-9.16734 -4.8643,-16.4638 0,0 -8.51254,-5.23848 -26.56659,-4.20949 0,0 -16.83798,-0.56127 -23.29254,3.64822 0,0 -9.63507,6.17393 -5.14494,19.92495 0,0 3.46114,22.63773 -5.98684,28.9052 0,0 -21.32811,23.19899 4.2095,59.40065 m 60.52318,-5.33203 c 0,0 27.31494,-29.46647 1.12253,-57.06204 0,0 -7.85772,-9.54152 -2.15152,-28.71811 0,0 2.99342,-8.79317 -4.58367,-15.43482 0,0 -8.41899,-4.77076 -24.13444,-3.46114 0,0 -16.18317,-0.8419 -22.82482,3.3676 0,0 -8.98025,5.42557 -3.92886,20.01849 0,0 1.30962,10.94468 -0.18709,17.58633 0,0 -1.49671,7.10937 -6.92228,11.22532 0,0 -18.9895,20.57975 4.2095,56.59432"
       inkscape:connector-curvature="0"
       embroider_satin_column="True"
       embroider_zigzag_spacing_mm="0.33"
       embroider_zigzag_underlay="True"
       embroider_zigzag_underlay_inset_mm=".25"
       embroider_zigzag_underlay_spacing_mm="1.25" />
    <path
       embroider_zigzag_underlay_spacing_mm="1.25"
       embroider_zigzag_underlay_inset_mm=".25"
       embroider_zigzag_underlay="True"
       embroider_zigzag_spacing_mm="0.33"
       embroider_satin_column="True"
       inkscape:connector-curvature="0"
       d="m 200.48802,214.51093 0.19844,-4.69635 m -4.23334,5.55625 c -0.0661,-0.26458 0.26459,-5.82083 0.26459,-5.82083 m -4.7625,7.47448 0.0661,-5.68855 m -3.10881,6.08542 -0.52917,-5.75469 m -3.77031,5.55625 1.05833,-6.41614 m -4.89479,4.7625 2.57969,-4.63021 m -5.55625,2.64583 3.43958,-4.82864 m -5.42396,4.43177 0.79375,-5.09323 m -2.91041,6.54844 -1.32292,-5.75469 m 0.66146,8.99583 c 0,0 -4.69636,-4.82864 -4.63021,-4.56406 m 4.56406,7.14375 c -0.26458,0 -5.4901,-1.65365 -5.4901,-1.65365 m 6.54844,4.23334 c -0.26459,0 -5.75469,-0.79375 -5.75469,-0.79375 m 5.68854,4.29948 c -0.26458,0 -5.09323,-2.11667 -5.09323,-2.11667 m 3.24115,4.69635 -2.71198,-3.30729 m 1.32291,3.37344 c 0,0 2.31511,-1.38906 1.91823,-4.23333 0,0 -2.51354,-8.33438 0.46303,-11.84011 0,0 3.175,-4.16718 8.46666,1.5875 0,0 4.43177,2.11667 9.98802,1.05834 0,0 6.68073,-2.64584 9.85573,-2.4474 m -31.55156,14.22135 c 0,0 1.52135,-1.71979 0.39687,-4.6302 0,0 -2.51354,-9.32656 2.91042,-12.23698 0,0 4.16719,-3.04271 9.65729,2.51354 0,0 5.82084,1.85208 8.73125,0.52917 0,0 6.74688,-2.4474 9.85573,-2.24896"
       style="opacity:1;fill:none;fill-opacity:1;stroke:#8e908f;stroke-width:0.1;stroke-linecap:butt;stroke-linejoin:round;stroke-miterlimit:4;stroke-dasharray:none;stroke-dashoffset:0;stroke-opacity:1"
       id="path7212" />
    <path
       id="path7423"
       style="opacity:1;fill:none;fill-opacity:1;stroke:#8e908f;stroke-width:0.1;stroke-linecap:butt;stroke-linejoin:round;stroke-miterlimit:4;stroke-dasharray:none;stroke-dashoffset:0;stroke-opacity:1"
       d="m 173.50052,228.66614 -4.82865,-2.3151 m 2.24896,5.35781 c 0,0 -4.82864,-4.23333 -4.69635,-3.96875 m 2.57968,6.61458 -4.29947,-3.77031 m 3.50572,5.75469 -5.62239,-1.32292 m 5.22552,4.10104 c -0.26458,0.1323 -4.96094,0.79375 -4.96094,0.79375 m 5.49011,1.19063 c -0.26459,0.19844 -4.43177,2.57969 -4.43177,2.57969 m 4.96093,-0.39688 -2.24896,4.69636 m 3.24115,-3.50573 c 0,0.26458 0.26458,6.08541 0.26458,6.08541 m 0.8599,-4.7625 2.38125,5.09323 m -2.18281,-6.35 3.37343,5.29167 m -0.7276,-7.40833 2.05052,6.41614 m 2.31511,-7.80521 -0.26459,6.54844 m 4.69636,-5.75469 -1.78594,6.41615 m 5.88698,-3.43958 -3.77031,5.4901 m 5.75468,-2.4474 -4.49791,4.16719 m 6.61458,-3.04271 -3.10885,4.29948 m 7.14375,-3.63802 c -0.1323,0.46302 -1.98438,5.42396 -1.98438,5.42396 m 8.13594,-5.4901 c -0.0661,0.26458 -0.59532,6.01927 -0.59532,6.01927 m 6.81303,-5.88698 c 0,0.26458 -0.0661,4.89479 -0.0661,4.89479 m 4.29943,-5.82083 c 0.19844,0.33073 2.11667,5.15937 2.11667,5.15937 m 0.85989,-5.22552 4.29948,2.64583 m -3.04271,-5.55625 c 0.13229,0.26459 4.29948,4.29948 4.29948,4.29948 m -1.05833,-7.27604 2.57969,5.29167 m 3.57187,-6.41615 c -0.0661,0.26459 0.0662,6.01927 0.0662,6.01927 m 4.6963,-4.23333 -1.71979,5.35781 m 3.63802,-3.50573 -1.85208,6.54844 m 2.77812,-7.2099 0.8599,5.42396 m 1.12448,-8.73125 2.3151,5.02709 m -1.52135,-8.26823 4.16718,2.44739 m -5.15937,-4.63021 6.68073,-0.66145 m -7.27604,-1.5875 c 0.13229,-0.26459 5.42395,-2.84427 5.42395,-2.84427 m -7.34218,1.05833 4.10104,-4.96094 m -6.41615,3.30729 4.36563,-4.29948 m -5.82084,0.52917 c 0.26459,-0.26458 6.28386,-3.63802 6.28386,-3.63802 m -6.54844,-1.32292 6.61458,-2.97656 m -5.88697,-2.18281 5.42395,-2.05052 m -6.87916,-0.52917 5.29166,-3.37344 m -7.67291,2.84427 2.44739,-5.4901 m -5.15937,7.0776 -1.05834,-5.88698 m -1.38906,7.73907 -2.18281,-5.49011 m -3.63802,6.61459 c 0,-0.26459 0.99219,-7.01146 0.99219,-7.01146 m -4.7625,6.74687 1.32291,-6.08541 m -6.87916,4.56406 0.39687,-6.21771 m -4.29948,5.29167 L 200.025,209.55 m -0.59532,3.83646 c 0,0 5.68855,-0.52917 10.84792,2.38125 0,0 6.08542,1.12448 10.18646,-1.05834 0,0 4.63021,-5.22552 8.06979,-1.85208 0,0 2.84428,2.57969 1.38907,9.39271 0,0 -1.19063,2.91042 -0.0661,5.35781 0,0 1.12443,1.65365 2.91037,2.4474 0,0 4.36562,4.43177 3.57187,9.85573 0,0 -1.12448,5.95312 -5.15937,7.60677 0,0 -2.11667,-4.36563 -7.80521,-3.77031 0,0 -5.29167,0 -7.80521,5.4901 0,0 -1.5875,2.91042 -14.88281,2.84427 0,0 -7.73906,0.92604 -14.15521,-2.57969 0,0 -2.24896,-5.42396 -7.73906,-5.82083 0,0 -4.69636,-0.26458 -7.27604,3.83646 0,0 -5.55625,-2.4474 -5.15938,-8.20209 0,0 -1.85208,-4.96093 4.96094,-10.64947 0,0 1.05833,-0.8599 1.19062,-2.18282 m 26.78906,-14.88281 c 0,0 4.43177,-0.92604 11.70782,2.24896 0,0 4.89479,1.05833 8.06979,-0.66146 0,0 5.09323,-5.42396 9.92188,-2.4474 0,0 4.56406,2.31511 2.84427,11.17865 0,0 -1.85209,5.15938 1.98437,6.54844 0,0 5.29167,5.15937 4.43177,10.98021 0,0 -0.46302,8.00364 -8.20208,10.9802 0,0 -1.32292,-5.95312 -6.61458,-4.69635 0,0 -4.49792,0.13229 -6.35,4.89479 0,0 -2.91042,3.30729 -15.875,3.50573 0,0 -12.23698,0.26458 -16.20573,-3.30729 0,0 -2.4474,-5.4901 -6.21771,-5.15938 0,0 -3.77031,-0.79375 -6.21771,3.83646 0,0 -7.73906,-0.66146 -8.13594,-9.85573 0,0 -1.5875,-5.68854 4.0349,-10.84791 0,0 2.05052,-1.5875 2.24896,-3.04271"
       inkscape:connector-curvature="0"
       embroider_satin_column="True"
       embroider_zigzag_spacing_mm="0.33"
       embroider_trim_after="True"
       embroider_zigzag_underlay="True"
       embroider_zigzag_underlay_inset_mm=".25"
       embroider_zigzag_underlay_spacing_mm="1.25" />
    <path
       embroider_zigzag_underlay_spacing_mm="1.25"
       embroider_zigzag_underlay_inset_mm=".25"
       embroider_zigzag_underlay="True"
       embroider_zigzag_spacing_mm="0.33"
       embroider_satin_column="True"
       inkscape:connector-curvature="0"
       d="m 230.84896,290.5125 -6.28386,0.39687 m 4.29948,3.175 -5.42396,-1.05833 m 4.69636,4.16719 -5.49011,-1.65365 m 6.35,3.70417 -6.74687,-0.26459 m 5.02708,4.96094 -6.21771,-2.3151 m 2.64584,6.54843 -4.56407,-4.10104 m 0.52917,7.14375 -3.10885,-5.02708 m -1.65365,7.20989 -1.78594,-5.02708 m -2.51354,6.21771 -1.19062,-5.4901 m -2.18282,5.75468 0.72761,-6.15156 m -3.83646,4.96094 0.7276,-6.48229 m -3.175,6.61458 -0.39687,-7.2099 m -2.31511,7.07761 c 0,0 -1.5875,-6.94531 -1.4552,-6.68073 m -1.78594,8.26823 -1.98438,-6.48229 m -1.38906,6.28385 -0.59531,-7.34219 m -5.68854,5.88698 2.11666,-6.87916 m -8.73125,1.65364 3.96875,-5.15937 m -8.79739,0.13229 5.4901,-2.64584 m -5.82083,-1.78593 5.55625,0.52916 m -4.56406,-4.29948 5.02708,2.31511 m -6.01927,-4.69636 5.62239,0.79375 m -6.68072,-3.50572 5.55625,0.39687 m -2.4474,-1.25677 c 0,0 2.77812,3.43958 2.4474,7.80521 0,0 -1.32292,2.84427 -0.8599,4.49792 0,0 7.80521,11.1125 16.80104,10.05416 0,0 3.3073,-1.71979 6.68073,-1.78593 0,0 4.49792,0.19843 6.54844,1.65364 0,0 15.875,-0.46302 16.53646,-13.82448 0,0 -1.32292,-5.09323 2.51354,-7.73906 m -52.91667,-0.79375 c 0,0 2.91042,3.37344 2.77813,7.54062 0,0 -1.98438,3.57188 -0.13229,6.41615 0,0 7.14375,10.78177 18.32239,10.58334 0,0 3.90261,-2.24896 6.74688,-1.91823 0,0 3.10885,-0.0661 5.75469,1.78593 0,0 18.71927,-1.25677 18.85156,-15.61041 0,0 -1.98438,-4.89479 4.16719,-8.73125"
       style="opacity:1;fill:none;fill-opacity:1;stroke:#8e908f;stroke-width:0.1;stroke-linecap:butt;stroke-linejoin:round;stroke-miterlimit:4;stroke-dasharray:none;stroke-dashoffset:0;stroke-opacity:1"
       id="path7592" />
    <path
       style="opacity:1;fill:none;fill-opacity:1;stroke:#8e908f;stroke-width:0.1;stroke-linecap:butt;stroke-linejoin:round;stroke-miterlimit:4;stroke-dasharray:0.1, 0.1;stroke-dashoffset:0;stroke-opacity:1"
       d="m 228.00468,289.52031 -3.24114,1.12448 -3.10886,2.18281 -3.10885,0.8599 -2.84427,0.33073 -2.4474,-0.26459"
       id="path7717"
       inkscape:connector-curvature="0"
       embroider_running_stitch_length_mm="2.5" />
    <path
       embroider_zigzag_underlay_spacing_mm="1.25"
       embroider_zigzag_underlay_inset_mm=".25"
       embroider_zigzag_underlay="True"
       embroider_trim_after="True"
       embroider_zigzag_spacing_mm="0.33"
       embroider_satin_column="True"
       inkscape:connector-curvature="0"
       d="m 190.36272,291.76141 0.74835,4.58367 m -3.36759,-5.61266 0.3274,6.08039 m -2.57247,-6.12714 -0.65481,5.05137 m -1.68379,-6.08036 -2.71279,4.44335 m 0.56126,-5.8933 -1.63702,4.67723 m -1.6838,-6.2207 -0.93544,5.09815 m -2.75956,-6.08039 -0.37418,6.08039 m -1.73057,-6.45456 -1.82411,5.33204 m -1.02899,-7.43678 -2.75956,4.11594 m 1.26285,-6.40779 -4.06918,2.57247 m 3.22728,-5.05137 -4.44335,0.79512 m 5.00462,-2.89988 -4.49013,-1.77734 m 5.70621,0.28064 -2.57247,-4.06918 m 3.36759,3.60145 1.07576,-4.16271 m -0.60804,4.30302 3.32083,-4.25627 m -3.64823,6.12716 4.8643,-2.71279 m -3.1805,6.45456 3.88209,-2.15151 m -0.8419,5.8933 2.89987,-3.74179 m 0.0468,5.42557 2.43216,-5.09815 m 1.30962,5.5191 2.24506,-4.77075 m 3.18051,6.03361 0.93544,-4.86431 m 2.71279,6.17392 1.26284,-4.11594 m 3.64824,4.6772 0.23386,-4.49011 m 9.12057,4.20949 -0.0935,-4.11596 m 5.09812,4.44336 -0.14032,-5.65944 m 3.83532,5.0514 -1.54348,-5.09815 m 2.43215,4.77075 -0.74835,-5.37879 m 3.55468,4.11594 -0.18709,-4.95785 m 4.02241,4.2095 -1.07576,-5.00462 m 4.58367,4.44336 -1.02899,-5.09818 m 3.32083,4.16272 -1.49671,-5.05138 m 4.34981,3.22726 -3.08696,-4.3498 m 5.14494,1.35638 -3.60146,-3.04016 m 5.09817,-0.46774 -4.34982,-2.19829 m 4.2095,-0.28064 -3.97563,-3.41437 m 4.77076,3.92888 1.12253,-4.86431 m 0.93544,6.03361 1.91766,-4.49014 m -1.02899,6.2207 3.13374,-3.08695 m -4.58368,6.2207 5.94007,-1.59025 m -7.10937,4.58367 c 0.18709,0.0468 5.42557,0.0468 5.42557,0.0468 m -7.10937,2.47888 3.60146,2.24507 m -6.59488,-1.30963 c 0.0935,0.18708 2.05798,4.91109 2.05798,4.91109 m -3.74177,-4.58367 c 0.0935,0.18709 1.21607,6.40778 1.21607,6.2207 m -4.91107,-4.77076 1.82411,4.11594 m -4.34981,-2.10473 c 0.23386,0.18708 2.29183,3.78854 2.29183,3.78854 m -4.39658,-3.60146 c 0,0.3274 0.74835,5.51911 0.74835,5.51911 m -3.13373,-4.91107 c -0.0468,0.23384 -0.98222,4.30303 -0.98222,4.30303 m -2.99342,-3.41437 0.0468,2.85311 m -0.93546,-1.30964 4.06917,0.84191 c 0,0 5.09817,0.0468 7.81096,-1.87087 0,0 1.44993,-2.29185 7.39,-2.89988 0,0 7.39,-3.64823 8.37222,-11.5995 0,0 -0.5145,-4.25627 -3.04019,-6.26747 0,0 -2.66602,-1.91766 -6.50133,-0.32741 0,0 0.18708,9.49475 -6.36102,10.80437 0,0 -8.32544,0.42095 -11.13177,2.80633 0,0 -9.0738,1.21608 -12.39463,0.56127 0,0 -7.76418,0.0468 -9.86893,-0.60804 0,0 -5.61266,-2.99342 -11.17854,-2.71278 0,0 -6.68842,0.14031 -6.40779,-11.08501 0,0 -4.39658,-1.02899 -6.82874,1.77734 0,0 -3.08696,3.60146 -0.88867,9.44798 0,0 1.87089,5.56589 8.37222,7.24969 0,0 5.09817,-0.14032 7.95127,2.80633 0,0 3.55468,1.96443 7.43677,1.96443 l 3.97564,-0.37418 m 19.27013,-1.02899 4.34981,-0.56126 c 0,0 4.8643,-0.0936 6.36101,-1.63703 0,0 3.08697,-2.94664 7.0626,-2.75956 0,0 7.39001,-3.32082 7.76418,-9.86892 0,0 -0.18709,-6.54811 -5.61266,-5.28526 0,0 -0.46772,9.63507 -7.39,11.08501 0,0 -9.30766,0.70158 -11.22532,2.75955 0,0 -6.40779,1.12254 -12.02045,0.74836 0,0 -9.30766,0.28063 -11.97367,-0.74836 0,0 -4.58367,-2.89987 -10.05602,-2.57247 0,0 -7.90449,0 -8.37222,-11.17854 0,0 -4.30304,-0.98222 -4.8643,4.91107 0,0 -0.18709,6.96906 6.5481,9.54153 0,0 7.24969,0.56126 9.86893,3.50791 0,0 3.18051,1.73057 6.50133,1.49671 l 3.74177,1.1693"
       style="opacity:1;fill:none;fill-opacity:1;stroke:#8e908f;stroke-width:0.1;stroke-linecap:butt;stroke-linejoin:round;stroke-miterlimit:4;stroke-dasharray:none;stroke-dashoffset:0;stroke-opacity:1"
       id="path7941" />
    <path
       id="path8092"
       style="opacity:1;fill:none;fill-opacity:1;stroke:#8e908f;stroke-width:0.1;stroke-linecap:butt;stroke-linejoin:round;stroke-miterlimit:4;stroke-dasharray:none;stroke-dashoffset:0;stroke-opacity:1"
       d="m 173.56666,203.39843 5.55625,1.32292 m -5.02708,-3.77031 c 0.26458,0 5.55625,1.78594 5.55625,1.78594 m -5.02708,-4.36563 c 0.26458,0.13229 5.55625,3.30729 5.55625,3.30729 m -5.95313,-5.55625 c 0.26459,0.0661 7.40834,2.11667 7.40834,2.11667 m -7.07761,-6.61458 6.68073,2.24896 m -6.35,-6.35 c 0.33073,0 7.01146,1.12447 7.01146,1.12447 m -7.0776,-4.96093 c 0.33072,-0.19844 7.34218,-0.99219 7.34218,-0.99219 m -8.00364,-3.70417 5.68854,-2.71198 m -6.81302,-1.19062 5.09323,-3.04271 m -5.42396,1.05833 3.9026,-2.77812 m -2.57968,0.66146 1.91822,2.64583 c 0,0 6.21771,15.47813 1.78594,28.77344 l -1.91822,3.10885 m -2.38126,-34.39583 0.8599,3.50573 c 0,0 5.75469,14.81666 1.65364,26.72291 l -0.66145,4.29949"
       inkscape:connector-curvature="0"
       embroider_satin_column="True"
       embroider_zigzag_spacing_mm="0.33"
       embroider_trim_after="True"
       embroider_zigzag_underlay="True"
       embroider_zigzag_underlay_inset_mm=".25"
       embroider_zigzag_underlay_spacing_mm="1.25" />
    <path
       id="path8092-2"
       style="opacity:1;fill:none;fill-opacity:1;stroke:#8e908f;stroke-width:0.1;stroke-linecap:butt;stroke-linejoin:round;stroke-miterlimit:4;stroke-dasharray:none;stroke-dashoffset:0;stroke-opacity:1"
       d="m 228.62703,203.39843 -5.55625,1.32292 m 5.02708,-3.77031 c -0.26458,0 -5.55625,1.78594 -5.55625,1.78594 m 5.02708,-4.36563 c -0.26458,0.13229 -5.55625,3.30729 -5.55625,3.30729 m 5.95313,-5.55625 c -0.26459,0.0661 -7.40834,2.11667 -7.40834,2.11667 m 7.07761,-6.61458 -6.68073,2.24896 m 6.35,-6.35 c -0.33073,0 -7.01146,1.12447 -7.01146,1.12447 m 7.0776,-4.96093 c -0.33072,-0.19844 -7.34218,-0.99219 -7.34218,-0.99219 m 8.00364,-3.70417 -5.68854,-2.71198 m 6.81302,-1.19062 -5.09323,-3.04271 m 5.42396,1.05833 -3.9026,-2.77812 m 2.57968,0.66146 -1.91822,2.64583 c 0,0 -6.21771,15.47813 -1.78594,28.77344 l 1.91822,3.10885 m 2.38126,-34.39583 -0.8599,3.50573 c 0,0 -5.75469,14.81666 -1.65364,26.72291 l 0.66145,4.29949"
       inkscape:connector-curvature="0"
       embroider_satin_column="True"
       embroider_zigzag_spacing_mm="0.33"
       embroider_trim_after="True"
       embroider_zigzag_underlay="True"
       embroider_zigzag_underlay_inset_mm=".25"
       embroider_zigzag_underlay_spacing_mm="1.25" />
  </g>
  <g
     style="display:inline"
     inkscape:label="Eyes - Bluebird"
     id="layer5"
     inkscape:groupmode="layer">
    <path
       embroider_zigzag_underlay_spacing_mm="1.25"
       embroider_zigzag_underlay_inset_mm=".25"
       embroider_zigzag_underlay="True"
       embroider_trim_after="True"
       embroider_zigzag_spacing_mm="0.33"
       embroider_satin_column="True"
       inkscape:connector-curvature="0"
       d="m 182.23177,161.29661 6.77995,-0.19843 m -6.71381,-1.65365 6.64766,0.0331 m -5.82083,-2.01748 4.99401,-0.0992 m -2.34818,-0.72762 c 0,0 2.08359,0.19844 2.28203,2.64583 0,0 0.52917,2.34818 -2.08359,2.71199 m -0.69453,-5.32475 c 0,0 -1.81901,0.59532 -2.01745,2.51355 0,0 -0.29765,2.51354 1.68672,2.84427"
       style="opacity:1;fill:none;fill-opacity:1;stroke:#4b92db;stroke-width:0.1;stroke-linecap:butt;stroke-linejoin:round;stroke-miterlimit:4;stroke-dasharray:none;stroke-dashoffset:0;stroke-opacity:1"
       id="path8613" />
    <path
       embroider_zigzag_underlay_spacing_mm="1.25"
       embroider_zigzag_underlay_inset_mm=".25"
       embroider_zigzag_underlay="True"
       embroider_trim_after="True"
       embroider_zigzag_spacing_mm="0.33"
       embroider_satin_column="True"
       inkscape:connector-curvature="0"
       d="m 219.93508,161.29661 -6.77995,-0.19843 m 6.71381,-1.65365 -6.64766,0.0331 m 5.82083,-2.01748 -4.99401,-0.0992 m 2.34818,-0.72762 c 0,0 -2.08359,0.19844 -2.28203,2.64583 0,0 -0.52917,2.34818 2.08359,2.71199 m 0.69453,-5.32475 c 0,0 1.81901,0.59532 2.01745,2.51355 0,0 0.29765,2.51354 -1.68672,2.84427"
       style="opacity:1;fill:none;fill-opacity:1;stroke:#4b92db;stroke-width:0.1;stroke-linecap:butt;stroke-linejoin:round;stroke-miterlimit:4;stroke-dasharray:none;stroke-dashoffset:0;stroke-opacity:1"
       id="path8613-3" />
  </g>
  <g
     style="display:inline"
     inkscape:groupmode="layer"
     id="layer6"
     inkscape:label="Eyebrows and Inner Ear - Charcoal">
    <path
       id="path8794"
       style="display:inline;opacity:1;fill:none;fill-opacity:1;stroke:#1b242a;stroke-width:0.1;stroke-linecap:butt;stroke-linejoin:round;stroke-miterlimit:4;stroke-dasharray:none;stroke-dashoffset:0;stroke-opacity:1"
       d="m 157.8901,119.65781 c -0.0661,0.26458 0.46302,5.15938 0.46302,5.15938 m -3.9026,-8.26823 -1.52136,5.22552 m -1.25677,-7.87136 -2.51354,4.10105 m -0.85989,-8.33438 -4.36563,4.29948 m 0.13229,-9.72344 -4.03489,2.64584 m 1.45521,-7.077609 -4.0349,1.852079 m 2.84427,-3.9026 -6.54844,-2.778125 m 5.82084,1.5875 -5.22552,-5.291666 m 6.01927,6.019271 -1.05834,-6.746875 m 4.7625,10.583335 1.65365,-5.953127 m 2.71198,11.046357 3.10885,-5.02709 m 1.78594,11.84011 3.83646,-3.37344 m 1.71979,11.24479 2.91042,-1.78594 m 0.85989,3.43959 c 0,0 -13.49375,-26.656773 -25.59844,-30.096356 0,0 -0.99218,-0.132291 -1.25676,0.264584 0,0 -0.39688,0.330729 0.26458,1.785938 0,0 6.73553,21.098654 23.41563,29.352214 m 1.65364,-0.44649 -0.99219,-1.5875 c 0,0 -12.63385,-23.28333 -21.69583,-26.590621 0,0 8.26823,20.769791 21.23281,26.590631"
       inkscape:connector-curvature="0"
       sodipodi:nodetypes="ccccccccccccccccccccccccccccccccccc"
       embroider_satin_column="True"
       embroider_zigzag_spacing_mm="0.33"
       embroider_zigzag_underlay="True"
       embroider_zigzag_underlay_inset_mm=".25"
       embroider_zigzag_underlay_spacing_mm="1.25" />
    <path
       inkscape:label="path8937"
       embroider_running_stitch_length_mm="2.5"
       inkscape:connector-curvature="0"
       id="path8937"
       d="m 159.74219,122.89896 2.71197,1.25677"
       style="display:inline;opacity:1;fill:none;fill-opacity:1;stroke:#1b242a;stroke-width:0.1;stroke-linecap:butt;stroke-linejoin:round;stroke-miterlimit:4;stroke-dasharray:0.1, 0.1;stroke-dashoffset:0;stroke-opacity:1" />
    <path
       embroider_zigzag_underlay_inset_mm=".25"
       embroider_zigzag_underlay_spacing_mm="1.25"
       embroider_zigzag_underlay="True"
       embroider_trim_after="True"
       embroider_zigzag_spacing_mm="0.33"
       embroider_satin_column="True"
       sodipodi:nodetypes="cccccccccc"
       inkscape:connector-curvature="0"
       d="m 159.21246,124.5743 3.41436,-4.16272 m -0.91205,4.84092 1.96443,-2.47892 m -0.65481,1.52009 0.11693,-0.60804 c 0,0 -1.56687,-3.46114 -2.1983,-4.46674 m 1.82412,5.35541 -0.60804,0.16371 c 0,0 -3.74177,-1.12254 -4.56028,-1.75396"
       style="opacity:1;fill:none;fill-opacity:1;stroke:#1b242a;stroke-width:0.1;stroke-linecap:butt;stroke-linejoin:round;stroke-miterlimit:4;stroke-dasharray:none;stroke-dashoffset:0;stroke-opacity:1"
       id="path9266" />
    <path
       id="path8794-1"
       style="display:inline;opacity:1;fill:none;fill-opacity:1;stroke:#1b242a;stroke-width:0.1;stroke-linecap:butt;stroke-linejoin:round;stroke-miterlimit:4;stroke-dasharray:none;stroke-dashoffset:0;stroke-opacity:1"
       d="m 244.33129,119.65781 c 0.0661,0.26458 -0.46302,5.15938 -0.46302,5.15938 m 3.9026,-8.26823 1.52136,5.22552 m 1.25677,-7.87136 2.51354,4.10105 m 0.85989,-8.33438 4.36563,4.29948 m -0.13229,-9.72344 4.03489,2.64584 m -1.45521,-7.077612 4.0349,1.852082 m -2.84427,-3.902603 6.54844,-2.778125 m -5.82084,1.5875 5.22552,-5.291666 m -6.01927,6.019271 1.05834,-6.746875 m -4.7625,10.583338 -1.65365,-5.95313 m -2.71198,11.04636 -3.10885,-5.02709 m -1.78594,11.84011 -3.83646,-3.37344 m -1.71979,11.24479 -2.91042,-1.78594 m -0.85989,3.43959 c 0,0 13.49375,-26.656776 25.59844,-30.096359 0,0 0.99218,-0.132291 1.25676,0.264584 0,0 0.39688,0.330729 -0.26458,1.785938 0,0 -6.73553,21.098657 -23.41563,29.352217 m -1.65364,-0.44649 0.99219,-1.5875 c 0,0 12.63385,-23.283333 21.69583,-26.590624 0,0 -8.26823,20.769794 -21.23281,26.590634"
       inkscape:connector-curvature="0"
       sodipodi:nodetypes="ccccccccccccccccccccccccccccccccccc"
       embroider_satin_column="True"
       embroider_zigzag_spacing_mm="0.33"
       embroider_zigzag_underlay="True"
       embroider_zigzag_underlay_inset_mm=".25"
       embroider_zigzag_underlay_spacing_mm="1.25" />
    <path
       inkscape:label="path8937"
       embroider_running_stitch_length_mm="2.5"
       inkscape:connector-curvature="0"
       id="path8937-7"
       d="m 242.4792,122.89896 -2.71197,1.25677"
       style="display:inline;opacity:1;fill:none;fill-opacity:1;stroke:#1b242a;stroke-width:0.1;stroke-linecap:butt;stroke-linejoin:round;stroke-miterlimit:4;stroke-dasharray:0.1, 0.1;stroke-dashoffset:0;stroke-opacity:1" />
    <path
       embroider_zigzag_underlay_inset_mm=".25"
       embroider_zigzag_underlay_spacing_mm="1.25"
       embroider_zigzag_underlay="True"
       embroider_trim_after="True"
       embroider_zigzag_spacing_mm="0.33"
       embroider_satin_column="True"
       sodipodi:nodetypes="cccccccccc"
       inkscape:connector-curvature="0"
       d="m 243.00893,124.5743 -3.41436,-4.16272 m 0.91205,4.84092 -1.96443,-2.47892 m 0.65481,1.52009 -0.11693,-0.60804 c 0,0 1.56687,-3.46114 2.1983,-4.46674 m -1.82412,5.35541 0.60804,0.16371 c 0,0 3.74177,-1.12254 4.56028,-1.75396"
       style="display:inline;opacity:1;fill:none;fill-opacity:1;stroke:#1b242a;stroke-width:0.1;stroke-linecap:butt;stroke-linejoin:round;stroke-miterlimit:4;stroke-dasharray:none;stroke-dashoffset:0;stroke-opacity:1"
       id="path9266-1" />
    <path
       id="path9444"
       style="opacity:1;fill:none;fill-opacity:1;stroke:#1b242a;stroke-width:0.1;stroke-linecap:butt;stroke-linejoin:round;stroke-miterlimit:4;stroke-dasharray:none;stroke-dashoffset:0;stroke-opacity:1"
       d="m 185.16433,145.0104 c -0.16037,-0.21382 -0.85526,-5.07812 -0.85526,-5.07812 m -2.51234,7.59045 -4.54358,-6.2541 m 1.44325,9.19407 -3.31414,-1.87089 m 1.17599,2.03125 c 0,0 -0.96217,-12.50821 11.59949,-8.65953 m -11.0115,9.14062 c 0,0 3.04687,-7.59046 11.38568,-8.55263"
       inkscape:connector-curvature="0"
       embroider_satin_column="True"
       embroider_zigzag_spacing_mm="0.33"
       embroider_trim_after="True"
       embroider_zigzag_underlay="True"
       embroider_zigzag_underlay_inset_mm=".25"
       embroider_zigzag_underlay_spacing_mm="1.25" />
    <path
       id="path9444-5"
       style="display:inline;opacity:1;fill:none;fill-opacity:1;stroke:#1b242a;stroke-width:0.1;stroke-linecap:butt;stroke-linejoin:round;stroke-miterlimit:4;stroke-dasharray:none;stroke-dashoffset:0;stroke-opacity:1"
       d="m 216.83124,145.0104 c 0.16037,-0.21382 0.85526,-5.07812 0.85526,-5.07812 m 2.51234,7.59045 4.54358,-6.2541 m -1.44325,9.19407 3.31414,-1.87089 m -1.17599,2.03125 c 0,0 0.96217,-12.50821 -11.59949,-8.65953 m 11.0115,9.14062 c 0,0 -3.04687,-7.59046 -11.38568,-8.55263"
       inkscape:connector-curvature="0"
       embroider_satin_column="True"
       embroider_zigzag_spacing_mm="0.33"
       embroider_trim_after="True"
       embroider_zigzag_underlay="True"
       embroider_zigzag_underlay_inset_mm=".25"
       embroider_zigzag_underlay_spacing_mm="1.25" />
  </g>
  <g
     style="display:inline"
     inkscape:label="Detail - Black Stallion"
     id="layer7"
     inkscape:groupmode="layer">
    <path
       embroider_zigzag_underlay_spacing_mm="1.25"
       embroider_zigzag_underlay_inset_mm=".25"
       embroider_zigzag_underlay="True"
       embroider_zigzag_spacing_mm="0.33"
       embroider_satin_column="True"
       inkscape:connector-curvature="0"
       d="m 190.27482,161.87152 c 0.14074,0.0352 4.50355,1.7592 4.50355,1.7592 m -4.89057,-5.45352 5.24241,0.38703 m -5.34797,-3.44803 4.53874,-0.0352 m -6.12201,-2.07584 4.92575,-2.00548 m -6.47385,-0.14074 c 0,-0.14073 2.74435,-3.58876 2.60361,-3.51839 m -4.32762,4.22207 -0.35184,-4.53873 m -2.04067,7.77565 -3.83505,-3.061 m 2.14622,8.7608 -3.79987,-1.86475 m 3.69432,3.87024 -3.69432,0.56294 m 2.81472,0.10555 c 0,0 -0.56294,-12.38475 6.68495,-13.47545 0,0 5.4887,0.98515 4.96094,13.44027 m -13.33472,0.35184 c 0,0 -1.02033,-14.98836 8.3386,-15.62168 0,0 7.63492,0.17593 6.89605,15.90315"
       style="opacity:1;fill:none;fill-opacity:1;stroke:#191d1f;stroke-width:0.1;stroke-linecap:butt;stroke-linejoin:round;stroke-miterlimit:4;stroke-dasharray:none;stroke-dashoffset:0;stroke-opacity:1"
       id="path9635" />
    <path
       style="opacity:1;fill:none;fill-opacity:1;stroke:#191d1f;stroke-width:0.1;stroke-linecap:butt;stroke-linejoin:round;stroke-miterlimit:4;stroke-dasharray:0.1, 0.1;stroke-dashoffset:0;stroke-opacity:1"
       d="m 192.2803,163.41961 2.53325,1.68883"
       id="path9796"
       inkscape:connector-curvature="0"
       embroider_running_stitch_length_mm="2.5" />
    <path
       embroider_zigzag_underlay_spacing_mm="1.25"
       embroider_zigzag_underlay_inset_mm=".25"
       embroider_zigzag_underlay="True"
       embroider_trim_after="True"
       embroider_zigzag_spacing_mm="0.33"
       embroider_satin_column="True"
       inkscape:connector-curvature="0"
       d="m 176.97529,165.88249 -1.79439,-3.16656 m 4.6091,2.99064 -2.81471,-4.64428 m 8.5497,4.04615 -0.21111,-6.22756 m 6.40348,7.21271 2.46288,-4.25726 m -0.8796,4.08134 2.39251,-2.88508 m -0.91478,2.35732 -1.93512,-0.56294 c 0,0 -4.96094,-4.08134 -14.81245,-0.45739 l -2.49805,0.2111 m 19.70301,0.52776 -1.33699,-1.93512 c 0,0 -6.01646,-4.53873 -16.71238,-0.59812 l -1.72401,1.68883"
       style="opacity:1;fill:none;fill-opacity:1;stroke:#191d1f;stroke-width:0.1;stroke-linecap:butt;stroke-linejoin:round;stroke-miterlimit:4;stroke-dasharray:none;stroke-dashoffset:0;stroke-opacity:1"
       id="path9970" />
    <path
       embroider_zigzag_underlay_spacing_mm="1.25"
       embroider_zigzag_underlay_inset_mm=".25"
       embroider_zigzag_underlay="True"
       embroider_zigzag_spacing_mm="0.33"
       embroider_satin_column="True"
       inkscape:connector-curvature="0"
       d="m 211.81524,161.87152 c -0.14074,0.0352 -4.50355,1.7592 -4.50355,1.7592 m 4.89057,-5.45352 -5.24241,0.38703 m 5.34797,-3.44803 -4.53874,-0.0352 m 6.12201,-2.07584 -4.92575,-2.00548 m 6.47385,-0.14074 c 0,-0.14073 -2.74435,-3.58876 -2.60361,-3.51839 m 4.32762,4.22207 0.35184,-4.53873 m 2.04067,7.77565 3.83505,-3.061 m -2.14622,8.7608 3.79987,-1.86475 m -3.69432,3.87024 3.69432,0.56294 m -2.81472,0.10555 c 0,0 0.56294,-12.38475 -6.68495,-13.47545 0,0 -5.4887,0.98515 -4.96094,13.44027 m 13.33472,0.35184 c 0,0 1.02033,-14.98836 -8.3386,-15.62168 0,0 -7.63492,0.17593 -6.89605,15.90315"
       style="opacity:1;fill:none;fill-opacity:1;stroke:#191d1f;stroke-width:0.1;stroke-linecap:butt;stroke-linejoin:round;stroke-miterlimit:4;stroke-dasharray:none;stroke-dashoffset:0;stroke-opacity:1"
       id="path9635-0" />
    <path
       style="opacity:1;fill:none;fill-opacity:1;stroke:#191d1f;stroke-width:0.1;stroke-linecap:butt;stroke-linejoin:round;stroke-miterlimit:4;stroke-dasharray:0.1, 0.1;stroke-dashoffset:0;stroke-opacity:1"
       d="m 209.80976,163.41961 -2.53325,1.68883"
       id="path9796-8"
       inkscape:connector-curvature="0"
       embroider_running_stitch_length_mm="2.5" />
    <path
       embroider_zigzag_underlay_spacing_mm="1.25"
       embroider_zigzag_underlay_inset_mm=".25"
       embroider_zigzag_underlay="True"
       embroider_trim_after="True"
       embroider_zigzag_spacing_mm="0.33"
       embroider_satin_column="True"
       inkscape:connector-curvature="0"
       d="m 225.11477,165.88249 1.79439,-3.16656 m -4.6091,2.99064 2.81471,-4.64428 m -8.5497,4.04615 0.21111,-6.22756 m -6.40348,7.21271 -2.46288,-4.25726 m 0.8796,4.08134 -2.39251,-2.88508 m 0.91478,2.35732 1.93512,-0.56294 c 0,0 4.96094,-4.08134 14.81245,-0.45739 l 2.49805,0.2111 m -19.70301,0.52776 1.33699,-1.93512 c 0,0 6.01646,-4.53873 16.71238,-0.59812 l 1.72401,1.68883"
       style="opacity:1;fill:none;fill-opacity:1;stroke:#191d1f;stroke-width:0.1;stroke-linecap:butt;stroke-linejoin:round;stroke-miterlimit:4;stroke-dasharray:none;stroke-dashoffset:0;stroke-opacity:1"
       id="path9970-4" />
    <path
       id="path10173"
       style="opacity:1;fill:none;fill-opacity:1;stroke:#191d1f;stroke-width:0.1;stroke-linecap:butt;stroke-linejoin:round;stroke-miterlimit:4;stroke-dasharray:none;stroke-dashoffset:0;stroke-opacity:1"
       d="m 182.68311,231.081 -7.85209,3.46024 m 8.11826,-7.27538 c -0.17745,0 -10.73563,4.65802 -10.73563,4.65802 m 7.98518,-7.1423 c -0.17745,0 -5.81144,1.77448 -5.81144,1.77448 m 5.36782,-4.43621 -6.29942,1.9963 m 6.03324,-3.59333 c -0.17744,0.0887 -7.00921,-0.62107 -7.00921,-0.62107 m 7.4972,-0.66543 -6.38814,-2.83918 m 6.60995,0.31054 c -0.17745,0.0887 -4.61366,-1.6414 -4.61366,-1.6414 m 3.14971,0.84288 c 0,0 1.41959,0.9316 -0.13309,3.06099 0,0 -0.75415,4.03695 0.57671,6.38814 0,0 2.26247,1.10905 2.79482,3.37152 0,0 0.75415,2.75045 -2.9279,4.61366 m -0.97597,-17.65612 c 0,0 -2.12938,0.22181 -2.75045,1.41959 0,0 -1.90757,0.62107 -1.46395,4.30312 0,0 0.66543,2.39556 1.86321,3.63769 0,0 0.88724,1.33087 0.17745,2.26247 0,0 -2.17374,2.08502 -1.95193,4.74675 0,0 0.84288,3.01662 4.43621,1.64139"
       inkscape:connector-curvature="0"
       embroider_satin_column="True"
       embroider_zigzag_spacing_mm="0.33"
       embroider_trim_after="True"
       embroider_zigzag_underlay="True"
       embroider_zigzag_underlay_inset_mm=".25"
       embroider_zigzag_underlay_spacing_mm="1.25" />
    <path
       id="path10173-6"
       style="opacity:1;fill:none;fill-opacity:1;stroke:#191d1f;stroke-width:0.1;stroke-linecap:butt;stroke-linejoin:round;stroke-miterlimit:4;stroke-dasharray:none;stroke-dashoffset:0;stroke-opacity:1"
       d="m 219.56159,231.081 7.85209,3.46024 m -8.11826,-7.27538 c 0.17745,0 10.73563,4.65802 10.73563,4.65802 m -7.98518,-7.1423 c 0.17745,0 5.81144,1.77448 5.81144,1.77448 m -5.36782,-4.43621 6.29942,1.9963 m -6.03324,-3.59333 c 0.17744,0.0887 7.00921,-0.62107 7.00921,-0.62107 m -7.4972,-0.66543 6.38814,-2.83918 m -6.60995,0.31054 c 0.17745,0.0887 4.61366,-1.6414 4.61366,-1.6414 m -3.14971,0.84288 c 0,0 -1.41959,0.9316 0.13309,3.06099 0,0 0.75415,4.03695 -0.57671,6.38814 0,0 -2.26247,1.10905 -2.79482,3.37152 0,0 -0.75415,2.75045 2.9279,4.61366 m 0.97597,-17.65612 c 0,0 2.12938,0.22181 2.75045,1.41959 0,0 1.90757,0.62107 1.46395,4.30312 0,0 -0.66543,2.39556 -1.86321,3.63769 0,0 -0.88724,1.33087 -0.17745,2.26247 0,0 2.17374,2.08502 1.95193,4.74675 0,0 -0.84288,3.01662 -4.43621,1.64139"
       inkscape:connector-curvature="0"
       embroider_satin_column="True"
       embroider_zigzag_spacing_mm="0.33"
       embroider_trim_after="True"
       embroider_zigzag_underlay="True"
       embroider_zigzag_underlay_inset_mm=".25"
       embroider_zigzag_underlay_spacing_mm="1.25" />
  </g>
  <g
     style="display:inline"
     inkscape:label="Tag - Pure White"
     id="layer8"
     inkscape:groupmode="layer">
    <path
       embroider_zigzag_underlay_spacing_mm="1.25"
       embroider_zigzag_underlay_inset_mm=".25"
       embroider_zigzag_underlay="True"
       embroider_zigzag_spacing_mm="0.33"
       embroider_satin_column="True"
       inkscape:connector-curvature="0"
       d="m 253.0409,134.53281 3.95463,-4.40022 m -2.56216,5.6256 c 0,0 5.51421,-3.34194 5.23572,-3.39764 m -3.95464,4.01033 5.29141,-0.61269 m -6.0712,1.39248 5.40281,0.66839 m -7.63077,2.61785 4.34453,3.62044 m -2.72926,-0.1114 5.06862,-7.12948 c 0,0 0.61269,-0.50129 0.2785,-0.94688 l -4.01033,-5.23571 m -2.67356,11.9196 4.51162,-6.294 -3.34194,-4.45592"
       style="opacity:1;fill:none;fill-opacity:1;stroke:#ffffff;stroke-width:0.1;stroke-linecap:butt;stroke-linejoin:round;stroke-miterlimit:4;stroke-dasharray:none;stroke-dashoffset:0;stroke-opacity:1"
       id="path10375" />
    <path
       id="path10592"
       style="opacity:1;fill:none;fill-opacity:1;stroke:#ffffff;stroke-width:0.1;stroke-linecap:butt;stroke-linejoin:round;stroke-miterlimit:4;stroke-dasharray:none;stroke-dashoffset:0;stroke-opacity:1"
       d="m 251.42562,142.66488 3.73184,3.11915 m -4.90152,-1.16968 c 0.2228,0.27849 3.78754,4.01033 3.78754,4.01033 m -4.84582,-2.33936 c 0,0.27849 1.44818,5.01291 1.44818,5.01291 m -1.83807,-4.12173 -0.1114,5.18002 m -0.50129,-6.0712 -1.44818,4.62302 m -1.78237,-10.47143 -3.89894,3.56474 m 1.16969,-6.85098 -3.50905,1.94946 m 3.00775,-2.84065 -4.28882,0.83549 m 4.45592,-1.94947 h -4.79012 m 6.1826,-4.45592 -4.95722,-1.39248 m 5.06862,-0.66839 -3.73184,-3.50904 m 3.62044,2.50646 -2.28367,-3.89894 m 2.78496,4.01033 c 0,-0.27849 -0.89119,-4.95721 -0.89119,-4.95721 m 2.72926,5.29141 -0.44559,-4.95722 m 3.84323,6.0155 0.50129,-5.40281 m 1.28108,5.68131 2.00517,-4.90152 m -1.50388,5.51421 3.39765,-3.62044 m -0.72409,7.01808 3.28625,-3.84323 m -0.3899,2.56215 -4.73442,-5.9598 c 0,0 -7.79787,-1.72667 -9.80304,-1.55957 0,0 -0.83548,-0.3342 -1.22537,1.11398 l -2.56216,10.69422 c 0,0 -0.0557,0.72409 0.50129,1.33678 l 8.85615,13.03358 c 0,0 0.66839,0.77979 1.50388,0 l 6.29399,-8.80045 m -0.27849,-8.52196 -4.34453,-5.62561 c 0,0 -4.90152,-1.61527 -8.18777,-1.22538 0,0 -2.22796,7.90927 -2.33935,9.97014 l 8.24346,12.0867 5.62561,-8.07637"
       inkscape:connector-curvature="0"
       embroider_satin_column="True"
       embroider_zigzag_spacing_mm="0.33"
       embroider_trim_after="True"
       embroider_zigzag_underlay="True"
       embroider_zigzag_underlay_inset_mm=".25"
       embroider_zigzag_underlay_spacing_mm="1.25" />
  </g>
</svg>
