<?xml version="1.0" encoding="UTF-8" standalone="no"?>
<!-- Created with Inkscape (http://www.inkscape.org/) -->

<svg
   xmlns:dc="http://purl.org/dc/elements/1.1/"
   xmlns:cc="http://creativecommons.org/ns#"
   xmlns:rdf="http://www.w3.org/1999/02/22-rdf-syntax-ns#"
   xmlns:svg="http://www.w3.org/2000/svg"
   xmlns="http://www.w3.org/2000/svg"
   xmlns:sodipodi="http://sodipodi.sourceforge.net/DTD/sodipodi-0.dtd"
   xmlns:inkscape="http://www.inkscape.org/namespaces/inkscape"
   sodipodi:docname="Fringe Example.svg"
   enable-background="new"
   inkscape:version="0.91+devel r"
   id="svg4505"
   version="1.1"
   viewBox="0 0 101.6 101.6"
   height="4in"
   width="4in">
  <sodipodi:namedview
     inkscape:measure-end="91.6713,123.996"
     inkscape:measure-start="77.7817,109.096"
     inkscape:locked="false"
     inkscape:guide-bbox="true"
     showguides="true"
     inkscape:window-maximized="1"
     inkscape:window-y="0"
     inkscape:window-x="0"
     inkscape:window-height="1011"
     inkscape:window-width="1920"
     inkscape:snap-global="false"
     units="in"
     showgrid="false"
     inkscape:current-layer="layer7"
     inkscape:document-units="mm"
     inkscape:cy="151.02564"
     inkscape:cx="98.678674"
     inkscape:zoom="4"
     inkscape:pageshadow="2"
     inkscape:pageopacity="0"
     borderopacity="1.0"
     bordercolor="#666666"
     pagecolor="#aaaaaa"
     id="base">
    <inkscape:grid
       type="xygrid"
       id="grid4517" />
  </sodipodi:namedview>
  <defs
     id="defs4499" />
  <metadata
     id="metadata4502">
    <rdf:RDF>
      <cc:Work
         rdf:about="">
        <dc:format>image/svg+xml</dc:format>
        <dc:type
           rdf:resource="http://purl.org/dc/dcmitype/StillImage" />
        <dc:title></dc:title>
        <dc:creator>
          <cc:Agent>
            <dc:title>Evan West at Wild West Designs</dc:title>
          </cc:Agent>
        </dc:creator>
        <dc:publisher>
          <cc:Agent>
            <dc:title>Wild West Designs</dc:title>
          </cc:Agent>
        </dc:publisher>
        <dc:source>www.wildwestdesigns.biz</dc:source>
      </cc:Work>
    </rdf:RDF>
  </metadata>
  <g
     inkscape:groupmode="layer"
     id="layer8"
     inkscape:label="Instructions"
     sodipodi:insensitive="true"
     style="display:none">
    <text
       xml:space="preserve"
       style="font-style:normal;font-variant:normal;font-weight:500;font-stretch:normal;font-size:4.26412678px;line-height:1.82748294px;font-family:KacstPen;-inkscape-font-specification:'KacstPen Medium';font-variant-ligatures:normal;font-variant-caps:normal;font-variant-numeric:normal;text-align:start;letter-spacing:0px;word-spacing:0px;writing-mode:lr-tb;text-anchor:start;fill:#000000;fill-opacity:1;stroke:none;stroke-width:0.11421768px;stroke-linecap:butt;stroke-linejoin:miter;stroke-opacity:1"
       x="42.720001"
       y="109.68793"
       id="text4459"
       sodipodi:insensitive="true"><tspan
         sodipodi:role="line"
         id="tspan4457"
         x="42.720001"
         y="109.68793"
         style="stroke-width:0.11421768px">Steps</tspan></text>
    <text
       xml:space="preserve"
       style="font-style:normal;font-variant:normal;font-weight:500;font-stretch:normal;font-size:9.8777771px;line-height:4.23333311px;font-family:KacstPen;-inkscape-font-specification:'KacstPen Medium';font-variant-ligatures:normal;font-variant-caps:normal;font-variant-numeric:normal;text-align:start;letter-spacing:0px;word-spacing:0px;writing-mode:lr-tb;text-anchor:start;fill:#000000;fill-opacity:1;stroke:none;stroke-width:0.26458332px;stroke-linecap:butt;stroke-linejoin:miter;stroke-opacity:1"
       x="24.227982"
       y="123.1152"
       id="text4463"
       sodipodi:insensitive="true"><tspan
         sodipodi:role="line"
         id="tspan4461"
         x="24.227982"
         y="127.47681"
         style="stroke-width:0.26458332px" /></text>
    <text
       xml:space="preserve"
       style="font-style:normal;font-variant:normal;font-weight:500;font-stretch:normal;font-size:4.26213789px;line-height:4.51656389px;font-family:KacstPen;-inkscape-font-specification:'KacstPen Medium';font-variant-ligatures:normal;font-variant-caps:normal;font-variant-numeric:normal;text-align:start;letter-spacing:0px;word-spacing:0px;writing-mode:lr-tb;text-anchor:start;fill:#000000;fill-opacity:1;stroke:none;stroke-width:0.16528457px;stroke-linecap:butt;stroke-linejoin:miter;stroke-opacity:1"
       x="20.289345"
       y="117.35567"
       id="text4467"
       sodipodi:insensitive="true"><tspan
         sodipodi:role="line"
         id="tspan4465"
         x="20.289345"
         y="117.35567"
         style="line-height:4.51656389px;stroke-width:0.16528457px">1.  Digitized elements that</tspan><tspan
         sodipodi:role="line"
         x="20.289345"
         y="122.01072"
         style="line-height:4.51656389px;stroke-width:0.16528457px"
         id="tspan4469">are to be fringe as long</tspan><tspan
         sodipodi:role="line"
         x="20.289345"
         y="126.66577"
         style="line-height:4.51656389px;stroke-width:0.16528457px"
         id="tspan4471">satin stitches, longer the</tspan><tspan
         sodipodi:role="line"
         x="20.289345"
         y="131.32083"
         style="line-height:4.51656389px;stroke-width:0.16528457px"
         id="tspan4473">better.</tspan></text>
    <text
       xml:space="preserve"
       style="font-style:normal;font-variant:normal;font-weight:500;font-stretch:normal;font-size:4.26213789px;line-height:4.51656389px;font-family:KacstPen;-inkscape-font-specification:'KacstPen Medium';font-variant-ligatures:normal;font-variant-caps:normal;font-variant-numeric:normal;text-align:start;letter-spacing:0px;word-spacing:0px;writing-mode:lr-tb;text-anchor:start;fill:#000000;fill-opacity:1;stroke:none;stroke-width:0.16528457px;stroke-linecap:butt;stroke-linejoin:miter;stroke-opacity:1"
       x="19.810688"
       y="139.79544"
       id="text4477"
       sodipodi:insensitive="true"><tspan
         sodipodi:role="line"
         id="tspan4475"
         x="19.810688"
         y="139.79544"
         style="line-height:4.51656389px;stroke-width:0.16528457px">2.  Make sure to &quot;anchor&quot; </tspan><tspan
         sodipodi:role="line"
         x="19.810688"
         y="144.4505"
         style="line-height:4.51656389px;stroke-width:0.16528457px"
         id="tspan4479">the one side that you don't</tspan><tspan
         sodipodi:role="line"
         x="19.810688"
         y="149.10555"
         style="line-height:4.51656389px;stroke-width:0.16528457px"
         id="tspan4481">want to cut down with run </tspan><tspan
         sodipodi:role="line"
         x="19.810688"
         y="153.7606"
         style="line-height:4.51656389px;stroke-width:0.16528457px"
         id="tspan4483">stitches.</tspan></text>
    <text
       xml:space="preserve"
       style="font-style:normal;font-variant:normal;font-weight:500;font-stretch:normal;font-size:4.26213789px;line-height:4.51656389px;font-family:KacstPen;-inkscape-font-specification:'KacstPen Medium';font-variant-ligatures:normal;font-variant-caps:normal;font-variant-numeric:normal;text-align:start;letter-spacing:0px;word-spacing:0px;writing-mode:lr-tb;text-anchor:start;fill:#000000;fill-opacity:1;stroke:none;stroke-width:0.16528457px;stroke-linecap:butt;stroke-linejoin:miter;stroke-opacity:1"
       x="19.977571"
       y="160.9496"
       id="text4487"
       sodipodi:insensitive="true"><tspan
         sodipodi:role="line"
         id="tspan4485"
         x="19.977571"
         y="160.9496"
         style="stroke-width:0.16528457px">3.  After sewing is done,</tspan><tspan
         sodipodi:role="line"
         x="19.977571"
         y="165.60466"
         style="stroke-width:0.16528457px"
         id="tspan4489">turn design upside down</tspan><tspan
         sodipodi:role="line"
         x="19.977571"
         y="170.2597"
         style="stroke-width:0.16528457px"
         id="tspan4491">and cut bobbin stitches.  </tspan><tspan
         sodipodi:role="line"
         x="19.977571"
         y="174.91476"
         style="stroke-width:0.16528457px"
         id="tspan4493">Avoid cutting through the</tspan><tspan
         sodipodi:role="line"
         x="19.977571"
         y="179.56981"
         style="stroke-width:0.16528457px"
         id="tspan4495">fabric.</tspan></text>
    <text
       xml:space="preserve"
       style="font-style:normal;font-variant:normal;font-weight:500;font-stretch:normal;font-size:4.26155567px;line-height:4.52999973px;font-family:KacstPen;-inkscape-font-specification:'KacstPen Medium';font-variant-ligatures:normal;font-variant-caps:normal;font-variant-numeric:normal;text-align:start;letter-spacing:0px;word-spacing:0px;writing-mode:lr-tb;text-anchor:start;fill:#000000;fill-opacity:1;stroke:none;stroke-width:0.26458332px;stroke-linecap:butt;stroke-linejoin:miter;stroke-opacity:1"
       x="20.267397"
       y="187.75433"
       id="text4499"
       sodipodi:insensitive="true"><tspan
         sodipodi:role="line"
         id="tspan4497"
         x="20.267397"
         y="187.75433"
         style="font-size:4.26155567px;stroke-width:0.26458332px">4.  Flip design back over </tspan><tspan
         sodipodi:role="line"
         x="20.267397"
         y="192.42281"
         style="font-size:4.26155567px;stroke-width:0.26458332px"
         id="tspan4501">and carefully pull out top </tspan><tspan
         sodipodi:role="line"
         x="20.267397"
         y="197.09128"
         style="font-size:4.26155567px;stroke-width:0.26458332px"
         id="tspan4503">stitches using tip of </tspan><tspan
         sodipodi:role="line"
         x="20.267397"
         y="201.75975"
         style="font-size:4.26155567px;stroke-width:0.26458332px"
         id="tspan4505">scissors.</tspan></text>
    <text
       xml:space="preserve"
       style="font-style:normal;font-variant:normal;font-weight:500;font-stretch:normal;font-size:4.26155567px;line-height:4.52999973px;font-family:KacstPen;-inkscape-font-specification:'KacstPen Medium';font-variant-ligatures:normal;font-variant-caps:normal;font-variant-numeric:normal;text-align:start;letter-spacing:0px;word-spacing:0px;writing-mode:lr-tb;text-anchor:start;fill:#000000;fill-opacity:1;stroke:none;stroke-width:0.26458332px;stroke-linecap:butt;stroke-linejoin:miter;stroke-opacity:1"
       x="20.394329"
       y="209.02089"
       id="text4509"
       sodipodi:insensitive="true"><tspan
         sodipodi:role="line"
         id="tspan4507"
         x="20.394329"
         y="209.02089"
         style="font-size:4.26155567px;stroke-width:0.26458332px">5.  That's it.  Either leave</tspan><tspan
         sodipodi:role="line"
         x="20.394329"
         y="213.68936"
         style="font-size:4.26155567px;stroke-width:0.26458332px"
         id="tspan4511">as is, or trim the top </tspan><tspan
         sodipodi:role="line"
         x="20.394329"
         y="218.35783"
         style="font-size:4.26155567px;stroke-width:0.26458332px"
         id="tspan4513">stitches to get desired</tspan><tspan
         sodipodi:role="line"
         x="20.394329"
         y="223.02631"
         style="font-size:4.26155567px;stroke-width:0.26458332px"
         id="tspan4515">finished results.</tspan></text>
  </g>
  <g
     style="display:inline"
     inkscape:label="Back of Ears - Teddybear Brown"
     id="layer3"
     inkscape:groupmode="layer">
    <path
       embroider_center_walk_underlay="True"
       embroider_zigzag_spacing_mm="0.33"
       embroider_satin_column="True"
       inkscape:connector-curvature="0"
       d="m 34.177091,49.515849 3.140417,-0.200451 m -3.173826,-0.968851 3.507912,-0.100227 m -3.040192,-1.804069 3.842001,1.035669 m -2.572469,-3.006783 3.307461,2.238383 m -1.870887,-3.407685 3.107007,2.271789 m -2.104747,-3.57473 c 0.133635,0.03341 2.873147,2.238383 2.873147,2.238383 m -2.204974,-3.507912 2.939965,1.369756 m -1.5368,-3.207234 2.438834,1.336347 m -1.035669,-2.171565 1.870887,1.369758 m -0.467723,-1.202714 c 0,0 0.367496,0.434314 -0.634764,1.269529 0,0 -0.935442,0.334089 -1.202712,1.737254 0,0 -1.369756,3.775182 -2.672695,4.944486 0,0 -2.772921,1.770661 -2.03793,4.476765 m 6.046973,-12.428034 c 0,0 -1.536801,1.336347 -2.238383,1.603616 0,0 -1.069078,0.56795 -1.469982,2.438836 0,0 -0.868626,2.138156 -2.605878,2.772922 0,0 -2.138156,1.904295 -1.469982,5.545842"
       style="opacity:1;fill:none;fill-opacity:1;stroke:#6e3219;stroke-width:0.1;stroke-linecap:butt;stroke-linejoin:round;stroke-miterlimit:4;stroke-dasharray:none;stroke-dashoffset:0;stroke-opacity:1"
       id="path4466" />
    <path
       style="opacity:1;fill:none;fill-opacity:1;stroke:#6e3219;stroke-width:0.1;stroke-linecap:butt;stroke-linejoin:round;stroke-miterlimit:4;stroke-dasharray:0.1, 0.1;stroke-dashoffset:0;stroke-opacity:1"
       d="m 35.179351,50.785381 3.541321,2.037929 3.541321,-1.403164 4.810853,-2.472243 4.00904,-3.34087 2.10475,-2.80633 1.804067,-2.605878 0.902036,-1.503389 1.269529,-1.035669"
       id="path4501"
       inkscape:connector-curvature="0" />
    <path
       id="path4519"
       style="opacity:1;fill:none;fill-opacity:1;stroke:#6e3219;stroke-width:0.1;stroke-linecap:butt;stroke-linejoin:round;stroke-miterlimit:4;stroke-dasharray:none;stroke-dashoffset:0;stroke-opacity:1"
       d="m 49.043957,44.571364 5.846522,0.03341 m -5.679477,-1.03567 5.913337,0.23386 m -4.944486,-2.171565 5.545841,1.30294 m -3.77518,-2.706105 4.075861,1.703845 m -2.238383,-3.173828 2.939965,2.372019 m -2.071341,-3.57473 2.706106,1.971111 m -1.369756,-2.739511 1.804069,1.469982 M 57.62999,37.188044 c 0,0 -0.300677,0.734992 -1.302937,1.737252 0,0 -0.233861,1.503391 -1.069079,2.238382 0,0 -1.00226,1.135896 -0.868625,2.238383 0,0 -0.434313,1.837478 -2.57247,1.670434 m 5.378798,-8.018086 c 0,0 -1.469983,0.367495 -2.372016,2.071338 0,0 -0.334086,0.902036 -1.26953,1.336349 0,0 -3.775182,1.369756 -3.841999,4.543582"
       inkscape:connector-curvature="0"
       embroider_satin_column="True"
       embroider_zigzag_spacing_mm="0.33"
       embroider_center_walk_underlay="True" />
  </g>
  <g
     inkscape:groupmode="layer"
     id="layer2"
     inkscape:label="Horse Body - Light Cinnamon"
     style="display:inline">
    <path
       embroider_center_walk_underlay="True"
       embroider_zigzag_spacing_mm="0.33"
       embroider_satin_column="True"
       inkscape:connector-curvature="0"
       d="m 34.745038,48.747452 5.34539,1.870884 m -5.612659,-3.875407 c 0.334087,-0.133633 8.084902,2.071338 8.084902,2.071338 m -5.278572,-5.011303 c 0.334086,-0.133634 7.483546,2.472242 7.483546,2.472242 m -6.013564,-4.677214 c 0.267269,0 6.815373,1.135894 6.815373,1.135894 m -4.543584,-3.875408 4.877671,1.202714 m -1.737252,-1.336347 c 0,0 0.801807,1.269529 -0.734991,4.409945 0,0 0.534539,0.467723 0.200452,1.670436 0,0 0.06682,0.400904 -2.739513,3.474504 0,0 -0.534539,1.26953 -3.140416,2.071338 m 5.81311,-11.759859 c 0,0 -1.603616,0.06682 -2.939962,2.539061 0,0 -0.467723,2.873147 -2.338609,4.476764 0,0 -2.071339,0.668174 -2.204974,4.877669"
       style="opacity:1;fill:none;fill-opacity:1;stroke:#a25022;stroke-width:0.1;stroke-linecap:butt;stroke-linejoin:round;stroke-miterlimit:4;stroke-dasharray:none;stroke-dashoffset:0;stroke-opacity:1"
       id="path4375" />
    <path
       style="opacity:1;fill:none;fill-opacity:1;stroke:#a25022;stroke-width:0.1;stroke-linecap:butt;stroke-linejoin:round;stroke-miterlimit:4;stroke-dasharray:0.1, 0.1;stroke-dashoffset:0;stroke-opacity:1"
       d="m 36.749558,50.618336 6.548104,-0.668173 5.813113,-1.336347 4.009043,-3.741774 3.073599,-4.81085 1.603618,-1.937705"
       id="path4400"
       inkscape:connector-curvature="0" />
    <path
       id="path4414"
       style="opacity:1;fill:none;fill-opacity:1;stroke:#a25022;stroke-width:0.1;stroke-linecap:butt;stroke-linejoin:round;stroke-miterlimit:4;stroke-dasharray:none;stroke-dashoffset:0;stroke-opacity:1"
       d="m 52.251191,43.268426 4.009044,4.543581 m -3.608139,-5.813113 5.278572,4.543584 m -4.409945,-5.946749 c 0.334087,-0.06681 5.011303,3.674957 5.011303,3.674957 m -4.075861,-5.746295 4.677217,2.80633 m -2.939965,-4.409946 3.274052,2.739512 M 58.66566,37.7894 c 0,0 -1.135896,1.937705 -1.002261,3.274052 0,0 0.601358,2.204974 -0.668173,2.873148 0,0 -0.534539,0.868626 -0.467721,1.5368 0,0 -0.467722,0.868626 -2.80633,1.804069 m 4.209493,-10.022607 c 0,0 -1.804069,0.601356 -2.873147,2.672694 0,0 -1.469981,3.808592 -3.073598,5.813113"
       inkscape:connector-curvature="0"
       embroider_satin_column="True"
       embroider_zigzag_spacing_mm="0.33"
       embroider_center_walk_underlay="True" />
    <path
       style="opacity:1;fill:#a25022;fill-opacity:1;stroke:none;stroke-width:0.1;stroke-linecap:butt;stroke-linejoin:round;stroke-miterlimit:4;stroke-dasharray:none;stroke-dashoffset:0;stroke-opacity:1"
       d="m 37.818636,81.15388 c 0,0 0.200454,-6.882191 7.082645,-13.430292 0,0 2.004521,1.135895 4.476764,0.133634 0,0 2.405426,-0.334087 3.340869,0.935444 0,0 5.34539,5.879929 6.681738,6.414468 0,0 -0.133635,2.138157 1.002261,3.140417 0,0 2.004521,0.400905 2.939965,1.336348 0,0 1.202712,1.069078 2.204973,0.601356 0,0 1.336348,-1.26953 2.472243,-0.935443 0,0 0.26727,-0.668174 -0.267269,-1.135895 0,0 1.870886,0.133634 2.138156,-1.135896 0,0 -0.935443,-2.53906 0.668174,-4.610399 0,0 0.868626,-1.870887 0.534539,-3.608139 0,0 -0.801809,-1.135895 -2.338609,-1.5368 0,0 -5.479025,-5.813112 -6.147199,-7.349912 0,0 -2.071338,-3.340869 -2.071338,-5.144938 0,0 -0.601357,-2.204974 -1.870887,-3.340869 0,0 -2.071339,-2.204974 -3.340869,-3.0736 0,0 -0.734991,-1.536799 -1.603617,-3.006782 0,0 -2.405426,-2.405425 -6.648329,-0.935443 0,0 -0.367497,0.03341 -1.637027,0.601356 0,0 -1.469982,0.26727 -2.405425,1.002261 0,0 -5.479026,2.605878 -7.951269,3.407686 0,0 -11.091685,4.276313 -10.757598,19.711128 0,0 1.336344,8.018083 13.497109,11.96031 z"
       id="path4341"
       inkscape:connector-curvature="0"
       embroider_max_stitch_length_mm="4"
       embroider_angle="015"
       embroider_fill_underlay="True"
       embroider_fill_underlay_inset_mm=".04"
       embroider_fill_underlay_max_stitch_length_mm="4"
       embroider_fill_underlay_row_spacing_mm="1.3"
       sodipodi:nodetypes="ccccccccccccccccccccccccc" />
  </g>
  <g
     style="display:inline"
     inkscape:label="Fringe Elements- Deep Walnut"
     id="layer4"
     inkscape:groupmode="layer">
    <path
       style="opacity:1;fill:none;fill-opacity:1;stroke:#4e2e2d;stroke-width:0.1;stroke-linecap:butt;stroke-linejoin:round;stroke-miterlimit:4;stroke-dasharray:none;stroke-dashoffset:0;stroke-opacity:1"
       d="m 24.321527,68.157899 -3.648229,4.677217 3.788545,-5.565886 -4.069178,4.34981 3.928862,-4.677216 -4.209495,2.946646 4.349811,-3.554685 -4.583672,2.572469 4.630444,-3.274052 -4.723989,1.590254 4.817534,-2.38538 -4.817534,0.795126 4.911078,-1.449938 -4.817533,-0.187087 4.770761,-0.420949 -5.752977,-0.888672 5.986838,0.42095 -5.893293,-1.730571 5.940065,1.075761 -5.425571,-1.91766 5.799748,1.075761 -7.857724,-2.946648 7.904496,2.38538 -6.454559,-3.694999 6.781965,2.8531 -5.799749,-3.882088 6.033609,3.133735 -4.583672,-4.630446 4.864305,3.882091 -4.396583,-6.127155 4.677216,5.799749 -3.788545,-6.501331 4.256268,5.332029 -4.022407,-7.390003 4.34981,6.875507 -3.133734,-7.670636 3.601457,6.87551 -2.057975,-7.857725 2.666014,7.062597 -2.198293,-9.401204 2.759559,8.746394 -1.169305,-5.940065 1.683798,5.285256 -0.467723,-6.641647 1.262851,5.706202 0.420949,-5.565886 0.701583,4.5369 1.075759,-5.799748 0.04677,5.00462 0.888669,-3.788545 0.327406,2.993419"
       id="path5947"
       inkscape:connector-curvature="0"
       embroider_manual_stitch="True" />
    <path
       embroider_trim_after="True"
       embroider_running_stitch_length_mm="1"
       sodipodi:nodetypes="ccc"
       inkscape:connector-curvature="0"
       id="path6039"
       d="m 33.769503,50.197387 c 0,0 -4.58367,2.525699 -7.062597,7.436776 0,0 -2.432151,4.723989 -2.385379,10.57051"
       style="opacity:1;fill:none;fill-opacity:1;stroke:#4e2e2d;stroke-width:0.1;stroke-linecap:butt;stroke-linejoin:round;stroke-miterlimit:4;stroke-dasharray:0.1, 0.1;stroke-dashoffset:0;stroke-opacity:1" />
    <path
       style="opacity:1;fill:none;fill-opacity:1;stroke:#4e2e2d;stroke-width:0.1;stroke-linecap:butt;stroke-linejoin:round;stroke-miterlimit:4;stroke-dasharray:none;stroke-dashoffset:0;stroke-opacity:1"
       d="m 44.152343,45.491796 1.091406,-6.283854 -0.826822,6.151563 1.157552,-6.201172 -0.909506,6.151562 1.405599,-6.333463 -1.041797,6.217708 1.653646,-6.383073 -1.30638,6.300391 2.116667,-6.416146 -1.752865,6.267318 2.265495,-6.250782 -1.951302,6.11849 2.89388,-6.234245 -2.397786,6.019271 3.158463,-6.101953 -2.629297,5.969661 3.45612,-6.879166 -3.175,6.796484 3.571875,-6.58151 -3.141927,6.465755 3.935677,-6.217708 -3.522266,6.101953"
       id="path5757"
       inkscape:connector-curvature="0"
       embroider_manual_stitch="True" />
    <path
       embroider_trim_after="True"
       embroider_running_stitch_length_mm="1"
       inkscape:connector-curvature="0"
       id="path5851"
       d="m 48.253385,44.16888 c 0,0 -2.38125,0.496093 -2.827735,0.926041 0,0 -1.074869,0.231511 -1.289843,0.380339"
       style="opacity:1;fill:none;fill-opacity:1;stroke:#4e2e2d;stroke-width:0.1;stroke-linecap:butt;stroke-linejoin:round;stroke-miterlimit:4;stroke-dasharray:0.1, 0.1;stroke-dashoffset:0;stroke-opacity:1" />
  </g>
  <g
     style="display:inline"
     inkscape:groupmode="layer"
     id="layer5"
     inkscape:label="Eye - Pure White">
    <path
       id="path4982"
       style="opacity:1;fill:none;fill-opacity:1;stroke:#ffffff;stroke-width:0.1;stroke-linecap:butt;stroke-linejoin:round;stroke-miterlimit:4;stroke-dasharray:none;stroke-dashoffset:0;stroke-opacity:1"
       d="m 48.804898,54.815231 0.178774,-1.37655 m -0.21453,2.109518 1.269286,-2.234658 m -0.51844,3.557574 c 0.01788,-0.07151 1.769848,-3.021256 1.769848,-3.021256 m -0.983248,3.468188 c 0,0 1.984375,-1.984375 1.894989,-1.948622 m -1.036881,2.020131 1.162021,-1.090515 m -1.001126,1.50169 1.179899,-0.429053 m -3.772101,-3.235783 c 0,0 1.412304,-0.339669 2.145271,0.286036 0,0 0.697213,0.429054 0.589949,1.412303 0,0 -0.05363,0.303913 0.160896,0.58995 0,0 0.554194,0.589949 0.268158,1.376548 m -3.217905,-3.343048 c 0,0 0.625703,-0.01789 0.661459,0.768723 0,0 -0.143019,1.144145 0.625703,1.287163 0,0 0.536318,0.32179 1.036881,0.357545 0,0 0.768722,0.32179 0.679335,1.090512"
       inkscape:connector-curvature="0"
       embroider_satin_column="True"
       embroider_zigzag_spacing_mm="0.33"
       embroider_trim_after="True"
       embroider_center_walk_underlay="False" />
    <path
       embroider_center_walk_underlay="True"
       embroider_trim_after="True"
       embroider_zigzag_spacing_mm="0.33"
       embroider_satin_column="True"
       inkscape:connector-curvature="0"
       d="m 50.888116,49.636121 3.367598,-2.525696 m -3.274052,4.209494 4.162722,-3.180506 m -2.993417,4.817533 4.256265,-3.367598 m -2.291834,5.004623 c 0,0 4.349811,-2.899873 4.162721,-2.853103 m -2.104747,5.238483 c 0,0 4.490127,-3.086963 4.30304,-2.993419 m -2.245063,7.062597 c 0,0 4.396584,-4.303038 4.162721,-4.115948 m -2.198291,7.436773 c 0.04677,-0.18709 3.04019,-5.051393 3.04019,-5.051393 m -1.122532,6.127152 2.38538,-4.95785 m -0.514493,6.080384 1.496708,-3.695001 M 52.805776,47.765234 c 0,0 1.075759,0.467722 1.777342,1.309621 0,0 0.420951,0.420951 0.888672,1.683799 0,0 1.403166,2.853102 1.917659,3.46114 0,0 1.870887,1.683798 2.759558,4.022407 0,0 1.262849,3.648229 2.478925,4.349811 0,0 2.011203,1.07576 2.853102,2.385381 M 52.338054,47.999096 c 0,0 -0.327403,1.403165 -0.04677,2.80633 0,0 0.935442,1.07576 2.011202,1.309621 0,0 3.928862,4.911078 4.911078,7.249686 0,0 1.356393,1.824114 1.870887,3.46114 0,0 2.946646,2.853102 4.069178,3.22728"
       style="opacity:1;fill:none;fill-opacity:1;stroke:#ffffff;stroke-width:0.1;stroke-linecap:butt;stroke-linejoin:round;stroke-miterlimit:4;stroke-dasharray:none;stroke-dashoffset:0;stroke-opacity:1"
       id="path5049" />
  </g>
  <g
     style="display:inline"
     inkscape:groupmode="layer"
     id="layer6"
     inkscape:label="Eye Color - Summer Sky">
    <path
       style="opacity:1;fill:none;fill-opacity:1;stroke:#6fd4e4;stroke-width:0.1;stroke-linecap:butt;stroke-linejoin:round;stroke-miterlimit:4;stroke-dasharray:0.1, 0.1;stroke-dashoffset:0;stroke-opacity:1"
       d="m 49.873958,55.587304 0.611849,-0.496094 -0.09922,0.744141 -0.479557,-0.744141 0.818554,0.405143 -0.777213,0.09095"
       id="path5099"
       inkscape:connector-curvature="0"
       embroider_trim_after="True"
       embroider_running_stitch_length_mm="1" />
  </g>
  <g
     style="display:inline"
     inkscape:label="Details - Black Stallion"
     id="layer7"
     inkscape:groupmode="layer">
    <path
       style="opacity:1;fill:none;fill-opacity:1;stroke:#191d1f;stroke-width:0.1;stroke-linecap:butt;stroke-linejoin:round;stroke-miterlimit:4;stroke-dasharray:0.1, 0.1;stroke-dashoffset:0;stroke-opacity:1"
       d="m 37.745138,81.160561 c 0,0 1.028988,-6.127152 3.227281,-8.652849 0,0 2.245064,-3.507913 3.695001,-4.443356 l 0.748355,-0.140316 c 0,0 -4.911078,-4.95785 -4.536901,-7.670636 0,0 0.514494,-1.824114 -0.561266,-3.040191"
       id="path5536"
       inkscape:connector-curvature="0"
       embroider_running_stitch_length_mm="1" />
    <path
       style="opacity:1;fill:none;fill-opacity:1;stroke:#191d1f;stroke-width:0.1;stroke-linecap:butt;stroke-linejoin:round;stroke-miterlimit:4;stroke-dasharray:0.1, 0.1;stroke-dashoffset:0;stroke-opacity:1"
       d="m 40.59824,57.58739 c 0,0 0.748356,1.309621 0.280633,2.853103 0,0 -0.140315,2.946646 4.583674,7.483547 m 0,0 c 0,0 1.637026,0.608038 3.835317,0.04677 0,0 2.104748,-0.561264 3.507913,0.935445 0,0 4.490128,4.770761 6.407787,6.173926 0,0 0.233861,2.572469 1.496709,3.180507 0,0 0.561266,0.561266 1.870887,0.795127 0,0 1.590254,1.49671 2.946646,1.169305 0,0 0.42095,-0.374178 0.935444,-0.561266 0,0 -0.327405,-0.701583 -1.07576,-0.701583 0,0 -0.608038,-0.795127 -1.216076,-0.701583 0,0 -0.888672,-0.420949 -0.748355,-1.122532 0,0 -0.42095,-0.327405 -0.888671,0"
       id="path5538"
       inkscape:connector-curvature="0"
       embroider_running_stitch_length_mm="1" />
    <path
       style="opacity:1;fill:none;fill-opacity:1;stroke:#191d1f;stroke-width:0.1;stroke-linecap:butt;stroke-linejoin:round;stroke-miterlimit:4;stroke-dasharray:0.1, 0.1;stroke-dashoffset:0;stroke-opacity:1"
       d="m 63.002109,76.997839 c 0,0 0.420949,-0.140316 0.467722,0.561266 0,0 0.280633,0.654811 0.935443,0.748356 0,0 0.841899,0.187088 1.028988,0.65481 0,0 0.982216,0.233861 1.07576,0.701583 0,0 1.07576,-0.327406 1.543482,-0.561266 0,0 0.187088,-0.140317 -0.140317,-0.888672 0,0 -3.975634,-0.935443 -4.864305,-4.349811 0,0 0.795126,-0.327405 1.122532,-1.590254 0,0 -0.374178,1.964431 -2.853103,2.011203 0,0 1.356393,-0.140316 1.777343,-0.420949 0,0 0.748354,3.320824 4.911077,4.349811"
       id="path5544"
       inkscape:connector-curvature="0"
       embroider_running_stitch_length_mm="1" />
    <path
       style="opacity:1;fill:none;fill-opacity:1;stroke:#191d1f;stroke-width:0.1;stroke-linecap:butt;stroke-linejoin:round;stroke-miterlimit:4;stroke-dasharray:0.1, 0.1;stroke-dashoffset:0;stroke-opacity:1"
       d="m 67.898697,78.184374 c 0,0 1.653646,0.165365 1.885156,-1.256771 0,0 -0.429947,-1.852082 0.06615,-2.84427 0,0 0.165362,-1.02526 0.992185,-2.38125 0,0 0.396875,-0.892968 0.330729,-1.852083 0,0 0.363802,-1.256771 -1.025261,-1.951302 0,0 -0.529166,-0.198438 -1.223698,-0.628386 0,0 -1.620572,-1.091406 -2.414322,-2.513541 0,0 -2.348178,-2.480469 -2.94349,-3.373438 0,0 -1.322917,-1.951302 -1.984375,-3.40651 0,0 -0.79375,-1.35599 -0.859896,-2.348177 0,0 -0.09922,-0.926042 -0.694531,-2.282031 0,0 -0.727604,-1.521355 -1.785938,-2.447396 0,0 -1.554427,-1.422136 -2.05052,-1.819011 0,0 -1.12448,-0.859896 -1.322917,-1.653646"
       id="path6140"
       inkscape:connector-curvature="0"
       embroider_running_stitch_length_mm="1" />
    <path
       style="opacity:1;fill:none;fill-opacity:1;stroke:#191d1f;stroke-width:0.1;stroke-linecap:butt;stroke-linejoin:round;stroke-miterlimit:4;stroke-dasharray:0.1, 0.1;stroke-dashoffset:0;stroke-opacity:1"
       d="m 54.967187,47.525781 c 0,0 -1.289844,-2.083594 -2.14974,-2.745052 0,0 0.89297,-1.686719 1.12448,-2.182812 0,0 0.429948,-1.190625 0.727604,-1.719792 0,0 0.79375,-1.686719 1.488282,-2.447396 0,0 0.992187,-0.892969 1.5875,-1.190625"
       id="path6142"
       inkscape:connector-curvature="0"
       embroider_running_stitch_length_mm="1" />
    <path
       style="opacity:1;fill:none;fill-opacity:1;stroke:#191d1f;stroke-width:0.1;stroke-linecap:butt;stroke-linejoin:round;stroke-miterlimit:4;stroke-dasharray:0.1, 0.1;stroke-dashoffset:0;stroke-opacity:1"
       d="m 57.348437,37.471614 c 0,0 -1.322917,0.959115 -1.686719,1.686719 0,0 -1.124478,1.819011 -1.289843,2.348177 0,0 -0.396875,1.223698 -0.694531,1.5875 0,0 -0.396875,1.256771 -0.892969,1.686719 0,0 -1.124479,-0.859896 -2.910417,-0.727604 0,0 2.083594,-0.297656 3.373438,1.157552 0,0 1.058333,1.223698 1.35599,1.785937"
       id="path6144"
       inkscape:connector-curvature="0"
       embroider_running_stitch_length_mm="1" />
    <path
       style="opacity:1;fill:none;fill-opacity:1;stroke:#191d1f;stroke-width:0.1;stroke-linecap:butt;stroke-linejoin:round;stroke-miterlimit:4;stroke-dasharray:0.1, 0.1;stroke-dashoffset:0;stroke-opacity:1"
       d="m 54.603385,46.930468 c 0,0 1.554427,-0.892969 1.852083,-1.355989 0,0 0.231511,-1.322917 0.760678,-1.752865 0,0 0.595312,-0.661458 0.56224,-1.719791 0,0 -0.33073,-1.35599 0.132291,-2.447396 0,0 0.330729,-1.124479 0.628386,-1.620573 0,0 -0.198438,-0.859896 -1.256771,-1.058333 0,0 -2.182813,0.892968 -2.844271,2.745052 0,0 -0.297656,0.562239 -1.256771,0.859896 0,0 -2.678906,1.355989 -3.307292,3.40651 0,0 -2.61276,0.09922 -7.110677,2.116667 0,0 -1.554427,0.992187 -2.711979,1.322916 0,0 -2.61276,1.455209 -3.770312,1.554428 0,0 0.330729,-2.017448 1.289843,-2.778126 0,0 1.289844,-1.157552 1.686719,-1.719791 0,0 0.859896,-1.389063 1.157552,-2.546615 0,0 0.330729,-1.653646 1.322917,-2.215885 0,0 0.727604,-0.79375 1.620573,-1.124479"
       id="path6146"
       inkscape:connector-curvature="0"
       embroider_running_stitch_length_mm="1" />
    <path
       embroider_trim_after="True"
       style="opacity:1;fill:none;fill-opacity:1;stroke:#191d1f;stroke-width:0.1;stroke-linecap:butt;stroke-linejoin:round;stroke-miterlimit:4;stroke-dasharray:0.1, 0.1;stroke-dashoffset:0;stroke-opacity:1"
       d="m 42.961718,38.794531 c 0,0 -0.992187,0.496094 -1.190625,0.926041 0,0 -0.959114,0.56224 -1.124478,1.389063 0,0 -0.297657,1.488282 -0.595313,1.785938 0,0 -0.429948,1.289844 -1.058333,1.81901 0,0 -0.892969,1.157552 -1.653646,1.686719 0,0 -1.02526,1.422135 -1.058333,2.579688 0,0 -1.223698,0.529166 -1.488282,0.628385 0,0 1.5875,-0.56224 2.315105,-0.826823 0,0 2.480468,-1.02526 3.009635,-1.422135 0,0 2.116667,-0.727605 2.579687,-1.223698 0,0 1.455209,-1.35599 0.79375,-2.778125 0,0 0.694532,-2.414323 0.859896,-3.009636 0,0 0.165365,-0.859896 -0.132291,-1.488281 0,0 -0.363802,-0.363802 -0.826823,-0.264583 0,0 -0.330729,-0.396875 -0.628386,-0.396875 0,0 -1.223698,0.992187 -1.488281,1.157552 0,0 -0.463021,0.297656 -0.760677,0.396875 0,0 -0.826823,0.661458 -0.992188,1.124479 0,0 -0.363802,0.760677 -0.628385,1.620573 0,0 -0.56224,1.256771 -1.686719,2.050521 0,0 -0.562239,0.46302 -0.826823,0.529166 0,0 -1.686718,1.719792 -1.653645,4.497917 0,0 -1.322917,0.826823 -1.785938,1.124479 0,0 -2.94349,2.14974 -3.571875,3.175 0,0 -2.315104,2.94349 -2.778125,4.101042 0,0 -2.711979,5.357812 -2.248958,11.34401 0,0 2.017448,8.532813 13.427604,11.773959 0,0 0.23151,-1.389063 0.363802,-1.785938"
       id="path6148"
       inkscape:connector-curvature="0"
       embroider_running_stitch_length_mm="1" />
    <path
       style="opacity:1;fill:none;fill-opacity:1;stroke:#191d1f;stroke-width:0.1;stroke-linecap:butt;stroke-linejoin:round;stroke-miterlimit:4;stroke-dasharray:0.1, 0.1;stroke-dashoffset:0;stroke-opacity:1"
       d="m 54.255714,67.736949 c 0,0 0.88867,0.841899 1.637025,1.590255 0,0 0.467723,1.824115 1.91766,2.291837"
       id="path6354"
       inkscape:connector-curvature="0"
       embroider_trim_after="True"
       embroider_running_stitch_length_mm="1"
       embroider_repeats="2" />
    <path
       embroider_repeats="2"
       embroider_running_stitch_length_mm="1"
       embroider_trim_after="True"
       inkscape:connector-curvature="0"
       id="path6460"
       d="m 55.05084,66.89505 c 0,0 1.075759,1.824115 2.432153,2.525697 0,0 0.327406,1.169306 1.122533,1.590256"
       style="opacity:1;fill:none;fill-opacity:1;stroke:#191d1f;stroke-width:0.1;stroke-linecap:butt;stroke-linejoin:round;stroke-miterlimit:4;stroke-dasharray:0.1, 0.1;stroke-dashoffset:0;stroke-opacity:1" />
    <path
       style="opacity:1;fill:none;fill-opacity:1;stroke:#191d1f;stroke-width:0.1;stroke-linecap:butt;stroke-linejoin:round;stroke-miterlimit:4;stroke-dasharray:0.1, 0.1;stroke-dashoffset:0;stroke-opacity:1"
       d="m 50.932291,56.852343 c 0,0 -1.686719,0.132292 -1.5875,-1.752865 0,0 -0.06614,-0.661457 -0.661458,-0.529166 l 0.03307,-0.46302 c 0,0 1.719792,-0.363802 2.414323,0.562239 0,0 0.396878,0.595313 0.429951,1.488281 0,0 0.595313,0.79375 0.496094,1.686719 l -0.231511,0.132292 c 0,0 -0.396875,-0.595313 -0.562239,-0.79375 0,0 -0.198438,-0.529167 -0.628386,-0.363802 0,0 -0.363802,-0.03307 -0.595312,-0.165365 0,0 -0.694531,2.348177 0.959115,4.034896 0,0 0.859895,1.852083 4.101041,3.141927 0,0 2.248959,-0.165364 2.513542,1.852083 l -1.289844,-0.79375 c 0,0 2.745052,1.389063 3.538802,3.671094"
       id="path6570"
       inkscape:connector-curvature="0"
       embroider_running_stitch_length_mm="1"
       embroider_trim_after="True" />
    <path
       embroider_running_stitch_length_mm="1"
       embroider_trim_after="True"
       inkscape:connector-curvature="0"
       id="path6682"
       d="m 49.873958,52.354426 c 0,0 0.198437,0.429948 0.264583,0.959115 l -0.496093,0.03307 c 0,0 1.256771,-0.264584 1.81901,0.396875 l -0.363802,-0.297653 c 0,0 0,-0.363802 -0.09922,-0.992187 0,0 0.06615,0.496094 0.09922,0.992187 0,0 0.694532,0.297657 0.826823,1.091407 0,0 0.198438,-0.79375 -0.09922,-1.554428 0,0 0.330731,0.694532 0.09922,1.455209 0,0 0.264584,0.330729 0.264584,1.157552 0,0 0.496093,-0.529167 0.46302,-1.719792"
       style="opacity:1;fill:none;fill-opacity:1;stroke:#191d1f;stroke-width:0.1;stroke-linecap:butt;stroke-linejoin:round;stroke-miterlimit:4;stroke-dasharray:0.1, 0.1;stroke-dashoffset:0;stroke-opacity:1" />
    <path
       embroider_trim_after="True"
       style="opacity:1;fill:none;fill-opacity:1;stroke:#191d1f;stroke-width:0.1;stroke-linecap:butt;stroke-linejoin:round;stroke-miterlimit:4;stroke-dasharray:0.1, 0.1;stroke-dashoffset:0;stroke-opacity:1"
       d="m 48.848697,47.988801 c 0,0 -0.363802,2.017448 0.992188,2.778125 0,0 3.671094,0.859897 4.597136,5.754689 0,0 0.363802,4.530989 4.233333,7.309114 0,0 2.910417,1.058333 3.704167,3.671094"
       id="path6794"
       inkscape:connector-curvature="0"
       embroider_running_stitch_length_mm="1"
       embroider_repeats="2" />
    <path
       embroider_trim_after="True"
       embroider_repeats="2"
       embroider_running_stitch_length_mm="1"
       inkscape:connector-curvature="0"
       id="path6908"
       d="m 64.359895,65.55052 c 0,0 0.56224,0.496094 0.892969,0.56224 0,0 0.06615,-0.694531 0.231511,-1.02526 0,0 -1.752864,-2.38125 -3.208073,-2.678906 0,0 -0.992187,-1.256771 -1.455208,-2.745052 0,0 -0.826823,-1.852084 -1.455208,-2.976563 0,0 -0.496094,-1.422135 -1.852084,-2.38125 0,0 -1.852083,-2.480469 -2.083594,-3.704167 0,0 -0.562239,-2.017448 -2.579687,-2.877343 l -0.496094,0.23151 c 0,0 -0.429948,1.653646 0.09922,2.844271 0,0 0.926041,1.223698 1.918228,1.35599 0,0 3.571875,4.795572 4.299479,6.217708 0,0 1.819011,2.877344 2.282032,4.001823 0,0 0.03307,0.628385 1.852083,2.050521 0,0 1.488281,1.25677 2.480469,1.719791"
       style="opacity:1;fill:none;fill-opacity:1;stroke:#191d1f;stroke-width:0.1;stroke-linecap:butt;stroke-linejoin:round;stroke-miterlimit:4;stroke-dasharray:0.1, 0.1;stroke-dashoffset:0;stroke-opacity:1" />
    <path
       style="opacity:1;fill:none;fill-opacity:1;stroke:#191d1f;stroke-width:0.1;stroke-linecap:butt;stroke-linejoin:round;stroke-miterlimit:4;stroke-dasharray:0.1, 0.1;stroke-dashoffset:0;stroke-opacity:1"
       d="m 63.698437,67.865624 c 0,0 2.910416,-1.81901 3.737239,0.992188 0,0 0.496095,1.289844 0.198439,2.513542 0,0 -1.389063,0.892969 -1.058334,2.976563"
       id="path7024"
       inkscape:connector-curvature="0"
       embroider_running_stitch_length_mm="1"
       embroider_repeats="2"
       embroider_trim_after="True" />
    <path
       embroider_center_walk_underlay_stitch_length_mm="1"
       embroider_center_walk_underlay="True"
       embroider_trim_after="True"
       embroider_zigzag_spacing_mm="0.33"
       embroider_satin_column="True"
       inkscape:connector-curvature="0"
       d="m 67.336457,70.08151 -2.017447,1.719791 m 1.719791,-2.480469 -2.248958,2.050521 m 1.653646,-1.984375 -2.513542,0.959115 m 2.14974,-1.058333 -2.480469,-0.496094 m 2.778125,0.165364 -1.389063,-1.289843 m 1.289844,0.595312 c 0,0 -0.992187,0.760677 -0.396875,1.554427 0,0 0.628387,-0.396874 0.89297,0.363803 0,0 0.23151,0.330729 -0.330729,1.091406 m -0.793751,-3.307292 c 0,0 -1.885156,0.463021 -1.35599,2.315104 0,0 0.132293,1.058334 1.785939,1.190626"
       style="opacity:1;fill:none;fill-opacity:1;stroke:#191d1f;stroke-width:0.1;stroke-linecap:butt;stroke-linejoin:round;stroke-miterlimit:4;stroke-dasharray:none;stroke-dashoffset:0;stroke-opacity:1"
       id="path7154" />
  </g>
</svg>
