<?xml version="1.0" encoding="UTF-8" standalone="no"?>
<!-- Created with Inkscape (http://www.inkscape.org/) -->

<svg
   xmlns:inkstitch="http://inkstitch.org/namespace"
   xmlns:dc="http://purl.org/dc/elements/1.1/"
   xmlns:cc="http://creativecommons.org/ns#"
   xmlns:rdf="http://www.w3.org/1999/02/22-rdf-syntax-ns#"
   xmlns:svg="http://www.w3.org/2000/svg"
   xmlns="http://www.w3.org/2000/svg"
   xmlns:sodipodi="http://sodipodi.sourceforge.net/DTD/sodipodi-0.dtd"
   xmlns:inkscape="http://www.inkscape.org/namespaces/inkscape"
   width="100mm"
   height="100mm"
   viewBox="0 0 100 100"
   version="1.1"
   id="svg8"
   inkscape:version="0.92.3 (2405546, 2018-03-11)"
   sodipodi:docname="Monogram Frame Example.svg"
   inkscape:export-filename="/media/Files/Projects/InkStitch/Embroidery Examples/Monogram Frame Example/Monogram Frame.png"
   inkscape:export-xdpi="300"
   inkscape:export-ydpi="300">
  <sodipodi:namedview
     id="base"
     pagecolor="#8c8c8c"
     bordercolor="#666666"
     borderopacity="1.0"
     inkscape:pageopacity="0"
     inkscape:pageshadow="2"
     inkscape:zoom="1.4"
     inkscape:cx="42.435391"
     inkscape:cy="77.594112"
     inkscape:document-units="mm"
     inkscape:current-layer="layer5"
     showgrid="false"
     inkscape:snap-global="false"
     showguides="true"
     inkscape:guide-bbox="true"
     inkscape:window-width="2560"
     inkscape:window-height="1412"
     inkscape:window-x="3840"
     inkscape:window-y="0"
     inkscape:window-maximized="1" />
  <defs
     id="defs2">
    <inkscape:path-effect
       effect="powerstroke"
       id="path-effect966"
       is_visible="true"
       offset_points="0,0.60026582"
       sort_points="true"
       interpolator_type="CubicBezierJohan"
       interpolator_beta="0.2"
       start_linecap_type="zerowidth"
       linejoin_type="extrp_arc"
       miter_limit="4"
       end_linecap_type="zerowidth" />
    <inkscape:path-effect
       effect="spiro"
       id="path-effect964"
       is_visible="true" />
    <inkscape:path-effect
       end_linecap_type="zerowidth"
       miter_limit="4"
       linejoin_type="extrp_arc"
       start_linecap_type="zerowidth"
       interpolator_beta="0.2"
       interpolator_type="CubicBezierJohan"
       sort_points="true"
       offset_points="0,0.50799995"
       is_visible="true"
       id="path-effect941"
       effect="powerstroke" />
    <inkscape:path-effect
       is_visible="true"
       id="path-effect939"
       effect="spiro" />
    <inkscape:path-effect
       end_linecap_type="zerowidth"
       miter_limit="4"
       linejoin_type="extrp_arc"
       start_linecap_type="zerowidth"
       interpolator_beta="0.2"
       interpolator_type="CubicBezierJohan"
       sort_points="true"
       offset_points="0,0.50799995"
       is_visible="true"
       id="path-effect935"
       effect="powerstroke" />
    <inkscape:path-effect
       is_visible="true"
       id="path-effect933"
       effect="spiro" />
    <inkscape:path-effect
       effect="powerstroke"
       id="path-effect929"
       is_visible="true"
       offset_points="0,0.48276678"
       sort_points="true"
       interpolator_type="CubicBezierJohan"
       interpolator_beta="0.2"
       start_linecap_type="zerowidth"
       linejoin_type="extrp_arc"
       miter_limit="4"
       end_linecap_type="zerowidth" />
    <inkscape:path-effect
       effect="spiro"
       id="path-effect927"
       is_visible="true" />
    <inkscape:path-effect
       effect="powerstroke"
       id="path-effect915"
       is_visible="true"
       offset_points="0.04647546,0.36953698"
       sort_points="true"
       interpolator_type="CubicBezierJohan"
       interpolator_beta="0.2"
       start_linecap_type="zerowidth"
       linejoin_type="extrp_arc"
       miter_limit="4"
       end_linecap_type="zerowidth" />
    <inkscape:path-effect
       effect="spiro"
       id="path-effect913"
       is_visible="true" />
    <inkscape:path-effect
       end_linecap_type="zerowidth"
       miter_limit="4"
       linejoin_type="extrp_arc"
       start_linecap_type="zerowidth"
       interpolator_beta="0.2"
       interpolator_type="CubicBezierJohan"
       sort_points="true"
       offset_points="0,0.50799995"
       is_visible="true"
       id="path-effect890"
       effect="powerstroke" />
    <inkscape:path-effect
       is_visible="true"
       id="path-effect888"
       effect="spiro" />
    <inkscape:path-effect
       is_visible="true"
       id="path-effect888-3"
       effect="spiro" />
    <inkscape:path-effect
       end_linecap_type="zerowidth"
       miter_limit="4"
       linejoin_type="extrp_arc"
       start_linecap_type="zerowidth"
       interpolator_beta="0.2"
       interpolator_type="CubicBezierJohan"
       sort_points="true"
       offset_points="0,1.9199998"
       is_visible="true"
       id="path-effect890-6"
       effect="powerstroke" />
    <inkscape:path-effect
       is_visible="true"
       id="path-effect888-5"
       effect="spiro" />
    <inkscape:path-effect
       end_linecap_type="zerowidth"
       miter_limit="4"
       linejoin_type="extrp_arc"
       start_linecap_type="zerowidth"
       interpolator_beta="0.2"
       interpolator_type="CubicBezierJohan"
       sort_points="true"
       offset_points="0,1.9199998"
       is_visible="true"
       id="path-effect890-3"
       effect="powerstroke" />
    <inkscape:path-effect
       is_visible="true"
       id="path-effect939-6"
       effect="spiro" />
    <inkscape:path-effect
       end_linecap_type="zerowidth"
       miter_limit="4"
       linejoin_type="extrp_arc"
       start_linecap_type="zerowidth"
       interpolator_beta="0.2"
       interpolator_type="CubicBezierJohan"
       sort_points="true"
       offset_points="0,1.9199998"
       is_visible="true"
       id="path-effect941-2"
       effect="powerstroke" />
  </defs>
  <metadata
     id="metadata5">
    <rdf:RDF>
      <cc:Work
         rdf:about="">
        <dc:format>image/svg+xml</dc:format>
        <dc:type
           rdf:resource="http://purl.org/dc/dcmitype/StillImage" />
        <dc:title></dc:title>
        <dc:creator>
          <cc:Agent>
            <dc:title>Evan West at Wild West Designs</dc:title>
          </cc:Agent>
        </dc:creator>
        <dc:rights>
          <cc:Agent>
            <dc:title>License to Use</dc:title>
          </cc:Agent>
        </dc:rights>
        <dc:publisher>
          <cc:Agent>
            <dc:title>Wild West Designs</dc:title>
          </cc:Agent>
        </dc:publisher>
        <dc:source>www.wildwestdesigns.biz</dc:source>
      </cc:Work>
    </rdf:RDF>
    <inkstitch:thread-palette />
    <inkstitch:color-191D1F>&quot;Black Stallion&quot;</inkstitch:color-191D1F>
    <inkstitch:client-overview-transform>&quot;matrix(1.53415, 0, 0, 1.53415, -188.975, -188.975)&quot;</inkstitch:client-overview-transform>
  </metadata>
  <g
     inkscape:groupmode="layer"
     id="layer5"
     inkscape:label="Instruction">
    <text
       xml:space="preserve"
       style="font-style:normal;font-variant:normal;font-weight:normal;font-stretch:normal;font-size:4.93888855px;line-height:1.25;font-family:'DejaVu Sans';-inkscape-font-specification:'DejaVu Sans';letter-spacing:0px;word-spacing:0px;fill:#000000;fill-opacity:1;stroke:none;stroke-width:0.26458332px;stroke-linecap:butt;stroke-linejoin:miter;stroke-opacity:1"
       x="36.474705"
       y="106.80357"
       id="text2177"><tspan
         sodipodi:role="line"
         id="tspan2175"
         x="36.474705"
         y="106.80357"
         style="stroke-width:0.26458332px">Instructions</tspan></text>
    <text
       xml:space="preserve"
       style="font-style:normal;font-variant:normal;font-weight:normal;font-stretch:normal;font-size:4.93888855px;line-height:1.25;font-family:'DejaVu Sans';-inkscape-font-specification:'DejaVu Sans';letter-spacing:0px;word-spacing:0px;fill:#000000;fill-opacity:1;stroke:none;stroke-width:0.26458332px;stroke-linecap:butt;stroke-linejoin:miter;stroke-opacity:1"
       x="0.1889881"
       y="117.19791"
       id="text2181"><tspan
         sodipodi:role="line"
         id="tspan2179"
         x="0.1889881"
         y="117.19791"
         style="stroke-width:0.26458332px">1.  Frame intended to have monogram</tspan><tspan
         sodipodi:role="line"
         x="0.1889881"
         y="123.37152"
         style="stroke-width:0.26458332px"
         id="tspan2183">letters to be sandwiched between both</tspan><tspan
         sodipodi:role="line"
         x="0.1889881"
         y="129.54514"
         style="stroke-width:0.26458332px"
         id="tspan2185">frames.  The monogram can be longer </tspan><tspan
         sodipodi:role="line"
         x="0.1889881"
         y="135.71873"
         style="stroke-width:0.26458332px"
         id="tspan2187">then the frames if desired.</tspan><tspan
         sodipodi:role="line"
         x="0.1889881"
         y="141.89235"
         style="stroke-width:0.26458332px"
         id="tspan2189" /><tspan
         sodipodi:role="line"
         x="0.1889881"
         y="148.06596"
         style="stroke-width:0.26458332px"
         id="tspan2191">2.  Can use both frames, or delete either</tspan><tspan
         sodipodi:role="line"
         x="0.1889881"
         y="154.23956"
         style="stroke-width:0.26458332px"
         id="tspan2193">one and just use it as a top or bottom </tspan><tspan
         sodipodi:role="line"
         x="0.1889881"
         y="160.41318"
         style="stroke-width:0.26458332px"
         id="tspan2195">frame</tspan></text>
  </g>
  <g
     inkscape:label="Monogram Frame Top"
     id="layer2"
     inkscape:groupmode="layer">
    <path
       embroider_zigzag_underlay="False"
       embroider_contour_underlay="False"
       embroider_center_walk_underlay_stitch_length_mm="1.5"
       embroider_center_walk_underlay="True"
       embroider_pull_compensation_mm="None"
       embroider_trim_after="False"
       embroider_zigzag_spacing_mm="0.33"
       embroider_stop_after="False"
       embroider_satin_column="True"
       inkscape:connector-curvature="0"
       d="m 42.04985,19.491072 3.212799,3.401786 m -6.803573,-1.842634 c 0.236236,0.141741 3.732517,4.063244 3.921503,4.204985 m -6.945312,-2.409599 2.173364,3.968752 m -6.047621,-3.921504 0.141743,5.055431 m -4.299479,-5.811384 c 0,0 -0.377976,5.291666 -0.377976,5.102679 m -4.393974,-7.228795 c 0,0 -2.22061,5.811384 -2.078869,5.480655 M 20.31622,17.45945 c 0,0 -4.346726,3.827009 -4.204985,3.63802 m 3.921503,-6.472842 h -4.535714 m 6.425595,-1.842634 -2.315104,-3.1655502 m 4.252232,3.1183042 0.236235,-4.4412208 m 1.511905,4.4412208 1.606398,-2.787575 m 0.04725,2.551339 c 0,0 -2.126115,-2.551339 -5.480653,-1.133928 0,0 -4.015997,0.850446 -3.49628,6.520089 0,0 2.078869,6.709078 13.559896,7.181548 0,0 4.157738,0.803199 12.614955,-4.913691 M 27.63951,12.309524 c 0,0 -3.35454,-3.4962795 -7.465031,-0.897693 0,0 -4.724702,2.976562 -1.937128,8.693452 0,0 1.937128,4.866444 13.323661,6.425596 0,0 3.49628,0.519717 9.402158,-2.55134 0,0 3.307291,-2.22061 4.252232,-3.118303"
       style="fill:none;stroke:#191d1f;stroke-width:0.07;stroke-linejoin:miter;stroke-miterlimit:4;stroke-dasharray:none;stroke-dashoffset:0"
       id="path1034" />
    <path
       style="fill:none;stroke:#191d1f;stroke-width:0.07;stroke-linejoin:miter;stroke-miterlimit:4;stroke-dasharray:0.07, 0.07;stroke-dashoffset:0"
       d="m 44.648437,20.625 1.086681,0.708706 2.267857,2.126116 1.653646,1.700892 1.559153,-1.275669 2.409597,-2.267857 1.370163,-1.322917 2.4096,1.74814 2.645834,1.606399 3.96875,1.370163 3.63802,0.614212 3.401785,-0.377976 3.354539,-0.897694 3.590774,-1.511905 2.787573,-2.362351 0.944941,-1.370164 0.425222,-1.559151 0.188989,-1.795387 -0.850447,-2.173363 -1.322917,-1.74814 -1.55915,-0.850446 -1.181176,-0.330729 -1.370164,-0.141742 -1.511906,0.236236 -0.472469,0.236235"
       id="path1089"
       inkscape:connector-curvature="0"
       embroider_manual_stitch="False"
       embroider_zigzag_spacing_mm="0.4"
       embroider_stop_after="False"
       embroider_repeats="1"
       embroider_running_stitch_length_mm="1.6"
       embroider_trim_after="False" />
    <path
       embroider_zigzag_underlay="False"
       embroider_contour_underlay="False"
       embroider_center_walk_underlay_stitch_length_mm="1.5"
       embroider_center_walk_underlay="False"
       embroider_pull_compensation_mm="None"
       embroider_trim_after="False"
       embroider_zigzag_spacing_mm="0.33"
       embroider_stop_after="False"
       embroider_satin_column="True"
       inkscape:connector-curvature="0"
       d="m 56.271205,19.372954 -1.842633,1.866258 m 3.212796,-1.299294 -2.102493,2.62221 m 4.346728,-1.630022 -2.267857,2.858445 m 5.19717,-1.181176 -2.244233,3.307292 m 5.149927,-2.740327 -1.346541,3.827008 m 4.913691,-3.519903 c 0.02363,0.141741 -0.425223,4.134115 -0.425223,4.134115 m 3.756139,-4.701079 0.259858,3.49628 m 3.260045,-5.055432 c 0.07087,0.09449 0.732329,3.921503 0.732329,4.039621 m 1.937126,-5.787761 c 0.118118,0.04725 2.527718,2.551339 2.527718,2.551339 m -1.015812,-5.527901 3.141927,2.362351 m -3.000187,-4.275856 3.354541,0.755953 m -4.110493,-2.22061 3.732514,-0.590588 m -5.598771,-0.637835 c 0,0 3.283667,-1.771763 3.189174,-1.724516 m -4.724702,1.252046 c 0,0 1.157552,-2.3387278 1.086681,-2.2442337 M 74.626673,11.74256 74.39044,9.7109379 M 73.776228,11.34096 c 0,0 2.763951,-1.393787 5.504278,0.47247 0,0 2.126116,0.944941 2.338728,4.228609 0,0 0.377976,2.976563 -3.118304,5.622396 0,0 -5.71689,3.661644 -10.937686,3.047433 0,0 -6.803571,-0.141741 -11.292038,-4.724702 l -0.944941,-0.04725 m 18.30822,-9.071426 c 0,0 4.252233,-2.1497396 7.654018,1.630022 0,0 3.236423,3.614398 -0.141739,8.3391 0,0 -1.67727,2.645834 -6.685454,4.346726 0,0 -3.992374,1.252046 -7.016183,1.204799 0,0 -2.811198,-0.02362 -4.795573,-0.992187 0,0 -5.598773,-1.582775 -8.008371,-4.819196"
       style="fill:none;stroke:#191d1f;stroke-width:0.07;stroke-linejoin:miter;stroke-miterlimit:4;stroke-dasharray:none;stroke-dashoffset:0"
       id="path1192" />
    <path
       style="fill:none;stroke:#191d1f;stroke-width:0.07;stroke-linejoin:miter;stroke-miterlimit:4;stroke-dasharray:0.07, 0.07;stroke-dashoffset:0"
       d="m 55.042781,20.199777 -1.653646,-1.74814 -2.740326,-2.504092 h 1.889881 l 1.724517,0.07087 1.346539,-0.283483 1.393788,-0.54334 1.228423,-0.944941 1.110303,-1.34654 L 59.909225,11.41183 60.169083,9.805432 59.909225,8.4116449 59.507625,7.3249633 58.846166,6.5217637 58.019343,5.883929 56.814545,5.5059529 55.893228,5.5295775 54.995534,5.7894362 54.286829,6.238283 53.81436,6.7343768"
       id="path1251"
       inkscape:connector-curvature="0"
       embroider_manual_stitch="False"
       embroider_zigzag_spacing_mm="0.4"
       embroider_running_stitch_length_mm="1.6"
       embroider_trim_after="False"
       embroider_stop_after="False"
       embroider_repeats="1" />
    <path
       embroider_zigzag_underlay="False"
       embroider_contour_underlay="False"
       embroider_center_walk_underlay_stitch_length_mm="1.5"
       embroider_center_walk_underlay="False"
       embroider_pull_compensation_mm="None"
       embroider_trim_after="False"
       embroider_zigzag_spacing_mm="0.33"
       embroider_stop_after="False"
       embroider_satin_column="True"
       inkscape:connector-curvature="0"
       d="m 50.380304,14.306708 -0.0167,2.255087 m 0.968848,-2.238382 0.400905,2.488947 m 1.085784,-2.004522 0.183747,2.104748 m 1.703843,-2.221678 0.133636,2.004522 m 1.88759,-2.923261 c 0.06682,0.03341 0.868625,1.904295 0.868625,1.904295 m 0.684879,-3.925521 c 0.100227,0.08352 1.937705,1.80407 1.937705,1.80407 M 58.983043,9.7130131 c 0.08352,0 2.388722,0.8018089 2.388722,0.8018089 M 58.54873,7.9590568 c 0.08352,-0.050113 2.388721,-0.1670433 2.388721,-0.1670433 M 57.763626,6.5558918 c 0.06682,-0.016703 1.653731,-0.7182869 1.653731,-0.7182869 m -3.090304,0.233861 c 0.01669,-0.066817 1.018965,-1.3363477 1.018965,-1.3363477 M 55.207862,6.3387353 54.957297,5.0023879 m -0.68488,1.9209996 -0.751694,-0.8185129 m 0.217157,0.9187389 c 0,0 1.035669,-1.4699824 2.873147,-1.3363475 0,0 1.553504,0.1503391 2.438834,1.4699824 0,0 0.835218,1.2194172 0.734992,2.4889475 0,0 0.183747,1.8541821 -1.302939,3.6916601 0,0 -1.436574,1.770661 -3.908817,2.154861 0,0 -2.071339,0.200452 -4.042452,-0.701583 l -0.400904,-0.0167 m 3.441094,-7.9178639 c 0,0 0.968851,-1.6203215 3.173825,-1.5033911 0,0 2.572471,0.1169305 3.49121,2.9900779 0,0 1.069078,3.3241651 -1.620322,6.0135641 0,0 -1.737252,1.820774 -4.059156,2.004522 0,0 -2.572468,0.217156 -4.343129,-0.501131"
       style="fill:none;stroke:#191d1f;stroke-width:0.07;stroke-linejoin:miter;stroke-miterlimit:4;stroke-dasharray:none;stroke-dashoffset:0"
       id="path1337" />
    <path
       style="fill:none;stroke:#191d1f;stroke-width:0.07;stroke-linejoin:miter;stroke-miterlimit:4;stroke-dasharray:0.07, 0.07;stroke-dashoffset:0"
       d="m 50.199961,15.356957 -1.204798,0.637835 -1.819011,0.4016 h -2.102493 l -1.96075,-0.47247 -1.441035,-0.779576 -1.015812,-0.897694 -0.850445,-1.724516 -0.496093,-1.582776 0.07087,-1.7008922 0.54334,-1.2047993 0.590587,-0.921317 0.708707,-0.5315289 0.696894,-0.3779762 0.956752,-0.2126116 1.004,0.059059 0.791387,0.2952939 0.519717,0.3661645 0.12993,0.141741"
       id="path1400"
       inkscape:connector-curvature="0"
       embroider_manual_stitch="False"
       embroider_zigzag_spacing_mm="0.4"
       embroider_stop_after="False"
       embroider_repeats="1"
       embroider_running_stitch_length_mm="1.6"
       embroider_trim_after="False" />
    <path
       embroider_zigzag_underlay="False"
       embroider_contour_underlay="False"
       embroider_center_walk_underlay_stitch_length_mm="1.5"
       embroider_center_walk_underlay="False"
       embroider_pull_compensation_mm="None"
       embroider_trim_after="False"
       embroider_zigzag_spacing_mm="0.33"
       embroider_stop_after="False"
       embroider_satin_column="True"
       inkscape:connector-curvature="0"
       d="m 49.680246,14.305711 0.07087,2.067057 m -1.381976,-1.700893 0.685083,2.279669 M 46.656437,14.83724 c 0.02363,0.04725 0.566962,2.634021 0.566962,2.634021 m -2.988374,-2.574962 c 0,0.04725 0.0118,2.704892 0.0118,2.704892 m -1.228409,-3.519903 c -0.01183,0.08268 -0.496094,3.082868 -0.496094,3.082868 m -0.614212,-3.933315 -1.063058,2.846633 m 0.118118,-4.264044 -1.559153,2.185175 m 1.015812,-3.106492 -2.078871,0.826823 m 2.267858,-2.1497393 c -0.04725,-0.011811 -2.539527,0.295294 -2.539527,0.295294 m 3.023809,-1.7245163 c -0.04725,0 -1.972564,-0.9331288 -1.972564,-0.9331288 m 2.988377,-0.059059 -0.862259,-1.6536458 m 2.49228,1.5237164 0.0118,-1.8898809 m 0.956763,2.0079985 0.649647,-1.358352 m 0.188989,1.063058 c 0,0 -1.641835,-1.8071986 -4.02781,-0.7795757 0,0 -1.88988,0.6850818 -2.504091,3.1301153 0,0 -0.755952,2.6812686 1.27567,5.2680436 0,0 1.925316,2.350539 4.71289,2.586774 0,0 2.232422,0.259859 3.756139,-0.47247 0,0 0.342541,-0.177176 0.649646,-0.437035 l 0.531529,-0.165364 M 45.357142,7.088728 c 0,0 -1.700893,-1.6654574 -3.732514,-0.4488466 0,0 -1.736328,0.921317 -1.81901,3.4372206 0,0 -0.12993,1.67727 1.027622,3.283669 0,0 1.523717,1.972563 3.767951,2.385974 0,0 2.315104,0.566965 4.84282,-0.980375 l 0.496093,0.01181"
       style="fill:none;stroke:#191d1f;stroke-width:0.07;stroke-linejoin:miter;stroke-miterlimit:4;stroke-dasharray:none;stroke-dashoffset:0"
       id="path1494" />
    <path
       style="fill:none;stroke:#191d1f;stroke-width:0.07;stroke-linejoin:miter;stroke-miterlimit:4;stroke-dasharray:0.07, 0.07;stroke-dashoffset:0"
       d="m 50.034597,15.380581 1.228423,1.228422 2.008,1.74814 1.55915,1.322917 0.0945,0.850446 -1.27567,1.322917 -1.960753,1.937128 -1.748139,1.34654"
       id="path1563"
       inkscape:connector-curvature="0"
       embroider_manual_stitch="False"
       embroider_zigzag_spacing_mm="0.4"
       embroider_stop_after="False"
       embroider_repeats="1"
       embroider_running_stitch_length_mm="1.6"
       embroider_trim_after="False" />
    <path
       embroider_zigzag_underlay="False"
       embroider_contour_underlay="False"
       embroider_center_walk_underlay_stitch_length_mm="1.5"
       embroider_center_walk_underlay="False"
       embroider_pull_compensation_mm="None"
       embroider_trim_after="False"
       embroider_zigzag_spacing_mm="0.33"
       embroider_stop_after="False"
       embroider_satin_column="True"
       sodipodi:nodetypes="cccccccccccccccccccccccccccccccccccccccc"
       inkscape:connector-curvature="0"
       d="m 49.24321,22.762928 -0.909506,2.586775 M 48.203775,21.69987 c -0.05906,0.03543 -1.807199,2.303292 -1.807199,2.303292 m 1.216613,-3.200986 -2.917506,1.441035 m 1.46466,-1.94894 -3.413599,0.03544 m 4.299479,-0.744145 c -0.04725,-0.01181 -2.634022,-1.228423 -2.634022,-1.228423 m 3.886068,0.09449 -1.771764,-1.937128 m 2.681269,0.815011 -0.555151,-2.787574 m 1.370163,2.303293 -0.03544,-3.260045 m 0.968566,4.03962 c 0.0118,-0.04725 0.68508,-2.763951 0.68508,-2.763951 m 0.354354,4.015997 2.137926,-2.149739 m -1.181174,2.929315 2.291479,-1.488281 m -2.30329,2.185175 c 0.05906,0 4.086865,-0.661458 4.086865,-0.661458 m -4.98456,1.34654 c 0.07087,0.05906 3.378163,1.523716 3.378163,1.523716 M 50.873229,22.39676 c 0.05906,0.04725 1.736328,2.326915 1.736328,2.326915 m -2.397786,-1.228422 0.330729,2.704892 m -0.519718,-0.165365 6.272043,-6.035807 -6.31929,-5.764137 -6.354725,6.106678 6.295665,5.78776 m 0.02362,-1.901692 4.275854,-4.181362 -4.228608,-3.909691 -4.358537,4.252232 4.228608,3.862444"
       style="fill:none;stroke:#191d1f;stroke-width:0.07;stroke-linejoin:miter;stroke-miterlimit:4;stroke-dasharray:none;stroke-dashoffset:0"
       id="path1665" />
    <path
       style="fill:none;stroke:#191d1f;stroke-width:0.07;stroke-linejoin:miter;stroke-miterlimit:4;stroke-dasharray:0.07, 0.07;stroke-dashoffset:0"
       d="m 49.892857,24.227586 0.08268,1.866257 -0.0118,0.850448"
       id="path1736"
       inkscape:connector-curvature="0"
       embroider_manual_stitch="True" />
    <path
       embroider_trim_after="False"
       embroider_running_stitch_length_mm="1.6"
       embroider_repeats="1"
       embroider_stop_after="False"
       embroider_zigzag_spacing_mm="0.4"
       embroider_manual_stitch="False"
       inkscape:connector-curvature="0"
       id="path1808"
       d="M 49.979402,27.035418 31.136899,27.002009 14.566189,26.801558"
       style="fill:none;stroke:#191d1f;stroke-width:0.07;stroke-linejoin:miter;stroke-miterlimit:4;stroke-dasharray:0.07, 0.07;stroke-dashoffset:0" />
    <path
       id="path1882-7"
       style="fill:none;stroke:#191d1f;stroke-width:0.07;stroke-linejoin:miter;stroke-miterlimit:4;stroke-dasharray:none;stroke-dashoffset:0"
       d="m 14.322543,27.605144 71.427782,0.03341 m -71.451405,-1.73903 71.42778,0.03341"
       inkscape:connector-curvature="0"
       embroider_satin_column="True"
       embroider_stop_after="False"
       embroider_zigzag_spacing_mm="0.33"
       embroider_trim_after="True"
       embroider_pull_compensation_mm="None"
       embroider_center_walk_underlay="True"
       embroider_center_walk_underlay_stitch_length_mm="1.5"
       embroider_contour_underlay="False"
       embroider_zigzag_underlay="False" />
  </g>
  <g
     inkscape:label="Monogram Frame Bottom"
     id="layer4"
     inkscape:groupmode="layer">
    <path
       embroider_zigzag_underlay="False"
       embroider_contour_underlay="False"
       embroider_center_walk_underlay_stitch_length_mm="1.5"
       embroider_center_walk_underlay="True"
       embroider_pull_compensation_mm="None"
       embroider_trim_after="False"
       embroider_zigzag_spacing_mm="0.33"
       embroider_stop_after="False"
       embroider_satin_column="True"
       inkscape:connector-curvature="0"
       d="m 42.049851,83.55084 3.212799,-3.401787 m -6.803573,1.842635 c 0.236236,-0.141741 3.732517,-4.063246 3.921503,-4.204987 m -6.945312,2.4096 2.173364,-3.968754 m -6.047622,3.921506 0.141744,-5.055433 m -4.29948,5.811387 c 0,0 -0.377975,-5.291669 -0.377975,-5.102682 m -4.393975,7.228798 c 0,0 -2.22061,-5.811386 -2.078869,-5.480657 m -0.236235,8.031996 c 0,0 -4.346726,-3.827009 -4.204985,-3.63802 m 3.921503,6.472842 h -4.535714 m 6.425595,1.842634 -2.315104,3.16555 m 4.252232,-3.118304 0.236235,4.441221 m 1.511906,-4.441221 1.606397,2.787575 m 0.04725,-2.551339 c 0,0 -2.126115,2.551339 -5.480654,1.133928 0,0 -4.015997,-0.850446 -3.49628,-6.520089 0,0 2.078869,-6.709079 13.559897,-7.18155 0,0 4.157738,-0.803199 12.614955,4.913693 m -16.819942,7.843006 c 0,0 -3.354541,3.49628 -7.465032,0.897693 0,0 -4.724702,-2.976562 -1.937128,-8.693452 0,0 1.937128,-4.866446 13.323662,-6.425599 0,0 3.49628,-0.519717 9.402157,2.551342 0,0 3.307292,2.220611 4.252233,3.118304"
       style="fill:none;stroke:#191d1f;stroke-width:0.07;stroke-linejoin:miter;stroke-miterlimit:4;stroke-dasharray:none;stroke-dashoffset:0"
       id="path1034-2" />
    <path
       style="fill:none;stroke:#191d1f;stroke-width:0.07;stroke-linejoin:miter;stroke-miterlimit:4;stroke-dasharray:0.07, 0.07;stroke-dashoffset:0"
       d="m 44.648438,82.416912 1.086681,-0.708706 2.267857,-2.126117 1.653646,-1.700893 1.559153,1.27567 2.409597,2.267858 1.370163,1.322917 2.409601,-1.74814 2.645833,-1.6064 3.96875,-1.370164 3.638021,-0.614212 3.401785,0.377976 3.354538,0.897695 3.590774,1.511905 2.787573,2.362352 0.944941,1.370164 0.425223,1.559151 0.188989,1.795387 -0.850448,2.173363 -1.322916,1.74814 -1.55915,0.850446 -1.181177,0.330729 -1.370163,0.141742 -1.511906,-0.236236 -0.472469,-0.236235"
       id="path1089-0"
       inkscape:connector-curvature="0"
       embroider_manual_stitch="False"
       embroider_zigzag_spacing_mm="0.4"
       embroider_stop_after="False"
       embroider_repeats="1"
       embroider_running_stitch_length_mm="1.6"
       embroider_trim_after="False" />
    <path
       embroider_zigzag_underlay="False"
       embroider_contour_underlay="False"
       embroider_center_walk_underlay_stitch_length_mm="1.5"
       embroider_center_walk_underlay="False"
       embroider_pull_compensation_mm="None"
       embroider_trim_after="False"
       embroider_zigzag_spacing_mm="0.33"
       embroider_stop_after="False"
       embroider_satin_column="True"
       inkscape:connector-curvature="0"
       d="M 56.271205,83.668958 54.428573,81.8027 m 3.212796,1.299294 -2.102493,-2.62221 m 4.346728,1.630022 -2.267857,-2.858446 m 5.19717,1.181177 -2.244232,-3.307294 m 5.149926,2.740328 -1.346541,-3.82701 m 4.913691,3.519905 c 0.02363,-0.141741 -0.425223,-4.134117 -0.425223,-4.134117 m 3.756139,4.701081 0.259858,-3.496282 m 3.260045,5.055435 c 0.07087,-0.09449 0.73233,-3.921505 0.73233,-4.039623 m 1.937125,5.787763 c 0.118118,-0.04725 2.527718,-2.551339 2.527718,-2.551339 m -1.015812,5.527901 3.141927,-2.362351 m -3.000187,4.275856 3.354541,-0.755953 m -4.110492,2.22061 3.732514,0.590588 m -5.598771,0.637835 c 0,0 3.283667,1.771763 3.189173,1.724516 M 76.303945,91.48834 c 0,0 1.157552,2.338728 1.08668,2.244234 m -2.763951,-2.433222 -0.236233,2.031622 m -0.614212,-1.630022 c 0,0 2.763952,1.393787 5.504278,-0.47247 0,0 2.126115,-0.944941 2.338729,-4.228609 0,0 0.377976,-2.976563 -3.118305,-5.622396 0,0 -5.716889,-3.661646 -10.937687,-3.047434 0,0 -6.80357,0.141741 -11.292036,4.724703 l -0.944943,0.04725 m 18.308222,9.071426 c 0,0 4.252232,2.14974 7.654017,-1.630022 0,0 3.236423,-3.614398 -0.14174,-8.3391 0,0 -1.677268,-2.645835 -6.685452,-4.346728 0,0 -3.992374,-1.252047 -7.016184,-1.2048 0,0 -2.811197,0.02362 -4.795572,0.992188 0,0 -5.598774,1.582776 -8.008372,4.819198"
       style="fill:none;stroke:#191d1f;stroke-width:0.07;stroke-linejoin:miter;stroke-miterlimit:4;stroke-dasharray:none;stroke-dashoffset:0"
       id="path1192-2" />
    <path
       style="fill:none;stroke:#191d1f;stroke-width:0.07;stroke-linejoin:miter;stroke-miterlimit:4;stroke-dasharray:0.07, 0.07;stroke-dashoffset:0"
       d="m 55.042782,82.842135 -1.653646,1.74814 -2.740326,2.504092 h 1.889881 l 1.724517,-0.07087 1.346539,0.283483 1.393788,0.54334 1.228423,0.944941 1.110303,1.34654 0.566965,1.488281 0.259858,1.606398 -0.259858,1.393787 -0.4016,1.086682 -0.661459,0.803199 -0.826822,0.637835 -1.204799,0.377976 -0.921316,-0.02362 -0.897695,-0.259859 -0.708705,-0.448847 -0.472469,-0.496094"
       id="path1251-3"
       inkscape:connector-curvature="0"
       embroider_manual_stitch="False"
       embroider_zigzag_spacing_mm="0.4"
       embroider_running_stitch_length_mm="1.6"
       embroider_trim_after="False"
       embroider_stop_after="False"
       embroider_repeats="1" />
    <path
       embroider_zigzag_underlay="False"
       embroider_contour_underlay="False"
       embroider_center_walk_underlay_stitch_length_mm="1.5"
       embroider_center_walk_underlay="False"
       embroider_pull_compensation_mm="None"
       embroider_trim_after="False"
       embroider_zigzag_spacing_mm="0.33"
       embroider_stop_after="False"
       embroider_satin_column="True"
       inkscape:connector-curvature="0"
       d="m 50.380305,88.735204 -0.01669,-2.255087 m 0.968849,2.238382 0.400904,-2.488947 m 1.085784,2.004522 0.183748,-2.104748 m 1.703837,2.221678 0.133636,-2.004522 m 1.887591,2.923261 c 0.06682,-0.03341 0.868624,-1.904295 0.868624,-1.904295 m 0.684879,3.925521 c 0.100227,-0.08352 1.937705,-1.80407 1.937705,-1.80407 m -1.236122,3.842 c 0.08352,0 2.388721,-0.801809 2.388721,-0.801809 m -2.823035,2.555765 c 0.08352,0.05011 2.388722,0.167043 2.388722,0.167043 m -3.173831,1.236122 c 0.06682,0.0167 1.653731,0.718287 1.653731,0.718287 m -3.090304,-0.233861 c 0.0167,0.06682 1.018966,1.336348 1.018966,1.336348 m -2.138156,-1.603617 -0.250566,1.336347 m -0.684879,-1.921 -0.751695,0.818513 m 0.217157,-0.918738 c 0,0 1.035669,1.469982 2.873147,1.336347 0,0 1.553504,-0.150339 2.438834,-1.469982 0,0 0.835218,-1.219418 0.734992,-2.488948 0,0 0.183747,-1.854182 -1.302938,-3.69166 0,0 -1.436574,-1.770661 -3.908817,-2.154861 0,0 -2.071341,-0.200452 -4.042452,0.701583 l -0.400905,0.0167 m 3.441094,7.917863 c 0,0 0.968851,1.620321 3.173825,1.503391 0,0 2.57247,-0.11693 3.491209,-2.990078 0,0 1.069078,-3.324165 -1.620321,-6.013564 0,0 -1.737252,-1.820774 -4.059156,-2.004522 0,0 -2.572469,-0.217156 -4.34313,0.501131"
       style="fill:none;stroke:#191d1f;stroke-width:0.07;stroke-linejoin:miter;stroke-miterlimit:4;stroke-dasharray:none;stroke-dashoffset:0"
       id="path1337-7" />
    <path
       style="fill:none;stroke:#191d1f;stroke-width:0.07;stroke-linejoin:miter;stroke-miterlimit:4;stroke-dasharray:0.07, 0.07;stroke-dashoffset:0"
       d="M 50.199962,87.684955 48.995164,87.04712 47.176153,86.64552 H 45.07366 l -1.96075,0.47247 -1.441035,0.779576 -1.015812,0.897694 -0.850445,1.724516 -0.496093,1.582776 0.07087,1.700892 0.54334,1.2048 0.590587,0.921316 0.708706,0.531529 0.696894,0.377977 0.956752,0.212611 1.004001,-0.05906 0.791388,-0.295294 0.519715,-0.366164 0.129932,-0.141741"
       id="path1400-5"
       inkscape:connector-curvature="0"
       embroider_manual_stitch="False"
       embroider_zigzag_spacing_mm="0.4"
       embroider_stop_after="False"
       embroider_repeats="1"
       embroider_running_stitch_length_mm="1.6"
       embroider_trim_after="False" />
    <path
       embroider_zigzag_underlay="False"
       embroider_contour_underlay="False"
       embroider_center_walk_underlay_stitch_length_mm="1.5"
       embroider_center_walk_underlay="False"
       embroider_pull_compensation_mm="None"
       embroider_trim_after="False"
       embroider_zigzag_spacing_mm="0.33"
       embroider_stop_after="False"
       embroider_satin_column="True"
       inkscape:connector-curvature="0"
       d="m 49.680247,88.736201 0.07087,-2.067057 m -1.381976,1.700893 0.685083,-2.279669 m -2.397786,2.114304 c 0.02363,-0.04725 0.566962,-2.634021 0.566962,-2.634021 m -2.988374,2.574962 c 0,-0.04725 0.0118,-2.704892 0.0118,-2.704892 m -1.22841,3.519903 c -0.01183,-0.08268 -0.496094,-3.082868 -0.496094,-3.082868 m -0.614211,3.933315 -1.063058,-2.846633 m 0.118117,4.264044 -1.559152,-2.185175 m 1.015812,3.106492 -2.078871,-0.826823 m 2.267858,2.149739 c -0.04725,0.01181 -2.539527,-0.295294 -2.539527,-0.295294 m 3.023809,1.724517 c -0.04725,0 -1.972564,0.933128 -1.972564,0.933128 m 2.988377,0.05906 -0.862259,1.653646 m 2.49228,-1.523716 0.0118,1.889881 m 0.956763,-2.007999 0.649647,1.358352 m 0.188989,-1.063058 c 0,0 -1.641835,1.807199 -4.02781,0.779576 0,0 -1.88988,-0.685082 -2.504091,-3.130116 0,0 -0.755952,-2.681268 1.27567,-5.268043 0,0 1.925315,-2.350539 4.712891,-2.586774 0,0 2.232422,-0.259859 3.756139,0.47247 0,0 0.34254,0.177176 0.649644,0.437035 l 0.53153,0.165364 m -4.582962,8.882441 c 0,0 -1.700893,1.665457 -3.732514,0.448847 0,0 -1.736328,-0.921318 -1.81901,-3.437221 0,0 -0.12993,-1.67727 1.027623,-3.283669 0,0 1.523716,-1.972563 3.767949,-2.385974 0,0 2.315104,-0.566965 4.84282,0.980375 l 0.496094,-0.01181"
       style="fill:none;stroke:#191d1f;stroke-width:0.07;stroke-linejoin:miter;stroke-miterlimit:4;stroke-dasharray:none;stroke-dashoffset:0"
       id="path1494-9" />
    <path
       style="fill:none;stroke:#191d1f;stroke-width:0.07;stroke-linejoin:miter;stroke-miterlimit:4;stroke-dasharray:0.07, 0.07;stroke-dashoffset:0"
       d="m 50.034598,87.661331 1.228423,-1.228422 2.008,-1.74814 1.55915,-1.322917 0.0945,-0.850446 -1.27567,-1.322917 -1.960753,-1.937129 -1.748139,-1.346541"
       id="path1563-2"
       inkscape:connector-curvature="0"
       embroider_manual_stitch="False"
       embroider_zigzag_spacing_mm="0.4"
       embroider_stop_after="False"
       embroider_repeats="1"
       embroider_running_stitch_length_mm="1.6"
       embroider_trim_after="False" />
    <path
       embroider_zigzag_underlay="False"
       embroider_contour_underlay="False"
       embroider_center_walk_underlay_stitch_length_mm="1.5"
       embroider_center_walk_underlay="False"
       embroider_pull_compensation_mm="None"
       embroider_trim_after="False"
       embroider_zigzag_spacing_mm="0.33"
       embroider_stop_after="False"
       embroider_satin_column="True"
       sodipodi:nodetypes="cccccccccccccccccccccccccccccccccccccccc"
       inkscape:connector-curvature="0"
       d="m 49.243211,80.278983 -0.909506,-2.586776 m -0.129929,3.649835 c -0.05906,-0.03543 -1.807199,-2.303293 -1.807199,-2.303293 m 1.216612,3.200987 -2.917504,-1.441035 m 1.464659,1.94894 -3.413599,-0.03544 m 4.299479,0.744145 c -0.04725,0.01181 -2.634022,1.228423 -2.634022,1.228423 m 3.886068,-0.09449 -1.771764,1.937128 m 2.681269,-0.815011 -0.555151,2.787574 m 1.370163,-2.303293 -0.03544,3.260045 m 0.968565,-4.03962 c 0.0118,0.04725 0.685081,2.763951 0.685081,2.763951 m 0.354354,-4.015997 2.137926,2.149739 m -1.181175,-2.929315 2.29148,1.488281 m -2.303291,-2.185175 c 0.05906,0 4.086866,0.661458 4.086866,0.661458 m -4.98456,-1.34654 c 0.07087,-0.05906 3.378163,-1.523716 3.378163,-1.523716 m -4.547527,0.165364 c 0.05906,-0.04725 1.736328,-2.326916 1.736328,-2.326916 m -2.397786,1.228422 0.330729,-2.704893 m -0.519718,0.165365 6.272043,6.035809 -6.31929,5.764137 -6.354725,-6.106678 6.295665,-5.787762 m 0.02363,1.901693 4.275852,4.181363 -4.228608,3.909691 -4.358537,-4.252232 4.228608,-3.862445"
       style="fill:none;stroke:#191d1f;stroke-width:0.07;stroke-linejoin:miter;stroke-miterlimit:4;stroke-dasharray:none;stroke-dashoffset:0"
       id="path1665-2" />
    <path
       style="fill:none;stroke:#191d1f;stroke-width:0.07;stroke-linejoin:miter;stroke-miterlimit:4;stroke-dasharray:0.07, 0.07;stroke-dashoffset:0"
       d="m 49.892858,78.814325 0.08268,-1.866258 -0.0118,-0.850449"
       id="path1736-8"
       inkscape:connector-curvature="0"
       embroider_manual_stitch="True" />
    <path
       embroider_trim_after="False"
       embroider_running_stitch_length_mm="1.6"
       embroider_repeats="1"
       embroider_stop_after="False"
       embroider_zigzag_spacing_mm="0.4"
       embroider_manual_stitch="False"
       inkscape:connector-curvature="0"
       id="path1808-9"
       d="m 49.979403,76.006491 -18.842504,0.03341 -16.57071,0.200451"
       style="fill:none;stroke:#191d1f;stroke-width:0.07;stroke-linejoin:miter;stroke-miterlimit:4;stroke-dasharray:0.07, 0.07;stroke-dashoffset:0" />
    <path
       id="path1882-7-7"
       style="fill:none;stroke:#191d1f;stroke-width:0.07;stroke-linejoin:miter;stroke-miterlimit:4;stroke-dasharray:none;stroke-dashoffset:0"
       d="m 14.322543,75.436765 71.427783,-0.03341 m -71.451406,1.739031 71.427782,-0.03341"
       inkscape:connector-curvature="0"
       embroider_satin_column="True"
       embroider_stop_after="False"
       embroider_zigzag_spacing_mm="0.33"
       embroider_trim_after="True"
       embroider_pull_compensation_mm="None"
       embroider_center_walk_underlay="True"
       embroider_center_walk_underlay_stitch_length_mm="1.5"
       embroider_contour_underlay="False"
       embroider_zigzag_underlay="False" />
  </g>
</svg>
