<?xml version="1.0" encoding="UTF-8" standalone="no"?>
<!-- Created with Inkscape (http://www.inkscape.org/) -->

<svg
   xmlns:dc="http://purl.org/dc/elements/1.1/"
   xmlns:cc="http://creativecommons.org/ns#"
   xmlns:rdf="http://www.w3.org/1999/02/22-rdf-syntax-ns#"
   xmlns:svg="http://www.w3.org/2000/svg"
   xmlns="http://www.w3.org/2000/svg"
   xmlns:sodipodi="http://sodipodi.sourceforge.net/DTD/sodipodi-0.dtd"
   xmlns:inkscape="http://www.inkscape.org/namespaces/inkscape"
   width="4in"
   height="4in"
   viewBox="0 0 101.6 101.6"
   version="1.1"
   id="svg8"
   inkscape:version="0.91+devel r"
   enable-background="new"
   sodipodi:docname="PuffRegular.svg">
  <sodipodi:namedview
     id="base"
     pagecolor="#a8a8a8"
     bordercolor="#666666"
     borderopacity="1.0"
     inkscape:pageopacity="0"
     inkscape:pageshadow="2"
     inkscape:zoom="2"
     inkscape:cx="63.652679"
     inkscape:cy="210.87876"
     inkscape:document-units="in"
     inkscape:current-layer="layer2"
     showgrid="false"
     inkscape:snap-global="false"
     units="in"
     showguides="true"
     inkscape:guide-bbox="true"
     inkscape:locked="false"
     inkscape:window-width="2560"
     inkscape:window-height="1413"
     inkscape:window-x="3840"
     inkscape:window-y="0"
     inkscape:window-maximized="1"
     inkscape:lockguides="false"
     inkscape:measure-start="0,0"
     inkscape:measure-end="0,0">
    <inkscape:grid
       type="xygrid"
       id="grid5155" />
  </sodipodi:namedview>
  <defs
     id="defs2" />
  <metadata
     id="metadata5">
    <rdf:RDF>
      <cc:Work
         rdf:about="">
        <dc:format>image/svg+xml</dc:format>
        <dc:type
           rdf:resource="http://purl.org/dc/dcmitype/StillImage" />
        <dc:title></dc:title>
      </cc:Work>
    </rdf:RDF>
  </metadata>
  <g
     inkscape:groupmode="layer"
     id="layer2"
     inkscape:label="Instructions"
     sodipodi:insensitive="true">
    <g
       id="g4467"
       sodipodi:insensitive="true">
      <text
         id="text4378"
         y="105.52886"
         x="44.024879"
         style="font-style:normal;font-variant:normal;font-weight:500;font-stretch:normal;font-size:4.24744463px;line-height:4.52999973px;font-family:KacstPen;-inkscape-font-specification:'KacstPen Medium';font-variant-ligatures:normal;font-variant-caps:normal;font-variant-numeric:normal;text-align:start;letter-spacing:0px;word-spacing:0px;writing-mode:lr-tb;text-anchor:start;fill:#000000;fill-opacity:1;stroke:none;stroke-width:0.26458332px;stroke-linecap:butt;stroke-linejoin:miter;stroke-opacity:1"
         xml:space="preserve"
         sodipodi:insensitive="true"><tspan
           style="font-size:4.24744463px;line-height:4.52999973px;stroke-width:0.26458332px"
           y="105.52886"
           x="44.024879"
           id="tspan4376"
           sodipodi:role="line">Steps</tspan></text>
      <text
         id="text4382"
         y="133.61443"
         x="18.826149"
         style="font-style:normal;font-variant:normal;font-weight:500;font-stretch:normal;font-size:4.24744463px;line-height:4.52999973px;font-family:KacstPen;-inkscape-font-specification:'KacstPen Medium';font-variant-ligatures:normal;font-variant-caps:normal;font-variant-numeric:normal;text-align:start;letter-spacing:0px;word-spacing:0px;writing-mode:lr-tb;text-anchor:start;fill:#000000;fill-opacity:1;stroke:none;stroke-width:0.26458332px;stroke-linecap:butt;stroke-linejoin:miter;stroke-opacity:1"
         xml:space="preserve"
         sodipodi:insensitive="true"><tspan
           id="tspan4384"
           style="font-size:4.24744463px;line-height:4.52999973px;stroke-width:0.26458332px"
           y="133.61443"
           x="18.826149"
           sodipodi:role="line">2. Digitizing puff to where the</tspan><tspan
           id="tspan4388"
           style="font-size:4.24744463px;line-height:4.52999973px;stroke-width:0.26458332px"
           y="138.28244"
           x="18.826149"
           sodipodi:role="line">stitches are surrounding the </tspan><tspan
           id="tspan4390"
           style="font-size:4.24744463px;line-height:4.52999973px;stroke-width:0.26458332px"
           y="142.95045"
           x="18.826149"
           sodipodi:role="line">entire embroidery area to aid</tspan><tspan
           id="tspan4392"
           style="font-size:4.24744463px;line-height:4.52999973px;stroke-width:0.26458332px"
           y="147.61845"
           x="18.826149"
           sodipodi:role="line">in foam removal.</tspan></text>
      <text
         id="text4396"
         y="157.14943"
         x="18.902344"
         style="font-style:normal;font-variant:normal;font-weight:500;font-stretch:normal;font-size:4.24744463px;line-height:4.52999973px;font-family:KacstPen;-inkscape-font-specification:'KacstPen Medium';font-variant-ligatures:normal;font-variant-caps:normal;font-variant-numeric:normal;text-align:start;letter-spacing:0px;word-spacing:0px;writing-mode:lr-tb;text-anchor:start;fill:#000000;fill-opacity:1;stroke:none;stroke-width:0.26458332px;stroke-linecap:butt;stroke-linejoin:miter;stroke-opacity:1"
         xml:space="preserve"
         sodipodi:insensitive="true"><tspan
           style="font-size:4.24744463px;line-height:4.52999973px;stroke-width:0.26458332px"
           y="157.14943"
           x="18.902344"
           id="tspan4394"
           sodipodi:role="line">3. Use either the pinch or </tspan><tspan
           id="tspan4398"
           style="font-size:4.24744463px;line-height:4.52999973px;stroke-width:0.26458332px"
           y="161.81744"
           x="18.902344"
           sodipodi:role="line">capping method to</tspan><tspan
           id="tspan4400"
           style="font-size:4.24744463px;line-height:4.52999973px;stroke-width:0.26458332px"
           y="166.48546"
           x="18.902344"
           sodipodi:role="line">accomplish this.  This design</tspan><tspan
           id="tspan4402"
           style="font-size:4.24744463px;line-height:4.52999973px;stroke-width:0.26458332px"
           y="171.15346"
           x="18.902344"
           sodipodi:role="line">uses the pinching method.</tspan></text>
      <text
         id="text4406"
         y="180.76068"
         x="18.713907"
         style="font-style:normal;font-variant:normal;font-weight:500;font-stretch:normal;font-size:4.24744463px;line-height:4.52999973px;font-family:KacstPen;-inkscape-font-specification:'KacstPen Medium';font-variant-ligatures:normal;font-variant-caps:normal;font-variant-numeric:normal;text-align:start;letter-spacing:0px;word-spacing:0px;writing-mode:lr-tb;text-anchor:start;fill:#000000;fill-opacity:1;stroke:none;stroke-width:0.26458332px;stroke-linecap:butt;stroke-linejoin:miter;stroke-opacity:1"
         xml:space="preserve"
         sodipodi:insensitive="true"><tspan
           style="font-size:4.24744463px;line-height:4.52999973px;stroke-width:0.26458332px"
           y="180.76068"
           x="18.713907"
           id="tspan4404"
           sodipodi:role="line">4.  After everything stitches</tspan><tspan
           id="tspan4410"
           style="font-size:4.24744463px;line-height:4.52999973px;stroke-width:0.26458332px"
           y="185.4287"
           x="18.713907"
           sodipodi:role="line">remove the foam and any </tspan><tspan
           id="tspan4414"
           style="font-size:4.24744463px;line-height:4.52999973px;stroke-width:0.26458332px"
           y="190.09671"
           x="18.713907"
           sodipodi:role="line">post stitching cleanup for the</tspan><tspan
           id="tspan4416"
           style="font-size:4.24744463px;line-height:4.52999973px;stroke-width:0.26458332px"
           y="194.76471"
           x="18.713907"
           sodipodi:role="line">nubbies that might be around.</tspan></text>
      <text
         xml:space="preserve"
         style="font-style:normal;font-variant:normal;font-weight:500;font-stretch:normal;font-size:6.82272196px;line-height:4.52999973px;font-family:KacstPen;-inkscape-font-specification:'KacstPen Medium';font-variant-ligatures:normal;font-variant-caps:normal;font-variant-numeric:normal;text-align:start;letter-spacing:0px;word-spacing:0px;writing-mode:lr-tb;text-anchor:start;fill:#000000;fill-opacity:1;stroke:none;stroke-width:0.26458332px;stroke-linecap:butt;stroke-linejoin:miter;stroke-opacity:1"
         x="22.489584"
         y="113.50625"
         id="text5159"
         sodipodi:insensitive="true"><tspan
           sodipodi:role="line"
           id="tspan5157"
           x="22.489584"
           y="117.32187"
           style="stroke-width:0.26458332px" /></text>
      <text
         xml:space="preserve"
         style="font-style:normal;font-variant:normal;font-weight:500;font-stretch:normal;font-size:4.24744463px;line-height:4.52999973px;font-family:KacstPen;-inkscape-font-specification:'KacstPen Medium';font-variant-ligatures:normal;font-variant-caps:normal;font-variant-numeric:normal;text-align:start;letter-spacing:0px;word-spacing:0px;writing-mode:lr-tb;text-anchor:start;fill:#000000;fill-opacity:1;stroke:none;stroke-width:0.26458332px;stroke-linecap:butt;stroke-linejoin:miter;stroke-opacity:1"
         x="18.9895"
         y="114.78976"
         id="text5163"
         sodipodi:insensitive="true"><tspan
           sodipodi:role="line"
           id="tspan5161"
           x="18.9895"
           y="114.78976"
           style="font-size:4.24744463px;stroke-width:0.26458332px">1.  Digitize regular embroidery</tspan><tspan
           sodipodi:role="line"
           x="18.9895"
           y="119.45777"
           style="font-size:4.24744463px;stroke-width:0.26458332px"
           id="tspan5165">first and then insert a stop</tspan><tspan
           sodipodi:role="line"
           x="18.9895"
           y="124.12578"
           style="font-size:4.24744463px;stroke-width:0.26458332px"
           id="tspan5167">command (or color change).</tspan></text>
      <text
         xml:space="preserve"
         style="font-style:normal;font-variant:normal;font-weight:500;font-stretch:normal;font-size:6.82272196px;line-height:4.52999973px;font-family:KacstPen;-inkscape-font-specification:'KacstPen Medium';font-variant-ligatures:normal;font-variant-caps:normal;font-variant-numeric:normal;text-align:start;letter-spacing:0px;word-spacing:0px;writing-mode:lr-tb;text-anchor:start;fill:#000000;fill-opacity:1;stroke:none;stroke-width:0.26458332px;stroke-linecap:butt;stroke-linejoin:miter;stroke-opacity:1"
         x="-10.31875"
         y="48.286461"
         id="text5171"
         sodipodi:insensitive="true"><tspan
           sodipodi:role="line"
           id="tspan5169"
           x="-10.31875"
           y="48.286461"
           style="stroke-width:0.26458332px">Pinch</tspan></text>
      <text
         xml:space="preserve"
         style="font-style:normal;font-variant:normal;font-weight:500;font-stretch:normal;font-size:6.82272243px;line-height:4.52999973px;font-family:KacstPen;-inkscape-font-specification:'KacstPen Medium';font-variant-ligatures:normal;font-variant-caps:normal;font-variant-numeric:normal;text-align:start;letter-spacing:0px;word-spacing:0px;writing-mode:lr-tb;text-anchor:start;fill:#000000;fill-opacity:1;stroke:none;stroke-width:0.26458332px;stroke-linecap:butt;stroke-linejoin:miter;stroke-opacity:1"
         x="92.060493"
         y="48.348522"
         id="text5171-4"
         sodipodi:insensitive="true"><tspan
           sodipodi:role="line"
           id="tspan5169-6"
           x="92.060493"
           y="48.348522"
           style="stroke-width:0.26458332px">Pinch</tspan></text>
      <path
         id="path5193"
         style="opacity:1;fill:none;fill-opacity:1;stroke:#191d1f;stroke-width:0.17303587;stroke-linecap:butt;stroke-linejoin:round;stroke-miterlimit:4;stroke-dasharray:none;stroke-dashoffset:0;stroke-opacity:1"
         d="M 4.9063396,36.242409 11.086965,34.1822 12.002612,39.218266 M 6.0508997,43.10977 10.858053,34.1822"
         inkscape:connector-curvature="0"
         sodipodi:insensitive="true" />
      <path
         id="path5198"
         style="opacity:1;fill:none;fill-opacity:1;stroke:#191d1f;stroke-width:0.13721515;stroke-linecap:butt;stroke-linejoin:round;stroke-miterlimit:4;stroke-dasharray:none;stroke-dashoffset:0;stroke-opacity:1"
         d="m 87.897821,40.254028 0.907622,-6.897921 5.990297,0.181525 m 1.633718,7.987065 c -0.726096,-0.544573 -7.442492,-8.16859 -7.442492,-8.16859"
         inkscape:connector-curvature="0"
         sodipodi:insensitive="true" />
    </g>
  </g>
  <g
     inkscape:groupmode="layer"
     id="layer4"
     inkscape:label="Regular Embroidery">
    <path
       id="path4624"
       style="opacity:1;fill:none;fill-opacity:1;stroke:#191d1f;stroke-width:0.1;stroke-linecap:butt;stroke-linejoin:round;stroke-miterlimit:4;stroke-dasharray:none;stroke-dashoffset:0;stroke-opacity:1"
       d="m 43.193229,56.554687 0.264583,6.813021 M 35.454166,53.908853 34.925,61.647916 m -4.828646,-11.1125 -2.050521,8.003646 M 24.143229,45.442187 21.100521,52.321354 M 20.174479,38.496875 c -0.132292,0.264583 -4.497917,6.01927 -4.497917,6.01927 m 1.918229,-11.840104 -4.43177,6.283854 m 2.579687,-9.591145 -2.910416,7.540625 m 0.198437,-6.085417 -1.785937,6.548437 m 0.992187,-6.482291 -2.8442708,6.482291 m 2.6458338,-7.9375 -5.2916671,4.696355 M 11.972396,27.715104 5.4239583,30.360937 M 11.377083,25.796875 3.0427083,24.738541 M 10.914062,24.341666 3.7703125,21.034375 m 7.7390625,2.711979 -4.1010418,-6.416146 m 7.5406248,4.630208 -2.645833,-7.011458 m 5.225521,5.688542 -0.595313,-7.540625 m 1.389063,6.945312 4.696354,-7.14375 m -4.960938,9.723438 7.011459,-4.696354 m -6.151563,9.657291 7.209896,-3.836458 m -5.027083,11.377083 6.746874,-4.497917 m -4.43177,12.104688 6.482291,-5.754688 m -0.132291,10.980209 5.291666,-6.217709 m 2.315104,10.120313 3.770313,-6.945313 m 4.431771,9.194271 1.521354,-7.606771 m 6.151562,7.9375 v -7.606771 m 6.283854,6.416146 -1.852083,-7.540625 m 7.14375,5.423959 -3.704167,-6.35 m 8.003646,3.770312 -4.7625,-6.680729 m 8.400521,3.307292 -5.490104,-5.423959 m 8.797395,0.727604 -5.688541,-4.034895 m 8.73125,-2.248959 -8.069792,-3.042708 m 9.855729,-3.505729 -6.945312,-3.108854 m 7.672916,-2.579688 -7.540625,-5.159375 m 7.276042,2.778125 -4.167187,-6.81302 m 5.490104,7.9375 0.727604,-7.209896 m 1.984375,8.665104 3.175,-6.746875 m 0,8.334375 4.696354,-4.960938 m -4.101042,5.357813 6.019271,-3.175 m -6.416146,4.233333 7.011458,-0.595312 m -7.937499,2.38125 6.680729,2.778125 m -7.276042,-0.859896 5.754687,5.688541 m -5.953124,-4.7625 3.175,7.805209 m -5.688542,-8.003646 2.645833,7.739062 m -6.746875,-1.521354 c 0.264584,0.132292 5.357813,6.945313 5.357813,6.945313 m -9.458854,0.859895 6.746875,5.953125 M 71.437499,49.212499 c 0.198438,0.264584 4.960938,5.953125 4.960938,5.953125 M 64.095312,54.173437 c 0,0.264583 3.902604,6.813021 3.902604,6.813021 M 56.620833,56.488541 c -0.06615,0.330729 1.322916,7.342187 1.322916,7.342187 m -8.202083,-6.548437 0.463021,6.945312 m -2.116667,-2.05052 c 0,0 8.003646,-0.132292 9.988021,-0.727605 0,0 11.773959,-2.381249 19.182292,-10.451041 0,0 5.88698,-5.423958 9.194271,-15.54427 0,0 3.108854,1.719791 5.225521,-2.513542 l 2.050521,-8.400521 c 0,0 0.06615,-2.645833 -1.256771,-3.96875 l -12.038542,-6.35 c 0,0 -3.63802,-0.859896 -3.042708,3.042708 0,0 -0.529167,11.046355 -3.042708,15.544271 0,0 -4.894792,14.022917 -16.66875,16.007292 0,0 -16.073438,4.365625 -25.796875,-6.019271 0,0 -8.929688,-8.929687 -9.260417,-25.532292 0,0 0.396875,-3.571875 -3.307292,-2.778125 L 7.6067708,20.769792 c 0,0 -1.5875,1.058333 -1.190625,4.233333 l 2.0505209,7.540625 c 0,0 1.2567708,4.365625 5.0932293,2.778125 0,0 2.778125,8.73125 6.548437,12.567708 0,0 8.069792,10.847917 20.902084,13.229167 0,0 0.661458,0.330729 3.770312,0.595312 m 3.241145,-2.711979 c 0,0 10.649479,0.264583 15.411979,-2.447396 0,0 9.591147,-3.770312 14.022918,-10.517187 0,0 4.696354,-5.886979 6.879167,-13.49375 0,0 0.06615,-1.521354 1.389062,-1.124479 l 2.447396,1.322916 c 0,0 0.859896,-2.05052 1.322917,-3.902604 0,0 1.190625,-4.431771 1.124479,-5.490104 l -9.988021,-5.423958 c 0,0 -0.859896,9.458854 -1.852083,11.509375 0,0 -2.910417,13.427604 -14.089063,19.909896 0,0 -6.283854,4.101041 -16.933333,3.505729 0,0 -12.303125,0 -20.042188,-10.054167 0,0 -7.606771,-8.665104 -8.268229,-24.804687 l -9.8557292,5.093229 v 1.322916 l 0.8598962,3.373438 0.859896,3.571875 c 0,0 0.330729,1.190625 0.79375,1.256771 l 2.315104,-1.256771 c 0,0 0.79375,-0.595313 1.256771,0.926042 0,0 3.704166,12.7 12.170833,19.116145 0,0 6.813021,6.085417 16.999479,7.209897"
       inkscape:connector-curvature="0"
       sodipodi:nodetypes="cccccccccccccccccccccccccccccccccccccccccccccccccccccccccccccccccccccccccccccccccccccccccccccccccccccccccccccccccccccccccccccccccccccccccccccc"
       embroider_satin_column="True"
       embroider_center_walk_underlay="True" />
    <path
       embroider_center_walk_underlay_stitch_length_mm="1"
       embroider_center_walk_underlay="True"
       embroider_trim_after="True"
       embroider_stop_after="True"
       embroider_zigzag_spacing_mm="0.33"
       embroider_satin_column="True"
       inkscape:connector-curvature="0"
       d="m 50.336979,56.422395 1.058333,8.466667 m -4.564063,-8.334375 -0.264583,8.202083 m -3.96875,-8.598958 -1.521354,8.334375 M 39.6875,60.721874 c 0,0 8.863541,2.38125 14.089062,1.190625 M 39.819791,57.546874 c 0,0 8.268229,2.579688 14.419792,1.190625"
       style="opacity:1;fill:none;fill-opacity:1;stroke:#191d1f;stroke-width:0.1;stroke-linecap:butt;stroke-linejoin:round;stroke-miterlimit:4;stroke-dasharray:none;stroke-dashoffset:0;stroke-opacity:1"
       id="path4664" />
  </g>
  <g
     inkscape:label="Puff Elements"
     id="layer3"
     inkscape:groupmode="layer"
     style="display:inline">
    <path
       embroider_zigzag_underlay_spacing_mm="3.75"
       embroider_zigzag_underlay_inset_mm=".05"
       embroider_zigzag_underlay="True"
       embroider_contour_underlay_stitch_length_mm="1"
       embroider_contour_underlay_inset_mm="0.05"
       embroider_contour_underlay="True"
       embroider_trim_after="True"
       embroider_zigzag_spacing_mm="0.18"
       embroider_satin_column="True"
       inkscape:connector-curvature="0"
       d="M 12.567708,34.225743 8.4099701,29.690031 M 13.229167,34.225743 6.9453124,22.69747 M 13.65439,33.80052 12.284226,19.012202 M 13.985119,34.509225 21.59189,14.098512 M 15.686012,40.178868 28.111979,30.30424 m -8.976934,18.190103 10.394344,-9.591145 m -1.228421,16.725447 6.898063,-10.725073 m 3.543528,15.875 3.307291,-12.709451 m 6.709077,14.221354 -0.09449,-15.119048 M 69.216888,57.046055 63.358259,44.242114 M 77.343377,50.289732 67.752232,39.233927 M 83.957961,41.076562 73.232885,32.38311 m 12.425968,1.984375 c 0,0 -10.299851,-10.016369 -10.252604,-9.827381 m 10.110864,8.504465 -7.087055,-18.804316 m 7.370535,19.371278 6.898066,-12.803942 m -6.094865,13.134671 6.000372,-4.913688 m -80.934151,4.441219 c 0,0 0.614211,0.09449 0.850446,-0.04725 l 2.173363,-1.086678 c 0,0 3.165551,8.976934 4.960938,11.150298 0,0 4.630208,7.559523 11.859003,11.57552 0,0 7.748512,4.535715 16.536458,4.913691 0,0 10.252605,0.47247 17.62314,-3.449033 0,0 8.598959,-4.063244 12.284226,-9.732887 0,0 5.71689,-6.66183 7.370536,-14.552083 l 2.22061,1.27567 c 0,0 0.472471,0.236235 1.086682,-0.141742 M 11.244792,33.044569 c 0,0 -0.661459,-0.566965 -0.708706,-1.039434 L 8.5989584,24.634598 c 0,0 -0.1889881,-1.937128 0.3779761,-2.173363 L 20.599702,16.366369 c 0,0 -0.566964,2.173363 0.377977,6.520089 0,0 1.181175,13.370908 9.118675,21.213914 0,0 6.567337,7.984747 19.84375,7.984747 0,0 9.732887,0.09449 16.6782,-5.008185 0,0 7.795759,-5.669642 10.677827,-15.827753 0,0 2.882069,-9.68564 2.173363,-14.788318 l 11.528274,6.000372 c 0,0 0.897694,0.188988 0.425223,2.031622 l -1.795387,7.559524 c 0,0 -0.425223,0.850446 -0.566964,0.992187"
       style="opacity:1;fill:none;fill-opacity:1;stroke:#ffffff;stroke-width:0.1;stroke-linecap:butt;stroke-linejoin:round;stroke-miterlimit:4;stroke-dasharray:none;stroke-dashoffset:0;stroke-opacity:1"
       id="path4474" />
  </g>
</svg>
