<svg xmlns:inkscape="http://www.inkscape.org/namespaces/inkscape" xmlns:sodipodi="http://sodipodi.sourceforge.net/DTD/sodipodi-0.dtd" xmlns="http://www.w3.org/2000/svg" xmlns:svg="http://www.w3.org/2000/svg" width="20.988546" height="21.047535" viewBox="0 0 20.988547 21.047535" version="1.1" id="svg38" sodipodi:docname="P4-43-mod.svg">
  <defs id="defs42"/>
  <sodipodi:namedview id="namedview40" pagecolor="#ffffff" bordercolor="#666666" borderopacity="1.0" inkscape:showpageshadow="2" inkscape:pageopacity="0.0" inkscape:pagecheckerboard="0" inkscape:deskcolor="#d1d1d1"/>
  <style type="text/css" id="style2">
polygon.tile { stroke: #000000; stroke-width:3; stroke-linejoin:round }
polygon.ih1 { fill: #ffff80 }
polygon.ih2 { fill: #8080ff }
polygon.ih3 { fill: #ff8080 }
polygon.ih4 { fill: #80ff80 }
polygon.ih5 { fill: #ff80ff }
polygon.ih6 { fill: #80ffff }
polygon.para {opacity: 0.75; fill: #ff0000; stroke: #ff0000 }
</style>
  <polygon class="para" points="19.688364,4.8585144 1.4855265,-12.986409 -19.688364,-4.8585144 -1.4855265,12.986409 " style="stroke:none" id="polygon4" transform="matrix(0.48,0,0,0.48,11.538132,8.5730723)"/>
  <path d="m 11.538132,8.5730723 h 7.380711" style="stroke:#000000;stroke-width:0.096px" id="path6"/>
  <path d="M 10.18148,0.00750885 11.538132,8.5730723" style="stroke:#000000;stroke-width:0.096px" id="path8"/>
  <path d="M 0.01801346,3.9088985 11.538132,8.5730723" style="stroke:#000000;stroke-width:0.096px" id="path10"/>
  <path d="M 11.538132,8.5730723 10.18148,0.00750885" style="stroke:#000000;stroke-width:0.096px" id="path12"/>
  <path d="M 1.3746649,12.474462 H 8.755375" style="stroke:#000000;stroke-width:0.096px" id="path14"/>
  <path d="M 8.755375,12.474462 11.538132,8.5730723" style="stroke:#000000;stroke-width:0.096px" id="path16"/>
  <path d="M 11.538132,8.5730723 0.01801346,3.9088985" style="stroke:#000000;stroke-width:0.096px" id="path18"/>
  <path d="M 18.918843,8.5730723 H 11.538132" style="stroke:#000000;stroke-width:0.096px" id="path20"/>
  <path d="m 8.755375,12.474462 11.520119,4.664173" style="stroke:#000000;stroke-width:0.096px" id="path22"/>
  <path d="M 20.275494,17.138635 18.918843,8.5730723" style="stroke:#000000;stroke-width:0.096px" id="path24"/>
  <path d="M 8.755375,12.474462 H 1.3746649" style="stroke:#000000;stroke-width:0.096px" id="path26"/>
  <path d="M 10.112027,21.040025 8.755375,12.474462" style="stroke:#000000;stroke-width:0.096px" id="path28"/>
  <path d="M 20.275494,17.138635 8.755375,12.474462" style="stroke:#000000;stroke-width:0.096px" id="path30"/>
  <path d="m 8.755375,12.474462 1.356652,8.565563" style="stroke:#000000;stroke-width:0.096px" id="path32"/>
  <path d="m 18.918843,8.5730723 1.356651,8.5655627" style="stroke:#000000;stroke-width:0.096px" id="path34"/>
  </svg>