<?xml version="1.0" encoding="UTF-8" standalone="no"?>
<!-- Created with Inkscape (http://www.inkscape.org/) -->

<svg
   width="67.359695mm"
   height="78.694191mm"
   viewBox="0 0 67.359696 78.694189"
   version="1.1"
   id="svg1"
   xml:space="preserve"
   inkscape:version="1.4 (e7c3feb100, 2024-10-09)"
   sodipodi:docname="inkstitch-motif-library.svg"
   xmlns:inkscape="http://www.inkscape.org/namespaces/inkscape"
   xmlns:sodipodi="http://sodipodi.sourceforge.net/DTD/sodipodi-0.dtd"
   xmlns:xlink="http://www.w3.org/1999/xlink"
   xmlns="http://www.w3.org/2000/svg"
   xmlns:svg="http://www.w3.org/2000/svg"
   xmlns:rdf="http://www.w3.org/1999/02/22-rdf-syntax-ns#"
   xmlns:cc="http://creativecommons.org/ns#"
   xmlns:dc="http://purl.org/dc/elements/1.1/"
   xmlns:inkstitch="http://inkstitch.org/namespace"><title
     id="title117">Ink/Stitch - Motif Library 1</title><sodipodi:namedview
     id="namedview1"
     pagecolor="#ffffff"
     bordercolor="#000000"
     borderopacity="0.25"
     inkscape:showpageshadow="2"
     inkscape:pageopacity="0.0"
     inkscape:pagecheckerboard="0"
     inkscape:deskcolor="#d1d1d1"
     inkscape:document-units="mm"
     showgrid="true"
     inkscape:zoom="3.48"
     inkscape:cx="124.85632"
     inkscape:cy="133.90805"
     inkscape:window-width="1920"
     inkscape:window-height="1131"
     inkscape:window-x="0"
     inkscape:window-y="32"
     inkscape:window-maximized="1"
     inkscape:current-layer="svg1"
     showguides="true" /><metadata
     id="metadata1"><inkstitch:min_stitch_len_mm>0.1</inkstitch:min_stitch_len_mm><inkstitch:collapse_len_mm>3.0</inkstitch:collapse_len_mm><inkstitch:inkstitch_svg_version>3</inkstitch:inkstitch_svg_version><rdf:RDF><cc:Work
         rdf:about=""><cc:license
           rdf:resource="http://creativecommons.org/publicdomain/zero/1.0/" /><dc:title>Ink/Stitch - Motif Library 1</dc:title><dc:creator><cc:Agent><dc:title>Gus Visser</dc:title></cc:Agent></dc:creator></cc:Work><cc:License
         rdf:about="http://creativecommons.org/publicdomain/zero/1.0/"><cc:permits
           rdf:resource="http://creativecommons.org/ns#Reproduction" /><cc:permits
           rdf:resource="http://creativecommons.org/ns#Distribution" /><cc:permits
           rdf:resource="http://creativecommons.org/ns#DerivativeWorks" /></cc:License></rdf:RDF></metadata><defs
     id="defs1"><symbol
       id="symbol58"><path
         style="fill:none;fill-rule:evenodd;stroke:#ec005e;stroke-width:0.17595;stroke-miterlimit:2.3"
         d="m 6.1941412,11.261928 2.500644,-0.01469 -0.781451,-0.29866 -0.625161,-0.47005 -0.312581,-0.7834219 v -0.626736 l 0.781452,0.156686 0.625161,0.626736 0.15629,0.6267359 0.15629,0.764225 0.156291,-0.764225 0.15629,-0.6267359 0.625161,-0.626736 0.7814518,-0.156686 v 0.626736 l -0.312581,0.7834219 -0.6251608,0.47005 -0.781452,0.313368 0.781452,0.313369 0.6251608,0.470054 0.312581,0.783418 v 0.626736 l -0.7814518,-0.156682 -0.625161,-0.626736 -0.15629,-0.626736 -0.156291,-0.783423 -0.781449,0.156683 -0.625161,0.626736 -0.312581,0.783418 v 0.626736 l 0.781452,-0.156682 0.625161,-0.626736 0.15629,-0.626736 0.156288,-0.802612 2.5006458,0.01919"
         id="path1"
         sodipodi:nodetypes="ccccccccccccccccccccccccccccccccccc"
         inkstitch:stroke_method="manual_stitch"
         inkstitch:ties="3"
         inkscape:label="#path 1"><title
           id="title1">Stitch 1</title></path><title
         id="title59">Stitch 1</title></symbol><symbol
       id="symbol59"><path
         style="fill:none;fill-rule:evenodd;stroke:#ec005e;stroke-width:0.17595;stroke-miterlimit:2.3"
         d="m 16.456254,11.362742 h 0.999707 1.262284 l -0.879488,-0.223594 -0.566286,-0.371076 -0.354326,-0.615286 0.768756,-0.0016 0.553636,0.461462 0.477708,0.750073 -0.368565,-0.748486 -0.178743,-0.6803059 0.50143,-0.700921 0.484036,0.688235 -0.173997,0.6914049 -0.264161,0.750073 0.376465,-0.758002 0.458729,-0.478906 0.768761,-0.0032 -0.343256,0.637488 -0.564708,0.383763 -0.695991,0.218836 -0.871579,0.187125 -0.596343,0.39962 -0.279977,0.561372 0.78141,0.0047 0.544146,-0.458295 0.422343,-0.69458 -0.305293,0.669207 -0.167667,0.726294 0.51883,0.612119 0.427091,-0.643833 -0.188238,-0.719954 -0.284723,-0.643833 0.381213,0.664453 0.487198,0.385346 0.843104,0.0063 -0.354326,-0.68348 -0.639051,-0.23311 -0.718138,-0.139546 h 0.895304 0.869994 0.900051"
         id="path2"
         sodipodi:nodetypes="cccccccccccccccccccccccccccccccccccccccccc"
         inkstitch:stroke_method="manual_stitch"
         inkstitch:ties="3"
         inkscape:label="#path 2"><title
           id="title2">Stitch 2</title></path><title
         id="title60">Stitch 2</title></symbol><symbol
       id="symbol60"><path
         style="fill:none;fill-rule:evenodd;stroke:#ec005e;stroke-width:0.17595;stroke-miterlimit:2.3"
         d="m 25.385289,13.386219 2.521401,-0.36156 -0.487195,-0.73581 -0.588433,-0.294956 -0.727635,-0.09832 0.287891,0.685064 0.604251,0.3235 0.911121,0.120521 0.316361,-0.681893 0.585271,-0.367905 0.819378,-0.10149 -0.363818,0.678719 -0.50934,0.333016 -0.847852,0.139553 -0.09491,-1.35427 -0.895304,-0.0888 -0.711813,-0.586746 -0.322692,-0.76435 0.711814,0.09832 0.635888,0.5804 0.58527,0.761181 0.414435,-0.751665 0.616903,-0.472569 0.888979,-0.120517 -0.329015,0.672373 -0.727637,0.586746 -0.869994,0.08246 -0.578941,-0.75801 0.07276,-0.9863609 0.493523,-0.69775 0.506182,0.707262 -0.07276,0.9863649 -0.417598,0.751665 0.09491,1.35427 0.768759,0.07929 0.794071,0.11418 0.888973,0.168093"
         id="path3"
         sodipodi:nodetypes="ccccccccccccccccccccccccccccccccccccc"
         inkstitch:stroke_method="manual_stitch"
         inkstitch:ties="3"
         inkscape:label="#path 3"><title
           id="title3">Stitch 3</title></path><title
         id="title61">Stitch 3</title></symbol><symbol
       id="symbol61"><path
         style="fill:none;fill-rule:evenodd;stroke:#ec005e;stroke-width:0.17595;stroke-miterlimit:2.3"
         d="m 34.702607,12.303415 0.467537,-0.269117 0.411611,-0.01121 0.798617,0.778198 1.140879,-0.01121 0.187906,-0.484418 -0.09842,-0.48665 -0.134224,-0.486654 -0.04922,0.955361 -0.422796,0.282574 -0.90152,-0.533748 -0.01118,-0.441802 0.876914,-0.473202 -0.865729,0.02018 -0.167772,-0.542723 0.689,-0.9284549 0.420558,-0.0068 0.348973,0.9553729 -0.02908,-0.459745 0.06711,-0.4305879 0.284098,-0.197356 0.910468,0.461987 0.04027,0.3947039 -0.664397,0.511328 0.852302,-0.0024 0.138698,0.410404 -0.637549,1.006953 -0.373587,-0.0068 -0.268439,-0.459745 -0.237123,-0.51581 0.134224,0.486654 0.100658,0.482172 -0.19014,0.488897 0.626363,0.0024 0.639784,0.0024 0.832175,-0.491127"
         id="path4"
         sodipodi:nodetypes="cccccccccccccccccccccccccccccccccccc"
         inkstitch:stroke_method="manual_stitch"
         inkstitch:ties="3"
         inkscape:label="#path 4"><title
           id="title4">Stitch 4</title></path><title
         id="title62">Stitch 4</title></symbol><symbol
       id="symbol62"><path
         style="fill:none;fill-rule:evenodd;stroke:#ec005e;stroke-width:0.17595;stroke-miterlimit:2.3"
         d="m 43.89482,11.24025 h 0.951086 l -0.482213,0.156722 v 0.783418 h 0.78145 l -0.312581,0.313368 v 0.626736 h 0.625163 l 1.034626,-1.542817 -1.034626,1.542817 0.312578,0.470058 h 0.312581 l 0.312582,-0.191844 0.312582,0.191844 0.312577,-0.15669 0.156291,-0.313368 -0.156291,-1.410154 0.156291,1.410154 0.312582,0.156686 h 0.625159 L 48.58353,12.807126 48.739821,12.337076 48.58353,11.71034 48.246168,11.24025 48.58353,10.926922 48.739821,10.300185 48.58353,9.6734491 h -0.625159 l -0.468873,0.7834189 0.468873,-0.7834189 -0.312582,-0.626736 -0.468873,-0.156686 -0.468868,0.470054 0.156291,1.2534729 -0.156291,-1.2534729 -0.312582,-0.469102 -0.468872,-7.9e-4 -0.312578,0.626736 0.312578,0.6267359 -0.312578,-0.6267359 -0.468873,-0.156686 -0.468872,0.313368 v 0.7834219 l 0.312581,0.470051 -0.156373,0.313368 h 1.879096 1.552488 0.632049"
         id="path5"
         sodipodi:nodetypes="cccccccccccccccccccccccccccccccccccccccccccccccc"
         inkstitch:stroke_method="manual_stitch"
         inkstitch:ties="3"
         inkscape:label="#path5"><title
           id="title5">Stitch 5</title></path><title
         id="title63">Stitch 5</title></symbol><symbol
       id="symbol63"><path
         style="fill:none;fill-rule:evenodd;stroke:#ec005e;stroke-width:0.17595;stroke-miterlimit:2.3"
         d="m 54.087372,11.261944 v 2.051579 h 3.907259 v -3.133677 h -1.875482 v 1.082098 h 0.937753 v 1.111482 H 55.18142 V 9.2397501 h 3.907255 v 2.0221939"
         id="path6"
         sodipodi:nodetypes="cccccccccccc"
         inkstitch:stroke_method="manual_stitch"
         inkstitch:ties="3"
         inkscape:label="#path 6"><title
           id="title6">Stitch 6</title></path><title
         id="title64">Stitch 6</title></symbol><symbol
       id="symbol64"><path
         style="fill:none;fill-rule:evenodd;stroke:#ec005e;stroke-width:0.17595;stroke-miterlimit:2.3"
         d="m 6.2659632,17.076542 h 0.553639 l 0.186652,-1.17981 0.673851,-1.02125 0.778246,-0.15541 -0.15185,1.18934 -0.177166,0.58358 -0.56945,0.58355 h -0.740283 l 0.180322,1.18936 0.67385,1.00857 0.781415,0.15224 -0.155019,-1.17349 -0.18349,-0.58992 -0.556795,-0.58676 h 0.743453 l 0.373306,-1.18299 0.379633,-0.58357 0.493523,-0.12052 -0.151852,1.11005 -0.531486,0.77703 h -0.563124 l 0.366981,1.17984 0.376465,0.5804 0.506184,0.1237 -0.158183,-1.10055 -0.528323,-0.78339 h 0.737123 l 0.262578,-0.79289 0.5251608,-0.1459 -0.05378,0.62798 -0.3669778,0.31081 0.3733028,0.29813 -0.0095,0.64701 -0.4745398,-0.15858 -0.256253,-0.78656 h 0.366981 0.7434458 l 0.25309,-0.62798 0.322688,0.17127 -0.199305,0.45671 0.199305,0.46939 -0.332178,0.15858 -0.2436,-0.62797 h 0.376473"
         id="path7"
         sodipodi:nodetypes="ccccccccccccccccccccccccccccccccccccccccccccc"
         inkstitch:stroke_method="manual_stitch"
         inkstitch:ties="3"
         inkscape:label="#path 7"><title
           id="title7">Stitch 7</title></path><title
         id="title65">Stitch 7</title></symbol><symbol
       id="symbol65"><path
         style="fill:none;fill-rule:evenodd;stroke:#ec005e;stroke-width:0.17595;stroke-miterlimit:2.3"
         d="m 16.495274,17.116902 h 0.322131 l 0.796376,-0.30949 0.30871,-0.32743 0.460823,-0.46198 0.317659,-0.78942 -0.152116,-0.47544 -0.478724,0.005 -0.465301,0.31397 -0.63531,0.64589 -0.313185,0.77147 0.161068,0.62795 h 0.791907 l 0.778476,0.15697 0.626366,0.47544 0.317655,0.47096 0.156592,0.63243 -0.0045,0.63691 -0.474248,-0.009 -0.621889,-0.31845 -0.469773,-0.46648 -0.487673,-0.79389 0.178963,-0.78492 h 0.952971 1.091661"
         id="path8"
         sodipodi:nodetypes="ccccccccccccccccccccccccc"
         inkstitch:stroke_method="manual_stitch"
         inkstitch:ties="3"
         inkscape:label="#path 8"><title
           id="title8">Stitch 8</title></path><title
         id="title66">Stitch 8</title></symbol><symbol
       id="symbol66"><path
         style="fill:none;fill-rule:evenodd;stroke:#ec005e;stroke-width:0.17595;stroke-miterlimit:2.3"
         d="m 25.435963,17.072402 0.46189,-1.08469 0.620067,-0.92609 h 0.461889 l 0.620071,0.93879 0.158182,0.62797 0.303703,-0.94513 0.626402,-0.62163 h 0.784576 l -0.0063,1.26229 -0.797233,0.74849 h -0.765594 l 0.0063,-0.29813 0.942757,-0.95148 -0.942757,0.95148 -0.930106,0.93879 0.930106,-0.93879 -8e-6,0.29813 -0.158181,1.10371 -0.468215,0.78022 H 26.50526 l -0.139197,-1.10372 0.784576,-1.09102 0.607417,-0.13321 0.15186,0.14589 0.499845,1.30036 0.575779,0.8817 h 0.468215 l 0.480868,-0.9388 0.461891,-0.94513"
         id="path9"
         sodipodi:nodetypes="cccccccccccccccccccccccccccccc"
         inkstitch:stroke_method="manual_stitch"
         inkstitch:ties="3"
         inkscape:label="#path 9"><title
           id="title9">Stitch 9</title></path><title
         id="title67">Stitch 9</title></symbol><symbol
       id="symbol67"><path
         style="fill:none;fill-rule:evenodd;stroke:#ec005e;stroke-width:0.17595;stroke-miterlimit:2.3"
         d="m 34.655124,17.063552 0.791903,-1.25588 h 0.778482 l 0.791902,1.25588 -0.644259,0.62346 h -0.63084 l -0.152118,-0.48442 0.165543,-0.46647 h 0.63084 l 0.30423,0.63242 0.326604,-0.30499 h 0.751641 l 0.630835,-0.32294 0.156594,-0.63692 -0.469775,-0.13904 -0.474246,0.32294 0.478723,0.61 -0.322131,0.16596 h -0.751641 l 1.073772,1.24243 h 0.621889 l 0.626365,-0.62345 0.143164,-0.32294 -0.617412,-0.46199 -0.170013,0.31397 0.796378,0.1525 0.161064,-0.30052"
         id="path10"
         sodipodi:nodetypes="ccccccccccccccccccccccccccc"
         inkstitch:stroke_method="manual_stitch"
         inkstitch:ties="3"
         inkscape:label="#path 10"><title
           id="title10">Stitch 10</title></path><title
         id="title68">Stitch 10</title></symbol><symbol
       id="symbol68"><path
         style="fill:none;fill-rule:evenodd;stroke:#ec005e;stroke-width:0.17595;stroke-miterlimit:2.3"
         d="m 44.54761,17.772402 -0.550116,0.60118 0.887124,-0.13415 0.852435,-0.38258 0.708704,-0.4571 0.753315,-0.50678 0.797912,-0.51176 0.926778,-0.37263 -0.728531,-0.19377 -0.778101,0.005 -0.773131,0.0994 -0.812789,0.29811 -0.669058,0.67074 -0.614542,0.8844 -0.550116,0.60118 1.065543,0.18384 0.7434,-0.005 0.748354,-0.10931 0.703755,-0.16892 0.743396,-0.50181 0.451,-0.78503 0.47082,-0.97879 -0.47082,0.97879 -0.451,0.78503"
         id="path11"
         sodipodi:nodetypes="cccccccccccccccccccccccc"
         inkstitch:stroke_method="manual_stitch"
         inkstitch:ties="3"
         inkscape:label="#path 11"><title
           id="title11">Stitch 11</title></path><title
         id="title69">Stitch 11</title></symbol><symbol
       id="symbol69"><path
         style="fill:none;fill-rule:evenodd;stroke:#ec005e;stroke-width:0.17595;stroke-miterlimit:2.3"
         d="m 54.093914,19.614702 v -1.56684 l 1.250323,-1.88021 v -1.56683 1.56683 l 1.25033,1.88021 v 1.56684 -1.56684 l 1.250315,-1.88021 v -1.56683 1.56683 l 1.250327,1.88021 v 1.56684"
         id="path12"
         sodipodi:nodetypes="ccccccccccccc"
         inkstitch:stroke_method="manual_stitch"
         inkstitch:ties="3"
         inkscape:label="#path 12"><title
           id="title12">Stitch 12</title></path><title
         id="title70">Stitch 12</title></symbol><symbol
       id="symbol70"><path
         style="fill:none;fill-rule:evenodd;stroke:#ec005e;stroke-width:0.17595;stroke-miterlimit:2.3"
         d="m 6.2111492,22.983362 2.500645,-2.50694 h -2.500645 l 2.500645,2.50694 2.5006448,2.50694 H 8.7117942 l 2.5006448,-2.50694"
         id="path13"
         sodipodi:nodetypes="ccccccc"
         inkstitch:stroke_method="manual_stitch"
         inkstitch:ties="3"
         inkscape:label="#path 13"><title
           id="title13">Stitch 13</title></path><title
         id="title71">Stitch 13</title></symbol><symbol
       id="symbol71"><path
         style="fill:none;fill-rule:evenodd;stroke:#ec005e;stroke-width:0.17595;stroke-miterlimit:2.3"
         d="m 16.433844,25.493722 2.188062,-3.44705 0.937742,-1.56684 -0.937742,1.56684 -2.188062,3.44705 2.188062,-3.44705 -1.094032,-1.56684 2.500645,3.44705 1.250323,1.56684 -1.250323,-1.56684 -0.937742,1.56684"
         id="path14"
         sodipodi:nodetypes="ccccccccccc"
         inkstitch:stroke_method="manual_stitch"
         inkstitch:ties="3"
         inkscape:label="#path 14"><title
           id="title14">Stitch 14</title></path><title
         id="title72">Stitch 14</title></symbol><symbol
       id="symbol72"><path
         style="fill:none;fill-rule:evenodd;stroke:#ec005e;stroke-width:0.17595;stroke-miterlimit:2.3"
         d="m 25.399349,22.974722 h 1.250367 v -2.50694 2.50694 h 1.250323 v -2.50694 2.50694 2.50694 -2.50694 h 1.258415 l -0.0081,2.50694 0.0081,-2.50694 h 1.242228"
         id="path15"
         sodipodi:nodetypes="ccccccccccccc"
         inkstitch:stroke_method="manual_stitch"
         inkstitch:ties="3"
         inkscape:label="#path 15"><title
           id="title15">Stitch 15</title></path><title
         id="title73">Stitch 15</title></symbol><symbol
       id="symbol73"><path
         style="fill:none;fill-rule:evenodd;stroke:#ec005e;stroke-width:0.17595;stroke-miterlimit:2.3"
         d="m 34.677412,24.839672 v -3.73107 l 2.495146,-0.007 -2.495146,0.007 v 3.73107 h 2.495146 -2.495146 2.495146"
         id="path16"
         sodipodi:nodetypes="cccccccc"
         inkstitch:stroke_method="manual_stitch"
         inkstitch:ties="3"
         inkscape:label="#path 16"><title
           id="title16">Stitch 16</title></path><title
         id="title74">Stitch 16</title></symbol><symbol
       id="symbol74"><path
         style="fill:none;fill-rule:evenodd;stroke:#ec005e;stroke-width:0.17595;stroke-miterlimit:2.3"
         d="m 43.967314,22.973732 2.492871,-2.34513 -2.492871,2.34513 h 1.699913 l 2.49782,2.35009 -2.49782,-2.35009 h 2.49782 -2.49782 2.49782"
         id="path17"
         sodipodi:nodetypes="ccccccccc"
         inkstitch:stroke_method="manual_stitch"
         inkstitch:ties="3"
         inkscape:label="#path 17"><title
           id="title17">Stitch 17</title></path><title
         id="title75">Stitch 17</title></symbol><symbol
       id="symbol75"><path
         style="fill:none;fill-rule:evenodd;stroke:#ec005e;stroke-width:0.17595;stroke-miterlimit:2.3"
         d="m 54.080274,22.964112 h 1.23971 l 1.269578,-2.49315 -1.269578,2.49315 1.269578,2.5231 -1.269578,-2.5231 h 1.269578 1.239706 l 1.247174,-2.49315 -1.247174,2.49315 1.247174,2.5231 -1.247174,-2.5231 h 1.247174"
         id="path18"
         sodipodi:nodetypes="ccccccccccccc"
         inkstitch:stroke_method="manual_stitch"
         inkstitch:ties="3"
         inkscape:label="#path 18"><title
           id="title18">Stitch 18</title></path><title
         id="title76">Stitch 18</title></symbol><symbol
       id="symbol76"><path
         style="fill:none;fill-rule:evenodd;stroke:#ec005e;stroke-width:0.17595;stroke-miterlimit:2.3"
         d="m 6.1452462,28.822892 h 0.626912 l 0.779701,1.09679 1.09405,0.78342 -1.09405,-0.78342 -0.779701,-1.09679 -0.0018,-1.09678 0.0018,1.09678 -0.0018,-1.09678 0.468861,-0.78343 -0.468861,0.78343 0.468861,-0.78343 h 0.781452 -0.781452 0.781452 l 0.625171,0.78507 -0.625171,-0.78507 0.625171,0.78507 0.625152,-0.78507 -0.625152,0.78507 0.625152,-0.78507 H 10.052445 9.2709942 10.052445 l 0.468871,0.78343 -0.468871,-0.78343 0.468871,0.78343 -0.0023,1.09678 0.0023,-1.09678 -0.0023,1.09678 -0.7791178,1.09679 -1.094032,0.78342 1.094032,-0.78342 0.7791178,-1.09679 h 0.627477"
         id="path19"
         sodipodi:nodetypes="ccccccccccccccccccccccccccccccccccc"
         inkstitch:stroke_method="manual_stitch"
         inkstitch:ties="3"
         inkscape:label="#path 19"><title
           id="title19">Stitch 19</title></path><title
         id="title77">Stitch 19</title></symbol><symbol
       id="symbol77"><path
         style="fill:none;fill-rule:evenodd;stroke:#ec005e;stroke-width:0.17595;stroke-miterlimit:2.3"
         d="m 16.397038,31.029972 0.781451,-2.19357 -0.781451,2.19357 0.781451,-2.19357 h 0.937742 -0.937742 0.937742 l 0.781452,-2.19358 -0.781452,2.19358 0.781452,-2.19358 0.781345,2.19358 -0.781345,-2.19358 0.781345,2.19358 h 0.937474 -0.937474 0.937474 l 0.812162,2.19775 -0.812162,-2.19775 0.812162,2.19775"
         id="path20"
         sodipodi:nodetypes="ccccccccccccccccccc"
         inkstitch:stroke_method="manual_stitch"
         inkstitch:ties="3"
         inkscape:label="#path 20"><title
           id="title20">Stitch 20</title></path><title
         id="title78">Stitch 20</title></symbol><symbol
       id="symbol78"><path
         style="fill:none;fill-rule:evenodd;stroke:#ec005e;stroke-width:0.17595;stroke-miterlimit:2.3"
         d="m 26.704924,28.746862 0.627325,1.43 h 0.62732 -0.62732 l 0.552641,0.73373 -0.552641,-0.73373 -0.0075,1.02572 0.0075,-1.02572 -0.589982,0.77117 0.589982,-0.77117 h -0.679602 0.679602 l 1.138881,-2.8001 h 0.619862 -0.619862 l 0.548911,-0.72623 -0.548911,0.72623 -0.0112,-0.96581 0.0112,0.96581 -0.556378,-0.76367 0.556378,0.76367 h -0.702004 0.702004 l 0.548901,1.37759"
         id="path21"
         sodipodi:nodetypes="cccccccccccccccccccccccc"
         inkstitch:stroke_method="manual_stitch"
         inkstitch:ties="3"
         inkscape:label="#path 21"><title
           id="title21">Stitch 21</title></path><title
         id="title79">Stitch 21</title></symbol><symbol
       id="symbol79"><path
         style="fill:none;fill-rule:evenodd;stroke:#ec005e;stroke-width:0.17595;stroke-miterlimit:2.3"
         d="m 34.653824,28.830182 h 2.500645 l -0.937742,-0.94011 0.937742,0.94011 v -0.94011 0.94011 l 0.937743,-0.94011 -0.937743,0.94011 0.937743,0.9401 -0.937743,-0.9401 v 0.9401 -0.9401 l -0.937742,0.9401 0.937742,-0.9401 h 2.500643"
         id="path22"
         sodipodi:nodetypes="ccccccccccccccc"
         inkstitch:stroke_method="manual_stitch"
         inkstitch:ties="3"
         inkscape:label="#path 22"><title
           id="title22">Stitch 22</title></path><title
         id="title80">Stitch 22</title></symbol><symbol
       id="symbol80"><path
         style="fill:none;fill-rule:evenodd;stroke:#ec005e;stroke-width:0.17595;stroke-miterlimit:2.3"
         d="m 43.931199,30.077112 h 2.500646 v -1.25347 l -1.250323,1.25347 1.250323,-1.25347 h -1.280739 1.280739 l -1.250323,-1.25799 1.250323,1.25799 v -1.25799 1.25799 l 1.250323,-1.25799 -1.250323,1.25799 h 1.250323 -1.250323 l 1.250323,1.25347 -1.250323,-1.25347 v 1.25347 h 2.500646"
         id="path23"
         sodipodi:nodetypes="ccccccccccccccccccc"
         inkstitch:stroke_method="manual_stitch"
         inkstitch:ties="3"
         inkscape:label="#path 23"><title
           id="title23">Stitch 23</title></path><title
         id="title81">Stitch 23</title></symbol><symbol
       id="symbol81"><path
         style="fill:none;fill-rule:evenodd;stroke:#ec005e;stroke-width:0.17595;stroke-miterlimit:2.3"
         d="m 55.327097,31.333122 1.250315,-0.78172 v -1.25734 l -1.256112,-0.46788 0.0058,-1.56684 1.250322,-0.62674 1.094032,0.62674 v 1.56684 l -1.094032,0.46788 v 1.25734 l 1.094032,0.78172"
         id="path24"
         sodipodi:nodetypes="ccccccccccc"
         inkstitch:stroke_method="manual_stitch"
         inkstitch:ties="3"
         inkscape:label="#path 24"><title
           id="title24">Stitch 24</title></path><title
         id="title82">Stitch 24</title></symbol><symbol
       id="symbol82"><path
         style="fill:none;fill-rule:evenodd;stroke:#ec005e;stroke-width:0.17595;stroke-miterlimit:2.3"
         d="m 6.3197422,35.941902 1.406613,-0.47006 -1.406613,0.47006 1.406613,0.47005 -1.406613,-0.47005 1.094032,1.09678 -1.094032,-1.09678 2.344355,-2.50695 1.094032,-1.09679 -1.094032,1.09679 1.4066128,-0.47005 -1.4066128,0.47005 1.4066128,0.31337 -1.4066128,-0.31337 2.3443548,2.50695"
         id="path25"
         sodipodi:nodetypes="ccccccccccccccc"
         inkstitch:stroke_method="manual_stitch"
         inkstitch:ties="3"
         inkscape:label="#path 25"><title
           id="title25">Stitch 25</title></path><title
         id="title83">Stitch 25</title></symbol><symbol
       id="symbol83"><path
         style="fill:none;fill-rule:evenodd;stroke:#ec005e;stroke-width:0.17595;stroke-miterlimit:2.3"
         d="m 16.265094,34.660182 4.063549,-2.19358 -0.156291,0.62674 -0.15629,-0.94011 -0.15629,1.09679 -0.156291,-1.09679 -0.15629,1.09679 -0.15629,-1.09679 -0.156291,1.09679 -0.15629,-0.9401 -0.15629,0.9401 -1.406613,1.41016 1.406613,1.8802 h 1.406613 l -0.156291,0.47005 -0.15629,-0.62673 -0.15629,0.78342 -0.156291,-0.9401 -0.15629,0.9401 -0.15629,-0.9401 -0.156291,0.9401 -0.15629,-0.78342 -2.500645,-0.9401 0.15629,-1.72353 0.15629,2.50695 0.156291,-3.13368 0.15629,3.44704 0.15629,-3.60373 0.156291,3.76042 0.15629,-3.9171 0.15629,4.07378 0.156291,-4.07378 0.15629,3.9171 0.15629,-3.60373 0.156291,3.13368 0.15629,-2.66363 0.15629,1.88021 2.031775,0.31337 -0.156291,-0.62674 -0.15629,0.78342 -0.15629,-0.94011 -0.156291,0.94011 -0.15629,-0.94011 -0.15629,0.94011 -0.156291,-0.78342 -0.15629,0.62674 v -1.41016 l 0.15629,-0.62674 0.156291,0.94011 0.15629,-1.09679 0.156983,1.09679 0.155598,-1.09679 0.15629,0.9401 0.15629,-0.78342 0.156291,0.62674 0.468871,0.31337"
         id="path26"
         sodipodi:nodetypes="cccccccccccccccccccccccccccccccccccccccccccccccccccccccc"
         inkstitch:stroke_method="manual_stitch"
         inkstitch:ties="3"
         inkscape:label="#path 26"><title
           id="title26">Stitch 26</title></path><title
         id="title84">Stitch 26</title></symbol><symbol
       id="symbol84"><path
         style="fill:none;fill-rule:evenodd;stroke:#ec005e;stroke-width:0.17595;stroke-miterlimit:2.3"
         d="m 25.487788,34.687542 h 2.032438 l -1.476694,2.05348 h 0.751579 l -0.952704,-0.56245 1.323199,0.18041 -1.328492,-0.74286 1.69899,0.37143 -1.323202,-0.75878 1.497867,0.20694 -0.93683,-0.56245 0.746287,-0.18572 2.048319,1.86777 -0.75158,-0.005 0.746285,-0.55715 -1.296734,0.18041 1.116782,-0.74286 -1.302032,0.38735 0.94741,-0.57307 -0.957998,0.19633 0.39167,-0.38204 -0.942122,-0.37143 -1.481987,-1.86246 0.746285,0.005 -0.746285,0.74817 1.127367,-0.36082 -0.942116,0.91796 1.307321,-0.56245 -0.746287,0.75348 0.926245,-0.18572 -0.190543,0.54653 2.043024,-1.85715 -0.75687,-0.19633 0.767458,0.75878 -1.12737,-0.37673 0.93683,0.9498 -1.307327,-0.57837 0.936831,0.92857 -1.122076,-0.37143 0.434008,0.56776 -0.804508,0.1751 h 2.985149"
         id="path27"
         sodipodi:nodetypes="cccccccccccccccccccccccccccccccccccccccccc"
         inkstitch:stroke_method="manual_stitch"
         inkstitch:ties="3"
         inkscape:label="#path 27"><title
           id="title27">Stitch 27</title></path><title
         id="title85">Stitch 27</title></symbol><symbol
       id="symbol85"><path
         style="fill:none;fill-rule:evenodd;stroke:#ec005e;stroke-width:0.17595;stroke-miterlimit:2.3"
         d="m 34.660968,34.692092 1.250325,-2.50695 -1.250323,2.50694 1.250317,2.50695 -0.01548,-2.50694 -1.234845,-1e-5 1.242315,1e-5 h 1.258335 -1.258335 l 0.008,-2.50695 1.250317,2.50695 -1.250323,2.50694 1.250323,-2.50694"
         id="path28"
         sodipodi:nodetypes="ccccccccccccc"
         inkstitch:stroke_method="manual_stitch"
         inkstitch:ties="3"
         inkscape:label="#path 28"><title
           id="title28">Stitch 28</title></path><title
         id="title86">Stitch 28</title></symbol><symbol
       id="symbol86"><path
         style="fill:none;fill-rule:evenodd;stroke:#ec005e;stroke-width:0.17595;stroke-miterlimit:2.3"
         d="m 43.950152,37.204882 h 2.500645 v -2.50695 h -2.500645 v -2.50694 h 2.500645 2.500646 v 2.50694 h -2.500646 v 2.50695 h 2.500646"
         id="path29"
         sodipodi:nodetypes="ccccccccccc"
         inkstitch:stroke_method="manual_stitch"
         inkstitch:ties="3"
         inkscape:label="#path 29"><title
           id="title29">Stitch 29</title></path><title
         id="title87">Stitch 29</title></symbol><symbol
       id="symbol87"><path
         style="fill:none;fill-rule:evenodd;stroke:#ec005e;stroke-width:0.17595;stroke-miterlimit:2.3"
         d="m 54.094864,32.959122 1.094032,1.72352 -1.094032,-1.72352 1.094032,1.72352 1.094032,1.72353 -1.094032,-1.72353 1.094032,1.72353 v -2.19358 -1.25347 1.25347 l 0.625163,-0.62674 -0.625163,0.62674 -0.62516,-0.62674 0.62516,0.62674 v 2.19358 l 1.094036,-1.72353 -1.094036,1.72353 1.094036,-1.72353 1.094028,-1.72352 -1.094028,1.72352 1.094028,-1.72352 v 2.19358 1.25347 -1.25347 l -0.62516,0.78342 0.62516,-0.78342 0.625163,0.78342 -0.625163,-0.78342 v -2.19358"
         id="path30"
         sodipodi:nodetypes="ccccccccccccccccccccccccccccc"
         inkstitch:stroke_method="manual_stitch"
         inkstitch:ties="3"
         inkscape:label="#path 30"><title
           id="title30">Stitch 30</title></path><title
         id="title88">Stitch 30</title></symbol><symbol
       id="symbol88"><path
         style="fill:none;fill-rule:evenodd;stroke:#ec005e;stroke-width:0.17595;stroke-miterlimit:2.3"
         d="m 6.1997082,40.558972 1.007459,0.0564 2.667574,0.76409 -3.05395,-2.05348 2.164756,2.95552 -0.762159,-3.4543 -0.762166,3.4596 2.043021,-2.95021 -2.948093,1.91552 3.4456178,-0.64735 -3.4350318,-0.75878 2.926922,2.04287 -2.032436,-2.9343 0.762166,3.44899 0.762159,-3.4543 -2.037728,2.95022 2.9428,-1.93144 -3.45091,0.64204 3.345056,0.10082 1.4078888,-0.15189"
         id="path31"
         sodipodi:nodetypes="cccccccccccccccccccc"
         inkstitch:stroke_method="manual_stitch"
         inkstitch:ties="3"
         inkscape:label="#path 31"><title
           id="title31">Stitch 31</title></path><title
         id="title89">Stitch 31</title></symbol><symbol
       id="symbol89"><path
         style="fill:none;fill-rule:evenodd;stroke:#ec005e;stroke-width:0.17595;stroke-miterlimit:2.3"
         d="m 17.0759,39.279222 1.250322,2.50694 0.625162,1.25348 -0.625162,-1.25348 -0.625161,1.25348 0.625161,-1.25348 h -0.937742 0.937742 0.937742 -0.937742 l 1.250323,-2.50694 h -0.937742 0.937742 0.937742 -0.937742 l 0.625161,-1.25347 -0.625161,1.25347 -0.625161,-1.25347 0.625161,1.25347"
         id="path32"
         inkstitch:stroke_method="manual_stitch"
         inkstitch:ties="3"
         inkscape:label="#path 32"><title
           id="title32">Stitch 32</title></path><title
         id="title90">Stitch 32</title></symbol><symbol
       id="symbol90"><path
         style="fill:none;fill-rule:evenodd;stroke:#ec005e;stroke-width:0.17595;stroke-miterlimit:2.3"
         d="m 25.390311,41.159272 1.5629,-0.31337 -1.5629,0.31337 1.5629,0.62674 -1.5629,-0.62674 1.593309,1.91062 -1.593309,-1.91062 1.71919,-1.56684 1.719193,-1.56684 -1.719193,1.56684 1.719193,-0.62674 -1.719193,0.62674 1.719193,0.31337 -1.719193,-0.31337 1.875484,1.56684"
         id="path33"
         sodipodi:nodetypes="ccccccccccccccc"
         inkstitch:stroke_method="manual_stitch"
         inkstitch:ties="3"
         inkscape:label="#path 33"><title
           id="title33">Stitch 33</title></path><title
         id="title91">Stitch 33</title></symbol><symbol
       id="symbol91"><path
         style="fill:none;fill-rule:evenodd;stroke:#ec005e;stroke-width:0.17595;stroke-miterlimit:2.3"
         d="m 35.132575,39.857592 0.36539,0.69026 0.341381,0.62674 v 0 l 0.28642,0.62673 0.312581,0.62674 0.281689,0.62673 -0.281689,-0.62673 -0.312581,-0.62674 -0.28642,-0.62673 -0.2674,0.73149 -0.19949,0.52198 -0.239881,0.62673 0.239881,-0.62673 0.19949,-0.52198 0.2674,-0.73149 0.307544,-0.69029 0.302525,-0.62671 0.323648,0.45101 0.391286,0.55262 0.357468,-0.50446 0.357466,-0.49917 0.294393,-0.61001 0.300455,-0.60395 0.307108,-0.60394 -0.307108,0.60394 -0.300455,0.60395 -0.294393,0.61001 -0.223313,-0.60502 -0.24414,-0.58493 -0.22877,-0.61298 0.22877,0.61298 0.24414,0.58493 0.223313,0.60502 0.300336,0.46098 0.377572,0.58112 0.319466,-0.52105 0.319467,-0.52105"
         id="path34"
         sodipodi:nodetypes="cccccccccccccccccccccccccccccccccccccc"
         inkstitch:stroke_method="manual_stitch"
         inkstitch:ties="3"
         inkscape:label="#path 34"><title
           id="title34">Stitch 34</title></path><title
         id="title92">Stitch 34</title></symbol><symbol
       id="symbol92"><path
         style="fill:none;fill-rule:evenodd;stroke:#ec005e;stroke-width:0.17595;stroke-miterlimit:2.3"
         d="m 43.949809,40.543892 h 1.249779 l -0.780907,-0.7877 0.780907,0.7877 -0.780907,0.77914 0.780907,-0.77914 h 1.250866 l -0.78145,1.09251 -1.094032,0.15668 1.094032,-0.15668 0.156287,1.09679 -0.156287,-1.09679 -0.781454,0.9401 0.781454,-0.9401 0.78145,-1.09251 0.781451,1.09251 -0.156291,1.09679 0.156291,-1.09679 1.094032,0.15668 -1.094032,-0.15668 0.781454,0.9401 -0.781454,-0.9401 -0.781451,-1.09251 -0.78145,-1.10107 -1.094032,-0.15668 1.094032,0.15668 0.156287,-1.09678 -0.156287,1.09678 -0.781454,-0.9401 0.781454,0.9401 0.78145,1.10107 0.781451,-1.10107 0.781454,-0.9401 -0.781454,0.9401 1.094032,-0.15668 -1.094032,0.15668 -0.156291,-1.09678 0.156291,1.09678 -0.781451,1.10107 h 1.231115 l 0.800658,-0.7877 -0.800658,0.7877 0.800658,0.77914 -0.800658,-0.77914 H 48.9511"
         id="path35"
         sodipodi:nodetypes="ccccccccccccccccccccccccccccccccccccccccccccc"
         inkstitch:stroke_method="manual_stitch"
         inkstitch:ties="3"
         inkscape:label="#path 35"><title
           id="title35">Stitch 35</title></path><title
         id="title93">Stitch 35</title></symbol><symbol
       id="symbol93"><path
         style="fill:none;fill-rule:evenodd;stroke:#ec005e;stroke-width:0.17595;stroke-miterlimit:2.3"
         d="m 54.147346,41.094612 1.172496,1.41502 h 1.082879 1.12768 -1.12768 -1.082879 l -1.172496,-1.41502 1.125875,-1.17197 1.166837,-1.22386 h -1.097815 -1.172493 1.172493 1.097815 l -1.166837,1.22386 1.23405,1.17197"
         id="path36"
         sodipodi:nodetypes="ccccccccccccccc"
         inkstitch:stroke_method="manual_stitch"
         inkstitch:ties="3"
         inkscape:label="#path 36"><title
           id="title36">Stitch</title></path><title
         id="title94">Stitch</title></symbol><symbol
       id="symbol94"><path
         style="fill:none;fill-rule:evenodd;stroke:#ec005e;stroke-width:0.17595;stroke-miterlimit:2.3"
         d="m 6.6224482,45.148892 1.562904,2.50694 h -0.937742 0.937742 0.937742 -0.937742 l 1.562903,-2.50694 h -0.937742 0.937742 0.9377418 -0.9377418"
         id="path37"
         sodipodi:nodetypes="ccccccccccc"
         inkstitch:stroke_method="manual_stitch"
         inkstitch:ties="3"
         inkscape:label="#path 37"><title
           id="title37">Stitch 37</title></path><title
         id="title95">Stitch 37</title></symbol><symbol
       id="symbol95"><path
         style="fill:none;fill-rule:evenodd;stroke:#ec005e;stroke-width:0.17595;stroke-miterlimit:2.3"
         d="m 16.38637,46.406842 5.001286,2.50695 v -5.01389 l -5.001286,2.50694 h 3.125806"
         id="path38"
         sodipodi:nodetypes="ccccc"
         inkstitch:stroke_method="manual_stitch"
         inkstitch:ties="3"
         inkscape:label="#path 38"><title
           id="title38">Stitch 38</title></path><title
         id="title96">Stitch 38</title></symbol><symbol
       id="symbol96"><path
         style="fill:none;fill-rule:evenodd;stroke:#ec005e;stroke-width:0.17595;stroke-miterlimit:2.3"
         d="m 26.612675,46.406102 h 3.750967 l -5.001289,-2.50694 1.250324,2.50694 -1.250324,2.50695 5.001289,-2.50695"
         id="path39"
         sodipodi:nodetypes="cccccc"
         inkstitch:stroke_method="manual_stitch"
         inkstitch:ties="3"
         inkscape:label="#path 39"><title
           id="title39">Stitch 39</title></path><title
         id="title97">Stitch 39</title></symbol><symbol
       id="symbol97"><path
         style="fill:none;fill-rule:evenodd;stroke:#ec005e;stroke-width:0.17595;stroke-miterlimit:2.3"
         d="m 34.66517,48.449492 -2e-6,-0.78342 v -0.62673 -0.78342 -0.62674 h 0.625161 0.781452 0.625161 0.937732 v 0.47005 0.62674 0.47005 h -0.781442 -0.781451 l 1.97e-4,-0.78342 H 35.29013 l 1.3e-4,0.62674 v 0.62673 0.47005 h 0.781452 0.781453 v -0.62673 -0.62674 -0.47005 h -0.781187 l -1.97e-4,-0.78342 v -0.47005 -0.62674 h 0.625161 0.781452 0.62516 0.78145 v 0.62674 0.62674 0.78341 0.62674 h -0.625159 -0.625161 v 0.62674 0.62673 h 0.625161 0.625171 0.781454"
         id="path40"
         sodipodi:nodetypes="ccccccccccccccccccccccccccccccccccccccccccc"
         inkstitch:stroke_method="manual_stitch"
         inkstitch:ties="3"
         inkscape:label="#path 40"><title
           id="title40">Stitch 40</title></path><title
         id="title98">Stitch 40</title></symbol><symbol
       id="symbol98"><path
         style="fill:none;fill-rule:evenodd;stroke:#ec005e;stroke-width:0.17595;stroke-miterlimit:2.3"
         d="m 43.925493,46.396542 0.151798,-0.71108 0.314379,-0.49527 0.434137,-0.33017 0.48654,-0.19511 h 0.531443 l 0.471568,0.19511 0.464076,0.33017 0.321867,0.49527 0.09731,0.71108 h -0.82337 -0.898221 l 0.119766,0.39201 0.359286,0.51027 0.471568,0.40522 0.546411,0.22512 h 0.508996 l 0.49402,-0.22512 0.4566,-0.42022 0.321855,-0.49527 0.119766,-0.39201 h -0.800915 -0.883249"
         id="path41"
         sodipodi:nodetypes="ccccccccccccccccccccccc"
         inkstitch:stroke_method="manual_stitch"
         inkstitch:ties="3"
         inkscape:label="#path 41"><title
           id="title41">Stitch 41</title></path><title
         id="title99">Stitch 41</title></symbol><symbol
       id="symbol99"><path
         style="fill:none;fill-rule:evenodd;stroke:#ec005e;stroke-width:0.17595;stroke-miterlimit:2.3"
         d="m 54.085559,45.445472 h 5.001287 l -4.063546,3.44704 1.562901,-5.01388 1.562904,5.01388 -4.063546,-3.44704 h 5.001287"
         id="path42"
         sodipodi:nodetypes="ccccccc"
         inkstitch:stroke_method="manual_stitch"
         inkstitch:ties="3"
         inkscape:label="#path 42"><title
           id="title42">Stitch 42</title></path><title
         id="title100">Stitch 42</title></symbol><symbol
       id="symbol100"><path
         style="fill:none;fill-rule:evenodd;stroke:#ec005e;stroke-width:0.17595;stroke-miterlimit:2.3"
         d="m 6.1342462,52.259012 h 0.937742 -0.937742 0.937742 1.094038 -1.098819 1.098819 l -0.781457,-0.78341 -0.781452,-0.78343 0.781452,0.78343 0.781457,0.78341 -2e-6,-1.09678 -2e-6,-0.94011 v 0.94011 l 4e-6,1.09678 0.781446,-0.78341 0.781451,-0.78343 -0.781451,0.78343 -0.781446,0.78341 0.781446,0.78343 0.781451,0.78341 -0.781451,-0.78341 -0.781446,-0.78343 v 1.09679 0.94011 -0.94011 -1.09679 l -0.781451,0.78343 -0.781452,0.78341 0.781452,-0.78341 0.781451,-0.78343 0.781452,-0.78341 0.781451,-0.78343 -0.781451,0.78343 -0.781452,0.78341 h 1.094032 -1.094032 1.094032 l 0.9386398,-0.002 -0.9386398,0.002 H 10.1978 l 0.468871,-0.62673 0.468871,0.62673 -0.468871,0.62674 0.468871,-0.62674 -0.468871,0.62674 -0.473252,-0.62902 0.473252,0.62902 -0.473252,-0.62902 0.473252,-0.62445 0.468871,0.62673"
         id="path43"
         sodipodi:nodetypes="ccccccccccccccccccccccccccccccccccccccccccccccccccc"
         inkstitch:stroke_method="manual_stitch"
         inkstitch:ties="3"
         inkscape:label="#path 43"><title
           id="title43">Stitch 43</title></path><title
         id="title101">Stitch 43</title></symbol><symbol
       id="symbol101"><path
         style="fill:none;fill-rule:evenodd;stroke:#ec005e;stroke-width:0.17595;stroke-miterlimit:2.3"
         d="m 16.454683,52.298382 h 1.245635 l 3.267604,0.9401 -3.750967,-2.50694 2.656935,3.60373 -0.937742,-4.23047 -0.937742,4.23047 2.500645,-3.60373 -3.594677,2.35026 4.220362,-0.78342 -4.220362,-0.94011 3.594677,2.50695 -2.500645,-3.60373 0.937744,4.22899 0.93774,-4.22899 -2.500645,3.60373 3.594677,-2.35026 -4.220313,0.78342 4.220313,0.47005 0.468873,-0.47005"
         id="path44"
         sodipodi:nodetypes="cccccccccccccccccccc"
         inkstitch:stroke_method="manual_stitch"
         inkstitch:ties="3"
         inkscape:label="#path 44"><title
           id="title44">Stitch 44</title></path><title
         id="title102">Stitch 44</title></symbol><symbol
       id="symbol102"><path
         style="fill:none;fill-rule:evenodd;stroke:#ec005e;stroke-width:0.17595;stroke-miterlimit:2.3"
         d="m 25.352377,54.750642 2.500645,-5.01389 -1.562903,5.01389 1.875484,-5.01389 -1.562903,5.01389 2.813225,-5.01389 -1.562903,5.01389 1.875484,-5.01389 -1.562903,5.01389"
         id="path45"
         sodipodi:nodetypes="ccccccccc"
         inkstitch:stroke_method="manual_stitch"
         inkstitch:ties="3"
         inkscape:label="#path 45"><title
           id="title45">Stitch 45</title></path><title
         id="title103">Stitch 45</title></symbol><symbol
       id="symbol103"><path
         style="fill:none;fill-rule:evenodd;stroke:#ec005e;stroke-width:0.17595;stroke-miterlimit:2.3"
         d="m 34.618323,52.411922 0.137614,-0.53592 0.206418,-0.53061 0.291106,-0.50408 0.428715,-0.20695 0.46577,0.0212 0.370497,0.19632 0.291101,0.56776 0.111148,0.51469 0.06881,0.53593 -0.03705,0.6951 -0.142906,0.50409 -0.370496,0.39796 -0.45518,0.19633 -0.508111,0.0159 0.01587,-0.56776 0.07939,-0.50939 0.174665,-0.47755 0.35991,-0.20164 0.471059,-0.0796 0.439306,0.0318 -0.423426,0.46694 -0.434014,0.47225 0.439306,-0.48286 0.402256,-0.46163 0.428715,-0.49878 0.550453,-0.47755 -0.561041,0.49347 -0.42342,0.48816 0.508109,-0.0212 0.481646,-0.0531 0.423427,-0.23878 0.190538,-0.38204 0.06881,-0.57306 0.04763,-0.56776 h -0.50282 l -0.465766,0.20694 -0.444599,0.37143 -0.201125,0.53592 -0.105854,0.71633 0.201125,0.6898 0.243468,0.52 0.328158,0.37674 0.402255,0.22816 0.381083,-0.0159 0.396954,-0.22285 0.338746,-0.5147 0.211709,-0.58367 0.0688,-0.53593"
         id="path46"
         sodipodi:nodetypes="ccccccccccccccccccccccccccccccccccccccccccccccccc"
         inkstitch:stroke_method="manual_stitch"
         inkstitch:ties="3"
         inkscape:label="#path 46"><title
           id="title46">Stitch 46</title></path><title
         id="title104">Stitch 46</title></symbol><symbol
       id="symbol104"><path
         style="fill:none;fill-rule:evenodd;stroke:#ec005e;stroke-width:0.17595;stroke-miterlimit:2.3"
         d="m 43.880519,52.264732 h 0.523959 l 0.628754,-0.0825 0.868281,-0.21762 0.688637,-0.3827 0.673661,-0.66036 0.209588,-0.42023 h -0.56139 l -0.726064,0.10506 -0.553899,0.19511 -0.434141,0.24763 -0.381746,0.33018 -0.314371,0.39771 -0.09731,0.48776 h 1.31739 l 1.010495,0.0975 0.98056,0.3752 0.711089,0.58531 0.336834,0.57031 -0.726064,0.03 -0.823363,-0.19511 -0.770975,-0.42022 -0.426657,-0.3602 -0.299407,-0.68286 h 3.1812"
         id="path47"
         sodipodi:nodetypes="ccccccccccccccccccccccccc"
         inkstitch:stroke_method="manual_stitch"
         inkstitch:ties="3"
         inkscape:label="#path 47"><title
           id="title47">Stitch 47</title></path><title
         id="title105">Stitch 47</title></symbol><symbol
       id="symbol105"><path
         style="fill:none;fill-rule:evenodd;stroke:#ec005e;stroke-width:0.17595;stroke-miterlimit:2.3"
         d="m 54.094107,54.142852 h 3.125805 l -1.5629,-1.25347 -1.562905,-1.25347 1.562905,-1.25347 h 3.125805 l -1.562905,1.25347 -1.5629,1.25347 1.5629,1.25347"
         id="path48"
         sodipodi:nodetypes="ccccccccc"
         inkstitch:stroke_method="manual_stitch"
         inkstitch:ties="3"
         inkscape:label="#path 48"><title
           id="title48">Stitch 48</title></path><title
         id="title106">Stitch 48</title></symbol><symbol
       id="symbol106"><path
         style="fill:none;fill-rule:evenodd;stroke:#ec005e;stroke-width:0.17595;stroke-miterlimit:2.3"
         d="m 6.1914582,60.468772 0.781451,-0.78342 -0.781449,0.78342 0.781449,-0.78342 0.781452,-0.78342 -0.781452,0.78342 0.781452,-0.78342 0.937742,-0.78342 -0.937742,0.78342 0.937744,0.78362 0.937739,-0.78362 -0.937739,0.78342 -0.937744,-0.78342 0.937742,-0.78342 -0.937742,-0.78342 -0.93774,0.78342 0.93774,0.78342 -0.93774,-0.78342 0.93774,-0.78342 -0.781452,-0.78342 -0.781449,-0.78342 0.781449,0.78342 0.781452,0.78342 0.937742,0.78342 0.937741,-0.78342 -0.937739,-0.78342 -0.937744,0.78342 0.937742,-0.78342 0.937741,0.78342 0.7814518,-0.78342 0.781454,-0.78342 -0.781454,0.78342 -0.7814518,0.78342 0.9377438,0.78342 -0.9377438,0.78342 0.9377578,-0.78342 -0.9377578,-0.78342 -0.937741,0.78342 0.937741,0.78342 -0.937741,-0.78342 0.937741,0.78342 0.7814518,0.78342 -0.7814518,-0.78342 0.7814518,0.78342 0.781452,0.78342 -0.781452,-0.78342 0.781452,0.78342"
         id="path49"
         sodipodi:nodetypes="ccccccccccccccccccccccccccccccccccccccccccccccc"
         inkstitch:stroke_method="manual_stitch"
         inkstitch:ties="3"
         inkscape:label="#path 49"><title
           id="title49">Stitch 49</title></path><title
         id="title107">Stitch 49</title></symbol><symbol
       id="symbol107"><path
         style="fill:none;fill-rule:evenodd;stroke:#ec005e;stroke-width:0.17595;stroke-miterlimit:2.3"
         d="m 17.063652,60.614232 1.875484,-5.01389 -0.937742,5.01389 1.250322,-5.01389 -0.937742,5.01389 2.188065,-5.01389 -0.937742,5.01389 1.250322,-5.01389 -0.937741,5.01389"
         id="path50"
         sodipodi:nodetypes="ccccccccc"
         inkstitch:stroke_method="manual_stitch"
         inkstitch:ties="3"
         inkscape:label="#path 50"><title
           id="title50">Stitch 50</title></path><title
         id="title108">Stitch 50</title></symbol><symbol
       id="symbol108"><path
         style="fill:none;fill-rule:evenodd;stroke:#ec005e;stroke-width:0.17595;stroke-miterlimit:2.3"
         d="m 25.534012,58.096132 h 1.566321 l -1.09745,-0.47005 0.312581,-0.31337 -0.468871,-0.15668 -0.342915,-0.45274 0.655495,-0.0173 0.156291,-0.62674 0.46887,0.31337 0.15629,-0.31337 0.312581,0.47005 0.312581,1.09679 0.15629,-1.25347 0.312581,-0.31337 0.31258,0.31337 0.468871,-0.31337 v 0.62674 l 0.625161,0.15668 -0.15629,0.31337 -0.468871,0.15668 0.312581,0.31337 -1.262763,0.47005 1.106472,0.47005 -0.15629,0.31337 0.468871,0.31337 -0.468871,0.31336 -0.15629,0.62674 -0.312581,-0.31337 -0.31258,0.31337 -0.312581,-0.62674 -0.15629,-0.9401 -0.312581,1.09679 -0.312581,0.47005 -0.31258,-0.31337 -0.31258,0.31337 -0.156291,-0.47005 -0.468871,-0.15669 0.156291,-0.47005 0.468871,-0.15668 -0.312581,-0.15668 0.625161,-0.31337 0.484944,-0.31337 h 0.296507 l -0.937742,-1.25347 0.937742,1.25347 -0.937742,1.25347 1.109448,-1.25347 0.922327,1.25347 -0.922327,-1.25347 0.766036,-1.25347 -0.625161,1.25347 h 2.656935"
         id="path51"
         sodipodi:nodetypes="cccccccccccccccccccccccccccccccccccccccccccccccccccc"
         inkstitch:stroke_method="manual_stitch"
         inkstitch:ties="3"
         inkscape:label="#path 51"><title
           id="title51">Stitch 51</title></path><title
         id="title109">Stitch 51</title></symbol><symbol
       id="symbol109"><path
         style="fill:none;fill-rule:evenodd;stroke:#ec005e;stroke-width:0.17595;stroke-miterlimit:2.3"
         d="m 34.665232,58.562962 0.343433,0.33024 0.616779,-0.0211 1.100388,-0.63239 0.939185,-0.46375 h 0.770973 l 0.609766,-0.63238 0.3154,0.007 0.161205,-0.77994 -0.806014,0.31619 -0.301382,-0.31619 -0.476602,0.63238 -0.448568,-0.4778 -0.644812,0.80102 -0.469596,-0.49888 -0.469589,0.80102 -0.280354,1.24369 0.777982,0.78697 0.315398,-0.48483 0.777982,0.49888 -0.007,-0.96965 0.784994,0.63941 0.147183,-0.77995 0.490619,0.17567 0.273345,-0.49186 -0.14018,-0.6113 0.3154,-0.48483 -0.3154,0.48483 0.14018,0.6113 0.511648,0.31619"
         id="path52"
         sodipodi:nodetypes="cccccccccccccccccccccccccccccc"
         inkstitch:stroke_method="manual_stitch"
         inkstitch:ties="3"
         inkscape:label="#path 52"><title
           id="title52">Stitch 52</title></path><title
         id="title110">Stitch 52</title></symbol><symbol
       id="symbol110"><path
         style="fill:none;fill-rule:evenodd;stroke:#ec005e;stroke-width:0.17595;stroke-miterlimit:2.3"
         d="m 43.866792,56.235072 h 2.565234 v 0.83615 l -0.742935,-0.33727 0.140176,0.33727 -1.338687,0.007 0.378475,0.36538 -0.679856,0.54103 0.595752,0.007 -0.007,0.60428 1.226555,-0.81507 -0.399504,1.24369 0.602759,-0.007 0.217273,0.84318 0.189238,-0.85724 0.60977,-0.0281 -0.35745,-1.20153 1.177486,0.80102 -0.01403,-0.61833 0.658831,0.0211 -0.714903,-0.52698 0.371472,-0.39349 -1.317663,0.007 0.07009,-0.32322 -0.672853,0.32322 0.007,-0.82913 h 2.446095"
         id="path53"
         sodipodi:nodetypes="ccccccccccccccccccccccccccc"
         inkstitch:stroke_method="manual_stitch"
         inkstitch:ties="3"
         inkscape:label="#path 53"><title
           id="title53">Stitch 53</title></path><title
         id="title111">Stitch 53</title></symbol><symbol
       id="symbol111"><path
         style="fill:none;fill-rule:evenodd;stroke:#ec005e;stroke-width:0.17595;stroke-miterlimit:2.3"
         d="m 54.035107,58.128812 h 2.537202 l 1.569974,-0.96965 0.3154,-0.94858 -0.623784,-0.63239 H 57.2031 l -0.637806,0.63239 -0.616773,-0.63239 h -0.651824 l -0.616777,0.63239 0.308392,0.94858 1.583997,0.96965 h 2.530187"
         id="path54"
         sodipodi:nodetypes="ccccccccccccc"
         inkstitch:stroke_method="manual_stitch"
         inkstitch:ties="3"
         inkscape:label="#path 54"><title
           id="title54">Stitch 54</title></path><title
         id="title112">Stitch 54</title></symbol><symbol
       id="symbol112"><path
         style="fill:none;fill-rule:evenodd;stroke:#ec005e;stroke-width:0.17595;stroke-miterlimit:2.3"
         d="m 16.578172,63.756522 0.317185,0.93904 0.773136,0.60616 1.085362,0.15403 -0.624452,-0.77509 0.77809,0.15402 h 0.629413 l -0.332054,-0.31301 h 0.634366 l 0.763228,-0.76515 -0.77809,-0.78005 -0.609591,0.005 0.307273,-0.31301 H 18.89758 l -0.773137,0.15402 0.629412,-0.78005 -1.095272,0.15402 -0.773137,0.631 -0.307274,0.9291 h 1.699909 2.324365 0.619499"
         id="path55"
         sodipodi:nodetypes="cccccccccccccccccccccc"
         inkstitch:stroke_method="manual_stitch"
         inkstitch:ties="3"
         inkscape:label="#path 55"><title
           id="title55">Stitch 55</title></path><title
         id="title113">Stitch 55</title></symbol><symbol
       id="symbol113"><path
         style="fill:none;fill-rule:evenodd;stroke:#ec005e;stroke-width:0.17595;stroke-miterlimit:2.3"
         d="m 25.382992,64.134552 0.465865,0.65087 1.095276,0.60616 h 0.931725 l 0.926776,-0.31799 0.619498,-0.78005 -0.0049,-0.93904 -0.302316,-0.4571 -0.302318,-0.14906 -0.31718,0.14906 -0.163554,0.94897 -0.143719,-0.94897 -0.32214,-0.14906 -0.317186,0.14906 -0.13877,0.94897 -0.163548,-0.94897 -0.312226,-0.14906 -0.307272,0.14906 -0.322141,0.47697 0.0049,0.92911 0.634373,0.77011 0.931724,0.31799 h 0.926777 l 1.085362,-0.60616 0.47082,-0.65087"
         id="path56"
         sodipodi:nodetypes="ccccccccccccccccccccccccc"
         inkstitch:stroke_method="manual_stitch"
         inkstitch:ties="3"
         inkscape:label="#path 56"><title
           id="title56">Stitch 56</title></path><title
         id="title114">Stitch 56</title></symbol><symbol
       id="symbol114"><path
         style="fill:none;fill-rule:evenodd;stroke:#ec005e;stroke-width:0.17595;stroke-miterlimit:2.3"
         d="m 34.834449,65.478352 0.555074,-0.01 h 0.560024 l 0.520384,-0.0745 0.406393,-0.25339 0.312226,-0.46705 0.22302,-0.50181 0.267622,-0.38754 0.356834,-0.38257 0.356834,-0.30805 0.45595,-0.12918 0.366739,-0.0646 -0.05947,0.55647 -0.252758,0.49188 -0.312227,0.34282 -0.460912,0.25836 -0.416299,0.12918 -0.525338,-0.005 -0.42126,-0.38754 -0.262666,-0.59622 0.0099,-0.67571 0.178416,-0.47201 0.396482,-0.43722 0.386569,0.36269 0.213108,0.50182 0.01982,0.65584 -0.227974,0.58628 -0.2924,0.46207 -0.371704,0.15899 -0.416307,0.10931 -0.460904,0.005 -0.450996,-0.20867 -0.366746,-0.27824 -0.277535,-0.39748 0.550115,-0.19377 0.52038,-0.0795 0.51047,0.14905 0.45595,0.32792 0.307277,0.40741 0.297354,0.20868 0.3717,0.19874 0.426217,0.20371 0.485688,0.10931 0.525335,0.0696 0.550116,0.0149"
         id="path57"
         sodipodi:nodetypes="ccccccccccccccccccccccccccccccccccccccccccccc"
         inkstitch:stroke_method="manual_stitch"
         inkstitch:ties="3"
         inkscape:label="#path 57"><title
           id="title57">Stitch 57</title></path><title
         id="title115">Stitch 57</title></symbol><symbol
       id="symbol115"><path
         style="fill:none;fill-rule:evenodd;stroke:#ec005e;stroke-width:0.17595;stroke-miterlimit:2.3"
         d="m 43.98147,66.244222 h 2.502159 v -1.09613 h -1.871364 l 1.1074,-1.39125 h -0.630799 l 0.932177,-1.0891 h -0.623788 l 1.086374,-1.39828 1.086367,1.39828 h -0.630795 l 0.946195,1.0891 H 47.24759 l 1.100388,1.39125 h -1.864349 v 1.09613 h 2.481126"
         id="path58"
         sodipodi:nodetypes="ccccccccccccccccc"
         inkstitch:stroke_method="manual_stitch"
         inkstitch:ties="3"
         inkscape:label="#path 58"><title
           id="title58">Stitch 58</title></path><title
         id="title116">Stitch 58</title></symbol></defs><use
     xlink:href="#symbol58"
     id="use59" /><use
     xlink:href="#symbol59"
     id="use60" /><use
     xlink:href="#symbol60"
     id="use61" /><use
     xlink:href="#symbol61"
     id="use62" /><use
     xlink:href="#symbol62"
     id="use63" /><use
     xlink:href="#symbol63"
     id="use64" /><use
     xlink:href="#symbol64"
     id="use65" /><use
     xlink:href="#symbol65"
     id="use66" /><use
     xlink:href="#symbol66"
     id="use67" /><use
     xlink:href="#symbol67"
     id="use68" /><use
     xlink:href="#symbol68"
     id="use69" /><use
     xlink:href="#symbol69"
     id="use70" /><use
     xlink:href="#symbol70"
     id="use71" /><use
     xlink:href="#symbol71"
     id="use72" /><use
     xlink:href="#symbol72"
     id="use73" /><use
     xlink:href="#symbol73"
     id="use74" /><use
     xlink:href="#symbol74"
     id="use75" /><use
     xlink:href="#symbol75"
     id="use76" /><use
     xlink:href="#symbol76"
     id="use77" /><use
     xlink:href="#symbol77"
     id="use78" /><use
     xlink:href="#symbol78"
     id="use79" /><use
     xlink:href="#symbol79"
     id="use80" /><use
     xlink:href="#symbol80"
     id="use81" /><use
     xlink:href="#symbol81"
     id="use82" /><use
     xlink:href="#symbol82"
     id="use83" /><use
     xlink:href="#symbol83"
     id="use84" /><use
     xlink:href="#symbol84"
     id="use85" /><use
     xlink:href="#symbol85"
     id="use86" /><use
     xlink:href="#symbol86"
     id="use87" /><use
     xlink:href="#symbol87"
     id="use88" /><use
     xlink:href="#symbol88"
     id="use89" /><use
     xlink:href="#symbol89"
     id="use90" /><use
     xlink:href="#symbol90"
     id="use91" /><use
     xlink:href="#symbol91"
     id="use92" /><use
     xlink:href="#symbol92"
     id="use93" /><use
     xlink:href="#symbol93"
     id="use94" /><use
     xlink:href="#symbol94"
     id="use95" /><use
     xlink:href="#symbol95"
     id="use96" /><use
     xlink:href="#symbol96"
     id="use97" /><use
     xlink:href="#symbol97"
     id="use98" /><use
     xlink:href="#symbol98"
     id="use99" /><use
     xlink:href="#symbol99"
     id="use100" /><use
     xlink:href="#symbol100"
     id="use101" /><use
     xlink:href="#symbol101"
     id="use102" /><use
     xlink:href="#symbol102"
     id="use103" /><use
     xlink:href="#symbol103"
     id="use104" /><use
     xlink:href="#symbol104"
     id="use105" /><use
     xlink:href="#symbol105"
     id="use106" /><use
     xlink:href="#symbol106"
     id="use107" /><use
     xlink:href="#symbol107"
     id="use108" /><use
     xlink:href="#symbol108"
     id="use109" /><use
     xlink:href="#symbol109"
     id="use110" /><use
     xlink:href="#symbol110"
     id="use111" /><use
     xlink:href="#symbol111"
     id="use112" /><use
     xlink:href="#symbol112"
     id="use113" /><use
     xlink:href="#symbol113"
     id="use114" /><use
     xlink:href="#symbol114"
     id="use115" /><use
     xlink:href="#symbol115"
     id="use116" /></svg>
