<?xml version="1.0" encoding="UTF-8" standalone="no"?>
<!-- Created with Inkscape (http://www.inkscape.org/) -->

<svg
   xmlns:dc="http://purl.org/dc/elements/1.1/"
   xmlns:cc="http://creativecommons.org/ns#"
   xmlns:rdf="http://www.w3.org/1999/02/22-rdf-syntax-ns#"
   xmlns:svg="http://www.w3.org/2000/svg"
   xmlns="http://www.w3.org/2000/svg"
   xmlns:sodipodi="http://sodipodi.sourceforge.net/DTD/sodipodi-0.dtd"
   xmlns:inkscape="http://www.inkscape.org/namespaces/inkscape"
   sodipodi:docname="satin_column_rungs_example.svg"
   inkscape:version="0.92.1 unknown"
   version="1.1"
   id="svg8375"
   viewBox="0 0 999.99999 999.99999"
   height="1000"
   width="1000">
  <sodipodi:namedview
     inkscape:window-maximized="1"
     inkscape:window-y="-4"
     inkscape:window-x="-4"
     inkscape:window-height="705"
     inkscape:window-width="1366"
     units="px"
     showgrid="false"
     inkscape:current-layer="embroidery"
     inkscape:document-units="px"
     inkscape:cy="658.03477"
     inkscape:cx="498.16245"
     inkscape:zoom="0.98994949"
     inkscape:pageshadow="2"
     inkscape:pageopacity="0.0"
     borderopacity="1.0"
     bordercolor="#666666"
     pagecolor="#ffffff"
     id="base"
     inkscape:snap-global="false" />
  <defs
     id="defs8377" />
  <metadata
     id="metadata8380">
    <rdf:RDF>
      <cc:Work
         rdf:about="">
        <dc:format>image/svg+xml</dc:format>
        <dc:type
           rdf:resource="http://purl.org/dc/dcmitype/StillImage" />
        <dc:title></dc:title>
      </cc:Work>
    </rdf:RDF>
  </metadata>
  <g
     style="display:inline"
     transform="translate(0,-52.362271)"
     id="layer1"
     inkscape:groupmode="layer"
     inkscape:label="Layer 1">
    <path
       embroider_satin_column="True"
       inkscape:connector-curvature="0"
       d="M 655.589,419.28516 H 812.06055 V 623.13281 H 511.23828 V 419.28516 H 655.589 m 1.01015,20 h 135.4614 V 603.13281 H 531.23828 V 439.28516 h 125.36087"
       style="opacity:1;vector-effect:none;fill:none;fill-opacity:1;fill-rule:evenodd;stroke:#ff0000;stroke-width:0.5;stroke-linecap:butt;stroke-linejoin:miter;stroke-miterlimit:4;stroke-dasharray:none;stroke-dashoffset:0;stroke-opacity:1"
       id="path68100"
       sodipodi:nodetypes="cccccccccccc"
       embroider_zigzag_spacing_mm="" />
    <path
       embroider_satin_column="True"
       inkscape:connector-curvature="0"
       d="M 275.589,419.28516 H 432.06055 V 623.13281 H 131.23828 V 419.28516 H 275.589 m 1.01015,20 h 135.4614 V 603.13281 H 151.23828 V 439.28516 h 125.36087 m 107.7792,-29.69724 v 40.4061 m 3.47879,23.43968 h 65.71429 m -62.14286,97.85714 h 62.5 m -81.07143,19.28572 v 46.07142 M 177.14286,595.21941 v 43.92857 m -2.85714,-65 h -58.92858 m 54.28572,-107.5 h -51.42857 m 63.57143,-18.92857 v -39.64285"
       style="opacity:1;vector-effect:none;fill:none;fill-opacity:1;fill-rule:evenodd;stroke:#ff0000;stroke-width:0.5;stroke-linecap:butt;stroke-linejoin:miter;stroke-miterlimit:4;stroke-dasharray:none;stroke-dashoffset:0;stroke-opacity:1"
       id="path68100-6"
       sodipodi:nodetypes="cccccccccccccc"
       embroider_zigzag_spacing_mm="" />
    <path
       embroider_satin_column="True"
       inkscape:connector-curvature="0"
       d="M 655.589,139.28516 H 812.06055 V 343.13281 H 511.23828 V 139.28516 H 655.589 m 1.01015,20 h 135.4614 V 323.13281 H 531.23828 V 159.28516 h 125.36087"
       style="display:inline;opacity:1;vector-effect:none;fill:none;fill-opacity:1;fill-rule:evenodd;stroke:#5100ff;stroke-width:0.5;stroke-linecap:butt;stroke-linejoin:miter;stroke-miterlimit:4;stroke-dasharray:none;stroke-dashoffset:0;stroke-opacity:1"
       id="path68100-7"
       sodipodi:nodetypes="cccccccccccc"
       embroider_zigzag_spacing_mm="" />
    <path
       embroider_satin_column="True"
       inkscape:connector-curvature="0"
       d="M 275.589,139.28516 H 432.06055 V 343.13281 H 131.23828 V 139.28516 H 275.589 m 1.01015,20 h 135.4614 V 323.13281 H 151.23828 V 159.28516 h 125.36087 m 107.7792,-29.69724 v 40.4061 m 3.47879,23.43968 h 65.71429 m -62.14286,97.85714 h 62.5 m -81.07143,19.28572 v 46.07142 M 177.14286,315.21941 v 43.92857 m -2.85714,-65 h -58.92858 m 54.28572,-107.5 h -51.42857 m 63.57143,-18.92857 v -39.64285"
       style="display:inline;opacity:1;vector-effect:none;fill:none;fill-opacity:1;fill-rule:evenodd;stroke:#5100ff;stroke-width:0.5;stroke-linecap:butt;stroke-linejoin:miter;stroke-miterlimit:4;stroke-dasharray:none;stroke-dashoffset:0;stroke-opacity:1"
       id="path68100-6-5"
       sodipodi:nodetypes="cccccccccccccc"
       embroider_zigzag_spacing_mm="" />
  </g>
  <g
     inkscape:groupmode="layer"
     inkscape:label="Embroidery"
     id="embroidery">
    <path
       id="path69070"
       style="fill:none;stroke:#0000ff;stroke-width:0.40000001"
       d="m 655.589,366.92289 1.01015,20 1.78985,-20 0.63418,20 2.16582,-20 0.25821,20 2.54179,-20 -0.11776,20 2.91776,-20 -0.49373,20 3.29373,-20 -0.86969,20 3.66969,-20 -1.24566,20 4.04566,-20 -1.62163,20 4.42163,-20 -1.9976,20 4.7976,-20 -2.37357,20 5.17357,-20 -2.74954,20 5.54954,-20 -3.12551,20 5.92551,-20 -3.50148,20 6.30148,-20 -3.87744,20 6.67744,-20 -4.25341,20 7.05341,-20 -4.62938,20 7.42938,-20 -5.00535,20 7.80535,-20 -5.38132,20 8.18132,-20 -5.75729,20 8.55729,-20 -6.13326,20 8.93326,-20 -6.50923,20 9.30923,-20 -6.88519,20 9.68519,-20 -7.26116,20 10.06116,-20 -7.63713,20 10.43713,-20 -8.0131,20 10.8131,-20 -8.38907,20 11.18907,-20 -8.76504,20 11.56504,-20 -9.14101,20 11.94101,-20 -9.51698,20 12.31698,-20 -9.89294,20 12.69294,-20 -10.26891,20 13.06891,-20 -10.64488,20 13.44488,-20 -11.02085,20 13.82085,-20 -11.39682,20 14.19682,-20 -11.77279,20 14.57279,-20 -12.14876,20 14.94876,-20 -12.52473,20 15.32473,-20 -12.9007,20 15.7007,-20 -13.27666,20 16.07666,-20 -13.65263,20 16.45263,-20 -14.0286,20 16.8286,-20 -14.40457,20 17.20457,-20 -14.78054,20 17.58054,-20 -15.15651,20 17.95651,-20 -15.53248,20 18.33248,-20 -15.90845,20 18.70845,-20 -16.28441,20 19.08441,-20 -16.66038,20 19.46038,-20 -17.03635,20 19.83635,-20 -17.41232,20 20.21232,-20 -17.78829,20 20.58829,-20 -18.16426,20 20.96426,-20 -18.54023,20 21.34023,-20 -18.9162,20 21.7162,-20 -19.29216,20 22.09216,-20 -19.66813,20 22.13968,-19.67155 -20,19.78451 20,-16.98451 -20,19.23716 20,-16.43716 -20,18.68981 20,-15.88981 -20,18.14246 20,-15.34246 -20,17.59511 20,-14.79511 -20,17.04775 20,-14.24775 -20,16.5004 20,-13.7004 -20,15.95305 20,-13.15305 -20,15.4057 20,-12.6057 -20,14.85835 20,-12.05835 -20,14.31099 20,-11.51099 -20,13.76364 20,-10.96364 -20,13.21629 20,-10.41629 -20,12.66894 20,-9.86894 -20,12.12159 20,-9.32159 -20,11.57423 20,-8.77423 -20,11.02688 20,-8.22688 -20,10.47953 20,-7.67953 -20,9.93218 20,-7.13218 -20,9.38483 20,-6.58483 -20,8.83747 20,-6.03747 -20,8.29012 20,-5.49012 -20,7.74277 20,-4.94277 -20,7.19542 20,-4.39542 -20,6.64807 20,-3.84807 -20,6.10071 20,-3.30071 -20,5.55336 20,-2.75336 -20,5.00601 20,-2.20601 -20,4.45866 20,-1.65866 -20,3.91131 20,-1.11131 -20,3.36395 20,-0.56395 -20,2.8166 20,-0.0166 -20,2.26925 20,0.53075 -20,1.7219 20,1.0781 -20,1.17455 20,1.62545 -20,0.62719 20,2.17281 -20,0.0798 20,2.72016 -20,-0.46751 20,3.26751 -20,-1.01486 20,3.81486 -20,-1.56221 20,4.36221 -20,-2.10957 20,4.90957 -20,-2.65692 20,5.45692 -20,-3.20427 20,6.00427 -20,-3.75162 20,6.55162 -20,-4.29897 20,7.09897 -20,-4.84633 20,7.64633 -20,-5.39368 20,8.19368 -20,-5.94103 20,8.74103 -20,-6.48838 20,9.28838 -20,-7.03573 20,9.83573 -20,-7.58309 20,10.38309 -20,-8.13044 20,10.93044 -20,-8.67779 20,11.47779 -20,-9.22514 20,12.02514 -20,-9.77249 20,12.57249 -20,-10.31985 20,13.11985 -20,-10.8672 20,13.6672 -20,-11.41455 20,14.21455 -20,-11.9619 20,14.7619 -20,-12.50925 20,15.30925 -20,-13.05661 20,15.85661 -20,-13.60396 20,16.40396 -20,-14.15131 20,16.95131 -20,-14.69866 20,17.49866 -20,-15.24601 20,18.04601 -20,-15.79337 20,18.59337 -20,-16.34072 20,19.14072 -20,-16.88807 20,19.68807 -20,-17.43542 20,20.23542 -20,-17.98277 20,20.78277 -20,-18.53013 20,21.33013 -20,-19.07748 20,21.87748 -20,-19.62483 19.1192,21.54403 -20.00175,-20 17.20175,20 -19.62833,-20 16.82833,20 -19.2549,-20 16.4549,20 -18.88148,-20 16.08148,20 -18.50806,-20 15.70806,20 -18.13464,-20 15.33464,20 -17.76121,-20 14.96121,20 -17.38779,-20 14.58779,20 -17.01437,-20 14.21437,20 -16.64095,-20 13.84095,20 -16.26752,-20 13.46752,20 -15.8941,-20 13.0941,20 -15.52068,-20 12.72068,20 -15.14726,-20 12.34726,20 -14.77383,-20 11.97383,20 -14.40041,-20 11.60041,20 -14.02699,-20 11.22699,20 -13.65357,-20 10.85357,20 -13.28014,-20 10.48014,20 -12.90672,-20 10.10672,20 -12.5333,-20 9.7333,20 -12.15988,-20 9.35988,20 -11.78645,-20 8.98645,20 -11.41303,-20 8.61303,20 -11.03961,-20 8.23961,20 -10.66619,-20 7.86619,20 -10.29276,-20 7.49276,20 -9.91934,-20 7.11934,20 -9.54592,-20 6.74592,20 -9.1725,-20 6.3725,20 -8.79907,-20 5.99907,20 -8.42565,-20 5.62565,20 -8.05223,-20 5.25223,20 -7.67881,-20 4.87881,20 -7.30538,-20 4.50538,20 -6.93196,-20 4.13196,20 -6.55854,-20 3.75854,20 -6.18512,-20 3.38512,20 -5.81169,-20 3.01169,20 -5.43827,-20 2.63827,20 -5.06485,-20 2.26485,20 -4.69143,-20 1.89143,20 -4.318,-20 1.518,20 -3.94458,-20 1.14458,20 -3.57116,-20 0.77116,20 -3.19774,-20 0.39774,20 -2.82431,-20 0.0243,20 -2.45089,-20 -0.34911,20 -2.07747,-20 -0.72253,20 -1.70405,-20 -1.09595,20 -1.33062,-20 -1.46938,20 -0.9572,-20 -1.8428,20 -0.58378,-20 -2.21622,20 -0.21036,-20 -2.58964,20 0.16307,-20 -2.96307,20 0.53649,-20 -3.33649,20 0.90991,-20 -3.70991,20 1.28333,-20 -4.08333,20 1.65676,-20 -4.45676,20 2.03018,-20 -4.83018,20 2.4036,-20 -5.2036,20 2.77702,-20 -5.57702,20 3.15045,-20 -5.95045,20 3.52387,-20 -6.32387,20 3.89729,-20 -6.69729,20 4.27071,-20 -7.07071,20 4.64414,-20 -7.44414,20 5.01756,-20 -7.81756,20 5.39098,-20 -8.19098,20 5.7644,-20 -8.5644,20 6.13783,-20 -8.93783,20 6.51125,-20 -9.31125,20 6.88467,-20 -9.68467,20 7.25809,-20 -10.05809,20 7.63152,-20 -10.43152,20 8.00494,-20 -10.80494,20 8.37836,-20 -11.17836,20 8.75178,-20 -11.55178,20 9.12521,-20 -11.92521,20 9.49863,-20 -12.29863,20 9.87205,-20 -12.67205,20 10.24547,-20 -13.04547,20 10.6189,-20 -13.4189,20 10.99232,-20 -13.79232,20 11.36574,-20 -14.16574,20 11.73916,-20 -14.53916,20 12.11258,-20 -14.91258,20 12.48601,-20 -15.28601,20 12.85943,-20 -15.65943,20 13.23285,-20 -16.03285,20 13.60627,-20 -16.40627,20 13.9797,-20 -16.7797,20 14.35312,-20 -17.15312,20 14.72654,-20 -17.52654,20 15.09996,-20 -17.89996,20 15.47339,-20 -18.27339,20 15.84681,-20 -18.64681,20 16.22023,-20 -19.02023,20 16.59365,-20 -19.39365,20 16.96708,-20 -19.76708,20 17.3405,-20 -20.1405,20 17.71392,-20 -20.51392,20 18.08734,-20 -20.88734,20 18.46077,-20 -21.26077,20 18.83419,-20 -21.63419,20 19.20761,-20 -22.00761,20 19.58103,-20 -22.38103,20 19.95446,-20 -20.29593,17.54147 20,-19.49641 -20,16.69641 20,-18.94727 -20,16.14727 20,-18.39814 -20,15.59814 20,-17.849 -20,15.049 20,-17.29987 -20,14.49987 20,-16.75073 -20,13.95073 20,-16.20159 -20,13.40159 20,-15.65246 -20,12.85246 20,-15.10332 -20,12.30332 20,-14.55419 -20,11.75419 20,-14.00505 -20,11.20505 20,-13.45592 -20,10.65592 20,-12.90678 -20,10.10678 20,-12.35765 -20,9.55765 20,-11.80851 -20,9.00851 20,-11.25937 -20,8.45937 20,-10.71024 -20,7.91024 20,-10.1611 -20,7.3611 20,-9.61197 -20,6.81197 20,-9.06283 -20,6.26283 20,-8.5137 -20,5.7137 20,-7.96456 -20,5.16456 20,-7.41543 -20,4.61543 20,-6.86629 -20,4.06629 20,-6.31715 -20,3.51715 20,-5.76802 -20,2.96802 20,-5.21888 -20,2.41888 20,-4.66975 -20,1.86975 20,-4.12061 -20,1.32061 20,-3.57148 -20,0.77148 20,-3.02234 -20,0.22234 20,-2.47321 -20,-0.32679 20,-1.92407 -20,-0.87593 20,-1.37493 -20,-1.42507 20,-0.8258 -20,-1.9742 20,-0.27666 -20,-2.52334 20,0.27247 -20,-3.07247 20,0.82161 -20,-3.62161 20,1.37074 -20,-4.17074 20,1.91988 -20,-4.71988 20,2.46902 -20,-5.26902 20,3.01815 -20,-5.81815 20,3.56729 -20,-6.36729 20,4.11642 -20,-6.91642 20,4.66556 -20,-7.46556 20,5.21469 -20,-8.01469 20,5.76383 -20,-8.56383 20,6.31296 -20,-9.11296 20,6.8621 -20,-9.6621 20,7.41124 -20,-10.21124 20,7.96037 -20,-10.76037 20,8.50951 -20,-11.30951 20,9.05864 -20,-11.85864 20,9.60778 -20,-12.40778 20,10.15691 -20,-12.95691 20,10.70605 -20,-13.50605 20,11.25518 -20,-14.05518 20,11.80432 -20,-14.60432 20,12.35346 -20,-15.15346 20,12.90259 -20,-15.70259 20,13.45173 -20,-16.25173 20,14.00086 -20,-16.80086 20,14.55 -20,-17.35 20,15.09913 -20,-17.89913 20,15.64827 -20,-18.44827 20,16.1974 -20,-18.9974 20,16.74654 -20,-19.54654 20,17.29568 -20,-20.09568 20,17.84481 -20,-20.64481 20,18.39395 -20,-21.19395 20,18.94308 -20,-21.74308 20,19.49222 -19.78912,-22.08134 20.13625,20 -17.33625,-20 19.76471,20 -16.96471,-20 19.39317,20 -16.59317,-20 19.02164,20 -16.22164,-20 18.6501,20 -15.8501,-20 18.27857,20 -15.47857,-20 17.90703,20 -15.10703,-20 17.5355,20 -14.7355,-20 17.16396,20 -14.36396,-20 16.79243,20 -13.99243,-20 16.42089,20 -13.62089,-20 16.04936,20 -13.24936,-20 15.67782,20 -12.87782,-20 15.30628,20 -12.50628,-20 14.93475,20 -12.13475,-20 14.56321,20 -11.76321,-20 14.19168,20 -11.39168,-20 13.82014,20 -11.02014,-20 13.44861,20 -10.64861,-20 13.07707,20 -10.27707,-20 12.70554,20 -9.90554,-20 12.334,20 -9.534,-20 11.96247,20 -9.16247,-20 11.59093,20 -8.79093,-20 11.2194,20 -8.4194,-20 10.84786,20 -8.04786,-20 10.47632,20 -7.67632,-20 10.10479,20 -7.30479,-20 9.73325,20 -6.93325,-20 9.36172,20 -6.56172,-20 8.99018,20 -6.19018,-20 8.61865,20 -5.81865,-20 8.24711,20 -5.44711,-20 7.87558,20 -5.07558,-20 7.50404,20 -4.70404,-20 7.13251,20 -4.33251,-20 6.76097,20 -3.96097,-20 6.38943,20 -3.58943,-20 6.0179,20 -3.2179,-20 5.64636,20 -2.84636,-20 5.27483,20 -2.47483,-20 4.90329,20 -2.10329,-20 4.53176,20 -1.73176,-20 4.16022,20 -1.36022,-20 3.78869,20 -0.98869,-20 3.41715,20 -0.61715,-20 3.04562,20 -0.24562,-20 2.67408,20 0.12592,-20 2.30255,20 0.49745,-20 1.93101,20 0.86899,-20 1.55947,20 1.24053,-20 1.18794,20 0.1519,-20 1.01015,20"
       inkscape:connector-curvature="0" />
    <path
       id="path69074"
       style="fill:none;stroke:#0000ff;stroke-width:0.40000001"
       d="m 275.589,366.92289 1.01015,20 1.78985,-20 0.98415,20 1.81585,-20 0.95815,20 1.84185,-20 0.93215,20 1.86785,-20 0.90615,20 1.89385,-20 0.88015,20 1.91985,-20 0.85416,20 1.94584,-20 0.82816,20 1.97184,-20 0.80216,20 1.99784,-20 0.77616,20 2.02384,-20 0.75016,20 2.04984,-20 0.72416,20 2.07584,-20 0.69816,20 2.10184,-20 0.67216,20 2.12784,-20 0.64616,20 2.15384,-20 0.62016,20 2.17984,-20 0.59417,20 2.20583,-20 0.56817,20 2.23183,-20 0.54217,20 2.25783,-20 0.51617,20 2.28383,-20 0.49017,20 2.30983,-20 0.46417,20 2.33583,-20 0.43817,20 2.36183,-20 0.41217,20 2.38783,-20 0.38617,20 2.41383,-20 0.36017,20 2.43983,-20 0.33417,20 2.46583,-20 0.30818,20 2.49182,-20 0.28218,20 2.51782,-20 0.25618,20 2.54382,-20 0.23018,20 2.56982,-20 0.20418,20 2.59582,-20 0.17818,20 2.62182,-20 0.15218,20 2.64782,-20 0.12618,20 2.67382,-20 0.10018,20 2.69982,-20 0.0742,20 2.72582,-20 0.0482,20 2.75181,-20 0.0222,20 2.77781,-20 -1.05306,20 3.85306,-20 -2.1283,20 4.9283,-20 -3.20355,20 6.00351,-20 -4.27879,20 7.07879,-20 -5.35404,20 8.15404,-20 -6.42928,20 9.22928,-20 -7.50453,20 10.30453,-20 -8.57977,20 11.37977,-20 -9.65502,20 12.45502,-20 -10.73026,20 13.53026,-20 -11.80551,20 14.60551,-20 -12.88075,20 15.68075,-20 -13.956,20 16.756,-20 -15.03124,20 17.83124,-20 -16.10649,20 18.90649,-20 -17.18173,20 19.98173,-20 -18.25698,20 20.72853,-19.67155 -20,20.66778 20,-17.86778 -20,19.59253 20,-16.79253 -20,18.51729 20,-15.71729 -20,17.44204 20,-14.64204 -20,16.3668 20,-13.5668 -20,15.29155 20,-12.49155 -20,14.21631 20,-11.41631 -20,13.14106 20,-10.34106 -20,12.06582 20,-9.26582 -20,10.99057 20,-8.19057 -20,9.91533 20,-7.11533 -20,8.84008 20,-6.04008 -20,7.76484 20,-4.96484 -20,6.68959 20,-3.88959 -20,5.61435 20,-2.81435 -20,4.5391 20,-1.7391 -20,3.46386 20,-0.66386 -20,2.38861 20,0.41139 -20,1.31337 20,1.48663 -20,0.23812 20,2.56188 -20,0.23135 20,2.56865 -20,0.22458 20,2.57542 -20,0.21781 20,2.58219 -20,0.21104 20,2.58896 -20,0.20427 20,2.59573 -20,0.1975 20,2.6025 -20,0.19073 20,2.60927 -20,0.18396 20,2.61604 -20,0.17719 20,2.62281 -20,0.17042 20,2.62958 -20,0.16365 20,2.63635 -20,0.15688 20,2.64312 -20,0.15011 20,2.64989 -20,0.14334 20,2.65666 -20,0.13657 20,2.66343 -20,0.1298 20,2.6702 -20,0.12302 20,2.67698 -20,0.11625 20,2.68375 -20,0.10948 20,2.69052 -20,0.10271 20,2.69729 -20,0.0959 20,2.70406 -20,0.0892 20,2.71083 -20,0.0824 20,2.7176 -20,0.0756 20,2.72437 -20,0.0689 20,2.73114 -20,0.0621 20,2.73791 -20,0.0553 20,2.74468 -20,0.0486 20,2.75145 -20,0.0418 20,2.75822 -20,0.035 20,2.76499 -20,0.0282 20,2.77176 -20,0.0215 20,2.77853 -20,0.0147 20,2.7853 -20,0.008 20,2.79208 -20,10e-4 20,2.79885 -20,-1.00316 20,3.80316 -20,-2.00746 20,4.80746 -20,-3.01177 20,5.81177 -20,-4.01608 20,6.81608 -20,-5.02039 20,7.82039 -20,-6.0247 20,8.8247 -20,-7.02901 20,9.82901 -20,-8.03332 20,10.83332 -20,-9.03763 20,11.83763 -20,-10.04194 20,12.84194 -20,-11.04625 20,13.84625 -20,-12.05056 20,14.85056 -20,-13.05487 20,15.85487 -20,-14.05918 20,16.85918 -20,-15.06349 20,17.86349 -20,-16.0678 20,18.8678 -20,-17.07211 20,19.87211 -20.00438,-18.0808 19.12358,20 -20.91927,-20 18.11927,20 -19.91496,-20 17.11496,20 -18.91065,-20 16.11065,20 -17.90634,-20 15.10634,20 -16.90203,-20 14.10203,20 -15.89772,-20 13.09772,20 -14.89341,-20 12.09341,20 -13.8891,-20 11.0891,20 -12.8848,-20 10.0848,20 -11.88049,-20 9.08049,20 -10.87618,-20 8.07618,20 -9.87187,-20 7.07187,20 -8.86756,-20 6.06756,20 -7.86325,-20 5.06325,20 -6.85894,-20 4.05894,20 -5.85463,-20 3.05463,20 -4.85032,-20 2.05032,20 -3.84601,-20 1.04601,20 -2.8417,-20 0.0417,20 -1.83739,-20 -0.96261,20 -0.83308,-20 -1.96692,20 -0.8213,-20 -1.9787,20 -0.80952,-20 -1.99048,20 -0.79774,-20 -2.00226,20 -0.78596,-20 -2.01404,20 -0.77419,-20 -2.02581,20 -0.76241,-20 -2.03759,20 -0.75063,-20 -2.04937,20 -0.73885,-20 -2.06115,20 -0.72707,-20 -2.07293,20 -0.71529,-20 -2.08471,20 -0.70351,-20 -2.09649,20 -0.69174,-20 -2.10826,20 -0.67996,-20 -2.12004,20 -0.66818,-20 -2.13182,20 -0.6564,-20 -2.1436,20 -0.64462,-20 -2.15538,20 -0.63284,-20 -2.16716,20 -0.62106,-20 -2.17894,20 -0.60928,-20 -2.19072,20 -0.59751,-20 -2.20249,20 -0.58573,-20 -2.21427,20 -0.57395,-20 -2.22605,20 -0.56217,-20 -2.23783,20 -0.55039,-20 -2.24961,20 -0.53861,-20 -2.26139,20 -0.52683,-20 -2.27317,20 -0.51505,-20 -2.28495,20 -0.50328,-20 -2.29672,20 -0.4915,-20 -2.3085,20 -0.47972,-20 -2.32028,20 -0.46794,-20 -2.33206,20 -0.45616,-20 -2.34384,20 -0.44438,-20 -2.35562,20 -0.4326,-20 -2.3674,20 -0.42083,-20 -2.37917,20 -0.40905,-20 -2.39095,20 -0.39727,-20 -2.40273,20 -0.38549,-20 -2.41451,20 -0.37371,-20 -2.42629,20 -0.36193,-20 -2.43807,20 -0.35015,-20 -2.44985,20 -0.33837,-20 -2.46163,20 -0.3266,-20 -2.4734,20 -0.31482,-20 -2.48518,20 -0.30304,-20 -2.49696,20 -0.29126,-20 -2.50874,20 -0.27948,-20 -2.52052,20 -0.2677,-20 -2.5323,20 -0.25592,-20 -2.54408,20 -0.24414,-20 -2.55586,20 -0.23237,-20 -2.56763,20 -0.22059,-20 -2.57941,20 -0.20881,-20 -2.59119,20 -0.19703,-20 -2.60297,20 -0.18525,-20 -2.61475,20 -0.17347,-20 -2.62653,20 -0.16169,-20 -2.63831,20 -0.14992,-20 -2.65008,20 -0.13814,-20 -2.66186,20 -0.12636,-20 -2.67364,20 -0.11458,-20 -2.68542,20 -0.1028,-20 -2.6972,20 -0.091,-20 -2.70898,20 -0.0792,-20 -2.72076,20 -0.0675,-20 -2.73254,20 -0.0557,-20 -2.74431,20 -0.0439,-20 -2.75609,20 -0.0321,-20 -2.76787,20 -0.0204,-20 -2.77965,20 -0.009,-20 -2.79143,20 1.14719,-20 -3.94719,20 2.30296,-20 -5.10296,20 3.45872,-20 -6.25872,20 4.61449,-20 -7.41449,20 5.77025,-20 -8.57025,20 6.92602,-20 -9.72602,20 8.08178,-20 -10.88178,20 9.23755,-20 -12.03755,20 10.39331,-20 -13.19331,20 11.54908,-20 -14.34908,20 12.70484,-20 -15.50484,20 13.86061,-20 -16.66061,20 15.01637,-20 -17.81637,20 16.17213,-20 -18.97213,20 17.3279,-20 -20.1279,20 18.48366,-20 -21.28366,20 19.65853,-20.0191 -20,17.56057 20,-19.20481 -20,16.40481 20,-18.04904 -20,15.24904 20,-16.89328 -20,14.09328 20,-15.73751 -20,12.93751 20,-14.58175 -20,11.78175 20,-13.42598 -20,10.62598 20,-12.27022 -20,9.47022 20,-11.11446 -20,8.31446 20,-9.95869 -20,7.15869 20,-8.80293 -20,6.00293 20,-7.64716 -20,4.84716 20,-6.4914 -20,3.6914 20,-5.33563 -20,2.53563 20,-4.17987 -20,1.37987 20,-3.0241 -20,0.2241 20,-1.86834 -20,-0.93166 20,-0.71257 -20,-2.08743 20,-0.69431 -20,-2.10569 20,-0.67604 -20,-2.12396 20,-0.65777 -20,-2.14223 20,-0.63951 -20,-2.16049 20,-0.62124 -20,-2.17876 20,-0.60297 -20,-2.19703 20,-0.58471 -20,-2.21529 20,-0.56644 -20,-2.23356 20,-0.54817 -20,-2.25183 20,-0.52991 -20,-2.27009 20,-0.51164 -20,-2.28836 20,-0.49337 -20,-2.30663 20,-0.47511 -20,-2.32489 20,-0.45684 -20,-2.34316 20,-0.43857 -20,-2.36143 20,-0.42031 -20,-2.37969 20,-0.40204 -20,-2.39796 20,-0.38377 -20,-2.41623 20,-0.36551 -20,-2.43449 20,-0.34724 -20,-2.45276 20,-0.32897 -20,-2.47103 20,-0.31071 -20,-2.48929 20,-0.29244 -20,-2.50756 20,-0.27417 -20,-2.52583 20,-0.25591 -20,-2.54409 20,-0.23764 -20,-2.56236 20,-0.21938 -20,-2.58062 20,-0.20111 -20,-2.59889 20,-0.18284 -20,-2.61716 20,-0.16458 -20,-2.63542 20,-0.14631 -20,-2.65369 20,-0.12804 -20,-2.67196 20,-0.10978 -20,-2.69022 20,-0.0915 -20,-2.70849 20,-0.0732 -20,-2.72676 20,-0.055 -20,-2.74502 20,-0.0367 -20,-2.76329 20,-0.0184 -20,-2.78156 20,-1.8e-4 -20,-2.79982 20,1.14343 -20,-3.94343 20,2.28703 -20,-5.08703 20,3.43063 -20,-6.23063 20,4.57423 -20,-7.37423 20,5.71784 -20,-8.51784 20,6.86144 -20,-9.66144 20,8.00504 -20,-10.80504 20,9.14864 -20,-11.94864 20,10.29225 -20,-13.09225 20,11.43585 -20,-14.23585 20,12.57945 -20,-15.37945 20,13.72305 -20,-16.52306 20,14.86666 -20,-17.66666 20,16.01027 -20,-18.81027 20,17.15387 -20,-19.95387 20,18.29747 -19.78912,-20.88658 20.55893,20 -17.75893,-20 19.41533,20 -16.61533,-20 18.27173,20 -15.47173,-20 17.12813,20 -14.32813,-20 15.98452,20 -13.18452,-20 14.84092,20 -12.04092,-20 13.69732,20 -10.89732,-20 12.55372,20 -9.75372,-20 11.41012,20 -8.61012,-20 10.26651,20 -7.46651,-20 9.12291,20 -6.32291,-20 7.97931,20 -5.17931,-20 6.83571,20 -4.03571,-20 5.6921,20 -2.8921,-20 4.5485,20 -1.7485,-20 3.4049,20 -0.6049,-20 2.2613,20 0.5387,-20 1.11769,20 1.68231,-20 1.11457,20 1.68543,-20 1.11146,20 1.68854,-20 1.10834,20 1.69166,-20 1.10522,20 1.69478,-20 1.1021,20 1.6979,-20 1.09898,20 1.70102,-20 1.09586,20 1.70414,-20 1.09274,20 1.70726,-20 1.08962,20 1.71038,-20 1.0865,20 1.7135,-20 1.08338,20 1.71662,-20 1.08027,20 1.71973,-20 1.07715,20 1.72285,-20 1.07403,20 1.72597,-20 1.07091,20 1.72909,-20 1.06779,20 1.73221,-20 1.06467,20 1.73533,-20 1.06155,20 1.73845,-20 1.05843,20 1.74157,-20 1.05531,20 1.74469,-20 1.05219,20 1.74781,-20 1.04908,20 1.75092,-20 1.04596,20 1.75404,-20 1.04284,20 1.75716,-20 1.03972,20 1.76028,-20 1.0366,20 1.7634,-20 1.03348,20 1.76652,-20 1.03036,20 1.76964,-20 1.02724,20 1.77276,-20 1.02412,20 1.77588,-20 1.021,20 1.779,-20 1.01788,20 1.78212,-20 1.01477,20 1.78523,-20 1.01165,20 0.32819,-20 1.01015,20"
       inkscape:connector-curvature="0" />
  </g>
</svg>
