<?xml version="1.0" encoding="UTF-8" standalone="no"?>
<!-- Created with Inkscape (http://www.inkscape.org/) -->

<svg
   width="105mm"
   height="148mm"
   viewBox="0 0 105 148"
   version="1.1"
   id="svg1"
   xml:space="preserve"
   inkscape:version="1.4.4 (dcaf3e7d9e, 2026-05-05)"
   sodipodi:docname="circular02.svg"
   xmlns:inkscape="http://www.inkscape.org/namespaces/inkscape"
   xmlns:sodipodi="http://sodipodi.sourceforge.net/DTD/sodipodi-0.dtd"
   xmlns="http://www.w3.org/2000/svg"
   xmlns:svg="http://www.w3.org/2000/svg"
   xmlns:inkstitch="http://inkstitch.org/namespace"><sodipodi:namedview
     id="namedview1"
     pagecolor="#ffffff"
     bordercolor="#666666"
     borderopacity="1.0"
     inkscape:showpageshadow="2"
     inkscape:pageopacity="0.0"
     inkscape:pagecheckerboard="0"
     inkscape:deskcolor="#d1d1d1"
     inkscape:document-units="mm"
     showgrid="true"
     showguides="true"
     inkscape:zoom="0.97630235"
     inkscape:cx="233.53421"
     inkscape:cy="412.78196"
     inkscape:window-width="1920"
     inkscape:window-height="1131"
     inkscape:window-x="0"
     inkscape:window-y="0"
     inkscape:window-maximized="1"
     inkscape:current-layer="layer3"
     inkscape:lockguides="true"><inkscape:grid
       id="grid1"
       units="mm"
       originx="0"
       originy="0"
       spacingx="1"
       spacingy="1"
       empcolor="#0099e5"
       empopacity="0.30196078"
       color="#0099e5"
       opacity="0.14901961"
       empspacing="5"
       enabled="true"
       visible="true" /><sodipodi:guide
       position="60,-739852.01"
       orientation="0,1"
       id="guide1"
       inkscape:locked="true"
       inkscape:label=""
       inkscape:color="rgb(0,134,229)" /><sodipodi:guide
       position="0,74.000001"
       orientation="0,1"
       id="guide2"
       inkscape:locked="true"
       inkscape:label=""
       inkscape:color="rgb(0,134,229)" /><sodipodi:guide
       position="0,197.33333"
       orientation="0,1"
       id="guide10"
       inkscape:locked="true"
       inkscape:label=""
       inkscape:color="rgb(224,27,36)" /></sodipodi:namedview><metadata
     id="metadata18"><inkstitch:min_stitch_len_mm>0.3</inkstitch:min_stitch_len_mm><inkstitch:collapse_len_mm>11.0</inkstitch:collapse_len_mm><inkstitch:inkstitch_svg_version>4</inkstitch:inkstitch_svg_version><inkstitch:min_satin_stroke_width_mm>1.0</inkstitch:min_satin_stroke_width_mm></metadata><defs
     id="defs1"><inkscape:path-effect
   effect="offset"
   id="path-effect17"
   is_visible="true"
   lpeversion="1.3"
   linejoin_type="miter"
   unit="mm"
   offset="10"
   miter_limit="4"
   attempt_force_join="false"
   update_on_knot_move="true" /><inkscape:path-effect
   center_point="52.529609,111.277"
   end_point="150.0296,111.277"
   start_point="-44.970382,111.277"
   effect="mirror_symmetry"
   id="path-effect21"
   is_visible="true"
   lpeversion="1.2"
   lpesatellites=""
   mode="Y"
   discard_orig_path="false"
   fuse_paths="false"
   oposite_fuse="false"
   split_items="false"
   split_open="false"
   link_styles="false" /><inkscape:path-effect
   effect="offset"
   id="path-effect2"
   is_visible="true"
   lpeversion="1.3"
   linejoin_type="miter"
   unit="mm"
   offset="4"
   miter_limit="4"
   attempt_force_join="false"
   update_on_knot_move="true" /><inkscape:path-effect
   effect="offset"
   id="path-effect7"
   is_visible="true"
   lpeversion="1.3"
   linejoin_type="miter"
   unit="mm"
   offset="4"
   miter_limit="4"
   attempt_force_join="false"
   update_on_knot_move="true" /><inkscape:path-effect
   center_point="53.000002,110.79823"
   end_point="53.000002,133.01515"
   start_point="53.000002,88.581308"
   effect="mirror_symmetry"
   id="path-effect6"
   is_visible="true"
   lpeversion="1.2"
   lpesatellites=""
   mode="free"
   discard_orig_path="false"
   fuse_paths="false"
   oposite_fuse="false"
   split_items="false"
   split_open="false"
   link_styles="false" /><symbol
   id="inkstitch_ignore_layer"
   transform="scale(0.25, 0.25)"
   style="opacity:0.7">
      <title
   id="title9694">Ignore entire layer when generating stitch plan</title>
      <path
   inkscape:connector-curvature="0"
   style="opacity:1;vector-effect:none;fill:#fafafa;fill-opacity:1;fill-rule:evenodd;stroke:#ff0000;stroke-width:1.06501234;stroke-linecap:round;stroke-linejoin:miter;stroke-miterlimit:4;stroke-dasharray:3.19503705, 3.19503705;stroke-dashoffset:0;stroke-opacity:1"
   d="M 9.2465269,-4.9265995e-6 C 9.246525,5.1067241 5.1067028,9.2465451 -2.615882e-5,9.2465451 -5.1067554,9.2465451 -9.2465782,5.1067241 -9.2465801,-4.9265995e-6 -9.24658,-2.4523429 -8.2723922,-4.8042399 -6.538327,-6.5383059 c 1.7340653,-1.734065 4.0859624,-2.708252 6.53830084118,-2.708252 5.10673015882,0 9.24655285882,4.139823 9.24655305882,9.2465529734005 0,0 0,0 0,0"
   id="inkstitch_path25368-7"
   inkstitch:max_stitch_length_mm="3" />
      <path
   sodipodi:nodetypes="ccccc"
   inkscape:connector-curvature="0"
   style="color:#000000;fill:#d5d5d5;fill-opacity:1;fill-rule:evenodd;stroke:#5a5a5a;stroke-width:0.63330007;stroke-linecap:square;stroke-linejoin:round;stroke-miterlimit:0;stroke-opacity:1"
   d="M 4,4.452769 1.46667,1.286102 H -5.5 l 2.53333,3.166667 z"
   id="use5800"
   inkstitch:max_stitch_length_mm="3" />
      <path
   sodipodi:nodetypes="ccccc"
   inkscape:connector-curvature="0"
   style="color:#000000;opacity:0.5;fill:#d5d5d5;fill-opacity:1;fill-rule:evenodd;stroke:#858585;stroke-width:0.63339424;stroke-linecap:square;stroke-linejoin:round;stroke-miterlimit:0;stroke-opacity:1"
   d="M 4,2.552769 1.46667,-0.613898 H -5.5 l 2.53333,3.166667 z"
   id="use5864"
   inkstitch:max_stitch_length_mm="3" />
      <g
   id="g5771">
        <path
   sodipodi:nodetypes="ccccccccc"
   inkscape:connector-curvature="0"
   style="fill:#aa0000;fill-rule:evenodd;stroke:#aa0000;stroke-width:1px"
   d="m -1.0666699,-5.0472339 h 4.4333333 l 0.6333333,0.6333333 V 0.01943274 L 3.3666634,0.65276607 H -1.0666699 L -1.7000032,0.01943274 V -4.4139006 Z"
   id="path8011"
   inkstitch:max_stitch_length_mm="3" />
        <path
   inkscape:connector-curvature="0"
   id="path8023"
   d="m -0.43333658,-3.8755672 c 0,0 3.16666668,3.16666661 3.16666668,3.16666661"
   style="fill:none;stroke:#ffffff;stroke-width:1.70000005" />
        <path
   inkscape:connector-curvature="0"
   id="path8025"
   d="m 2.7333301,-3.8755672 c 0,0 -3.16666668,3.16666661 -3.16666668,3.16666661"
   style="fill:none;stroke:#ffffff;stroke-width:1.79999995;stroke-linejoin:round" />
      </g>
    </symbol>
    <marker
   refX="10"
   refY="5"
   orient="auto"
   id="inkstitch-guide-line-marker"
   markerUnits="userSpaceOnUse"
   markerWidth="0.1"
   viewBox="0 0 1 1">
     <g
   id="inkstitch-guide-line-group">
       <path
   style="fill:#fafafa;fill-opacity:0.8;stroke:#ff5500;stroke-width:0.5;stroke-linecap:round;stroke-linejoin:miter;stroke-miterlimit:4;stroke-dasharray:1, 1;stroke-dashoffset:0;stroke-opacity:1"
   d="M 10.12911,5.2916678 A 4.8374424,4.8374426 0 0 1 5.2916656,10.12911 4.8374424,4.8374426 0 0 1 0.45422399,5.2916678 4.8374424,4.8374426 0 0 1 5.2916656,0.45422399 4.8374424,4.8374426 0 0 1 10.12911,5.2916678 Z"
   id="inkstitch-guide-line-marker-circle"
   inkstitch:max_stitch_length_mm="3" />
       <path
   style="fill:none;stroke:#000000;stroke-width:0.4;stroke-linecap:round;stroke-miterlimit:4"
   id="inkstitch-guide-line-marker-spiral"
   d="M 1.7506092,6.2728168 3.4558825,5.2833684 7.1038696,7.400035 8.8193256,6.4046783 M 1.7963222,4.129626 3.4558825,3.1667016 7.1038696,5.2833682 8.8475785,4.2716184 M 1.6318889,5.2833683 3.4558825,4.225035 7.1038696,6.3417016 8.9558408,5.2677331" />
     </g>
    </marker><marker
   refX="10"
   refY="5"
   orient="auto"
   id="inkstitch-guide-line-marker-1"
   markerUnits="userSpaceOnUse"
   markerWidth="0.1"
   viewBox="0 0 1 1"><g
     id="inkstitch-guide-line-group-5"><path
       style="fill:#fafafa;fill-opacity:0.8;stroke:#ff5500;stroke-width:0.5;stroke-linecap:round;stroke-linejoin:miter;stroke-miterlimit:4;stroke-dasharray:1, 1;stroke-dashoffset:0;stroke-opacity:1"
       d="M 10.12911,5.2916678 A 4.8374424,4.8374426 0 0 1 5.2916656,10.12911 4.8374424,4.8374426 0 0 1 0.45422399,5.2916678 4.8374424,4.8374426 0 0 1 5.2916656,0.45422399 4.8374424,4.8374426 0 0 1 10.12911,5.2916678 Z"
       id="inkstitch-guide-line-marker-circle-9"
       inkstitch:max_stitch_length_mm="3" /><path
       style="fill:none;stroke:#000000;stroke-width:0.4;stroke-linecap:round;stroke-miterlimit:4"
       id="inkstitch-guide-line-marker-spiral-7"
       d="M 1.7506092,6.2728168 3.4558825,5.2833684 7.1038696,7.400035 8.8193256,6.4046783 M 1.7963222,4.129626 3.4558825,3.1667016 7.1038696,5.2833682 8.8475785,4.2716184 M 1.6318889,5.2833683 3.4558825,4.225035 7.1038696,6.3417016 8.9558408,5.2677331" /></g></marker><marker
   refX="10"
   refY="5"
   orient="auto"
   id="marker2"
   markerUnits="userSpaceOnUse"
   markerWidth="0.1"
   viewBox="0 0 1 1"><g
     id="g2-5"><path
       style="fill:#fafafa;fill-opacity:0.8;stroke:#ff5500;stroke-width:0.5;stroke-linecap:round;stroke-linejoin:miter;stroke-miterlimit:4;stroke-dasharray:1, 1;stroke-dashoffset:0;stroke-opacity:1"
       d="M 10.12911,5.2916678 A 4.8374424,4.8374426 0 0 1 5.2916656,10.12911 4.8374424,4.8374426 0 0 1 0.45422399,5.2916678 4.8374424,4.8374426 0 0 1 5.2916656,0.45422399 4.8374424,4.8374426 0 0 1 10.12911,5.2916678 Z"
       id="path1"
       inkstitch:max_stitch_length_mm="3" /><path
       style="fill:none;stroke:#000000;stroke-width:0.4;stroke-linecap:round;stroke-miterlimit:4"
       id="path2-6"
       d="M 1.7506092,6.2728168 3.4558825,5.2833684 7.1038696,7.400035 8.8193256,6.4046783 M 1.7963222,4.129626 3.4558825,3.1667016 7.1038696,5.2833682 8.8475785,4.2716184 M 1.6318889,5.2833683 3.4558825,4.225035 7.1038696,6.3417016 8.9558408,5.2677331" /></g></marker><marker
   refX="10"
   refY="5"
   orient="auto"
   id="marker4"
   markerUnits="userSpaceOnUse"
   markerWidth="0.1"
   viewBox="0 0 1 1"><g
     id="g4"><path
       style="fill:#fafafa;fill-opacity:0.8;stroke:#ff5500;stroke-width:0.5;stroke-linecap:round;stroke-linejoin:miter;stroke-miterlimit:4;stroke-dasharray:1, 1;stroke-dashoffset:0;stroke-opacity:1"
       d="M 10.12911,5.2916678 A 4.8374424,4.8374426 0 0 1 5.2916656,10.12911 4.8374424,4.8374426 0 0 1 0.45422399,5.2916678 4.8374424,4.8374426 0 0 1 5.2916656,0.45422399 4.8374424,4.8374426 0 0 1 10.12911,5.2916678 Z"
       id="path3"
       inkstitch:max_stitch_length_mm="3" /><path
       style="fill:none;stroke:#000000;stroke-width:0.4;stroke-linecap:round;stroke-miterlimit:4"
       id="path4"
       d="M 1.7506092,6.2728168 3.4558825,5.2833684 7.1038696,7.400035 8.8193256,6.4046783 M 1.7963222,4.129626 3.4558825,3.1667016 7.1038696,5.2833682 8.8475785,4.2716184 M 1.6318889,5.2833683 3.4558825,4.225035 7.1038696,6.3417016 8.9558408,5.2677331" /></g></marker><marker
   refX="10"
   refY="5"
   orient="auto"
   id="marker6"
   markerUnits="userSpaceOnUse"
   markerWidth="0.1"
   viewBox="0 0 1 1"><g
     id="g6"><path
       style="fill:#fafafa;fill-opacity:0.8;stroke:#ff5500;stroke-width:0.5;stroke-linecap:round;stroke-linejoin:miter;stroke-miterlimit:4;stroke-dasharray:1, 1;stroke-dashoffset:0;stroke-opacity:1"
       d="M 10.12911,5.2916678 A 4.8374424,4.8374426 0 0 1 5.2916656,10.12911 4.8374424,4.8374426 0 0 1 0.45422399,5.2916678 4.8374424,4.8374426 0 0 1 5.2916656,0.45422399 4.8374424,4.8374426 0 0 1 10.12911,5.2916678 Z"
       id="path5-3"
       inkstitch:max_stitch_length_mm="3" /><path
       style="fill:none;stroke:#000000;stroke-width:0.4;stroke-linecap:round;stroke-miterlimit:4"
       id="path6"
       d="M 1.7506092,6.2728168 3.4558825,5.2833684 7.1038696,7.400035 8.8193256,6.4046783 M 1.7963222,4.129626 3.4558825,3.1667016 7.1038696,5.2833682 8.8475785,4.2716184 M 1.6318889,5.2833683 3.4558825,4.225035 7.1038696,6.3417016 8.9558408,5.2677331" /></g></marker><symbol
   id="inkstitch_autoroute_start"
   style="display:inline;opacity:0.7"
   transform="scale(0.25, 0.25)">
      <title
   id="inkstitch_title9427-3">Running stitch starting point</title>
      <path
   style="opacity:1;vector-effect:none;fill:#fafafa;fill-opacity:1;fill-rule:evenodd;stroke:#003399;stroke-width:1.06500006;stroke-linecap:round;stroke-linejoin:miter;stroke-miterlimit:4;stroke-dasharray:3.19500017, 3.19500017;stroke-dashoffset:0;stroke-opacity:1"
   d="M 9.2201108,0.05852023 A 9.2576327,9.2122261 0 0 1 -0.03752532,9.2707454 9.2576327,9.2122261 0 0 1 -9.2951565,0.05852023 9.2576327,9.2122261 0 0 1 -0.03752532,-9.1537082 9.2576327,9.2122261 0 0 1 9.2201108,0.05852023 Z"
   id="inkstitch-autorun_start-circle"
   inkstitch:max_stitch_length_mm="3" />
      <path
   style="fill:#000000"
   id="inkstitch-autorun_start-path"
   d="M -3.8159516,-5.6184574 c -0.3237427,0.020819 -0.5868063,0.2896236 -0.5907925,0.6167873 -0.00301,0.2444103 0.1384108,0.4575508 0.3447536,0.5613983 l -0.084402,6.772037 c -0.1244867,-0.03501 -0.2442949,-0.092709 -0.3519231,-0.1734001 -0.018852,-0.014824 -0.04551,-0.014824 -0.064361,0 -0.018491,0.013861 -0.025495,0.038228 -0.017164,0.05968 l 0.6437207,1.8106215 c 0.016803,0.044746 0.080472,0.044746 0.097275,0 l 0.6923582,-1.7949729 c 0.01924,-0.049558 -0.04036,-0.092132 -0.081524,-0.058277 -0.1120849,0.077886 -0.2339971,0.131597 -0.3605046,0.1634443 l 0.078701,-6.7706068 c 0.2092494,-0.097934 0.3546084,-0.3086274 0.3576257,-0.5542753 0.00418,-0.34328 -0.2710359,-0.6282831 -0.6165645,-0.632436 -0.016194,-1.924e-4 -0.031281,-0.00102 -0.047198,-3e-7 z m 0.9498575,1.1369602 c -0.042382,0.00503 -0.060846,0.055939 -0.031474,0.086686 l 1.2703061,1.4510604 c 0.035433,0.033525 0.093621,0.00416 0.087254,-0.044058 -0.016443,-0.1368774 -0.00712,-0.2718022 0.025745,-0.3993565 l 5.8279214,3.19201934 c -0.00955,0.23010929 0.1105352,0.45752327 0.3261511,0.57558932 0.3026489,0.1656996 0.6815068,0.0590468 0.8482917,-0.24160502 0.1667849,-0.30067931 0.059461,-0.68276459 -0.2431877,-0.84846414 -0.216862,-0.11872613 -0.4758284,-0.0980447 -0.6666138,0.0341025 l -5.8250435,-3.1905893 c 0.090438,-0.093452 0.1986471,-0.1708699 0.32186037,-0.2274139 0.044292,-0.022937 0.033578,-0.088721 -0.015724,-0.096642 L -2.8489315,-4.4800672 c -0.00556,-0.00146 -0.011405,-0.00189 -0.017162,-0.00146 z m 6.9651605,5.10354566 -1.909736,0.3126702 c -0.047392,0.011523 -0.054063,0.075768 -0.01,0.096642 0.1244589,0.057067 0.2344955,0.1342923 0.3261511,0.2273865 L -3.4211257,4.5999927 C -3.6139873,4.4704034 -3.8733966,4.4493919 -4.0877673,4.5701537 -4.38834,4.7394835 -4.4899335,5.1199736 -4.3194944,5.4186179 c 0.170439,0.2986167 0.5534215,0.4066446 0.8540219,0.2373147 0.2139276,-0.1204863 0.3297497,-0.3481203 0.3175695,-0.5769918 L 2.778711,1.7376949 c 0.03333,0.1260415 0.043323,0.2590963 0.027184,0.3936635 -0.00791,0.053024 0.060763,0.081379 0.092985,0.038365 L 4.1477039,0.70304186 c 0.026048,-0.036523 -0.00388,-0.086439 -0.048637,-0.0809934 Z"
   inkstitch:max_stitch_length_mm="3" />
    </symbol>
    <symbol
   id="inkstitch_starting_point"
   transform="scale(0.25, 0.25)"
   style="opacity:0.7">
      <title
   id="inkstitch_title9432">Starting point</title>
      <path
   id="inkstitch_circle13166-6"
   d="m 9.2465269,-2.6e-6 c -1.9e-6,5.106729 -4.1398247,9.24655 -9.246554026709,9.24655 C -5.106756,9.2465474 -9.2465782,5.1067264 -9.2465801,-2.6e-6 c 2e-7,-5.10673 4.1398229,-9.246553 9.246552973291,-9.246553 2.452338526709,0 4.804235626709,0.974187 6.538300926709,2.708252 1.7340652,1.734066 2.708253,4.085963 2.7082531,6.538301 0,0 0,0 0,0"
   style="opacity:1;vector-effect:none;fill:#fafafa;fill-opacity:1;fill-rule:evenodd;stroke:#003399;stroke-width:1.06501234;stroke-linecap:round;stroke-linejoin:miter;stroke-miterlimit:4;stroke-dasharray:3.19503705, 3.19503705;stroke-dashoffset:0;stroke-opacity:1"
   inkscape:connector-curvature="0"
   inkstitch:max_stitch_length_mm="3" />
      <path
   style="opacity:1;vector-effect:none;fill:#000000;fill-opacity:1;fill-rule:evenodd;stroke:none;stroke-width:2.74180555;stroke-linecap:butt;stroke-linejoin:miter;stroke-miterlimit:4;stroke-dasharray:none;stroke-dashoffset:0;stroke-opacity:1"
   d="m 6.5728129,0.0035574 c 0,0 -10.4514,6.03412 -10.4514,6.03412 0,0 0,-12.06823 0,-12.06823 0,0 10.4514,6.03411 10.4514,6.03411"
   id="inkstitch_path4183"
   inkscape:connector-curvature="0"
   inkstitch:max_stitch_length_mm="3" />
    </symbol>
    <symbol
   id="inkstitch_ending_point"
   transform="scale(0.25, 0.25)"
   style="opacity:0.7">
      <title
   id="inkstitch_title9427">Ending point</title>
      <path
   id="inkstitch_circle13166"
   d="m 9.220113,0.0792309 c -1.9e-6,5.106729 -4.1398241,9.24655 -9.246553,9.24655 -5.1067293,0 -9.2465521,-4.139821 -9.246554,-9.24655 1e-7,-2.452338 0.9741879,-4.804235 2.7082531,-6.538301 1.7340653,-1.734065 4.0859624,-2.708252 6.5383009,-2.708252 5.1067301,0 9.2465528,4.139823 9.246553,9.246553 0,0 0,0 0,0"
   style="opacity:1;vector-effect:none;fill:#fafafa;fill-opacity:1;fill-rule:evenodd;stroke:#003399;stroke-width:1.06500006;stroke-linecap:round;stroke-linejoin:miter;stroke-miterlimit:4;stroke-dasharray:3.19500017, 3.19500017;stroke-dashoffset:0;stroke-opacity:1"
   inkscape:connector-curvature="0"
   inkstitch:max_stitch_length_mm="3" />
      <path
   style="opacity:1;fill:#000000;fill-opacity:1;fill-rule:nonzero;stroke:none;stroke-width:2.27154255;stroke-linecap:round;stroke-linejoin:round;stroke-miterlimit:4;stroke-dasharray:4.81866985, 4.81866985;stroke-dashoffset:0;stroke-opacity:1;paint-order:fill markers stroke"
   d="m -4.570439,-4.5704391 c 0,0 9.140878,0 9.140878,0 0,0 0,9.14087 0,9.14087 0,0 -9.140878,0 -9.140878,0 0,0 0,-9.14087 0,-9.14087"
   id="inkstitch_rect5371-2"
   inkscape:connector-curvature="0"
   inkstitch:max_stitch_length_mm="3" />
    </symbol>
    <filter
   style="color-interpolation-filters:sRGB"
   id="realistic-stitch-filter"
   x="0"
   width="1"
   y="0"
   height="1"
   inkscape:auto-region="false"><feGaussianBlur
     edgeMode="none"
     stdDeviation="0.9"
     in="SourceAlpha"
     id="feGaussianBlur29" /><feSpecularLighting
     result="result2"
     surfaceScale="4.29"
     specularConstant="0.65"
     specularExponent="1.6"
     id="feSpecularLighting29"><feDistantLight
       azimuth="154"
       elevation="112"
       id="feDistantLight29" /></feSpecularLighting><feComposite
     in2="SourceAlpha"
     operator="atop"
     id="feComposite29" /><feComposite
     in2="SourceGraphic"
     operator="arithmetic"
     result="result3"
     k1="0"
     k2="0.8"
     k3="1.2"
     k4="0"
     id="feComposite30" /></filter></defs><g
     inkscape:groupmode="layer"
     id="layer3"
     inkscape:label="Circular Fill"><path
       id="path17"
       style="display:inline;fill:#e57022;fill-opacity:1;fill-rule:evenodd;stroke:none;stroke-width:0.4;stroke-dasharray:none;paint-order:fill markers stroke"
       d="m 25.389665,88.585291 c -1.558552,0.04589 -3.03999,0.480991 -4.389913,1.4149 -2.513065,2.173461 3.000333,10.999849 3.000333,10.999849 0,0 0.451499,8.39035 2.217436,9.74876 1.969699,2.71683 7.782471,2.25102 7.782471,2.25102 0,0 -9.995646,3.9781 -2.999817,16.00006 2.98851,4.48276 10.999845,4.00027 10.999845,4.00027 7.335432,-1.01881 8.999968,-16.00006 8.999968,-16.00006 1.42358,-3.96687 2.757813,-4.00246 4.000272,0 0,0 1.664536,14.98125 8.999968,16.00006 0,0 8.011335,0.48249 10.999845,-4.00027 6.995829,-12.02196 -2.999817,-16.00006 -2.999817,-16.00006 0,0 5.812772,0.46581 7.782471,-2.25102 1.765937,-1.35841 2.217436,-9.74876 2.217436,-9.74876 1.422619,-1.959881 4.892217,-8.699251 2.759681,-10.759713 C 73.960457,82.769053 55.00026,107.00019 55.00026,107.00019 c -1.05177,1.19952 -2.424491,2.47623 -4.000272,0 0,0 -14.70046,-18.736116 -25.610323,-18.414899 z"
       transform="translate(-0.500004, 2.36305)"
       inkstitch:max_stitch_length_mm="3"
       sodipodi:nodetypes="sccccccccccccccccs"
       inkscape:label="Fill"
       inkstitch:fill_method="circular_fill"
       inkstitch:fill_underlay="False"
       inkstitch:zigzag_spacing_mm="0.6"
       inkstitch:expand_mm=""
       inkstitch:clip="True"
       inkstitch:meander_angle="0"
       inkstitch:zigzag_width_mm="3"
       inkstitch:meander_scale_percent="95"
       inkstitch:meander_pattern="hexagon"
       inkstitch:enable_random_stitch_length="True"
       inkstitch:running_stitch_length_mm="4"
       inkstitch:running_stitch_tolerance_mm="0.3"
       inkstitch:end_row_spacing_mm="0.3"
       inkstitch:row_spacing_mm="1"
       inkstitch:underpath="False" /><path
       id="path27"
       style="display:inline;fill:#d63501;fill-opacity:1;fill-rule:evenodd;stroke:none;stroke-width:0.4;stroke-dasharray:none;paint-order:fill markers stroke"
       d="m 25.389665,88.585291 c -1.558552,0.04589 -3.03999,0.480991 -4.389913,1.4149 -2.513065,2.173461 3.000333,10.999849 3.000333,10.999849 0,0 0.451499,8.39035 2.217436,9.74876 1.969699,2.71683 7.782471,2.25102 7.782471,2.25102 0,0 -9.995646,3.9781 -2.999817,16.00006 2.98851,4.48276 10.999845,4.00027 10.999845,4.00027 7.335432,-1.01881 8.999968,-16.00006 8.999968,-16.00006 1.42358,-3.96687 2.757813,-4.00246 4.000272,0 0,0 1.664536,14.98125 8.999968,16.00006 0,0 8.011335,0.48249 10.999845,-4.00027 6.995829,-12.02196 -2.999817,-16.00006 -2.999817,-16.00006 0,0 5.812772,0.46581 7.782471,-2.25102 1.765937,-1.35841 2.217436,-9.74876 2.217436,-9.74876 1.422619,-1.959881 4.796402,-8.795066 2.663866,-10.855528 C 73.864642,82.673238 55.00026,107.00019 55.00026,107.00019 c -1.05177,1.19952 -2.424491,2.47623 -4.000272,0 0,0 -14.70046,-18.736116 -25.610323,-18.414899 z"
       transform="translate(-0.500004, 2.36305)"
       inkstitch:max_stitch_length_mm="3"
       sodipodi:nodetypes="sccccccccccccccccs"
       inkscape:label="Fill"
       inkstitch:fill_method="circular_fill"
       inkstitch:fill_underlay="False"
       inkstitch:zigzag_spacing_mm="0.6"
       inkstitch:expand_mm=""
       inkstitch:clip="True"
       inkstitch:meander_angle="0"
       inkstitch:zigzag_width_mm="3"
       inkstitch:meander_scale_percent="95"
       inkstitch:meander_pattern="hexagon"
       inkstitch:enable_random_stitch_length="True"
       inkstitch:running_stitch_length_mm="4"
       inkstitch:running_stitch_tolerance_mm="0.3"
       inkstitch:end_row_spacing_mm="0.8"
       inkstitch:row_spacing_mm="0.3"
       inkstitch:underpath="False" /></g><g
     inkscape:label="Outline"
     inkscape:groupmode="layer"
     id="layer1"
     style="display:inline"><g
       id="g30"
       inkscape:label="Outlines"
       style="stroke:#222421"><g
         inkscape:label="Complex Redwork"
         id="g9"
         style="display:inline;stroke:#222421"
         transform="translate(-0.103291, 0.0515642)"><path
           id="underpath_986"
           style="display:inline;opacity:1;fill:none;stroke:#222421;stroke-width:0.264583;stroke-dasharray:2, 1.1"
           d="m 53.7159,112.409 2.5733,3.434 v 0 l 1.609,2.001 v 0 l 0.8659,0.982 v 0 l 0.8999,0.936 v 0 l 0.9282,0.865 v 0 l 0.9511,0.767 v 0 l 0.4601,0.306 v 0 l 0.6221,1.495 v 0 l 1.5451,3.814 v 0 l 1.746,4.547 v 0 l 0.7361,2.087 v 0 l 0.472,1.522 -0.1159,0.019 -0.8162,0.095 v 0 l -1.3941,0.089 v 0 l -0.9483,0.007 -0.35,-0.012 -0.6713,-0.135 v 0 l -0.6387,-0.213 v 0 l -0.6069,-0.283 v 0 l -0.576,-0.349 v 0 l -0.5456,-0.41 v 0 l -0.5159,-0.465 v 0 l -0.4874,-0.515 v 0 l -0.459,-0.56 v 0 l -0.4318,-0.599 v 0 l -0.4054,-0.633 v 0 l -0.7331,-1.348 v 0 l -0.6358,-1.421 v 0 l -0.544,-1.451 v 0 l -0.4577,-1.439 v 0 l -0.3779,-1.385 v 0 L 55.11,122.869 v 0 l -0.2352,-1.149 v 0 l -0.2887,-1.711 v 0 l -0.086,-0.646 v 0 l -0.495,-1.321"
           inkscape:label="Redwork Unterpfad 1"
           inkstitch:running_stitch_length_mm="2.5"
           inkstitch:path_type="redwork-underpath" /><path
           id="redwork_6579"
           style="display:inline;opacity:1;fill:none;stroke:#222421;stroke-width:0.264583;stroke-dasharray:none"
           d="m 54.0051,118.042 0.495,1.321 v 0 l 0.086,0.646 v 0 l 0.2887,1.711 v 0 l 0.2352,1.149 v 0 l 0.3037,1.288 v 0 l 0.3779,1.385 v 0 l 0.4577,1.439 v 0 l 0.544,1.451 v 0 l 0.6358,1.421 v 0 l 0.7331,1.348 v 0 l 0.4054,0.633 v 0 l 0.4318,0.599 v 0 l 0.459,0.56 v 0 l 0.4874,0.515 v 0 l 0.5159,0.465 v 0 l 0.5456,0.41 v 0 l 0.576,0.349 v 0 l 0.6069,0.283 v 0 l 0.6387,0.213 v 0 l 0.6713,0.135 0.35,0.012 0.9483,-0.007 v 0 l 1.3941,-0.089 v 0 l 0.8162,-0.095"
           inkscape:label="Redwork 2"
           inkstitch:running_stitch_length_mm="2.5"
           inkstitch:path_type="redwork-top"
           inkstitch:bean_stitch_repeats="1" /><path
           id="underpath_7973"
           style="display:inline;opacity:1;fill:none;stroke:#222421;stroke-width:0.264583;stroke-dasharray:2, 1.1"
           d="m 67.1247,135.165 0.7546,-0.121 v 0 l 0.9057,-0.193 v 0 l 0.9212,-0.253 v 0 l 0.9184,-0.321 v 0 l 0.8959,-0.398 v 0 l 0.8546,-0.482 v 0 l 0.7943,-0.575 v 0 l 0.7146,-0.675 v 0 l 0.616,-0.784 v 0 l 0.6069,-1.104 v 0 l 0.5122,-1.057 v 0 l 0.4226,-1.012 v 0 l 0.3379,-0.966 v 0 l 0.2582,-0.923 v 0 l 0.1656,-0.795 0.0175,-0.084 0.1135,-0.836 v 0 l 0.0481,-0.795 v 0 l -0.0116,-0.753 v 0 l -0.0667,-0.713 v 0 l -0.1169,-0.673 v 0 l -0.1622,-0.635 v 0 l -0.2024,-0.596 v 0 l -0.2376,-0.559 v 0 l -0.268,-0.522 v 0 l -0.2937,-0.485 v 0 l -0.6435,-0.867 v 0 l -0.6863,-0.732 v 0 l -0.6887,-0.604 v 0 l -0.6522,-0.48 v 0 l -0.5763,-0.363 v 0 l -0.4604,-0.252 -0.4159,-0.194 0.939,0.03 v 0 l 1.0041,-0.026 v 0 l 1.2097,-0.111 v 0 l 1.3017,-0.238 v 0 l 0.6501,-0.18 v 0 l 0.6308,-0.228 v 0 l 0.5974,-0.282 v 0 l 0.5498,-0.34 v 0 l 0.4879,-0.403 v 0 l 0.412,-0.473 0.3159,-0.333 0.2865,-0.476 v 0 l 0.258,-0.595 v 0 l 0.2312,-0.693 v 0 l 0.3861,-1.585 v 0 l 0.287,-1.665 0.0064,-0.037 0.2103,-1.639 v 0 l 0.1379,-1.394 v 0 L 81.5,103.363 v 0 l 0.8221,-1.413 v 0 l 0.7898,-1.494 v 0 l 0.8305,-1.7779 v 0 l 0.381,-0.9382 0.136,-0.3858 0.1958,-0.5556 v 0 l 0.2622,-0.921 v 0 l 0.1741,-0.8787 v 0 l 0.0648,-0.8133 v 0 l -0.064,-0.7258 -0.5924,-1.0967 -0.5125,-0.327 v 0 l -0.5236,-0.2815 v 0 l -0.535,-0.2376 v 0 l -0.5456,-0.1942 v 0 L 81.8281,91.17 v 0 l -0.5643,-0.1124 v 0 l -1.1536,-0.109 v 0 l -1.1824,0.0365 v 0 l -1.2065,0.1725 v 0 l -1.2256,0.2974 v 0 l -1.2393,0.4125 v 0 l -1.248,0.5167 v 0 l -1.2518,0.6112 v 0 l -1.2504,0.6948 v 0 l -1.2443,0.7686 v 0 l -1.2327,0.8316 v 0 l -1.216,0.8845 v 0 l -1.1949,0.9271 v 0 l -1.1681,0.9591 v 0 l -0.7171,0.6334"
           inkscape:label="Redwork Unterpfad 3"
           inkstitch:running_stitch_length_mm="2.5"
           inkstitch:path_type="redwork-underpath" /><path
           id="redwork_5585"
           style="display:inline;opacity:1;fill:none;stroke:#222421;stroke-width:0.264583;stroke-dasharray:none"
           d="m 64.7331,98.6945 0.7171,-0.6334 v 0 l 1.1681,-0.9591 v 0 l 1.1949,-0.9271 v 0 l 1.216,-0.8845 v 0 l 1.2327,-0.8316 v 0 l 1.2443,-0.7686 v 0 l 1.2504,-0.6948 v 0 l 1.2518,-0.6112 v 0 l 1.248,-0.5167 v 0 l 1.2393,-0.4125 v 0 l 1.2256,-0.2974 v 0 l 1.2065,-0.1725 v 0 l 1.1824,-0.0365 v 0 l 1.1536,0.109 v 0 l 0.5643,0.1124 v 0 l 0.5551,0.1527 v 0 l 0.5456,0.1942 v 0 l 0.535,0.2376 v 0 l 0.5236,0.2815 v 0 l 0.5125,0.327 0.5924,1.0967 0.064,0.7258 v 0 l -0.0648,0.8133 v 0 l -0.1741,0.8787 v 0 l -0.2622,0.921 v 0 l -0.1958,0.5556"
           inkscape:label="Redwork 4"
           inkstitch:running_stitch_length_mm="2.5"
           inkstitch:path_type="redwork-top"
           inkstitch:bean_stitch_repeats="1" /><path
           id="underpath_1799"
           style="display:inline;opacity:1;fill:none;stroke:#222421;stroke-width:0.264583;stroke-dasharray:2, 1.1"
           d="m 84.4594,97.3541 -1.3356,-0.2368 v 0 l -1.365,-0.1701 v 0 l -1.3134,-0.0974 v 0 l -1.2568,-0.0341 v 0 l -1.1946,0.0209 v 0 l -1.1276,0.068 v 0 l -1.0554,0.1066 v 0 l -0.9782,0.1363 v 0 l -1.7044,0.3294 v 0 l -1.3343,0.3495 v 0 l -1.22357,0.385648"
           inkscape:label="Redwork Unterpfad 5"
           inkstitch:running_stitch_length_mm="2.5"
           inkstitch:path_type="redwork-underpath"
           sodipodi:nodetypes="cccccccccccccccccccccc" /><path
           id="redwork_2064"
           style="display:inline;opacity:1;fill:none;stroke:#222421;stroke-width:0.264583;stroke-dasharray:none"
           d="M 70.522503,98.236061 71.7941,97.8264 v 0 l 1.3343,-0.3495 v 0 l 1.7044,-0.3294 v 0 l 0.9782,-0.1363 v 0 l 1.0554,-0.1066 v 0 l 1.1276,-0.068 v 0 l 1.1946,-0.0209 v 0 l 1.2568,0.0341 v 0 l 1.3134,0.0974 v 0 l 1.365,0.1701 v 0 l 1.3356,0.2368 -0.136,0.3858 -0.381,0.9382 v 0 l -0.8305,1.7779 v 0 l -0.7898,1.494 v 0 L 81.5,103.363 v 0 l -0.0981,1.332 v 0 l -0.1379,1.394 v 0 l -0.2103,1.639"
           inkscape:label="Redwork 6"
           inkstitch:running_stitch_length_mm="2.5"
           inkstitch:path_type="redwork-top"
           inkstitch:bean_stitch_repeats="1"
           sodipodi:nodetypes="cccccccccccccccccccccccccccccccccccc" /><path
           id="underpath_4830"
           style="display:inline;opacity:1;fill:none;stroke:#222421;stroke-width:0.264583;stroke-dasharray:2, 1.1"
           d="m 81.0473,107.765 -0.4262,-0.328 v 0 l -0.6186,-0.381 v 0 l -0.6765,-0.333 v 0 l -0.7319,-0.291 v 0 l -0.7845,-0.249 v 0 l -0.8345,-0.211 v 0 l -0.8813,-0.177 v 0 l -0.9258,-0.144 v 0 l -1.9738,-0.203 v 0 l -2.1182,-0.11 v 0 l -2.2408,-0.037 v 0 l -2.2727,0.01 -0.2083,0.248 -0.4442,0.301 v 0 l -1.5034,0.808 v 0 l -2.0783,0.991 v 0 l -2.3595,1.061 v 0 l -4.3871,1.885"
           inkscape:label="Redwork Unterpfad 7"
           inkstitch:running_stitch_length_mm="2.5"
           inkstitch:path_type="redwork-underpath" /><path
           id="redwork_2162"
           style="display:inline;opacity:1;fill:none;stroke:#222421;stroke-width:0.264583;stroke-dasharray:none"
           d="m 55.5817,110.605 4.3871,-1.885 v 0 l 2.3595,-1.061 v 0 l 2.0783,-0.991 v 0 L 65.91,105.86 v 0 l 0.696343,-0.55314"
           inkscape:label="Redwork 8"
           inkstitch:running_stitch_length_mm="2.5"
           inkstitch:path_type="redwork-top"
           inkstitch:bean_stitch_repeats="1"
           sodipodi:nodetypes="cccccccccc" /><path
           id="underpath_4401"
           style="display:inline;opacity:1;fill:none;stroke:#222421;stroke-width:0.264583;stroke-dasharray:2, 1.1"
           d="m 66.8784,104.826 0.7011,-0.853 v 0 l 0.9073,-1.071 v 0 l 0.9525,-1.174 v 0 l 0.8369,-1.164 v 0 l 0.3249,-0.543 v 0 l 0.2354,-0.4965 -0.3526,-1.2433 -0.8793,-0.1418 v 0 L 68.8932,98.082 v 0 L 68.064,98.0624 v 0 l -0.8991,0.0397 v 0 l -0.9213,0.1204 v 0 l -0.8953,0.2233 -0.6152,0.2487 -1.5192,1.3405 v 0 l -2.069,1.979 v 0 l -1.8619,1.902 v 0 l -1.614,1.74 v 0 l -1.3258,1.498 v 0 l -0.9969,1.172 v 0 l -0.8462,1.037 v 0 L 53.963,109.9 v 0 l -0.5138,0.392 v 0 l -0.4966,0.244 -0.9684,0.022 -0.4839,-0.231 v 0 l -0.4927,-0.396 v 0 l -0.5077,-0.568 v 0 l -0.653,-0.804 v 0 l -1.8145,-2.118 v 0 l -1.275,-1.414 v 0 l -1.4841,-1.575 v 0 l -1.6663,-1.683 v 0 l -1.8211,-1.734 v 0 L 40.2216,98.6461 39.707,98.4458 38.8117,98.2225 v 0 l -0.9213,-0.1204 v 0 l -0.8991,-0.0397 v 0 l -0.8292,0.0196 v 0 l -0.7114,0.0574 v 0 l -0.8795,0.1418 -0.3863,-0.1532 -0.9234,-0.3016 v 0 L 31.927,97.4769 v 0 l -1.7042,-0.3294 v 0 l -0.9784,-0.1363 v 0 l -1.0555,-0.1066 v 0 l -1.1276,-0.068 v 0 l -1.1946,-0.0209 v 0 l -1.2568,0.0341 v 0 l -1.3134,0.0974 v 0 l -1.365,0.1701"
           inkscape:label="Redwork Unterpfad 9"
           inkstitch:running_stitch_length_mm="2.5"
           inkstitch:path_type="redwork-underpath" /><path
           id="redwork_6286"
           style="display:inline;opacity:1;fill:none;stroke:#222421;stroke-width:0.264583;stroke-dasharray:none"
           d="m 21.9315,97.1173 1.365,-0.1701 v 0 l 1.3134,-0.0974 v 0 l 1.2568,-0.0341 v 0 l 1.1946,0.0209 v 0 l 1.1276,0.068 v 0 l 1.0555,0.1066 v 0 l 0.9784,0.1363 v 0 l 1.7042,0.3294 v 0 l 1.3345,0.3495 v 0 l 0.9234,0.3016"
           inkscape:label="Redwork 10"
           inkstitch:running_stitch_length_mm="2.5"
           inkstitch:path_type="redwork-top"
           inkstitch:bean_stitch_repeats="1" /><path
           id="underpath_9510"
           style="display:inline;opacity:1;fill:none;stroke:#222421;stroke-width:0.264583;stroke-dasharray:2, 1.1"
           d="m 34.2188,99.5245 0.2355,0.4965 v 0 l 0.3249,0.543 v 0 l 0.8368,1.164 v 0 l 0.9525,1.174 v 0 l 0.9073,1.071 v 0 l 0.7011,0.853 0.316,0.485 -2.2728,-0.01 v 0 l -2.2408,0.037 v 0 l -2.1182,0.11 v 0 l -1.9738,0.203 v 0 l -0.9258,0.144 v 0 l -0.8813,0.177 v 0 l -0.8342,0.211 v 0 l -0.7845,0.249 v 0 l -0.7321,0.291 v 0 l -0.6766,0.333 v 0 l -0.6186,0.381"
           inkscape:label="Redwork Unterpfad 11"
           inkstitch:running_stitch_length_mm="2.5"
           inkstitch:path_type="redwork-underpath" /><path
           id="redwork_3794"
           style="display:inline;opacity:1;fill:none;stroke:#222421;stroke-width:0.264583;stroke-dasharray:none"
           d="m 24.4342,107.437 0.6186,-0.381 v 0 l 0.6766,-0.333 v 0 l 0.7321,-0.291 v 0 l 0.7845,-0.249 v 0 l 0.8342,-0.211 v 0 l 0.8813,-0.177 v 0 l 0.9258,-0.144 v 0 l 1.9738,-0.203 v 0 l 2.1182,-0.11 v 0 l 2.2408,-0.037 v 0 l 2.2728,0.01"
           inkscape:label="Redwork 12"
           inkstitch:running_stitch_length_mm="2.5"
           inkstitch:path_type="redwork-top"
           inkstitch:bean_stitch_repeats="1" /><path
           id="underpath_7563"
           style="display:inline;opacity:1;fill:none;stroke:#222421;stroke-width:0.264583;stroke-dasharray:2, 1.1"
           d="m 38.7011,105.559 0.4442,0.301 v 0 l 1.5034,0.808 v 0 l 2.0783,0.991 v 0 l 2.3595,1.061 v 0 l 4.3871,1.885 v 0 l 1.9846,0.827"
           inkscape:label="Redwork Unterpfad 13"
           inkstitch:running_stitch_length_mm="2.5"
           inkstitch:path_type="redwork-underpath" /><path
           id="redwork_6840"
           style="display:inline;opacity:1;fill:none;stroke:#222421;stroke-width:0.264583;stroke-dasharray:none"
           d="m 51.4582,111.432 -1.9846,-0.827 v 0 l -4.3871,-1.885 v 0 l -2.3595,-1.061 v 0 l -2.0783,-0.991 v 0 l -1.5034,-0.808 v 0 l -0.4442,-0.301 -0.5242,-0.733 -0.7011,-0.853 v 0 l -0.9073,-1.071 v 0 l -0.9525,-1.174 v 0 l -0.8368,-1.164 v 0 l -0.3249,-0.543 v 0 l -0.2355,-0.4965 0.3524,-1.2433 0.8795,-0.1418"
           inkscape:label="Redwork 14"
           inkstitch:running_stitch_length_mm="2.5"
           inkstitch:path_type="redwork-top"
           inkstitch:bean_stitch_repeats="1" /><path
           id="underpath_7896"
           style="display:inline;opacity:1;fill:none;stroke:#222421;stroke-width:0.264583;stroke-dasharray:2, 1.1"
           d="m 35.4507,98.1394 -0.8792,0.1418"
           inkscape:label="Redwork Unterpfad 15"
           inkstitch:running_stitch_length_mm="2.5"
           inkstitch:path_type="redwork-underpath" /><path
           id="redwork_3178"
           style="display:inline;opacity:1;fill:none;stroke:#222421;stroke-width:0.264583;stroke-dasharray:none"
           d="m 34.5715,98.2812 0.8792,-0.1418 v 0 l 0.7114,-0.0574 v 0 l 0.8292,-0.0196 v 0 l 0.8991,0.0397 v 0 l 0.9213,0.1204 v 0 l 0.8953,0.2233"
           inkscape:label="Redwork 16"
           inkstitch:running_stitch_length_mm="2.5"
           inkstitch:path_type="redwork-top"
           inkstitch:bean_stitch_repeats="1" /><path
           id="underpath_1741"
           style="display:inline;opacity:1;fill:none;stroke:#222421;stroke-width:0.264583;stroke-dasharray:2, 1.1"
           d="m 40.2216,98.6461 -0.3847,-0.3413 v 0 l -2.0497,-1.6714 v 0 l -2.1233,-1.5568 v 0 l -1.081,-0.7178 v 0 l -1.0891,-0.6686 v 0 l -1.094,-0.6125 v 0 l -1.0954,-0.5493 v 0 l -1.0938,-0.4792 v 0 l -1.0882,-0.4019 v 0 l -1.0798,-0.318 v 0 L 26.975,91.102 v 0 l -1.052,-0.1291 v 0 l -1.0334,-0.0246 v 0 l -1.1536,0.109 v 0 l -0.5644,0.1122 v 0 l -0.555,0.1532 v 0 l -0.5456,0.1942 v 0 l -0.535,0.2376 v 0 l -0.5239,0.2815 v 0 l -0.5125,0.327 -0.5924,1.0967 -0.0637,0.7258 v 0 l 0.0648,0.8133 v 0 l 0.1738,0.8787 v 0 l 0.2625,0.921 v 0 l 0.1992,0.5649 v 0 l 1.3877,-0.2461"
           inkscape:label="Redwork Unterpfad 17"
           inkstitch:running_stitch_length_mm="2.5"
           inkstitch:path_type="redwork-underpath" /><path
           id="redwork_386"
           style="display:inline;opacity:1;fill:none;stroke:#222421;stroke-width:0.264583;stroke-dasharray:none"
           d="m 21.9315,97.1173 -1.3877,0.2461"
           inkscape:label="Redwork 18"
           inkstitch:running_stitch_length_mm="2.5"
           inkstitch:path_type="redwork-top"
           inkstitch:bean_stitch_repeats="1" /><path
           id="underpath_7558"
           style="display:inline;opacity:1;fill:none;stroke:#222421;stroke-width:0.264583;stroke-dasharray:2, 1.1"
           d="m 20.6764,97.7399 0.381,0.9382 v 0 l 0.8308,1.7779 v 0 l 0.7897,1.494 v 0 l 0.8221,1.413 v 0 l 0.0982,1.332 v 0 l 0.1378,1.394 v 0 l 0.2106,1.639 0.0127,0.074 0.4749,-0.365"
           inkscape:label="Redwork Unterpfad 19"
           inkstitch:running_stitch_length_mm="2.5"
           inkstitch:path_type="redwork-underpath" /><path
           id="redwork_7816"
           style="display:inline;opacity:1;fill:none;stroke:#222421;stroke-width:0.264583;stroke-dasharray:none"
           d="m 24.4342,107.437 -0.4749,0.365"
           inkscape:label="Redwork 20"
           inkstitch:running_stitch_length_mm="2.5"
           inkstitch:path_type="redwork-top"
           inkstitch:bean_stitch_repeats="1" /><path
           id="underpath_6543"
           style="display:inline;opacity:1;fill:none;stroke:#222421;stroke-width:0.264583;stroke-dasharray:2, 1.1"
           d="m 23.9593,107.802 0.2805,1.628 v 0 l 0.3863,1.585 v 0 l 0.2309,0.693 v 0 l 0.2583,0.595 v 0 l 0.2863,0.476 0.3159,0.333 0.4119,0.473 v 0 l 0.4879,0.403 v 0 l 0.5498,0.34 v 0 l 0.5974,0.282 v 0 l 0.6308,0.228 v 0 l 0.6501,0.18 v 0 l 1.302,0.238 v 0 l 1.2094,0.111 v 0 l 1.0041,0.026 v 0 l 0.939,-0.03 -0.4159,0.194 -0.4604,0.252 v 0 l -0.5762,0.363 v 0 l -0.6522,0.48 v 0 l -0.689,0.604 v 0 l -0.6861,0.732 v 0 l -0.6434,0.867 v 0 l -0.2935,0.485 v 0 l -0.2683,0.522 v 0 l -0.2376,0.559 v 0 l -0.2024,0.596 v 0 l -0.1622,0.635 v 0 l -0.1166,0.673 v 0 l -0.067,0.713 v 0 l -0.0116,0.753 v 0 l 0.0484,0.795 v 0 l 0.1132,0.836 0.0281,0.135 0.7768,-0.896 v 0 l 0.8805,-0.877 v 0 l 0.9158,-0.801 v 0 l 0.9371,-0.725 v 0 l 0.944,-0.653 v 0 l 0.9367,-0.583 v 0 l 0.9152,-0.515 v 0 l 0.8794,-0.451 v 0 l 1.5944,-0.716 v 0 l 1.2801,-0.487 v 0 l 1.0961,-0.345"
           inkscape:label="Redwork Unterpfad 21"
           inkstitch:running_stitch_length_mm="2.5"
           inkstitch:path_type="redwork-underpath" /><path
           id="redwork_3023"
           style="display:inline;opacity:1;fill:none;stroke:#222421;stroke-width:0.264583;stroke-dasharray:none"
           d="m 39.3633,118.508 -1.0961,0.345 v 0 l -1.2801,0.487 v 0 l -1.5944,0.716 v 0 l -0.8794,0.451 v 0 l -0.9152,0.515 v 0 l -0.9367,0.583 v 0 l -0.944,0.653 v 0 l -0.9371,0.725 v 0 l -0.9158,0.801 v 0 l -0.8805,0.877 v 0 l -0.7768,0.896"
           inkscape:label="Redwork 22"
           inkstitch:running_stitch_length_mm="2.5"
           inkstitch:path_type="redwork-top"
           inkstitch:bean_stitch_repeats="1" /><path
           id="underpath_9594"
           style="display:inline;opacity:1;fill:none;stroke:#222421;stroke-width:0.264583;stroke-dasharray:2, 1.1"
           d="m 28.2072,125.557 0.1553,0.744 v 0 l 0.258,0.923 v 0 l 0.3378,0.966 v 0 l 0.4226,1.012 v 0 l 0.5122,1.057 v 0 l 0.607,1.104 v 0 l 0.6162,0.784 v 0 l 0.7146,0.675 v 0 l 0.794,0.575 v 0 l 0.8546,0.482 v 0 l 0.8962,0.398 v 0 l 0.9181,0.321 v 0 l 0.9215,0.253 v 0 l 0.9054,0.193 v 0 l 0.8073,0.13 0.0632,0.01 0.8162,0.095 v 0 l 1.3941,0.089 v 0 l 0.9483,0.007 0.35,-0.012 0.6713,-0.135 v 0 l 0.6387,-0.213 v 0 l 0.6069,-0.283 v 0 l 0.576,-0.349 v 0 l 0.5456,-0.41 v 0 l 0.5162,-0.465 v 0 l 0.4871,-0.515 v 0 l 0.4593,-0.56 v 0 l 0.4318,-0.599 v 0 l 0.4051,-0.633 v 0 l 0.7334,-1.348 v 0 l 0.6356,-1.421 v 0 l 0.5439,-1.451 v 0 l 0.458,-1.439 v 0 l 0.3779,-1.385 v 0 l 0.3034,-1.288 v 0 l 0.2352,-1.149 v 0 l 0.289,-1.711 v 0 l 0.0857,-0.646 v 0 l 0.4553,-1.271"
           inkscape:label="Redwork Unterpfad 23"
           inkstitch:running_stitch_length_mm="2.5"
           inkstitch:path_type="redwork-underpath" /><path
           id="redwork_249"
           style="display:inline;opacity:1;fill:none;stroke:#222421;stroke-width:0.264583;stroke-dasharray:none"
           d="m 50.9552,118.092 -0.4553,1.271 v 0 l -0.0857,0.646 v 0 l -0.289,1.711 v 0 l -0.2352,1.149 v 0 l -0.3034,1.288 v 0 l -0.3779,1.385 v 0 l -0.458,1.439 v 0 l -0.5439,1.451 v 0 l -0.6356,1.421 v 0 l -0.7334,1.348 v 0 l -0.4051,0.633 v 0 l -0.4318,0.599 v 0 l -0.4593,0.56 v 0 l -0.4871,0.515 v 0 l -0.5162,0.465 v 0 l -0.5456,0.41 v 0 l -0.576,0.349 v 0 l -0.6069,0.283 v 0 l -0.6387,0.213 v 0 l -0.6713,0.135 -0.35,0.012 -0.9483,-0.007 v 0 l -1.3941,-0.089 v 0 l -0.8162,-0.095"
           inkscape:label="Redwork 24"
           inkstitch:running_stitch_length_mm="2.5"
           inkstitch:path_type="redwork-top"
           inkstitch:bean_stitch_repeats="1" /><path
           id="underpath_2270"
           style="display:inline;opacity:1;fill:none;stroke:#222421;stroke-width:0.264583;stroke-dasharray:2, 1.1"
           d="m 37.928,135.174 0.4749,-1.531 v 0 l 0.7361,-2.087 v 0 l 1.7457,-4.547 v 0 l 1.5452,-3.814"
           inkscape:label="Redwork Unterpfad 25"
           inkstitch:running_stitch_length_mm="2.5"
           inkstitch:path_type="redwork-underpath" /><path
           id="redwork_3836"
           style="display:inline;opacity:1;fill:none;stroke:#222421;stroke-width:0.264583;stroke-dasharray:none"
           d="m 42.4299,123.195 -1.5452,3.814 v 0 l -1.7457,4.547 v 0 l -0.7361,2.087 v 0 l -0.4749,1.531 v 0 l -0.8073,-0.13 v 0 l -0.9054,-0.193 v 0 l -0.9215,-0.253 v 0 l -0.9181,-0.321 v 0 l -0.8962,-0.398 v 0 l -0.8546,-0.482 v 0 l -0.794,-0.575 v 0 l -0.7146,-0.675 v 0 l -0.6162,-0.784 v 0 l -0.607,-1.104 v 0 l -0.5122,-1.057 v 0 l -0.4226,-1.012 v 0 l -0.3378,-0.966 v 0 l -0.258,-0.923 v 0 l -0.1553,-0.744 -0.0281,-0.135 -0.1132,-0.836 v 0 l -0.0484,-0.795 v 0 l 0.0116,-0.753 v 0 l 0.067,-0.713 v 0 l 0.1166,-0.673 v 0 l 0.1622,-0.635 v 0 l 0.2024,-0.596 v 0 l 0.2376,-0.559 v 0 l 0.2683,-0.522 v 0 l 0.2935,-0.485 v 0 l 0.6434,-0.867 v 0 l 0.6861,-0.732 v 0 l 0.689,-0.604 v 0 l 0.6522,-0.48 v 0 l 0.5762,-0.363 v 0 l 0.867924,-0.38784"
           inkscape:label="Redwork 26"
           inkstitch:running_stitch_length_mm="2.5"
           inkstitch:path_type="redwork-top"
           inkstitch:bean_stitch_repeats="1"
           sodipodi:nodetypes="cccccccccccccccccccccccccccccccccccccccccccccccccccccccccccccccccccccc" /><path
           id="underpath_2820"
           style="display:inline;opacity:1;fill:none;stroke:#222421;stroke-width:0.264583;stroke-dasharray:2, 1.1"
           d="m 33.4073,115.406 5.1287,-0.997 v 0 l 12.7121,-2.47"
           inkscape:label="Redwork Unterpfad 27"
           inkstitch:running_stitch_length_mm="2.5"
           inkstitch:path_type="redwork-underpath" /><path
           id="redwork_2281"
           style="display:inline;opacity:1;fill:none;stroke:#222421;stroke-width:0.264583;stroke-dasharray:none"
           d="m 51.2481,111.939 -12.7121,2.47"
           inkscape:label="Redwork 28"
           inkstitch:running_stitch_length_mm="2.5"
           inkstitch:path_type="redwork-top"
           inkstitch:bean_stitch_repeats="1" /><path
           id="underpath_3506"
           style="display:inline;opacity:1;fill:none;stroke:#222421;stroke-width:0.264583;stroke-dasharray:2, 1.1"
           d="m 38.5431,114.447 0.4154,1.277 v 0 l 0.2487,0.838 v 0 l 0.2207,0.873 -0.1561,1.373 -0.3146,0.715 v 0 l -0.3916,0.678 v 0 l -0.4093,0.599 v 0 l -0.3667,0.48 v 0 l -0.3654,0.434 0.2037,0.815 0.4858,0.208 v 0 l 0.489,0.143 1.4782,0.065 0.4945,-0.088 v 0 l 0.4942,-0.138 v 0 l 0.4932,-0.185 v 0 l 0.9806,-0.496 v 0 l 0.5085,-0.338 v 0 l -0.622,1.495"
           inkscape:label="Redwork Unterpfad 29"
           inkstitch:running_stitch_length_mm="2.5"
           inkstitch:path_type="redwork-underpath" /><path
           id="redwork_4144"
           style="display:inline;opacity:1;fill:none;stroke:#222421;stroke-width:0.264583;stroke-dasharray:none"
           d="m 42.4299,123.195 0.622,-1.495"
           inkscape:label="Redwork 30"
           inkstitch:running_stitch_length_mm="2.5"
           inkstitch:path_type="redwork-top"
           inkstitch:bean_stitch_repeats="1" /><path
           id="underpath_3160"
           style="display:inline;opacity:1;fill:none;stroke:#222421;stroke-width:0.264583;stroke-dasharray:2, 1.1"
           d="m 43.0519,121.7 0.4601,-0.306 v 0 l 0.9512,-0.767 v 0 l 0.9281,-0.865 v 0 l 0.8999,-0.936 v 0 l 0.866,-0.982 v 0 l 1.6089,-2.001 v 0 l 2.5733,-3.434"
           inkscape:label="Redwork Unterpfad 31"
           inkstitch:running_stitch_length_mm="2.5"
           inkstitch:path_type="redwork-underpath" /><path
           id="redwork_7535"
           style="display:inline;opacity:1;fill:none;stroke:#222421;stroke-width:0.264583;stroke-dasharray:none"
           d="m 51.3394,112.409 -2.5733,3.434 v 0 l -1.6089,2.001 v 0 l -0.866,0.982 v 0 l -0.8999,0.936 v 0 l -0.9281,0.865 v 0 l -0.9512,0.767 v 0 l -0.4601,0.306 v 0 l -0.5085,0.338 v 0 l -0.9806,0.496 v 0 l -0.4932,0.185 v 0 l -0.4942,0.138 v 0 l -0.4945,0.088 -1.4782,-0.065 -0.489,-0.143 v 0 l -0.4858,-0.208 -0.2037,-0.815 0.3654,-0.434 v 0 l 0.3667,-0.48 v 0 l 0.4093,-0.599 v 0 l 0.3916,-0.678 v 0 l 0.3146,-0.715 0.1561,-1.373 -0.2207,-0.873 v 0 l -0.2487,-0.838 v 0 l -0.4154,-1.277 -0.0071,-0.038 -5.1287,0.997 0.0926,-0.043 -0.939,0.03 v 0 l -1.0041,-0.026 v 0 l -1.2094,-0.111 v 0 l -1.302,-0.238 v 0 l -0.6501,-0.18 v 0 l -0.6308,-0.228 v 0 l -0.5974,-0.282 v 0 l -0.5498,-0.34 v 0 l -0.4879,-0.403 v 0 l -0.4119,-0.473 -0.3159,-0.333 -0.2863,-0.476 v 0 l -0.2583,-0.595 v 0 l -0.2309,-0.693 v 0 l -0.3863,-1.585 v 0 l -0.2805,-1.628 -0.0127,-0.074 -0.2106,-1.639 v 0 l -0.1378,-1.394 v 0 L 23.5,103.363 v 0 l -0.8221,-1.413 v 0 l -0.7897,-1.494 v 0 l -0.8308,-1.7779 v 0 l -0.381,-0.9382 -0.1326,-0.3765 -0.1992,-0.5649 v 0 l -0.2625,-0.921 v 0 l -0.1738,-0.8787 v 0 l -0.0648,-0.8133 v 0 l 0.0637,-0.7258 0.5924,-1.0967 0.5125,-0.327 v 0 l 0.5239,-0.2815 v 0 l 0.535,-0.2376 v 0 l 0.5456,-0.1942 v 0 l 0.555,-0.1532 v 0 l 0.5644,-0.1122 v 0 l 1.1536,-0.109 v 0 l 1.0334,0.0246 v 0 l 1.052,0.1291 v 0 l 1.0676,0.2273 v 0 l 1.0798,0.318 v 0 l 1.0882,0.4019 v 0 l 1.0938,0.4792 v 0 l 1.0954,0.5493 v 0 l 1.094,0.6125 v 0 l 1.0891,0.6686 v 0 l 1.081,0.7178 v 0 l 2.1233,1.5568 v 0 l 2.0497,1.6714 v 0 l 0.3847,0.3413 v 0 l 1.5643,1.3889 v 0 l 1.8211,1.734 v 0 l 1.6663,1.683 v 0 l 1.4841,1.575 v 0 l 1.275,1.414 v 0 l 1.8145,2.118 v 0 l 0.653,0.804 v 0 l 0.5077,0.568 v 0 l 0.4927,0.396 v 0 l 0.4839,0.231 0.9684,-0.022 0.4966,-0.244 v 0 L 53.963,109.9 v 0 l 0.5371,-0.537 v 0 l 0.8462,-1.037 v 0 l 0.9969,-1.172 v 0 l 1.3258,-1.498 v 0 l 1.614,-1.74 v 0 l 1.8619,-1.902 v 0 l 2.069,-1.979 v 0 l 1.5192,-1.3405 0.6152,-0.2487 0.8953,-0.2233 v 0 l 0.9213,-0.1204 v 0 l 0.8991,-0.0397 v 0 l 0.8292,0.0196 v 0 l 0.7114,0.0574 v 0 l 0.8793,0.1418 0.3526,1.2433 -0.2354,0.4965 v 0 l -0.3249,0.543 v 0 l -0.8369,1.164 v 0 l -0.9525,1.174 v 0 l -0.9073,1.071 v 0 l -0.7011,0.853 -0.3159,0.485 2.2727,-0.01 v 0 l 2.2408,0.037 v 0 l 2.1182,0.11 v 0 l 1.9738,0.203 v 0 l 0.9258,0.144 v 0 l 0.8813,0.177 v 0 l 0.8345,0.211 v 0 l 0.7845,0.249 v 0 l 0.7319,0.291 v 0 l 0.6765,0.333 v 0 l 0.6186,0.381 v 0 l 0.4262,0.328 v 0 l -0.287,1.665 v 0 l -0.3861,1.585 v 0 l -0.2312,0.693 v 0 l -0.258,0.595 v 0 l -0.2865,0.476 -0.3159,0.333 -0.412,0.473 v 0 l -0.4879,0.403 v 0 l -0.5498,0.34 v 0 l -0.5974,0.282 v 0 l -0.6308,0.228 v 0 l -0.6501,0.18 v 0 l -1.3017,0.238 v 0 l -1.2097,0.111 v 0 l -1.0041,0.026 v 0 l -0.939,-0.03"
           inkscape:label="Redwork 32"
           inkstitch:running_stitch_length_mm="2.5"
           inkstitch:path_type="redwork-top"
           inkstitch:bean_stitch_repeats="1" /><path
           id="underpath_5987"
           style="display:inline;opacity:1;fill:none;stroke:#222421;stroke-width:0.264583;stroke-dasharray:2, 1.1"
           d="m 71.6507,115.433 0.5148,0.101"
           inkscape:label="Redwork Unterpfad 33"
           inkstitch:running_stitch_length_mm="2.5"
           inkstitch:path_type="redwork-underpath" /><path
           id="redwork_5006"
           style="display:inline;opacity:1;fill:none;stroke:#222421;stroke-width:0.264583;stroke-dasharray:none"
           d="m 72.1655,115.534 -0.5148,-0.101"
           inkscape:label="Redwork 34"
           inkstitch:running_stitch_length_mm="2.5"
           inkstitch:path_type="redwork-top"
           inkstitch:bean_stitch_repeats="1" /><path
           id="underpath_1140"
           style="display:inline;opacity:1;fill:none;stroke:#222421;stroke-width:0.264583;stroke-dasharray:2, 1.1"
           d="m 71.6507,115.433 -5.2004,-1.018"
           inkscape:label="Redwork Unterpfad 35"
           inkstitch:running_stitch_length_mm="2.5"
           inkstitch:path_type="redwork-underpath" /><path
           id="redwork_2456"
           style="display:inline;opacity:1;fill:none;stroke:#222421;stroke-width:0.264583;stroke-dasharray:none"
           d="m 66.4503,114.415 5.2004,1.018 0.2653,0.124 0.4604,0.252 v 0 l 0.5763,0.363 v 0 l 0.6522,0.48 v 0 l 0.6887,0.604 v 0 l 0.6863,0.732 v 0 l 0.6435,0.867 v 0 l 0.2937,0.485 v 0 l 0.268,0.522 v 0 l 0.2376,0.559 v 0 l 0.2024,0.596 v 0 l 0.1622,0.635 v 0 l 0.1169,0.673 v 0 l 0.0667,0.713 v 0 l 0.0116,0.753 v 0 l -0.0481,0.795 v 0 l -0.1135,0.836"
           inkscape:label="Redwork 36"
           inkstitch:running_stitch_length_mm="2.5"
           inkstitch:path_type="redwork-top"
           inkstitch:bean_stitch_repeats="1" /><path
           id="underpath_8622"
           style="display:inline;opacity:1;fill:none;stroke:#222421;stroke-width:0.264583;stroke-dasharray:2, 1.1"
           d="m 76.8034,125.506 -0.7321,-0.845 v 0 l -0.8805,-0.877 v 0 l -0.9157,-0.801 v 0 l -0.9372,-0.725 v 0 l -0.944,-0.653 v 0 l -0.9366,-0.583 v 0 l -0.9152,-0.515 v 0 l -0.8795,-0.451 v 0 l -1.5944,-0.716 v 0 l -1.2798,-0.487 v 0 l -1.0964,-0.345"
           inkscape:label="Redwork Unterpfad 37"
           inkstitch:running_stitch_length_mm="2.5"
           inkstitch:path_type="redwork-underpath" /><path
           id="redwork_2563"
           style="display:inline;opacity:1;fill:none;stroke:#222421;stroke-width:0.264583;stroke-dasharray:none"
           d="m 65.692,118.508 1.0964,0.345 v 0 l 1.2798,0.487 v 0 l 1.5944,0.716 v 0 l 0.8795,0.451 v 0 l 0.9152,0.515 v 0 l 0.9366,0.583 v 0 l 0.944,0.653 v 0 l 0.9372,0.725 v 0 l 0.9157,0.801 v 0 l 0.8805,0.877 v 0 l 0.7321,0.845 v 0 l -0.1656,0.795 v 0 l -0.2582,0.923 v 0 l -0.3379,0.966 v 0 l -0.4226,1.012 v 0 l -0.5122,1.057 v 0 L 74.5,131.363 v 0 l -0.616,0.784 v 0 l -0.7146,0.675 v 0 l -0.7943,0.575 v 0 l -0.8546,0.482 v 0 l -0.8959,0.398 v 0 l -0.9184,0.321 v 0 l -0.9212,0.253 v 0 l -0.9057,0.193 v 0 l -0.7546,0.121 v 0 l -0.472,-1.522 v 0 l -0.7361,-2.087 v 0 l -1.746,-4.547 v 0 l -1.5451,-3.814 v 0 L 62.0034,121.7"
           inkscape:label="Redwork 38"
           inkstitch:running_stitch_length_mm="2.5"
           inkstitch:path_type="redwork-top"
           inkstitch:bean_stitch_repeats="1" /><path
           id="underpath_709"
           style="display:inline;opacity:1;fill:none;stroke:#222421;stroke-width:0.264583;stroke-dasharray:2, 1.1"
           d="m 62.0034,121.7 0.5086,0.338 v 0 l 0.9805,0.496 v 0 l 0.4932,0.185 v 0 l 0.4942,0.138 v 0 l 0.4945,0.088 1.4783,-0.065 0.4889,-0.143 v 0 l 0.4858,-0.208 0.2037,-0.815 -0.3654,-0.434 v 0 L 66.899,120.8 v 0 l -0.409,-0.599 v 0 l -0.3919,-0.678 v 0 l -0.3143,-0.715 -0.1564,-1.373 0.4326,-1.693 v 0 l 0.3686,-1.216"
           inkscape:label="Redwork Unterpfad 39"
           inkstitch:running_stitch_length_mm="2.5"
           inkstitch:path_type="redwork-underpath" /><path
           id="redwork_8584"
           style="display:inline;opacity:1;fill:none;stroke:#222421;stroke-width:0.264583;stroke-dasharray:none"
           d="m 66.4286,114.526 -0.3686,1.216 v 0 l -0.4326,1.693 0.1564,1.373 0.3143,0.715 v 0 l 0.3919,0.678 v 0 l 0.409,0.599 v 0 l 0.3667,0.48 v 0 l 0.3654,0.434 -0.2037,0.815 -0.4858,0.208 v 0 l -0.4889,0.143 -1.4783,0.065 -0.4945,-0.088 v 0 l -0.4942,-0.138 v 0 l -0.4932,-0.185 v 0 l -0.9805,-0.496 v 0 L 62.0034,121.7 v 0 l -0.4601,-0.306 v 0 l -0.9511,-0.767 v 0 l -0.9282,-0.865 v 0 l -0.8999,-0.936 v 0 l -0.8659,-0.982 v 0 l -1.609,-2.001 v 0 l -2.5733,-3.434"
           inkscape:label="Redwork 40"
           inkstitch:running_stitch_length_mm="2.5"
           inkstitch:path_type="redwork-top"
           inkstitch:bean_stitch_repeats="1" /><path
           id="underpath_7357"
           style="display:inline;opacity:1;fill:none;stroke:#222421;stroke-width:0.264583;stroke-dasharray:2, 1.1"
           d="m 53.8077,111.939 12.6426,2.476"
           inkscape:label="Redwork Unterpfad 41"
           inkstitch:running_stitch_length_mm="2.5"
           inkstitch:path_type="redwork-underpath" /><path
           id="redwork_4253"
           style="display:inline;opacity:1;fill:none;stroke:#222421;stroke-width:0.264583;stroke-dasharray:none"
           d="M 66.4503,114.415 53.8077,111.939"
           inkscape:label="Redwork 42"
           inkstitch:running_stitch_length_mm="2.5"
           inkstitch:path_type="redwork-top"
           inkstitch:bean_stitch_repeats="1" /><path
           id="underpath_9652"
           style="display:inline;opacity:1;fill:none;stroke:#222421;stroke-width:0.264583;stroke-dasharray:2, 1.1"
           d="m 53.5971,111.432 1.9846,-0.827"
           inkscape:label="Redwork Unterpfad 43"
           inkstitch:running_stitch_length_mm="2.5"
           inkstitch:path_type="redwork-underpath" /><path
           id="redwork_9492"
           style="display:inline;opacity:1;fill:none;stroke:#222421;stroke-width:0.264583;stroke-dasharray:none"
           d="m 55.5817,110.605 -1.9846,0.827"
           inkscape:label="Redwork 44"
           inkstitch:running_stitch_length_mm="2.5"
           inkstitch:path_type="redwork-top"
           inkstitch:bean_stitch_repeats="1" /></g></g><path
       id="path18"
       style="fill:none;stroke:#222421;stroke-width:0.264583"
       d="m 52.896342,105.95625 c 0,0 1.358415,0.30564 1.426336,1.79989 0.06792,1.49426 0.10188,4.89029 0.10188,4.89029 0,0 0.203761,4.55069 0.13584,4.89029 -0.06792,0.3396 -0.03396,2.88663 -0.03396,3.22623 0,0.33961 0,2.51307 -0.101881,3.15831 -0.10188,0.64525 -0.543367,2.10554 -1.562176,2.95455 m -0.495544,-20.91956 c 0,0 -1.562177,0.23772 -1.630098,1.73197 -0.06792,1.49426 -0.10188,4.89029 -0.10188,4.89029 0,0 -0.203761,4.55069 -0.13584,4.89029 0.06792,0.3396 0.03396,2.88663 0.03396,3.22623 0,0.33961 0,2.51307 0.101881,3.15831 0.10188,0.64525 0.611288,2.24138 1.630097,3.09039 m -1.9697,-19.86679 h 4.312963 m -4.720487,6.99583 h 5.297813 m -4.211082,12.08988 h 3.362073"
       sodipodi:nodetypes="cscsssccscsssccccccc"
       inkscape:label="Satin"
       inkstitch:satin_column="True"
       inkstitch:contour_underlay="True"
       inkstitch:zigzag_underlay="True"
       inkstitch:zigzag_underlay_max_stitch_length_mm="" /></g></svg>
