<?xml version="1.0" encoding="UTF-8" standalone="no"?>
<!-- Created with Inkscape (http://www.inkscape.org/) -->

<svg
   width="105mm"
   height="148mm"
   viewBox="0 0 105 148"
   version="1.1"
   id="svg1"
   xml:space="preserve"
   inkscape:version="1.4.4 (dcaf3e7d9e, 2026-05-05)"
   sodipodi:docname="01_manual.svg"
   xmlns:inkscape="http://www.inkscape.org/namespaces/inkscape"
   xmlns:sodipodi="http://sodipodi.sourceforge.net/DTD/sodipodi-0.dtd"
   xmlns="http://www.w3.org/2000/svg"
   xmlns:svg="http://www.w3.org/2000/svg"
   xmlns:inkstitch="http://inkstitch.org/namespace"><sodipodi:namedview
     id="namedview1"
     pagecolor="#ffffff"
     bordercolor="#666666"
     borderopacity="1.0"
     inkscape:showpageshadow="2"
     inkscape:pageopacity="0.0"
     inkscape:pagecheckerboard="0"
     inkscape:deskcolor="#d1d1d1"
     inkscape:document-units="mm"
     showgrid="true"
     showguides="true"
     inkscape:zoom="1.4724425"
     inkscape:cx="379.98088"
     inkscape:cy="442.80167"
     inkscape:window-width="1920"
     inkscape:window-height="1131"
     inkscape:window-x="0"
     inkscape:window-y="0"
     inkscape:window-maximized="1"
     inkscape:current-layer="layer1"
     inkscape:lockguides="true"><inkscape:grid
       id="grid1"
       units="mm"
       originx="0"
       originy="0"
       spacingx="1"
       spacingy="1"
       empcolor="#0099e5"
       empopacity="0.30196078"
       color="#0099e5"
       opacity="0.14901961"
       empspacing="5"
       enabled="true"
       visible="true" /><sodipodi:guide
       position="60,-739852.01"
       orientation="0,1"
       id="guide1"
       inkscape:locked="true"
       inkscape:label=""
       inkscape:color="rgb(0,134,229)" /><sodipodi:guide
       position="0,74.000001"
       orientation="0,1"
       id="guide2"
       inkscape:locked="true"
       inkscape:label=""
       inkscape:color="rgb(0,134,229)" /><sodipodi:guide
       position="0,197.33333"
       orientation="0,1"
       id="guide10"
       inkscape:locked="true"
       inkscape:label=""
       inkscape:color="rgb(224,27,36)" /></sodipodi:namedview><metadata
     id="metadata18"><inkstitch:min_stitch_len_mm>0.3</inkstitch:min_stitch_len_mm><inkstitch:collapse_len_mm>11.0</inkstitch:collapse_len_mm><inkstitch:inkstitch_svg_version>3</inkstitch:inkstitch_svg_version><inkstitch:min_satin_stroke_width_mm>1.0</inkstitch:min_satin_stroke_width_mm></metadata><defs
     id="defs1"><inkscape:path-effect
   effect="offset"
   id="path-effect13"
   is_visible="true"
   lpeversion="1.3"
   linejoin_type="miter"
   unit="mm"
   offset="5"
   miter_limit="4"
   attempt_force_join="false"
   update_on_knot_move="true" /><inkscape:path-effect
   center_point="52.529609,111.277"
   end_point="150.0296,111.277"
   start_point="-44.970382,111.277"
   effect="mirror_symmetry"
   id="path-effect21"
   is_visible="true"
   lpeversion="1.2"
   lpesatellites=""
   mode="Y"
   discard_orig_path="false"
   fuse_paths="false"
   oposite_fuse="false"
   split_items="false"
   split_open="false"
   link_styles="false" /><inkscape:path-effect
   effect="offset"
   id="path-effect2"
   is_visible="true"
   lpeversion="1.3"
   linejoin_type="miter"
   unit="mm"
   offset="4"
   miter_limit="4"
   attempt_force_join="false"
   update_on_knot_move="true" /><inkscape:path-effect
   effect="offset"
   id="path-effect7"
   is_visible="true"
   lpeversion="1.3"
   linejoin_type="miter"
   unit="mm"
   offset="4"
   miter_limit="4"
   attempt_force_join="false"
   update_on_knot_move="true" /><inkscape:path-effect
   center_point="53.000002,110.79823"
   end_point="53.000002,133.01515"
   start_point="53.000002,88.581308"
   effect="mirror_symmetry"
   id="path-effect6"
   is_visible="true"
   lpeversion="1.2"
   lpesatellites=""
   mode="free"
   discard_orig_path="false"
   fuse_paths="false"
   oposite_fuse="false"
   split_items="false"
   split_open="false"
   link_styles="false" /><symbol
   id="inkstitch_ignore_layer"
   transform="scale(0.25, 0.25)"
   style="opacity:0.7">
      <title
   id="title9694">Ignore entire layer when generating stitch plan</title>
      <path
   inkscape:connector-curvature="0"
   style="opacity:1;vector-effect:none;fill:#fafafa;fill-opacity:1;fill-rule:evenodd;stroke:#ff0000;stroke-width:1.06501234;stroke-linecap:round;stroke-linejoin:miter;stroke-miterlimit:4;stroke-dasharray:3.19503705, 3.19503705;stroke-dashoffset:0;stroke-opacity:1"
   d="M 9.2465269,-4.9265995e-6 C 9.246525,5.1067241 5.1067028,9.2465451 -2.615882e-5,9.2465451 -5.1067554,9.2465451 -9.2465782,5.1067241 -9.2465801,-4.9265995e-6 -9.24658,-2.4523429 -8.2723922,-4.8042399 -6.538327,-6.5383059 c 1.7340653,-1.734065 4.0859624,-2.708252 6.53830084118,-2.708252 5.10673015882,0 9.24655285882,4.139823 9.24655305882,9.2465529734005 0,0 0,0 0,0"
   id="inkstitch_path25368-7"
   inkstitch:max_stitch_length_mm="3" />
      <path
   sodipodi:nodetypes="ccccc"
   inkscape:connector-curvature="0"
   style="color:#000000;fill:#d5d5d5;fill-opacity:1;fill-rule:evenodd;stroke:#5a5a5a;stroke-width:0.63330007;stroke-linecap:square;stroke-linejoin:round;stroke-miterlimit:0;stroke-opacity:1"
   d="M 4,4.452769 1.46667,1.286102 H -5.5 l 2.53333,3.166667 z"
   id="use5800"
   inkstitch:max_stitch_length_mm="3" />
      <path
   sodipodi:nodetypes="ccccc"
   inkscape:connector-curvature="0"
   style="color:#000000;opacity:0.5;fill:#d5d5d5;fill-opacity:1;fill-rule:evenodd;stroke:#858585;stroke-width:0.63339424;stroke-linecap:square;stroke-linejoin:round;stroke-miterlimit:0;stroke-opacity:1"
   d="M 4,2.552769 1.46667,-0.613898 H -5.5 l 2.53333,3.166667 z"
   id="use5864"
   inkstitch:max_stitch_length_mm="3" />
      <g
   id="g5771">
        <path
   sodipodi:nodetypes="ccccccccc"
   inkscape:connector-curvature="0"
   style="fill:#aa0000;fill-rule:evenodd;stroke:#aa0000;stroke-width:1px"
   d="m -1.0666699,-5.0472339 h 4.4333333 l 0.6333333,0.6333333 V 0.01943274 L 3.3666634,0.65276607 H -1.0666699 L -1.7000032,0.01943274 V -4.4139006 Z"
   id="path8011"
   inkstitch:max_stitch_length_mm="3" />
        <path
   inkscape:connector-curvature="0"
   id="path8023"
   d="m -0.43333658,-3.8755672 c 0,0 3.16666668,3.16666661 3.16666668,3.16666661"
   style="fill:none;stroke:#ffffff;stroke-width:1.70000005" />
        <path
   inkscape:connector-curvature="0"
   id="path8025"
   d="m 2.7333301,-3.8755672 c 0,0 -3.16666668,3.16666661 -3.16666668,3.16666661"
   style="fill:none;stroke:#ffffff;stroke-width:1.79999995;stroke-linejoin:round" />
      </g>
    </symbol>
    <marker
   refX="10"
   refY="5"
   orient="auto"
   id="inkstitch-guide-line-marker"
   markerUnits="userSpaceOnUse"
   markerWidth="0.1"
   viewBox="0 0 1 1">
     <g
   id="inkstitch-guide-line-group">
       <path
   style="fill:#fafafa;fill-opacity:0.8;stroke:#ff5500;stroke-width:0.5;stroke-linecap:round;stroke-linejoin:miter;stroke-miterlimit:4;stroke-dasharray:1, 1;stroke-dashoffset:0;stroke-opacity:1"
   d="M 10.12911,5.2916678 A 4.8374424,4.8374426 0 0 1 5.2916656,10.12911 4.8374424,4.8374426 0 0 1 0.45422399,5.2916678 4.8374424,4.8374426 0 0 1 5.2916656,0.45422399 4.8374424,4.8374426 0 0 1 10.12911,5.2916678 Z"
   id="inkstitch-guide-line-marker-circle"
   inkstitch:max_stitch_length_mm="3" />
       <path
   style="fill:none;stroke:#000000;stroke-width:0.4;stroke-linecap:round;stroke-miterlimit:4"
   id="inkstitch-guide-line-marker-spiral"
   d="M 1.7506092,6.2728168 3.4558825,5.2833684 7.1038696,7.400035 8.8193256,6.4046783 M 1.7963222,4.129626 3.4558825,3.1667016 7.1038696,5.2833682 8.8475785,4.2716184 M 1.6318889,5.2833683 3.4558825,4.225035 7.1038696,6.3417016 8.9558408,5.2677331" />
     </g>
    </marker><marker
   refX="10"
   refY="5"
   orient="auto"
   id="inkstitch-guide-line-marker-1"
   markerUnits="userSpaceOnUse"
   markerWidth="0.1"
   viewBox="0 0 1 1"><g
     id="inkstitch-guide-line-group-5"><path
       style="fill:#fafafa;fill-opacity:0.8;stroke:#ff5500;stroke-width:0.5;stroke-linecap:round;stroke-linejoin:miter;stroke-miterlimit:4;stroke-dasharray:1, 1;stroke-dashoffset:0;stroke-opacity:1"
       d="M 10.12911,5.2916678 A 4.8374424,4.8374426 0 0 1 5.2916656,10.12911 4.8374424,4.8374426 0 0 1 0.45422399,5.2916678 4.8374424,4.8374426 0 0 1 5.2916656,0.45422399 4.8374424,4.8374426 0 0 1 10.12911,5.2916678 Z"
       id="inkstitch-guide-line-marker-circle-9"
       inkstitch:max_stitch_length_mm="3" /><path
       style="fill:none;stroke:#000000;stroke-width:0.4;stroke-linecap:round;stroke-miterlimit:4"
       id="inkstitch-guide-line-marker-spiral-7"
       d="M 1.7506092,6.2728168 3.4558825,5.2833684 7.1038696,7.400035 8.8193256,6.4046783 M 1.7963222,4.129626 3.4558825,3.1667016 7.1038696,5.2833682 8.8475785,4.2716184 M 1.6318889,5.2833683 3.4558825,4.225035 7.1038696,6.3417016 8.9558408,5.2677331" /></g></marker><marker
   refX="10"
   refY="5"
   orient="auto"
   id="marker2"
   markerUnits="userSpaceOnUse"
   markerWidth="0.1"
   viewBox="0 0 1 1"><g
     id="g2-5"><path
       style="fill:#fafafa;fill-opacity:0.8;stroke:#ff5500;stroke-width:0.5;stroke-linecap:round;stroke-linejoin:miter;stroke-miterlimit:4;stroke-dasharray:1, 1;stroke-dashoffset:0;stroke-opacity:1"
       d="M 10.12911,5.2916678 A 4.8374424,4.8374426 0 0 1 5.2916656,10.12911 4.8374424,4.8374426 0 0 1 0.45422399,5.2916678 4.8374424,4.8374426 0 0 1 5.2916656,0.45422399 4.8374424,4.8374426 0 0 1 10.12911,5.2916678 Z"
       id="path1"
       inkstitch:max_stitch_length_mm="3" /><path
       style="fill:none;stroke:#000000;stroke-width:0.4;stroke-linecap:round;stroke-miterlimit:4"
       id="path2-6"
       d="M 1.7506092,6.2728168 3.4558825,5.2833684 7.1038696,7.400035 8.8193256,6.4046783 M 1.7963222,4.129626 3.4558825,3.1667016 7.1038696,5.2833682 8.8475785,4.2716184 M 1.6318889,5.2833683 3.4558825,4.225035 7.1038696,6.3417016 8.9558408,5.2677331" /></g></marker><marker
   refX="10"
   refY="5"
   orient="auto"
   id="marker4"
   markerUnits="userSpaceOnUse"
   markerWidth="0.1"
   viewBox="0 0 1 1"><g
     id="g4"><path
       style="fill:#fafafa;fill-opacity:0.8;stroke:#ff5500;stroke-width:0.5;stroke-linecap:round;stroke-linejoin:miter;stroke-miterlimit:4;stroke-dasharray:1, 1;stroke-dashoffset:0;stroke-opacity:1"
       d="M 10.12911,5.2916678 A 4.8374424,4.8374426 0 0 1 5.2916656,10.12911 4.8374424,4.8374426 0 0 1 0.45422399,5.2916678 4.8374424,4.8374426 0 0 1 5.2916656,0.45422399 4.8374424,4.8374426 0 0 1 10.12911,5.2916678 Z"
       id="path3"
       inkstitch:max_stitch_length_mm="3" /><path
       style="fill:none;stroke:#000000;stroke-width:0.4;stroke-linecap:round;stroke-miterlimit:4"
       id="path4"
       d="M 1.7506092,6.2728168 3.4558825,5.2833684 7.1038696,7.400035 8.8193256,6.4046783 M 1.7963222,4.129626 3.4558825,3.1667016 7.1038696,5.2833682 8.8475785,4.2716184 M 1.6318889,5.2833683 3.4558825,4.225035 7.1038696,6.3417016 8.9558408,5.2677331" /></g></marker><marker
   refX="10"
   refY="5"
   orient="auto"
   id="marker6"
   markerUnits="userSpaceOnUse"
   markerWidth="0.1"
   viewBox="0 0 1 1"><g
     id="g6"><path
       style="fill:#fafafa;fill-opacity:0.8;stroke:#ff5500;stroke-width:0.5;stroke-linecap:round;stroke-linejoin:miter;stroke-miterlimit:4;stroke-dasharray:1, 1;stroke-dashoffset:0;stroke-opacity:1"
       d="M 10.12911,5.2916678 A 4.8374424,4.8374426 0 0 1 5.2916656,10.12911 4.8374424,4.8374426 0 0 1 0.45422399,5.2916678 4.8374424,4.8374426 0 0 1 5.2916656,0.45422399 4.8374424,4.8374426 0 0 1 10.12911,5.2916678 Z"
       id="path5-3"
       inkstitch:max_stitch_length_mm="3" /><path
       style="fill:none;stroke:#000000;stroke-width:0.4;stroke-linecap:round;stroke-miterlimit:4"
       id="path6"
       d="M 1.7506092,6.2728168 3.4558825,5.2833684 7.1038696,7.400035 8.8193256,6.4046783 M 1.7963222,4.129626 3.4558825,3.1667016 7.1038696,5.2833682 8.8475785,4.2716184 M 1.6318889,5.2833683 3.4558825,4.225035 7.1038696,6.3417016 8.9558408,5.2677331" /></g></marker><symbol
   id="inkstitch_autoroute_start"
   style="display:inline;opacity:0.7"
   transform="scale(0.25, 0.25)">
      <title
   id="inkstitch_title9427-3">Running stitch starting point</title>
      <path
   style="opacity:1;vector-effect:none;fill:#fafafa;fill-opacity:1;fill-rule:evenodd;stroke:#003399;stroke-width:1.06500006;stroke-linecap:round;stroke-linejoin:miter;stroke-miterlimit:4;stroke-dasharray:3.19500017, 3.19500017;stroke-dashoffset:0;stroke-opacity:1"
   d="M 9.2201108,0.05852023 A 9.2576327,9.2122261 0 0 1 -0.03752532,9.2707454 9.2576327,9.2122261 0 0 1 -9.2951565,0.05852023 9.2576327,9.2122261 0 0 1 -0.03752532,-9.1537082 9.2576327,9.2122261 0 0 1 9.2201108,0.05852023 Z"
   id="inkstitch-autorun_start-circle"
   inkstitch:max_stitch_length_mm="3" />
      <path
   style="fill:#000000"
   id="inkstitch-autorun_start-path"
   d="M -3.8159516,-5.6184574 c -0.3237427,0.020819 -0.5868063,0.2896236 -0.5907925,0.6167873 -0.00301,0.2444103 0.1384108,0.4575508 0.3447536,0.5613983 l -0.084402,6.772037 c -0.1244867,-0.03501 -0.2442949,-0.092709 -0.3519231,-0.1734001 -0.018852,-0.014824 -0.04551,-0.014824 -0.064361,0 -0.018491,0.013861 -0.025495,0.038228 -0.017164,0.05968 l 0.6437207,1.8106215 c 0.016803,0.044746 0.080472,0.044746 0.097275,0 l 0.6923582,-1.7949729 c 0.01924,-0.049558 -0.04036,-0.092132 -0.081524,-0.058277 -0.1120849,0.077886 -0.2339971,0.131597 -0.3605046,0.1634443 l 0.078701,-6.7706068 c 0.2092494,-0.097934 0.3546084,-0.3086274 0.3576257,-0.5542753 0.00418,-0.34328 -0.2710359,-0.6282831 -0.6165645,-0.632436 -0.016194,-1.924e-4 -0.031281,-0.00102 -0.047198,-3e-7 z m 0.9498575,1.1369602 c -0.042382,0.00503 -0.060846,0.055939 -0.031474,0.086686 l 1.2703061,1.4510604 c 0.035433,0.033525 0.093621,0.00416 0.087254,-0.044058 -0.016443,-0.1368774 -0.00712,-0.2718022 0.025745,-0.3993565 l 5.8279214,3.19201934 c -0.00955,0.23010929 0.1105352,0.45752327 0.3261511,0.57558932 0.3026489,0.1656996 0.6815068,0.0590468 0.8482917,-0.24160502 0.1667849,-0.30067931 0.059461,-0.68276459 -0.2431877,-0.84846414 -0.216862,-0.11872613 -0.4758284,-0.0980447 -0.6666138,0.0341025 l -5.8250435,-3.1905893 c 0.090438,-0.093452 0.1986471,-0.1708699 0.32186037,-0.2274139 0.044292,-0.022937 0.033578,-0.088721 -0.015724,-0.096642 L -2.8489315,-4.4800672 c -0.00556,-0.00146 -0.011405,-0.00189 -0.017162,-0.00146 z m 6.9651605,5.10354566 -1.909736,0.3126702 c -0.047392,0.011523 -0.054063,0.075768 -0.01,0.096642 0.1244589,0.057067 0.2344955,0.1342923 0.3261511,0.2273865 L -3.4211257,4.5999927 C -3.6139873,4.4704034 -3.8733966,4.4493919 -4.0877673,4.5701537 -4.38834,4.7394835 -4.4899335,5.1199736 -4.3194944,5.4186179 c 0.170439,0.2986167 0.5534215,0.4066446 0.8540219,0.2373147 0.2139276,-0.1204863 0.3297497,-0.3481203 0.3175695,-0.5769918 L 2.778711,1.7376949 c 0.03333,0.1260415 0.043323,0.2590963 0.027184,0.3936635 -0.00791,0.053024 0.060763,0.081379 0.092985,0.038365 L 4.1477039,0.70304186 c 0.026048,-0.036523 -0.00388,-0.086439 -0.048637,-0.0809934 Z"
   inkstitch:max_stitch_length_mm="3" />
    </symbol>
    <symbol
   id="inkstitch_autoroute_end"
   style="display:inline;opacity:0.7"
   transform="scale(0.25, 0.25)">
      <title
   id="inkstitch_title9427-3-1">Running stitch ending point</title>
       <path
   style="opacity:1;vector-effect:none;fill:#fafafa;fill-opacity:1;fill-rule:evenodd;stroke:#003399;stroke-width:1.06500006;stroke-linecap:round;stroke-linejoin:miter;stroke-miterlimit:4;stroke-dasharray:3.19500017, 3.19500017;stroke-dashoffset:0;stroke-opacity:1"
   d="M 9.2201108,0.05852023 A 9.2576327,9.2122261 0 0 1 -0.03752532,9.2707454 9.2576327,9.2122261 0 0 1 -9.2951565,0.05852023 9.2576327,9.2122261 0 0 1 -0.03752532,-9.1537082 9.2576327,9.2122261 0 0 1 9.2201108,0.05852023 Z"
   id="inkstitch-autorun_end-circle"
   inkstitch:max_stitch_length_mm="3" />
       <path
   style="fill:#000000"
   id="inkstitch-autorun_end-path"
   d="M -1.5977169,-4.8605484 c -0.00319,1.523e-4 -0.00643,6.284e-4 -0.00955,0.00139 l -1.738218,0.6114515 c -0.044131,0.013274 -0.04771,0.07406 -0.00546,0.092381 l 1.7286718,0.6522048 c 0.042543,0.011464 0.077832,-0.033916 0.055977,-0.072004 -0.075631,-0.1076723 -0.1279528,-0.2256474 -0.1583813,-0.3478501 l 5.3580083,0.0693 C 3.7283489,-3.6574881 3.9289854,-3.5209456 4.163113,-3.51807 4.4929661,-3.51396 4.7679522,-3.7755203 4.7721242,-4.1036793 4.7763142,-4.4318766 4.5079699,-4.70559 4.178155,-4.7096844 3.9431472,-4.7126044 3.7385104,-4.5784741 3.6388043,-4.38223 l -5.3566689,-0.065225 c 0.033509,-0.1204507 0.089391,-0.2361787 0.1679695,-0.3396805 0.019712,-0.034678 -0.00793,-0.077126 -0.047786,-0.073375 z m -2.6203001,0.2119742 c -0.3227531,0.0041 -0.5844387,0.2625539 -0.5884958,0.5856093 -0.00295,0.2329983 0.129063,0.4383262 0.3236143,0.5394287 l -0.065546,5.2964025 c -0.1188053,-0.03344 -0.233209,-0.088553 -0.3359005,-0.1657553 -0.018028,-0.014169 -0.043442,-0.014169 -0.061451,0 -0.016535,0.013426 -0.022582,0.035878 -0.015004,0.055721 l 0.6130875,1.7310434 c 0.013338,0.043896 0.074426,0.047476 0.092855,0.00543 l 0.6608737,-1.7201931 c 0.021243,-0.048142 -0.037912,-0.091505 -0.077832,-0.057054 -0.1085476,0.075489 -0.2269701,0.1273635 -0.3495646,0.1576047 l 0.069641,-5.2950505 c 0.1995845,-0.095713 0.3397855,-0.2989653 0.3427327,-0.5326301 0.00412,-0.3281781 -0.2641734,-0.5964641 -0.5939692,-0.6005585 -0.00519,-7.62e-5 -0.00991,-7.62e-5 -0.015023,0 z m 8.4425639,1.3302136 c -0.020458,-1.333e-4 -0.038925,0.012283 -0.046428,0.03125 l -0.6608735,1.714742 c -0.021243,0.04818 0.037931,0.091524 0.077851,0.057054 0.1072273,-0.074556 0.2244441,-0.1271727 0.3454502,-0.1576044 L 3.8750009,3.6234841 C 3.6760287,3.7194257 3.5366315,3.9202022 3.5336461,4.15341 3.529436,4.4816071 3.7964416,4.7512453 4.1262565,4.7553397 4.4560331,4.759449 4.726962,4.4979085 4.731134,4.1697112 4.7341354,3.934523 4.5996979,3.7276145 4.4020654,3.6275594 L 4.4703294,-1.66612 c 0.1197239,0.033383 0.2338597,0.08802 0.3372785,0.1657745 0.039309,0.032355 0.096166,-0.00834 0.077832,-0.055721 L 4.2709744,-3.2871101 c -0.00748,-0.018949 -0.02595,-0.031384 -0.046428,-0.031251 z M 1.5114302,3.6180947 c -0.037451,6.856e-4 -0.060627,0.040868 -0.042351,0.073356 0.075823,0.1079391 0.1280103,0.2267139 0.1584006,0.3492023 L -3.7305473,3.971372 c -0.096108,-0.1988532 -0.2989079,-0.338138 -0.5338966,-0.3410517 -0.3297958,-0.0041 -0.5994042,0.2615256 -0.6035188,0.5896847 -0.00413,0.3281972 0.2627956,0.6019488 0.5926104,0.6060241 0.2345678,0.00292 0.4394534,-0.1304295 0.5393508,-0.3261024 l 5.3580084,0.063873 C 1.5885549,4.684593 1.5314859,4.7996924 1.4526979,4.90348 1.4299049,4.942272 1.4668789,4.9887 1.5100529,4.975503 L 3.2496085,4.3640511 c 0.043002,-0.015959 0.043002,-0.076441 0,-0.0924 L 1.5250561,3.6194659 c -0.00446,-0.00112 -0.00905,-0.00154 -0.013665,-0.00139 Z"
   inkstitch:max_stitch_length_mm="3" />
    </symbol>
    <clipPath
   clipPathUnits="userSpaceOnUse"
   id="clipPath17"
   transform="matrix(-1 0 0 1 105.024 -0.0958149)"><path
     id="path17"
     style="display:inline;fill:none;fill-opacity:1;fill-rule:evenodd;stroke:#0097b6;stroke-width:0.4;stroke-dasharray:none;paint-order:fill markers stroke"
     d="M 51.841393,110.99209 C 51.841393,110.99209 35.799525,90.627123 24.889661,90.948341 23.331109,90.99423 21.849671,91.429332 20.499748,92.36324 17.986683,94.536702 23.500081,103.36309 23.500081,103.36309 23.500081,103.36309 23.95158,111.75344 25.717517,113.11185 27.687217,115.82868 33.499989,115.36287 33.499989,115.36287 33.499989,115.36287 23.504342,119.34097 30.500172,131.36293 33.48868,135.84569 41.500015,135.3632 41.500015,135.3632 48.835448,134.34439 51.170688,116.29706 51.170688,116.29706"
     inkstitch:max_stitch_length_mm="3"
     sodipodi:nodetypes="csccccccc"
     inkscape:label="Fill"
     inkstitch:satin_column="False"
     inkstitch:stroke_method="ripple_stitch"
     inkstitch:line_count="15"
     inkstitch:reverse="True" /></clipPath><clipPath
   clipPathUnits="userSpaceOnUse"
   id="clipPath32"><path
     id="path32"
     style="display:inline;fill:none;fill-opacity:1;fill-rule:evenodd;stroke:#0097b6;stroke-width:0.4;stroke-dasharray:none;paint-order:fill markers stroke"
     d="M 52.128838,111.6628 C 52.128838,111.6628 35.799525,90.627123 24.889661,90.948341 23.331109,90.99423 21.849671,91.429332 20.499748,92.36324 17.986683,94.536702 23.500081,103.36309 23.500081,103.36309 23.500081,103.36309 23.95158,111.75344 25.717517,113.11185 27.687217,115.82868 33.499989,115.36287 33.499989,115.36287 33.499989,115.36287 23.504342,119.34097 30.500172,131.36293 33.48868,135.84569 41.500015,135.3632 41.500015,135.3632 48.835448,134.34439 51.649763,114.66821 51.649763,114.66821"
     inkstitch:max_stitch_length_mm="3"
     sodipodi:nodetypes="csccccccc"
     inkscape:label="Fill"
     inkstitch:satin_column="False"
     inkstitch:stroke_method="ripple_stitch"
     inkstitch:line_count="15"
     inkstitch:reverse="True" /></clipPath><filter
   style="color-interpolation-filters:sRGB"
   id="realistic-stitch-filter"
   x="0"
   width="1"
   y="0"
   height="1"
   inkscape:auto-region="false"><feGaussianBlur
     edgeMode="none"
     stdDeviation="0.9"
     in="SourceAlpha"
     id="feGaussianBlur41" /><feSpecularLighting
     result="result2"
     surfaceScale="4.29"
     specularConstant="0.65"
     specularExponent="1.6"
     id="feSpecularLighting41"><feDistantLight
       azimuth="154"
       elevation="112"
       id="feDistantLight41" /></feSpecularLighting><feComposite
     in2="SourceAlpha"
     operator="atop"
     id="feComposite41" /><feComposite
     in2="SourceGraphic"
     operator="arithmetic"
     result="result3"
     k1="0"
     k2="0.8"
     k3="1.2"
     k4="0"
     id="feComposite42" /></filter></defs><g
     inkscape:label="Embroidery"
     inkscape:groupmode="layer"
     id="layer1"
     style="display:inline"><path
       style="fill:none;stroke:#0097b6;stroke-width:0.264583;stroke-dasharray:none;paint-order:fill markers stroke"
       d="M 51.121831,115.63057 49.479979,118.80883 47.83995,121.98357 46.235345,125.08973 44.317509,128.80224 42.878373,131.58809 41.32872,134.58788 42.056711,132.73025 42.873381,130.64633 44.463825,126.58796 46.539734,121.29081 44.397359,124.30352 43.041402,126.21033 41.745796,128.03228 39.920723,130.59879 37.914609,133.41989 39.009709,131.04329 40.173108,128.51847 41.068507,126.57527 42.137327,124.2557 38.676139,127.12691 34.230963,130.81439 37.040194,127.96092 40.204582,124.7467 42.965761,121.94204 45.641283,119.22438 43.365514,120.5533 40.55375,122.1952 37.906427,123.74108 35.644594,125.06186 33.332512,126.41198 36.160642,123.66827 37.803705,122.07426 39.35213,120.57205 35.25284,121.18258 30.906696,121.82988 33.660006,120.92623 36.925339,119.85453 39.788874,118.91471 42.649913,117.9757 48.426481,116.0798 44.729307,116.55379 40.688764,117.07181 38.030199,117.41265 34.410652,117.8767 38.736506,116.74116 43.097556,115.59639 48.785859,114.10321 45.869448,114.21684 41.419247,114.39022 37.892058,114.52764 34.949722,114.64228 38.879266,114.02829 43.574848,113.2946 H 39.576743 36.387244 32.546368 28.031654 L 30.778025,113.12218 33.334175,112.96171 37.5054,112.69984 40.706256,112.49889 44.333504,112.27117 48.0671,112.03677 43.079079,111.75057 38.364846,111.48008 34.452712,111.25561 29.697557,110.98278 26.144908,110.77894 28.593352,110.81137 33.018634,110.86998 39.71151,110.95863 35.896205,110.02327 32.912418,109.29176 30.203251,108.62757 27.625996,107.99573 25.785528,107.54452 28.185656,107.92935 31.076416,108.39285 34.572474,108.9534 38.671152,109.61057 42.19262,110.17519 44.678678,110.5738 47.078804,110.95863 43.364472,109.84764 40.348991,108.94569 36.79766,107.88346 33.743062,106.96981 30.502731,106.0006 26.953514,104.93901 29.624511,105.46661 31.802034,105.89674 34.230963,106.37653 30.632717,104.70149 28.707392,103.80522 26.370203,102.71721 23.808937,101.5249 28.773583,103.26804 31.328026,104.16494 34.245598,105.18933 36.784931,106.08092 39.085378,106.88863 41.653862,107.79045 44.024073,108.62266 41.004414,107.13779 37.272836,105.30284 35.594873,104.47773 31.926752,102.67398 27.545814,100.51971 22.281571,97.931098 26.173467,99.499926 29.666497,100.90797 33.871582,102.60304 31.182723,100.65145 29.195263,99.208938 26.582332,97.312456 22.730797,94.516987 25.562613,96.153724 28.017224,97.572444 30.733809,99.142578 33.602695,100.80074 36.060704,102.22143 38.301689,103.51668 42.317016,105.83746 39.722934,103.7895 36.892892,101.55526 34.904724,99.985654 32.347054,97.96644 28.742136,95.120453 26.953514,93.708383 30.154329,96.059527 31.936203,97.368394 34.366219,99.153351 36.101353,100.42789 37.837655,101.70328 39.880335,103.20372 41.997128,104.7586 44.331862,106.47357 46.812491,108.2957 48.554468,109.57526 51.660902,111.85708"
       id="path39"
       sodipodi:nodetypes="ccccccccccccccccccccccccccccccccccccccccccccccccccccccccccccccccccccccccccccccccccccccccccccccccccccccccccccccccccccccccccccccccccccccccccccc"
       inkstitch:satin_column="False"
       inkstitch:stroke_method="manual_stitch"
       inkstitch:bean_stitch_repeats="1" /><path
       style="fill:none;stroke:#0097b6;stroke-width:0.264583;stroke-dasharray:none;paint-order:fill markers stroke"
       d="M 53.817183,115.63057 55.459035,118.80883 57.099064,121.98357 58.703669,125.08973 60.621505,128.80224 62.060641,131.58809 63.610294,134.58788 62.882303,132.73025 62.065633,130.64633 60.475189,126.58796 58.39928,121.29081 60.541655,124.30352 61.897612,126.21033 63.193218,128.03228 65.018291,130.59879 67.024405,133.41989 65.929305,131.04329 64.765906,128.51847 63.870507,126.57527 62.801687,124.2557 66.262875,127.12691 70.708051,130.81439 67.89882,127.96092 64.734432,124.7467 61.973253,121.94204 59.297731,119.22438 61.5735,120.5533 64.385264,122.1952 67.032587,123.74108 69.29442,125.06186 71.606502,126.41198 68.778372,123.66827 67.135309,122.07426 65.586884,120.57205 69.686174,121.18258 74.032318,121.82988 71.279008,120.92623 68.013675,119.85453 65.15014,118.91471 62.289101,117.9757 56.512533,116.0798 60.209707,116.55379 64.25025,117.07181 66.908815,117.41265 70.528362,117.8767 66.202508,116.74116 61.841458,115.59639 56.153155,114.10321 59.069566,114.21684 63.519767,114.39022 67.046956,114.52764 69.989292,114.64228 66.059748,114.02829 61.364166,113.2946 H 65.362271 68.55177 72.392646 76.90736 L 74.160989,113.12218 71.604839,112.96171 67.433614,112.69984 64.232758,112.49889 60.60551,112.27117 56.871914,112.03677 61.859935,111.75057 66.574168,111.48008 70.486302,111.25561 75.241457,110.98278 78.794106,110.77894 76.345662,110.81137 71.92038,110.86998 65.227504,110.95863 69.042809,110.02327 72.026596,109.29176 74.735763,108.62757 77.313018,107.99573 79.153486,107.54452 76.753358,107.92935 73.862598,108.39285 70.36654,108.9534 66.267862,109.61057 62.746394,110.17519 60.260336,110.5738 57.86021,110.95863 61.574542,109.84764 64.590023,108.94569 68.141354,107.88346 71.195952,106.96981 74.436283,106.0006 77.9855,104.93901 75.314503,105.46661 73.13698,105.89674 70.708051,106.37653 74.306297,104.70149 76.231622,103.80522 78.568811,102.71721 81.130077,101.5249 76.165431,103.26804 73.610988,104.16494 70.693416,105.18933 68.154083,106.08092 65.853636,106.88863 63.285152,107.79045 60.914941,108.62266 63.9346,107.13779 67.666178,105.30284 69.344141,104.47773 73.012262,102.67398 77.3932,100.51971 82.657443,97.931098 78.765547,99.499926 75.272517,100.90797 71.067432,102.60304 73.756291,100.65145 75.743751,99.208938 78.356682,97.312456 82.208217,94.516987 79.376401,96.153724 76.92179,97.572444 74.205205,99.142578 71.336319,100.80074 68.87831,102.22143 66.637325,103.51668 62.621998,105.83746 65.21608,103.7895 68.046122,101.55526 70.03429,99.985654 72.59196,97.96644 76.196878,95.120453 77.9855,93.708383 74.784685,96.059527 73.002811,97.368394 70.572795,99.153351 68.837661,100.42789 67.101359,101.70328 65.058679,103.20372 62.941886,104.7586 60.607152,106.47357 58.126523,108.2957 56.384546,109.57526 53.278112,111.85708"
       id="path40"
       sodipodi:nodetypes="ccccccccccccccccccccccccccccccccccccccccccccccccccccccccccccccccccccccccccccccccccccccccccccccccccccccccccccccccccccccccccccccccccccccccccccc"
       inkstitch:satin_column="False"
       inkstitch:stroke_method="manual_stitch"
       inkstitch:bean_stitch_repeats="1" /><path
       id="path19"
       style="display:inline;fill:none;fill-opacity:1;fill-rule:evenodd;stroke:#222421;stroke-width:0.4;stroke-dasharray:none;paint-order:fill markers stroke"
       d="M 54.005125,118.04254 C 54.171747,118.42358 54.336897,118.86459 54.500256,119.36314 54.500256,119.36314 56.164792,134.34439 63.500224,135.3632 63.500224,135.3632 71.511559,135.84569 74.500069,131.36293 81.495898,119.34097 71.500252,115.36287 71.500252,115.36287 71.500252,115.36287 77.313024,115.82868 79.282723,113.11185 81.04866,111.75344 81.500159,103.36309 81.500159,103.36309 81.500159,103.36309 87.013041,94.536702 84.499976,92.363241 73.700589,84.891967 54.500256,109.36324 54.500256,109.36324 53.030949,110.98366 51.879246,111.10898 50.499984,109.36324 50.499984,109.36324 35.799524,90.627124 24.889661,90.948341 23.331109,90.994231 21.849671,91.429332 20.499748,92.363241 17.986683,94.536702 23.500081,103.36309 23.500081,103.36309 23.500081,103.36309 23.95158,111.75344 25.717517,113.11185 27.687216,115.82868 33.499988,115.36287 33.499988,115.36287 33.499988,115.36287 23.504342,119.34097 30.500171,131.36293 33.488681,135.84569 41.500016,135.3632 41.500016,135.3632 48.835448,134.34439 50.499984,119.36314 50.499984,119.36314 50.651249,118.8806 50.803067,118.45741 50.95522,118.0919"
       inkscape:label="Simple Outline"
       sodipodi:nodetypes="ccccccccccscccccccc"
       inkstitch:satin_column="False"
       inkstitch:bean_stitch_repeats="1" /><path
       id="path18"
       style="display:inline;fill:none;stroke:#222421;stroke-width:0.264583"
       d="M 52.896342,105.95625 C 52.896342,105.95625 54.254757,106.26189 54.322678,107.75614 54.390598,109.2504 54.424558,112.64643 54.424558,112.64643 54.424558,112.64643 54.628319,117.19712 54.560398,117.53672 54.492478,117.87632 54.526438,120.42335 54.526438,120.76295 54.526438,121.10256 54.526438,123.27602 54.424557,123.92126 54.322677,124.56651 53.88119,126.0268 52.862381,126.87581 M 52.366837,105.95625 C 52.366837,105.95625 50.80466,106.19397 50.736739,107.68822 50.668819,109.18248 50.634859,112.57851 50.634859,112.57851 50.634859,112.57851 50.431098,117.1292 50.499019,117.4688 50.566939,117.8084 50.532979,120.35543 50.532979,120.69503 50.532979,121.03464 50.532979,123.2081 50.63486,123.85334 50.73674,124.49859 51.246148,126.09472 52.264957,126.94373 M 50.295257,107.07694 H 54.60822 M 49.887733,114.07277 H 55.185546 M 50.974464,126.16265 H 54.336537"
       sodipodi:nodetypes="cscsssccscsssccccccc"
       inkscape:label="Satin"
       inkstitch:satin_column="True"
       inkstitch:contour_underlay="True"
       inkstitch:zigzag_underlay="True"
       sodipodi:insensitive="true" /></g></svg>
