<?xml version="1.0" encoding="UTF-8" standalone="no"?>
<!-- Created with Inkscape (http://www.inkscape.org/) -->

<svg
   width="100mm"
   height="100mm"
   viewBox="0 0 100 100"
   version="1.1"
   id="svg1"
   inkscape:version="1.4.2 (ebf0e940d0, 2025-05-08)"
   sodipodi:docname="Satinvorlagen.svg"
   xmlns:inkscape="http://www.inkscape.org/namespaces/inkscape"
   xmlns:sodipodi="http://sodipodi.sourceforge.net/DTD/sodipodi-0.dtd"
   xmlns="http://www.w3.org/2000/svg"
   xmlns:svg="http://www.w3.org/2000/svg"
   xmlns:inkstitch="http://inkstitch.org/namespace">
  <sodipodi:namedview
     id="namedview1"
     pagecolor="#ffffff"
     bordercolor="#000000"
     borderopacity="0.25"
     inkscape:showpageshadow="2"
     inkscape:pageopacity="0.0"
     inkscape:pagecheckerboard="0"
     inkscape:deskcolor="#d1d1d1"
     inkscape:document-units="mm"
     showgrid="true"
     inkscape:zoom="1.78"
     inkscape:cx="1718.8202"
     inkscape:cy="188.76404"
     inkscape:window-width="1920"
     inkscape:window-height="1131"
     inkscape:window-x="0"
     inkscape:window-y="0"
     inkscape:window-maximized="1"
     inkscape:current-layer="layer1">
    <inkscape:grid
       id="grid3"
       units="mm"
       originx="0"
       originy="0"
       spacingx="1"
       spacingy="0.99999986"
       empcolor="#0099e5"
       empopacity="0.30196078"
       color="#00d9e5"
       opacity="0.14901961"
       empspacing="5"
       enabled="true"
       visible="true" />
    <inkscape:page
       x="0"
       y="0"
       width="100"
       height="100"
       id="page1"
       margin="0"
       bleed="0" />
    <inkscape:page
       x="110"
       y="0"
       width="100"
       height="100"
       id="page2"
       margin="0"
       bleed="0" />
    <inkscape:page
       x="220"
       y="0"
       width="100"
       height="100"
       id="page3"
       margin="0"
       bleed="0" />
    <inkscape:page
       x="330"
       y="0"
       width="100"
       height="100"
       id="page4"
       margin="0"
       bleed="0" />
    <inkscape:page
       x="440"
       y="0"
       width="100"
       height="100"
       id="page5"
       margin="0"
       bleed="0" />
  </sodipodi:namedview>
  <defs
     id="defs1" />
  <g
     inkscape:label="Layer 1"
     inkscape:groupmode="layer"
     id="layer1">
    <g
       id="g73"
       transform="matrix(1.0330149,0,0,1.0330149,-512.9176,16.191883)"
       style="stroke:#a5a5a5;stroke-width:0.96804"
       inkscape:label="Linie zu Satin">
      <path
         style="fill:none;fill-rule:evenodd;stroke:#a5a5a5;stroke-width:1.45206;stroke-linejoin:round;stroke-dasharray:none"
         d="M 553.70249,34.233956 C 553.03308,30.687329 549.66353,12.288249 551.89208,1.3253714"
         id="path2"
         sodipodi:nodetypes="cc" />
      <path
         style="fill:none;fill-rule:evenodd;stroke:#a5a5a5;stroke-width:1.45206;stroke-linejoin:round;stroke-dasharray:none"
         d="M 552.10074,1.5237822 C 550.71129,2.6688641 549.7421,3.6481998 547.98341,5.89094 542.98712,12.262371 534.7001,23.23606 532.41758,35.598684"
         id="path4"
         sodipodi:nodetypes="csc" />
      <path
         id="path3"
         style="fill:none;fill-rule:evenodd;stroke:#a5a5a5;stroke-width:1.45206;stroke-linejoin:round;stroke-dasharray:none"
         d="M 541.93193,59.810684 C 539.49307,62.521083 535.15279,63.176422 533.09651,63.176422 524.86684,63.176422 518.19538,56.625164 518.19538,48.543776 518.19538,41.995464 521.34401,36.780256 527.38432,34.912601 528.79847,34.475349 530.96051,36.046082 532.52171,36.046082 533.88532,36.046082 536.68418,34.419443 537.93896,34.756322 539.24851,35.107903 539.58288,35.302054 540.72212,35.969719"
         sodipodi:nodetypes="csssssc" />
      <path
         id="path1"
         style="fill:none;fill-rule:evenodd;stroke:#a5a5a5;stroke-width:1.45206;stroke-linejoin:round;stroke-dasharray:none"
         d="M 553.61676,34.133437 C 556.29064,34.133437 559.28171,32.126989 561.55836,33.093437 567.66938,35.687585 571.65841,41.200053 571.65841,47.779211 571.65841,56.809428 563.67248,64.129865 553.82133,64.129865 543.97018,64.129865 535.98425,56.809428 535.98425,47.779211 535.98425,41.118931 540.32849,35.388749 546.56122,32.839775 548.77903,31.932769 551.0541,34.156167 553.63949,34.156167"
         sodipodi:nodetypes="csssssc" />
    </g>
    <g
       id="g4"
       inkscape:label="Pfadeffekt Satin"
       transform="translate(2.1680612,0.03683688)"
       sodipodi:insensitive="true">
      <path
         style="fill:none;fill-opacity:1;fill-rule:evenodd;stroke:#000000;stroke-width:0.200025;stroke-linecap:butt;stroke-linejoin:round;stroke-miterlimit:4;stroke-dasharray:none;stroke-dashoffset:0;stroke-opacity:1"
         id="path94"
         inkstitch:satin_column="true"
         sodipodi:nodetypes="cssc"
         d="M 129.51054,50.433562 C 129.51054,50.433562 135.45224,39.598624 145.93769,42.045219 156.42307,44.491821 158.32299,46.491508 169.00561,42.045219 178.81978,37.960402 183.33567,35.404453 183.33567,35.404453"
         sodipodi:insensitive="true" />
      <path
         style="fill:none;fill-opacity:1;fill-rule:evenodd;stroke:#000000;stroke-width:0.200025;stroke-linecap:butt;stroke-linejoin:round;stroke-miterlimit:4;stroke-dasharray:none;stroke-dashoffset:0;stroke-opacity:1"
         id="path95"
         inkstitch:satin_column="true"
         sodipodi:nodetypes="cssc"
         d="M 132.3282,64.521874 C 132.3282,64.521874 138.2699,53.686937 148.75536,56.133531 159.24073,58.580134 161.14065,60.57982 171.82328,56.133531 181.63744,52.048715 186.15334,49.492765 186.15334,49.492765"
         sodipodi:insensitive="true" />
    </g>
    <path
       d="M 263.5361,71.058306 Q 262.2028,71.058306 261.2029,70.939266 260.2029,70.820224 259.322,70.367869 257.0127,69.248887 257.0127,65.891939 257.0127,64.272984 257.5126,62.011211 258.0364,59.749437 258.9887,57.13054 261.0838,51.368969 264.1789,46.059753 261.7505,46.202601 260.322,46.797804 258.9173,47.369201 258.4649,48.583417 258.6792,48.583417 258.8935,49.083387 259.1078,49.583358 259.1078,50.107137 259.1078,50.96423 258.3221,51.48801 257.5364,52.01179 256.3698,52.01179 255.0604,52.01179 254.2271,51.297545 253.3462,50.559492 253.3462,49.17862 253.3462,47.964404 254.0842,46.869229 254.8223,45.750247 256.1794,44.940769 257.5602,44.107484 259.3697,43.65513 261.2029,43.178966 263.298,43.178966 264.3218,43.178966 265.8455,43.321816 269.9405,36.869808 274.0355,33.203354 278.7971,28.941695 282.7969,28.941695 285.1777,28.941695 286.6538,29.632131 L 279.0114,65.511009 H 271.988 L 275.7259,47.821555 Q 273.964,47.012078 272.4165,46.60734 270.8928,46.202601 269.2024,46.059753 266.4407,52.035597 264.6789,58.273331 262.8695,64.534874 262.8695,68.344177 262.8695,70.225021 263.5361,71.058306 Z M 279.0114,32.393876 Q 276.8925,33.536667 274.5592,36.70315 272.2737,39.845827 270.2262,43.964636 273.5593,44.607456 276.1782,45.655013 Z"
       id="text64"
       style="font-size:33.3187px;font-family:Pattaya;-inkscape-font-specification:Pattaya;letter-spacing:0.232041px;word-spacing:0px;baseline-shift:baseline;fill:#a5a5a5;fill-rule:evenodd;stroke:none;stroke-width:0.264582;stroke-linejoin:round"
       aria-label="A"
       inkscape:label="Zigzag zu Satin"
       sodipodi:insensitive="true" />
    <path
       d="M 373.5361,71.058306 Q 372.2028,71.058306 371.2029,70.939266 370.2029,70.820224 369.322,70.367869 367.0127,69.248887 367.0127,65.891939 367.0127,64.272984 367.5126,62.011211 368.0364,59.749437 368.9887,57.13054 371.0838,51.368969 374.1789,46.059753 371.7505,46.202601 370.322,46.797804 368.9173,47.369201 368.4649,48.583417 368.6792,48.583417 368.8935,49.083387 369.1078,49.583358 369.1078,50.107137 369.1078,50.96423 368.3221,51.48801 367.5364,52.01179 366.3698,52.01179 365.0604,52.01179 364.2271,51.297545 363.3462,50.559492 363.3462,49.17862 363.3462,47.964404 364.0842,46.869229 364.8223,45.750247 366.1794,44.940769 367.5602,44.107484 369.3697,43.65513 371.2029,43.178966 373.298,43.178966 374.3218,43.178966 375.8455,43.321816 379.9405,36.869808 384.0355,33.203354 388.7971,28.941695 392.7969,28.941695 395.1777,28.941695 396.6538,29.632131 L 389.0114,65.511009 H 381.988 L 385.7259,47.821555 Q 383.964,47.012078 382.4165,46.60734 380.8928,46.202601 379.2024,46.059753 376.4407,52.035597 374.6789,58.273331 372.8695,64.534874 372.8695,68.344177 372.8695,70.225021 373.5361,71.058306 Z M 389.0114,32.393876 Q 386.8925,33.536667 384.5592,36.70315 382.2737,39.845827 380.2262,43.964636 383.5593,44.607456 386.1782,45.655013 Z"
       id="path368"
       style="font-size:33.3187px;font-family:Pattaya;-inkscape-font-specification:Pattaya;letter-spacing:0.232041px;word-spacing:0px;baseline-shift:baseline;fill:#000000;fill-rule:evenodd;stroke:none;stroke-width:0.264582;stroke-linejoin:round"
       aria-label="A"
       inkscape:label="Füllung zu Satin" />
    <path
       id="path377"
       style="fill:#b6b8b7;fill-opacity:1;fill-rule:evenodd;stroke:none;stroke-width:0.264583;stroke-linecap:butt;stroke-linejoin:round;stroke-miterlimit:4;stroke-dasharray:none;stroke-dashoffset:0;stroke-opacity:1"
       d="M 466.50165,75.501043 C 466.50165,75.501043 470.58825,60.151121 472.77675,55.20702 475.13185,49.886711 490.34315,41.85368 495.60755,40.387042 500.17545,39.114447 517.77075,29.83949 517.77075,29.83949 L 511.89615,24.498957 C 511.89615,24.498957 500.41405,34.912997 493.47135,36.782183 486.52865,38.651369 478.51785,38.651369 478.51785,38.651369 475.78095,46.778277 471.53065,50.667425 467.03575,53.871887 L 462.22925,73.231317 Z"
       sodipodi:nodetypes="cssccscccc"
       sodipodi:insensitive="true"
       inkscape:label="Manuelle" />
  </g>
</svg>
