<svg xmlns="http://www.w3.org/2000/svg">
<defs>
<font
       id="Roboto-SemiBold"
       horiz-adv-x="0.0">
      <font-face
         font-family="Roboto SemiBold"
         font-weight="600"
         font-stretch="normal"
         units-per-em="132.91"
         panose-1="2 0 0 0 0 0 0 0 0 0"
         ascent="99.68"
         descent="-33.23"
         x-height="70.22"
         cap-height="94.49"
         bbox="-1492 -476 2421 1927"
         underline-thickness="100"
         underline-position="-200"
         unicode-range="U+0002-FFFD"
         id="font-face1" />
      <missing-glyph
         id="missing-glyph1" />
      <glyph
         glyph-name="M"
         unicode="M"
         horiz-adv-x="116.29"
         d="M259 1456h238l398 -1096l397 1096h239l-541 -1456h-191zM139 1456h233l42 -1007v-449h-275v1456zM1417 1456h234v-1456h-275v449z"
         id="glyph1" />
      <glyph
         glyph-name="circumflex"
         unicode="ˆ"
         horiz-adv-x="64.96"
         d="M572 1536l290 -277v-12h-212l-155 152l-154 -152h-209v14l286 275h154z"
         id="glyph2" />
      <glyph
         glyph-name="caron"
         unicode="ˇ"
         horiz-adv-x="61.65"
         d="M323 1536l148 -151l149 151h227v-10l-291 -279h-168l-291 280v9h226z"
         id="glyph3" />
      <glyph
         glyph-name="uni02C9"
         unicode="ˉ"
         horiz-adv-x="65.22"
         d="M846 1452v-158h-683v158h683z"
         id="glyph4" />
      <glyph
         glyph-name="breve"
         unicode="˘"
         horiz-adv-x="58.6"
         d="M592 1517h192q0 -84 -41 -149t-116.5 -101.5t-178.5 -36.5q-155 0 -246 80t-91 207h192q0 -53 33 -95t112 -42t111.5 42t32.5 95z"
         id="glyph5" />
      <glyph
         glyph-name="dotaccent"
         unicode="˙"
         horiz-adv-x="34.52"
         d="M124 1373q0 55 37.5 91.5t100.5 36.5q64 0 102 -36.5t38 -91.5q0 -54 -38 -90t-102 -36q-63 0 -100.5 36t-37.5 90z"
         id="glyph6" />
      <glyph
         glyph-name="ring"
         unicode="˚"
         horiz-adv-x="44.13"
         d="M120 1349q0 56 28.5 102.5t78.5 74.5t113 28q94 0 157 -60.5t63 -144.5q0 -57 -29 -102.5t-78.5 -72t-112.5 -26.5q-94 0 -157 58t-63 143zM230 1349q0 -44 30 -76.5t80 -32.5t79.5 32t29.5 77t-29.5 78.5t-79.5 33.5t-80 -33.5t-30 -78.5z"
         id="glyph7" />
      <glyph
         glyph-name="ogonek"
         unicode="˛"
         horiz-adv-x="39.07"
         d="M266 59l132 -59q-48 -29 -83.5 -58t-55 -61.5t-19.5 -70.5q0 -29 15.5 -48t53.5 -19q29 0 49.5 7.5t34.5 14.5l27 -146q-25 -15 -64.5 -29.5t-99.5 -14.5q-91 0 -155 51.5t-64 151.5q0 51 22 100.5t71.5 95.5t135.5 85z"
         id="glyph8" />
      <glyph
         glyph-name="tilde"
         unicode="˜"
         horiz-adv-x="63.4"
         d="M703 1528l157 -11q0 -73 -29.5 -131.5t-79.5 -92.5t-115 -34q-48 0 -82.5 13t-63 31t-58.5 31.5t-70 13.5q-36 0 -61.5 -27t-25.5 -73l-158 8q0 72 29 131t79.5 94t115.5 35q41 0 74.5 -13t64.5 -30.5t63.5 -31t70.5 -13.5q37 0 63 27t26 73z"
         id="glyph9" />
      <glyph
         glyph-name="hungarumlaut"
         unicode="˝"
         horiz-adv-x="53.67"
         d="M403 1234l228 301h244l-267 -301h-205zM67 1234l184 301h241l-228 -301h-197z"
         id="glyph10" />
      <glyph
         glyph-name="uni02F3"
         unicode="˳"
         horiz-adv-x="41.34"
         d="M142 -234q0 74 53.5 122.5t130.5 48.5q75 0 128 -48.5t53 -122.5q0 -73 -53 -119.5t-128 -46.5q-77 0 -130.5 46.5t-53.5 119.5zM248 -234q0 -32 22.5 -54t55.5 -22q31 0 52.5 21.5t21.5 54.5q0 35 -21.5 57.5t-52.5 22.5q-33 0 -55.5 -22.5t-22.5 -57.5z"
         id="glyph11" />
      <glyph
         glyph-name="gravecomb"
         unicode="̀"
         d="M-593 1536l197 -304h-219l-270 304h292z"
         id="glyph12" />
      <glyph
         glyph-name="acutecomb"
         unicode="́"
         d="M-675 1232l196 304h292l-273 -304h-215z"
         id="glyph13" />
      <glyph
         glyph-name="tildecomb"
         unicode="̃"
         d="M-332 1528l157 -11q0 -73 -29.5 -131.5t-79.5 -92.5t-115 -34q-48 0 -82.5 13t-63 31t-58.5 31.5t-70 13.5q-36 0 -61.5 -27t-25.5 -73l-158 8q0 72 29 131t79.5 94t115.5 35q41 0 74.5 -13t64.5 -30.5t63.5 -31t70.5 -13.5q37 0 63 27t26 73z"
         id="glyph14" />
      <glyph
         glyph-name="hookabovecomb"
         unicode="̉"
         d="M-506 1260h-198l-12 138q50 3 81 10.5t45.5 22t14.5 36.5q0 20 -11.5 34t-31.5 22t-47.5 11.5t-59.5 3.5l7 127q90 0 158 -13.5t113.5 -39t69 -61t23.5 -79.5q0 -70 -47.5 -104t-104.5 -42v-66z"
         id="glyph15" />
      <glyph
         glyph-name="uni030F"
         unicode="̏"
         d="M-513 1252h-222l-294 266h269zM-190 1252h-215l-245 266h262z"
         id="glyph16" />
      <glyph
         glyph-name="dotbelowcomb"
         unicode="̣"
         d="M-750 -238q0 55 40.5 92t109.5 37t109.5 -37t40.5 -92q0 -54 -40.5 -90.5t-109.5 -36.5t-109.5 36.5t-40.5 90.5z"
         id="glyph17" />
      <glyph
         glyph-name="uni0402"
         unicode="Ђ"
         horiz-adv-x="99.42"
         d="M566 611v216q54 18 117 33t128.5 24.5t124.5 9.5q160 0 280.5 -50.5t187.5 -151.5t67 -252q0 -89 -29 -171t-92.5 -146.5t-167.5 -101.5t-254 -37l-1 204q86 0 139.5 21t81.5 56t38 77.5t10 84.5q1 77 -31 132t-92.5 85t-148.5 30q-68 0 -127 -7.5t-115 -21t-116 -34.5z M682 1456v-1456h-275v1456h275zM1167 1456v-217h-1134v217h1134z"
         id="glyph18" />
      <glyph
         glyph-name="uni0404"
         unicode="Є"
         horiz-adv-x="87.93"
         d="M845 840v-217h-593v217h593zM991 478h276q-10 -145 -80.5 -257.5t-195.5 -177t-302 -64.5q-138 0 -247.5 49t-187 139t-118.5 218t-41 287v109q0 160 42 288t120.5 219t189 139.5t248.5 48.5q178 0 300.5 -65t191 -179.5t82.5 -261.5h-275q-8 91 -40 155.5t-94.5 99 t-164.5 34.5q-80 0 -140.5 -30.5t-102 -91t-62 -149t-20.5 -205.5v-111q0 -90 12 -164.5t36.5 -132.5t62 -98t89.5 -61t119 -21q100 0 164 32.5t97.5 95.5t40.5 155z"
         id="glyph19" />
      <glyph
         glyph-name="uni0409"
         unicode="Љ"
         horiz-adv-x="140.82"
         d="M348 1456h274l-36 -727q-8 -161 -29 -282t-57 -206.5t-90 -138.5t-127.5 -77.5t-170.5 -24.5h-69v216l39 4q51 4 88.5 25t64.5 63.5t44.5 109.5t28 163t15.5 225zM1098 1456v-217h-706v217h706zM1210 941h353q169 0 289.5 -61.5t185.5 -167.5t65 -242q0 -102 -37 -187.5 t-107 -149t-169.5 -98.5t-226.5 -35h-537v1456h275v-1240h262q90 0 149 36.5t87.5 95t28.5 124.5q0 65 -28.5 122.5t-87.5 93.5t-149 36h-353v217z"
         id="glyph20" />
      <glyph
         glyph-name="uni040A"
         unicode="Њ"
         horiz-adv-x="141.28"
         d="M1105 836v-216h-763v216h763zM417 1456v-1456h-275v1456h275zM1217 922h352q169 0 290 -59.5t185.5 -162.5t64.5 -237q0 -101 -37 -185.5t-107 -146.5t-169.5 -96.5t-226.5 -34.5h-537v1456h275v-1237h262q91 0 149.5 34.5t87.5 91t29 120.5q0 63 -29 118t-87.5 89 t-149.5 34h-352v216z"
         id="glyph21" />
      <glyph
         glyph-name="uni040B"
         unicode="Ћ"
         horiz-adv-x="103.57"
         d="M1467 1h-274v449q0 100 -30.5 155.5t-92.5 78.5t-155 23q-40 0 -89 -4t-99.5 -10.5t-97 -16t-81.5 -22.5v217q36 12 81 21.5t95 16.5t99.5 10.5t91.5 3.5q170 0 293.5 -49t191 -153t67.5 -271v-449zM673 1456v-1456h-276v1456h276zM1153 1456v-217h-1115v217h1115z"
         id="glyph22" />
      <glyph
         glyph-name="uni040F"
         unicode="Џ"
         horiz-adv-x="93.38"
         d="M129 0v1456h275v-1240h616v1240h276v-1456h-1167zM862 207v-567h-275v567h275z"
         id="glyph23" />
      <glyph
         glyph-name="uni0411"
         unicode="Б"
         horiz-adv-x="83.39"
         d="M1076 1456v-217h-666v-1239h-274v1456h940zM321 911h353q169 0 290 -56.5t185.5 -157.5t64.5 -237q0 -102 -36.5 -186t-106.5 -145.5t-170 -95t-227 -33.5h-538v1456h276v-1240h262q90 0 149 34t88 90t29 122q0 65 -29 118t-88 84t-149 31h-353v216z"
         id="glyph24" />
      <glyph
         glyph-name="uni0414"
         unicode="Д"
         horiz-adv-x="99.29"
         d="M1292 216v-216h-1061v216h1061zM306 216v-573h-261l-13 573h274zM1497 216l-21 -574h-255v574h276zM1121 1456v-217h-686v217h686zM1324 1456v-1456h-274v1456h274zM391 1456h275l-37 -592q-8 -143 -29.5 -255t-52.5 -199t-68.5 -152.5t-79 -113.5t-85 -82.5t-85.5 -61.5 h-153v216h66q29 25 61.5 70t63 119t53.5 187t33 272z"
         id="glyph25" />
      <glyph
         glyph-name="uni0416"
         unicode="Ж"
         horiz-adv-x="130.05"
         d="M592 615l-548 841h339l341 -600h257l-37 -241h-352zM725 654l-363 -654h-343l492 826zM1152 1456v-1456h-274v1456h274zM1975 1456l-542 -841h-349l-37 241h254l334 600h340zM1657 0l-356 654l215 172l484 -826h-343z"
         id="glyph26" />
      <glyph
         glyph-name="uni0417"
         unicode="З"
         horiz-adv-x="81.38"
         d="M660 698h-213v151h176q87 0 140 26t78 73.5t25 110.5q0 54 -27.5 100t-84.5 73t-146 27q-67 0 -122 -23.5t-87 -67t-32 -103.5h-275q0 96 41 171.5t112.5 129t165 81.5t197.5 28q121 0 219.5 -26.5t168.5 -78.5t107.5 -129t37.5 -179q0 -75 -34 -141t-97.5 -116 t-152 -78.5t-197.5 -28.5zM447 785h213q120 0 213.5 -25t158 -73t98.5 -118.5t34 -161.5q0 -102 -41 -181t-115.5 -134t-176.5 -83t-223 -28q-98 0 -193.5 24.5t-173 75.5t-124 131t-46.5 192h276q0 -58 33 -105.5t92 -75t136 -27.5q89 0 151.5 27.5t95.5 76.5t33 109 q0 61 -17 104t-50.5 70.5t-83 40.5t-114.5 13h-176v148z"
         id="glyph27" />
      <glyph
         glyph-name="uni0418"
         unicode="И"
         horiz-adv-x="93.38"
         d="M408 440l615 1016h276v-1456h-276v1016l-615 -1016h-275v1456h275v-1016z"
         id="glyph28" />
      <glyph
         glyph-name="uni041B"
         unicode="Л"
         horiz-adv-x="93.9"
         d="M1102 1456v-217h-711v217h711zM1305 1456v-1456h-276v1456h276zM347 1456h274l-36 -727q-8 -161 -29 -282t-57 -206.5t-90 -138.5t-127.5 -77.5t-170.5 -24.5h-69v216l39 4q51 4 88.5 25t64.5 63.5t44.5 109.5t28 163t15.5 225z"
         id="glyph29" />
      <glyph
         glyph-name="uni0423"
         unicode="У"
         horiz-adv-x="83.85"
         d="M595 517l364 939h299l-502 -1183q-25 -57 -57 -110t-76.5 -94.5t-107 -65.5t-150.5 -24q-23 0 -55 1.5t-49 3.5v216q12 -3 39.5 -4t39.5 -1q58 0 92.5 18.5t55 51t36.5 74.5zM337 1456l349 -763l82 -297l-209 -6l-520 1066h298z"
         id="glyph30" />
      <glyph
         glyph-name="uni0424"
         unicode="Ф"
         horiz-adv-x="107.21"
         d="M677 1322h305q130 0 239 -43t190.5 -122t126.5 -189t45 -246q0 -133 -45 -242t-126.5 -187.5t-190.5 -120.5t-239 -42h-305q-130 0 -239.5 42t-191 120t-126.5 186.5t-45 241.5q0 136 45 246t126.5 190t191 123t239.5 43zM677 1102q-104 0 -181 -45t-119 -130t-42 -207 q0 -89 24.5 -158t69.5 -116t108 -71.5t140 -24.5h307q103 0 178.5 44t117.5 127.5t42 200.5q0 91 -24 161.5t-68 119.5t-106.5 74t-139.5 25h-307zM962 1516v-1576h-264v1576h264z"
         id="glyph31" />
      <glyph
         glyph-name="uni0426"
         unicode="Ц"
         horiz-adv-x="100.0"
         d="M1485 217l-19 -568h-256v351h-125v217h400zM129 0v1456h275v-1240h616v1240h276v-1456h-1167z"
         id="glyph32" />
      <glyph
         glyph-name="uni0427"
         unicode="Ч"
         horiz-adv-x="91.96"
         d="M142 1456h276v-449q0 -100 30.5 -156t92.5 -79t154 -23q40 0 88.5 4t99 10.5t97 16.5t81.5 22v-217q-35 -11 -80.5 -21t-95 -17t-99 -10.5t-91.5 -3.5q-169 0 -293.5 49t-192 153.5t-67.5 271.5v449zM1001 1456h276v-1456h-276v1456z"
         id="glyph33" />
      <glyph
         glyph-name="uni0428"
         unicode="Ш"
         horiz-adv-x="126.81"
         d="M138 1456h276v-1240h428v1240h275v-1240h424v1240h275v-1456h-1678v1456z"
         id="glyph34" />
      <glyph
         glyph-name="uni0429"
         unicode="Щ"
         horiz-adv-x="134.14"
         d="M1999 208l-19 -558h-245v351h-126v207h390zM138 1456h276v-1240h428v1240h275v-1240h424v1240h275v-1456h-1678v1456z"
         id="glyph35" />
      <glyph
         glyph-name="uni042A"
         unicode="Ъ"
         horiz-adv-x="102.21"
         d="M23 1248v208h507v-208h-507zM613 911h352q169 0 290 -56.5t186 -157.5t65 -237q0 -102 -37 -186t-107 -145.5t-170 -95t-227 -33.5h-537v1456h276v-1240h261q91 0 149.5 34t87 90t28.5 122q0 65 -28.5 118t-87 84t-149.5 31h-352v216z"
         id="glyph36" />
      <glyph
         glyph-name="uni042B"
         unicode="Ы"
         horiz-adv-x="115.38"
         d="M327 911h353q169 0 290 -56.5t185.5 -157.5t64.5 -237q0 -102 -36.5 -186t-106.5 -145.5t-170 -95t-227 -33.5h-538v1456h277v-1240h261q90 0 149 34t88 90t29 122q0 65 -29 118t-88 84t-149 31h-353v216zM1635 1456v-1456h-275v1456h275z"
         id="glyph37" />
      <glyph
         glyph-name="uni042C"
         unicode="Ь"
         horiz-adv-x="83.07"
         d="M321 911h353q169 0 290 -56.5t185.5 -157.5t64.5 -237q0 -102 -36.5 -186t-106.5 -145.5t-170 -95t-227 -33.5h-538v1456h276v-1240h262q90 0 149 34t88 90t29 122q0 65 -29 118t-88 84t-149 31h-353v216z"
         id="glyph38" />
      <glyph
         glyph-name="uni042D"
         unicode="Э"
         horiz-adv-x="86.96"
         d="M1105 836v-217h-613v217h613zM80 478h274q9 -92 42.5 -155t97.5 -95.5t164 -32.5q84 0 144.5 32.5t99 94.5t57 150t18.5 200v111q0 93 -13 168.5t-39.5 133t-65.5 96t-91 58.5t-116 20q-102 0 -165 -34.5t-94 -99t-40 -155.5h-274q14 147 82 261.5t190.5 179.5t300.5 65 q137 0 247.5 -48.5t189.5 -139.5t120.5 -219t41.5 -288v-109q0 -159 -41 -287t-118 -218t-186.5 -139t-247.5 -49q-177 0 -302 64.5t-195 177t-81 257.5z"
         id="glyph39" />
      <glyph
         glyph-name="uni042E"
         unicode="Ю"
         horiz-adv-x="124.28"
         d="M427 1456v-1456h-275v1456h275zM718 806v-209h-385v209h385zM1825 765v-75q0 -165 -44 -296.5t-125 -223.5t-193 -141t-249 -49q-135 0 -247 49t-194.5 141t-127 223.5t-44.5 296.5v75q0 166 44.5 297t126 223.5t193.5 141.5t247 49q137 0 249 -49t193.5 -141.5 t126 -223.5t44.5 -297zM1548 690v77q0 119 -22.5 209.5t-65.5 152.5t-105.5 93.5t-142.5 31.5q-79 0 -141 -31.5t-105 -93.5t-65.5 -152.5t-22.5 -209.5v-77q0 -118 22.5 -209t66.5 -153.5t106 -94.5t141 -32q80 0 142 32t105 94.5t65 153.5t22 209z"
         id="glyph40" />
      <glyph
         glyph-name="uni042F"
         unicode="Я"
         horiz-adv-x="80.15"
         d="M921 538h-399l-100 41q-168 53 -257 160t-89 271q0 145 64.5 244.5t184 150.5t283.5 51h498v-1456h-276v1239h-222q-131 0 -194 -65t-63 -181q0 -81 28.5 -137t85 -84t140.5 -28h315zM623 654l-331 -654h-297l333 654h295z"
         id="glyph41" />
      <glyph
         glyph-name="uni0431"
         unicode="б"
         horiz-adv-x="75.28"
         d="M789 1557h214q0 -85 -22 -142.5t-68 -96t-118 -63.5t-172 -44q-84 -17 -148 -56t-106.5 -107t-61.5 -173t-12 -253v-58l-207 -24v58q0 193 35 336.5t99 242t153.5 157t200.5 82.5q74 15 121.5 31t69.5 41.5t22 68.5zM641 1021q109 0 193.5 -37.5t142.5 -105t88.5 -159 t30.5 -199.5v-21q0 -112 -33.5 -207t-97.5 -165t-158 -109t-215 -39q-120 0 -214 41.5t-159 115.5t-98 174.5t-33 219.5v21q-1 20 13 38t33.5 40t35.5 53q55 106 124.5 182t155.5 116.5t191 40.5zM590 813q-85 0 -137.5 -40.5t-76.5 -107t-24 -145.5v-21q0 -64 13.5 -120.5 t41.5 -99.5t74 -67.5t111 -24.5t110.5 24.5t73.5 67.5t41.5 99.5t13.5 120.5v21q0 59 -13.5 112t-41.5 93.5t-74.5 64t-111.5 23.5z"
         id="glyph42" />
      <glyph
         glyph-name="uni0432"
         unicode="в"
         horiz-adv-x="75.28"
         d="M651 458h-343l-2 179h282q63 0 103 13t59.5 39t19.5 63q0 32 -12 55.5t-35.5 38.5t-59 22.5t-82.5 7.5h-179v-876h-265v1082h444q105 0 189 -18.5t143 -55.5t90.5 -93.5t31.5 -132.5q0 -50 -22 -94t-65 -78t-106 -55.5t-144 -26.5zM651 0h-414l98 206h316q58 0 96 14.5 t56.5 42.5t18.5 68q0 39 -17.5 67.5t-55 44t-98.5 15.5h-273l2 179h317l70 -71q108 -7 179 -43.5t106 -92t35 -121.5q0 -77 -29 -135t-85 -96.5t-137 -58t-185 -19.5z"
         id="glyph43" />
      <glyph
         glyph-name="uni0433"
         unicode="г"
         horiz-adv-x="55.75"
         d="M846 1082v-209h-461v-873h-264v1082h725z"
         id="glyph44" />
      <glyph
         glyph-name="uni0434"
         unicode="д"
         horiz-adv-x="83.0"
         d="M314 1082h264l-10 -372q-5 -169 -39.5 -291.5t-91 -205.5t-128 -134t-149.5 -79h-63l-1 206l31 2q47 50 79.5 98.5t52.5 104.5t30.5 128.5t13.5 170.5zM385 1082h701v-1082h-264v865h-437v217zM37 208h1200v-532h-264v324h-667v-324h-270z"
         id="glyph45" />
      <glyph
         glyph-name="uni0436"
         unicode="ж"
         horiz-adv-x="111.23"
         d="M488 422l-440 660h326l241 -417h209l-33 -243h-303zM620 464l-262 -464h-321l375 602zM990 1082v-1082h-264v1082h264zM1671 1082l-441 -660h-303l-33 243h209l241 417h327zM1360 0l-262 464l215 138l374 -602h-327z"
         id="glyph46" />
      <glyph
         glyph-name="uni0437"
         unicode="з"
         horiz-adv-x="68.14"
         d="M583 516h-211v126h161q59 0 94.5 16t51 45t15.5 67q0 34 -15 64.5t-50 50t-97 19.5q-51 0 -91 -16t-63 -45t-23 -69h-265q0 102 58.5 175t156.5 112.5t215 39.5q101 0 182 -20.5t138 -60.5t88 -98.5t31 -135.5q0 -55 -26 -104t-75 -86.5t-118.5 -58.5t-156.5 -21z M372 588h211q97 0 170.5 -18.5t123.5 -54.5t75.5 -88.5t25.5 -120.5q0 -77 -33.5 -137.5t-94.5 -102.5t-145 -64t-185 -22q-109 0 -211.5 36t-169 111t-66.5 193h265q0 -38 23 -71t66.5 -52.5t105.5 -19.5q63 0 103 20t58.5 53.5t18.5 70.5q0 51 -19.5 82.5t-60 46.5 t-100.5 15h-161v123z"
         id="glyph47" />
      <glyph
         glyph-name="uni0438"
         unicode="и"
         horiz-adv-x="75.6"
         d="M386 377l394 705h265v-1082h-265v706l-394 -706h-265v1082h265v-705z"
         id="glyph48" />
      <glyph
         glyph-name="uni043A"
         unicode="к"
         horiz-adv-x="74.11"
         d="M401 1082v-1082h-264v1082h264zM1106 1082l-477 -664h-281l-33 242h195l263 422h333zM789 0l-296 464l220 138l427 -602h-351z"
         id="glyph49" />
      <glyph
         glyph-name="uni043B"
         unicode="л"
         horiz-adv-x="75.73"
         d="M846 1082v-209h-530v209h530zM1045 1082v-1082h-264v1082h264zM250 1082h261l-29 -540q-7 -119 -25 -208.5t-48 -153t-73 -103.5t-99.5 -58.5t-126.5 -18.5h-81l-3 213l38 3q35 3 60.5 19t44 46t31 77.5t20 112t10.5 149.5z"
         id="glyph50" />
      <glyph
         glyph-name="uni043C"
         unicode="м"
         horiz-adv-x="100.39"
         d="M768 312l304 770h221l-435 -1082h-179l-434 1082h222zM402 1082v-1082h-265v1082h265zM1139 0v1082h265v-1082h-265z"
         id="glyph51" />
      <glyph
         glyph-name="uni043D"
         unicode="н"
         horiz-adv-x="75.54"
         d="M858 638v-207h-555v207h555zM386 1082v-1082h-265v1082h265zM1043 1082v-1082h-266v1082h266z"
         id="glyph52" />
      <glyph
         glyph-name="uni043F"
         unicode="п"
         horiz-adv-x="75.6"
         d="M845 1082v-209h-529v209h529zM386 1082v-1082h-265v1082h265zM1045 1082v-1082h-266v1082h266z"
         id="glyph53" />
      <glyph
         glyph-name="uni0442"
         unicode="т"
         horiz-adv-x="66.91"
         d="M644 1082v-1082h-265v1082h265zM996 1082v-206h-963v206h963z"
         id="glyph54" />
      <glyph
         glyph-name="uni0444"
         unicode="ф"
         horiz-adv-x="97.02"
         d="M1419 531v-21q0 -116 -25.5 -213t-76 -168t-124.5 -110t-171 -39q-87 0 -151.5 31.5t-108 89t-70 135t-39.5 168.5v244q13 98 39 180.5t70 144t107.5 95.5t150.5 34q79 0 142 -27t111 -77.5t80.5 -121t49 -158t16.5 -187.5zM1154 510v21q0 59 -7 113.5t-22 99.5t-39 79 t-58 52.5t-78 18.5q-68 0 -111.5 -25t-65 -69t-25.5 -103v-343q5 -50 27 -87t65.5 -58t111.5 -21q55 0 93.5 24.5t62.5 68t35 102t11 127.5zM75 510v21q0 100 16.5 187.5t49.5 158t81 121t111 77.5t141 27q87 0 150 -34t106 -95.5t69 -144t40 -180.5v-234 q-13 -93 -39.5 -172.5t-70 -138.5t-106.5 -91t-151 -32q-96 0 -170 39t-124.5 110t-76.5 168t-26 213zM340 531v-21q0 -69 10.5 -127.5t34 -102t61.5 -68t93 -24.5q69 0 112 22.5t65.5 62t26.5 92.5v332q-3 59 -25 103t-65 69t-112 25q-55 0 -93.5 -28.5t-62 -78.5 t-34.5 -116t-11 -140zM611 -416v1952h266v-1952h-266z"
         id="glyph55" />
      <glyph
         glyph-name="uni0446"
         unicode="ц"
         horiz-adv-x="80.41"
         d="M121 0v1082h265v-874h393v874h266v-1082h-924zM1199 207l-19 -528h-245v321h-125v207h389z"
         id="glyph56" />
      <glyph
         glyph-name="uni0447"
         unicode="ч"
         horiz-adv-x="73.27"
         d="M1009 1082v-1082h-265v1082h265zM889 611v-208q-38 -18 -91.5 -33.5t-112 -24.5t-113.5 -9q-149 0 -256.5 44t-165.5 135.5t-58 234.5v333h264v-333q0 -77 23 -122t71 -64t122 -19q57 0 109 8.5t103.5 23t104.5 34.5z"
         id="glyph57" />
      <glyph
         glyph-name="uni0448"
         unicode="ш"
         horiz-adv-x="109.35"
         d="M121 1082h265v-874h321v874h266v-874h321v874h264v-1082h-1437v1082z"
         id="glyph58" />
      <glyph
         glyph-name="uni0449"
         unicode="щ"
         horiz-adv-x="117.59"
         d="M1756 207l-19 -528h-245v321h-126v207h390zM117 1082h264v-874h322v874h265v-874h321v874h265v-1082h-1437v1082z"
         id="glyph59" />
      <glyph
         glyph-name="uni044A"
         unicode="ъ"
         horiz-adv-x="86.38"
         d="M574 1082v-209h-541v209h541zM516 749h316q144 0 245.5 -47.5t155 -132t53.5 -195.5q0 -80 -30 -148.5t-88.5 -119t-143 -78.5t-192.5 -28h-486v1082h265v-875h221q68 0 109.5 23.5t60.5 61t19 80.5q0 44 -19 82.5t-60.5 62.5t-109.5 24h-316v208z"
         id="glyph60" />
      <glyph
         glyph-name="uni044B"
         unicode="ы"
         horiz-adv-x="108.51"
         d="M307 749h316q144 0 245.5 -47.5t155 -132t53.5 -195.5q0 -80 -30.5 -148.5t-88.5 -119t-142.5 -78.5t-192.5 -28h-486v1082h265v-875h221q69 0 110.5 23.5t60 61t18.5 80.5q0 44 -18.5 82.5t-60 62.5t-110.5 24h-316v208zM1521 1082v-1082h-265v1082h265z"
         id="glyph61" />
      <glyph
         glyph-name="uni044C"
         unicode="ь"
         horiz-adv-x="73.72"
         d="M307 749h316q144 0 245.5 -47.5t155 -132t53.5 -195.5q0 -80 -30.5 -148.5t-88.5 -119t-142.5 -78.5t-192.5 -28h-486v1082h265v-875h221q69 0 110.5 23.5t60 61t18.5 80.5q0 44 -18.5 82.5t-60 62.5t-110.5 24h-316v208z"
         id="glyph62" />
      <glyph
         glyph-name="uni044D"
         unicode="э"
         horiz-adv-x="69.57"
         d="M508 894q-54 0 -96.5 -22t-66.5 -61.5t-24 -93.5h-250q0 110 59.5 197t158.5 137.5t219 50.5q121 0 213.5 -42t155 -117t94.5 -174t32 -212v-32q0 -113 -32 -212t-94.5 -174t-154.5 -117t-212 -42q-129 0 -228 51t-155 144t-56 218h250q0 -57 23 -103.5t65 -74t101 -27.5 q64 0 107.5 28t70 76t38 108.5t11.5 124.5v32q0 65 -11.5 125.5t-37.5 108t-70.5 75.5t-109.5 28zM830 631v-168h-414v168h414z"
         id="glyph63" />
      <glyph
         glyph-name="uni044E"
         unicode="ю"
         horiz-adv-x="107.99"
         d="M763 654v-209h-582v209h582zM405 1082v-1082h-265v1082h265zM577 530v21q0 119 34 219.5t99 174.5t159 115.5t214 41.5q122 0 216.5 -41.5t160 -115.5t99 -174.5t33.5 -219.5v-21q0 -118 -33.5 -218.5t-98.5 -175t-159.5 -115.5t-215.5 -41t-215 41t-159.5 115.5 t-99.5 175t-34 218.5zM841 551v-21q0 -71 14 -133t43.5 -109t75.5 -73.5t111 -26.5t111 26.5t75 73.5t43 109t14 133v21q0 70 -14 131.5t-43.5 109t-76 75t-111.5 27.5q-64 0 -109.5 -27.5t-75 -75t-43.5 -109t-14 -131.5z"
         id="glyph64" />
      <glyph
         glyph-name="uni044F"
         unicode="я"
         horiz-adv-x="74.05"
         d="M349 534h271l-304 -534h-271zM533 1082h470v-1082h-264v876h-206q-63 0 -104.5 -23t-61.5 -58.5t-20 -72.5q0 -36 19 -70t58.5 -56t99.5 -22h309v-186h-309q-103 0 -184.5 25.5t-139 71.5t-87.5 108.5t-30 136.5q0 76 30.5 140t89 112t142 74t188.5 26z"
         id="glyph65" />
      <glyph
         glyph-name="uni0452"
         unicode="ђ"
         horiz-adv-x="74.18"
         d="M764 465h266v-515q0 -125 -44.5 -211.5t-126.5 -131t-197 -44.5q-37 0 -69.5 3.5t-69.5 13.5l15 204q20 -6 47.5 -9.5t52.5 -3.5q40 0 68 21t43 61t15 97v515zM378 1536v-1536h-265v1536h265zM336 580h-78q0 113 30 208t85 165.5t131.5 109.5t169.5 39q80 0 145.5 -22.5 t112.5 -71.5t72.5 -127.5t25.5 -190.5v-690h-266v692q0 75 -22 118.5t-62.5 62.5t-99.5 19q-64 0 -110 -24.5t-75.5 -67.5t-44 -99t-14.5 -121zM639 1368v-172h-686v172h686z"
         id="glyph66" />
      <glyph
         glyph-name="uni0454"
         unicode="є"
         horiz-adv-x="69.57"
         d="M669 616v-168h-437v168h437zM564 188q56 0 100 22t70.5 62t28.5 93h249q-2 -110 -62 -197t-159.5 -137.5t-222.5 -50.5q-125 0 -218 42t-154.5 117t-92 174t-30.5 212v32q0 113 30.5 212t92 174t154.5 117t216 42q131 0 230.5 -51t156.5 -144t59 -219h-249q-2 58 -26 104 t-68 74t-107 28q-68 0 -112 -28t-68.5 -76.5t-34.5 -108t-10 -124.5v-32q0 -66 10 -126t34.5 -107.5t69 -75.5t113.5 -28z"
         id="glyph67" />
      <glyph
         glyph-name="uni0459"
         unicode="љ"
         horiz-adv-x="113.89"
         d="M248 1082h260l-29 -540q-6 -119 -24 -208.5t-48 -153t-73.5 -103.5t-99.5 -58.5t-126 -18.5h-82l-2 213l38 3q34 3 59.5 19t44 46t31 77.5t20.5 112t11 149.5zM831 1082v-209h-519v209h519zM936 720h316q145 0 246 -46t154.5 -127t53.5 -185q0 -78 -30 -144.5t-88.5 -115 t-143 -75.5t-192.5 -27h-486v1082h265v-876h221q69 0 110.5 23t60.5 59t19 76q0 39 -19 73t-60.5 54.5t-110.5 20.5h-316v208z"
         id="glyph68" />
      <glyph
         glyph-name="uni045A"
         unicode="њ"
         horiz-adv-x="114.48"
         d="M858 666v-207h-555v207h555zM386 1082v-1082h-265v1082h265zM947 720h316q145 0 246 -46t155 -127t54 -185q0 -78 -30.5 -144.5t-88.5 -115t-143 -75.5t-193 -27h-486v1082h266v-876h220q69 0 110.5 23t60.5 59t19 76q0 39 -19 73t-60.5 54.5t-110.5 20.5h-316v208z"
         id="glyph69" />
      <glyph
         glyph-name="uni045B"
         unicode="ћ"
         horiz-adv-x="75.02"
         d="M378 1536v-1536h-265v1536h265zM336 580h-78q0 113 30 208t85 165.5t131.5 109.5t169.5 39q80 0 145.5 -22.5t112.5 -71.5t72.5 -127.5t25.5 -190.5v-690h-266v692q0 75 -22 118.5t-62.5 62.5t-99.5 19q-64 0 -110 -24.5t-75.5 -67.5t-44 -99t-14.5 -121zM654 1379v-173 h-686v173h686z"
         id="glyph70" />
      <glyph
         glyph-name="uni045F"
         unicode="џ"
         horiz-adv-x="75.6"
         d="M451 208h265v-566h-265v566zM121 1082h265v-874h393v874h266v-1082h-924v1082z"
         id="glyph71" />
      <glyph
         glyph-name="uni0460"
         unicode="Ѡ"
         horiz-adv-x="124.15"
         d="M815 1456h224v-1009q0 -115 -32.5 -203t-91 -147t-137.5 -88.5t-174 -29.5q-102 0 -189 29.5t-151.5 88.5t-100.5 147t-36 203v1009h276v-1009q0 -65 14.5 -112.5t41.5 -78.5t63.5 -46t81.5 -15q65 0 112 27t73 82.5t26 142.5v1009zM1505 1456h275v-1009 q0 -154 -62.5 -258t-170.5 -157t-247 -53q-93 0 -171.5 29.5t-136.5 88.5t-90.5 147t-32.5 203v1009h224v-1009q0 -65 15 -112.5t42.5 -78.5t65.5 -46t84 -15q62 0 108 27t71.5 82.5t25.5 142.5v1009z"
         id="glyph72" />
      <glyph
         glyph-name="uni0461"
         unicode="ѡ"
         horiz-adv-x="108.25"
         d="M712 1082h215v-661q0 -109 -29 -191.5t-82 -138.5t-126 -84t-160 -28q-92 0 -169.5 28t-134 84t-87.5 138.5t-31 191.5v661h266v-661q0 -60 10.5 -104t31 -73t49 -43t65.5 -14q57 0 97.5 25t62.5 77t22 132v661zM1310 1082h265v-661q0 -145 -54.5 -243.5t-151.5 -148.5 t-221 -50q-86 0 -157 28t-122.5 84t-79 138.5t-27.5 191.5v661h215v-661q0 -60 11.5 -104t33.5 -73t53.5 -43t72.5 -14q37 0 67.5 14t51.5 43t32 73t11 104v661z"
         id="glyph73" />
      <glyph
         glyph-name="uni0463"
         unicode="ѣ"
         horiz-adv-x="73.72"
         d="M306 777h316q145 0 246 -49.5t154.5 -136.5t53.5 -200t-53.5 -201t-154.5 -139t-246 -51h-486v1560h266v-1353h220q69 0 110.5 25.5t60.5 67t19 88.5q0 46 -19 87.5t-60.5 67.5t-110.5 26h-316v208zM671 1255v-172h-700v172h700z"
         id="glyph74" />
      <glyph
         glyph-name="uni0464"
         unicode="Ѥ"
         horiz-adv-x="118.76"
         d="M1325 852v-209h-1005v209h1005zM1492 480h274q-10 -146 -80 -258.5t-195.5 -176.5t-302.5 -64q-138 0 -247.5 48.5t-187 139t-118.5 218t-41 286.5v111q0 159 42 287t121 218.5t189.5 139.5t247.5 49q178 0 301 -65.5t191 -179.5t82 -262h-275q-8 92 -39.5 156 t-94.5 97.5t-165 33.5q-80 0 -140 -30t-100.5 -89.5t-60.5 -148t-20 -204.5v-113q0 -89 11.5 -163.5t35.5 -132t61 -97t88.5 -60t118.5 -20.5q100 0 164 32t97.5 94t42.5 154zM414 1456v-1456h-275v1456h275z"
         id="glyph75" />
      <glyph
         glyph-name="uni0465"
         unicode="ѥ"
         horiz-adv-x="100.07"
         d="M1153 629v-173h-870v173h870zM1028 188q56 0 100.5 22t70.5 62t28 93h249q-2 -110 -62 -197t-159.5 -137.5t-222.5 -50.5q-125 0 -218 42t-154.5 117t-92 174t-30.5 212v32q0 113 30.5 212t92.5 174t154.5 117t216.5 42q131 0 230 -51t156 -144t59 -219h-249 q-2 58 -26 104t-68 74t-106 28q-69 0 -112.5 -28t-68 -76.5t-34.5 -108t-10 -124.5v-32q0 -66 9.5 -126t34.5 -107.5t69 -75.5t113 -28zM391 1082v-1082h-266v1082h266z"
         id="glyph76" />
      <glyph
         glyph-name="uni0466"
         unicode="Ѧ"
         horiz-adv-x="86.31"
         d="M749 1321l-441 -1321h-288l516 1456h156zM1042 0l-441 1330l60 126h156l513 -1456h-288zM1041 620v-194h-763v194h763zM787 535v-535h-234v535h234z"
         id="glyph77" />
      <glyph
         glyph-name="uni0467"
         unicode="ѧ"
         horiz-adv-x="73.66"
         d="M528 697l-248 -697h-271l417 1082h198zM839 0l-252 697l-93 385h198l417 -1082h-270zM913 455v-176h-700v176h700zM649 379v-379h-186v379h186z"
         id="glyph78" />
      <glyph
         glyph-name="uni0468"
         unicode="Ѩ"
         horiz-adv-x="122.91"
         d="M922 619v-192h-590v192h590zM1291 1321l-441 -1321h-288l516 1456h156zM1584 0l-441 1330l60 126h157l512 -1456h-288zM1582 620v-194h-763v194h763zM1328 535v-535h-234v535h234zM434 1456v-1456h-274v1456h274z"
         id="glyph79" />
      <glyph
         glyph-name="uni0469"
         unicode="ѩ"
         horiz-adv-x="105.0"
         d="M829 454v-175h-617v175h617zM1008 697l-247 -697h-271l417 1082h198zM1320 0l-252 697l-94 385h199l417 -1082h-270zM1393 455v-176h-699v176h699zM1129 379v-379h-185v379h185zM405 1082v-1082h-265v1082h265z"
         id="glyph80" />
      <glyph
         glyph-name="uni046A"
         unicode="Ѫ"
         horiz-adv-x="115.06"
         d="M393 0h-275v346q0 167 62.5 267.5t180.5 145t284 44.5h484q166 0 283.5 -44.5t180.5 -145t63 -267.5v-346h-275v346q0 93 -27.5 144.5t-83.5 72.5t-141 21h-484q-128 0 -190 -49.5t-62 -188.5v-346zM1295 1456v-219h-779v219h779zM834 703l400 753h302l-512 -885h-157z M571 1456l403 -761l-38 -124h-156l-512 885h303zM1035 763v-763h-274v763h274z"
         id="glyph81" />
      <glyph
         glyph-name="uni046B"
         unicode="ѫ"
         horiz-adv-x="97.28"
         d="M384 0h-264v178q0 158 55.5 253t161.5 137.5t253 42.5h319q147 0 252.5 -42.5t162 -137.5t56.5 -253v-178h-265v178q0 91 -22.5 141.5t-68 71t-115.5 20.5h-319q-69 0 -115 -20.5t-68.5 -71t-22.5 -141.5v-178zM1140 1082v-178h-734v178h734zM699 501l289 581h289 l-404 -686h-145zM526 1082l293 -586l-33 -100h-144l-405 686h289zM886 537v-537h-264v537h264z"
         id="glyph82" />
      <glyph
         glyph-name="uni046C"
         unicode="Ѭ"
         horiz-adv-x="153.22"
         d="M1290 805v-210h-957v210h957zM432 1456v-1456h-275v1456h275zM982 0h-275v346q0 167 62.5 267.5t180.5 145t283 44.5h485q166 0 284 -44.5t180.5 -145t62.5 -267.5v-346h-275v346q0 93 -27.5 144.5t-83.5 72.5t-141 21h-485q-126 0 -188.5 -49.5t-62.5 -188.5v-346z M1885 1456v-219h-780v219h780zM1423 703l400 753h302l-512 -885h-156zM1160 1456l404 -761l-38 -124h-156l-513 885h303zM1625 763v-763h-275v763h275z"
         id="glyph83" />
      <glyph
         glyph-name="uni046D"
         unicode="ѭ"
         horiz-adv-x="132.52"
         d="M1224 611v-194h-989v194h989zM404 1082v-1082h-265v1082h265zM927 0h-265v178q0 158 56 253t161.5 137.5t253.5 42.5h319q147 0 252.5 -42.5t162 -137.5t56.5 -253v-178h-265v178q0 91 -22.5 141.5t-68 71t-115.5 20.5h-319q-70 0 -115.5 -20.5t-68 -71t-22.5 -141.5 v-178zM1683 1082v-178h-734v178h734zM1242 501l289 581h289l-404 -686h-145zM1069 1082l293 -586l-33 -100h-144l-405 686h289zM1429 537v-537h-264v537h264z"
         id="glyph84" />
      <glyph
         glyph-name="uni046E"
         unicode="Ѯ"
         horiz-adv-x="68.4"
         d="M125 1456h271q114 0 208 -23.5t162 -71t104.5 -120t36.5 -168.5q0 -89 -36 -158t-102.5 -116t-159.5 -72t-207 -25h-153v151h148q88 0 141.5 26t78.5 72t25 103q0 56 -26 98.5t-80.5 66t-139.5 23.5h-271v214zM249 785h146q132 0 234.5 -25t173.5 -73t107.5 -118.5 t36.5 -161.5q0 -102 -36 -181.5t-103 -134.5t-158.5 -83t-203.5 -28h-58q-65 0 -93.5 -28t-28.5 -73q0 -46 26 -78.5t60.5 -53t62.5 -32.5l-79 -160q-96 24 -166 73.5t-107.5 121.5t-38.5 161q0 96 42.5 158.5t121 93.5t185.5 31h60q59 0 105.5 15.5t78.5 43.5t48.5 66.5 t16.5 83.5q0 59 -19 103t-55.5 73.5t-91 44.5t-125.5 15h-142v146zM354 1927l149 -151l149 151h227v-10l-292 -279h-167l-292 280v9h226z"
         id="glyph85" />
      <glyph
         glyph-name="uni046F"
         unicode="ѯ"
         horiz-adv-x="66.45"
         d="M123 1082h269q107 0 195.5 -18.5t152.5 -56t98.5 -94t34.5 -131.5q0 -69 -33 -122t-94 -90t-146.5 -56t-190.5 -19h-164v129h160q73 0 118 18t65 49.5t20 72.5q0 28 -13 51t-39.5 39.5t-67 25.5t-96.5 9h-269v193zM245 578h159q121 0 215.5 -18t160 -53t99.5 -86t34 -117 q0 -77 -33 -137t-94 -102t-145.5 -63.5t-186.5 -21.5h-49q-73 0 -103.5 -28t-30.5 -73q0 -46 23.5 -78.5t55.5 -53t57 -32.5l-78 -149q-78 26 -143.5 74.5t-105.5 117t-41 153.5q0 89 40 147t113.5 86t172.5 28h53q54 0 97 10.5t72.5 29t45 43.5t15.5 55q0 36 -16 62.5 t-48 45t-78 27.5t-106 9h-155v124zM320 1554l149 -152l149 152h227v-11l-292 -279h-167l-292 280v10h226z"
         id="glyph86" />
      <glyph
         glyph-name="uni0472"
         unicode="Ѳ"
         horiz-adv-x="91.18"
         d="M706 1476q108 0 202.5 -31.5t169.5 -92t129 -147t82.5 -197t28.5 -243.5v-75q0 -165 -43.5 -296.5t-125 -223.5t-193.5 -141t-248 -49q-108 0 -202 31.5t-170 91.5t-130.5 147t-83 197.5t-28.5 242.5v75q0 166 44.5 297t126 223.5t193.5 141.5t248 49zM706 1254 q-70 0 -127 -24.5t-99 -73t-68.5 -119.5t-35.5 -164q-1 -14 -2 -28.5t-2 -30.5h668q-1 15 -1.5 30t-2.5 28q-9 94 -35.5 165t-68.5 119.5t-99 73t-127 24.5zM708 201q71 0 128.5 25.5t99 76t67.5 124t34 169.5q1 11 1.5 22.5t1.5 23.5h-668l2 -28t2 -27q10 -94 36.5 -166 t69 -121t99.5 -74t127 -25z"
         id="glyph87" />
      <glyph
         glyph-name="uni0473"
         unicode="ѳ"
         horiz-adv-x="75.15"
         d="M577 1102q122 0 216.5 -41.5t159.5 -115.5t99 -174.5t34 -219.5v-21q0 -118 -34 -218.5t-99 -175t-159 -115.5t-215 -41t-215.5 41t-160 115.5t-99.5 175t-34 218.5v21q0 119 34 219.5t99.5 174.5t159.5 115.5t214 41.5zM577 894q-55 0 -97 -20.5t-71 -57t-46.5 -85.5 t-23.5 -105h478q-6 56 -23 105t-46.5 85.5t-72 57t-98.5 20.5zM579 188q55 0 97 20t71 56.5t46.5 84.5t23.5 105h-478q6 -57 23.5 -105t46.5 -84.5t71.5 -56.5t98.5 -20z"
         id="glyph88" />
      <glyph
         glyph-name="uni0474"
         unicode="Ѵ"
         horiz-adv-x="85.01"
         d="M664 382l220 758q35 110 82 184.5t113.5 112t160.5 37.5l39 -1l-2 -226h-25q-30 0 -54 -14.5t-42.5 -42t-30.5 -68.5l-342 -1122h-204zM306 1456l315 -1071l86 -385h-205l-488 1456h292z"
         id="glyph89" />
      <glyph
         glyph-name="uni0475"
         unicode="ѵ"
         horiz-adv-x="67.56"
         d="M521 384l109 411q31 102 75.5 170t106 103t140.5 35q29 0 55 -4t48 -17l-23 -204q-4 2 -20.5 3.5t-29.5 1.5q-24 0 -46 -13t-38.5 -36t-26.5 -52l-247 -782h-177zM299 1082l180 -698l77 -384h-179l-354 1082h276z"
         id="glyph90" />
      <glyph
         glyph-name="uni047A"
         unicode="Ѻ"
         horiz-adv-x="91.18"
         d="M797 1580v-439h-189v439h189zM799 311v-448h-189v448h189zM1318 765v-75q0 -165 -43.5 -296.5t-125 -223.5t-193.5 -141t-248 -49q-108 0 -202 31.5t-170 91.5t-130.5 147t-83 197.5t-28.5 242.5v75q0 166 44.5 297t126 223.5t193.5 141.5t248 49q108 0 202.5 -31.5 t169.5 -92t129 -147t82.5 -197t28.5 -243.5zM1041 690v77q0 95 -14.5 172t-42.5 136t-68.5 98.5t-93 60t-116.5 20.5q-79 0 -141 -31.5t-105.5 -93.5t-66 -152.5t-22.5 -209.5v-77q0 -94 15 -171.5t43 -137t69 -99.5t94 -60.5t116 -20.5q80 0 141.5 32t104.5 94.5t65 153.5 t22 209z"
         id="glyph91" />
      <glyph
         glyph-name="uni047B"
         unicode="ѻ"
         horiz-adv-x="75.02"
         d="M664 1204v-425h-167v425h167zM659 312v-435h-166v435h166zM72 530v21q0 119 34 219.5t99 174.5t159 115.5t214 41.5q122 0 216.5 -41.5t159.5 -115.5t99 -174.5t34 -219.5v-21q0 -118 -34 -218.5t-99 -175t-159 -115.5t-215 -41q-120 0 -215 41t-160 115.5t-99 175 t-34 218.5zM336 551v-21q0 -71 14 -133t43 -109t75.5 -73.5t111.5 -26.5q64 0 110 26.5t75.5 73.5t43.5 109t14 133v21q0 70 -14 131.5t-43.5 109t-76 75t-111.5 27.5q-64 0 -110 -27.5t-75 -75t-43 -109t-14 -131.5z"
         id="glyph92" />
      <glyph
         glyph-name="uni047C"
         unicode="Ѽ"
         horiz-adv-x="124.02"
         d="M1375 1718h23v-130h-23q-86 0 -156 18.5t-128 42.5t-107 42.5t-91 18.5q-48 0 -78 -25t-30 -80v-18h-129v37q0 111 62 164t171 53q58 0 113 -18.5t111 -43t120.5 -43t141.5 -18.5zM904 1293l-79 56q33 40 50.5 76t17.5 74v95h164v-102q0 -38 -24.5 -77.5t-60 -71.5 t-68.5 -50zM604 1456v-217q-60 0 -105 -28.5t-70.5 -87t-25.5 -150.5v-512q0 -69 14.5 -119t41.5 -82.5t63.5 -48.5t81.5 -16q65 0 112 27t73 82.5t26 142.5v373h224v-373q0 -115 -32.5 -203t-91 -147t-137.5 -88.5t-174 -29.5q-102 0 -189 30.5t-151.5 91.5t-100.5 151 t-36 209v512q0 159 62.5 266.5t170 162t244.5 54.5zM1288 1239v217q103 0 190.5 -31t151.5 -91.5t99.5 -151t35.5 -209.5v-512q0 -119 -35.5 -209t-99.5 -151t-151.5 -91.5t-190.5 -30.5q-93 0 -172.5 29.5t-138 88.5t-91 147t-32.5 203v373h224v-373q0 -65 15 -112.5 t42.5 -78.5t66.5 -46t86 -15q45 0 82 16t64 48.5t41.5 82.5t14.5 119v512q0 69 -14.5 119t-41.5 82.5t-64 48.5t-82 16z"
         id="glyph93" />
      <glyph
         glyph-name="uni047D"
         unicode="ѽ"
         horiz-adv-x="106.62"
         d="M1258 1377h25v-131h-26q-86 0 -156 18.5t-127.5 43t-106 43t-91.5 18.5q-48 0 -77.5 -25t-29.5 -80v-18h-131v36q0 111 62.5 164.5t172.5 53.5q58 0 112 -18.5t110.5 -43t120.5 -43t142 -18.5zM792 953l-79 56q33 40 50.5 76.5t17.5 73.5v95h164v-102q0 -38 -24.5 -77.5 t-59.5 -71.5t-69 -50zM553 1097v-208q-52 0 -91.5 -25.5t-61.5 -79t-22 -135.5v-221q0 -62 11 -107.5t31 -75t48 -44t61 -14.5q37 0 67 14t52 43t33.5 73t11.5 104v182h204v-182q0 -109 -27.5 -191.5t-77 -138.5t-116.5 -84t-147 -28q-90 0 -166 28.5t-132 85t-87 140.5 t-31 195v221q0 148 57 247.5t156.5 150t226.5 50.5zM1087 889v208q95 0 175.5 -28.5t139.5 -84.5t92 -140t33 -195v-221q0 -111 -31 -195t-87 -140.5t-132.5 -85t-166.5 -28.5q-79 0 -146 28t-116.5 84t-77 138.5t-27.5 191.5v182h204v-182q0 -60 11.5 -104t33 -73t52 -43 t66.5 -14q34 0 62 14.5t48 44t31 75t11 107.5v221q0 62 -12.5 107.5t-36 74.5t-55.5 43.5t-71 14.5z"
         id="glyph94" />
      <glyph
         glyph-name="uni047E"
         unicode="Ѿ"
         horiz-adv-x="124.15"
         d="M860 1687h-337v126h866l2 -126h-356v-126h-175v126zM815 1456h224v-1009q0 -115 -32.5 -203t-91 -147t-137.5 -88.5t-174 -29.5q-102 0 -189 29.5t-151.5 88.5t-100.5 147t-36 203v1009h276v-1009q0 -65 14.5 -112.5t41.5 -78.5t63.5 -46t81.5 -15q65 0 112 27t73 82.5 t26 142.5v1009zM1505 1456h275v-1009q0 -154 -62.5 -258t-170.5 -157t-247 -53q-93 0 -171.5 29.5t-136.5 88.5t-90.5 147t-32.5 203v1009h224v-1009q0 -65 15 -112.5t42.5 -78.5t65.5 -46t84 -15q62 0 108 27t71.5 82.5t25.5 142.5v1009z"
         id="glyph95" />
      <glyph
         glyph-name="uni047F"
         unicode="ѿ"
         horiz-adv-x="108.25"
         d="M748 1331h-313v126h818l5 -126h-335v-127h-175v127zM712 1082h215v-661q0 -109 -29 -191.5t-82 -138.5t-126 -84t-160 -28q-92 0 -169.5 28t-134 84t-87.5 138.5t-31 191.5v661h266v-661q0 -60 10.5 -104t31 -73t49 -43t65.5 -14q57 0 97.5 25t62.5 77t22 132v661z M1310 1082h265v-661q0 -145 -54.5 -243.5t-151.5 -148.5t-221 -50q-86 0 -157 28t-122.5 84t-79 138.5t-27.5 191.5v661h215v-661q0 -60 11.5 -104t33.5 -73t53.5 -43t72.5 -14q37 0 67.5 14t51.5 43t32 73t11 104v661z"
         id="glyph96" />
      <glyph
         glyph-name="uni0480"
         unicode="Ҁ"
         horiz-adv-x="83.13"
         d="M656 195v-216q-102 0 -189 28.5t-155.5 82.5t-116.5 129.5t-73.5 168t-25.5 199.5v281q0 134 39.5 245t113 193t177.5 126.5t231 44.5q169 0 290 -57.5t185.5 -169.5t65.5 -274h-275q0 96 -28.5 158.5t-87 94t-150.5 31.5q-70 0 -123.5 -29t-90 -82t-54.5 -124t-18 -155 v-283q0 -67 11.5 -126.5t35 -108t57.5 -84t79.5 -54.5t101.5 -19zM833 195v-561h-274v561h274z"
         id="glyph97" />
      <glyph
         glyph-name="uni0481"
         unicode="ҁ"
         horiz-adv-x="71.0"
         d="M584 187v-208q-121 0 -213 42t-154.5 117t-94.5 174.5t-32 212.5v32q0 113 32 212t94 174t154.5 117t212.5 42q129 0 227.5 -51t154.5 -144t56 -219h-249q0 58 -23 104t-65.5 74t-100.5 28q-64 0 -108 -28t-70.5 -76.5t-38.5 -108t-12 -124.5v-32q0 -66 12 -126.5 t38 -108t70.5 -75.5t109.5 -28zM753 187v-556h-265v556h265z"
         id="glyph98" />
      <glyph
         glyph-name="uni0482"
         unicode="҂"
         horiz-adv-x="82.68"
         d="M805 810l-205 -362l289 -172l-71 -126l-291 170l-181 -320h-172l225 398l-289 171l70 126l293 -171l203 362l-290 171l72 128l291 -171l186 328h169l-229 -406l293 -171l-75 -125z"
         id="glyph99" />
      <glyph
         glyph-name="uni0483"
         unicode="҃"
         d="M-194 1314h-543v-126l-171 1l1 236h543l-1 108l171 -1v-218z"
         id="glyph100" />
      <glyph
         glyph-name="uni0484"
         unicode="҄"
         d="M-905 1434h26q80 0 145 18.5t122.5 43t113 43t114.5 18.5q111 0 174.5 -53t63.5 -164v-37h-132v18q0 55 -30 80t-80 25q-44 0 -93 -18.5t-108 -43t-130 -43t-158 -18.5h-28v131z"
         id="glyph101" />
      <glyph
         glyph-name="uni0485"
         unicode="҅"
         d="M-464 1306l-163 194v139h185l-1 -156l59 -110z"
         id="glyph102" />
      <glyph
         glyph-name="uni0486"
         unicode="҆"
         d="M-359 1500l-163 -194l-79 67l58 110l-1 156h185v-139z"
         id="glyph103" />
      <glyph
         glyph-name="uni0488"
         unicode="҈"
         d="M-630 1267h-113q0 83 56.5 135.5t153.5 52.5q98 0 154.5 -52.5t56.5 -135.5h-112q0 40 -22.5 70.5t-76.5 30.5q-53 0 -75 -30.5t-22 -70.5zM-38 990h-114q0 83 56.5 135.5t153.5 52.5q98 0 155 -52.5t57 -135.5h-113q0 40 -22 70.5t-77 30.5q-52 0 -74 -30.5t-22 -70.5z M148 487h-113q0 83 56.5 135.5t153.5 52.5q98 0 154.5 -52.5t56.5 -135.5h-112q0 40 -22 70.5t-77 30.5q-52 0 -74.5 -30.5t-22.5 -70.5zM-49 -32h-113q0 83 56.5 135.5t153.5 52.5q98 0 154.5 -52.5t56.5 -135.5h-112q0 40 -22 70.5t-77 30.5q-52 0 -74.5 -30.5 t-22.5 -70.5zM-625 -316h-113q0 83 56.5 135.5t153.5 52.5q98 0 154.5 -52.5t56.5 -135.5h-112q0 40 -22.5 70.5t-76.5 30.5q-52 0 -74.5 -30.5t-22.5 -70.5zM-1202 990h-114q0 83 57 135.5t154 52.5q98 0 154.5 -52.5t56.5 -135.5h-112q0 40 -22.5 70.5t-76.5 30.5 q-53 0 -75 -30.5t-22 -70.5zM-1379 487h-113q0 83 56.5 135.5t153.5 52.5q98 0 154.5 -52.5t56.5 -135.5h-112q0 40 -22 70.5t-77 30.5q-52 0 -74.5 -30.5t-22.5 -70.5zM-1212 -32h-114q0 83 56.5 135.5t153.5 52.5q98 0 155 -52.5t57 -135.5h-113q0 40 -22 70.5t-77 30.5 q-52 0 -74 -30.5t-22 -70.5z"
         id="glyph104" />
      <glyph
         glyph-name="uni0489"
         unicode="҉"
         d="M-549 -60h137l11 -14l-122 -339h-96zM-471 1126h-136l-12 14l122 338h96zM72 492v139l13 12l333 -124v-98zM-1093 572v-139l-13 -12l-333 124v98zM-72 903l-97 99l2 16l322 153l68 -68zM-950 120l97 -99l-2 -17l-320 -153l-69 69zM-895 958l-98 -98l-17 2l-148 326l65 69 zM-128 62l98 99l17 -2l149 -325l-66 -71z"
         id="glyph105" />
      <glyph
         glyph-name="uni048A"
         unicode="Ҋ"
         horiz-adv-x="102.41"
         d="M1510 187l-2 -183q0 -107 -53 -217t-137 -182l-140 77q27 45 50.5 91t38 99.5t14.5 119.5v195h229zM408 440l615 1016h276v-1456h-276v1016l-615 -1016h-275v1456h275v-1016zM864 1833h192q0 -84 -41 -149t-116.5 -101.5t-178.5 -36.5q-155 0 -246 80t-91 207h192 q0 -53 33 -95t112 -42t111.5 42t32.5 95z"
         id="glyph106" />
      <glyph
         glyph-name="uni048B"
         unicode="ҋ"
         horiz-adv-x="85.34"
         d="M1258 187l-2 -183q0 -107 -53 -217t-137 -182l-140 77q27 45 50.5 91t38 99.5t14.5 119.5v195h229zM386 377l394 705h265v-1082h-265v706l-394 -706h-265v1082h265v-705zM731 1507h192q0 -84 -41 -149t-116.5 -101.5t-178.5 -36.5q-155 0 -246 80t-91 207h192 q0 -53 33 -95t112 -42t111.5 42t32.5 95z"
         id="glyph107" />
      <glyph
         glyph-name="uni048D"
         unicode="ҍ"
         horiz-adv-x="73.72"
         d="M306 777h316q145 0 246 -49.5t154.5 -136.5t53.5 -200t-53.5 -201t-154.5 -139t-246 -51h-486v1625h266v-1418h220q69 0 110.5 25.5t60.5 67t19 88.5q0 46 -19 87.5t-60.5 67.5t-110.5 26h-316v208zM671 1456v-172h-700v172h700z"
         id="glyph108" />
      <glyph
         glyph-name="uni048E"
         unicode="Ҏ"
         horiz-adv-x="83.78"
         d="M803 995l421 -465l-102 -93l-420 464zM699 531h-375v216h375q92 0 149.5 30.5t84.5 84t27 122.5q0 67 -27 125t-84.5 94t-149.5 36h-285v-1239h-275v1456h560q170 0 290 -60.5t184 -167t64 -242.5q0 -141 -63.5 -243t-184 -157t-290.5 -55z"
         id="glyph109" />
      <glyph
         glyph-name="uni048F"
         unicode="ҏ"
         horiz-adv-x="75.02"
         d="M691 442l372 -436l-104 -92l-371 436zM383 874v-1290h-265v1498h245zM1078 552v-21q0 -118 -27.5 -218.5t-80.5 -175t-131.5 -116t-180.5 -41.5q-100 0 -174 38.5t-125 109.5t-81.5 165.5t-45.5 206.5v67q15 119 45.5 216.5t81.5 169t124.5 110.5t172.5 39 q103 0 181.5 -39t132.5 -112t81 -174t27 -225zM813 531v21q0 72 -13 133.5t-40 108t-70 72.5t-104 26t-105 -20t-72 -57t-43.5 -87.5t-20.5 -111.5v-166q7 -55 22.5 -102.5t44 -83t72 -56t104.5 -20.5t104 27t70 74.5t39 109.5t12 132z"
         id="glyph110" />
      <glyph
         glyph-name="uni0490"
         unicode="Ґ"
         horiz-adv-x="73.59"
         d="M1087 1819v-571h-265v571h265zM1076 1456v-217h-665v-1239h-276v1456h941z"
         id="glyph111" />
      <glyph
         glyph-name="uni0491"
         unicode="ґ"
         horiz-adv-x="60.87"
         d="M876 1399v-526h-266v526h266zM842 1082v-209h-461v-873h-264v1082h725z"
         id="glyph112" />
      <glyph
         glyph-name="uni0494"
         unicode="Ҕ"
         horiz-adv-x="82.09"
         d="M1082 1456v-217h-666v-1239h-274v1456h940zM318 623v213h271q136 0 246.5 -37t190.5 -110.5t122 -183t42 -254.5q0 -114 -28.5 -217.5t-91 -184.5t-163.5 -128t-246 -47v198q84 0 136 33.5t80 88t38 119t10 128.5q0 96 -22 167.5t-64.5 119t-105 71.5t-144.5 24h-271z "
         id="glyph113" />
      <glyph
         glyph-name="uni0495"
         unicode="ҕ"
         horiz-adv-x="69.57"
         d="M215 446v214h233q161 0 286 -54.5t196.5 -162t71.5 -267.5q0 -58 -20.5 -126t-66 -134t-116.5 -119t-171 -82l-106 178q72 28 119.5 68.5t71.5 94t23 120.5q1 90 -35 150t-100.5 90t-152.5 30h-233zM842 1082v-209h-461v-873h-264v1082h725z"
         id="glyph114" />
      <glyph
         glyph-name="uni0496"
         unicode="Җ"
         horiz-adv-x="138.75"
         d="M2119 190v-547h-265v547h265zM592 615l-548 841h339l341 -600h257l-37 -241h-352zM725 654l-363 -654h-343l492 826zM1152 1456v-1456h-274v1456h274zM1975 1456l-542 -841h-349l-37 241h254l334 600h340zM1657 0l-356 654l215 172l484 -826h-343z"
         id="glyph115" />
      <glyph
         glyph-name="uni0497"
         unicode="җ"
         horiz-adv-x="117.66"
         d="M1790 190v-547h-265v547h265zM488 422l-440 660h326l241 -417h209l-33 -243h-303zM620 464l-262 -464h-321l375 602zM990 1082v-1082h-264v1082h264zM1671 1082l-441 -660h-303l-33 243h209l241 417h327zM1360 0l-262 464l215 138l374 -602h-327z"
         id="glyph116" />
      <glyph
         glyph-name="uni049A"
         unicode="Қ"
         horiz-adv-x="97.41"
         d="M1433 189v-547h-265v547h265zM417 1456v-1456h-275v1456h275zM1284 1456l-575 -842h-361l-36 242h248l389 600h335zM1001 0l-439 658l185 203l583 -861h-329z"
         id="glyph117" />
      <glyph
         glyph-name="uni049B"
         unicode="қ"
         horiz-adv-x="84.56"
         d="M1245 190v-547h-265v547h265zM401 1082v-1082h-264v1082h264zM1106 1082l-477 -664h-281l-33 242h195l263 422h333zM789 0l-296 464l220 138l427 -602h-351z"
         id="glyph118" />
      <glyph
         glyph-name="uni049C"
         unicode="Ҝ"
         horiz-adv-x="87.03"
         d="M137 1456h275v-1456h-275v1456zM500 1110h162v-733h-162v733zM979 1456h340l-489 -845h-487l-36 241h400zM701 654l211 172l448 -826h-350z"
         id="glyph119" />
      <glyph
         glyph-name="uni049D"
         unicode="ҝ"
         horiz-adv-x="78.85"
         d="M136 1082h264v-1082h-264v1082zM486 857h148v-617h-148v617zM859 1082h333l-392 -664h-453l-33 242h367zM663 464l209 138l342 -602h-339z"
         id="glyph120" />
      <glyph
         glyph-name="uni04A0"
         unicode="Ҡ"
         horiz-adv-x="109.48"
         d="M610 1456v-209h-566v209h566zM795 1456v-1456h-275v1456h275zM1662 1456l-575 -842h-361l-36 242h247l389 600h336zM1379 0l-439 658l184 203l584 -861h-329z"
         id="glyph121" />
      <glyph
         glyph-name="uni04A1"
         unicode="ҡ"
         horiz-adv-x="94.16"
         d="M601 1082v-209h-542v209h542zM722 1082v-1082h-265v1082h265zM1426 1082l-476 -664h-282l-33 242h195l263 422h333zM1109 0l-295 464l220 138l426 -602h-351z"
         id="glyph122" />
      <glyph
         glyph-name="uni04A2"
         unicode="Ң"
         horiz-adv-x="102.67"
         d="M1514 190v-547h-265v547h265zM1105 855v-216h-766v216h766zM414 1456v-1456h-275v1456h275zM1309 1456v-1456h-275v1456h275z"
         id="glyph123" />
      <glyph
         glyph-name="uni04A3"
         unicode="ң"
         horiz-adv-x="84.82"
         d="M1249 190v-547h-265v547h265zM858 638v-207h-555v207h555zM386 1082v-1082h-265v1082h265zM1043 1082v-1082h-266v1082h266z"
         id="glyph124" />
      <glyph
         glyph-name="uni04A4"
         unicode="Ҥ"
         horiz-adv-x="130.96"
         d="M1939 1456v-208h-636l-214 208h850zM1105 855v-216h-766v216h766zM414 1456v-1456h-275v1456h275zM1309 1456v-1456h-275v1456h275z"
         id="glyph125" />
      <glyph
         glyph-name="uni04A5"
         unicode="ҥ"
         horiz-adv-x="94.16"
         d="M1388 1082v-209h-436l2 209h434zM854 638v-207h-556v207h556zM381 1082v-1082h-264v1082h264zM1038 1082v-1082h-265v1082h265z"
         id="glyph126" />
      <glyph
         glyph-name="uni04A6"
         unicode="Ҧ"
         horiz-adv-x="138.29"
         d="M1307 1456v-1456h-275v1239h-616v-1239h-275v1456h1166zM1182 621v213h271q136 0 246.5 -37t190 -110.5t122 -182.5t42.5 -254q0 -114 -28.5 -217.5t-91 -185t-163.5 -128.5t-246 -47v199q84 0 136 33t79.5 87.5t38 119.5t10.5 128q0 96 -22 167.5t-64.5 119.5 t-105.5 71.5t-144 23.5h-271z"
         id="glyph127" />
      <glyph
         glyph-name="uni04A7"
         unicode="ҧ"
         horiz-adv-x="115.06"
         d="M852 452v213h294q168 0 297.5 -54.5t203 -162t73.5 -267.5q1 -58 -20 -126t-66 -133.5t-116.5 -118.5t-171.5 -83l-105 178q72 28 119 68.5t71 94t24 120.5q0 90 -38 150t-107.5 90.5t-163.5 30.5h-294zM841 1082v-209h-530v209h530zM381 1082v-1082h-264v1082h264z M1041 1082v-1082h-266v1082h266z"
         id="glyph128" />
      <glyph
         glyph-name="uni04A8"
         unicode="Ҩ"
         horiz-adv-x="105.2"
         d="M1529 193v-211q-199 0 -362 54t-280.5 153t-180.5 234.5t-63 299.5v205q0 116 30.5 216t86 174.5t133.5 116t174 41.5q101 0 184 -43t143 -121.5t92 -186t32 -235.5v-189q0 -153 -52.5 -284.5t-150 -229.5t-232.5 -153t-300 -55q-154 0 -280 52t-216.5 145.5t-139 218.5 t-48.5 269v202q0 130 36.5 241t104 194t161.5 129.5t208 46.5v-226q-52 0 -92.5 -29t-69 -81t-43.5 -121.5t-15 -151.5v-204q0 -99 27 -183t77.5 -146t123.5 -96.5t166 -34.5q108 0 193 37.5t144 105t90.5 158t31.5 196.5v216q0 89 -11.5 152t-34 103.5t-55 59.5t-74.5 19 q-39 0 -69 -20t-51 -60t-32 -100.5t-11 -140.5v-209q0 -114 41 -210.5t121 -168t196 -110.5t267 -39z"
         id="glyph129" />
      <glyph
         glyph-name="uni04A9"
         unicode="ҩ"
         horiz-adv-x="84.62"
         d="M1248 139v-161q-176 0 -309 42.5t-222 119.5t-134 180t-45 223v140q0 90 24 166t68 133t106 88.5t139 31.5q78 0 142.5 -34.5t110.5 -97t70.5 -145.5t24.5 -180v-136q0 -113 -41.5 -209.5t-118.5 -168.5t-183.5 -112t-236.5 -40q-123 0 -225 42.5t-175 119t-112.5 178.5 t-39.5 222v86q0 102 29.5 188.5t84 150.5t130.5 100t168 36v-215q-31 -3 -55.5 -22.5t-42.5 -53.5t-27.5 -80.5t-9.5 -101.5v-88q0 -74 18.5 -137t54.5 -110t87 -72.5t115 -25.5q73 0 131 24.5t99 68t62.5 103t21.5 128.5v138q0 48 -7 89.5t-21 73t-34 49t-45 17.5 t-45 -15.5t-34 -44.5t-21 -67.5t-7 -83.5v-144q0 -84 33.5 -156t98 -125t158.5 -82.5t215 -29.5z"
         id="glyph130" />
      <glyph
         glyph-name="uni04B2"
         unicode="Ҳ"
         horiz-adv-x="87.67"
         d="M1332 190v-547h-265v547h265zM358 1456l291 -519l292 519h316l-432 -722l443 -734h-319l-300 529l-299 -529h-320l443 734l-432 722h317z"
         id="glyph131" />
      <glyph
         glyph-name="uni04B3"
         unicode="ҳ"
         horiz-adv-x="71.32"
         d="M1075 190v-547h-265v547h265zM326 1082l193 -344l196 344h287l-318 -530l331 -552h-287l-207 361l-208 -361h-287l330 552l-316 530h286z"
         id="glyph132" />
      <glyph
         glyph-name="uni04B4"
         unicode="Ҵ"
         horiz-adv-x="118.76"
         d="M996 1456v-209h-959v209h959zM1735 217l-19 -568h-255v351h-125v217h399zM379 0v1456h275v-1240h617v1240h275v-1456h-1167z"
         id="glyph133" />
      <glyph
         glyph-name="uni04B5"
         unicode="ҵ"
         horiz-adv-x="90.79"
         d="M749 1082v-208h-707v208h707zM275 0v1082h265v-874h393v874h266v-1082h-924zM1353 207l-19 -528h-245v321h-126v207h390z"
         id="glyph134" />
      <glyph
         glyph-name="uni04B6"
         unicode="Ҷ"
         horiz-adv-x="100.26"
         d="M1477 190v-547h-265v547h265zM142 1456h276v-449q0 -100 30.5 -156t92.5 -79t154 -23q40 0 88.5 4t99 10.5t97 16.5t81.5 22v-217q-35 -11 -80.5 -21t-95 -17t-99 -10.5t-91.5 -3.5q-169 0 -293.5 49t-192 153.5t-67.5 271.5v449zM1001 1456h276v-1456h-276v1456z"
         id="glyph135" />
      <glyph
         glyph-name="uni04B7"
         unicode="ҷ"
         horiz-adv-x="82.61"
         d="M1216 190v-547h-265v547h265zM1009 1082v-1082h-265v1082h265zM889 611v-208q-38 -18 -91.5 -33.5t-112 -24.5t-113.5 -9q-149 0 -256.5 44t-165.5 135.5t-58 234.5v333h264v-333q0 -77 23 -122t71 -64t122 -19q57 0 109 8.5t103.5 23t104.5 34.5z"
         id="glyph136" />
      <glyph
         glyph-name="uni04B8"
         unicode="Ҹ"
         horiz-adv-x="90.27"
         d="M777 1048v-745h-160v745h160zM120 1456h275v-449q0 -100 30.5 -156t92.5 -79t154 -23q40 0 89 4t99 10.5t96.5 16.5t81.5 22v-217q-34 -11 -79.5 -21t-95.5 -17t-99 -10.5t-92 -3.5q-169 0 -293 49t-191.5 153.5t-67.5 271.5v449zM979 1456h275v-1456h-275v1456z"
         id="glyph137" />
      <glyph
         glyph-name="uni04B9"
         unicode="ҹ"
         horiz-adv-x="74.24"
         d="M656 819v-626h-160v626h160zM1028 1082v-1082h-265v1082h265zM908 611v-208q-38 -18 -91 -33.5t-112 -24.5t-114 -9q-149 0 -256.5 44t-165.5 135.5t-58 234.5v333h265v-333q0 -77 22.5 -122t70.5 -64t122 -19q57 0 109.5 8.5t103.5 23t104 34.5z"
         id="glyph138" />
      <glyph
         glyph-name="uni04BA"
         unicode="Һ"
         horiz-adv-x="92.28"
         d="M1272 0h-276v449q0 100 -30.5 156t-92 79t-154.5 23q-40 0 -88.5 -4t-99 -10.5t-97 -16.5t-81.5 -22v217q34 11 79.5 21t95.5 17t99.5 10.5t91.5 3.5q170 0 293.5 -49t191.5 -153.5t68 -271.5v-449zM413 0h-276v1456h276v-1456z"
         id="glyph139" />
      <glyph
         glyph-name="uni04BC"
         unicode="Ҽ"
         horiz-adv-x="100.91"
         d="M-12 1082h188q0 -71 24 -123t72.5 -80t121.5 -28v-190q-130 0 -221 51.5t-138 146t-47 223.5zM964 -23q-162 0 -284.5 46.5t-205 130.5t-124 199t-41.5 252v257q0 135 44.5 247.5t124.5 195t186.5 127t230.5 43.5q138 0 243 -47.5t176 -136.5t106.5 -214.5t35.5 -280.5 v-147h-951v211h676v32q0 73 -15 137t-49 112t-89 75t-133 27q-77 0 -135 -30t-97 -82.5t-59.5 -121t-20.5 -147.5v-257q0 -82 20.5 -154t65 -126.5t117.5 -85.5t178 -31q127 0 218.5 23.5t146.5 46.5l48 -216q-22 -12 -76.5 -32.5t-138.5 -36.5t-198 -16z"
         id="glyph140" />
      <glyph
         glyph-name="uni04BD"
         unicode="ҽ"
         horiz-adv-x="79.3"
         d="M-61 861h173q0 -100 53.5 -159.5t162.5 -59.5v-171q-124 0 -211 47t-132.5 135t-45.5 208zM747 -20q-123 0 -221 40t-166.5 111.5t-104.5 167t-36 205.5v40q0 125 35.5 227.5t101.5 176.5t157.5 114t203.5 40q116 0 203.5 -38.5t147 -108.5t89.5 -167.5t30 -215.5v-111 h-849v182h588v20q-1 47 -14 88.5t-38 73.5t-64.5 50.5t-93.5 18.5q-59 0 -103 -25.5t-72.5 -72t-43 -110.5t-14.5 -142v-40q0 -68 19 -126t55.5 -100.5t88.5 -66t118 -23.5q83 0 150.5 32.5t116.5 96.5l134 -138q-35 -50 -92.5 -96t-138.5 -74.5t-187 -28.5z"
         id="glyph141" />
      <glyph
         glyph-name="uni04C3"
         unicode="Ӄ"
         horiz-adv-x="85.73"
         d="M412 1456v-1456h-275v1456h275zM1250 1456l-607 -843h-300l-36 246h215l389 597h339zM398 611v221h279q135 0 246 -36.5t190.5 -110t122.5 -183.5t43 -256q0 -110 -28.5 -214t-91.5 -187t-165.5 -131.5t-250.5 -48.5l-1 206q85 0 136.5 34t79 88.5t37 118t9.5 122.5 q0 95 -21.5 166t-63.5 118t-102.5 70t-139.5 23h-279z"
         id="glyph142" />
      <glyph
         glyph-name="uni04C4"
         unicode="ӄ"
         horiz-adv-x="75.02"
         d="M400 1082v-1082h-264v1082h264zM1106 1082l-495 -664h-264l-33 242h177l281 422h334zM228 419v212h297q167 0 296 -50.5t202.5 -155t73.5 -264.5q1 -57 -20 -123.5t-66 -130.5t-116 -116t-171 -81l-106 178q73 27 120 66t71 90.5t24 116.5q1 90 -37.5 147t-107.5 84 t-163 27h-297z"
         id="glyph143" />
      <glyph
         glyph-name="uni04C5"
         unicode="Ӆ"
         horiz-adv-x="102.67"
         d="M1514 187l-2 -183q0 -107 -53 -217t-137 -182l-140 77q27 45 50.5 91t38 99.5t14.5 119.5v195h229zM1102 1456v-217h-711v217h711zM1305 1456v-1456h-276v1456h276zM347 1456h274l-36 -727q-8 -161 -29 -282t-57 -206.5t-90 -138.5t-127.5 -77.5t-170.5 -24.5h-69v216 l39 4q51 4 88.5 25t64.5 63.5t44.5 109.5t28 163t15.5 225z"
         id="glyph144" />
      <glyph
         glyph-name="uni04C6"
         unicode="ӆ"
         horiz-adv-x="85.4"
         d="M1259 187l-2 -183q0 -107 -53 -217t-137 -182l-140 77q27 45 50.5 91t38 99.5t14.5 119.5v195h229zM846 1082v-209h-530v209h530zM1045 1082v-1082h-264v1082h264zM250 1082h261l-29 -540q-7 -119 -25 -208.5t-48 -153t-73 -103.5t-99.5 -58.5t-126.5 -18.5h-81l-3 213 l38 3q35 3 60.5 19t44 46t31 77.5t20 112t10.5 149.5z"
         id="glyph145" />
      <glyph
         glyph-name="uni04C7"
         unicode="Ӈ"
         horiz-adv-x="94.1"
         d="M142 1456h275v-630h615v630h276v-1500q0 -127 -45.5 -214.5t-129 -133t-200.5 -45.5q-37 0 -70 3.5t-70 13.5l14 212q21 -6 47 -9t52 -3q41 0 69 20.5t42.5 59.5t14.5 96v654h-615v-610h-275v1456z"
         id="glyph146" />
      <glyph
         glyph-name="uni04C8"
         unicode="ӈ"
         horiz-adv-x="75.02"
         d="M117 1082h264v-444h392v444h265v-1132q0 -125 -44 -211.5t-126.5 -131t-197.5 -44.5q-37 0 -69 3.5t-68 13.5l15 204q20 -6 47 -9.5t51 -3.5q41 0 69 21t43 61t15 97v481h-392v-431h-264v1082z"
         id="glyph147" />
      <glyph
         glyph-name="uni04C9"
         unicode="Ӊ"
         horiz-adv-x="103.05"
         d="M1105 855v-216h-766v216h766zM414 1456v-1456h-275v1456h275zM1309 1456v-1456h-275v1456h275zM1521 187l-2 -183q0 -107 -53 -217t-137 -182l-140 77q27 45 50.5 91t38 99.5t14.5 119.5v195h229z"
         id="glyph148" />
      <glyph
         glyph-name="uni04CA"
         unicode="ӊ"
         horiz-adv-x="85.21"
         d="M1256 187l-2 -183q0 -107 -53 -217t-137 -182l-140 77q27 45 50.5 91t38 99.5t14.5 119.5v195h229zM858 638v-207h-555v207h555zM386 1082v-1082h-265v1082h265zM1043 1082v-1082h-266v1082h266z"
         id="glyph149" />
      <glyph
         glyph-name="uni04CD"
         unicode="Ӎ"
         horiz-adv-x="124.92"
         d="M1858 187l-2 -183q0 -107 -53 -217t-137 -182l-140 77q27 45 50.5 91t38 99.5t14.5 119.5v195h229zM259 1456h238l398 -1096l397 1096h239l-541 -1456h-191zM139 1456h233l42 -1007v-449h-275v1456zM1417 1456h234v-1456h-275v449z"
         id="glyph150" />
      <glyph
         glyph-name="uni04CE"
         unicode="ӎ"
         horiz-adv-x="108.64"
         d="M1617 187l-2 -183q0 -107 -53 -217t-137 -182l-140 77q27 45 50.5 91t38 99.5t14.5 119.5v195h229zM768 312l304 770h221l-435 -1082h-179l-434 1082h222zM402 1082v-1082h-265v1082h265zM1139 0v1082h265v-1082h-265z"
         id="glyph151" />
      <glyph
         glyph-name="uni04D8"
         unicode="Ә"
         horiz-adv-x="92.35"
         d="M627 1477q171 0 301.5 -50.5t217.5 -141.5t131.5 -216t44.5 -276v-134q0 -150 -47.5 -275t-132 -216t-197 -140.5t-242.5 -48.5q-152 0 -268.5 47.5t-195 136.5t-118.5 214t-40 280v152h1044v-216h-769v-32q0 -73 18.5 -137t59.5 -111.5t107.5 -74.5t161.5 -27 q84 0 148.5 34.5t108 96.5t65.5 143t22 174v134q0 94 -22.5 175.5t-72 143.5t-129.5 97t-196 35q-133 0 -229.5 -23.5t-155.5 -45.5l-48 215q23 13 80 33.5t146 37t207 16.5z"
         id="glyph152" />
      <glyph
         glyph-name="uni04E0"
         unicode="Ӡ"
         horiz-adv-x="76.9"
         d="M144 1456h938l1 -177l-477 -535h-190v121l350 374h-622v217zM416 861l171 12q167 0 284 -54t179 -158t62 -254q0 -102 -38.5 -181.5t-109.5 -134.5t-167 -83.5t-210 -28.5q-92 0 -181.5 24.5t-162 76t-115.5 132t-43 192.5h276q0 -58 28 -105.5t78.5 -75.5t119.5 -28 q79 0 135 28t86 77t30 109q0 100 -33 161.5t-97.5 90t-157.5 28.5h-134v172z"
         id="glyph153" />
      <glyph
         glyph-name="uni04E1"
         unicode="ӡ"
         horiz-adv-x="77.03"
         d="M139 1082h935l1 -169l-473 -545h-187v120l347 385h-623v209zM415 484l167 11q166 0 283.5 -53.5t179.5 -157t62 -252.5q0 -102 -38.5 -181t-108.5 -134t-165 -83.5t-209 -28.5q-92 0 -180.5 24.5t-160.5 76t-114.5 132t-42.5 191.5h265q0 -59 29 -108t81.5 -78.5 t122.5 -29.5q81 0 138 29t87.5 79t30.5 113q0 101 -33.5 163t-98.5 90.5t-161 28.5h-134v168z"
         id="glyph154" />
      <glyph
         glyph-name="uni04FA"
         unicode="Ӻ"
         horiz-adv-x="79.37"
         d="M475 228h265v-278q0 -125 -44 -211.5t-126.5 -131t-196.5 -44.5q-38 0 -70 3.5t-68 13.5l14 208q21 -6 48 -9t52 -3q40 0 68 19.5t43 58.5t15 96v278zM724 854v-172h-686v172h686zM1164 1456v-217h-666v-1239h-274v1456h940z"
         id="glyph155" />
      <glyph
         glyph-name="uni04FB"
         unicode="ӻ"
         horiz-adv-x="60.81"
         d="M416 223h265v-278q0 -125 -44 -211.5t-126.5 -131t-196.5 -44.5q-38 0 -70 3.5t-68 13.5l14 208q21 -6 48 -9t52 -3q40 0 68 19.5t43 58.5t15 96v278zM712 676v-172h-686v172h686zM924 1082v-209h-461v-873h-264v1082h725z"
         id="glyph156" />
      <glyph
         glyph-name="uni04FC"
         unicode="Ӽ"
         horiz-adv-x="91.5"
         d="M1125 228h265v-278q0 -125 -44 -211.5t-126.5 -131t-196.5 -44.5q-38 0 -70 3.5t-68 13.5l14 208q21 -6 48 -9t52 -3q40 0 68 19.5t43 58.5t15 96v278zM358 1456l291 -519l292 519h316l-432 -722l443 -734h-319l-300 529l-299 -529h-320l443 734l-432 722h317z"
         id="glyph157" />
      <glyph
         glyph-name="uni04FD"
         unicode="ӽ"
         horiz-adv-x="75.08"
         d="M869 228h265v-278q0 -125 -44 -211.5t-126.5 -131t-196.5 -44.5q-38 0 -70 3.5t-68 13.5l14 208q21 -6 48 -9t52 -3q40 0 68 19.5t43 58.5t15 96v278zM326 1082l193 -344l196 344h287l-318 -530l331 -552h-287l-207 361l-208 -361h-287l330 552l-316 530h286z"
         id="glyph158" />
      <glyph
         glyph-name="uni0500"
         unicode="Ԁ"
         horiz-adv-x="82.68"
         d="M616 937h353v-217h-353q-90 0 -149 -35t-87 -91.5t-28 -121.5q0 -66 28 -124.5t87 -95t149 -36.5h262v1240h276v-1456h-538q-168 0 -289.5 61t-186 167t-64.5 242q0 102 36.5 187t107 148t170.5 97.5t226 34.5z"
         id="glyph159" />
      <glyph
         glyph-name="uni0502"
         unicode="Ԃ"
         horiz-adv-x="118.05"
         d="M650 937h353v-217h-353q-90 0 -148.5 -35t-87 -91.5t-28.5 -121.5q0 -66 28.5 -124.5t87 -95t148.5 -36.5h263v1240h275v-1456h-538q-168 0 -289 61t-186 167t-65 242q0 102 37 187t107 148t170 97.5t226 34.5zM1262 0h-138v216l138 1q73 1 116 41t62.5 101t21.5 124 q1 39 -3 89.5t-11.5 105t-19 104.5t-26.5 89h268q18 -51 33.5 -121.5t25.5 -141.5t8 -125q-2 -142 -57.5 -251t-160 -170.5t-257.5 -61.5z"
         id="glyph160" />
      <glyph
         glyph-name="uni0503"
         unicode="ԃ"
         horiz-adv-x="113.63"
         d="M93 510v21q0 125 27.5 229.5t81 181t132.5 118.5t182 42q74 0 133 -26t104 -74t78 -115t54 -150t32 -178v-57q-13 -114 -43 -209.5t-78.5 -166t-118.5 -109t-163 -38.5q-101 0 -179.5 39t-132.5 110.5t-81.5 168.5t-27.5 213zM358 531v-21q0 -69 12 -127.5t38 -101.5 t68.5 -67t103.5 -24q78 0 130 34t81.5 93t37.5 135v156q-4 61 -22 113t-48 90t-74 59.5t-103 21.5q-61 0 -103.5 -28t-69 -78t-39 -115.5t-12.5 -139.5zM772 367v1193h265v-1193q-1 -52 15 -92t46 -62.5t71 -22.5q54 1 96 24.5t71 67.5t44.5 106.5t16.5 140.5 q2 100 -14.5 201.5t-46.5 201.5h259q27 -97 48 -198.5t19 -204.5q-2 -139 -42 -242.5t-108.5 -171.5t-156.5 -102t-186 -34q-119 -2 -206 37.5t-135.5 126t-55.5 224.5z"
         id="glyph161" />
      <glyph
         glyph-name="uni0504"
         unicode="Ԅ"
         horiz-adv-x="104.81"
         d="M446 607h-232v219h178q99 0 159.5 24.5t88 73t27.5 120.5q0 44 -14 79.5t-45 61t-80 39t-119 13.5h-346v219h346q130 0 229 -26.5t166.5 -79t102.5 -129.5t35 -179q0 -56 -16.5 -104.5t-48.5 -90t-79 -74t-109 -57t-139 -40.5q-3 0 -6 -12.5t-6.5 -25t-6.5 -13.5 q-40 -9 -52.5 -11t-32.5 -7zM659 316v2v64q0 67 -25.5 117.5t-73.5 79t-114 28.5l18 124q135 0 225.5 -26t144 -72.5t77 -109.5t23.5 -139v-68q0 -34 11 -60.5t32.5 -42.5t50.5 -16q50 1 88.5 24.5t65 67t41 104.5t15.5 136q2 100 -14.5 201.5t-46.5 201.5h269 q26 -97 47.5 -198.5t19.5 -204.5q-2 -139 -42.5 -242t-109.5 -171.5t-158.5 -102.5t-188.5 -34q-106 -2 -184 32t-121.5 109t-49.5 196z"
         id="glyph162" />
      <glyph
         glyph-name="uni0505"
         unicode="ԅ"
         horiz-adv-x="85.53"
         d="M405 406h-272l-2 199h185q62 0 100.5 15.5t56.5 44t18 66.5q0 41 -18 73t-57.5 51t-101.5 19h-262l-6 208h268q142 0 240.5 -38t150 -110.5t51.5 -173.5q0 -51 -17 -91.5t-50.5 -72.5t-82.5 -56t-113 -41q-3 -2 -5.5 -20t-4.5 -36t-5 -20q-34 -8 -42 -10t-31 -7zM779 246 v1q-1 -41 15.5 -68.5t60.5 -27.5q40 1 71 19.5t52 53.5t33 84t13 111q2 77 -14 159.5t-47 159.5h258q26 -77 48 -158t20 -161q-2 -112 -36.5 -196t-93.5 -139.5t-134 -83t-158 -27.5q-85 -1 -149.5 12t-108 42t-67 75.5t-28.5 111.5v75q0 38 -15.5 63.5t-45 39.5t-73.5 14 l38 143q139 0 217.5 -32t111 -88t32.5 -128v-55z"
         id="glyph163" />
      <glyph
         glyph-name="uni0506"
         unicode="Ԇ"
         horiz-adv-x="76.58"
         d="M437 594h-296l-1 208h226q92 0 150 25.5t86 74.5t28 118q0 68 -27.5 119t-84 80t-144.5 29h-299l-5 208h304q163 0 279.5 -50t178.5 -144.5t62 -231.5q0 -57 -15 -105t-43.5 -88.5t-71.5 -73.5t-99 -57.5t-125 -42.5q-3 -1 -6.5 -12t-6.5 -21.5t-6 -11.5 q-26 -6 -35.5 -11t-17.5 -8t-31 -5zM397 594l55 136q172 0 270 -48t138.5 -132t40.5 -192v-113q0 -32 6 -75t21.5 -83t44.5 -65v-22h-273q-30 26 -43.5 76t-17 99t-3.5 72v109q0 74 -28 127.5t-81 82t-130 28.5zM1117 239l-1 -183q0 -107 -53 -217t-137 -182l-140 77 q26 45 50 91t38.5 99.5t14.5 119.5v195h228z"
         id="glyph164" />
      <glyph
         glyph-name="uni0507"
         unicode="ԇ"
         horiz-adv-x="72.88"
         d="M483 402h-313l-1 185h245q65 0 108 17t64 48t21 73t-21 76t-64 54.5t-108 20.5h-296l-6 206h302q107 0 191.5 -23.5t144.5 -67.5t91.5 -107t31.5 -142q0 -54 -19.5 -99t-58 -81.5t-94.5 -63t-130 -43.5q-4 -1 -8.5 -15.5t-8.5 -15.5q-22 -4 -28 -9.5t-12.5 -9t-30.5 -3.5 zM427 402l67 129q149 0 234 -37.5t120.5 -103t35.5 -149.5v-80q0 -14 3 -43.5t12 -58.5t25 -44v-15h-273q-16 15 -22.5 48.5t-8 67t-1.5 46.5v78q0 53 -21.5 89t-64.5 54.5t-106 18.5zM1081 225l-1 -183q0 -106 -53 -216.5t-138 -181.5l-139 76q26 45 49.5 91t38.5 99.5 t15 120.5v194h228z"
         id="glyph165" />
      <glyph
         glyph-name="uni0508"
         unicode="Ԉ"
         horiz-adv-x="128.36"
         d="M370 1456h274l-35 -727q-8 -161 -29 -282t-57.5 -206.5t-90 -138.5t-127 -77.5t-170.5 -24.5h-70v216l40 4q51 4 88 25t64 63.5t44.5 109.5t28 163t15.5 225zM1093 1456v-219h-634v219h634zM1022 370v1086h275v-1086q0 -38 8.5 -70t25.5 -55t40.5 -35.5t52.5 -12.5 q53 0 93 23.5t68 67t43 104.5t16 137q2 100 -14.5 201.5t-46.5 201.5h270q26 -97 47.5 -198.5t19.5 -204.5q-2 -139 -42.5 -242.5t-109 -171.5t-157 -102t-187.5 -34q-121 0 -211.5 39.5t-140.5 125.5t-50 226z"
         id="glyph166" />
      <glyph
         glyph-name="uni0509"
         unicode="ԉ"
         horiz-adv-x="111.56"
         d="M286 1082h260l-29 -540q-6 -119 -24 -208.5t-48.5 -153t-73 -103.5t-99 -58.5t-126.5 -18.5h-81l-3 213l38 3q35 3 60.5 19t43.5 46t30.5 77.5t20.5 112t11 149.5zM860 1082v-212h-490v212h490zM780 367v715h265v-715q0 -39 9.5 -72t28.5 -56.5t45.5 -36t59.5 -12.5 q43 0 76 20.5t56 59.5t35.5 93.5t13.5 122.5q2 95 -14.5 191t-45.5 190l258 1q26 -93 47.5 -189t19.5 -193q-2 -128 -38.5 -223t-98 -158t-141.5 -94.5t-168 -31.5q-92 0 -167 22t-129 68.5t-83 120t-29 177.5z"
         id="glyph167" />
      <glyph
         glyph-name="uni050A"
         unicode="Ԋ"
         horiz-adv-x="132.06"
         d="M339 826h757v-217h-757v217zM139 1456h275v-1456h-275v1456zM1021 1456h275v-1086q0 -51 15 -90t43.5 -61t68.5 -22q52 1 92.5 24t68 66.5t43 104.5t17.5 137q2 100 -15 201.5t-47 201.5h269q27 -97 48 -198.5t19 -204.5q-1 -139 -41.5 -242.5t-109.5 -171.5t-157.5 -102 t-186.5 -34q-121 -2 -208.5 37.5t-137 126.5t-56.5 227v1086z"
         id="glyph168" />
      <glyph
         glyph-name="uni050B"
         unicode="ԋ"
         horiz-adv-x="109.8"
         d="M821 646v-209h-528v209h528zM369 1082v-1082h-265v1082h265zM770 367v715h266v-715q-1 -39 8.5 -72t28.5 -56.5t45.5 -36t60.5 -12.5q42 1 75.5 21.5t56.5 59t35.5 93t13.5 122.5q2 95 -14.5 191t-45.5 190l258 1q26 -93 47.5 -189t19.5 -193q-2 -128 -38 -223t-98 -158 t-142 -94.5t-168 -31.5q-93 -1 -165.5 20.5t-125 68t-82.5 121t-36 178.5z"
         id="glyph169" />
      <glyph
         glyph-name="uni050C"
         unicode="Ԍ"
         horiz-adv-x="83.85"
         d="M700 -21q-138 0 -251.5 46.5t-196 130t-127 196t-44.5 245.5v262q0 133 44.5 245.5t127 196t196 130t251.5 46.5q116 0 203.5 -22.5t153.5 -65.5l-60 -199q-65 33 -137.5 50.5t-159.5 17.5q-80 0 -144 -31t-108.5 -85.5t-67.5 -127t-23 -153.5v-264q0 -82 23 -155 t67.5 -128t108.5 -86t144 -31q80 1 135 30.5t84 83t31 126.5q2 86 -12.5 175t-37.5 174h268q20 -85 39.5 -172.5t17.5 -176.5q-2 -155 -75.5 -256.5t-192 -151.5t-257.5 -50z"
         id="glyph170" />
      <glyph
         glyph-name="uni050D"
         unicode="ԍ"
         horiz-adv-x="69.96"
         d="M608 190q54 1 85 17t44.5 45.5t14.5 69.5q0 52 -4.5 108t-15.5 107h258q11 -52 19.5 -107t7.5 -108q-2 -116 -56 -192t-145.5 -113.5t-207.5 -37.5q-128 0 -226.5 43.5t-166.5 119t-102.5 173t-34.5 205.5v42q0 108 33.5 205.5t98.5 172.5t160 118.5t217 43.5 q96 0 167 -17.5t115 -48.5l-45 -202q-46 27 -106.5 42t-130.5 15q-65 0 -111 -29t-75.5 -76.5t-43.5 -106t-14 -117.5v-42q0 -59 15 -117.5t46.5 -106.5t82 -77t121.5 -29z"
         id="glyph171" />
      <glyph
         glyph-name="uni050E"
         unicode="Ԏ"
         horiz-adv-x="93.84"
         d="M1184 1456v-219h-1152v219h1152zM473 370v1086h275v-1086q0 -38 8.5 -69.5t25 -55t40.5 -36t53 -12.5q53 1 93 24t68 66.5t43 104.5t17 137q2 100 -15 201.5t-46 201.5h268q27 -97 48.5 -198.5t18.5 -204.5q-2 -139 -42 -242.5t-108.5 -171.5t-157 -102t-187.5 -34 q-120 -2 -208 37.5t-137.5 126.5t-56.5 227z"
         id="glyph172" />
      <glyph
         glyph-name="uni050F"
         unicode="ԏ"
         horiz-adv-x="84.82"
         d="M974 1082v-209h-907v209h907zM377 367v715h265v-715q0 -52 17 -92t49.5 -62.5t77.5 -22.5q43 1 76.5 17t56.5 46.5t35.5 74t13.5 98.5q2 73 -14.5 150.5t-45.5 149.5h257q26 -72 48 -148t20 -152q-2 -113 -38.5 -197t-98.5 -139.5t-142 -83t-168 -27.5q-92 -1 -165 20.5 t-125.5 68t-82.5 121t-36 178.5z"
         id="glyph173" />
      <glyph
         glyph-name="uni0510"
         unicode="Ԑ"
         horiz-adv-x="87.48"
         d="M657 785h233v-148h-196q-74 0 -131 -13t-95 -40.5t-58 -70.5t-20 -104q0 -45 21.5 -84t62 -68t100 -45.5t136.5 -16.5q85 0 150 28t101.5 75.5t36.5 105.5h275q0 -112 -48.5 -192.5t-130 -132t-181.5 -76t-203 -24.5q-130 0 -239 28.5t-188.5 83.5t-124 134.5 t-44.5 181.5q0 91 36.5 161.5t106 118.5t170.5 73t230 25zM890 698h-233q-117 0 -212.5 28.5t-164.5 78.5t-106.5 116t-37.5 141q0 102 41 179t116.5 130t181 79.5t235.5 26.5q147 0 270.5 -50t198 -142t74.5 -220h-275q0 60 -36 103.5t-97 67.5t-135 24q-103 0 -169 -27.5 t-97.5 -73.5t-31.5 -100q0 -48 16 -86.5t50.5 -66.5t87.5 -42.5t128 -14.5h196v-151z"
         id="glyph174" />
      <glyph
         glyph-name="uni0512"
         unicode="Ԓ"
         horiz-adv-x="106.04"
         d="M1301 228h265v-278q0 -125 -44 -211.5t-126.5 -131t-196.5 -44.5q-38 0 -70 3.5t-68 13.5l14 208q21 -6 48 -9t52 -3q40 0 68 19.5t43 58.5t15 96v278zM1102 1456v-217h-711v217h711zM1305 1456v-1456h-276v1456h276zM347 1456h274l-36 -727q-8 -161 -29 -282t-57 -206.5 t-90 -138.5t-127.5 -77.5t-170.5 -24.5h-69v216l39 4q51 4 88.5 25t64.5 63.5t44.5 109.5t28 163t15.5 225z"
         id="glyph175" />
      <glyph
         glyph-name="uni0513"
         unicode="ԓ"
         horiz-adv-x="88.84"
         d="M1045 228h265v-278q0 -125 -44 -211.5t-126.5 -131t-196.5 -44.5q-38 0 -70 3.5t-68 13.5l14 208q21 -6 48 -9t52 -3q40 0 68 19.5t43 58.5t15 96v278zM846 1082v-209h-530v209h530zM1045 1082v-1082h-264v1082h264zM250 1082h261l-29 -540q-7 -119 -25 -208.5t-48 -153 t-73 -103.5t-99.5 -58.5t-126.5 -18.5h-81l-3 213l38 3q35 3 60.5 19t44 46t31 77.5t20 112t10.5 149.5z"
         id="glyph176" />
      <glyph
         glyph-name="uni0401"
         unicode="Ё"
         horiz-adv-x="74.95"
         d="M263 1684q0 51 37 85.5t94 34.5q58 0 94.5 -34.5t36.5 -85.5q0 -50 -36.5 -84.5t-94.5 -34.5q-57 0 -94 34.5t-37 84.5zM740 1683q0 51 36.5 85.5t94.5 34.5q57 0 94 -34.5t37 -85.5q0 -50 -37 -84.5t-94 -34.5q-58 0 -94.5 34.5t-36.5 84.5zM1104 216v-216h-774v216h774 zM414 1456v-1456h-275v1456h275zM1003 855v-211h-673v211h673zM1101 1456v-217h-771v217h771z"
         id="glyph177" />
      <glyph
         glyph-name="uni0403"
         unicode="Ѓ"
         horiz-adv-x="74.05"
         d="M1082 1456v-217h-666v-1239h-274v1456h940zM488 1548l196 304h292l-273 -304h-215z"
         id="glyph178" />
      <glyph
         glyph-name="uni0405"
         unicode="Ѕ"
         horiz-adv-x="81.12"
         d="M901 378q0 42 -12.5 75.5t-45 61t-91 54t-150.5 55.5q-102 32 -190 72t-154.5 93t-103.5 122.5t-37 161.5q0 90 38.5 164t109.5 127.5t167.5 82.5t213.5 29q162 0 280.5 -59t183.5 -160t65 -227h-274q0 68 -28.5 120t-86 82t-144.5 30q-84 0 -139.5 -25t-83 -68 t-27.5 -96q0 -40 19 -71.5t57 -59t94.5 -51t131.5 -46.5q120 -36 210.5 -80t151 -100t91 -126t30.5 -159q0 -94 -37 -168t-106 -126t-165.5 -79t-215.5 -27q-106 0 -209.5 28.5t-187.5 86t-134 146t-50 207.5h276q0 -69 22.5 -117.5t64 -79t97.5 -44.5t121 -14 q84 0 138.5 23.5t82 65.5t27.5 96z"
         id="glyph179" />
      <glyph
         glyph-name="uni0406"
         unicode="І"
         horiz-adv-x="38.22"
         d="M432 1456v-1456h-275v1456h275z"
         id="glyph180" />
      <glyph
         glyph-name="uni0407"
         unicode="Ї"
         horiz-adv-x="38.22"
         d="M-75 1684q0 51 37 85.5t94 34.5q58 0 94.5 -34.5t36.5 -85.5q0 -50 -36.5 -84.5t-94.5 -34.5q-57 0 -94 34.5t-37 84.5zM402 1683q0 51 36.5 85.5t94.5 34.5q57 0 94 -34.5t37 -85.5q0 -50 -37 -84.5t-94 -34.5q-58 0 -94.5 34.5t-36.5 84.5zM432 1456v-1456h-275v1456 h275z"
         id="glyph181" />
      <glyph
         glyph-name="uni0408"
         unicode="Ј"
         horiz-adv-x="74.05"
         d="M733 442v1014h275v-1014q0 -145 -63 -248.5t-172 -158.5t-246 -55q-141 0 -250 47.5t-170.5 145.5t-61.5 249h276q0 -82 25 -132t71.5 -72t109.5 -22q61 0 107.5 28.5t72.5 83.5t26 134z"
         id="glyph182" />
      <glyph
         glyph-name="uni041A"
         unicode="К"
         horiz-adv-x="85.73"
         d="M417 1456v-1456h-275v1456h275zM1284 1456l-575 -842h-361l-36 242h248l389 600h335zM1001 0l-439 658l185 203l583 -861h-329z"
         id="glyph183" />
      <glyph
         glyph-name="uni040C"
         unicode="Ќ"
         horiz-adv-x="84.23"
         d="M470 1540l196 304h292l-273 -304h-215zM414 1456v-1456h-275v1456h275zM1288 1456l-584 -710l-334 -357l-49 267l232 301l398 499h337zM982 0l-453 682l197 178l583 -860h-327z"
         id="glyph184" />
      <glyph
         glyph-name="uni040E"
         unicode="Ў"
         horiz-adv-x="83.85"
         d="M595 517l364 939h299l-502 -1183q-25 -57 -57 -110t-76.5 -94.5t-107 -65.5t-150.5 -24q-23 0 -55 1.5t-49 3.5v216q12 -3 39.5 -4t39.5 -1q58 0 92.5 18.5t55 51t36.5 74.5zM337 1456l349 -763l82 -297l-209 -6l-520 1066h298zM809 1833h192q0 -84 -41 -149 t-116.5 -101.5t-178.5 -36.5q-155 0 -246 80t-91 207h192q0 -53 33 -95t112 -42t111.5 42t32.5 95z"
         id="glyph185" />
      <glyph
         glyph-name="uni0410"
         unicode="А"
         horiz-adv-x="88.71"
         d="M718 1235l-415 -1235h-291l544 1456h186zM1065 0l-417 1235l-25 221h187l547 -1456h-292zM1046 541v-217h-781v217h781z"
         id="glyph186" />
      <glyph
         glyph-name="uni0412"
         unicode="В"
         horiz-adv-x="84.36"
         d="M697 649h-372l-2 194h319q82 0 137 23t83.5 67t28.5 107q0 70 -26.5 114t-82.5 64.5t-142 20.5h-226v-1239h-275v1456h501q124 0 221.5 -23.5t165.5 -72.5t103.5 -123t35.5 -176q0 -90 -41.5 -165.5t-127 -122.5t-216.5 -54zM685 0h-441l115 216h326q82 0 135.5 27 t80 74.5t26.5 109.5q0 68 -23.5 118t-74 77t-132.5 27h-286l2 194h364l63 -75q126 -1 205.5 -50t117.5 -126t38 -166q0 -140 -60.5 -235t-176 -143t-279.5 -48z"
         id="glyph187" />
      <glyph
         glyph-name="uni0413"
         unicode="Г"
         horiz-adv-x="74.05"
         d="M1082 1456v-217h-666v-1239h-274v1456h940z"
         id="glyph188" />
      <glyph
         glyph-name="uni0415"
         unicode="Е"
         horiz-adv-x="74.95"
         d="M1104 216v-216h-774v216h774zM414 1456v-1456h-275v1456h275zM1003 855v-211h-673v211h673zM1101 1456v-217h-771v217h771z"
         id="glyph189" />
      <glyph
         glyph-name="uni0419"
         unicode="Й"
         horiz-adv-x="93.38"
         d="M408 440l615 1016h276v-1456h-276v1016l-615 -1016h-275v1456h275v-1016zM863 1833h192q0 -84 -41 -149t-116.5 -101.5t-178.5 -36.5q-155 0 -246 80t-91 207h192q0 -53 33 -95t112 -42t111.5 42t32.5 95z"
         id="glyph190" />
      <glyph
         glyph-name="uni041C"
         unicode="М"
         horiz-adv-x="116.29"
         d="M259 1456h238l398 -1096l397 1096h239l-541 -1456h-191zM139 1456h233l42 -1007v-449h-275v1456zM1417 1456h234v-1456h-275v449z"
         id="glyph191" />
      <glyph
         glyph-name="uni041D"
         unicode="Н"
         horiz-adv-x="94.1"
         d="M1105 855v-216h-766v216h766zM414 1456v-1456h-275v1456h275zM1309 1456v-1456h-275v1456h275z"
         id="glyph192" />
      <glyph
         glyph-name="uni041E"
         unicode="О"
         horiz-adv-x="91.63"
         d="M1318 765v-75q0 -165 -44 -296.5t-125 -223.5t-193 -141t-249 -49q-135 0 -247.5 49t-194.5 141t-127 223.5t-45 296.5v75q0 166 45 297t126 223.5t193.5 141.5t247.5 49q137 0 249 -49t193.5 -141.5t126 -223.5t44.5 -297zM1040 690v77q0 119 -22 209.5t-65 152.5 t-106 93.5t-142 31.5q-80 0 -141.5 -31.5t-104.5 -93.5t-65.5 -152.5t-22.5 -209.5v-77q0 -118 22.5 -209t66 -153.5t105.5 -94.5t142 -32t142 32t104.5 94.5t64.5 153.5t22 209z"
         id="glyph193" />
      <glyph
         glyph-name="uni041F"
         unicode="П"
         horiz-adv-x="94.16"
         d="M1308 1456v-1456h-275v1239h-616v-1239h-275v1456h1166z"
         id="glyph194" />
      <glyph
         glyph-name="uni0420"
         unicode="Р"
         horiz-adv-x="85.27"
         d="M699 531h-375v216h375q92 0 149.5 30.5t84.5 84t27 122.5q0 67 -27 125t-84.5 94t-149.5 36h-285v-1239h-275v1456h560q170 0 290.5 -60.5t184 -167t63.5 -242.5q0 -141 -63.5 -243t-184 -157t-290.5 -55z"
         id="glyph195" />
      <glyph
         glyph-name="uni0421"
         unicode="С"
         horiz-adv-x="86.9"
         d="M991 479h275q-11 -146 -81 -258.5t-195 -176.5t-303 -64q-137 0 -246.5 48.5t-187 139t-118.5 218t-41 286.5v111q0 159 42 287t120.5 218.5t189 139.5t247.5 49q178 0 301 -65.5t191 -179.5t82 -262h-275q-8 92 -39.5 156t-94 97.5t-165.5 33.5q-80 0 -140.5 -30 t-100.5 -89.5t-60 -148t-20 -204.5v-113q0 -111 18 -199t56 -149t98 -93t143 -32q101 0 164.5 32t97 94t42.5 154z"
         id="glyph196" />
      <glyph
         glyph-name="uni0422"
         unicode="Т"
         horiz-adv-x="81.7"
         d="M764 1456v-1456h-274v1456h274zM1216 1456v-217h-1173v217h1173z"
         id="glyph197" />
      <glyph
         glyph-name="uni0425"
         unicode="Х"
         horiz-adv-x="84.17"
         d="M358 1456l291 -519l292 519h316l-432 -722l443 -734h-319l-300 529l-299 -529h-320l443 734l-432 722h317z"
         id="glyph198" />
      <glyph
         glyph-name="uni0430"
         unicode="а"
         horiz-adv-x="71.39"
         d="M715 230v499q0 55 -19 95t-58 62t-99 22q-53 0 -92.5 -18t-60.5 -50.5t-21 -74.5h-265q0 67 32 127.5t91.5 108t143 74.5t187.5 27q123 0 219.5 -41.5t152 -124.5t55.5 -209v-472q0 -81 10.5 -138.5t31.5 -99.5v-17h-269q-19 41 -29 104.5t-10 125.5zM752 659l2 -157 h-167q-62 0 -109 -12.5t-77 -36t-45 -56t-15 -73.5q0 -40 18.5 -72t54 -50.5t83.5 -18.5q70 0 122 28.5t81 69.5t31 78l76 -114q-14 -41 -42 -87t-72 -86t-106 -66t-144 -26q-105 0 -188 42t-131 115t-48 166q0 86 32 152t95 111.5t156.5 69t214.5 23.5h178z"
         id="glyph199" />
      <glyph
         glyph-name="uni0435"
         unicode="е"
         horiz-adv-x="71.52"
         d="M605 -20q-123 0 -221 40t-166.5 111.5t-105 167t-36.5 205.5v40q0 125 36 227.5t102 176.5t158 114t203 40q115 0 203 -38.5t147 -108.5t89 -167.5t30 -215.5v-111h-848v182h588v20q-2 63 -24 115.5t-68 84t-119 31.5q-59 0 -102.5 -25.5t-72 -72t-42.5 -110.5t-14 -142 v-40q0 -68 18.5 -126t55 -100.5t88 -66t117.5 -23.5q83 0 150.5 32.5t117.5 96.5l133 -138q-34 -50 -91.5 -96t-138.5 -74.5t-187 -28.5z"
         id="glyph200" />
      <glyph
         glyph-name="uni0439"
         unicode="й"
         horiz-adv-x="75.6"
         d="M386 377l394 705h265v-1082h-265v706l-394 -706h-265v1082h265v-705zM731 1507h192q0 -84 -41 -149t-116.5 -101.5t-178.5 -36.5q-155 0 -246 80t-91 207h192q0 -53 33 -95t112 -42t111.5 42t32.5 95z"
         id="glyph201" />
      <glyph
         glyph-name="uni043E"
         unicode="о"
         horiz-adv-x="75.21"
         d="M72 530v21q0 119 34 219.5t99 174.5t159 115.5t214 41.5q122 0 216.5 -41.5t159.5 -115.5t99 -174.5t34 -219.5v-21q0 -118 -34 -218.5t-99 -175t-159 -115.5t-215 -41q-120 0 -215 41t-160 115.5t-99 175t-34 218.5zM336 551v-21q0 -71 14 -133t43 -109t75.5 -73.5 t111.5 -26.5q64 0 110 26.5t75.5 73.5t43.5 109t14 133v21q0 70 -14 131.5t-43.5 109t-76 75t-111.5 27.5q-64 0 -110 -27.5t-75 -75t-43 -109t-14 -131.5z"
         id="glyph202" />
      <glyph
         glyph-name="uni0440"
         unicode="р"
         horiz-adv-x="74.76"
         d="M383 874v-1290h-265v1498h245zM1078 552v-21q0 -118 -27.5 -218.5t-80.5 -175t-131.5 -116t-180.5 -41.5q-100 0 -174 38.5t-125 109.5t-81.5 165.5t-45.5 206.5v67q15 119 45.5 216.5t81.5 169t124.5 110.5t172.5 39q103 0 181.5 -39t132.5 -112t81 -174t27 -225z M813 531v21q0 72 -13 133.5t-40 108t-70 72.5t-104 26t-105 -20t-72 -57t-43.5 -87.5t-20.5 -111.5v-166q9 -74 35 -133t76.5 -94t131.5 -35q61 0 104 27t70 74.5t39 109.5t12 132z"
         id="glyph203" />
      <glyph
         glyph-name="uni0441"
         unicode="с"
         horiz-adv-x="69.31"
         d="M563 188q56 0 100 22t70.5 62t28.5 93h249q-2 -110 -62 -197t-159.5 -137.5t-222.5 -50.5q-125 0 -218 42t-154.5 117t-92 174t-30.5 212v32q0 113 30.5 212t92 174t154.5 117t217 42q131 0 230.5 -51t156 -144t58.5 -219h-249q-2 58 -26 104t-68 74t-107 28 q-67 0 -111.5 -28t-69 -76.5t-34 -108t-9.5 -124.5v-32q0 -66 9.5 -126t34 -107.5t69 -75.5t113.5 -28z"
         id="glyph204" />
      <glyph
         glyph-name="uni0443"
         unicode="у"
         horiz-adv-x="66.0"
         d="M436 120l290 962h283l-434 -1246q-15 -40 -38.5 -87t-62.5 -89.5t-97.5 -69.5t-141.5 -27q-36 0 -64 5t-59 13v198q10 -1 23.5 -1.5t23.5 -0.5q58 0 96 13.5t61.5 43t39.5 76.5zM293 1082l245 -797l43 -279l-182 -33l-391 1109h285z"
         id="glyph205" />
      <glyph
         glyph-name="uni0445"
         unicode="х"
         horiz-adv-x="67.23"
         d="M326 1082l193 -344l196 344h287l-318 -530l331 -552h-287l-207 361l-208 -361h-287l330 552l-316 530h286z"
         id="glyph206" />
      <glyph
         glyph-name="uni0451"
         unicode="ё"
         horiz-adv-x="71.52"
         d="M179 1369q0 51 37 85.5t94 34.5q58 0 94.5 -34.5t36.5 -85.5q0 -50 -36.5 -84.5t-94.5 -34.5q-57 0 -94 34.5t-37 84.5zM656 1368q0 51 36.5 85.5t94.5 34.5q57 0 94 -34.5t37 -85.5q0 -50 -37 -84.5t-94 -34.5q-58 0 -94.5 34.5t-36.5 84.5zM605 -20q-123 0 -221 40 t-166.5 111.5t-105 167t-36.5 205.5v40q0 125 36 227.5t102 176.5t158 114t203 40q115 0 203 -38.5t147 -108.5t89 -167.5t30 -215.5v-111h-848v182h588v20q-2 63 -24 115.5t-68 84t-119 31.5q-59 0 -102.5 -25.5t-72 -72t-42.5 -110.5t-14 -142v-40q0 -68 18.5 -126 t55 -100.5t88 -66t117.5 -23.5q83 0 150.5 32.5t117.5 96.5l133 -138q-34 -50 -91.5 -96t-138.5 -74.5t-187 -28.5z"
         id="glyph207" />
      <glyph
         glyph-name="uni0453"
         unicode="ѓ"
         horiz-adv-x="55.75"
         d="M298 1222l196 304h292l-273 -304h-215zM846 1082v-209h-461v-873h-264v1082h725z"
         id="glyph208" />
      <glyph
         glyph-name="uni0455"
         unicode="ѕ"
         horiz-adv-x="68.34"
         d="M714 296q0 34 -18 61t-67.5 49.5t-144.5 42.5q-84 18 -155 45t-122 65.5t-79.5 91t-28.5 121.5q0 67 29 126.5t84 105t134 72t178 26.5q138 0 237.5 -45t152.5 -123.5t53 -176.5h-264q0 43 -19.5 78t-59.5 56.5t-101 21.5q-55 0 -92.5 -18t-56.5 -47t-19 -64 q0 -26 10.5 -46.5t34.5 -37.5t65.5 -31t102.5 -27q121 -24 211.5 -63.5t141.5 -104.5t51 -166q0 -72 -31 -131.5t-90 -103.5t-141 -68.5t-185 -24.5q-149 0 -252 53.5t-156 136t-53 171.5h253q3 -63 34 -101t78.5 -54.5t100.5 -16.5q60 0 101 16.5t62 45t21 65.5z"
         id="glyph209" />
      <glyph
         glyph-name="uni0456"
         unicode="і"
         horiz-adv-x="34.52"
         d="M399 1082v-1082h-265v1082h265zM116 1365q0 59 40.5 98t109.5 39t109.5 -39t40.5 -98q0 -58 -40.5 -97t-109.5 -39t-109.5 39t-40.5 97z"
         id="glyph210" />
      <glyph
         glyph-name="uni0457"
         unicode="ї"
         horiz-adv-x="35.5"
         d="M404 1082v-1082h-265v1082h265zM-96 1356q0 51 37 85.5t94 34.5q58 0 94.5 -34.5t36.5 -85.5q0 -50 -36.5 -84.5t-94.5 -34.5q-57 0 -94 34.5t-37 84.5zM381 1355q0 51 36.5 85.5t94.5 34.5q57 0 94 -34.5t37 -85.5q0 -50 -37 -84.5t-94 -34.5q-58 0 -94.5 34.5 t-36.5 84.5z"
         id="glyph211" />
      <glyph
         glyph-name="uni0458"
         unicode="ј"
         horiz-adv-x="33.94"
         d="M132 1082h266v-1162q0 -115 -41.5 -195t-119.5 -121t-191 -41q-35 0 -70 4t-69 13l1 204q22 -4 45 -6.5t46 -2.5q43 0 72.5 15t45 47t15.5 83v1162zM110 1365q0 59 40.5 98t109.5 39t109.5 -39t40.5 -98q0 -58 -40.5 -97t-109.5 -39t-109.5 39t-40.5 97z"
         id="glyph212" />
      <glyph
         glyph-name="uni045C"
         unicode="ќ"
         horiz-adv-x="74.11"
         d="M443 1221l196 304h292l-273 -304h-215zM401 1082v-1082h-264v1082h264zM1106 1082l-477 -664h-281l-33 242h195l263 422h333zM789 0l-296 464l220 138l427 -602h-351z"
         id="glyph213" />
      <glyph
         glyph-name="uni045E"
         unicode="ў"
         horiz-adv-x="66.0"
         d="M436 120l290 962h283l-434 -1246q-15 -40 -38.5 -87t-62.5 -89.5t-97.5 -69.5t-141.5 -27q-36 0 -64 5t-59 13v198q10 -1 23.5 -1.5t23.5 -0.5q58 0 96 13.5t61.5 43t39.5 76.5zM293 1082l245 -797l43 -279l-182 -33l-391 1109h285zM663 1517h192q0 -84 -41 -149 t-116.5 -101.5t-178.5 -36.5q-155 0 -246 80t-91 207h192q0 -53 33 -95t112 -42t111.5 42t32.5 95z"
         id="glyph214" />
      <glyph
         glyph-name="uni02BC"
         unicode="ʼ"
         horiz-adv-x="29.59"
         d="M364 1536v-147q0 -63 -23.5 -131.5t-64 -130t-91.5 -105.5l-128 77q40 61 65.5 130.5t25.5 158.5v148h216z"
         id="glyph215" />
      <glyph
         glyph-name="uni0400"
         unicode="Ѐ"
         horiz-adv-x="74.95"
         d="M570 1852l196 -304h-219l-270 304h293zM1104 216v-216h-774v216h774zM414 1456v-1456h-275v1456h275zM1003 855v-211h-673v211h673zM1101 1456v-217h-771v217h771z"
         id="glyph216" />
      <glyph
         glyph-name="uni040D"
         unicode="Ѝ"
         horiz-adv-x="93.38"
         d="M656 1852l196 -304h-219l-270 304h293zM408 440l615 1016h276v-1456h-276v1016l-615 -1016h-275v1456h275v-1016z"
         id="glyph217" />
      <glyph
         glyph-name="uni0450"
         unicode="ѐ"
         horiz-adv-x="71.52"
         d="M605 -20q-123 0 -221 40t-166.5 111.5t-105 167t-36.5 205.5v40q0 125 36 227.5t102 176.5t158 114t203 40q115 0 203 -38.5t147 -108.5t89 -167.5t30 -215.5v-111h-848v182h588v20q-2 63 -24 115.5t-68 84t-119 31.5q-59 0 -102.5 -25.5t-72 -72t-42.5 -110.5t-14 -142 v-40q0 -68 18.5 -126t55 -100.5t88 -66t117.5 -23.5q83 0 150.5 32.5t117.5 96.5l133 -138q-34 -50 -91.5 -96t-138.5 -74.5t-187 -28.5zM486 1537l196 -304h-219l-270 304h293z"
         id="glyph218" />
      <glyph
         glyph-name="uni045D"
         unicode="ѝ"
         horiz-adv-x="75.6"
         d="M524 1526l196 -304h-219l-270 304h293zM386 377l394 705h265v-1082h-265v706l-394 -706h-265v1082h265v-705z"
         id="glyph219" />
      <glyph
         glyph-name="uni0470"
         unicode="Ѱ"
         horiz-adv-x="95.66"
         d="M1132 1456h277v-481q0 -190 -78.5 -323.5t-218.5 -203t-326 -69.5h-110q-137 0 -250 39.5t-194.5 115.5t-125.5 187t-44 254v481h275v-481q0 -94 24 -165t69.5 -118.5t110.5 -71.5t146 -24h109q110 0 185 42.5t113 127t38 209.5v481zM875 1456v-1456h-274v1456h274z"
         id="glyph220" />
      <glyph
         glyph-name="uni0471"
         unicode="ѱ"
         horiz-adv-x="97.67"
         d="M76 1082h265v-493q0 -114 31 -191.5t86 -123.5t127.5 -66.5t156.5 -20.5q120 0 202 32t131 88t71 128t22 153q-2 128 -34 252t-79 242h250q34 -58 63 -133t47 -165t18 -196q0 -120 -35 -229.5t-114 -195t-210 -135t-322 -49.5q-153 0 -277.5 35t-214 109.5t-137 190.5 t-47.5 277v491zM610 1082h264v-1558h-264v1558z"
         id="glyph221" />
      <glyph
         glyph-name="uni0476"
         unicode="Ѷ"
         horiz-adv-x="85.01"
         d="M664 382l220 758q35 110 82 184.5t113.5 112t160.5 37.5l39 -1l-2 -226h-25q-30 0 -54 -14.5t-42.5 -42t-30.5 -68.5l-342 -1122h-204zM306 1456l315 -1071l86 -385h-205l-488 1456h292zM598 1533h-222l-294 266h269zM921 1533h-215l-245 266h262z"
         id="glyph222" />
      <glyph
         glyph-name="uni0477"
         unicode="ѷ"
         horiz-adv-x="67.56"
         d="M521 384l109 411q31 102 75.5 170t106 103t140.5 35q29 0 55 -4t48 -17l-23 -204q-4 2 -20.5 3.5t-29.5 1.5q-24 0 -46 -13t-38.5 -36t-26.5 -52l-247 -782h-177zM299 1082l180 -698l77 -384h-179l-354 1082h276zM499 1230h-222l-294 266h269zM822 1230h-215l-245 266 h262z"
         id="glyph223" />
      <glyph
         glyph-name="uni0479"
         unicode="ѹ"
         horiz-adv-x="141.21"
         d="M1595 120l290 962h283l-434 -1246q-15 -40 -38.5 -87t-62.5 -89.5t-97.5 -69.5t-141.5 -27q-36 0 -64 5t-59 13v198q10 -1 23.5 -1.5t23.5 -0.5q58 0 96 13.5t61.5 43t39.5 76.5zM1452 1082l245 -797l43 -279l-182 -33l-391 1109h285zM72 530v21q0 119 34 219.5t99 174.5 t159 115.5t214 41.5q122 0 216.5 -41.5t159.5 -115.5t99 -174.5t34 -219.5v-21q0 -118 -34 -218.5t-99 -175t-159 -115.5t-215 -41q-120 0 -215 41t-160 115.5t-99 175t-34 218.5zM336 551v-21q0 -71 14 -133t43 -109t75.5 -73.5t111.5 -26.5q64 0 110 26.5t75.5 73.5 t43.5 109t14 133v21q0 70 -14 131.5t-43.5 109t-76 75t-111.5 27.5q-64 0 -110 -27.5t-75 -75t-43 -109t-14 -131.5z"
         id="glyph224" />
      <glyph
         glyph-name="uni0478"
         unicode="Ѹ"
         horiz-adv-x="157.63"
         d="M1848 120l290 962h283l-434 -1246q-15 -40 -38.5 -87t-62.5 -89.5t-97.5 -69.5t-141.5 -27q-36 0 -64 5t-59 13v198q10 -1 23.5 -1.5t23.5 -0.5q58 0 96 13.5t61.5 43t39.5 76.5zM1705 1082l245 -797l43 -279l-182 -33l-391 1109h285zM1318 765v-75q0 -165 -44 -296.5 t-125 -223.5t-193 -141t-249 -49q-135 0 -247.5 49t-194.5 141t-127 223.5t-45 296.5v75q0 166 45 297t126 223.5t193.5 141.5t247.5 49q137 0 249 -49t193.5 -141.5t126 -223.5t44.5 -297zM1040 690v77q0 119 -22 209.5t-65 152.5t-106 93.5t-142 31.5q-80 0 -141.5 -31.5 t-104.5 -93.5t-65.5 -152.5t-22.5 -209.5v-77q0 -118 22.5 -209t66 -153.5t105.5 -94.5t142 -32t142 32t104.5 94.5t64.5 153.5t22 209z"
         id="glyph225" />
      <glyph
         glyph-name="uni0498"
         unicode="Ҙ"
         horiz-adv-x="81.38"
         d="M756 80v-547h-265v547h265zM660 698h-213v151h176q87 0 140 26t78 73.5t25 110.5q0 54 -27.5 100t-84.5 73t-146 27q-67 0 -122 -23.5t-87 -67t-32 -103.5h-275q0 96 41 171.5t112.5 129t165 81.5t197.5 28q121 0 219.5 -26.5t168.5 -78.5t107.5 -129t37.5 -179 q0 -75 -34 -141t-97.5 -116t-152 -78.5t-197.5 -28.5zM447 785h213q120 0 213.5 -25t158 -73t98.5 -118.5t34 -161.5q0 -102 -41 -181t-115.5 -134t-176.5 -83t-223 -28q-98 0 -193.5 24.5t-173 75.5t-124 131t-46.5 192h276q0 -58 33 -105.5t92 -75t136 -27.5 q89 0 151.5 27.5t95.5 76.5t33 109q0 61 -17 104t-50.5 70.5t-83 40.5t-114.5 13h-176v148z"
         id="glyph226" />
      <glyph
         glyph-name="uni0499"
         unicode="ҙ"
         horiz-adv-x="68.14"
         d="M663 81v-547h-265v547h265zM583 516h-211v126h161q59 0 94.5 16t51 45t15.5 67q0 34 -15 64.5t-50 50t-97 19.5q-51 0 -91 -16t-63 -45t-23 -69h-265q0 102 58.5 175t156.5 112.5t215 39.5q101 0 182 -20.5t138 -60.5t88 -98.5t31 -135.5q0 -55 -26 -104t-75 -86.5 t-118.5 -58.5t-156.5 -21zM372 588h211q97 0 170.5 -18.5t123.5 -54.5t75.5 -88.5t25.5 -120.5q0 -77 -33.5 -137.5t-94.5 -102.5t-145 -64t-185 -22q-109 0 -211.5 36t-169 111t-66.5 193h265q0 -38 23 -71t66.5 -52.5t105.5 -19.5q63 0 103 20t58.5 53.5t18.5 70.5 q0 51 -19.5 82.5t-60 46.5t-100.5 15h-161v123z"
         id="glyph227" />
      <glyph
         glyph-name="uni04AA"
         unicode="Ҫ"
         horiz-adv-x="86.9"
         d="M818 85v-547h-265v547h265zM991 479h275q-11 -146 -81 -258.5t-195 -176.5t-303 -64q-137 0 -246.5 48.5t-187 139t-118.5 218t-41 286.5v111q0 159 42 287t120.5 218.5t189 139.5t247.5 49q178 0 301 -65.5t191 -179.5t82 -262h-275q-8 92 -39.5 156t-94 97.5 t-165.5 33.5q-80 0 -140.5 -30t-100.5 -89.5t-60 -148t-20 -204.5v-113q0 -111 18 -199t56 -149t98 -93t143 -32q101 0 164.5 32t97 94t42.5 154z"
         id="glyph228" />
      <glyph
         glyph-name="uni04AB"
         unicode="ҫ"
         horiz-adv-x="69.31"
         d="M684 85v-547h-265v547h265zM563 188q56 0 100 22t70.5 62t28.5 93h249q-2 -110 -62 -197t-159.5 -137.5t-222.5 -50.5q-125 0 -218 42t-154.5 117t-92 174t-30.5 212v32q0 113 30.5 212t92 174t154.5 117t217 42q131 0 230.5 -51t156 -144t58.5 -219h-249q-2 58 -26 104 t-68 74t-107 28q-67 0 -111.5 -28t-69 -76.5t-34 -108t-9.5 -124.5v-32q0 -66 9.5 -126t34 -107.5t69 -75.5t113.5 -28z"
         id="glyph229" />
      <glyph
         glyph-name="uni04AE"
         unicode="Ү"
         horiz-adv-x="81.7"
         d="M309 1456l320 -679l322 679h302l-484 -923v-533h-279v533l-485 923h304z"
         id="glyph230" />
      <glyph
         glyph-name="uni04AF"
         unicode="ү"
         horiz-adv-x="67.56"
         d="M654 100v-517h-265v517h265zM509 261l236 821h276l-375 -1082h-179zM299 1082l245 -826l33 -256h-178l-376 1082h276z"
         id="glyph231" />
      <glyph
         glyph-name="uni04C0"
         unicode="Ӏ"
         horiz-adv-x="38.22"
         d="M432 1456v-1456h-275v1456h275z"
         id="glyph232" />
      <glyph
         glyph-name="uni04C1"
         unicode="Ӂ"
         horiz-adv-x="130.05"
         d="M592 615l-548 841h339l341 -600h257l-37 -241h-352zM725 654l-363 -654h-343l492 826zM1152 1456v-1456h-274v1456h274zM1975 1456l-542 -841h-349l-37 241h254l334 600h340zM1657 0l-356 654l215 172l484 -826h-343zM1150 1833h192q0 -84 -41 -149t-116.5 -101.5 t-178.5 -36.5q-155 0 -246 80t-91 207h192q0 -53 33 -95t112 -42t111.5 42t32.5 95z"
         id="glyph233" />
      <glyph
         glyph-name="uni04C2"
         unicode="ӂ"
         horiz-adv-x="111.23"
         d="M488 422l-440 660h326l241 -417h209l-33 -243h-303zM620 464l-262 -464h-321l375 602zM990 1082v-1082h-264v1082h264zM1671 1082l-441 -660h-303l-33 243h209l241 417h327zM1360 0l-262 464l215 138l374 -602h-327zM1009 1507h192q0 -84 -41 -149t-116.5 -101.5 t-178.5 -36.5q-155 0 -246 80t-91 207h192q0 -53 33 -95t112 -42t111.5 42t32.5 95z"
         id="glyph234" />
      <glyph
         glyph-name="uni04CF"
         unicode="ӏ"
         horiz-adv-x="38.22"
         d="M432 1456v-1456h-275v1456h275z"
         id="glyph235" />
      <glyph
         glyph-name="uni04D0"
         unicode="Ӑ"
         horiz-adv-x="88.71"
         d="M718 1235l-415 -1235h-291l544 1456h186zM1065 0l-417 1235l-25 221h187l547 -1456h-292zM1046 541v-217h-781v217h781zM831 1827h192q0 -84 -41 -149t-116.5 -101.5t-178.5 -36.5q-155 0 -246 80t-91 207h192q0 -53 33 -95t112 -42t111.5 42t32.5 95z"
         id="glyph236" />
      <glyph
         glyph-name="uni04D1"
         unicode="ӑ"
         horiz-adv-x="71.39"
         d="M715 230v499q0 55 -19 95t-58 62t-99 22q-53 0 -92.5 -18t-60.5 -50.5t-21 -74.5h-265q0 67 32 127.5t91.5 108t143 74.5t187.5 27q123 0 219.5 -41.5t152 -124.5t55.5 -209v-472q0 -81 10.5 -138.5t31.5 -99.5v-17h-269q-19 41 -29 104.5t-10 125.5zM752 659l2 -157 h-167q-62 0 -109 -12.5t-77 -36t-45 -56t-15 -73.5q0 -40 18.5 -72t54 -50.5t83.5 -18.5q70 0 122 28.5t81 69.5t31 78l76 -114q-14 -41 -42 -87t-72 -86t-106 -66t-144 -26q-105 0 -188 42t-131 115t-48 166q0 86 32 152t95 111.5t156.5 69t214.5 23.5h178zM702 1517h192 q0 -84 -41 -149t-116.5 -101.5t-178.5 -36.5q-155 0 -246 80t-91 207h192q0 -53 33 -95t112 -42t111.5 42t32.5 95z"
         id="glyph237" />
      <glyph
         glyph-name="uni04D2"
         unicode="Ӓ"
         horiz-adv-x="88.71"
         d="M317 1678q0 51 37 85.5t94 34.5q58 0 94.5 -34.5t36.5 -85.5q0 -50 -36.5 -84.5t-94.5 -34.5q-57 0 -94 34.5t-37 84.5zM794 1677q0 51 36.5 85.5t94.5 34.5q57 0 94 -34.5t37 -85.5q0 -50 -37 -84.5t-94 -34.5q-58 0 -94.5 34.5t-36.5 84.5zM718 1235l-415 -1235h-291 l544 1456h186zM1065 0l-417 1235l-25 221h187l547 -1456h-292zM1046 541v-217h-781v217h781z"
         id="glyph238" />
      <glyph
         glyph-name="uni04D3"
         unicode="ӓ"
         horiz-adv-x="71.39"
         d="M188 1368q0 51 37 85.5t94 34.5q58 0 94.5 -34.5t36.5 -85.5q0 -50 -36.5 -84.5t-94.5 -34.5q-57 0 -94 34.5t-37 84.5zM665 1367q0 51 36.5 85.5t94.5 34.5q57 0 94 -34.5t37 -85.5q0 -50 -37 -84.5t-94 -34.5q-58 0 -94.5 34.5t-36.5 84.5zM715 230v499q0 55 -19 95 t-58 62t-99 22q-53 0 -92.5 -18t-60.5 -50.5t-21 -74.5h-265q0 67 32 127.5t91.5 108t143 74.5t187.5 27q123 0 219.5 -41.5t152 -124.5t55.5 -209v-472q0 -81 10.5 -138.5t31.5 -99.5v-17h-269q-19 41 -29 104.5t-10 125.5zM752 659l2 -157h-167q-62 0 -109 -12.5t-77 -36 t-45 -56t-15 -73.5q0 -40 18.5 -72t54 -50.5t83.5 -18.5q70 0 122 28.5t81 69.5t31 78l76 -114q-14 -41 -42 -87t-72 -86t-106 -66t-144 -26q-105 0 -188 42t-131 115t-48 166q0 86 32 152t95 111.5t156.5 69t214.5 23.5h178z"
         id="glyph239" />
      <glyph
         glyph-name="uni04D4"
         unicode="Ӕ"
         horiz-adv-x="124.6"
         d="M989 1302l-676 -1302h-312l805 1456h168zM1100 565v-225h-747v225h747zM1865 211v-211h-732v211h732zM1178 1456l61 -1456h-264l-61 1456h264zM1723 856v-211h-631v211h631zM1804 1456v-211h-732v211h732z"
         id="glyph240" />
      <glyph
         glyph-name="uni04D5"
         unicode="ӕ"
         horiz-adv-x="112.27"
         d="M732 183v527q0 57 -19.5 98.5t-58 63.5t-93.5 22q-61 0 -104 -19.5t-66.5 -52t-23.5 -72.5l-264 18q0 73 32.5 133.5t93 105.5t145.5 70t189 25q129 0 224.5 -44t148.5 -131.5t53 -218.5v-490zM775 646l1 -174h-219q-73 0 -122.5 -22.5t-74.5 -59.5t-25 -80q0 -40 19 -71 t58 -48.5t99 -17.5q45 0 92 16.5t86.5 42.5t63.5 56t25 56l126 -150q-26 -49 -83 -98.5t-146.5 -82.5t-213.5 -33q-126 0 -213.5 41t-132.5 116.5t-45 176.5q0 79 31 140.5t92 104t152 65t210 22.5h220zM1250 -20q-125 0 -220.5 38t-161 108.5t-99 166t-33.5 209.5v62 q0 119 33 217.5t96 170.5t153.5 111.5t204.5 38.5q107 0 190.5 -34t141.5 -97.5t88.5 -154t30.5 -202.5v-149h-823v178h562v29q0 64 -20 114t-61.5 79t-108.5 29q-61 0 -105 -25t-72 -70t-41.5 -105t-13.5 -130v-62q0 -67 16 -123.5t50 -99.5t88 -67t129 -24 q108 0 175.5 27.5t123.5 58.5l74 -173q-32 -24 -88.5 -52.5t-135 -48.5t-173.5 -20z"
         id="glyph241" />
      <glyph
         glyph-name="uni04D6"
         unicode="Ӗ"
         horiz-adv-x="74.95"
         d="M1104 216v-216h-774v216h774zM414 1456v-1456h-275v1456h275zM1003 855v-211h-673v211h673zM1101 1456v-217h-771v217h771zM777 1833h192q0 -84 -41 -149t-116.5 -101.5t-178.5 -36.5q-155 0 -246 80t-91 207h192q0 -53 33 -95t112 -42t111.5 42t32.5 95z"
         id="glyph242" />
      <glyph
         glyph-name="uni04D7"
         unicode="ӗ"
         horiz-adv-x="71.52"
         d="M605 -20q-123 0 -221 40t-166.5 111.5t-105 167t-36.5 205.5v40q0 125 36 227.5t102 176.5t158 114t203 40q115 0 203 -38.5t147 -108.5t89 -167.5t30 -215.5v-111h-848v182h588v20q-2 63 -24 115.5t-68 84t-119 31.5q-59 0 -102.5 -25.5t-72 -72t-42.5 -110.5t-14 -142 v-40q0 -68 18.5 -126t55 -100.5t88 -66t117.5 -23.5q83 0 150.5 32.5t117.5 96.5l133 -138q-34 -50 -91.5 -96t-138.5 -74.5t-187 -28.5zM694 1518h192q0 -84 -41 -149t-116.5 -101.5t-178.5 -36.5q-155 0 -246 80t-91 207h192q0 -53 33 -95t112 -42t111.5 42t32.5 95z"
         id="glyph243" />
      </font>
</defs>
</svg>
