<?xml version="1.0" encoding="UTF-8" standalone="no"?>
<!-- Created with Inkscape (http://www.inkscape.org/) -->

<svg
   width="210mm"
   height="210mm"
   viewBox="0 0 210 210"
   version="1.1"
   id="svg12239"
   sodipodi:docname="tiling.svg"
   inkscape:version="1.3-alpha (95f74fb, 2023-03-31)"
   inkscape:export-filename="tiling/full_tiling.png"
   inkscape:export-xdpi="39.843136"
   inkscape:export-ydpi="39.843136"
   xmlns:inkscape="http://www.inkscape.org/namespaces/inkscape"
   xmlns:sodipodi="http://sodipodi.sourceforge.net/DTD/sodipodi-0.dtd"
   xmlns="http://www.w3.org/2000/svg"
   xmlns:svg="http://www.w3.org/2000/svg"
   xmlns:inkstitch="http://inkstitch.org/namespace">
  <sodipodi:namedview
     id="namedview12241"
     pagecolor="#ffffff"
     bordercolor="#666666"
     borderopacity="1.0"
     inkscape:pageshadow="2"
     inkscape:pageopacity="0.0"
     inkscape:pagecheckerboard="0"
     inkscape:document-units="mm"
     showgrid="true"
     inkscape:zoom="0.90723129"
     inkscape:cx="688.90922"
     inkscape:cy="139.43523"
     inkscape:window-width="1323"
     inkscape:window-height="800"
     inkscape:window-x="0"
     inkscape:window-y="25"
     inkscape:window-maximized="0"
     inkscape:current-layer="g262"
     inkscape:showpageshadow="2"
     inkscape:deskcolor="#d1d1d1"
     showguides="false">
    <sodipodi:guide
       position="49.999999,80.238658"
       orientation="-1,0"
       id="guide1"
       inkscape:locked="false"
       inkscape:label=""
       inkscape:color="rgb(0,134,229)" />
    <sodipodi:guide
       position="-33.427311,99.999998"
       orientation="0,1"
       id="guide2"
       inkscape:locked="false"
       inkscape:label=""
       inkscape:color="rgb(0,134,229)" />
    <sodipodi:guide
       position="70.488025,150"
       orientation="0,1"
       id="guide3"
       inkscape:locked="false"
       inkscape:label=""
       inkscape:color="rgb(0,134,229)" />
    <sodipodi:guide
       position="0,133.64969"
       orientation="-1,0"
       id="guide4"
       inkscape:locked="false"
       inkscape:label=""
       inkscape:color="rgb(0,134,229)" />
    <sodipodi:guide
       position="25,119.11607"
       orientation="-1,0"
       id="guide5"
       inkscape:locked="false"
       inkscape:label=""
       inkscape:color="rgb(0,134,229)" />
    <sodipodi:guide
       position="49.999998,125"
       orientation="0,1"
       id="guide6"
       inkscape:locked="false"
       inkscape:label=""
       inkscape:color="rgb(0,134,229)" />
    <inkscape:grid
       id="grid6"
       units="mm"
       originx="0"
       originy="0"
       spacingx="3.7795276"
       spacingy="3.7795276"
       empcolor="#e93fff"
       empopacity="0.25098039"
       color="#0099e5"
       opacity="0.14901961"
       empspacing="5"
       dotted="false"
       gridanglex="30"
       gridanglez="30"
       visible="true" />
  </sodipodi:namedview>
  <metadata
     id="metadata12334">
    <inkstitch:collapse_len_mm>3</inkstitch:collapse_len_mm>
    <inkstitch:thread-palette />
    <inkstitch:min_stitch_len_mm>0</inkstitch:min_stitch_len_mm>
    <inkstitch:inkstitch_svg_version>1</inkstitch:inkstitch_svg_version>
  </metadata>
  <defs
     id="defs12236">
    <inkscape:path-effect
       effect="tiling"
       id="path-effect12"
       is_visible="true"
       lpeversion="1"
       unit="px"
       seed="1;1"
       lpesatellites=""
       num_rows="4"
       num_cols="4"
       gapx="0"
       gapy="0"
       offset="0"
       offset_type="false"
       scale="0"
       rotate="0"
       mirrorrowsx="false"
       mirrorrowsy="false"
       mirrorcolsx="false"
       mirrorcolsy="false"
       mirrortrans="false"
       shrink_interp="false"
       split_items="false"
       link_styles="false"
       interpolate_scalex="false"
       interpolate_scaley="true"
       interpolate_rotatex="false"
       interpolate_rotatey="true"
       random_scale="false"
       random_rotate="false"
       random_gap_y="false"
       random_gap_x="false"
       transformorigin="" />
    <inkscape:path-effect
       effect="tiling"
       id="path-effect68"
       is_visible="true"
       lpeversion="1"
       unit="px"
       seed="1;1"
       lpesatellites=""
       num_rows="4"
       num_cols="4"
       gapx="0"
       gapy="0"
       offset="0"
       offset_type="false"
       scale="0"
       rotate="0"
       mirrorrowsx="false"
       mirrorrowsy="false"
       mirrorcolsx="false"
       mirrorcolsy="false"
       mirrortrans="false"
       shrink_interp="false"
       split_items="false"
       link_styles="false"
       interpolate_scalex="false"
       interpolate_scaley="true"
       interpolate_rotatex="false"
       interpolate_rotatey="true"
       random_scale="false"
       random_rotate="false"
       random_gap_y="false"
       random_gap_x="false"
       transformorigin="" />
    <inkscape:path-effect
       effect="tiling"
       id="path-effect46"
       is_visible="true"
       lpeversion="1"
       unit="px"
       seed="1;1"
       lpesatellites=""
       num_rows="4"
       num_cols="4"
       gapx="0"
       gapy="0"
       offset="0"
       offset_type="false"
       scale="0"
       rotate="0"
       mirrorrowsx="false"
       mirrorrowsy="false"
       mirrorcolsx="false"
       mirrorcolsy="false"
       mirrortrans="false"
       shrink_interp="false"
       split_items="false"
       link_styles="false"
       interpolate_scalex="false"
       interpolate_scaley="true"
       interpolate_rotatex="false"
       interpolate_rotatey="true"
       random_scale="false"
       random_rotate="false"
       random_gap_y="false"
       random_gap_x="false"
       transformorigin="" />
    <inkscape:path-effect
       effect="tiling"
       id="path-effect39"
       is_visible="true"
       lpeversion="1"
       unit="px"
       seed="1;1"
       lpesatellites=""
       num_rows="4"
       num_cols="4"
       gapx="0"
       gapy="0"
       offset="0"
       offset_type="false"
       scale="0"
       rotate="0"
       mirrorrowsx="false"
       mirrorrowsy="false"
       mirrorcolsx="false"
       mirrorcolsy="false"
       mirrortrans="false"
       shrink_interp="false"
       split_items="false"
       link_styles="false"
       interpolate_scalex="false"
       interpolate_scaley="true"
       interpolate_rotatex="false"
       interpolate_rotatey="true"
       random_scale="false"
       random_rotate="false"
       random_gap_y="false"
       random_gap_x="false"
       transformorigin="" />
    <inkscape:path-effect
       effect="tiling"
       id="path-effect27"
       is_visible="true"
       lpeversion="1"
       unit="px"
       seed="1;1"
       lpesatellites=""
       num_rows="4"
       num_cols="4"
       gapx="0"
       gapy="0"
       offset="0"
       offset_type="false"
       scale="0"
       rotate="0"
       mirrorrowsx="false"
       mirrorrowsy="false"
       mirrorcolsx="false"
       mirrorcolsy="false"
       mirrortrans="false"
       shrink_interp="false"
       split_items="false"
       link_styles="false"
       interpolate_scalex="false"
       interpolate_scaley="true"
       interpolate_rotatex="false"
       interpolate_rotatey="true"
       random_scale="false"
       random_rotate="false"
       random_gap_y="false"
       random_gap_x="false"
       transformorigin="" />
    <inkscape:path-effect
       effect="tiling"
       id="path-effect1"
       is_visible="true"
       lpeversion="1"
       unit="px"
       seed="1;1"
       lpesatellites=""
       num_rows="4"
       num_cols="4"
       gapx="0"
       gapy="0"
       offset="0"
       offset_type="false"
       scale="0"
       rotate="0"
       mirrorrowsx="false"
       mirrorrowsy="false"
       mirrorcolsx="false"
       mirrorcolsy="false"
       mirrortrans="false"
       shrink_interp="false"
       split_items="false"
       link_styles="false"
       interpolate_scalex="false"
       interpolate_scaley="true"
       interpolate_rotatex="false"
       interpolate_rotatey="true"
       random_scale="false"
       random_rotate="false"
       random_gap_y="false"
       random_gap_x="false"
       transformorigin="" />
    <inkscape:path-effect
       effect="tiling"
       id="path-effect24"
       is_visible="true"
       lpeversion="1"
       unit="px"
       seed="1;1"
       lpesatellites=""
       num_rows="3"
       num_cols="3"
       gapx="0"
       gapy="0"
       offset="0"
       offset_type="false"
       scale="0"
       rotate="0"
       mirrorrowsx="false"
       mirrorrowsy="false"
       mirrorcolsx="false"
       mirrorcolsy="false"
       mirrortrans="false"
       shrink_interp="false"
       split_items="false"
       link_styles="false"
       interpolate_scalex="false"
       interpolate_scaley="true"
       interpolate_rotatex="false"
       interpolate_rotatey="true"
       random_scale="false"
       random_rotate="false"
       random_gap_y="false"
       random_gap_x="false"
       transformorigin="" />
    <inkscape:path-effect
       effect="tiling"
       id="path-effect7"
       is_visible="true"
       lpeversion="1"
       unit="px"
       seed="1;1"
       lpesatellites=""
       num_rows="4"
       num_cols="4"
       gapx="0"
       gapy="0"
       offset="0"
       offset_type="false"
       scale="0"
       rotate="0"
       mirrorrowsx="false"
       mirrorrowsy="false"
       mirrorcolsx="false"
       mirrorcolsy="false"
       mirrortrans="false"
       shrink_interp="false"
       split_items="false"
       link_styles="false"
       interpolate_scalex="false"
       interpolate_scaley="true"
       interpolate_rotatex="false"
       interpolate_rotatey="true"
       random_scale="false"
       random_rotate="false"
       random_gap_y="false"
       random_gap_x="false"
       transformorigin="" />
  </defs>
  <g
     inkscape:groupmode="layer"
     id="layer2"
     inkscape:label="Step1 Create Tiling"
     class="UnoptimicedTransforms"
     style="display:none"
     transform="translate(5,4.6367744)">
    <g
       id="g1"
       inkscape:path-effect="#path-effect1"
       class="UnoptimicedTransforms"
       inkscape:label="Group with tiling  LPE ">
      <path
         style="fill:none;fill-rule:evenodd;stroke:#0b3d91;paint-order:markers stroke fill"
         d="M 25,50 C 25,36.192881 36.192881,25 50,25 36.192881,25 25,13.807119 25,0 M 75,50 C 75,36.192881 86.192881,25 100,25 86.192881,25 75,13.807119 75,0 m 50,50 C 125,36.192881 136.19288,25 150,25 136.19288,25 125,13.807119 125,0 m 50,50 C 175,36.192881 186.19288,25 200,25 186.19288,25 175,13.807119 175,0 M 25,100 C 25,86.192881 36.192881,75 50,75 36.192881,75 25,63.807119 25,50 m 50,50 C 75,86.192881 86.192881,75 100,75 86.192881,75 75,63.807119 75,50 m 50,50 c 0,-13.807119 11.19288,-25 25,-25 -13.80712,0 -25,-11.192881 -25,-25 m 50,50 C 175,86.192881 186.19288,75 200,75 186.19288,75 175,63.807119 175,50 M 25,150 c 0,-13.80712 11.192881,-25 25,-25 -13.807119,0 -25,-11.19288 -25,-25 m 50,50 c 0,-13.80712 11.192881,-25 25,-25 -13.807119,0 -25,-11.19288 -25,-25 m 50,50 c 0,-13.80712 11.19288,-25 25,-25 -13.80712,0 -25,-11.19288 -25,-25 m 50,50 c 0,-13.80712 11.19288,-25 25,-25 -13.80712,0 -25,-11.19288 -25,-25 M 25,200 c 0,-13.80712 11.192881,-25 25,-25 -13.807119,0 -25,-11.19288 -25,-25 m 50,50 c 0,-13.80712 11.192881,-25 25,-25 -13.807119,0 -25,-11.19288 -25,-25 m 50,50 c 0,-13.80712 11.19288,-25 25,-25 -13.80712,0 -25,-11.19288 -25,-25 m 50,50 c 0,-13.80712 11.19288,-25 25,-25 -13.80712,0 -25,-11.19288 -25,-25"
         id="path6"
         inkscape:original-d="M 25,50 C 25,36.192881 36.192881,25 50,25 36.192881,25 25,13.807119 25,0"
         inkstitch:stroke_method="zigzag_stitch"
         sodipodi:nodetypes="ccc"
         inkscape:label="blue" />
      <path
         style="fill:none;fill-rule:evenodd;stroke:#000000;paint-order:markers stroke fill"
         d="M 25,0 C 38.807119,0 50,11.192881 50,25 50,38.807119 38.807119,50 25,50 M 75,0 c 13.807119,0 25,11.192881 25,25 0,13.807119 -11.192881,25 -25,25 M 125,0 c 13.80712,0 25,11.192881 25,25 0,13.807119 -11.19288,25 -25,25 M 175,0 c 13.80712,0 25,11.192881 25,25 0,13.807119 -11.19288,25 -25,25 M 25,50 c 13.807119,0 25,11.192881 25,25 0,13.807119 -11.192881,25 -25,25 M 75,50 c 13.807119,0 25,11.192881 25,25 0,13.807119 -11.192881,25 -25,25 m 50,-50 c 13.80712,0 25,11.192881 25,25 0,13.807119 -11.19288,25 -25,25 m 50,-50 c 13.80712,0 25,11.192881 25,25 0,13.807119 -11.19288,25 -25,25 m -150,0 c 13.807119,0 25,11.19288 25,25 0,13.80712 -11.192881,25 -25,25 m 50,-50 c 13.807119,0 25,11.19288 25,25 0,13.80712 -11.192881,25 -25,25 m 50,-50 c 13.80712,0 25,11.19288 25,25 0,13.80712 -11.19288,25 -25,25 m 50,-50 c 13.80712,0 25,11.19288 25,25 0,13.80712 -11.19288,25 -25,25 m -150,0 c 13.807119,0 25,11.19288 25,25 0,13.80712 -11.192881,25 -25,25 m 50,-50 c 13.807119,0 25,11.19288 25,25 0,13.80712 -11.192881,25 -25,25 m 50,-50 c 13.80712,0 25,11.19288 25,25 0,13.80712 -11.19288,25 -25,25 m 50,-50 c 13.80712,0 25,11.19288 25,25 0,13.80712 -11.19288,25 -25,25"
         id="path4"
         inkscape:original-d="M 25,0 C 38.807119,0 50,11.192881 50,25 50,38.807119 38.807119,50 25,50"
         inkstitch:stroke_method="zigzag_stitch"
         sodipodi:nodetypes="ccc"
         inkscape:label="black" />
      <path
         style="fill:none;fill-rule:evenodd;stroke:#feba35;paint-order:markers stroke fill"
         d="M 25,0 C 25,13.807119 13.807119,25 0,25 13.807119,25 25,36.192881 25,50 M 75,0 C 75,13.807119 63.807119,25 50,25 63.807119,25 75,36.192881 75,50 M 125,0 c 0,13.807119 -11.19288,25 -25,25 13.80712,0 25,11.192881 25,25 M 175,0 c 0,13.807119 -11.19288,25 -25,25 13.80712,0 25,11.192881 25,25 M 25,50 C 25,63.807119 13.807119,75 0,75 13.807119,75 25,86.192881 25,100 M 75,50 c 0,13.807119 -11.192881,25 -25,25 13.807119,0 25,11.192881 25,25 m 50,-50 c 0,13.807119 -11.19288,25 -25,25 13.80712,0 25,11.192881 25,25 m 50,-50 c 0,13.807119 -11.19288,25 -25,25 13.80712,0 25,11.192881 25,25 m -150,0 c 0,13.80712 -11.192881,25 -25,25 13.807119,0 25,11.19288 25,25 m 50,-50 c 0,13.80712 -11.192881,25 -25,25 13.807119,0 25,11.19288 25,25 m 50,-50 c 0,13.80712 -11.19288,25 -25,25 13.80712,0 25,11.19288 25,25 m 50,-50 c 0,13.80712 -11.19288,25 -25,25 13.80712,0 25,11.19288 25,25 m -150,0 c 0,13.80712 -11.192881,25 -25,25 13.807119,0 25,11.19288 25,25 m 50,-50 c 0,13.80712 -11.192881,25 -25,25 13.807119,0 25,11.19288 25,25 m 50,-50 c 0,13.80712 -11.19288,25 -25,25 13.80712,0 25,11.19288 25,25 m 50,-50 c 0,13.80712 -11.19288,25 -25,25 13.80712,0 25,11.19288 25,25"
         id="path2"
         inkscape:original-d="M 25,0 C 25,13.807119 13.807119,25 0,25 13.807119,25 25,36.192881 25,50"
         inkstitch:stroke_method="zigzag_stitch"
         inkscape:label="orange"
         sodipodi:nodetypes="ccc" />
      <path
         style="fill:none;fill-rule:evenodd;stroke:#ffff00;paint-order:markers stroke fill"
         d="M 25,50 C 11.192881,50 0,38.807119 0,25 0,11.192881 11.192881,0 25,0 M 75,50 C 61.192881,50 50,38.807119 50,25 50,11.192881 61.192881,0 75,0 m 50,50 C 111.19288,50 100,38.807119 100,25 100,11.192881 111.19288,0 125,0 m 50,50 C 161.19288,50 150,38.807119 150,25 150,11.192881 161.19288,0 175,0 M 25,100 C 11.192881,100 0,88.807119 0,75 0,61.192881 11.192881,50 25,50 m 50,50 C 61.192881,100 50,88.807119 50,75 50,61.192881 61.192881,50 75,50 m 50,50 c -13.80712,0 -25,-11.192881 -25,-25 0,-13.807119 11.19288,-25 25,-25 m 50,50 c -13.80712,0 -25,-11.192881 -25,-25 0,-13.807119 11.19288,-25 25,-25 M 25,150 C 11.192881,150 0,138.80712 0,125 0,111.19288 11.192881,100 25,100 m 50,50 c -13.807119,0 -25,-11.19288 -25,-25 0,-13.80712 11.192881,-25 25,-25 m 50,50 c -13.80712,0 -25,-11.19288 -25,-25 0,-13.80712 11.19288,-25 25,-25 m 50,50 c -13.80712,0 -25,-11.19288 -25,-25 0,-13.80712 11.19288,-25 25,-25 M 25,200 C 11.192881,200 0,188.80712 0,175 0,161.19288 11.192881,150 25,150 m 50,50 c -13.807119,0 -25,-11.19288 -25,-25 0,-13.80712 11.192881,-25 25,-25 m 50,50 c -13.80712,0 -25,-11.19288 -25,-25 0,-13.80712 11.19288,-25 25,-25 m 50,50 c -13.80712,0 -25,-11.19288 -25,-25 0,-13.80712 11.19288,-25 25,-25"
         id="path7"
         inkscape:original-d="M 25,50 C 11.192881,50 0,38.807119 0,25 0,11.192881 11.192881,0 25,0"
         inkstitch:stroke_method="zigzag_stitch"
         sodipodi:nodetypes="ccc"
         inkscape:label="yellow" />
      <path
         style="fill:none;fill-rule:evenodd;stroke:#70bc1f;stroke-width:0.499999;paint-order:markers stroke fill"
         d="M 0,49.999997 25,24.999998 50,49.999997 m 0,0 25,-24.999999 25,24.999999 m 0,0 25,-24.999999 25,24.999999 m 0,0 25,-24.999999 25,24.999999 m -200,50 25,-24.999999 25,24.999999 m 0,0 25,-24.999999 25,24.999999 m 0,0 25,-24.999999 25,24.999999 m 0,0 25,-24.999999 25,24.999999 M 0,150 25,125 50,150 m 0,0 25,-25 25,25 m 0,0 25,-25 25,25 m 0,0 25,-25 25,25 M 0,200 25,175 50,200 m 0,0 25,-25 25,25 m 0,0 25,-25 25,25 m 0,0 25,-25 25,25"
         id="path13"
         inkscape:original-d="M 0,49.999997 25,24.999998 50,49.999997"
         inkstitch:stroke_method="zigzag_stitch"
         sodipodi:nodetypes="ccc"
         inkscape:label="green" />
      <path
         style="fill:none;fill-rule:evenodd;stroke:#fe370f;stroke-width:0.499999;paint-order:markers stroke fill"
         d="M 50,0 25,24.999998 0,0 M 100,0 75,24.999998 50,0 M 150,0 125,24.999998 100,0 M 200,0 175,24.999998 150,0 M 50,50 25,74.999998 0,50 M 100,50 75,74.999998 50,50 M 150,50 125,74.999998 100,50 M 200,50 175,74.999998 150,50 M 50,100 25,125 0,100 m 100,0 -25,25 -25,-25 m 100,0 -25,25 -25,-25 m 100,0 -25,25 -25,-25 M 50,150 25,175 0,150 m 100,0 -25,25 -25,-25 m 100,0 -25,25 -25,-25 m 100,0 -25,25 -25,-25"
         id="path11"
         inkscape:original-d="M 50,0 25,24.999998 0,0"
         sodipodi:nodetypes="ccc"
         inkstitch:stroke_method="zigzag_stitch"
         inkscape:label="red" />
    </g>
  </g>
  <g
     inkscape:groupmode="layer"
     id="g11"
     inkscape:label="Step 2 Flatten "
     class="UnoptimicedTransforms"
     style="display:none"
     transform="translate(5,4.6367744)">
    <g
       id="g10"
       inkscape:label="Group with tiling  LPE ">
      <path
         style="fill:none;fill-rule:evenodd;stroke:#0b3d91;paint-order:markers stroke fill"
         d="M 25,50 C 25,36.192881 36.192881,25 50,25 36.192881,25 25,13.807119 25,0 M 75,50 C 75,36.192881 86.192881,25 100,25 86.192881,25 75,13.807119 75,0 m 50,50 C 125,36.192881 136.19288,25 150,25 136.19288,25 125,13.807119 125,0 m 50,50 C 175,36.192881 186.19288,25 200,25 186.19288,25 175,13.807119 175,0 M 25,100 C 25,86.192881 36.192881,75 50,75 36.192881,75 25,63.807119 25,50 m 50,50 C 75,86.192881 86.192881,75 100,75 86.192881,75 75,63.807119 75,50 m 50,50 c 0,-13.807119 11.19288,-25 25,-25 -13.80712,0 -25,-11.192881 -25,-25 m 50,50 C 175,86.192881 186.19288,75 200,75 186.19288,75 175,63.807119 175,50 M 25,150 c 0,-13.80712 11.192881,-25 25,-25 -13.807119,0 -25,-11.19288 -25,-25 m 50,50 c 0,-13.80712 11.192881,-25 25,-25 -13.807119,0 -25,-11.19288 -25,-25 m 50,50 c 0,-13.80712 11.19288,-25 25,-25 -13.80712,0 -25,-11.19288 -25,-25 m 50,50 c 0,-13.80712 11.19288,-25 25,-25 -13.80712,0 -25,-11.19288 -25,-25 M 25,200 c 0,-13.80712 11.192881,-25 25,-25 -13.807119,0 -25,-11.19288 -25,-25 m 50,50 c 0,-13.80712 11.192881,-25 25,-25 -13.807119,0 -25,-11.19288 -25,-25 m 50,50 c 0,-13.80712 11.19288,-25 25,-25 -13.80712,0 -25,-11.19288 -25,-25 m 50,50 c 0,-13.80712 11.19288,-25 25,-25 -13.80712,0 -25,-11.19288 -25,-25"
         id="path1"
         inkstitch:stroke_method="zigzag_stitch"
         sodipodi:nodetypes="ccc"
         inkscape:label="blue" />
      <path
         style="fill:none;fill-rule:evenodd;stroke:#000000;paint-order:markers stroke fill"
         d="M 25,0 C 38.807119,0 50,11.192881 50,25 50,38.807119 38.807119,50 25,50 M 75,0 c 13.807119,0 25,11.192881 25,25 0,13.807119 -11.192881,25 -25,25 M 125,0 c 13.80712,0 25,11.192881 25,25 0,13.807119 -11.19288,25 -25,25 M 175,0 c 13.80712,0 25,11.192881 25,25 0,13.807119 -11.19288,25 -25,25 M 25,50 c 13.807119,0 25,11.192881 25,25 0,13.807119 -11.192881,25 -25,25 M 75,50 c 13.807119,0 25,11.192881 25,25 0,13.807119 -11.192881,25 -25,25 m 50,-50 c 13.80712,0 25,11.192881 25,25 0,13.807119 -11.19288,25 -25,25 m 50,-50 c 13.80712,0 25,11.192881 25,25 0,13.807119 -11.19288,25 -25,25 m -150,0 c 13.807119,0 25,11.19288 25,25 0,13.80712 -11.192881,25 -25,25 m 50,-50 c 13.807119,0 25,11.19288 25,25 0,13.80712 -11.192881,25 -25,25 m 50,-50 c 13.80712,0 25,11.19288 25,25 0,13.80712 -11.19288,25 -25,25 m 50,-50 c 13.80712,0 25,11.19288 25,25 0,13.80712 -11.19288,25 -25,25 m -150,0 c 13.807119,0 25,11.19288 25,25 0,13.80712 -11.192881,25 -25,25 m 50,-50 c 13.807119,0 25,11.19288 25,25 0,13.80712 -11.192881,25 -25,25 m 50,-50 c 13.80712,0 25,11.19288 25,25 0,13.80712 -11.19288,25 -25,25 m 50,-50 c 13.80712,0 25,11.19288 25,25 0,13.80712 -11.19288,25 -25,25"
         id="path3"
         inkstitch:stroke_method="zigzag_stitch"
         sodipodi:nodetypes="ccc"
         inkscape:label="black" />
      <path
         style="fill:none;fill-rule:evenodd;stroke:#feba35;paint-order:markers stroke fill"
         d="M 25,0 C 25,13.807119 13.807119,25 0,25 13.807119,25 25,36.192881 25,50 M 75,0 C 75,13.807119 63.807119,25 50,25 63.807119,25 75,36.192881 75,50 M 125,0 c 0,13.807119 -11.19288,25 -25,25 13.80712,0 25,11.192881 25,25 M 175,0 c 0,13.807119 -11.19288,25 -25,25 13.80712,0 25,11.192881 25,25 M 25,50 C 25,63.807119 13.807119,75 0,75 13.807119,75 25,86.192881 25,100 M 75,50 c 0,13.807119 -11.192881,25 -25,25 13.807119,0 25,11.192881 25,25 m 50,-50 c 0,13.807119 -11.19288,25 -25,25 13.80712,0 25,11.192881 25,25 m 50,-50 c 0,13.807119 -11.19288,25 -25,25 13.80712,0 25,11.192881 25,25 m -150,0 c 0,13.80712 -11.192881,25 -25,25 13.807119,0 25,11.19288 25,25 m 50,-50 c 0,13.80712 -11.192881,25 -25,25 13.807119,0 25,11.19288 25,25 m 50,-50 c 0,13.80712 -11.19288,25 -25,25 13.80712,0 25,11.19288 25,25 m 50,-50 c 0,13.80712 -11.19288,25 -25,25 13.80712,0 25,11.19288 25,25 m -150,0 c 0,13.80712 -11.192881,25 -25,25 13.807119,0 25,11.19288 25,25 m 50,-50 c 0,13.80712 -11.192881,25 -25,25 13.807119,0 25,11.19288 25,25 m 50,-50 c 0,13.80712 -11.19288,25 -25,25 13.80712,0 25,11.19288 25,25 m 50,-50 c 0,13.80712 -11.19288,25 -25,25 13.80712,0 25,11.19288 25,25"
         id="path5"
         inkstitch:stroke_method="zigzag_stitch"
         inkscape:label="orange"
         sodipodi:nodetypes="ccc" />
      <path
         style="fill:none;fill-rule:evenodd;stroke:#ffff00;paint-order:markers stroke fill"
         d="M 25,50 C 11.192881,50 0,38.807119 0,25 0,11.192881 11.192881,0 25,0 M 75,50 C 61.192881,50 50,38.807119 50,25 50,11.192881 61.192881,0 75,0 m 50,50 C 111.19288,50 100,38.807119 100,25 100,11.192881 111.19288,0 125,0 m 50,50 C 161.19288,50 150,38.807119 150,25 150,11.192881 161.19288,0 175,0 M 25,100 C 11.192881,100 0,88.807119 0,75 0,61.192881 11.192881,50 25,50 m 50,50 C 61.192881,100 50,88.807119 50,75 50,61.192881 61.192881,50 75,50 m 50,50 c -13.80712,0 -25,-11.192881 -25,-25 0,-13.807119 11.19288,-25 25,-25 m 50,50 c -13.80712,0 -25,-11.192881 -25,-25 0,-13.807119 11.19288,-25 25,-25 M 25,150 C 11.192881,150 0,138.80712 0,125 0,111.19288 11.192881,100 25,100 m 50,50 c -13.807119,0 -25,-11.19288 -25,-25 0,-13.80712 11.192881,-25 25,-25 m 50,50 c -13.80712,0 -25,-11.19288 -25,-25 0,-13.80712 11.19288,-25 25,-25 m 50,50 c -13.80712,0 -25,-11.19288 -25,-25 0,-13.80712 11.19288,-25 25,-25 M 25,200 C 11.192881,200 0,188.80712 0,175 0,161.19288 11.192881,150 25,150 m 50,50 c -13.807119,0 -25,-11.19288 -25,-25 0,-13.80712 11.192881,-25 25,-25 m 50,50 c -13.80712,0 -25,-11.19288 -25,-25 0,-13.80712 11.19288,-25 25,-25 m 50,50 c -13.80712,0 -25,-11.19288 -25,-25 0,-13.80712 11.19288,-25 25,-25"
         id="path8"
         inkstitch:stroke_method="zigzag_stitch"
         sodipodi:nodetypes="ccc"
         inkscape:label="yellow" />
      <path
         style="fill:none;fill-rule:evenodd;stroke:#70bc1f;stroke-width:0.499999;paint-order:markers stroke fill"
         d="M 0,49.999997 25,24.999998 50,49.999997 m 0,0 25,-24.999999 25,24.999999 m 0,0 25,-24.999999 25,24.999999 m 0,0 25,-24.999999 25,24.999999 m -200,50 25,-24.999999 25,24.999999 m 0,0 25,-24.999999 25,24.999999 m 0,0 25,-24.999999 25,24.999999 m 0,0 25,-24.999999 25,24.999999 M 0,150 25,125 50,150 m 0,0 25,-25 25,25 m 0,0 25,-25 25,25 m 0,0 25,-25 25,25 M 0,200 25,175 50,200 m 0,0 25,-25 25,25 m 0,0 25,-25 25,25 m 0,0 25,-25 25,25"
         id="path9"
         inkstitch:stroke_method="zigzag_stitch"
         sodipodi:nodetypes="ccc"
         inkscape:label="green" />
      <path
         style="fill:none;fill-rule:evenodd;stroke:#fe370f;stroke-width:0.499999;paint-order:markers stroke fill"
         d="M 50,0 25,24.999998 0,0 M 100,0 75,24.999998 50,0 M 150,0 125,24.999998 100,0 M 200,0 175,24.999998 150,0 M 50,50 25,74.999998 0,50 M 100,50 75,74.999998 50,50 M 150,50 125,74.999998 100,50 M 200,50 175,74.999998 150,50 M 50,100 25,125 0,100 m 100,0 -25,25 -25,-25 m 100,0 -25,25 -25,-25 m 100,0 -25,25 -25,-25 M 50,150 25,175 0,150 m 100,0 -25,25 -25,-25 m 100,0 -25,25 -25,-25 m 100,0 -25,25 -25,-25"
         id="path10"
         sodipodi:nodetypes="ccc"
         inkstitch:stroke_method="zigzag_stitch"
         inkscape:label="red" />
    </g>
  </g>
  <g
     inkscape:groupmode="layer"
     id="g19"
     inkscape:label="Step 3 Ungroup"
     class="UnoptimicedTransforms"
     style="display:none"
     transform="translate(5,4.6367744)">
    <path
       style="fill:none;fill-rule:evenodd;stroke:#0b3d91;paint-order:markers stroke fill"
       d="M 25,50 C 25,36.192881 36.192881,25 50,25 36.192881,25 25,13.807119 25,0 M 75,50 C 75,36.192881 86.192881,25 100,25 86.192881,25 75,13.807119 75,0 m 50,50 C 125,36.192881 136.19288,25 150,25 136.19288,25 125,13.807119 125,0 m 50,50 C 175,36.192881 186.19288,25 200,25 186.19288,25 175,13.807119 175,0 M 25,100 C 25,86.192881 36.192881,75 50,75 36.192881,75 25,63.807119 25,50 m 50,50 C 75,86.192881 86.192881,75 100,75 86.192881,75 75,63.807119 75,50 m 50,50 c 0,-13.807119 11.19288,-25 25,-25 -13.80712,0 -25,-11.192881 -25,-25 m 50,50 C 175,86.192881 186.19288,75 200,75 186.19288,75 175,63.807119 175,50 M 25,150 c 0,-13.80712 11.192881,-25 25,-25 -13.807119,0 -25,-11.19288 -25,-25 m 50,50 c 0,-13.80712 11.192881,-25 25,-25 -13.807119,0 -25,-11.19288 -25,-25 m 50,50 c 0,-13.80712 11.19288,-25 25,-25 -13.80712,0 -25,-11.19288 -25,-25 m 50,50 c 0,-13.80712 11.19288,-25 25,-25 -13.80712,0 -25,-11.19288 -25,-25 M 25,200 c 0,-13.80712 11.192881,-25 25,-25 -13.807119,0 -25,-11.19288 -25,-25 m 50,50 c 0,-13.80712 11.192881,-25 25,-25 -13.807119,0 -25,-11.19288 -25,-25 m 50,50 c 0,-13.80712 11.19288,-25 25,-25 -13.80712,0 -25,-11.19288 -25,-25 m 50,50 c 0,-13.80712 11.19288,-25 25,-25 -13.80712,0 -25,-11.19288 -25,-25"
       id="path12"
       inkstitch:stroke_method="zigzag_stitch"
       sodipodi:nodetypes="ccc"
       inkscape:label="blue" />
    <path
       style="fill:none;fill-rule:evenodd;stroke:#000000;paint-order:markers stroke fill"
       d="M 25,0 C 38.807119,0 50,11.192881 50,25 50,38.807119 38.807119,50 25,50 M 75,0 c 13.807119,0 25,11.192881 25,25 0,13.807119 -11.192881,25 -25,25 M 125,0 c 13.80712,0 25,11.192881 25,25 0,13.807119 -11.19288,25 -25,25 M 175,0 c 13.80712,0 25,11.192881 25,25 0,13.807119 -11.19288,25 -25,25 M 25,50 c 13.807119,0 25,11.192881 25,25 0,13.807119 -11.192881,25 -25,25 M 75,50 c 13.807119,0 25,11.192881 25,25 0,13.807119 -11.192881,25 -25,25 m 50,-50 c 13.80712,0 25,11.192881 25,25 0,13.807119 -11.19288,25 -25,25 m 50,-50 c 13.80712,0 25,11.192881 25,25 0,13.807119 -11.19288,25 -25,25 m -150,0 c 13.807119,0 25,11.19288 25,25 0,13.80712 -11.192881,25 -25,25 m 50,-50 c 13.807119,0 25,11.19288 25,25 0,13.80712 -11.192881,25 -25,25 m 50,-50 c 13.80712,0 25,11.19288 25,25 0,13.80712 -11.19288,25 -25,25 m 50,-50 c 13.80712,0 25,11.19288 25,25 0,13.80712 -11.19288,25 -25,25 m -150,0 c 13.807119,0 25,11.19288 25,25 0,13.80712 -11.192881,25 -25,25 m 50,-50 c 13.807119,0 25,11.19288 25,25 0,13.80712 -11.192881,25 -25,25 m 50,-50 c 13.80712,0 25,11.19288 25,25 0,13.80712 -11.19288,25 -25,25 m 50,-50 c 13.80712,0 25,11.19288 25,25 0,13.80712 -11.19288,25 -25,25"
       id="path14"
       inkstitch:stroke_method="zigzag_stitch"
       sodipodi:nodetypes="ccc"
       inkscape:label="black" />
    <path
       style="fill:none;fill-rule:evenodd;stroke:#feba35;paint-order:markers stroke fill"
       d="M 25,0 C 25,13.807119 13.807119,25 0,25 13.807119,25 25,36.192881 25,50 M 75,0 C 75,13.807119 63.807119,25 50,25 63.807119,25 75,36.192881 75,50 M 125,0 c 0,13.807119 -11.19288,25 -25,25 13.80712,0 25,11.192881 25,25 M 175,0 c 0,13.807119 -11.19288,25 -25,25 13.80712,0 25,11.192881 25,25 M 25,50 C 25,63.807119 13.807119,75 0,75 13.807119,75 25,86.192881 25,100 M 75,50 c 0,13.807119 -11.192881,25 -25,25 13.807119,0 25,11.192881 25,25 m 50,-50 c 0,13.807119 -11.19288,25 -25,25 13.80712,0 25,11.192881 25,25 m 50,-50 c 0,13.807119 -11.19288,25 -25,25 13.80712,0 25,11.192881 25,25 m -150,0 c 0,13.80712 -11.192881,25 -25,25 13.807119,0 25,11.19288 25,25 m 50,-50 c 0,13.80712 -11.192881,25 -25,25 13.807119,0 25,11.19288 25,25 m 50,-50 c 0,13.80712 -11.19288,25 -25,25 13.80712,0 25,11.19288 25,25 m 50,-50 c 0,13.80712 -11.19288,25 -25,25 13.80712,0 25,11.19288 25,25 m -150,0 c 0,13.80712 -11.192881,25 -25,25 13.807119,0 25,11.19288 25,25 m 50,-50 c 0,13.80712 -11.192881,25 -25,25 13.807119,0 25,11.19288 25,25 m 50,-50 c 0,13.80712 -11.19288,25 -25,25 13.80712,0 25,11.19288 25,25 m 50,-50 c 0,13.80712 -11.19288,25 -25,25 13.80712,0 25,11.19288 25,25"
       id="path15"
       inkstitch:stroke_method="zigzag_stitch"
       inkscape:label="orange"
       sodipodi:nodetypes="ccc" />
    <path
       style="fill:none;fill-rule:evenodd;stroke:#ffff00;paint-order:markers stroke fill"
       d="M 25,50 C 11.192881,50 0,38.807119 0,25 0,11.192881 11.192881,0 25,0 M 75,50 C 61.192881,50 50,38.807119 50,25 50,11.192881 61.192881,0 75,0 m 50,50 C 111.19288,50 100,38.807119 100,25 100,11.192881 111.19288,0 125,0 m 50,50 C 161.19288,50 150,38.807119 150,25 150,11.192881 161.19288,0 175,0 M 25,100 C 11.192881,100 0,88.807119 0,75 0,61.192881 11.192881,50 25,50 m 50,50 C 61.192881,100 50,88.807119 50,75 50,61.192881 61.192881,50 75,50 m 50,50 c -13.80712,0 -25,-11.192881 -25,-25 0,-13.807119 11.19288,-25 25,-25 m 50,50 c -13.80712,0 -25,-11.192881 -25,-25 0,-13.807119 11.19288,-25 25,-25 M 25,150 C 11.192881,150 0,138.80712 0,125 0,111.19288 11.192881,100 25,100 m 50,50 c -13.807119,0 -25,-11.19288 -25,-25 0,-13.80712 11.192881,-25 25,-25 m 50,50 c -13.80712,0 -25,-11.19288 -25,-25 0,-13.80712 11.19288,-25 25,-25 m 50,50 c -13.80712,0 -25,-11.19288 -25,-25 0,-13.80712 11.19288,-25 25,-25 M 25,200 C 11.192881,200 0,188.80712 0,175 0,161.19288 11.192881,150 25,150 m 50,50 c -13.807119,0 -25,-11.19288 -25,-25 0,-13.80712 11.192881,-25 25,-25 m 50,50 c -13.80712,0 -25,-11.19288 -25,-25 0,-13.80712 11.19288,-25 25,-25 m 50,50 c -13.80712,0 -25,-11.19288 -25,-25 0,-13.80712 11.19288,-25 25,-25"
       id="path16"
       inkstitch:stroke_method="zigzag_stitch"
       sodipodi:nodetypes="ccc"
       inkscape:label="yellow" />
    <path
       style="fill:none;fill-rule:evenodd;stroke:#70bc1f;stroke-width:0.499999;paint-order:markers stroke fill"
       d="M 0,49.999997 25,24.999998 50,49.999997 m 0,0 25,-24.999999 25,24.999999 m 0,0 25,-24.999999 25,24.999999 m 0,0 25,-24.999999 25,24.999999 m -200,50 25,-24.999999 25,24.999999 m 0,0 25,-24.999999 25,24.999999 m 0,0 25,-24.999999 25,24.999999 m 0,0 25,-24.999999 25,24.999999 M 0,150 25,125 50,150 m 0,0 25,-25 25,25 m 0,0 25,-25 25,25 m 0,0 25,-25 25,25 M 0,200 25,175 50,200 m 0,0 25,-25 25,25 m 0,0 25,-25 25,25 m 0,0 25,-25 25,25"
       id="path17"
       inkstitch:stroke_method="zigzag_stitch"
       sodipodi:nodetypes="ccc"
       inkscape:label="green" />
    <path
       style="fill:none;fill-rule:evenodd;stroke:#fe370f;stroke-width:0.499999;paint-order:markers stroke fill"
       d="M 50,0 25,24.999998 0,0 M 100,0 75,24.999998 50,0 M 150,0 125,24.999998 100,0 M 200,0 175,24.999998 150,0 M 50,50 25,74.999998 0,50 M 100,50 75,74.999998 50,50 M 150,50 125,74.999998 100,50 M 200,50 175,74.999998 150,50 M 50,100 25,125 0,100 m 100,0 -25,25 -25,-25 m 100,0 -25,25 -25,-25 m 100,0 -25,25 -25,-25 M 50,150 25,175 0,150 m 100,0 -25,25 -25,-25 m 100,0 -25,25 -25,-25 m 100,0 -25,25 -25,-25"
       id="path18"
       sodipodi:nodetypes="ccc"
       inkstitch:stroke_method="zigzag_stitch"
       inkscape:label="red" />
  </g>
  <g
     inkscape:groupmode="layer"
     id="g24"
     inkscape:label="Step 4 : join superposed nodes color by color"
     class="UnoptimicedTransforms"
     style="display:none"
     transform="translate(5,4.6367744)">
    <path
       style="display:none;fill:none;fill-rule:evenodd;stroke:#0b3d91;paint-order:markers stroke fill"
       d="M 25,200 C 25,186.19288 36.192881,175 50,175 36.192881,175 25,163.80712 25,150 25,136.19288 36.192881,125 50,125 36.192881,125 25,113.80712 25,100 25,86.192881 36.192881,75 50,75 36.192881,75 25,63.807119 25,50 25,36.192881 36.192881,25 50,25 36.192881,25 25,13.807119 25,0 m 50,200 c 0,-13.80712 11.192881,-25 25,-25 -13.807119,0 -25,-11.19288 -25,-25 0,-13.80712 11.192881,-25 25,-25 C 86.192881,125 75,113.80712 75,100 75,86.192881 86.192881,75 100,75 86.192881,75 75,63.807119 75,50 75,36.192881 86.192881,25 100,25 86.192881,25 75,13.807119 75,0 m 50,200 c 0,-13.80712 11.19288,-25 25,-25 -13.80712,0 -25,-11.19288 -25,-25 0,-13.80712 11.19288,-25 25,-25 -13.80712,0 -25,-11.19288 -25,-25 0,-13.807119 11.19288,-25 25,-25 -13.80712,0 -25,-11.192881 -25,-25 0,-13.807119 11.19288,-25 25,-25 -13.80712,0 -25,-11.192881 -25,-25 m 50,200 c 0,-13.80712 11.19288,-25 25,-25 -13.80712,0 -25,-11.19288 -25,-25 0,-13.80712 11.19288,-25 25,-25 -13.80712,0 -25,-11.19288 -25,-25 0,-13.807119 11.19288,-25 25,-25 -13.80712,0 -25,-11.192881 -25,-25 0,-13.807119 11.19288,-25 25,-25 -13.80712,0 -25,-11.192881 -25,-25"
       id="path19"
       inkstitch:stroke_method="zigzag_stitch"
       sodipodi:nodetypes="cccccccccccccccccccccccccccccccccccc"
       inkscape:label="blue" />
    <path
       style="display:inline;fill:none;fill-rule:evenodd;stroke:#000000;paint-order:markers stroke fill"
       d="m 25,0 c 13.807119,0 25,11.192881 25,25 0,13.807119 -11.192881,25 -25,25 13.807119,0 25,11.192881 25,25 0,13.807119 -11.192881,25 -25,25 13.807119,0 25,11.19288 25,25 0,13.80712 -11.192881,25 -25,25 13.807119,0 25,11.19288 25,25 0,13.80712 -11.192881,25 -25,25 M 75,0 c 13.807119,0 25,11.192881 25,25 0,13.807119 -11.192881,25 -25,25 13.807119,0 25,11.192881 25,25 0,13.807119 -11.192881,25 -25,25 13.807119,0 25,11.19288 25,25 0,13.80712 -11.192881,25 -25,25 13.807119,0 25,11.19288 25,25 0,13.80712 -11.192881,25 -25,25 M 125,0 c 13.80712,0 25,11.192881 25,25 0,13.807119 -11.19288,25 -25,25 13.80712,0 25,11.192881 25,25 0,13.807119 -11.19288,25 -25,25 13.80712,0 25,11.19288 25,25 0,13.80712 -11.19288,25 -25,25 13.80712,0 25,11.19288 25,25 0,13.80712 -11.19288,25 -25,25 M 175,0 c 13.80712,0 25,11.192881 25,25 0,13.807119 -11.19288,25 -25,25 13.80712,0 25,11.192881 25,25 0,13.807119 -11.19288,25 -25,25 13.80712,0 25,11.19288 25,25 0,13.80712 -11.19288,25 -25,25 13.80712,0 25,11.19288 25,25 0,13.80712 -11.19288,25 -25,25"
       id="path20"
       inkstitch:stroke_method="zigzag_stitch"
       sodipodi:nodetypes="cccscscsccscscscsccscscscsccscscscsc"
       inkscape:label="black" />
    <path
       style="display:none;fill:none;fill-rule:evenodd;stroke:#feba35;paint-order:markers stroke fill"
       d="M 25,0 C 25,13.807119 13.807119,25 0,25 13.807119,25 25,36.192881 25,50 25,63.807119 13.807119,75 0,75 c 13.807119,0 25,11.192881 25,25 0,13.80712 -11.192881,25 -25,25 13.807119,0 25,11.19288 25,25 0,13.80712 -11.192881,25 -25,25 13.807119,0 25,11.19288 25,25 M 75,0 c 0,13.807119 -11.192881,25 -25,25 13.807119,0 25,11.192881 25,25 0,13.807119 -11.192881,25 -25,25 13.807119,0 25,11.192881 25,25 0,13.80712 -11.192881,25 -25,25 13.807119,0 25,11.19288 25,25 0,13.80712 -11.192881,25 -25,25 13.807119,0 25,11.19288 25,25 M 125,0 c 0,13.807119 -11.19288,25 -25,25 13.80712,0 25,11.192881 25,25 0,13.807119 -11.19288,25 -25,25 13.80712,0 25,11.192881 25,25 0,13.80712 -11.19288,25 -25,25 13.80712,0 25,11.19288 25,25 0,13.80712 -11.19288,25 -25,25 13.80712,0 25,11.19288 25,25 M 175,0 c 0,13.807119 -11.19288,25 -25,25 13.80712,0 25,11.192881 25,25 0,13.807119 -11.19288,25 -25,25 13.80712,0 25,11.192881 25,25 0,13.80712 -11.19288,25 -25,25 13.80712,0 25,11.19288 25,25 0,13.80712 -11.19288,25 -25,25 13.80712,0 25,11.19288 25,25"
       id="path21"
       inkstitch:stroke_method="zigzag_stitch"
       inkscape:label="orange"
       sodipodi:nodetypes="cccccccccccccccccccccccccccccccccccc" />
    <path
       style="display:none;fill:none;fill-rule:evenodd;stroke:#ffff00;paint-order:markers stroke fill"
       d="M 25,200 C 11.192881,200 0,188.80712 0,175 0,161.19288 11.192881,150 25,150 11.192881,150 0,138.80712 0,125 0,111.19288 11.192881,100 25,100 11.192881,100 0,88.807119 0,75 0,61.192881 11.192881,50 25,50 11.192881,50 0,38.807119 0,25 0,11.192881 11.192881,0 25,0 M 75,200 C 61.192881,200 50,188.80712 50,175 50,161.19288 61.192881,150 75,150 61.192881,150 50,138.80712 50,125 50,111.19288 61.192881,100 75,100 61.192881,100 50,88.807119 50,75 50,61.192881 61.192881,50 75,50 61.192881,50 50,38.807119 50,25 50,11.192881 61.192881,0 75,0 m 50,200 c -13.80712,0 -25,-11.19288 -25,-25 0,-13.80712 11.19288,-25 25,-25 -13.80712,0 -25,-11.19288 -25,-25 0,-13.80712 11.19288,-25 25,-25 -13.80712,0 -25,-11.192881 -25,-25 0,-13.807119 11.19288,-25 25,-25 -13.80712,0 -25,-11.192881 -25,-25 0,-13.807119 11.19288,-25 25,-25 m 50,200 c -13.80712,0 -25,-11.19288 -25,-25 0,-13.80712 11.19288,-25 25,-25 -13.80712,0 -25,-11.19288 -25,-25 0,-13.80712 11.19288,-25 25,-25 -13.80712,0 -25,-11.192881 -25,-25 0,-13.807119 11.19288,-25 25,-25 -13.80712,0 -25,-11.192881 -25,-25 0,-13.807119 11.19288,-25 25,-25"
       id="path22"
       inkstitch:stroke_method="zigzag_stitch"
       sodipodi:nodetypes="cscscsccccscscscsccscscscsccscscscsc"
       inkscape:label="yellow" />
    <path
       style="display:none;fill:none;fill-rule:evenodd;stroke:#70bc1f;stroke-width:0.499999;paint-order:markers stroke fill"
       d="m 0,49.999997 25,-24.999999 25,24.999999 25,-24.999999 25,24.999999 25,-24.999999 25,24.999999 25,-24.999999 25,24.999999 m -200,50 25,-24.999999 25,24.999999 25,-24.999999 25,24.999999 25,-24.999999 25,24.999999 25,-24.999999 25,24.999999 M 0,150 l 25,-25 25,25 25,-25 25,25 25,-25 25,25 25,-25 25,25 m -200,50 25,-25 25,25 25,-25 25,25 25,-25 25,25 25,-25 25,25"
       id="path23"
       inkstitch:stroke_method="zigzag_stitch"
       sodipodi:nodetypes="cccccccccccccccccccccccccccccccccccc"
       inkscape:label="green" />
    <path
       style="display:none;fill:none;fill-rule:evenodd;stroke:#fe370f;stroke-width:0.499999;paint-order:markers stroke fill"
       d="M 200,0 175,24.999998 150,0 125,24.999998 100,0 75,24.999998 50,0 25,24.999998 0,0 M 200,50 175,74.999998 150,50 125,74.999998 100,50 75,74.999998 50,50 25,74.999998 0,50 m 200,50 -25,25 -25,-25 -25,25 L 100,100 75,125 50,100 25,125 0,100 m 200,50 -25,25 -25,-25 -25,25 L 100,150 75,175 50,150 25,175 0,150"
       id="path24"
       sodipodi:nodetypes="cccccccccccccccccccccccccccccccccccc"
       inkstitch:stroke_method="zigzag_stitch"
       inkscape:label="red" />
  </g>
  <g
     inkscape:groupmode="layer"
     id="g36"
     inkscape:label="Step 5 : join colors two by two"
     class="UnoptimicedTransforms"
     style="display:none"
     transform="translate(5,4.6367744)">
    <g
       id="g37"
       inkscape:label="black blue"
       style="display:inline">
      <path
         style="display:inline;fill:none;fill-rule:evenodd;stroke:#0b3d91;paint-order:markers stroke fill"
         d="M 25,200 C 25,186.19288 36.192881,175 50,175 36.192881,175 25,163.80712 25,150 25,136.19288 36.192881,125 50,125 36.192881,125 25,113.80712 25,100 25,86.192881 36.192881,75 50,75 36.192881,75 25,63.807119 25,50 25,36.192881 36.192881,25 50,25 36.192881,25 25,13.807119 25,0 38.807119,0 50,11.192881 50,25 50,38.807119 38.807119,50 25,50 c 13.807119,0 25,11.192881 25,25 0,13.807119 -11.192881,25 -25,25 13.807119,0 25,11.19288 25,25 0,13.80712 -11.192881,25 -25,25 13.807119,0 25,11.19288 25,25 0,13.80712 -11.192881,25 -25,25 m 50,0 c 0,-13.80712 11.192881,-25 25,-25 -13.807119,0 -25,-11.19288 -25,-25 0,-13.80712 11.192881,-25 25,-25 C 86.192881,125 75,113.80712 75,100 75,86.192881 86.192881,75 100,75 86.192881,75 75,63.807119 75,50 75,36.192881 86.192881,25 100,25 86.192881,25 75,13.807119 75,0 c 13.807119,0 25,11.192881 25,25 0,13.807119 -11.192881,25 -25,25 13.807119,0 25,11.192881 25,25 0,13.807119 -11.192881,25 -25,25 13.807119,0 25,11.19288 25,25 0,13.80712 -11.192881,25 -25,25 13.807119,0 25,11.19288 25,25 0,13.80712 -11.192881,25 -25,25 m 50,0 c 0,-13.80712 11.19288,-25 25,-25 -13.80712,0 -25,-11.19288 -25,-25 0,-13.80712 11.19288,-25 25,-25 -13.80712,0 -25,-11.19288 -25,-25 0,-13.807119 11.19288,-25 25,-25 -13.80712,0 -25,-11.192881 -25,-25 0,-13.807119 11.19288,-25 25,-25 -13.80712,0 -25,-11.192881 -25,-25 13.80712,0 25,11.192881 25,25 0,13.807119 -11.19288,25 -25,25 13.80712,0 25,11.192881 25,25 0,13.807119 -11.19288,25 -25,25 13.80712,0 25,11.19288 25,25 0,13.80712 -11.19288,25 -25,25 13.80712,0 25,11.19288 25,25 0,13.80712 -11.19288,25 -25,25 m 50,0 c 0,-13.80712 11.19288,-25 25,-25 -13.80712,0 -25,-11.19288 -25,-25 0,-13.80712 11.19288,-25 25,-25 -13.80712,0 -25,-11.19288 -25,-25 0,-13.807119 11.19288,-25 25,-25 -13.80712,0 -25,-11.192881 -25,-25 0,-13.807119 11.19288,-25 25,-25 -13.80712,0 -25,-11.192881 -25,-25 13.80712,0 25,11.192881 25,25 0,13.807119 -11.19288,25 -25,25 13.80712,0 25,11.192881 25,25 0,13.807119 -11.19288,25 -25,25 13.80712,0 25,11.19288 25,25 0,13.80712 -11.19288,25 -25,25 13.80712,0 25,11.19288 25,25 0,13.80712 -11.19288,25 -25,25"
         id="path92"
         inkstitch:stroke_method="zigzag_stitch"
         sodipodi:nodetypes="cccccccccccscscsccccccccccscscscsccccccccccscscscsccccccccccscscscsc"
         inkscape:label="blue" />
    </g>
    <g
       id="g38"
       inkscape:label="red green"
       style="display:inline">
      <path
         style="display:inline;fill:none;fill-rule:evenodd;stroke:#70bc1f;stroke-width:0.499999;paint-order:markers stroke fill"
         d="m 0,200 25,-25 25,25 25,-25 25,25 25,-25 25,25 25,-25 25,25"
         id="path35"
         inkstitch:stroke_method="zigzag_stitch"
         sodipodi:nodetypes="ccccccccc"
         inkscape:label="green" />
      <path
         style="display:inline;fill:none;fill-rule:evenodd;stroke:#fe370f;stroke-width:0.499999;paint-order:markers stroke fill"
         d="M 200,0 175,24.999998 150,0 125,24.999998 100,0 75,24.999998 50,0 25,24.999998 0,0 M 200,50 175,74.999998 150,50 125,74.999998 100,50 75,74.999998 50,50 25,74.999998 0,49.999999 25,24.999998 50,49.999997 75,24.999998 l 25,24.999999 25,-24.999999 25,24.999999 25,-24.999999 25,24.999999 M 200,100 175,125 150,100 125,125 100,100 75,125 50,100 25,125 0,99.999999 25,74.999998 50,99.999997 75,74.999998 l 25,24.999999 25,-24.999999 25,24.999999 25,-24.999999 25,24.999999 M 200,150 175,175 150,150 125,175 100,150 75,175 50,150 25,175 0,150 l 25,-25 25,25 25,-25 25,25 25,-25 25,25 25,-25 25,25"
         id="path36"
         sodipodi:nodetypes="cccccccccccccccccccccccccccccccccccccccccccccccccccccccccccc"
         inkstitch:stroke_method="zigzag_stitch"
         inkscape:label="red" />
    </g>
    <g
       id="g39"
       inkscape:label="yellow orange"
       style="display:inline">
      <path
         style="display:inline;fill:none;fill-rule:evenodd;stroke:#feba35;paint-order:markers stroke fill"
         d="M 25,0 C 25,13.807119 13.807119,25 0,25 13.807119,25 25,36.192881 25,50 25,63.807119 13.807119,75 0,75 c 13.807119,0 25,11.192881 25,25 0,13.80712 -11.192881,25 -25,25 13.807119,0 25,11.19288 25,25 0,13.80712 -11.192881,25 -25,25 13.807119,0 25,11.19288 25,25 C 11.192881,200 0,188.80712 0,175 0,161.19288 11.192881,150 25,150 11.192881,150 0,138.80712 0,125 0,111.19288 11.192881,100 25,100 11.192881,100 0,88.807119 0,75 0,61.192881 11.192881,50 25,50 11.192881,50 0,38.807119 0,25 0,11.192881 11.192881,0 25,0 m 50,0 c 0,13.807119 -11.192881,25 -25,25 13.807119,0 25,11.192881 25,25 0,13.807119 -11.192881,25 -25,25 13.807119,0 25,11.192881 25,25 0,13.80712 -11.192881,25 -25,25 13.807119,0 25,11.19288 25,25 0,13.80712 -11.192881,25 -25,25 13.807119,0 25,11.19288 25,25 C 61.192881,200 50,188.80712 50,175 50,161.19288 61.192881,150 75,150 61.192881,150 50,138.80712 50,125 50,111.19288 61.192881,100 75,100 61.192881,100 50,88.807119 50,75 50,61.192881 61.192881,50 75,50 61.192881,50 50,38.807119 50,25 50,11.192881 61.192881,0 75,0 m 50,0 c 0,13.807119 -11.19288,25 -25,25 13.80712,0 25,11.192881 25,25 0,13.807119 -11.19288,25 -25,25 13.80712,0 25,11.192881 25,25 0,13.80712 -11.19288,25 -25,25 13.80712,0 25,11.19288 25,25 0,13.80712 -11.19288,25 -25,25 13.80712,0 25,11.19288 25,25 -13.80712,0 -25,-11.19288 -25,-25 0,-13.80712 11.19288,-25 25,-25 -13.80712,0 -25,-11.19288 -25,-25 0,-13.80712 11.19288,-25 25,-25 -13.80712,0 -25,-11.192881 -25,-25 0,-13.807119 11.19288,-25 25,-25 -13.80712,0 -25,-11.192881 -25,-25 0,-13.807119 11.19288,-25 25,-25 m 50,0 c 0,13.807119 -11.19288,25 -25,25 13.80712,0 25,11.192881 25,25 0,13.807119 -11.19288,25 -25,25 13.80712,0 25,11.192881 25,25 0,13.80712 -11.19288,25 -25,25 13.80712,0 25,11.19288 25,25 0,13.80712 -11.19288,25 -25,25 13.80712,0 25,11.19288 25,25 -13.80712,0 -25,-11.19288 -25,-25 0,-13.80712 11.19288,-25 25,-25 -13.80712,0 -25,-11.19288 -25,-25 0,-13.80712 11.19288,-25 25,-25 -13.80712,0 -25,-11.192881 -25,-25 0,-13.807119 11.19288,-25 25,-25 -13.80712,0 -25,-11.192881 -25,-25 0,-13.807119 11.19288,-25 25,-25"
         id="path33"
         inkstitch:stroke_method="zigzag_stitch"
         inkscape:label="orange"
         sodipodi:nodetypes="cccccccccscscsccccccccccccscscscsccccccccccscscscsccccccccccscscscsc" />
    </g>
  </g>
  <g
     inkscape:groupmode="layer"
     id="g100"
     inkscape:label="Step 6 : Separate"
     class="UnoptimicedTransforms"
     style="display:none"
     transform="translate(5,4.6367744)">
    <g
       id="g96"
       inkscape:label="black blue"
       style="display:inline">
      <path
         style="display:inline;fill:none;fill-rule:evenodd;stroke:#0b3d91;paint-order:markers stroke fill"
         d="m 175,200 c 0,-13.80712 11.19288,-25 25,-25 -13.80712,0 -25,-11.19288 -25,-25 0,-13.80712 11.19288,-25 25,-25 -13.80712,0 -25,-11.19288 -25,-25 0,-13.807119 11.19288,-25 25,-25 -13.80712,0 -25,-11.192881 -25,-25 0,-13.807119 11.19288,-25 25,-25 -13.80712,0 -25,-11.192881 -25,-25 13.80712,0 25,11.192881 25,25 0,13.807119 -11.19288,25 -25,25 13.80712,0 25,11.192881 25,25 0,13.807119 -11.19288,25 -25,25 13.80712,0 25,11.19288 25,25 0,13.80712 -11.19288,25 -25,25 13.80712,0 25,11.19288 25,25 0,13.80712 -11.19288,25 -25,25"
         id="path108" />
      <path
         style="display:inline;fill:none;fill-rule:evenodd;stroke:#0b3d91;paint-order:markers stroke fill"
         d="m 125,200 c 0,-13.80712 11.19288,-25 25,-25 -13.80712,0 -25,-11.19288 -25,-25 0,-13.80712 11.19288,-25 25,-25 -13.80712,0 -25,-11.19288 -25,-25 0,-13.807119 11.19288,-25 25,-25 -13.80712,0 -25,-11.192881 -25,-25 0,-13.807119 11.19288,-25 25,-25 -13.80712,0 -25,-11.192881 -25,-25 13.80712,0 25,11.192881 25,25 0,13.807119 -11.19288,25 -25,25 13.80712,0 25,11.192881 25,25 0,13.807119 -11.19288,25 -25,25 13.80712,0 25,11.19288 25,25 0,13.80712 -11.19288,25 -25,25 13.80712,0 25,11.19288 25,25 0,13.80712 -11.19288,25 -25,25"
         id="path107" />
      <path
         style="display:inline;fill:none;fill-rule:evenodd;stroke:#0b3d91;paint-order:markers stroke fill"
         d="m 75,200 c 0,-13.80712 11.192881,-25 25,-25 -13.807119,0 -25,-11.19288 -25,-25 0,-13.80712 11.192881,-25 25,-25 C 86.192881,125 75,113.80712 75,100 75,86.192881 86.192881,75 100,75 86.192881,75 75,63.807119 75,50 75,36.192881 86.192881,25 100,25 86.192881,25 75,13.807119 75,0 c 13.807119,0 25,11.192881 25,25 0,13.807119 -11.192881,25 -25,25 13.807119,0 25,11.192881 25,25 0,13.807119 -11.192881,25 -25,25 13.807119,0 25,11.19288 25,25 0,13.80712 -11.192881,25 -25,25 13.807119,0 25,11.19288 25,25 0,13.80712 -11.192881,25 -25,25"
         id="path106" />
      <path
         style="display:inline;fill:none;fill-rule:evenodd;stroke:#0b3d91;paint-order:markers stroke fill"
         d="M 25,200 C 25,186.19288 36.192881,175 50,175 36.192881,175 25,163.80712 25,150 25,136.19288 36.192881,125 50,125 36.192881,125 25,113.80712 25,100 25,86.192881 36.192881,75 50,75 36.192881,75 25,63.807119 25,50 25,36.192881 36.192881,25 50,25 36.192881,25 25,13.807119 25,0 38.807119,0 50,11.192881 50,25 50,38.807119 38.807119,50 25,50 c 13.807119,0 25,11.192881 25,25 0,13.807119 -11.192881,25 -25,25 13.807119,0 25,11.19288 25,25 0,13.80712 -11.192881,25 -25,25 13.807119,0 25,11.19288 25,25 0,13.80712 -11.192881,25 -25,25"
         id="path96" />
    </g>
    <g
       id="g98"
       inkscape:label="red green"
       style="display:inline">
      <path
         style="display:inline;fill:none;fill-rule:evenodd;stroke:#70bc1f;stroke-width:0.499999;paint-order:markers stroke fill"
         d="m 0,200 25,-25 25,25 25,-25 25,25 25,-25 25,25 25,-25 25,25"
         id="path97" />
      <path
         style="display:inline;fill:none;fill-rule:evenodd;stroke:#fe370f;stroke-width:0.499999;paint-order:markers stroke fill"
         d="m 200,150 -25,25 -25,-25 -25,25 -25,-25 -25,25 -25,-25 -25,25 -25,-25 25,-25 25,25 25,-25 25,25 25,-25 25,25 25,-25 25,25"
         id="path105" />
      <path
         style="display:inline;fill:none;fill-rule:evenodd;stroke:#fe370f;stroke-width:0.499999;paint-order:markers stroke fill"
         d="M 200,100 175,125 150,100 125,125 100,100 75,125 50,100 25,125 0,99.999999 25,74.999998 50,99.999997 75,74.999998 l 25,24.999999 25,-24.999999 25,24.999999 25,-24.999999 25,24.999999"
         id="path104" />
      <path
         style="display:inline;fill:none;fill-rule:evenodd;stroke:#fe370f;stroke-width:0.499999;paint-order:markers stroke fill"
         d="M 200,50 175,74.999998 150,50 125,74.999998 100,50 75,74.999998 50,50 25,74.999998 0,49.999999 25,24.999998 50,49.999997 75,24.999998 l 25,24.999999 25,-24.999999 25,24.999999 25,-24.999999 25,24.999999"
         id="path103" />
      <path
         style="display:inline;fill:none;fill-rule:evenodd;stroke:#fe370f;stroke-width:0.499999;paint-order:markers stroke fill"
         d="M 200,0 175,24.999998 150,0 125,24.999998 100,0 75,24.999998 50,0 25,24.999998 0,0"
         id="path98" />
    </g>
    <g
       id="g99"
       inkscape:label="yellow orange"
       style="display:inline">
      <path
         style="display:inline;fill:none;fill-rule:evenodd;stroke:#feba35;paint-order:markers stroke fill"
         d="m 175,0 c 0,13.807119 -11.19288,25 -25,25 13.80712,0 25,11.192881 25,25 0,13.807119 -11.19288,25 -25,25 13.80712,0 25,11.192881 25,25 0,13.80712 -11.19288,25 -25,25 13.80712,0 25,11.19288 25,25 0,13.80712 -11.19288,25 -25,25 13.80712,0 25,11.19288 25,25 -13.80712,0 -25,-11.19288 -25,-25 0,-13.80712 11.19288,-25 25,-25 -13.80712,0 -25,-11.19288 -25,-25 0,-13.80712 11.19288,-25 25,-25 -13.80712,0 -25,-11.192881 -25,-25 0,-13.807119 11.19288,-25 25,-25 -13.80712,0 -25,-11.192881 -25,-25 0,-13.807119 11.19288,-25 25,-25"
         id="path102" />
      <path
         style="display:inline;fill:none;fill-rule:evenodd;stroke:#feba35;paint-order:markers stroke fill"
         d="m 125,0 c 0,13.807119 -11.19288,25 -25,25 13.80712,0 25,11.192881 25,25 0,13.807119 -11.19288,25 -25,25 13.80712,0 25,11.192881 25,25 0,13.80712 -11.19288,25 -25,25 13.80712,0 25,11.19288 25,25 0,13.80712 -11.19288,25 -25,25 13.80712,0 25,11.19288 25,25 -13.80712,0 -25,-11.19288 -25,-25 0,-13.80712 11.19288,-25 25,-25 -13.80712,0 -25,-11.19288 -25,-25 0,-13.80712 11.19288,-25 25,-25 -13.80712,0 -25,-11.192881 -25,-25 0,-13.807119 11.19288,-25 25,-25 -13.80712,0 -25,-11.192881 -25,-25 0,-13.807119 11.19288,-25 25,-25"
         id="path101" />
      <path
         style="display:inline;fill:none;fill-rule:evenodd;stroke:#feba35;paint-order:markers stroke fill"
         d="m 75,0 c 0,13.807119 -11.192881,25 -25,25 13.807119,0 25,11.192881 25,25 0,13.807119 -11.192881,25 -25,25 13.807119,0 25,11.192881 25,25 0,13.80712 -11.192881,25 -25,25 13.807119,0 25,11.19288 25,25 0,13.80712 -11.192881,25 -25,25 13.807119,0 25,11.19288 25,25 C 61.192881,200 50,188.80712 50,175 50,161.19288 61.192881,150 75,150 61.192881,150 50,138.80712 50,125 50,111.19288 61.192881,100 75,100 61.192881,100 50,88.807119 50,75 50,61.192881 61.192881,50 75,50 61.192881,50 50,38.807119 50,25 50,11.192881 61.192881,0 75,0"
         id="path100" />
      <path
         style="display:inline;fill:none;fill-rule:evenodd;stroke:#feba35;paint-order:markers stroke fill"
         d="M 25,0 C 25,13.807119 13.807119,25 0,25 13.807119,25 25,36.192881 25,50 25,63.807119 13.807119,75 0,75 c 13.807119,0 25,11.192881 25,25 0,13.80712 -11.192881,25 -25,25 13.807119,0 25,11.19288 25,25 0,13.80712 -11.192881,25 -25,25 13.807119,0 25,11.19288 25,25 C 11.192881,200 0,188.80712 0,175 0,161.19288 11.192881,150 25,150 11.192881,150 0,138.80712 0,125 0,111.19288 11.192881,100 25,100 11.192881,100 0,88.807119 0,75 0,61.192881 11.192881,50 25,50 11.192881,50 0,38.807119 0,25 0,11.192881 11.192881,0 25,0"
         id="path99" />
    </g>
  </g>
  <g
     inkscape:groupmode="layer"
     id="g122"
     inkscape:label="Step 7 : Order within groups and order the groups"
     class="UnoptimicedTransforms"
     style="display:none"
     transform="translate(5,4.63677)">
    <g
       id="g112"
       inkscape:label="left to right joined at top blue"
       style="display:inline">
      <path
         style="display:inline;fill:none;fill-rule:evenodd;stroke:#0b3d91;paint-order:markers stroke fill"
         d="m 175,200 c 0,-13.80712 11.19288,-25 25,-25 -13.80712,0 -25,-11.19288 -25,-25 0,-13.80712 11.19288,-25 25,-25 -13.80712,0 -25,-11.19288 -25,-25 0,-13.807119 11.19288,-25 25,-25 -13.80712,0 -25,-11.192881 -25,-25 0,-13.807119 11.19288,-25 25,-25 -13.80712,0 -25,-11.192881 -25,-25 13.80712,0 25,11.192881 25,25 0,13.807119 -11.19288,25 -25,25 13.80712,0 25,11.192881 25,25 0,13.807119 -11.19288,25 -25,25 13.80712,0 25,11.19288 25,25 0,13.80712 -11.19288,25 -25,25 13.80712,0 25,11.19288 25,25 0,13.80712 -11.19288,25 -25,25"
         id="path109" />
      <path
         style="display:inline;fill:none;fill-rule:evenodd;stroke:#0b3d91;paint-order:markers stroke fill"
         d="m 125,200 c 0,-13.80712 11.19288,-25 25,-25 -13.80712,0 -25,-11.19288 -25,-25 0,-13.80712 11.19288,-25 25,-25 -13.80712,0 -25,-11.19288 -25,-25 0,-13.807119 11.19288,-25 25,-25 -13.80712,0 -25,-11.192881 -25,-25 0,-13.807119 11.19288,-25 25,-25 -13.80712,0 -25,-11.192881 -25,-25 13.80712,0 25,11.192881 25,25 0,13.807119 -11.19288,25 -25,25 13.80712,0 25,11.192881 25,25 0,13.807119 -11.19288,25 -25,25 13.80712,0 25,11.19288 25,25 0,13.80712 -11.19288,25 -25,25 13.80712,0 25,11.19288 25,25 0,13.80712 -11.19288,25 -25,25"
         id="path110" />
      <path
         style="display:inline;fill:none;fill-rule:evenodd;stroke:#0b3d91;paint-order:markers stroke fill"
         d="m 75,200 c 0,-13.80712 11.192881,-25 25,-25 -13.807119,0 -25,-11.19288 -25,-25 0,-13.80712 11.192881,-25 25,-25 C 86.192881,125 75,113.80712 75,100 75,86.192881 86.192881,75 100,75 86.192881,75 75,63.807119 75,50 75,36.192881 86.192881,25 100,25 86.192881,25 75,13.807119 75,0 c 13.807119,0 25,11.192881 25,25 0,13.807119 -11.192881,25 -25,25 13.807119,0 25,11.192881 25,25 0,13.807119 -11.192881,25 -25,25 13.807119,0 25,11.19288 25,25 0,13.80712 -11.192881,25 -25,25 13.807119,0 25,11.19288 25,25 0,13.80712 -11.192881,25 -25,25"
         id="path111" />
      <path
         style="display:inline;fill:none;fill-rule:evenodd;stroke:#0b3d91;paint-order:markers stroke fill"
         d="M 25,200 C 25,186.19288 36.192881,175 50,175 36.192881,175 25,163.80712 25,150 25,136.19288 36.192881,125 50,125 36.192881,125 25,113.80712 25,100 25,86.192881 36.192881,75 50,75 36.192881,75 25,63.807119 25,50 25,36.192881 36.192881,25 50,25 36.192881,25 25,13.807119 25,0 38.807119,0 50,11.192881 50,25 50,38.807119 38.807119,50 25,50 c 13.807119,0 25,11.192881 25,25 0,13.807119 -11.192881,25 -25,25 13.807119,0 25,11.19288 25,25 0,13.80712 -11.192881,25 -25,25 13.807119,0 25,11.19288 25,25 0,13.80712 -11.192881,25 -25,25"
         id="path112" />
    </g>
    <g
       id="g117"
       inkscape:label="bottom to top joined at left red green"
       style="display:inline">
      <path
         style="display:inline;fill:none;fill-rule:evenodd;stroke:#70bc1f;stroke-width:0.499999;paint-order:markers stroke fill"
         d="m 0,200 25,-25 25,25 25,-25 25,25 25,-25 25,25 25,-25 25,25"
         id="path113" />
      <path
         style="display:inline;fill:none;fill-rule:evenodd;stroke:#fe370f;stroke-width:0.499999;paint-order:markers stroke fill"
         d="m 200,150 -25,25 -25,-25 -25,25 -25,-25 -25,25 -25,-25 -25,25 -25,-25 25,-25 25,25 25,-25 25,25 25,-25 25,25 25,-25 25,25"
         id="path114" />
      <path
         style="display:inline;fill:none;fill-rule:evenodd;stroke:#fe370f;stroke-width:0.499999;paint-order:markers stroke fill"
         d="M 200,100 175,125 150,100 125,125 100,100 75,125 50,100 25,125 0,99.999999 25,74.999998 50,99.999997 75,74.999998 l 25,24.999999 25,-24.999999 25,24.999999 25,-24.999999 25,24.999999"
         id="path115" />
      <path
         style="display:inline;fill:none;fill-rule:evenodd;stroke:#fe370f;stroke-width:0.499999;paint-order:markers stroke fill"
         d="M 200,50 175,74.999998 150,50 125,74.999998 100,50 75,74.999998 50,50 25,74.999998 0,49.999999 25,24.999998 50,49.999997 75,24.999998 l 25,24.999999 25,-24.999999 25,24.999999 25,-24.999999 25,24.999999"
         id="path116" />
      <path
         style="display:inline;fill:none;fill-rule:evenodd;stroke:#fe370f;stroke-width:0.499999;paint-order:markers stroke fill"
         d="M 200,0 175,24.999998 150,0 125,24.999998 100,0 75,24.999998 50,0 25,24.999998 0,0"
         id="path117" />
    </g>
    <g
       id="g121"
       inkscape:label="right to left joined at bottom yellow"
       style="display:inline">
      <path
         style="display:inline;fill:none;fill-rule:evenodd;stroke:#feba35;paint-order:markers stroke fill"
         d="m 175,0 c 0,13.807119 -11.19288,25 -25,25 13.80712,0 25,11.192881 25,25 0,13.807119 -11.19288,25 -25,25 13.80712,0 25,11.192881 25,25 0,13.80712 -11.19288,25 -25,25 13.80712,0 25,11.19288 25,25 0,13.80712 -11.19288,25 -25,25 13.80712,0 25,11.19288 25,25 -13.80712,0 -25,-11.19288 -25,-25 0,-13.80712 11.19288,-25 25,-25 -13.80712,0 -25,-11.19288 -25,-25 0,-13.80712 11.19288,-25 25,-25 -13.80712,0 -25,-11.192881 -25,-25 0,-13.807119 11.19288,-25 25,-25 -13.80712,0 -25,-11.192881 -25,-25 0,-13.807119 11.19288,-25 25,-25"
         id="path118" />
      <path
         style="display:inline;fill:none;fill-rule:evenodd;stroke:#feba35;paint-order:markers stroke fill"
         d="m 125,0 c 0,13.807119 -11.19288,25 -25,25 13.80712,0 25,11.192881 25,25 0,13.807119 -11.19288,25 -25,25 13.80712,0 25,11.192881 25,25 0,13.80712 -11.19288,25 -25,25 13.80712,0 25,11.19288 25,25 0,13.80712 -11.19288,25 -25,25 13.80712,0 25,11.19288 25,25 -13.80712,0 -25,-11.19288 -25,-25 0,-13.80712 11.19288,-25 25,-25 -13.80712,0 -25,-11.19288 -25,-25 0,-13.80712 11.19288,-25 25,-25 -13.80712,0 -25,-11.192881 -25,-25 0,-13.807119 11.19288,-25 25,-25 -13.80712,0 -25,-11.192881 -25,-25 0,-13.807119 11.19288,-25 25,-25"
         id="path119" />
      <path
         style="display:inline;fill:none;fill-rule:evenodd;stroke:#feba35;paint-order:markers stroke fill"
         d="m 75,0 c 0,13.807119 -11.192881,25 -25,25 13.807119,0 25,11.192881 25,25 0,13.807119 -11.192881,25 -25,25 13.807119,0 25,11.192881 25,25 0,13.80712 -11.192881,25 -25,25 13.807119,0 25,11.19288 25,25 0,13.80712 -11.192881,25 -25,25 13.807119,0 25,11.19288 25,25 C 61.192881,200 50,188.80712 50,175 50,161.19288 61.192881,150 75,150 61.192881,150 50,138.80712 50,125 50,111.19288 61.192881,100 75,100 61.192881,100 50,88.807119 50,75 50,61.192881 61.192881,50 75,50 61.192881,50 50,38.807119 50,25 50,11.192881 61.192881,0 75,0"
         id="path120" />
      <path
         style="display:inline;fill:none;fill-rule:evenodd;stroke:#feba35;paint-order:markers stroke fill"
         d="M 25,0 C 25,13.807119 13.807119,25 0,25 13.807119,25 25,36.192881 25,50 25,63.807119 13.807119,75 0,75 c 13.807119,0 25,11.192881 25,25 0,13.80712 -11.192881,25 -25,25 13.807119,0 25,11.19288 25,25 0,13.80712 -11.192881,25 -25,25 13.807119,0 25,11.19288 25,25 C 11.192881,200 0,188.80712 0,175 0,161.19288 11.192881,150 25,150 11.192881,150 0,138.80712 0,125 0,111.19288 11.192881,100 25,100 11.192881,100 0,88.807119 0,75 0,61.192881 11.192881,50 25,50 11.192881,50 0,38.807119 0,25 0,11.192881 11.192881,0 25,0"
         id="path121" />
    </g>
  </g>
  <g
     inkscape:groupmode="layer"
     id="g161"
     inkscape:label="Step 8 :  Remove colors and apply parameters"
     class="UnoptimicedTransforms"
     style="display:none"
     transform="translate(5,4.63677)">
    <g
       id="g151"
       inkscape:label="left to right joined at top blue"
       style="display:inline;stroke:#000000">
      <path
         style="display:inline;fill:none;fill-rule:evenodd;stroke:#000000;paint-order:markers stroke fill"
         d="m 175,200 c 0,-13.80712 11.19288,-25 25,-25 -13.80712,0 -25,-11.19288 -25,-25 0,-13.80712 11.19288,-25 25,-25 -13.80712,0 -25,-11.19288 -25,-25 0,-13.807119 11.19288,-25 25,-25 -13.80712,0 -25,-11.192881 -25,-25 0,-13.807119 11.19288,-25 25,-25 -13.80712,0 -25,-11.192881 -25,-25 13.80712,0 25,11.192881 25,25 0,13.807119 -11.19288,25 -25,25 13.80712,0 25,11.192881 25,25 0,13.807119 -11.19288,25 -25,25 13.80712,0 25,11.19288 25,25 0,13.80712 -11.19288,25 -25,25 13.80712,0 25,11.19288 25,25 0,13.80712 -11.19288,25 -25,25"
         id="path148" />
      <path
         style="display:inline;fill:none;fill-rule:evenodd;stroke:#000000;paint-order:markers stroke fill"
         d="m 125,200 c 0,-13.80712 11.19288,-25 25,-25 -13.80712,0 -25,-11.19288 -25,-25 0,-13.80712 11.19288,-25 25,-25 -13.80712,0 -25,-11.19288 -25,-25 0,-13.807119 11.19288,-25 25,-25 -13.80712,0 -25,-11.192881 -25,-25 0,-13.807119 11.19288,-25 25,-25 -13.80712,0 -25,-11.192881 -25,-25 13.80712,0 25,11.192881 25,25 0,13.807119 -11.19288,25 -25,25 13.80712,0 25,11.192881 25,25 0,13.807119 -11.19288,25 -25,25 13.80712,0 25,11.19288 25,25 0,13.80712 -11.19288,25 -25,25 13.80712,0 25,11.19288 25,25 0,13.80712 -11.19288,25 -25,25"
         id="path149" />
      <path
         style="display:inline;fill:none;fill-rule:evenodd;stroke:#000000;paint-order:markers stroke fill"
         d="m 75,200 c 0,-13.80712 11.192881,-25 25,-25 -13.807119,0 -25,-11.19288 -25,-25 0,-13.80712 11.192881,-25 25,-25 C 86.192881,125 75,113.80712 75,100 75,86.192881 86.192881,75 100,75 86.192881,75 75,63.807119 75,50 75,36.192881 86.192881,25 100,25 86.192881,25 75,13.807119 75,0 c 13.807119,0 25,11.192881 25,25 0,13.807119 -11.192881,25 -25,25 13.807119,0 25,11.192881 25,25 0,13.807119 -11.192881,25 -25,25 13.807119,0 25,11.19288 25,25 0,13.80712 -11.192881,25 -25,25 13.807119,0 25,11.19288 25,25 0,13.80712 -11.192881,25 -25,25"
         id="path150" />
      <path
         style="display:inline;fill:none;fill-rule:evenodd;stroke:#000000;paint-order:markers stroke fill"
         d="M 25,200 C 25,186.19288 36.192881,175 50,175 36.192881,175 25,163.80712 25,150 25,136.19288 36.192881,125 50,125 36.192881,125 25,113.80712 25,100 25,86.192881 36.192881,75 50,75 36.192881,75 25,63.807119 25,50 25,36.192881 36.192881,25 50,25 36.192881,25 25,13.807119 25,0 38.807119,0 50,11.192881 50,25 50,38.807119 38.807119,50 25,50 c 13.807119,0 25,11.192881 25,25 0,13.807119 -11.192881,25 -25,25 13.807119,0 25,11.19288 25,25 0,13.80712 -11.192881,25 -25,25 13.807119,0 25,11.19288 25,25 0,13.80712 -11.192881,25 -25,25"
         id="path151" />
    </g>
    <g
       id="g156"
       inkscape:label="bottom to top joined at left red green"
       style="display:inline;stroke:#000000">
      <path
         style="display:inline;fill:none;fill-rule:evenodd;stroke:#000000;stroke-width:0.499999;paint-order:markers stroke fill"
         d="m 0,200 25,-25 25,25 25,-25 25,25 25,-25 25,25 25,-25 25,25"
         id="path152" />
      <path
         style="display:inline;fill:none;fill-rule:evenodd;stroke:#000000;stroke-width:0.499999;paint-order:markers stroke fill"
         d="m 200,150 -25,25 -25,-25 -25,25 -25,-25 -25,25 -25,-25 -25,25 -25,-25 25,-25 25,25 25,-25 25,25 25,-25 25,25 25,-25 25,25"
         id="path153" />
      <path
         style="display:inline;fill:none;fill-rule:evenodd;stroke:#000000;stroke-width:0.499999;paint-order:markers stroke fill"
         d="M 200,100 175,125 150,100 125,125 100,100 75,125 50,100 25,125 0,99.999999 25,74.999998 50,99.999997 75,74.999998 l 25,24.999999 25,-24.999999 25,24.999999 25,-24.999999 25,24.999999"
         id="path154" />
      <path
         style="display:inline;fill:none;fill-rule:evenodd;stroke:#000000;stroke-width:0.499999;paint-order:markers stroke fill"
         d="M 200,50 175,74.999998 150,50 125,74.999998 100,50 75,74.999998 50,50 25,74.999998 0,49.999999 25,24.999998 50,49.999997 75,24.999998 l 25,24.999999 25,-24.999999 25,24.999999 25,-24.999999 25,24.999999"
         id="path155" />
      <path
         style="display:inline;fill:none;fill-rule:evenodd;stroke:#000000;stroke-width:0.499999;paint-order:markers stroke fill"
         d="M 200,0 175,24.999998 150,0 125,24.999998 100,0 75,24.999998 50,0 25,24.999998 0,0"
         id="path156" />
    </g>
    <g
       id="g160"
       inkscape:label="right to left joined at bottom yellow"
       style="display:inline;stroke:#000000">
      <path
         style="display:inline;fill:none;fill-rule:evenodd;stroke:#000000;paint-order:markers stroke fill"
         d="m 175,0 c 0,13.807119 -11.19288,25 -25,25 13.80712,0 25,11.192881 25,25 0,13.807119 -11.19288,25 -25,25 13.80712,0 25,11.192881 25,25 0,13.80712 -11.19288,25 -25,25 13.80712,0 25,11.19288 25,25 0,13.80712 -11.19288,25 -25,25 13.80712,0 25,11.19288 25,25 -13.80712,0 -25,-11.19288 -25,-25 0,-13.80712 11.19288,-25 25,-25 -13.80712,0 -25,-11.19288 -25,-25 0,-13.80712 11.19288,-25 25,-25 -13.80712,0 -25,-11.192881 -25,-25 0,-13.807119 11.19288,-25 25,-25 -13.80712,0 -25,-11.192881 -25,-25 0,-13.807119 11.19288,-25 25,-25"
         id="path157" />
      <path
         style="display:inline;fill:none;fill-rule:evenodd;stroke:#000000;paint-order:markers stroke fill"
         d="m 125,0 c 0,13.807119 -11.19288,25 -25,25 13.80712,0 25,11.192881 25,25 0,13.807119 -11.19288,25 -25,25 13.80712,0 25,11.192881 25,25 0,13.80712 -11.19288,25 -25,25 13.80712,0 25,11.19288 25,25 0,13.80712 -11.19288,25 -25,25 13.80712,0 25,11.19288 25,25 -13.80712,0 -25,-11.19288 -25,-25 0,-13.80712 11.19288,-25 25,-25 -13.80712,0 -25,-11.19288 -25,-25 0,-13.80712 11.19288,-25 25,-25 -13.80712,0 -25,-11.192881 -25,-25 0,-13.807119 11.19288,-25 25,-25 -13.80712,0 -25,-11.192881 -25,-25 0,-13.807119 11.19288,-25 25,-25"
         id="path158" />
      <path
         style="display:inline;fill:none;fill-rule:evenodd;stroke:#000000;paint-order:markers stroke fill"
         d="m 75,0 c 0,13.807119 -11.192881,25 -25,25 13.807119,0 25,11.192881 25,25 0,13.807119 -11.192881,25 -25,25 13.807119,0 25,11.192881 25,25 0,13.80712 -11.192881,25 -25,25 13.807119,0 25,11.19288 25,25 0,13.80712 -11.192881,25 -25,25 13.807119,0 25,11.19288 25,25 C 61.192881,200 50,188.80712 50,175 50,161.19288 61.192881,150 75,150 61.192881,150 50,138.80712 50,125 50,111.19288 61.192881,100 75,100 61.192881,100 50,88.807119 50,75 50,61.192881 61.192881,50 75,50 61.192881,50 50,38.807119 50,25 50,11.192881 61.192881,0 75,0"
         id="path159" />
      <path
         style="display:inline;fill:none;fill-rule:evenodd;stroke:#000000;paint-order:markers stroke fill"
         d="M 25,0 C 25,13.807119 13.807119,25 0,25 13.807119,25 25,36.192881 25,50 25,63.807119 13.807119,75 0,75 c 13.807119,0 25,11.192881 25,25 0,13.80712 -11.192881,25 -25,25 13.807119,0 25,11.19288 25,25 0,13.80712 -11.192881,25 -25,25 13.807119,0 25,11.19288 25,25 C 11.192881,200 0,188.80712 0,175 0,161.19288 11.192881,150 25,150 11.192881,150 0,138.80712 0,125 0,111.19288 11.192881,100 25,100 11.192881,100 0,88.807119 0,75 0,61.192881 11.192881,50 25,50 11.192881,50 0,38.807119 0,25 0,11.192881 11.192881,0 25,0"
         id="path160" />
    </g>
  </g>
  <g
     inkscape:groupmode="layer"
     id="g225"
     inkscape:label="Step 9:  Convert jum stitches to running stiches"
     class="UnoptimicedTransforms"
     style="display:none"
     transform="translate(5,4.63677)">
    <g
       id="g215"
       inkscape:label="left to right joined at top blue"
       style="display:inline;stroke:#000000">
      <path
         style="display:inline;fill:none;fill-rule:evenodd;stroke:#000000;paint-order:markers stroke fill"
         d="m 175,200 c 0,-13.80712 11.19288,-25 25,-25 -13.80712,0 -25,-11.19288 -25,-25 0,-13.80712 11.19288,-25 25,-25 -13.80712,0 -25,-11.19288 -25,-25 0,-13.807119 11.19288,-25 25,-25 -13.80712,0 -25,-11.192881 -25,-25 0,-13.807119 11.19288,-25 25,-25 -13.80712,0 -25,-11.192881 -25,-25 13.80712,0 25,11.192881 25,25 0,13.807119 -11.19288,25 -25,25 13.80712,0 25,11.192881 25,25 0,13.807119 -11.19288,25 -25,25 13.80712,0 25,11.19288 25,25 0,13.80712 -11.19288,25 -25,25 13.80712,0 25,11.19288 25,25 0,13.80712 -11.19288,25 -25,25"
         id="path212" />
      <path
         d="M 680.31504,773.4304 H 491.33864"
         style="fill:none;stroke:#000000;stroke-width:1px;stroke-dasharray:3, 1"
         transform="matrix(0.264583,0,0,0.264583,-5,-4.63677)"
         inkstitch:running_stitch_length_mm="2.5"
         inkstitch:running_stitch_tolerance_mm="2.0"
         id="path225" />
      <path
         style="display:inline;fill:none;fill-rule:evenodd;stroke:#000000;paint-order:markers stroke fill"
         d="m 125,200 c 0,-13.80712 11.19288,-25 25,-25 -13.80712,0 -25,-11.19288 -25,-25 0,-13.80712 11.19288,-25 25,-25 -13.80712,0 -25,-11.19288 -25,-25 0,-13.807119 11.19288,-25 25,-25 -13.80712,0 -25,-11.192881 -25,-25 0,-13.807119 11.19288,-25 25,-25 -13.80712,0 -25,-11.192881 -25,-25 13.80712,0 25,11.192881 25,25 0,13.807119 -11.19288,25 -25,25 13.80712,0 25,11.192881 25,25 0,13.807119 -11.19288,25 -25,25 13.80712,0 25,11.19288 25,25 0,13.80712 -11.19288,25 -25,25 13.80712,0 25,11.19288 25,25 0,13.80712 -11.19288,25 -25,25"
         id="path213" />
      <path
         d="M 491.33864,773.4304 H 302.36224"
         style="fill:none;stroke:#000000;stroke-width:1px;stroke-dasharray:3, 1"
         transform="matrix(0.264583,0,0,0.264583,-5,-4.63677)"
         inkstitch:running_stitch_length_mm="2.5"
         inkstitch:running_stitch_tolerance_mm="2.0"
         id="path226" />
      <path
         style="display:inline;fill:none;fill-rule:evenodd;stroke:#000000;paint-order:markers stroke fill"
         d="m 75,200 c 0,-13.80712 11.192881,-25 25,-25 -13.807119,0 -25,-11.19288 -25,-25 0,-13.80712 11.192881,-25 25,-25 C 86.192881,125 75,113.80712 75,100 75,86.192881 86.192881,75 100,75 86.192881,75 75,63.807119 75,50 75,36.192881 86.192881,25 100,25 86.192881,25 75,13.807119 75,0 c 13.807119,0 25,11.192881 25,25 0,13.807119 -11.192881,25 -25,25 13.807119,0 25,11.192881 25,25 0,13.807119 -11.192881,25 -25,25 13.807119,0 25,11.19288 25,25 0,13.80712 -11.192881,25 -25,25 13.807119,0 25,11.19288 25,25 0,13.80712 -11.192881,25 -25,25"
         id="path214" />
      <path
         d="M 302.36224,773.4304 H 113.38584"
         style="fill:none;stroke:#000000;stroke-width:1px;stroke-dasharray:3, 1"
         transform="matrix(0.264583,0,0,0.264583,-5,-4.63677)"
         inkstitch:running_stitch_length_mm="2.5"
         inkstitch:running_stitch_tolerance_mm="2.0"
         id="path227" />
      <path
         style="display:inline;fill:none;fill-rule:evenodd;stroke:#000000;paint-order:markers stroke fill"
         d="M 25,200 C 25,186.19288 36.192881,175 50,175 36.192881,175 25,163.80712 25,150 25,136.19288 36.192881,125 50,125 36.192881,125 25,113.80712 25,100 25,86.192881 36.192881,75 50,75 36.192881,75 25,63.807119 25,50 25,36.192881 36.192881,25 50,25 36.192881,25 25,13.807119 25,0 38.807119,0 50,11.192881 50,25 50,38.807119 38.807119,50 25,50 c 13.807119,0 25,11.192881 25,25 0,13.807119 -11.192881,25 -25,25 13.807119,0 25,11.19288 25,25 0,13.80712 -11.192881,25 -25,25 13.807119,0 25,11.19288 25,25 0,13.80712 -11.192881,25 -25,25"
         id="path215" />
    </g>
    <g
       id="g220"
       inkscape:label="bottom to top joined at left red green"
       style="display:inline;stroke:#000000">
      <path
         d="M 113.38584,773.4304 H 18.89764"
         style="fill:none;stroke:#000000;stroke-width:1px;stroke-dasharray:3, 1"
         transform="matrix(0.264583,0,0,0.264583,-5,-4.63677)"
         inkstitch:running_stitch_length_mm="2.5"
         inkstitch:running_stitch_tolerance_mm="2.0"
         id="path228" />
      <path
         style="display:inline;fill:none;fill-rule:evenodd;stroke:#000000;stroke-width:0.499999;paint-order:markers stroke fill"
         d="m 0,200 25,-25 25,25 25,-25 25,25 25,-25 25,25 25,-25 25,25"
         id="path216" />
      <path
         d="M 774.80324,773.4304 V 584.454"
         style="fill:none;stroke:#000000;stroke-width:1px;stroke-dasharray:3, 1"
         transform="matrix(0.264583,0,0,0.264583,-5,-4.63677)"
         inkstitch:running_stitch_length_mm="2.5"
         inkstitch:running_stitch_tolerance_mm="2.0"
         id="path229" />
      <path
         style="display:inline;fill:none;fill-rule:evenodd;stroke:#000000;stroke-width:0.499999;paint-order:markers stroke fill"
         d="m 200,150 -25,25 -25,-25 -25,25 -25,-25 -25,25 -25,-25 -25,25 -25,-25 25,-25 25,25 25,-25 25,25 25,-25 25,25 25,-25 25,25"
         id="path217" />
      <path
         d="M 774.80324,584.454 V 395.4776"
         style="fill:none;stroke:#000000;stroke-width:1px;stroke-dasharray:3, 1"
         transform="matrix(0.264583,0,0,0.264583,-5,-4.63677)"
         inkstitch:running_stitch_length_mm="2.5"
         inkstitch:running_stitch_tolerance_mm="2.0"
         id="path230" />
      <path
         style="display:inline;fill:none;fill-rule:evenodd;stroke:#000000;stroke-width:0.499999;paint-order:markers stroke fill"
         d="M 200,100 175,125 150,100 125,125 100,100 75,125 50,100 25,125 0,99.999999 25,74.999998 50,99.999997 75,74.999998 l 25,24.999999 25,-24.999999 25,24.999999 25,-24.999999 25,24.999999"
         id="path218" />
      <path
         d="M 774.80324,395.4776 V 206.5012"
         style="fill:none;stroke:#000000;stroke-width:1px;stroke-dasharray:3, 1"
         transform="matrix(0.264583,0,0,0.264583,-5,-4.63677)"
         inkstitch:running_stitch_length_mm="2.5"
         inkstitch:running_stitch_tolerance_mm="2.0"
         id="path231" />
      <path
         style="display:inline;fill:none;fill-rule:evenodd;stroke:#000000;stroke-width:0.499999;paint-order:markers stroke fill"
         d="M 200,50 175,74.999998 150,50 125,74.999998 100,50 75,74.999998 50,50 25,74.999998 0,49.999999 25,24.999998 50,49.999997 75,24.999998 l 25,24.999999 25,-24.999999 25,24.999999 25,-24.999999 25,24.999999"
         id="path219" />
      <path
         d="M 774.80324,206.5012 V 17.524802"
         style="fill:none;stroke:#000000;stroke-width:1px;stroke-dasharray:3, 1"
         transform="matrix(0.264583,0,0,0.264583,-5,-4.63677)"
         inkstitch:running_stitch_length_mm="2.5"
         inkstitch:running_stitch_tolerance_mm="2.0"
         id="path232" />
      <path
         style="display:inline;fill:none;fill-rule:evenodd;stroke:#000000;stroke-width:0.499999;paint-order:markers stroke fill"
         d="M 200,0 175,24.999998 150,0 125,24.999998 100,0 75,24.999998 50,0 25,24.999998 0,0"
         id="path220" />
    </g>
    <g
       id="g224"
       inkscape:label="right to left joined at bottom yellow"
       style="display:inline;stroke:#000000">
      <path
         d="m 18.89764,17.524802 h 661.4174"
         style="fill:none;stroke:#000000;stroke-width:1px;stroke-dasharray:3, 1"
         transform="matrix(0.264583,0,0,0.264583,-5,-4.63677)"
         inkstitch:running_stitch_length_mm="2.5"
         inkstitch:running_stitch_tolerance_mm="2.0"
         id="path233" />
      <path
         style="display:inline;fill:none;fill-rule:evenodd;stroke:#000000;paint-order:markers stroke fill"
         d="m 175,0 c 0,13.807119 -11.19288,25 -25,25 13.80712,0 25,11.192881 25,25 0,13.807119 -11.19288,25 -25,25 13.80712,0 25,11.192881 25,25 0,13.80712 -11.19288,25 -25,25 13.80712,0 25,11.19288 25,25 0,13.80712 -11.19288,25 -25,25 13.80712,0 25,11.19288 25,25 -13.80712,0 -25,-11.19288 -25,-25 0,-13.80712 11.19288,-25 25,-25 -13.80712,0 -25,-11.19288 -25,-25 0,-13.80712 11.19288,-25 25,-25 -13.80712,0 -25,-11.192881 -25,-25 0,-13.807119 11.19288,-25 25,-25 -13.80712,0 -25,-11.192881 -25,-25 0,-13.807119 11.19288,-25 25,-25"
         id="path221" />
      <path
         d="M 680.31504,17.524802 H 491.33864"
         style="fill:none;stroke:#000000;stroke-width:1px;stroke-dasharray:3, 1"
         transform="matrix(0.264583,0,0,0.264583,-5,-4.63677)"
         inkstitch:running_stitch_length_mm="2.5"
         inkstitch:running_stitch_tolerance_mm="2.0"
         id="path234" />
      <path
         style="display:inline;fill:none;fill-rule:evenodd;stroke:#000000;paint-order:markers stroke fill"
         d="m 125,0 c 0,13.807119 -11.19288,25 -25,25 13.80712,0 25,11.192881 25,25 0,13.807119 -11.19288,25 -25,25 13.80712,0 25,11.192881 25,25 0,13.80712 -11.19288,25 -25,25 13.80712,0 25,11.19288 25,25 0,13.80712 -11.19288,25 -25,25 13.80712,0 25,11.19288 25,25 -13.80712,0 -25,-11.19288 -25,-25 0,-13.80712 11.19288,-25 25,-25 -13.80712,0 -25,-11.19288 -25,-25 0,-13.80712 11.19288,-25 25,-25 -13.80712,0 -25,-11.192881 -25,-25 0,-13.807119 11.19288,-25 25,-25 -13.80712,0 -25,-11.192881 -25,-25 0,-13.807119 11.19288,-25 25,-25"
         id="path222" />
      <path
         d="M 491.33864,17.524802 H 302.36224"
         style="fill:none;stroke:#000000;stroke-width:1px;stroke-dasharray:3, 1"
         transform="matrix(0.264583,0,0,0.264583,-5,-4.63677)"
         inkstitch:running_stitch_length_mm="2.5"
         inkstitch:running_stitch_tolerance_mm="2.0"
         id="path235" />
      <path
         style="display:inline;fill:none;fill-rule:evenodd;stroke:#000000;paint-order:markers stroke fill"
         d="m 75,0 c 0,13.807119 -11.192881,25 -25,25 13.807119,0 25,11.192881 25,25 0,13.807119 -11.192881,25 -25,25 13.807119,0 25,11.192881 25,25 0,13.80712 -11.192881,25 -25,25 13.807119,0 25,11.19288 25,25 0,13.80712 -11.192881,25 -25,25 13.807119,0 25,11.19288 25,25 C 61.192881,200 50,188.80712 50,175 50,161.19288 61.192881,150 75,150 61.192881,150 50,138.80712 50,125 50,111.19288 61.192881,100 75,100 61.192881,100 50,88.807119 50,75 50,61.192881 61.192881,50 75,50 61.192881,50 50,38.807119 50,25 50,11.192881 61.192881,0 75,0"
         id="path223" />
      <path
         d="M 302.36224,17.524802 H 113.38584"
         style="fill:none;stroke:#000000;stroke-width:1px;stroke-dasharray:3, 1"
         transform="matrix(0.264583,0,0,0.264583,-5,-4.63677)"
         inkstitch:running_stitch_length_mm="2.5"
         inkstitch:running_stitch_tolerance_mm="2.0"
         id="path236" />
      <path
         style="display:inline;fill:none;fill-rule:evenodd;stroke:#000000;paint-order:markers stroke fill"
         d="M 25,0 C 25,13.807119 13.807119,25 0,25 13.807119,25 25,36.192881 25,50 25,63.807119 13.807119,75 0,75 c 13.807119,0 25,11.192881 25,25 0,13.80712 -11.192881,25 -25,25 13.807119,0 25,11.19288 25,25 0,13.80712 -11.192881,25 -25,25 13.807119,0 25,11.19288 25,25 C 11.192881,200 0,188.80712 0,175 0,161.19288 11.192881,150 25,150 11.192881,150 0,138.80712 0,125 0,111.19288 11.192881,100 25,100 11.192881,100 0,88.807119 0,75 0,61.192881 11.192881,50 25,50 11.192881,50 0,38.807119 0,25 0,11.192881 11.192881,0 25,0"
         id="path224" />
    </g>
  </g>
  <g
     inkscape:groupmode="layer"
     id="g262"
     inkscape:label="Step 10: Tweak to cover the whole exterior square"
     class="UnoptimicedTransforms"
     style="display:inline"
     transform="translate(5, 4.63677)">
    <g
       id="g243"
       inkscape:label="left to right joined at top blue"
       style="display:inline;stroke:#000000">
      <path
         style="display:inline;fill:none;fill-rule:evenodd;stroke:#000000;paint-order:markers stroke fill"
         d="m 175,200 c 0,-13.80712 11.19288,-25 25,-25 -13.80712,0 -25,-11.19288 -25,-25 0,-13.80712 11.19288,-25 25,-25 -13.80712,0 -25,-11.19288 -25,-25 0,-13.807119 11.19288,-25 25,-25 -13.80712,0 -25,-11.192881 -25,-25 0,-13.807119 11.19288,-25 25,-25 -13.80712,0 -25,-11.192881 -25,-25 13.80712,0 25,11.192881 25,25 0,13.807119 -11.19288,25 -25,25 13.80712,0 25,11.192881 25,25 0,13.807119 -11.19288,25 -25,25 13.80712,0 25,11.19288 25,25 0,13.80712 -11.19288,25 -25,25 13.80712,0 25,11.19288 25,25 0,13.80712 -11.19288,25 -25,25"
         id="path237" />
      <path
         d="M 680.3150400000001, 773.4304020445601 L 491.33864, 773.4304020445601"
         style="stroke:#000000;stroke-width:1px;stroke-dasharray:3, 1;fill:none"
         transform="matrix(0.264583 0 0 0.264583 -5 -4.63677)"
         inkstitch:running_stitch_length_mm="2.5"
         inkstitch:running_stitch_tolerance_mm="2.0"
         id="path238" />
      <path
         style="display:inline;fill:none;fill-rule:evenodd;stroke:#000000;paint-order:markers stroke fill"
         d="m 125,200 c 0,-13.80712 11.19288,-25 25,-25 -13.80712,0 -25,-11.19288 -25,-25 0,-13.80712 11.19288,-25 25,-25 -13.80712,0 -25,-11.19288 -25,-25 0,-13.807119 11.19288,-25 25,-25 -13.80712,0 -25,-11.192881 -25,-25 0,-13.807119 11.19288,-25 25,-25 -13.80712,0 -25,-11.192881 -25,-25 13.80712,0 25,11.192881 25,25 0,13.807119 -11.19288,25 -25,25 13.80712,0 25,11.192881 25,25 0,13.807119 -11.19288,25 -25,25 13.80712,0 25,11.19288 25,25 0,13.80712 -11.19288,25 -25,25 13.80712,0 25,11.19288 25,25 0,13.80712 -11.19288,25 -25,25"
         id="path239" />
      <path
         d="M 491.33864, 773.4304020445601 L 302.36224000000004, 773.4304020445601"
         style="stroke:#000000;stroke-width:1px;stroke-dasharray:3, 1;fill:none"
         transform="matrix(0.264583 0 0 0.264583 -5 -4.63677)"
         inkstitch:running_stitch_length_mm="2.5"
         inkstitch:running_stitch_tolerance_mm="2.0"
         id="path240" />
      <path
         style="display:inline;fill:none;fill-rule:evenodd;stroke:#000000;paint-order:markers stroke fill"
         d="m 75,200 c 0,-13.80712 11.192881,-25 25,-25 -13.807119,0 -25,-11.19288 -25,-25 0,-13.80712 11.192881,-25 25,-25 C 86.192881,125 75,113.80712 75,100 75,86.192881 86.192881,75 100,75 86.192881,75 75,63.807119 75,50 75,36.192881 86.192881,25 100,25 86.192881,25 75,13.807119 75,0 c 13.807119,0 25,11.192881 25,25 0,13.807119 -11.192881,25 -25,25 13.807119,0 25,11.192881 25,25 0,13.807119 -11.192881,25 -25,25 13.807119,0 25,11.19288 25,25 0,13.80712 -11.192881,25 -25,25 13.807119,0 25,11.19288 25,25 0,13.80712 -11.192881,25 -25,25"
         id="path241" />
      <path
         d="M 302.36224000000004, 773.4304020445601 L 113.38584, 773.4304020445601"
         style="stroke:#000000;stroke-width:1px;stroke-dasharray:3, 1;fill:none"
         transform="matrix(0.264583 0 0 0.264583 -5 -4.63677)"
         inkstitch:running_stitch_length_mm="2.5"
         inkstitch:running_stitch_tolerance_mm="2.0"
         id="path242" />
      <path
         style="display:inline;fill:none;fill-rule:evenodd;stroke:#000000;paint-order:markers stroke fill"
         d="M 25,200 C 25,186.19288 36.192881,175 50,175 36.192881,175 25,163.80712 25,150 25,136.19288 36.192881,125 50,125 36.192881,125 25,113.80712 25,100 25,86.192881 36.192881,75 50,75 36.192881,75 25,63.807119 25,50 25,36.192881 36.192881,25 50,25 36.192881,25 25,13.807119 25,0 38.807119,0 50,11.192881 50,25 50,38.807119 38.807119,50 25,50 c 13.807119,0 25,11.192881 25,25 0,13.807119 -11.192881,25 -25,25 13.807119,0 25,11.19288 25,25 0,13.80712 -11.192881,25 -25,25 13.807119,0 25,11.19288 25,25 0,13.80712 -11.192881,25 -25,25"
         id="path243" />
    </g>
    <g
       id="g253"
       inkscape:label="bottom to top joined at left red green"
       style="display:inline;stroke:#000000">
      <path
         d="M 113.38584, 773.4304020445601 L 18.89764, 773.4304020445601"
         style="stroke:#000000;stroke-width:1px;stroke-dasharray:3, 1;fill:none"
         transform="matrix(0.264583 0 0 0.264583 -5 -4.63677)"
         inkstitch:running_stitch_length_mm="2.5"
         inkstitch:running_stitch_tolerance_mm="2.0"
         id="path244" />
      <path
         style="display:inline;fill:none;fill-rule:evenodd;stroke:#000000;stroke-width:0.499999;paint-order:markers stroke fill"
         d="m 0,200 25,-25 25,25 25,-25 25,25 25,-25 25,25 25,-25 25,25"
         id="path245" />
      <path
         d="m 774.80324,773.4304 h -94.6271 94.6271 V 584.454"
         style="fill:none;stroke:#000000;stroke-width:1px;stroke-dasharray:3, 1"
         transform="matrix(0.264583 0 0 0.264583 -5 -4.63677)"
         inkstitch:running_stitch_length_mm="2.5"
         inkstitch:running_stitch_tolerance_mm="2.0"
         id="path246"
         sodipodi:nodetypes="cccc" />
      <path
         style="display:inline;fill:none;fill-rule:evenodd;stroke:#000000;stroke-width:0.499999;paint-order:markers stroke fill"
         d="m 200,150 -25,25 -25,-25 -25,25 -25,-25 -25,25 -25,-25 -25,25 -25,-25 25,-25 25,25 25,-25 25,25 25,-25 25,25 25,-25 25,25"
         id="path247" />
      <path
         d="M 774.8032400000001, 584.4540020445601 L 774.8032400000001, 395.47760204456"
         style="stroke:#000000;stroke-width:1px;stroke-dasharray:3, 1;fill:none"
         transform="matrix(0.264583 0 0 0.264583 -5 -4.63677)"
         inkstitch:running_stitch_length_mm="2.5"
         inkstitch:running_stitch_tolerance_mm="2.0"
         id="path248" />
      <path
         style="display:inline;fill:none;fill-rule:evenodd;stroke:#000000;stroke-width:0.499999;paint-order:markers stroke fill"
         d="M 200,100 175,125 150,100 125,125 100,100 75,125 50,100 25,125 0,99.999999 25,74.999998 50,99.999997 75,74.999998 l 25,24.999999 25,-24.999999 25,24.999999 25,-24.999999 25,24.999999"
         id="path249" />
      <path
         d="M 774.8032400000001, 395.47760204456 L 774.8032400000001, 206.50120204456002"
         style="stroke:#000000;stroke-width:1px;stroke-dasharray:3, 1;fill:none"
         transform="matrix(0.264583 0 0 0.264583 -5 -4.63677)"
         inkstitch:running_stitch_length_mm="2.5"
         inkstitch:running_stitch_tolerance_mm="2.0"
         id="path250" />
      <path
         style="display:inline;fill:none;fill-rule:evenodd;stroke:#000000;stroke-width:0.499999;paint-order:markers stroke fill"
         d="M 200,50 175,74.999998 150,50 125,74.999998 100,50 75,74.999998 50,50 25,74.999998 0,49.999999 25,24.999998 50,49.999997 75,24.999998 l 25,24.999999 25,-24.999999 25,24.999999 25,-24.999999 25,24.999999"
         id="path251" />
      <path
         d="m 774.80324,206.5012 8.9e-4,-188.976378 h -94.48831 l 94.48742,-2e-5"
         style="fill:none;stroke:#000000;stroke-width:1px;stroke-dasharray:3, 1"
         transform="matrix(0.264583 0 0 0.264583 -5 -4.63677)"
         inkstitch:running_stitch_length_mm="2.5"
         inkstitch:running_stitch_tolerance_mm="2.0"
         id="path252"
         sodipodi:nodetypes="cccc" />
      <path
         style="display:inline;fill:none;fill-rule:evenodd;stroke:#000000;stroke-width:0.499999;paint-order:markers stroke fill"
         d="M 200,0 175,24.999998 150,0 125,24.999998 100,0 75,24.999998 50,0 25,24.999998 0,0"
         id="path253" />
    </g>
    <g
       id="g261"
       inkscape:label="right to left joined at bottom yellow"
       style="display:inline;stroke:#000000">
      <path
         d="M 18.89764, 17.52480204456 L 680.3150400000001, 17.52480204456"
         style="stroke:#000000;stroke-width:1px;stroke-dasharray:3, 1;fill:none"
         transform="matrix(0.264583 0 0 0.264583 -5 -4.63677)"
         inkstitch:running_stitch_length_mm="2.5"
         inkstitch:running_stitch_tolerance_mm="2.0"
         id="path254" />
      <path
         style="display:inline;fill:none;fill-rule:evenodd;stroke:#000000;paint-order:markers stroke fill"
         d="m 175,0 c 0,13.807119 -11.19288,25 -25,25 13.80712,0 25,11.192881 25,25 0,13.807119 -11.19288,25 -25,25 13.80712,0 25,11.192881 25,25 0,13.80712 -11.19288,25 -25,25 13.80712,0 25,11.19288 25,25 0,13.80712 -11.19288,25 -25,25 13.80712,0 25,11.19288 25,25 -13.80712,0 -25,-11.19288 -25,-25 0,-13.80712 11.19288,-25 25,-25 -13.80712,0 -25,-11.19288 -25,-25 0,-13.80712 11.19288,-25 25,-25 -13.80712,0 -25,-11.192881 -25,-25 0,-13.807119 11.19288,-25 25,-25 -13.80712,0 -25,-11.192881 -25,-25 0,-13.807119 11.19288,-25 25,-25"
         id="path255" />
      <path
         d="M 680.3150400000001, 17.52480204456 L 491.33864, 17.52480204456"
         style="stroke:#000000;stroke-width:1px;stroke-dasharray:3, 1;fill:none"
         transform="matrix(0.264583 0 0 0.264583 -5 -4.63677)"
         inkstitch:running_stitch_length_mm="2.5"
         inkstitch:running_stitch_tolerance_mm="2.0"
         id="path256" />
      <path
         style="display:inline;fill:none;fill-rule:evenodd;stroke:#000000;paint-order:markers stroke fill"
         d="m 125,0 c 0,13.807119 -11.19288,25 -25,25 13.80712,0 25,11.192881 25,25 0,13.807119 -11.19288,25 -25,25 13.80712,0 25,11.192881 25,25 0,13.80712 -11.19288,25 -25,25 13.80712,0 25,11.19288 25,25 0,13.80712 -11.19288,25 -25,25 13.80712,0 25,11.19288 25,25 -13.80712,0 -25,-11.19288 -25,-25 0,-13.80712 11.19288,-25 25,-25 -13.80712,0 -25,-11.19288 -25,-25 0,-13.80712 11.19288,-25 25,-25 -13.80712,0 -25,-11.192881 -25,-25 0,-13.807119 11.19288,-25 25,-25 -13.80712,0 -25,-11.192881 -25,-25 0,-13.807119 11.19288,-25 25,-25"
         id="path257" />
      <path
         d="M 491.33864, 17.52480204456 L 302.36224000000004, 17.52480204456"
         style="stroke:#000000;stroke-width:1px;stroke-dasharray:3, 1;fill:none"
         transform="matrix(0.264583 0 0 0.264583 -5 -4.63677)"
         inkstitch:running_stitch_length_mm="2.5"
         inkstitch:running_stitch_tolerance_mm="2.0"
         id="path258" />
      <path
         style="display:inline;fill:none;fill-rule:evenodd;stroke:#000000;paint-order:markers stroke fill"
         d="m 75,0 c 0,13.807119 -11.192881,25 -25,25 13.807119,0 25,11.192881 25,25 0,13.807119 -11.192881,25 -25,25 13.807119,0 25,11.192881 25,25 0,13.80712 -11.192881,25 -25,25 13.807119,0 25,11.19288 25,25 0,13.80712 -11.192881,25 -25,25 13.807119,0 25,11.19288 25,25 C 61.192881,200 50,188.80712 50,175 50,161.19288 61.192881,150 75,150 61.192881,150 50,138.80712 50,125 50,111.19288 61.192881,100 75,100 61.192881,100 50,88.807119 50,75 50,61.192881 61.192881,50 75,50 61.192881,50 50,38.807119 50,25 50,11.192881 61.192881,0 75,0"
         id="path259" />
      <path
         d="M 302.36224000000004, 17.52480204456 L 113.38584, 17.52480204456"
         style="stroke:#000000;stroke-width:1px;stroke-dasharray:3, 1;fill:none"
         transform="matrix(0.264583 0 0 0.264583 -5 -4.63677)"
         inkstitch:running_stitch_length_mm="2.5"
         inkstitch:running_stitch_tolerance_mm="2.0"
         id="path260" />
      <path
         style="display:inline;fill:none;fill-rule:evenodd;stroke:#000000;paint-order:markers stroke fill"
         d="M 25,0 C 25,13.807119 13.807119,25 0,25 13.807119,25 25,36.192881 25,50 25,63.807119 13.807119,75 0,75 c 13.807119,0 25,11.192881 25,25 0,13.80712 -11.192881,25 -25,25 13.807119,0 25,11.19288 25,25 0,13.80712 -11.192881,25 -25,25 13.807119,0 25,11.19288 25,25 C 11.192881,200 0,188.80712 0,175 0,161.19288 11.192881,150 25,150 11.192881,150 0,138.80712 0,125 0,111.19288 11.192881,100 25,100 11.192881,100 0,88.807119 0,75 0,61.192881 11.192881,50 25,50 11.192881,50 0,38.807119 0,25 0,11.192881 11.192881,0 25,0"
         id="path261" />
      <path
         d="m 113.38597,17.524822 -94.48833,-2e-5 9.06e-4,755.905598"
         style="fill:none;stroke:#000000;stroke-width:1px;stroke-dasharray:3, 1"
         transform="matrix(0.264583 0 0 0.264583 -5 -4.63677)"
         inkstitch:running_stitch_length_mm="2.5"
         inkstitch:running_stitch_tolerance_mm="2.0"
         id="path262"
         sodipodi:nodetypes="ccc" />
    </g>
  </g>
</svg>
