<svg xmlns="http://www.w3.org/2000/svg" width="566" height="566" viewBox="0 0 566 566">
<style type="text/css">
polygon.tile { stroke: #000000; stroke-width:3; stroke-linejoin:round }
polygon.ih1 { fill: #ffff80 }
polygon.ih2 { fill: #8080ff }
polygon.ih3 { fill: #ff8080 }
polygon.ih4 { fill: #80ff80 }
polygon.ih5 { fill: #ff80ff }
polygon.ih6 { fill: #80ffff }
polygon.para {opacity: 0.75; fill: #ff0000; stroke: #ff0000 }
</style>
<polygon class="para" points="124.62883535202518,138.27694726297833 147.4541670292854,103.5727164517554 59.12739941839324,45.47928750744008 36.30206774113302,80.18351831866302 124.62883535202518,138.27694726297833" style="stroke: none"/>
<path d="M 91.87811738520921,91.87811738520921 112.96735353525278,91.87811738520921" style="stroke:#000000;stroke-width: 0.2px"/><path d="M 97.99740962196184,57.17388657398625 91.87811738520921,91.87811738520921" style="stroke:#000000;stroke-width: 0.2px"/><path d="M 104.614333814999,111.24259369998097 112.96735353525278,91.87811738520921" style="stroke:#000000;stroke-width: 0.2px"/><path d="M 91.87811738520921,91.87811738520921 75.17207794470161,91.8781173852092" style="stroke:#000000;stroke-width: 0.2px"/><path d="M 75.17207794470161,91.8781173852092 104.614333814999,111.24259369998097" style="stroke:#000000;stroke-width: 0.2px"/><path d="M 104.614333814999,111.24259369998097 142.40960940555016,111.24259369998097" style="stroke:#000000;stroke-width: 0.2px"/><path d="M 142.40960940555016,111.24259369998097 112.96735353525278,91.87811738520921" style="stroke:#000000;stroke-width: 0.2px"/><path d="M 135.792685212513,95.90283920352978 142.40960940555016,111.24259369998097" style="stroke:#000000;stroke-width: 0.2px"/><path d="M 76.90817347191826,57.17388657398625 91.87811738520921,91.87811738520921" style="stroke:#000000;stroke-width: 0.2px"/><path d="M 47.46591760162087,37.809410259214495 76.90817347191826,57.17388657398625" style="stroke:#000000;stroke-width: 0.2px"/><path d="M 62.435861514911835,72.51364107043743 76.90817347191826,57.17388657398625" style="stroke:#000000;stroke-width: 0.2px"/><path d="M 91.87811738520921,91.87811738520921 62.435861514911835,72.51364107043743" style="stroke:#000000;stroke-width: 0.2px"/><path d="M 62.435861514911835,72.51364107043743 54.08284179465804,53.149164755665666" style="stroke:#000000;stroke-width: 0.2px"/><path d="M 62.435861514911835,72.51364107043743 24.640585924360646,72.51364107043742" style="stroke:#000000;stroke-width: 0.2px"/><path d="M 112.96735353525283,130.60707001475274 142.40960940555016,111.24259369998097" style="stroke:#000000;stroke-width: 0.2px"/><path d="M 90.14202185799259,126.58234819643215 75.17207794470161,91.8781173852092" style="stroke:#000000;stroke-width: 0.2px"/><path d="M 104.614333814999,111.24259369998097 90.14202185799259,126.58234819643215" style="stroke:#000000;stroke-width: 0.2px"/><path d="M 104.614333814999,111.24259369998097 112.96735353525283,130.60707001475274" style="stroke:#000000;stroke-width: 0.2px"/><path d="M 75.17207794470161,91.8781173852092 54.08284179465804,91.8781173852092" style="stroke:#000000;stroke-width: 0.2px"/><path d="M 62.435861514911835,72.51364107043743 54.08284179465804,91.8781173852092" style="stroke:#000000;stroke-width: 0.2px"/><path d="M 24.640585924360646,72.51364107043742 54.08284179465804,91.8781173852092" style="stroke:#000000;stroke-width: 0.2px"/><circle cx="91.87811738520921" cy="91.87811738520921" r="9.448818897637796" style="stroke:#0000FF;stroke-width: 0.2px;fill:none"/></svg>

