<svg xmlns="http://www.w3.org/2000/svg" width="566" height="566" viewBox="0 0 566 566">
<style type="text/css">
polygon.tile { stroke: #000000; stroke-width:3; stroke-linejoin:round }
polygon.ih1 { fill: #ffff80 }
polygon.ih2 { fill: #8080ff }
polygon.ih3 { fill: #ff8080 }
polygon.ih4 { fill: #80ff80 }
polygon.ih5 { fill: #ff80ff }
polygon.ih6 { fill: #80ffff }
polygon.para {opacity: 0.75; fill: #ff0000; stroke: #ff0000 }
</style>
<polygon class="para" points="50.115794349235756,100.81839658971865 106.80870773506254,133.55006539416988 135.15516442797593,84.45256218749303 78.46225104214913,51.720893383041805 50.115794349235756,100.81839658971865" style="stroke: none"/>
<path d="M 92.63547938860584,92.63547938860584 120.98193608151924,92.63547938860584" style="stroke:#000000;stroke-width: 0.2px"/><path d="M 120.98193608151924,92.63547938860584 102.08429828624364,59.90381058415461" style="stroke:#000000;stroke-width: 0.2px"/><path d="M 102.08429828624364,59.90381058415461 92.63547938860584,92.63547938860584" style="stroke:#000000;stroke-width: 0.2px"/><path d="M 92.63547938860582,59.90381058415461 73.73784159333024,59.90381058415461" style="stroke:#000000;stroke-width: 0.2px"/><path d="M 73.73784159333024,59.90381058415461 87.91106993978693,84.45256218749303" style="stroke:#000000;stroke-width: 0.2px"/><path d="M 87.91106993978693,84.45256218749303 92.63547938860584,92.63547938860584" style="stroke:#000000;stroke-width: 0.2px"/><path d="M 120.98193608151924,92.63547938860584 130.43075497915703,92.63547938860584" style="stroke:#000000;stroke-width: 0.2px"/><path d="M 106.80870773506254,117.18423099194426 102.08429828624364,109.00131379083145" style="stroke:#000000;stroke-width: 0.2px"/><path d="M 102.08429828624364,109.00131379083145 92.63547938860584,92.63547938860584" style="stroke:#000000;stroke-width: 0.2px"/><path d="M 130.43075497915703,92.63547938860584 106.80870773506254,117.18423099194426" style="stroke:#000000;stroke-width: 0.2px"/><path d="M 64.28902269569244,109.00131379083146 50.11579434923574,84.45256218749303" style="stroke:#000000;stroke-width: 0.2px"/><path d="M 102.08429828624364,109.00131379083145 73.73784159333024,109.00131379083145" style="stroke:#000000;stroke-width: 0.2px"/><path d="M 92.63547938860584,141.73298259528266 102.08429828624364,109.00131379083145" style="stroke:#000000;stroke-width: 0.2px"/><path d="M 73.73784159333024,109.00131379083145 64.28902269569244,109.00131379083146" style="stroke:#000000;stroke-width: 0.2px"/><path d="M 87.91106993978693,84.45256218749303 50.11579434923574,84.45256218749303" style="stroke:#000000;stroke-width: 0.2px"/><path d="M 87.91106993978693,84.45256218749303 64.28902269569244,109.00131379083146" style="stroke:#000000;stroke-width: 0.2px"/><circle cx="92.63547938860584" cy="92.63547938860584" r="9.448818897637796" style="stroke:#0000FF;stroke-width: 0.2px;fill:none"/></svg>

