<svg xmlns="http://www.w3.org/2000/svg" width="566" height="566" viewBox="0 0 566 566">
<style type="text/css">
polygon.tile { stroke: #000000; stroke-width:3; stroke-linejoin:round }
polygon.ih1 { fill: #ffff80 }
polygon.ih2 { fill: #8080ff }
polygon.ih3 { fill: #ff8080 }
polygon.ih4 { fill: #80ff80 }
polygon.ih5 { fill: #ff80ff }
polygon.ih6 { fill: #80ffff }
polygon.para {opacity: 0.75; fill: #ff0000; stroke: #ff0000 }
</style>
<polygon class="para" points="28.610191751775545,75.47467474862292 97.85303752202475,96.43972153508825 108.41625783296531,61.55177483611794 39.17341206271612,40.586728049652606 28.610191751775545,75.47467474862292" style="stroke: none"/>
<path d="M 68.51322479237044,68.51322479237044 74.8609302032236,68.51322479237044" style="stroke:#000000;stroke-width: 0.2px"/><path d="M 74.8609302032236,68.51322479237044 99.96079497206846,68.51322479237044" style="stroke:#000000;stroke-width: 0.2px"/><path d="M 99.96079497206846,68.51322479237044 73.79483494784071,51.069251442885275" style="stroke:#000000;stroke-width: 0.2px"/><path d="M 68.51322479237044,47.54817800590508 68.51322479237044,68.51322479237044" style="stroke:#000000;stroke-width: 0.2px"/><path d="M 68.51322479237044,68.51322479237044 37.065654612672404,68.51322479237044" style="stroke:#000000;stroke-width: 0.2px"/><path d="M 37.065654612672404,68.51322479237044 68.51322479237044,47.54817800590508" style="stroke:#000000;stroke-width: 0.2px"/><path d="M 37.065654612672404,47.54817800590508 68.51322479237044,47.54817800590508" style="stroke:#000000;stroke-width: 0.2px"/><path d="M 37.065654612672404,68.51322479237044 37.065654612672404,47.54817800590508" style="stroke:#000000;stroke-width: 0.2px"/><path d="M 31.78404445720212,64.99215135539025 33.76843093352103,66.31507567293617" style="stroke:#000000;stroke-width: 0.2px"/><path d="M 33.76843093352103,66.31507567293617 37.065654612672404,68.51322479237044" style="stroke:#000000;stroke-width: 0.2px"/><path d="M 106.30850038292161,68.51322479237042 99.96079497206846,68.51322479237044" style="stroke:#000000;stroke-width: 0.2px"/><path d="M 37.065654612672404,68.51322479237044 57.950004481429865,82.4361247048754" style="stroke:#000000;stroke-width: 0.2px"/><path d="M 63.23161463690015,85.95719814185559 61.24722816058124,84.63427382430964" style="stroke:#000000;stroke-width: 0.2px"/><path d="M 61.24722816058124,84.63427382430964 57.950004481429865,82.4361247048754" style="stroke:#000000;stroke-width: 0.2px"/><path d="M 89.39757466112789,103.40117149134075 74.8609302032236,68.51322479237044" style="stroke:#000000;stroke-width: 0.2px"/><path d="M 74.8609302032236,68.51322479237044 63.23161463690015,85.95719814185559" style="stroke:#000000;stroke-width: 0.2px"/><path d="M 101.02689022745135,85.95719814185559 74.8609302032236,68.51322479237044" style="stroke:#000000;stroke-width: 0.2px"/><path d="M 89.39757466112789,103.40117149134075 101.02689022745135,85.95719814185559" style="stroke:#000000;stroke-width: 0.2px"/><circle cx="68.51322479237044" cy="68.51322479237044" r="9.448818897637796" style="stroke:#0000FF;stroke-width: 0.2px;fill:none"/></svg>

