<svg xmlns="http://www.w3.org/2000/svg" width="566" height="566" viewBox="0 0 566 566">
<style type="text/css">
polygon.tile { stroke: #000000; stroke-width:3; stroke-linejoin:round }
polygon.ih1 { fill: #ffff80 }
polygon.ih2 { fill: #8080ff }
polygon.ih3 { fill: #ff8080 }
polygon.ih4 { fill: #80ff80 }
polygon.ih5 { fill: #ff80ff }
polygon.ih6 { fill: #80ffff }
polygon.para {opacity: 0.75; fill: #ff0000; stroke: #ff0000 }
</style>
<polygon class="para" points="66.74612472014942,145.66542210950695 98.31384367589243,145.66542210950695 98.31384367589243,19.39454628653492 66.74612472014942,19.39454628653492 66.74612472014942,145.66542210950695" style="stroke: none"/>
<path d="M 82.52998419802093,82.52998419802093 114.09770315376394,82.52998419802093" style="stroke:#000000;stroke-width: 0.2px"/><path d="M 103.31367917502004,50.96226524227792 82.52998419802093,82.52998419802093" style="stroke:#000000;stroke-width: 0.2px"/><path d="M 93.84336348829714,50.96226524227792 71.74596021927704,50.96226524227792" style="stroke:#000000;stroke-width: 0.2px"/><path d="M 71.74596021927704,50.96226524227792 82.52998419802093,82.52998419802093" style="stroke:#000000;stroke-width: 0.2px"/><path d="M 83.05933950955324,19.39454628653492 93.84336348829714,50.96226524227792" style="stroke:#000000;stroke-width: 0.2px"/><path d="M 103.31367917502004,114.09770315376394 82.52998419802093,82.52998419802093" style="stroke:#000000;stroke-width: 0.2px"/><path d="M 93.84336348829714,114.09770315376394 71.74596021927704,114.09770315376393" style="stroke:#000000;stroke-width: 0.2px"/><path d="M 71.74596021927704,114.09770315376393 82.52998419802093,82.52998419802093" style="stroke:#000000;stroke-width: 0.2px"/><path d="M 83.05933950955324,145.66542210950695 93.84336348829714,114.09770315376394" style="stroke:#000000;stroke-width: 0.2px"/><path d="M 83.05933950955324,145.66542210950695 51.491620553810236,145.66542210950695" style="stroke:#000000;stroke-width: 0.2px"/><path d="M 83.05933950955324,19.39454628653492 51.491620553810236,19.394546286534908" style="stroke:#000000;stroke-width: 0.2px"/><path d="M 50.96226524227792,82.52998419802093 82.52998419802093,82.52998419802093" style="stroke:#000000;stroke-width: 0.2px"/><path d="M 71.74596021927704,50.96226524227792 62.27564453255414,50.96226524227792" style="stroke:#000000;stroke-width: 0.2px"/><path d="M 83.05933950955324,19.39454628653492 62.27564453255414,50.96226524227792" style="stroke:#000000;stroke-width: 0.2px"/><path d="M 71.74596021927704,114.09770315376393 62.27564453255414,114.09770315376394" style="stroke:#000000;stroke-width: 0.2px"/><path d="M 83.05933950955324,145.66542210950695 62.27564453255414,114.09770315376394" style="stroke:#000000;stroke-width: 0.2px"/><circle cx="82.52998419802093" cy="82.52998419802093" r="9.448818897637796" style="stroke:#0000FF;stroke-width: 0.2px;fill:none"/></svg>

