<svg xmlns="http://www.w3.org/2000/svg" width="566" height="566" viewBox="0 0 566 566">
<style type="text/css">
polygon.tile { stroke: #000000; stroke-width:3; stroke-linejoin:round }
polygon.ih1 { fill: #ffff80 }
polygon.ih2 { fill: #8080ff }
polygon.ih3 { fill: #ff8080 }
polygon.ih4 { fill: #80ff80 }
polygon.ih5 { fill: #ff80ff }
polygon.ih6 { fill: #80ffff }
polygon.para {opacity: 0.75; fill: #ff0000; stroke: #ff0000 }
</style>
<polygon class="para" points="52.83279878799136,90.1713756368689 85.56446759244257,109.06901343214449 95.38396823377796,58.045391384900405 62.65229942932674,39.14775358962482 52.83279878799136,90.1713756368689" style="stroke: none"/>
<path d="M 74.10838351088465,74.10838351088465 106.84005231533587,74.10838351088465" style="stroke:#000000;stroke-width: 0.2px"/><path d="M 103.56688543489075,72.2186197313571 87.20105103266515,62.7698008337193" style="stroke:#000000;stroke-width: 0.2px"/><path d="M 87.20105103266515,62.7698008337193 74.10838351088465,55.210745715609065" style="stroke:#000000;stroke-width: 0.2px"/><path d="M 74.10838351088465,55.210745715609065 74.10838351088465,74.10838351088465" style="stroke:#000000;stroke-width: 0.2px"/><path d="M 119.93271983711635,43.872163038443716 87.20105103266515,62.7698008337193" style="stroke:#000000;stroke-width: 0.2px"/><path d="M 103.56688543489074,34.42334414080592 87.20105103266515,62.7698008337193" style="stroke:#000000;stroke-width: 0.2px"/><path d="M 103.56688543489074,34.42334414080592 70.83521663043953,53.3209819360815" style="stroke:#000000;stroke-width: 0.2px"/><path d="M 70.83521663043953,53.3209819360815 74.10838351088465,55.210745715609065" style="stroke:#000000;stroke-width: 0.2px"/><path d="M 87.20105103266513,24.974525243168117 70.83521663043953,53.3209819360815" style="stroke:#000000;stroke-width: 0.2px"/><path d="M 61.01571598910416,104.3446039833256 77.38155039132977,75.99814729041222" style="stroke:#000000;stroke-width: 0.2px"/><path d="M 77.38155039132977,75.99814729041222 44.64988158687856,94.89578508568779" style="stroke:#000000;stroke-width: 0.2px"/><path d="M 61.01571598910415,66.54932839277441 44.64988158687856,94.89578508568779" style="stroke:#000000;stroke-width: 0.2px"/><path d="M 77.38155039132977,75.99814729041222 74.10838351088465,74.10838351088465" style="stroke:#000000;stroke-width: 0.2px"/><path d="M 74.10838351088465,74.10838351088465 61.01571598910415,66.54932839277441" style="stroke:#000000;stroke-width: 0.2px"/><path d="M 61.01571598910415,66.54932839277441 28.284047184652934,85.44696618804998" style="stroke:#000000;stroke-width: 0.2px"/><path d="M 61.01571598910415,66.54932839277441 44.64988158687855,57.10050949513661" style="stroke:#000000;stroke-width: 0.2px"/><path d="M 74.10838351088465,55.210745715609065 41.37671470643343,55.21074571560905" style="stroke:#000000;stroke-width: 0.2px"/><path d="M 110.11321919578099,94.89578508568779 77.38155039132977,113.7934228809634" style="stroke:#000000;stroke-width: 0.2px"/><path d="M 93.74738479355537,85.44696618805 77.38155039132977,113.7934228809634" style="stroke:#000000;stroke-width: 0.2px"/><path d="M 93.74738479355537,85.44696618805 61.01571598910416,104.3446039833256" style="stroke:#000000;stroke-width: 0.2px"/><path d="M 93.74738479355537,85.44696618805 88.63306154285986,82.49421028253819" style="stroke:#000000;stroke-width: 0.2px"/><path d="M 88.63306154285986,82.49421028253819 77.38155039132977,75.99814729041222" style="stroke:#000000;stroke-width: 0.2px"/><path d="M 70.83521663043953,53.3209819360815 61.01571598910417,47.651690597498835" style="stroke:#000000;stroke-width: 0.2px"/><path d="M 61.01571598910417,47.651690597498835 54.46938222821393,43.872163038443716" style="stroke:#000000;stroke-width: 0.2px"/><path d="M 87.20105103266513,24.974525243168117 54.46938222821393,43.872163038443716" style="stroke:#000000;stroke-width: 0.2px"/><circle cx="74.10838351088465" cy="74.10838351088465" r="9.448818897637796" style="stroke:#0000FF;stroke-width: 0.2px;fill:none"/></svg>

