<svg xmlns="http://www.w3.org/2000/svg" width="566" height="566" viewBox="0 0 566 566">
<style type="text/css">
polygon.tile { stroke: #000000; stroke-width:3; stroke-linejoin:round }
polygon.ih1 { fill: #ffff80 }
polygon.ih2 { fill: #8080ff }
polygon.ih3 { fill: #ff8080 }
polygon.ih4 { fill: #80ff80 }
polygon.ih5 { fill: #ff80ff }
polygon.ih6 { fill: #80ffff }
polygon.para {opacity: 0.75; fill: #ff0000; stroke: #ff0000 }
</style>
<polygon class="para" points="45.14092916990824,82.9362047604594 98.5915205036945,45.14092916990824 136.38679609424568,98.5915205036945 82.93620476045943,136.38679609424568 45.14092916990824,82.9362047604594" style="stroke: none"/>
<path d="M 90.76386263207695,90.76386263207695 117.48915829897008,90.76386263207695" style="stroke:#000000;stroke-width: 0.2px"/><path d="M 117.48915829897008,90.76386263207695 98.5915205036945,71.86622483680138" style="stroke:#000000;stroke-width: 0.2px"/><path d="M 98.5915205036945,71.86622483680138 90.76386263207695,64.03856696518383" style="stroke:#000000;stroke-width: 0.2px"/><path d="M 90.76386263207695,64.03856696518383 90.76386263207695,90.76386263207695" style="stroke:#000000;stroke-width: 0.2px"/><path d="M 90.76386263207695,90.76386263207695 90.76386263207695,117.48915829897008" style="stroke:#000000;stroke-width: 0.2px"/><path d="M 90.76386263207695,117.48915829897008 109.66150042735254,98.5915205036945" style="stroke:#000000;stroke-width: 0.2px"/><path d="M 109.66150042735254,98.5915205036945 117.48915829897008,90.76386263207695" style="stroke:#000000;stroke-width: 0.2px"/><path d="M 90.76386263207695,90.76386263207695 64.03856696518383,90.76386263207695" style="stroke:#000000;stroke-width: 0.2px"/><path d="M 64.03856696518383,90.76386263207695 82.9362047604594,109.66150042735254" style="stroke:#000000;stroke-width: 0.2px"/><path d="M 82.9362047604594,109.66150042735254 90.76386263207695,117.48915829897008" style="stroke:#000000;stroke-width: 0.2px"/><path d="M 90.76386263207695,64.03856696518383 71.86622483680138,82.93620476045943" style="stroke:#000000;stroke-width: 0.2px"/><path d="M 71.86622483680138,82.93620476045943 64.03856696518383,90.76386263207695" style="stroke:#000000;stroke-width: 0.2px"/><path d="M 136.38679609424568,71.86622483680138 98.5915205036945,71.86622483680138" style="stroke:#000000;stroke-width: 0.2px"/><path d="M 109.66150042735254,136.38679609424568 109.66150042735254,98.5915205036945" style="stroke:#000000;stroke-width: 0.2px"/><path d="M 45.14092916990824,109.66150042735254 82.9362047604594,109.66150042735254" style="stroke:#000000;stroke-width: 0.2px"/><path d="M 71.86622483680136,45.14092916990824 71.86622483680138,82.93620476045943" style="stroke:#000000;stroke-width: 0.2px"/><path d="M 109.66150042735254,98.5915205036945 136.38679609424568,98.5915205036945" style="stroke:#000000;stroke-width: 0.2px"/><path d="M 82.9362047604594,109.66150042735254 82.9362047604594,136.38679609424568" style="stroke:#000000;stroke-width: 0.2px"/><path d="M 71.86622483680138,82.93620476045943 45.14092916990824,82.9362047604594" style="stroke:#000000;stroke-width: 0.2px"/><path d="M 98.5915205036945,71.86622483680138 98.59152050369448,45.14092916990824" style="stroke:#000000;stroke-width: 0.2px"/><path d="M 52.96858704152578,64.03856696518383 71.86622483680138,82.93620476045943" style="stroke:#000000;stroke-width: 0.2px"/><path d="M 128.55913822262812,117.48915829897007 109.66150042735254,98.5915205036945" style="stroke:#000000;stroke-width: 0.2px"/><path d="M 117.48915829897008,52.96858704152579 98.5915205036945,71.86622483680138" style="stroke:#000000;stroke-width: 0.2px"/><path d="M 64.03856696518383,128.55913822262812 82.9362047604594,109.66150042735254" style="stroke:#000000;stroke-width: 0.2px"/><circle cx="90.76386263207695" cy="90.76386263207695" r="9.448818897637796" style="stroke:#0000FF;stroke-width: 0.2px;fill:none"/></svg>

