<svg xmlns="http://www.w3.org/2000/svg" width="566" height="566" viewBox="0 0 566 566">
<style type="text/css">
polygon.tile { stroke: #000000; stroke-width:3; stroke-linejoin:round }
polygon.ih1 { fill: #ffff80 }
polygon.ih2 { fill: #8080ff }
polygon.ih3 { fill: #ff8080 }
polygon.ih4 { fill: #80ff80 }
polygon.ih5 { fill: #ff80ff }
polygon.ih6 { fill: #80ffff }
polygon.para {opacity: 0.75; fill: #ff0000; stroke: #ff0000 }
</style>
<polygon class="para" points="117.5501951730137,155.81140555831297 148.99776535271175,134.8463587718476 87.98947920409758,49.728268818798306 56.541909024399544,70.69331560526366 117.5501951730137,155.81140555831297" style="stroke: none"/>
<path d="M 102.76983718855564,102.76983718855564 134.21740736825367,102.76983718855564" style="stroke:#000000;stroke-width: 0.2px"/><path d="M 119.43704938379558,91.658362391729 107.82765472579042,99.39795883039913" style="stroke:#000000;stroke-width: 0.2px"/><path d="M 107.82765472579042,99.39795883039913 102.76983718855564,102.76983718855564" style="stroke:#000000;stroke-width: 0.2px"/><path d="M 134.21740736825367,123.734883975021 102.76983718855564,102.76983718855564" style="stroke:#000000;stroke-width: 0.2px"/><path d="M 119.43704938379558,91.658362391729 87.98947920409758,91.658362391729" style="stroke:#000000;stroke-width: 0.2px"/><path d="M 87.98947920409758,91.658362391729 87.98947920409758,112.62340917819436" style="stroke:#000000;stroke-width: 0.2px"/><path d="M 87.98947920409758,112.62340917819436 102.76983718855564,102.76983718855564" style="stroke:#000000;stroke-width: 0.2px"/><path d="M 87.98947920409758,91.658362391729 87.98947920409758,70.69331560526365" style="stroke:#000000;stroke-width: 0.2px"/><path d="M 87.98947920409758,70.69331560526365 119.43704938379558,91.658362391729" style="stroke:#000000;stroke-width: 0.2px"/><path d="M 56.541909024399544,70.69331560526365 87.98947920409758,70.69331560526365" style="stroke:#000000;stroke-width: 0.2px"/><path d="M 87.98947920409758,91.658362391729 56.541909024399544,70.69331560526365" style="stroke:#000000;stroke-width: 0.2px"/><path d="M 56.541909024399544,91.658362391729 87.98947920409758,91.658362391729" style="stroke:#000000;stroke-width: 0.2px"/><path d="M 148.99776535271175,134.8463587718476 134.21740736825367,144.69993076148634" style="stroke:#000000;stroke-width: 0.2px"/><path d="M 134.21740736825367,144.69993076148634 117.5501951730137,155.81140555831297" style="stroke:#000000;stroke-width: 0.2px"/><path d="M 87.98947920409758,70.69331560526365 87.98947920409758,49.72826881879829" style="stroke:#000000;stroke-width: 0.2px"/><path d="M 87.98947920409758,49.72826881879829 73.20912121963951,59.581840808437036" style="stroke:#000000;stroke-width: 0.2px"/><path d="M 73.20912121963951,59.581840808437036 56.541909024399544,70.69331560526365" style="stroke:#000000;stroke-width: 0.2px"/><path d="M 102.76983718855564,123.734883975021 102.76983718855564,102.76983718855564" style="stroke:#000000;stroke-width: 0.2px"/><path d="M 102.76983718855564,123.734883975021 102.76983718855564,144.69993076148634" style="stroke:#000000;stroke-width: 0.2px"/><path d="M 134.21740736825367,144.69993076148634 102.76983718855564,144.69993076148634" style="stroke:#000000;stroke-width: 0.2px"/><path d="M 102.76983718855564,123.734883975021 134.21740736825367,144.69993076148634" style="stroke:#000000;stroke-width: 0.2px"/><path d="M 134.21740736825367,123.734883975021 102.76983718855564,123.734883975021" style="stroke:#000000;stroke-width: 0.2px"/><path d="M 134.21740736825367,123.734883975021 134.21740736825367,144.69993076148634" style="stroke:#000000;stroke-width: 0.2px"/><circle cx="102.76983718855564" cy="102.76983718855564" r="9.448818897637796" style="stroke:#0000FF;stroke-width: 0.2px;fill:none"/></svg>

