<svg xmlns="http://www.w3.org/2000/svg" width="566" height="566" viewBox="0 0 566 566">
<style type="text/css">
polygon.tile { stroke: #000000; stroke-width:3; stroke-linejoin:round }
polygon.ih1 { fill: #ffff80 }
polygon.ih2 { fill: #8080ff }
polygon.ih3 { fill: #ff8080 }
polygon.ih4 { fill: #80ff80 }
polygon.ih5 { fill: #ff80ff }
polygon.ih6 { fill: #80ffff }
polygon.para {opacity: 0.75; fill: #ff0000; stroke: #ff0000 }
</style>
<polygon class="para" points="33.410529566157095,12.659483052393753 90.1034429519839,45.39115185684491 90.10344295198398,110.85448946574732 33.41052956615718,78.12282066129616 33.410529566157095,12.659483052393753" style="stroke: none"/>
<path d="M 61.75698625907054,61.75698625907054 74.35541145592092,61.75698625907061" style="stroke:#000000;stroke-width: 0.2px"/><path d="M 74.35541145592092,61.75698625907061 86.95383665277132,61.75698625907056" style="stroke:#000000;stroke-width: 0.2px"/><path d="M 93.25304925119652,50.846429990920136 61.75698625907054,61.75698625907054" style="stroke:#000000;stroke-width: 0.2px"/><path d="M 93.25304925119652,50.846429990920136 55.45777366064534,50.846429990920136" style="stroke:#000000;stroke-width: 0.2px"/><path d="M 55.45777366064534,50.846429990920136 61.75698625907054,61.75698625907054" style="stroke:#000000;stroke-width: 0.2px"/><path d="M 86.9538366527713,39.93587372276973 55.45777366064534,50.846429990920136" style="stroke:#000000;stroke-width: 0.2px"/><path d="M 93.25304925119653,72.66754252722096 86.95383665277137,83.57809879537136" style="stroke:#000000;stroke-width: 0.2px"/><path d="M 80.65462405434619,94.48865506352179 86.95383665277137,83.57809879537136" style="stroke:#000000;stroke-width: 0.2px"/><path d="M 86.95383665277132,61.75698625907056 80.65462405434619,94.48865506352179" style="stroke:#000000;stroke-width: 0.2px"/><path d="M 86.95383665277132,61.75698625907056 68.05619885749579,94.48865506352183" style="stroke:#000000;stroke-width: 0.2px"/><path d="M 68.05619885749579,94.48865506352183 80.65462405434619,94.48865506352179" style="stroke:#000000;stroke-width: 0.2px"/><path d="M 74.35541145592092,61.75698625907061 68.05619885749579,94.48865506352183" style="stroke:#000000;stroke-width: 0.2px"/><path d="M 93.2530492511966,116.30976759982254 86.9538366527714,105.39921133167213" style="stroke:#000000;stroke-width: 0.2px"/><path d="M 80.65462405434619,94.48865506352179 86.9538366527714,105.39921133167213" style="stroke:#000000;stroke-width: 0.2px"/><path d="M 49.158561062220194,83.57809879537137 23.961710668519398,61.75698625907057" style="stroke:#000000;stroke-width: 0.2px"/><path d="M 49.158561062220194,83.57809879537137 30.26092326694459,50.846429990920164" style="stroke:#000000;stroke-width: 0.2px"/><path d="M 49.158561062220194,83.57809879537137 55.45777366064538,72.66754252722097" style="stroke:#000000;stroke-width: 0.2px"/><path d="M 55.45777366064538,72.66754252722097 30.26092326694459,50.846429990920164" style="stroke:#000000;stroke-width: 0.2px"/><path d="M 61.75698625907054,61.75698625907054 55.45777366064538,72.66754252722097" style="stroke:#000000;stroke-width: 0.2px"/><path d="M 55.4577736606454,94.48865506352176 61.75698625907054,61.75698625907054" style="stroke:#000000;stroke-width: 0.2px"/><path d="M 55.4577736606454,94.48865506352176 74.35541145592092,61.75698625907061" style="stroke:#000000;stroke-width: 0.2px"/><path d="M 60.49714373938555,94.48865506352179 68.05619885749579,94.48865506352183" style="stroke:#000000;stroke-width: 0.2px"/><path d="M 30.260923266944523,29.025317454619405 42.85934846379491,29.02531745461938" style="stroke:#000000;stroke-width: 0.2px"/><path d="M 42.85934846379491,29.02531745461938 36.560135865369716,18.11476118646897" style="stroke:#000000;stroke-width: 0.2px"/><path d="M 36.560135865369716,18.11476118646897 30.260923266944516,7.204204918318572" style="stroke:#000000;stroke-width: 0.2px"/><path d="M 42.85934846379491,29.02531745461938 49.158561062220095,18.114761186468964" style="stroke:#000000;stroke-width: 0.2px"/><path d="M 42.85934846379491,29.02531745461938 55.457773660645316,29.025317454619362" style="stroke:#000000;stroke-width: 0.2px"/><path d="M 55.457773660645316,29.025317454619362 68.0561988574957,29.025317454619422" style="stroke:#000000;stroke-width: 0.2px"/><path d="M 42.85934846379491,29.02531745461938 49.15856106222013,39.93587372276978" style="stroke:#000000;stroke-width: 0.2px"/><path d="M 49.15856106222013,39.93587372276978 80.65462405434612,29.025317454619323" style="stroke:#000000;stroke-width: 0.2px"/><path d="M 49.15856106222013,39.93587372276978 86.9538366527713,39.93587372276973" style="stroke:#000000;stroke-width: 0.2px"/><path d="M 49.15856106222013,39.93587372276978 55.45777366064534,50.846429990920136" style="stroke:#000000;stroke-width: 0.2px"/><path d="M 42.85934846379491,29.02531745461938 36.56013586536973,39.93587372276979" style="stroke:#000000;stroke-width: 0.2px"/><path d="M 36.56013586536973,39.93587372276979 61.75698625907054,61.75698625907054" style="stroke:#000000;stroke-width: 0.2px"/><path d="M 36.56013586536973,39.93587372276979 55.45777366064538,72.66754252722097" style="stroke:#000000;stroke-width: 0.2px"/><path d="M 36.56013586536973,39.93587372276979 36.273808019986774,40.43180809859481" style="stroke:#000000;stroke-width: 0.2px"/><circle cx="61.75698625907054" cy="61.75698625907054" r="9.448818897637796" style="stroke:#0000FF;stroke-width: 0.2px;fill:none"/></svg>

