<svg xmlns="http://www.w3.org/2000/svg" width="566" height="566" viewBox="0 0 566 566">
<style type="text/css">
polygon.tile { stroke: #000000; stroke-width:3; stroke-linejoin:round }
polygon.ih1 { fill: #ffff80 }
polygon.ih2 { fill: #8080ff }
polygon.ih3 { fill: #ff8080 }
polygon.ih4 { fill: #80ff80 }
polygon.ih5 { fill: #ff80ff }
polygon.ih6 { fill: #80ffff }
polygon.para {opacity: 0.75; fill: #ff0000; stroke: #ff0000 }
</style>
<polygon class="para" points="87.37873801770569,137.93797859489507 125.17401360825684,116.11686605859427 68.48110022243011,17.921859645240744 30.685824631878965,39.742972181541546 87.37873801770569,137.93797859489507" style="stroke: none"/>
<path d="M 77.92991912006791,77.92991912006791 115.72519471061905,77.92991912006791" style="stroke:#000000;stroke-width: 0.2px"/><path d="M 115.72519471061905,77.92991912006791 96.82755691534348,67.0193628519175" style="stroke:#000000;stroke-width: 0.2px"/><path d="M 96.82755691534348,67.0193628519175 77.92991912006791,56.108806583767105" style="stroke:#000000;stroke-width: 0.2px"/><path d="M 77.92991912006791,56.108806583767105 77.92991912006791,77.92991912006791" style="stroke:#000000;stroke-width: 0.2px"/><path d="M 115.72519471061905,77.92991912006791 96.82755691534348,88.84047538821831" style="stroke:#000000;stroke-width: 0.2px"/><path d="M 96.82755691534348,88.84047538821831 77.92991912006791,99.75103165636871" style="stroke:#000000;stroke-width: 0.2px"/><path d="M 77.92991912006791,99.75103165636871 77.92991912006791,77.92991912006791" style="stroke:#000000;stroke-width: 0.2px"/><path d="M 96.82755691534348,110.66158792451911 59.03228132479232,110.66158792451911" style="stroke:#000000;stroke-width: 0.2px"/><path d="M 59.03228132479232,110.66158792451911 77.92991912006791,99.75103165636871" style="stroke:#000000;stroke-width: 0.2px"/><path d="M 96.82755691534348,88.84047538821831 96.82755691534348,110.66158792451911" style="stroke:#000000;stroke-width: 0.2px"/><path d="M 96.82755691534348,110.66158792451911 84.00415983997792,118.06517967790687" style="stroke:#000000;stroke-width: 0.2px"/><path d="M 84.00415983997792,118.06517967790687 77.92991912006791,121.57214419266951" style="stroke:#000000;stroke-width: 0.2px"/><path d="M 77.92991912006791,121.57214419266951 69.26850179723326,126.57281581557179" style="stroke:#000000;stroke-width: 0.2px"/><path d="M 77.92991912006791,121.57214419266951 77.9299191200679,143.3932567289703" style="stroke:#000000;stroke-width: 0.2px"/><path d="M 96.82755691534348,67.0193628519175 115.72519471061905,34.2876940474663" style="stroke:#000000;stroke-width: 0.2px"/><path d="M 96.82755691534348,45.198250315616704 77.92991912006791,56.108806583767105" style="stroke:#000000;stroke-width: 0.2px"/><path d="M 77.9299191200679,34.28769404746632 59.032281324792336,67.01936285191753" style="stroke:#000000;stroke-width: 0.2px"/><path d="M 59.032281324792336,67.01936285191753 77.92991912006791,56.108806583767105" style="stroke:#000000;stroke-width: 0.2px"/><path d="M 96.82755691534348,45.198250315616704 77.9299191200679,34.28769404746632" style="stroke:#000000;stroke-width: 0.2px"/><path d="M 77.9299191200679,34.28769404746632 59.03228132479232,45.19825031561674" style="stroke:#000000;stroke-width: 0.2px"/><path d="M 59.03228132479232,45.19825031561674 40.13464352951675,56.10880658376715" style="stroke:#000000;stroke-width: 0.2px"/><path d="M 40.13464352951675,56.10880658376715 59.032281324792336,67.01936285191753" style="stroke:#000000;stroke-width: 0.2px"/><path d="M 40.134643529516744,34.28769404746635 21.23700573424118,67.01936285191756" style="stroke:#000000;stroke-width: 0.2px"/><path d="M 21.23700573424118,67.01936285191756 40.13464352951675,56.10880658376715" style="stroke:#000000;stroke-width: 0.2px"/><path d="M 59.03228132479232,45.19825031561674 40.134643529516744,34.28769404746635" style="stroke:#000000;stroke-width: 0.2px"/><path d="M 21.23700573424116,23.377137779315962 40.134643529516744,34.28769404746635" style="stroke:#000000;stroke-width: 0.2px"/><path d="M 96.82755691534348,132.48270046081987 77.9299191200679,165.2143692652711" style="stroke:#000000;stroke-width: 0.2px"/><path d="M 115.72519471061906,143.39325672897027 96.82755691534348,132.48270046081987" style="stroke:#000000;stroke-width: 0.2px"/><path d="M 77.92991912006791,121.57214419266951 96.82755691534348,132.48270046081987" style="stroke:#000000;stroke-width: 0.2px"/><path d="M 59.032281324792315,23.377137779315984 21.23700573424116,23.377137779315962" style="stroke:#000000;stroke-width: 0.2px"/><path d="M 59.03228132479232,1.5560252430151824 59.032281324792315,23.377137779315984" style="stroke:#000000;stroke-width: 0.2px"/><path d="M 59.03228132479232,45.19825031561674 59.032281324792315,23.377137779315984" style="stroke:#000000;stroke-width: 0.2px"/><path d="M 115.72519471061906,143.39325672897027 115.72519471061905,121.57214419266951" style="stroke:#000000;stroke-width: 0.2px"/><path d="M 115.72519471061905,121.57214419266951 115.72519471061905,99.75103165636868" style="stroke:#000000;stroke-width: 0.2px"/><path d="M 115.72519471061905,99.75103165636868 134.62283250589462,110.66158792451907" style="stroke:#000000;stroke-width: 0.2px"/><path d="M 134.62283250589462,88.84047538821831 96.82755691534348,88.84047538821831" style="stroke:#000000;stroke-width: 0.2px"/><path d="M 134.62283250589462,88.84047538821831 115.72519471061905,99.75103165636868" style="stroke:#000000;stroke-width: 0.2px"/><path d="M 115.72519471061905,99.75103165636868 96.82755691534348,110.66158792451911" style="stroke:#000000;stroke-width: 0.2px"/><path d="M 115.72519471061905,121.57214419266951 77.92991912006791,121.57214419266951" style="stroke:#000000;stroke-width: 0.2px"/><path d="M 96.82755691534348,23.377137779315937 77.9299191200679,34.28769404746632" style="stroke:#000000;stroke-width: 0.2px"/><path d="M 77.9299191200679,12.466581511165549 59.03228132479232,45.19825031561674" style="stroke:#000000;stroke-width: 0.2px"/><path d="M 153.52047030117018,99.75103165636871 115.72519471061905,99.75103165636868" style="stroke:#000000;stroke-width: 0.2px"/><path d="M 40.13464352951676,99.75103165636871 77.92991912006791,99.75103165636871" style="stroke:#000000;stroke-width: 0.2px"/><path d="M 77.92991912006791,99.75103165636871 59.03228132479233,88.84047538821831" style="stroke:#000000;stroke-width: 0.2px"/><path d="M 59.03228132479233,88.84047538821831 40.13464352951676,77.92991912006791" style="stroke:#000000;stroke-width: 0.2px"/><path d="M 59.03228132479233,88.84047538821831 77.92991912006791,56.108806583767105" style="stroke:#000000;stroke-width: 0.2px"/><path d="M 59.032281324792336,67.01936285191753 40.13464352951676,77.92991912006791" style="stroke:#000000;stroke-width: 0.2px"/><path d="M 40.13464352951675,56.10880658376715 21.237005734241198,88.84047538821834" style="stroke:#000000;stroke-width: 0.2px"/><circle cx="77.92991912006791" cy="77.92991912006791" r="9.448818897637796" style="stroke:#0000FF;stroke-width: 0.2px;fill:none"/></svg>

