<svg xmlns="http://www.w3.org/2000/svg" width="566" height="566" viewBox="0 0 566 566">
<style type="text/css">
polygon.tile { stroke: #000000; stroke-width:3; stroke-linejoin:round }
polygon.ih1 { fill: #ffff80 }
polygon.ih2 { fill: #8080ff }
polygon.ih3 { fill: #ff8080 }
polygon.ih4 { fill: #80ff80 }
polygon.ih5 { fill: #ff80ff }
polygon.ih6 { fill: #80ffff }
polygon.para {opacity: 0.75; fill: #ff0000; stroke: #ff0000 }
</style>
<polygon class="para" points="45.761926817971315,123.20588671756154 102.45484020379808,90.47421791311028 102.45484020379807,25.01088030420785 45.76192681797129,57.74254910865909 45.761926817971315,123.20588671756154" style="stroke: none"/>
<path d="M 74.10838351088469,74.10838351088469 93.00602130616029,74.10838351088469" style="stroke:#000000;stroke-width: 0.2px"/><path d="M 93.00602130616029,74.10838351088469 83.55720240852249,57.74254910865907" style="stroke:#000000;stroke-width: 0.2px"/><path d="M 83.55720240852249,57.74254910865907 74.10838351088469,41.37671470643346" style="stroke:#000000;stroke-width: 0.2px"/><path d="M 74.10838351088469,41.37671470643346 74.10838351088469,74.10838351088469" style="stroke:#000000;stroke-width: 0.2px"/><path d="M 74.10838351088469,74.10838351088469 55.210745715609086,74.10838351088469" style="stroke:#000000;stroke-width: 0.2px"/><path d="M 55.210745715609086,74.10838351088469 74.10838351088469,41.37671470643346" style="stroke:#000000;stroke-width: 0.2px"/><path d="M 55.210745715609086,74.10838351088469 55.210745715609086,41.376714706433454" style="stroke:#000000;stroke-width: 0.2px"/><path d="M 45.76192681797131,57.74254910865907 55.210745715609086,74.10838351088469" style="stroke:#000000;stroke-width: 0.2px"/><path d="M 45.76192681797131,90.4742179131103 55.210745715609086,74.10838351088469" style="stroke:#000000;stroke-width: 0.2px"/><path d="M 36.31310792033352,106.84005231533591 55.210745715609114,106.8400523153359" style="stroke:#000000;stroke-width: 0.2px"/><path d="M 55.210745715609114,106.8400523153359 74.10838351088472,106.8400523153359" style="stroke:#000000;stroke-width: 0.2px"/><path d="M 74.10838351088472,106.8400523153359 45.76192681797131,90.4742179131103" style="stroke:#000000;stroke-width: 0.2px"/><path d="M 55.210745715609086,74.10838351088469 74.10838351088472,106.8400523153359" style="stroke:#000000;stroke-width: 0.2px"/><path d="M 83.5572024085225,90.47421791311027 74.10838351088472,106.8400523153359" style="stroke:#000000;stroke-width: 0.2px"/><path d="M 55.210745715609086,74.10838351088469 83.5572024085225,90.47421791311027" style="stroke:#000000;stroke-width: 0.2px"/><path d="M 83.5572024085225,90.47421791311027 93.00602130616029,74.10838351088469" style="stroke:#000000;stroke-width: 0.2px"/><path d="M 93.00602130616029,74.10838351088469 102.4548402037981,90.47421791311027" style="stroke:#000000;stroke-width: 0.2px"/><path d="M 74.10838351088472,106.8400523153359 102.4548402037981,90.47421791311027" style="stroke:#000000;stroke-width: 0.2px"/><path d="M 111.90365910143586,41.376714706433454 74.10838351088469,41.37671470643346" style="stroke:#000000;stroke-width: 0.2px"/><path d="M 111.90365910143586,41.376714706433454 83.55720240852249,57.74254910865907" style="stroke:#000000;stroke-width: 0.2px"/><path d="M 93.00602130616029,74.10838351088469 102.45484020379808,57.742549108659055" style="stroke:#000000;stroke-width: 0.2px"/><circle cx="74.10838351088469" cy="74.10838351088469" r="9.448818897637796" style="stroke:#0000FF;stroke-width: 0.2px;fill:none"/></svg>

