<svg xmlns:inkscape="http://www.inkscape.org/namespaces/inkscape" xmlns:sodipodi="http://sodipodi.sourceforge.net/DTD/sodipodi-0.dtd" xmlns="http://www.w3.org/2000/svg" xmlns:svg="http://www.w3.org/2000/svg" width="27.777363" height="43.682224" viewBox="0 0 27.777363 43.682224" version="1.1" id="svg80" sodipodi:docname="N3-21.svg">
  <defs id="defs84"/>
  <sodipodi:namedview id="namedview82" pagecolor="#ffffff" bordercolor="#666666" borderopacity="1.0" inkscape:showpageshadow="2" inkscape:pageopacity="0.0" inkscape:pagecheckerboard="0" inkscape:deskcolor="#d1d1d1"/>
  <style type="text/css" id="style2">
polygon.tile { stroke: #000000; stroke-width:3; stroke-linejoin:round }
polygon.ih1 { fill: #ffff80 }
polygon.ih2 { fill: #8080ff }
polygon.ih3 { fill: #ff8080 }
polygon.ih4 { fill: #80ff80 }
polygon.ih5 { fill: #ff80ff }
polygon.ih6 { fill: #80ffff }
polygon.para {opacity: 0.75; fill: #ff0000; stroke: #ff0000 }
</style>
  <polygon class="para" points="33.41053,78.122821 33.41053,12.659483 90.103443,45.391152 90.103443,110.85449 " style="stroke:none" id="polygon4" transform="matrix(0.4,0,0,0.4,-9.5584979,-2.861682)"/>
  <path d="m 15.144297,21.841112 h 5.03937" style="stroke:#000000;stroke-width:0.08px" id="path6"/>
  <path d="m 20.183667,21.841112 h 5.03937" style="stroke:#000000;stroke-width:0.08px" id="path8"/>
  <path d="M 27.742722,17.47689 15.144297,21.841112" style="stroke:#000000;stroke-width:0.08px" id="path10"/>
  <path d="M 27.742722,17.47689 H 12.624612" style="stroke:#000000;stroke-width:0.08px" id="path12"/>
  <path d="m 12.624612,17.47689 2.519685,4.364222" style="stroke:#000000;stroke-width:0.08px" id="path14"/>
  <path d="M 25.223037,13.112667 12.624612,17.47689" style="stroke:#000000;stroke-width:0.08px" id="path16"/>
  <path d="m 27.742722,26.205335 -2.519685,4.364222" style="stroke:#000000;stroke-width:0.08px" id="path18"/>
  <path d="m 22.703352,34.93378 2.519685,-4.364223" style="stroke:#000000;stroke-width:0.08px" id="path20"/>
  <path d="M 25.223037,21.841112 22.703352,34.93378" style="stroke:#000000;stroke-width:0.08px" id="path22"/>
  <path d="M 25.223037,21.841112 17.663982,34.93378" style="stroke:#000000;stroke-width:0.08px" id="path24"/>
  <path d="m 17.663982,34.93378 h 5.03937" style="stroke:#000000;stroke-width:0.08px" id="path26"/>
  <path d="M 20.183667,21.841112 17.663982,34.93378" style="stroke:#000000;stroke-width:0.08px" id="path28"/>
  <path d="M 27.742722,43.662225 25.223037,39.298002" style="stroke:#000000;stroke-width:0.08px" id="path30"/>
  <path d="m 22.703352,34.93378 2.519685,4.364222" style="stroke:#000000;stroke-width:0.08px" id="path32"/>
  <path d="M 10.104927,30.569557 0.02618614,21.841112" style="stroke:#000000;stroke-width:0.08px" id="path34"/>
  <path d="M 10.104927,30.569557 2.5458711,17.47689" style="stroke:#000000;stroke-width:0.08px" id="path36"/>
  <path d="m 10.104927,30.569557 2.519685,-4.364222" style="stroke:#000000;stroke-width:0.08px" id="path38"/>
  <path d="M 12.624612,26.205335 2.5458711,17.47689" style="stroke:#000000;stroke-width:0.08px" id="path40"/>
  <path d="m 15.144297,21.841112 -2.519685,4.364223" style="stroke:#000000;stroke-width:0.08px" id="path42"/>
  <path d="M 12.624612,34.93378 15.144297,21.841112" style="stroke:#000000;stroke-width:0.08px" id="path44"/>
  <path d="M 12.624612,34.93378 20.183667,21.841112" style="stroke:#000000;stroke-width:0.08px" id="path46"/>
  <path d="m 14.64036,34.93378 h 3.023622" style="stroke:#000000;stroke-width:0.08px" id="path48"/>
  <path d="m 2.5458711,8.748445 h 5.039371" style="stroke:#000000;stroke-width:0.08px" id="path50"/>
  <path d="M 7.5852421,8.748445 5.0655561,4.384222" style="stroke:#000000;stroke-width:0.08px" id="path52"/>
  <path d="M 5.0655561,4.384222 2.5458711,0.02" style="stroke:#000000;stroke-width:0.08px" id="path54"/>
  <path d="M 7.5852421,8.748445 10.104927,4.384222" style="stroke:#000000;stroke-width:0.08px" id="path56"/>
  <path d="M 7.5852421,8.748445 H 12.624612" style="stroke:#000000;stroke-width:0.08px" id="path58"/>
  <path d="m 12.624612,8.748445 h 5.03937" style="stroke:#000000;stroke-width:0.08px" id="path60"/>
  <path d="m 7.5852421,8.748445 2.5196849,4.364222" style="stroke:#000000;stroke-width:0.08px" id="path62"/>
  <path d="M 10.104927,13.112667 22.703352,8.748445" style="stroke:#000000;stroke-width:0.08px" id="path64"/>
  <path d="m 10.104927,13.112667 h 15.11811" style="stroke:#000000;stroke-width:0.08px" id="path66"/>
  <path d="m 10.104927,13.112667 2.519685,4.364223" style="stroke:#000000;stroke-width:0.08px" id="path68"/>
  <path d="m 7.5852421,8.748445 -2.519686,4.364222" style="stroke:#000000;stroke-width:0.08px" id="path70"/>
  <path d="M 5.0655561,13.112667 15.144297,21.841112" style="stroke:#000000;stroke-width:0.08px" id="path72"/>
  <path d="M 5.0655561,13.112667 12.624612,26.205335" style="stroke:#000000;stroke-width:0.08px" id="path74"/>
  <path d="m 5.0655561,13.112667 -0.114531,0.198374" style="stroke:#000000;stroke-width:0.08px" id="path76"/>
  </svg>