<svg xmlns="http://www.w3.org/2000/svg" width="566" height="566" viewBox="0 0 566 566">
<style type="text/css">
polygon.tile { stroke: #000000; stroke-width:3; stroke-linejoin:round }
polygon.ih1 { fill: #ffff80 }
polygon.ih2 { fill: #8080ff }
polygon.ih3 { fill: #ff8080 }
polygon.ih4 { fill: #80ff80 }
polygon.ih5 { fill: #ff80ff }
polygon.ih6 { fill: #80ffff }
polygon.para {opacity: 0.75; fill: #ff0000; stroke: #ff0000 }
</style>
<polygon class="para" points="27.112196814768662,17.820849492202445 56.36412623347685,3.9589706987761595 111.93440767106944,121.22575499363565 82.68247825236125,135.08763378706192 27.112196814768662,17.820849492202445" style="stroke: none"/>
<path d="M 69.52330224291904,69.52330224291904 98.77523166162723,69.52330224291904" style="stroke:#000000;stroke-width: 0.2px"/><path d="M 80.25180451576303,54.36777094175744 69.52330224291904,45.589905445794166" style="stroke:#000000;stroke-width: 0.2px"/><path d="M 69.52330224291904,45.589905445794166 69.52330224291904,69.52330224291904" style="stroke:#000000;stroke-width: 0.2px"/><path d="M 98.77523166162723,69.52330224291904 69.52330224291904,93.45669904004393" style="stroke:#000000;stroke-width: 0.2px"/><path d="M 69.52330224291904,93.45669904004393 69.52330224291906,83.38518103634532" style="stroke:#000000;stroke-width: 0.2px"/><path d="M 69.52330224291906,83.38518103634532 69.52330224291904,69.52330224291904" style="stroke:#000000;stroke-width: 0.2px"/><path d="M 98.77523166162725,93.45669904004393 69.52330224291904,93.45669904004393" style="stroke:#000000;stroke-width: 0.2px"/><path d="M 98.77523166162725,93.45669904004393 69.52330224291904,117.39009583716881" style="stroke:#000000;stroke-width: 0.2px"/><path d="M 69.52330224291906,107.31857783347021 69.52330224291904,93.45669904004393" style="stroke:#000000;stroke-width: 0.2px"/><path d="M 98.77523166162725,117.39009583716881 69.52330224291904,117.39009583716881" style="stroke:#000000;stroke-width: 0.2px"/><path d="M 98.77523166162725,93.45669904004393 98.77523166162725,103.52821704374253" style="stroke:#000000;stroke-width: 0.2px"/><path d="M 98.77523166162725,103.52821704374253 98.77523166162725,117.39009583716881" style="stroke:#000000;stroke-width: 0.2px"/><path d="M 69.52330224291904,117.39009583716881 88.04672938878325,132.54562713833045" style="stroke:#000000;stroke-width: 0.2px"/><path d="M 50.99987509705486,30.434374144632553 43.204950224034654,24.056708339434223" style="stroke:#000000;stroke-width: 0.2px"/><path d="M 43.204950224034654,24.056708339434223 32.47644795119067,15.278842843470942" style="stroke:#000000;stroke-width: 0.2px"/><path d="M 32.47644795119066,53.074118434022104 50.99987509705486,30.434374144632553" style="stroke:#000000;stroke-width: 0.2px"/><path d="M 32.47644795119066,53.074118434022104 69.52330224291904,45.589905445794166" style="stroke:#000000;stroke-width: 0.2px"/><path d="M 69.52330224291904,45.589905445794166 61.72837736989884,39.212239640595826" style="stroke:#000000;stroke-width: 0.2px"/><path d="M 61.72837736989884,39.212239640595826 50.99987509705486,30.434374144632553" style="stroke:#000000;stroke-width: 0.2px"/><path d="M 50.999875097054854,68.22964973518371 69.52330224291904,45.589905445794166" style="stroke:#000000;stroke-width: 0.2px"/><path d="M 69.52330224291906,83.38518103634532 50.999875097054854,68.22964973518371" style="stroke:#000000;stroke-width: 0.2px"/><path d="M 43.204950224034654,24.056708339434223 43.20495022403466,0.12331154230933848" style="stroke:#000000;stroke-width: 0.2px"/><path d="M 61.72837736989886,1.4169640500446572 43.204950224034654,24.056708339434223" style="stroke:#000000;stroke-width: 0.2px"/><path d="M 43.204950224034654,24.056708339434223 80.25180451576304,16.572495351206275" style="stroke:#000000;stroke-width: 0.2px"/><circle cx="69.52330224291904" cy="69.52330224291904" r="9.448818897637796" style="stroke:#0000FF;stroke-width: 0.2px;fill:none"/></svg>

