<svg xmlns="http://www.w3.org/2000/svg" width="566" height="566" viewBox="0 0 566 566">
<style type="text/css">
polygon.tile { stroke: #000000; stroke-width:3; stroke-linejoin:round }
polygon.ih1 { fill: #ffff80 }
polygon.ih2 { fill: #8080ff }
polygon.ih3 { fill: #ff8080 }
polygon.ih4 { fill: #80ff80 }
polygon.ih5 { fill: #ff80ff }
polygon.ih6 { fill: #80ffff }
polygon.para {opacity: 0.75; fill: #ff0000; stroke: #ff0000 }
</style>
<polygon class="para" points="45.76192681797132,123.20588671756154 102.45484020379808,90.47421791311028 102.45484020379806,25.010880304207834 45.76192681797129,57.74254910865909 45.76192681797132,123.20588671756154" style="stroke: none"/>
<path d="M 74.10838351088469,74.10838351088469 93.00602130616029,74.10838351088469" style="stroke:#000000;stroke-width: 0.2px"/><path d="M 93.00602130616029,74.10838351088469 83.5572024085225,57.74254910865907" style="stroke:#000000;stroke-width: 0.2px"/><path d="M 83.5572024085225,57.74254910865907 74.10838351088469,41.37671470643346" style="stroke:#000000;stroke-width: 0.2px"/><path d="M 74.10838351088469,41.37671470643346 74.10838351088469,74.10838351088469" style="stroke:#000000;stroke-width: 0.2px"/><path d="M 55.210745715609086,41.37671470643346 74.10838351088469,74.10838351088469" style="stroke:#000000;stroke-width: 0.2px"/><path d="M 55.210745715609086,74.10838351088469 74.10838351088469,74.10838351088469" style="stroke:#000000;stroke-width: 0.2px"/><path d="M 55.210745715609086,41.37671470643346 55.210745715609086,74.10838351088469" style="stroke:#000000;stroke-width: 0.2px"/><path d="M 45.76192681797131,57.74254910865908 55.210745715609086,74.10838351088469" style="stroke:#000000;stroke-width: 0.2px"/><path d="M 45.76192681797132,90.47421791311031 55.210745715609086,74.10838351088469" style="stroke:#000000;stroke-width: 0.2px"/><path d="M 36.31310792033353,106.84005231533594 55.21074571560913,106.84005231533591" style="stroke:#000000;stroke-width: 0.2px"/><path d="M 55.21074571560913,106.84005231533591 74.10838351088472,106.84005231533591" style="stroke:#000000;stroke-width: 0.2px"/><path d="M 74.10838351088472,106.84005231533591 45.76192681797132,90.47421791311031" style="stroke:#000000;stroke-width: 0.2px"/><path d="M 74.10838351088472,106.84005231533591 83.55720240852251,90.47421791311028" style="stroke:#000000;stroke-width: 0.2px"/><path d="M 83.55720240852251,90.47421791311028 45.76192681797132,90.47421791311031" style="stroke:#000000;stroke-width: 0.2px"/><path d="M 83.55720240852251,90.47421791311028 55.210745715609086,74.10838351088469" style="stroke:#000000;stroke-width: 0.2px"/><path d="M 83.55720240852251,90.47421791311028 93.00602130616029,74.10838351088469" style="stroke:#000000;stroke-width: 0.2px"/><path d="M 93.00602130616029,74.10838351088469 102.4548402037981,90.47421791311028" style="stroke:#000000;stroke-width: 0.2px"/><path d="M 74.10838351088469,41.37671470643346 102.45484020379807,25.010880304207827" style="stroke:#000000;stroke-width: 0.2px"/><path d="M 83.5572024085225,57.74254910865907 102.45484020379807,25.010880304207827" style="stroke:#000000;stroke-width: 0.2px"/><path d="M 83.5572024085225,57.74254910865907 111.90365910143586,41.37671470643344" style="stroke:#000000;stroke-width: 0.2px"/><path d="M 93.00602130616029,74.10838351088469 102.45484020379808,57.74254910865906" style="stroke:#000000;stroke-width: 0.2px"/><circle cx="74.10838351088469" cy="74.10838351088469" r="9.448818897637796" style="stroke:#0000FF;stroke-width: 0.2px;fill:none"/></svg>

