<svg xmlns="http://www.w3.org/2000/svg" width="566" height="566" viewBox="0 0 566 566">
<style type="text/css">
polygon.tile { stroke: #000000; stroke-width:3; stroke-linejoin:round }
polygon.ih1 { fill: #ffff80 }
polygon.ih2 { fill: #8080ff }
polygon.ih3 { fill: #ff8080 }
polygon.ih4 { fill: #80ff80 }
polygon.ih5 { fill: #ff80ff }
polygon.ih6 { fill: #80ffff }
polygon.para {opacity: 0.75; fill: #ff0000; stroke: #ff0000 }
</style>
<polygon class="para" points="40.30525596065197,105.75908865819963 96.99816934647876,138.49075746265086 136.14327620812102,70.68944351057334 79.45036282229424,37.95777470612214 40.30525596065197,105.75908865819963" style="stroke: none"/>
<path d="M 88.22426608438649,88.22426608438649 114.32100399214802,88.22426608438649" style="stroke:#000000;stroke-width: 0.2px"/><path d="M 114.32100399214802,88.22426608438649 95.42336619687241,55.492597279935275" style="stroke:#000000;stroke-width: 0.2px"/><path d="M 95.42336619687241,55.492597279935275 88.22426608438649,88.22426608438649" style="stroke:#000000;stroke-width: 0.2px"/><path d="M 121.52010410463394,55.492597279935275 109.8215664218443,55.49259727993528" style="stroke:#000000;stroke-width: 0.2px"/><path d="M 109.8215664218443,55.49259727993528 95.42336619687241,55.492597279935275" style="stroke:#000000;stroke-width: 0.2px"/><path d="M 114.32100399214802,88.22426608438649 121.52010410463394,55.492597279935275" style="stroke:#000000;stroke-width: 0.2px"/><path d="M 114.32100399214802,88.22426608438649 126.01954167493767,88.22426608438649" style="stroke:#000000;stroke-width: 0.2px"/><path d="M 126.01954167493767,88.22426608438649 140.41774189990954,88.22426608438649" style="stroke:#000000;stroke-width: 0.2px"/><path d="M 140.41774189990954,88.22426608438649 121.52010410463394,55.492597279935275" style="stroke:#000000;stroke-width: 0.2px"/><path d="M 95.42336619687241,55.492597279935275 83.72482851408276,55.492597279935275" style="stroke:#000000;stroke-width: 0.2px"/><path d="M 83.72482851408276,55.492597279935275 69.3266282891109,55.492597279935275" style="stroke:#000000;stroke-width: 0.2px"/><path d="M 69.3266282891109,55.492597279935275 82.37499724299165,78.09303526396111" style="stroke:#000000;stroke-width: 0.2px"/><path d="M 82.37499724299165,78.09303526396111 88.05042417826111,87.9231630704927" style="stroke:#000000;stroke-width: 0.2px"/><path d="M 88.05042417826111,87.9231630704927 88.22426608438649,88.22426608438649" style="stroke:#000000;stroke-width: 0.2px"/><path d="M 101.27263503826725,110.82470406841233 95.42336619687244,100.69347324798693" style="stroke:#000000;stroke-width: 0.2px"/><path d="M 95.42336619687244,100.69347324798693 88.22426608438649,88.22426608438649" style="stroke:#000000;stroke-width: 0.2px"/><path d="M 126.01954167493767,88.22426608438649 101.27263503826725,110.82470406841233" style="stroke:#000000;stroke-width: 0.2px"/><path d="M 126.01954167493767,88.22426608438649 139.06791062881842,110.82470406841233" style="stroke:#000000;stroke-width: 0.2px"/><path d="M 139.06791062881842,110.82470406841233 101.27263503826725,110.82470406841233" style="stroke:#000000;stroke-width: 0.2px"/><path d="M 108.47173515075322,123.29391123201277 101.27263503826725,110.82470406841233" style="stroke:#000000;stroke-width: 0.2px"/><path d="M 51.77882176492643,90.56224242756156 25.6820838571649,90.56224242756156" style="stroke:#000000;stroke-width: 0.2px"/><path d="M 44.57972165244051,123.29391123201277 51.77882176492643,90.56224242756156" style="stroke:#000000;stroke-width: 0.2px"/><path d="M 56.27825933523015,123.29391123201277 70.67645956020203,123.29391123201277" style="stroke:#000000;stroke-width: 0.2px"/><path d="M 70.67645956020203,123.29391123201277 57.62809060632125,100.69347324798696" style="stroke:#000000;stroke-width: 0.2px"/><path d="M 57.62809060632125,100.69347324798696 51.77882176492643,90.56224242756156" style="stroke:#000000;stroke-width: 0.2px"/><path d="M 82.37499724299168,123.29391123201277 70.67645956020203,123.29391123201277" style="stroke:#000000;stroke-width: 0.2px"/><path d="M 75.17589713050575,156.025580036464 82.37499724299168,123.29391123201277" style="stroke:#000000;stroke-width: 0.2px"/><path d="M 101.27263503826727,156.025580036464 82.37499724299168,123.29391123201277" style="stroke:#000000;stroke-width: 0.2px"/><path d="M 108.47173515075322,123.29391123201277 82.37499724299168,123.29391123201277" style="stroke:#000000;stroke-width: 0.2px"/><path d="M 109.8215664218443,55.49259727993528 96.77319746796353,32.89215929590946" style="stroke:#000000;stroke-width: 0.2px"/><path d="M 134.56847305851468,32.89215929590944 109.8215664218443,55.49259727993528" style="stroke:#000000;stroke-width: 0.2px"/><path d="M 57.62809060632123,55.492597279935275 69.3266282891109,55.492597279935275" style="stroke:#000000;stroke-width: 0.2px"/><path d="M 83.72482851408276,55.492597279935275 64.82719071880717,22.760928475484047" style="stroke:#000000;stroke-width: 0.2px"/><path d="M 83.72482851408276,55.492597279935275 90.92392862656868,22.760928475484047" style="stroke:#000000;stroke-width: 0.2px"/><path d="M 69.3266282891109,55.492597279935275 44.57972165244048,78.09303526396111" style="stroke:#000000;stroke-width: 0.2px"/><path d="M 82.37499724299165,78.09303526396111 44.57972165244048,78.09303526396111" style="stroke:#000000;stroke-width: 0.2px"/><path d="M 51.77882176492643,90.56224242756156 44.57972165244048,78.09303526396111" style="stroke:#000000;stroke-width: 0.2px"/><path d="M 82.37499724299165,78.09303526396111 57.62809060632125,100.69347324798696" style="stroke:#000000;stroke-width: 0.2px"/><path d="M 95.42336619687244,100.69347324798693 57.62809060632125,100.69347324798696" style="stroke:#000000;stroke-width: 0.2px"/><path d="M 95.42336619687244,100.69347324798693 70.67645956020203,123.29391123201277" style="stroke:#000000;stroke-width: 0.2px"/><circle cx="88.22426608438649" cy="88.22426608438649" r="9.448818897637796" style="stroke:#0000FF;stroke-width: 0.2px;fill:none"/></svg>

