<svg xmlns="http://www.w3.org/2000/svg" width="566" height="566" viewBox="0 0 566 566">
<style type="text/css">
polygon.tile { stroke: #000000; stroke-width:3; stroke-linejoin:round }
polygon.ih1 { fill: #ffff80 }
polygon.ih2 { fill: #8080ff }
polygon.ih3 { fill: #ff8080 }
polygon.ih4 { fill: #80ff80 }
polygon.ih5 { fill: #ff80ff }
polygon.ih6 { fill: #80ffff }
polygon.para {opacity: 0.75; fill: #ff0000; stroke: #ff0000 }
</style>
<polygon class="para" points="92.49048402365949,25.677244856426707 12.314597022980164,25.677244856426704 12.314597022980154,79.12783619021295 92.49048402365949,79.12783619021295 92.49048402365949,25.677244856426707" style="stroke: none"/>
<path d="M 52.40254052331983,52.40254052331983 65.76518835676639,52.402540523319836" style="stroke:#000000;stroke-width: 0.2px"/><path d="M 65.76518835676639,52.402540523319836 79.12783619021295,52.40254052331983" style="stroke:#000000;stroke-width: 0.2px"/><path d="M 79.12783619021295,52.40254052331983 52.40254052331983,25.677244856426714" style="stroke:#000000;stroke-width: 0.2px"/><path d="M 52.40254052331983,25.677244856426714 52.40254052331983,52.40254052331983" style="stroke:#000000;stroke-width: 0.2px"/><path d="M 79.12783619021295,25.677244856426714 74.67362024573076,25.677244856426714" style="stroke:#000000;stroke-width: 0.2px"/><path d="M 74.67362024573076,25.677244856426714 65.76518835676639,25.677244856426707" style="stroke:#000000;stroke-width: 0.2px"/><path d="M 65.76518835676639,25.677244856426707 62.42452639840475,25.677244856426714" style="stroke:#000000;stroke-width: 0.2px"/><path d="M 62.42452639840475,25.677244856426714 52.40254052331983,25.677244856426714" style="stroke:#000000;stroke-width: 0.2px"/><path d="M 79.12783619021295,52.40254052331983 79.12783619021295,25.677244856426714" style="stroke:#000000;stroke-width: 0.2px"/><path d="M 79.12783619021295,25.677244856426714 92.49048402365949,25.677244856426725" style="stroke:#000000;stroke-width: 0.2px"/><path d="M 92.49048402365949,25.677244856426725 105.85313185710606,25.677244856426725" style="stroke:#000000;stroke-width: 0.2px"/><path d="M 105.85313185710606,25.677244856426725 79.12783619021295,52.40254052331983" style="stroke:#000000;stroke-width: 0.2px"/><path d="M 52.40254052331983,25.677244856426714 39.03989268987329,25.67724485642675" style="stroke:#000000;stroke-width: 0.2px"/><path d="M 39.03989268987329,25.67724485642675 25.677244856426714,25.677244856426718" style="stroke:#000000;stroke-width: 0.2px"/><path d="M 25.677244856426714,25.677244856426718 52.40254052331983,52.40254052331983" style="stroke:#000000;stroke-width: 0.2px"/><path d="M 25.677244856426718,52.40254052331983 39.03989268987328,52.40254052331987" style="stroke:#000000;stroke-width: 0.2px"/><path d="M 39.03989268987328,52.40254052331987 52.40254052331983,52.40254052331983" style="stroke:#000000;stroke-width: 0.2px"/><path d="M 25.677244856426714,25.677244856426718 25.677244856426718,52.40254052331983" style="stroke:#000000;stroke-width: 0.2px"/><path d="M 25.677244856426718,52.40254052331983 12.314597022980164,52.40254052331985" style="stroke:#000000;stroke-width: 0.2px"/><path d="M 12.314597022980164,52.40254052331985 -1.0480508104663906,52.40254052331983" style="stroke:#000000;stroke-width: 0.2px"/><path d="M -1.0480508104663906,52.40254052331983 25.677244856426714,25.677244856426718" style="stroke:#000000;stroke-width: 0.2px"/><path d="M 65.76518835676639,25.677244856426707 92.49048402365952,-1.0480508104663906" style="stroke:#000000;stroke-width: 0.2px"/><path d="M 92.49048402365952,-1.0480508104663906 92.49048402365949,25.677244856426725" style="stroke:#000000;stroke-width: 0.2px"/><path d="M 65.76518835676639,25.677244856426707 65.7651883567664,-1.0480508104664013" style="stroke:#000000;stroke-width: 0.2px"/><path d="M 39.03989268987329,-1.0480508104664223 65.76518835676639,25.677244856426707" style="stroke:#000000;stroke-width: 0.2px"/><path d="M 119.21577969055262,-1.0480508104663697 92.49048402365949,25.677244856426725" style="stroke:#000000;stroke-width: 0.2px"/><path d="M -1.0480508104664013,79.12783619021296 12.314597022980154,79.12783619021297" style="stroke:#000000;stroke-width: 0.2px"/><path d="M 12.314597022980154,79.12783619021297 25.677244856426697,79.12783619021297" style="stroke:#000000;stroke-width: 0.2px"/><path d="M 25.677244856426697,79.12783619021297 -1.0480508104664117,105.85313185710606" style="stroke:#000000;stroke-width: 0.2px"/><path d="M -14.41069864391296,79.12783619021295 12.314597022980164,52.40254052331985" style="stroke:#000000;stroke-width: 0.2px"/><path d="M 12.314597022980164,52.40254052331985 12.314597022980154,79.12783619021297" style="stroke:#000000;stroke-width: 0.2px"/><path d="M 39.03989268987328,52.40254052331987 12.314597022980154,79.12783619021297" style="stroke:#000000;stroke-width: 0.2px"/><path d="M 39.03989268987327,79.12783619021299 25.677244856426697,79.12783619021297" style="stroke:#000000;stroke-width: 0.2px"/><path d="M 39.03989268987328,52.40254052331987 39.03989268987327,79.12783619021299" style="stroke:#000000;stroke-width: 0.2px"/><path d="M 39.03989268987327,79.12783619021299 52.40254052331981,79.12783619021296" style="stroke:#000000;stroke-width: 0.2px"/><path d="M 52.40254052331981,79.12783619021296 65.76518835676639,79.12783619021302" style="stroke:#000000;stroke-width: 0.2px"/><path d="M 65.76518835676639,79.12783619021302 39.03989268987328,52.40254052331987" style="stroke:#000000;stroke-width: 0.2px"/><path d="M 79.12783619021293,105.85313185710606 52.40254052331981,79.12783619021296" style="stroke:#000000;stroke-width: 0.2px"/><path d="M 52.40254052331981,79.12783619021296 52.40254052331981,105.85313185710606" style="stroke:#000000;stroke-width: 0.2px"/><path d="M 79.12783619021293,79.12783619021296 65.76518835676639,79.12783619021302" style="stroke:#000000;stroke-width: 0.2px"/><path d="M 79.12783619021293,105.85313185710606 79.12783619021293,79.12783619021296" style="stroke:#000000;stroke-width: 0.2px"/><path d="M 79.12783619021293,79.12783619021296 92.49048402365949,79.12783619021297" style="stroke:#000000;stroke-width: 0.2px"/><path d="M 92.49048402365949,79.12783619021297 105.85313185710602,79.12783619021297" style="stroke:#000000;stroke-width: 0.2px"/><path d="M 25.677244856426697,79.12783619021297 52.40254052331981,105.85313185710606" style="stroke:#000000;stroke-width: 0.2px"/><path d="M 25.677244856426697,79.12783619021297 25.677244856426697,105.85313185710606" style="stroke:#000000;stroke-width: 0.2px"/><path d="M 65.76518835676639,79.12783619021302 92.49048402365949,52.40254052331985" style="stroke:#000000;stroke-width: 0.2px"/><path d="M 92.49048402365949,52.40254052331985 92.49048402365949,79.12783619021297" style="stroke:#000000;stroke-width: 0.2px"/><path d="M 79.12783619021295,52.40254052331983 92.49048402365949,52.40254052331985" style="stroke:#000000;stroke-width: 0.2px"/><path d="M 65.76518835676639,79.12783619021302 65.76518835676639,52.402540523319836" style="stroke:#000000;stroke-width: 0.2px"/><path d="M 92.49048402365949,52.40254052331985 105.85313185710606,52.402540523319836" style="stroke:#000000;stroke-width: 0.2px"/><path d="M 119.21577969055262,52.40254052331987 92.49048402365949,79.12783619021297" style="stroke:#000000;stroke-width: 0.2px"/><path d="M 5.633273106256885,25.677244856426714 12.314597022980164,25.677244856426718" style="stroke:#000000;stroke-width: 0.2px"/><path d="M 12.314597022980164,25.677244856426718 25.677244856426714,25.677244856426718" style="stroke:#000000;stroke-width: 0.2px"/><path d="M 12.31459702298018,-1.0480508104664013 12.314597022980164,25.677244856426718" style="stroke:#000000;stroke-width: 0.2px"/><path d="M 39.03989268987329,-1.0480508104664223 12.314597022980164,25.677244856426718" style="stroke:#000000;stroke-width: 0.2px"/><path d="M 39.03989268987329,-1.0480508104664223 39.03989268987329,25.67724485642675" style="stroke:#000000;stroke-width: 0.2px"/><circle cx="52.40254052331983" cy="52.40254052331983" r="9.448818897637796" style="stroke:#0000FF;stroke-width: 0.2px;fill:none"/></svg>

