<svg xmlns="http://www.w3.org/2000/svg" width="566" height="566" viewBox="0 0 566 566">
<style type="text/css">
polygon.tile { stroke: #000000; stroke-width:3; stroke-linejoin:round }
polygon.ih1 { fill: #ffff80 }
polygon.ih2 { fill: #8080ff }
polygon.ih3 { fill: #ff8080 }
polygon.ih4 { fill: #80ff80 }
polygon.ih5 { fill: #ff80ff }
polygon.ih6 { fill: #80ffff }
polygon.para {opacity: 0.75; fill: #ff0000; stroke: #ff0000 }
</style>
<polygon class="para" points="77.36505114921047,109.88269085277689 31.397824079621223,78.03566174574331 63.79377458580795,31.276134882241536 109.76100165539721,63.12316398927513 77.36505114921047,109.88269085277689" style="stroke: none"/>
<path d="M 86.77738812060257,70.57941286750922 89.4770506627848,37.84774406305798" style="stroke:#000000;stroke-width: 0.2px"/><path d="M 89.4770506627848,37.84774406305798 70.57941286750922,70.57941286750922" style="stroke:#000000;stroke-width: 0.2px"/><path d="M 70.57941286750922,70.57941286750922 86.77738812060257,70.57941286750922" style="stroke:#000000;stroke-width: 0.2px"/><path d="M 62.48042524096254,56.55155480845868 89.4770506627848,37.84774406305798" style="stroke:#000000;stroke-width: 0.2px"/><path d="M 70.57941286750922,70.57941286750922 62.48042524096254,56.55155480845868" style="stroke:#000000;stroke-width: 0.2px"/><path d="M 62.48042524096254,56.55155480845868 32.784137276958035,70.5794128675092" style="stroke:#000000;stroke-width: 0.2px"/><path d="M 32.784137276958035,70.5794128675092 48.982112530051396,70.57941286750922" style="stroke:#000000;stroke-width: 0.2px"/><path d="M 48.982112530051396,70.57941286750922 70.57941286750922,70.57941286750922" style="stroke:#000000;stroke-width: 0.2px"/><path d="M 57.08110015659808,84.60727092655975 86.77738812060257,70.57941286750922" style="stroke:#000000;stroke-width: 0.2px"/><path d="M 48.982112530051396,70.57941286750922 57.08110015659808,84.60727092655975" style="stroke:#000000;stroke-width: 0.2px"/><path d="M 57.08110015659808,84.60727092655975 30.084474734775817,103.31108167196045" style="stroke:#000000;stroke-width: 0.2px"/><path d="M 30.084474734775817,103.31108167196045 48.982112530051396,70.57941286750922" style="stroke:#000000;stroke-width: 0.2px"/><path d="M 32.784137276958035,70.5794128675092 30.084474734775817,103.31108167196045" style="stroke:#000000;stroke-width: 0.2px"/><path d="M 32.784137276958035,70.5794128675092 56.789244746632434,41.386302852728384" style="stroke:#000000;stroke-width: 0.2px"/><path d="M 56.789244746632434,41.386302852728384 62.48042524096254,56.55155480845868" style="stroke:#000000;stroke-width: 0.2px"/><path d="M 56.789244746632434,41.386302852728384 40.8101610510133,38.73238376047558" style="stroke:#000000;stroke-width: 0.2px"/><path d="M 49.20100408752564,21.16596691175465 56.789244746632434,41.386302852728384" style="stroke:#000000;stroke-width: 0.2px"/><path d="M 65.18008778314477,23.819886004007458 62.48042524096254,56.55155480845868" style="stroke:#000000;stroke-width: 0.2px"/><path d="M 54.38143761441583,117.33893973101094 57.08110015659808,84.60727092655975" style="stroke:#000000;stroke-width: 0.2px"/><path d="M 57.08110015659808,84.60727092655975 62.77228065092817,99.77252288229" style="stroke:#000000;stroke-width: 0.2px"/><path d="M 62.77228065092817,99.77252288229 70.36052131003497,119.99285882326375" style="stroke:#000000;stroke-width: 0.2px"/><path d="M 78.7513643465473,102.42644197454281 76.05170180436507,135.15811077899406" style="stroke:#000000;stroke-width: 0.2px"/><path d="M 62.77228065092817,99.77252288229 78.7513643465473,102.42644197454281" style="stroke:#000000;stroke-width: 0.2px"/><path d="M 78.7513643465473,102.42644197454281 86.77738812060257,70.57941286750922" style="stroke:#000000;stroke-width: 0.2px"/><path d="M 86.77738812060257,70.57941286750922 62.77228065092817,99.77252288229" style="stroke:#000000;stroke-width: 0.2px"/><path d="M 57.08110015659808,84.60727092655975 38.18346236132248,117.33893973101098" style="stroke:#000000;stroke-width: 0.2px"/><path d="M 62.48042524096254,56.55155480845868 81.37806303623812,23.81988600400745" style="stroke:#000000;stroke-width: 0.2px"/><path d="M 108.4476523105518,88.39858391549228 78.7513643465473,102.42644197454281" style="stroke:#000000;stroke-width: 0.2px"/><path d="M 78.7513643465473,102.42644197454281 94.94933959964065,102.42644197454281" style="stroke:#000000;stroke-width: 0.2px"/><path d="M 78.7513643465473,102.42644197454281 102.75647181622169,73.23333195976198" style="stroke:#000000;stroke-width: 0.2px"/><path d="M 102.75647181622169,73.23333195976198 108.4476523105518,88.39858391549228" style="stroke:#000000;stroke-width: 0.2px"/><path d="M 102.75647181622169,73.23333195976198 86.77738812060257,70.57941286750922" style="stroke:#000000;stroke-width: 0.2px"/><path d="M 89.4770506627848,37.84774406305798 95.1682311571149,53.012996018788236" style="stroke:#000000;stroke-width: 0.2px"/><path d="M 95.1682311571149,53.012996018788236 102.75647181622169,73.23333195976198" style="stroke:#000000;stroke-width: 0.2px"/><path d="M 95.1682311571149,53.012996018788236 111.14731485273401,55.66691511104103" style="stroke:#000000;stroke-width: 0.2px"/><path d="M 119.17333862678932,23.81988600400745 95.1682311571149,53.012996018788236" style="stroke:#000000;stroke-width: 0.2px"/><circle cx="86.77738812060257" cy="70.57941286750922" r="9.448818897637796" style="stroke:#0000FF;stroke-width: 0.2px;fill:none"/></svg>

