<svg xmlns:inkscape="http://www.inkscape.org/namespaces/inkscape" xmlns:sodipodi="http://sodipodi.sourceforge.net/DTD/sodipodi-0.dtd" xmlns="http://www.w3.org/2000/svg" xmlns:svg="http://www.w3.org/2000/svg" width="52.37067" height="75.590553" viewBox="0 0 52.37067 75.590553" version="1.1" id="svg108" sodipodi:docname="N3-57f.svg">
  <defs id="defs112"/>
  <sodipodi:namedview id="namedview110" pagecolor="#ffffff" bordercolor="#666666" borderopacity="1.0" inkscape:showpageshadow="2" inkscape:pageopacity="0.0" inkscape:pagecheckerboard="0" inkscape:deskcolor="#d1d1d1"/>
  <style type="text/css" id="style2">
polygon.tile { stroke: #000000; stroke-width:3; stroke-linejoin:round }
polygon.ih1 { fill: #ffff80 }
polygon.ih2 { fill: #8080ff }
polygon.ih3 { fill: #ff8080 }
polygon.ih4 { fill: #80ff80 }
polygon.ih5 { fill: #ff80ff }
polygon.ih6 { fill: #80ffff }
polygon.para {opacity: 0.75; fill: #ff0000; stroke: #ff0000 }
</style>
  <polygon class="para" points="74.108384,17.41547 41.376715,74.108384 74.108384,130.8013 106.84005,74.108384 " style="stroke:none" id="polygon4" transform="matrix(0.4,0,0,0.4,-3.458018,8.151922)"/>
  <path d="M 26.185336,37.795276 H 39.278003" style="stroke:#000000;stroke-width:0.08px" id="path6"/>
  <path d="M 39.278003,37.795276 32.731669,34.015748" style="stroke:#000000;stroke-width:0.08px" id="path8"/>
  <path d="M 32.731669,34.015748 26.185336,30.23622" style="stroke:#000000;stroke-width:0.08px" id="path10"/>
  <path d="m 26.185336,30.23622 v 7.559056" style="stroke:#000000;stroke-width:0.08px" id="path12"/>
  <path d="M 32.731669,34.015748 39.278003,22.677165" style="stroke:#000000;stroke-width:0.08px" id="path14"/>
  <path d="M 39.278003,22.677165 V 37.795276" style="stroke:#000000;stroke-width:0.08px" id="path16"/>
  <path d="M 39.278003,22.677165 26.185336,30.23622" style="stroke:#000000;stroke-width:0.08px" id="path18"/>
  <path d="M 32.731669,18.897638 26.185336,30.23622" style="stroke:#000000;stroke-width:0.08px" id="path20"/>
  <path d="M 26.185336,30.23622 V 15.11811" style="stroke:#000000;stroke-width:0.08px" id="path22"/>
  <path d="m 26.185336,15.11811 6.546333,3.779528" style="stroke:#000000;stroke-width:0.08px" id="path24"/>
  <path d="M 39.278003,15.11811 H 26.185336" style="stroke:#000000;stroke-width:0.08px" id="path26"/>
  <path d="m 39.278003,37.795276 -6.546334,3.779527" style="stroke:#000000;stroke-width:0.08px" id="path28"/>
  <path d="m 32.731669,41.574803 -6.546333,3.779528" style="stroke:#000000;stroke-width:0.08px" id="path30"/>
  <path d="M 26.185336,45.354331 V 37.795276" style="stroke:#000000;stroke-width:0.08px" id="path32"/>
  <path d="m 32.731669,41.574803 6.546334,11.338583" style="stroke:#000000;stroke-width:0.08px" id="path34"/>
  <path d="M 39.278003,52.913386 V 37.795276" style="stroke:#000000;stroke-width:0.08px" id="path36"/>
  <path d="M 39.278003,52.913386 26.185336,45.354331" style="stroke:#000000;stroke-width:0.08px" id="path38"/>
  <path d="M 32.731669,56.692913 26.185336,45.354331" style="stroke:#000000;stroke-width:0.08px" id="path40"/>
  <path d="m 26.185336,45.354331 v 15.11811" style="stroke:#000000;stroke-width:0.08px" id="path42"/>
  <path d="m 26.185336,60.472441 6.546333,-3.779528" style="stroke:#000000;stroke-width:0.08px" id="path44"/>
  <path d="M 39.278003,60.472441 H 26.185336" style="stroke:#000000;stroke-width:0.08px" id="path46"/>
  <path d="M 0,37.795276 H 13.092668" style="stroke:#000000;stroke-width:0.08px" id="path48"/>
  <path d="M 13.092668,37.795276 6.546334,34.015748" style="stroke:#000000;stroke-width:0.08px" id="path50"/>
  <path d="M 13.092668,22.677165 V 37.795276" style="stroke:#000000;stroke-width:0.08px" id="path52"/>
  <path d="M 13.092668,37.795276 6.546334,41.574803" style="stroke:#000000;stroke-width:0.08px" id="path54"/>
  <path d="M 13.092668,52.913386 V 37.795276" style="stroke:#000000;stroke-width:0.08px" id="path56"/>
  <path d="M 13.092668,60.472441 H 26.185336" style="stroke:#000000;stroke-width:0.08px" id="path58"/>
  <path d="M 26.185336,60.472441 19.639002,56.692913" style="stroke:#000000;stroke-width:0.08px" id="path60"/>
  <path d="M 19.639002,56.692913 26.185336,45.354331" style="stroke:#000000;stroke-width:0.08px" id="path62"/>
  <path d="M 26.185336,45.354331 13.092668,52.913386" style="stroke:#000000;stroke-width:0.08px" id="path64"/>
  <path d="M 19.639002,41.574803 13.092668,52.913386" style="stroke:#000000;stroke-width:0.08px" id="path66"/>
  <path d="M 26.185336,45.354331 19.639002,41.574803" style="stroke:#000000;stroke-width:0.08px" id="path68"/>
  <path d="m 13.092668,37.795276 6.546334,3.779527" style="stroke:#000000;stroke-width:0.08px" id="path70"/>
  <path d="M 26.185336,37.795276 H 13.092668" style="stroke:#000000;stroke-width:0.08px" id="path72"/>
  <path d="m 26.185336,60.472441 -6.546334,3.779531" style="stroke:#000000;stroke-width:0.08px" id="path74"/>
  <path d="M 26.185336,75.590552 V 60.472441" style="stroke:#000000;stroke-width:0.08px" id="path76"/>
  <path d="m 39.278003,37.795276 6.546334,-3.779528" style="stroke:#000000;stroke-width:0.08px" id="path78"/>
  <path d="M 52.370672,37.795276 H 39.278003" style="stroke:#000000;stroke-width:0.08px" id="path80"/>
  <path d="m 26.185336,60.472441 6.546333,3.779531" style="stroke:#000000;stroke-width:0.08px" id="path82"/>
  <path d="m 39.278003,37.795276 6.546334,3.779527" style="stroke:#000000;stroke-width:0.08px" id="path84"/>
  <path d="M 26.185336,0 V 15.11811" style="stroke:#000000;stroke-width:0.08px" id="path86"/>
  <path d="m 26.185336,15.11811 6.546333,-3.779527" style="stroke:#000000;stroke-width:0.08px" id="path88"/>
  <path d="M 13.092668,15.11811 H 26.185336" style="stroke:#000000;stroke-width:0.08px" id="path90"/>
  <path d="M 26.185336,15.11811 19.639002,11.338583" style="stroke:#000000;stroke-width:0.08px" id="path92"/>
  <path d="m 26.185336,15.11811 -6.546334,3.779528" style="stroke:#000000;stroke-width:0.08px" id="path94"/>
  <path d="M 19.639002,18.897638 26.185336,30.23622" style="stroke:#000000;stroke-width:0.08px" id="path96"/>
  <path d="M 26.185336,30.23622 13.092668,22.677165" style="stroke:#000000;stroke-width:0.08px" id="path98"/>
  <path d="M 19.639002,34.015748 13.092668,22.677165" style="stroke:#000000;stroke-width:0.08px" id="path100"/>
  <path d="m 26.185336,30.23622 -6.546334,3.779528" style="stroke:#000000;stroke-width:0.08px" id="path102"/>
  <path d="m 13.092668,37.795276 6.546334,-3.779528" style="stroke:#000000;stroke-width:0.08px" id="path104"/>
  </svg>