<svg xmlns:inkscape="http://www.inkscape.org/namespaces/inkscape" xmlns:sodipodi="http://sodipodi.sourceforge.net/DTD/sodipodi-0.dtd" xmlns="http://www.w3.org/2000/svg" xmlns:svg="http://www.w3.org/2000/svg" width="53.50716" height="42.817043" viewBox="0 0 53.50716 42.817043" version="1.1" id="svg120" sodipodi:docname="N3-51b.svg">
  <defs id="defs124"/>
  <sodipodi:namedview id="namedview122" pagecolor="#ffffff" bordercolor="#666666" borderopacity="1.0" inkscape:showpageshadow="2" inkscape:pageopacity="0.0" inkscape:pagecheckerboard="0" inkscape:deskcolor="#d1d1d1"/>
  <style type="text/css" id="style2">
polygon.tile { stroke: #000000; stroke-width:3; stroke-linejoin:round }
polygon.ih1 { fill: #ffff80 }
polygon.ih2 { fill: #8080ff }
polygon.ih3 { fill: #ff8080 }
polygon.ih4 { fill: #80ff80 }
polygon.ih5 { fill: #ff80ff }
polygon.ih6 { fill: #80ffff }
polygon.para {opacity: 0.75; fill: #ff0000; stroke: #ff0000 }
</style>
  <polygon class="para" points="92.490484,79.127836 92.490484,25.677245 12.314597,25.677245 12.314597,79.127836 " style="stroke:none" id="polygon4" transform="matrix(0.4,0,0,0.4,5.7925633,0.44750427)"/>
  <path d="m 26.75358,21.408521 h 5.345059" style="stroke:#000000;stroke-width:0.08px" id="path6"/>
  <path d="m 32.098639,21.408521 h 5.345059" style="stroke:#000000;stroke-width:0.08px" id="path8"/>
  <path d="M 37.443698,21.408521 26.75358,10.718402" style="stroke:#000000;stroke-width:0.08px" id="path10"/>
  <path d="M 26.75358,10.718402 V 21.408521" style="stroke:#000000;stroke-width:0.08px" id="path12"/>
  <path d="M 37.443698,10.718402 H 35.662011" style="stroke:#000000;stroke-width:0.08px" id="path14"/>
  <path d="M 35.662011,10.718402 H 32.098639" style="stroke:#000000;stroke-width:0.08px" id="path16"/>
  <path d="M 32.098639,10.718402 H 30.762374" style="stroke:#000000;stroke-width:0.08px" id="path18"/>
  <path d="M 30.762374,10.718402 H 26.75358" style="stroke:#000000;stroke-width:0.08px" id="path20"/>
  <path d="M 37.443698,21.408521 V 10.718402" style="stroke:#000000;stroke-width:0.08px" id="path22"/>
  <path d="m 37.443698,10.718402 h 5.345059" style="stroke:#000000;stroke-width:0.08px" id="path24"/>
  <path d="m 42.788757,10.718402 h 5.345059" style="stroke:#000000;stroke-width:0.08px" id="path26"/>
  <path d="M 48.133816,10.718402 37.443698,21.408521" style="stroke:#000000;stroke-width:0.08px" id="path28"/>
  <path d="M 26.75358,10.718402 H 21.40852" style="stroke:#000000;stroke-width:0.08px" id="path30"/>
  <path d="M 21.40852,10.718402 H 16.063461" style="stroke:#000000;stroke-width:0.08px" id="path32"/>
  <path d="M 16.063461,10.718402 26.75358,21.408521" style="stroke:#000000;stroke-width:0.08px" id="path34"/>
  <path d="M 16.063461,21.408521 H 21.40852" style="stroke:#000000;stroke-width:0.08px" id="path36"/>
  <path d="m 21.40852,21.408521 h 5.34506" style="stroke:#000000;stroke-width:0.08px" id="path38"/>
  <path d="M 16.063461,10.718402 V 21.408521" style="stroke:#000000;stroke-width:0.08px" id="path40"/>
  <path d="M 16.063461,21.408521 H 10.718402" style="stroke:#000000;stroke-width:0.08px" id="path42"/>
  <path d="M 10.718402,21.408521 H 5.3733433" style="stroke:#000000;stroke-width:0.08px" id="path44"/>
  <path d="M 5.3733433,21.408521 16.063461,10.718402" style="stroke:#000000;stroke-width:0.08px" id="path46"/>
  <path d="M 32.098639,10.718402 42.788757,0.02828427" style="stroke:#000000;stroke-width:0.08px" id="path48"/>
  <path d="M 42.788757,0.02828427 V 10.718402" style="stroke:#000000;stroke-width:0.08px" id="path50"/>
  <path d="M 32.098639,10.718402 V 0.02828427" style="stroke:#000000;stroke-width:0.08px" id="path52"/>
  <path d="M 21.40852,0.02828427 32.098639,10.718402" style="stroke:#000000;stroke-width:0.08px" id="path54"/>
  <path d="M 53.478875,0.02828427 42.788757,10.718402" style="stroke:#000000;stroke-width:0.08px" id="path56"/>
  <path d="M 5.3733433,32.098639 H 10.718402" style="stroke:#000000;stroke-width:0.08px" id="path58"/>
  <path d="m 10.718402,32.098639 h 5.345059" style="stroke:#000000;stroke-width:0.08px" id="path60"/>
  <path d="M 16.063461,32.098639 5.3733433,42.788757" style="stroke:#000000;stroke-width:0.08px" id="path62"/>
  <path d="M 0.02828427,32.098639 10.718402,21.408521" style="stroke:#000000;stroke-width:0.08px" id="path64"/>
  <path d="M 10.718402,21.408521 V 32.098639" style="stroke:#000000;stroke-width:0.08px" id="path66"/>
  <path d="M 21.40852,21.408521 10.718402,32.098639" style="stroke:#000000;stroke-width:0.08px" id="path68"/>
  <path d="M 21.40852,32.098639 H 16.063461" style="stroke:#000000;stroke-width:0.08px" id="path70"/>
  <path d="M 21.40852,21.408521 V 32.098639" style="stroke:#000000;stroke-width:0.08px" id="path72"/>
  <path d="m 21.40852,32.098639 h 5.34506" style="stroke:#000000;stroke-width:0.08px" id="path74"/>
  <path d="m 26.75358,32.098639 h 5.345059" style="stroke:#000000;stroke-width:0.08px" id="path76"/>
  <path d="M 32.098639,32.098639 21.40852,21.408521" style="stroke:#000000;stroke-width:0.08px" id="path78"/>
  <path d="M 37.443698,42.788757 26.75358,32.098639" style="stroke:#000000;stroke-width:0.08px" id="path80"/>
  <path d="M 26.75358,32.098639 V 42.788757" style="stroke:#000000;stroke-width:0.08px" id="path82"/>
  <path d="M 37.443698,32.098639 H 32.098639" style="stroke:#000000;stroke-width:0.08px" id="path84"/>
  <path d="M 37.443698,42.788757 V 32.098639" style="stroke:#000000;stroke-width:0.08px" id="path86"/>
  <path d="m 37.443698,32.098639 h 5.345059" style="stroke:#000000;stroke-width:0.08px" id="path88"/>
  <path d="m 42.788757,32.098639 h 5.345059" style="stroke:#000000;stroke-width:0.08px" id="path90"/>
  <path d="M 16.063461,32.098639 26.75358,42.788757" style="stroke:#000000;stroke-width:0.08px" id="path92"/>
  <path d="M 16.063461,32.098639 V 42.788757" style="stroke:#000000;stroke-width:0.08px" id="path94"/>
  <path d="M 32.098639,32.098639 42.788757,21.408521" style="stroke:#000000;stroke-width:0.08px" id="path96"/>
  <path d="M 42.788757,21.408521 V 32.098639" style="stroke:#000000;stroke-width:0.08px" id="path98"/>
  <path d="m 37.443698,21.408521 h 5.345059" style="stroke:#000000;stroke-width:0.08px" id="path100"/>
  <path d="M 32.098639,32.098639 V 21.408521" style="stroke:#000000;stroke-width:0.08px" id="path102"/>
  <path d="m 42.788757,21.408521 h 5.345059" style="stroke:#000000;stroke-width:0.08px" id="path104"/>
  <path d="M 53.478875,21.408521 42.788757,32.098639" style="stroke:#000000;stroke-width:0.08px" id="path106"/>
  <path d="M 8.0458733,10.718402 H 10.718402" style="stroke:#000000;stroke-width:0.08px" id="path108"/>
  <path d="m 10.718402,10.718402 h 5.345059" style="stroke:#000000;stroke-width:0.08px" id="path110"/>
  <path d="M 10.718402,0.02828427 V 10.718402" style="stroke:#000000;stroke-width:0.08px" id="path112"/>
  <path d="M 21.40852,0.02828427 10.718402,10.718402" style="stroke:#000000;stroke-width:0.08px" id="path114"/>
  <path d="M 21.40852,0.02828427 V 10.718402" style="stroke:#000000;stroke-width:0.08px" id="path116"/>
  </svg>