<svg xmlns="http://www.w3.org/2000/svg" width="566" height="566" viewBox="0 0 566 566">
<style type="text/css">
polygon.tile { stroke: #000000; stroke-width:3; stroke-linejoin:round }
polygon.ih1 { fill: #ffff80 }
polygon.ih2 { fill: #8080ff }
polygon.ih3 { fill: #ff8080 }
polygon.ih4 { fill: #80ff80 }
polygon.ih5 { fill: #ff80ff }
polygon.ih6 { fill: #80ffff }
polygon.para {opacity: 0.75; fill: #ff0000; stroke: #ff0000 }
</style>
<polygon class="para" points="41.37671470643345,74.10838351088464 74.10838351088465,130.80129689671142 106.84005231533587,74.10838351088468 74.10838351088465,17.415470125057894 41.37671470643345,74.10838351088464" style="stroke: none"/>
<path d="M 74.10838351088465,74.10838351088465 106.84005231533587,74.10838351088465" style="stroke:#000000;stroke-width: 0.2px"/><path d="M 106.84005231533587,74.10838351088465 90.47421791311027,64.65956461324687" style="stroke:#000000;stroke-width: 0.2px"/><path d="M 90.47421791311027,64.65956461324687 74.10838351088465,55.210745715609065" style="stroke:#000000;stroke-width: 0.2px"/><path d="M 74.10838351088465,55.210745715609065 74.10838351088465,74.10838351088465" style="stroke:#000000;stroke-width: 0.2px"/><path d="M 90.47421791311027,64.65956461324687 106.84005231533587,36.31310792033348" style="stroke:#000000;stroke-width: 0.2px"/><path d="M 106.84005231533587,36.31310792033348 106.84005231533587,74.10838351088465" style="stroke:#000000;stroke-width: 0.2px"/><path d="M 106.84005231533587,36.31310792033348 74.10838351088465,55.210745715609065" style="stroke:#000000;stroke-width: 0.2px"/><path d="M 90.47421791311027,26.86428902269569 74.10838351088465,55.210745715609065" style="stroke:#000000;stroke-width: 0.2px"/><path d="M 74.10838351088465,55.210745715609065 74.10838351088468,17.415470125057887" style="stroke:#000000;stroke-width: 0.2px"/><path d="M 74.10838351088468,17.415470125057887 90.47421791311027,26.86428902269569" style="stroke:#000000;stroke-width: 0.2px"/><path d="M 106.8400523153359,17.415470125057915 74.10838351088468,17.415470125057887" style="stroke:#000000;stroke-width: 0.2px"/><path d="M 106.84005231533587,74.10838351088465 90.47421791311027,83.55720240852244" style="stroke:#000000;stroke-width: 0.2px"/><path d="M 90.47421791311027,83.55720240852244 74.10838351088465,93.00602130616025" style="stroke:#000000;stroke-width: 0.2px"/><path d="M 74.10838351088465,93.00602130616025 74.10838351088465,74.10838351088465" style="stroke:#000000;stroke-width: 0.2px"/><path d="M 90.47421791311027,83.55720240852244 106.84005231533587,111.90365910143585" style="stroke:#000000;stroke-width: 0.2px"/><path d="M 106.84005231533587,111.90365910143585 106.84005231533587,74.10838351088465" style="stroke:#000000;stroke-width: 0.2px"/><path d="M 106.84005231533587,111.90365910143585 74.10838351088465,93.00602130616025" style="stroke:#000000;stroke-width: 0.2px"/><path d="M 90.47421791311027,121.35247799907361 74.10838351088465,93.00602130616025" style="stroke:#000000;stroke-width: 0.2px"/><path d="M 74.10838351088465,93.00602130616025 74.10838351088465,130.80129689671142" style="stroke:#000000;stroke-width: 0.2px"/><path d="M 74.10838351088465,130.80129689671142 90.47421791311027,121.35247799907361" style="stroke:#000000;stroke-width: 0.2px"/><path d="M 106.84005231533587,130.8012968967114 74.10838351088465,130.80129689671142" style="stroke:#000000;stroke-width: 0.2px"/><path d="M 8.645045901982236,74.10838351088464 41.37671470643345,74.10838351088464" style="stroke:#000000;stroke-width: 0.2px"/><path d="M 41.37671470643345,74.10838351088464 25.010880304207845,64.65956461324684" style="stroke:#000000;stroke-width: 0.2px"/><path d="M 41.37671470643345,36.31310792033346 41.37671470643345,74.10838351088464" style="stroke:#000000;stroke-width: 0.2px"/><path d="M 41.37671470643345,74.10838351088464 25.010880304207845,83.55720240852243" style="stroke:#000000;stroke-width: 0.2px"/><path d="M 41.37671470643345,111.9036591014358 41.37671470643345,74.10838351088464" style="stroke:#000000;stroke-width: 0.2px"/><path d="M 41.37671470643345,130.80129689671136 74.10838351088465,130.80129689671142" style="stroke:#000000;stroke-width: 0.2px"/><path d="M 74.10838351088465,130.80129689671142 57.742549108659055,121.35247799907361" style="stroke:#000000;stroke-width: 0.2px"/><path d="M 57.742549108659055,121.35247799907361 74.10838351088465,93.00602130616025" style="stroke:#000000;stroke-width: 0.2px"/><path d="M 74.10838351088465,93.00602130616025 41.37671470643345,111.9036591014358" style="stroke:#000000;stroke-width: 0.2px"/><path d="M 57.742549108659055,83.55720240852244 41.37671470643345,111.9036591014358" style="stroke:#000000;stroke-width: 0.2px"/><path d="M 74.10838351088465,93.00602130616025 57.742549108659055,83.55720240852244" style="stroke:#000000;stroke-width: 0.2px"/><path d="M 41.37671470643345,74.10838351088464 57.742549108659055,83.55720240852244" style="stroke:#000000;stroke-width: 0.2px"/><path d="M 74.10838351088465,74.10838351088465 41.37671470643345,74.10838351088464" style="stroke:#000000;stroke-width: 0.2px"/><path d="M 74.10838351088465,130.80129689671142 57.742549108659055,140.2501157943492" style="stroke:#000000;stroke-width: 0.2px"/><path d="M 74.10838351088465,168.59657248726262 74.10838351088465,130.80129689671142" style="stroke:#000000;stroke-width: 0.2px"/><path d="M 106.84005231533587,74.10838351088465 123.20588671756147,64.65956461324686" style="stroke:#000000;stroke-width: 0.2px"/><path d="M 139.57172111978707,74.10838351088468 106.84005231533587,74.10838351088465" style="stroke:#000000;stroke-width: 0.2px"/><path d="M 74.10838351088465,130.80129689671142 90.47421791311027,140.2501157943492" style="stroke:#000000;stroke-width: 0.2px"/><path d="M 106.84005231533587,74.10838351088465 123.20588671756147,83.55720240852246" style="stroke:#000000;stroke-width: 0.2px"/><path d="M 74.10838351088468,-20.379805465493277 74.10838351088468,17.415470125057887" style="stroke:#000000;stroke-width: 0.2px"/><path d="M 74.10838351088468,17.415470125057887 90.47421791311028,7.96665122742009" style="stroke:#000000;stroke-width: 0.2px"/><path d="M 41.37671470643347,17.415470125057894 74.10838351088468,17.415470125057887" style="stroke:#000000;stroke-width: 0.2px"/><path d="M 74.10838351088468,17.415470125057887 57.74254910865906,7.96665122742009" style="stroke:#000000;stroke-width: 0.2px"/><path d="M 74.10838351088468,17.415470125057887 57.74254910865906,26.864289022695676" style="stroke:#000000;stroke-width: 0.2px"/><path d="M 57.74254910865906,26.864289022695676 74.10838351088465,55.210745715609065" style="stroke:#000000;stroke-width: 0.2px"/><path d="M 74.10838351088465,55.210745715609065 41.37671470643345,36.31310792033346" style="stroke:#000000;stroke-width: 0.2px"/><path d="M 57.742549108659055,64.65956461324684 41.37671470643345,36.31310792033346" style="stroke:#000000;stroke-width: 0.2px"/><path d="M 74.10838351088465,55.210745715609065 57.742549108659055,64.65956461324684" style="stroke:#000000;stroke-width: 0.2px"/><path d="M 41.37671470643345,74.10838351088464 57.742549108659055,64.65956461324684" style="stroke:#000000;stroke-width: 0.2px"/><circle cx="74.10838351088465" cy="74.10838351088465" r="9.448818897637796" style="stroke:#0000FF;stroke-width: 0.2px;fill:none"/></svg>

