<svg xmlns="http://www.w3.org/2000/svg" width="566" height="566" viewBox="0 0 566 566">
<style type="text/css">
polygon.tile { stroke: #000000; stroke-width:3; stroke-linejoin:round }
polygon.ih1 { fill: #ffff80 }
polygon.ih2 { fill: #8080ff }
polygon.ih3 { fill: #ff8080 }
polygon.ih4 { fill: #80ff80 }
polygon.ih5 { fill: #ff80ff }
polygon.ih6 { fill: #80ffff }
polygon.para {opacity: 0.75; fill: #ff0000; stroke: #ff0000 }
</style>
<polygon class="para" points="18.038910420407927,31.24430936133016 -54.1167312612237,31.24430936133017 -18.03891042040795,-31.24430936133016 54.11673126122366,-31.244309361330178 18.038910420407927,31.24430936133016" style="stroke: none"/>
<path d="M -1.1840843216007769e-14,0.0 24.051880560543857,0.0" style="stroke:#000000;stroke-width: 0.2px"/><path d="M 24.051880560543857,0.0 12.025940280271929,-20.829539574220092" style="stroke:#000000;stroke-width: 0.2px"/><path d="M 12.025940280271929,-20.829539574220092 -1.1840843216007769e-14,-20.829539574220092" style="stroke:#000000;stroke-width: 0.2px"/><path d="M -1.1840843216007769e-14,-20.829539574220092 -1.1840843216007769e-14,0.0" style="stroke:#000000;stroke-width: 0.2px"/><path d="M 36.07782084081578,-20.829539574220107 24.051880560543857,0.0" style="stroke:#000000;stroke-width: 0.2px"/><path d="M 12.025940280271929,-20.829539574220092 18.03891042040788,-31.244309361330146" style="stroke:#000000;stroke-width: 0.2px"/><path d="M 18.03891042040788,-31.244309361330146 36.07782084081578,-20.829539574220107" style="stroke:#000000;stroke-width: 0.2px"/><path d="M 24.051880560543857,0.0 48.10376112108775,-1.1840843216007769e-14" style="stroke:#000000;stroke-width: 0.2px"/><path d="M 54.11673126122369,-10.414769787110064 36.07782084081578,-20.829539574220107" style="stroke:#000000;stroke-width: 0.2px"/><path d="M 36.07782084081582,20.829539574220092 24.051880560543857,0.0" style="stroke:#000000;stroke-width: 0.2px"/><path d="M 24.051880560543857,0.0 12.025940280271964,20.829539574220117" style="stroke:#000000;stroke-width: 0.2px"/><path d="M 12.025940280271964,20.829539574220117 18.03891042040794,31.24430936133016" style="stroke:#000000;stroke-width: 0.2px"/><path d="M 12.025940280271964,20.829539574220117 2.3681686432015537e-14,20.829539574220142" style="stroke:#000000;stroke-width: 0.2px"/><path d="M 2.3681686432015537e-14,20.829539574220142 -1.1840843216007769e-14,0.0" style="stroke:#000000;stroke-width: 0.2px"/><path d="M -1.1840843216007769e-14,0.0 -24.05188056054388,0.0" style="stroke:#000000;stroke-width: 0.2px"/><path d="M -24.05188056054388,0.0 -18.03891042040794,-10.414769787110053" style="stroke:#000000;stroke-width: 0.2px"/><path d="M -18.03891042040794,-10.414769787110053 -12.02594028027194,-20.829539574220092" style="stroke:#000000;stroke-width: 0.2px"/><path d="M -12.02594028027194,-20.829539574220092 -1.1840843216007769e-14,-20.829539574220092" style="stroke:#000000;stroke-width: 0.2px"/><path d="M 36.07782084081578,-20.829539574220107 48.1037611210877,-41.659079148440206" style="stroke:#000000;stroke-width: 0.2px"/><path d="M -24.05188056054388,0.0 -18.038910420407927,10.414769787110028" style="stroke:#000000;stroke-width: 0.2px"/><path d="M -18.038910420407927,10.414769787110028 -12.025940280271916,20.829539574220153" style="stroke:#000000;stroke-width: 0.2px"/><path d="M -12.025940280271916,20.829539574220153 2.3681686432015537e-14,20.829539574220142" style="stroke:#000000;stroke-width: 0.2px"/><path d="M 3.5522529648023304e-14,41.659079148440235 12.025940280271964,20.829539574220117" style="stroke:#000000;stroke-width: 0.2px"/><path d="M -12.025940280271916,20.829539574220153 -18.03891042040787,31.24430936133018" style="stroke:#000000;stroke-width: 0.2px"/><path d="M -18.03891042040794,-31.244309361330153 -5.920421608003884e-14,-41.65907914844022" style="stroke:#000000;stroke-width: 0.2px"/><path d="M -5.920421608003884e-14,-41.65907914844022 12.025940280271929,-20.829539574220092" style="stroke:#000000;stroke-width: 0.2px"/><path d="M -12.02594028027194,-20.829539574220092 -18.03891042040794,-31.244309361330153" style="stroke:#000000;stroke-width: 0.2px"/><path d="M -48.103761121087764,1.1840843216007769e-14 -24.05188056054388,0.0" style="stroke:#000000;stroke-width: 0.2px"/><path d="M -18.03891042040794,-10.414769787110053 -36.077820840815846,-20.829539574220092" style="stroke:#000000;stroke-width: 0.2px"/><path d="M -36.077820840815804,20.829539574220107 -48.103761121087764,1.1840843216007769e-14" style="stroke:#000000;stroke-width: 0.2px"/><path d="M -18.038910420407927,10.414769787110028 -36.077820840815804,20.829539574220107" style="stroke:#000000;stroke-width: 0.2px"/><path d="M -54.11673126122369,31.24430936133018 -36.077820840815804,20.829539574220107" style="stroke:#000000;stroke-width: 0.2px"/><path d="M -36.077820840815804,20.829539574220107 -24.05188056054382,41.659079148440235" style="stroke:#000000;stroke-width: 0.2px"/><circle cx="-1.1840843216007769e-14" cy="0.0" r="9.448818897637796" style="stroke:#0000FF;stroke-width: 0.2px;fill:none"/></svg>

