<svg xmlns="http://www.w3.org/2000/svg" width="566" height="566" viewBox="0 0 566 566">
<style type="text/css">
polygon.tile { stroke: #000000; stroke-width:3; stroke-linejoin:round }
polygon.ih1 { fill: #ffff80 }
polygon.ih2 { fill: #8080ff }
polygon.ih3 { fill: #ff8080 }
polygon.ih4 { fill: #80ff80 }
polygon.ih5 { fill: #ff80ff }
polygon.ih6 { fill: #80ffff }
polygon.para {opacity: 0.75; fill: #ff0000; stroke: #ff0000 }
</style>
<polygon class="para" points="-47.63619973260696,21.171644325603076 -47.63619973260696,-21.171644325603108 47.636199732606954,-21.171644325603097 47.636199732606954,21.171644325603086 -47.63619973260696,21.171644325603076" style="stroke: none"/>
<path d="M -1.0422890653123965e-14,-1.0422890653123965e-14 15.878733244202307,-10.585822162801543" style="stroke:#000000;stroke-width: 0.2px"/><path d="M 15.878733244202307,-10.585822162801543 31.757466488404624,-21.171644325603097" style="stroke:#000000;stroke-width: 0.2px"/><path d="M -1.0422890653123965e-14,-21.171644325603097 -1.0422890653123965e-14,-1.0422890653123965e-14" style="stroke:#000000;stroke-width: 0.2px"/><path d="M -1.0422890653123965e-14,-1.0422890653123965e-14 -15.878733244202339,-10.58582216280156" style="stroke:#000000;stroke-width: 0.2px"/><path d="M -15.878733244202339,-10.58582216280156 -31.75746648840464,-21.171644325603108" style="stroke:#000000;stroke-width: 0.2px"/><path d="M -47.636199732606975,-10.58582216280156 -47.636199732606975,-31.75746648840465" style="stroke:#000000;stroke-width: 0.2px"/><path d="M -15.878733244202339,-10.58582216280156 -31.757466488404656,-2.084578130624793e-14" style="stroke:#000000;stroke-width: 0.2px"/><path d="M -31.757466488404656,-2.084578130624793e-14 -47.636199732606975,-10.58582216280156" style="stroke:#000000;stroke-width: 0.2px"/><path d="M -31.757466488404646,21.171644325603086 -47.636199732606975,10.585822162801527" style="stroke:#000000;stroke-width: 0.2px"/><path d="M -31.757466488404656,-2.084578130624793e-14 -31.757466488404646,21.171644325603086" style="stroke:#000000;stroke-width: 0.2px"/><path d="M -31.757466488404646,21.171644325603086 -15.878733244202317,10.585822162801538" style="stroke:#000000;stroke-width: 0.2px"/><path d="M -15.878733244202317,10.585822162801538 -1.0422890653123965e-14,-1.0422890653123965e-14" style="stroke:#000000;stroke-width: 0.2px"/><path d="M 31.757466488404624,21.171644325603086 15.878733244202307,10.585822162801538" style="stroke:#000000;stroke-width: 0.2px"/><path d="M 15.878733244202307,10.585822162801538 -1.0422890653123965e-14,21.171644325603086" style="stroke:#000000;stroke-width: 0.2px"/><path d="M -15.878733244202317,10.585822162801538 -1.0422890653123965e-14,21.171644325603086" style="stroke:#000000;stroke-width: 0.2px"/><path d="M 15.878733244202307,10.585822162801538 15.878733244202307,-10.585822162801543" style="stroke:#000000;stroke-width: 0.2px"/><path d="M 15.878733244202307,-10.585822162801543 31.757466488404624,1.0422890653123965e-14" style="stroke:#000000;stroke-width: 0.2px"/><path d="M 31.757466488404624,1.0422890653123965e-14 43.66651642155635,7.939366622101164" style="stroke:#000000;stroke-width: 0.2px"/><path d="M 43.66651642155635,7.939366622101164 47.63619973260693,10.585822162801549" style="stroke:#000000;stroke-width: 0.2px"/><path d="M 47.63619973260693,10.585822162801549 31.757466488404624,21.171644325603086" style="stroke:#000000;stroke-width: 0.2px"/><path d="M 31.757466488404624,1.0422890653123965e-14 47.63619973260693,-10.585822162801543" style="stroke:#000000;stroke-width: 0.2px"/><path d="M 47.63619973260693,-10.585822162801543 47.63619973260693,-31.75746648840464" style="stroke:#000000;stroke-width: 0.2px"/><path d="M 47.63619973260693,31.757466488404646 47.63619973260693,10.585822162801549" style="stroke:#000000;stroke-width: 0.2px"/><path d="M -47.636199732606975,31.757466488404624 -47.636199732606975,10.585822162801527" style="stroke:#000000;stroke-width: 0.2px"/><circle cx="-1.0422890653123965e-14" cy="-1.0422890653123965e-14" r="9.448818897637796" style="stroke:#0000FF;stroke-width: 0.2px;fill:none"/></svg>

