<svg xmlns="http://www.w3.org/2000/svg" width="566" height="566" viewBox="0 0 566 566">
<style type="text/css">
polygon.tile { stroke: #000000; stroke-width:3; stroke-linejoin:round }
polygon.ih1 { fill: #ffff80 }
polygon.ih2 { fill: #8080ff }
polygon.ih3 { fill: #ff8080 }
polygon.ih4 { fill: #80ff80 }
polygon.ih5 { fill: #ff80ff }
polygon.ih6 { fill: #80ffff }
polygon.para {opacity: 0.75; fill: #ff0000; stroke: #ff0000 }
</style>
<polygon class="para" points="-34.508729887025005,28.757274905854178 11.502909962341674,28.757274905854178 34.508729887025005,-28.75727490585417 -11.502909962341674,-28.75727490585417 -34.508729887025005,28.757274905854178" style="stroke: none"/>
<path d="M 0.0,0.0 23.005819924683333,0.0" style="stroke:#000000;stroke-width: 0.2px"/><path d="M 23.005819924683333,0.0 23.005819924683333,-5.751454981170837" style="stroke:#000000;stroke-width: 0.2px"/><path d="M 23.005819924683333,-5.751454981170837 4.601163984936669,-19.554946935980837" style="stroke:#000000;stroke-width: 0.2px"/><path d="M 4.601163984936669,-19.554946935980837 0.0,-23.005819924683333" style="stroke:#000000;stroke-width: 0.2px"/><path d="M 0.0,-23.005819924683333 0.0,0.0" style="stroke:#000000;stroke-width: 0.2px"/><path d="M 4.601163984936669,-19.554946935980837 18.404655939746664,-37.95960287572751" style="stroke:#000000;stroke-width: 0.2px"/><path d="M 23.005819924683333,-34.508729887025005 23.005819924683333,-5.751454981170837" style="stroke:#000000;stroke-width: 0.2px"/><path d="M 0.0,-23.005819924683333 -1.1325863110710676e-14,-51.7630948305375" style="stroke:#000000;stroke-width: 0.2px"/><path d="M 23.005819924683333,-5.751454981170837 41.41047586443001,-19.554946935980837" style="stroke:#000000;stroke-width: 0.2px"/><path d="M 41.41047586443001,-19.554946935980837 27.606983909620016,-37.95960287572751" style="stroke:#000000;stroke-width: 0.2px"/><path d="M -27.60698390962,37.95960287572749 -41.41047586443,19.554946935980826" style="stroke:#000000;stroke-width: 0.2px"/><path d="M -23.005819924683333,34.508729887025005 -23.005819924683323,5.751454981170831" style="stroke:#000000;stroke-width: 0.2px"/><path d="M -23.005819924683323,5.751454981170831 -41.41047586443,19.554946935980826" style="stroke:#000000;stroke-width: 0.2px"/><path d="M -23.005819924683323,0.0 -23.005819924683323,5.751454981170831" style="stroke:#000000;stroke-width: 0.2px"/><path d="M -18.404655939746664,37.95960287572749 -4.601163984936669,19.554946935980826" style="stroke:#000000;stroke-width: 0.2px"/><path d="M -4.601163984936669,19.554946935980826 0.0,23.005819924683323" style="stroke:#000000;stroke-width: 0.2px"/><path d="M 0.0,23.005819924683323 1.1325863110710676e-14,51.7630948305375" style="stroke:#000000;stroke-width: 0.2px"/><path d="M -23.005819924683323,5.751454981170831 -4.601163984936669,19.554946935980826" style="stroke:#000000;stroke-width: 0.2px"/><path d="M 0.0,0.0 -23.005819924683323,0.0" style="stroke:#000000;stroke-width: 0.2px"/><path d="M 0.0,23.005819924683323 0.0,0.0" style="stroke:#000000;stroke-width: 0.2px"/><path d="M 18.404655939746675,37.95960287572749 4.60116398493668,19.554946935980826" style="stroke:#000000;stroke-width: 0.2px"/><path d="M 4.60116398493668,19.554946935980826 0.0,23.005819924683323" style="stroke:#000000;stroke-width: 0.2px"/><path d="M 23.005819924683358,5.751454981170831 4.60116398493668,19.554946935980826" style="stroke:#000000;stroke-width: 0.2px"/><path d="M 23.005819924683333,0.0 23.005819924683358,5.751454981170831" style="stroke:#000000;stroke-width: 0.2px"/><path d="M -23.005819924683323,0.0 -23.005819924683333,-5.751454981170837" style="stroke:#000000;stroke-width: 0.2px"/><path d="M -23.005819924683333,-5.751454981170837 -4.601163984936669,-19.554946935980837" style="stroke:#000000;stroke-width: 0.2px"/><path d="M -4.601163984936669,-19.554946935980837 0.0,-23.005819924683333" style="stroke:#000000;stroke-width: 0.2px"/><path d="M -4.601163984936669,-19.554946935980837 -18.404655939746664,-37.95960287572751" style="stroke:#000000;stroke-width: 0.2px"/><circle cx="0.0" cy="0.0" r="9.448818897637796" style="stroke:#0000FF;stroke-width: 0.2px;fill:none"/></svg>

