<?xml version="1.0" encoding="UTF-8" standalone="no"?>
<svg
   width="41.212658"
   height="43.979401"
   viewBox="0 0 41.212658 43.979401"
   version="1.1"
   id="svg2288"
   sodipodi:docname="N4-13d-awesome.svg"
   inkscape:version="1.2 (1:1.2.1+202207142221+cd75a1ee6d)"
   xmlns:inkscape="http://www.inkscape.org/namespaces/inkscape"
   xmlns:sodipodi="http://sodipodi.sourceforge.net/DTD/sodipodi-0.dtd"
   xmlns="http://www.w3.org/2000/svg"
   xmlns:svg="http://www.w3.org/2000/svg">
  <defs
     id="defs2292" />
  <sodipodi:namedview
     id="namedview2290"
     pagecolor="#ffffff"
     bordercolor="#666666"
     borderopacity="1.0"
     inkscape:showpageshadow="2"
     inkscape:pageopacity="0.0"
     inkscape:pagecheckerboard="0"
     inkscape:deskcolor="#d1d1d1"
     showgrid="false"
     inkscape:zoom="26.320208"
     inkscape:cx="-5.205126"
     inkscape:cy="33.586361"
     inkscape:current-layer="svg2288" />
  <style
     type="text/css"
     id="style2204">
polygon.tile { stroke: #000000; stroke-width:3; stroke-linejoin:round }
polygon.ih1 { fill: #ffff80 }
polygon.ih2 { fill: #8080ff }
polygon.ih3 { fill: #ff8080 }
polygon.ih4 { fill: #80ff80 }
polygon.ih5 { fill: #ff80ff }
polygon.ih6 { fill: #80ffff }
polygon.para {opacity: 0.75; fill: #ff0000; stroke: #ff0000 }
</style>
  <polygon
     class="para"
     points="38.080661,-28.13166 -11.321278,45.971249 -38.080661,28.13166 11.321278,-45.971249 "
     style="stroke:none"
     id="polygon2206"
     transform="matrix(0.4,0,0,0.4,25.13484,25.008707)" />
  <path
     d="m 25.13484,25.008707 5.351877,-3.567918"
     style="stroke:#000000;stroke-width:0.08px"
     id="path2208" />
  <path
     d="m 30.486717,21.440789 5.351877,-3.567918"
     style="stroke:#000000;stroke-width:0.08px"
     id="path2210" />
  <path
     d="M 35.838594,17.872871 30.486717,14.304954"
     style="stroke:#000000;stroke-width:0.08px"
     id="path2212" />
  <path
     d="M 30.486717,14.304954 25.13484,17.872871"
     style="stroke:#000000;stroke-width:0.08px"
     id="path2214" />
  <path
     d="m 25.13484,17.872871 v 7.135836"
     style="stroke:#000000;stroke-width:0.08px"
     id="path2216" />
  <path
     d="M 25.13484,25.008707 14.431087,17.872871"
     style="stroke:#000000;stroke-width:0.08px"
     id="path2218" />
  <path
     d="m 19.782964,14.304954 5.351876,3.567917"
     style="stroke:#000000;stroke-width:0.08px"
     id="path2220" />
  <path
     d="M 30.486717,7.169118 25.13484,10.737036"
     style="stroke:#000000;stroke-width:0.08px"
     id="path2222" />
  <path
     d="m 19.782964,14.304954 5.351876,3.567917"
     style="stroke:#000000;stroke-width:0.08px"
     id="path2224" />
  <path
     d="M 30.486717,14.304954 V 7.169118"
     style="stroke:#000000;stroke-width:0.08px"
     id="path2226" />
  <path
     d="m 30.486717,7.169118 10.703754,7.135836"
     style="stroke:#000000;stroke-width:0.08px"
     id="path2228" />
  <path
     d="m 41.190471,14.304954 -2.452944,1.635295"
     style="stroke:#000000;stroke-width:0.08px"
     id="path2230" />
  <path
     d="m 38.737527,15.940249 -2.898933,1.932622"
     style="stroke:#000000;stroke-width:0.08px"
     id="path2232" />
  <path
     d="M 35.838594,17.872871 30.486717,14.304954"
     style="stroke:#000000;stroke-width:0.08px"
     id="path2234" />
  <path
     d="m 13.196038,24.185341 5.351877,3.567918"
     style="stroke:#000000;stroke-width:0.08px"
     id="path2236" />
  <path
     d="M 18.547915,27.753259 25.13484,25.008707"
     style="stroke:#000000;stroke-width:0.08px"
     id="path2238" />
  <path
     d="M 22.664743,37.633647 17.312867,34.065729"
     style="stroke:#000000;stroke-width:0.08px"
     id="path2242" />
  <path
     d="m 17.312867,34.065729 1.235048,-6.31247"
     style="stroke:#000000;stroke-width:0.08px"
     id="path2244" />
  <path
     d="m 10.725941,36.810281 0.79396,-4.058016"
     style="stroke:#000000;stroke-width:0.08px"
     id="path2246" />
  <path
     d="m 13.196038,24.185341 5.351877,3.567918"
     style="stroke:#000000;stroke-width:0.08px"
     id="path2248" />
  <path
     d="m 18.547915,27.753259 -1.235048,6.31247"
     style="stroke:#000000;stroke-width:0.08px"
     id="path2250" />
  <path
     d="m 17.312867,34.065729 -6.586926,2.744552"
     style="stroke:#000000;stroke-width:0.08px"
     id="path2252" />
  <path
     d="m 10.725942,36.810281 10.703753,7.135836"
     style="stroke:#000000;stroke-width:0.08px"
     id="path2254" />
  <path
     d="m 21.429695,43.946117 1.235048,-6.31247"
     style="stroke:#000000;stroke-width:0.08px"
     id="path2256" />
  <path
     d="m 17.312867,34.065729 -6.586926,2.744552"
     style="stroke:#000000;stroke-width:0.08px"
     id="path2258" />
  <path
     d="m 30.486717,7.169118 10.703754,7.135836"
     style="stroke:#000000;stroke-width:0.08px"
     id="path2260" />
  <path
     d="M 0.02218801,29.674446 10.725942,36.810281"
     style="stroke:#000000;stroke-width:0.08px"
     id="path2262" />
  <path
     d="M 19.782964,0.03328201 30.486717,7.169118"
     style="stroke:#000000;stroke-width:0.08px"
     id="path2264" />
  <path
     d="M 30.486717,7.169118 25.13484,10.737036"
     style="stroke:#000000;stroke-width:0.08px"
     id="path2266" />
  <path
     d="m 10.725941,36.810281 0.79396,-4.058016"
     style="stroke:#000000;stroke-width:0.08px"
     id="path2268" />
  <path
     d="M 35.838594,32.144543 25.13484,25.008707"
     style="stroke:#000000;stroke-width:0.08px"
     id="path2270" />
  <path
     d="m 30.486717,21.440789 5.351877,3.567918"
     style="stroke:#000000;stroke-width:0.08px"
     id="path2272" />
  <path
     d="m 41.190471,14.304954 -2.452944,1.635295"
     style="stroke:#000000;stroke-width:0.08px"
     id="path2274" />
  <path
     d="m 38.737527,15.940249 -2.898933,1.932622"
     style="stroke:#000000;stroke-width:0.08px"
     id="path2276" />
  <path
     d="m 35.838594,17.872871 -5.351877,3.567918"
     style="stroke:#000000;stroke-width:0.08px"
     id="path2278" />
  <path
     d="m 25.13484,25.008707 -1.235048,6.31247"
     style="stroke:#000000;stroke-width:0.08px"
     id="path2280" />
  <path
     d="m 23.899792,31.321177 5.351877,3.567918"
     style="stroke:#000000;stroke-width:0.08px"
     id="path2282" />
  <path
     d="m 22.664743,37.633647 1.235049,-6.31247"
     style="stroke:#000000;stroke-width:0.08px"
     id="path2284"
     sodipodi:nodetypes="cc" />
  <circle
     cx="25.13484"
     cy="25.008707"
     r="3.7795277"
     style="fill:none;stroke:#0000ff;stroke-width:0.08px"
     id="circle2286" />
</svg>
