<?xml version="1.0" encoding="UTF-8" standalone="no"?>
<svg
   width="34.378338"
   height="32.39476"
   viewBox="0 0 34.378338 32.39476"
   version="1.1"
   id="svg54"
   sodipodi:docname="N4-13b-awesome.svg"
   xmlns:inkscape="http://www.inkscape.org/namespaces/inkscape"
   xmlns:sodipodi="http://sodipodi.sourceforge.net/DTD/sodipodi-0.dtd"
   xmlns="http://www.w3.org/2000/svg"
   xmlns:svg="http://www.w3.org/2000/svg">
  <defs
     id="defs58" />
  <sodipodi:namedview
     id="namedview56"
     pagecolor="#ffffff"
     bordercolor="#666666"
     borderopacity="1.0"
     inkscape:showpageshadow="2"
     inkscape:pageopacity="0.0"
     inkscape:pagecheckerboard="0"
     inkscape:deskcolor="#d1d1d1" />
  <style
     type="text/css"
     id="style2">
polygon.tile { stroke: #000000; stroke-width:3; stroke-linejoin:round }
polygon.ih1 { fill: #ffff80 }
polygon.ih2 { fill: #8080ff }
polygon.ih3 { fill: #ff8080 }
polygon.ih4 { fill: #80ff80 }
polygon.ih5 { fill: #ff80ff }
polygon.ih6 { fill: #80ffff }
polygon.para {opacity: 0.75; fill: #ff0000; stroke: #ff0000 }
</style>
  <polygon
     class="para"
     points="31.413804,9.7338548 -3.0971356,32.741148 -31.413804,-9.7338548 3.0971356,-32.741148 "
     style="stroke:none"
     id="polygon4"
     transform="matrix(0.4,0,0,0.4,18.428023,15.371477)" />
  <path
     d="M 18.428023,15.371477 27.63094,9.2361991"
     style="stroke:#000000;stroke-width:0.08px"
     id="path6" />
  <path
     d="M 23.029481,6.16856 18.428023,9.2361991"
     style="stroke:#000000;stroke-width:0.08px"
     id="path8" />
  <path
     d="M 18.428023,9.2361991 V 15.371477"
     style="stroke:#000000;stroke-width:0.08px"
     id="path10" />
  <path
     d="M 18.428023,15.371477 9.225105,9.2361991"
     style="stroke:#000000;stroke-width:0.08px"
     id="path12" />
  <path
     d="M 9.225105,9.2361991 13.826564,6.16856"
     style="stroke:#000000;stroke-width:0.08px"
     id="path14" />
  <path
     d="m 13.826564,6.16856 4.601459,3.0676391"
     style="stroke:#000000;stroke-width:0.08px"
     id="path16" />
  <path
     d="M 23.029481,0.03328201 13.826564,6.16856"
     style="stroke:#000000;stroke-width:0.08px"
     id="path18" />
  <path
     d="M 28.692815,14.663561 24.091356,17.7312"
     style="stroke:#000000;stroke-width:0.08px"
     id="path20" />
  <path
     d="M 24.091356,17.7312 18.428023,15.371477"
     style="stroke:#000000;stroke-width:0.08px"
     id="path22" />
  <path
     d="M 18.428023,15.371477 20.551773,26.2262"
     style="stroke:#000000;stroke-width:0.08px"
     id="path24" />
  <path
     d="m 20.551773,26.2262 4.601458,-3.067639"
     style="stroke:#000000;stroke-width:0.08px"
     id="path26" />
  <path
     d="M 25.153231,23.158561 24.091356,17.7312"
     style="stroke:#000000;stroke-width:0.08px"
     id="path28" />
  <path
     d="m 34.356149,17.023283 -9.202918,6.135278"
     style="stroke:#000000;stroke-width:0.08px"
     id="path30" />
  <path
     d="m 20.551773,26.2262 -9.202917,6.135278"
     style="stroke:#000000;stroke-width:0.08px"
     id="path32" />
  <path
     d="m 4.623647,24.574394 9.202917,-6.135278"
     style="stroke:#000000;stroke-width:0.08px"
     id="path34" />
  <path
     d="M 13.826564,18.439116 9.225105,15.371477"
     style="stroke:#000000;stroke-width:0.08px"
     id="path36" />
  <path
     d="M 9.225105,15.371477 4.623647,18.439116"
     style="stroke:#000000;stroke-width:0.08px"
     id="path38" />
  <path
     d="M 9.225105,9.2361991 0.02218801,15.371477"
     style="stroke:#000000;stroke-width:0.08px"
     id="path40" />
  <path
     d="M 9.225105,15.371477 V 9.2361991"
     style="stroke:#000000;stroke-width:0.08px"
     id="path42" />
  <path
     d="m 18.428023,15.371477 -4.601459,3.067639"
     style="stroke:#000000;stroke-width:0.08px"
     id="path44" />
  <path
     d="m 13.826564,18.439116 1.061875,5.427362"
     style="stroke:#000000;stroke-width:0.08px"
     id="path46" />
  <path
     d="m 14.888439,23.866478 -4.601458,3.067639"
     style="stroke:#000000;stroke-width:0.08px"
     id="path48" />
  <path
     d="M 14.888439,23.866478 20.551773,26.2262"
     style="stroke:#000000;stroke-width:0.08px"
     id="path50" />
  <circle
     cx="18.428022"
     cy="15.371477"
     r="3.7795277"
     style="fill:none;stroke:#0000ff;stroke-width:0.08px"
     id="circle52" />
</svg>
