<svg xmlns="http://www.w3.org/2000/svg" width="566" height="566" viewBox="0 0 566 566">
<style type="text/css">
polygon.tile { stroke: #000000; stroke-width:3; stroke-linejoin:round }
polygon.ih1 { fill: #ffff80 }
polygon.ih2 { fill: #8080ff }
polygon.ih3 { fill: #ff8080 }
polygon.ih4 { fill: #80ff80 }
polygon.ih5 { fill: #ff80ff }
polygon.ih6 { fill: #80ffff }
polygon.para {opacity: 0.75; fill: #ff0000; stroke: #ff0000 }
</style>
<polygon class="para" points="-3.0971356115662694,32.741147893700635 -31.41380406017223,-9.733854779208295 3.0971356115662694,-32.741147893700635 31.41380406017223,9.733854779208304 -3.0971356115662694,32.741147893700635" style="stroke: none"/>
<path d="M 0.0,0.0 23.007293114492338,-15.338195409661555" style="stroke:#000000;stroke-width: 0.2px"/><path d="M 11.503646557246169,-23.007293114492338 0.0,-15.338195409661555" style="stroke:#000000;stroke-width: 0.2px"/><path d="M 0.0,-15.338195409661555 0.0,0.0" style="stroke:#000000;stroke-width: 0.2px"/><path d="M 0.0,0.0 -23.00729311449233,-15.338195409661564" style="stroke:#000000;stroke-width: 0.2px"/><path d="M -23.00729311449233,-15.338195409661564 -11.503646557246158,-23.007293114492338" style="stroke:#000000;stroke-width: 0.2px"/><path d="M -11.503646557246158,-23.007293114492338 0.0,-15.338195409661555" style="stroke:#000000;stroke-width: 0.2px"/><path d="M 11.503646557246169,-38.345488524153886 -11.503646557246158,-23.007293114492338" style="stroke:#000000;stroke-width: 0.2px"/><path d="M 25.66198078154914,-1.7697917780378736 14.158334224302969,5.899305926792899" style="stroke:#000000;stroke-width: 0.2px"/><path d="M 14.158334224302969,5.899305926792899 0.0,0.0" style="stroke:#000000;stroke-width: 0.2px"/><path d="M 0.0,0.0 5.3093753341136205,27.136807263247363" style="stroke:#000000;stroke-width: 0.2px"/><path d="M 5.3093753341136205,27.136807263247363 16.81302189135979,19.46770955841659" style="stroke:#000000;stroke-width: 0.2px"/><path d="M 16.81302189135979,19.46770955841659 14.158334224302969,5.899305926792899" style="stroke:#000000;stroke-width: 0.2px"/><path d="M 39.820315005852116,4.1295141487550255 16.81302189135979,19.46770955841659" style="stroke:#000000;stroke-width: 0.2px"/><path d="M 5.3093753341136205,27.136807263247363 -17.697917780378702,42.47500267290893" style="stroke:#000000;stroke-width: 0.2px"/><path d="M -34.5109396717385,23.007293114492338 -11.503646557246169,7.669097704830773" style="stroke:#000000;stroke-width: 0.2px"/><path d="M -11.503646557246169,7.669097704830773 -23.00729311449233,0.0" style="stroke:#000000;stroke-width: 0.2px"/><path d="M -23.00729311449233,0.0 -34.5109396717385,7.669097704830773" style="stroke:#000000;stroke-width: 0.2px"/><path d="M -23.00729311449233,-15.338195409661564 -46.014586228984655,0.0" style="stroke:#000000;stroke-width: 0.2px"/><path d="M -23.00729311449233,0.0 -23.00729311449233,-15.338195409661564" style="stroke:#000000;stroke-width: 0.2px"/><path d="M 0.0,0.0 -11.503646557246169,7.669097704830773" style="stroke:#000000;stroke-width: 0.2px"/><path d="M -11.503646557246169,7.669097704830773 -8.848958890189358,21.237501336454464" style="stroke:#000000;stroke-width: 0.2px"/><path d="M -8.848958890189358,21.237501336454464 -20.352605447435526,28.906599041285236" style="stroke:#000000;stroke-width: 0.2px"/><path d="M -8.848958890189358,21.237501336454464 5.3093753341136205,27.136807263247363" style="stroke:#000000;stroke-width: 0.2px"/><circle cx="0.0" cy="0.0" r="9.448818897637796" style="stroke:#0000FF;stroke-width: 0.2px;fill:none"/></svg>

