<svg xmlns="http://www.w3.org/2000/svg" width="566" height="566" viewBox="0 0 566 566">
<style type="text/css">
polygon.tile { stroke: #000000; stroke-width:3; stroke-linejoin:round }
polygon.ih1 { fill: #ffff80 }
polygon.ih2 { fill: #8080ff }
polygon.ih3 { fill: #ff8080 }
polygon.ih4 { fill: #80ff80 }
polygon.ih5 { fill: #ff80ff }
polygon.ih6 { fill: #80ffff }
polygon.para {opacity: 0.75; fill: #ff0000; stroke: #ff0000 }
</style>
<polygon class="para" points="24.548751603338427,14.173228346456693 24.548751603338413,-42.51968503937011 -24.548751603338427,-14.173228346456693 -24.54875160333842,42.51968503937011 24.548751603338427,14.173228346456693" style="stroke: none"/>
<path d="M 0.0,0.0 16.365834402225612,9.448818897637794" style="stroke:#000000;stroke-width: 0.2px"/><path d="M 16.365834402225612,9.448818897637794 32.731668804451225,0.0" style="stroke:#000000;stroke-width: 0.2px"/><path d="M 32.731668804451225,0.0 16.365834402225612,-9.448818897637802" style="stroke:#000000;stroke-width: 0.2px"/><path d="M 16.365834402225612,-9.448818897637802 0.0,0.0" style="stroke:#000000;stroke-width: 0.2px"/><path d="M 32.731668804451225,-18.897637795275603 16.365834402225612,-9.448818897637802" style="stroke:#000000;stroke-width: 0.2px"/><path d="M -16.365834402225612,-9.448818897637802 0.0,0.0" style="stroke:#000000;stroke-width: 0.2px"/><path d="M 16.365834402225612,-9.448818897637802 0.0,-18.897637795275603" style="stroke:#000000;stroke-width: 0.2px"/><path d="M 0.0,-18.897637795275603 -16.365834402225612,-9.448818897637802" style="stroke:#000000;stroke-width: 0.2px"/><path d="M 16.36583440222563,28.3464566929134 16.365834402225612,9.448818897637794" style="stroke:#000000;stroke-width: 0.2px"/><path d="M 0.0,0.0 0.0,18.897637795275603" style="stroke:#000000;stroke-width: 0.2px"/><path d="M 0.0,18.897637795275603 16.36583440222563,28.3464566929134" style="stroke:#000000;stroke-width: 0.2px"/><path d="M -16.365834402225612,-9.448818897637802 -16.36583440222562,9.44881889763781" style="stroke:#000000;stroke-width: 0.2px"/><path d="M -16.36583440222562,9.44881889763781 0.0,18.897637795275603" style="stroke:#000000;stroke-width: 0.2px"/><path d="M 0.0,18.897637795275603 0.0,37.795275590551206" style="stroke:#000000;stroke-width: 0.2px"/><path d="M -32.73166880445124,1.4885420088362605e-14 -16.365834402225612,-9.448818897637802" style="stroke:#000000;stroke-width: 0.2px"/><path d="M -16.365834402225612,-9.448818897637802 -16.36583440222563,-28.346456692913385" style="stroke:#000000;stroke-width: 0.2px"/><path d="M -32.731668804451225,18.89763779527562 -16.36583440222562,9.44881889763781" style="stroke:#000000;stroke-width: 0.2px"/><path d="M 0.0,-18.897637795275603 0.0,-37.795275590551185" style="stroke:#000000;stroke-width: 0.2px"/><path d="M -32.731668804451225,37.795275590551206 -16.365834402225612,28.346456692913414" style="stroke:#000000;stroke-width: 0.2px"/><path d="M -16.365834402225612,28.346456692913414 -32.731668804451225,18.89763779527562" style="stroke:#000000;stroke-width: 0.2px"/><path d="M -16.365834402225612,28.346456692913414 0.0,18.897637795275603" style="stroke:#000000;stroke-width: 0.2px"/><path d="M -16.365834402225612,47.244094488189006 -16.365834402225612,28.346456692913414" style="stroke:#000000;stroke-width: 0.2px"/><path d="M 16.365834402225612,-28.3464566929134 16.365834402225612,-47.244094488189" style="stroke:#000000;stroke-width: 0.2px"/><path d="M 0.0,-37.795275590551185 16.365834402225612,-28.3464566929134" style="stroke:#000000;stroke-width: 0.2px"/><path d="M 16.365834402225612,-9.448818897637802 16.365834402225612,-28.3464566929134" style="stroke:#000000;stroke-width: 0.2px"/><path d="M 16.365834402225612,-28.3464566929134 32.731668804451225,-37.795275590551206" style="stroke:#000000;stroke-width: 0.2px"/><circle cx="0.0" cy="0.0" r="9.448818897637796" style="stroke:#0000FF;stroke-width: 0.2px;fill:none"/></svg>

