<svg xmlns="http://www.w3.org/2000/svg" width="566" height="566" viewBox="0 0 566 566">
<style type="text/css">
polygon.tile { stroke: #000000; stroke-width:3; stroke-linejoin:round }
polygon.ih1 { fill: #ffff80 }
polygon.ih2 { fill: #8080ff }
polygon.ih3 { fill: #ff8080 }
polygon.ih4 { fill: #80ff80 }
polygon.ih5 { fill: #ff80ff }
polygon.ih6 { fill: #80ffff }
polygon.para {opacity: 0.75; fill: #ff0000; stroke: #ff0000 }
</style>
<polygon class="para" points="-41.94990686567596,6.132317318314796 -22.39796261882154,-35.996267476743526 41.949906865675956,-6.132317318314796 22.397962618821538,35.996267476743526 -41.94990686567596,6.132317318314796" style="stroke: none"/>
<path d="M 0.0,0.0 19.551944246854415,0.0" style="stroke:#000000;stroke-width: 0.2px"/><path d="M 19.551944246854415,0.0 19.551944246854415,-29.327916370281624" style="stroke:#000000;stroke-width: 0.2px"/><path d="M 9.775972123427213,-21.064292397529154 0.0,-12.8006684247767" style="stroke:#000000;stroke-width: 0.2px"/><path d="M 0.0,-12.8006684247767 0.0,0.0" style="stroke:#000000;stroke-width: 0.2px"/><path d="M 19.551944246854415,0.0 19.551944246854415,29.32791637028163" style="stroke:#000000;stroke-width: 0.2px"/><path d="M 19.551944246854415,29.32791637028163 0.0,12.8006684247767" style="stroke:#000000;stroke-width: 0.2px"/><path d="M 0.0,12.8006684247767 0.0,0.0" style="stroke:#000000;stroke-width: 0.2px"/><path d="M 39.10388849370883,0.0 19.551944246854415,0.0" style="stroke:#000000;stroke-width: 0.2px"/><path d="M 39.10388849370883,-12.8006684247767 39.10388849370883,0.0" style="stroke:#000000;stroke-width: 0.2px"/><path d="M 19.551944246854415,29.32791637028163 29.32791637028163,21.064292397529165" style="stroke:#000000;stroke-width: 0.2px"/><path d="M 29.32791637028163,21.064292397529165 39.10388849370883,12.8006684247767" style="stroke:#000000;stroke-width: 0.2px"/><path d="M 39.10388849370883,12.8006684247767 39.10388849370883,0.0" style="stroke:#000000;stroke-width: 0.2px"/><path d="M -9.775972123427207,21.064292397529165 -22.397962618821538,6.132317318314796" style="stroke:#000000;stroke-width: 0.2px"/><path d="M -22.397962618821538,6.132317318314796 0.0,-12.8006684247767" style="stroke:#000000;stroke-width: 0.2px"/><path d="M 0.0,12.8006684247767 -9.775972123427207,21.064292397529165" style="stroke:#000000;stroke-width: 0.2px"/><path d="M -22.397962618821538,6.132317318314796 -44.795925237643075,25.065303061406293" style="stroke:#000000;stroke-width: 0.2px"/><path d="M -35.019953114215866,-8.799657760899562 -22.397962618821538,6.132317318314796" style="stroke:#000000;stroke-width: 0.2px"/><path d="M 0.0,-12.8006684247767 -25.24398099078866,-17.063281733652026" style="stroke:#000000;stroke-width: 0.2px"/><path d="M -25.24398099078866,-17.063281733652026 -35.019953114215866,-8.799657760899562" style="stroke:#000000;stroke-width: 0.2px"/><path d="M -44.795925237643075,-0.5360337881470973 -35.019953114215866,-8.799657760899562" style="stroke:#000000;stroke-width: 0.2px"/><path d="M -25.243980990788664,-42.664618583205424 -25.243980990788664,-29.863950158428725" style="stroke:#000000;stroke-width: 0.2px"/><path d="M -25.24398099078866,-17.063281733652026 -25.243980990788664,-29.863950158428725" style="stroke:#000000;stroke-width: 0.2px"/><path d="M 19.551944246854415,42.12858479505831 19.551944246854415,29.32791637028163" style="stroke:#000000;stroke-width: 0.2px"/><path d="M 9.775972123427213,-21.064292397529154 -2.8460183719671215,-35.996267476743526" style="stroke:#000000;stroke-width: 0.2px"/><path d="M -2.8460183719671215,-35.996267476743526 -25.24398099078866,-17.063281733652026" style="stroke:#000000;stroke-width: 0.2px"/><path d="M 0.0,42.12858479505831 0.0,12.8006684247767" style="stroke:#000000;stroke-width: 0.2px"/><circle cx="0.0" cy="0.0" r="9.448818897637796" style="stroke:#0000FF;stroke-width: 0.2px;fill:none"/></svg>

