<svg xmlns="http://www.w3.org/2000/svg" width="566" height="566" viewBox="0 0 566 566">
<style type="text/css">
polygon.tile { stroke: #000000; stroke-width:3; stroke-linejoin:round }
polygon.ih1 { fill: #ffff80 }
polygon.ih2 { fill: #8080ff }
polygon.ih3 { fill: #ff8080 }
polygon.ih4 { fill: #80ff80 }
polygon.ih5 { fill: #ff80ff }
polygon.ih6 { fill: #80ffff }
polygon.para {opacity: 0.75; fill: #ff0000; stroke: #ff0000 }
</style>
<polygon class="para" points="-26.22477078910853,19.466843752964596 26.22477078910852,19.466843752964614 26.224770789108536,-19.46684375296464 -26.22477078910852,-19.466843752964646 -26.22477078910853,19.466843752964596" style="stroke: none"/>
<path d="M 0.0,-1.7037529016800572e-14 26.22477078910852,15.140878474528016" style="stroke:#000000;stroke-width: 0.2px"/><path d="M 37.46395827015502,8.651930556873145 11.239187481046516,-6.4889479176548885" style="stroke:#000000;stroke-width: 0.2px"/><path d="M 11.239187481046516,-6.4889479176548885 0.0,-1.7037529016800572e-14" style="stroke:#000000;stroke-width: 0.2px"/><path d="M 26.22477078910852,15.140878474528016 26.22477078910852,28.118774309837775" style="stroke:#000000;stroke-width: 0.2px"/><path d="M 11.239187481046498,19.466843752964614 0.0,12.977895835309726" style="stroke:#000000;stroke-width: 0.2px"/><path d="M 0.0,12.977895835309726 0.0,-1.7037529016800572e-14" style="stroke:#000000;stroke-width: 0.2px"/><path d="M 26.22477078910852,-23.792809031401227 26.22477078910852,-10.814913196091478" style="stroke:#000000;stroke-width: 0.2px"/><path d="M 26.22477078910852,-10.814913196091478 11.239187481046498,-19.46684375296464" style="stroke:#000000;stroke-width: 0.2px"/><path d="M 11.239187481046516,-6.4889479176548885 11.239187481046498,-19.46684375296464" style="stroke:#000000;stroke-width: 0.2px"/><path d="M -26.22477078910852,-23.792809031401227 -26.22477078910853,-10.814913196091485" style="stroke:#000000;stroke-width: 0.2px"/><path d="M -26.22477078910853,-10.814913196091485 0.0,-25.95579167061952" style="stroke:#000000;stroke-width: 0.2px"/><path d="M 11.239187481046498,-19.46684375296464 -14.98558330806202,-4.325965278436597" style="stroke:#000000;stroke-width: 0.2px"/><path d="M -14.98558330806202,-4.325965278436597 -26.22477078910853,-10.814913196091485" style="stroke:#000000;stroke-width: 0.2px"/><path d="M -14.98558330806202,-4.325965278436597 -14.985583308062013,8.651930556873145" style="stroke:#000000;stroke-width: 0.2px"/><path d="M -14.985583308062013,8.651930556873145 0.0,-1.7037529016800572e-14" style="stroke:#000000;stroke-width: 0.2px"/><path d="M -14.985583308062013,8.651930556873145 -41.21035409717053,-6.4889479176548885" style="stroke:#000000;stroke-width: 0.2px"/><path d="M -26.224770789108536,15.140878474528016 -14.985583308062013,8.651930556873145" style="stroke:#000000;stroke-width: 0.2px"/><path d="M -26.224770789108536,15.140878474528016 -26.224770789108536,28.118774309837757" style="stroke:#000000;stroke-width: 0.2px"/><path d="M -26.224770789108536,28.118774309837757 0.0,12.977895835309726" style="stroke:#000000;stroke-width: 0.2px"/><circle cx="0.0" cy="-1.7037529016800572e-14" r="9.448818897637796" style="stroke:#0000FF;stroke-width: 0.2px;fill:none"/></svg>

