<svg xmlns="http://www.w3.org/2000/svg" width="566" height="566" viewBox="0 0 566 566">
<style type="text/css">
polygon.tile { stroke: #000000; stroke-width:3; stroke-linejoin:round }
polygon.ih1 { fill: #ffff80 }
polygon.ih2 { fill: #8080ff }
polygon.ih3 { fill: #ff8080 }
polygon.ih4 { fill: #80ff80 }
polygon.ih5 { fill: #ff80ff }
polygon.ih6 { fill: #80ffff }
polygon.para {opacity: 0.75; fill: #ff0000; stroke: #ff0000 }
</style>
<polygon class="para" points="-22.767230884276945,38.07420751372872 22.76723088427698,38.07420751372872 22.76723088427698,-38.07420751372869 -22.767230884276945,-38.07420751372869 -22.767230884276945,38.07420751372872" style="stroke: none"/>
<path d="M 1.7851518556154416e-14,1.7851518556154416e-14 22.76723088427698,13.144666879739692" style="stroke:#000000;stroke-width: 0.2px"/><path d="M 39.25384635220168,3.6261150013075145 16.48661546792473,-9.51855187843216" style="stroke:#000000;stroke-width: 0.2px"/><path d="M 16.48661546792473,-9.51855187843216 10.206000051572422,-5.892436877124662" style="stroke:#000000;stroke-width: 0.2px"/><path d="M 10.206000051572422,-5.892436877124662 1.7851518556154416e-14,1.7851518556154416e-14" style="stroke:#000000;stroke-width: 0.2px"/><path d="M 32.97323093584942,-19.037103756864337 16.48661546792473,-9.51855187843216" style="stroke:#000000;stroke-width: 0.2px"/><path d="M 22.76723088427698,13.144666879739692 22.76723088427698,32.18177063660403" style="stroke:#000000;stroke-width: 0.2px"/><path d="M 22.76723088427698,32.18177063660403 16.48661546792471,28.55565563529655" style="stroke:#000000;stroke-width: 0.2px"/><path d="M 16.48661546792471,28.55565563529655 1.7851518556154416e-14,19.037103756864372" style="stroke:#000000;stroke-width: 0.2px"/><path d="M 1.7851518556154416e-14,19.037103756864372 1.7851518556154416e-14,1.7851518556154416e-14" style="stroke:#000000;stroke-width: 0.2px"/><path d="M 16.48661546792471,-47.59275939216085 -6.280615416352253,-34.448092512421184" style="stroke:#000000;stroke-width: 0.2px"/><path d="M -6.280615416352253,-34.448092512421184 -12.561230832704506,-38.07420751372867" style="stroke:#000000;stroke-width: 0.2px"/><path d="M -12.561230832704506,-38.07420751372867 -22.767230884276945,-43.96664439085337" style="stroke:#000000;stroke-width: 0.2px"/><path d="M 32.973230935849436,-38.07420751372867 10.206000051572458,-24.929540633989" style="stroke:#000000;stroke-width: 0.2px"/><path d="M 10.206000051572458,-24.929540633989 -6.280615416352253,-34.448092512421184" style="stroke:#000000;stroke-width: 0.2px"/><path d="M 10.206000051572458,-24.929540633989 10.206000051572422,-5.892436877124662" style="stroke:#000000;stroke-width: 0.2px"/><path d="M 10.206000051572422,-5.892436877124662 -12.561230832704524,-19.037103756864337" style="stroke:#000000;stroke-width: 0.2px"/><path d="M -12.561230832704524,-19.037103756864337 -12.561230832704506,-38.07420751372867" style="stroke:#000000;stroke-width: 0.2px"/><path d="M -22.767230884276945,13.144666879739692 -6.280615416352253,3.6261150013075145" style="stroke:#000000;stroke-width: 0.2px"/><path d="M -6.280615416352253,3.6261150013075145 -29.047846300629217,-9.51855187843216" style="stroke:#000000;stroke-width: 0.2px"/><path d="M -6.280615416352253,3.6261150013075145 1.7851518556154416e-14,1.7851518556154416e-14" style="stroke:#000000;stroke-width: 0.2px"/><path d="M -12.561230832704524,-19.037103756864337 -29.047846300629217,-9.51855187843216" style="stroke:#000000;stroke-width: 0.2px"/><path d="M -22.767230884276945,13.144666879739692 -22.767230884276945,32.18177063660403" style="stroke:#000000;stroke-width: 0.2px"/><path d="M -22.767230884276945,32.18177063660403 1.7851518556154416e-14,19.037103756864372" style="stroke:#000000;stroke-width: 0.2px"/><path d="M 16.48661546792471,28.55565563529655 -6.280615416352253,41.70032251503622" style="stroke:#000000;stroke-width: 0.2px"/><path d="M -12.561230832704506,38.07420751372872 -22.767230884276945,32.18177063660403" style="stroke:#000000;stroke-width: 0.2px"/><path d="M -12.561230832704506,-38.07420751372867 -35.32846171698149,-24.929540633989" style="stroke:#000000;stroke-width: 0.2px"/><circle cx="1.7851518556154416e-14" cy="1.7851518556154416e-14" r="9.448818897637796" style="stroke:#0000FF;stroke-width: 0.2px;fill:none"/></svg>

