<svg xmlns="http://www.w3.org/2000/svg" width="566" height="566" viewBox="0 0 566 566">
<style type="text/css">
polygon.tile { stroke: #000000; stroke-width:3; stroke-linejoin:round }
polygon.ih1 { fill: #ffff80 }
polygon.ih2 { fill: #8080ff }
polygon.ih3 { fill: #ff8080 }
polygon.ih4 { fill: #80ff80 }
polygon.ih5 { fill: #ff80ff }
polygon.ih6 { fill: #80ffff }
polygon.para {opacity: 0.75; fill: #ff0000; stroke: #ff0000 }
</style>
<polygon class="para" points="4.19952065412391e-14,79.97189843918832 46.17179709147082,0.0 0.0,-79.97189843918828 -46.17179709147078,4.19952065412391e-14 4.19952065412391e-14,79.97189843918832" style="stroke: none"/>
<path d="M 2.099760327061955e-14,2.099760327061955e-14 4.617179709147101,2.665729947972963" style="stroke:#000000;stroke-width: 0.2px"/><path d="M 4.617179709147101,2.665729947972963 23.0858985457354,13.328649739864732" style="stroke:#000000;stroke-width: 0.2px"/><path d="M 23.0858985457354,13.328649739864732 41.55461738232372,2.665729947972963" style="stroke:#000000;stroke-width: 0.2px"/><path d="M 41.55461738232372,2.665729947972963 27.70307825488248,-15.994379687837641" style="stroke:#000000;stroke-width: 0.2px"/><path d="M 27.70307825488248,-15.994379687837641 18.46871883658834,-10.662919791891758" style="stroke:#000000;stroke-width: 0.2px"/><path d="M 18.46871883658834,-10.662919791891758 2.099760327061955e-14,2.099760327061955e-14" style="stroke:#000000;stroke-width: 0.2px"/><path d="M 46.1717970914708,-26.65729947972942 27.70307825488248,-15.994379687837641" style="stroke:#000000;stroke-width: 0.2px"/><path d="M 41.55461738232372,2.665729947972963 46.17179709147078,2.099760327061955e-14" style="stroke:#000000;stroke-width: 0.2px"/><path d="M -23.085898545735358,-13.3286497398647 2.099760327061955e-14,2.099760327061955e-14" style="stroke:#000000;stroke-width: 0.2px"/><path d="M 18.46871883658834,-10.662919791891758 4.617179709147101,-29.323029427702362" style="stroke:#000000;stroke-width: 0.2px"/><path d="M 4.617179709147101,-29.323029427702362 0.0,-26.65729947972939" style="stroke:#000000;stroke-width: 0.2px"/><path d="M 0.0,-26.65729947972939 -23.085898545735358,-13.3286497398647" style="stroke:#000000;stroke-width: 0.2px"/><path d="M 23.08589854573542,-39.98594921959413 4.617179709147101,-29.323029427702362" style="stroke:#000000;stroke-width: 0.2px"/><path d="M 23.08589854573542,39.98594921959417 23.08589854573542,34.654489323648285" style="stroke:#000000;stroke-width: 0.2px"/><path d="M 23.08589854573542,34.654489323648285 23.0858985457354,13.328649739864732" style="stroke:#000000;stroke-width: 0.2px"/><path d="M 4.617179709147101,2.665729947972963 -4.617179709147059,23.991569531756518" style="stroke:#000000;stroke-width: 0.2px"/><path d="M -4.617179709147059,23.991569531756518 4.617179709147101,29.323029427702426" style="stroke:#000000;stroke-width: 0.2px"/><path d="M 4.617179709147101,29.323029427702426 23.08589854573542,39.98594921959417" style="stroke:#000000;stroke-width: 0.2px"/><path d="M -23.085898545735358,-13.3286497398647 -23.08589854573537,13.328649739864751" style="stroke:#000000;stroke-width: 0.2px"/><path d="M -23.08589854573537,13.328649739864751 -4.617179709147059,23.991569531756518" style="stroke:#000000;stroke-width: 0.2px"/><path d="M 23.08589854573542,66.6432486993236 23.08589854573542,39.98594921959417" style="stroke:#000000;stroke-width: 0.2px"/><path d="M 4.617179709147101,29.323029427702426 -4.617179709147038,50.648869011485964" style="stroke:#000000;stroke-width: 0.2px"/><path d="M -4.617179709147038,50.648869011485964 2.099760327061955e-14,53.31459895945893" style="stroke:#000000;stroke-width: 0.2px"/><path d="M 2.099760327061955e-14,53.31459895945893 23.08589854573542,66.6432486993236" style="stroke:#000000;stroke-width: 0.2px"/><path d="M -23.08589854573537,13.328649739864751 -23.08589854573538,18.660109635810656" style="stroke:#000000;stroke-width: 0.2px"/><path d="M -23.08589854573538,18.660109635810656 -23.085898545735358,39.98594921959421" style="stroke:#000000;stroke-width: 0.2px"/><path d="M -23.085898545735358,39.98594921959421 -4.617179709147038,50.648869011485964" style="stroke:#000000;stroke-width: 0.2px"/><path d="M 23.08589854573542,34.654489323648285 46.1717970914708,31.988759375675325" style="stroke:#000000;stroke-width: 0.2px"/><path d="M 46.1717970914708,21.325839583783576 46.17179709147078,2.099760327061955e-14" style="stroke:#000000;stroke-width: 0.2px"/><path d="M -4.617179709147101,-77.3061684912153 -2.099760327061955e-14,-79.97189843918825" style="stroke:#000000;stroke-width: 0.2px"/><path d="M -23.0858985457354,-39.9859492195941 -23.0858985457354,-45.317409115539995" style="stroke:#000000;stroke-width: 0.2px"/><path d="M -23.085898545735358,-13.3286497398647 -23.0858985457354,-39.9859492195941" style="stroke:#000000;stroke-width: 0.2px"/><path d="M -46.17179709147078,-26.657299479729357 -23.085898545735358,-13.3286497398647" style="stroke:#000000;stroke-width: 0.2px"/><path d="M -23.0858985457354,-45.317409115539995 0.0,-47.98313906351294" style="stroke:#000000;stroke-width: 0.2px"/><path d="M 0.0,-47.98313906351294 0.0,-58.6460588554047" style="stroke:#000000;stroke-width: 0.2px"/><path d="M 0.0,-58.6460588554047 -2.099760327061955e-14,-79.97189843918825" style="stroke:#000000;stroke-width: 0.2px"/><path d="M 0.0,-26.65729947972939 0.0,-47.98313906351294" style="stroke:#000000;stroke-width: 0.2px"/><path d="M 0.0,-58.6460588554047 23.0858985457354,-61.31178880337767" style="stroke:#000000;stroke-width: 0.2px"/><path d="M 23.08589854573542,-39.98594921959413 23.0858985457354,-61.31178880337767" style="stroke:#000000;stroke-width: 0.2px"/><path d="M -46.1717970914708,8.39904130824782e-14 -23.085898545735358,-13.3286497398647" style="stroke:#000000;stroke-width: 0.2px"/><path d="M -46.17179709147078,21.32583958378364 -23.08589854573538,18.660109635810656" style="stroke:#000000;stroke-width: 0.2px"/><path d="M 2.099760327061955e-14,53.31459895945893 -18.46871883658829,63.97751875135069" style="stroke:#000000;stroke-width: 0.2px"/><circle cx="2.099760327061955e-14" cy="2.099760327061955e-14" r="9.448818897637796" style="stroke:#0000FF;stroke-width: 0.2px;fill:none"/></svg>

