<svg xmlns="http://www.w3.org/2000/svg" width="566" height="566" viewBox="0 0 566 566">
<style type="text/css">
polygon.tile { stroke: #000000; stroke-width:3; stroke-linejoin:round }
polygon.ih1 { fill: #ffff80 }
polygon.ih2 { fill: #8080ff }
polygon.ih3 { fill: #ff8080 }
polygon.ih4 { fill: #80ff80 }
polygon.ih5 { fill: #ff80ff }
polygon.ih6 { fill: #80ffff }
polygon.para {opacity: 0.75; fill: #ff0000; stroke: #ff0000 }
</style>
<polygon class="para" points="-9.925504350487603e-15,50.4033033767284 50.4033033767284,-9.925504350487603e-15 -9.925504350487603e-15,-50.40330337672842 -50.40330337672842,0.0 -9.925504350487603e-15,50.4033033767284" style="stroke: none"/>
<path d="M -9.925504350487603e-15,-9.925504350487603e-15 20.16132135069135,-9.925504350487603e-15" style="stroke:#000000;stroke-width: 0.2px"/><path d="M 20.16132135069135,-9.925504350487603e-15 25.201651688364198,-9.925504350487603e-15" style="stroke:#000000;stroke-width: 0.2px"/><path d="M 25.201651688364198,-9.925504350487603e-15 25.201651688364198,-5.040330337672852" style="stroke:#000000;stroke-width: 0.2px"/><path d="M 25.201651688364198,-5.040330337672852 -9.925504350487603e-15,-20.16132135069137" style="stroke:#000000;stroke-width: 0.2px"/><path d="M -9.925504350487603e-15,-20.16132135069137 -9.925504350487603e-15,-9.925504350487603e-15" style="stroke:#000000;stroke-width: 0.2px"/><path d="M 25.201651688364198,-25.201651688364212 -9.925504350487603e-15,-25.201651688364212" style="stroke:#000000;stroke-width: 0.2px"/><path d="M -9.925504350487603e-15,-25.201651688364212 -9.925504350487603e-15,-20.16132135069137" style="stroke:#000000;stroke-width: 0.2px"/><path d="M 25.201651688364198,-5.040330337672852 25.201651688364198,-25.201651688364212" style="stroke:#000000;stroke-width: 0.2px"/><path d="M -9.925504350487603e-15,-25.201651688364212 -5.040330337672847,-25.201651688364212" style="stroke:#000000;stroke-width: 0.2px"/><path d="M -5.040330337672847,-25.201651688364212 -20.16132135069137,-9.925504350487603e-15" style="stroke:#000000;stroke-width: 0.2px"/><path d="M -20.16132135069137,-9.925504350487603e-15 -9.925504350487603e-15,-9.925504350487603e-15" style="stroke:#000000;stroke-width: 0.2px"/><path d="M -25.201651688364212,-25.2016516883642 -25.2016516883642,0.0" style="stroke:#000000;stroke-width: 0.2px"/><path d="M -25.2016516883642,0.0 -20.16132135069137,-9.925504350487603e-15" style="stroke:#000000;stroke-width: 0.2px"/><path d="M -5.040330337672847,-25.201651688364212 -25.201651688364212,-25.2016516883642" style="stroke:#000000;stroke-width: 0.2px"/><path d="M -25.2016516883642,0.0 -25.201651688364212,5.0403303376728275" style="stroke:#000000;stroke-width: 0.2px"/><path d="M -25.201651688364212,5.0403303376728275 -9.925504350487603e-15,20.16132135069135" style="stroke:#000000;stroke-width: 0.2px"/><path d="M -9.925504350487603e-15,20.16132135069135 -9.925504350487603e-15,-9.925504350487603e-15" style="stroke:#000000;stroke-width: 0.2px"/><path d="M -25.201651688364212,25.201651688364198 -9.925504350487603e-15,25.201651688364198" style="stroke:#000000;stroke-width: 0.2px"/><path d="M -9.925504350487603e-15,25.201651688364198 -9.925504350487603e-15,20.16132135069135" style="stroke:#000000;stroke-width: 0.2px"/><path d="M -25.201651688364212,5.0403303376728275 -25.201651688364212,25.201651688364198" style="stroke:#000000;stroke-width: 0.2px"/><path d="M -9.925504350487603e-15,25.201651688364198 5.0403303376728275,25.201651688364198" style="stroke:#000000;stroke-width: 0.2px"/><path d="M 5.0403303376728275,25.201651688364198 20.16132135069135,-9.925504350487603e-15" style="stroke:#000000;stroke-width: 0.2px"/><path d="M 25.201651688364187,25.201651688364198 25.201651688364198,-9.925504350487603e-15" style="stroke:#000000;stroke-width: 0.2px"/><path d="M 5.0403303376728275,25.201651688364198 25.201651688364187,25.201651688364198" style="stroke:#000000;stroke-width: 0.2px"/><path d="M 50.4033033767284,-9.925504350487603e-15 30.241982026037036,0.0" style="stroke:#000000;stroke-width: 0.2px"/><path d="M 30.241982026037036,0.0 25.201651688364198,-9.925504350487603e-15" style="stroke:#000000;stroke-width: 0.2px"/><path d="M 25.201651688364198,-5.040330337672852 50.4033033767284,-20.16132135069136" style="stroke:#000000;stroke-width: 0.2px"/><path d="M 45.36297303905555,25.201651688364198 30.241982026037036,0.0" style="stroke:#000000;stroke-width: 0.2px"/><path d="M 25.201651688364198,-45.362973039055554 -9.925504350487603e-15,-30.24198202603704" style="stroke:#000000;stroke-width: 0.2px"/><path d="M -9.925504350487603e-15,-30.24198202603704 -9.925504350487603e-15,-50.403303376728395" style="stroke:#000000;stroke-width: 0.2px"/><path d="M -9.925504350487603e-15,-25.201651688364212 -9.925504350487603e-15,-30.24198202603704" style="stroke:#000000;stroke-width: 0.2px"/><path d="M -5.040330337672847,-25.201651688364212 -20.16132135069137,-50.403303376728395" style="stroke:#000000;stroke-width: 0.2px"/><path d="M -45.362973039055575,-25.2016516883642 -30.24198202603706,0.0" style="stroke:#000000;stroke-width: 0.2px"/><path d="M -30.24198202603706,0.0 -50.40330337672842,0.0" style="stroke:#000000;stroke-width: 0.2px"/><path d="M -25.2016516883642,0.0 -30.24198202603706,0.0" style="stroke:#000000;stroke-width: 0.2px"/><path d="M -25.201651688364212,5.0403303376728275 -50.40330337672842,20.16132135069136" style="stroke:#000000;stroke-width: 0.2px"/><path d="M -25.201651688364212,45.36297303905555 -9.925504350487603e-15,30.241982026037036" style="stroke:#000000;stroke-width: 0.2px"/><path d="M -9.925504350487603e-15,30.241982026037036 -9.925504350487603e-15,50.4033033767284" style="stroke:#000000;stroke-width: 0.2px"/><path d="M -9.925504350487603e-15,25.201651688364198 -9.925504350487603e-15,30.241982026037036" style="stroke:#000000;stroke-width: 0.2px"/><path d="M 5.0403303376728275,25.201651688364198 20.16132135069134,50.4033033767284" style="stroke:#000000;stroke-width: 0.2px"/><circle cx="-9.925504350487603e-15" cy="-9.925504350487603e-15" r="9.448818897637796" style="stroke:#0000FF;stroke-width: 0.2px;fill:none"/></svg>

