<svg xmlns="http://www.w3.org/2000/svg" width="566" height="566" viewBox="0 0 566 566">
<style type="text/css">
polygon.tile { stroke: #000000; stroke-width:3; stroke-linejoin:round }
polygon.ih1 { fill: #ffff80 }
polygon.ih2 { fill: #8080ff }
polygon.ih3 { fill: #ff8080 }
polygon.ih4 { fill: #80ff80 }
polygon.ih5 { fill: #ff80ff }
polygon.ih6 { fill: #80ffff }
polygon.para {opacity: 0.75; fill: #ff0000; stroke: #ff0000 }
</style>
<polygon class="para" points="-15.16699344165932,43.81155249529255 15.166993441659303,43.81155249529255 15.166993441659326,-43.81155249529253 -15.166993441659303,-43.81155249529253 -15.16699344165932,43.81155249529255" style="stroke: none"/>
<path d="M 0.0,1.194684072699187e-14 15.166993441659313,15.166993441659326" style="stroke:#000000;stroke-width: 0.2px"/><path d="M 30.333986883318627,1.194684072699187e-14 9.512483274571858,-6.738782805986944" style="stroke:#000000;stroke-width: 0.2px"/><path d="M 9.512483274571858,-6.738782805986944 0.0,1.194684072699187e-14" style="stroke:#000000;stroke-width: 0.2px"/><path d="M 24.67947671623116,-21.90577624764626 9.512483274571858,-6.738782805986944" style="stroke:#000000;stroke-width: 0.2px"/><path d="M -15.166993441659313,15.166993441659326 0.0,1.194684072699187e-14" style="stroke:#000000;stroke-width: 0.2px"/><path d="M 0.0,1.194684072699187e-14 -20.82150360874676,-6.738782805986944" style="stroke:#000000;stroke-width: 0.2px"/><path d="M 9.512483274571858,-6.738782805986944 -5.6545101670874445,-21.90577624764625" style="stroke:#000000;stroke-width: 0.2px"/><path d="M -5.654510167087456,-21.90577624764626 -20.82150360874676,-6.738782805986944" style="stroke:#000000;stroke-width: 0.2px"/><path d="M 15.166993441659313,15.166993441659326 -5.654510167087456,21.905776247646283" style="stroke:#000000;stroke-width: 0.2px"/><path d="M -5.654510167087456,21.905776247646283 -15.166993441659313,15.166993441659326" style="stroke:#000000;stroke-width: 0.2px"/><path d="M 24.67947671623116,21.905776247646294 9.512483274571858,37.072769689305595" style="stroke:#000000;stroke-width: 0.2px"/><path d="M 9.512483274571858,37.07276968930559 -5.654510167087456,21.905776247646283" style="stroke:#000000;stroke-width: 0.2px"/><path d="M -5.654510167087456,-21.905776247646248 9.512483274571858,-6.738782805986944" style="stroke:#000000;stroke-width: 0.2px"/><path d="M 24.67947671623116,-21.905776247646266 3.8579731074844013,-28.64455905363321" style="stroke:#000000;stroke-width: 0.2px"/><path d="M 3.8579731074844013,-28.64455905363321 -5.6545101670874445,-21.90577624764625" style="stroke:#000000;stroke-width: 0.2px"/><path d="M 19.024966549143702,-43.811552495292524 3.8579731074844013,-28.64455905363321" style="stroke:#000000;stroke-width: 0.2px"/><path d="M 3.8579731074844013,-28.64455905363321 24.67947671623116,-21.90577624764626" style="stroke:#000000;stroke-width: 0.2px"/><path d="M 9.512483274571858,37.07276968930559 24.67947671623116,21.905776247646294" style="stroke:#000000;stroke-width: 0.2px"/><path d="M 19.02496654914369,43.81155249529257 9.512483274571846,37.072769689305595" style="stroke:#000000;stroke-width: 0.2px"/><path d="M 9.512483274571858,-50.55033530127949 -11.309020334174912,-43.811552495292524" style="stroke:#000000;stroke-width: 0.2px"/><path d="M 3.8579731074844013,-28.64455905363321 -11.309020334174912,-43.811552495292524" style="stroke:#000000;stroke-width: 0.2px"/><path d="M -5.654510167087456,21.905776247646294 -20.82150360874677,37.072769689305595" style="stroke:#000000;stroke-width: 0.2px"/><path d="M -15.166993441659313,15.166993441659326 -5.654510167087456,21.905776247646294" style="stroke:#000000;stroke-width: 0.2px"/><path d="M -20.82150360874676,-6.738782805986944 -5.654510167087456,-21.905776247646266" style="stroke:#000000;stroke-width: 0.2px"/><path d="M -5.654510167087456,-21.905776247646266 -26.476013775834225,-28.64455905363321" style="stroke:#000000;stroke-width: 0.2px"/><path d="M -11.309020334174912,-43.811552495292524 -26.476013775834225,-28.64455905363321" style="stroke:#000000;stroke-width: 0.2px"/><path d="M -26.476013775834225,-28.64455905363321 -5.6545101670874685,-21.90577624764626" style="stroke:#000000;stroke-width: 0.2px"/><path d="M -5.654510167087456,-21.905776247646266 3.8579731074844013,-28.64455905363321" style="stroke:#000000;stroke-width: 0.2px"/><path d="M -5.654510167087456,21.905776247646294 9.512483274571833,37.072769689305595" style="stroke:#000000;stroke-width: 0.2px"/><path d="M 9.512483274571833,37.072769689305595 -11.30902033417493,43.81155249529257" style="stroke:#000000;stroke-width: 0.2px"/><path d="M -11.30902033417493,43.81155249529257 -20.82150360874677,37.072769689305595" style="stroke:#000000;stroke-width: 0.2px"/><path d="M 9.512483274571833,37.072769689305595 19.02496654914369,43.81155249529257" style="stroke:#000000;stroke-width: 0.2px"/><path d="M -20.82150360874678,37.072769689305595 -11.30902033417493,43.81155249529257" style="stroke:#000000;stroke-width: 0.2px"/><circle cx="0.0" cy="1.194684072699187e-14" r="9.448818897637796" style="stroke:#0000FF;stroke-width: 0.2px;fill:none"/></svg>

