<svg xmlns="http://www.w3.org/2000/svg" width="566" height="566" viewBox="0 0 566 566">
<style type="text/css">
polygon.tile { stroke: #000000; stroke-width:3; stroke-linejoin:round }
polygon.ih1 { fill: #ffff80 }
polygon.ih2 { fill: #8080ff }
polygon.ih3 { fill: #ff8080 }
polygon.ih4 { fill: #80ff80 }
polygon.ih5 { fill: #ff80ff }
polygon.ih6 { fill: #80ffff }
polygon.para {opacity: 0.75; fill: #ff0000; stroke: #ff0000 }
</style>
<polygon class="para" points="-57.84319896542861,57.843198965428606 -33.39578649347928,-33.39578649347933 57.84319896542862,-57.843198965428606 33.39578649347928,33.39578649347935 -57.84319896542861,57.843198965428606" style="stroke: none"/>
<path d="M 0.0,0.0 28.92159948271431,16.697893246739657" style="stroke:#000000;stroke-width: 0.2px"/><path d="M 28.92159948271431,16.697893246739657 35.97895956854919,4.474187010764987" style="stroke:#000000;stroke-width: 0.2px"/><path d="M 35.97895956854919,4.474187010764987 38.56213264361908,0.0" style="stroke:#000000;stroke-width: 0.2px"/><path d="M 38.56213264361908,0.0 28.92159948271431,-16.69789324673965" style="stroke:#000000;stroke-width: 0.2px"/><path d="M 28.92159948271431,-16.69789324673965 0.0,0.0" style="stroke:#000000;stroke-width: 0.2px"/><path d="M 0.0,0.0 0.0,33.3957864934793" style="stroke:#000000;stroke-width: 0.2px"/><path d="M 0.0,33.3957864934793 14.11472017166974,33.395786493479314" style="stroke:#000000;stroke-width: 0.2px"/><path d="M 14.11472017166974,33.395786493479314 19.28106632180954,33.3957864934793" style="stroke:#000000;stroke-width: 0.2px"/><path d="M 19.28106632180954,33.3957864934793 28.92159948271431,16.697893246739657" style="stroke:#000000;stroke-width: 0.2px"/><path d="M 0.0,0.0 -28.921599482714328,16.69789324673964" style="stroke:#000000;stroke-width: 0.2px"/><path d="M -28.921599482714328,16.69789324673964 -26.91234692721579,20.178020758100704" style="stroke:#000000;stroke-width: 0.2px"/><path d="M -26.91234692721579,20.178020758100704 -21.864239396879455,28.92159948271431" style="stroke:#000000;stroke-width: 0.2px"/><path d="M -21.864239396879455,28.92159948271431 -19.281066321809547,33.3957864934793" style="stroke:#000000;stroke-width: 0.2px"/><path d="M -19.281066321809547,33.3957864934793 0.0,33.3957864934793" style="stroke:#000000;stroke-width: 0.2px"/><path d="M 0.0,0.0 -28.921599482714303,-16.697893246739675" style="stroke:#000000;stroke-width: 0.2px"/><path d="M -28.921599482714303,-16.697893246739675 -35.978959568549215,-4.47418701076502" style="stroke:#000000;stroke-width: 0.2px"/><path d="M -35.978959568549215,-4.47418701076502 -38.56213264361908,-3.288177578872997e-14" style="stroke:#000000;stroke-width: 0.2px"/><path d="M -38.56213264361908,-3.288177578872997e-14 -28.921599482714328,16.69789324673964" style="stroke:#000000;stroke-width: 0.2px"/><path d="M 0.0,0.0 1.6440887894364985e-14,-33.3957864934793" style="stroke:#000000;stroke-width: 0.2px"/><path d="M 1.6440887894364985e-14,-33.3957864934793 -14.114720171669733,-33.395786493479314" style="stroke:#000000;stroke-width: 0.2px"/><path d="M -14.114720171669733,-33.395786493479314 -19.281066321809522,-33.395786493479314" style="stroke:#000000;stroke-width: 0.2px"/><path d="M -19.281066321809522,-33.395786493479314 -28.921599482714303,-16.697893246739675" style="stroke:#000000;stroke-width: 0.2px"/><path d="M 28.92159948271431,-16.69789324673965 21.864239396879423,-28.92159948271431" style="stroke:#000000;stroke-width: 0.2px"/><path d="M 21.864239396879423,-28.92159948271431 19.281066321809572,-33.39578649347928" style="stroke:#000000;stroke-width: 0.2px"/><path d="M 19.281066321809572,-33.39578649347928 1.6440887894364985e-14,-33.3957864934793" style="stroke:#000000;stroke-width: 0.2px"/><path d="M 38.56213264361908,0.0 52.67685281528882,-24.44741247194929" style="stroke:#000000;stroke-width: 0.2px"/><path d="M 55.26002589035872,-28.921599482714328 38.562132643619066,-38.56213264361908" style="stroke:#000000;stroke-width: 0.2px"/><path d="M 38.562132643619066,-38.56213264361908 21.864239396879423,-28.92159948271431" style="stroke:#000000;stroke-width: 0.2px"/><path d="M 19.28106632180954,33.3957864934793 47.51050666514905,33.39578649347935" style="stroke:#000000;stroke-width: 0.2px"/><path d="M 52.67685281528884,14.114720171669774 35.97895956854919,4.474187010764987" style="stroke:#000000;stroke-width: 0.2px"/><path d="M -19.281066321809547,33.3957864934793 -16.398179547659588,38.389092858775385" style="stroke:#000000;stroke-width: 0.2px"/><path d="M -16.398179547659588,38.389092858775385 -5.16634615013975,57.843198965428655" style="stroke:#000000;stroke-width: 0.2px"/><path d="M 14.11472017166974,52.67685281528885 14.11472017166974,33.395786493479314" style="stroke:#000000;stroke-width: 0.2px"/><path d="M -38.56213264361908,-3.288177578872997e-14 -43.23407940849116,8.09204916701545" style="stroke:#000000;stroke-width: 0.2px"/><path d="M -43.23407940849116,8.09204916701545 -52.67685281528881,24.447412471949256" style="stroke:#000000;stroke-width: 0.2px"/><path d="M -55.26002589035876,28.92159948271426 -38.56213264361912,38.562132643619044" style="stroke:#000000;stroke-width: 0.2px"/><path d="M -38.56213264361912,38.562132643619044 -21.864239396879455,28.92159948271431" style="stroke:#000000;stroke-width: 0.2px"/><path d="M -19.281066321809522,-33.395786493479314 -47.51050666514903,-33.39578649347936" style="stroke:#000000;stroke-width: 0.2px"/><path d="M -52.67685281528884,-14.114720171669823 -35.978959568549215,-4.47418701076502" style="stroke:#000000;stroke-width: 0.2px"/><path d="M 19.281066321809572,-33.39578649347928 5.166346150139766,-57.843198965428634" style="stroke:#000000;stroke-width: 0.2px"/><path d="M -14.114720171669708,-52.67685281528886 -14.114720171669733,-33.395786493479314" style="stroke:#000000;stroke-width: 0.2px"/><path d="M -71.95791913709837,57.843198965428556 -43.728478793758846,57.84319896542862" style="stroke:#000000;stroke-width: 0.2px"/><path d="M -38.56213264361905,57.843198965428584 -38.56213264361912,38.562132643619044" style="stroke:#000000;stroke-width: 0.2px"/><path d="M 71.95791913709836,-57.84319896542858 43.728478793758846,-57.843198965428634" style="stroke:#000000;stroke-width: 0.2px"/><path d="M 38.56213264361908,-57.843198965428634 38.562132643619066,-38.56213264361908" style="stroke:#000000;stroke-width: 0.2px"/><circle cx="0.0" cy="0.0" r="9.448818897637796" style="stroke:#0000FF;stroke-width: 0.2px;fill:none"/></svg>

