<svg xmlns="http://www.w3.org/2000/svg" width="566" height="566" viewBox="0 0 566 566">
<style type="text/css">
polygon.tile { stroke: #000000; stroke-width:3; stroke-linejoin:round }
polygon.ih1 { fill: #ffff80 }
polygon.ih2 { fill: #8080ff }
polygon.ih3 { fill: #ff8080 }
polygon.ih4 { fill: #80ff80 }
polygon.ih5 { fill: #ff80ff }
polygon.ih6 { fill: #80ffff }
polygon.para {opacity: 0.75; fill: #ff0000; stroke: #ff0000 }
</style>
<polygon class="para" points="-25.3180339304998,21.92606055768919 25.318033930499777,21.9260605576892 25.318033930499787,-21.92606055768919 -25.318033930499798,-21.9260605576892 -25.3180339304998,21.92606055768919" style="stroke: none"/>
<path d="M -9.971340729186926e-15,0.0 25.318033930499787,0.0" style="stroke:#000000;stroke-width: 0.2px"/><path d="M 25.318033930499787,0.0 25.318033930499787,-14.617373705126132" style="stroke:#000000;stroke-width: 0.2px"/><path d="M 25.318033930499787,-14.617373705126132 12.659016965249888,-21.926060557689198" style="stroke:#000000;stroke-width: 0.2px"/><path d="M 12.659016965249888,-21.926060557689198 -9.971340729186926e-15,0.0" style="stroke:#000000;stroke-width: 0.2px"/><path d="M -12.659016965249915,21.92606055768919 -25.31803393049981,29.234747410252254" style="stroke:#000000;stroke-width: 0.2px"/><path d="M -12.659016965249915,21.92606055768919 -25.3180339304998,-9.971340729186926e-15" style="stroke:#000000;stroke-width: 0.2px"/><path d="M -12.659016965249915,21.92606055768919 -1.9942681458373853e-14,14.617373705126118" style="stroke:#000000;stroke-width: 0.2px"/><path d="M -1.9942681458373853e-14,14.617373705126118 -9.971340729186926e-15,0.0" style="stroke:#000000;stroke-width: 0.2px"/><path d="M -9.971340729186926e-15,0.0 -25.3180339304998,-9.971340729186926e-15" style="stroke:#000000;stroke-width: 0.2px"/><path d="M 12.65901696524988,21.92606055768919 -1.9942681458373853e-14,14.617373705126118" style="stroke:#000000;stroke-width: 0.2px"/><path d="M 12.65901696524988,21.92606055768919 25.318033930499787,0.0" style="stroke:#000000;stroke-width: 0.2px"/><path d="M 25.31803393049977,29.234747410252265 12.65901696524988,21.92606055768919" style="stroke:#000000;stroke-width: 0.2px"/><path d="M -25.3180339304998,-9.971340729186926e-15 -25.3180339304998,-14.617373705126138" style="stroke:#000000;stroke-width: 0.2px"/><path d="M -9.971340729186926e-15,0.0 -12.65901696524991,-21.9260605576892" style="stroke:#000000;stroke-width: 0.2px"/><path d="M -12.65901696524991,-21.9260605576892 -25.3180339304998,-14.617373705126138" style="stroke:#000000;stroke-width: 0.2px"/><circle cx="-9.971340729186926e-15" cy="0.0" r="9.448818897637796" style="stroke:#0000FF;stroke-width: 0.2px;fill:none"/></svg>

