<svg xmlns="http://www.w3.org/2000/svg" width="566" height="566" viewBox="0 0 566 566">
<style type="text/css">
polygon.tile { stroke: #000000; stroke-width:3; stroke-linejoin:round }
polygon.ih1 { fill: #ffff80 }
polygon.ih2 { fill: #8080ff }
polygon.ih3 { fill: #ff8080 }
polygon.ih4 { fill: #80ff80 }
polygon.ih5 { fill: #ff80ff }
polygon.ih6 { fill: #80ffff }
polygon.para {opacity: 0.75; fill: #ff0000; stroke: #ff0000 }
</style>
<polygon class="para" points="30.058496954650423,34.11525878571678 -12.824518489763383,43.6221944277781 -30.058496954650455,-34.11525878571679 12.82451848976336,-43.62219442777808 30.058496954650423,34.11525878571678" style="stroke: none"/>
<path d="M -1.467568053912369e-14,0.0 11.24766308358716,0.0" style="stroke:#000000;stroke-width: 0.2px"/><path d="M 11.24766308358716,0.0 21.441507722206893,-4.753467821030645" style="stroke:#000000;stroke-width: 0.2px"/><path d="M 31.63535236082661,-9.506935642061297 11.24766308358716,-19.0138712841226" style="stroke:#000000;stroke-width: 0.2px"/><path d="M 11.24766308358716,-19.0138712841226 -1.467568053912369e-14,-24.258742716346568" style="stroke:#000000;stroke-width: 0.2px"/><path d="M -1.467568053912369e-14,-24.258742716346568 -1.467568053912369e-14,0.0" style="stroke:#000000;stroke-width: 0.2px"/><path d="M -1.467568053912369e-14,0.0 -11.247663083587195,0.0" style="stroke:#000000;stroke-width: 0.2px"/><path d="M -11.247663083587195,0.0 -31.63535236082664,-9.506935642061304" style="stroke:#000000;stroke-width: 0.2px"/><path d="M -31.63535236082664,-9.506935642061304 -1.467568053912369e-14,-24.258742716346568" style="stroke:#000000;stroke-width: 0.2px"/><path d="M -31.63535236082664,-33.765678358407875 -20.387689277239453,-33.76567835840787" style="stroke:#000000;stroke-width: 0.2px"/><path d="M -20.387689277239453,-33.76567835840787 -1.467568053912369e-14,-24.258742716346568" style="stroke:#000000;stroke-width: 0.2px"/><path d="M -21.44150772220692,4.753467821030645 -11.247663083587195,0.0" style="stroke:#000000;stroke-width: 0.2px"/><path d="M 11.24766308358716,0.0 -3.2120538525298987,17.23241960651287" style="stroke:#000000;stroke-width: 0.2px"/><path d="M -3.2120538525298987,17.23241960651287 -11.189320043409678,26.73935524857416" style="stroke:#000000;stroke-width: 0.2px"/><path d="M -11.189320043409678,26.73935524857416 -21.44150772220692,4.753467821030645" style="stroke:#000000;stroke-width: 0.2px"/><path d="M -46.095069296943706,26.73935524857416 -11.189320043409678,26.73935524857416" style="stroke:#000000;stroke-width: 0.2px"/><path d="M -25.649036979526752,43.97177485508702 -11.189320043409678,26.73935524857416" style="stroke:#000000;stroke-width: 0.2px"/><path d="M 28.48164154847425,34.46483921302571 39.72930463206143,34.46483921302571" style="stroke:#000000;stroke-width: 0.2px"/><path d="M 28.48164154847425,34.46483921302571 17.233978464887063,34.46483921302571" style="stroke:#000000;stroke-width: 0.2px"/><path d="M 17.233978464887063,34.46483921302571 7.040133826267344,39.21830703405637" style="stroke:#000000;stroke-width: 0.2px"/><path d="M 7.040133826267344,39.21830703405637 -3.153710812352374,43.97177485508702" style="stroke:#000000;stroke-width: 0.2px"/><path d="M -10.193844638619733,-38.5191461794385 -1.467568053912369e-14,-43.272614000469154" style="stroke:#000000;stroke-width: 0.2px"/><path d="M -10.193844638619733,-38.5191461794385 -20.387689277239453,-33.76567835840787" style="stroke:#000000;stroke-width: 0.2px"/><path d="M 11.24766308358716,-19.0138712841226 42.8830154444138,-33.765678358407875" style="stroke:#000000;stroke-width: 0.2px"/><path d="M 11.247663083587174,-43.27261400046916 22.495326167174362,-43.27261400046916" style="stroke:#000000;stroke-width: 0.2px"/><path d="M 11.24766308358716,-19.0138712841226 11.247663083587174,-43.27261400046916" style="stroke:#000000;stroke-width: 0.2px"/><path d="M 11.247663083587174,-43.27261400046916 -1.467568053912369e-14,-43.272614000469154" style="stroke:#000000;stroke-width: 0.2px"/><path d="M 31.693695401004135,17.23241960651287 21.441507722206893,-4.753467821030645" style="stroke:#000000;stroke-width: 0.2px"/><path d="M -3.2120538525298987,17.23241960651287 31.693695401004135,17.23241960651287" style="stroke:#000000;stroke-width: 0.2px"/><path d="M 17.233978464887063,34.46483921302571 31.693695401004135,17.23241960651287" style="stroke:#000000;stroke-width: 0.2px"/><path d="M -3.2120538525298987,17.23241960651287 7.040133826267344,39.21830703405637" style="stroke:#000000;stroke-width: 0.2px"/><circle cx="-1.467568053912369e-14" cy="0.0" r="9.448818897637796" style="stroke:#0000FF;stroke-width: 0.2px;fill:none"/></svg>

