<svg xmlns="http://www.w3.org/2000/svg" width="566" height="566" viewBox="0 0 566 566">
<style type="text/css">
polygon.tile { stroke: #000000; stroke-width:3; stroke-linejoin:round }
polygon.ih1 { fill: #ffff80 }
polygon.ih2 { fill: #8080ff }
polygon.ih3 { fill: #ff8080 }
polygon.ih4 { fill: #80ff80 }
polygon.ih5 { fill: #ff80ff }
polygon.ih6 { fill: #80ffff }
polygon.para {opacity: 0.75; fill: #ff0000; stroke: #ff0000 }
</style>
<polygon class="para" points="-18.75887026215152,24.63184116255596 18.75887026215154,24.63184116255596 18.75887026215152,-24.63184116255596 -18.75887026215154,-24.63184116255596 -18.75887026215152,24.63184116255596" style="stroke: none"/>
<path d="M 0.0,0.0 26.26241836701215,-9.85074315496464e-15" style="stroke:#000000;stroke-width: 0.2px"/><path d="M 39.03788088782245,-8.62114440689459 2.823117817964593,-16.010696755661385" style="stroke:#000000;stroke-width: 0.2px"/><path d="M 2.823117817964593,-16.010696755661385 1.5201403635193922,-8.62114440689459" style="stroke:#000000;stroke-width: 0.2px"/><path d="M 1.5201403635193922,-8.62114440689459 0.0,0.0" style="stroke:#000000;stroke-width: 0.2px"/><path d="M 30.605676548496124,-24.631841162555972 13.722693312559755,-24.63184116255596" style="stroke:#000000;stroke-width: 0.2px"/><path d="M 13.722693312559755,-24.63184116255596 4.343258181483975,-24.631841162555958" style="stroke:#000000;stroke-width: 0.2px"/><path d="M 4.343258181483975,-24.631841162555958 2.823117817964593,-16.010696755661385" style="stroke:#000000;stroke-width: 0.2px"/><path d="M 4.343258181483975,-24.631841162555958 -6.912063975806937,-24.631841162555947" style="stroke:#000000;stroke-width: 0.2px"/><path d="M 4.343258181483995,24.63184116255595 -6.912063975806918,24.63184116255595" style="stroke:#000000;stroke-width: 0.2px"/><path d="M -6.912063975806918,24.63184116255595 -29.42270829038875,24.631841162555972" style="stroke:#000000;stroke-width: 0.2px"/><path d="M -45.94994486362938,16.010696755661396 -9.735181793771515,8.621144406894576" style="stroke:#000000;stroke-width: 0.2px"/><path d="M -9.735181793771515,8.621144406894576 -8.43220433932632,16.010696755661396" style="stroke:#000000;stroke-width: 0.2px"/><path d="M -8.43220433932632,16.010696755661396 -6.912063975806918,24.63184116255595" style="stroke:#000000;stroke-width: 0.2px"/><path d="M -30.01419241944245,0.0 -11.255322157290921,-9.85074315496464e-15" style="stroke:#000000;stroke-width: 0.2px"/><path d="M -11.255322157290921,-9.85074315496464e-15 -9.735181793771515,8.621144406894576" style="stroke:#000000;stroke-width: 0.2px"/><path d="M 30.60567654849614,24.63184116255595 4.343258181483995,24.63184116255595" style="stroke:#000000;stroke-width: 0.2px"/><path d="M -8.43220433932632,16.010696755661396 27.78255873053154,8.621144406894576" style="stroke:#000000;stroke-width: 0.2px"/><path d="M -11.255322157290921,-9.85074315496464e-15 0.0,0.0" style="stroke:#000000;stroke-width: 0.2px"/><path d="M 1.5201403635193922,-8.62114440689459 -34.69462270633847,-16.010696755661385" style="stroke:#000000;stroke-width: 0.2px"/><path d="M -6.912063975806937,-24.631841162555947 -33.17448234281908,-24.631841162555958" style="stroke:#000000;stroke-width: 0.2px"/><circle cx="0.0" cy="0.0" r="9.448818897637796" style="stroke:#0000FF;stroke-width: 0.2px;fill:none"/></svg>

