<svg xmlns="http://www.w3.org/2000/svg" width="566" height="566" viewBox="0 0 566 566">
<style type="text/css">
polygon.tile { stroke: #000000; stroke-width:3; stroke-linejoin:round }
polygon.ih1 { fill: #ffff80 }
polygon.ih2 { fill: #8080ff }
polygon.ih3 { fill: #ff8080 }
polygon.ih4 { fill: #80ff80 }
polygon.ih5 { fill: #ff80ff }
polygon.ih6 { fill: #80ffff }
polygon.para {opacity: 0.75; fill: #ff0000; stroke: #ff0000 }
</style>
<polygon class="para" points="-55.48715725029487,4.1479916508879695 -13.720218077656495,53.92389146154361 55.48715725029487,-4.1479916508879695 13.720218077656495,-53.9238914615436 -55.48715725029487,4.1479916508879695" style="stroke: none"/>
<path d="M 0.0,0.0 12.214745213755426,0.0" style="stroke:#000000;stroke-width: 0.2px"/><path d="M 12.214745213755426,0.0 25.27188664914917,0.0" style="stroke:#000000;stroke-width: 0.2px"/><path d="M 25.27188664914917,0.0 28.85576058379366,-20.325159089351054" style="stroke:#000000;stroke-width: 0.2px"/><path d="M 28.85576058379366,-20.325159089351054 6.655765878625473,-37.74672402308052" style="stroke:#000000;stroke-width: 0.2px"/><path d="M 6.655765878625473,-37.74672402308052 4.388417062829982,-24.887949905327815" style="stroke:#000000;stroke-width: 0.2px"/><path d="M 4.388417062829982,-24.887949905327815 0.0,0.0" style="stroke:#000000;stroke-width: 0.2px"/><path d="M 8.776834125659963,-49.77589981065563 6.655765878625473,-37.74672402308052" style="stroke:#000000;stroke-width: 0.2px"/><path d="M 28.85576058379366,-20.325159089351054 31.927652527774644,-37.74672402308052" style="stroke:#000000;stroke-width: 0.2px"/><path d="M 25.27188664914917,0.0 50.54377329829834,0.0" style="stroke:#000000;stroke-width: 0.2px"/><path d="M 50.54377329829834,0.0 52.00657898590834,-8.295983301775951" style="stroke:#000000;stroke-width: 0.2px"/><path d="M 25.51664880532987,24.887949905327815 12.214745213755426,0.0" style="stroke:#000000;stroke-width: 0.2px"/><path d="M -12.812379279213047,24.8879499053278 -8.423962216383059,0.0" style="stroke:#000000;stroke-width: 0.2px"/><path d="M -8.423962216383059,0.0 0.0,0.0" style="stroke:#000000;stroke-width: 0.2px"/><path d="M 25.51664880532987,24.887949905327815 7.826328150925458,24.887949905327815" style="stroke:#000000;stroke-width: 0.2px"/><path d="M 7.826328150925458,24.887949905327815 -12.812379279213047,24.8879499053278" style="stroke:#000000;stroke-width: 0.2px"/><path d="M 21.1282317424999,49.77589981065563 7.826328150925458,24.887949905327815" style="stroke:#000000;stroke-width: 0.2px"/><path d="M -17.200796342043024,49.7758998106556 -15.079728095008539,37.74672402308052" style="stroke:#000000;stroke-width: 0.2px"/><path d="M -15.079728095008539,37.74672402308052 -14.417808521365012,33.9927915790269" style="stroke:#000000;stroke-width: 0.2px"/><path d="M -14.417808521365012,33.9927915790269 -12.812379279213047,24.8879499053278" style="stroke:#000000;stroke-width: 0.2px"/><path d="M 8.071090307106141,49.77589981065563 -17.200796342043024,49.7758998106556" style="stroke:#000000;stroke-width: 0.2px"/><path d="M -33.69584886553223,0.0 -58.9677355146814,0.0" style="stroke:#000000;stroke-width: 0.2px"/><path d="M -40.35161474415771,37.74672402308052 -37.27972280017672,20.325159089351054" style="stroke:#000000;stroke-width: 0.2px"/><path d="M -37.27972280017672,20.325159089351054 -33.69584886553223,0.0" style="stroke:#000000;stroke-width: 0.2px"/><path d="M -15.079728095008539,37.74672402308052 -37.27972280017672,20.325159089351054" style="stroke:#000000;stroke-width: 0.2px"/><path d="M -8.423962216383059,0.0 -20.638707430138492,-1.3270887902265163e-14" style="stroke:#000000;stroke-width: 0.2px"/><path d="M -20.638707430138492,-1.3270887902265163e-14 -33.69584886553223,0.0" style="stroke:#000000;stroke-width: 0.2px"/><path d="M 4.388417062829982,-24.887949905327815 -16.250290367308512,-24.887949905327815" style="stroke:#000000;stroke-width: 0.2px"/><path d="M -16.250290367308512,-24.887949905327815 -29.552193958882953,-49.775899810655645" style="stroke:#000000;stroke-width: 0.2px"/><path d="M -16.250290367308512,-24.887949905327815 -33.940611021712925,-24.887949905327822" style="stroke:#000000;stroke-width: 0.2px"/><path d="M -20.638707430138492,-1.3270887902265163e-14 -33.940611021712925,-24.887949905327822" style="stroke:#000000;stroke-width: 0.2px"/><circle cx="0.0" cy="0.0" r="9.448818897637796" style="stroke:#0000FF;stroke-width: 0.2px;fill:none"/></svg>

