<svg xmlns="http://www.w3.org/2000/svg" width="566" height="566" viewBox="0 0 566 566">
<style type="text/css">
polygon.tile { stroke: #000000; stroke-width:3; stroke-linejoin:round }
polygon.ih1 { fill: #ffff80 }
polygon.ih2 { fill: #8080ff }
polygon.ih3 { fill: #ff8080 }
polygon.ih4 { fill: #80ff80 }
polygon.ih5 { fill: #ff80ff }
polygon.ih6 { fill: #80ffff }
polygon.para {opacity: 0.75; fill: #ff0000; stroke: #ff0000 }
</style>
<polygon class="para" points="-24.066886371379066,15.811578266461053 -22.407101104387404,-12.936745854377223 24.066886371379052,-15.811578266461057 22.407101104387387,12.936745854377223 -24.066886371379066,15.811578266461053" style="stroke: none"/>
<path d="M -8.715939781575089e-15,0.0 14.938067402924924,0.0" style="stroke:#000000;stroke-width: 0.2px"/><path d="M 14.938067402924924,0.0 24.066886371379052,-15.811578266461053" style="stroke:#000000;stroke-width: 0.2px"/><path d="M 24.066886371379052,-15.811578266461053 -7.469033701462466,-12.936745854377227" style="stroke:#000000;stroke-width: 0.2px"/><path d="M -7.469033701462471,-12.936745854377227 -8.715939781575089e-15,0.0" style="stroke:#000000;stroke-width: 0.2px"/><path d="M -8.715939781575089e-15,0.0 -9.12881896845413,15.811578266461053" style="stroke:#000000;stroke-width: 0.2px"/><path d="M -9.12881896845413,15.811578266461053 22.407101104387387,12.936745854377223" style="stroke:#000000;stroke-width: 0.2px"/><path d="M 22.407101104387387,12.936745854377223 14.938067402924924,0.0" style="stroke:#000000;stroke-width: 0.2px"/><path d="M 22.407101104387387,12.936745854377214 14.938067402924924,0.0" style="stroke:#000000;stroke-width: 0.2px"/><path d="M 24.066886371379052,-15.811578266461053 37.34516850731232,12.936745854377214" style="stroke:#000000;stroke-width: 0.2px"/><path d="M -7.469033701462466,-12.936745854377227 -8.715939781575089e-15,0.0" style="stroke:#000000;stroke-width: 0.2px"/><path d="M -8.715939781575089e-15,0.0 -9.128818968454134,15.811578266461044" style="stroke:#000000;stroke-width: 0.2px"/><path d="M -9.128818968454137,15.811578266461053 -18.25763793690826,-3.9528945666152633" style="stroke:#000000;stroke-width: 0.2px"/><path d="M -18.25763793690826,-3.9528945666152633 -22.407101104387404,-12.936745854377227" style="stroke:#000000;stroke-width: 0.2px"/><path d="M -22.407101104387404,-12.936745854377227 -7.469033701462471,-12.936745854377232" style="stroke:#000000;stroke-width: 0.2px"/><path d="M -31.535920072841524,2.874832412083838 -22.407101104387404,-12.936745854377218" style="stroke:#000000;stroke-width: 0.2px"/><path d="M -22.407101104387404,-12.936745854377218 -18.25763793690826,-3.9528945666152633" style="stroke:#000000;stroke-width: 0.2px"/><path d="M -18.25763793690826,-3.9528945666152633 -9.128818968454134,15.811578266461044" style="stroke:#000000;stroke-width: 0.2px"/><path d="M -9.128818968454134,15.811578266461053 -24.06688637137906,15.811578266461062" style="stroke:#000000;stroke-width: 0.2px"/><path d="M -15.53084785542196,-30.391085499171894 -7.469033701462475,-12.936745854377236" style="stroke:#000000;stroke-width: 0.2px"/><path d="M -7.469033701462471,-12.936745854377227 -22.4071011043874,-12.936745854377223" style="stroke:#000000;stroke-width: 0.2px"/><path d="M 1.6597852669916495,-28.74832412083828 -7.469033701462471,-12.936745854377227" style="stroke:#000000;stroke-width: 0.2px"/><path d="M -7.469033701462466,-12.936745854377227 24.066886371379045,-15.811578266461053" style="stroke:#000000;stroke-width: 0.2px"/><path d="M 1.6597852669916495,-28.74832412083828 -7.469033701462475,-12.936745854377236" style="stroke:#000000;stroke-width: 0.2px"/><path d="M -7.46903370146248,-12.936745854377232 -15.53084785542196,-30.391085499171894" style="stroke:#000000;stroke-width: 0.2px"/><path d="M -24.066886371379063,15.811578266461053 -9.128818968454137,15.811578266461053" style="stroke:#000000;stroke-width: 0.2px"/><circle cx="-8.715939781575089e-15" cy="0.0" r="9.448818897637796" style="stroke:#0000FF;stroke-width: 0.2px;fill:none"/></svg>

