<svg xmlns="http://www.w3.org/2000/svg" width="566" height="566" viewBox="0 0 566 566">
<style type="text/css">
polygon.tile { stroke: #000000; stroke-width:3; stroke-linejoin:round }
polygon.ih1 { fill: #ffff80 }
polygon.ih2 { fill: #8080ff }
polygon.ih3 { fill: #ff8080 }
polygon.ih4 { fill: #80ff80 }
polygon.ih5 { fill: #ff80ff }
polygon.ih6 { fill: #80ffff }
polygon.para {opacity: 0.75; fill: #ff0000; stroke: #ff0000 }
</style>
<polygon class="para" points="-13.70956664236903,15.08542028041111 -24.591298421178433,-2.1514598332360775 13.709566642369015,-15.085420280411125 24.591298421178422,2.151459833236063 -13.70956664236903,15.08542028041111" style="stroke: none"/>
<path d="M -7.229076469138204e-15,-7.229076469138204e-15 12.38976338330897,-7.229076469138204e-15" style="stroke:#000000;stroke-width: 0.2px"/><path d="M 12.38976338330897,-7.229076469138204e-15 13.709566642369015,-15.085420280411132" style="stroke:#000000;stroke-width: 0.2px"/><path d="M 13.709566642369015,-15.085420280411132 -12.201535037869451,-2.1514598332360704" style="stroke:#000000;stroke-width: 0.2px"/><path d="M -12.201535037869451,-2.1514598332360704 -7.229076469138204e-15,-7.229076469138204e-15" style="stroke:#000000;stroke-width: 0.2px"/><path d="M -7.229076469138204e-15,-7.229076469138204e-15 -1.319803259060052,15.085420280411117" style="stroke:#000000;stroke-width: 0.2px"/><path d="M -1.319803259060052,15.085420280411117 24.591298421178415,2.1514598332360557" style="stroke:#000000;stroke-width: 0.2px"/><path d="M 24.591298421178415,2.1514598332360557 12.38976338330897,-7.229076469138204e-15" style="stroke:#000000;stroke-width: 0.2px"/><path d="M 13.709566642369015,-15.085420280411132 36.9810618044874,2.1514598332360704" style="stroke:#000000;stroke-width: 0.2px"/><path d="M -1.319803259060052,15.085420280411117 -24.591298421178433,-2.1514598332360846" style="stroke:#000000;stroke-width: 0.2px"/><path d="M -24.591298421178433,-2.1514598332360846 -12.201535037869451,-2.1514598332360704" style="stroke:#000000;stroke-width: 0.2px"/><path d="M -1.319803259060052,15.085420280411117 -13.709566642369037,15.085420280411103" style="stroke:#000000;stroke-width: 0.2px"/><path d="M -35.473030199987846,-19.388339946883267 -12.201535037869451,-2.1514598332360704" style="stroke:#000000;stroke-width: 0.2px"/><path d="M -10.881731778809407,-17.236880113647196 -12.201535037869451,-2.1514598332360704" style="stroke:#000000;stroke-width: 0.2px"/><path d="M 13.709566642369015,-15.085420280411132 1.5080316044995705,-17.236880113647196" style="stroke:#000000;stroke-width: 0.2px"/><circle cx="-7.229076469138204e-15" cy="-7.229076469138204e-15" r="9.448818897637796" style="stroke:#0000FF;stroke-width: 0.2px;fill:none"/></svg>

