<svg xmlns="http://www.w3.org/2000/svg" width="566" height="566" viewBox="0 0 566 566">
<style type="text/css">
polygon.tile { stroke: #000000; stroke-width:3; stroke-linejoin:round }
polygon.ih1 { fill: #ffff80 }
polygon.ih2 { fill: #8080ff }
polygon.ih3 { fill: #ff8080 }
polygon.ih4 { fill: #80ff80 }
polygon.ih5 { fill: #ff80ff }
polygon.ih6 { fill: #80ffff }
polygon.para {opacity: 0.75; fill: #ff0000; stroke: #ff0000 }
</style>
<polygon class="para" points="-35.90738019297625,25.554423785595194 25.001772513339706,36.29435077981068 35.90738019297624,-25.554423785595187 -25.001772513339706,-36.294350779810685 -35.90738019297625,25.554423785595194" style="stroke: none"/>
<path d="M 0.0,0.0 9.420433740935298,0.0" style="stroke:#000000;stroke-width: 0.2px"/><path d="M 9.420433740935298,0.0 31.401445803117685,0.0" style="stroke:#000000;stroke-width: 0.2px"/><path d="M 31.401445803117685,0.0 33.03728695506316,-9.277316184810882" style="stroke:#000000;stroke-width: 0.2px"/><path d="M 33.03728695506316,-9.277316184810882 3.8169626878727816,-21.647071097892066" style="stroke:#000000;stroke-width: 0.2px"/><path d="M 3.8169626878727816,-21.647071097892066 0.0,0.0" style="stroke:#000000;stroke-width: 0.2px"/><path d="M -5.4528038398182685,30.92438728270295 -1.6358411519454743,9.277316184810894" style="stroke:#000000;stroke-width: 0.2px"/><path d="M -1.6358411519454743,9.277316184810894 0.0,0.0" style="stroke:#000000;stroke-width: 0.2px"/><path d="M 9.420433740935298,0.0 16.528208222364107,30.92438728270295" style="stroke:#000000;stroke-width: 0.2px"/><path d="M 16.528208222364107,30.92438728270295 -5.4528038398182685,30.92438728270295" style="stroke:#000000;stroke-width: 0.2px"/><path d="M 31.401445803117685,0.0 27.58448311524488,21.647071097892056" style="stroke:#000000;stroke-width: 0.2px"/><path d="M 27.58448311524488,21.647071097892056 25.948641963299405,30.92438728270295" style="stroke:#000000;stroke-width: 0.2px"/><path d="M 25.948641963299405,30.92438728270295 16.528208222364107,30.92438728270295" style="stroke:#000000;stroke-width: 0.2px"/><path d="M 22.13167927542661,52.571458380595004 25.948641963299405,30.92438728270295" style="stroke:#000000;stroke-width: 0.2px"/><path d="M -5.4528038398182685,30.92438728270295 -14.305115910777761,27.70240918443829" style="stroke:#000000;stroke-width: 0.2px"/><path d="M -14.305115910777761,27.70240918443829 -34.96051074301658,20.184460288487426" style="stroke:#000000;stroke-width: 0.2px"/><path d="M -34.96051074301658,20.184460288487426 -33.32466959107109,10.907144103676542" style="stroke:#000000;stroke-width: 0.2px"/><path d="M -33.32466959107109,10.907144103676542 -1.6358411519454743,9.277316184810894" style="stroke:#000000;stroke-width: 0.2px"/><path d="M -14.305115910777761,27.70240918443829 -31.561002511875344,54.33082566945503" style="stroke:#000000;stroke-width: 0.2px"/><path d="M -34.96051074301658,20.184460288487426 -38.777473430889344,41.83153138637949" style="stroke:#000000;stroke-width: 0.2px"/><path d="M 36.854249642935926,-30.924387282702956 33.03728695506316,-9.277316184810882" style="stroke:#000000;stroke-width: 0.2px"/><path d="M 27.433815902000656,-30.92438728270293 5.452803839818281,-30.92438728270293" style="stroke:#000000;stroke-width: 0.2px"/><path d="M 5.452803839818281,-30.92438728270293 3.8169626878727816,-21.647071097892066" style="stroke:#000000;stroke-width: 0.2px"/><path d="M 5.452803839818281,-30.92438728270293 -3.3995082311412186,-34.14636538096758" style="stroke:#000000;stroke-width: 0.2px"/><path d="M -3.3995082311412186,-34.14636538096758 -20.6553948322388,-7.517948895950844" style="stroke:#000000;stroke-width: 0.2px"/><path d="M -20.6553948322388,-7.517948895950844 0.0,0.0" style="stroke:#000000;stroke-width: 0.2px"/><path d="M -24.054903063380028,-41.664314276918454 -27.871865751252802,-20.01724317902637" style="stroke:#000000;stroke-width: 0.2px"/><path d="M -27.871865751252802,-20.01724317902637 -29.507706903198276,-10.7399269942155" style="stroke:#000000;stroke-width: 0.2px"/><path d="M -29.507706903198276,-10.7399269942155 -20.6553948322388,-7.517948895950844" style="stroke:#000000;stroke-width: 0.2px"/><path d="M -33.32466959107109,10.907144103676542 -29.507706903198276,-10.7399269942155" style="stroke:#000000;stroke-width: 0.2px"/><circle cx="0.0" cy="0.0" r="9.448818897637796" style="stroke:#0000FF;stroke-width: 0.2px;fill:none"/></svg>

