<svg xmlns="http://www.w3.org/2000/svg" width="566" height="566" viewBox="0 0 566 566">
<style type="text/css">
polygon.tile { stroke: #000000; stroke-width:3; stroke-linejoin:round }
polygon.ih1 { fill: #ffff80 }
polygon.ih2 { fill: #8080ff }
polygon.ih3 { fill: #ff8080 }
polygon.ih4 { fill: #80ff80 }
polygon.ih5 { fill: #ff80ff }
polygon.ih6 { fill: #80ffff }
polygon.para {opacity: 0.75; fill: #ff0000; stroke: #ff0000 }
</style>
<polygon class="para" points="-28.228448805328043,32.9331902728827 28.228448805328018,32.9331902728827 28.228448805328043,-32.9331902728827 -28.22844880532803,-32.9331902728827 -28.228448805328043,32.9331902728827" style="stroke: none"/>
<path d="M 0.0,0.0 28.22844880532803,0.0" style="stroke:#000000;stroke-width: 0.2px"/><path d="M 28.22844880532803,0.0 28.22844880532803,-9.409482935109345" style="stroke:#000000;stroke-width: 0.2px"/><path d="M 28.22844880532803,-9.409482935109345 18.81896587021869,-18.81896587021869" style="stroke:#000000;stroke-width: 0.2px"/><path d="M 18.81896587021869,-18.81896587021869 0.0,0.0" style="stroke:#000000;stroke-width: 0.2px"/><path d="M 0.0,0.0 0.0,-28.22844880532803" style="stroke:#000000;stroke-width: 0.2px"/><path d="M 0.0,-28.22844880532803 9.409482935109352,-28.228448805328025" style="stroke:#000000;stroke-width: 0.2px"/><path d="M 9.409482935109352,-28.228448805328025 18.81896587021869,-18.81896587021869" style="stroke:#000000;stroke-width: 0.2px"/><path d="M 28.22844880532803,-9.409482935109345 28.228448805328043,-37.63793174043737" style="stroke:#000000;stroke-width: 0.2px"/><path d="M 18.81896587021869,-37.63793174043737 9.409482935109352,-28.228448805328025" style="stroke:#000000;stroke-width: 0.2px"/><path d="M 0.0,-56.45689761065606 0.0,-28.22844880532803" style="stroke:#000000;stroke-width: 0.2px"/><path d="M -28.22844880532805,56.45689761065606 -28.228448805328043,28.22844880532803" style="stroke:#000000;stroke-width: 0.2px"/><path d="M -28.228448805328036,0.0 -28.228448805328043,28.22844880532803" style="stroke:#000000;stroke-width: 0.2px"/><path d="M -28.228448805328043,28.22844880532803 -18.818965870218705,28.228448805328018" style="stroke:#000000;stroke-width: 0.2px"/><path d="M -18.818965870218705,28.228448805328018 -9.409482935109358,37.63793174043736" style="stroke:#000000;stroke-width: 0.2px"/><path d="M -1.2352876042034357e-14,9.40948293510934 -1.2352876042034357e-14,37.63793174043736" style="stroke:#000000;stroke-width: 0.2px"/><path d="M -18.818965870218705,28.228448805328018 -9.409482935109358,18.81896587021869" style="stroke:#000000;stroke-width: 0.2px"/><path d="M -9.409482935109358,18.81896587021869 -1.2352876042034357e-14,9.40948293510934" style="stroke:#000000;stroke-width: 0.2px"/><path d="M -9.409482935109358,18.81896587021869 -28.228448805328036,0.0" style="stroke:#000000;stroke-width: 0.2px"/><path d="M -28.228448805328036,0.0 0.0,0.0" style="stroke:#000000;stroke-width: 0.2px"/><path d="M 0.0,0.0 -1.2352876042034357e-14,9.40948293510934" style="stroke:#000000;stroke-width: 0.2px"/><path d="M 28.228448805328018,56.45689761065606 28.228448805328018,28.22844880532803" style="stroke:#000000;stroke-width: 0.2px"/><path d="M 28.228448805328018,28.22844880532803 18.81896587021868,28.22844880532803" style="stroke:#000000;stroke-width: 0.2px"/><path d="M 18.81896587021868,28.22844880532803 9.40948293510934,37.63793174043738" style="stroke:#000000;stroke-width: 0.2px"/><path d="M 18.81896587021868,28.22844880532803 9.40948293510934,18.81896587021869" style="stroke:#000000;stroke-width: 0.2px"/><path d="M 9.40948293510934,18.81896587021869 -1.2352876042034357e-14,9.40948293510934" style="stroke:#000000;stroke-width: 0.2px"/><path d="M 28.22844880532803,0.0 28.228448805328018,28.22844880532803" style="stroke:#000000;stroke-width: 0.2px"/><path d="M 9.40948293510934,18.81896587021869 28.22844880532803,0.0" style="stroke:#000000;stroke-width: 0.2px"/><path d="M -28.228448805328036,0.0 -28.22844880532803,-9.409482935109345" style="stroke:#000000;stroke-width: 0.2px"/><path d="M -28.22844880532803,-9.409482935109345 -28.22844880532803,-37.63793174043737" style="stroke:#000000;stroke-width: 0.2px"/><path d="M -28.22844880532803,-9.409482935109345 -18.81896587021869,-18.81896587021869" style="stroke:#000000;stroke-width: 0.2px"/><path d="M -18.81896587021869,-18.81896587021869 0.0,0.0" style="stroke:#000000;stroke-width: 0.2px"/><path d="M 0.0,-28.22844880532803 -9.40948293510934,-28.22844880532803" style="stroke:#000000;stroke-width: 0.2px"/><path d="M -9.40948293510934,-28.22844880532803 -18.81896587021869,-18.81896587021869" style="stroke:#000000;stroke-width: 0.2px"/><path d="M -18.81896587021869,-37.637931740437374 -9.40948293510934,-28.22844880532803" style="stroke:#000000;stroke-width: 0.2px"/><circle cx="0.0" cy="0.0" r="9.448818897637796" style="stroke:#0000FF;stroke-width: 0.2px;fill:none"/></svg>

