<svg xmlns="http://www.w3.org/2000/svg" width="566" height="566" viewBox="0 0 566 566">
<style type="text/css">
polygon.tile { stroke: #000000; stroke-width:3; stroke-linejoin:round }
polygon.ih1 { fill: #ffff80 }
polygon.ih2 { fill: #8080ff }
polygon.ih3 { fill: #ff8080 }
polygon.ih4 { fill: #80ff80 }
polygon.ih5 { fill: #ff80ff }
polygon.ih6 { fill: #80ffff }
polygon.para {opacity: 0.75; fill: #ff0000; stroke: #ff0000 }
</style>
<polygon class="para" points="-109.65416548012095,-48.412659144132476 96.75367542363615,70.75696336450123 109.65416548012097,48.41265914413243 -96.75367542363614,-70.75696336450126 -109.65416548012095,-48.412659144132476" style="stroke: none"/>
<path d="M 0.0,-2.54038647471231e-14 17.200653408646424,-2.54038647471231e-14" style="stroke:#000000;stroke-width: 0.2px"/><path d="M 17.200653408646424,-2.54038647471231e-14 43.00163352161608,-2.54038647471231e-14" style="stroke:#000000;stroke-width: 0.2px"/><path d="M 0.0,-14.896202813579226 0.0,-2.54038647471231e-14" style="stroke:#000000;stroke-width: 0.2px"/><path d="M 94.60359374755538,59.58481125431678 86.00326704323213,44.6886084407376" style="stroke:#000000;stroke-width: 0.2px"/><path d="M 86.00326704323213,44.6886084407376 73.97873618811359,23.8615100624926" style="stroke:#000000;stroke-width: 0.2px"/><path d="M 107.50408380404019,37.240507033947964 107.50408380404019,52.13670984752719" style="stroke:#000000;stroke-width: 0.2px"/><path d="M 107.50408380404019,52.13670984752719 94.60359374755538,59.58481125431678" style="stroke:#000000;stroke-width: 0.2px"/><path d="M -30.101143465131237,-37.24050703394804 -17.200653408646424,-14.896202813579226" style="stroke:#000000;stroke-width: 0.2px"/><path d="M -17.200653408646424,-14.896202813579226 0.0,-14.896202813579226" style="stroke:#000000;stroke-width: 0.2px"/><path d="M -60.20228693026249,-14.896202813579253 -43.00163352161605,-14.89620281357924" style="stroke:#000000;stroke-width: 0.2px"/><path d="M -43.00163352161605,-14.89620281357924 -34.40130681729286,-14.89620281357924" style="stroke:#000000;stroke-width: 0.2px"/><path d="M -34.40130681729286,-14.89620281357924 -17.200653408646424,-14.896202813579226" style="stroke:#000000;stroke-width: 0.2px"/><path d="M -30.101143465131237,-37.24050703394804 -47.301796873777676,-37.24050703394804" style="stroke:#000000;stroke-width: 0.2px"/><path d="M -47.301796873777676,-37.24050703394804 -60.20228693026249,-29.792405627158452" style="stroke:#000000;stroke-width: 0.2px"/><path d="M -60.20228693026249,-29.792405627158452 -60.20228693026249,-14.896202813579253" style="stroke:#000000;stroke-width: 0.2px"/><path d="M -64.50245028242412,-52.13670984752727 -90.30343039539373,-52.13670984752727" style="stroke:#000000;stroke-width: 0.2px"/><path d="M -90.30343039539373,-52.13670984752727 -77.40294033890893,-29.792405627158466" style="stroke:#000000;stroke-width: 0.2px"/><path d="M -77.40294033890893,-29.792405627158466 -60.20228693026249,-29.792405627158452" style="stroke:#000000;stroke-width: 0.2px"/><path d="M -47.301796873777676,-37.24050703394804 -47.30179687377766,-52.13670984752724" style="stroke:#000000;stroke-width: 0.2px"/><path d="M -98.90375709971694,-67.0329126611065 -90.30343039539373,-52.13670984752727" style="stroke:#000000;stroke-width: 0.2px"/><path d="M 4.300163352161613,22.34430422036879 30.101143465131265,22.34430422036879" style="stroke:#000000;stroke-width: 0.2px"/><path d="M 30.101143465131265,22.34430422036879 17.200653408646424,-2.54038647471231e-14" style="stroke:#000000;stroke-width: 0.2px"/><path d="M 0.0,-2.54038647471231e-14 -12.900490056484813,7.448101406789588" style="stroke:#000000;stroke-width: 0.2px"/><path d="M 38.70147016945447,37.24050703394799 30.101143465131265,22.34430422036879" style="stroke:#000000;stroke-width: 0.2px"/><path d="M 51.60196022593928,14.896202813579176 51.60196022593928,29.792405627158377" style="stroke:#000000;stroke-width: 0.2px"/><path d="M 51.60196022593928,29.792405627158377 38.70147016945447,37.24050703394799" style="stroke:#000000;stroke-width: 0.2px"/><path d="M 86.00326704323213,44.6886084407376 60.2022869302625,44.6886084407376" style="stroke:#000000;stroke-width: 0.2px"/><path d="M 60.2022869302625,44.6886084407376 51.60196022593928,29.792405627158377" style="stroke:#000000;stroke-width: 0.2px"/><path d="M 73.10277698674734,67.0329126611064 60.2022869302625,44.6886084407376" style="stroke:#000000;stroke-width: 0.2px"/><path d="M 94.60359374755538,59.58481125431678 94.60359374755535,74.48101406789601" style="stroke:#000000;stroke-width: 0.2px"/><path d="M -43.00163352161605,-14.89620281357924 -30.10114346513125,7.448101406789562" style="stroke:#000000;stroke-width: 0.2px"/><circle cx="0.0" cy="-2.54038647471231e-14" r="9.448818897637796" style="stroke:#0000FF;stroke-width: 0.2px;fill:none"/></svg>

