<svg xmlns="http://www.w3.org/2000/svg" width="566" height="566" viewBox="0 0 566 566">
<style type="text/css">
polygon.tile { stroke: #000000; stroke-width:3; stroke-linejoin:round }
polygon.ih1 { fill: #ffff80 }
polygon.ih2 { fill: #8080ff }
polygon.ih3 { fill: #ff8080 }
polygon.ih4 { fill: #80ff80 }
polygon.ih5 { fill: #ff80ff }
polygon.ih6 { fill: #80ffff }
polygon.para {opacity: 0.75; fill: #ff0000; stroke: #ff0000 }
</style>
<polygon class="para" points="-111.73193087845432,15.655596284371356 111.73193087845432,15.655596284371379 111.73193087845432,-15.655596284371345 -111.73193087845432,-15.655596284371379 -111.73193087845432,15.655596284371356" style="stroke: none"/>
<path d="M 0.0,0.0 16.13000829298866,-7.52154639312425" style="stroke:#000000;stroke-width: 0.2px"/><path d="M 16.13000829298866,-7.52154639312425 27.504464794867182,-23.177142677495606" style="stroke:#000000;stroke-width: 0.2px"/><path d="M -12.23149235137131,-15.655596284371356 0.0,0.0" style="stroke:#000000;stroke-width: 0.2px"/><path d="M 43.63447308785584,15.655596284371356 27.504464794867182,8.134049891247106" style="stroke:#000000;stroke-width: 0.2px"/><path d="M 27.504464794867182,8.134049891247106 16.13000829298866,-7.52154639312425" style="stroke:#000000;stroke-width: 0.2px"/><path d="M 27.504464794867182,-23.177142677495606 43.63447308785584,-15.655596284371356" style="stroke:#000000;stroke-width: 0.2px"/><path d="M 43.63447308785584,-15.655596284371356 55.86596543922716,0.0" style="stroke:#000000;stroke-width: 0.2px"/><path d="M 55.86596543922716,0.0 43.63447308785584,15.655596284371356" style="stroke:#000000;stroke-width: 0.2px"/><path d="M 55.86596543922716,0.0 71.99597373221582,-7.52154639312425" style="stroke:#000000;stroke-width: 0.2px"/><path d="M 71.99597373221582,-7.52154639312425 83.37043023409434,-23.177142677495606" style="stroke:#000000;stroke-width: 0.2px"/><path d="M 99.500438527083,-15.655596284371356 83.37043023409434,-23.177142677495606" style="stroke:#000000;stroke-width: 0.2px"/><path d="M -12.23149235137131,-15.655596284371356 -28.36150064435998,-8.134049891247106" style="stroke:#000000;stroke-width: 0.2px"/><path d="M -28.36150064435998,-8.134049891247106 -39.73595714623849,7.52154639312425" style="stroke:#000000;stroke-width: 0.2px"/><path d="M -39.73595714623849,7.52154639312425 -28.361500644359992,23.177142677495606" style="stroke:#000000;stroke-width: 0.2px"/><path d="M -28.361500644359992,23.177142677495606 -12.231492351371323,15.655596284371356" style="stroke:#000000;stroke-width: 0.2px"/><path d="M -12.231492351371323,15.655596284371356 0.0,0.0" style="stroke:#000000;stroke-width: 0.2px"/><path d="M -39.73595714623849,-23.78964617561846 -28.36150064435998,-8.134049891247106" style="stroke:#000000;stroke-width: 0.2px"/><path d="M -39.73595714623849,7.52154639312425 -55.86596543922716,0.0" style="stroke:#000000;stroke-width: 0.2px"/><path d="M -55.86596543922716,0.0 -68.09745779059847,-15.655596284371356" style="stroke:#000000;stroke-width: 0.2px"/><path d="M -68.09745779059847,-15.655596284371356 -84.22746608358715,-8.134049891247106" style="stroke:#000000;stroke-width: 0.2px"/><path d="M -84.22746608358715,-8.134049891247106 -95.60192258546566,7.52154639312425" style="stroke:#000000;stroke-width: 0.2px"/><path d="M -95.60192258546566,7.52154639312425 -84.22746608358715,23.177142677495606" style="stroke:#000000;stroke-width: 0.2px"/><path d="M -84.22746608358715,23.177142677495606 -68.09745779059847,15.655596284371356" style="stroke:#000000;stroke-width: 0.2px"/><path d="M -68.09745779059847,15.655596284371356 -55.86596543922716,0.0" style="stroke:#000000;stroke-width: 0.2px"/><path d="M -111.73193087845432,-2.33555051950662e-14 -95.60192258546566,7.52154639312425" style="stroke:#000000;stroke-width: 0.2px"/><path d="M 16.13000829298866,23.78964617561846 27.504464794867182,8.134049891247106" style="stroke:#000000;stroke-width: 0.2px"/><path d="M 71.99597373221582,23.78964617561846 83.37043023409434,8.134049891247106" style="stroke:#000000;stroke-width: 0.2px"/><path d="M 83.37043023409434,8.134049891247106 71.99597373221582,-7.52154639312425" style="stroke:#000000;stroke-width: 0.2px"/><path d="M 99.500438527083,15.655596284371379 83.37043023409434,8.134049891247106" style="stroke:#000000;stroke-width: 0.2px"/><path d="M 99.500438527083,-15.655596284371356 111.73193087845432,0.0" style="stroke:#000000;stroke-width: 0.2px"/><path d="M 111.73193087845432,0.0 99.500438527083,15.655596284371379" style="stroke:#000000;stroke-width: 0.2px"/><path d="M -95.60192258546566,-23.789646175618486 -84.22746608358715,-8.134049891247106" style="stroke:#000000;stroke-width: 0.2px"/><circle cx="0.0" cy="0.0" r="9.448818897637796" style="stroke:#0000FF;stroke-width: 0.2px;fill:none"/></svg>

