<?xml version="1.0" encoding="UTF-8" standalone="no"?>
<svg
   width="35.037594"
   height="69.091568"
   viewBox="0 0 35.037594 69.091568"
   version="1.1"
   id="svg98"
   sodipodi:docname="N6-5b.svg"
   xmlns:inkscape="http://www.inkscape.org/namespaces/inkscape"
   xmlns:sodipodi="http://sodipodi.sourceforge.net/DTD/sodipodi-0.dtd"
   xmlns="http://www.w3.org/2000/svg"
   xmlns:svg="http://www.w3.org/2000/svg">
  <defs
     id="defs102" />
  <sodipodi:namedview
     id="namedview100"
     pagecolor="#ffffff"
     bordercolor="#666666"
     borderopacity="1.0"
     inkscape:showpageshadow="2"
     inkscape:pageopacity="0.0"
     inkscape:pagecheckerboard="0"
     inkscape:deskcolor="#d1d1d1" />
  <style
     type="text/css"
     id="style2">
polygon.tile { stroke: #000000; stroke-width:3; stroke-linejoin:round }
polygon.ih1 { fill: #ffff80 }
polygon.ih2 { fill: #8080ff }
polygon.ih3 { fill: #ff8080 }
polygon.ih4 { fill: #80ff80 }
polygon.ih5 { fill: #ff80ff }
polygon.ih6 { fill: #80ffff }
polygon.para {opacity: 0.75; fill: #ff0000; stroke: #ff0000 }
</style>
  <polygon
     class="para"
     points="-31.335416,83.757774 -31.335416,-83.757774 31.335416,-83.757774 31.335416,83.757774 "
     style="stroke:none"
     id="polygon4"
     transform="matrix(0.4,0,0,0.4,17.584446,33.541747)" />
  <path
     d="m 17.584446,33.541747 7.49424,2.008076"
     style="stroke:#000000;stroke-width:0.08px"
     id="path6" />
  <path
     d="m 25.078686,35.549823 7.494241,-2.008076"
     style="stroke:#000000;stroke-width:0.08px"
     id="path8" />
  <path
     d="M 32.572927,33.541747 30.118612,24.382119"
     style="stroke:#000000;stroke-width:0.08px"
     id="path10" />
  <path
     d="M 30.118612,24.382119 27.533001,22.374044"
     style="stroke:#000000;stroke-width:0.08px"
     id="path12" />
  <path
     d="M 27.533001,22.374044 20.03876,24.382119"
     style="stroke:#000000;stroke-width:0.08px"
     id="path14" />
  <path
     d="m 20.03876,24.382119 -2.454314,9.159628"
     style="stroke:#000000;stroke-width:0.08px"
     id="path16" />
  <path
     d="M 35.027242,46.717526 27.533001,44.70945"
     style="stroke:#000000;stroke-width:0.08px"
     id="path18" />
  <path
     d="M 27.533001,44.70945 25.078686,35.549823"
     style="stroke:#000000;stroke-width:0.08px"
     id="path20" />
  <path
     d="M 20.03876,46.717526 27.533001,44.70945"
     style="stroke:#000000;stroke-width:0.08px"
     id="path22" />
  <path
     d="m 32.572927,55.877153 -2.585611,2.008076"
     style="stroke:#000000;stroke-width:0.08px"
     id="path24" />
  <path
     d="M 29.987316,57.885229 22.493075,55.877153"
     style="stroke:#000000;stroke-width:0.08px"
     id="path26" />
  <path
     d="M 22.493075,55.877153 20.03876,46.717526"
     style="stroke:#000000;stroke-width:0.08px"
     id="path28" />
  <path
     d="m 22.493075,55.877153 -7.494241,2.008076"
     style="stroke:#000000;stroke-width:0.08px"
     id="path30" />
  <path
     d="m 14.998834,57.885229 2.454315,9.159627"
     style="stroke:#000000;stroke-width:0.08px"
     id="path32" />
  <path
     d="m 20.03876,69.052932 7.494241,-2.008076"
     style="stroke:#000000;stroke-width:0.08px"
     id="path34" />
  <path
     d="m 27.533001,67.044856 2.454315,-9.159627"
     style="stroke:#000000;stroke-width:0.08px"
     id="path36" />
  <path
     d="M 14.998834,57.885229 7.5045938,55.877153"
     style="stroke:#000000;stroke-width:0.08px"
     id="path38" />
  <path
     d="M 7.5045938,55.877153 9.9589086,46.717526"
     style="stroke:#000000;stroke-width:0.08px"
     id="path40" />
  <path
     d="M 9.9589086,46.717526 12.54452,44.70945"
     style="stroke:#000000;stroke-width:0.08px"
     id="path42" />
  <path
     d="m 12.54452,44.70945 7.49424,2.008076"
     style="stroke:#000000;stroke-width:0.08px"
     id="path44" />
  <path
     d="m 12.54452,44.70945 2.454314,-9.159627"
     style="stroke:#000000;stroke-width:0.08px"
     id="path46" />
  <path
     d="m 14.998834,35.549823 2.585612,-2.008076"
     style="stroke:#000000;stroke-width:0.08px"
     id="path48" />
  <path
     d="M 35.027242,2.046713 27.533001,0.03863703"
     style="stroke:#000000;stroke-width:0.08px"
     id="path50" />
  <path
     d="M 27.533001,0.03863703 20.03876,2.046713"
     style="stroke:#000000;stroke-width:0.08px"
     id="path52" />
  <path
     d="m 20.03876,2.046713 2.454315,9.159627"
     style="stroke:#000000;stroke-width:0.08px"
     id="path54" />
  <path
     d="m 22.493075,11.20634 2.585611,2.008076"
     style="stroke:#000000;stroke-width:0.08px"
     id="path56" />
  <path
     d="M 25.078686,13.214416 32.572927,11.20634"
     style="stroke:#000000;stroke-width:0.08px"
     id="path58" />
  <path
     d="m 25.078686,13.214416 2.454315,9.159628"
     style="stroke:#000000;stroke-width:0.08px"
     id="path60" />
  <path
     d="M 17.453149,0.03863703 20.03876,2.046713"
     style="stroke:#000000;stroke-width:0.08px"
     id="path62" />
  <path
     d="M 35.027242,69.052932 27.533001,67.044856"
     style="stroke:#000000;stroke-width:0.08px"
     id="path64" />
  <path
     d="M 17.453149,67.044856 9.9589086,69.052932"
     style="stroke:#000000;stroke-width:0.08px"
     id="path66" />
  <path
     d="m 4.9189828,57.885229 2.585611,-2.008076"
     style="stroke:#000000;stroke-width:0.08px"
     id="path68" />
  <path
     d="M 0.01035276,35.549823 7.5045938,33.541747"
     style="stroke:#000000;stroke-width:0.08px"
     id="path70" />
  <path
     d="M 7.5045938,33.541747 5.0502788,24.382119"
     style="stroke:#000000;stroke-width:0.08px"
     id="path72" />
  <path
     d="m 7.5045938,33.541747 7.4942402,2.008076"
     style="stroke:#000000;stroke-width:0.08px"
     id="path74" />
  <path
     d="M 9.9589086,46.717526 2.4646678,44.70945"
     style="stroke:#000000;stroke-width:0.08px"
     id="path76" />
  <path
     d="M 5.0502788,24.382119 12.54452,22.374044"
     style="stroke:#000000;stroke-width:0.08px"
     id="path78" />
  <path
     d="m 12.54452,22.374044 7.49424,2.008075"
     style="stroke:#000000;stroke-width:0.08px"
     id="path80" />
  <path
     d="m 22.493075,11.20634 -7.494241,2.008076"
     style="stroke:#000000;stroke-width:0.08px"
     id="path82" />
  <path
     d="M 14.998834,13.214416 12.54452,22.374044"
     style="stroke:#000000;stroke-width:0.08px"
     id="path84" />
  <path
     d="m 7.5045938,11.20634 7.4942402,2.008076"
     style="stroke:#000000;stroke-width:0.08px"
     id="path86" />
  <path
     d="M 17.453149,0.03863703 9.9589086,2.046713"
     style="stroke:#000000;stroke-width:0.08px"
     id="path88" />
  <path
     d="M 9.9589086,2.046713 7.5045938,11.20634"
     style="stroke:#000000;stroke-width:0.08px"
     id="path90" />
  <path
     d="M 9.9589086,2.046713 2.4646678,0.03863703"
     style="stroke:#000000;stroke-width:0.08px"
     id="path92" />
  <path
     d="M 0.01035276,13.214416 7.5045938,11.20634"
     style="stroke:#000000;stroke-width:0.08px"
     id="path94" />
  <circle
     cx="17.584446"
     cy="33.541748"
     r="3.7795277"
     style="fill:none;stroke:#0000ff;stroke-width:0.08px"
     id="circle96" />
</svg>
