<svg xmlns="http://www.w3.org/2000/svg" width="566" height="566" viewBox="0 0 566 566">
<style type="text/css">
polygon.tile { stroke: #000000; stroke-width:3; stroke-linejoin:round }
polygon.ih1 { fill: #ffff80 }
polygon.ih2 { fill: #8080ff }
polygon.ih3 { fill: #ff8080 }
polygon.ih4 { fill: #80ff80 }
polygon.ih5 { fill: #ff80ff }
polygon.ih6 { fill: #80ffff }
polygon.para {opacity: 0.75; fill: #ff0000; stroke: #ff0000 }
</style>
<polygon class="para" points="-31.335416321544244,-83.7577739991594 31.33541632154432,-83.7577739991594 31.335416321544294,83.7577739991594 -31.33541632154427,83.7577739991594 -31.335416321544244,-83.7577739991594" style="stroke: none"/>
<path d="M 2.5463974464845174e-14,0.0 18.735601639637288,5.02018932905203" style="stroke:#000000;stroke-width: 0.2px"/><path d="M 18.735601639637288,5.02018932905203 37.471203279274555,0.0" style="stroke:#000000;stroke-width: 0.2px"/><path d="M 37.471203279274555,0.0 31.33541632154432,-22.899068670667766" style="stroke:#000000;stroke-width: 0.2px"/><path d="M 31.33541632154432,-22.899068670667766 24.87138859736755,-27.919257999719797" style="stroke:#000000;stroke-width: 0.2px"/><path d="M 24.87138859736755,-27.919257999719797 6.135786957730284,-22.899068670667766" style="stroke:#000000;stroke-width: 0.2px"/><path d="M 6.135786957730284,-22.899068670667766 2.5463974464845174e-14,0.0" style="stroke:#000000;stroke-width: 0.2px"/><path d="M 43.60699023700481,32.93944732877183 24.87138859736755,27.919257999719797" style="stroke:#000000;stroke-width: 0.2px"/><path d="M 24.87138859736755,27.919257999719797 18.735601639637288,5.02018932905203" style="stroke:#000000;stroke-width: 0.2px"/><path d="M 6.135786957730284,32.93944732877183 24.87138859736755,27.919257999719797" style="stroke:#000000;stroke-width: 0.2px"/><path d="M 37.471203279274555,55.83851599943959 31.00717555509778,60.858705328491624" style="stroke:#000000;stroke-width: 0.2px"/><path d="M 31.00717555509778,60.858705328491624 12.271573915460518,55.83851599943959" style="stroke:#000000;stroke-width: 0.2px"/><path d="M 12.271573915460518,55.83851599943959 6.135786957730284,32.93944732877183" style="stroke:#000000;stroke-width: 0.2px"/><path d="M 12.271573915460518,55.83851599943959 -6.464027724176747,60.85870532849165" style="stroke:#000000;stroke-width: 0.2px"/><path d="M -6.464027724176747,60.85870532849165 -0.32824076644648764,83.75777399915944" style="stroke:#000000;stroke-width: 0.2px"/><path d="M 6.135786957730284,88.77796332821141 24.87138859736755,83.7577739991594" style="stroke:#000000;stroke-width: 0.2px"/><path d="M 24.87138859736755,83.7577739991594 31.00717555509778,60.858705328491624" style="stroke:#000000;stroke-width: 0.2px"/><path d="M -6.464027724176747,60.85870532849165 -25.19962936381401,55.83851599943964" style="stroke:#000000;stroke-width: 0.2px"/><path d="M -25.19962936381401,55.83851599943964 -19.063842406083804,32.939447328771855" style="stroke:#000000;stroke-width: 0.2px"/><path d="M -19.063842406083804,32.939447328771855 -12.59981468190703,27.919257999719846" style="stroke:#000000;stroke-width: 0.2px"/><path d="M -12.59981468190703,27.919257999719846 6.135786957730284,32.93944732877183" style="stroke:#000000;stroke-width: 0.2px"/><path d="M -12.59981468190703,27.919257999719846 -6.464027724176823,5.02018932905203" style="stroke:#000000;stroke-width: 0.2px"/><path d="M -6.464027724176823,5.02018932905203 2.5463974464845174e-14,0.0" style="stroke:#000000;stroke-width: 0.2px"/><path d="M 43.60699023700484,-78.73758467010738 24.871388597367574,-83.75777399915943" style="stroke:#000000;stroke-width: 0.2px"/><path d="M 24.871388597367574,-83.75777399915943 6.135786957730284,-78.73758467010742" style="stroke:#000000;stroke-width: 0.2px"/><path d="M 6.135786957730284,-78.73758467010742 12.271573915460518,-55.83851599943964" style="stroke:#000000;stroke-width: 0.2px"/><path d="M 12.271573915460518,-55.83851599943964 18.735601639637288,-50.8183266703876" style="stroke:#000000;stroke-width: 0.2px"/><path d="M 18.735601639637288,-50.8183266703876 37.471203279274576,-55.83851599943962" style="stroke:#000000;stroke-width: 0.2px"/><path d="M 18.735601639637288,-50.8183266703876 24.87138859736755,-27.919257999719797" style="stroke:#000000;stroke-width: 0.2px"/><path d="M -0.3282407664464367,-83.75777399915935 6.135786957730284,-78.73758467010742" style="stroke:#000000;stroke-width: 0.2px"/><path d="M 43.60699023700481,88.77796332821141 24.87138859736755,83.7577739991594" style="stroke:#000000;stroke-width: 0.2px"/><path d="M -0.32824076644648764,83.75777399915944 -19.063842406083776,88.77796332821141" style="stroke:#000000;stroke-width: 0.2px"/><path d="M -31.66365708799078,60.858705328491595 -25.19962936381401,55.83851599943964" style="stroke:#000000;stroke-width: 0.2px"/><path d="M -43.93523100345127,5.02018932905203 -25.19962936381401,0.0" style="stroke:#000000;stroke-width: 0.2px"/><path d="M -25.19962936381401,0.0 -31.33541632154427,-22.899068670667766" style="stroke:#000000;stroke-width: 0.2px"/><path d="M -25.19962936381401,0.0 -6.464027724176823,5.02018932905203" style="stroke:#000000;stroke-width: 0.2px"/><path d="M -19.063842406083804,32.939447328771855 -37.79944404572102,27.919257999719797" style="stroke:#000000;stroke-width: 0.2px"/><path d="M -31.33541632154427,-22.899068670667766 -12.59981468190698,-27.919257999719797" style="stroke:#000000;stroke-width: 0.2px"/><path d="M -12.59981468190698,-27.919257999719797 6.135786957730284,-22.899068670667766" style="stroke:#000000;stroke-width: 0.2px"/><path d="M 12.271573915460518,-55.83851599943964 -6.464027724176721,-50.81832667038759" style="stroke:#000000;stroke-width: 0.2px"/><path d="M -6.464027724176721,-50.81832667038759 -12.59981468190698,-27.919257999719797" style="stroke:#000000;stroke-width: 0.2px"/><path d="M -25.199629363813997,-55.83851599943962 -6.464027724176721,-50.81832667038759" style="stroke:#000000;stroke-width: 0.2px"/><path d="M -0.3282407664464367,-83.75777399915935 -19.063842406083726,-78.73758467010738" style="stroke:#000000;stroke-width: 0.2px"/><path d="M -19.063842406083726,-78.73758467010738 -25.199629363813997,-55.83851599943962" style="stroke:#000000;stroke-width: 0.2px"/><path d="M -19.063842406083726,-78.73758467010738 -37.799444045720975,-83.7577739991594" style="stroke:#000000;stroke-width: 0.2px"/><path d="M -43.93523100345127,-50.8183266703876 -25.199629363813997,-55.83851599943962" style="stroke:#000000;stroke-width: 0.2px"/><circle cx="2.5463974464845174e-14" cy="0.0" r="9.448818897637796" style="stroke:#0000FF;stroke-width: 0.2px;fill:none"/></svg>

