<svg xmlns="http://www.w3.org/2000/svg" width="566" height="566" viewBox="0 0 566 566">
<style type="text/css">
polygon.tile { stroke: #000000; stroke-width:3; stroke-linejoin:round }
polygon.ih1 { fill: #ffff80 }
polygon.ih2 { fill: #8080ff }
polygon.ih3 { fill: #ff8080 }
polygon.ih4 { fill: #80ff80 }
polygon.ih5 { fill: #ff80ff }
polygon.ih6 { fill: #80ffff }
polygon.para {opacity: 0.75; fill: #ff0000; stroke: #ff0000 }
</style>
<polygon class="para" points="-56.321071634042454,28.160535817021266 -56.321071634042454,-28.160535817021184 56.321071634042454,-28.160535817021213 56.321071634042454,28.16053581702124 -56.321071634042454,28.160535817021266" style="stroke: none"/>
<path d="M 0.0,8.448160745106385 12.672241117659551,19.71237507191488" style="stroke:#000000;stroke-width: 0.2px"/><path d="M 12.672241117659551,19.71237507191488 28.160535817021213,-6.801693827264286" style="stroke:#000000;stroke-width: 0.2px"/><path d="M 28.160535817021213,-6.801693827264286 28.160535817021213,-23.69801531747703" style="stroke:#000000;stroke-width: 0.2px"/><path d="M 28.160535817021213,-23.69801531747703 12.672241117659551,-19.712375071914828" style="stroke:#000000;stroke-width: 0.2px"/><path d="M 12.672241117659551,-19.712375071914828 0.0,-8.44816074510633" style="stroke:#000000;stroke-width: 0.2px"/><path d="M 0.0,-8.44816074510633 0.0,8.448160745106385" style="stroke:#000000;stroke-width: 0.2px"/><path d="M 12.672241117659551,-36.60869656212757 12.672241117659551,-19.712375071914828" style="stroke:#000000;stroke-width: 0.2px"/><path d="M 28.160535817021213,-23.69801531747703 40.832776934680766,-34.96222964428553" style="stroke:#000000;stroke-width: 0.2px"/><path d="M 28.160535817021213,-23.69801531747703 40.832776934680794,-34.96222964428553" style="stroke:#000000;stroke-width: 0.2px"/><path d="M 40.832776934680794,-34.96222964428553 56.321071634042454,-8.44816074510633" style="stroke:#000000;stroke-width: 0.2px"/><path d="M 56.321071634042454,-8.44816074510633 56.321071634042454,8.448160745106385" style="stroke:#000000;stroke-width: 0.2px"/><path d="M 56.321071634042454,8.448160745106385 40.832776934680794,4.46252049954421" style="stroke:#000000;stroke-width: 0.2px"/><path d="M 40.832776934680794,4.46252049954421 28.160535817021213,-6.801693827264286" style="stroke:#000000;stroke-width: 0.2px"/><path d="M 56.321071634042454,-8.448160745106359 40.832776934680794,-34.96222964428553" style="stroke:#000000;stroke-width: 0.2px"/><path d="M 0.0,-47.87291088893607 -15.488294699361676,-21.358841989756872" style="stroke:#000000;stroke-width: 0.2px"/><path d="M -15.488294699361676,-21.358841989756872 -15.488294699361676,-4.462520499544127" style="stroke:#000000;stroke-width: 0.2px"/><path d="M -15.488294699361676,-4.462520499544127 0.0,-8.44816074510633" style="stroke:#000000;stroke-width: 0.2px"/><path d="M -28.160535817021213,23.698015317477086 -15.488294699361676,34.96222964428558" style="stroke:#000000;stroke-width: 0.2px"/><path d="M -15.488294699361662,34.96222964428558 0.0,8.448160745106385" style="stroke:#000000;stroke-width: 0.2px"/><path d="M -15.488294699361676,-4.462520499544127 -28.160535817021213,6.801693827264341" style="stroke:#000000;stroke-width: 0.2px"/><path d="M -28.160535817021213,6.801693827264341 -28.160535817021213,23.698015317477086" style="stroke:#000000;stroke-width: 0.2px"/><path d="M -28.160535817021213,6.801693827264341 -43.6488305163829,-19.712375071914828" style="stroke:#000000;stroke-width: 0.2px"/><path d="M -43.6488305163829,-19.712375071914828 -43.6488305163829,-36.60869656212754" style="stroke:#000000;stroke-width: 0.2px"/><path d="M -28.160535817021213,-32.62305631656537 -21.560410234906865,-26.75627802135261" style="stroke:#000000;stroke-width: 0.2px"/><path d="M -21.560410234906865,-26.75627802135261 -15.488294699361676,-21.358841989756872" style="stroke:#000000;stroke-width: 0.2px"/><path d="M -56.321071634042454,-8.448160745106303 -43.648830516382915,-19.712375071914813" style="stroke:#000000;stroke-width: 0.2px"/><path d="M -43.6488305163829,-19.712375071914785 -28.160535817021213,6.801693827264341" style="stroke:#000000;stroke-width: 0.2px"/><path d="M -28.160535817021213,6.801693827264341 -28.1605358170212,23.698015317477086" style="stroke:#000000;stroke-width: 0.2px"/><path d="M -28.160535817021213,23.698015317477086 -30.51143769103146,23.09305206591855" style="stroke:#000000;stroke-width: 0.2px"/><path d="M -30.51143769103146,23.09305206591855 -43.64883051638287,19.71237507191491" style="stroke:#000000;stroke-width: 0.2px"/><path d="M -43.6488305163829,19.71237507191488 -56.32107163404244,8.448160745106414" style="stroke:#000000;stroke-width: 0.2px"/><path d="M -56.32107163404244,8.448160745106414 -56.321071634042454,-8.448160745106303" style="stroke:#000000;stroke-width: 0.2px"/><path d="M -56.32107163404248,8.448160745106442 -43.6488305163829,19.71237507191491" style="stroke:#000000;stroke-width: 0.2px"/><path d="M -43.6488305163829,19.71237507191491 -43.6488305163829,36.608696562127626" style="stroke:#000000;stroke-width: 0.2px"/><path d="M -56.32107163404248,-8.448160745106303 -56.32107163404248,8.448160745106442" style="stroke:#000000;stroke-width: 0.2px"/><path d="M -43.6488305163829,-19.712375071914785 -56.321071634042454,-8.448160745106303" style="stroke:#000000;stroke-width: 0.2px"/><path d="M 56.32107163404248,8.448160745106385 56.321071634042454,-8.448160745106359" style="stroke:#000000;stroke-width: 0.2px"/><path d="M -28.160535817021227,-32.62305631656537 -21.560410234906865,-26.75627802135261" style="stroke:#000000;stroke-width: 0.2px"/><path d="M -15.488294699361662,-21.358841989756872 0.0,-47.87291088893607" style="stroke:#000000;stroke-width: 0.2px"/><path d="M 12.672241117659551,19.71237507191488 12.672241117659551,36.608696562127626" style="stroke:#000000;stroke-width: 0.2px"/><path d="M 28.16053581702124,32.623056316565425 40.832776934680794,21.358841989756925" style="stroke:#000000;stroke-width: 0.2px"/><path d="M 40.832776934680794,21.358841989756925 40.832776934680794,4.46252049954421" style="stroke:#000000;stroke-width: 0.2px"/><path d="M 40.832776934680794,21.358841989756925 56.321071634042454,47.8729108889361" style="stroke:#000000;stroke-width: 0.2px"/><path d="M 0.0,8.448160745106385 -15.488294699361676,34.96222964428558" style="stroke:#000000;stroke-width: 0.2px"/><path d="M -43.6488305163829,19.71237507191488 -30.51143769103146,23.09305206591855" style="stroke:#000000;stroke-width: 0.2px"/><circle cx="0.0" cy="8.448160745106385" r="9.448818897637796" style="stroke:#0000FF;stroke-width: 0.2px;fill:none"/></svg>

