<?xml version="1.0" encoding="UTF-8" standalone="no"?>
<svg
   width="45.13686"
   height="38.33868"
   viewBox="0 0 45.13686 38.33868"
   version="1.1"
   id="svg98"
   sodipodi:docname="N6-6a.svg"
   xmlns:inkscape="http://www.inkscape.org/namespaces/inkscape"
   xmlns:sodipodi="http://sodipodi.sourceforge.net/DTD/sodipodi-0.dtd"
   xmlns="http://www.w3.org/2000/svg"
   xmlns:svg="http://www.w3.org/2000/svg">
  <defs
     id="defs102" />
  <sodipodi:namedview
     id="namedview100"
     pagecolor="#ffffff"
     bordercolor="#666666"
     borderopacity="1.0"
     inkscape:showpageshadow="2"
     inkscape:pageopacity="0.0"
     inkscape:pagecheckerboard="0"
     inkscape:deskcolor="#d1d1d1" />
  <style
     type="text/css"
     id="style2">
polygon.tile { stroke: #000000; stroke-width:3; stroke-linejoin:round }
polygon.ih1 { fill: #ffff80 }
polygon.ih2 { fill: #8080ff }
polygon.ih3 { fill: #ff8080 }
polygon.ih4 { fill: #80ff80 }
polygon.ih5 { fill: #ff80ff }
polygon.ih6 { fill: #80ffff }
polygon.para {opacity: 0.75; fill: #ff0000; stroke: #ff0000 }
</style>
  <polygon
     class="para"
     points="56.321072,28.160536 -56.321072,28.160536 -56.321072,-28.160536 56.321072,-28.160536 "
     style="stroke:none"
     id="polygon4"
     transform="matrix(0.4,0,0,0.4,22.568429,19.16934)" />
  <path
     d="m 22.568429,22.548604 5.068896,4.505686"
     style="stroke:#000000;stroke-width:0.08px"
     id="path6" />
  <path
     d="M 27.637325,27.05429 33.832643,16.448662"
     style="stroke:#000000;stroke-width:0.08px"
     id="path8" />
  <path
     d="M 33.832643,16.448662 V 9.6901339"
     style="stroke:#000000;stroke-width:0.08px"
     id="path10" />
  <path
     d="M 33.832643,9.6901339 27.637325,11.28439"
     style="stroke:#000000;stroke-width:0.08px"
     id="path12" />
  <path
     d="m 27.637325,11.28439 -5.068896,4.505686"
     style="stroke:#000000;stroke-width:0.08px"
     id="path14" />
  <path
     d="m 22.568429,15.790076 v 6.758528"
     style="stroke:#000000;stroke-width:0.08px"
     id="path16" />
  <path
     d="M 27.637325,4.525861 V 11.28439"
     style="stroke:#000000;stroke-width:0.08px"
     id="path18" />
  <path
     d="M 33.832643,9.6901339 38.90154,5.184448"
     style="stroke:#000000;stroke-width:0.08px"
     id="path20" />
  <path
     d="M 33.832643,9.6901339 38.90154,5.184448"
     style="stroke:#000000;stroke-width:0.08px"
     id="path22" />
  <path
     d="m 38.90154,5.184448 6.195318,10.605628"
     style="stroke:#000000;stroke-width:0.08px"
     id="path24" />
  <path
     d="m 45.096858,15.790076 v 6.758528"
     style="stroke:#000000;stroke-width:0.08px"
     id="path26" />
  <path
     d="M 45.096858,22.548604 38.90154,20.954348"
     style="stroke:#000000;stroke-width:0.08px"
     id="path28" />
  <path
     d="M 38.90154,20.954348 33.832643,16.448662"
     style="stroke:#000000;stroke-width:0.08px"
     id="path30" />
  <path
     d="M 45.096858,15.790076 38.90154,5.184448"
     style="stroke:#000000;stroke-width:0.08px"
     id="path32" />
  <path
     d="M 22.568429,0.02017598 16.373111,10.625803"
     style="stroke:#000000;stroke-width:0.08px"
     id="path34" />
  <path
     d="m 16.373111,10.625803 v 6.758529"
     style="stroke:#000000;stroke-width:0.08px"
     id="path36" />
  <path
     d="m 16.373111,17.384332 6.195318,-1.594256"
     style="stroke:#000000;stroke-width:0.08px"
     id="path38" />
  <path
     d="m 11.304215,28.648546 5.068896,4.505686"
     style="stroke:#000000;stroke-width:0.08px"
     id="path40" />
  <path
     d="M 16.373111,33.154232 22.568429,22.548604"
     style="stroke:#000000;stroke-width:0.08px"
     id="path42" />
  <path
     d="m 16.373111,17.384332 -5.068896,4.505685"
     style="stroke:#000000;stroke-width:0.08px"
     id="path44" />
  <path
     d="m 11.304215,21.890017 v 6.758529"
     style="stroke:#000000;stroke-width:0.08px"
     id="path46" />
  <path
     d="M 11.304215,21.890017 5.108897,11.28439"
     style="stroke:#000000;stroke-width:0.08px"
     id="path48" />
  <path
     d="M 5.108897,11.28439 V 4.525861"
     style="stroke:#000000;stroke-width:0.08px"
     id="path50" />
  <path
     d="m 11.304215,6.120117 2.64005,2.346712"
     style="stroke:#000000;stroke-width:0.08px"
     id="path52" />
  <path
     d="m 13.944265,8.466829 2.428846,2.158974"
     style="stroke:#000000;stroke-width:0.08px"
     id="path54" />
  <path
     d="M 0.04,15.790076 5.108897,11.28439"
     style="stroke:#000000;stroke-width:0.08px"
     id="path56" />
  <path
     d="m 5.108897,11.28439 6.195318,10.605627"
     style="stroke:#000000;stroke-width:0.08px"
     id="path58" />
  <path
     d="m 11.304215,21.890017 v 6.758529"
     style="stroke:#000000;stroke-width:0.08px"
     id="path60" />
  <path
     d="M 11.304215,28.648546 10.363854,28.406561"
     style="stroke:#000000;stroke-width:0.08px"
     id="path62" />
  <path
     d="M 10.363854,28.406561 5.108897,27.05429"
     style="stroke:#000000;stroke-width:0.08px"
     id="path64" />
  <path
     d="M 5.108897,27.05429 0.04,22.548604"
     style="stroke:#000000;stroke-width:0.08px"
     id="path66" />
  <path
     d="M 0.04,22.548604 V 15.790076"
     style="stroke:#000000;stroke-width:0.08px"
     id="path68" />
  <path
     d="M 0.04,22.548604 5.108897,27.05429"
     style="stroke:#000000;stroke-width:0.08px"
     id="path70" />
  <path
     d="m 5.108897,27.05429 v 6.758529"
     style="stroke:#000000;stroke-width:0.08px"
     id="path72" />
  <path
     d="m 0.04,15.790076 v 6.758528"
     style="stroke:#000000;stroke-width:0.08px"
     id="path74" />
  <path
     d="M 5.108897,11.28439 0.04,15.790076"
     style="stroke:#000000;stroke-width:0.08px"
     id="path76" />
  <path
     d="M 45.096858,22.548604 V 15.790076"
     style="stroke:#000000;stroke-width:0.08px"
     id="path78" />
  <path
     d="m 11.304215,6.120117 2.64005,2.346712"
     style="stroke:#000000;stroke-width:0.08px"
     id="path80" />
  <path
     d="M 16.373111,10.625803 22.568429,0.02017598"
     style="stroke:#000000;stroke-width:0.08px"
     id="path82" />
  <path
     d="m 27.637325,27.05429 v 6.758529"
     style="stroke:#000000;stroke-width:0.08px"
     id="path84" />
  <path
     d="M 33.832643,32.218563 38.90154,27.712877"
     style="stroke:#000000;stroke-width:0.08px"
     id="path86" />
  <path
     d="M 38.90154,27.712877 V 20.954348"
     style="stroke:#000000;stroke-width:0.08px"
     id="path88" />
  <path
     d="m 38.90154,27.712877 6.195318,10.605627"
     style="stroke:#000000;stroke-width:0.08px"
     id="path90" />
  <path
     d="M 22.568429,22.548604 16.373111,33.154232"
     style="stroke:#000000;stroke-width:0.08px"
     id="path92" />
  <path
     d="m 5.108897,27.05429 5.254957,1.352271"
     style="stroke:#000000;stroke-width:0.08px"
     id="path94" />
  <circle
     cx="22.56843"
     cy="22.548605"
     r="3.7795277"
     style="fill:none;stroke:#0000ff;stroke-width:0.08px"
     id="circle96" />
</svg>
