<?xml version="1.0" encoding="UTF-8" standalone="no"?>
<svg
   width="66.042435"
   height="38.332268"
   viewBox="0 0 66.042435 38.332268"
   version="1.1"
   id="svg150"
   sodipodi:docname="N6-6c.svg"
   inkscape:version="1.2.2 (1:1.2.2+202212051550+b0a8486541)"
   xmlns:inkscape="http://www.inkscape.org/namespaces/inkscape"
   xmlns:sodipodi="http://sodipodi.sourceforge.net/DTD/sodipodi-0.dtd"
   xmlns="http://www.w3.org/2000/svg"
   xmlns:svg="http://www.w3.org/2000/svg">
  <defs
     id="defs154" />
  <sodipodi:namedview
     id="namedview152"
     pagecolor="#ffffff"
     bordercolor="#666666"
     borderopacity="1.0"
     inkscape:showpageshadow="2"
     inkscape:pageopacity="0.0"
     inkscape:pagecheckerboard="0"
     inkscape:deskcolor="#d1d1d1"
     showgrid="false"
     inkscape:zoom="14.735686"
     inkscape:cx="42.10866"
     inkscape:cy="23.344688"
     inkscape:current-layer="svg150" />
  <style
     type="text/css"
     id="style2">
polygon.tile { stroke: #000000; stroke-width:3; stroke-linejoin:round }
polygon.ih1 { fill: #ffff80 }
polygon.ih2 { fill: #8080ff }
polygon.ih3 { fill: #ff8080 }
polygon.ih4 { fill: #80ff80 }
polygon.ih5 { fill: #ff80ff }
polygon.ih6 { fill: #80ffff }
polygon.para {opacity: 0.75; fill: #ff0000; stroke: #ff0000 }
</style>
  <polygon
     class="para"
     points="-82.453042,27.484347 -82.453042,-27.484347 82.453042,-27.484347 82.453042,27.484347 "
     style="stroke:none"
     id="polygon4"
     transform="matrix(0.39147488,-0.08214267,0.08214267,0.39147488,33.048984,19.619852)" />
  <path
     d="m 33.726275,22.847682 5.744799,3.287836"
     style="stroke:#000000;stroke-width:0.08px"
     id="path6" />
  <path
     d="M 39.471074,26.135518 43.263122,14.763459"
     style="stroke:#000000;stroke-width:0.08px"
     id="path8" />
  <path
     d="M 43.263122,14.763459 41.908539,8.3077998"
     style="stroke:#000000;stroke-width:0.08px"
     id="path10" />
  <path
     d="M 41.908539,8.3077998 36.310381,11.072313"
     style="stroke:#000000;stroke-width:0.08px"
     id="path12" />
  <path
     d="m 36.310381,11.072313 -3.938688,5.31971"
     style="stroke:#000000;stroke-width:0.08px"
     id="path14" />
  <path
     d="m 32.371693,16.392023 1.354582,6.455659"
     style="stroke:#000000;stroke-width:0.08px"
     id="path16" />
  <path
     d="m 43.263122,14.763459 5.744799,3.287836"
     style="stroke:#000000;stroke-width:0.08px"
     id="path18" />
  <path
     d="M 49.007921,18.051295 52.799969,6.6792357"
     style="stroke:#000000;stroke-width:0.08px"
     id="path20" />
  <path
     d="m 52.799969,6.6792357 5.744799,3.2878362"
     style="stroke:#000000;stroke-width:0.08px"
     id="path26" />
  <path
     d="M 58.544768,9.9670719 62.336816,-1.4049869"
     style="stroke:#000000;stroke-width:0.08px"
     id="path28" />
  <path
     d="M 2.2955012,33.659702 0.94091861,27.204043"
     style="stroke:#000000;stroke-width:0.08px"
     id="path36" />
  <path
     d="M 0.94091861,27.204043 4.8796081,21.884333"
     style="stroke:#000000;stroke-width:0.08px"
     id="path40" />
  <path
     d="M 4.8796081,21.884333 3.5250255,15.428675"
     style="stroke:#000000;stroke-width:0.08px"
     id="path42" />
  <path
     d="M 4.8796081,21.884333 12.922935,30.77299"
     style="stroke:#000000;stroke-width:0.08px"
     id="path44" />
  <path
     d="m 12.922935,30.77299 1.354583,6.45566"
     style="stroke:#000000;stroke-width:0.08px"
     id="path46" />
  <path
     d="M 8.040301,36.947538 2.2955012,33.659702"
     style="stroke:#000000;stroke-width:0.08px"
     id="path48" />
  <path
     d="m 12.922935,30.77299 3.93869,-5.319709"
     style="stroke:#000000;stroke-width:0.08px"
     id="path50" />
  <path
     d="m 16.861625,25.453281 8.043327,8.888658"
     style="stroke:#000000;stroke-width:0.08px"
     id="path52" />
  <path
     d="m 24.904952,34.341939 3.938689,-5.319711"
     style="stroke:#000000;stroke-width:0.08px"
     id="path54" />
  <path
     d="M 9.7622423,15.709787 3.5250255,15.428675"
     style="stroke:#000000;stroke-width:0.08px"
     id="path60" />
  <path
     d="m 20.389676,12.823075 1.354583,6.45566"
     style="stroke:#000000;stroke-width:0.08px"
     id="path66" />
  <path
     d="M 21.744259,19.278735 15.507042,18.997623"
     style="stroke:#000000;stroke-width:0.08px"
     id="path68" />
  <path
     d="M 15.507042,18.997623 9.7622423,15.709787"
     style="stroke:#000000;stroke-width:0.08px"
     id="path70" />
  <path
     d="m 24.328366,7.5033662 8.043327,8.8886568"
     style="stroke:#000000;stroke-width:0.08px"
     id="path74" />
  <path
     d="M 33.726275,22.847682 27.489059,22.56657"
     style="stroke:#000000;stroke-width:0.08px"
     id="path76" />
  <path
     d="m 27.489059,22.56657 -5.7448,-3.287835"
     style="stroke:#000000;stroke-width:0.08px"
     id="path78" />
  <path
     d="M 28.843641,29.022228 27.489059,22.56657"
     style="stroke:#000000;stroke-width:0.08px"
     id="path82" />
  <path
     d="m 39.471074,26.135518 1.354583,6.455659"
     style="stroke:#000000;stroke-width:0.08px"
     id="path84" />
  <path
     d="M 16.861625,25.453281 15.507042,18.997623"
     style="stroke:#000000;stroke-width:0.08px"
     id="path90" />
  <path
     d="m 57.315244,28.198099 -1.354582,-6.45566"
     style="stroke:#000000;stroke-width:0.08px"
     id="path112" />
  <path
     d="m 55.960662,21.742439 -5.598158,2.764514"
     style="stroke:#000000;stroke-width:0.08px"
     id="path114" />
  <path
     d="m 50.362504,24.506953 c -1.312896,1.773238 -2.625792,3.546473 -3.938689,5.31971"
     style="stroke:#000000;stroke-width:0.08px"
     id="path116"
     sodipodi:nodetypes="cc" />
  <path
     d="M 65.497508,13.658217 59.89935,16.42273"
     style="stroke:#000000;stroke-width:0.08px"
     id="path124" />
  <path
     d="m 59.89935,16.42273 -3.938688,5.319709"
     style="stroke:#000000;stroke-width:0.08px"
     id="path126" />
  <path
     d="M 58.544768,9.9670719 59.89935,16.42273"
     style="stroke:#000000;stroke-width:0.08px"
     id="path130" />
  <path
     d="M 52.799969,6.6792357 49.007921,18.051295"
     style="stroke:#000000;stroke-width:0.08px"
     id="path134" />
  <path
     d="m 49.007921,18.051295 1.354583,6.455658"
     style="stroke:#000000;stroke-width:0.08px"
     id="path136" />
</svg>
