<svg xmlns="http://www.w3.org/2000/svg" width="566" height="566" viewBox="0 0 566 566">
<style type="text/css">
polygon.tile { stroke: #000000; stroke-width:3; stroke-linejoin:round }
polygon.ih1 { fill: #ffff80 }
polygon.ih2 { fill: #8080ff }
polygon.ih3 { fill: #ff8080 }
polygon.ih4 { fill: #80ff80 }
polygon.ih5 { fill: #ff80ff }
polygon.ih6 { fill: #80ffff }
polygon.para {opacity: 0.75; fill: #ff0000; stroke: #ff0000 }
</style>
<polygon class="para" points="-82.45304169076645,27.4843472302555 -82.45304169076645,-27.4843472302555 82.45304169076651,-27.4843472302555 82.45304169076651,27.4843472302555 -82.45304169076645,27.4843472302555" style="stroke: none"/>
<path d="M 2.7061322346797295e-14,8.245304169076638 12.367956253614997,19.239043061178837" style="stroke:#000000;stroke-width: 0.2px"/><path d="M 12.367956253614997,19.239043061178837 27.4843472302555,-6.638372086280565" style="stroke:#000000;stroke-width: 0.2px"/><path d="M 27.4843472302555,-6.638372086280565 27.4843472302555,-23.128980424433866" style="stroke:#000000;stroke-width: 0.2px"/><path d="M 27.4843472302555,-23.128980424433866 12.367956253614997,-19.239043061178837" style="stroke:#000000;stroke-width: 0.2px"/><path d="M 12.367956253614997,-19.239043061178837 2.7061322346797295e-14,-8.245304169076638" style="stroke:#000000;stroke-width: 0.2px"/><path d="M 2.7061322346797295e-14,-8.24530416907661 2.7061322346797295e-14,8.245304169076638" style="stroke:#000000;stroke-width: 0.2px"/><path d="M 27.48434723025553,-6.638372086280539 39.8523034838705,4.355366805821635" style="stroke:#000000;stroke-width: 0.2px"/><path d="M 39.8523034838705,4.355366805821635 54.968694460511,-21.522048341637795" style="stroke:#000000;stroke-width: 0.2px"/><path d="M 54.968694460511,-21.522048341637795 54.968694460511,-38.0126566797911" style="stroke:#000000;stroke-width: 0.2px"/><path d="M 32.825055612498346,-27.876276764205272 27.4843472302555,-23.12898042443388" style="stroke:#000000;stroke-width: 0.2px"/><path d="M 54.968694460511,-21.522048341637795 67.33665071412598,-10.528309449535595" style="stroke:#000000;stroke-width: 0.2px"/><path d="M 67.33665071412598,-10.528309449535595 82.45304169076651,-36.405724596995015" style="stroke:#000000;stroke-width: 0.2px"/><path d="M 12.367956253614997,-35.729651399332155 12.367956253614997,-19.239043061178865" style="stroke:#000000;stroke-width: 0.2px"/><path d="M 12.367956253614997,-19.23904306117885 27.4843472302555,-23.12898042443388" style="stroke:#000000;stroke-width: 0.2px"/><path d="M 27.48434723025553,-23.12898042443388 32.825055612498346,-27.876276764205272" style="stroke:#000000;stroke-width: 0.2px"/><path d="M -82.45304169076645,18.56296986351598 -82.45304169076645,2.0723615253627052" style="stroke:#000000;stroke-width: 0.2px"/><path d="M -70.08508543715149,-25.41198570489281 -82.45304169076645,-36.405724596995" style="stroke:#000000;stroke-width: 0.2px"/><path d="M -82.45304169076645,2.0723615253627052 -70.08508543715149,-8.921377366739495" style="stroke:#000000;stroke-width: 0.2px"/><path d="M -70.08508543715149,-8.92137736673955 -70.08508543715148,-25.411985704892796" style="stroke:#000000;stroke-width: 0.2px"/><path d="M -70.08508543715149,-8.921377366739495 -54.96869446051098,16.956037780719907" style="stroke:#000000;stroke-width: 0.2px"/><path d="M -54.96869446051098,16.956037780719907 -54.96869446051098,33.44664611887318" style="stroke:#000000;stroke-width: 0.2px"/><path d="M -70.08508543715149,29.556708755618182 -82.45304169076645,18.56296986351598" style="stroke:#000000;stroke-width: 0.2px"/><path d="M -54.96869446051098,16.956037780719907 -42.60073820689598,5.962298888617734" style="stroke:#000000;stroke-width: 0.2px"/><path d="M -42.60073820689598,5.962298888617734 -27.484347230255477,31.839714036077137" style="stroke:#000000;stroke-width: 0.2px"/><path d="M -27.484347230255477,31.839714036077137 -15.116390976640492,20.845975143974936" style="stroke:#000000;stroke-width: 0.2px"/><path d="M -15.116390976640492,20.845975143974936 2.7061322346797295e-14,46.72339029143437" style="stroke:#000000;stroke-width: 0.2px"/><path d="M -54.96869446051098,-38.01265667979107 -54.96869446051098,-21.52204834163781" style="stroke:#000000;stroke-width: 0.2px"/><path d="M -54.96869446051098,-21.522048341637767 -70.08508543715148,-25.411985704892796" style="stroke:#000000;stroke-width: 0.2px"/><path d="M -70.08508543715149,-25.411985704892796 -82.45304169076645,-36.405724596995" style="stroke:#000000;stroke-width: 0.2px"/><path d="M -42.60073820689598,-49.00639557189327 -27.484347230255477,-23.12898042443384" style="stroke:#000000;stroke-width: 0.2px"/><path d="M -27.484347230255477,-23.12898042443384 -27.484347230255477,-6.638372086280565" style="stroke:#000000;stroke-width: 0.2px"/><path d="M -27.484347230255477,-6.638372086280565 -42.60073820689598,-10.528309449535568" style="stroke:#000000;stroke-width: 0.2px"/><path d="M -42.60073820689598,-10.528309449535568 -54.96869446051098,-21.52204834163778" style="stroke:#000000;stroke-width: 0.2px"/><path d="M -27.484347230255477,-23.12898042443384 -15.116390976640492,-34.12271931653604" style="stroke:#000000;stroke-width: 0.2px"/><path d="M -15.116390976640492,-34.12271931653604 2.7061322346797295e-14,-8.24530416907661" style="stroke:#000000;stroke-width: 0.2px"/><path d="M 2.7061322346797295e-14,8.245304169076638 -15.116390976640492,4.355366805821635" style="stroke:#000000;stroke-width: 0.2px"/><path d="M -15.116390976640492,4.355366805821635 -27.484347230255477,-6.638372086280565" style="stroke:#000000;stroke-width: 0.2px"/><path d="M 2.7061322346797295e-14,46.72339029143434 -15.116390976640492,20.84597514397491" style="stroke:#000000;stroke-width: 0.2px"/><path d="M -15.116390976640492,20.84597514397491 -15.116390976640492,4.355366805821635" style="stroke:#000000;stroke-width: 0.2px"/><path d="M 12.367956253614997,19.239043061178837 12.367956253614997,35.72965139933214" style="stroke:#000000;stroke-width: 0.2px"/><path d="M -15.116390976640492,20.84597514397491 -27.484347230255477,31.839714036077112" style="stroke:#000000;stroke-width: 0.2px"/><path d="M -27.484347230255477,31.839714036077112 -42.60073820689598,5.96229888861768" style="stroke:#000000;stroke-width: 0.2px"/><path d="M -42.60073820689598,5.96229888861768 -42.60073820689598,-10.528309449535568" style="stroke:#000000;stroke-width: 0.2px"/><path d="M -42.60073820689598,-10.528309449535595 -27.484347230255477,-6.638372086280565" style="stroke:#000000;stroke-width: 0.2px"/><path d="M -42.60073820689598,5.96229888861768 -54.96869446051098,16.956037780719882" style="stroke:#000000;stroke-width: 0.2px"/><path d="M -54.96869446051098,16.956037780719882 -70.08508543715149,-8.92137736673955" style="stroke:#000000;stroke-width: 0.2px"/><path d="M -70.08508543715149,-8.92137736673955 -70.08508543715149,-25.411985704892796" style="stroke:#000000;stroke-width: 0.2px"/><path d="M -70.08508543715149,-25.411985704892825 -54.96869446051098,-21.52204834163781" style="stroke:#000000;stroke-width: 0.2px"/><path d="M -54.96869446051098,-21.52204834163781 -42.60073820689598,-10.528309449535595" style="stroke:#000000;stroke-width: 0.2px"/><path d="M 12.367956253614997,-19.239043061178865 2.7061322346797295e-14,-8.245304169076665" style="stroke:#000000;stroke-width: 0.2px"/><path d="M 2.7061322346797295e-14,-8.245304169076665 -15.116390976640492,-34.122719316536084" style="stroke:#000000;stroke-width: 0.2px"/><path d="M -15.116390976640492,-34.122719316536084 -27.484347230255477,-23.128980424433895" style="stroke:#000000;stroke-width: 0.2px"/><path d="M -27.484347230255477,-23.128980424433895 -42.60073820689598,-49.006395571893314" style="stroke:#000000;stroke-width: 0.2px"/><path d="M 54.968694460511,33.44664611887321 54.968694460511,16.956037780719907" style="stroke:#000000;stroke-width: 0.2px"/><path d="M 54.968694460511,16.956037780719907 39.8523034838705,20.845975143974936" style="stroke:#000000;stroke-width: 0.2px"/><path d="M 39.8523034838705,20.845975143974936 33.28182672413753,26.68639893040421" style="stroke:#000000;stroke-width: 0.2px"/><path d="M 33.28182672413753,26.68639893040421 27.4843472302555,31.839714036077112" style="stroke:#000000;stroke-width: 0.2px"/><path d="M 67.33665071412598,44.44038501097541 82.45304169076651,18.56296986351598" style="stroke:#000000;stroke-width: 0.2px"/><path d="M 82.45304169076651,18.56296986351598 82.45304169076651,2.0723615253627052" style="stroke:#000000;stroke-width: 0.2px"/><path d="M 82.45304169076651,2.0723615253627052 67.33665071412598,5.962298888617707" style="stroke:#000000;stroke-width: 0.2px"/><path d="M 67.33665071412598,5.962298888617707 54.968694460511,16.956037780719907" style="stroke:#000000;stroke-width: 0.2px"/><path d="M 82.45304169076651,-36.405724596995 67.33665071412598,-10.528309449535595" style="stroke:#000000;stroke-width: 0.2px"/><path d="M 67.33665071412598,-10.528309449535595 67.33665071412598,5.962298888617707" style="stroke:#000000;stroke-width: 0.2px"/><path d="M 67.33665071412598,-10.528309449535595 54.968694460511,-21.52204834163778" style="stroke:#000000;stroke-width: 0.2px"/><path d="M 54.968694460511,-21.52204834163778 39.8523034838705,4.355366805821635" style="stroke:#000000;stroke-width: 0.2px"/><path d="M 39.8523034838705,4.355366805821635 39.8523034838705,20.84597514397491" style="stroke:#000000;stroke-width: 0.2px"/><path d="M 39.8523034838705,4.355366805821635 27.48434723025553,-6.638372086280565" style="stroke:#000000;stroke-width: 0.2px"/><path d="M 27.48434723025553,-6.638372086280539 12.367956253614997,19.239043061178837" style="stroke:#000000;stroke-width: 0.2px"/><path d="M 27.48434723025553,31.839714036077112 33.28182672413753,26.68639893040421" style="stroke:#000000;stroke-width: 0.2px"/><path d="M 33.28182672413753,26.68639893040421 39.8523034838705,20.84597514397491" style="stroke:#000000;stroke-width: 0.2px"/><path d="M -70.08508543715149,29.556708755618207 -82.45304169076645,18.56296986351598" style="stroke:#000000;stroke-width: 0.2px"/><circle cx="2.7061322346797295e-14" cy="8.245304169076638" r="9.448818897637796" style="stroke:#0000FF;stroke-width: 0.2px;fill:none"/></svg>

