<svg xmlns="http://www.w3.org/2000/svg" width="566" height="566" viewBox="0 0 566 566">
<style type="text/css">
polygon.tile { stroke: #000000; stroke-width:3; stroke-linejoin:round }
polygon.ih1 { fill: #ffff80 }
polygon.ih2 { fill: #8080ff }
polygon.ih3 { fill: #ff8080 }
polygon.ih4 { fill: #80ff80 }
polygon.ih5 { fill: #ff80ff }
polygon.ih6 { fill: #80ffff }
polygon.para {opacity: 0.75; fill: #ff0000; stroke: #ff0000 }
</style>
<polygon class="para" points="-24.340599361744495,14.053051593740024 -8.1135331205815,-14.053051593740019 24.340599361744495,-14.053051593740019 8.113533120581508,14.053051593740024 -24.340599361744495,14.053051593740024" style="stroke: none"/>
<path d="M 0.0,0.0 32.454132482326,0.0" style="stroke:#000000;stroke-width: 0.2px"/><path d="M 21.63608832155067,-9.368701062493347 16.227066241163,-9.368701062493347" style="stroke:#000000;stroke-width: 0.2px"/><path d="M 16.227066241163,-9.368701062493347 13.522555200969162,-4.684350531246671" style="stroke:#000000;stroke-width: 0.2px"/><path d="M 13.522555200969162,-4.684350531246671 0.0,0.0" style="stroke:#000000;stroke-width: 0.2px"/><path d="M 32.454132482326,0.0 16.227066241162987,-28.106103187480038" style="stroke:#000000;stroke-width: 0.2px"/><path d="M 13.522555200969162,-14.053051593740012 16.227066241163,-9.368701062493347" style="stroke:#000000;stroke-width: 0.2px"/><path d="M 16.227066241162987,-28.106103187480038 0.0,0.0" style="stroke:#000000;stroke-width: 0.2px"/><path d="M -16.227066241162987,28.106103187480038 -32.454132482325996,0.0" style="stroke:#000000;stroke-width: 0.2px"/><path d="M -13.522555200969162,14.053051593740024 -16.227066241162987,9.368701062493342" style="stroke:#000000;stroke-width: 0.2px"/><path d="M -16.227066241162987,9.368701062493342 -21.636088321550655,9.368701062493342" style="stroke:#000000;stroke-width: 0.2px"/><path d="M -16.227066241162987,28.106103187480038 0.0,0.0" style="stroke:#000000;stroke-width: 0.2px"/><path d="M 0.0,0.0 -13.522555200969162,4.684350531246671" style="stroke:#000000;stroke-width: 0.2px"/><path d="M -13.522555200969162,4.684350531246671 -16.227066241162987,9.368701062493342" style="stroke:#000000;stroke-width: 0.2px"/><path d="M 0.0,0.0 -32.454132482325996,0.0" style="stroke:#000000;stroke-width: 0.2px"/><path d="M 0.0,0.0 -10.818044160775335,-9.368701062493347" style="stroke:#000000;stroke-width: 0.2px"/><path d="M 0.0,0.0 -16.227066241163,-28.106103187480038" style="stroke:#000000;stroke-width: 0.2px"/><path d="M 0.0,0.0 2.704511040193827,-14.053051593740019" style="stroke:#000000;stroke-width: 0.2px"/><path d="M 16.227066241163,28.106103187480038 0.0,0.0" style="stroke:#000000;stroke-width: 0.2px"/><path d="M 0.0,0.0 -2.704511040193827,14.053051593740024" style="stroke:#000000;stroke-width: 0.2px"/><path d="M 10.818044160775335,9.368701062493342 0.0,0.0" style="stroke:#000000;stroke-width: 0.2px"/><circle cx="0.0" cy="0.0" r="9.448818897637796" style="stroke:#0000FF;stroke-width: 0.2px;fill:none"/></svg>

