<svg xmlns="http://www.w3.org/2000/svg" width="545" height="545" viewBox="0 0 545 545">
<style type="text/css">
polygon.tile { stroke: #000000; stroke-width:3; stroke-linejoin:round }
polygon.ih1 { fill: #ffff80 }
polygon.ih2 { fill: #8080ff }
polygon.ih3 { fill: #ff8080 }
polygon.ih4 { fill: #80ff80 }
polygon.ih5 { fill: #ff80ff }
polygon.ih6 { fill: #80ffff }
polygon.para {opacity: 0.75; fill: #ff0000; stroke: #ff0000 }
</style>
<polygon class="para" points="46.000055297894605,93.3516337315091 46.000055297894605,30.21619582002311 77.5677742536376,30.21619582002311 77.5677742536376,93.3516337315091 46.000055297894605,93.3516337315091" style="stroke: none"/>
<path d="M 61.7839147757661,61.7839147757661 93.3516337315091,61.7839147757661" style="stroke:#000000;stroke-width: 0.2px"/><path d="M 82.56760975276521,30.21619582002311 61.7839147757661,61.7839147757661" style="stroke:#000000;stroke-width: 0.2px"/><path d="M 82.5676097527652,93.35163373150908 50.99989079702222,93.3516337315091" style="stroke:#000000;stroke-width: 0.2px"/><path d="M 50.99989079702222,93.3516337315091 61.7839147757661,61.7839147757661" style="stroke:#000000;stroke-width: 0.2px"/><path d="M 61.7839147757661,61.7839147757661 82.56760975276522,93.35163373150907" style="stroke:#000000;stroke-width: 0.2px"/><path d="M 30.21619582002311,61.7839147757661 61.7839147757661,61.7839147757661" style="stroke:#000000;stroke-width: 0.2px"/><path d="M 61.7839147757661,61.7839147757661 50.99989079702221,93.35163373150908" style="stroke:#000000;stroke-width: 0.2px"/><path d="M 50.99989079702221,93.35163373150908 50.99989079702221,93.3516337315091" style="stroke:#000000;stroke-width: 0.2px"/><path d="M 50.99989079702221,93.3516337315091 50.9998907970222,93.35163373150908" style="stroke:#000000;stroke-width: 0.2px"/><path d="M 61.7839147757661,61.7839147757661 50.99989079702221,30.21619582002311" style="stroke:#000000;stroke-width: 0.2px"/><path d="M 61.7839147757661,61.7839147757661 82.56760975276521,30.216195820023096" style="stroke:#000000;stroke-width: 0.2px"/><path d="M 50.99989079702221,30.216195820023117 50.99989079702221,30.21619582002311" style="stroke:#000000;stroke-width: 0.2px"/><path d="M 82.5676097527652,93.35163373150908 61.7839147757661,61.7839147757661" style="stroke:#000000;stroke-width: 0.2px"/><circle cx="61.7839147757661" cy="61.7839147757661" r="9.448818897637796" style="stroke:#0000FF;stroke-width: 0.2px;fill:none"/></svg>

