<svg xmlns:inkscape="http://www.inkscape.org/namespaces/inkscape" xmlns:sodipodi="http://sodipodi.sourceforge.net/DTD/sodipodi-0.dtd" xmlns="http://www.w3.org/2000/svg" xmlns:svg="http://www.w3.org/2000/svg" width="51.288441" height="30.236219" viewBox="0 0 51.288441 30.236219" version="1.1" id="svg32" sodipodi:docname="P4-1.svg">
  <defs id="defs36"/>
  <sodipodi:namedview id="namedview34" pagecolor="#ffffff" bordercolor="#666666" borderopacity="1.0" inkscape:showpageshadow="2" inkscape:pageopacity="0.0" inkscape:pagecheckerboard="0" inkscape:deskcolor="#d1d1d1"/>
  <style type="text/css" id="style2">
polygon.tile { stroke: #000000; stroke-width:3; stroke-linejoin:round }
polygon.ih1 { fill: #ffff80 }
polygon.ih2 { fill: #8080ff }
polygon.ih3 { fill: #ff8080 }
polygon.ih4 { fill: #80ff80 }
polygon.ih5 { fill: #ff80ff }
polygon.ih6 { fill: #80ffff }
polygon.para {opacity: 0.75; fill: #ff0000; stroke: #ff0000 }
</style>
  <polygon class="para" points="128.95238,157.74946 128.95238,195.54474 224.34182,195.54474 224.34182,157.74946 " style="stroke:none" id="polygon4" transform="matrix(0.4,0,0,0.4,-45.01462,-55.54073)"/>
  <path d="M 25.64422,15.11811 38.17577,7.88302" style="stroke:#000000;stroke-width:0.08px" id="path6"/>
  <path d="M 38.17577,7.88302 51.26844,0.32396" style="stroke:#000000;stroke-width:0.08px" id="path8"/>
  <path d="M 25.64422,0 V 7.55906" style="stroke:#000000;stroke-width:0.08px" id="path10"/>
  <path d="m 25.64422,7.55906 v 7.55905" style="stroke:#000000;stroke-width:0.08px" id="path12"/>
  <path d="M 51.26844,15.44207 38.17577,7.88302" style="stroke:#000000;stroke-width:0.08px" id="path14"/>
  <path d="M 0.02000001,23.00113 13.11267,15.44207" style="stroke:#000000;stroke-width:0.08px" id="path16"/>
  <path d="M 13.11267,15.44207 0.02000001,7.88302" style="stroke:#000000;stroke-width:0.08px" id="path18"/>
  <path d="m 13.11267,15.44207 12.53155,7.2351" style="stroke:#000000;stroke-width:0.08px" id="path20"/>
  <path d="m 25.64422,22.67717 v 7.55905" style="stroke:#000000;stroke-width:0.08px" id="path22"/>
  <path d="M 38.17577,23.00113 51.26844,15.44207" style="stroke:#000000;stroke-width:0.08px" id="path24"/>
  <path d="m 25.64422,15.11811 v 7.55906" style="stroke:#000000;stroke-width:0.08px" id="path26"/>
  <path d="M 25.64422,7.55906 13.11267,0.32396" style="stroke:#000000;stroke-width:0.08px" id="path28"/>
  </svg>