<svg xmlns="http://www.w3.org/2000/svg" width="566" height="566" viewBox="0 0 566 566">
<style type="text/css">
polygon.tile { stroke: #000000; stroke-width:3; stroke-linejoin:round }
polygon.ih1 { fill: #ffff80 }
polygon.ih2 { fill: #8080ff }
polygon.ih3 { fill: #ff8080 }
polygon.ih4 { fill: #80ff80 }
polygon.ih5 { fill: #ff80ff }
polygon.ih6 { fill: #80ffff }
polygon.para {opacity: 0.75; fill: #ff0000; stroke: #ff0000 }
</style>
<polygon class="para" points="128.95238408356818,195.54473927961556 224.34181888511173,195.54473927961556 224.34181888511173,157.74946368906438 128.95238408356818,157.74946368906436 128.95238408356818,195.54473927961556" style="stroke: none"/>
<path d="M 176.64710148433997,176.64710148433997 207.97598448288613,158.55936245171904" style="stroke:#000000;stroke-width: 0.2px"/><path d="M 207.97598448288613,158.55936245171904 240.70765328733737,139.66172465644345" style="stroke:#000000;stroke-width: 0.2px"/><path d="M 176.64710148433997,138.85182589378877 176.6471014843399,157.74946368906436" style="stroke:#000000;stroke-width: 0.2px"/><path d="M 176.6471014843399,157.74946368906436 176.64710148433997,176.64710148433997" style="stroke:#000000;stroke-width: 0.2px"/><path d="M 240.70765328733737,177.45700024699462 207.97598448288613,158.55936245171904" style="stroke:#000000;stroke-width: 0.2px"/><path d="M 112.58654968134256,196.3546380422702 145.31821848579378,177.45700024699462" style="stroke:#000000;stroke-width: 0.2px"/><path d="M 145.31821848579378,177.45700024699462 112.58654968134256,158.559362451719" style="stroke:#000000;stroke-width: 0.2px"/><path d="M 145.31821848579378,177.45700024699462 176.64710148433997,195.54473927961556" style="stroke:#000000;stroke-width: 0.2px"/><path d="M 176.64710148433997,195.54473927961556 176.64710148433997,214.44237707489114" style="stroke:#000000;stroke-width: 0.2px"/><path d="M 207.97598448288613,196.3546380422702 240.70765328733737,177.45700024699462" style="stroke:#000000;stroke-width: 0.2px"/><path d="M 176.64710148433997,176.64710148433997 176.64710148433997,195.54473927961556" style="stroke:#000000;stroke-width: 0.2px"/><path d="M 176.6471014843399,157.74946368906436 145.31821848579378,139.66172465644343" style="stroke:#000000;stroke-width: 0.2px"/><circle cx="176.64710148433997" cy="176.64710148433997" r="9.448818897637796" style="stroke:#0000FF;stroke-width: 0.2px;fill:none"/></svg>

