<svg xmlns="http://www.w3.org/2000/svg" width="566" height="566" viewBox="0 0 566 566">
<style type="text/css">
polygon.tile { stroke: #000000; stroke-width:3; stroke-linejoin:round }
polygon.ih1 { fill: #ffff80 }
polygon.ih2 { fill: #8080ff }
polygon.ih3 { fill: #ff8080 }
polygon.ih4 { fill: #80ff80 }
polygon.ih5 { fill: #ff80ff }
polygon.ih6 { fill: #80ffff }
polygon.para {opacity: 0.75; fill: #ff0000; stroke: #ff0000 }
</style>
<polygon class="para" points="90.43187428045381,161.35786202118643 140.1999237876849,92.37515340927547 223.13579775785763,152.209810017125 173.36774825062653,221.192518629036 90.43187428045381,161.35786202118643" style="stroke: none"/>
<path d="M 156.78383601915573,156.78383601915573 190.52985387121578,173.80409265923473" style="stroke:#000000;stroke-width: 0.2px"/><path d="M 190.52985387121578,173.80409265923473 196.08253340048344,176.60466104163066" style="stroke:#000000;stroke-width: 0.2px"/><path d="M 196.08253340048344,176.60466104163066 222.56585548802894,189.96187967963306" style="stroke:#000000;stroke-width: 0.2px"/><path d="M 202.6819807428055,130.12722307178353 173.37599936991634,147.14747971186256" style="stroke:#000000;stroke-width: 0.2px"/><path d="M 173.37599936991634,147.14747971186256 156.78383601915573,156.78383601915573" style="stroke:#000000;stroke-width: 0.2px"/><path d="M 89.86193201062517,199.1099316836945 96.77185959242686,165.93188802321714" style="stroke:#000000;stroke-width: 0.2px"/><path d="M 96.77185959242686,165.93188802321714 69.9780572654017,139.27527507584497" style="stroke:#000000;stroke-width: 0.2px"/><path d="M 107.59397990104306,113.96943605138516 100.68405231924139,147.14747971186247" style="stroke:#000000;stroke-width: 0.2px"/><path d="M 100.68405231924139,147.14747971186247 97.67580537027422,161.5915889203568" style="stroke:#000000;stroke-width: 0.2px"/><path d="M 97.67580537027422,161.5915889203568 96.77185959242686,165.93188802321714" style="stroke:#000000;stroke-width: 0.2px"/><path d="M 100.68405231924139,147.14747971186247 127.47785464626654,173.80409265923473" style="stroke:#000000;stroke-width: 0.2px"/><path d="M 127.47785464626654,173.80409265923473 138.01964798607327,184.29191000597163" style="stroke:#000000;stroke-width: 0.2px"/><path d="M 138.01964798607327,184.29191000597163 152.9139312355744,199.10993168369453" style="stroke:#000000;stroke-width: 0.2px"/><path d="M 152.9139312355744,199.10993168369453 123.6079498626852,216.13018832377352" style="stroke:#000000;stroke-width: 0.2px"/><path d="M 173.37599936991634,147.14747971186256 139.62998151785624,130.1272230717835" style="stroke:#000000;stroke-width: 0.2px"/><path d="M 139.62998151785624,130.1272230717835 123.61198070944964,122.04832956158434" style="stroke:#000000;stroke-width: 0.2px"/><path d="M 123.61198070944964,122.04832956158434 107.59397990104306,113.96943605138516" style="stroke:#000000;stroke-width: 0.2px"/><path d="M 127.47785464626654,173.80409265923473 156.78383601915573,156.78383601915573" style="stroke:#000000;stroke-width: 0.2px"/><path d="M 139.62998151785624,130.1272230717835 146.53990909965796,96.94917941130616" style="stroke:#000000;stroke-width: 0.2px"/><path d="M 146.53990909965796,96.94917941130616 119.74610677263277,70.29256646393398" style="stroke:#000000;stroke-width: 0.2px"/><path d="M 148.26410288502342,88.67045636931095 146.53990909965796,96.94917941130616" style="stroke:#000000;stroke-width: 0.2px"/><path d="M 179.7077335625996,225.7665446310667 152.9139312355744,199.10993168369453" style="stroke:#000000;stroke-width: 0.2px"/><path d="M 190.52985387121578,173.80409265923473 183.6199262894141,206.98213631971208" style="stroke:#000000;stroke-width: 0.2px"/><path d="M 183.6199262894141,206.98213631971208 181.55977107688554,216.873979436657" style="stroke:#000000;stroke-width: 0.2px"/><path d="M 183.6199262894141,206.98213631971208 210.41372861643922,233.63874926708428" style="stroke:#000000;stroke-width: 0.2px"/><circle cx="156.78383601915573" cy="156.78383601915573" r="9.448818897637796" style="stroke:#0000FF;stroke-width: 0.2px;fill:none"/></svg>

