<?xml version="1.0" encoding="UTF-8" standalone="no"?>
<svg
   width="61.291309"
   height="65.39518"
   viewBox="0 0 61.291309 65.39518"
   version="1.1"
   id="svg58"
   sodipodi:docname="P4-15.svg"
   xmlns:inkscape="http://www.inkscape.org/namespaces/inkscape"
   xmlns:sodipodi="http://sodipodi.sourceforge.net/DTD/sodipodi-0.dtd"
   xmlns="http://www.w3.org/2000/svg"
   xmlns:svg="http://www.w3.org/2000/svg">
  <defs
     id="defs62" />
  <sodipodi:namedview
     id="namedview60"
     pagecolor="#ffffff"
     bordercolor="#666666"
     borderopacity="1.0"
     inkscape:showpageshadow="2"
     inkscape:pageopacity="0.0"
     inkscape:pagecheckerboard="0"
     inkscape:deskcolor="#d1d1d1" />
  <style
     type="text/css"
     id="style2">
polygon.tile { stroke: #000000; stroke-width:3; stroke-linejoin:round }
polygon.ih1 { fill: #ffff80 }
polygon.ih2 { fill: #8080ff }
polygon.ih3 { fill: #ff8080 }
polygon.ih4 { fill: #80ff80 }
polygon.ih5 { fill: #ff80ff }
polygon.ih6 { fill: #80ffff }
polygon.para {opacity: 0.75; fill: #ff0000; stroke: #ff0000 }
</style>
  <polygon
     class="para"
     points="173.36775,221.19252 90.431874,161.35786 140.19992,92.375153 223.1358,152.20981 "
     style="stroke:none"
     id="polygon4"
     transform="matrix(0.4,0,0,0.4,-27.96301,-28.088668)" />
  <path
     d="m 34.750522,34.624867 13.49841,6.8081"
     style="stroke:#000000;stroke-width:0.08px"
     id="path6" />
  <path
     d="m 48.248932,41.432967 2.22107,1.12023"
     style="stroke:#000000;stroke-width:0.08px"
     id="path8" />
  <path
     d="m 50.470002,42.553197 10.59333,5.34289"
     style="stroke:#000000;stroke-width:0.08px"
     id="path10" />
  <path
     d="m 53.109782,23.962217 -11.72239,6.80811"
     style="stroke:#000000;stroke-width:0.08px"
     id="path12" />
  <path
     d="m 41.387392,30.770327 -6.63687,3.85454"
     style="stroke:#000000;stroke-width:0.08px"
     id="path14" />
  <path
     d="M 7.9817616,51.555307 10.745732,38.284087"
     style="stroke:#000000;stroke-width:0.08px"
     id="path16" />
  <path
     d="M 10.745732,38.284087 0.02821159,27.621437"
     style="stroke:#000000;stroke-width:0.08px"
     id="path18" />
  <path
     d="m 15.074582,17.499107 -2.76397,13.27122"
     style="stroke:#000000;stroke-width:0.08px"
     id="path20" />
  <path
     d="m 12.310612,30.770327 -1.2033,5.77764"
     style="stroke:#000000;stroke-width:0.08px"
     id="path22" />
  <path
     d="m 11.107312,36.547967 -0.36158,1.73612"
     style="stroke:#000000;stroke-width:0.08px"
     id="path24" />
  <path
     d="m 12.310612,30.770327 10.71752,10.66264"
     style="stroke:#000000;stroke-width:0.08px"
     id="path26" />
  <path
     d="m 23.028132,41.432967 4.21672,4.19513"
     style="stroke:#000000;stroke-width:0.08px"
     id="path28" />
  <path
     d="m 27.244852,45.628097 5.95771,5.92721"
     style="stroke:#000000;stroke-width:0.08px"
     id="path30" />
  <path
     d="m 33.202562,51.555307 -11.72239,6.8081"
     style="stroke:#000000;stroke-width:0.08px"
     id="path32" />
  <path
     d="m 41.387392,30.770327 -13.49841,-6.80811"
     style="stroke:#000000;stroke-width:0.08px"
     id="path34" />
  <path
     d="m 27.888982,23.962217 -6.4072,-3.23155"
     style="stroke:#000000;stroke-width:0.08px"
     id="path36" />
  <path
     d="m 21.481782,20.730667 -6.4072,-3.23156"
     style="stroke:#000000;stroke-width:0.08px"
     id="path38" />
  <path
     d="m 23.028132,41.432967 11.72239,-6.8081"
     style="stroke:#000000;stroke-width:0.08px"
     id="path40" />
  <path
     d="m 27.888982,23.962217 2.76397,-13.27121"
     style="stroke:#000000;stroke-width:0.08px"
     id="path42" />
  <path
     d="M 30.652952,10.691007 19.935432,0.02835677"
     style="stroke:#000000;stroke-width:0.08px"
     id="path44" />
  <path
     d="m 31.342632,7.3795168 -0.68968,3.3114902"
     style="stroke:#000000;stroke-width:0.08px"
     id="path46" />
  <path
     d="M 43.920082,62.217947 33.202562,51.555307"
     style="stroke:#000000;stroke-width:0.08px"
     id="path48" />
  <path
     d="m 48.248932,41.432967 -2.76397,13.27122"
     style="stroke:#000000;stroke-width:0.08px"
     id="path50" />
  <path
     d="m 45.484962,54.704187 -0.82406,3.95674"
     style="stroke:#000000;stroke-width:0.08px"
     id="path52" />
  <path
     d="m 45.484962,54.704187 10.71752,10.66264"
     style="stroke:#000000;stroke-width:0.08px"
     id="path54" />
  <circle
     cx="34.750519"
     cy="34.624866"
     r="3.7795277"
     style="fill:none;stroke:#0000ff;stroke-width:0.08px"
     id="circle56" />
</svg>
