<svg xmlns="http://www.w3.org/2000/svg" width="566" height="566" viewBox="0 0 566 566">
<style type="text/css">
polygon.tile { stroke: #000000; stroke-width:3; stroke-linejoin:round }
polygon.ih1 { fill: #ffff80 }
polygon.ih2 { fill: #8080ff }
polygon.ih3 { fill: #ff8080 }
polygon.ih4 { fill: #80ff80 }
polygon.ih5 { fill: #ff80ff }
polygon.ih6 { fill: #80ffff }
polygon.para {opacity: 0.75; fill: #ff0000; stroke: #ff0000 }
</style>
<polygon class="para" points="59.93426776784209,133.69952040518623 170.5821467238583,133.6995204051862 170.5821467238583,96.81689408651415 59.93426776784209,96.81689408651417 59.93426776784209,133.69952040518623" style="stroke: none"/>
<path d="M 115.25820724585019,115.25820724585019 134.62158606315302,111.84392112268092" style="stroke:#000000;stroke-width: 0.2px"/><path d="M 134.62158606315302,111.84392112268092 151.21876790655546,108.91739015996443" style="stroke:#000000;stroke-width: 0.2px"/><path d="M 151.21876790655546,108.91739015996443 134.62158606315302,74.96129480400887" style="stroke:#000000;stroke-width: 0.2px"/><path d="M 115.25820724585019,78.37558092717813 115.25820724585017,96.81689408651417" style="stroke:#000000;stroke-width: 0.2px"/><path d="M 115.25820724585017,96.81689408651417 115.25820724585019,115.25820724585019" style="stroke:#000000;stroke-width: 0.2px"/><path d="M 151.21876790655546,108.91739015996443 170.5821467238583,105.50310403679516" style="stroke:#000000;stroke-width: 0.2px"/><path d="M 170.5821467238583,105.50310403679516 170.5821467238583,87.06179087745913" style="stroke:#000000;stroke-width: 0.2px"/><path d="M 189.94552554116112,127.35870331930043 170.5821467238583,123.94441719613118" style="stroke:#000000;stroke-width: 0.2px"/><path d="M 170.5821467238583,123.94441719613118 170.5821467238583,105.50310403679516" style="stroke:#000000;stroke-width: 0.2px"/><path d="M 59.93426776784209,105.5031040367952 40.57088895053925,108.91739015996446" style="stroke:#000000;stroke-width: 0.2px"/><path d="M 59.93426776784209,142.38573035546725 59.93426776784209,123.94441719613124" style="stroke:#000000;stroke-width: 0.2px"/><path d="M 59.93426776784209,123.94441719613124 59.93426776784209,105.5031040367952" style="stroke:#000000;stroke-width: 0.2px"/><path d="M 59.93426776784209,123.94441719613124 79.29764658514493,127.35870331930045" style="stroke:#000000;stroke-width: 0.2px"/><path d="M 79.29764658514493,127.35870331930045 95.89482842854734,130.28523428201697" style="stroke:#000000;stroke-width: 0.2px"/><path d="M 95.89482842854734,130.28523428201697 79.29764658514493,164.24132963797254" style="stroke:#000000;stroke-width: 0.2px"/><path d="M 95.89482842854734,130.28523428201697 115.25820724585019,133.6995204051862" style="stroke:#000000;stroke-width: 0.2px"/><path d="M 115.25820724585019,133.6995204051862 115.25820724585019,152.14083356452227" style="stroke:#000000;stroke-width: 0.2px"/><path d="M 151.21876790655546,145.8000164786365 134.62158606315302,111.84392112268092" style="stroke:#000000;stroke-width: 0.2px"/><path d="M 115.25820724585019,115.25820724585019 115.25820724585019,133.6995204051862" style="stroke:#000000;stroke-width: 0.2px"/><path d="M 170.5821467238583,142.38573035546725 170.5821467238583,123.94441719613118" style="stroke:#000000;stroke-width: 0.2px"/><path d="M 115.25820724585017,96.81689408651417 95.89482842854734,93.4026079633449" style="stroke:#000000;stroke-width: 0.2px"/><path d="M 59.93426776784209,105.5031040367952 59.9342677678421,87.06179087745917" style="stroke:#000000;stroke-width: 0.2px"/><path d="M 95.89482842854734,93.4026079633449 79.29764658514493,127.35870331930045" style="stroke:#000000;stroke-width: 0.2px"/><circle cx="115.25820724585019" cy="115.25820724585019" r="9.448818897637796" style="stroke:#0000FF;stroke-width: 0.2px;fill:none"/></svg>

