<svg xmlns="http://www.w3.org/2000/svg" width="566" height="566" viewBox="0 0 566 566">
<style type="text/css">
polygon.tile { stroke: #000000; stroke-width:3; stroke-linejoin:round }
polygon.ih1 { fill: #ffff80 }
polygon.ih2 { fill: #8080ff }
polygon.ih3 { fill: #ff8080 }
polygon.ih4 { fill: #80ff80 }
polygon.ih5 { fill: #ff80ff }
polygon.ih6 { fill: #80ffff }
polygon.para {opacity: 0.75; fill: #ff0000; stroke: #ff0000 }
</style>
<polygon class="para" points="-23.010704449227358,-39.85570922401302 23.010704449227358,-13.285236408004346 23.010704449227358,39.855709224013026 -23.010704449227358,13.285236408004346 -23.010704449227358,-39.85570922401302" style="stroke: none"/>
<path d="M 0.0,0.0 12.272375706254588,0.0" style="stroke:#000000;stroke-width: 0.2px"/><path d="M 12.272375706254588,0.0 3.068093926563647,-26.570472816008678" style="stroke:#000000;stroke-width: 0.2px"/><path d="M 3.068093926563647,-26.570472816008678 -15.340469632818241,-26.570472816008678" style="stroke:#000000;stroke-width: 0.2px"/><path d="M -15.340469632818241,-26.570472816008678 -6.136187853127294,-10.62818912640347" style="stroke:#000000;stroke-width: 0.2px"/><path d="M -6.136187853127294,-10.62818912640347 0.0,0.0" style="stroke:#000000;stroke-width: 0.2px"/><path d="M 12.272375706254588,0.0 30.680939265636482,0.0" style="stroke:#000000;stroke-width: 0.2px"/><path d="M 30.680939265636482,0.0 21.476657485945545,-15.942283689605215" style="stroke:#000000;stroke-width: 0.2px"/><path d="M -6.136187853127294,-10.62818912640347 -24.54475141250919,10.628189126403477" style="stroke:#000000;stroke-width: 0.2px"/><path d="M -24.54475141250919,10.628189126403477 -15.340469632818234,26.570472816008692" style="stroke:#000000;stroke-width: 0.2px"/><path d="M -15.340469632818234,26.570472816008692 -6.136187853127294,10.628189126403477" style="stroke:#000000;stroke-width: 0.2px"/><path d="M -6.136187853127294,10.628189126403477 0.0,0.0" style="stroke:#000000;stroke-width: 0.2px"/><path d="M -15.340469632818241,-26.570472816008678 -24.544751412509182,-10.62818912640347" style="stroke:#000000;stroke-width: 0.2px"/><path d="M -6.136187853127294,10.628189126403477 21.476657485945545,15.942283689605201" style="stroke:#000000;stroke-width: 0.2px"/><path d="M 21.476657485945545,15.942283689605201 30.680939265636482,0.0" style="stroke:#000000;stroke-width: 0.2px"/><path d="M 15.34046963281825,26.570472816008678 21.476657485945545,15.942283689605201" style="stroke:#000000;stroke-width: 0.2px"/><path d="M -15.340469632818234,26.570472816008692 3.068093926563647,26.570472816008692" style="stroke:#000000;stroke-width: 0.2px"/><path d="M 3.068093926563647,26.570472816008692 15.34046963281825,26.570472816008678" style="stroke:#000000;stroke-width: 0.2px"/><path d="M -24.54475141250919,-42.51275650561388 -15.340469632818241,-26.570472816008678" style="stroke:#000000;stroke-width: 0.2px"/><path d="M -15.340469632818241,-26.570472816008678 -6.136187853127294,-42.512756505613886" style="stroke:#000000;stroke-width: 0.2px"/><path d="M 12.272375706254588,53.140945632017356 3.068093926563647,26.570472816008692" style="stroke:#000000;stroke-width: 0.2px"/><path d="M 30.680939265636482,53.140945632017356 21.476657485945545,37.19866194241214" style="stroke:#000000;stroke-width: 0.2px"/><path d="M 21.476657485945545,37.19866194241214 15.34046963281825,26.570472816008678" style="stroke:#000000;stroke-width: 0.2px"/><path d="M 39.88522104532743,15.942283689605201 21.476657485945545,37.19866194241214" style="stroke:#000000;stroke-width: 0.2px"/><path d="M -33.74903319220013,-26.57047281600867 -15.340469632818241,-26.570472816008678" style="stroke:#000000;stroke-width: 0.2px"/><circle cx="0.0" cy="0.0" r="9.448818897637796" style="stroke:#0000FF;stroke-width: 0.2px;fill:none"/></svg>

