<svg xmlns="http://www.w3.org/2000/svg" width="566" height="566" viewBox="0 0 566 566">
<style type="text/css">
polygon.tile { stroke: #000000; stroke-width:3; stroke-linejoin:round }
polygon.ih1 { fill: #ffff80 }
polygon.ih2 { fill: #8080ff }
polygon.ih3 { fill: #ff8080 }
polygon.ih4 { fill: #80ff80 }
polygon.ih5 { fill: #ff80ff }
polygon.ih6 { fill: #80ffff }
polygon.para {opacity: 0.75; fill: #ff0000; stroke: #ff0000 }
</style>
<polygon class="para" points="26.841545438179626,46.49092045259577 26.841545438179626,-15.496973484198573 -26.841545438179626,-46.49092045259573 -26.841545438179633,15.496973484198591 26.841545438179626,46.49092045259577" style="stroke: none"/>
<path d="M 0.0,1.7971321675074857e-14 28.630981800724943,-12.397578787358846" style="stroke:#000000;stroke-width: 0.2px"/><path d="M 28.630981800724943,-12.397578787358846 25.052109075634327,-18.596368181038272" style="stroke:#000000;stroke-width: 0.2px"/><path d="M 3.578872725090615,-30.993946968397147 0.0,1.7971321675074857e-14" style="stroke:#000000;stroke-width: 0.2px"/><path d="M 3.578872725090615,-30.993946968397147 -3.5788727250905974,-30.993946968397157" style="stroke:#000000;stroke-width: 0.2px"/><path d="M -3.5788727250905974,-30.993946968397157 -17.894363625453085,-30.993946968397147" style="stroke:#000000;stroke-width: 0.2px"/><path d="M -17.894363625453085,-30.993946968397147 -25.052109075634327,-18.596368181038272" style="stroke:#000000;stroke-width: 0.2px"/><path d="M -25.052109075634327,-18.596368181038272 0.0,1.7971321675074857e-14" style="stroke:#000000;stroke-width: 0.2px"/><path d="M -25.052109075634327,-18.596368181038272 -28.630981800724943,-12.397578787358855" style="stroke:#000000;stroke-width: 0.2px"/><path d="M -28.630981800724943,12.397578787358892 0.0,1.7971321675074857e-14" style="stroke:#000000;stroke-width: 0.2px"/><path d="M -28.630981800724943,12.397578787358892 -25.052109075634327,18.59636818103833" style="stroke:#000000;stroke-width: 0.2px"/><path d="M -3.578872725090615,30.993946968397182 0.0,1.7971321675074857e-14" style="stroke:#000000;stroke-width: 0.2px"/><path d="M -3.578872725090615,30.993946968397182 3.578872725090615,30.9939469683972" style="stroke:#000000;stroke-width: 0.2px"/><path d="M 3.578872725090615,30.9939469683972 17.894363625453078,30.9939469683972" style="stroke:#000000;stroke-width: 0.2px"/><path d="M 17.894363625453078,30.9939469683972 25.052109075634327,18.59636818103831" style="stroke:#000000;stroke-width: 0.2px"/><path d="M 25.052109075634327,18.59636818103831 0.0,1.7971321675074857e-14" style="stroke:#000000;stroke-width: 0.2px"/><path d="M 25.052109075634327,18.59636818103831 28.63098180072492,12.397578787358892" style="stroke:#000000;stroke-width: 0.2px"/><path d="M 17.894363625453078,30.9939469683972 25.052109075634327,43.39152575575606" style="stroke:#000000;stroke-width: 0.2px"/><path d="M 25.052109075634327,43.39152575575606 53.68309087635925,30.993946968397182" style="stroke:#000000;stroke-width: 0.2px"/><path d="M 25.052109075634327,43.39152575575606 27.825735437579542,48.19558753585762" style="stroke:#000000;stroke-width: 0.2px"/><path d="M -53.68309087635926,-30.993946968397147 -25.052109075634316,-43.39152575575602" style="stroke:#000000;stroke-width: 0.2px"/><path d="M -25.052109075634316,-43.39152575575602 -28.630981800724932,-49.59031514943544" style="stroke:#000000;stroke-width: 0.2px"/><path d="M -17.894363625453085,-30.993946968397147 -25.052109075634316,-43.39152575575602" style="stroke:#000000;stroke-width: 0.2px"/><path d="M -3.5788727250905974,-30.993946968397157 0.0,-61.987893936794315" style="stroke:#000000;stroke-width: 0.2px"/><path d="M 3.578872725090615,30.9939469683972 0.0,61.98789393679435" style="stroke:#000000;stroke-width: 0.2px"/><circle cx="0.0" cy="1.7971321675074857e-14" r="9.448818897637796" style="stroke:#0000FF;stroke-width: 0.2px;fill:none"/></svg>

