<svg xmlns="http://www.w3.org/2000/svg" width="566" height="566" viewBox="0 0 566 566">
<style type="text/css">
polygon.tile { stroke: #000000; stroke-width:3; stroke-linejoin:round }
polygon.ih1 { fill: #ffff80 }
polygon.ih2 { fill: #8080ff }
polygon.ih3 { fill: #ff8080 }
polygon.ih4 { fill: #80ff80 }
polygon.ih5 { fill: #ff80ff }
polygon.ih6 { fill: #80ffff }
polygon.para {opacity: 0.75; fill: #ff0000; stroke: #ff0000 }
</style>
<polygon class="para" points="14.173228346456696,-24.548751603338406 -14.173228346456682,-8.182917201112796 -14.173228346456682,24.548751603338427 14.173228346456696,8.18291720111281 14.173228346456696,-24.548751603338406" style="stroke: none"/>
<path d="M 9.489455306331154e-15,9.489455306331154e-15 18.897637795275593,9.489455306331154e-15" style="stroke:#000000;stroke-width: 0.2px"/><path d="M 18.897637795275593,9.489455306331154e-15 9.448818897637807,-16.3658344022256" style="stroke:#000000;stroke-width: 0.2px"/><path d="M 9.448818897637807,-16.3658344022256 -9.448818897637782,-16.3658344022256" style="stroke:#000000;stroke-width: 0.2px"/><path d="M -9.448818897637782,-16.3658344022256 9.489455306331154e-15,9.489455306331154e-15" style="stroke:#000000;stroke-width: 0.2px"/><path d="M -9.448818897637782,-16.3658344022256 -18.897637795275575,9.489455306331154e-15" style="stroke:#000000;stroke-width: 0.2px"/><path d="M -18.897637795275575,9.489455306331154e-15 -9.448818897637778,16.36583440222563" style="stroke:#000000;stroke-width: 0.2px"/><path d="M -9.448818897637778,16.36583440222563 9.489455306331154e-15,9.489455306331154e-15" style="stroke:#000000;stroke-width: 0.2px"/><path d="M -9.448818897637778,16.36583440222563 9.448818897637807,16.36583440222562" style="stroke:#000000;stroke-width: 0.2px"/><path d="M 9.448818897637807,16.36583440222562 18.897637795275593,9.489455306331154e-15" style="stroke:#000000;stroke-width: 0.2px"/><path d="M 9.448818897637807,-16.3658344022256 18.897637795275603,-32.7316688044512" style="stroke:#000000;stroke-width: 0.2px"/><path d="M -9.448818897637778,16.36583440222563 9.489455306331154e-15,32.73166880445123" style="stroke:#000000;stroke-width: 0.2px"/><path d="M -9.448818897637778,16.36583440222563 -18.897637795275575,32.73166880445123" style="stroke:#000000;stroke-width: 0.2px"/><path d="M -28.34645669291337,16.36583440222562 -9.448818897637778,16.36583440222563" style="stroke:#000000;stroke-width: 0.2px"/><circle cx="9.489455306331154e-15" cy="9.489455306331154e-15" r="9.448818897637796" style="stroke:#0000FF;stroke-width: 0.2px;fill:none"/></svg>

