<svg xmlns="http://www.w3.org/2000/svg" width="566" height="566" viewBox="0 0 566 566">
<style type="text/css">
polygon.tile { stroke: #000000; stroke-width:3; stroke-linejoin:round }
polygon.ih1 { fill: #ffff80 }
polygon.ih2 { fill: #8080ff }
polygon.ih3 { fill: #ff8080 }
polygon.ih4 { fill: #80ff80 }
polygon.ih5 { fill: #ff80ff }
polygon.ih6 { fill: #80ffff }
polygon.para {opacity: 0.75; fill: #ff0000; stroke: #ff0000 }
</style>
<polygon class="para" points="-11.662009696043334,42.81730536048435 11.662009696043324,42.81730536048435 11.662009696043334,-42.81730536048435 -11.662009696043329,-42.81730536048435 -11.662009696043334,42.81730536048435" style="stroke: none"/>
<path d="M 0.0,0.0 23.324019392086658,0.0" style="stroke:#000000;stroke-width: 0.2px"/><path d="M 16.742759716371626,-18.081862350594292 2.4741099463433005,-24.73544300989006" style="stroke:#000000;stroke-width: 0.2px"/><path d="M 2.4741099463433005,-24.73544300989006 -6.58125967571503,-18.081862350594292" style="stroke:#000000;stroke-width: 0.2px"/><path d="M -6.58125967571503,-18.081862350594292 0.0,0.0" style="stroke:#000000;stroke-width: 0.2px"/><path d="M 19.216869662714927,-42.81730536048435 -4.107149729371729,-42.81730536048435" style="stroke:#000000;stroke-width: 0.2px"/><path d="M -4.107149729371729,-42.81730536048435 2.4741099463433005,-24.73544300989006" style="stroke:#000000;stroke-width: 0.2px"/><path d="M -4.1071497293717405,42.817305360484326 -27.4311691214584,42.81730536048435" style="stroke:#000000;stroke-width: 0.2px"/><path d="M -20.84990944574338,24.735443009890044 -6.5812596757150414,18.081862350594292" style="stroke:#000000;stroke-width: 0.2px"/><path d="M -6.5812596757150414,18.081862350594292 2.474109946343289,24.735443009890044" style="stroke:#000000;stroke-width: 0.2px"/><path d="M 2.474109946343289,24.735443009890044 -4.1071497293717405,42.817305360484326" style="stroke:#000000;stroke-width: 0.2px"/><path d="M -23.324019392086658,0.0 0.0,0.0" style="stroke:#000000;stroke-width: 0.2px"/><path d="M 0.0,0.0 -6.5812596757150414,18.081862350594292" style="stroke:#000000;stroke-width: 0.2px"/><path d="M 19.216869662714917,42.817305360484326 -4.1071497293717405,42.817305360484326" style="stroke:#000000;stroke-width: 0.2px"/><path d="M 2.474109946343289,24.735443009890044 16.742759716371616,18.081862350594292" style="stroke:#000000;stroke-width: 0.2px"/><path d="M -6.58125967571503,-18.081862350594292 -20.849909445743357,-24.73544300989006" style="stroke:#000000;stroke-width: 0.2px"/><path d="M -4.107149729371729,-42.81730536048435 -27.431169121458392,-42.81730536048435" style="stroke:#000000;stroke-width: 0.2px"/><circle cx="0.0" cy="0.0" r="9.448818897637796" style="stroke:#0000FF;stroke-width: 0.2px;fill:none"/></svg>

