<svg xmlns="http://www.w3.org/2000/svg" width="566" height="566" viewBox="0 0 566 566">
<style type="text/css">
polygon.tile { stroke: #000000; stroke-width:3; stroke-linejoin:round }
polygon.ih1 { fill: #ffff80 }
polygon.ih2 { fill: #8080ff }
polygon.ih3 { fill: #ff8080 }
polygon.ih4 { fill: #80ff80 }
polygon.ih5 { fill: #ff80ff }
polygon.ih6 { fill: #80ffff }
polygon.para {opacity: 0.75; fill: #ff0000; stroke: #ff0000 }
</style>
<polygon class="para" points="-13.846542682056983,-28.1008804164128 -28.1008804164128,13.846542682057002 13.846542682057002,28.10088041641282 28.10088041641282,-13.846542682056976 -13.846542682056983,-28.1008804164128" style="stroke: none"/>
<path d="M 1.3052210657341655e-14,-11.599213430062312 1.3052210657341655e-14,1.3052210657341655e-14" style="stroke:#000000;stroke-width: 0.2px"/><path d="M 1.3052210657341655e-14,1.3052210657341655e-14 11.599213430062331,1.3052210657341655e-14" style="stroke:#000000;stroke-width: 0.2px"/><path d="M 11.599213430062331,1.3052210657341655e-14 28.10088041641282,-13.846542682056983" style="stroke:#000000;stroke-width: 0.2px"/><path d="M 14.25433773435583,-30.34820966840747 1.3052210657341655e-14,-11.599213430062312" style="stroke:#000000;stroke-width: 0.2px"/><path d="M -11.599213430062312,1.3052210657341655e-14 1.3052210657341655e-14,1.3052210657341655e-14" style="stroke:#000000;stroke-width: 0.2px"/><path d="M 1.3052210657341655e-14,-11.599213430062312 -13.846542682056983,-28.1008804164128" style="stroke:#000000;stroke-width: 0.2px"/><path d="M -30.34820966840747,-14.254337734355811 -11.599213430062312,1.3052210657341655e-14" style="stroke:#000000;stroke-width: 0.2px"/><path d="M 1.3052210657341655e-14,11.599213430062331 1.3052210657341655e-14,1.3052210657341655e-14" style="stroke:#000000;stroke-width: 0.2px"/><path d="M -11.599213430062312,1.3052210657341655e-14 -28.1008804164128,13.846542682057002" style="stroke:#000000;stroke-width: 0.2px"/><path d="M -14.254337734355811,30.348209668407492 1.3052210657341655e-14,11.599213430062331" style="stroke:#000000;stroke-width: 0.2px"/><path d="M 1.3052210657341655e-14,11.599213430062331 13.846542682057002,28.100880416412835" style="stroke:#000000;stroke-width: 0.2px"/><path d="M 30.348209668407492,14.254337734355845 11.599213430062331,1.3052210657341655e-14" style="stroke:#000000;stroke-width: 0.2px"/><circle cx="1.3052210657341655e-14" cy="-11.599213430062312" r="9.448818897637796" style="stroke:#0000FF;stroke-width: 0.2px;fill:none"/></svg>

