<?xml version="1.0" encoding="UTF-8" standalone="no"?>
<!-- Created with Inkscape (http://www.inkscape.org/) -->

<svg
   width="105mm"
   height="148mm"
   viewBox="0 0 105 148"
   version="1.1"
   id="svg1"
   xml:space="preserve"
   inkscape:version="1.4.4 (dcaf3e7d9e, 2026-05-05)"
   sodipodi:docname="02_guided_fill_watercolorish.svg"
   xmlns:inkscape="http://www.inkscape.org/namespaces/inkscape"
   xmlns:sodipodi="http://sodipodi.sourceforge.net/DTD/sodipodi-0.dtd"
   xmlns="http://www.w3.org/2000/svg"
   xmlns:svg="http://www.w3.org/2000/svg"
   xmlns:inkstitch="http://inkstitch.org/namespace"><sodipodi:namedview
     id="namedview1"
     pagecolor="#ffffff"
     bordercolor="#666666"
     borderopacity="1.0"
     inkscape:showpageshadow="2"
     inkscape:pageopacity="0.0"
     inkscape:pagecheckerboard="0"
     inkscape:deskcolor="#d1d1d1"
     inkscape:document-units="mm"
     showgrid="true"
     showguides="true"
     inkscape:zoom="1.9526047"
     inkscape:cx="199.22107"
     inkscape:cy="411.75769"
     inkscape:window-width="1920"
     inkscape:window-height="1131"
     inkscape:window-x="0"
     inkscape:window-y="0"
     inkscape:window-maximized="1"
     inkscape:current-layer="layer3"
     inkscape:lockguides="true"><inkscape:grid
       id="grid1"
       units="mm"
       originx="0"
       originy="0"
       spacingx="1"
       spacingy="1"
       empcolor="#0099e5"
       empopacity="0.30196078"
       color="#0099e5"
       opacity="0.14901961"
       empspacing="5"
       enabled="true"
       visible="true" /><sodipodi:guide
       position="60,-739852.01"
       orientation="0,1"
       id="guide1"
       inkscape:locked="true"
       inkscape:label=""
       inkscape:color="rgb(0,134,229)" /><sodipodi:guide
       position="0,74.000001"
       orientation="0,1"
       id="guide2"
       inkscape:locked="true"
       inkscape:label=""
       inkscape:color="rgb(0,134,229)" /><sodipodi:guide
       position="0,197.33333"
       orientation="0,1"
       id="guide10"
       inkscape:locked="true"
       inkscape:label=""
       inkscape:color="rgb(224,27,36)" /></sodipodi:namedview><metadata
     id="metadata18"><inkstitch:min_stitch_len_mm>0.3</inkstitch:min_stitch_len_mm><inkstitch:collapse_len_mm>11.0</inkstitch:collapse_len_mm><inkstitch:inkstitch_svg_version>4</inkstitch:inkstitch_svg_version><inkstitch:min_satin_stroke_width_mm>1.0</inkstitch:min_satin_stroke_width_mm></metadata><defs
     id="defs1"><inkscape:path-effect
   effect="offset"
   id="path-effect17"
   is_visible="true"
   lpeversion="1.3"
   linejoin_type="miter"
   unit="mm"
   offset="10"
   miter_limit="4"
   attempt_force_join="false"
   update_on_knot_move="true" /><inkscape:path-effect
   center_point="52.529609,111.277"
   end_point="150.0296,111.277"
   start_point="-44.970382,111.277"
   effect="mirror_symmetry"
   id="path-effect21"
   is_visible="true"
   lpeversion="1.2"
   lpesatellites=""
   mode="Y"
   discard_orig_path="false"
   fuse_paths="false"
   oposite_fuse="false"
   split_items="false"
   split_open="false"
   link_styles="false" /><inkscape:path-effect
   effect="offset"
   id="path-effect2"
   is_visible="true"
   lpeversion="1.3"
   linejoin_type="miter"
   unit="mm"
   offset="4"
   miter_limit="4"
   attempt_force_join="false"
   update_on_knot_move="true" /><inkscape:path-effect
   effect="offset"
   id="path-effect7"
   is_visible="true"
   lpeversion="1.3"
   linejoin_type="miter"
   unit="mm"
   offset="4"
   miter_limit="4"
   attempt_force_join="false"
   update_on_knot_move="true" /><inkscape:path-effect
   center_point="53.000002,110.79823"
   end_point="53.000002,133.01515"
   start_point="53.000002,88.581308"
   effect="mirror_symmetry"
   id="path-effect6"
   is_visible="true"
   lpeversion="1.2"
   lpesatellites=""
   mode="free"
   discard_orig_path="false"
   fuse_paths="false"
   oposite_fuse="false"
   split_items="false"
   split_open="false"
   link_styles="false" /><symbol
   id="inkstitch_ignore_layer"
   transform="scale(0.25, 0.25)"
   style="opacity:0.7">
      <title
   id="title9694">Ignore entire layer when generating stitch plan</title>
      <path
   inkscape:connector-curvature="0"
   style="opacity:1;vector-effect:none;fill:#fafafa;fill-opacity:1;fill-rule:evenodd;stroke:#ff0000;stroke-width:1.06501234;stroke-linecap:round;stroke-linejoin:miter;stroke-miterlimit:4;stroke-dasharray:3.19503705, 3.19503705;stroke-dashoffset:0;stroke-opacity:1"
   d="M 9.2465269,-4.9265995e-6 C 9.246525,5.1067241 5.1067028,9.2465451 -2.615882e-5,9.2465451 -5.1067554,9.2465451 -9.2465782,5.1067241 -9.2465801,-4.9265995e-6 -9.24658,-2.4523429 -8.2723922,-4.8042399 -6.538327,-6.5383059 c 1.7340653,-1.734065 4.0859624,-2.708252 6.53830084118,-2.708252 5.10673015882,0 9.24655285882,4.139823 9.24655305882,9.2465529734005 0,0 0,0 0,0"
   id="inkstitch_path25368-7"
   inkstitch:max_stitch_length_mm="3" />
      <path
   sodipodi:nodetypes="ccccc"
   inkscape:connector-curvature="0"
   style="color:#000000;fill:#d5d5d5;fill-opacity:1;fill-rule:evenodd;stroke:#5a5a5a;stroke-width:0.63330007;stroke-linecap:square;stroke-linejoin:round;stroke-miterlimit:0;stroke-opacity:1"
   d="M 4,4.452769 1.46667,1.286102 H -5.5 l 2.53333,3.166667 z"
   id="use5800"
   inkstitch:max_stitch_length_mm="3" />
      <path
   sodipodi:nodetypes="ccccc"
   inkscape:connector-curvature="0"
   style="color:#000000;opacity:0.5;fill:#d5d5d5;fill-opacity:1;fill-rule:evenodd;stroke:#858585;stroke-width:0.63339424;stroke-linecap:square;stroke-linejoin:round;stroke-miterlimit:0;stroke-opacity:1"
   d="M 4,2.552769 1.46667,-0.613898 H -5.5 l 2.53333,3.166667 z"
   id="use5864"
   inkstitch:max_stitch_length_mm="3" />
      <g
   id="g5771">
        <path
   sodipodi:nodetypes="ccccccccc"
   inkscape:connector-curvature="0"
   style="fill:#aa0000;fill-rule:evenodd;stroke:#aa0000;stroke-width:1px"
   d="m -1.0666699,-5.0472339 h 4.4333333 l 0.6333333,0.6333333 V 0.01943274 L 3.3666634,0.65276607 H -1.0666699 L -1.7000032,0.01943274 V -4.4139006 Z"
   id="path8011"
   inkstitch:max_stitch_length_mm="3" />
        <path
   inkscape:connector-curvature="0"
   id="path8023"
   d="m -0.43333658,-3.8755672 c 0,0 3.16666668,3.16666661 3.16666668,3.16666661"
   style="fill:none;stroke:#ffffff;stroke-width:1.70000005" />
        <path
   inkscape:connector-curvature="0"
   id="path8025"
   d="m 2.7333301,-3.8755672 c 0,0 -3.16666668,3.16666661 -3.16666668,3.16666661"
   style="fill:none;stroke:#ffffff;stroke-width:1.79999995;stroke-linejoin:round" />
      </g>
    </symbol>
    <marker
   refX="10"
   refY="5"
   orient="auto"
   id="inkstitch-guide-line-marker"
   markerUnits="userSpaceOnUse"
   markerWidth="0.1"
   viewBox="0 0 1 1">
     <g
   id="inkstitch-guide-line-group">
       <path
   style="fill:#fafafa;fill-opacity:0.8;stroke:#ff5500;stroke-width:0.5;stroke-linecap:round;stroke-linejoin:miter;stroke-miterlimit:4;stroke-dasharray:1, 1;stroke-dashoffset:0;stroke-opacity:1"
   d="M 10.12911,5.2916678 A 4.8374424,4.8374426 0 0 1 5.2916656,10.12911 4.8374424,4.8374426 0 0 1 0.45422399,5.2916678 4.8374424,4.8374426 0 0 1 5.2916656,0.45422399 4.8374424,4.8374426 0 0 1 10.12911,5.2916678 Z"
   id="inkstitch-guide-line-marker-circle"
   inkstitch:max_stitch_length_mm="3" />
       <path
   style="fill:none;stroke:#000000;stroke-width:0.4;stroke-linecap:round;stroke-miterlimit:4"
   id="inkstitch-guide-line-marker-spiral"
   d="M 1.7506092,6.2728168 3.4558825,5.2833684 7.1038696,7.400035 8.8193256,6.4046783 M 1.7963222,4.129626 3.4558825,3.1667016 7.1038696,5.2833682 8.8475785,4.2716184 M 1.6318889,5.2833683 3.4558825,4.225035 7.1038696,6.3417016 8.9558408,5.2677331" />
     </g>
    </marker><marker
   refX="10"
   refY="5"
   orient="auto"
   id="inkstitch-guide-line-marker-1"
   markerUnits="userSpaceOnUse"
   markerWidth="0.1"
   viewBox="0 0 1 1"><g
     id="inkstitch-guide-line-group-5"><path
       style="fill:#fafafa;fill-opacity:0.8;stroke:#ff5500;stroke-width:0.5;stroke-linecap:round;stroke-linejoin:miter;stroke-miterlimit:4;stroke-dasharray:1, 1;stroke-dashoffset:0;stroke-opacity:1"
       d="M 10.12911,5.2916678 A 4.8374424,4.8374426 0 0 1 5.2916656,10.12911 4.8374424,4.8374426 0 0 1 0.45422399,5.2916678 4.8374424,4.8374426 0 0 1 5.2916656,0.45422399 4.8374424,4.8374426 0 0 1 10.12911,5.2916678 Z"
       id="inkstitch-guide-line-marker-circle-9"
       inkstitch:max_stitch_length_mm="3" /><path
       style="fill:none;stroke:#000000;stroke-width:0.4;stroke-linecap:round;stroke-miterlimit:4"
       id="inkstitch-guide-line-marker-spiral-7"
       d="M 1.7506092,6.2728168 3.4558825,5.2833684 7.1038696,7.400035 8.8193256,6.4046783 M 1.7963222,4.129626 3.4558825,3.1667016 7.1038696,5.2833682 8.8475785,4.2716184 M 1.6318889,5.2833683 3.4558825,4.225035 7.1038696,6.3417016 8.9558408,5.2677331" /></g></marker><marker
   refX="10"
   refY="5"
   orient="auto"
   id="marker2"
   markerUnits="userSpaceOnUse"
   markerWidth="0.1"
   viewBox="0 0 1 1"><g
     id="g2-5"><path
       style="fill:#fafafa;fill-opacity:0.8;stroke:#ff5500;stroke-width:0.5;stroke-linecap:round;stroke-linejoin:miter;stroke-miterlimit:4;stroke-dasharray:1, 1;stroke-dashoffset:0;stroke-opacity:1"
       d="M 10.12911,5.2916678 A 4.8374424,4.8374426 0 0 1 5.2916656,10.12911 4.8374424,4.8374426 0 0 1 0.45422399,5.2916678 4.8374424,4.8374426 0 0 1 5.2916656,0.45422399 4.8374424,4.8374426 0 0 1 10.12911,5.2916678 Z"
       id="path1"
       inkstitch:max_stitch_length_mm="3" /><path
       style="fill:none;stroke:#000000;stroke-width:0.4;stroke-linecap:round;stroke-miterlimit:4"
       id="path2-6"
       d="M 1.7506092,6.2728168 3.4558825,5.2833684 7.1038696,7.400035 8.8193256,6.4046783 M 1.7963222,4.129626 3.4558825,3.1667016 7.1038696,5.2833682 8.8475785,4.2716184 M 1.6318889,5.2833683 3.4558825,4.225035 7.1038696,6.3417016 8.9558408,5.2677331" /></g></marker><marker
   refX="10"
   refY="5"
   orient="auto"
   id="marker4"
   markerUnits="userSpaceOnUse"
   markerWidth="0.1"
   viewBox="0 0 1 1"><g
     id="g4"><path
       style="fill:#fafafa;fill-opacity:0.8;stroke:#ff5500;stroke-width:0.5;stroke-linecap:round;stroke-linejoin:miter;stroke-miterlimit:4;stroke-dasharray:1, 1;stroke-dashoffset:0;stroke-opacity:1"
       d="M 10.12911,5.2916678 A 4.8374424,4.8374426 0 0 1 5.2916656,10.12911 4.8374424,4.8374426 0 0 1 0.45422399,5.2916678 4.8374424,4.8374426 0 0 1 5.2916656,0.45422399 4.8374424,4.8374426 0 0 1 10.12911,5.2916678 Z"
       id="path3"
       inkstitch:max_stitch_length_mm="3" /><path
       style="fill:none;stroke:#000000;stroke-width:0.4;stroke-linecap:round;stroke-miterlimit:4"
       id="path4"
       d="M 1.7506092,6.2728168 3.4558825,5.2833684 7.1038696,7.400035 8.8193256,6.4046783 M 1.7963222,4.129626 3.4558825,3.1667016 7.1038696,5.2833682 8.8475785,4.2716184 M 1.6318889,5.2833683 3.4558825,4.225035 7.1038696,6.3417016 8.9558408,5.2677331" /></g></marker><marker
   refX="10"
   refY="5"
   orient="auto"
   id="marker6"
   markerUnits="userSpaceOnUse"
   markerWidth="0.1"
   viewBox="0 0 1 1"><g
     id="g6"><path
       style="fill:#fafafa;fill-opacity:0.8;stroke:#ff5500;stroke-width:0.5;stroke-linecap:round;stroke-linejoin:miter;stroke-miterlimit:4;stroke-dasharray:1, 1;stroke-dashoffset:0;stroke-opacity:1"
       d="M 10.12911,5.2916678 A 4.8374424,4.8374426 0 0 1 5.2916656,10.12911 4.8374424,4.8374426 0 0 1 0.45422399,5.2916678 4.8374424,4.8374426 0 0 1 5.2916656,0.45422399 4.8374424,4.8374426 0 0 1 10.12911,5.2916678 Z"
       id="path5-3"
       inkstitch:max_stitch_length_mm="3" /><path
       style="fill:none;stroke:#000000;stroke-width:0.4;stroke-linecap:round;stroke-miterlimit:4"
       id="path6"
       d="M 1.7506092,6.2728168 3.4558825,5.2833684 7.1038696,7.400035 8.8193256,6.4046783 M 1.7963222,4.129626 3.4558825,3.1667016 7.1038696,5.2833682 8.8475785,4.2716184 M 1.6318889,5.2833683 3.4558825,4.225035 7.1038696,6.3417016 8.9558408,5.2677331" /></g></marker><symbol
   id="inkstitch_autoroute_start"
   style="display:inline;opacity:0.7"
   transform="scale(0.25, 0.25)">
      <title
   id="inkstitch_title9427-3">Running stitch starting point</title>
      <path
   style="opacity:1;vector-effect:none;fill:#fafafa;fill-opacity:1;fill-rule:evenodd;stroke:#003399;stroke-width:1.06500006;stroke-linecap:round;stroke-linejoin:miter;stroke-miterlimit:4;stroke-dasharray:3.19500017, 3.19500017;stroke-dashoffset:0;stroke-opacity:1"
   d="M 9.2201108,0.05852023 A 9.2576327,9.2122261 0 0 1 -0.03752532,9.2707454 9.2576327,9.2122261 0 0 1 -9.2951565,0.05852023 9.2576327,9.2122261 0 0 1 -0.03752532,-9.1537082 9.2576327,9.2122261 0 0 1 9.2201108,0.05852023 Z"
   id="inkstitch-autorun_start-circle"
   inkstitch:max_stitch_length_mm="3" />
      <path
   style="fill:#000000"
   id="inkstitch-autorun_start-path"
   d="M -3.8159516,-5.6184574 c -0.3237427,0.020819 -0.5868063,0.2896236 -0.5907925,0.6167873 -0.00301,0.2444103 0.1384108,0.4575508 0.3447536,0.5613983 l -0.084402,6.772037 c -0.1244867,-0.03501 -0.2442949,-0.092709 -0.3519231,-0.1734001 -0.018852,-0.014824 -0.04551,-0.014824 -0.064361,0 -0.018491,0.013861 -0.025495,0.038228 -0.017164,0.05968 l 0.6437207,1.8106215 c 0.016803,0.044746 0.080472,0.044746 0.097275,0 l 0.6923582,-1.7949729 c 0.01924,-0.049558 -0.04036,-0.092132 -0.081524,-0.058277 -0.1120849,0.077886 -0.2339971,0.131597 -0.3605046,0.1634443 l 0.078701,-6.7706068 c 0.2092494,-0.097934 0.3546084,-0.3086274 0.3576257,-0.5542753 0.00418,-0.34328 -0.2710359,-0.6282831 -0.6165645,-0.632436 -0.016194,-1.924e-4 -0.031281,-0.00102 -0.047198,-3e-7 z m 0.9498575,1.1369602 c -0.042382,0.00503 -0.060846,0.055939 -0.031474,0.086686 l 1.2703061,1.4510604 c 0.035433,0.033525 0.093621,0.00416 0.087254,-0.044058 -0.016443,-0.1368774 -0.00712,-0.2718022 0.025745,-0.3993565 l 5.8279214,3.19201934 c -0.00955,0.23010929 0.1105352,0.45752327 0.3261511,0.57558932 0.3026489,0.1656996 0.6815068,0.0590468 0.8482917,-0.24160502 0.1667849,-0.30067931 0.059461,-0.68276459 -0.2431877,-0.84846414 -0.216862,-0.11872613 -0.4758284,-0.0980447 -0.6666138,0.0341025 l -5.8250435,-3.1905893 c 0.090438,-0.093452 0.1986471,-0.1708699 0.32186037,-0.2274139 0.044292,-0.022937 0.033578,-0.088721 -0.015724,-0.096642 L -2.8489315,-4.4800672 c -0.00556,-0.00146 -0.011405,-0.00189 -0.017162,-0.00146 z m 6.9651605,5.10354566 -1.909736,0.3126702 c -0.047392,0.011523 -0.054063,0.075768 -0.01,0.096642 0.1244589,0.057067 0.2344955,0.1342923 0.3261511,0.2273865 L -3.4211257,4.5999927 C -3.6139873,4.4704034 -3.8733966,4.4493919 -4.0877673,4.5701537 -4.38834,4.7394835 -4.4899335,5.1199736 -4.3194944,5.4186179 c 0.170439,0.2986167 0.5534215,0.4066446 0.8540219,0.2373147 0.2139276,-0.1204863 0.3297497,-0.3481203 0.3175695,-0.5769918 L 2.778711,1.7376949 c 0.03333,0.1260415 0.043323,0.2590963 0.027184,0.3936635 -0.00791,0.053024 0.060763,0.081379 0.092985,0.038365 L 4.1477039,0.70304186 c 0.026048,-0.036523 -0.00388,-0.086439 -0.048637,-0.0809934 Z"
   inkstitch:max_stitch_length_mm="3" />
    </symbol>
    <symbol
   id="inkstitch_starting_point"
   transform="scale(0.25, 0.25)"
   style="opacity:0.7">
      <title
   id="inkstitch_title9432">Starting point</title>
      <path
   id="inkstitch_circle13166-6"
   d="m 9.2465269,-2.6e-6 c -1.9e-6,5.106729 -4.1398247,9.24655 -9.246554026709,9.24655 C -5.106756,9.2465474 -9.2465782,5.1067264 -9.2465801,-2.6e-6 c 2e-7,-5.10673 4.1398229,-9.246553 9.246552973291,-9.246553 2.452338526709,0 4.804235626709,0.974187 6.538300926709,2.708252 1.7340652,1.734066 2.708253,4.085963 2.7082531,6.538301 0,0 0,0 0,0"
   style="opacity:1;vector-effect:none;fill:#fafafa;fill-opacity:1;fill-rule:evenodd;stroke:#003399;stroke-width:1.06501234;stroke-linecap:round;stroke-linejoin:miter;stroke-miterlimit:4;stroke-dasharray:3.19503705, 3.19503705;stroke-dashoffset:0;stroke-opacity:1"
   inkscape:connector-curvature="0"
   inkstitch:max_stitch_length_mm="3" />
      <path
   style="opacity:1;vector-effect:none;fill:#000000;fill-opacity:1;fill-rule:evenodd;stroke:none;stroke-width:2.74180555;stroke-linecap:butt;stroke-linejoin:miter;stroke-miterlimit:4;stroke-dasharray:none;stroke-dashoffset:0;stroke-opacity:1"
   d="m 6.5728129,0.0035574 c 0,0 -10.4514,6.03412 -10.4514,6.03412 0,0 0,-12.06823 0,-12.06823 0,0 10.4514,6.03411 10.4514,6.03411"
   id="inkstitch_path4183"
   inkscape:connector-curvature="0"
   inkstitch:max_stitch_length_mm="3" />
    </symbol>
    <symbol
   id="inkstitch_ending_point"
   transform="scale(0.25, 0.25)"
   style="opacity:0.7">
      <title
   id="inkstitch_title9427">Ending point</title>
      <path
   id="inkstitch_circle13166"
   d="m 9.220113,0.0792309 c -1.9e-6,5.106729 -4.1398241,9.24655 -9.246553,9.24655 -5.1067293,0 -9.2465521,-4.139821 -9.246554,-9.24655 1e-7,-2.452338 0.9741879,-4.804235 2.7082531,-6.538301 1.7340653,-1.734065 4.0859624,-2.708252 6.5383009,-2.708252 5.1067301,0 9.2465528,4.139823 9.246553,9.246553 0,0 0,0 0,0"
   style="opacity:1;vector-effect:none;fill:#fafafa;fill-opacity:1;fill-rule:evenodd;stroke:#003399;stroke-width:1.06500006;stroke-linecap:round;stroke-linejoin:miter;stroke-miterlimit:4;stroke-dasharray:3.19500017, 3.19500017;stroke-dashoffset:0;stroke-opacity:1"
   inkscape:connector-curvature="0"
   inkstitch:max_stitch_length_mm="3" />
      <path
   style="opacity:1;fill:#000000;fill-opacity:1;fill-rule:nonzero;stroke:none;stroke-width:2.27154255;stroke-linecap:round;stroke-linejoin:round;stroke-miterlimit:4;stroke-dasharray:4.81866985, 4.81866985;stroke-dashoffset:0;stroke-opacity:1;paint-order:fill markers stroke"
   d="m -4.570439,-4.5704391 c 0,0 9.140878,0 9.140878,0 0,0 0,9.14087 0,9.14087 0,0 -9.140878,0 -9.140878,0 0,0 0,-9.14087 0,-9.14087"
   id="inkstitch_rect5371-2"
   inkscape:connector-curvature="0"
   inkstitch:max_stitch_length_mm="3" />
    </symbol>
    <filter
   style="color-interpolation-filters:sRGB"
   id="realistic-stitch-filter"
   x="0"
   width="1"
   y="0"
   height="1"
   inkscape:auto-region="false"><feGaussianBlur
     edgeMode="none"
     stdDeviation="0.9"
     in="SourceAlpha"
     id="feGaussianBlur29" /><feSpecularLighting
     result="result2"
     surfaceScale="4.29"
     specularConstant="0.65"
     specularExponent="1.6"
     id="feSpecularLighting29"><feDistantLight
       azimuth="154"
       elevation="112"
       id="feDistantLight29" /></feSpecularLighting><feComposite
     in2="SourceAlpha"
     operator="atop"
     id="feComposite29" /><feComposite
     in2="SourceGraphic"
     operator="arithmetic"
     result="result3"
     k1="0"
     k2="0.8"
     k3="1.2"
     k4="0"
     id="feComposite30" /></filter><marker
   refX="10"
   refY="5"
   orient="auto"
   id="inkstitch-guide-line-marker-1-5"
   markerUnits="userSpaceOnUse"
   markerWidth="0.1"
   viewBox="0 0 1 1"><g
     id="inkstitch-guide-line-group-5-3"><path
       style="fill:#fafafa;fill-opacity:0.8;stroke:#ff5500;stroke-width:0.5;stroke-linecap:round;stroke-linejoin:miter;stroke-miterlimit:4;stroke-dasharray:1, 1;stroke-dashoffset:0;stroke-opacity:1"
       d="M 10.12911,5.2916678 A 4.8374424,4.8374426 0 0 1 5.2916656,10.12911 4.8374424,4.8374426 0 0 1 0.45422399,5.2916678 4.8374424,4.8374426 0 0 1 5.2916656,0.45422399 4.8374424,4.8374426 0 0 1 10.12911,5.2916678 Z"
       id="inkstitch-guide-line-marker-circle-9-8"
       inkstitch:max_stitch_length_mm="3" /><path
       style="fill:none;stroke:#000000;stroke-width:0.4;stroke-linecap:round;stroke-miterlimit:4"
       id="inkstitch-guide-line-marker-spiral-7-8"
       d="M 1.7506092,6.2728168 3.4558825,5.2833684 7.1038696,7.400035 8.8193256,6.4046783 M 1.7963222,4.129626 3.4558825,3.1667016 7.1038696,5.2833682 8.8475785,4.2716184 M 1.6318889,5.2833683 3.4558825,4.225035 7.1038696,6.3417016 8.9558408,5.2677331" /></g></marker><marker
   refX="10"
   refY="5"
   orient="auto"
   id="marker2-3"
   markerUnits="userSpaceOnUse"
   markerWidth="0.1"
   viewBox="0 0 1 1"><g
     id="g2"><path
       style="fill:#fafafa;fill-opacity:0.8;stroke:#ff5500;stroke-width:0.5;stroke-linecap:round;stroke-linejoin:miter;stroke-miterlimit:4;stroke-dasharray:1, 1;stroke-dashoffset:0;stroke-opacity:1"
       d="M 10.12911,5.2916678 A 4.8374424,4.8374426 0 0 1 5.2916656,10.12911 4.8374424,4.8374426 0 0 1 0.45422399,5.2916678 4.8374424,4.8374426 0 0 1 5.2916656,0.45422399 4.8374424,4.8374426 0 0 1 10.12911,5.2916678 Z"
       id="path1-1"
       inkstitch:max_stitch_length_mm="3" /><path
       style="fill:none;stroke:#000000;stroke-width:0.4;stroke-linecap:round;stroke-miterlimit:4"
       id="path2"
       d="M 1.7506092,6.2728168 3.4558825,5.2833684 7.1038696,7.400035 8.8193256,6.4046783 M 1.7963222,4.129626 3.4558825,3.1667016 7.1038696,5.2833682 8.8475785,4.2716184 M 1.6318889,5.2833683 3.4558825,4.225035 7.1038696,6.3417016 8.9558408,5.2677331" /></g></marker><marker
   refX="10"
   refY="5"
   orient="auto"
   id="marker4-8"
   markerUnits="userSpaceOnUse"
   markerWidth="0.1"
   viewBox="0 0 1 1"><g
     id="g4-9"><path
       style="fill:#fafafa;fill-opacity:0.8;stroke:#ff5500;stroke-width:0.5;stroke-linecap:round;stroke-linejoin:miter;stroke-miterlimit:4;stroke-dasharray:1, 1;stroke-dashoffset:0;stroke-opacity:1"
       d="M 10.12911,5.2916678 A 4.8374424,4.8374426 0 0 1 5.2916656,10.12911 4.8374424,4.8374426 0 0 1 0.45422399,5.2916678 4.8374424,4.8374426 0 0 1 5.2916656,0.45422399 4.8374424,4.8374426 0 0 1 10.12911,5.2916678 Z"
       id="path3-6"
       inkstitch:max_stitch_length_mm="3" /><path
       style="fill:none;stroke:#000000;stroke-width:0.4;stroke-linecap:round;stroke-miterlimit:4"
       id="path4-4"
       d="M 1.7506092,6.2728168 3.4558825,5.2833684 7.1038696,7.400035 8.8193256,6.4046783 M 1.7963222,4.129626 3.4558825,3.1667016 7.1038696,5.2833682 8.8475785,4.2716184 M 1.6318889,5.2833683 3.4558825,4.225035 7.1038696,6.3417016 8.9558408,5.2677331" /></g></marker><marker
   refX="10"
   refY="5"
   orient="auto"
   id="marker6-3"
   markerUnits="userSpaceOnUse"
   markerWidth="0.1"
   viewBox="0 0 1 1"><g
     id="g6-3"><path
       style="fill:#fafafa;fill-opacity:0.8;stroke:#ff5500;stroke-width:0.5;stroke-linecap:round;stroke-linejoin:miter;stroke-miterlimit:4;stroke-dasharray:1, 1;stroke-dashoffset:0;stroke-opacity:1"
       d="M 10.12911,5.2916678 A 4.8374424,4.8374426 0 0 1 5.2916656,10.12911 4.8374424,4.8374426 0 0 1 0.45422399,5.2916678 4.8374424,4.8374426 0 0 1 5.2916656,0.45422399 4.8374424,4.8374426 0 0 1 10.12911,5.2916678 Z"
       id="path5"
       inkstitch:max_stitch_length_mm="3" /><path
       style="fill:none;stroke:#000000;stroke-width:0.4;stroke-linecap:round;stroke-miterlimit:4"
       id="path6-3"
       d="M 1.7506092,6.2728168 3.4558825,5.2833684 7.1038696,7.400035 8.8193256,6.4046783 M 1.7963222,4.129626 3.4558825,3.1667016 7.1038696,5.2833682 8.8475785,4.2716184 M 1.6318889,5.2833683 3.4558825,4.225035 7.1038696,6.3417016 8.9558408,5.2677331" /></g></marker><marker
   refX="10"
   refY="5"
   orient="auto"
   id="inkstitch-guide-line-marker-8"
   markerUnits="userSpaceOnUse"
   markerWidth="0.1"
   viewBox="0 0 1 1">
     <g
   id="inkstitch-guide-line-group-8">
       <path
   style="fill:#fafafa;fill-opacity:0.8;stroke:#ff5500;stroke-width:0.5;stroke-linecap:round;stroke-linejoin:miter;stroke-miterlimit:4;stroke-dasharray:1, 1;stroke-dashoffset:0;stroke-opacity:1"
   d="M 10.12911,5.2916678 A 4.8374424,4.8374426 0 0 1 5.2916656,10.12911 4.8374424,4.8374426 0 0 1 0.45422399,5.2916678 4.8374424,4.8374426 0 0 1 5.2916656,0.45422399 4.8374424,4.8374426 0 0 1 10.12911,5.2916678 Z"
   id="inkstitch-guide-line-marker-circle-8"
   inkstitch:max_stitch_length_mm="3" />
       <path
   style="fill:none;stroke:#000000;stroke-width:0.4;stroke-linecap:round;stroke-miterlimit:4"
   id="inkstitch-guide-line-marker-spiral-9"
   d="M 1.7506092,6.2728168 3.4558825,5.2833684 7.1038696,7.400035 8.8193256,6.4046783 M 1.7963222,4.129626 3.4558825,3.1667016 7.1038696,5.2833682 8.8475785,4.2716184 M 1.6318889,5.2833683 3.4558825,4.225035 7.1038696,6.3417016 8.9558408,5.2677331" />
     </g>
    </marker><marker
   refX="10"
   refY="5"
   orient="auto"
   id="inkstitch-pattern-marker"
   markerUnits="userSpaceOnUse"
   markerWidth="0.1"
   viewBox="0 0 1 1">
      <g
   id="inkstitch-pattern-group">
        <path
   style="fill:#fafafa;fill-opacity:0.8;stroke:#ff5500;stroke-width:0.5;stroke-linecap:round;stroke-linejoin:miter;stroke-miterlimit:4;stroke-dasharray:1, 1;stroke-dashoffset:0;stroke-opacity:1"
   d="M 10.12911,5.2916678 A 4.8374424,4.8374426 0 0 1 5.2916656,10.12911 4.8374424,4.8374426 0 0 1 0.45422399,5.2916678 4.8374424,4.8374426 0 0 1 5.2916656,0.45422399 4.8374424,4.8374426 0 0 1 10.12911,5.2916678 Z"
   id="inkstitch-pattern-marker-circle"
   inkstitch:max_stitch_length_mm="3" />
        <path
   style="fill:none;stroke:#000000;stroke-width:0.4;stroke-linecap:round;stroke-miterlimit:4"
   id="inkstitch-pattern-marker-spiral"
   d="M 4.9673651,5.7245662 C 4.7549848,5.7646159 4.6247356,5.522384 4.6430021,5.3419847 4.6765851,5.0103151 5.036231,4.835347 5.3381858,4.8987426 5.7863901,4.9928495 6.0126802,5.4853625 5.9002872,5.9065088 5.7495249,6.4714237 5.1195537,6.7504036 4.5799191,6.5874894 3.898118,6.3816539 3.5659013,5.6122905 3.7800789,4.9545192 4.0402258,4.1556558 4.9498996,3.7699484 5.7256318,4.035839 6.6416744,4.3498087 7.0810483,5.4003986 6.7631909,6.2939744 6.395633,7.3272552 5.2038143,7.8204128 4.1924535,7.4503931 3.0418762,7.0294421 2.4948761,5.6961604 2.9171752,4.567073 3.3914021,3.2991406 4.8663228,2.6982592 6.1130974,3.1729158 7.4983851,3.7003207 8.1531869,5.3169977 7.6260947,6.6814205 7.0456093,8.1841025 5.2870784,8.8928844 3.8050073,8.3132966 2.1849115,7.6797506 1.4221671,5.7793073 2.0542715,4.1796074 2.7408201,2.4420977 4.7832541,1.6253548 6.5005435,2.310012 8.3554869,3.0495434 9.2262638,5.2339874 8.4890181,7.0688861 8.4256397,7.2266036 8.3515789,7.379984 8.2675333,7.5277183" />
      </g>
    </marker><marker
   refX="10"
   refY="5"
   orient="auto"
   id="marker2-2"
   markerUnits="userSpaceOnUse"
   markerWidth="0.1"
   viewBox="0 0 1 1">
      <g
   id="g2-54">
        <path
   style="fill:#fafafa;fill-opacity:0.8;stroke:#ff5500;stroke-width:0.5;stroke-linecap:round;stroke-linejoin:miter;stroke-miterlimit:4;stroke-dasharray:1, 1;stroke-dashoffset:0;stroke-opacity:1"
   d="M 10.12911,5.2916678 A 4.8374424,4.8374426 0 0 1 5.2916656,10.12911 4.8374424,4.8374426 0 0 1 0.45422399,5.2916678 4.8374424,4.8374426 0 0 1 5.2916656,0.45422399 4.8374424,4.8374426 0 0 1 10.12911,5.2916678 Z"
   id="path1-0"
   inkstitch:max_stitch_length_mm="3" />
        <path
   style="fill:none;stroke:#000000;stroke-width:0.4;stroke-linecap:round;stroke-miterlimit:4"
   id="path2-5"
   d="M 4.9673651,5.7245662 C 4.7549848,5.7646159 4.6247356,5.522384 4.6430021,5.3419847 4.6765851,5.0103151 5.036231,4.835347 5.3381858,4.8987426 5.7863901,4.9928495 6.0126802,5.4853625 5.9002872,5.9065088 5.7495249,6.4714237 5.1195537,6.7504036 4.5799191,6.5874894 3.898118,6.3816539 3.5659013,5.6122905 3.7800789,4.9545192 4.0402258,4.1556558 4.9498996,3.7699484 5.7256318,4.035839 6.6416744,4.3498087 7.0810483,5.4003986 6.7631909,6.2939744 6.395633,7.3272552 5.2038143,7.8204128 4.1924535,7.4503931 3.0418762,7.0294421 2.4948761,5.6961604 2.9171752,4.567073 3.3914021,3.2991406 4.8663228,2.6982592 6.1130974,3.1729158 7.4983851,3.7003207 8.1531869,5.3169977 7.6260947,6.6814205 7.0456093,8.1841025 5.2870784,8.8928844 3.8050073,8.3132966 2.1849115,7.6797506 1.4221671,5.7793073 2.0542715,4.1796074 2.7408201,2.4420977 4.7832541,1.6253548 6.5005435,2.310012 8.3554869,3.0495434 9.2262638,5.2339874 8.4890181,7.0688861 8.4256397,7.2266036 8.3515789,7.379984 8.2675333,7.5277183" />
      </g>
    </marker><marker
   refX="10"
   refY="5"
   orient="auto"
   id="marker4-9"
   markerUnits="userSpaceOnUse"
   markerWidth="0.1"
   viewBox="0 0 1 1">
      <g
   id="g4-4">
        <path
   style="fill:#fafafa;fill-opacity:0.8;stroke:#ff5500;stroke-width:0.5;stroke-linecap:round;stroke-linejoin:miter;stroke-miterlimit:4;stroke-dasharray:1, 1;stroke-dashoffset:0;stroke-opacity:1"
   d="M 10.12911,5.2916678 A 4.8374424,4.8374426 0 0 1 5.2916656,10.12911 4.8374424,4.8374426 0 0 1 0.45422399,5.2916678 4.8374424,4.8374426 0 0 1 5.2916656,0.45422399 4.8374424,4.8374426 0 0 1 10.12911,5.2916678 Z"
   id="path3-69"
   inkstitch:max_stitch_length_mm="3" />
        <path
   style="fill:none;stroke:#000000;stroke-width:0.4;stroke-linecap:round;stroke-miterlimit:4"
   id="path4-2"
   d="M 4.9673651,5.7245662 C 4.7549848,5.7646159 4.6247356,5.522384 4.6430021,5.3419847 4.6765851,5.0103151 5.036231,4.835347 5.3381858,4.8987426 5.7863901,4.9928495 6.0126802,5.4853625 5.9002872,5.9065088 5.7495249,6.4714237 5.1195537,6.7504036 4.5799191,6.5874894 3.898118,6.3816539 3.5659013,5.6122905 3.7800789,4.9545192 4.0402258,4.1556558 4.9498996,3.7699484 5.7256318,4.035839 6.6416744,4.3498087 7.0810483,5.4003986 6.7631909,6.2939744 6.395633,7.3272552 5.2038143,7.8204128 4.1924535,7.4503931 3.0418762,7.0294421 2.4948761,5.6961604 2.9171752,4.567073 3.3914021,3.2991406 4.8663228,2.6982592 6.1130974,3.1729158 7.4983851,3.7003207 8.1531869,5.3169977 7.6260947,6.6814205 7.0456093,8.1841025 5.2870784,8.8928844 3.8050073,8.3132966 2.1849115,7.6797506 1.4221671,5.7793073 2.0542715,4.1796074 2.7408201,2.4420977 4.7832541,1.6253548 6.5005435,2.310012 8.3554869,3.0495434 9.2262638,5.2339874 8.4890181,7.0688861 8.4256397,7.2266036 8.3515789,7.379984 8.2675333,7.5277183" />
      </g>
    </marker><marker
   refX="10"
   refY="5"
   orient="auto"
   id="marker6-2"
   markerUnits="userSpaceOnUse"
   markerWidth="0.1"
   viewBox="0 0 1 1">
      <g
   id="g6-4">
        <path
   style="fill:#fafafa;fill-opacity:0.8;stroke:#ff5500;stroke-width:0.5;stroke-linecap:round;stroke-linejoin:miter;stroke-miterlimit:4;stroke-dasharray:1, 1;stroke-dashoffset:0;stroke-opacity:1"
   d="M 10.12911,5.2916678 A 4.8374424,4.8374426 0 0 1 5.2916656,10.12911 4.8374424,4.8374426 0 0 1 0.45422399,5.2916678 4.8374424,4.8374426 0 0 1 5.2916656,0.45422399 4.8374424,4.8374426 0 0 1 10.12911,5.2916678 Z"
   id="path5-7"
   inkstitch:max_stitch_length_mm="3" />
        <path
   style="fill:none;stroke:#000000;stroke-width:0.4;stroke-linecap:round;stroke-miterlimit:4"
   id="path6-7"
   d="M 4.9673651,5.7245662 C 4.7549848,5.7646159 4.6247356,5.522384 4.6430021,5.3419847 4.6765851,5.0103151 5.036231,4.835347 5.3381858,4.8987426 5.7863901,4.9928495 6.0126802,5.4853625 5.9002872,5.9065088 5.7495249,6.4714237 5.1195537,6.7504036 4.5799191,6.5874894 3.898118,6.3816539 3.5659013,5.6122905 3.7800789,4.9545192 4.0402258,4.1556558 4.9498996,3.7699484 5.7256318,4.035839 6.6416744,4.3498087 7.0810483,5.4003986 6.7631909,6.2939744 6.395633,7.3272552 5.2038143,7.8204128 4.1924535,7.4503931 3.0418762,7.0294421 2.4948761,5.6961604 2.9171752,4.567073 3.3914021,3.2991406 4.8663228,2.6982592 6.1130974,3.1729158 7.4983851,3.7003207 8.1531869,5.3169977 7.6260947,6.6814205 7.0456093,8.1841025 5.2870784,8.8928844 3.8050073,8.3132966 2.1849115,7.6797506 1.4221671,5.7793073 2.0542715,4.1796074 2.7408201,2.4420977 4.7832541,1.6253548 6.5005435,2.310012 8.3554869,3.0495434 9.2262638,5.2339874 8.4890181,7.0688861 8.4256397,7.2266036 8.3515789,7.379984 8.2675333,7.5277183" />
      </g>
    </marker><marker
   orient="auto"
   id="inkstitch-needle-point-marker"
   markerWidth="0.1">
       <circle
   cx="0"
   cy="0"
   r="1.5"
   style="fill:context-stroke;opacity:0.8;"
   id="circle8" />
    </marker>
  <inkscape:path-effect
   effect="offset"
   id="path-effect11"
   is_visible="false"
   lpeversion="1.3"
   linejoin_type="miter"
   unit="mm"
   offset="4"
   miter_limit="4"
   attempt_force_join="false"
   update_on_knot_move="true" /><clipPath
   clipPathUnits="userSpaceOnUse"
   id="clipPath9"
   transform="matrix(5.29075e-17 -0.864045 0.864045 5.29075e-17 -29.6086 100.484)"><path
     id="path10-0"
     style="display:inline;fill:none;fill-opacity:1;fill-rule:evenodd;stroke:#000000;stroke-width:0.399999;stroke-dasharray:none;paint-order:fill markers stroke"
     d="M 86.621824,40.948034 C 75.498617,41.261331 64.952157,50.275267 59.241076,55.781061 58.341974,56.647848 57.403944,57.589261 56.472034,58.554626 56.375684,58.546167 56.279122,58.538124 56.182698,58.53202 L 55.533949,58.491333 54.876163,58.53202 C 54.784102,58.537848 54.692434,58.544366 54.600389,58.552365 54.349293,58.29255 54.096877,58.034777 53.845398,57.779293 48.141255,51.984292 36.011736,40.597901 23.275165,40.972898 19.558309,41.082336 15.986299,42.094131 12.571969,44.456241 L 12.11988,44.768182 11.694918,45.134375 11.683613,45.143416 C 3.894509,51.879933 8.3446352,62.82072 11.744647,68.918758 12.063974,72.792772 12.97322,79.628473 16.568432,83.754045 16.61125,83.803181 16.649169,83.857139 16.692755,83.905496 16.877332,84.126724 17.066343,84.339277 17.260128,84.5452 16.056312,89.795413 16.849335,96.146076 21.068973,103.3973 L 21.224944,103.66855 21.408039,103.93754 C 21.408039,103.93754 21.410302,103.9398 21.410302,103.9398 21.410302,103.9398 21.410302,103.94206 21.410302,103.94206 21.410302,103.94206 21.410302,103.94432 21.410302,103.94432 21.410302,103.94432 21.412562,103.94658 21.412562,103.94658 L 21.419344,103.95563 C 26.382221,111.37641 36.128765,113.62268 43.429279,113.18275 H 43.436058 L 43.806771,113.16015 44.202348,113.11042 44.236255,113.1059 C 49.213549,112.41461 52.871614,109.79893 55.533949,106.65007 58.196286,109.79893 61.854355,112.41461 66.831645,113.1059 L 66.865552,113.11042 67.261129,113.16015 67.631842,113.18275 H 67.638625 C 74.939135,113.62268 84.685679,111.3764 89.648558,103.95563 L 89.655339,103.94658 C 89.657946,103.94268 89.659516,103.93919 89.66212,103.93528 L 89.842955,103.66855 89.998926,103.3973 90.007968,103.38147 C 94.219849,96.136599 95.010744,89.79173 93.807773,84.5452 94.001556,84.339283 94.19057,84.126718 94.375144,83.905496 94.418731,83.857139 94.456649,83.803181 94.499469,83.754045 98.094679,79.628479 99.003924,72.792781 99.323255,68.918758 102.72327,62.82072 107.17339,51.879934 99.384286,45.143416 L 99.372983,45.134375 98.948021,44.768182 98.493672,44.456241 C 94.698157,41.830411 90.700481,40.833166 86.621824,40.948034 Z" /></clipPath><marker
   refX="10"
   refY="5"
   orient="auto"
   id="inkstitch-guide-line-marker-5"
   markerUnits="userSpaceOnUse"
   markerWidth="0.1"
   viewBox="0 0 1 1"><g
     id="inkstitch-guide-line-group-1"><path
       style="fill:#fafafa;fill-opacity:0.8;stroke:#ff5500;stroke-width:0.5;stroke-linecap:round;stroke-linejoin:miter;stroke-miterlimit:4;stroke-dasharray:1, 1;stroke-dashoffset:0;stroke-opacity:1"
       d="M 10.12911,5.2916678 A 4.8374424,4.8374426 0 0 1 5.2916656,10.12911 4.8374424,4.8374426 0 0 1 0.45422399,5.2916678 4.8374424,4.8374426 0 0 1 5.2916656,0.45422399 4.8374424,4.8374426 0 0 1 10.12911,5.2916678 Z"
       id="inkstitch-guide-line-marker-circle-1"
       inkstitch:max_stitch_length_mm="3" /><path
       style="fill:none;stroke:#000000;stroke-width:0.4;stroke-linecap:round;stroke-miterlimit:4"
       id="inkstitch-guide-line-marker-spiral-0"
       d="M 1.7506092,6.2728168 3.4558825,5.2833684 7.1038696,7.400035 8.8193256,6.4046783 M 1.7963222,4.129626 3.4558825,3.1667016 7.1038696,5.2833682 8.8475785,4.2716184 M 1.6318889,5.2833683 3.4558825,4.225035 7.1038696,6.3417016 8.9558408,5.2677331" /></g></marker><marker
   refX="10"
   refY="5"
   orient="auto"
   id="marker2-8"
   markerUnits="userSpaceOnUse"
   markerWidth="0.1"
   viewBox="0 0 1 1"><g
     id="g2-50"><path
       style="fill:#fafafa;fill-opacity:0.8;stroke:#ff5500;stroke-width:0.5;stroke-linecap:round;stroke-linejoin:miter;stroke-miterlimit:4;stroke-dasharray:1, 1;stroke-dashoffset:0;stroke-opacity:1"
       d="M 10.12911,5.2916678 A 4.8374424,4.8374426 0 0 1 5.2916656,10.12911 4.8374424,4.8374426 0 0 1 0.45422399,5.2916678 4.8374424,4.8374426 0 0 1 5.2916656,0.45422399 4.8374424,4.8374426 0 0 1 10.12911,5.2916678 Z"
       id="path1-6"
       inkstitch:max_stitch_length_mm="3" /><path
       style="fill:none;stroke:#000000;stroke-width:0.4;stroke-linecap:round;stroke-miterlimit:4"
       id="path2-4"
       d="M 1.7506092,6.2728168 3.4558825,5.2833684 7.1038696,7.400035 8.8193256,6.4046783 M 1.7963222,4.129626 3.4558825,3.1667016 7.1038696,5.2833682 8.8475785,4.2716184 M 1.6318889,5.2833683 3.4558825,4.225035 7.1038696,6.3417016 8.9558408,5.2677331" /></g></marker><marker
   refX="10"
   refY="5"
   orient="auto"
   id="marker4-6"
   markerUnits="userSpaceOnUse"
   markerWidth="0.1"
   viewBox="0 0 1 1"><g
     id="g4-2"><path
       style="fill:#fafafa;fill-opacity:0.8;stroke:#ff5500;stroke-width:0.5;stroke-linecap:round;stroke-linejoin:miter;stroke-miterlimit:4;stroke-dasharray:1, 1;stroke-dashoffset:0;stroke-opacity:1"
       d="M 10.12911,5.2916678 A 4.8374424,4.8374426 0 0 1 5.2916656,10.12911 4.8374424,4.8374426 0 0 1 0.45422399,5.2916678 4.8374424,4.8374426 0 0 1 5.2916656,0.45422399 4.8374424,4.8374426 0 0 1 10.12911,5.2916678 Z"
       id="path3-5"
       inkstitch:max_stitch_length_mm="3" /><path
       style="fill:none;stroke:#000000;stroke-width:0.4;stroke-linecap:round;stroke-miterlimit:4"
       id="path4-8"
       d="M 1.7506092,6.2728168 3.4558825,5.2833684 7.1038696,7.400035 8.8193256,6.4046783 M 1.7963222,4.129626 3.4558825,3.1667016 7.1038696,5.2833682 8.8475785,4.2716184 M 1.6318889,5.2833683 3.4558825,4.225035 7.1038696,6.3417016 8.9558408,5.2677331" /></g></marker><marker
   refX="10"
   refY="5"
   orient="auto"
   id="marker6-6"
   markerUnits="userSpaceOnUse"
   markerWidth="0.1"
   viewBox="0 0 1 1"><g
     id="g6-2"><path
       style="fill:#fafafa;fill-opacity:0.8;stroke:#ff5500;stroke-width:0.5;stroke-linecap:round;stroke-linejoin:miter;stroke-miterlimit:4;stroke-dasharray:1, 1;stroke-dashoffset:0;stroke-opacity:1"
       d="M 10.12911,5.2916678 A 4.8374424,4.8374426 0 0 1 5.2916656,10.12911 4.8374424,4.8374426 0 0 1 0.45422399,5.2916678 4.8374424,4.8374426 0 0 1 5.2916656,0.45422399 4.8374424,4.8374426 0 0 1 10.12911,5.2916678 Z"
       id="path5-8"
       inkstitch:max_stitch_length_mm="3" /><path
       style="fill:none;stroke:#000000;stroke-width:0.4;stroke-linecap:round;stroke-miterlimit:4"
       id="path6-4"
       d="M 1.7506092,6.2728168 3.4558825,5.2833684 7.1038696,7.400035 8.8193256,6.4046783 M 1.7963222,4.129626 3.4558825,3.1667016 7.1038696,5.2833682 8.8475785,4.2716184 M 1.6318889,5.2833683 3.4558825,4.225035 7.1038696,6.3417016 8.9558408,5.2677331" /></g></marker><marker
   refX="10"
   refY="5"
   orient="auto"
   id="marker8"
   markerUnits="userSpaceOnUse"
   markerWidth="0.1"
   viewBox="0 0 1 1"><g
     id="g8"><path
       style="fill:#fafafa;fill-opacity:0.8;stroke:#ff5500;stroke-width:0.5;stroke-linecap:round;stroke-linejoin:miter;stroke-miterlimit:4;stroke-dasharray:1, 1;stroke-dashoffset:0;stroke-opacity:1"
       d="M 10.12911,5.2916678 A 4.8374424,4.8374426 0 0 1 5.2916656,10.12911 4.8374424,4.8374426 0 0 1 0.45422399,5.2916678 4.8374424,4.8374426 0 0 1 5.2916656,0.45422399 4.8374424,4.8374426 0 0 1 10.12911,5.2916678 Z"
       id="path7-7"
       inkstitch:max_stitch_length_mm="3" /><path
       style="fill:none;stroke:#000000;stroke-width:0.4;stroke-linecap:round;stroke-miterlimit:4"
       id="path8"
       d="M 1.7506092,6.2728168 3.4558825,5.2833684 7.1038696,7.400035 8.8193256,6.4046783 M 1.7963222,4.129626 3.4558825,3.1667016 7.1038696,5.2833682 8.8475785,4.2716184 M 1.6318889,5.2833683 3.4558825,4.225035 7.1038696,6.3417016 8.9558408,5.2677331" /></g></marker><marker
   refX="10"
   refY="5"
   orient="auto"
   id="marker11"
   markerUnits="userSpaceOnUse"
   markerWidth="0.1"
   viewBox="0 0 1 1"><g
     id="g11"><path
       style="fill:#fafafa;fill-opacity:0.8;stroke:#ff5500;stroke-width:0.5;stroke-linecap:round;stroke-linejoin:miter;stroke-miterlimit:4;stroke-dasharray:1, 1;stroke-dashoffset:0;stroke-opacity:1"
       d="M 10.12911,5.2916678 A 4.8374424,4.8374426 0 0 1 5.2916656,10.12911 4.8374424,4.8374426 0 0 1 0.45422399,5.2916678 4.8374424,4.8374426 0 0 1 5.2916656,0.45422399 4.8374424,4.8374426 0 0 1 10.12911,5.2916678 Z"
       id="path9-2"
       inkstitch:max_stitch_length_mm="3" /><path
       style="fill:none;stroke:#000000;stroke-width:0.4;stroke-linecap:round;stroke-miterlimit:4"
       id="path11"
       d="M 1.7506092,6.2728168 3.4558825,5.2833684 7.1038696,7.400035 8.8193256,6.4046783 M 1.7963222,4.129626 3.4558825,3.1667016 7.1038696,5.2833682 8.8475785,4.2716184 M 1.6318889,5.2833683 3.4558825,4.225035 7.1038696,6.3417016 8.9558408,5.2677331" /></g></marker><marker
   refX="10"
   refY="5"
   orient="auto"
   id="marker13"
   markerUnits="userSpaceOnUse"
   markerWidth="0.1"
   viewBox="0 0 1 1"><g
     id="g13"><path
       style="fill:#fafafa;fill-opacity:0.8;stroke:#ff5500;stroke-width:0.5;stroke-linecap:round;stroke-linejoin:miter;stroke-miterlimit:4;stroke-dasharray:1, 1;stroke-dashoffset:0;stroke-opacity:1"
       d="M 10.12911,5.2916678 A 4.8374424,4.8374426 0 0 1 5.2916656,10.12911 4.8374424,4.8374426 0 0 1 0.45422399,5.2916678 4.8374424,4.8374426 0 0 1 5.2916656,0.45422399 4.8374424,4.8374426 0 0 1 10.12911,5.2916678 Z"
       id="path12"
       inkstitch:max_stitch_length_mm="3" /><path
       style="fill:none;stroke:#000000;stroke-width:0.4;stroke-linecap:round;stroke-miterlimit:4"
       id="path13-4"
       d="M 1.7506092,6.2728168 3.4558825,5.2833684 7.1038696,7.400035 8.8193256,6.4046783 M 1.7963222,4.129626 3.4558825,3.1667016 7.1038696,5.2833682 8.8475785,4.2716184 M 1.6318889,5.2833683 3.4558825,4.225035 7.1038696,6.3417016 8.9558408,5.2677331" /></g></marker><marker
   refX="10"
   refY="5"
   orient="auto"
   id="marker15"
   markerUnits="userSpaceOnUse"
   markerWidth="0.1"
   viewBox="0 0 1 1"><g
     id="g15"><path
       style="fill:#fafafa;fill-opacity:0.8;stroke:#ff5500;stroke-width:0.5;stroke-linecap:round;stroke-linejoin:miter;stroke-miterlimit:4;stroke-dasharray:1, 1;stroke-dashoffset:0;stroke-opacity:1"
       d="M 10.12911,5.2916678 A 4.8374424,4.8374426 0 0 1 5.2916656,10.12911 4.8374424,4.8374426 0 0 1 0.45422399,5.2916678 4.8374424,4.8374426 0 0 1 5.2916656,0.45422399 4.8374424,4.8374426 0 0 1 10.12911,5.2916678 Z"
       id="path14"
       inkstitch:max_stitch_length_mm="3" /><path
       style="fill:none;stroke:#000000;stroke-width:0.4;stroke-linecap:round;stroke-miterlimit:4"
       id="path15"
       d="M 1.7506092,6.2728168 3.4558825,5.2833684 7.1038696,7.400035 8.8193256,6.4046783 M 1.7963222,4.129626 3.4558825,3.1667016 7.1038696,5.2833682 8.8475785,4.2716184 M 1.6318889,5.2833683 3.4558825,4.225035 7.1038696,6.3417016 8.9558408,5.2677331" /></g></marker><marker
   refX="10"
   refY="5"
   orient="auto"
   id="marker17"
   markerUnits="userSpaceOnUse"
   markerWidth="0.1"
   viewBox="0 0 1 1"><g
     id="g17"><path
       style="fill:#fafafa;fill-opacity:0.8;stroke:#ff5500;stroke-width:0.5;stroke-linecap:round;stroke-linejoin:miter;stroke-miterlimit:4;stroke-dasharray:1, 1;stroke-dashoffset:0;stroke-opacity:1"
       d="M 10.12911,5.2916678 A 4.8374424,4.8374426 0 0 1 5.2916656,10.12911 4.8374424,4.8374426 0 0 1 0.45422399,5.2916678 4.8374424,4.8374426 0 0 1 5.2916656,0.45422399 4.8374424,4.8374426 0 0 1 10.12911,5.2916678 Z"
       id="path16"
       inkstitch:max_stitch_length_mm="3" /><path
       style="fill:none;stroke:#000000;stroke-width:0.4;stroke-linecap:round;stroke-miterlimit:4"
       id="path17"
       d="M 1.7506092,6.2728168 3.4558825,5.2833684 7.1038696,7.400035 8.8193256,6.4046783 M 1.7963222,4.129626 3.4558825,3.1667016 7.1038696,5.2833682 8.8475785,4.2716184 M 1.6318889,5.2833683 3.4558825,4.225035 7.1038696,6.3417016 8.9558408,5.2677331" /></g></marker><marker
   refX="10"
   refY="5"
   orient="auto"
   id="marker19"
   markerUnits="userSpaceOnUse"
   markerWidth="0.1"
   viewBox="0 0 1 1"><g
     id="g19"><path
       style="fill:#fafafa;fill-opacity:0.8;stroke:#ff5500;stroke-width:0.5;stroke-linecap:round;stroke-linejoin:miter;stroke-miterlimit:4;stroke-dasharray:1, 1;stroke-dashoffset:0;stroke-opacity:1"
       d="M 10.12911,5.2916678 A 4.8374424,4.8374426 0 0 1 5.2916656,10.12911 4.8374424,4.8374426 0 0 1 0.45422399,5.2916678 4.8374424,4.8374426 0 0 1 5.2916656,0.45422399 4.8374424,4.8374426 0 0 1 10.12911,5.2916678 Z"
       id="path18"
       inkstitch:max_stitch_length_mm="3" /><path
       style="fill:none;stroke:#000000;stroke-width:0.4;stroke-linecap:round;stroke-miterlimit:4"
       id="path19"
       d="M 1.7506092,6.2728168 3.4558825,5.2833684 7.1038696,7.400035 8.8193256,6.4046783 M 1.7963222,4.129626 3.4558825,3.1667016 7.1038696,5.2833682 8.8475785,4.2716184 M 1.6318889,5.2833683 3.4558825,4.225035 7.1038696,6.3417016 8.9558408,5.2677331" /></g></marker></defs><g
     inkscape:groupmode="layer"
     id="layer3"
     inkscape:label="Guided Fill"
     style="opacity:1;display:inline"><g
       id="g1"
       transform="matrix(0.864045,0,0,0.864045,4.5488006,46.591101)"
       clip-path="url(#clipPath9)"
       style="display:inline;stroke-width:1.15735"><g
         id="g19-5-7-4-5-3-4-0-9-89-1-1-1-1-1-1-1"
         style="stroke-width:1.24121"
         transform="matrix(0.186765,0.161199,-0.161199,0.186765,11.2504,76.9944)"
         inkscape:label="5"><path
           id="path14-2-1-5-9-7-5-7-5-75-1-1-1-1-1-1-1"
           style="display:inline;opacity:0.5;fill:#51a888;fill-rule:evenodd;stroke:none;stroke-width:1.17277"
           d="M 85.3657,-385.5 C 77.5035,-385.418 77.1263,-376.832 77.5688,-370.935 V -231.804 C 113.63054,-269.64814 201.46424,-225.66417 231.72615,-248.12953 274.51615,-280.24053 260.436,-345.456 300.637,-380.571 304.249,-383.566 308.456,-386.79 300.932,-385.502 229.077,-385.501 157.221,-385.5 85.3657,-385.5 Z"
           inkstitch:fill_method="guided_fill"
           inkstitch:row_spacing_mm="1.3"
           inkstitch:fill_underlay="False"
           inkstitch:underpath="False"
           inkstitch:color_sort_index="1"
           inkstitch:max_stitch_length_mm="3"
           sodipodi:nodetypes="ccccccc" /><path
           style="display:inline;fill:none;fill-rule:evenodd;stroke:#ed171f;stroke-width:1.24119px;marker-start:url(#inkstitch-guide-line-marker-5)"
           d="M 22.6087,-287.219 C 154.54584,-325.63052 254.96435,-250.72082 294.55369,-350.92269"
           id="path19-2-3-8-0-0-7-2-7-35-1-1-1-1-1-1-1"
           inkstitch:color_sort_index="1"
           sodipodi:nodetypes="cc" /></g><g
         id="g21-7-8-6-9-0-1-9-6-506-1-1-1-1-1-1-1"
         style="stroke-width:1.24121"
         transform="matrix(0.186765,0.161199,-0.161199,0.186765,-26.5963,61.5117)"
         inkscape:label="4"><path
           d="M 480.58583,-159.71756 C 412.57283,-146.73156 375.74345,-247.60804 313.76345,-218.65604 263.16545,-194.61504 164.295,-202.834 107.696,-203.827 100.655,-205.675 85.9391,-200.98 83.5683,-207.872 V -238.38 C 126.235,-241.719 164.555,-264.343 196.51,-291.654 229.272,-319.339 267.16057,-307.76843 299.14157,-336.32143 342.15347,-391.83874 400.3395,-386.30138 457.63,-379.478 461.249,-377.912 458.816,-372.542 459.526,-369.288 Z"
           style="display:inline;opacity:0.5;fill:#9aceea;fill-rule:evenodd;stroke:none;stroke-width:1.17277"
           id="path20-3-4-2-3-1-0-8-8-55-1-1-1-1-1-1-1"
           inkstitch:fill_method="guided_fill"
           inkstitch:row_spacing_mm="1.3"
           inkstitch:fill_underlay="False"
           inkstitch:underpath="False"
           inkstitch:color_sort_index="2"
           inkstitch:max_stitch_length_mm="3"
           sodipodi:nodetypes="cccccccccc" /><path
           style="display:inline;fill:none;fill-rule:evenodd;stroke:#ed171f;stroke-width:1.24119px;marker-start:url(#inkstitch-guide-line-marker-5)"
           d="M 35.3875,-211.225 C 83.4216,-214.706 249.60946,-250.73344 313.81046,-313.62944 385.95246,-384.30544 433.077,-374.855 487.561,-404.664"
           id="path21-7-8-5-4-0-6-1-5-82-1-1-1-1-1-1-1"
           inkstitch:color_sort_index="2"
           sodipodi:nodetypes="ccc" /></g><g
         id="g36-9-0-1-0-3-0-1-4-74-1-1-1-1-1-1-1"
         style="stroke-width:1.24121"
         transform="matrix(0.186765,0.161199,-0.161199,0.186765,-26.5963,61.5117)"
         inkscape:label="3"><path
           id="path22-0-4-3-7-0-3-6-7-46-1-1-1-1-1-1-1"
           style="opacity:0.424;fill:#eadd20;fill-rule:evenodd;stroke:none;stroke-width:1.17277"
           d="M 452.54564,-354.78592 C 384.99564,-342.94392 335.786,-283.581 274.715,-254.331 224.17861,-230.82811 170.49302,-238.22805 112.708,-209.854 100.968,-209.703 89.2474,-210.56 77.5688,-211.689 L 68.283944,-132.24046 C 138.62614,-147.71246 209.38127,-110.94212 281.41927,-117.00312 328.23427,-120.75412 385.93,-179.504 427.071,-154.784 441.332,-146.556 475.22863,-120.96683 487.20663,-109.77783 485.94996,-133.47012 453.87389,-355.04656 452.54564,-354.78592 Z"
           inkstitch:fill_method="guided_fill"
           inkstitch:row_spacing_mm="1.2"
           inkstitch:fill_underlay="False"
           inkstitch:underpath="False"
           inkstitch:color_sort_index="3"
           inkstitch:max_stitch_length_mm="3"
           sodipodi:nodetypes="ccccccccc" /><path
           style="display:inline;fill:none;fill-rule:evenodd;stroke:#ed171f;stroke-width:1.24119px;marker-start:url(#inkstitch-guide-line-marker-5)"
           d="M 37.3535,-155.957 C 113.5914,-196.1614 277.47289,-142.61279 359.35992,-188.91639 441.24695,-235.21999 456.38647,-275.34502 513.47739,-279.59542"
           id="path33-2-6-9-5-0-3-1-9-03-1-1-1-1-1-1-1"
           inkstitch:color_sort_index="3"
           sodipodi:nodetypes="czc" /></g><g
         id="g48-3-0-7-7-3-5-1-6-583-1-1-1-1-1-1-1"
         style="stroke-width:1.24121"
         transform="matrix(0.186765,0.161199,-0.161199,0.186765,-26.5963,61.5117)"
         inkscape:label="2"><path
           d="M 459.526,-65.8548 C 408.64798,-57.095486 414.55023,-71.209652 362.87101,-72.053857 308.53464,-72.941468 266.28554,-40.172626 213.50911,-53.624538 201.72336,-56.590952 175.89058,-44.458834 144.61369,-53.951451 121.87537,-60.852593 91.908684,-89.758748 83.5683,-92.6798 62.929373,-109.07675 35.562792,-165.48515 57.265479,-184.04398 122.34392,-212.67295 186.43585,-141.94115 301.809,-186.653 348.288,-189.071 399.60855,-214.6717 439.07255,-188.3057 453.96673,-183.61061 487.89618,-153.09021 487.78591,-145.1265 Z"
           style="opacity:0.424;fill:#1e73be;fill-rule:evenodd;stroke:none;stroke-width:1.17277"
           id="path47-9-3-3-5-8-0-8-6-32-1-1-1-1-1-1-1"
           inkstitch:fill_method="guided_fill"
           inkstitch:row_spacing_mm="1.5"
           inkstitch:fill_underlay="False"
           inkstitch:underpath="False"
           inkstitch:color_sort_index="4"
           inkstitch:max_stitch_length_mm="3"
           sodipodi:nodetypes="cscscccccc" /><path
           style="display:inline;fill:none;fill-rule:evenodd;stroke:#ed171f;stroke-width:1.24119px;marker-start:url(#inkstitch-guide-line-marker-5)"
           d="M 59.03112,-100.49141 C 74.436169,-116.35484 151.04814,-52.839511 307.95133,-124.56495 435.53256,-189.85361 525.31405,-81.967223 536.71,-90.8188"
           id="path48-9-2-7-0-3-2-1-6-1-1-1-1-1-1-1-1"
           inkstitch:color_sort_index="4"
           sodipodi:nodetypes="ccc" /></g><g
         id="g50-7-6-5-6-6-3-1-6-62-1-1-1-1-1-1-1"
         style="stroke-width:1.24121"
         transform="matrix(0.186765,0.161199,-0.161199,0.186765,-26.5963,61.5117)"
         inkscape:label="1"><path
           id="path49-0-9-0-4-0-2-5-7-36-1-1-1-1-1-1-1"
           style="opacity:0.5;fill:#b28cd8;fill-rule:evenodd;stroke:none;stroke-width:1.17277"
           d="M 200.37336,-17.2576 C 338.77442,-63.891379 361.85921,-41.179472 459.221,3.89024 477.0258,-28.133506 493.88581,-106.98146 499.9941,-145.08358 476.01218,-179.38517 338.23815,-85.955316 255.872,-81.8508 169.83074,-54.355572 113.49256,-97.394491 107.11109,-65.826149 133.5054,-16.703102 140.7683,-23.339135 200.37336,-17.2576 Z"
           inkstitch:fill_method="guided_fill"
           inkstitch:row_spacing_mm="1.4"
           inkstitch:fill_underlay="False"
           inkstitch:underpath="False"
           inkstitch:color_sort_index="5"
           inkstitch:max_stitch_length_mm="3"
           sodipodi:nodetypes="cccccc" /><path
           style="display:inline;fill:none;fill-rule:evenodd;stroke:#ed171f;stroke-width:1.24119px;marker-start:url(#inkstitch-guide-line-marker-5)"
           d="M 72.349748,-83.061417 C 66.357591,-88.499009 135.1523,-6.5674621 296.4551,-38.784032 346.85841,-57.723363 375.98017,-70.913645 427.6558,-93.173837 456.87443,-105.76028 505.66108,-148.58871 524.50673,-127.21647"
           id="path50-3-4-2-7-4-7-0-0-75-1-1-1-1-1-1-1"
           inkstitch:color_sort_index="5"
           sodipodi:nodetypes="ccsc" /></g><g
         id="g18"
         style="stroke-width:1.24121"
         transform="matrix(0.186765,0.161199,-0.161199,0.186765,-63.755,138.065)"
         inkscape:label="5"><path
           id="path20"
           style="display:inline;opacity:0.5;fill:#0f519b;fill-rule:evenodd;stroke:none;stroke-width:1.17277"
           d="M 52.282724,-372.60455 C 44.420524,-372.52255 22.250146,-323.02001 22.692646,-317.12301 L 77.5688,-231.804 C 113.63054,-269.64814 201.46424,-225.66417 231.72615,-248.12953 274.51615,-280.24053 260.436,-345.456 300.637,-380.571 304.249,-383.566 308.456,-386.79 300.932,-385.502 229.51335,-389.76805 127.88223,-409.21949 52.282724,-372.60455 Z"
           inkstitch:fill_method="guided_fill"
           inkstitch:row_spacing_mm="1.3"
           inkstitch:fill_underlay="False"
           inkstitch:underpath="False"
           inkstitch:color_sort_index="1"
           inkstitch:max_stitch_length_mm="3"
           sodipodi:nodetypes="ccccccc" /><path
           style="display:inline;fill:none;fill-rule:evenodd;stroke:#ed171f;stroke-width:1.24119px;marker-start:url(#inkstitch-guide-line-marker-5)"
           d="M 22.6087,-287.219 C 154.82008,-425.51801 266.89766,-294.13177 300.91016,-349.96126"
           id="path21"
           inkstitch:color_sort_index="1"
           sodipodi:nodetypes="cc" /></g></g><g
       id="g33"
       transform="translate(1.3881106,51.782601)"
       style="display:inline"><g
         id="g24"
         style="display:inline;opacity:1"><path
           style="opacity:0.633333;fill:#7340a0;stroke:none;stroke-width:0.264583;paint-order:fill markers stroke"
           d="M 39.877444,59.868292 C 37.437187,61.03197 35.086111,62.374746 32.668291,63.584352 27.965514,64.737907 23.36406,70.02 24.19568,75.327095 24.790249,76.36759 26.350994,78.968833 27.391489,79.191794 34.364362,81.435953 38.961631,80.757456 42.924613,78.448583 46.887595,76.13971 46.868957,72.423073 48.795984,69.381402 49.903433,67.633374 51.06962,65.918171 52.066115,64.1046 53.245317,61.958512 55.228598,59.938506 55.261924,57.490016 55.269319,56.946736 55.782172,56.672483 54.593034,56.003592 53.403896,55.334702 51.471546,54.814454 49.687839,55.557666 47.904129,56.300878 43.101512,58.33084 39.877444,59.868292 Z"
           id="path23"
           sodipodi:nodetypes="sssszssssss"
           inkstitch:fill_method="guided_fill"
           inkstitch:row_spacing_mm="1"
           inkstitch:fill_underlay="False"
           inkstitch:underpath="False"
           inkstitch:color_sort_index="4"
           inkstitch:max_stitch_length_mm="3" /><path
           style="opacity:0.633333;fill:none;stroke:#0f519b;stroke-width:0.264583;marker-start:url(#inkstitch-guide-line-marker-5);paint-order:fill markers stroke"
           d="M 25.013213,80.678218 C 25.013213,80.678218 31.479153,71.685359 32.073722,71.462395 32.668291,71.23943 38.539663,67.449052 39.728803,67.300409 40.917941,67.151766 48.127094,63.955957 49.613517,63.807314 51.099939,63.658673 61.207617,60.834469 61.207617,60.834469"
           id="path24"
           inkstitch:satin_column="False" /></g><g
         id="g28"
         style="display:inline;opacity:1"
         transform="rotate(-107.49562,53.05191,61.433372)"><path
           style="opacity:0.633333;fill:#7e1cc9;stroke:none;stroke-width:0.264583;paint-order:fill markers stroke"
           d="M 27.614453,66.036949 C 23.265929,79.407182 37.304914,83.379202 42.924613,78.448583 43.762608,77.713342 48.441593,74.587191 49.199713,71.067184 50.534589,64.869254 70.644936,62.100848 49.106911,57.400625 41.491834,55.738794 30.016286,58.652129 27.614453,66.036949 Z"
           id="path27"
           sodipodi:nodetypes="sssss"
           inkstitch:fill_method="guided_fill"
           inkstitch:row_spacing_mm="1"
           inkstitch:fill_underlay="False"
           inkstitch:underpath="False"
           inkstitch:color_sort_index="4"
           inkstitch:max_stitch_length_mm="3" /><path
           style="opacity:0.633333;fill:none;stroke:#0f519b;stroke-width:0.264583;marker-start:url(#inkstitch-guide-line-marker-5);paint-order:fill markers stroke"
           d="M 25.013213,80.678218 C 25.013213,80.678218 31.479153,71.685359 32.073722,71.462395 32.668291,71.23943 38.539663,67.449052 39.728803,67.300409 40.917941,67.151766 48.127094,63.955957 49.613517,63.807314 51.099939,63.658673 61.207617,60.834469 61.207617,60.834469"
           id="path28"
           inkstitch:satin_column="False" /></g><g
         id="g30"
         style="display:inline;opacity:1;stroke-width:1.08849"
         transform="matrix(-0.963088,-0.213857,-0.268088,0.816832,87.3229,5.75063)"><path
           style="opacity:0.633333;fill:#9eb09f;stroke:none;stroke-width:0.287997;paint-order:fill markers stroke"
           d="M 22.907802,62.984949 C 11.952365,66.350646 26.704774,79.563321 26.818281,79.587644 27.858779,79.810609 33.432864,81.81728 33.953112,81.81728 34.473362,81.81728 41.45955,79.513323 42.351405,78.844433 43.243257,78.175542 47.676261,73.410533 48.222776,69.777252 49.690779,60.017831 69.109556,52.153127 49.114631,55.953516 41.253832,57.4476 29.61696,60.923781 22.907802,62.984949 Z"
           id="path29"
           sodipodi:nodetypes="sssssss"
           inkstitch:fill_method="guided_fill"
           inkstitch:row_spacing_mm="1"
           inkstitch:fill_underlay="False"
           inkstitch:underpath="False"
           inkstitch:color_sort_index="4"
           inkstitch:max_stitch_length_mm="3"
           inkstitch:guided_fill_strategy="1" /><path
           style="opacity:0.633333;fill:none;stroke:#0f519b;stroke-width:0.287997;marker-start:url(#inkstitch-guide-line-marker-5);paint-order:fill markers stroke"
           d="M 54.188215,54.447346 C 49.793057,61.321976 42.555585,74.451529 36.609251,74.563806 29.331224,74.701229 22.297502,70.897018 18.456723,58.489551"
           id="path30"
           inkstitch:satin_column="False"
           sodipodi:nodetypes="csc" /></g><g
         id="g32"
         style="display:inline;opacity:1;stroke-width:1.08849"
         transform="matrix(-0.963088,-0.213857,-0.268088,0.816832,87.3229,5.75063)"><path
           style="opacity:0.633333;fill:#6ab98a;stroke:none;stroke-width:0.287997;paint-order:fill markers stroke"
           d="M 17.43851,60.097227 C 24.149998,69.284043 11.526786,72.770764 5.4440143,72.535805 4.4291763,72.220657 -1.4289107,71.234245 -1.8784797,70.980335 -2.3280497,70.726424 -7.1695747,65.325826 -7.5931727,64.312535 -8.0167677,63.299244 -9.3749147,57.01804 -7.9618407,53.611635 -4.1661587,44.461629 -3.7394573,40.359326 11.56697,53.402043 17.584535,58.529653 12.728152,55.020116 17.43851,60.097227 Z"
           id="path31"
           sodipodi:nodetypes="sssssss"
           inkstitch:fill_method="guided_fill"
           inkstitch:row_spacing_mm="1"
           inkstitch:fill_underlay="False"
           inkstitch:underpath="False"
           inkstitch:color_sort_index="4"
           inkstitch:max_stitch_length_mm="3" /><path
           style="opacity:0.633333;fill:none;stroke:#0f519b;stroke-width:0.287997;marker-start:url(#inkstitch-guide-line-marker-5);paint-order:fill markers stroke"
           d="M 1.0890598,80.723014 C 8.0189317,65.099312 2.0354747,51.36791 -1.9797299,36.975259"
           id="path32"
           inkstitch:satin_column="False"
           sodipodi:nodetypes="cc" /></g></g></g><g
     inkscape:label="Outline"
     inkscape:groupmode="layer"
     id="layer1"
     style="display:inline;opacity:1"><g
       inkscape:label="Complex Redwork"
       id="g9"
       style="opacity:1;display:inline;stroke:#222421;stroke-width:1.24121"
       transform="translate(-0.0433894,0.063601)"><path
         id="underpath_986"
         style="display:inline;opacity:1;fill:none;stroke:#222421;stroke-width:0.264583;stroke-dasharray:2, 1.1"
         d="M 53.7159,112.409 56.2892,115.843 V 115.843 L 57.8982,117.844 V 117.844 L 58.7641,118.826 V 118.826 L 59.664,119.762 V 119.762 L 60.5922,120.627 V 120.627 L 61.5433,121.394 V 121.394 L 62.0034,121.7 V 121.7 L 62.6255,123.195 V 123.195 L 64.1706,127.009 V 127.009 L 65.9166,131.556 V 131.556 L 66.6527,133.643 V 133.643 L 67.1247,135.165 67.0088,135.184 66.1926,135.279 V 135.279 L 64.7985,135.368 V 135.368 L 63.8502,135.375 63.5002,135.363 62.8289,135.228 V 135.228 L 62.1902,135.015 V 135.015 L 61.5833,134.732 V 134.732 L 61.0073,134.383 V 134.383 L 60.4617,133.973 V 133.973 L 59.9458,133.508 V 133.508 L 59.4584,132.993 V 132.993 L 58.9994,132.433 V 132.433 L 58.5676,131.834 V 131.834 L 58.1622,131.201 V 131.201 L 57.4291,129.853 V 129.853 L 56.7933,128.432 V 128.432 L 56.2493,126.981 V 126.981 L 55.7916,125.542 V 125.542 L 55.4137,124.157 V 124.157 L 55.11,122.869 V 122.869 L 54.8748,121.72 V 121.72 L 54.5861,120.009 V 120.009 L 54.5001,119.363 V 119.363 L 54.0051,118.042"
         inkscape:label="Redwork Unterpfad 1"
         inkstitch:running_stitch_length_mm="2.5"
         inkstitch:path_type="redwork-underpath" /><path
         id="redwork_6579"
         style="display:inline;opacity:1;fill:none;stroke:#222421;stroke-width:0.264583;stroke-dasharray:none"
         d="M 54.0051,118.042 54.5001,119.363 V 119.363 L 54.5861,120.009 V 120.009 L 54.8748,121.72 V 121.72 L 55.11,122.869 V 122.869 L 55.4137,124.157 V 124.157 L 55.7916,125.542 V 125.542 L 56.2493,126.981 V 126.981 L 56.7933,128.432 V 128.432 L 57.4291,129.853 V 129.853 L 58.1622,131.201 V 131.201 L 58.5676,131.834 V 131.834 L 58.9994,132.433 V 132.433 L 59.4584,132.993 V 132.993 L 59.9458,133.508 V 133.508 L 60.4617,133.973 V 133.973 L 61.0073,134.383 V 134.383 L 61.5833,134.732 V 134.732 L 62.1902,135.015 V 135.015 L 62.8289,135.228 V 135.228 L 63.5002,135.363 63.8502,135.375 64.7985,135.368 V 135.368 L 66.1926,135.279 V 135.279 L 67.0088,135.184"
         inkscape:label="Redwork 2"
         inkstitch:running_stitch_length_mm="2.5"
         inkstitch:path_type="redwork-top"
         inkstitch:bean_stitch_repeats="1" /><path
         id="underpath_7973"
         style="display:inline;opacity:1;fill:none;stroke:#222421;stroke-width:0.264583;stroke-dasharray:2, 1.1"
         d="M 67.1247,135.165 67.8793,135.044 V 135.044 L 68.785,134.851 V 134.851 L 69.7062,134.598 V 134.598 L 70.6246,134.277 V 134.277 L 71.5205,133.879 V 133.879 L 72.3751,133.397 V 133.397 L 73.1694,132.822 V 132.822 L 73.884,132.147 V 132.147 L 74.5,131.363 V 131.363 L 75.1069,130.259 V 130.259 L 75.6191,129.202 V 129.202 L 76.0417,128.19 V 128.19 L 76.3796,127.224 V 127.224 L 76.6378,126.301 V 126.301 L 76.8034,125.506 76.8209,125.422 76.9344,124.586 V 124.586 L 76.9825,123.791 V 123.791 L 76.9709,123.038 V 123.038 L 76.9042,122.325 V 122.325 L 76.7873,121.652 V 121.652 L 76.6251,121.017 V 121.017 L 76.4227,120.421 V 120.421 L 76.1851,119.862 V 119.862 L 75.9171,119.34 V 119.34 L 75.6234,118.855 V 118.855 L 74.9799,117.988 V 117.988 L 74.2936,117.256 V 117.256 L 73.6049,116.652 V 116.652 L 72.9527,116.172 V 116.172 L 72.3764,115.809 V 115.809 L 71.916,115.557 71.5001,115.363 72.4391,115.393 V 115.393 L 73.4432,115.367 V 115.367 L 74.6529,115.256 V 115.256 L 75.9546,115.018 V 115.018 L 76.6047,114.838 V 114.838 L 77.2355,114.61 V 114.61 L 77.8329,114.328 V 114.328 L 78.3827,113.988 V 113.988 L 78.8706,113.585 V 113.585 L 79.2826,113.112 79.5985,112.779 79.885,112.303 V 112.303 L 80.143,111.708 V 111.708 L 80.3742,111.015 V 111.015 L 80.7603,109.43 V 109.43 L 81.0473,107.765 81.0537,107.728 81.264,106.089 V 106.089 L 81.4019,104.695 V 104.695 L 81.5,103.363 V 103.363 L 82.3221,101.95 V 101.95 L 83.1119,100.456 V 100.456 L 83.9424,98.6781 V 98.6781 L 84.3234,97.7399 84.4594,97.3541 84.6552,96.7985 V 96.7985 L 84.9174,95.8775 V 95.8775 L 85.0915,94.9988 V 94.9988 L 85.1563,94.1855 V 94.1855 L 85.0923,93.4597 84.4999,92.363 83.9874,92.036 V 92.036 L 83.4638,91.7545 V 91.7545 L 82.9288,91.5169 V 91.5169 L 82.3832,91.3227 V 91.3227 L 81.8281,91.17 V 91.17 L 81.2638,91.0576 V 91.0576 L 80.1102,90.9486 V 90.9486 L 78.9278,90.9851 V 90.9851 L 77.7213,91.1576 V 91.1576 L 76.4957,91.455 V 91.455 L 75.2564,91.8675 V 91.8675 L 74.0084,92.3842 V 92.3842 L 72.7566,92.9954 V 92.9954 L 71.5062,93.6902 V 93.6902 L 70.2619,94.4588 V 94.4588 L 69.0292,95.2904 V 95.2904 L 67.8132,96.1749 V 96.1749 L 66.6183,97.102 V 97.102 L 65.4502,98.0611 V 98.0611 L 64.7331,98.6945"
         inkscape:label="Redwork Unterpfad 3"
         inkstitch:running_stitch_length_mm="2.5"
         inkstitch:path_type="redwork-underpath" /><path
         id="redwork_5585"
         style="display:inline;opacity:1;fill:none;stroke:#222421;stroke-width:0.264583;stroke-dasharray:none"
         d="M 64.7331,98.6945 65.4502,98.0611 V 98.0611 L 66.6183,97.102 V 97.102 L 67.8132,96.1749 V 96.1749 L 69.0292,95.2904 V 95.2904 L 70.2619,94.4588 V 94.4588 L 71.5062,93.6902 V 93.6902 L 72.7566,92.9954 V 92.9954 L 74.0084,92.3842 V 92.3842 L 75.2564,91.8675 V 91.8675 L 76.4957,91.455 V 91.455 L 77.7213,91.1576 V 91.1576 L 78.9278,90.9851 V 90.9851 L 80.1102,90.9486 V 90.9486 L 81.2638,91.0576 V 91.0576 L 81.8281,91.17 V 91.17 L 82.3832,91.3227 V 91.3227 L 82.9288,91.5169 V 91.5169 L 83.4638,91.7545 V 91.7545 L 83.9874,92.036 V 92.036 L 84.4999,92.363 85.0923,93.4597 85.1563,94.1855 V 94.1855 L 85.0915,94.9988 V 94.9988 L 84.9174,95.8775 V 95.8775 L 84.6552,96.7985 V 96.7985 L 84.4594,97.3541"
         inkscape:label="Redwork 4"
         inkstitch:running_stitch_length_mm="2.5"
         inkstitch:path_type="redwork-top"
         inkstitch:bean_stitch_repeats="1" /><path
         id="underpath_1799"
         style="display:inline;opacity:1;fill:none;stroke:#222421;stroke-width:0.264583;stroke-dasharray:2, 1.1"
         d="M 84.4594,97.3541 83.1238,97.1173 V 97.1173 L 81.7588,96.9472 V 96.9472 L 80.4454,96.8498 V 96.8498 L 79.1886,96.8157 V 96.8157 L 77.994,96.8366 V 96.8366 L 76.8664,96.9046 V 96.9046 L 75.811,97.0112 V 97.0112 L 74.8328,97.1475 V 97.1475 L 73.1284,97.4769 V 97.4769 L 71.7941,97.8264 V 97.8264 L 70.57053,98.212048"
         inkscape:label="Redwork Unterpfad 5"
         inkstitch:running_stitch_length_mm="2.5"
         inkstitch:path_type="redwork-underpath"
         sodipodi:nodetypes="cccccccccccccccccccccc" /><path
         id="redwork_2064"
         style="display:inline;opacity:1;fill:none;stroke:#222421;stroke-width:0.264583;stroke-dasharray:none"
         d="M 70.522503,98.236061 71.7941,97.8264 V 97.8264 L 73.1284,97.4769 V 97.4769 L 74.8328,97.1475 V 97.1475 L 75.811,97.0112 V 97.0112 L 76.8664,96.9046 V 96.9046 L 77.994,96.8366 V 96.8366 L 79.1886,96.8157 V 96.8157 L 80.4454,96.8498 V 96.8498 L 81.7588,96.9472 V 96.9472 L 83.1238,97.1173 V 97.1173 L 84.4594,97.3541 84.3234,97.7399 83.9424,98.6781 V 98.6781 L 83.1119,100.456 V 100.456 L 82.3221,101.95 V 101.95 L 81.5,103.363 V 103.363 L 81.4019,104.695 V 104.695 L 81.264,106.089 V 106.089 L 81.0537,107.728"
         inkscape:label="Redwork 6"
         inkstitch:running_stitch_length_mm="2.5"
         inkstitch:path_type="redwork-top"
         inkstitch:bean_stitch_repeats="1"
         sodipodi:nodetypes="cccccccccccccccccccccccccccccccccccc" /><path
         id="underpath_4830"
         style="display:inline;opacity:1;fill:none;stroke:#222421;stroke-width:0.264583;stroke-dasharray:2, 1.1"
         d="M 81.0473,107.765 80.6211,107.437 V 107.437 L 80.0025,107.056 V 107.056 L 79.326,106.723 V 106.723 L 78.5941,106.432 V 106.432 L 77.8096,106.183 V 106.183 L 76.9751,105.972 V 105.972 L 76.0938,105.795 V 105.795 L 75.168,105.651 V 105.651 L 73.1942,105.448 V 105.448 L 71.076,105.338 V 105.338 L 68.8352,105.301 V 105.301 L 66.5625,105.311 66.3542,105.559 65.91,105.86 V 105.86 L 64.4066,106.668 V 106.668 L 62.3283,107.659 V 107.659 L 59.9688,108.72 V 108.72 L 55.5817,110.605"
         inkscape:label="Redwork Unterpfad 7"
         inkstitch:running_stitch_length_mm="2.5"
         inkstitch:path_type="redwork-underpath" /><path
         id="redwork_2162"
         style="display:inline;opacity:1;fill:none;stroke:#222421;stroke-width:0.264583;stroke-dasharray:none"
         d="M 55.5817,110.605 59.9688,108.72 V 108.72 L 62.3283,107.659 V 107.659 L 64.4066,106.668 V 106.668 L 65.91,105.86 V 105.86 L 66.606343,105.30686"
         inkscape:label="Redwork 8"
         inkstitch:running_stitch_length_mm="2.5"
         inkstitch:path_type="redwork-top"
         inkstitch:bean_stitch_repeats="1"
         sodipodi:nodetypes="cccccccccc" /><path
         id="underpath_4401"
         style="display:inline;opacity:1;fill:none;stroke:#222421;stroke-width:0.264583;stroke-dasharray:2, 1.1"
         d="M 66.8784,104.826 67.5795,103.973 V 103.973 L 68.4868,102.902 V 102.902 L 69.4393,101.728 V 101.728 L 70.2762,100.564 V 100.564 L 70.6011,100.021 V 100.021 L 70.8365,99.5245 70.4839,98.2812 69.6046,98.1394 V 98.1394 L 68.8932,98.082 V 98.082 L 68.064,98.0624 V 98.0624 L 67.1649,98.1021 V 98.1021 L 66.2436,98.2225 V 98.2225 L 65.3483,98.4458 64.7331,98.6945 63.2139,100.035 V 100.035 L 61.1449,102.014 V 102.014 L 59.283,103.916 V 103.916 L 57.669,105.656 V 105.656 L 56.3432,107.154 V 107.154 L 55.3463,108.326 V 108.326 L 54.5001,109.363 V 109.363 L 53.963,109.9 V 109.9 L 53.4492,110.292 V 110.292 L 52.9526,110.536 51.9842,110.558 51.5003,110.327 V 110.327 L 51.0076,109.931 V 109.931 L 50.4999,109.363 V 109.363 L 49.8469,108.559 V 108.559 L 48.0324,106.441 V 106.441 L 46.7574,105.027 V 105.027 L 45.2733,103.452 V 103.452 L 43.607,101.769 V 101.769 L 41.7859,100.035 V 100.035 L 40.2216,98.6461 39.707,98.4458 38.8117,98.2225 V 98.2225 L 37.8904,98.1021 V 98.1021 L 36.9913,98.0624 V 98.0624 L 36.1621,98.082 V 98.082 L 35.4507,98.1394 V 98.1394 L 34.5712,98.2812 34.1849,98.128 33.2615,97.8264 V 97.8264 L 31.927,97.4769 V 97.4769 L 30.2228,97.1475 V 97.1475 L 29.2444,97.0112 V 97.0112 L 28.1889,96.9046 V 96.9046 L 27.0613,96.8366 V 96.8366 L 25.8667,96.8157 V 96.8157 L 24.6099,96.8498 V 96.8498 L 23.2965,96.9472 V 96.9472 L 21.9315,97.1173"
         inkscape:label="Redwork Unterpfad 9"
         inkstitch:running_stitch_length_mm="2.5"
         inkstitch:path_type="redwork-underpath" /><path
         id="redwork_6286"
         style="display:inline;opacity:1;fill:none;stroke:#222421;stroke-width:0.264583;stroke-dasharray:none"
         d="M 21.9315,97.1173 23.2965,96.9472 V 96.9472 L 24.6099,96.8498 V 96.8498 L 25.8667,96.8157 V 96.8157 L 27.0613,96.8366 V 96.8366 L 28.1889,96.9046 V 96.9046 L 29.2444,97.0112 V 97.0112 L 30.2228,97.1475 V 97.1475 L 31.927,97.4769 V 97.4769 L 33.2615,97.8264 V 97.8264 L 34.1849,98.128"
         inkscape:label="Redwork 10"
         inkstitch:running_stitch_length_mm="2.5"
         inkstitch:path_type="redwork-top"
         inkstitch:bean_stitch_repeats="1" /><path
         id="underpath_9510"
         style="display:inline;opacity:1;fill:none;stroke:#222421;stroke-width:0.264583;stroke-dasharray:2, 1.1"
         d="M 34.2188,99.5245 34.4543,100.021 V 100.021 L 34.7792,100.564 V 100.564 L 35.616,101.728 V 101.728 L 36.5685,102.902 V 102.902 L 37.4758,103.973 V 103.973 L 38.1769,104.826 38.4929,105.311 36.2201,105.301 V 105.301 L 33.9793,105.338 V 105.338 L 31.8611,105.448 V 105.448 L 29.8873,105.651 V 105.651 L 28.9615,105.795 V 105.795 L 28.0802,105.972 V 105.972 L 27.246,106.183 V 106.183 L 26.4615,106.432 V 106.432 L 25.7294,106.723 V 106.723 L 25.0528,107.056 V 107.056 L 24.4342,107.437"
         inkscape:label="Redwork Unterpfad 11"
         inkstitch:running_stitch_length_mm="2.5"
         inkstitch:path_type="redwork-underpath" /><path
         id="redwork_3794"
         style="display:inline;opacity:1;fill:none;stroke:#222421;stroke-width:0.264583;stroke-dasharray:none"
         d="M 24.4342,107.437 25.0528,107.056 V 107.056 L 25.7294,106.723 V 106.723 L 26.4615,106.432 V 106.432 L 27.246,106.183 V 106.183 L 28.0802,105.972 V 105.972 L 28.9615,105.795 V 105.795 L 29.8873,105.651 V 105.651 L 31.8611,105.448 V 105.448 L 33.9793,105.338 V 105.338 L 36.2201,105.301 V 105.301 L 38.4929,105.311"
         inkscape:label="Redwork 12"
         inkstitch:running_stitch_length_mm="2.5"
         inkstitch:path_type="redwork-top"
         inkstitch:bean_stitch_repeats="1" /><path
         id="underpath_7563"
         style="display:inline;opacity:1;fill:none;stroke:#222421;stroke-width:0.264583;stroke-dasharray:2, 1.1"
         d="M 38.7011,105.559 39.1453,105.86 V 105.86 L 40.6487,106.668 V 106.668 L 42.727,107.659 V 107.659 L 45.0865,108.72 V 108.72 L 49.4736,110.605 V 110.605 L 51.4582,111.432"
         inkscape:label="Redwork Unterpfad 13"
         inkstitch:running_stitch_length_mm="2.5"
         inkstitch:path_type="redwork-underpath" /><path
         id="redwork_6840"
         style="display:inline;opacity:1;fill:none;stroke:#222421;stroke-width:0.264583;stroke-dasharray:none"
         d="M 51.4582,111.432 49.4736,110.605 V 110.605 L 45.0865,108.72 V 108.72 L 42.727,107.659 V 107.659 L 40.6487,106.668 V 106.668 L 39.1453,105.86 V 105.86 L 38.7011,105.559 38.1769,104.826 37.4758,103.973 V 103.973 L 36.5685,102.902 V 102.902 L 35.616,101.728 V 101.728 L 34.7792,100.564 V 100.564 L 34.4543,100.021 V 100.021 L 34.2188,99.5245 34.5712,98.2812 35.4507,98.1394"
         inkscape:label="Redwork 14"
         inkstitch:running_stitch_length_mm="2.5"
         inkstitch:path_type="redwork-top"
         inkstitch:bean_stitch_repeats="1" /><path
         id="underpath_7896"
         style="display:inline;opacity:1;fill:none;stroke:#222421;stroke-width:0.264583;stroke-dasharray:2, 1.1"
         d="M 35.4507,98.1394 34.5715,98.2812"
         inkscape:label="Redwork Unterpfad 15"
         inkstitch:running_stitch_length_mm="2.5"
         inkstitch:path_type="redwork-underpath" /><path
         id="redwork_3178"
         style="display:inline;opacity:1;fill:none;stroke:#222421;stroke-width:0.264583;stroke-dasharray:none"
         d="M 34.5715,98.2812 35.4507,98.1394 V 98.1394 L 36.1621,98.082 V 98.082 L 36.9913,98.0624 V 98.0624 L 37.8904,98.1021 V 98.1021 L 38.8117,98.2225 V 98.2225 L 39.707,98.4458"
         inkscape:label="Redwork 16"
         inkstitch:running_stitch_length_mm="2.5"
         inkstitch:path_type="redwork-top"
         inkstitch:bean_stitch_repeats="1" /><path
         id="underpath_1741"
         style="display:inline;opacity:1;fill:none;stroke:#222421;stroke-width:0.264583;stroke-dasharray:2, 1.1"
         d="M 40.2216,98.6461 39.8369,98.3048 V 98.3048 L 37.7872,96.6334 V 96.6334 L 35.6639,95.0766 V 95.0766 L 34.5829,94.3588 V 94.3588 L 33.4938,93.6902 V 93.6902 L 32.3998,93.0777 V 93.0777 L 31.3044,92.5284 V 92.5284 L 30.2106,92.0492 V 92.0492 L 29.1224,91.6473 V 91.6473 L 28.0426,91.3293 V 91.3293 L 26.975,91.102 V 91.102 L 25.923,90.9729 V 90.9729 L 24.8896,90.9483 V 90.9483 L 23.736,91.0573 V 91.0573 L 23.1716,91.1695 V 91.1695 L 22.6166,91.3227 V 91.3227 L 22.071,91.5169 V 91.5169 L 21.536,91.7545 V 91.7545 L 21.0121,92.036 V 92.036 L 20.4996,92.363 19.9072,93.4597 19.8435,94.1855 V 94.1855 L 19.9083,94.9988 V 94.9988 L 20.0821,95.8775 V 95.8775 L 20.3446,96.7985 V 96.7985 L 20.5438,97.3634 V 97.3634 L 21.9315,97.1173"
         inkscape:label="Redwork Unterpfad 17"
         inkstitch:running_stitch_length_mm="2.5"
         inkstitch:path_type="redwork-underpath" /><path
         id="redwork_386"
         style="display:inline;opacity:1;fill:none;stroke:#222421;stroke-width:0.264583;stroke-dasharray:none"
         d="M 21.9315,97.1173 20.5438,97.3634"
         inkscape:label="Redwork 18"
         inkstitch:running_stitch_length_mm="2.5"
         inkstitch:path_type="redwork-top"
         inkstitch:bean_stitch_repeats="1" /><path
         id="underpath_7558"
         style="display:inline;opacity:1;fill:none;stroke:#222421;stroke-width:0.264583;stroke-dasharray:2, 1.1"
         d="M 20.6764,97.7399 21.0574,98.6781 V 98.6781 L 21.8882,100.456 V 100.456 L 22.6779,101.95 V 101.95 L 23.5,103.363 V 103.363 L 23.5982,104.695 V 104.695 L 23.736,106.089 V 106.089 L 23.9466,107.728 23.9593,107.802 24.4342,107.437"
         inkscape:label="Redwork Unterpfad 19"
         inkstitch:running_stitch_length_mm="2.5"
         inkstitch:path_type="redwork-underpath" /><path
         id="redwork_7816"
         style="display:inline;opacity:1;fill:none;stroke:#222421;stroke-width:0.264583;stroke-dasharray:none"
         d="M 24.4342,107.437 23.9593,107.802"
         inkscape:label="Redwork 20"
         inkstitch:running_stitch_length_mm="2.5"
         inkstitch:path_type="redwork-top"
         inkstitch:bean_stitch_repeats="1" /><path
         id="underpath_6543"
         style="display:inline;opacity:1;fill:none;stroke:#222421;stroke-width:0.264583;stroke-dasharray:2, 1.1"
         d="M 23.9593,107.802 24.2398,109.43 V 109.43 L 24.6261,111.015 V 111.015 L 24.857,111.708 V 111.708 L 25.1153,112.303 V 112.303 L 25.4016,112.779 25.7175,113.112 26.1294,113.585 V 113.585 L 26.6173,113.988 V 113.988 L 27.1671,114.328 V 114.328 L 27.7645,114.61 V 114.61 L 28.3953,114.838 V 114.838 L 29.0454,115.018 V 115.018 L 30.3474,115.256 V 115.256 L 31.5568,115.367 V 115.367 L 32.5609,115.393 V 115.393 L 33.4999,115.363 33.084,115.557 32.6236,115.809 V 115.809 L 32.0474,116.172 V 116.172 L 31.3952,116.652 V 116.652 L 30.7062,117.256 V 117.256 L 30.0201,117.988 V 117.988 L 29.3767,118.855 V 118.855 L 29.0832,119.34 V 119.34 L 28.8149,119.862 V 119.862 L 28.5773,120.421 V 120.421 L 28.3749,121.017 V 121.017 L 28.2127,121.652 V 121.652 L 28.0961,122.325 V 122.325 L 28.0291,123.038 V 123.038 L 28.0175,123.791 V 123.791 L 28.0659,124.586 V 124.586 L 28.1791,125.422 28.2072,125.557 28.984,124.661 V 124.661 L 29.8645,123.784 V 123.784 L 30.7803,122.983 V 122.983 L 31.7174,122.258 V 122.258 L 32.6614,121.605 V 121.605 L 33.5981,121.022 V 121.022 L 34.5133,120.507 V 120.507 L 35.3927,120.056 V 120.056 L 36.9871,119.34 V 119.34 L 38.2672,118.853 V 118.853 L 39.3633,118.508"
         inkscape:label="Redwork Unterpfad 21"
         inkstitch:running_stitch_length_mm="2.5"
         inkstitch:path_type="redwork-underpath" /><path
         id="redwork_3023"
         style="display:inline;opacity:1;fill:none;stroke:#222421;stroke-width:0.264583;stroke-dasharray:none"
         d="M 39.3633,118.508 38.2672,118.853 V 118.853 L 36.9871,119.34 V 119.34 L 35.3927,120.056 V 120.056 L 34.5133,120.507 V 120.507 L 33.5981,121.022 V 121.022 L 32.6614,121.605 V 121.605 L 31.7174,122.258 V 122.258 L 30.7803,122.983 V 122.983 L 29.8645,123.784 V 123.784 L 28.984,124.661 V 124.661 L 28.2072,125.557"
         inkscape:label="Redwork 22"
         inkstitch:running_stitch_length_mm="2.5"
         inkstitch:path_type="redwork-top"
         inkstitch:bean_stitch_repeats="1" /><path
         id="underpath_9594"
         style="display:inline;opacity:1;fill:none;stroke:#222421;stroke-width:0.264583;stroke-dasharray:2, 1.1"
         d="M 28.2072,125.557 28.3625,126.301 V 126.301 L 28.6205,127.224 V 127.224 L 28.9583,128.19 V 128.19 L 29.3809,129.202 V 129.202 L 29.8931,130.259 V 130.259 L 30.5001,131.363 V 131.363 L 31.1163,132.147 V 132.147 L 31.8309,132.822 V 132.822 L 32.6249,133.397 V 133.397 L 33.4795,133.879 V 133.879 L 34.3757,134.277 V 134.277 L 35.2938,134.598 V 134.598 L 36.2153,134.851 V 134.851 L 37.1207,135.044 V 135.044 L 37.928,135.174 37.9912,135.184 38.8074,135.279 V 135.279 L 40.2015,135.368 V 135.368 L 41.1498,135.375 41.4998,135.363 42.1711,135.228 V 135.228 L 42.8098,135.015 V 135.015 L 43.4167,134.732 V 134.732 L 43.9927,134.383 V 134.383 L 44.5383,133.973 V 133.973 L 45.0545,133.508 V 133.508 L 45.5416,132.993 V 132.993 L 46.0009,132.433 V 132.433 L 46.4327,131.834 V 131.834 L 46.8378,131.201 V 131.201 L 47.5712,129.853 V 129.853 L 48.2068,128.432 V 128.432 L 48.7507,126.981 V 126.981 L 49.2087,125.542 V 125.542 L 49.5866,124.157 V 124.157 L 49.89,122.869 V 122.869 L 50.1252,121.72 V 121.72 L 50.4142,120.009 V 120.009 L 50.4999,119.363 V 119.363 L 50.9552,118.092"
         inkscape:label="Redwork Unterpfad 23"
         inkstitch:running_stitch_length_mm="2.5"
         inkstitch:path_type="redwork-underpath" /><path
         id="redwork_249"
         style="display:inline;opacity:1;fill:none;stroke:#222421;stroke-width:0.264583;stroke-dasharray:none"
         d="M 50.9552,118.092 50.4999,119.363 V 119.363 L 50.4142,120.009 V 120.009 L 50.1252,121.72 V 121.72 L 49.89,122.869 V 122.869 L 49.5866,124.157 V 124.157 L 49.2087,125.542 V 125.542 L 48.7507,126.981 V 126.981 L 48.2068,128.432 V 128.432 L 47.5712,129.853 V 129.853 L 46.8378,131.201 V 131.201 L 46.4327,131.834 V 131.834 L 46.0009,132.433 V 132.433 L 45.5416,132.993 V 132.993 L 45.0545,133.508 V 133.508 L 44.5383,133.973 V 133.973 L 43.9927,134.383 V 134.383 L 43.4167,134.732 V 134.732 L 42.8098,135.015 V 135.015 L 42.1711,135.228 V 135.228 L 41.4998,135.363 41.1498,135.375 40.2015,135.368 V 135.368 L 38.8074,135.279 V 135.279 L 37.9912,135.184"
         inkscape:label="Redwork 24"
         inkstitch:running_stitch_length_mm="2.5"
         inkstitch:path_type="redwork-top"
         inkstitch:bean_stitch_repeats="1" /><path
         id="underpath_2270"
         style="display:inline;opacity:1;fill:none;stroke:#222421;stroke-width:0.264583;stroke-dasharray:2, 1.1"
         d="M 37.928,135.174 38.4029,133.643 V 133.643 L 39.139,131.556 V 131.556 L 40.8847,127.009 V 127.009 L 42.4299,123.195"
         inkscape:label="Redwork Unterpfad 25"
         inkstitch:running_stitch_length_mm="2.5"
         inkstitch:path_type="redwork-underpath" /><path
         id="redwork_3836"
         style="display:inline;opacity:1;fill:none;stroke:#222421;stroke-width:0.264583;stroke-dasharray:none"
         d="M 42.4299,123.195 40.8847,127.009 V 127.009 L 39.139,131.556 V 131.556 L 38.4029,133.643 V 133.643 L 37.928,135.174 V 135.174 L 37.1207,135.044 V 135.044 L 36.2153,134.851 V 134.851 L 35.2938,134.598 V 134.598 L 34.3757,134.277 V 134.277 L 33.4795,133.879 V 133.879 L 32.6249,133.397 V 133.397 L 31.8309,132.822 V 132.822 L 31.1163,132.147 V 132.147 L 30.5001,131.363 V 131.363 L 29.8931,130.259 V 130.259 L 29.3809,129.202 V 129.202 L 28.9583,128.19 V 128.19 L 28.6205,127.224 V 127.224 L 28.3625,126.301 V 126.301 L 28.2072,125.557 28.1791,125.422 28.0659,124.586 V 124.586 L 28.0175,123.791 V 123.791 L 28.0291,123.038 V 123.038 L 28.0961,122.325 V 122.325 L 28.2127,121.652 V 121.652 L 28.3749,121.017 V 121.017 L 28.5773,120.421 V 120.421 L 28.8149,119.862 V 119.862 L 29.0832,119.34 V 119.34 L 29.3767,118.855 V 118.855 L 30.0201,117.988 V 117.988 L 30.7062,117.256 V 117.256 L 31.3952,116.652 V 116.652 L 32.0474,116.172 V 116.172 L 32.6236,115.809 V 115.809 L 33.491524,115.42116"
         inkscape:label="Redwork 26"
         inkstitch:running_stitch_length_mm="2.5"
         inkstitch:path_type="redwork-top"
         inkstitch:bean_stitch_repeats="1"
         sodipodi:nodetypes="cccccccccccccccccccccccccccccccccccccccccccccccccccccccccccccccccccccc" /><path
         id="underpath_2820"
         style="display:inline;opacity:1;fill:none;stroke:#222421;stroke-width:0.264583;stroke-dasharray:2, 1.1"
         d="M 33.4073,115.406 38.536,114.409 V 114.409 L 51.2481,111.939"
         inkscape:label="Redwork Unterpfad 27"
         inkstitch:running_stitch_length_mm="2.5"
         inkstitch:path_type="redwork-underpath" /><path
         id="redwork_2281"
         style="display:inline;opacity:1;fill:none;stroke:#222421;stroke-width:0.264583;stroke-dasharray:none"
         d="M 51.2481,111.939 38.536,114.409"
         inkscape:label="Redwork 28"
         inkstitch:running_stitch_length_mm="2.5"
         inkstitch:path_type="redwork-top"
         inkstitch:bean_stitch_repeats="1" /><path
         id="underpath_3506"
         style="display:inline;opacity:1;fill:none;stroke:#222421;stroke-width:0.264583;stroke-dasharray:2, 1.1"
         d="M 38.5431,114.447 38.9585,115.724 V 115.724 L 39.2072,116.562 V 116.562 L 39.4279,117.435 39.2718,118.808 38.9572,119.523 V 119.523 L 38.5656,120.201 V 120.201 L 38.1563,120.8 V 120.8 L 37.7896,121.28 V 121.28 L 37.4242,121.714 37.6279,122.529 38.1137,122.737 V 122.737 L 38.6027,122.88 40.0809,122.945 40.5754,122.857 V 122.857 L 41.0696,122.719 V 122.719 L 41.5628,122.534 V 122.534 L 42.5434,122.038 V 122.038 L 43.0519,121.7 V 121.7 L 42.4299,123.195"
         inkscape:label="Redwork Unterpfad 29"
         inkstitch:running_stitch_length_mm="2.5"
         inkstitch:path_type="redwork-underpath" /><path
         id="redwork_4144"
         style="display:inline;opacity:1;fill:none;stroke:#222421;stroke-width:0.264583;stroke-dasharray:none"
         d="M 42.4299,123.195 43.0519,121.7"
         inkscape:label="Redwork 30"
         inkstitch:running_stitch_length_mm="2.5"
         inkstitch:path_type="redwork-top"
         inkstitch:bean_stitch_repeats="1" /><path
         id="underpath_3160"
         style="display:inline;opacity:1;fill:none;stroke:#222421;stroke-width:0.264583;stroke-dasharray:2, 1.1"
         d="M 43.0519,121.7 43.512,121.394 V 121.394 L 44.4632,120.627 V 120.627 L 45.3913,119.762 V 119.762 L 46.2912,118.826 V 118.826 L 47.1572,117.844 V 117.844 L 48.7661,115.843 V 115.843 L 51.3394,112.409"
         inkscape:label="Redwork Unterpfad 31"
         inkstitch:running_stitch_length_mm="2.5"
         inkstitch:path_type="redwork-underpath" /><path
         id="redwork_7535"
         style="display:inline;opacity:1;fill:none;stroke:#222421;stroke-width:0.264583;stroke-dasharray:none"
         d="M 51.3394,112.409 48.7661,115.843 V 115.843 L 47.1572,117.844 V 117.844 L 46.2912,118.826 V 118.826 L 45.3913,119.762 V 119.762 L 44.4632,120.627 V 120.627 L 43.512,121.394 V 121.394 L 43.0519,121.7 V 121.7 L 42.5434,122.038 V 122.038 L 41.5628,122.534 V 122.534 L 41.0696,122.719 V 122.719 L 40.5754,122.857 V 122.857 L 40.0809,122.945 38.6027,122.88 38.1137,122.737 V 122.737 L 37.6279,122.529 37.4242,121.714 37.7896,121.28 V 121.28 L 38.1563,120.8 V 120.8 L 38.5656,120.201 V 120.201 L 38.9572,119.523 V 119.523 L 39.2718,118.808 39.4279,117.435 39.2072,116.562 V 116.562 L 38.9585,115.724 V 115.724 L 38.5431,114.447 38.536,114.409 33.4073,115.406 33.4999,115.363 32.5609,115.393 V 115.393 L 31.5568,115.367 V 115.367 L 30.3474,115.256 V 115.256 L 29.0454,115.018 V 115.018 L 28.3953,114.838 V 114.838 L 27.7645,114.61 V 114.61 L 27.1671,114.328 V 114.328 L 26.6173,113.988 V 113.988 L 26.1294,113.585 V 113.585 L 25.7175,113.112 25.4016,112.779 25.1153,112.303 V 112.303 L 24.857,111.708 V 111.708 L 24.6261,111.015 V 111.015 L 24.2398,109.43 V 109.43 L 23.9593,107.802 23.9466,107.728 23.736,106.089 V 106.089 L 23.5982,104.695 V 104.695 L 23.5,103.363 V 103.363 L 22.6779,101.95 V 101.95 L 21.8882,100.456 V 100.456 L 21.0574,98.6781 V 98.6781 L 20.6764,97.7399 20.5438,97.3634 20.3446,96.7985 V 96.7985 L 20.0821,95.8775 V 95.8775 L 19.9083,94.9988 V 94.9988 L 19.8435,94.1855 V 94.1855 L 19.9072,93.4597 20.4996,92.363 21.0121,92.036 V 92.036 L 21.536,91.7545 V 91.7545 L 22.071,91.5169 V 91.5169 L 22.6166,91.3227 V 91.3227 L 23.1716,91.1695 V 91.1695 L 23.736,91.0573 V 91.0573 L 24.8896,90.9483 V 90.9483 L 25.923,90.9729 V 90.9729 L 26.975,91.102 V 91.102 L 28.0426,91.3293 V 91.3293 L 29.1224,91.6473 V 91.6473 L 30.2106,92.0492 V 92.0492 L 31.3044,92.5284 V 92.5284 L 32.3998,93.0777 V 93.0777 L 33.4938,93.6902 V 93.6902 L 34.5829,94.3588 V 94.3588 L 35.6639,95.0766 V 95.0766 L 37.7872,96.6334 V 96.6334 L 39.8369,98.3048 V 98.3048 L 40.2216,98.6461 V 98.6461 L 41.7859,100.035 V 100.035 L 43.607,101.769 V 101.769 L 45.2733,103.452 V 103.452 L 46.7574,105.027 V 105.027 L 48.0324,106.441 V 106.441 L 49.8469,108.559 V 108.559 L 50.4999,109.363 V 109.363 L 51.0076,109.931 V 109.931 L 51.5003,110.327 V 110.327 L 51.9842,110.558 52.9526,110.536 53.4492,110.292 V 110.292 L 53.963,109.9 V 109.9 L 54.5001,109.363 V 109.363 L 55.3463,108.326 V 108.326 L 56.3432,107.154 V 107.154 L 57.669,105.656 V 105.656 L 59.283,103.916 V 103.916 L 61.1449,102.014 V 102.014 L 63.2139,100.035 V 100.035 L 64.7331,98.6945 65.3483,98.4458 66.2436,98.2225 V 98.2225 L 67.1649,98.1021 V 98.1021 L 68.064,98.0624 V 98.0624 L 68.8932,98.082 V 98.082 L 69.6046,98.1394 V 98.1394 L 70.4839,98.2812 70.8365,99.5245 70.6011,100.021 V 100.021 L 70.2762,100.564 V 100.564 L 69.4393,101.728 V 101.728 L 68.4868,102.902 V 102.902 L 67.5795,103.973 V 103.973 L 66.8784,104.826 66.5625,105.311 68.8352,105.301 V 105.301 L 71.076,105.338 V 105.338 L 73.1942,105.448 V 105.448 L 75.168,105.651 V 105.651 L 76.0938,105.795 V 105.795 L 76.9751,105.972 V 105.972 L 77.8096,106.183 V 106.183 L 78.5941,106.432 V 106.432 L 79.326,106.723 V 106.723 L 80.0025,107.056 V 107.056 L 80.6211,107.437 V 107.437 L 81.0473,107.765 V 107.765 L 80.7603,109.43 V 109.43 L 80.3742,111.015 V 111.015 L 80.143,111.708 V 111.708 L 79.885,112.303 V 112.303 L 79.5985,112.779 79.2826,113.112 78.8706,113.585 V 113.585 L 78.3827,113.988 V 113.988 L 77.8329,114.328 V 114.328 L 77.2355,114.61 V 114.61 L 76.6047,114.838 V 114.838 L 75.9546,115.018 V 115.018 L 74.6529,115.256 V 115.256 L 73.4432,115.367 V 115.367 L 72.4391,115.393 V 115.393 L 71.5001,115.363"
         inkscape:label="Redwork 32"
         inkstitch:running_stitch_length_mm="2.5"
         inkstitch:path_type="redwork-top"
         inkstitch:bean_stitch_repeats="1" /><path
         id="underpath_5987"
         style="display:inline;opacity:1;fill:none;stroke:#222421;stroke-width:0.264583;stroke-dasharray:2, 1.1"
         d="M 71.6507,115.433 72.1655,115.534"
         inkscape:label="Redwork Unterpfad 33"
         inkstitch:running_stitch_length_mm="2.5"
         inkstitch:path_type="redwork-underpath" /><path
         id="redwork_5006"
         style="display:inline;opacity:1;fill:none;stroke:#222421;stroke-width:0.264583;stroke-dasharray:none"
         d="M 72.1655,115.534 71.6507,115.433"
         inkscape:label="Redwork 34"
         inkstitch:running_stitch_length_mm="2.5"
         inkstitch:path_type="redwork-top"
         inkstitch:bean_stitch_repeats="1" /><path
         id="underpath_1140"
         style="display:inline;opacity:1;fill:none;stroke:#222421;stroke-width:0.264583;stroke-dasharray:2, 1.1"
         d="M 71.6507,115.433 66.4503,114.415"
         inkscape:label="Redwork Unterpfad 35"
         inkstitch:running_stitch_length_mm="2.5"
         inkstitch:path_type="redwork-underpath" /><path
         id="redwork_2456"
         style="display:inline;opacity:1;fill:none;stroke:#222421;stroke-width:0.264583;stroke-dasharray:none"
         d="M 66.4503,114.415 71.6507,115.433 71.916,115.557 72.3764,115.809 V 115.809 L 72.9527,116.172 V 116.172 L 73.6049,116.652 V 116.652 L 74.2936,117.256 V 117.256 L 74.9799,117.988 V 117.988 L 75.6234,118.855 V 118.855 L 75.9171,119.34 V 119.34 L 76.1851,119.862 V 119.862 L 76.4227,120.421 V 120.421 L 76.6251,121.017 V 121.017 L 76.7873,121.652 V 121.652 L 76.9042,122.325 V 122.325 L 76.9709,123.038 V 123.038 L 76.9825,123.791 V 123.791 L 76.9344,124.586 V 124.586 L 76.8209,125.422"
         inkscape:label="Redwork 36"
         inkstitch:running_stitch_length_mm="2.5"
         inkstitch:path_type="redwork-top"
         inkstitch:bean_stitch_repeats="1" /><path
         id="underpath_8622"
         style="display:inline;opacity:1;fill:none;stroke:#222421;stroke-width:0.264583;stroke-dasharray:2, 1.1"
         d="M 76.8034,125.506 76.0713,124.661 V 124.661 L 75.1908,123.784 V 123.784 L 74.2751,122.983 V 122.983 L 73.3379,122.258 V 122.258 L 72.3939,121.605 V 121.605 L 71.4573,121.022 V 121.022 L 70.5421,120.507 V 120.507 L 69.6626,120.056 V 120.056 L 68.0682,119.34 V 119.34 L 66.7884,118.853 V 118.853 L 65.692,118.508"
         inkscape:label="Redwork Unterpfad 37"
         inkstitch:running_stitch_length_mm="2.5"
         inkstitch:path_type="redwork-underpath" /><path
         id="redwork_2563"
         style="display:inline;opacity:1;fill:none;stroke:#222421;stroke-width:0.264583;stroke-dasharray:none"
         d="M 65.692,118.508 66.7884,118.853 V 118.853 L 68.0682,119.34 V 119.34 L 69.6626,120.056 V 120.056 L 70.5421,120.507 V 120.507 L 71.4573,121.022 V 121.022 L 72.3939,121.605 V 121.605 L 73.3379,122.258 V 122.258 L 74.2751,122.983 V 122.983 L 75.1908,123.784 V 123.784 L 76.0713,124.661 V 124.661 L 76.8034,125.506 V 125.506 L 76.6378,126.301 V 126.301 L 76.3796,127.224 V 127.224 L 76.0417,128.19 V 128.19 L 75.6191,129.202 V 129.202 L 75.1069,130.259 V 130.259 L 74.5,131.363 V 131.363 L 73.884,132.147 V 132.147 L 73.1694,132.822 V 132.822 L 72.3751,133.397 V 133.397 L 71.5205,133.879 V 133.879 L 70.6246,134.277 V 134.277 L 69.7062,134.598 V 134.598 L 68.785,134.851 V 134.851 L 67.8793,135.044 V 135.044 L 67.1247,135.165 V 135.165 L 66.6527,133.643 V 133.643 L 65.9166,131.556 V 131.556 L 64.1706,127.009 V 127.009 L 62.6255,123.195 V 123.195 L 62.0034,121.7"
         inkscape:label="Redwork 38"
         inkstitch:running_stitch_length_mm="2.5"
         inkstitch:path_type="redwork-top"
         inkstitch:bean_stitch_repeats="1" /><path
         id="underpath_709"
         style="display:inline;opacity:1;fill:none;stroke:#222421;stroke-width:0.264583;stroke-dasharray:2, 1.1"
         d="M 62.0034,121.7 62.512,122.038 V 122.038 L 63.4925,122.534 V 122.534 L 63.9857,122.719 V 122.719 L 64.4799,122.857 V 122.857 L 64.9744,122.945 66.4527,122.88 66.9416,122.737 V 122.737 L 67.4274,122.529 67.6311,121.714 67.2657,121.28 V 121.28 L 66.899,120.8 V 120.8 L 66.49,120.201 V 120.201 L 66.0981,119.523 V 119.523 L 65.7838,118.808 65.6274,117.435 66.06,115.742 V 115.742 L 66.4286,114.526"
         inkscape:label="Redwork Unterpfad 39"
         inkstitch:running_stitch_length_mm="2.5"
         inkstitch:path_type="redwork-underpath" /><path
         id="redwork_8584"
         style="display:inline;opacity:1;fill:none;stroke:#222421;stroke-width:0.264583;stroke-dasharray:none"
         d="M 66.4286,114.526 66.06,115.742 V 115.742 L 65.6274,117.435 65.7838,118.808 66.0981,119.523 V 119.523 L 66.49,120.201 V 120.201 L 66.899,120.8 V 120.8 L 67.2657,121.28 V 121.28 L 67.6311,121.714 67.4274,122.529 66.9416,122.737 V 122.737 L 66.4527,122.88 64.9744,122.945 64.4799,122.857 V 122.857 L 63.9857,122.719 V 122.719 L 63.4925,122.534 V 122.534 L 62.512,122.038 V 122.038 L 62.0034,121.7 V 121.7 L 61.5433,121.394 V 121.394 L 60.5922,120.627 V 120.627 L 59.664,119.762 V 119.762 L 58.7641,118.826 V 118.826 L 57.8982,117.844 V 117.844 L 56.2892,115.843 V 115.843 L 53.7159,112.409"
         inkscape:label="Redwork 40"
         inkstitch:running_stitch_length_mm="2.5"
         inkstitch:path_type="redwork-top"
         inkstitch:bean_stitch_repeats="1" /><path
         id="underpath_7357"
         style="display:inline;opacity:1;fill:none;stroke:#222421;stroke-width:0.264583;stroke-dasharray:2, 1.1"
         d="M 53.8077,111.939 66.4503,114.415"
         inkscape:label="Redwork Unterpfad 41"
         inkstitch:running_stitch_length_mm="2.5"
         inkstitch:path_type="redwork-underpath" /><path
         id="redwork_4253"
         style="display:inline;opacity:1;fill:none;stroke:#222421;stroke-width:0.264583;stroke-dasharray:none"
         d="M 66.4503,114.415 53.8077,111.939"
         inkscape:label="Redwork 42"
         inkstitch:running_stitch_length_mm="2.5"
         inkstitch:path_type="redwork-top"
         inkstitch:bean_stitch_repeats="1" /><path
         id="underpath_9652"
         style="display:inline;opacity:1;fill:none;stroke:#222421;stroke-width:0.264583;stroke-dasharray:2, 1.1"
         d="M 53.5971,111.432 55.5817,110.605"
         inkscape:label="Redwork Unterpfad 43"
         inkstitch:running_stitch_length_mm="2.5"
         inkstitch:path_type="redwork-underpath" /><path
         id="redwork_9492"
         style="display:inline;opacity:1;fill:none;stroke:#222421;stroke-width:0.264583;stroke-dasharray:none"
         d="M 55.5817,110.605 53.5971,111.432"
         inkscape:label="Redwork 44"
         inkstitch:running_stitch_length_mm="2.5"
         inkstitch:path_type="redwork-top"
         inkstitch:bean_stitch_repeats="1" /></g><path
       id="path3584"
       style="opacity:1;display:inline;fill:none;stroke:#303030;stroke-width:0.264583"
       d="M 52.944169,105.99449 C 52.944169,105.99449 54.302584,106.30013 54.370505,107.79438 54.438423,109.28864 54.472385,112.68467 54.472385,112.68467 54.472385,112.68467 54.676146,117.23536 54.608225,117.57496 54.540307,117.91456 54.574266,120.46159 54.574266,120.80119 54.574266,121.1408 54.574266,123.31426 54.472385,123.9595 54.370505,124.60475 53.929018,126.06504 52.910209,126.91405 M 52.414665,105.99449 C 52.414665,105.99449 50.852488,106.23221 50.784567,107.72646 50.716649,109.22072 50.682687,112.61675 50.682687,112.61675 50.682687,112.61675 50.478926,117.16744 50.546847,117.50704 50.614765,117.84664 50.580806,120.39367 50.580806,120.73327 50.580806,121.07288 50.580806,123.24634 50.682687,123.89158 50.784567,124.53683 51.293975,126.13296 52.312784,126.98197 M 50.343084,107.11518 H 54.656047 M 49.93556,114.11101 H 55.233373 M 51.022291,126.20089 H 54.384364"
       sodipodi:nodetypes="cscsssccscsssccccccc"
       inkscape:label="Satin"
       inkstitch:satin_column="True"
       inkstitch:contour_underlay="True"
       inkstitch:zigzag_underlay="True"
       inkstitch:zigzag_underlay_max_stitch_length_mm="2" /></g></svg>
