<?xml version="1.0" encoding="UTF-8" standalone="no"?>
<!-- Created with Inkscape (http://www.inkscape.org/) -->

<svg
   width="100mm"
   height="100mm"
   viewBox="0 0 100 100"
   version="1.1"
   id="svg512"
   inkscape:version="1.2.2 (b0a8486541, 2022-12-01)"
   sodipodi:docname="pattern_along_path.svg"
   xmlns:inkscape="http://www.inkscape.org/namespaces/inkscape"
   xmlns:sodipodi="http://sodipodi.sourceforge.net/DTD/sodipodi-0.dtd"
   xmlns="http://www.w3.org/2000/svg"
   xmlns:svg="http://www.w3.org/2000/svg">
  <metadata
     id="metadata1372" />
  <sodipodi:namedview
     id="namedview514"
     pagecolor="#ffffff"
     bordercolor="#000000"
     borderopacity="0.25"
     inkscape:showpageshadow="2"
     inkscape:pageopacity="0.0"
     inkscape:pagecheckerboard="0"
     inkscape:deskcolor="#d1d1d1"
     inkscape:document-units="mm"
     showgrid="false"
     inkscape:zoom="1.5656652"
     inkscape:cx="217.79879"
     inkscape:cy="197.9989"
     inkscape:window-width="1920"
     inkscape:window-height="1011"
     inkscape:window-x="0"
     inkscape:window-y="32"
     inkscape:window-maximized="1"
     inkscape:current-layer="layer1" />
  <defs
     id="defs509">
    <inkscape:path-effect
       effect="skeletal"
       id="path-effect1357"
       is_visible="true"
       lpeversion="1"
       pattern="M 16.867231,-15.929381 22.589724,-15.914434 C 20.150001,-16.038003 18.927673,-13.726452 18.830678,-12.894899 26.412993,-14.817351 20.968491,-18.539929 18.302882,-19.426092 19.097348,-18.828851 20.331846,-15.075364 22.767465,-15.911527 L 24.967534,-15.929381"
       copytype="repeated"
       prop_scale="1"
       scale_y_rel="false"
       spacing="0"
       normal_offset="0"
       tang_offset="0"
       prop_units="false"
       vertical_pattern="false"
       hide_knot="false"
       fuse_tolerance="0"
       pattern-nodetypes="cccccc" />
    <inkscape:path-effect
       effect="skeletal"
       id="path-effect1347"
       is_visible="true"
       lpeversion="1"
       pattern="M 38.34063,9.6324313 H 45.432986 C 46.019724,9.7955964 46.550001,9.7846771 47.030796,9.656963 49.013905,9.1301878 50.155212,6.6164183 50.944611,6.1357203 47.653858,7.0218833 40.932501,10.744461 50.293036,12.666913 50.19071,11.956315 49.341389,10.137739 47.216978,9.7008373 46.85537,9.6264698 46.45682,9.6144574 46.018721,9.6324313"
       copytype="repeated"
       prop_scale="1"
       scale_y_rel="false"
       spacing="-4.93"
       normal_offset="0"
       tang_offset="0"
       prop_units="false"
       vertical_pattern="false"
       hide_knot="false"
       fuse_tolerance="0"
       pattern-nodetypes="ccsccsc" />
    <inkscape:path-effect
       effect="skeletal"
       id="path-effect1337"
       is_visible="true"
       lpeversion="1"
       pattern="M -1.0812276,-69.848564 1.6348051,-69.83071 C 4.6416298,-68.994547 6.1656448,-72.748034 7.1464298,-73.345275 3.8556777,-72.459112 -2.8656794,-68.736534 6.4948548,-66.814082 6.3751118,-67.645636 4.8661211,-69.957186 1.8542308,-69.833617 L 8.9187728,-69.848564"
       copytype="repeated"
       prop_scale="1"
       scale_y_rel="false"
       spacing="0"
       normal_offset="0"
       tang_offset="0"
       prop_units="false"
       vertical_pattern="false"
       hide_knot="false"
       fuse_tolerance="0"
       pattern-nodetypes="cccccc" />
  </defs>
  <g
     inkscape:label="Layer 1"
     inkscape:groupmode="layer"
     id="layer1">
    <path
       style="fill:none;stroke:#008000;stroke-width:0.265;stroke-linecap:square;stroke-linejoin:bevel;stroke-dasharray:8, 1;stroke-dashoffset:0"
       d="M 6.4067552,14.228908 C 5.96816,13.445902 5.5707906,12.641947 5.2092254,11.821462 4.7520301,8.7628131 0.84236577,8.4726493 -0.01899532,7.6234547 0.93391826,9.2812499 2.8183621,11.306638 4.4485699,11.673539 6.1380221,12.053775 6.7447128,10.73188 6.4468562,6.4321514 5.7444887,6.7469641 3.7592054,8.8528218 5.1183176,11.624032 4.1739908,9.4909745 3.4670834,7.2443839 2.9042654,4.9645001 2.8103018,4.569072 2.7206697,4.1727231 2.6348744,3.7758567 2.5302526,3.2912073 2.4316904,2.8053652 2.3388969,2.3184566 2.5790659,-0.78072527 -1.282571,-1.7530001 -1.9947007,-2.698708 -1.3356188,-0.9969445 0.1524087,1.3136905 1.6291138,2.0058528 3.1515589,2.7194543 4.1740221,1.6588512 4.567752,-2.8356596 3.7881624,-2.6270431 1.5899285,-0.86779146 2.2940973,2.1045834 1.8430015,-0.19655226 1.5196366,-2.5233541 1.2935571,-4.8616804 1.2144732,-5.7614138 1.149795,-6.6625995 1.0977717,-7.564479 1.2547786,-8.3095301 1.151972,-8.9459448 0.8951453,-9.5063435 0.10244548,-11.236224 -2.1638903,-12.256022 -2.6250535,-13.011911 -2.3253786,-11.926242 -1.7250895,-10.530232 -0.96062479,-9.4228406 -0.96062479,-9.4228406 -0.96062439,-9.4228401 -0.96062439,-9.4228401 0.37985259,-7.4790126 2.0361288,-6.6474129 3.1632694,-9.6084009 3.4373614,-10.328117 3.6837133,-11.26169 3.9143864,-12.466449 3.2668952,-12.363261 1.7078503,-11.406822 1.2072129,-9.5203855 1.0709176,-9.0067194 1.0145863,-8.4255763 1.0810672,-7.7828089 1.0441352,-8.3583937 1.0122999,-8.9343244 0.985111,-9.5103917 0.90161477,-11.281382 0.86068634,-13.054058 0.86058035,-14.826895 0.86839115,-15.730187 0.88679978,-16.633335 0.91557014,-17.536146 1.8270869,-20.513939 -1.8006137,-22.231265 -2.3253736,-23.277729 -1.9963837,-21.529071 -0.98717966,-18.974156 0.29033906,-17.995046 1.5953249,-16.994885 2.8979423,-17.734224 4.1465482,-22.1828 3.3253866,-22.122131 0.87595397,-20.793785 0.91839897,-17.755069 0.97713452,-20.103822 1.1058733,-22.451395 1.3005524,-24.79424 1.3832385,-25.694302 1.475658,-26.593496 1.5775748,-27.491625 2.7280971,-30.387764 -0.75759358,-32.387313 -1.1999259,-33.469664 -1.0074826,-31.705943 -0.20221374,-29.077885 0.99120533,-27.99985 2.2079746,-26.900723 3.5762475,-27.522282 5.1698567,-31.874578 4.3449305,-31.877825 1.8016674,-30.741566 1.5981365,-27.709751 1.8468737,-30.047669 2.1598525,-32.379398 2.5330101,-34.701387 2.6842418,-35.592834 2.8443425,-36.482686 3.0130761,-37.370749 3.3773362,-38.119317 3.4065505,-38.819278 3.2464958,-39.472688 2.8080138,-41.263527 0.93975708,-42.717461 0.67136359,-43.533168 0.71295066,-42.462875 0.9550726,-41.055305 1.3955847,-39.840654 2.2357403,-37.50916 3.7003843,-36.121353 5.6040226,-39.004007 6.016684,-39.627007 6.4497574,-40.439927 6.9215117,-41.486756 6.2821464,-41.534752 4.6244204,-40.992572 3.6712219,-39.388252 3.3762942,-38.8915 3.1506916,-38.293658 3.0498626,-37.586742 3.1629428,-38.205938 3.2802142,-38.824331 3.4015988,-39.441854 3.7341225,-41.131305 4.0940576,-42.819024 4.4893033,-44.498802 4.7044852,-45.378881 4.9293629,-46.256601 5.1650559,-47.131034 6.7395357,-49.827361 3.6155467,-52.349904 3.3625272,-53.50254 3.2523628,-51.698865 3.6349585,-48.978646 4.6604976,-47.722884 5.7172223,-46.428937 7.1310553,-46.895644 9.3895655,-50.887368 8.5799269,-51.024999 5.8782197,-50.328984 5.2181771,-47.344018 5.8159852,-49.622408 6.4879513,-51.87936 7.2541903,-54.099067 7.5562091,-54.949871 7.8720673,-55.794927 8.2028843,-56.633307 10.06204,-59.123358 7.3098178,-62.000621 7.2196442,-63.186479 6.8573177,-61.383043 6.8923536,-58.647191 7.7703372,-57.276154 8.6869939,-55.844728 10.097631,-56.229456 12.824252,-59.797772 12.050505,-60.040016 9.2734402,-59.730444 8.2793106,-56.837951 9.1271062,-59.023358 10.077485,-61.16489 11.150563,-63.246737 11.514805,-63.938508 11.892601,-64.62339 12.284687,-65.300777 12.344224,-65.403554 12.40411,-65.506169 12.464356,-65.6086 14.689801,-67.78083 12.550173,-71.121068 12.76217,-72.343135 11.923084,-70.542078 11.470816,-67.842473 12.136629,-66.312955 12.454962,-65.581676 13.010146,-65.207203 13.869851,-65.411936 14.79063,-65.631214 15.834303,-66.400094 17.524694,-67.826264 16.835055,-68.221562 14.038358,-68.561359 12.571802,-65.798969 13.75206,-67.826618 15.076449,-69.781073 16.634109,-71.511876 17.238789,-72.172037 17.87738,-72.79853 18.554723,-73.382675 18.607328,-73.407703 18.658526,-73.433364 18.708381,-73.459661 18.708381,-73.459661 18.708381,-73.459661 18.708381,-73.459661 19.986065,-74.131088 20.435826,-75.279742 20.816325,-76.529451 21.193485,-77.768191 21.462386,-78.992339 21.94957,-79.48896 19.679724,-78.081301 17.965303,-75.230166 18.592483,-73.594236 18.592483,-73.594236 18.592483,-73.594236 18.592483,-73.594236 18.704994,-73.300542 18.89637,-73.071388 19.173039,-72.920124 19.173039,-72.920124 19.173039,-72.920124 19.173039,-72.920124 20.120116,-72.39826 21.270705,-72.820945 23.757505,-73.203012 23.555526,-73.561796 22.960083,-74.172073 22.027957,-74.426545 21.105205,-74.678458 19.830047,-74.56003 18.71678,-73.526617 20.480575,-75.038934 22.569658,-76.24034 24.812961,-76.696272"
       id="path633"
       inkscape:original-d="M 6.2058259,14.343107 C -6.9558615,-8.8145266 4.637563,-75.571244 26.062549,-77.098212"
       class="UnoptimicedTransforms"
       sodipodi:nodetypes="cc"
       transform="translate(8.16267, 82.4743)"
       inkscape:path-effect="#path-effect1337" />
    <path
       style="fill:none;stroke:#008000;stroke-width:0.265;stroke-linecap:square;stroke-linejoin:bevel;stroke-dasharray:8, 1;stroke-dashoffset:0"
       d="M 32.034389,-63.169234 C 30.511177,-62.010281 29.03155,-60.782934 27.613482,-59.48762 29.470799,-61.02801 29.023598,-63.581217 28.568012,-64.30653 26.042776,-61.005656 26.846871,-59.560458 28.176177,-59.139903 29.550288,-58.705174 31.867271,-59.11488 33.086063,-59.546866 32.186389,-59.540402 28.738722,-61.697084 27.479863,-59.368525 26.941481,-58.863091 26.412492,-58.347809 25.893917,-57.822737 24.530604,-56.471527 23.236317,-55.052596 22.029031,-53.56637 23.627598,-55.352771 22.854017,-57.817299 22.30059,-58.480028 20.230014,-54.826788 21.280017,-53.524113 22.634494,-53.306356 24.038821,-53.080584 26.283831,-53.800339 27.418271,-54.37344 26.536456,-54.254774 22.818127,-55.927809 21.914885,-53.429215 21.458923,-52.851268 21.016113,-52.263653 20.587475,-51.666429 19.45608,-50.125054 18.419153,-48.516629 17.494669,-46.841583 18.744221,-48.87042 17.596899,-51.168189 16.944952,-51.731502 15.470814,-47.757859 16.785614,-46.669337 18.135347,-46.693018 19.541062,-46.71768 21.634401,-47.800599 22.634531,-48.52393 21.810806,-48.278367 17.853858,-49.313719 17.40671,-46.686471 17.060848,-46.037112 16.731896,-45.378266 16.420873,-44.70999 16.349272,-44.560338 16.278568,-44.410188 16.208774,-44.259542 15.473016,-42.668665 14.845806,-41.035041 14.314044,-39.370427 15.144695,-41.597894 13.568438,-43.643516 12.821593,-44.070578 12.13835,-39.87101 13.66398,-39.065925 14.971638,-39.348957 16.343037,-39.645785 18.194886,-41.126234 19.032739,-42.012038 18.267003,-41.617623 14.187402,-41.874812 14.257805,-39.201244 14.044201,-38.497385 13.847544,-37.788468 13.666829,-37.075339 13.177016,-35.225628 12.794393,-33.345125 12.501774,-31.449259 12.980757,-33.80085 11.046473,-35.529464 10.243069,-35.814314 10.306201,-31.634224 11.877562,-31.032891 13.157342,-31.531011 14.49195,-32.05047 16.048149,-33.823719 16.72577,-34.888446 16.031449,-34.340443 11.992145,-33.884229 12.472348,-31.272918 12.36978,-30.542485 12.280485,-29.810135 12.20346,-29.076713 12.04159,-27.679384 11.924256,-26.277206 11.844678,-24.876263 11.815665,-24.367071 11.79111,-23.857839 11.770376,-23.348589 11.821488,-23.924161 11.739337,-24.437175 11.572868,-24.891062 11.033869,-26.36028 9.6088232,-27.237162 8.9812499,-27.36798 9.1358115,-26.378909 9.3556592,-25.595416 9.6055418,-24.998171 10.777411,-22.195258 12.577569,-23.251583 13.882301,-24.765327 14.58692,-25.579661 15.209234,-26.584819 15.544868,-27.320367 15.056051,-26.80604 12.848145,-26.183066 11.999069,-24.867857 11.691325,-24.391264 11.56207,-23.828162 11.760845,-23.17071 11.740079,-22.436111 11.727108,-21.701647 11.720023,-20.967318 11.681143,-19.057652 11.682059,-17.148046 11.68919,-15.239573 11.796672,-17.667303 9.4941791,-18.915216 8.6638304,-19.018341 9.5999427,-15.167896 11.070227,-14.683966 12.322867,-15.423536 13.59295,-16.173404 14.748235,-18.209344 15.197361,-19.500753 14.594033,-18.726379 10.835158,-17.49299 11.687428,-15.061729 11.698174,-14.328075 11.709686,-13.594612 11.720052,-12.86134 11.72655,-10.953938 11.725305,-9.0479929 11.682738,-7.1445796 11.855294,-9.5901057 9.5137228,-10.801373 8.6927154,-10.895076 9.6514735,-7.1781774 11.011706,-6.5798559 12.320708,-7.3125068 13.627825,-8.0441024 14.78064,-10.076618 15.224184,-11.436075 14.628961,-10.632022 10.891569,-9.4152171 11.676209,-6.9672781 11.672,-6.6429699 11.66656,-6.3187101 11.659724,-5.9944988 11.650954,-5.587186 11.639685,-5.1794948 11.625551,-4.7716318 11.539049,-2.8674793 11.389945,-0.96094098 11.141606,0.92574309 11.584474,-1.5206525 9.2791404,-2.8725521 8.4799263,-3.0166473 9.1839657,0.62297565 10.375852,1.4360955 11.795467,0.82701945 13.20059,0.22416086 14.512855,-1.7210589 15.053502,-3.1267454 14.406752,-2.3326996 10.603817,-1.4171083 11.115751,1.1011649 11.025711,1.8270394 10.920779,2.5501965 10.798831,3.2694396 10.461498,5.1366386 10.009627,6.9748783 9.4065812,8.7619186 10.318659,6.4366083 8.2113031,4.7716498 7.4614912,4.5160671 7.6399294,8.0499394 8.5096843,9.1293829 10.063075,8.7903158 11.567764,8.4618792 13.173369,6.7615568 13.940703,5.3936277 13.177672,6.1050508 9.3351838,6.3796154 9.3476473,8.9275028 9.1196108,9.6157908 8.8689055,10.296893 8.5934097,10.969614"
       id="path1349"
       inkscape:path-effect="#path-effect1357"
       inkscape:original-d="M 32.174859,-62.985707 C 0.32134521,-38.605391 18.321018,-10.555855 8.5892218,11.564621"
       sodipodi:nodetypes="cc"
       transform="translate(8.16267, 82.4743)"
       class="UnoptimicedTransforms" />
    <path
       style="fill:none;stroke:#008000;stroke-width:0.26458333;stroke-linecap:square;stroke-linejoin:bevel;stroke-dasharray:8, 1;stroke-dashoffset:0"
       d="M 69.126559,13.621404 C 66.904449,12.900015 64.826307,11.779284 62.949336,10.376979 62.581037,9.8979111 62.17468,9.5818446 61.728006,9.3690123 60.705462,8.8817887 59.427529,8.9362596 58.327616,8.9948684 58.327616,8.9948684 58.327616,8.9948684 58.327616,8.9948684 57.481198,9.0427124 56.738573,9.1008847 56.332507,8.9526947 56.692012,9.2065913 57.116329,9.4649682 57.582801,9.7036843 59.363848,10.621058 61.48149,11.046368 62.618075,10.444455 63.815496,9.8103247 63.530305,8.5001825 61.910326,5.5853222 61.820945,5.4261454 61.727933,5.2619155 61.630931,5.0913872 61.427874,5.3309141 61.148867,5.8172804 61.011375,6.4408244 61.011375,6.4408244 61.011375,6.4408247 61.011375,6.4408247 60.835744,7.2224442 60.885348,8.255664 61.616918,9.2154542 61.838363,9.5059808 62.135941,9.7698116 62.488445,10.023848 61.540311,9.2793183 60.643788,8.4598651 59.809943,7.5841876 59.027089,6.7621661 58.294215,5.8957323 57.60486,4.9941847 57.380769,4.4328957 57.067668,4.0177274 56.689938,3.6992808 55.131936,2.3858013 52.389963,2.6486035 51.553548,2.1568913 52.871221,3.5220773 55.181799,5.0341914 56.844668,5.0143131 58.568316,4.9937082 58.883661,3.5733932 57.537888,-0.56351149 56.992454,-0.1348414 55.773401,1.517635 56.620641,3.5224927 56.763145,3.8597049 56.983122,4.1908277 57.25573,4.5296362 55.863883,2.6460843 54.650731,0.61606829 53.561695,-1.4751068 53.474178,-1.8900111 53.328691,-2.2409906 53.137817,-2.5428068 53.055225,-2.6734654 52.964172,-2.794776 52.86583,-2.9077434 51.523361,-4.4498744 48.775478,-4.497096 48.011726,-5.0582335 48.897224,-3.9179275 50.408035,-2.5292585 51.829382,-1.8916216 51.829382,-1.8916216 51.829383,-1.8916213 51.829383,-1.8916213 53.274462,-1.2416638 54.457626,-1.4410823 54.64055,-3.290691 54.725964,-4.1569627 54.602039,-5.3604356 54.249489,-7.062604 53.650457,-6.6939214 52.287273,-5.1979099 52.823834,-3.0935699 52.874162,-2.8961883 52.947534,-2.6970104 53.039318,-2.4937857 53.113137,-2.3303865 53.198945,-2.164305 53.294382,-1.9944224 53.21083,-2.1585979 53.126182,-2.3267728 53.042267,-2.4952534 52.075818,-4.4362327 51.199603,-6.4166951 50.389885,-8.4259669 50.322547,-9.0288226 50.120645,-9.5145219 49.829584,-9.91569 48.629059,-11.570366 45.885422,-11.817718 45.164996,-12.421843 46.15756,-10.951265 48.0912,-8.9982735 49.651555,-8.6055655 51.239412,-8.2059357 52.14574,-9.3975982 51.541028,-13.97046 50.911778,-13.643165 49.453599,-12.244461 49.804023,-10.104514 49.863427,-9.7417466 49.99609,-9.3666826 50.17344,-8.9676991 49.3076,-11.153119 48.516299,-13.375251 47.770574,-15.616587 47.740395,-16.224402 47.565952,-16.723657 47.296527,-17.141731 46.185244,-18.86614 43.445523,-19.222266 42.751123,-19.844158 43.671996,-18.369861 45.519413,-16.321902 47.042896,-15.841154 48.573378,-15.358198 49.639364,-16.457749 49.19645,-21.142979 48.550429,-20.838208 47.04614,-19.491065 47.281187,-17.33235 47.321128,-16.965526 47.432834,-16.582512 47.586729,-16.172286 46.849557,-18.412777 46.154179,-20.675249 45.471404,-22.942098 45.458461,-23.551834 45.295622,-24.057118 45.035056,-24.481719 43.960312,-26.23305 41.224179,-26.606594 40.538503,-27.221031 41.431615,-25.780485 43.252143,-23.702766 44.749461,-23.186937 46.234583,-22.67531 47.417969,-23.70946 46.984153,-28.476014 46.33453,-28.174249 44.83357,-26.834227 45.023722,-24.67293 45.056119,-24.304705 45.159066,-23.918804 45.302481,-23.503815"
       id="path1339"
       inkscape:path-effect="#path-effect1347"
       inkscape:original-d="M 69.055095,13.841192 C 54.372118,9.0670196 49.01256,-10.459385 43.473754,-28.802332 43.205612,-29.690341 42.93705,-30.575577 42.66699,-31.456231"
       sodipodi:nodetypes="csc"
       transform="matrix(-1 0 0 1 86.515 82.1731)"
       class="UnoptimicedTransforms" />
  </g>
</svg>
